<?xml version="1.0" encoding="UTF-8" standalone="no"?>
<!DOCTYPE svg PUBLIC "-//W3C//DTD SVG 1.1//EN"
 "http://www.w3.org/Graphics/SVG/1.1/DTD/svg11.dtd">
<!-- Generated by graphviz version 8.1.0 (20230707.0739)
 -->
<!-- Title: tf2_msgs::msg::TFMessagePubSubType::getSerializedSizeProvider Pages: 1 -->
<svg width="908pt" height="239pt"
 viewBox="0.00 0.00 907.75 239.00" xmlns="http://www.w3.org/2000/svg" xmlns:xlink="http://www.w3.org/1999/xlink">
<g id="graph0" class="graph" transform="scale(1 1) rotate(0) translate(4 235)">
<title>tf2_msgs::msg::TFMessagePubSubType::getSerializedSizeProvider</title>
<!-- Node1 -->
<g id="Node000001" class="node">
<title>Node1</title>
<g id="a_Node000001"><a xlink:title=" ">
<polygon fill="#999999" stroke="#666666" points="153.25,-106 0,-106 0,-62 153.25,-62 153.25,-106"/>
<text text-anchor="start" x="8" y="-92.5" font-family="Helvetica,sans-Serif" font-size="10.00">tf2_msgs::msg::TFMessage</text>
<text text-anchor="start" x="8" y="-80.5" font-family="Helvetica,sans-Serif" font-size="10.00">PubSubType::getSerializedSize</text>
<text text-anchor="middle" x="76.62" y="-68.5" font-family="Helvetica,sans-Serif" font-size="10.00">Provider</text>
</a>
</g>
</g>
<!-- Node2 -->
<g id="Node000002" class="node">
<title>Node2</title>
<g id="a_Node000002"><a xlink:href="../../d2/df4/classtf2__msgs_1_1msg_1_1TFMessage.html#a13b09d556a6f9d0914e1ac927b1b3502" target="_top" xlink:title=" ">
<polygon fill="white" stroke="#666666" points="326.75,-100 189.25,-100 189.25,-68 326.75,-68 326.75,-100"/>
<text text-anchor="start" x="197.25" y="-86.5" font-family="Helvetica,sans-Serif" font-size="10.00">tf2_msgs::msg::TFMessage</text>
<text text-anchor="middle" x="258" y="-74.5" font-family="Helvetica,sans-Serif" font-size="10.00">::getCdrSerializedSize</text>
</a>
</g>
</g>
<!-- Node1&#45;&gt;Node2 -->
<g id="edge1_Node000001_Node000002" class="edge">
<title>Node1&#45;&gt;Node2</title>
<g id="a_edge1_Node000001_Node000002"><a xlink:title=" ">
<path fill="none" stroke="#63b8ff" d="M153.7,-84C161.71,-84 169.86,-84 177.9,-84"/>
<polygon fill="#63b8ff" stroke="#63b8ff" points="177.77,-87.5 187.77,-84 177.77,-80.5 177.77,-87.5"/>
</a>
</g>
</g>
<!-- Node3 -->
<g id="Node000003" class="node">
<title>Node3</title>
<g id="a_Node000003"><a xlink:href="../../dc/d01/classgeometry__msgs_1_1msg_1_1TransformStamped.html#a4222cca48a2ef9582346b5644584e5b9" target="_top" xlink:title="此函数返回数据的序列化尺寸，取决于缓冲区对齐。">
<polygon fill="white" stroke="#666666" points="486.75,-134 376.25,-134 376.25,-90 486.75,-90 486.75,-134"/>
<text text-anchor="start" x="384.25" y="-120.5" font-family="Helvetica,sans-Serif" font-size="10.00">geometry_msgs::msg</text>
<text text-anchor="start" x="384.25" y="-108.5" font-family="Helvetica,sans-Serif" font-size="10.00">::TransformStamped::</text>
<text text-anchor="middle" x="431.5" y="-96.5" font-family="Helvetica,sans-Serif" font-size="10.00">getCdrSerializedSize</text>
</a>
</g>
</g>
<!-- Node2&#45;&gt;Node3 -->
<g id="edge2_Node000002_Node000003" class="edge">
<title>Node2&#45;&gt;Node3</title>
<g id="a_edge2_Node000002_Node000003"><a xlink:title=" ">
<path fill="none" stroke="#63b8ff" d="M326.78,-95.07C339.38,-97.12 352.52,-99.27 365.05,-101.31"/>
<polygon fill="#63b8ff" stroke="#63b8ff" points="364.44,-104.92 374.88,-103.08 365.57,-98.02 364.44,-104.92"/>
</a>
</g>
</g>
<!-- Node12 -->
<g id="Node000012" class="node">
<title>Node12</title>
<g id="a_Node000012"><a xlink:href="../../d2/df4/classtf2__msgs_1_1msg_1_1TFMessage.html#a7735c866b9ec842adbf688b23656c14b" target="_top" xlink:title="This function copies the value in member transforms">
<polygon fill="white" stroke="#666666" points="500.25,-72 362.75,-72 362.75,-40 500.25,-40 500.25,-72"/>
<text text-anchor="start" x="370.75" y="-58.5" font-family="Helvetica,sans-Serif" font-size="10.00">tf2_msgs::msg::TFMessage</text>
<text text-anchor="middle" x="431.5" y="-46.5" font-family="Helvetica,sans-Serif" font-size="10.00">::transforms</text>
</a>
</g>
</g>
<!-- Node2&#45;&gt;Node12 -->
<g id="edge11_Node000002_Node000012" class="edge">
<title>Node2&#45;&gt;Node12</title>
<g id="a_edge11_Node000002_Node000012"><a xlink:title=" ">
<path fill="none" stroke="#63b8ff" d="M326.78,-72.93C334.92,-71.61 343.28,-70.24 351.56,-68.89"/>
<polygon fill="#63b8ff" stroke="#63b8ff" points="352.06,-72.19 361.37,-67.12 350.94,-65.28 352.06,-72.19"/>
</a>
</g>
</g>
<!-- Node4 -->
<g id="Node000004" class="node">
<title>Node4</title>
<g id="a_Node000004"><a xlink:href="../../dc/d01/classgeometry__msgs_1_1msg_1_1TransformStamped.html#aaabafeeb5083f4525db1dc6d37e6c065" target="_top" xlink:title="此函数复制成员 child_frame_id 的值。">
<polygon fill="white" stroke="#666666" points="672.25,-218 561.75,-218 561.75,-174 672.25,-174 672.25,-218"/>
<text text-anchor="start" x="569.75" y="-204.5" font-family="Helvetica,sans-Serif" font-size="10.00">geometry_msgs::msg</text>
<text text-anchor="start" x="569.75" y="-192.5" font-family="Helvetica,sans-Serif" font-size="10.00">::TransformStamped::</text>
<text text-anchor="middle" x="617" y="-180.5" font-family="Helvetica,sans-Serif" font-size="10.00">child_frame_id</text>
</a>
</g>
</g>
<!-- Node3&#45;&gt;Node4 -->
<g id="edge3_Node000003_Node000004" class="edge">
<title>Node3&#45;&gt;Node4</title>
<g id="a_edge3_Node000003_Node000004"><a xlink:title=" ">
<path fill="none" stroke="#63b8ff" d="M473.93,-134.38C492.74,-144.23 515.39,-155.65 536.25,-165 541.21,-167.22 546.37,-169.44 551.59,-171.61"/>
<polygon fill="#63b8ff" stroke="#63b8ff" points="550.06,-175.18 560.64,-175.72 552.71,-168.7 550.06,-175.18"/>
</a>
</g>
</g>
<!-- Node5 -->
<g id="Node000005" class="node">
<title>Node5</title>
<g id="a_Node000005"><a xlink:href="../../d6/d5a/classgeometry__msgs_1_1msg_1_1Transform.html#a2c265f59d89d3b05d617dc948d9c19b9" target="_top" xlink:title="此函数根据缓冲区对齐方式，返回给定数据的序列化大小。">
<polygon fill="white" stroke="#666666" points="697.75,-156 536.25,-156 536.25,-124 697.75,-124 697.75,-156"/>
<text text-anchor="start" x="544.25" y="-142.5" font-family="Helvetica,sans-Serif" font-size="10.00">geometry_msgs::msg</text>
<text text-anchor="middle" x="617" y="-130.5" font-family="Helvetica,sans-Serif" font-size="10.00">::Transform::getCdrSerializedSize</text>
</a>
</g>
</g>
<!-- Node3&#45;&gt;Node5 -->
<g id="edge4_Node000003_Node000005" class="edge">
<title>Node3&#45;&gt;Node5</title>
<g id="a_edge4_Node000003_Node000005"><a xlink:title=" ">
<path fill="none" stroke="#63b8ff" d="M487.06,-120.33C499.03,-122.15 512.01,-124.13 524.98,-126.11"/>
<polygon fill="#63b8ff" stroke="#63b8ff" points="524.42,-129.72 534.84,-127.77 525.48,-122.8 524.42,-129.72"/>
</a>
</g>
</g>
<!-- Node10 -->
<g id="Node000010" class="node">
<title>Node10</title>
<g id="a_Node000010"><a xlink:href="../../dc/d01/classgeometry__msgs_1_1msg_1_1TransformStamped.html#abf590cca246791b55267967051efc7a4" target="_top" xlink:title="此函数复制成员 header 的值。">
<polygon fill="white" stroke="#666666" points="672.25,-106 561.75,-106 561.75,-62 672.25,-62 672.25,-106"/>
<text text-anchor="start" x="569.75" y="-92.5" font-family="Helvetica,sans-Serif" font-size="10.00">geometry_msgs::msg</text>
<text text-anchor="start" x="569.75" y="-80.5" font-family="Helvetica,sans-Serif" font-size="10.00">::TransformStamped::</text>
<text text-anchor="middle" x="617" y="-68.5" font-family="Helvetica,sans-Serif" font-size="10.00">header</text>
</a>
</g>
</g>
<!-- Node3&#45;&gt;Node10 -->
<g id="edge9_Node000003_Node000010" class="edge">
<title>Node3&#45;&gt;Node10</title>
<g id="a_edge9_Node000003_Node000010"><a xlink:title=" ">
<path fill="none" stroke="#63b8ff" d="M487.06,-103.67C507.03,-100.63 529.83,-97.15 550.65,-93.97"/>
<polygon fill="#63b8ff" stroke="#63b8ff" points="550.98,-97.31 560.33,-92.34 549.92,-90.39 550.98,-97.31"/>
</a>
</g>
</g>
<!-- Node11 -->
<g id="Node000011" class="node">
<title>Node11</title>
<g id="a_Node000011"><a xlink:href="../../dc/d01/classgeometry__msgs_1_1msg_1_1TransformStamped.html#a79a685ff268b47b2a1a8f04b4dfc8da2" target="_top" xlink:title="此函数复制成员 transform 的值。">
<polygon fill="white" stroke="#666666" points="672.25,-44 561.75,-44 561.75,0 672.25,0 672.25,-44"/>
<text text-anchor="start" x="569.75" y="-30.5" font-family="Helvetica,sans-Serif" font-size="10.00">geometry_msgs::msg</text>
<text text-anchor="start" x="569.75" y="-18.5" font-family="Helvetica,sans-Serif" font-size="10.00">::TransformStamped::</text>
<text text-anchor="middle" x="617" y="-6.5" font-family="Helvetica,sans-Serif" font-size="10.00">transform</text>
</a>
</g>
</g>
<!-- Node3&#45;&gt;Node11 -->
<g id="edge10_Node000003_Node000011" class="edge">
<title>Node3&#45;&gt;Node11</title>
<g id="a_edge10_Node000003_Node000011"><a xlink:title=" ">
<path fill="none" stroke="#63b8ff" d="M484.92,-89.5C490.19,-86.8 495.38,-83.95 500.25,-81 517.58,-70.49 518.62,-63 536.25,-53 541.18,-50.21 546.4,-47.56 551.73,-45.07"/>
<polygon fill="#63b8ff" stroke="#63b8ff" points="552.68,-48.04 560.4,-40.78 549.84,-41.64 552.68,-48.04"/>
</a>
</g>
</g>
<!-- Node6 -->
<g id="Node000006" class="node">
<title>Node6</title>
<g id="a_Node000006"><a xlink:href="../../d5/de9/classgeometry__msgs_1_1msg_1_1Quaternion.html#a42b051b07b2e83df416c8ebfc76a306c" target="_top" xlink:title="This function returns the serialized size of a data depending on the buffer alignment.">
<polygon fill="white" stroke="#666666" points="899.75,-231 733.75,-231 733.75,-199 899.75,-199 899.75,-231"/>
<text text-anchor="start" x="741.75" y="-217.5" font-family="Helvetica,sans-Serif" font-size="10.00">geometry_msgs::msg</text>
<text text-anchor="middle" x="816.75" y="-205.5" font-family="Helvetica,sans-Serif" font-size="10.00">::Quaternion::getCdrSerializedSize</text>
</a>
</g>
</g>
<!-- Node5&#45;&gt;Node6 -->
<g id="edge5_Node000005_Node000006" class="edge">
<title>Node5&#45;&gt;Node6</title>
<g id="a_edge5_Node000005_Node000006"><a xlink:title=" ">
<path fill="none" stroke="#63b8ff" d="M677.58,-156.47C684.5,-159.03 691.36,-161.87 697.75,-165 715.24,-173.57 716.22,-181.5 733.75,-190 737.13,-191.64 740.65,-193.2 744.23,-194.68"/>
<polygon fill="#63b8ff" stroke="#63b8ff" points="742.89,-198.3 753.48,-198.64 745.42,-191.77 742.89,-198.3"/>
</a>
</g>
</g>
<!-- Node7 -->
<g id="Node000007" class="node">
<title>Node7</title>
<g id="a_Node000007"><a xlink:href="../../df/d66/classgeometry__msgs_1_1msg_1_1Vector3.html#a3f4f6b078e23dd8bbd3a400a1c8a6209" target="_top" xlink:title="此函数返回数据的序列化大小 &#160;&#160;取决于缓冲区对齐。">
<polygon fill="white" stroke="#666666" points="893,-181 740.5,-181 740.5,-149 893,-149 893,-181"/>
<text text-anchor="start" x="748.5" y="-167.5" font-family="Helvetica,sans-Serif" font-size="10.00">geometry_msgs::msg</text>
<text text-anchor="middle" x="816.75" y="-155.5" font-family="Helvetica,sans-Serif" font-size="10.00">::Vector3::getCdrSerializedSize</text>
</a>
</g>
</g>
<!-- Node5&#45;&gt;Node7 -->
<g id="edge6_Node000005_Node000007" class="edge">
<title>Node5&#45;&gt;Node7</title>
<g id="a_edge6_Node000005_Node000007"><a xlink:title=" ">
<path fill="none" stroke="#63b8ff" d="M698.15,-150.13C708.48,-151.44 719.09,-152.78 729.51,-154.1"/>
<polygon fill="#63b8ff" stroke="#63b8ff" points="728.92,-157.68 739.29,-155.46 729.8,-150.73 728.92,-157.68"/>
</a>
</g>
</g>
<!-- Node8 -->
<g id="Node000008" class="node">
<title>Node8</title>
<g id="a_Node000008"><a xlink:href="../../d6/d5a/classgeometry__msgs_1_1msg_1_1Transform.html#a9a1459664ad7860be84baf60265516bc" target="_top" xlink:title="此函数用于拷贝成员变量rotation的值，将传入的新值拷贝到成员rotation中。">
<polygon fill="white" stroke="#666666" points="872,-131 761.5,-131 761.5,-99 872,-99 872,-131"/>
<text text-anchor="start" x="769.5" y="-117.5" font-family="Helvetica,sans-Serif" font-size="10.00">geometry_msgs::msg</text>
<text text-anchor="middle" x="816.75" y="-105.5" font-family="Helvetica,sans-Serif" font-size="10.00">::Transform::rotation</text>
</a>
</g>
</g>
<!-- Node5&#45;&gt;Node8 -->
<g id="edge7_Node000005_Node000008" class="edge">
<title>Node5&#45;&gt;Node8</title>
<g id="a_edge7_Node000005_Node000008"><a xlink:title=" ">
<path fill="none" stroke="#63b8ff" d="M698.15,-129.87C715.54,-127.67 733.73,-125.37 750.46,-123.25"/>
<polygon fill="#63b8ff" stroke="#63b8ff" points="750.74,-126.62 760.23,-121.89 749.87,-119.67 750.74,-126.62"/>
</a>
</g>
</g>
<!-- Node9 -->
<g id="Node000009" class="node">
<title>Node9</title>
<g id="a_Node000009"><a xlink:href="../../d6/d5a/classgeometry__msgs_1_1msg_1_1Transform.html#a6edb54feae3a094afdb701e1fd3c1fd1" target="_top" xlink:title="此函数用于拷贝成员变量translation的值，将传入的新值拷贝到成员translation中。">
<polygon fill="white" stroke="#666666" points="874.62,-81 758.88,-81 758.88,-49 874.62,-49 874.62,-81"/>
<text text-anchor="start" x="766.88" y="-67.5" font-family="Helvetica,sans-Serif" font-size="10.00">geometry_msgs::msg</text>
<text text-anchor="middle" x="816.75" y="-55.5" font-family="Helvetica,sans-Serif" font-size="10.00">::Transform::translation</text>
</a>
</g>
</g>
<!-- Node5&#45;&gt;Node9 -->
<g id="edge8_Node000005_Node000009" class="edge">
<title>Node5&#45;&gt;Node9</title>
<g id="a_edge8_Node000005_Node000009"><a xlink:title=" ">
<path fill="none" stroke="#63b8ff" d="M677.58,-123.53C684.5,-120.97 691.36,-118.13 697.75,-115 715.24,-106.43 716.22,-98.5 733.75,-90 738.36,-87.76 743.22,-85.68 748.17,-83.74"/>
<polygon fill="#63b8ff" stroke="#63b8ff" points="749.23,-86.71 757.41,-79.97 746.82,-80.14 749.23,-86.71"/>
</a>
</g>
</g>
</g>
</svg>
