<?xml version="1.0" encoding="UTF-8" standalone="no"?>
<!DOCTYPE svg PUBLIC "-//W3C//DTD SVG 1.1//EN"
 "http://www.w3.org/Graphics/SVG/1.1/DTD/svg11.dtd">
<!-- Generated by graphviz version 8.1.0 (20230707.0739)
 -->
<!-- Title: sensor_msgs::msg::Image::encoding Pages: 1 -->
<svg width="514pt" height="40pt"
 viewBox="0.00 0.00 513.50 40.00" xmlns="http://www.w3.org/2000/svg" xmlns:xlink="http://www.w3.org/1999/xlink">
<g id="graph0" class="graph" transform="scale(1 1) rotate(0) translate(4 36)">
<title>sensor_msgs::msg::Image::encoding</title>
<!-- Node1 -->
<g id="Node000001" class="node">
<title>Node1</title>
<g id="a_Node000001"><a xlink:title="This function copies the value in member encoding">
<polygon fill="#999999" stroke="#666666" points="505.5,-32 374,-32 374,0 505.5,0 505.5,-32"/>
<text text-anchor="start" x="382" y="-18.5" font-family="Helvetica,sans-Serif" font-size="10.00">sensor_msgs::msg::Image</text>
<text text-anchor="middle" x="439.75" y="-6.5" font-family="Helvetica,sans-Serif" font-size="10.00">::encoding</text>
</a>
</g>
</g>
<!-- Node2 -->
<g id="Node000002" class="node">
<title>Node2</title>
<g id="a_Node000002"><a xlink:href="../../d7/de9/classsensor__msgs_1_1msg_1_1Image.html#a5e09e00c244303b1c1fa4f3ba9c16e49" target="_top" xlink:title="This function returns the serialized size of a data depending on the buffer alignment.">
<polygon fill="white" stroke="#666666" points="338,-32 206.5,-32 206.5,0 338,0 338,-32"/>
<text text-anchor="start" x="214.5" y="-18.5" font-family="Helvetica,sans-Serif" font-size="10.00">sensor_msgs::msg::Image</text>
<text text-anchor="middle" x="272.25" y="-6.5" font-family="Helvetica,sans-Serif" font-size="10.00">::getCdrSerializedSize</text>
</a>
</g>
</g>
<!-- Node1&#45;&gt;Node2 -->
<g id="edge1_Node000001_Node000002" class="edge">
<title>Node1&#45;&gt;Node2</title>
<g id="a_edge1_Node000001_Node000002"><a xlink:title=" ">
<path fill="none" stroke="#63b8ff" d="M363.03,-16C354.76,-16 346.39,-16 338.27,-16"/>
<polygon fill="#63b8ff" stroke="#63b8ff" points="362.82,-19.5 372.82,-16 362.81,-12.5 362.82,-19.5"/>
</a>
</g>
</g>
<!-- Node3 -->
<g id="Node000003" class="node">
<title>Node3</title>
<g id="a_Node000003"><a xlink:href="../../d2/d1e/classsensor__msgs_1_1msg_1_1ImagePubSubType.html#a7bf283f05a876416bdf502c53860a638" target="_top" xlink:title=" ">
<polygon fill="white" stroke="#666666" points="170.5,-32 0,-32 0,0 170.5,0 170.5,-32"/>
<text text-anchor="start" x="8" y="-18.5" font-family="Helvetica,sans-Serif" font-size="10.00">sensor_msgs::msg::ImagePub</text>
<text text-anchor="middle" x="85.25" y="-6.5" font-family="Helvetica,sans-Serif" font-size="10.00">SubType::getSerializedSizeProvider</text>
</a>
</g>
</g>
<!-- Node2&#45;&gt;Node3 -->
<g id="edge2_Node000002_Node000003" class="edge">
<title>Node2&#45;&gt;Node3</title>
<g id="a_edge2_Node000002_Node000003"><a xlink:title=" ">
<path fill="none" stroke="#63b8ff" d="M195.24,-16C187.24,-16 179.07,-16 170.98,-16"/>
<polygon fill="#63b8ff" stroke="#63b8ff" points="195.03,-19.5 205.03,-16 195.03,-12.5 195.03,-19.5"/>
</a>
</g>
</g>
</g>
</svg>
