<?xml version="1.0" encoding="UTF-8" standalone="no"?>
<!DOCTYPE svg PUBLIC "-//W3C//DTD SVG 1.1//EN"
 "http://www.w3.org/Graphics/SVG/1.1/DTD/svg11.dtd">
<!-- Generated by graphviz version 8.1.0 (20230707.0739)
 -->
<!-- Title: io_context_running Pages: 1 -->
<svg width="305pt" height="164pt"
 viewBox="0.00 0.00 304.50 164.00" xmlns="http://www.w3.org/2000/svg" xmlns:xlink="http://www.w3.org/1999/xlink">
<g id="graph0" class="graph" transform="scale(1 1) rotate(0) translate(4 160)">
<title>io_context_running</title>
<!-- Node1 -->
<g id="Node000001" class="node">
<title>Node1</title>
<g id="a_Node000001"><a xlink:title=" ">
<polygon fill="#999999" stroke="#666666" points="146.38,-20 48.62,-20 48.62,0 146.38,0 146.38,-20"/>
<text text-anchor="middle" x="97.5" y="-6.5" font-family="Helvetica,sans-Serif" font-size="10.00">io_context_running</text>
</a>
</g>
</g>
<!-- Node2 -->
<g id="Node000002" class="node">
<title>Node2</title>
<g id="a_Node000002"><a xlink:title=" ">
<polygon fill="white" stroke="#666666" points="61,-88 0,-88 0,-68 61,-68 61,-88"/>
<text text-anchor="middle" x="30.5" y="-74.5" font-family="Helvetica,sans-Serif" font-size="10.00">io_context</text>
</a>
</g>
</g>
<!-- Node2&#45;&gt;Node1 -->
<g id="edge1_Node000001_Node000002" class="edge">
<title>Node2&#45;&gt;Node1</title>
<g id="a_edge1_Node000001_Node000002"><a xlink:title=" ">
<path fill="none" stroke="#9a32cd" stroke-dasharray="5,2" d="M42.67,-59.01C47.77,-52.08 54.02,-44.31 60.5,-38 67.22,-31.45 75.6,-25.2 82.69,-20.37"/>
<polygon fill="#9a32cd" stroke="#9a32cd" points="39.42,-56.55 36.51,-66.73 45.13,-60.58 39.42,-56.55"/>
</a>
</g>
<text text-anchor="middle" x="77" y="-40.5" font-family="Helvetica,sans-Serif" font-size="10.00" fill="grey"> service</text>
</g>
<!-- Node3 -->
<g id="Node000003" class="node">
<title>Node3</title>
<g id="a_Node000003"><a xlink:title=" ">
<polygon fill="white" stroke="#666666" points="115.62,-88 79.38,-88 79.38,-68 115.62,-68 115.62,-88"/>
<text text-anchor="middle" x="97.5" y="-74.5" font-family="Helvetica,sans-Serif" font-size="10.00">work</text>
</a>
</g>
</g>
<!-- Node3&#45;&gt;Node1 -->
<g id="edge2_Node000001_Node000003" class="edge">
<title>Node3&#45;&gt;Node1</title>
<g id="a_edge2_Node000001_Node000003"><a xlink:title=" ">
<path fill="none" stroke="#9a32cd" stroke-dasharray="5,2" d="M97.5,-56.65C97.5,-44.58 97.5,-29.84 97.5,-20.44"/>
<polygon fill="#9a32cd" stroke="#9a32cd" points="94,-56.54 97.5,-66.54 101,-56.54 94,-56.54"/>
</a>
</g>
<text text-anchor="middle" x="126.38" y="-40.5" font-family="Helvetica,sans-Serif" font-size="10.00" fill="grey"> _work_to_do</text>
</g>
<!-- Node4 -->
<g id="Node000004" class="node">
<title>Node4</title>
<g id="a_Node000004"><a xlink:href="../../db/d71/classcarla_1_1ThreadGroup.html" target="_top" xlink:title=" ">
<polygon fill="white" stroke="#666666" points="231.75,-88 133.25,-88 133.25,-68 231.75,-68 231.75,-88"/>
<text text-anchor="middle" x="182.5" y="-74.5" font-family="Helvetica,sans-Serif" font-size="10.00">carla::ThreadGroup</text>
</a>
</g>
</g>
<!-- Node4&#45;&gt;Node1 -->
<g id="edge3_Node000001_Node000004" class="edge">
<title>Node4&#45;&gt;Node1</title>
<g id="a_edge3_Node000001_Node000004"><a xlink:title=" ">
<path fill="none" stroke="#9a32cd" stroke-dasharray="5,2" d="M173.84,-57.99C169.94,-51.01 164.78,-43.48 158.5,-38 149.86,-30.46 138.79,-24.71 128.44,-20.5"/>
<polygon fill="#9a32cd" stroke="#9a32cd" points="171.02,-59.18 178.65,-66.53 177.27,-56.03 171.02,-59.18"/>
</a>
</g>
<text text-anchor="middle" x="188.75" y="-40.5" font-family="Helvetica,sans-Serif" font-size="10.00" fill="grey"> _threads</text>
</g>
<!-- Node5 -->
<g id="Node000005" class="node">
<title>Node5</title>
<g id="a_Node000005"><a xlink:href="../../d4/d8b/classcarla_1_1NonCopyable.html" target="_top" xlink:title="Inherit (privately) to suppress copy/move construction and assignment.">
<polygon fill="white" stroke="#666666" points="172.88,-156 72.12,-156 72.12,-136 172.88,-136 172.88,-156"/>
<text text-anchor="middle" x="122.5" y="-142.5" font-family="Helvetica,sans-Serif" font-size="10.00">carla::NonCopyable</text>
</a>
</g>
</g>
<!-- Node5&#45;&gt;Node4 -->
<g id="edge4_Node000004_Node000005" class="edge">
<title>Node5&#45;&gt;Node4</title>
<g id="a_edge4_Node000004_Node000005"><a xlink:title=" ">
<path fill="none" stroke="#8b1a1a" d="M138.31,-127.61C149.71,-115.07 164.66,-98.63 173.92,-88.44"/>
<polygon fill="#8b1a1a" stroke="#8b1a1a" points="136.23,-124.79 132.1,-134.54 141.41,-129.5 136.23,-124.79"/>
</a>
</g>
</g>
<!-- Node6 -->
<g id="Node000006" class="node">
<title>Node6</title>
<g id="a_Node000006"><a xlink:title=" ">
<polygon fill="white" stroke="#666666" points="296.5,-156 190.5,-156 190.5,-136 296.5,-136 296.5,-156"/>
<text text-anchor="middle" x="243.5" y="-142.5" font-family="Helvetica,sans-Serif" font-size="10.00">vector&lt; std::thread &gt;</text>
</a>
</g>
</g>
<!-- Node6&#45;&gt;Node4 -->
<g id="edge5_Node000004_Node000006" class="edge">
<title>Node6&#45;&gt;Node4</title>
<g id="a_edge5_Node000004_Node000006"><a xlink:title=" ">
<path fill="none" stroke="#9a32cd" stroke-dasharray="5,2" d="M227.43,-127.61C215.84,-115.07 200.64,-98.63 191.22,-88.44"/>
<polygon fill="#9a32cd" stroke="#9a32cd" points="224.4,-129.58 233.76,-134.54 229.54,-124.82 224.4,-129.58"/>
</a>
</g>
<text text-anchor="middle" x="237.75" y="-108.5" font-family="Helvetica,sans-Serif" font-size="10.00" fill="grey"> _threads</text>
</g>
</g>
</svg>
