<?xml version="1.0" encoding="UTF-8" standalone="no"?>
<!DOCTYPE svg PUBLIC "-//W3C//DTD SVG 1.1//EN"
 "http://www.w3.org/Graphics/SVG/1.1/DTD/svg11.dtd">
<!-- Generated by graphviz version 8.1.0 (20230707.0739)
 -->
<!-- Title: carla::opendrive::parser::Road Pages: 1 -->
<svg width="364pt" height="306pt"
 viewBox="0.00 0.00 364.00 306.00" xmlns="http://www.w3.org/2000/svg" xmlns:xlink="http://www.w3.org/1999/xlink">
<g id="graph0" class="graph" transform="scale(1 1) rotate(0) translate(4 302)">
<title>carla::opendrive::parser::Road</title>
<!-- Node1 -->
<g id="Node000001" class="node">
<title>Node1</title>
<g id="a_Node000001"><a xlink:title=" ">
<polygon fill="#999999" stroke="#666666" points="356,-176 239.5,-176 239.5,-144 356,-144 356,-176"/>
<text text-anchor="start" x="247.5" y="-162.5" font-family="Helvetica,sans-Serif" font-size="10.00">carla::opendrive::parser</text>
<text text-anchor="middle" x="297.75" y="-150.5" font-family="Helvetica,sans-Serif" font-size="10.00">::Road</text>
</a>
</g>
</g>
<!-- Node2 -->
<g id="Node000002" class="node">
<title>Node2</title>
<g id="a_Node000002"><a xlink:title=" ">
<polygon fill="white" stroke="#666666" points="92.88,-284 42.38,-284 42.38,-264 92.88,-264 92.88,-284"/>
<text text-anchor="middle" x="67.62" y="-270.5" font-family="Helvetica,sans-Serif" font-size="10.00">uint32_t</text>
</a>
</g>
</g>
<!-- Node2&#45;&gt;Node1 -->
<g id="edge1_Node000001_Node000002" class="edge">
<title>Node2&#45;&gt;Node1</title>
<g id="a_edge1_Node000001_Node000002"><a xlink:title=" ">
<path fill="none" stroke="#9a32cd" stroke-dasharray="5,2" d="M103.93,-271.05C136.3,-267.1 184.66,-257.95 221.5,-237 248.31,-221.75 271.82,-194.17 285.15,-176.49"/>
<polygon fill="#9a32cd" stroke="#9a32cd" points="103.74,-267.66 94.19,-272.25 104.52,-274.62 103.74,-267.66"/>
</a>
</g>
<text text-anchor="middle" x="187.38" y="-288.5" font-family="Helvetica,sans-Serif" font-size="10.00" fill="grey"> id</text>
<text text-anchor="middle" x="187.38" y="-276.5" font-family="Helvetica,sans-Serif" font-size="10.00" fill="grey">predecessor</text>
<text text-anchor="middle" x="187.38" y="-264.5" font-family="Helvetica,sans-Serif" font-size="10.00" fill="grey">successor</text>
</g>
<!-- Node3 -->
<g id="Node000003" class="node">
<title>Node3</title>
<g id="a_Node000003"><a xlink:title=" ">
<polygon fill="white" stroke="#666666" points="87.62,-246 47.62,-246 47.62,-226 87.62,-226 87.62,-246"/>
<text text-anchor="middle" x="67.62" y="-232.5" font-family="Helvetica,sans-Serif" font-size="10.00">string</text>
</a>
</g>
</g>
<!-- Node3&#45;&gt;Node1 -->
<g id="edge2_Node000001_Node000003" class="edge">
<title>Node3&#45;&gt;Node1</title>
<g id="a_edge2_Node000001_Node000003"><a xlink:title=" ">
<path fill="none" stroke="#9a32cd" stroke-dasharray="5,2" d="M98.62,-231.96C129.99,-227.14 180.31,-217.69 221.5,-202 239.12,-195.29 257.62,-185.01 271.87,-176.3"/>
<polygon fill="#9a32cd" stroke="#9a32cd" points="98.35,-228.61 88.97,-233.54 99.37,-235.54 98.35,-228.61"/>
</a>
</g>
<text text-anchor="middle" x="187.38" y="-223.5" font-family="Helvetica,sans-Serif" font-size="10.00" fill="grey"> name</text>
</g>
<!-- Node4 -->
<g id="Node000004" class="node">
<title>Node4</title>
<g id="a_Node000004"><a xlink:title=" ">
<polygon fill="white" stroke="#666666" points="89.88,-208 45.38,-208 45.38,-188 89.88,-188 89.88,-208"/>
<text text-anchor="middle" x="67.62" y="-194.5" font-family="Helvetica,sans-Serif" font-size="10.00">double</text>
</a>
</g>
</g>
<!-- Node4&#45;&gt;Node1 -->
<g id="edge3_Node000001_Node000004" class="edge">
<title>Node4&#45;&gt;Node1</title>
<g id="a_edge3_Node000001_Node000004"><a xlink:title=" ">
<path fill="none" stroke="#9a32cd" stroke-dasharray="5,2" d="M100.56,-194.03C131.55,-190.04 179.88,-183.41 221.5,-176 227.29,-174.97 233.31,-173.82 239.31,-172.62"/>
<polygon fill="#9a32cd" stroke="#9a32cd" points="100.44,-190.65 90.97,-195.38 101.33,-197.59 100.44,-190.65"/>
</a>
</g>
<text text-anchor="middle" x="187.38" y="-188.5" font-family="Helvetica,sans-Serif" font-size="10.00" fill="grey"> length</text>
</g>
<!-- Node5 -->
<g id="Node000005" class="node">
<title>Node5</title>
<g id="a_Node000005"><a xlink:title=" ">
<polygon fill="white" stroke="#666666" points="90.25,-170 45,-170 45,-150 90.25,-150 90.25,-170"/>
<text text-anchor="middle" x="67.62" y="-156.5" font-family="Helvetica,sans-Serif" font-size="10.00">int32_t</text>
</a>
</g>
</g>
<!-- Node5&#45;&gt;Node1 -->
<g id="edge4_Node000001_Node000005" class="edge">
<title>Node5&#45;&gt;Node1</title>
<g id="a_edge4_Node000001_Node000005"><a xlink:title=" ">
<path fill="none" stroke="#9a32cd" stroke-dasharray="5,2" d="M101.31,-160C137.19,-160 195.47,-160 239.07,-160"/>
<polygon fill="#9a32cd" stroke="#9a32cd" points="101.5,-156.5 91.5,-160 101.5,-163.5 101.5,-156.5"/>
</a>
</g>
<text text-anchor="middle" x="187.38" y="-162.5" font-family="Helvetica,sans-Serif" font-size="10.00" fill="grey"> junction_id</text>
</g>
<!-- Node6 -->
<g id="Node000006" class="node">
<title>Node6</title>
<g id="a_Node000006"><a xlink:title=" ">
<polygon fill="white" stroke="#666666" points="135.25,-132 0,-132 0,-100 135.25,-100 135.25,-132"/>
<text text-anchor="start" x="8" y="-118.5" font-family="Helvetica,sans-Serif" font-size="10.00">vector&lt; carla::opendrive</text>
<text text-anchor="middle" x="67.62" y="-106.5" font-family="Helvetica,sans-Serif" font-size="10.00">::parser::RoadTypeSpeed &gt;</text>
</a>
</g>
</g>
<!-- Node6&#45;&gt;Node1 -->
<g id="edge5_Node000001_Node000006" class="edge">
<title>Node6&#45;&gt;Node1</title>
<g id="a_edge5_Node000001_Node000006"><a xlink:title=" ">
<path fill="none" stroke="#9a32cd" stroke-dasharray="5,2" d="M146.21,-129.77C170.36,-134.17 197.06,-139.16 221.5,-144 227.27,-145.14 233.27,-146.36 239.27,-147.6"/>
<polygon fill="#9a32cd" stroke="#9a32cd" points="147.14,-126.2 136.68,-127.86 145.89,-133.09 147.14,-126.2"/>
</a>
</g>
<text text-anchor="middle" x="187.38" y="-146.5" font-family="Helvetica,sans-Serif" font-size="10.00" fill="grey"> speed</text>
</g>
<!-- Node7 -->
<g id="Node000007" class="node">
<title>Node7</title>
<g id="a_Node000007"><a xlink:title=" ">
<polygon fill="white" stroke="#666666" points="126.62,-82 8.62,-82 8.62,-50 126.62,-50 126.62,-82"/>
<text text-anchor="start" x="16.62" y="-68.5" font-family="Helvetica,sans-Serif" font-size="10.00">vector&lt; carla::opendrive</text>
<text text-anchor="middle" x="67.62" y="-56.5" font-family="Helvetica,sans-Serif" font-size="10.00">::parser::LaneOffset &gt;</text>
</a>
</g>
</g>
<!-- Node7&#45;&gt;Node1 -->
<g id="edge6_Node000001_Node000007" class="edge">
<title>Node7&#45;&gt;Node1</title>
<g id="a_edge6_Node000001_Node000007"><a xlink:title=" ">
<path fill="none" stroke="#9a32cd" stroke-dasharray="5,2" d="M137.23,-84.34C164.04,-92.44 194.71,-102.89 221.5,-115 239.25,-123.03 258.07,-134.28 272.44,-143.52"/>
<polygon fill="#9a32cd" stroke="#9a32cd" points="138.36,-80.72 127.78,-81.24 136.37,-87.43 138.36,-80.72"/>
</a>
</g>
<text text-anchor="middle" x="187.38" y="-117.5" font-family="Helvetica,sans-Serif" font-size="10.00" fill="grey"> section_offsets</text>
</g>
<!-- Node8 -->
<g id="Node000008" class="node">
<title>Node8</title>
<g id="a_Node000008"><a xlink:title=" ">
<polygon fill="white" stroke="#666666" points="126.62,-32 8.62,-32 8.62,0 126.62,0 126.62,-32"/>
<text text-anchor="start" x="16.62" y="-18.5" font-family="Helvetica,sans-Serif" font-size="10.00">vector&lt; carla::opendrive</text>
<text text-anchor="middle" x="67.62" y="-6.5" font-family="Helvetica,sans-Serif" font-size="10.00">::parser::LaneSection &gt;</text>
</a>
</g>
</g>
<!-- Node8&#45;&gt;Node1 -->
<g id="edge7_Node000001_Node000008" class="edge">
<title>Node8&#45;&gt;Node1</title>
<g id="a_edge7_Node000001_Node000008"><a xlink:title=" ">
<path fill="none" stroke="#9a32cd" stroke-dasharray="5,2" d="M137.48,-34.12C165.11,-43.36 196.31,-56.44 221.5,-74 249.01,-93.17 272.99,-124.51 286.11,-143.6"/>
<polygon fill="#9a32cd" stroke="#9a32cd" points="138.67,-30.5 128.08,-30.76 136.52,-37.16 138.67,-30.5"/>
</a>
</g>
<text text-anchor="middle" x="187.38" y="-76.5" font-family="Helvetica,sans-Serif" font-size="10.00" fill="grey"> sections</text>
</g>
</g>
</svg>
