<?xml version="1.0" encoding="UTF-8" standalone="no"?>
<!DOCTYPE svg PUBLIC "-//W3C//DTD SVG 1.1//EN"
 "http://www.w3.org/Graphics/SVG/1.1/DTD/svg11.dtd">
<!-- Generated by graphviz version 8.1.0 (20230707.0739)
 -->
<!-- Title: carla::geom::MeshFactory::Generate Pages: 1 -->
<svg width="684pt" height="162pt"
 viewBox="0.00 0.00 684.25 162.00" xmlns="http://www.w3.org/2000/svg" xmlns:xlink="http://www.w3.org/1999/xlink">
<g id="graph0" class="graph" transform="scale(1 1) rotate(0) translate(4 158)">
<title>carla::geom::MeshFactory::Generate</title>
<!-- Node1 -->
<g id="Node000001" class="node">
<title>Node1</title>
<g id="a_Node000001"><a xlink:title="生成定义整个车道的网格">
<polygon fill="#999999" stroke="#666666" points="130,-82 0,-82 0,-50 130,-50 130,-82"/>
<text text-anchor="start" x="8" y="-68.5" font-family="Helvetica,sans-Serif" font-size="10.00">carla::geom::MeshFactory</text>
<text text-anchor="middle" x="65" y="-56.5" font-family="Helvetica,sans-Serif" font-size="10.00">::Generate</text>
</a>
</g>
</g>
<!-- Node2 -->
<g id="Node000002" class="node">
<title>Node2</title>
<g id="a_Node000002"><a xlink:href="../../d6/d3d/classcarla_1_1geom_1_1MeshFactory.html#a7d1496ea84aecdf1fd4fe405a2c4da6c" target="_top" xlink:title="生成定义一条道路的网格">
<polygon fill="white" stroke="#666666" points="296,-132 166,-132 166,-100 296,-100 296,-132"/>
<text text-anchor="start" x="174" y="-118.5" font-family="Helvetica,sans-Serif" font-size="10.00">carla::geom::MeshFactory</text>
<text text-anchor="middle" x="231" y="-106.5" font-family="Helvetica,sans-Serif" font-size="10.00">::Generate</text>
</a>
</g>
</g>
<!-- Node1&#45;&gt;Node2 -->
<g id="edge1_Node000001_Node000002" class="edge">
<title>Node1&#45;&gt;Node2</title>
<g id="a_edge1_Node000001_Node000002"><a xlink:title=" ">
<path fill="none" stroke="#63b8ff" d="M119.7,-82.37C134.35,-86.84 150.37,-91.72 165.55,-96.35"/>
<polygon fill="#63b8ff" stroke="#63b8ff" points="164.31,-99.94 174.9,-99.51 166.35,-93.24 164.31,-99.94"/>
</a>
</g>
</g>
<!-- Node8 -->
<g id="Node000008" class="node">
<title>Node8</title>
<g id="a_Node000008"><a xlink:href="../../df/d85/classcarla_1_1road_1_1Lane.html#ae02c9441872377fc865c85339df51cbd" target="_top" xlink:title=" ">
<polygon fill="white" stroke="#666666" points="278.38,-82 183.62,-82 183.62,-50 278.38,-50 278.38,-82"/>
<text text-anchor="start" x="191.62" y="-68.5" font-family="Helvetica,sans-Serif" font-size="10.00">carla::road::Lane::</text>
<text text-anchor="middle" x="231" y="-56.5" font-family="Helvetica,sans-Serif" font-size="10.00">GetDistance</text>
</a>
</g>
</g>
<!-- Node1&#45;&gt;Node8 -->
<g id="edge8_Node000001_Node000008" class="edge">
<title>Node1&#45;&gt;Node8</title>
<g id="a_edge8_Node000001_Node000008"><a xlink:title=" ">
<path fill="none" stroke="#63b8ff" d="M130.35,-66C144.3,-66 158.96,-66 172.62,-66"/>
<polygon fill="#63b8ff" stroke="#63b8ff" points="172.33,-69.5 182.33,-66 172.33,-62.5 172.33,-69.5"/>
</a>
</g>
</g>
<!-- Node9 -->
<g id="Node000009" class="node">
<title>Node9</title>
<g id="a_Node000009"><a xlink:href="../../df/d85/classcarla_1_1road_1_1Lane.html#af158921fdf12a061967943ee2d645481" target="_top" xlink:title=" ">
<polygon fill="white" stroke="#666666" points="278.38,-32 183.62,-32 183.62,0 278.38,0 278.38,-32"/>
<text text-anchor="start" x="191.62" y="-18.5" font-family="Helvetica,sans-Serif" font-size="10.00">carla::road::Lane::</text>
<text text-anchor="middle" x="231" y="-6.5" font-family="Helvetica,sans-Serif" font-size="10.00">GetLength</text>
</a>
</g>
</g>
<!-- Node1&#45;&gt;Node9 -->
<g id="edge9_Node000001_Node000009" class="edge">
<title>Node1&#45;&gt;Node9</title>
<g id="a_edge9_Node000001_Node000009"><a xlink:title=" ">
<path fill="none" stroke="#63b8ff" d="M119.7,-49.63C136.72,-44.44 155.59,-38.69 172.85,-33.43"/>
<polygon fill="#63b8ff" stroke="#63b8ff" points="173.8,-36.49 182.35,-30.22 171.76,-29.79 173.8,-36.49"/>
</a>
</g>
</g>
<!-- Node2&#45;&gt;Node2 -->
<g id="edge2_Node000002_Node000002" class="edge">
<title>Node2&#45;&gt;Node2</title>
<g id="a_edge2_Node000002_Node000002"><a xlink:title=" ">
<path fill="none" stroke="#63b8ff" d="M204.38,-132.44C199.41,-141.58 208.28,-150 231,-150 244.13,-150 252.64,-147.19 256.52,-143.05"/>
<polygon fill="#63b8ff" stroke="#63b8ff" points="260.07,-143.75 257.62,-133.44 253.11,-143.03 260.07,-143.75"/>
</a>
</g>
</g>
<!-- Node3 -->
<g id="Node000003" class="node">
<title>Node3</title>
<g id="a_Node000003"><a xlink:href="../../dd/de6/classcarla_1_1road_1_1Road.html#a80c9aa97b820970de38f168c1a7c5a02" target="_top" xlink:title=" ">
<polygon fill="white" stroke="#666666" points="428.25,-132 332,-132 332,-100 428.25,-100 428.25,-132"/>
<text text-anchor="start" x="340" y="-118.5" font-family="Helvetica,sans-Serif" font-size="10.00">carla::road::Road::</text>
<text text-anchor="middle" x="380.12" y="-106.5" font-family="Helvetica,sans-Serif" font-size="10.00">GetLaneSections</text>
</a>
</g>
</g>
<!-- Node2&#45;&gt;Node3 -->
<g id="edge3_Node000002_Node000003" class="edge">
<title>Node2&#45;&gt;Node3</title>
<g id="a_edge3_Node000002_Node000003"><a xlink:title=" ">
<path fill="none" stroke="#63b8ff" d="M296.1,-116C304.3,-116 312.66,-116 320.76,-116"/>
<polygon fill="#63b8ff" stroke="#63b8ff" points="320.61,-119.5 330.61,-116 320.61,-112.5 320.61,-119.5"/>
</a>
</g>
</g>
<!-- Node4 -->
<g id="Node000004" class="node">
<title>Node4</title>
<g id="a_Node000004"><a xlink:href="../../de/d22/namespacecarla_1_1iterator.html#ae092052881aef479e69ba5491dd147ec" target="_top" xlink:title="创建一个迭代器，该迭代器提供对map值的const引用的遍历。">
<polygon fill="white" stroke="#666666" points="601,-154 464.25,-154 464.25,-122 601,-122 601,-154"/>
<text text-anchor="start" x="472.25" y="-140.5" font-family="Helvetica,sans-Serif" font-size="10.00">carla::iterator::make</text>
<text text-anchor="middle" x="532.62" y="-128.5" font-family="Helvetica,sans-Serif" font-size="10.00">_map_values_const_iterator</text>
</a>
</g>
</g>
<!-- Node3&#45;&gt;Node4 -->
<g id="edge4_Node000003_Node000004" class="edge">
<title>Node3&#45;&gt;Node4</title>
<g id="a_edge4_Node000003_Node000004"><a xlink:title=" ">
<path fill="none" stroke="#63b8ff" d="M428.74,-122.96C436.62,-124.11 444.96,-125.33 453.35,-126.56"/>
<polygon fill="#63b8ff" stroke="#63b8ff" points="452.57,-130.13 462.97,-128.11 453.58,-123.2 452.57,-130.13"/>
</a>
</g>
</g>
<!-- Node5 -->
<g id="Node000005" class="node">
<title>Node5</title>
<g id="a_Node000005"><a xlink:href="../../d9/d36/namespacecarla.html#a2dc539ffbcff452958f707dc7b0db4d6" target="_top" xlink:title=" ">
<polygon fill="white" stroke="#666666" points="584.5,-104 480.75,-104 480.75,-84 584.5,-84 584.5,-104"/>
<text text-anchor="middle" x="532.62" y="-90.5" font-family="Helvetica,sans-Serif" font-size="10.00">carla::MakeListView</text>
</a>
</g>
</g>
<!-- Node3&#45;&gt;Node5 -->
<g id="edge5_Node000003_Node000005" class="edge">
<title>Node3&#45;&gt;Node5</title>
<g id="a_edge5_Node000003_Node000005"><a xlink:title=" ">
<path fill="none" stroke="#63b8ff" d="M428.74,-109.04C441.72,-107.14 455.98,-105.06 469.63,-103.06"/>
<polygon fill="#63b8ff" stroke="#63b8ff" points="470.02,-106.4 479.41,-101.49 469.01,-99.47 470.02,-106.4"/>
</a>
</g>
</g>
<!-- Node6 -->
<g id="Node000006" class="node">
<title>Node6</title>
<g id="a_Node000006"><a xlink:href="../../da/de4/ActorRegistry_8h.html#a8adba6c42fed3c86324a62968648d6a0" target="_top" xlink:title="名称范围迭代支持">
<polygon fill="white" stroke="#666666" points="676.25,-123 637,-123 637,-103 676.25,-103 676.25,-123"/>
<text text-anchor="middle" x="656.62" y="-109.5" font-family="Helvetica,sans-Serif" font-size="10.00">begin</text>
</a>
</g>
</g>
<!-- Node5&#45;&gt;Node6 -->
<g id="edge6_Node000005_Node000006" class="edge">
<title>Node5&#45;&gt;Node6</title>
<g id="a_edge6_Node000005_Node000006"><a xlink:title=" ">
<path fill="none" stroke="#63b8ff" d="M584.66,-101.95C598.75,-104.14 613.58,-106.45 626.02,-108.39"/>
<polygon fill="#63b8ff" stroke="#63b8ff" points="625.26,-111.97 635.68,-110.05 626.33,-105.05 625.26,-111.97"/>
</a>
</g>
</g>
<!-- Node7 -->
<g id="Node000007" class="node">
<title>Node7</title>
<g id="a_Node000007"><a xlink:href="../../da/de4/ActorRegistry_8h.html#a10fc66af197e25cb554f58a721a473a3" target="_top" xlink:title=" ">
<polygon fill="white" stroke="#666666" points="672.5,-85 640.75,-85 640.75,-65 672.5,-65 672.5,-85"/>
<text text-anchor="middle" x="656.62" y="-71.5" font-family="Helvetica,sans-Serif" font-size="10.00">end</text>
</a>
</g>
</g>
<!-- Node5&#45;&gt;Node7 -->
<g id="edge7_Node000005_Node000007" class="edge">
<title>Node5&#45;&gt;Node7</title>
<g id="a_edge7_Node000005_Node000007"><a xlink:title=" ">
<path fill="none" stroke="#63b8ff" d="M584.66,-86.05C600.21,-83.63 616.65,-81.07 629.79,-79.02"/>
<polygon fill="#63b8ff" stroke="#63b8ff" points="630.04,-82.37 639.38,-77.37 628.96,-75.45 630.04,-82.37"/>
</a>
</g>
</g>
</g>
</svg>
