<?xml version="1.0" encoding="UTF-8" standalone="no"?>
<!DOCTYPE svg PUBLIC "-//W3C//DTD SVG 1.1//EN"
 "http://www.w3.org/Graphics/SVG/1.1/DTD/svg11.dtd">
<!-- Generated by graphviz version 8.1.0 (20230707.0739)
 -->
<!-- Title: carla::geom::MeshFactory::GenerateSidewalk Pages: 1 -->
<svg width="462pt" height="158pt"
 viewBox="0.00 0.00 461.75 158.00" xmlns="http://www.w3.org/2000/svg" xmlns:xlink="http://www.w3.org/1999/xlink">
<g id="graph0" class="graph" transform="scale(1 1) rotate(0) translate(4 154)">
<title>carla::geom::MeshFactory::GenerateSidewalk</title>
<!-- Node1 -->
<g id="Node000001" class="node">
<title>Node1</title>
<g id="a_Node000001"><a xlink:title="生成车道的人行道网格">
<polygon fill="#999999" stroke="#666666" points="130,-82 0,-82 0,-50 130,-50 130,-82"/>
<text text-anchor="start" x="8" y="-68.5" font-family="Helvetica,sans-Serif" font-size="10.00">carla::geom::MeshFactory</text>
<text text-anchor="middle" x="65" y="-56.5" font-family="Helvetica,sans-Serif" font-size="10.00">::GenerateSidewalk</text>
</a>
</g>
</g>
<!-- Node2 -->
<g id="Node000002" class="node">
<title>Node2</title>
<g id="a_Node000002"><a xlink:href="../../d6/d3d/classcarla_1_1geom_1_1MeshFactory.html#a15a67316be6174f196580a188edb847b" target="_top" xlink:title="生成车道段的人行道网格">
<polygon fill="white" stroke="#666666" points="296,-132 166,-132 166,-100 296,-100 296,-132"/>
<text text-anchor="start" x="174" y="-118.5" font-family="Helvetica,sans-Serif" font-size="10.00">carla::geom::MeshFactory</text>
<text text-anchor="middle" x="231" y="-106.5" font-family="Helvetica,sans-Serif" font-size="10.00">::GenerateSidewalk</text>
</a>
</g>
</g>
<!-- Node1&#45;&gt;Node2 -->
<g id="edge1_Node000001_Node000002" class="edge">
<title>Node1&#45;&gt;Node2</title>
<g id="a_edge1_Node000001_Node000002"><a xlink:title=" ">
<path fill="none" stroke="#63b8ff" d="M119.7,-82.37C134.35,-86.84 150.37,-91.72 165.55,-96.35"/>
<polygon fill="#63b8ff" stroke="#63b8ff" points="164.31,-99.94 174.9,-99.51 166.35,-93.24 164.31,-99.94"/>
</a>
</g>
</g>
<!-- Node4 -->
<g id="Node000004" class="node">
<title>Node4</title>
<g id="a_Node000004"><a xlink:href="../../df/d85/classcarla_1_1road_1_1Lane.html#ae02c9441872377fc865c85339df51cbd" target="_top" xlink:title=" ">
<polygon fill="white" stroke="#666666" points="278.38,-82 183.62,-82 183.62,-50 278.38,-50 278.38,-82"/>
<text text-anchor="start" x="191.62" y="-68.5" font-family="Helvetica,sans-Serif" font-size="10.00">carla::road::Lane::</text>
<text text-anchor="middle" x="231" y="-56.5" font-family="Helvetica,sans-Serif" font-size="10.00">GetDistance</text>
</a>
</g>
</g>
<!-- Node1&#45;&gt;Node4 -->
<g id="edge4_Node000001_Node000004" class="edge">
<title>Node1&#45;&gt;Node4</title>
<g id="a_edge4_Node000001_Node000004"><a xlink:title=" ">
<path fill="none" stroke="#63b8ff" d="M130.35,-66C144.3,-66 158.96,-66 172.62,-66"/>
<polygon fill="#63b8ff" stroke="#63b8ff" points="172.33,-69.5 182.33,-66 172.33,-62.5 172.33,-69.5"/>
</a>
</g>
</g>
<!-- Node5 -->
<g id="Node000005" class="node">
<title>Node5</title>
<g id="a_Node000005"><a xlink:href="../../df/d85/classcarla_1_1road_1_1Lane.html#af158921fdf12a061967943ee2d645481" target="_top" xlink:title=" ">
<polygon fill="white" stroke="#666666" points="278.38,-32 183.62,-32 183.62,0 278.38,0 278.38,-32"/>
<text text-anchor="start" x="191.62" y="-18.5" font-family="Helvetica,sans-Serif" font-size="10.00">carla::road::Lane::</text>
<text text-anchor="middle" x="231" y="-6.5" font-family="Helvetica,sans-Serif" font-size="10.00">GetLength</text>
</a>
</g>
</g>
<!-- Node1&#45;&gt;Node5 -->
<g id="edge5_Node000001_Node000005" class="edge">
<title>Node1&#45;&gt;Node5</title>
<g id="a_edge5_Node000001_Node000005"><a xlink:title=" ">
<path fill="none" stroke="#63b8ff" d="M119.7,-49.63C136.72,-44.44 155.59,-38.69 172.85,-33.43"/>
<polygon fill="#63b8ff" stroke="#63b8ff" points="173.8,-36.49 182.35,-30.22 171.76,-29.79 173.8,-36.49"/>
</a>
</g>
</g>
<!-- Node2&#45;&gt;Node2 -->
<g id="edge2_Node000002_Node000002" class="edge">
<title>Node2&#45;&gt;Node2</title>
<g id="a_edge2_Node000002_Node000002"><a xlink:title=" ">
<path fill="none" stroke="#63b8ff" d="M202.1,-132.44C196.71,-141.58 206.34,-150 231,-150 245.26,-150 254.49,-147.19 258.7,-143.05"/>
<polygon fill="#63b8ff" stroke="#63b8ff" points="262.26,-143.77 259.9,-133.44 255.3,-142.99 262.26,-143.77"/>
</a>
</g>
</g>
<!-- Node3 -->
<g id="Node000003" class="node">
<title>Node3</title>
<g id="a_Node000003"><a xlink:href="../../dd/d80/classcarla_1_1road_1_1LaneSection.html#afb698c17b4d62c0df02cf8dae16b8f50" target="_top" xlink:title=" ">
<polygon fill="white" stroke="#666666" points="453.75,-132 332,-132 332,-100 453.75,-100 453.75,-132"/>
<text text-anchor="start" x="340" y="-118.5" font-family="Helvetica,sans-Serif" font-size="10.00">carla::road::LaneSection</text>
<text text-anchor="middle" x="392.88" y="-106.5" font-family="Helvetica,sans-Serif" font-size="10.00">::GetLanes</text>
</a>
</g>
</g>
<!-- Node2&#45;&gt;Node3 -->
<g id="edge3_Node000002_Node000003" class="edge">
<title>Node2&#45;&gt;Node3</title>
<g id="a_edge3_Node000002_Node000003"><a xlink:title=" ">
<path fill="none" stroke="#63b8ff" d="M296.11,-116C304.26,-116 312.64,-116 320.9,-116"/>
<polygon fill="#63b8ff" stroke="#63b8ff" points="320.64,-119.5 330.64,-116 320.64,-112.5 320.64,-119.5"/>
</a>
</g>
</g>
</g>
</svg>
