<?xml version="1.0" encoding="UTF-8" standalone="no"?>
<!DOCTYPE svg PUBLIC "-//W3C//DTD SVG 1.1//EN"
 "http://www.w3.org/Graphics/SVG/1.1/DTD/svg11.dtd">
<!-- Generated by graphviz version 8.1.0 (20230707.0739)
 -->
<!-- Title: carla::geom::MeshFactory::GenerateLaneMarksForNotCenterLine Pages: 1 -->
<svg width="683pt" height="390pt"
 viewBox="0.00 0.00 682.50 390.00" xmlns="http://www.w3.org/2000/svg" xmlns:xlink="http://www.w3.org/1999/xlink">
<g id="graph0" class="graph" transform="scale(1 1) rotate(0) translate(4 386)">
<title>carla::geom::MeshFactory::GenerateLaneMarksForNotCenterLine</title>
<!-- Node1 -->
<g id="Node000001" class="node">
<title>Node1</title>
<g id="a_Node000001"><a xlink:title="为非中心线（即ID不为0的所有线）生成车道标记">
<polygon fill="#999999" stroke="#666666" points="185.5,-207 0,-207 0,-175 185.5,-175 185.5,-207"/>
<text text-anchor="start" x="8" y="-193.5" font-family="Helvetica,sans-Serif" font-size="10.00">carla::geom::MeshFactory</text>
<text text-anchor="middle" x="92.75" y="-181.5" font-family="Helvetica,sans-Serif" font-size="10.00">::GenerateLaneMarksForNotCenterLine</text>
</a>
</g>
</g>
<!-- Node2 -->
<g id="Node000002" class="node">
<title>Node2</title>
<g id="a_Node000002"><a xlink:href="../../d0/d02/classcarla_1_1geom_1_1Mesh.html#a07814867b5e1b31a7af31d0c8f91b90b" target="_top" xlink:title="将索引附加到索引列表。">
<polygon fill="white" stroke="#666666" points="345.88,-382 242.88,-382 242.88,-350 345.88,-350 345.88,-382"/>
<text text-anchor="start" x="250.88" y="-368.5" font-family="Helvetica,sans-Serif" font-size="10.00">carla::geom::Mesh::</text>
<text text-anchor="middle" x="294.38" y="-356.5" font-family="Helvetica,sans-Serif" font-size="10.00">AddIndex</text>
</a>
</g>
</g>
<!-- Node1&#45;&gt;Node2 -->
<g id="edge1_Node000001_Node000002" class="edge">
<title>Node1&#45;&gt;Node2</title>
<g id="a_edge1_Node000001_Node000002"><a xlink:title=" ">
<path fill="none" stroke="#63b8ff" d="M103.55,-207.48C122.54,-238.08 167.3,-303.91 221.5,-341 225.02,-343.41 228.79,-345.6 232.7,-347.61"/>
<polygon fill="#63b8ff" stroke="#63b8ff" points="231.08,-351.17 241.62,-352.19 234.01,-344.82 231.08,-351.17"/>
</a>
</g>
</g>
<!-- Node3 -->
<g id="Node000003" class="node">
<title>Node3</title>
<g id="a_Node000003"><a xlink:href="../../d0/d02/classcarla_1_1geom_1_1Mesh.html#a10cbc49c3739b84c368b761ab29770f0" target="_top" xlink:title="将顶点附加到顶点列表。">
<polygon fill="white" stroke="#666666" points="345.88,-332 242.88,-332 242.88,-300 345.88,-300 345.88,-332"/>
<text text-anchor="start" x="250.88" y="-318.5" font-family="Helvetica,sans-Serif" font-size="10.00">carla::geom::Mesh::</text>
<text text-anchor="middle" x="294.38" y="-306.5" font-family="Helvetica,sans-Serif" font-size="10.00">AddVertex</text>
</a>
</g>
</g>
<!-- Node1&#45;&gt;Node3 -->
<g id="edge2_Node000001_Node000003" class="edge">
<title>Node1&#45;&gt;Node3</title>
<g id="a_edge2_Node000001_Node000003"><a xlink:title=" ">
<path fill="none" stroke="#63b8ff" d="M110.63,-207.24C133.92,-228.9 177.98,-267.26 221.5,-291 225.01,-292.92 228.7,-294.73 232.47,-296.44"/>
<polygon fill="#63b8ff" stroke="#63b8ff" points="231.01,-300.04 241.59,-300.7 233.73,-293.59 231.01,-300.04"/>
</a>
</g>
</g>
<!-- Node4 -->
<g id="Node000004" class="node">
<title>Node4</title>
<g id="a_Node000004"><a xlink:href="../../d6/d3d/classcarla_1_1geom_1_1MeshFactory.html#a512234aafe71530fd0cff32d9a27a4e4" target="_top" xlink:title="计算车道标记的当前s位置两侧的点">
<polygon fill="white" stroke="#666666" points="367.25,-282 221.5,-282 221.5,-250 367.25,-250 367.25,-282"/>
<text text-anchor="start" x="229.5" y="-268.5" font-family="Helvetica,sans-Serif" font-size="10.00">carla::geom::MeshFactory</text>
<text text-anchor="middle" x="294.38" y="-256.5" font-family="Helvetica,sans-Serif" font-size="10.00">::ComputeEdgesForLanemark</text>
</a>
</g>
</g>
<!-- Node1&#45;&gt;Node4 -->
<g id="edge3_Node000001_Node000004" class="edge">
<title>Node1&#45;&gt;Node4</title>
<g id="a_edge3_Node000001_Node000004"><a xlink:title=" ">
<path fill="none" stroke="#63b8ff" d="M134.45,-207.39C159.47,-217.35 192.23,-230.19 221.5,-241 225.94,-242.64 230.55,-244.31 235.19,-245.97"/>
<polygon fill="#63b8ff" stroke="#63b8ff" points="233.75,-249.53 244.34,-249.58 236.09,-242.94 233.75,-249.53"/>
</a>
</g>
</g>
<!-- Node9 -->
<g id="Node000009" class="node">
<title>Node9</title>
<g id="a_Node000009"><a xlink:href="../../dd/d80/classcarla_1_1road_1_1LaneSection.html#a2a83bca663a2b7b6388daebed95704a9" target="_top" xlink:title=" ">
<polygon fill="white" stroke="#666666" points="355.25,-232 233.5,-232 233.5,-200 355.25,-200 355.25,-232"/>
<text text-anchor="start" x="241.5" y="-218.5" font-family="Helvetica,sans-Serif" font-size="10.00">carla::road::LaneSection</text>
<text text-anchor="middle" x="294.38" y="-206.5" font-family="Helvetica,sans-Serif" font-size="10.00">::GetDistance</text>
</a>
</g>
</g>
<!-- Node1&#45;&gt;Node9 -->
<g id="edge8_Node000001_Node000009" class="edge">
<title>Node1&#45;&gt;Node9</title>
<g id="a_edge8_Node000001_Node000009"><a xlink:title=" ">
<path fill="none" stroke="#63b8ff" d="M185.97,-202.55C198.25,-204.09 210.68,-205.64 222.52,-207.13"/>
<polygon fill="#63b8ff" stroke="#63b8ff" points="221.85,-210.69 232.2,-208.46 222.72,-203.75 221.85,-210.69"/>
</a>
</g>
</g>
<!-- Node10 -->
<g id="Node000010" class="node">
<title>Node10</title>
<g id="a_Node000010"><a xlink:href="../../df/d85/classcarla_1_1road_1_1Lane.html#a68ed9c59953314ff9437cb820c8e7db8" target="_top" xlink:title=" ">
<polygon fill="white" stroke="#666666" points="341.75,-182 247,-182 247,-150 341.75,-150 341.75,-182"/>
<text text-anchor="start" x="255" y="-168.5" font-family="Helvetica,sans-Serif" font-size="10.00">carla::road::Lane::</text>
<text text-anchor="middle" x="294.38" y="-156.5" font-family="Helvetica,sans-Serif" font-size="10.00">GetInfo</text>
</a>
</g>
</g>
<!-- Node1&#45;&gt;Node10 -->
<g id="edge9_Node000001_Node000010" class="edge">
<title>Node1&#45;&gt;Node10</title>
<g id="a_edge9_Node000001_Node000010"><a xlink:title=" ">
<path fill="none" stroke="#63b8ff" d="M185.97,-179.45C203.06,-177.31 220.46,-175.13 236.14,-173.17"/>
<polygon fill="#63b8ff" stroke="#63b8ff" points="236.2,-176.56 245.69,-171.85 235.33,-169.62 236.2,-176.56"/>
</a>
</g>
</g>
<!-- Node12 -->
<g id="Node000012" class="node">
<title>Node12</title>
<g id="a_Node000012"><a xlink:href="../../dd/d80/classcarla_1_1road_1_1LaneSection.html#a059dcb478641cd498e3d213feb7e000d" target="_top" xlink:title=" ">
<polygon fill="white" stroke="#666666" points="355.25,-132 233.5,-132 233.5,-100 355.25,-100 355.25,-132"/>
<text text-anchor="start" x="241.5" y="-118.5" font-family="Helvetica,sans-Serif" font-size="10.00">carla::road::LaneSection</text>
<text text-anchor="middle" x="294.38" y="-106.5" font-family="Helvetica,sans-Serif" font-size="10.00">::GetLength</text>
</a>
</g>
</g>
<!-- Node1&#45;&gt;Node12 -->
<g id="edge11_Node000001_Node000012" class="edge">
<title>Node1&#45;&gt;Node12</title>
<g id="a_edge11_Node000001_Node000012"><a xlink:title=" ">
<path fill="none" stroke="#63b8ff" d="M134.45,-174.61C159.47,-164.65 192.23,-151.81 221.5,-141 225.94,-139.36 230.55,-137.69 235.19,-136.03"/>
<polygon fill="#63b8ff" stroke="#63b8ff" points="236.09,-139.06 244.34,-132.42 233.75,-132.47 236.09,-139.06"/>
</a>
</g>
</g>
<!-- Node14 -->
<g id="Node000014" class="node">
<title>Node14</title>
<g id="a_Node000014"><a xlink:href="../../d0/d02/classcarla_1_1geom_1_1Mesh.html#afc91cfec4029e092f008404f366aaa45" target="_top" xlink:title=" ">
<polygon fill="white" stroke="#666666" points="345.88,-82 242.88,-82 242.88,-50 345.88,-50 345.88,-82"/>
<text text-anchor="start" x="250.88" y="-68.5" font-family="Helvetica,sans-Serif" font-size="10.00">carla::geom::Mesh::</text>
<text text-anchor="middle" x="294.38" y="-56.5" font-family="Helvetica,sans-Serif" font-size="10.00">GetVertices</text>
</a>
</g>
</g>
<!-- Node1&#45;&gt;Node14 -->
<g id="edge13_Node000001_Node000014" class="edge">
<title>Node1&#45;&gt;Node14</title>
<g id="a_edge13_Node000001_Node000014"><a xlink:title=" ">
<path fill="none" stroke="#63b8ff" d="M110.63,-174.76C133.92,-153.1 177.98,-114.74 221.5,-91 225.01,-89.08 228.7,-87.27 232.47,-85.56"/>
<polygon fill="#63b8ff" stroke="#63b8ff" points="233.73,-88.41 241.59,-81.3 231.01,-81.96 233.73,-88.41"/>
</a>
</g>
</g>
<!-- Node15 -->
<g id="Node000015" class="node">
<title>Node15</title>
<g id="a_Node000015"><a xlink:href="../../d0/d02/classcarla_1_1geom_1_1Mesh.html#a4aa083b7a417ca5e2fb8dc70796a19a5" target="_top" xlink:title="检查网格是否有效。">
<polygon fill="white" stroke="#666666" points="345.88,-32 242.88,-32 242.88,0 345.88,0 345.88,-32"/>
<text text-anchor="start" x="250.88" y="-18.5" font-family="Helvetica,sans-Serif" font-size="10.00">carla::geom::Mesh::</text>
<text text-anchor="middle" x="294.38" y="-6.5" font-family="Helvetica,sans-Serif" font-size="10.00">IsValid</text>
</a>
</g>
</g>
<!-- Node1&#45;&gt;Node15 -->
<g id="edge14_Node000001_Node000015" class="edge">
<title>Node1&#45;&gt;Node15</title>
<g id="a_edge14_Node000001_Node000015"><a xlink:title=" ">
<path fill="none" stroke="#63b8ff" d="M103.55,-174.52C122.54,-143.92 167.3,-78.09 221.5,-41 225.02,-38.59 228.79,-36.4 232.7,-34.39"/>
<polygon fill="#63b8ff" stroke="#63b8ff" points="234.01,-37.18 241.62,-29.81 231.08,-30.83 234.01,-37.18"/>
</a>
</g>
</g>
<!-- Node5 -->
<g id="Node000005" class="node">
<title>Node5</title>
<g id="a_Node000005"><a xlink:href="../../df/d85/classcarla_1_1road_1_1Lane.html#ae0d376fa422b14e54af3a702e1b8385a" target="_top" xlink:title="计算给定位置s的车道边缘位置">
<polygon fill="white" stroke="#666666" points="514.5,-332 413.75,-332 413.75,-300 514.5,-300 514.5,-332"/>
<text text-anchor="start" x="421.75" y="-318.5" font-family="Helvetica,sans-Serif" font-size="10.00">carla::road::Lane::</text>
<text text-anchor="middle" x="464.12" y="-306.5" font-family="Helvetica,sans-Serif" font-size="10.00">GetCornerPositions</text>
</a>
</g>
</g>
<!-- Node4&#45;&gt;Node5 -->
<g id="edge4_Node000004_Node000005" class="edge">
<title>Node4&#45;&gt;Node5</title>
<g id="a_edge4_Node000004_Node000005"><a xlink:title=" ">
<path fill="none" stroke="#63b8ff" d="M350.3,-282.37C367.16,-287.4 385.79,-292.95 402.97,-298.07"/>
<polygon fill="#63b8ff" stroke="#63b8ff" points="401.87,-301.69 412.46,-301.2 403.87,-294.99 401.87,-301.69"/>
</a>
</g>
</g>
<!-- Node6 -->
<g id="Node000006" class="node">
<title>Node6</title>
<g id="a_Node000006"><a xlink:href="../../dd/d80/classcarla_1_1road_1_1LaneSection.html#afb698c17b4d62c0df02cf8dae16b8f50" target="_top" xlink:title=" ">
<polygon fill="white" stroke="#666666" points="525,-282 403.25,-282 403.25,-250 525,-250 525,-282"/>
<text text-anchor="start" x="411.25" y="-268.5" font-family="Helvetica,sans-Serif" font-size="10.00">carla::road::LaneSection</text>
<text text-anchor="middle" x="464.12" y="-256.5" font-family="Helvetica,sans-Serif" font-size="10.00">::GetLanes</text>
</a>
</g>
</g>
<!-- Node4&#45;&gt;Node6 -->
<g id="edge5_Node000004_Node000006" class="edge">
<title>Node4&#45;&gt;Node6</title>
<g id="a_edge5_Node000004_Node000006"><a xlink:title=" ">
<path fill="none" stroke="#63b8ff" d="M367.49,-266C375.61,-266 383.88,-266 391.99,-266"/>
<polygon fill="#63b8ff" stroke="#63b8ff" points="391.91,-269.5 401.91,-266 391.91,-262.5 391.91,-269.5"/>
</a>
</g>
</g>
<!-- Node7 -->
<g id="Node000007" class="node">
<title>Node7</title>
<g id="a_Node000007"><a xlink:href="../../d9/dfe/classcarla_1_1geom_1_1Vector3D.html#aaa4bec48ae0734cca2c027df30ea6b34" target="_top" xlink:title=" ">
<polygon fill="white" stroke="#666666" points="520.88,-232 407.38,-232 407.38,-200 520.88,-200 520.88,-232"/>
<text text-anchor="start" x="415.38" y="-218.5" font-family="Helvetica,sans-Serif" font-size="10.00">carla::geom::Vector3D</text>
<text text-anchor="middle" x="464.12" y="-206.5" font-family="Helvetica,sans-Serif" font-size="10.00">::Length</text>
</a>
</g>
</g>
<!-- Node4&#45;&gt;Node7 -->
<g id="edge6_Node000004_Node000007" class="edge">
<title>Node4&#45;&gt;Node7</title>
<g id="a_edge6_Node000004_Node000007"><a xlink:title=" ">
<path fill="none" stroke="#63b8ff" d="M350.3,-249.63C365.43,-245.12 381.99,-240.18 397.65,-235.52"/>
<polygon fill="#63b8ff" stroke="#63b8ff" points="398.2,-238.7 406.79,-232.49 396.2,-232 398.2,-238.7"/>
</a>
</g>
</g>
<!-- Node8 -->
<g id="Node000008" class="node">
<title>Node8</title>
<g id="a_Node000008"><a xlink:href="../../d9/dfe/classcarla_1_1geom_1_1Vector3D.html#a0bd1ef6e24532e950b455838ecd4f8cf" target="_top" xlink:title=" ">
<polygon fill="white" stroke="#666666" points="674.5,-232 561,-232 561,-200 674.5,-200 674.5,-232"/>
<text text-anchor="start" x="569" y="-218.5" font-family="Helvetica,sans-Serif" font-size="10.00">carla::geom::Vector3D</text>
<text text-anchor="middle" x="617.75" y="-206.5" font-family="Helvetica,sans-Serif" font-size="10.00">::SquaredLength</text>
</a>
</g>
</g>
<!-- Node7&#45;&gt;Node8 -->
<g id="edge7_Node000007_Node000008" class="edge">
<title>Node7&#45;&gt;Node8</title>
<g id="a_edge7_Node000007_Node000008"><a xlink:title=" ">
<path fill="none" stroke="#63b8ff" d="M521.15,-216C530.53,-216 540.34,-216 549.96,-216"/>
<polygon fill="#63b8ff" stroke="#63b8ff" points="549.7,-219.5 559.7,-216 549.7,-212.5 549.7,-219.5"/>
</a>
</g>
</g>
<!-- Node11 -->
<g id="Node000011" class="node">
<title>Node11</title>
<g id="a_Node000011"><a xlink:href="../../d4/d28/classcarla_1_1road_1_1InformationSet.html#a2c183586f8f7bfebf89339f1a3845e49" target="_top" xlink:title="返回给定类型和距离s的单一信息">
<polygon fill="white" stroke="#666666" points="521.62,-182 406.62,-182 406.62,-150 521.62,-150 521.62,-182"/>
<text text-anchor="start" x="414.62" y="-168.5" font-family="Helvetica,sans-Serif" font-size="10.00">carla::road::Information</text>
<text text-anchor="middle" x="464.12" y="-156.5" font-family="Helvetica,sans-Serif" font-size="10.00">Set::GetInfo</text>
</a>
</g>
</g>
<!-- Node10&#45;&gt;Node11 -->
<g id="edge10_Node000010_Node000011" class="edge">
<title>Node10&#45;&gt;Node11</title>
<g id="a_edge10_Node000010_Node000011"><a xlink:title=" ">
<path fill="none" stroke="#63b8ff" d="M342.1,-166C358.56,-166 377.41,-166 395.26,-166"/>
<polygon fill="#63b8ff" stroke="#63b8ff" points="395.21,-169.5 405.21,-166 395.21,-162.5 395.21,-169.5"/>
</a>
</g>
</g>
<!-- Node13 -->
<g id="Node000013" class="node">
<title>Node13</title>
<g id="a_Node000013"><a xlink:href="../../dd/d80/classcarla_1_1road_1_1LaneSection.html#a20f42f8a9aa46a316e50c2defaac1d55" target="_top" xlink:title=" ">
<polygon fill="white" stroke="#666666" points="525,-132 403.25,-132 403.25,-100 525,-100 525,-132"/>
<text text-anchor="start" x="411.25" y="-118.5" font-family="Helvetica,sans-Serif" font-size="10.00">carla::road::LaneSection</text>
<text text-anchor="middle" x="464.12" y="-106.5" font-family="Helvetica,sans-Serif" font-size="10.00">::GetRoad</text>
</a>
</g>
</g>
<!-- Node12&#45;&gt;Node13 -->
<g id="edge12_Node000012_Node000013" class="edge">
<title>Node12&#45;&gt;Node13</title>
<g id="a_edge12_Node000012_Node000013"><a xlink:title=" ">
<path fill="none" stroke="#63b8ff" d="M355.46,-116C367.39,-116 380.01,-116 392.26,-116"/>
<polygon fill="#63b8ff" stroke="#63b8ff" points="391.89,-119.5 401.89,-116 391.89,-112.5 391.89,-119.5"/>
</a>
</g>
</g>
</g>
</svg>
