<?xml version="1.0" encoding="UTF-8" standalone="no"?>
<!DOCTYPE svg PUBLIC "-//W3C//DTD SVG 1.1//EN"
 "http://www.w3.org/Graphics/SVG/1.1/DTD/svg11.dtd">
<!-- Generated by graphviz version 8.1.0 (20230707.0739)
 -->
<!-- Title: carla::sensor::data::ObstacleDetectionEvent::ObstacleDetectionEvent Pages: 1 -->
<svg width="1062pt" height="84pt"
 viewBox="0.00 0.00 1062.00 84.00" xmlns="http://www.w3.org/2000/svg" xmlns:xlink="http://www.w3.org/1999/xlink">
<g id="graph0" class="graph" transform="scale(1 1) rotate(0) translate(4 80)">
<title>carla::sensor::data::ObstacleDetectionEvent::ObstacleDetectionEvent</title>
<!-- Node1 -->
<g id="Node000001" class="node">
<title>Node1</title>
<g id="a_Node000001"><a xlink:title=" ">
<polygon fill="#999999" stroke="#666666" points="126.25,-60 0,-60 0,-16 126.25,-16 126.25,-60"/>
<text text-anchor="start" x="8" y="-46.5" font-family="Helvetica,sans-Serif" font-size="10.00">carla::sensor::data</text>
<text text-anchor="start" x="8" y="-34.5" font-family="Helvetica,sans-Serif" font-size="10.00">::ObstacleDetectionEvent</text>
<text text-anchor="middle" x="63.12" y="-22.5" font-family="Helvetica,sans-Serif" font-size="10.00">::ObstacleDetectionEvent</text>
</a>
</g>
</g>
<!-- Node2 -->
<g id="Node000002" class="node">
<title>Node2</title>
<g id="a_Node000002"><a xlink:href="../../d9/d82/classcarla_1_1sensor_1_1s11n_1_1ObstacleDetectionEventSerializer.html#aaf400069620524e3367aa7bdb51dc0ee" target="_top" xlink:title=" ">
<polygon fill="white" stroke="#666666" points="329,-60 162.25,-60 162.25,-16 329,-16 329,-60"/>
<text text-anchor="start" x="170.25" y="-46.5" font-family="Helvetica,sans-Serif" font-size="10.00">carla::sensor::s11n</text>
<text text-anchor="start" x="170.25" y="-34.5" font-family="Helvetica,sans-Serif" font-size="10.00">::ObstacleDetectionEventSerializer</text>
<text text-anchor="middle" x="245.62" y="-22.5" font-family="Helvetica,sans-Serif" font-size="10.00">::DeserializeRawData</text>
</a>
</g>
</g>
<!-- Node1&#45;&gt;Node2 -->
<g id="edge1_Node000001_Node000002" class="edge">
<title>Node1&#45;&gt;Node2</title>
<g id="a_edge1_Node000001_Node000002"><a xlink:title=" ">
<path fill="none" stroke="#63b8ff" d="M126.75,-38C134.61,-38 142.77,-38 150.98,-38"/>
<polygon fill="#63b8ff" stroke="#63b8ff" points="150.77,-41.5 160.77,-38 150.77,-34.5 150.77,-41.5"/>
</a>
</g>
</g>
<!-- Node3 -->
<g id="Node000003" class="node">
<title>Node3</title>
<g id="a_Node000003"><a xlink:href="../../d3/da0/classcarla_1_1sensor_1_1RawData.html#ad29c6a9698aa66f593286f5e6fc601ea" target="_top" xlink:title="Begin iterator to the data generated by the sensor.">
<polygon fill="white" stroke="#666666" points="646.38,-76 529.12,-76 529.12,-44 646.38,-44 646.38,-76"/>
<text text-anchor="start" x="537.12" y="-62.5" font-family="Helvetica,sans-Serif" font-size="10.00">carla::sensor::RawData</text>
<text text-anchor="middle" x="587.75" y="-50.5" font-family="Helvetica,sans-Serif" font-size="10.00">::begin</text>
</a>
</g>
</g>
<!-- Node2&#45;&gt;Node3 -->
<g id="edge2_Node000002_Node000003" class="edge">
<title>Node2&#45;&gt;Node3</title>
<g id="a_edge2_Node000002_Node000003"><a xlink:title=" ">
<path fill="none" stroke="#63b8ff" d="M329.39,-43.35C387.16,-47.09 463.36,-52.02 517.82,-55.54"/>
<polygon fill="#63b8ff" stroke="#63b8ff" points="517.55,-59.1 527.76,-56.25 518,-52.11 517.55,-59.1"/>
</a>
</g>
</g>
<!-- Node6 -->
<g id="Node000006" class="node">
<title>Node6</title>
<g id="a_Node000006"><a xlink:href="../../d3/da0/classcarla_1_1sensor_1_1RawData.html#ae79dc5e8f8cee2257efa411c4490e5ff" target="_top" xlink:title="Size in bytes of the data generated by the sensor.">
<polygon fill="white" stroke="#666666" points="482.25,-32 365,-32 365,0 482.25,0 482.25,-32"/>
<text text-anchor="start" x="373" y="-18.5" font-family="Helvetica,sans-Serif" font-size="10.00">carla::sensor::RawData</text>
<text text-anchor="middle" x="423.62" y="-6.5" font-family="Helvetica,sans-Serif" font-size="10.00">::size</text>
</a>
</g>
</g>
<!-- Node2&#45;&gt;Node6 -->
<g id="edge5_Node000002_Node000006" class="edge">
<title>Node2&#45;&gt;Node6</title>
<g id="a_edge5_Node000002_Node000006"><a xlink:title=" ">
<path fill="none" stroke="#63b8ff" d="M329.47,-27.64C337.62,-26.63 345.84,-25.6 353.82,-24.6"/>
<polygon fill="#63b8ff" stroke="#63b8ff" points="354.07,-27.97 363.56,-23.26 353.2,-21.03 354.07,-27.97"/>
</a>
</g>
</g>
<!-- Node4 -->
<g id="Node000004" class="node">
<title>Node4</title>
<g id="a_Node000004"><a xlink:href="../../d0/d0a/classcarla_1_1Buffer.html#a0afeda4355e6196d808ddf25142d5dbd" target="_top" xlink:title=" ">
<polygon fill="white" stroke="#666666" points="915.75,-69 818.75,-69 818.75,-49 915.75,-49 915.75,-69"/>
<text text-anchor="middle" x="867.25" y="-55.5" font-family="Helvetica,sans-Serif" font-size="10.00">carla::Buffer::begin</text>
</a>
</g>
</g>
<!-- Node3&#45;&gt;Node4 -->
<g id="edge3_Node000003_Node000004" class="edge">
<title>Node3&#45;&gt;Node4</title>
<g id="a_edge3_Node000003_Node000004"><a xlink:title=" ">
<path fill="none" stroke="#63b8ff" d="M646.59,-59.79C693.89,-59.62 760.48,-59.38 807.92,-59.21"/>
<polygon fill="#63b8ff" stroke="#63b8ff" points="807.65,-62.71 817.64,-59.17 807.62,-55.71 807.65,-62.71"/>
</a>
</g>
</g>
<!-- Node5 -->
<g id="Node000005" class="node">
<title>Node5</title>
<g id="a_Node000005"><a xlink:href="../../d0/d0a/classcarla_1_1Buffer.html#acbf9f37162db2ddffaf2ae2bfb9fd8a5" target="_top" xlink:title=" ">
<polygon fill="white" stroke="#666666" points="1054,-69 951.75,-69 951.75,-49 1054,-49 1054,-69"/>
<text text-anchor="middle" x="1002.88" y="-55.5" font-family="Helvetica,sans-Serif" font-size="10.00">carla::Buffer::cbegin</text>
</a>
</g>
</g>
<!-- Node4&#45;&gt;Node5 -->
<g id="edge4_Node000004_Node000005" class="edge">
<title>Node4&#45;&gt;Node5</title>
<g id="a_edge4_Node000004_Node000005"><a xlink:title=" ">
<path fill="none" stroke="#63b8ff" d="M916.11,-59C924.13,-59 932.55,-59 940.84,-59"/>
<polygon fill="#63b8ff" stroke="#63b8ff" points="940.64,-62.5 950.64,-59 940.64,-55.5 940.64,-62.5"/>
</a>
</g>
</g>
<!-- Node6&#45;&gt;Node3 -->
<g id="edge6_Node000006_Node000003" class="edge">
<title>Node6&#45;&gt;Node3</title>
<g id="a_edge6_Node000006_Node000003"><a xlink:title=" ">
<path fill="none" stroke="#63b8ff" d="M482.7,-31.76C494.29,-34.91 506.57,-38.24 518.47,-41.47"/>
<polygon fill="#63b8ff" stroke="#63b8ff" points="517.24,-45.03 527.81,-44.28 519.08,-38.28 517.24,-45.03"/>
</a>
</g>
</g>
<!-- Node7 -->
<g id="Node000007" class="node">
<title>Node7</title>
<g id="a_Node000007"><a xlink:href="../../d3/da0/classcarla_1_1sensor_1_1RawData.html#a436195761ec6eb8a18bc98ba8e9d8725" target="_top" xlink:title="Past&#45;the&#45;end iterator to the data generated by the sensor.">
<polygon fill="white" stroke="#666666" points="657.25,-26 518.25,-26 518.25,-6 657.25,-6 657.25,-26"/>
<text text-anchor="middle" x="587.75" y="-12.5" font-family="Helvetica,sans-Serif" font-size="10.00">carla::sensor::RawData::end</text>
</a>
</g>
</g>
<!-- Node6&#45;&gt;Node7 -->
<g id="edge7_Node000006_Node000007" class="edge">
<title>Node6&#45;&gt;Node7</title>
<g id="a_edge7_Node000006_Node000007"><a xlink:title=" ">
<path fill="none" stroke="#63b8ff" d="M482.7,-16C490.66,-16 498.94,-16 507.2,-16"/>
<polygon fill="#63b8ff" stroke="#63b8ff" points="507.02,-19.5 517.02,-16 507.02,-12.5 507.02,-19.5"/>
</a>
</g>
</g>
<!-- Node8 -->
<g id="Node000008" class="node">
<title>Node8</title>
<g id="a_Node000008"><a xlink:href="../../d0/d0a/classcarla_1_1Buffer.html#ad23e8895923c1535a1099100195a3d2b" target="_top" xlink:title=" ">
<polygon fill="white" stroke="#666666" points="782.75,-29 693.25,-29 693.25,-9 782.75,-9 782.75,-29"/>
<text text-anchor="middle" x="738" y="-15.5" font-family="Helvetica,sans-Serif" font-size="10.00">carla::Buffer::end</text>
</a>
</g>
</g>
<!-- Node7&#45;&gt;Node8 -->
<g id="edge8_Node000007_Node000008" class="edge">
<title>Node7&#45;&gt;Node8</title>
<g id="a_edge8_Node000007_Node000008"><a xlink:title=" ">
<path fill="none" stroke="#63b8ff" d="M657.67,-17.39C665.79,-17.56 673.99,-17.72 681.89,-17.88"/>
<polygon fill="#63b8ff" stroke="#63b8ff" points="681.73,-21.4 691.8,-18.11 681.88,-14.4 681.73,-21.4"/>
</a>
</g>
</g>
<!-- Node9 -->
<g id="Node000009" class="node">
<title>Node9</title>
<g id="a_Node000009"><a xlink:href="../../d0/d0a/classcarla_1_1Buffer.html#a3fa645d9dfbc14a4f0f4d5f6ab2ae2c7" target="_top" xlink:title=" ">
<polygon fill="white" stroke="#666666" points="914.62,-30 819.88,-30 819.88,-10 914.62,-10 914.62,-30"/>
<text text-anchor="middle" x="867.25" y="-16.5" font-family="Helvetica,sans-Serif" font-size="10.00">carla::Buffer::cend</text>
</a>
</g>
</g>
<!-- Node8&#45;&gt;Node9 -->
<g id="edge9_Node000008_Node000009" class="edge">
<title>Node8&#45;&gt;Node9</title>
<g id="a_edge9_Node000008_Node000009"><a xlink:title=" ">
<path fill="none" stroke="#63b8ff" d="M783.15,-19.35C791.43,-19.41 800.19,-19.48 808.8,-19.55"/>
<polygon fill="#63b8ff" stroke="#63b8ff" points="808.55,-23.05 818.58,-19.63 808.61,-16.05 808.55,-23.05"/>
</a>
</g>
</g>
<!-- Node9&#45;&gt;Node5 -->
<g id="edge10_Node000009_Node000005" class="edge">
<title>Node9&#45;&gt;Node5</title>
<g id="a_edge10_Node000009_Node000005"><a xlink:title=" ">
<path fill="none" stroke="#63b8ff" d="M904.06,-30.45C919.94,-35.09 938.81,-40.6 955.73,-45.53"/>
<polygon fill="#63b8ff" stroke="#63b8ff" points="954.39,-49.08 964.97,-48.52 956.35,-42.36 954.39,-49.08"/>
</a>
</g>
</g>
<!-- Node10 -->
<g id="Node000010" class="node">
<title>Node10</title>
<g id="a_Node000010"><a xlink:href="../../d0/d0a/classcarla_1_1Buffer.html#a3edea2e44a05d9806312e5f9e52315e4" target="_top" xlink:title=" ">
<polygon fill="white" stroke="#666666" points="1048.75,-30 957,-30 957,-10 1048.75,-10 1048.75,-30"/>
<text text-anchor="middle" x="1002.88" y="-16.5" font-family="Helvetica,sans-Serif" font-size="10.00">carla::Buffer::size</text>
</a>
</g>
</g>
<!-- Node9&#45;&gt;Node10 -->
<g id="edge11_Node000009_Node000010" class="edge">
<title>Node9&#45;&gt;Node10</title>
<g id="a_edge11_Node000009_Node000010"><a xlink:title=" ">
<path fill="none" stroke="#63b8ff" d="M914.99,-20C924.93,-20 935.54,-20 945.79,-20"/>
<polygon fill="#63b8ff" stroke="#63b8ff" points="945.74,-23.5 955.74,-20 945.74,-16.5 945.74,-23.5"/>
</a>
</g>
</g>
</g>
</svg>
