<?xml version="1.0" encoding="UTF-8" standalone="no"?>
<!DOCTYPE svg PUBLIC "-//W3C//DTD SVG 1.1//EN"
 "http://www.w3.org/Graphics/SVG/1.1/DTD/svg11.dtd">
<!-- Generated by graphviz version 8.1.0 (20230707.0739)
 -->
<!-- Title: ACarlaWheeledVehicle::RestoreVehiclePhysicsControl Pages: 1 -->
<svg width="1339pt" height="245pt"
 viewBox="0.00 0.00 1339.00 244.93" xmlns="http://www.w3.org/2000/svg" xmlns:xlink="http://www.w3.org/1999/xlink">
<g id="graph0" class="graph" transform="scale(1 1) rotate(0) translate(4 240.93)">
<title>ACarlaWheeledVehicle::RestoreVehiclePhysicsControl</title>
<!-- Node1 -->
<g id="Node000001" class="node">
<title>Node1</title>
<g id="a_Node000001"><a xlink:title=" ">
<polygon fill="#999999" stroke="#666666" points="154,-132 0,-132 0,-100 154,-100 154,-132"/>
<text text-anchor="start" x="8" y="-118.5" font-family="Helvetica,sans-Serif" font-size="10.00">ACarlaWheeledVehicle</text>
<text text-anchor="middle" x="77" y="-106.5" font-family="Helvetica,sans-Serif" font-size="10.00">::RestoreVehiclePhysicsControl</text>
</a>
</g>
</g>
<!-- Node2 -->
<g id="Node000002" class="node">
<title>Node2</title>
<g id="a_Node000002"><a xlink:href="../../d5/d70/classACarlaWheeledVehicle.html#a3e610d951ef26385950981f732fa9f42" target="_top" xlink:title=" ">
<polygon fill="white" stroke="#666666" points="335,-132 190,-132 190,-100 335,-100 335,-132"/>
<text text-anchor="start" x="198" y="-118.5" font-family="Helvetica,sans-Serif" font-size="10.00">ACarlaWheeledVehicle</text>
<text text-anchor="middle" x="262.5" y="-106.5" font-family="Helvetica,sans-Serif" font-size="10.00">::ApplyVehiclePhysicsControl</text>
</a>
</g>
</g>
<!-- Node1&#45;&gt;Node2 -->
<g id="edge1_Node000001_Node000002" class="edge">
<title>Node1&#45;&gt;Node2</title>
<g id="a_edge1_Node000001_Node000002"><a xlink:title=" ">
<path fill="none" stroke="#63b8ff" d="M154.49,-116C162.47,-116 170.61,-116 178.65,-116"/>
<polygon fill="#63b8ff" stroke="#63b8ff" points="178.54,-119.5 188.54,-116 178.54,-112.5 178.54,-119.5"/>
</a>
</g>
</g>
<!-- Node3 -->
<g id="Node000003" class="node">
<title>Node3</title>
<g id="a_Node000003"><a xlink:href="../../d7/d1e/classUCarlaStatics.html#adf84009ecb71dd12430e36c61a030c91" target="_top" xlink:title=" ">
<polygon fill="white" stroke="#666666" points="969,-223 832.25,-223 832.25,-203 969,-203 969,-223"/>
<text text-anchor="middle" x="900.62" y="-209.5" font-family="Helvetica,sans-Serif" font-size="10.00">UCarlaStatics::GetRecorder</text>
</a>
</g>
</g>
<!-- Node2&#45;&gt;Node3 -->
<g id="edge2_Node000002_Node000003" class="edge">
<title>Node2&#45;&gt;Node3</title>
<g id="a_edge2_Node000002_Node000003"><a xlink:title=" ">
<path fill="none" stroke="#63b8ff" d="M281.4,-132.36C301.59,-149.85 336.19,-176.94 371,-191 523.38,-252.55 720.98,-238.81 826.15,-224.96"/>
<polygon fill="#63b8ff" stroke="#63b8ff" points="826.53,-228.31 835.97,-223.49 825.59,-221.37 826.53,-228.31"/>
</a>
</g>
</g>
<!-- Node6 -->
<g id="Node000006" class="node">
<title>Node6</title>
<g id="a_Node000006"><a xlink:href="../../d5/d70/classACarlaWheeledVehicle.html#a80344597cc1f76c5759bf9b813bb346f" target="_top" xlink:title=" ">
<polygon fill="white" stroke="#666666" points="489,-182 373.25,-182 373.25,-150 489,-150 489,-182"/>
<text text-anchor="start" x="381.25" y="-168.5" font-family="Helvetica,sans-Serif" font-size="10.00">ACarlaWheeledVehicle</text>
<text text-anchor="middle" x="431.12" y="-156.5" font-family="Helvetica,sans-Serif" font-size="10.00">::ResetConstraints</text>
</a>
</g>
</g>
<!-- Node2&#45;&gt;Node6 -->
<g id="edge5_Node000002_Node000006" class="edge">
<title>Node2&#45;&gt;Node6</title>
<g id="a_edge5_Node000002_Node000006"><a xlink:title=" ">
<path fill="none" stroke="#63b8ff" d="M318.06,-132.37C332.94,-136.84 349.22,-141.72 364.64,-146.35"/>
<polygon fill="#63b8ff" stroke="#63b8ff" points="363.57,-149.98 374.16,-149.51 365.59,-143.28 363.57,-149.98"/>
</a>
</g>
</g>
<!-- Node10 -->
<g id="Node000010" class="node">
<title>Node10</title>
<g id="a_Node000010"><a xlink:href="../../d5/d70/classACarlaWheeledVehicle.html#a33b430d2706ec2490b2147a242085af4" target="_top" xlink:title=" ">
<polygon fill="white" stroke="#666666" points="489,-132 373.25,-132 373.25,-100 489,-100 489,-132"/>
<text text-anchor="start" x="381.25" y="-118.5" font-family="Helvetica,sans-Serif" font-size="10.00">ACarlaWheeledVehicle</text>
<text text-anchor="middle" x="431.12" y="-106.5" font-family="Helvetica,sans-Serif" font-size="10.00">::SetWheelCollision</text>
</a>
</g>
</g>
<!-- Node2&#45;&gt;Node10 -->
<g id="edge11_Node000002_Node000010" class="edge">
<title>Node2&#45;&gt;Node10</title>
<g id="a_edge11_Node000002_Node000010"><a xlink:title=" ">
<path fill="none" stroke="#63b8ff" d="M335.13,-116C344.1,-116 353.25,-116 362.16,-116"/>
<polygon fill="#63b8ff" stroke="#63b8ff" points="361.88,-119.5 371.88,-116 361.88,-112.5 361.88,-119.5"/>
</a>
</g>
</g>
<!-- Node12 -->
<g id="Node000012" class="node">
<title>Node12</title>
<g id="a_Node000012"><a xlink:href="../../d5/d70/classACarlaWheeledVehicle.html#a29574baf1b80d8345e8ddbab1825fa4b" target="_top" xlink:title=" ">
<polygon fill="white" stroke="#666666" points="490.12,-82 372.12,-82 372.12,-50 490.12,-50 490.12,-82"/>
<text text-anchor="start" x="380.12" y="-68.5" font-family="Helvetica,sans-Serif" font-size="10.00">ACarlaWheeledVehicle</text>
<text text-anchor="middle" x="431.12" y="-56.5" font-family="Helvetica,sans-Serif" font-size="10.00">::SetWheelCollisionNW</text>
</a>
</g>
</g>
<!-- Node2&#45;&gt;Node12 -->
<g id="edge13_Node000002_Node000012" class="edge">
<title>Node2&#45;&gt;Node12</title>
<g id="a_edge13_Node000002_Node000012"><a xlink:title=" ">
<path fill="none" stroke="#63b8ff" d="M318.06,-99.63C332.94,-95.16 349.22,-90.28 364.64,-85.65"/>
<polygon fill="#63b8ff" stroke="#63b8ff" points="365.59,-88.72 374.16,-82.49 363.57,-82.02 365.59,-88.72"/>
</a>
</g>
</g>
<!-- Node13 -->
<g id="Node000013" class="node">
<title>Node13</title>
<g id="a_Node000013"><a xlink:href="../../d7/db5/classFAckermannController.html#abe8d237fb808b0eca659fb7008054a90" target="_top" xlink:title=" ">
<polygon fill="white" stroke="#666666" points="491.25,-32 371,-32 371,0 491.25,0 491.25,-32"/>
<text text-anchor="start" x="379" y="-18.5" font-family="Helvetica,sans-Serif" font-size="10.00">FAckermannController</text>
<text text-anchor="middle" x="431.12" y="-6.5" font-family="Helvetica,sans-Serif" font-size="10.00">::UpdateVehiclePhysics</text>
</a>
</g>
</g>
<!-- Node2&#45;&gt;Node13 -->
<g id="edge14_Node000002_Node000013" class="edge">
<title>Node2&#45;&gt;Node13</title>
<g id="a_edge14_Node000002_Node000013"><a xlink:title=" ">
<path fill="none" stroke="#63b8ff" d="M284.07,-99.7C305.1,-83.5 339.13,-58.6 371,-41 373.39,-39.68 375.86,-38.38 378.38,-37.12"/>
<polygon fill="#63b8ff" stroke="#63b8ff" points="379.74,-39.87 387.25,-32.41 376.72,-33.56 379.74,-39.87"/>
</a>
</g>
</g>
<!-- Node4 -->
<g id="Node000004" class="node">
<title>Node4</title>
<g id="a_Node000004"><a xlink:href="../../d7/d1e/classUCarlaStatics.html#a83f2a341e32413abf1ec85ee740c2036" target="_top" xlink:title=" ">
<polygon fill="white" stroke="#666666" points="1134.25,-229 1005,-229 1005,-197 1134.25,-197 1134.25,-229"/>
<text text-anchor="start" x="1013" y="-215.5" font-family="Helvetica,sans-Serif" font-size="10.00">UCarlaStatics::GetCurrent</text>
<text text-anchor="middle" x="1069.62" y="-203.5" font-family="Helvetica,sans-Serif" font-size="10.00">Episode</text>
</a>
</g>
</g>
<!-- Node3&#45;&gt;Node4 -->
<g id="edge3_Node000003_Node000004" class="edge">
<title>Node3&#45;&gt;Node4</title>
<g id="a_edge3_Node000003_Node000004"><a xlink:title=" ">
<path fill="none" stroke="#63b8ff" d="M969.07,-213C977.25,-213 985.65,-213 993.93,-213"/>
<polygon fill="#63b8ff" stroke="#63b8ff" points="993.72,-216.5 1003.72,-213 993.72,-209.5 993.72,-216.5"/>
</a>
</g>
</g>
<!-- Node5 -->
<g id="Node000005" class="node">
<title>Node5</title>
<g id="a_Node000005"><a xlink:href="../../d7/d1e/classUCarlaStatics.html#a35e7cb760a58848081a618e7fa8201e2" target="_top" xlink:title=" ">
<polygon fill="white" stroke="#666666" points="1331,-223 1170.25,-223 1170.25,-203 1331,-203 1331,-223"/>
<text text-anchor="middle" x="1250.62" y="-209.5" font-family="Helvetica,sans-Serif" font-size="10.00">UCarlaStatics::GetGameInstance</text>
</a>
</g>
</g>
<!-- Node4&#45;&gt;Node5 -->
<g id="edge4_Node000004_Node000005" class="edge">
<title>Node4&#45;&gt;Node5</title>
<g id="a_edge4_Node000004_Node000005"><a xlink:title=" ">
<path fill="none" stroke="#63b8ff" d="M1134.74,-213C1142.69,-213 1150.94,-213 1159.19,-213"/>
<polygon fill="#63b8ff" stroke="#63b8ff" points="1159.02,-216.5 1169.02,-213 1159.02,-209.5 1159.02,-216.5"/>
</a>
</g>
</g>
<!-- Node7 -->
<g id="Node000007" class="node">
<title>Node7</title>
<g id="a_Node000007"><a xlink:href="../../d5/d70/classACarlaWheeledVehicle.html#a114c84eaff7178ef92e37ea0e0ac9e34" target="_top" xlink:title=" ">
<polygon fill="white" stroke="#666666" points="643.75,-207 528,-207 528,-175 643.75,-175 643.75,-207"/>
<text text-anchor="start" x="536" y="-193.5" font-family="Helvetica,sans-Serif" font-size="10.00">ACarlaWheeledVehicle</text>
<text text-anchor="middle" x="585.88" y="-181.5" font-family="Helvetica,sans-Serif" font-size="10.00">::CloseDoorPhys</text>
</a>
</g>
</g>
<!-- Node6&#45;&gt;Node7 -->
<g id="edge6_Node000006_Node000007" class="edge">
<title>Node6&#45;&gt;Node7</title>
<g id="a_edge6_Node000006_Node000007"><a xlink:title=" ">
<path fill="none" stroke="#63b8ff" d="M489.44,-175.38C498.44,-176.85 507.83,-178.39 517.04,-179.9"/>
<polygon fill="#63b8ff" stroke="#63b8ff" points="516.31,-183.49 526.75,-181.65 517.45,-176.58 516.31,-183.49"/>
</a>
</g>
</g>
<!-- Node9 -->
<g id="Node000009" class="node">
<title>Node9</title>
<g id="a_Node000009"><a xlink:href="../../d5/d70/classACarlaWheeledVehicle.html#ac366b344047c94137d813a4a8a35eaeb" target="_top" xlink:title=" ">
<polygon fill="white" stroke="#666666" points="643.75,-157 528,-157 528,-125 643.75,-125 643.75,-157"/>
<text text-anchor="start" x="536" y="-143.5" font-family="Helvetica,sans-Serif" font-size="10.00">ACarlaWheeledVehicle</text>
<text text-anchor="middle" x="585.88" y="-131.5" font-family="Helvetica,sans-Serif" font-size="10.00">::OpenDoorPhys</text>
</a>
</g>
</g>
<!-- Node6&#45;&gt;Node9 -->
<g id="edge9_Node000006_Node000009" class="edge">
<title>Node6&#45;&gt;Node9</title>
<g id="a_edge9_Node000006_Node000009"><a xlink:title=" ">
<path fill="none" stroke="#63b8ff" d="M489.44,-156.62C498.44,-155.15 507.83,-153.61 517.04,-152.1"/>
<polygon fill="#63b8ff" stroke="#63b8ff" points="517.45,-155.42 526.75,-150.35 516.31,-148.51 517.45,-155.42"/>
</a>
</g>
</g>
<!-- Node8 -->
<g id="Node000008" class="node">
<title>Node8</title>
<g id="a_Node000008"><a xlink:href="../../d5/d70/classACarlaWheeledVehicle.html#a087b3bd2e47d6662fce3e4f0da7cca61" target="_top" xlink:title=" ">
<polygon fill="white" stroke="#666666" points="796.25,-207 680.5,-207 680.5,-175 796.25,-175 796.25,-207"/>
<text text-anchor="start" x="688.5" y="-193.5" font-family="Helvetica,sans-Serif" font-size="10.00">ACarlaWheeledVehicle</text>
<text text-anchor="middle" x="738.38" y="-181.5" font-family="Helvetica,sans-Serif" font-size="10.00">::RecordDoorChange</text>
</a>
</g>
</g>
<!-- Node7&#45;&gt;Node8 -->
<g id="edge7_Node000007_Node000008" class="edge">
<title>Node7&#45;&gt;Node8</title>
<g id="a_edge7_Node000007_Node000008"><a xlink:title=" ">
<path fill="none" stroke="#63b8ff" d="M644.2,-191C652.4,-191 660.91,-191 669.29,-191"/>
<polygon fill="#63b8ff" stroke="#63b8ff" points="669.21,-194.5 679.21,-191 669.21,-187.5 669.21,-194.5"/>
</a>
</g>
</g>
<!-- Node8&#45;&gt;Node3 -->
<g id="edge8_Node000008_Node000003" class="edge">
<title>Node8&#45;&gt;Node3</title>
<g id="a_edge8_Node000008_Node000003"><a xlink:title=" ">
<path fill="none" stroke="#63b8ff" d="M796.32,-198.82C804.42,-199.93 812.86,-201.09 821.28,-202.24"/>
<polygon fill="#63b8ff" stroke="#63b8ff" points="820.51,-205.81 830.9,-203.7 821.47,-198.87 820.51,-205.81"/>
</a>
</g>
</g>
<!-- Node9&#45;&gt;Node8 -->
<g id="edge10_Node000009_Node000008" class="edge">
<title>Node9&#45;&gt;Node8</title>
<g id="a_edge10_Node000009_Node000008"><a xlink:title=" ">
<path fill="none" stroke="#63b8ff" d="M636.15,-157.37C649.34,-161.75 663.74,-166.54 677.43,-171.08"/>
<polygon fill="#63b8ff" stroke="#63b8ff" points="676.13,-174.67 686.73,-174.51 678.34,-168.03 676.13,-174.67"/>
</a>
</g>
</g>
<!-- Node11 -->
<g id="Node000011" class="node">
<title>Node11</title>
<g id="a_Node000011"><a xlink:href="../../d5/d70/classACarlaWheeledVehicle.html#a1a14797d457e94cbed68571fc8c914bb" target="_top" xlink:title=" ">
<polygon fill="white" stroke="#666666" points="644.5,-107 527.25,-107 527.25,-75 644.5,-75 644.5,-107"/>
<text text-anchor="start" x="535.25" y="-93.5" font-family="Helvetica,sans-Serif" font-size="10.00">ACarlaWheeledVehicle</text>
<text text-anchor="middle" x="585.88" y="-81.5" font-family="Helvetica,sans-Serif" font-size="10.00">::IsTwoWheeledVehicle</text>
</a>
</g>
</g>
<!-- Node10&#45;&gt;Node11 -->
<g id="edge12_Node000010_Node000011" class="edge">
<title>Node10&#45;&gt;Node11</title>
<g id="a_edge12_Node000010_Node000011"><a xlink:title=" ">
<path fill="none" stroke="#63b8ff" d="M489.44,-106.62C498.16,-105.19 507.25,-103.71 516.19,-102.24"/>
<polygon fill="#63b8ff" stroke="#63b8ff" points="516.68,-105.54 525.99,-100.47 515.55,-98.64 516.68,-105.54"/>
</a>
</g>
</g>
</g>
</svg>
