<?xml version="1.0" encoding="UTF-8" standalone="no"?>
<!DOCTYPE svg PUBLIC "-//W3C//DTD SVG 1.1//EN"
 "http://www.w3.org/Graphics/SVG/1.1/DTD/svg11.dtd">
<!-- Generated by graphviz version 8.1.0 (20230707.0739)
 -->
<!-- Title: FFrameData::AddKinematics Pages: 1 -->
<svg width="527pt" height="28pt"
 viewBox="0.00 0.00 527.00 28.00" xmlns="http://www.w3.org/2000/svg" xmlns:xlink="http://www.w3.org/1999/xlink">
<g id="graph0" class="graph" transform="scale(1 1) rotate(0) translate(4 24)">
<title>FFrameData::AddKinematics</title>
<!-- Node1 -->
<g id="Node000001" class="node">
<title>Node1</title>
<g id="a_Node000001"><a xlink:title=" ">
<polygon fill="#999999" stroke="#666666" points="519,-20 377,-20 377,0 519,0 519,-20"/>
<text text-anchor="middle" x="448" y="-6.5" font-family="Helvetica,sans-Serif" font-size="10.00">FFrameData::AddKinematics</text>
</a>
</g>
</g>
<!-- Node2 -->
<g id="Node000002" class="node">
<title>Node2</title>
<g id="a_Node000002"><a xlink:href="../../de/db4/classFFrameData.html#aa414c2187b709351471a6f62f80df8c8" target="_top" xlink:title=" ">
<polygon fill="white" stroke="#666666" points="341,-20 175.75,-20 175.75,0 341,0 341,-20"/>
<text text-anchor="middle" x="258.38" y="-6.5" font-family="Helvetica,sans-Serif" font-size="10.00">FFrameData::AddActorKinematics</text>
</a>
</g>
</g>
<!-- Node1&#45;&gt;Node2 -->
<g id="edge1_Node000001_Node000002" class="edge">
<title>Node1&#45;&gt;Node2</title>
<g id="a_edge1_Node000001_Node000002"><a xlink:title=" ">
<path fill="none" stroke="#63b8ff" d="M365.66,-10C357.55,-10 349.33,-10 341.22,-10"/>
<polygon fill="#63b8ff" stroke="#63b8ff" points="365.6,-13.5 375.6,-10 365.6,-6.5 365.6,-13.5"/>
</a>
</g>
</g>
<!-- Node3 -->
<g id="Node000003" class="node">
<title>Node3</title>
<g id="a_Node000003"><a xlink:href="../../de/db4/classFFrameData.html#a13396099d7e1c32df563893f7d0b35be" target="_top" xlink:title=" ">
<polygon fill="white" stroke="#666666" points="139.75,-20 0,-20 0,0 139.75,0 139.75,-20"/>
<text text-anchor="middle" x="69.88" y="-6.5" font-family="Helvetica,sans-Serif" font-size="10.00">FFrameData::GetFrameData</text>
</a>
</g>
</g>
<!-- Node2&#45;&gt;Node3 -->
<g id="edge2_Node000002_Node000003" class="edge">
<title>Node2&#45;&gt;Node3</title>
<g id="a_edge2_Node000002_Node000003"><a xlink:title=" ">
<path fill="none" stroke="#63b8ff" d="M164.54,-10C156.33,-10 148.12,-10 140.16,-10"/>
<polygon fill="#63b8ff" stroke="#63b8ff" points="164.3,-13.5 174.3,-10 164.3,-6.5 164.3,-13.5"/>
</a>
</g>
</g>
</g>
</svg>
