<?xml version="1.0" encoding="UTF-8" standalone="no"?>
<!DOCTYPE svg PUBLIC "-//W3C//DTD SVG 1.1//EN"
 "http://www.w3.org/Graphics/SVG/1.1/DTD/svg11.dtd">
<!-- Generated by graphviz version 8.1.0 (20230707.0739)
 -->
<!-- Title: FFrameData::AddActorPosition Pages: 1 -->
<svg width="699pt" height="204pt"
 viewBox="0.00 0.00 699.00 204.00" xmlns="http://www.w3.org/2000/svg" xmlns:xlink="http://www.w3.org/1999/xlink">
<g id="graph0" class="graph" transform="scale(1 1) rotate(0) translate(4 200)">
<title>FFrameData::AddActorPosition</title>
<!-- Node1 -->
<g id="Node000001" class="node">
<title>Node1</title>
<g id="a_Node000001"><a xlink:title=" ">
<polygon fill="#999999" stroke="#666666" points="151.75,-114 0,-114 0,-94 151.75,-94 151.75,-114"/>
<text text-anchor="middle" x="75.88" y="-100.5" font-family="Helvetica,sans-Serif" font-size="10.00">FFrameData::AddActorPosition</text>
</a>
</g>
</g>
<!-- Node2 -->
<g id="Node000002" class="node">
<title>Node2</title>
<g id="a_Node000002"><a xlink:href="../../de/db4/classFFrameData.html#a9fffb438c2dbc0a90788ed45aa6ae523" target="_top" xlink:title=" ">
<polygon fill="white" stroke="#666666" points="322.25,-177 193.75,-177 193.75,-157 322.25,-157 322.25,-177"/>
<text text-anchor="middle" x="258" y="-163.5" font-family="Helvetica,sans-Serif" font-size="10.00">FFrameData::AddPosition</text>
</a>
</g>
</g>
<!-- Node1&#45;&gt;Node2 -->
<g id="edge1_Node000001_Node000002" class="edge">
<title>Node1&#45;&gt;Node2</title>
<g id="a_edge1_Node000001_Node000002"><a xlink:title=" ">
<path fill="none" stroke="#63b8ff" d="M106.62,-114.4C136.73,-124.94 183.5,-141.29 216.88,-152.97"/>
<polygon fill="#63b8ff" stroke="#63b8ff" points="215.62,-156.58 226.21,-156.58 217.93,-149.98 215.62,-156.58"/>
</a>
</g>
</g>
<!-- Node4 -->
<g id="Node000004" class="node">
<title>Node4</title>
<g id="a_Node000004"><a xlink:href="../../dc/dde/classFCarlaActor.html#a850736f8ac70a32c1b5a1332783a7e9d" target="_top" xlink:title=" ">
<polygon fill="white" stroke="#666666" points="328.25,-120 187.75,-120 187.75,-88 328.25,-88 328.25,-120"/>
<text text-anchor="start" x="195.75" y="-106.5" font-family="Helvetica,sans-Serif" font-size="10.00">FCarlaActor::GetActorGlobal</text>
<text text-anchor="middle" x="258" y="-94.5" font-family="Helvetica,sans-Serif" font-size="10.00">Transform</text>
</a>
</g>
</g>
<!-- Node1&#45;&gt;Node4 -->
<g id="edge3_Node000001_Node000004" class="edge">
<title>Node1&#45;&gt;Node4</title>
<g id="a_edge3_Node000001_Node000004"><a xlink:title=" ">
<path fill="none" stroke="#63b8ff" d="M152.22,-104C160.24,-104 168.42,-104 176.5,-104"/>
<polygon fill="#63b8ff" stroke="#63b8ff" points="176.42,-107.5 186.42,-104 176.42,-100.5 176.42,-107.5"/>
</a>
</g>
</g>
<!-- Node12 -->
<g id="Node000012" class="node">
<title>Node12</title>
<g id="a_Node000012"><a xlink:href="../../dc/dde/classFCarlaActor.html#aca3d1a4bfcb5e0ae1974b7206933d665" target="_top" xlink:title=" ">
<polygon fill="white" stroke="#666666" points="318.12,-70 197.88,-70 197.88,-50 318.12,-50 318.12,-70"/>
<text text-anchor="middle" x="258" y="-56.5" font-family="Helvetica,sans-Serif" font-size="10.00">FCarlaActor::GetActorId</text>
</a>
</g>
</g>
<!-- Node1&#45;&gt;Node12 -->
<g id="edge11_Node000001_Node000012" class="edge">
<title>Node1&#45;&gt;Node12</title>
<g id="a_edge11_Node000001_Node000012"><a xlink:title=" ">
<path fill="none" stroke="#63b8ff" d="M119.56,-93.57C144.82,-87.4 177.02,-79.54 203.91,-72.97"/>
<polygon fill="#63b8ff" stroke="#63b8ff" points="204.42,-76.2 213.31,-70.43 202.76,-69.4 204.42,-76.2"/>
</a>
</g>
</g>
<!-- Node3 -->
<g id="Node000003" class="node">
<title>Node3</title>
<g id="a_Node000003"><a xlink:href="../../da/df1/classCarlaRecorderPositions.html#a9822ea9ed08ba4a3f35306b695e0fd35" target="_top" xlink:title=" ">
<polygon fill="white" stroke="#666666" points="506.25,-196 365,-196 365,-176 506.25,-176 506.25,-196"/>
<text text-anchor="middle" x="435.62" y="-182.5" font-family="Helvetica,sans-Serif" font-size="10.00">CarlaRecorderPositions::Add</text>
</a>
</g>
</g>
<!-- Node2&#45;&gt;Node3 -->
<g id="edge2_Node000002_Node000003" class="edge">
<title>Node2&#45;&gt;Node3</title>
<g id="a_edge2_Node000002_Node000003"><a xlink:title=" ">
<path fill="none" stroke="#63b8ff" d="M322.4,-173.86C332.61,-174.96 343.3,-176.12 353.85,-177.26"/>
<polygon fill="#63b8ff" stroke="#63b8ff" points="353.45,-180.85 363.77,-178.44 354.21,-173.89 353.45,-180.85"/>
</a>
</g>
</g>
<!-- Node5 -->
<g id="Node000005" class="node">
<title>Node5</title>
<g id="a_Node000005"><a xlink:href="../../dc/dde/classFCarlaActor.html#a4d2752987e47827efd488b90053ad415" target="_top" xlink:title=" ">
<polygon fill="white" stroke="#666666" points="492,-158 379.25,-158 379.25,-138 492,-138 492,-158"/>
<text text-anchor="middle" x="435.62" y="-144.5" font-family="Helvetica,sans-Serif" font-size="10.00">FCarlaActor::GetActor</text>
</a>
</g>
</g>
<!-- Node4&#45;&gt;Node5 -->
<g id="edge4_Node000004_Node000005" class="edge">
<title>Node4&#45;&gt;Node5</title>
<g id="a_edge4_Node000004_Node000005"><a xlink:title=" ">
<path fill="none" stroke="#63b8ff" d="M324.65,-120.45C343.62,-125.2 364.06,-130.32 382.12,-134.84"/>
<polygon fill="#63b8ff" stroke="#63b8ff" points="381.18,-138.47 391.73,-137.5 382.88,-131.68 381.18,-138.47"/>
</a>
</g>
</g>
<!-- Node6 -->
<g id="Node000006" class="node">
<title>Node6</title>
<g id="a_Node000006"><a xlink:href="../../d7/d1e/classUCarlaStatics.html#a8137f56360aa59de44591fce99608dc4" target="_top" xlink:title=" ">
<polygon fill="white" stroke="#666666" points="505.88,-120 365.38,-120 365.38,-88 505.88,-88 505.88,-120"/>
<text text-anchor="start" x="373.38" y="-106.5" font-family="Helvetica,sans-Serif" font-size="10.00">UCarlaStatics::GetLargeMap</text>
<text text-anchor="middle" x="435.62" y="-94.5" font-family="Helvetica,sans-Serif" font-size="10.00">Manager</text>
</a>
</g>
</g>
<!-- Node4&#45;&gt;Node6 -->
<g id="edge5_Node000004_Node000006" class="edge">
<title>Node4&#45;&gt;Node6</title>
<g id="a_edge5_Node000004_Node000006"><a xlink:title=" ">
<path fill="none" stroke="#63b8ff" d="M328.66,-104C337.08,-104 345.73,-104 354.29,-104"/>
<polygon fill="#63b8ff" stroke="#63b8ff" points="354.05,-107.5 364.05,-104 354.05,-100.5 354.05,-107.5"/>
</a>
</g>
</g>
<!-- Node9 -->
<g id="Node000009" class="node">
<title>Node9</title>
<g id="a_Node000009"><a xlink:href="../../dc/dde/classFCarlaActor.html#a49f76353c69e02542858ed2cf6eeb000" target="_top" xlink:title=" ">
<polygon fill="white" stroke="#666666" points="494.62,-70 376.62,-70 376.62,-50 494.62,-50 494.62,-70"/>
<text text-anchor="middle" x="435.62" y="-56.5" font-family="Helvetica,sans-Serif" font-size="10.00">FCarlaActor::IsDormant</text>
</a>
</g>
</g>
<!-- Node4&#45;&gt;Node9 -->
<g id="edge8_Node000004_Node000009" class="edge">
<title>Node4&#45;&gt;Node9</title>
<g id="a_edge8_Node000004_Node000009"><a xlink:title=" ">
<path fill="none" stroke="#63b8ff" d="M324.65,-87.55C343.62,-82.8 364.06,-77.68 382.12,-73.16"/>
<polygon fill="#63b8ff" stroke="#63b8ff" points="382.88,-76.32 391.73,-70.5 381.18,-69.53 382.88,-76.32"/>
</a>
</g>
</g>
<!-- Node10 -->
<g id="Node000010" class="node">
<title>Node10</title>
<g id="a_Node000010"><a xlink:href="../../d9/d4b/classALargeMapManager.html#a6b89f53b4415151abe996440e008475d" target="_top" xlink:title=" ">
<polygon fill="white" stroke="#666666" points="507,-32 364.25,-32 364.25,0 507,0 507,-32"/>
<text text-anchor="start" x="372.25" y="-18.5" font-family="Helvetica,sans-Serif" font-size="10.00">ALargeMapManager::LocalTo</text>
<text text-anchor="middle" x="435.62" y="-6.5" font-family="Helvetica,sans-Serif" font-size="10.00">GlobalTransform</text>
</a>
</g>
</g>
<!-- Node4&#45;&gt;Node10 -->
<g id="edge9_Node000004_Node000010" class="edge">
<title>Node4&#45;&gt;Node10</title>
<g id="a_edge9_Node000004_Node000010"><a xlink:title=" ">
<path fill="none" stroke="#63b8ff" d="M312.41,-87.63C317.94,-85.09 323.33,-82.22 328.25,-79 347.72,-66.26 344.75,-53.69 364.25,-41 366.24,-39.71 368.3,-38.47 370.41,-37.29"/>
<polygon fill="#63b8ff" stroke="#63b8ff" points="371.62,-40.1 378.98,-32.47 368.47,-33.85 371.62,-40.1"/>
</a>
</g>
</g>
<!-- Node7 -->
<g id="Node000007" class="node">
<title>Node7</title>
<g id="a_Node000007"><a xlink:href="../../d7/d1e/classUCarlaStatics.html#acf94832c60579b6d161b66447719efbc" target="_top" xlink:title=" ">
<polygon fill="white" stroke="#666666" points="691,-136 543,-136 543,-116 691,-116 691,-136"/>
<text text-anchor="middle" x="617" y="-122.5" font-family="Helvetica,sans-Serif" font-size="10.00">UCarlaStatics::GetGameMode</text>
</a>
</g>
</g>
<!-- Node6&#45;&gt;Node7 -->
<g id="edge6_Node000006_Node000007" class="edge">
<title>Node6&#45;&gt;Node7</title>
<g id="a_edge6_Node000006_Node000007"><a xlink:title=" ">
<path fill="none" stroke="#63b8ff" d="M506.23,-112.54C514.61,-113.56 523.24,-114.62 531.79,-115.67"/>
<polygon fill="#63b8ff" stroke="#63b8ff" points="531.22,-119.25 541.57,-116.99 532.08,-112.3 531.22,-119.25"/>
</a>
</g>
</g>
<!-- Node8 -->
<g id="Node000008" class="node">
<title>Node8</title>
<g id="a_Node000008"><a xlink:href="../../db/de5/classACarlaGameModeBase.html#a6a66e9a979a5dfbdb292f8eb3f89149c" target="_top" xlink:title=" ">
<polygon fill="white" stroke="#666666" points="676,-98 558,-98 558,-66 676,-66 676,-98"/>
<text text-anchor="start" x="566" y="-84.5" font-family="Helvetica,sans-Serif" font-size="10.00">ACarlaGameModeBase</text>
<text text-anchor="middle" x="617" y="-72.5" font-family="Helvetica,sans-Serif" font-size="10.00">::GetLMManager</text>
</a>
</g>
</g>
<!-- Node6&#45;&gt;Node8 -->
<g id="edge7_Node000006_Node000008" class="edge">
<title>Node6&#45;&gt;Node8</title>
<g id="a_edge7_Node000006_Node000008"><a xlink:title=" ">
<path fill="none" stroke="#63b8ff" d="M506.23,-95.46C519.68,-93.81 533.75,-92.09 547.17,-90.44"/>
<polygon fill="#63b8ff" stroke="#63b8ff" points="547.27,-93.83 556.77,-89.14 546.41,-86.89 547.27,-93.83"/>
</a>
</g>
</g>
<!-- Node11 -->
<g id="Node000011" class="node">
<title>Node11</title>
<g id="a_Node000011"><a xlink:href="../../de/d7a/structFDVector.html#afcef01413fad4ebae06ee468bee88a9c" target="_top" xlink:title=" ">
<polygon fill="white" stroke="#666666" points="671.12,-26 562.88,-26 562.88,-6 671.12,-6 671.12,-26"/>
<text text-anchor="middle" x="617" y="-12.5" font-family="Helvetica,sans-Serif" font-size="10.00">FDVector::ToFVector</text>
</a>
</g>
</g>
<!-- Node10&#45;&gt;Node11 -->
<g id="edge10_Node000010_Node000011" class="edge">
<title>Node10&#45;&gt;Node11</title>
<g id="a_edge10_Node000010_Node000011"><a xlink:title=" ">
<path fill="none" stroke="#63b8ff" d="M507.26,-16C521.95,-16 537.35,-16 551.79,-16"/>
<polygon fill="#63b8ff" stroke="#63b8ff" points="551.62,-19.5 561.62,-16 551.62,-12.5 551.62,-19.5"/>
</a>
</g>
</g>
</g>
</svg>
