<?xml version="1.0" encoding="UTF-8" standalone="no"?>
<!DOCTYPE svg PUBLIC "-//W3C//DTD SVG 1.1//EN"
 "http://www.w3.org/Graphics/SVG/1.1/DTD/svg11.dtd">
<!-- Generated by graphviz version 8.1.0 (20230707.0739)
 -->
<!-- Title: FFrameData::ProcessReplayerEventAdd Pages: 1 -->
<svg width="1458pt" height="615pt"
 viewBox="0.00 0.00 1457.50 615.14" xmlns="http://www.w3.org/2000/svg" xmlns:xlink="http://www.w3.org/1999/xlink">
<g id="graph0" class="graph" transform="scale(1 1) rotate(0) translate(4 611.14)">
<title>FFrameData::ProcessReplayerEventAdd</title>
<!-- Node1 -->
<g id="Node000001" class="node">
<title>Node1</title>
<g id="a_Node000001"><a xlink:title=" ">
<polygon fill="#999999" stroke="#666666" points="150.25,-153 0,-153 0,-121 150.25,-121 150.25,-153"/>
<text text-anchor="start" x="8" y="-139.5" font-family="Helvetica,sans-Serif" font-size="10.00">FFrameData::ProcessReplayer</text>
<text text-anchor="middle" x="75.12" y="-127.5" font-family="Helvetica,sans-Serif" font-size="10.00">EventAdd</text>
</a>
</g>
</g>
<!-- Node2 -->
<g id="Node000002" class="node">
<title>Node2</title>
<g id="a_Node000002"><a xlink:href="../../de/db4/classFFrameData.html#a1a36eaa480c6a680c42ad3a4af5452e9" target="_top" xlink:title=" ">
<polygon fill="white" stroke="#666666" points="333.88,-205 191.12,-205 191.12,-173 333.88,-173 333.88,-205"/>
<text text-anchor="start" x="199.12" y="-191.5" font-family="Helvetica,sans-Serif" font-size="10.00">FFrameData::CreateOrReuse</text>
<text text-anchor="middle" x="262.5" y="-179.5" font-family="Helvetica,sans-Serif" font-size="10.00">Actor</text>
</a>
</g>
</g>
<!-- Node1&#45;&gt;Node2 -->
<g id="edge1_Node000001_Node000002" class="edge">
<title>Node1&#45;&gt;Node2</title>
<g id="a_edge1_Node000001_Node000002"><a xlink:title=" ">
<path fill="none" stroke="#63b8ff" d="M134.78,-153.45C153.13,-158.6 173.54,-164.33 192.53,-169.65"/>
<polygon fill="#63b8ff" stroke="#63b8ff" points="191.34,-173.23 201.91,-172.56 193.23,-166.49 191.34,-173.23"/>
</a>
</g>
</g>
<!-- Node30 -->
<g id="Node000030" class="node">
<title>Node30</title>
<g id="a_Node000030"><a xlink:href="../../de/db4/classFFrameData.html#a58f7c5af62fca9c974797597b6b21bfd" target="_top" xlink:title=" ">
<polygon fill="white" stroke="#666666" points="338.75,-128 186.25,-128 186.25,-96 338.75,-96 338.75,-128"/>
<text text-anchor="start" x="194.25" y="-114.5" font-family="Helvetica,sans-Serif" font-size="10.00">FFrameData::SetActorSimulate</text>
<text text-anchor="middle" x="262.5" y="-102.5" font-family="Helvetica,sans-Serif" font-size="10.00">Physics</text>
</a>
</g>
</g>
<!-- Node1&#45;&gt;Node30 -->
<g id="edge48_Node000001_Node000030" class="edge">
<title>Node1&#45;&gt;Node30</title>
<g id="a_edge48_Node000001_Node000030"><a xlink:title=" ">
<path fill="none" stroke="#63b8ff" d="M150.72,-126.94C158.77,-125.85 167,-124.74 175.17,-123.64"/>
<polygon fill="#63b8ff" stroke="#63b8ff" points="175.4,-127.01 184.85,-122.2 174.47,-120.07 175.4,-127.01"/>
</a>
</g>
</g>
<!-- Node3 -->
<g id="Node000003" class="node">
<title>Node3</title>
<g id="a_Node000003"><a xlink:href="../../de/db4/classFFrameData.html#a4033b5882fb0fe5a9539fa5076bae8fe" target="_top" xlink:title=" ">
<polygon fill="white" stroke="#666666" points="525.75,-161 374.75,-161 374.75,-141 525.75,-141 525.75,-161"/>
<text text-anchor="middle" x="450.25" y="-147.5" font-family="Helvetica,sans-Serif" font-size="10.00">FFrameData::FindTrafficLightAt</text>
</a>
</g>
</g>
<!-- Node2&#45;&gt;Node3 -->
<g id="edge2_Node000002_Node000003" class="edge">
<title>Node2&#45;&gt;Node3</title>
<g id="a_edge2_Node000002_Node000003"><a xlink:title=" ">
<path fill="none" stroke="#63b8ff" d="M334.25,-174.53C351.83,-170.93 370.53,-167.11 387.62,-163.61"/>
<polygon fill="#63b8ff" stroke="#63b8ff" points="387.94,-166.91 397.04,-161.48 386.54,-160.05 387.94,-166.91"/>
</a>
</g>
</g>
<!-- Node6 -->
<g id="Node000006" class="node">
<title>Node6</title>
<g id="a_Node000006"><a xlink:href="../../d7/d1e/classUCarlaStatics.html#a8137f56360aa59de44591fce99608dc4" target="_top" xlink:title=" ">
<polygon fill="white" stroke="#666666" points="890.75,-139 750.25,-139 750.25,-107 890.75,-107 890.75,-139"/>
<text text-anchor="start" x="758.25" y="-125.5" font-family="Helvetica,sans-Serif" font-size="10.00">UCarlaStatics::GetLargeMap</text>
<text text-anchor="middle" x="820.5" y="-113.5" font-family="Helvetica,sans-Serif" font-size="10.00">Manager</text>
</a>
</g>
</g>
<!-- Node2&#45;&gt;Node6 -->
<g id="edge12_Node000002_Node000006" class="edge">
<title>Node2&#45;&gt;Node6</title>
<g id="a_edge12_Node000002_Node000006"><a xlink:title=" ">
<path fill="none" stroke="#63b8ff" d="M334.08,-196.72C424,-204.15 583.2,-209.2 712,-170 729.94,-164.54 731.05,-156.03 748,-148 751.31,-146.43 754.74,-144.91 758.24,-143.44"/>
<polygon fill="#63b8ff" stroke="#63b8ff" points="759.21,-146.42 767.19,-139.45 756.6,-139.92 759.21,-146.42"/>
</a>
</g>
</g>
<!-- Node13 -->
<g id="Node000013" class="node">
<title>Node13</title>
<g id="a_Node000013"><a xlink:href="../../d9/d4b/classALargeMapManager.html#a4db8db5e5de04f87f71b1fd36d9b6735" target="_top" xlink:title=" ">
<polygon fill="white" stroke="#666666" points="709.38,-406 564.38,-406 564.38,-374 709.38,-374 709.38,-406"/>
<text text-anchor="start" x="572.38" y="-392.5" font-family="Helvetica,sans-Serif" font-size="10.00">ALargeMapManager::OnActor</text>
<text text-anchor="middle" x="636.88" y="-380.5" font-family="Helvetica,sans-Serif" font-size="10.00">Spawned</text>
</a>
</g>
</g>
<!-- Node2&#45;&gt;Node13 -->
<g id="edge13_Node000002_Node000013" class="edge">
<title>Node2&#45;&gt;Node13</title>
<g id="a_edge13_Node000002_Node000013"><a xlink:title=" ">
<path fill="none" stroke="#63b8ff" d="M293.97,-205.45C360.97,-241.61 521.04,-328.01 595.94,-368.45"/>
<polygon fill="#63b8ff" stroke="#63b8ff" points="594.04,-371.94 604.5,-373.61 597.37,-365.78 594.04,-371.94"/>
</a>
</g>
</g>
<!-- Node29 -->
<g id="Node000029" class="node">
<title>Node29</title>
<g id="a_Node000029"><a xlink:href="../../d0/d6a/ActorDispatcher_8cpp.html#a69d0a7232310b5ebaa51abb2b9945184" target="_top" xlink:title=" ">
<polygon fill="white" stroke="#666666" points="477.75,-237 422.75,-237 422.75,-217 477.75,-217 477.75,-237"/>
<text text-anchor="middle" x="450.25" y="-223.5" font-family="Helvetica,sans-Serif" font-size="10.00">UE_LOG</text>
</a>
</g>
</g>
<!-- Node2&#45;&gt;Node29 -->
<g id="edge47_Node000002_Node000029" class="edge">
<title>Node2&#45;&gt;Node29</title>
<g id="a_edge47_Node000002_Node000029"><a xlink:title=" ">
<path fill="none" stroke="#63b8ff" d="M334.25,-203.47C360.74,-208.89 389.78,-214.83 412.05,-219.39"/>
<polygon fill="#63b8ff" stroke="#63b8ff" points="411.21,-223 421.71,-221.57 412.61,-216.14 411.21,-223"/>
</a>
</g>
</g>
<!-- Node4 -->
<g id="Node000004" class="node">
<title>Node4</title>
<g id="a_Node000004"><a xlink:href="../../dc/dde/classFCarlaActor.html#a948c2853f69c6cc0933ab4b7be759f6c" target="_top" xlink:title=" ">
<polygon fill="white" stroke="#666666" points="707.12,-123 566.62,-123 566.62,-91 707.12,-91 707.12,-123"/>
<text text-anchor="start" x="574.62" y="-109.5" font-family="Helvetica,sans-Serif" font-size="10.00">FCarlaActor::GetActorGlobal</text>
<text text-anchor="middle" x="636.88" y="-97.5" font-family="Helvetica,sans-Serif" font-size="10.00">Location</text>
</a>
</g>
</g>
<!-- Node3&#45;&gt;Node4 -->
<g id="edge3_Node000003_Node000004" class="edge">
<title>Node3&#45;&gt;Node4</title>
<g id="a_edge3_Node000003_Node000004"><a xlink:title=" ">
<path fill="none" stroke="#63b8ff" d="M495,-140.57C513.34,-136.2 535.25,-130.98 556.26,-125.97"/>
<polygon fill="#63b8ff" stroke="#63b8ff" points="556.9,-129.18 565.81,-123.46 555.27,-122.37 556.9,-129.18"/>
</a>
</g>
</g>
<!-- Node12 -->
<g id="Node000012" class="node">
<title>Node12</title>
<g id="a_Node000012"><a xlink:href="../../dc/dde/classFCarlaActor.html#a31ab39eb2088af21d9c85c47424f56b4" target="_top" xlink:title=" ">
<polygon fill="white" stroke="#666666" points="703.75,-161 570,-161 570,-141 703.75,-141 703.75,-161"/>
<text text-anchor="middle" x="636.88" y="-147.5" font-family="Helvetica,sans-Serif" font-size="10.00">FCarlaActor::GetActorType</text>
</a>
</g>
</g>
<!-- Node3&#45;&gt;Node12 -->
<g id="edge11_Node000003_Node000012" class="edge">
<title>Node3&#45;&gt;Node12</title>
<g id="a_edge11_Node000003_Node000012"><a xlink:title=" ">
<path fill="none" stroke="#63b8ff" d="M526.08,-151C536.87,-151 548,-151 558.84,-151"/>
<polygon fill="#63b8ff" stroke="#63b8ff" points="558.56,-154.5 568.56,-151 558.56,-147.5 558.56,-154.5"/>
</a>
</g>
</g>
<!-- Node5 -->
<g id="Node000005" class="node">
<title>Node5</title>
<g id="a_Node000005"><a xlink:href="../../dc/dde/classFCarlaActor.html#a4d2752987e47827efd488b90053ad415" target="_top" xlink:title=" ">
<polygon fill="white" stroke="#666666" points="876.88,-89 764.12,-89 764.12,-69 876.88,-69 876.88,-89"/>
<text text-anchor="middle" x="820.5" y="-75.5" font-family="Helvetica,sans-Serif" font-size="10.00">FCarlaActor::GetActor</text>
</a>
</g>
</g>
<!-- Node4&#45;&gt;Node5 -->
<g id="edge4_Node000004_Node000005" class="edge">
<title>Node4&#45;&gt;Node5</title>
<g id="a_edge4_Node000004_Node000005"><a xlink:title=" ">
<path fill="none" stroke="#63b8ff" d="M707.58,-96.25C722.55,-93.95 738.33,-91.51 753.17,-89.23"/>
<polygon fill="#63b8ff" stroke="#63b8ff" points="753.44,-92.57 762.79,-87.59 752.37,-85.65 753.44,-92.57"/>
</a>
</g>
</g>
<!-- Node4&#45;&gt;Node6 -->
<g id="edge5_Node000004_Node000006" class="edge">
<title>Node4&#45;&gt;Node6</title>
<g id="a_edge5_Node000004_Node000006"><a xlink:title=" ">
<path fill="none" stroke="#63b8ff" d="M707.58,-113.14C717.9,-114.05 728.6,-114.99 739.12,-115.92"/>
<polygon fill="#63b8ff" stroke="#63b8ff" points="738.72,-119.49 748.98,-116.88 739.33,-112.51 738.72,-119.49"/>
</a>
</g>
</g>
<!-- Node9 -->
<g id="Node000009" class="node">
<title>Node9</title>
<g id="a_Node000009"><a xlink:href="../../dc/dde/classFCarlaActor.html#a49f76353c69e02542858ed2cf6eeb000" target="_top" xlink:title=" ">
<polygon fill="white" stroke="#666666" points="879.5,-51 761.5,-51 761.5,-31 879.5,-31 879.5,-51"/>
<text text-anchor="middle" x="820.5" y="-37.5" font-family="Helvetica,sans-Serif" font-size="10.00">FCarlaActor::IsDormant</text>
</a>
</g>
</g>
<!-- Node4&#45;&gt;Node9 -->
<g id="edge8_Node000004_Node000009" class="edge">
<title>Node4&#45;&gt;Node9</title>
<g id="a_edge8_Node000004_Node000009"><a xlink:title=" ">
<path fill="none" stroke="#63b8ff" d="M691.48,-90.52C698.48,-87.9 705.48,-85.05 712,-82 728.99,-74.07 730.76,-67.37 748,-60 752.44,-58.1 757.11,-56.35 761.86,-54.75"/>
<polygon fill="#63b8ff" stroke="#63b8ff" points="762.82,-57.8 771.31,-51.46 760.72,-51.12 762.82,-57.8"/>
</a>
</g>
</g>
<!-- Node10 -->
<g id="Node000010" class="node">
<title>Node10</title>
<g id="a_Node000010"><a xlink:href="../../d9/d4b/classALargeMapManager.html#adc28142d65c3bdb83f5a6a6db9deee81" target="_top" xlink:title=" ">
<polygon fill="white" stroke="#666666" points="891.88,-189 749.12,-189 749.12,-157 891.88,-157 891.88,-189"/>
<text text-anchor="start" x="757.12" y="-175.5" font-family="Helvetica,sans-Serif" font-size="10.00">ALargeMapManager::LocalTo</text>
<text text-anchor="middle" x="820.5" y="-163.5" font-family="Helvetica,sans-Serif" font-size="10.00">GlobalLocation</text>
</a>
</g>
</g>
<!-- Node4&#45;&gt;Node10 -->
<g id="edge9_Node000004_Node000010" class="edge">
<title>Node4&#45;&gt;Node10</title>
<g id="a_edge9_Node000004_Node000010"><a xlink:title=" ">
<path fill="none" stroke="#63b8ff" d="M688.74,-123.46C696.57,-126.19 704.53,-129.09 712,-132 728.31,-138.36 731.72,-141.55 748,-148 752.13,-149.64 756.41,-151.27 760.73,-152.89"/>
<polygon fill="#63b8ff" stroke="#63b8ff" points="759.25,-156.44 769.84,-156.59 761.65,-149.86 759.25,-156.44"/>
</a>
</g>
</g>
<!-- Node7 -->
<g id="Node000007" class="node">
<title>Node7</title>
<g id="a_Node000007"><a xlink:href="../../d7/d1e/classUCarlaStatics.html#acf94832c60579b6d161b66447719efbc" target="_top" xlink:title=" ">
<polygon fill="white" stroke="#666666" points="1077,-70 929,-70 929,-50 1077,-50 1077,-70"/>
<text text-anchor="middle" x="1003" y="-56.5" font-family="Helvetica,sans-Serif" font-size="10.00">UCarlaStatics::GetGameMode</text>
</a>
</g>
</g>
<!-- Node6&#45;&gt;Node7 -->
<g id="edge6_Node000006_Node000007" class="edge">
<title>Node6&#45;&gt;Node7</title>
<g id="a_edge6_Node000006_Node000007"><a xlink:title=" ">
<path fill="none" stroke="#63b8ff" d="M871.49,-106.59C878.77,-103.9 886.13,-100.99 893,-98 909.59,-90.77 912.13,-85.54 929,-79 934.06,-77.04 939.39,-75.21 944.78,-73.53"/>
<polygon fill="#63b8ff" stroke="#63b8ff" points="945.54,-76.66 954.15,-70.48 943.57,-69.95 945.54,-76.66"/>
</a>
</g>
</g>
<!-- Node8 -->
<g id="Node000008" class="node">
<title>Node8</title>
<g id="a_Node000008"><a xlink:href="../../db/de5/classACarlaGameModeBase.html#a6a66e9a979a5dfbdb292f8eb3f89149c" target="_top" xlink:title=" ">
<polygon fill="white" stroke="#666666" points="1062,-32 944,-32 944,0 1062,0 1062,-32"/>
<text text-anchor="start" x="952" y="-18.5" font-family="Helvetica,sans-Serif" font-size="10.00">ACarlaGameModeBase</text>
<text text-anchor="middle" x="1003" y="-6.5" font-family="Helvetica,sans-Serif" font-size="10.00">::GetLMManager</text>
</a>
</g>
</g>
<!-- Node6&#45;&gt;Node8 -->
<g id="edge7_Node000006_Node000008" class="edge">
<title>Node6&#45;&gt;Node8</title>
<g id="a_edge7_Node000006_Node000008"><a xlink:title=" ">
<path fill="none" stroke="#63b8ff" d="M879.52,-106.63C884.31,-104.14 888.88,-101.27 893,-98 916.45,-79.35 905.49,-59.58 929,-41 930.66,-39.69 932.38,-38.45 934.17,-37.27"/>
<polygon fill="#63b8ff" stroke="#63b8ff" points="935.59,-39.92 942.5,-31.89 932.09,-33.85 935.59,-39.92"/>
</a>
</g>
</g>
<!-- Node11 -->
<g id="Node000011" class="node">
<title>Node11</title>
<g id="a_Node000011"><a xlink:href="../../de/d7a/structFDVector.html#afcef01413fad4ebae06ee468bee88a9c" target="_top" xlink:title=" ">
<polygon fill="white" stroke="#666666" points="1057.12,-108 948.88,-108 948.88,-88 1057.12,-88 1057.12,-108"/>
<text text-anchor="middle" x="1003" y="-94.5" font-family="Helvetica,sans-Serif" font-size="10.00">FDVector::ToFVector</text>
</a>
</g>
</g>
<!-- Node10&#45;&gt;Node11 -->
<g id="edge10_Node000010_Node000011" class="edge">
<title>Node10&#45;&gt;Node11</title>
<g id="a_edge10_Node000010_Node000011"><a xlink:title=" ">
<path fill="none" stroke="#63b8ff" d="M875.58,-156.56C881.6,-154.01 887.53,-151.16 893,-148 911.29,-137.44 910.3,-126.8 929,-117 932.45,-115.19 936.09,-113.55 939.81,-112.05"/>
<polygon fill="#63b8ff" stroke="#63b8ff" points="940.62,-115.12 948.84,-108.44 938.25,-108.53 940.62,-115.12"/>
</a>
</g>
</g>
<!-- Node13&#45;&gt;Node5 -->
<g id="edge23_Node000013_Node000005" class="edge">
<title>Node13&#45;&gt;Node5</title>
<g id="a_edge23_Node000013_Node000005"><a xlink:title=" ">
<path fill="none" stroke="#63b8ff" d="M643.12,-373.51C661.93,-314.72 726.14,-117.75 748,-98 750,-96.19 752.15,-94.55 754.42,-93.07"/>
<polygon fill="#63b8ff" stroke="#63b8ff" points="755.53,-95.9 762.66,-88.06 752.2,-89.75 755.53,-95.9"/>
</a>
</g>
</g>
<!-- Node13&#45;&gt;Node10 -->
<g id="edge29_Node000013_Node000010" class="edge">
<title>Node13&#45;&gt;Node10</title>
<g id="a_edge29_Node000013_Node000010"><a xlink:title=" ">
<path fill="none" stroke="#63b8ff" d="M651.53,-373.69C683.08,-335.99 761.24,-242.61 798.75,-197.79"/>
<polygon fill="#63b8ff" stroke="#63b8ff" points="801.96,-200.41 805.69,-190.5 796.59,-195.92 801.96,-200.41"/>
</a>
</g>
</g>
<!-- Node13&#45;&gt;Node13 -->
<g id="edge33_Node000013_Node000013" class="edge">
<title>Node13&#45;&gt;Node13</title>
<g id="a_edge33_Node000013_Node000013"><a xlink:title=" ">
<path fill="none" stroke="#63b8ff" d="M604.09,-406.44C597.97,-415.58 608.9,-424 636.88,-424 653.05,-424 663.52,-421.19 668.3,-417.05"/>
<polygon fill="#63b8ff" stroke="#63b8ff" points="671.86,-417.81 669.66,-407.44 664.92,-416.92 671.86,-417.81"/>
</a>
</g>
</g>
<!-- Node14 -->
<g id="Node000014" class="node">
<title>Node14</title>
<g id="a_Node000014"><a xlink:href="../../d9/d4b/classALargeMapManager.html#a93ad8e052f2af2d4d8adff571d8b0c89" target="_top" xlink:title=" ">
<polygon fill="white" stroke="#666666" points="891.12,-428 749.88,-428 749.88,-396 891.12,-396 891.12,-428"/>
<text text-anchor="start" x="757.88" y="-414.5" font-family="Helvetica,sans-Serif" font-size="10.00">ALargeMapManager::CheckIf</text>
<text text-anchor="middle" x="820.5" y="-402.5" font-family="Helvetica,sans-Serif" font-size="10.00">RebaseIsNeeded</text>
</a>
</g>
</g>
<!-- Node13&#45;&gt;Node14 -->
<g id="edge14_Node000013_Node000014" class="edge">
<title>Node13&#45;&gt;Node14</title>
<g id="a_edge14_Node000013_Node000014"><a xlink:title=" ">
<path fill="none" stroke="#63b8ff" d="M709.66,-398.69C719.17,-399.85 728.97,-401.03 738.62,-402.2"/>
<polygon fill="#63b8ff" stroke="#63b8ff" points="738.08,-405.78 748.43,-403.51 738.92,-398.83 738.08,-405.78"/>
</a>
</g>
</g>
<!-- Node18 -->
<g id="Node000018" class="node">
<title>Node18</title>
<g id="a_Node000018"><a xlink:href="../../d2/d40/TrafficLightBase_8cpp.html#a1459952e95242b0c926376d0bb4692b8" target="_top" xlink:title=" ">
<polygon fill="white" stroke="#666666" points="1025.62,-418 980.38,-418 980.38,-398 1025.62,-398 1025.62,-418"/>
<text text-anchor="middle" x="1003" y="-404.5" font-family="Helvetica,sans-Serif" font-size="10.00">IsValid</text>
</a>
</g>
</g>
<!-- Node13&#45;&gt;Node18 -->
<g id="edge28_Node000013_Node000018" class="edge">
<title>Node13&#45;&gt;Node18</title>
<g id="a_edge28_Node000013_Node000018"><a xlink:title=" ">
<path fill="none" stroke="#63b8ff" d="M709.8,-385.07C761.01,-382.55 831.38,-381.12 893,-387 918.98,-389.48 947.97,-395.21 969.51,-400.06"/>
<polygon fill="#63b8ff" stroke="#63b8ff" points="968.52,-403.65 979.05,-402.49 970.09,-396.83 968.52,-403.65"/>
</a>
</g>
</g>
<!-- Node19 -->
<g id="Node000019" class="node">
<title>Node19</title>
<g id="a_Node000019"><a xlink:href="../../dc/dde/classFCarlaActor.html#aca3d1a4bfcb5e0ae1974b7206933d665" target="_top" xlink:title=" ">
<polygon fill="white" stroke="#666666" points="880.62,-572 760.38,-572 760.38,-552 880.62,-552 880.62,-572"/>
<text text-anchor="middle" x="820.5" y="-558.5" font-family="Helvetica,sans-Serif" font-size="10.00">FCarlaActor::GetActorId</text>
</a>
</g>
</g>
<!-- Node13&#45;&gt;Node19 -->
<g id="edge24_Node000013_Node000019" class="edge">
<title>Node13&#45;&gt;Node19</title>
<g id="a_edge24_Node000013_Node000019"><a xlink:title=" ">
<path fill="none" stroke="#63b8ff" d="M644.92,-406.24C659.43,-437.69 695.72,-506.98 748,-543 750.02,-544.39 752.14,-545.68 754.32,-546.88"/>
<polygon fill="#63b8ff" stroke="#63b8ff" points="752.74,-550.47 763.28,-551.53 755.71,-544.13 752.74,-550.47"/>
</a>
</g>
</g>
<!-- Node20 -->
<g id="Node000020" class="node">
<title>Node20</title>
<g id="a_Node000020"><a xlink:href="../../dc/dde/classFCarlaActor.html#ac9a28cdf1b57b3bf280270d40f53359a" target="_top" xlink:title=" ">
<polygon fill="white" stroke="#666666" points="1066.88,-532 939.12,-532 939.12,-512 1066.88,-512 1066.88,-532"/>
<text text-anchor="middle" x="1003" y="-518.5" font-family="Helvetica,sans-Serif" font-size="10.00">FCarlaActor::GetActorInfo</text>
</a>
</g>
</g>
<!-- Node13&#45;&gt;Node20 -->
<g id="edge25_Node000013_Node000020" class="edge">
<title>Node13&#45;&gt;Node20</title>
<g id="a_edge25_Node000013_Node000020"><a xlink:title=" ">
<path fill="none" stroke="#63b8ff" d="M661.36,-406.47C683,-421 716.44,-441.85 748,-455 809.5,-480.62 828.59,-475.99 893,-493 912.39,-498.12 933.71,-503.78 952.31,-508.74"/>
<polygon fill="#63b8ff" stroke="#63b8ff" points="951.35,-512.37 961.91,-511.56 953.15,-505.61 951.35,-512.37"/>
</a>
</g>
</g>
<!-- Node21 -->
<g id="Node000021" class="node">
<title>Node21</title>
<g id="a_Node000021"><a xlink:href="../../d7/d1e/classUCarlaStatics.html#a83f2a341e32413abf1ec85ee740c2036" target="_top" xlink:title=" ">
<polygon fill="white" stroke="#666666" points="1067.62,-599 938.38,-599 938.38,-567 1067.62,-567 1067.62,-599"/>
<text text-anchor="start" x="946.38" y="-585.5" font-family="Helvetica,sans-Serif" font-size="10.00">UCarlaStatics::GetCurrent</text>
<text text-anchor="middle" x="1003" y="-573.5" font-family="Helvetica,sans-Serif" font-size="10.00">Episode</text>
</a>
</g>
</g>
<!-- Node13&#45;&gt;Node21 -->
<g id="edge26_Node000013_Node000021" class="edge">
<title>Node13&#45;&gt;Node21</title>
<g id="a_edge26_Node000013_Node000021"><a xlink:title=" ">
<path fill="none" stroke="#63b8ff" d="M641.52,-406.42C651.11,-445.17 681.04,-541.96 748,-581 801.82,-612.38 873.59,-609.73 927.11,-601.06"/>
<polygon fill="#63b8ff" stroke="#63b8ff" points="927.64,-604.35 936.89,-599.19 926.44,-597.45 927.64,-604.35"/>
</a>
</g>
</g>
<!-- Node23 -->
<g id="Node000023" class="node">
<title>Node23</title>
<g id="a_Node000023"><a xlink:href="../../d9/d4b/classALargeMapManager.html#a545b402731ad2e1bb7e5ee16a8ce8cbf" target="_top" xlink:title=" ">
<polygon fill="white" stroke="#666666" points="893,-534 748,-534 748,-502 893,-502 893,-534"/>
<text text-anchor="start" x="756" y="-520.5" font-family="Helvetica,sans-Serif" font-size="10.00">ALargeMapManager::OnActor</text>
<text text-anchor="middle" x="820.5" y="-508.5" font-family="Helvetica,sans-Serif" font-size="10.00">Destroyed</text>
</a>
</g>
</g>
<!-- Node13&#45;&gt;Node23 -->
<g id="edge30_Node000013_Node000023" class="edge">
<title>Node13&#45;&gt;Node23</title>
<g id="a_edge30_Node000013_Node000023"><a xlink:title=" ">
<path fill="none" stroke="#63b8ff" d="M652.94,-406.42C672.99,-427.52 710.32,-464.26 748,-488 753.18,-491.26 758.78,-494.32 764.48,-497.13"/>
<polygon fill="#63b8ff" stroke="#63b8ff" points="762.58,-500.57 773.12,-501.63 765.54,-494.22 762.58,-500.57"/>
</a>
</g>
</g>
<!-- Node24 -->
<g id="Node000024" class="node">
<title>Node24</title>
<g id="a_Node000024"><a xlink:href="../../d9/d4b/classALargeMapManager.html#a2b57d4a4247bc0bc70f6902baadaa7c6" target="_top" xlink:title=" ">
<polygon fill="white" stroke="#666666" points="890.38,-310 750.62,-310 750.62,-278 890.38,-278 890.38,-310"/>
<text text-anchor="start" x="758.62" y="-296.5" font-family="Helvetica,sans-Serif" font-size="10.00">ALargeMapManager::Update</text>
<text text-anchor="middle" x="820.5" y="-284.5" font-family="Helvetica,sans-Serif" font-size="10.00">TilesState</text>
</a>
</g>
</g>
<!-- Node13&#45;&gt;Node24 -->
<g id="edge34_Node000013_Node000024" class="edge">
<title>Node13&#45;&gt;Node24</title>
<g id="a_edge34_Node000013_Node000024"><a xlink:title=" ">
<path fill="none" stroke="#63b8ff" d="M668.69,-373.71C699.08,-357.65 745.72,-333 779.08,-315.37"/>
<polygon fill="#63b8ff" stroke="#63b8ff" points="780.33,-318.13 787.54,-310.36 777.06,-311.94 780.33,-318.13"/>
</a>
</g>
</g>
<!-- Node14&#45;&gt;Node14 -->
<g id="edge15_Node000014_Node000014" class="edge">
<title>Node14&#45;&gt;Node14</title>
<g id="a_edge15_Node000014_Node000014"><a xlink:title=" ">
<path fill="none" stroke="#63b8ff" d="M787.92,-428.44C781.84,-437.58 792.7,-446 820.5,-446 836.57,-446 846.98,-443.19 851.73,-439.05"/>
<polygon fill="#63b8ff" stroke="#63b8ff" points="855.29,-439.8 853.08,-429.44 848.35,-438.92 855.29,-439.8"/>
</a>
</g>
</g>
<!-- Node15 -->
<g id="Node000015" class="node">
<title>Node15</title>
<g id="a_Node000015"><a xlink:href="../../d9/d4b/classALargeMapManager.html#a719578eff1513ef2ab1993349ea6db52" target="_top" xlink:title="从给定的位置检索覆盖该区域的图块ID。">
<polygon fill="white" stroke="#666666" points="1267.75,-408 1119,-408 1119,-388 1267.75,-388 1267.75,-408"/>
<text text-anchor="middle" x="1193.38" y="-394.5" font-family="Helvetica,sans-Serif" font-size="10.00">ALargeMapManager::GetTileID</text>
</a>
</g>
</g>
<!-- Node14&#45;&gt;Node15 -->
<g id="edge16_Node000014_Node000015" class="edge">
<title>Node14&#45;&gt;Node15</title>
<g id="a_edge16_Node000014_Node000015"><a xlink:title=" ">
<path fill="none" stroke="#63b8ff" d="M891.61,-423.21C904.04,-424.79 916.87,-426.16 929,-427 994.62,-431.56 1011.72,-435.08 1077,-427 1101.37,-423.98 1128,-417.51 1149.52,-411.45"/>
<polygon fill="#63b8ff" stroke="#63b8ff" points="1150.33,-414.57 1158.96,-408.43 1148.38,-407.84 1150.33,-414.57"/>
</a>
</g>
</g>
<!-- Node17 -->
<g id="Node000017" class="node">
<title>Node17</title>
<g id="a_Node000017"><a xlink:href="../../d9/d4b/classALargeMapManager.html#abafa68f43a194e756c22a34bac95a84f" target="_top" xlink:title=" ">
<polygon fill="white" stroke="#666666" points="1263.25,-495 1123.5,-495 1123.5,-463 1263.25,-463 1263.25,-495"/>
<text text-anchor="start" x="1131.5" y="-481.5" font-family="Helvetica,sans-Serif" font-size="10.00">ALargeMapManager::GetTile</text>
<text text-anchor="middle" x="1193.38" y="-469.5" font-family="Helvetica,sans-Serif" font-size="10.00">Location</text>
</a>
</g>
</g>
<!-- Node14&#45;&gt;Node17 -->
<g id="edge19_Node000014_Node000017" class="edge">
<title>Node14&#45;&gt;Node17</title>
<g id="a_edge19_Node000014_Node000017"><a xlink:title=" ">
<path fill="none" stroke="#63b8ff" d="M872.79,-428.43C890.46,-433.65 910.47,-439.08 929,-443 989.91,-455.87 1059.77,-465.18 1112.22,-471.1"/>
<polygon fill="#63b8ff" stroke="#63b8ff" points="1111.82,-474.68 1122.14,-472.31 1112.59,-467.73 1111.82,-474.68"/>
</a>
</g>
</g>
<!-- Node14&#45;&gt;Node18 -->
<g id="edge22_Node000014_Node000018" class="edge">
<title>Node14&#45;&gt;Node18</title>
<g id="a_edge22_Node000014_Node000018"><a xlink:title=" ">
<path fill="none" stroke="#63b8ff" d="M891.54,-410.45C918.26,-409.86 947.46,-409.21 969.12,-408.73"/>
<polygon fill="#63b8ff" stroke="#63b8ff" points="969.1,-412.21 979.02,-408.49 968.94,-405.21 969.1,-412.21"/>
</a>
</g>
</g>
<!-- Node15&#45;&gt;Node15 -->
<g id="edge17_Node000015_Node000015" class="edge">
<title>Node15&#45;&gt;Node15</title>
<g id="a_edge17_Node000015_Node000015"><a xlink:title=" ">
<path fill="none" stroke="#63b8ff" d="M1163.78,-408.34C1151.14,-416.98 1161,-426 1193.38,-426 1212.6,-426 1223.88,-422.82 1227.24,-418.43"/>
<polygon fill="#63b8ff" stroke="#63b8ff" points="1230.09,-417.18 1222.97,-409.34 1223.64,-419.91 1230.09,-417.18"/>
</a>
</g>
</g>
<!-- Node16 -->
<g id="Node000016" class="node">
<title>Node16</title>
<g id="a_Node000016"><a xlink:href="../../d9/d4b/classALargeMapManager.html#a53d7481bf584f8c3f39c6d8b744084e6" target="_top" xlink:title=" ">
<polygon fill="white" stroke="#666666" points="1449.5,-414 1309.75,-414 1309.75,-382 1449.5,-382 1449.5,-414"/>
<text text-anchor="start" x="1317.75" y="-400.5" font-family="Helvetica,sans-Serif" font-size="10.00">ALargeMapManager::GetTile</text>
<text text-anchor="middle" x="1379.62" y="-388.5" font-family="Helvetica,sans-Serif" font-size="10.00">VectorID</text>
</a>
</g>
</g>
<!-- Node15&#45;&gt;Node16 -->
<g id="edge18_Node000015_Node000016" class="edge">
<title>Node15&#45;&gt;Node16</title>
<g id="a_edge18_Node000015_Node000016"><a xlink:title=" ">
<path fill="none" stroke="#63b8ff" d="M1267.99,-398C1278,-398 1288.32,-398 1298.44,-398"/>
<polygon fill="#63b8ff" stroke="#63b8ff" points="1298.32,-401.5 1308.32,-398 1298.32,-394.5 1298.32,-401.5"/>
</a>
</g>
</g>
<!-- Node17&#45;&gt;Node16 -->
<g id="edge21_Node000017_Node000016" class="edge">
<title>Node17&#45;&gt;Node16</title>
<g id="a_edge21_Node000017_Node000016"><a xlink:title=" ">
<path fill="none" stroke="#63b8ff" d="M1231.66,-462.61C1260.51,-449.93 1300.63,-432.29 1331.66,-418.65"/>
<polygon fill="#63b8ff" stroke="#63b8ff" points="1332.65,-421.6 1340.39,-414.37 1329.83,-415.19 1332.65,-421.6"/>
</a>
</g>
</g>
<!-- Node17&#45;&gt;Node17 -->
<g id="edge20_Node000017_Node000017" class="edge">
<title>Node17&#45;&gt;Node17</title>
<g id="a_edge20_Node000017_Node000017"><a xlink:title=" ">
<path fill="none" stroke="#63b8ff" d="M1160.12,-495.44C1153.92,-504.58 1165,-513 1193.38,-513 1209.78,-513 1220.4,-510.19 1225.25,-506.05"/>
<polygon fill="#63b8ff" stroke="#63b8ff" points="1228.81,-506.81 1226.63,-496.44 1221.87,-505.91 1228.81,-506.81"/>
</a>
</g>
</g>
<!-- Node22 -->
<g id="Node000022" class="node">
<title>Node22</title>
<g id="a_Node000022"><a xlink:href="../../d7/d1e/classUCarlaStatics.html#a35e7cb760a58848081a618e7fa8201e2" target="_top" xlink:title=" ">
<polygon fill="white" stroke="#666666" points="1273.75,-593 1113,-593 1113,-573 1273.75,-573 1273.75,-593"/>
<text text-anchor="middle" x="1193.38" y="-579.5" font-family="Helvetica,sans-Serif" font-size="10.00">UCarlaStatics::GetGameInstance</text>
</a>
</g>
</g>
<!-- Node21&#45;&gt;Node22 -->
<g id="edge27_Node000021_Node000022" class="edge">
<title>Node21&#45;&gt;Node22</title>
<g id="a_edge27_Node000021_Node000022"><a xlink:title=" ">
<path fill="none" stroke="#63b8ff" d="M1068.04,-583C1078.87,-583 1090.29,-583 1101.65,-583"/>
<polygon fill="#63b8ff" stroke="#63b8ff" points="1101.5,-586.5 1111.5,-583 1101.5,-579.5 1101.5,-586.5"/>
</a>
</g>
</g>
<!-- Node23&#45;&gt;Node20 -->
<g id="edge31_Node000023_Node000020" class="edge">
<title>Node23&#45;&gt;Node20</title>
<g id="a_edge31_Node000023_Node000020"><a xlink:title=" ">
<path fill="none" stroke="#63b8ff" d="M893.36,-519.59C904.76,-519.85 916.56,-520.11 928.01,-520.36"/>
<polygon fill="#63b8ff" stroke="#63b8ff" points="927.77,-523.88 937.85,-520.6 927.93,-516.88 927.77,-523.88"/>
</a>
</g>
</g>
<!-- Node23&#45;&gt;Node21 -->
<g id="edge32_Node000023_Node000021" class="edge">
<title>Node23&#45;&gt;Node21</title>
<g id="a_edge32_Node000023_Node000021"><a xlink:title=" ">
<path fill="none" stroke="#63b8ff" d="M868.84,-534.44C876.91,-537.27 885.2,-540.21 893,-543 910.85,-549.39 930.29,-556.49 947.75,-562.91"/>
<polygon fill="#63b8ff" stroke="#63b8ff" points="946.18,-566.43 956.77,-566.6 948.6,-559.86 946.18,-566.43"/>
</a>
</g>
</g>
<!-- Node24&#45;&gt;Node18 -->
<g id="edge41_Node000024_Node000018" class="edge">
<title>Node24&#45;&gt;Node18</title>
<g id="a_edge41_Node000024_Node000018"><a xlink:title=" ">
<path fill="none" stroke="#63b8ff" d="M841.87,-310.43C856.36,-322.27 876.17,-338.79 893,-354 909.56,-368.96 909.56,-378.05 929,-389 941.39,-395.98 956.41,-400.46 969.59,-403.3"/>
<polygon fill="#63b8ff" stroke="#63b8ff" points="968.65,-406.87 979.13,-405.32 969.97,-400 968.65,-406.87"/>
</a>
</g>
</g>
<!-- Node24&#45;&gt;Node24 -->
<g id="edge44_Node000024_Node000024" class="edge">
<title>Node24&#45;&gt;Node24</title>
<g id="a_edge44_Node000024_Node000024"><a xlink:title=" ">
<path fill="none" stroke="#63b8ff" d="M787.92,-310.44C781.84,-319.58 792.7,-328 820.5,-328 836.57,-328 846.98,-325.19 851.73,-321.05"/>
<polygon fill="#63b8ff" stroke="#63b8ff" points="855.29,-321.8 853.08,-311.44 848.35,-320.92 855.29,-321.8"/>
</a>
</g>
</g>
<!-- Node25 -->
<g id="Node000025" class="node">
<title>Node25</title>
<g id="a_Node000025"><a xlink:href="../../d9/d4b/classALargeMapManager.html#a8c1545ea7c9bf3685e29100027259a34" target="_top" xlink:title=" ">
<polygon fill="white" stroke="#666666" points="1075.5,-294 930.5,-294 930.5,-262 1075.5,-262 1075.5,-294"/>
<text text-anchor="start" x="938.5" y="-280.5" font-family="Helvetica,sans-Serif" font-size="10.00">ALargeMapManager::GetTiles</text>
<text text-anchor="middle" x="1003" y="-268.5" font-family="Helvetica,sans-Serif" font-size="10.00">ThatNeedToChangeState</text>
</a>
</g>
</g>
<!-- Node24&#45;&gt;Node25 -->
<g id="edge35_Node000024_Node000025" class="edge">
<title>Node24&#45;&gt;Node25</title>
<g id="a_edge35_Node000024_Node000025"><a xlink:title=" ">
<path fill="none" stroke="#63b8ff" d="M890.77,-287.86C900.16,-287.03 909.87,-286.17 919.47,-285.32"/>
<polygon fill="#63b8ff" stroke="#63b8ff" points="919.57,-288.73 929.22,-284.36 918.95,-281.76 919.57,-288.73"/>
</a>
</g>
</g>
<!-- Node26 -->
<g id="Node000026" class="node">
<title>Node26</title>
<g id="a_Node000026"><a xlink:href="../../d9/d4b/classALargeMapManager.html#a2a90cd2c498351712b4ab71af42802ce" target="_top" xlink:title=" ">
<polygon fill="white" stroke="#666666" points="1075.5,-362 930.5,-362 930.5,-330 1075.5,-330 1075.5,-362"/>
<text text-anchor="start" x="938.5" y="-348.5" font-family="Helvetica,sans-Serif" font-size="10.00">ALargeMapManager::GetTiles</text>
<text text-anchor="middle" x="1003" y="-336.5" font-family="Helvetica,sans-Serif" font-size="10.00">ToConsider</text>
</a>
</g>
</g>
<!-- Node24&#45;&gt;Node26 -->
<g id="edge37_Node000024_Node000026" class="edge">
<title>Node24&#45;&gt;Node26</title>
<g id="a_edge37_Node000024_Node000026"><a xlink:title=" ">
<path fill="none" stroke="#63b8ff" d="M878.61,-310.45C896.39,-315.58 916.17,-321.27 934.59,-326.58"/>
<polygon fill="#63b8ff" stroke="#63b8ff" points="933.37,-330.16 943.95,-329.56 935.31,-323.43 933.37,-330.16"/>
</a>
</g>
</g>
<!-- Node27 -->
<g id="Node000027" class="node">
<title>Node27</title>
<g id="a_Node000027"><a xlink:href="../../d9/d4b/classALargeMapManager.html#a188be94a33cdc78bcef7fb92bcfe680e" target="_top" xlink:title=" ">
<polygon fill="white" stroke="#666666" points="1072.88,-226 933.12,-226 933.12,-194 1072.88,-194 1072.88,-226"/>
<text text-anchor="start" x="941.12" y="-212.5" font-family="Helvetica,sans-Serif" font-size="10.00">ALargeMapManager::Update</text>
<text text-anchor="middle" x="1003" y="-200.5" font-family="Helvetica,sans-Serif" font-size="10.00">CurrentTilesLoaded</text>
</a>
</g>
</g>
<!-- Node24&#45;&gt;Node27 -->
<g id="edge42_Node000024_Node000027" class="edge">
<title>Node24&#45;&gt;Node27</title>
<g id="a_edge42_Node000024_Node000027"><a xlink:title=" ">
<path fill="none" stroke="#63b8ff" d="M856.73,-277.6C885.34,-264.29 925.87,-245.43 956.85,-231.01"/>
<polygon fill="#63b8ff" stroke="#63b8ff" points="957.96,-233.89 965.55,-226.5 955.01,-227.54 957.96,-233.89"/>
</a>
</g>
</g>
<!-- Node28 -->
<g id="Node000028" class="node">
<title>Node28</title>
<g id="a_Node000028"><a xlink:href="../../d9/d4b/classALargeMapManager.html#ad17c467de79c7d1847fc4a40802349e1" target="_top" xlink:title=" ">
<polygon fill="white" stroke="#666666" points="1072.88,-158 933.12,-158 933.12,-126 1072.88,-126 1072.88,-158"/>
<text text-anchor="start" x="941.12" y="-144.5" font-family="Helvetica,sans-Serif" font-size="10.00">ALargeMapManager::Update</text>
<text text-anchor="middle" x="1003" y="-132.5" font-family="Helvetica,sans-Serif" font-size="10.00">TileState</text>
</a>
</g>
</g>
<!-- Node24&#45;&gt;Node28 -->
<g id="edge45_Node000024_Node000028" class="edge">
<title>Node24&#45;&gt;Node28</title>
<g id="a_edge45_Node000024_Node000028"><a xlink:title=" ">
<path fill="none" stroke="#63b8ff" d="M835.3,-277.53C854.71,-254.96 891.9,-213.93 929,-185 938.68,-177.45 949.81,-170.25 960.41,-163.98"/>
<polygon fill="#63b8ff" stroke="#63b8ff" points="962.02,-166.52 968.94,-158.5 958.53,-160.45 962.02,-166.52"/>
</a>
</g>
</g>
<!-- Node25&#45;&gt;Node25 -->
<g id="edge36_Node000025_Node000025" class="edge">
<title>Node25&#45;&gt;Node25</title>
<g id="a_edge36_Node000025_Node000025"><a xlink:title=" ">
<path fill="none" stroke="#63b8ff" d="M970.42,-294.44C964.34,-303.58 975.2,-312 1003,-312 1019.07,-312 1029.48,-309.19 1034.23,-305.05"/>
<polygon fill="#63b8ff" stroke="#63b8ff" points="1037.79,-305.8 1035.58,-295.44 1030.85,-304.92 1037.79,-305.8"/>
</a>
</g>
</g>
<!-- Node26&#45;&gt;Node15 -->
<g id="edge38_Node000026_Node000015" class="edge">
<title>Node26&#45;&gt;Node15</title>
<g id="a_edge38_Node000026_Node000015"><a xlink:title=" ">
<path fill="none" stroke="#63b8ff" d="M1063.6,-362.45C1089.52,-369.61 1119.49,-377.88 1143.99,-384.64"/>
<polygon fill="#63b8ff" stroke="#63b8ff" points="1142.91,-388.25 1153.48,-387.54 1144.77,-381.5 1142.91,-388.25"/>
</a>
</g>
</g>
<!-- Node26&#45;&gt;Node16 -->
<g id="edge40_Node000026_Node000016" class="edge">
<title>Node26&#45;&gt;Node16</title>
<g id="a_edge40_Node000026_Node000016"><a xlink:title=" ">
<path fill="none" stroke="#63b8ff" d="M1076,-353.67C1130.42,-359.74 1206.93,-368.87 1273.75,-379 1281.85,-380.23 1290.29,-381.6 1298.71,-383.03"/>
<polygon fill="#63b8ff" stroke="#63b8ff" points="1297.88,-386.61 1308.33,-384.87 1299.07,-379.71 1297.88,-386.61"/>
</a>
</g>
</g>
<!-- Node26&#45;&gt;Node26 -->
<g id="edge39_Node000026_Node000026" class="edge">
<title>Node26&#45;&gt;Node26</title>
<g id="a_edge39_Node000026_Node000026"><a xlink:title=" ">
<path fill="none" stroke="#63b8ff" d="M970.42,-362.44C964.34,-371.58 975.2,-380 1003,-380 1019.07,-380 1029.48,-377.19 1034.23,-373.05"/>
<polygon fill="#63b8ff" stroke="#63b8ff" points="1037.79,-373.8 1035.58,-363.44 1030.85,-372.92 1037.79,-373.8"/>
</a>
</g>
</g>
<!-- Node27&#45;&gt;Node27 -->
<g id="edge43_Node000027_Node000027" class="edge">
<title>Node27&#45;&gt;Node27</title>
<g id="a_edge43_Node000027_Node000027"><a xlink:title=" ">
<path fill="none" stroke="#63b8ff" d="M970.42,-226.44C964.34,-235.58 975.2,-244 1003,-244 1019.07,-244 1029.48,-241.19 1034.23,-237.05"/>
<polygon fill="#63b8ff" stroke="#63b8ff" points="1037.79,-237.8 1035.58,-227.44 1030.85,-236.92 1037.79,-237.8"/>
</a>
</g>
</g>
<!-- Node28&#45;&gt;Node28 -->
<g id="edge46_Node000028_Node000028" class="edge">
<title>Node28&#45;&gt;Node28</title>
<g id="a_edge46_Node000028_Node000028"><a xlink:title=" ">
<path fill="none" stroke="#63b8ff" d="M970.42,-158.44C964.34,-167.58 975.2,-176 1003,-176 1019.07,-176 1029.48,-173.19 1034.23,-169.05"/>
<polygon fill="#63b8ff" stroke="#63b8ff" points="1037.79,-169.8 1035.58,-159.44 1030.85,-168.92 1037.79,-169.8"/>
</a>
</g>
</g>
<!-- Node31 -->
<g id="Node000031" class="node">
<title>Node31</title>
<g id="a_Node000031"><a xlink:href="../../dc/dde/classFCarlaActor.html#aee3121441148fc55d32a970630109202" target="_top" xlink:title=" ">
<polygon fill="white" stroke="#666666" points="712,-73 561.75,-73 561.75,-41 712,-41 712,-73"/>
<text text-anchor="start" x="569.75" y="-59.5" font-family="Helvetica,sans-Serif" font-size="10.00">FCarlaActor::SetActorSimulate</text>
<text text-anchor="middle" x="636.88" y="-47.5" font-family="Helvetica,sans-Serif" font-size="10.00">Physics</text>
</a>
</g>
</g>
<!-- Node30&#45;&gt;Node31 -->
<g id="edge49_Node000030_Node000031" class="edge">
<title>Node30&#45;&gt;Node31</title>
<g id="a_edge49_Node000030_Node000031"><a xlink:title=" ">
<path fill="none" stroke="#63b8ff" d="M338.86,-100.87C400.13,-91.82 486.58,-79.05 550.42,-69.62"/>
<polygon fill="#63b8ff" stroke="#63b8ff" points="550.89,-72.94 560.27,-68.02 549.86,-66.02 550.89,-72.94"/>
</a>
</g>
</g>
<!-- Node31&#45;&gt;Node5 -->
<g id="edge50_Node000031_Node000005" class="edge">
<title>Node31&#45;&gt;Node5</title>
<g id="a_edge50_Node000031_Node000005"><a xlink:title=" ">
<path fill="none" stroke="#63b8ff" d="M712.27,-66.01C725.74,-67.64 739.71,-69.34 752.94,-70.94"/>
<polygon fill="#63b8ff" stroke="#63b8ff" points="752.5,-74.53 762.85,-72.26 753.34,-67.58 752.5,-74.53"/>
</a>
</g>
</g>
<!-- Node31&#45;&gt;Node9 -->
<g id="edge51_Node000031_Node000009" class="edge">
<title>Node31&#45;&gt;Node9</title>
<g id="a_edge51_Node000031_Node000009"><a xlink:title=" ">
<path fill="none" stroke="#63b8ff" d="M712.27,-50.45C724.85,-49.34 737.86,-48.19 750.3,-47.1"/>
<polygon fill="#63b8ff" stroke="#63b8ff" points="750.4,-50.51 760.06,-46.15 749.79,-43.54 750.4,-50.51"/>
</a>
</g>
</g>
</g>
</svg>
