<?xml version="1.0" encoding="UTF-8" standalone="no"?>
<!DOCTYPE svg PUBLIC "-//W3C//DTD SVG 1.1//EN"
 "http://www.w3.org/Graphics/SVG/1.1/DTD/svg11.dtd">
<!-- Generated by graphviz version 8.1.0 (20230707.0739)
 -->
<!-- Title: FFrameData::AddActorKinematics Pages: 1 -->
<svg width="571pt" height="154pt"
 viewBox="0.00 0.00 571.25 154.00" xmlns="http://www.w3.org/2000/svg" xmlns:xlink="http://www.w3.org/1999/xlink">
<g id="graph0" class="graph" transform="scale(1 1) rotate(0) translate(4 150)">
<title>FFrameData::AddActorKinematics</title>
<!-- Node1 -->
<g id="Node000001" class="node">
<title>Node1</title>
<g id="a_Node000001"><a xlink:title=" ">
<polygon fill="#999999" stroke="#666666" points="165.25,-80 0,-80 0,-60 165.25,-60 165.25,-80"/>
<text text-anchor="middle" x="82.62" y="-66.5" font-family="Helvetica,sans-Serif" font-size="10.00">FFrameData::AddActorKinematics</text>
</a>
</g>
</g>
<!-- Node2 -->
<g id="Node000002" class="node">
<title>Node2</title>
<g id="a_Node000002"><a xlink:href="../../de/db4/classFFrameData.html#aedc35264705ca3fe57dd6bf51868017e" target="_top" xlink:title=" ">
<polygon fill="white" stroke="#666666" points="346.25,-146 204.25,-146 204.25,-126 346.25,-126 346.25,-146"/>
<text text-anchor="middle" x="275.25" y="-132.5" font-family="Helvetica,sans-Serif" font-size="10.00">FFrameData::AddKinematics</text>
</a>
</g>
</g>
<!-- Node1&#45;&gt;Node2 -->
<g id="edge1_Node000001_Node000002" class="edge">
<title>Node1&#45;&gt;Node2</title>
<g id="a_edge1_Node000001_Node000002"><a xlink:title=" ">
<path fill="none" stroke="#63b8ff" d="M107.18,-80.43C130.7,-90.6 168.03,-106.09 201.25,-117 207.23,-118.96 213.53,-120.86 219.83,-122.64"/>
<polygon fill="#63b8ff" stroke="#63b8ff" points="218.8,-126.26 229.37,-125.53 220.65,-119.51 218.8,-126.26"/>
</a>
</g>
</g>
<!-- Node4 -->
<g id="Node000004" class="node">
<title>Node4</title>
<g id="a_Node000004"><a xlink:href="../../dc/dde/classFCarlaActor.html#a6bff2bd5ab8b9a1b66689d0cef59cc71" target="_top" xlink:title=" ">
<polygon fill="white" stroke="#666666" points="348.12,-108 202.38,-108 202.38,-76 348.12,-76 348.12,-108"/>
<text text-anchor="start" x="210.38" y="-94.5" font-family="Helvetica,sans-Serif" font-size="10.00">FCarlaActor::GetActorAngular</text>
<text text-anchor="middle" x="275.25" y="-82.5" font-family="Helvetica,sans-Serif" font-size="10.00">Velocity</text>
</a>
</g>
</g>
<!-- Node1&#45;&gt;Node4 -->
<g id="edge3_Node000001_Node000004" class="edge">
<title>Node1&#45;&gt;Node4</title>
<g id="a_edge3_Node000001_Node000004"><a xlink:title=" ">
<path fill="none" stroke="#63b8ff" d="M165.57,-79.46C174.09,-80.44 182.75,-81.44 191.27,-82.42"/>
<polygon fill="#63b8ff" stroke="#63b8ff" points="190.64,-85.99 200.98,-83.66 191.45,-79.04 190.64,-85.99"/>
</a>
</g>
</g>
<!-- Node7 -->
<g id="Node000007" class="node">
<title>Node7</title>
<g id="a_Node000007"><a xlink:href="../../dc/dde/classFCarlaActor.html#aca3d1a4bfcb5e0ae1974b7206933d665" target="_top" xlink:title=" ">
<polygon fill="white" stroke="#666666" points="335.38,-20 215.12,-20 215.12,0 335.38,0 335.38,-20"/>
<text text-anchor="middle" x="275.25" y="-6.5" font-family="Helvetica,sans-Serif" font-size="10.00">FCarlaActor::GetActorId</text>
</a>
</g>
</g>
<!-- Node1&#45;&gt;Node7 -->
<g id="edge6_Node000001_Node000007" class="edge">
<title>Node1&#45;&gt;Node7</title>
<g id="a_edge6_Node000001_Node000007"><a xlink:title=" ">
<path fill="none" stroke="#63b8ff" d="M111.46,-59.58C135.16,-50.89 170.21,-38.43 201.25,-29 207.66,-27.05 214.43,-25.12 221.15,-23.28"/>
<polygon fill="#63b8ff" stroke="#63b8ff" points="221.87,-26.45 230.63,-20.48 220.06,-19.68 221.87,-26.45"/>
</a>
</g>
</g>
<!-- Node8 -->
<g id="Node000008" class="node">
<title>Node8</title>
<g id="a_Node000008"><a xlink:href="../../dc/dde/classFCarlaActor.html#a88bf447f68db93e6bb544ac54eb3c4c2" target="_top" xlink:title=" ">
<polygon fill="white" stroke="#666666" points="349.25,-58 201.25,-58 201.25,-38 349.25,-38 349.25,-58"/>
<text text-anchor="middle" x="275.25" y="-44.5" font-family="Helvetica,sans-Serif" font-size="10.00">FCarlaActor::GetActorVelocity</text>
</a>
</g>
</g>
<!-- Node1&#45;&gt;Node8 -->
<g id="edge7_Node000001_Node000008" class="edge">
<title>Node1&#45;&gt;Node8</title>
<g id="a_edge7_Node000001_Node000008"><a xlink:title=" ">
<path fill="none" stroke="#63b8ff" d="M165.57,-60.54C173.62,-59.61 181.8,-58.67 189.87,-57.74"/>
<polygon fill="#63b8ff" stroke="#63b8ff" points="190.26,-61.1 199.79,-56.48 189.45,-54.15 190.26,-61.1"/>
</a>
</g>
</g>
<!-- Node3 -->
<g id="Node000003" class="node">
<title>Node3</title>
<g id="a_Node000003"><a xlink:href="../../dc/ded/classCarlaRecorderActorsKinematics.html#abce0033ef83222c43c6790416f449c9e" target="_top" xlink:title=" ">
<polygon fill="white" stroke="#666666" points="563.25,-146 385.25,-146 385.25,-126 563.25,-126 563.25,-146"/>
<text text-anchor="middle" x="474.25" y="-132.5" font-family="Helvetica,sans-Serif" font-size="10.00">CarlaRecorderActorsKinematics::Add</text>
</a>
</g>
</g>
<!-- Node2&#45;&gt;Node3 -->
<g id="edge2_Node000002_Node000003" class="edge">
<title>Node2&#45;&gt;Node3</title>
<g id="a_edge2_Node000002_Node000003"><a xlink:title=" ">
<path fill="none" stroke="#63b8ff" d="M346.54,-136C355.51,-136 364.83,-136 374.15,-136"/>
<polygon fill="#63b8ff" stroke="#63b8ff" points="374.08,-139.5 384.08,-136 374.08,-132.5 374.08,-139.5"/>
</a>
</g>
</g>
<!-- Node5 -->
<g id="Node000005" class="node">
<title>Node5</title>
<g id="a_Node000005"><a xlink:href="../../dc/dde/classFCarlaActor.html#a4d2752987e47827efd488b90053ad415" target="_top" xlink:title=" ">
<polygon fill="white" stroke="#666666" points="530.62,-59 417.88,-59 417.88,-39 530.62,-39 530.62,-59"/>
<text text-anchor="middle" x="474.25" y="-45.5" font-family="Helvetica,sans-Serif" font-size="10.00">FCarlaActor::GetActor</text>
</a>
</g>
</g>
<!-- Node4&#45;&gt;Node5 -->
<g id="edge4_Node000004_Node000005" class="edge">
<title>Node4&#45;&gt;Node5</title>
<g id="a_edge4_Node000004_Node000005"><a xlink:title=" ">
<path fill="none" stroke="#63b8ff" d="M348.49,-76.23C370.28,-71.48 393.91,-66.32 414.69,-61.78"/>
<polygon fill="#63b8ff" stroke="#63b8ff" points="415.25,-65.02 424.28,-59.47 413.76,-58.18 415.25,-65.02"/>
</a>
</g>
</g>
<!-- Node6 -->
<g id="Node000006" class="node">
<title>Node6</title>
<g id="a_Node000006"><a xlink:href="../../dc/dde/classFCarlaActor.html#a49f76353c69e02542858ed2cf6eeb000" target="_top" xlink:title=" ">
<polygon fill="white" stroke="#666666" points="533.25,-99 415.25,-99 415.25,-79 533.25,-79 533.25,-99"/>
<text text-anchor="middle" x="474.25" y="-85.5" font-family="Helvetica,sans-Serif" font-size="10.00">FCarlaActor::IsDormant</text>
</a>
</g>
</g>
<!-- Node4&#45;&gt;Node6 -->
<g id="edge5_Node000004_Node000006" class="edge">
<title>Node4&#45;&gt;Node6</title>
<g id="a_edge5_Node000004_Node000006"><a xlink:title=" ">
<path fill="none" stroke="#63b8ff" d="M348.49,-90.9C366.58,-90.62 385.96,-90.33 403.91,-90.06"/>
<polygon fill="#63b8ff" stroke="#63b8ff" points="403.93,-93.54 413.88,-89.89 403.83,-86.54 403.93,-93.54"/>
</a>
</g>
</g>
<!-- Node8&#45;&gt;Node5 -->
<g id="edge8_Node000008_Node000005" class="edge">
<title>Node8&#45;&gt;Node5</title>
<g id="a_edge8_Node000008_Node000005"><a xlink:title=" ">
<path fill="none" stroke="#63b8ff" d="M349.61,-48.37C368.26,-48.47 388.21,-48.57 406.52,-48.66"/>
<polygon fill="#63b8ff" stroke="#63b8ff" points="406.37,-52.17 416.39,-48.72 406.4,-45.17 406.37,-52.17"/>
</a>
</g>
</g>
<!-- Node8&#45;&gt;Node6 -->
<g id="edge9_Node000008_Node000006" class="edge">
<title>Node8&#45;&gt;Node6</title>
<g id="a_edge9_Node000008_Node000006"><a xlink:title=" ">
<path fill="none" stroke="#63b8ff" d="M326.47,-58.45C352.64,-63.9 384.84,-70.6 412.41,-76.34"/>
<polygon fill="#63b8ff" stroke="#63b8ff" points="411.62,-79.96 422.12,-78.57 413.04,-73.1 411.62,-79.96"/>
</a>
</g>
</g>
</g>
</svg>
