<?xml version="1.0" encoding="UTF-8" standalone="no"?>
<!DOCTYPE svg PUBLIC "-//W3C//DTD SVG 1.1//EN"
 "http://www.w3.org/Graphics/SVG/1.1/DTD/svg11.dtd">
<!-- Generated by graphviz version 8.1.0 (20230707.0739)
 -->
<!-- Title: FCarlaActor::SetActorLocalLocation Pages: 1 -->
<svg width="506pt" height="166pt"
 viewBox="0.00 0.00 506.00 166.00" xmlns="http://www.w3.org/2000/svg" xmlns:xlink="http://www.w3.org/1999/xlink">
<g id="graph0" class="graph" transform="scale(1 1) rotate(0) translate(4 162)">
<title>FCarlaActor::SetActorLocalLocation</title>
<!-- Node1 -->
<g id="Node000001" class="node">
<title>Node1</title>
<g id="a_Node000001"><a xlink:title=" ">
<polygon fill="#999999" stroke="#666666" points="135.25,-98 0,-98 0,-66 135.25,-66 135.25,-98"/>
<text text-anchor="start" x="8" y="-84.5" font-family="Helvetica,sans-Serif" font-size="10.00">FCarlaActor::SetActorLocal</text>
<text text-anchor="middle" x="67.62" y="-72.5" font-family="Helvetica,sans-Serif" font-size="10.00">Location</text>
</a>
</g>
</g>
<!-- Node2 -->
<g id="Node000002" class="node">
<title>Node2</title>
<g id="a_Node000002"><a xlink:href="../../dc/dde/classFCarlaActor.html#a4d2752987e47827efd488b90053ad415" target="_top" xlink:title=" ">
<polygon fill="white" stroke="#666666" points="299,-158 186.25,-158 186.25,-138 299,-138 299,-158"/>
<text text-anchor="middle" x="242.62" y="-144.5" font-family="Helvetica,sans-Serif" font-size="10.00">FCarlaActor::GetActor</text>
</a>
</g>
</g>
<!-- Node1&#45;&gt;Node2 -->
<g id="edge1_Node000001_Node000002" class="edge">
<title>Node1&#45;&gt;Node2</title>
<g id="a_edge1_Node000001_Node000002"><a xlink:title=" ">
<path fill="none" stroke="#63b8ff" d="M100.86,-98.44C120.8,-108.18 147.11,-120.28 171.25,-129 176.68,-130.96 182.41,-132.83 188.16,-134.57"/>
<polygon fill="#63b8ff" stroke="#63b8ff" points="186.89,-138.14 197.47,-137.56 188.85,-131.41 186.89,-138.14"/>
</a>
</g>
</g>
<!-- Node3 -->
<g id="Node000003" class="node">
<title>Node3</title>
<g id="a_Node000003"><a xlink:href="../../d7/d1e/classUCarlaStatics.html#a8137f56360aa59de44591fce99608dc4" target="_top" xlink:title=" ">
<polygon fill="white" stroke="#666666" points="312.88,-120 172.38,-120 172.38,-88 312.88,-88 312.88,-120"/>
<text text-anchor="start" x="180.38" y="-106.5" font-family="Helvetica,sans-Serif" font-size="10.00">UCarlaStatics::GetLargeMap</text>
<text text-anchor="middle" x="242.62" y="-94.5" font-family="Helvetica,sans-Serif" font-size="10.00">Manager</text>
</a>
</g>
</g>
<!-- Node1&#45;&gt;Node3 -->
<g id="edge2_Node000001_Node000003" class="edge">
<title>Node1&#45;&gt;Node3</title>
<g id="a_edge2_Node000001_Node000003"><a xlink:title=" ">
<path fill="none" stroke="#63b8ff" d="M135.51,-90.51C143.94,-91.58 152.62,-92.68 161.23,-93.78"/>
<polygon fill="#63b8ff" stroke="#63b8ff" points="160.69,-97.36 171.06,-95.15 161.58,-90.42 160.69,-97.36"/>
</a>
</g>
</g>
<!-- Node6 -->
<g id="Node000006" class="node">
<title>Node6</title>
<g id="a_Node000006"><a xlink:href="../../dc/dde/classFCarlaActor.html#a49f76353c69e02542858ed2cf6eeb000" target="_top" xlink:title=" ">
<polygon fill="white" stroke="#666666" points="301.62,-70 183.62,-70 183.62,-50 301.62,-50 301.62,-70"/>
<text text-anchor="middle" x="242.62" y="-56.5" font-family="Helvetica,sans-Serif" font-size="10.00">FCarlaActor::IsDormant</text>
</a>
</g>
</g>
<!-- Node1&#45;&gt;Node6 -->
<g id="edge5_Node000001_Node000006" class="edge">
<title>Node1&#45;&gt;Node6</title>
<g id="a_edge5_Node000001_Node000006"><a xlink:title=" ">
<path fill="none" stroke="#63b8ff" d="M135.51,-73.49C147.72,-71.94 160.48,-70.32 172.74,-68.76"/>
<polygon fill="#63b8ff" stroke="#63b8ff" points="172.89,-72.14 182.37,-67.41 172,-65.2 172.89,-72.14"/>
</a>
</g>
</g>
<!-- Node7 -->
<g id="Node000007" class="node">
<title>Node7</title>
<g id="a_Node000007"><a xlink:href="../../d9/d4b/classALargeMapManager.html#adc28142d65c3bdb83f5a6a6db9deee81" target="_top" xlink:title=" ">
<polygon fill="white" stroke="#666666" points="314,-32 171.25,-32 171.25,0 314,0 314,-32"/>
<text text-anchor="start" x="179.25" y="-18.5" font-family="Helvetica,sans-Serif" font-size="10.00">ALargeMapManager::LocalTo</text>
<text text-anchor="middle" x="242.62" y="-6.5" font-family="Helvetica,sans-Serif" font-size="10.00">GlobalLocation</text>
</a>
</g>
</g>
<!-- Node1&#45;&gt;Node7 -->
<g id="edge6_Node000001_Node000007" class="edge">
<title>Node1&#45;&gt;Node7</title>
<g id="a_edge6_Node000001_Node000007"><a xlink:title=" ">
<path fill="none" stroke="#63b8ff" d="M108.45,-65.67C127.4,-58.01 150.43,-48.85 171.25,-41 175.48,-39.4 179.87,-37.78 184.28,-36.16"/>
<polygon fill="#63b8ff" stroke="#63b8ff" points="185.38,-39.12 193.59,-32.42 183,-32.54 185.38,-39.12"/>
</a>
</g>
</g>
<!-- Node4 -->
<g id="Node000004" class="node">
<title>Node4</title>
<g id="a_Node000004"><a xlink:href="../../d7/d1e/classUCarlaStatics.html#acf94832c60579b6d161b66447719efbc" target="_top" xlink:title=" ">
<polygon fill="white" stroke="#666666" points="498,-136 350,-136 350,-116 498,-116 498,-136"/>
<text text-anchor="middle" x="424" y="-122.5" font-family="Helvetica,sans-Serif" font-size="10.00">UCarlaStatics::GetGameMode</text>
</a>
</g>
</g>
<!-- Node3&#45;&gt;Node4 -->
<g id="edge3_Node000003_Node000004" class="edge">
<title>Node3&#45;&gt;Node4</title>
<g id="a_edge3_Node000003_Node000004"><a xlink:title=" ">
<path fill="none" stroke="#63b8ff" d="M313.23,-112.54C321.61,-113.56 330.24,-114.62 338.79,-115.67"/>
<polygon fill="#63b8ff" stroke="#63b8ff" points="338.22,-119.25 348.57,-116.99 339.08,-112.3 338.22,-119.25"/>
</a>
</g>
</g>
<!-- Node5 -->
<g id="Node000005" class="node">
<title>Node5</title>
<g id="a_Node000005"><a xlink:href="../../db/de5/classACarlaGameModeBase.html#a6a66e9a979a5dfbdb292f8eb3f89149c" target="_top" xlink:title=" ">
<polygon fill="white" stroke="#666666" points="483,-98 365,-98 365,-66 483,-66 483,-98"/>
<text text-anchor="start" x="373" y="-84.5" font-family="Helvetica,sans-Serif" font-size="10.00">ACarlaGameModeBase</text>
<text text-anchor="middle" x="424" y="-72.5" font-family="Helvetica,sans-Serif" font-size="10.00">::GetLMManager</text>
</a>
</g>
</g>
<!-- Node3&#45;&gt;Node5 -->
<g id="edge4_Node000003_Node000005" class="edge">
<title>Node3&#45;&gt;Node5</title>
<g id="a_edge4_Node000003_Node000005"><a xlink:title=" ">
<path fill="none" stroke="#63b8ff" d="M313.23,-95.46C326.68,-93.81 340.75,-92.09 354.17,-90.44"/>
<polygon fill="#63b8ff" stroke="#63b8ff" points="354.27,-93.83 363.77,-89.14 353.41,-86.89 354.27,-93.83"/>
</a>
</g>
</g>
<!-- Node8 -->
<g id="Node000008" class="node">
<title>Node8</title>
<g id="a_Node000008"><a xlink:href="../../de/d7a/structFDVector.html#afcef01413fad4ebae06ee468bee88a9c" target="_top" xlink:title=" ">
<polygon fill="white" stroke="#666666" points="478.12,-26 369.88,-26 369.88,-6 478.12,-6 478.12,-26"/>
<text text-anchor="middle" x="424" y="-12.5" font-family="Helvetica,sans-Serif" font-size="10.00">FDVector::ToFVector</text>
</a>
</g>
</g>
<!-- Node7&#45;&gt;Node8 -->
<g id="edge7_Node000007_Node000008" class="edge">
<title>Node7&#45;&gt;Node8</title>
<g id="a_edge7_Node000007_Node000008"><a xlink:title=" ">
<path fill="none" stroke="#63b8ff" d="M314.26,-16C328.95,-16 344.35,-16 358.79,-16"/>
<polygon fill="#63b8ff" stroke="#63b8ff" points="358.62,-19.5 368.62,-16 358.62,-12.5 358.62,-19.5"/>
</a>
</g>
</g>
</g>
</svg>
