<?xml version="1.0" encoding="UTF-8" standalone="no"?>
<!DOCTYPE svg PUBLIC "-//W3C//DTD SVG 1.1//EN"
 "http://www.w3.org/Graphics/SVG/1.1/DTD/svg11.dtd">
<!-- Generated by graphviz version 8.1.0 (20230707.0739)
 -->
<!-- Title: FCarlaActor::GetTrafficLightState Pages: 1 -->
<svg width="496pt" height="91pt"
 viewBox="0.00 0.00 495.50 91.00" xmlns="http://www.w3.org/2000/svg" xmlns:xlink="http://www.w3.org/1999/xlink">
<g id="graph0" class="graph" transform="scale(1 1) rotate(0) translate(4 87)">
<title>FCarlaActor::GetTrafficLightState</title>
<!-- Node1 -->
<g id="Node000001" class="node">
<title>Node1</title>
<g id="a_Node000001"><a xlink:title=" ">
<polygon fill="#999999" stroke="#666666" points="487.5,-57 351.5,-57 351.5,-25 487.5,-25 487.5,-57"/>
<text text-anchor="start" x="359.5" y="-43.5" font-family="Helvetica,sans-Serif" font-size="10.00">FCarlaActor::GetTrafficLight</text>
<text text-anchor="middle" x="419.5" y="-31.5" font-family="Helvetica,sans-Serif" font-size="10.00">State</text>
</a>
</g>
</g>
<!-- Node2 -->
<g id="Node000002" class="node">
<title>Node2</title>
<g id="a_Node000002"><a xlink:href="../../de/db4/classFFrameData.html#af1cb1a1751af8708255aeecfa9918045" target="_top" xlink:title=" ">
<polygon fill="white" stroke="#666666" points="315.5,-83 175.75,-83 175.75,-51 315.5,-51 315.5,-83"/>
<text text-anchor="start" x="183.75" y="-69.5" font-family="Helvetica,sans-Serif" font-size="10.00">FFrameData::AddTrafficLight</text>
<text text-anchor="middle" x="245.62" y="-57.5" font-family="Helvetica,sans-Serif" font-size="10.00">State</text>
</a>
</g>
</g>
<!-- Node1&#45;&gt;Node2 -->
<g id="edge1_Node000001_Node000002" class="edge">
<title>Node1&#45;&gt;Node2</title>
<g id="a_edge1_Node000001_Node000002"><a xlink:title=" ">
<path fill="none" stroke="#63b8ff" d="M340.38,-52.82C332.2,-54.05 323.92,-55.31 315.85,-56.53"/>
<polygon fill="#63b8ff" stroke="#63b8ff" points="340.7,-56.16 350.06,-51.2 339.65,-49.24 340.7,-56.16"/>
</a>
</g>
</g>
<!-- Node4 -->
<g id="Node000004" class="node">
<title>Node4</title>
<g id="a_Node000004"><a xlink:href="../../dd/db9/classACarlaRecorder.html#aaf01c02f79e7335c224dcab7f2c18bb1" target="_top" xlink:title=" ">
<polygon fill="white" stroke="#666666" points="312.12,-32 179.12,-32 179.12,0 312.12,0 312.12,-32"/>
<text text-anchor="start" x="187.12" y="-18.5" font-family="Helvetica,sans-Serif" font-size="10.00">ACarlaRecorder::AddTraffic</text>
<text text-anchor="middle" x="245.62" y="-6.5" font-family="Helvetica,sans-Serif" font-size="10.00">LightState</text>
</a>
</g>
</g>
<!-- Node1&#45;&gt;Node4 -->
<g id="edge3_Node000001_Node000004" class="edge">
<title>Node1&#45;&gt;Node4</title>
<g id="a_edge3_Node000001_Node000004"><a xlink:title=" ">
<path fill="none" stroke="#63b8ff" d="M340.24,-29.62C330.96,-28.27 321.55,-26.9 312.46,-25.58"/>
<polygon fill="#63b8ff" stroke="#63b8ff" points="339.66,-33.22 350.06,-31.19 340.67,-26.29 339.66,-33.22"/>
</a>
</g>
</g>
<!-- Node3 -->
<g id="Node000003" class="node">
<title>Node3</title>
<g id="a_Node000003"><a xlink:href="../../de/db4/classFFrameData.html#a13396099d7e1c32df563893f7d0b35be" target="_top" xlink:title=" ">
<polygon fill="white" stroke="#666666" points="139.75,-79 0,-79 0,-59 139.75,-59 139.75,-79"/>
<text text-anchor="middle" x="69.88" y="-65.5" font-family="Helvetica,sans-Serif" font-size="10.00">FFrameData::GetFrameData</text>
</a>
</g>
</g>
<!-- Node2&#45;&gt;Node3 -->
<g id="edge2_Node000002_Node000003" class="edge">
<title>Node2&#45;&gt;Node3</title>
<g id="a_edge2_Node000002_Node000003"><a xlink:title=" ">
<path fill="none" stroke="#63b8ff" d="M164.72,-67.92C156.49,-68.01 148.19,-68.11 140.09,-68.2"/>
<polygon fill="#63b8ff" stroke="#63b8ff" points="164.5,-71.41 174.46,-67.8 164.42,-64.41 164.5,-71.41"/>
</a>
</g>
</g>
<!-- Node5 -->
<g id="Node000005" class="node">
<title>Node5</title>
<g id="a_Node000005"><a xlink:href="../../dd/db9/classACarlaRecorder.html#a1074f19dfe5b16a9e10b24ef35b26abc" target="_top" xlink:title=" ">
<polygon fill="white" stroke="#666666" points="130.38,-23 9.38,-23 9.38,-3 130.38,-3 130.38,-23"/>
<text text-anchor="middle" x="69.88" y="-9.5" font-family="Helvetica,sans-Serif" font-size="10.00">ACarlaRecorder::Ticking</text>
</a>
</g>
</g>
<!-- Node4&#45;&gt;Node5 -->
<g id="edge4_Node000004_Node000005" class="edge">
<title>Node4&#45;&gt;Node5</title>
<g id="a_edge4_Node000004_Node000005"><a xlink:title=" ">
<path fill="none" stroke="#63b8ff" d="M168.03,-14.68C155.51,-14.46 142.69,-14.24 130.65,-14.03"/>
<polygon fill="#63b8ff" stroke="#63b8ff" points="167.88,-18.19 177.94,-14.87 168,-11.19 167.88,-18.19"/>
</a>
</g>
</g>
<!-- Node5&#45;&gt;Node5 -->
<g id="edge5_Node000005_Node000005" class="edge">
<title>Node5&#45;&gt;Node5</title>
<g id="a_edge5_Node000005_Node000005"><a xlink:title=" ">
<path fill="none" stroke="#63b8ff" d="M101.83,-33.43C98.66,-37.82 88.01,-41 69.88,-41 39.32,-41 30.02,-31.98 41.95,-23.34"/>
<polygon fill="#63b8ff" stroke="#63b8ff" points="104.76,-32.33 97.8,-24.34 98.26,-34.92 104.76,-32.33"/>
</a>
</g>
</g>
</g>
</svg>
