<?xml version="1.0" encoding="UTF-8" standalone="no"?>
<!DOCTYPE svg PUBLIC "-//W3C//DTD SVG 1.1//EN"
 "http://www.w3.org/Graphics/SVG/1.1/DTD/svg11.dtd">
<!-- Generated by graphviz version 8.1.0 (20230707.0739)
 -->
<!-- Title: FCarlaActor::GetBonesTransform Pages: 1 -->
<svg width="492pt" height="102pt"
 viewBox="0.00 0.00 491.75 102.00" xmlns="http://www.w3.org/2000/svg" xmlns:xlink="http://www.w3.org/1999/xlink">

<svg id="main" version="1.1" xmlns="http://www.w3.org/2000/svg" xmlns:xlink="http://www.w3.org/1999/xlink" xml:space="preserve" onload="init(evt)">
<style type="text/css"><![CDATA[
.node, .edge {opacity: 0.7;}
.node.selected, .edge.selected {opacity: 1;}
.edge:hover path { stroke: red; }
.edge:hover polygon { stroke: red; fill: red; }
]]></style>
<script type="application/ecmascript" xlink:href="../../svg.min.js"/>
<svg id="graph" class="graph">
<g id="graph0" class="graph" transform="scale(1 1) rotate(0) translate(4 98)">
<title>FCarlaActor::GetBonesTransform</title>
<!-- Node1 -->
<g id="Node000001" class="node">
<title>Node1</title>
<g id="a_Node000001"><a xlink:title=" ">
<polygon fill="#999999" stroke="#666666" points="483.75,-51 323.75,-51 323.75,-31 483.75,-31 483.75,-51"/>
<text text-anchor="middle" x="403.75" y="-37.5" font-family="Helvetica,sans-Serif" font-size="10.00">FCarlaActor::GetBonesTransform</text>
</a>
</g>
</g>
<!-- Node2 -->
<g id="Node000002" class="node">
<title>Node2</title>
<g id="a_Node000002"><a xlink:href="../../dd/db9/classACarlaRecorder.html#a46c58a35bd666e47104a6f5e40493690" target="_top" xlink:title=" ">
<polygon fill="white" stroke="#666666" points="287.75,-82 157,-82 157,-50 287.75,-50 287.75,-82"/>
<text text-anchor="start" x="165" y="-68.5" font-family="Helvetica,sans-Serif" font-size="10.00">ACarlaRecorder::AddActor</text>
<text text-anchor="middle" x="222.38" y="-56.5" font-family="Helvetica,sans-Serif" font-size="10.00">Bones</text>
</a>
</g>
</g>
<!-- Node1&#45;&gt;Node2 -->
<g id="edge1_Node000001_Node000002" class="edge">
<title>Node1&#45;&gt;Node2</title>
<g id="a_edge1_Node000001_Node000002"><a xlink:title=" ">
<path fill="none" stroke="#63b8ff" d="M316.69,-52.99C307.12,-54.33 297.48,-55.67 288.23,-56.96"/>
<polygon fill="#63b8ff" stroke="#63b8ff" points="317.04,-56.34 326.46,-51.49 316.07,-49.41 317.04,-56.34"/>
</a>
</g>
</g>
<!-- Node4 -->
<g id="Node000004" class="node">
<title>Node4</title>
<g id="a_Node000004"><a xlink:href="../../d7/d97/classFCarlaServer_1_1FPimpl.html#a675a6b572112a21e8bc011dddfd0de86" target="_top" xlink:title=" ">
<polygon fill="white" stroke="#666666" points="276.5,-32 168.25,-32 168.25,0 276.5,0 276.5,-32"/>
<text text-anchor="start" x="176.25" y="-18.5" font-family="Helvetica,sans-Serif" font-size="10.00">FCarlaServer::FPimpl</text>
<text text-anchor="middle" x="222.38" y="-6.5" font-family="Helvetica,sans-Serif" font-size="10.00">::BindActions</text>
</a>
</g>
</g>
<!-- Node1&#45;&gt;Node4 -->
<g id="edge4_Node000001_Node000004" class="edge">
<title>Node1&#45;&gt;Node4</title>
<g id="a_edge4_Node000001_Node000004"><a xlink:title=" ">
<path fill="none" stroke="#63b8ff" d="M316.65,-29C303.11,-27.11 289.47,-25.21 276.95,-23.47"/>
<polygon fill="#63b8ff" stroke="#63b8ff" points="316.07,-32.59 326.46,-30.51 317.04,-25.66 316.07,-32.59"/>
</a>
</g>
</g>
<!-- Node3 -->
<g id="Node000003" class="node">
<title>Node3</title>
<g id="a_Node000003"><a xlink:href="../../dd/db9/classACarlaRecorder.html#a1074f19dfe5b16a9e10b24ef35b26abc" target="_top" xlink:title=" ">
<polygon fill="white" stroke="#666666" points="121,-76 0,-76 0,-56 121,-56 121,-76"/>
<text text-anchor="middle" x="60.5" y="-62.5" font-family="Helvetica,sans-Serif" font-size="10.00">ACarlaRecorder::Ticking</text>
</a>
</g>
</g>
<!-- Node2&#45;&gt;Node3 -->
<g id="edge2_Node000002_Node000003" class="edge">
<title>Node2&#45;&gt;Node3</title>
<g id="a_edge2_Node000002_Node000003"><a xlink:title=" ">
<path fill="none" stroke="#63b8ff" d="M146.02,-66C137.76,-66 129.43,-66 121.39,-66"/>
<polygon fill="#63b8ff" stroke="#63b8ff" points="145.81,-69.5 155.81,-66 145.81,-62.5 145.81,-69.5"/>
</a>
</g>
</g>
<!-- Node3&#45;&gt;Node3 -->
<g id="edge3_Node000003_Node000003" class="edge">
<title>Node3&#45;&gt;Node3</title>
<g id="a_edge3_Node000003_Node000003"><a xlink:title=" ">
<path fill="none" stroke="#63b8ff" d="M89.69,-86.77C86.5,-90.98 76.77,-94 60.5,-94 32.36,-94 23.79,-84.98 34.78,-76.34"/>
<polygon fill="#63b8ff" stroke="#63b8ff" points="92.69,-85.73 86.22,-77.34 86.05,-87.93 92.69,-85.73"/>
</a>
</g>
</g>
<!-- Node5 -->
<g id="Node000005" class="node">
<title>Node5</title>
<g id="a_Node000005"><a xlink:href="../../d7/d97/classFCarlaServer_1_1FPimpl.html#ab9ff29fc81bd2f9a14677941c7f7b62d" target="_top" xlink:title=" ">
<polygon fill="white" stroke="#666666" points="114.62,-32 6.38,-32 6.38,0 114.62,0 114.62,-32"/>
<text text-anchor="start" x="14.38" y="-18.5" font-family="Helvetica,sans-Serif" font-size="10.00">FCarlaServer::FPimpl</text>
<text text-anchor="middle" x="60.5" y="-6.5" font-family="Helvetica,sans-Serif" font-size="10.00">::FPimpl</text>
</a>
</g>
</g>
<!-- Node4&#45;&gt;Node5 -->
<g id="edge5_Node000004_Node000005" class="edge">
<title>Node4&#45;&gt;Node5</title>
<g id="a_edge5_Node000004_Node000005"><a xlink:title=" ">
<path fill="none" stroke="#63b8ff" d="M157.54,-16C143.45,-16 128.67,-16 115.05,-16"/>
<polygon fill="#63b8ff" stroke="#63b8ff" points="157.14,-19.5 167.14,-16 157.14,-12.5 157.14,-19.5"/>
</a>
</g>
</g>
</g>
</svg>
</svg>

<style type='text/css'>
<![CDATA[
[data-mouse-over-selected='false'] { opacity: 0.7; }
[data-mouse-over-selected='true']  { opacity: 1.0; }
]]>
</style>
<script type="application/ecmascript"><![CDATA[
document.addEventListener('DOMContentLoaded', (event) => {
  highlightEdges();
  highlightAdjacentNodes();
});
]]></script>
</svg>
