<?xml version="1.0" encoding="UTF-8" standalone="no"?>
<!DOCTYPE svg PUBLIC "-//W3C//DTD SVG 1.1//EN"
 "http://www.w3.org/Graphics/SVG/1.1/DTD/svg11.dtd">
<!-- Generated by graphviz version 8.1.0 (20230707.0739)
 -->
<!-- Title: carla::streaming::Client::Subscribe Pages: 1 -->
<svg width="604pt" height="140pt"
 viewBox="0.00 0.00 603.75 140.00" xmlns="http://www.w3.org/2000/svg" xmlns:xlink="http://www.w3.org/1999/xlink">
<g id="graph0" class="graph" transform="scale(1 1) rotate(0) translate(4 136)">
<title>carla::streaming::Client::Subscribe</title>
<!-- Node1 -->
<g id="Node000001" class="node">
<title>Node1</title>
<g id="a_Node000001"><a xlink:title=" ">
<polygon fill="#999999" stroke="#666666" points="116.5,-107 0,-107 0,-75 116.5,-75 116.5,-107"/>
<text text-anchor="start" x="8" y="-93.5" font-family="Helvetica,sans-Serif" font-size="10.00">carla::streaming::Client</text>
<text text-anchor="middle" x="58.25" y="-81.5" font-family="Helvetica,sans-Serif" font-size="10.00">::Subscribe</text>
</a>
</g>
</g>
<!-- Node2 -->
<g id="Node000002" class="node">
<title>Node2</title>
<g id="a_Node000002"><a xlink:href="../../da/d72/classcarla_1_1ThreadPool.html#ae592d7d2cdf960a5d9d15f64c2c09605" target="_top" xlink:title="Return the underlying io_context.">
<polygon fill="white" stroke="#666666" points="261.5,-132 163.75,-132 163.75,-100 261.5,-100 261.5,-132"/>
<text text-anchor="start" x="171.75" y="-118.5" font-family="Helvetica,sans-Serif" font-size="10.00">carla::ThreadPool::</text>
<text text-anchor="middle" x="212.62" y="-106.5" font-family="Helvetica,sans-Serif" font-size="10.00">io_context</text>
</a>
</g>
</g>
<!-- Node1&#45;&gt;Node2 -->
<g id="edge1_Node000001_Node000002" class="edge">
<title>Node1&#45;&gt;Node2</title>
<g id="a_edge1_Node000001_Node000002"><a xlink:title=" ">
<path fill="none" stroke="#63b8ff" d="M116.86,-100.45C128.6,-102.38 140.97,-104.41 152.76,-106.34"/>
<polygon fill="#63b8ff" stroke="#63b8ff" points="151.95,-109.92 162.38,-108.09 153.08,-103.01 151.95,-109.92"/>
</a>
</g>
</g>
<!-- Node3 -->
<g id="Node000003" class="node">
<title>Node3</title>
<g id="a_Node000003"><a xlink:href="../../da/d83/classcarla_1_1streaming_1_1low__level_1_1Client.html#a35387075fbaf2d862fee9fce4ac511d6" target="_top" xlink:title=" ">
<polygon fill="white" stroke="#666666" points="272.75,-82 152.5,-82 152.5,-50 272.75,-50 272.75,-82"/>
<text text-anchor="start" x="160.5" y="-68.5" font-family="Helvetica,sans-Serif" font-size="10.00">carla::streaming::low</text>
<text text-anchor="middle" x="212.62" y="-56.5" font-family="Helvetica,sans-Serif" font-size="10.00">_level::Client::Subscribe</text>
</a>
</g>
</g>
<!-- Node1&#45;&gt;Node3 -->
<g id="edge2_Node000001_Node000003" class="edge">
<title>Node1&#45;&gt;Node3</title>
<g id="a_edge2_Node000001_Node000003"><a xlink:title=" ">
<path fill="none" stroke="#63b8ff" d="M116.86,-81.55C124.88,-80.23 133.21,-78.87 141.43,-77.52"/>
<polygon fill="#63b8ff" stroke="#63b8ff" points="141.86,-80.83 151.16,-75.76 140.73,-73.92 141.86,-80.83"/>
</a>
</g>
</g>
<!-- Node4 -->
<g id="Node000004" class="node">
<title>Node4</title>
<g id="a_Node000004"><a xlink:href="../../df/de1/classcarla_1_1streaming_1_1detail_1_1token__type.html#a2edd9e9111f8f91b47791baec38c5829" target="_top" xlink:title=" ">
<polygon fill="white" stroke="#666666" points="446.25,-132 308.75,-132 308.75,-100 446.25,-100 446.25,-132"/>
<text text-anchor="start" x="316.75" y="-118.5" font-family="Helvetica,sans-Serif" font-size="10.00">carla::streaming::detail</text>
<text text-anchor="middle" x="377.5" y="-106.5" font-family="Helvetica,sans-Serif" font-size="10.00">::token_type::get_stream_id</text>
</a>
</g>
</g>
<!-- Node3&#45;&gt;Node4 -->
<g id="edge3_Node000003_Node000004" class="edge">
<title>Node3&#45;&gt;Node4</title>
<g id="a_edge3_Node000003_Node000004"><a xlink:title=" ">
<path fill="none" stroke="#63b8ff" d="M266.96,-82.37C281.5,-86.84 297.42,-91.72 312.49,-96.35"/>
<polygon fill="#63b8ff" stroke="#63b8ff" points="311.18,-99.92 321.77,-99.51 313.24,-93.23 311.18,-99.92"/>
</a>
</g>
</g>
<!-- Node5 -->
<g id="Node000005" class="node">
<title>Node5</title>
<g id="a_Node000005"><a xlink:href="../../df/de1/classcarla_1_1streaming_1_1detail_1_1token__type.html#abd655bd85461de5374d712115e388ef9" target="_top" xlink:title=" ">
<polygon fill="white" stroke="#666666" points="443.25,-82 311.75,-82 311.75,-50 443.25,-50 443.25,-82"/>
<text text-anchor="start" x="319.75" y="-68.5" font-family="Helvetica,sans-Serif" font-size="10.00">carla::streaming::detail</text>
<text text-anchor="middle" x="377.5" y="-56.5" font-family="Helvetica,sans-Serif" font-size="10.00">::token_type::has_address</text>
</a>
</g>
</g>
<!-- Node3&#45;&gt;Node5 -->
<g id="edge4_Node000003_Node000005" class="edge">
<title>Node3&#45;&gt;Node5</title>
<g id="a_edge4_Node000003_Node000005"><a xlink:title=" ">
<path fill="none" stroke="#63b8ff" d="M272.89,-66C281.91,-66 291.32,-66 300.64,-66"/>
<polygon fill="#63b8ff" stroke="#63b8ff" points="300.5,-69.5 310.5,-66 300.5,-62.5 300.5,-69.5"/>
</a>
</g>
</g>
<!-- Node6 -->
<g id="Node000006" class="node">
<title>Node6</title>
<g id="a_Node000006"><a xlink:href="../../df/de1/classcarla_1_1streaming_1_1detail_1_1token__type.html#a79b20aa8051e9f2baa1ef9432fa7ed9e" target="_top" xlink:title=" ">
<polygon fill="white" stroke="#666666" points="442.12,-32 312.88,-32 312.88,0 442.12,0 442.12,-32"/>
<text text-anchor="start" x="320.88" y="-18.5" font-family="Helvetica,sans-Serif" font-size="10.00">carla::streaming::detail</text>
<text text-anchor="middle" x="377.5" y="-6.5" font-family="Helvetica,sans-Serif" font-size="10.00">::token_type::set_address</text>
</a>
</g>
</g>
<!-- Node3&#45;&gt;Node6 -->
<g id="edge5_Node000003_Node000006" class="edge">
<title>Node3&#45;&gt;Node6</title>
<g id="a_edge5_Node000003_Node000006"><a xlink:title=" ">
<path fill="none" stroke="#63b8ff" d="M266.96,-49.63C281.5,-45.16 297.42,-40.28 312.49,-35.65"/>
<polygon fill="#63b8ff" stroke="#63b8ff" points="313.24,-38.77 321.77,-32.49 311.18,-32.08 313.24,-38.77"/>
</a>
</g>
</g>
<!-- Node7 -->
<g id="Node000007" class="node">
<title>Node7</title>
<g id="a_Node000007"><a xlink:href="../../d9/d36/namespacecarla.html#a23602ab663165210a7757d6108f6b3cd" target="_top" xlink:title=" ">
<polygon fill="white" stroke="#666666" points="595.75,-26 482.25,-26 482.25,-6 595.75,-6 595.75,-26"/>
<text text-anchor="middle" x="539" y="-12.5" font-family="Helvetica,sans-Serif" font-size="10.00">carla::throw_exception</text>
</a>
</g>
</g>
<!-- Node6&#45;&gt;Node7 -->
<g id="edge6_Node000006_Node000007" class="edge">
<title>Node6&#45;&gt;Node7</title>
<g id="a_edge6_Node000006_Node000007"><a xlink:title=" ">
<path fill="none" stroke="#63b8ff" d="M442.46,-16C451.86,-16 461.57,-16 471.04,-16"/>
<polygon fill="#63b8ff" stroke="#63b8ff" points="471,-19.5 481,-16 471,-12.5 471,-19.5"/>
</a>
</g>
</g>
</g>
</svg>
