<?xml version="1.0" encoding="UTF-8" standalone="no"?>
<!DOCTYPE svg PUBLIC "-//W3C//DTD SVG 1.1//EN"
 "http://www.w3.org/Graphics/SVG/1.1/DTD/svg11.dtd">
<!-- Generated by graphviz version 8.1.0 (20230707.0739)
 -->
<!-- Title: carla::log_info Pages: 1 -->
<svg width="648pt" height="1084pt"
 viewBox="0.00 0.00 648.00 1084.00" xmlns="http://www.w3.org/2000/svg" xmlns:xlink="http://www.w3.org/1999/xlink">
<g id="graph0" class="graph" transform="scale(1 1) rotate(0) translate(4 1080)">
<title>carla::log_info</title>
<!-- Node1 -->
<g id="Node000001" class="node">
<title>Node1</title>
<g id="a_Node000001"><a xlink:title=" ">
<polygon fill="#999999" stroke="#666666" points="640,-539 564,-539 564,-519 640,-519 640,-539"/>
<text text-anchor="middle" x="602" y="-525.5" font-family="Helvetica,sans-Serif" font-size="10.00">carla::log_info</text>
</a>
</g>
</g>
<!-- Node2 -->
<g id="Node000002" class="node">
<title>Node2</title>
<g id="a_Node000002"><a xlink:href="../../d6/d60/classcarla_1_1multigpu_1_1Router.html#aa0fd7216872662e44e32d70526c66908" target="_top" xlink:title=" ">
<polygon fill="white" stroke="#666666" points="497.62,-1076 383.38,-1076 383.38,-1044 497.62,-1044 497.62,-1076"/>
<text text-anchor="start" x="391.38" y="-1062.5" font-family="Helvetica,sans-Serif" font-size="10.00">carla::multigpu::Router</text>
<text text-anchor="middle" x="440.5" y="-1050.5" font-family="Helvetica,sans-Serif" font-size="10.00">::ClearSessions</text>
</a>
</g>
</g>
<!-- Node1&#45;&gt;Node2 -->
<g id="edge1_Node000001_Node000002" class="edge">
<title>Node1&#45;&gt;Node2</title>
<g id="a_edge1_Node000001_Node000002"><a xlink:title=" ">
<path fill="none" stroke="#63b8ff" d="M600.9,-550.23C600.04,-636.65 592.5,-960.91 528,-1035 520.2,-1043.96 509.41,-1049.8 498.09,-1053.59"/>
<polygon fill="#63b8ff" stroke="#63b8ff" points="604.4,-550.49 600.98,-540.46 597.4,-550.43 604.4,-550.49"/>
</a>
</g>
</g>
<!-- Node5 -->
<g id="Node000005" class="node">
<title>Node5</title>
<g id="a_Node000005"><a xlink:href="../../d6/d8b/classcarla_1_1multigpu_1_1Secondary.html#a0d50ddf536f103617eba56153afad463" target="_top" xlink:title=" ">
<polygon fill="white" stroke="#666666" points="506.62,-1026 374.38,-1026 374.38,-994 506.62,-994 506.62,-1026"/>
<text text-anchor="start" x="382.38" y="-1012.5" font-family="Helvetica,sans-Serif" font-size="10.00">carla::multigpu::Secondary</text>
<text text-anchor="middle" x="440.5" y="-1000.5" font-family="Helvetica,sans-Serif" font-size="10.00">::Connect</text>
</a>
</g>
</g>
<!-- Node1&#45;&gt;Node5 -->
<g id="edge4_Node000001_Node000005" class="edge">
<title>Node1&#45;&gt;Node5</title>
<g id="a_edge4_Node000001_Node000005"><a xlink:title=" ">
<path fill="none" stroke="#63b8ff" d="M600.53,-549.9C598.31,-630.39 586.35,-919.02 528,-985 522.2,-991.56 514.8,-996.44 506.77,-1000.07"/>
<polygon fill="#63b8ff" stroke="#63b8ff" points="604.05,-550.3 600.8,-540.21 597.05,-550.12 604.05,-550.3"/>
</a>
</g>
</g>
<!-- Node6 -->
<g id="Node000006" class="node">
<title>Node6</title>
<g id="a_Node000006"><a xlink:href="../../dc/d96/classcarla_1_1streaming_1_1detail_1_1tcp_1_1Client.html#aff760041c9642a988880c1ff39739fe2" target="_top" xlink:title=" ">
<polygon fill="white" stroke="#666666" points="498,-958 383,-958 383,-926 498,-926 498,-958"/>
<text text-anchor="start" x="391" y="-944.5" font-family="Helvetica,sans-Serif" font-size="10.00">carla::streaming::detail</text>
<text text-anchor="middle" x="440.5" y="-932.5" font-family="Helvetica,sans-Serif" font-size="10.00">::tcp::Client::Connect</text>
</a>
</g>
</g>
<!-- Node1&#45;&gt;Node6 -->
<g id="edge5_Node000001_Node000006" class="edge">
<title>Node1&#45;&gt;Node6</title>
<g id="a_edge5_Node000001_Node000006"><a xlink:title=" ">
<path fill="none" stroke="#63b8ff" d="M599.86,-550.44C595.53,-623.65 577.79,-862.22 528,-917 520.11,-925.68 509.43,-931.41 498.25,-935.19"/>
<polygon fill="#63b8ff" stroke="#63b8ff" points="603.41,-550.65 600.48,-540.46 596.42,-550.25 603.41,-550.65"/>
</a>
</g>
</g>
<!-- Node9 -->
<g id="Node000009" class="node">
<title>Node9</title>
<g id="a_Node000009"><a xlink:href="../../d6/d60/classcarla_1_1multigpu_1_1Router.html#a611a8c8e1d7ca50b638f34cf7ffedd87" target="_top" xlink:title=" ">
<polygon fill="white" stroke="#666666" points="497.62,-908 383.38,-908 383.38,-876 497.62,-876 497.62,-908"/>
<text text-anchor="start" x="391.38" y="-894.5" font-family="Helvetica,sans-Serif" font-size="10.00">carla::multigpu::Router</text>
<text text-anchor="middle" x="440.5" y="-882.5" font-family="Helvetica,sans-Serif" font-size="10.00">::ConnectSession</text>
</a>
</g>
</g>
<!-- Node1&#45;&gt;Node9 -->
<g id="edge12_Node000001_Node000009" class="edge">
<title>Node1&#45;&gt;Node9</title>
<g id="a_edge12_Node000001_Node000009"><a xlink:title=" ">
<path fill="none" stroke="#63b8ff" d="M599.23,-550.23C593.24,-616.88 571.68,-820.22 528,-867 520,-875.57 509.26,-881.26 498.08,-885.03"/>
<polygon fill="#63b8ff" stroke="#63b8ff" points="602.78,-550.72 600.16,-540.45 595.81,-550.11 602.78,-550.72"/>
</a>
</g>
</g>
<!-- Node10 -->
<g id="Node000010" class="node">
<title>Node10</title>
<g id="a_Node000010"><a xlink:href="../../d6/d60/classcarla_1_1multigpu_1_1Router.html#a9ded04c0b90328645e0ca4e0d545150a" target="_top" xlink:title=" ">
<polygon fill="white" stroke="#666666" points="497.62,-858 383.38,-858 383.38,-826 497.62,-826 497.62,-858"/>
<text text-anchor="start" x="391.38" y="-844.5" font-family="Helvetica,sans-Serif" font-size="10.00">carla::multigpu::Router</text>
<text text-anchor="middle" x="440.5" y="-832.5" font-family="Helvetica,sans-Serif" font-size="10.00">::DisconnectSession</text>
</a>
</g>
</g>
<!-- Node1&#45;&gt;Node10 -->
<g id="edge13_Node000001_Node000010" class="edge">
<title>Node1&#45;&gt;Node10</title>
<g id="a_edge13_Node000001_Node000010"><a xlink:title=" ">
<path fill="none" stroke="#63b8ff" d="M598.37,-550.16C590.55,-609.92 565.58,-778.16 528,-817 519.85,-825.43 509.05,-831.06 497.85,-834.82"/>
<polygon fill="#63b8ff" stroke="#63b8ff" points="601.95,-550.79 599.75,-540.43 595.01,-549.9 601.95,-550.79"/>
</a>
</g>
</g>
<!-- Node11 -->
<g id="Node000011" class="node">
<title>Node11</title>
<g id="a_Node000011"><a xlink:href="../../d8/d78/classcarla_1_1ros2_1_1ROS2.html#a4376b53fbc0a84c70753f2321c5e291b" target="_top" xlink:title=" ">
<polygon fill="white" stroke="#666666" points="490.5,-808 390.5,-808 390.5,-776 490.5,-776 490.5,-808"/>
<text text-anchor="start" x="398.5" y="-794.5" font-family="Helvetica,sans-Serif" font-size="10.00">carla::ros2::ROS2::</text>
<text text-anchor="middle" x="440.5" y="-782.5" font-family="Helvetica,sans-Serif" font-size="10.00">Enable</text>
</a>
</g>
</g>
<!-- Node1&#45;&gt;Node11 -->
<g id="edge14_Node000001_Node000011" class="edge">
<title>Node1&#45;&gt;Node11</title>
<g id="a_edge14_Node000001_Node000011"><a xlink:title=" ">
<path fill="none" stroke="#63b8ff" d="M600.88,-550.03C599.43,-596.1 589.37,-706.62 528,-767 517.97,-776.87 504.3,-782.89 490.79,-786.54"/>
<polygon fill="#63b8ff" stroke="#63b8ff" points="604.39,-550.38 601.09,-540.31 597.39,-550.24 604.39,-550.38"/>
</a>
</g>
</g>
<!-- Node12 -->
<g id="Node000012" class="node">
<title>Node12</title>
<g id="a_Node000012"><a xlink:href="../../dd/ddd/classcarla_1_1client_1_1detail_1_1Client.html#a4c3ea2db0c121bc3a6a8c616f90c941a" target="_top" xlink:title=" ">
<polygon fill="white" stroke="#666666" points="504.38,-758 376.62,-758 376.62,-726 504.38,-726 504.38,-758"/>
<text text-anchor="start" x="384.62" y="-744.5" font-family="Helvetica,sans-Serif" font-size="10.00">carla::client::detail</text>
<text text-anchor="middle" x="440.5" y="-732.5" font-family="Helvetica,sans-Serif" font-size="10.00">::Client::GetRequiredFiles</text>
</a>
</g>
</g>
<!-- Node1&#45;&gt;Node12 -->
<g id="edge15_Node000001_Node000012" class="edge">
<title>Node1&#45;&gt;Node12</title>
<g id="a_edge15_Node000001_Node000012"><a xlink:title=" ">
<path fill="none" stroke="#63b8ff" d="M598.87,-550.04C593.82,-588.81 577.53,-671.7 528,-717 521.31,-723.12 513.21,-727.75 504.69,-731.25"/>
<polygon fill="#63b8ff" stroke="#63b8ff" points="602.44,-550.65 600.13,-540.31 595.49,-549.84 602.44,-550.65"/>
</a>
</g>
</g>
<!-- Node15 -->
<g id="Node000015" class="node">
<title>Node15</title>
<g id="a_Node000015"><a xlink:href="../../dc/d49/classFCarlaEngine.html#ab8d13063cde985781237dd7da308227e" target="_top" xlink:title=" ">
<polygon fill="white" stroke="#666666" points="512.62,-708 368.38,-708 368.38,-688 512.62,-688 512.62,-708"/>
<text text-anchor="middle" x="440.5" y="-694.5" font-family="Helvetica,sans-Serif" font-size="10.00">FCarlaEngine::NotifyInitGame</text>
</a>
</g>
</g>
<!-- Node1&#45;&gt;Node15 -->
<g id="edge18_Node000001_Node000015" class="edge">
<title>Node1&#45;&gt;Node15</title>
<g id="a_edge18_Node000001_Node000015"><a xlink:title=" ">
<path fill="none" stroke="#63b8ff" d="M596.9,-549.91C589.34,-582.72 569.95,-645.97 528,-679 523.41,-682.61 518.28,-685.57 512.86,-688"/>
<polygon fill="#63b8ff" stroke="#63b8ff" points="600.5,-550.82 599.18,-540.31 593.66,-549.35 600.5,-550.82"/>
</a>
</g>
</g>
<!-- Node16 -->
<g id="Node000016" class="node">
<title>Node16</title>
<g id="a_Node000016"><a xlink:href="../../d8/d78/classcarla_1_1ros2_1_1ROS2.html#a65b744ef6c2917ad7771f935760069bd" target="_top" xlink:title=" ">
<polygon fill="white" stroke="#666666" points="504.75,-670 376.25,-670 376.25,-638 504.75,-638 504.75,-670"/>
<text text-anchor="start" x="384.25" y="-656.5" font-family="Helvetica,sans-Serif" font-size="10.00">carla::ros2::ROS2::</text>
<text text-anchor="middle" x="440.5" y="-644.5" font-family="Helvetica,sans-Serif" font-size="10.00">ProcessDataFromCamera</text>
</a>
</g>
</g>
<!-- Node1&#45;&gt;Node16 -->
<g id="edge19_Node000001_Node000016" class="edge">
<title>Node1&#45;&gt;Node16</title>
<g id="a_edge19_Node000001_Node000016"><a xlink:title=" ">
<path fill="none" stroke="#63b8ff" d="M591.61,-548.85C579.87,-571.55 557.64,-608.25 528,-629 521.08,-633.84 513.24,-637.75 505.16,-640.91"/>
<polygon fill="#63b8ff" stroke="#63b8ff" points="595.07,-550.75 596.39,-540.23 588.8,-547.63 595.07,-550.75"/>
</a>
</g>
</g>
<!-- Node17 -->
<g id="Node000017" class="node">
<title>Node17</title>
<g id="a_Node000017"><a xlink:href="../../d8/d78/classcarla_1_1ros2_1_1ROS2.html#a082a83da0498dec9156b45f181198d4c" target="_top" xlink:title=" ">
<polygon fill="white" stroke="#666666" points="498,-620 383,-620 383,-588 498,-588 498,-620"/>
<text text-anchor="start" x="391" y="-606.5" font-family="Helvetica,sans-Serif" font-size="10.00">carla::ros2::ROS2::</text>
<text text-anchor="middle" x="440.5" y="-594.5" font-family="Helvetica,sans-Serif" font-size="10.00">ProcessDataFromDVS</text>
</a>
</g>
</g>
<!-- Node1&#45;&gt;Node17 -->
<g id="edge20_Node000001_Node000017" class="edge">
<title>Node1&#45;&gt;Node17</title>
<g id="a_edge20_Node000001_Node000017"><a xlink:title=" ">
<path fill="none" stroke="#63b8ff" d="M580.17,-545.94C566.13,-556.66 546.8,-570.13 528,-579 518.67,-583.4 508.4,-587.2 498.3,-590.4"/>
<polygon fill="#63b8ff" stroke="#63b8ff" points="581.85,-548.28 587.57,-539.36 577.54,-542.77 581.85,-548.28"/>
</a>
</g>
</g>
<!-- Node18 -->
<g id="Node000018" class="node">
<title>Node18</title>
<g id="a_Node000018"><a xlink:href="../../d8/d78/classcarla_1_1ros2_1_1ROS2.html#affc3c9ee1f07f805932da693474328d4" target="_top" xlink:title=" ">
<polygon fill="white" stroke="#666666" points="501.75,-570 379.25,-570 379.25,-538 501.75,-538 501.75,-570"/>
<text text-anchor="start" x="387.25" y="-556.5" font-family="Helvetica,sans-Serif" font-size="10.00">carla::ros2::ROS2::</text>
<text text-anchor="middle" x="440.5" y="-544.5" font-family="Helvetica,sans-Serif" font-size="10.00">ProcessDataFromGNSS</text>
</a>
</g>
</g>
<!-- Node1&#45;&gt;Node18 -->
<g id="edge21_Node000001_Node000018" class="edge">
<title>Node1&#45;&gt;Node18</title>
<g id="a_edge21_Node000001_Node000018"><a xlink:title=" ">
<path fill="none" stroke="#63b8ff" d="M552.89,-536.54C536.9,-539.05 518.88,-541.87 502.06,-544.51"/>
<polygon fill="#63b8ff" stroke="#63b8ff" points="553.27,-539.87 562.6,-534.86 552.18,-532.95 553.27,-539.87"/>
</a>
</g>
</g>
<!-- Node19 -->
<g id="Node000019" class="node">
<title>Node19</title>
<g id="a_Node000019"><a xlink:href="../../d8/d78/classcarla_1_1ros2_1_1ROS2.html#a4c221c73acdd3e989e7f71dc4fa234f6" target="_top" xlink:title=" ">
<polygon fill="white" stroke="#666666" points="496.5,-520 384.5,-520 384.5,-488 496.5,-488 496.5,-520"/>
<text text-anchor="start" x="392.5" y="-506.5" font-family="Helvetica,sans-Serif" font-size="10.00">carla::ros2::ROS2::</text>
<text text-anchor="middle" x="440.5" y="-494.5" font-family="Helvetica,sans-Serif" font-size="10.00">ProcessDataFromIMU</text>
</a>
</g>
</g>
<!-- Node1&#45;&gt;Node19 -->
<g id="edge22_Node000001_Node000019" class="edge">
<title>Node1&#45;&gt;Node19</title>
<g id="a_edge22_Node000001_Node000019"><a xlink:title=" ">
<path fill="none" stroke="#63b8ff" d="M552.95,-521.47C535.26,-518.7 515.08,-515.53 496.8,-512.67"/>
<polygon fill="#63b8ff" stroke="#63b8ff" points="552.18,-525.05 562.6,-523.14 553.27,-518.13 552.18,-525.05"/>
</a>
</g>
</g>
<!-- Node20 -->
<g id="Node000020" class="node">
<title>Node20</title>
<g id="a_Node000020"><a xlink:href="../../d8/d78/classcarla_1_1ros2_1_1ROS2.html#ad267137e608b6e972c2e83414d27a8c6" target="_top" xlink:title=" ">
<polygon fill="white" stroke="#666666" points="498.38,-470 382.62,-470 382.62,-438 498.38,-438 498.38,-470"/>
<text text-anchor="start" x="390.62" y="-456.5" font-family="Helvetica,sans-Serif" font-size="10.00">carla::ros2::ROS2::</text>
<text text-anchor="middle" x="440.5" y="-444.5" font-family="Helvetica,sans-Serif" font-size="10.00">ProcessDataFromLidar</text>
</a>
</g>
</g>
<!-- Node1&#45;&gt;Node20 -->
<g id="edge23_Node000001_Node000020" class="edge">
<title>Node1&#45;&gt;Node20</title>
<g id="a_edge23_Node000001_Node000020"><a xlink:title=" ">
<path fill="none" stroke="#63b8ff" d="M580.17,-512.06C566.13,-501.34 546.8,-487.87 528,-479 518.81,-474.66 508.71,-470.92 498.76,-467.74"/>
<polygon fill="#63b8ff" stroke="#63b8ff" points="577.54,-515.23 587.57,-518.64 581.85,-509.72 577.54,-515.23"/>
</a>
</g>
</g>
<!-- Node21 -->
<g id="Node000021" class="node">
<title>Node21</title>
<g id="a_Node000021"><a xlink:href="../../d8/d78/classcarla_1_1ros2_1_1ROS2.html#a57ce22be2b0d4f884ffe21486ea224ce" target="_top" xlink:title=" ">
<polygon fill="white" stroke="#666666" points="528,-420 353,-420 353,-388 528,-388 528,-420"/>
<text text-anchor="start" x="361" y="-406.5" font-family="Helvetica,sans-Serif" font-size="10.00">carla::ros2::ROS2::</text>
<text text-anchor="middle" x="440.5" y="-394.5" font-family="Helvetica,sans-Serif" font-size="10.00">ProcessDataFromObstacleDetection</text>
</a>
</g>
</g>
<!-- Node1&#45;&gt;Node21 -->
<g id="edge24_Node000001_Node000021" class="edge">
<title>Node1&#45;&gt;Node21</title>
<g id="a_edge24_Node000001_Node000021"><a xlink:title=" ">
<path fill="none" stroke="#63b8ff" d="M591.61,-509.15C579.87,-486.45 557.64,-449.75 528,-429 523.26,-425.68 518.09,-422.8 512.7,-420.3"/>
<polygon fill="#63b8ff" stroke="#63b8ff" points="588.8,-510.37 596.39,-517.77 595.07,-507.25 588.8,-510.37"/>
</a>
</g>
</g>
<!-- Node22 -->
<g id="Node000022" class="node">
<title>Node22</title>
<g id="a_Node000022"><a xlink:href="../../d8/d78/classcarla_1_1ros2_1_1ROS2.html#a07e118e2c48d7641dbd2f695f9f2afb5" target="_top" xlink:title=" ">
<polygon fill="white" stroke="#666666" points="500.62,-370 380.38,-370 380.38,-338 500.62,-338 500.62,-370"/>
<text text-anchor="start" x="388.38" y="-356.5" font-family="Helvetica,sans-Serif" font-size="10.00">carla::ros2::ROS2::</text>
<text text-anchor="middle" x="440.5" y="-344.5" font-family="Helvetica,sans-Serif" font-size="10.00">ProcessDataFromRadar</text>
</a>
</g>
</g>
<!-- Node1&#45;&gt;Node22 -->
<g id="edge25_Node000001_Node000022" class="edge">
<title>Node1&#45;&gt;Node22</title>
<g id="a_edge25_Node000001_Node000022"><a xlink:title=" ">
<path fill="none" stroke="#63b8ff" d="M596.65,-508.41C588.72,-476.04 568.85,-413.38 528,-379 520.23,-372.46 510.82,-367.63 501.12,-364.06"/>
<polygon fill="#63b8ff" stroke="#63b8ff" points="593.4,-508.9 599.04,-517.86 600.22,-507.33 593.4,-508.9"/>
</a>
</g>
</g>
<!-- Node23 -->
<g id="Node000023" class="node">
<title>Node23</title>
<g id="a_Node000023"><a xlink:href="../../d8/d78/classcarla_1_1ros2_1_1ROS2.html#a7d968b8669b9dd95669805fd7398f229" target="_top" xlink:title=" ">
<polygon fill="white" stroke="#666666" points="519,-320 362,-320 362,-288 519,-288 519,-320"/>
<text text-anchor="start" x="370" y="-306.5" font-family="Helvetica,sans-Serif" font-size="10.00">carla::ros2::ROS2::</text>
<text text-anchor="middle" x="440.5" y="-294.5" font-family="Helvetica,sans-Serif" font-size="10.00">ProcessDataFromSemanticLidar</text>
</a>
</g>
</g>
<!-- Node1&#45;&gt;Node23 -->
<g id="edge26_Node000001_Node000023" class="edge">
<title>Node1&#45;&gt;Node23</title>
<g id="a_edge26_Node000001_Node000023"><a xlink:title=" ">
<path fill="none" stroke="#63b8ff" d="M599.42,-507.75C595.23,-467.05 580.27,-377.8 528,-329 524.46,-325.69 520.51,-322.82 516.29,-320.33"/>
<polygon fill="#63b8ff" stroke="#63b8ff" points="596,-507.87 600.38,-517.52 602.97,-507.24 596,-507.87"/>
</a>
</g>
</g>
<!-- Node24 -->
<g id="Node000024" class="node">
<title>Node24</title>
<g id="a_Node000024"><a xlink:href="../../da/da8/classcarla_1_1multigpu_1_1PrimaryCommands.html#ab4d09fd63dc935c297966a919eab7ba4" target="_top" xlink:title=" ">
<polygon fill="white" stroke="#666666" points="508.5,-270 372.5,-270 372.5,-238 508.5,-238 508.5,-270"/>
<text text-anchor="start" x="380.5" y="-256.5" font-family="Helvetica,sans-Serif" font-size="10.00">carla::multigpu::Primary</text>
<text text-anchor="middle" x="440.5" y="-244.5" font-family="Helvetica,sans-Serif" font-size="10.00">Commands::SendGetToken</text>
</a>
</g>
</g>
<!-- Node1&#45;&gt;Node24 -->
<g id="edge27_Node000001_Node000024" class="edge">
<title>Node1&#45;&gt;Node24</title>
<g id="a_edge27_Node000001_Node000024"><a xlink:title=" ">
<path fill="none" stroke="#63b8ff" d="M601.25,-507.9C600.62,-460.16 592.21,-343.03 528,-279 522.47,-273.48 515.79,-269.16 508.64,-265.79"/>
<polygon fill="#63b8ff" stroke="#63b8ff" points="597.75,-507.72 601.27,-517.71 604.75,-507.7 597.75,-507.72"/>
</a>
</g>
</g>
<!-- Node27 -->
<g id="Node000027" class="node">
<title>Node27</title>
<g id="a_Node000027"><a xlink:href="../../da/da8/classcarla_1_1multigpu_1_1PrimaryCommands.html#a2adfe341ddd9a820fa8d643ee4ed9ec5" target="_top" xlink:title=" ">
<polygon fill="white" stroke="#666666" points="501.38,-220 379.62,-220 379.62,-188 501.38,-188 501.38,-220"/>
<text text-anchor="start" x="387.62" y="-206.5" font-family="Helvetica,sans-Serif" font-size="10.00">carla::multigpu::Primary</text>
<text text-anchor="middle" x="440.5" y="-194.5" font-family="Helvetica,sans-Serif" font-size="10.00">Commands::SendIsAlive</text>
</a>
</g>
</g>
<!-- Node1&#45;&gt;Node27 -->
<g id="edge31_Node000001_Node000027" class="edge">
<title>Node1&#45;&gt;Node27</title>
<g id="a_edge31_Node000001_Node000027"><a xlink:title=" ">
<path fill="none" stroke="#63b8ff" d="M598.65,-508.18C591.33,-447.05 567.11,-269.82 528,-229 520.75,-221.44 511.38,-216.12 501.48,-212.39"/>
<polygon fill="#63b8ff" stroke="#63b8ff" points="595.25,-508.26 599.88,-517.78 602.2,-507.45 595.25,-508.26"/>
</a>
</g>
</g>
<!-- Node28 -->
<g id="Node000028" class="node">
<title>Node28</title>
<g id="a_Node000028"><a xlink:href="../../d6/d60/classcarla_1_1multigpu_1_1Router.html#a56b9ece52b9d81d075e9b4b4e5a786c8" target="_top" xlink:title=" ">
<polygon fill="white" stroke="#666666" points="497.62,-170 383.38,-170 383.38,-138 497.62,-138 497.62,-170"/>
<text text-anchor="start" x="391.38" y="-156.5" font-family="Helvetica,sans-Serif" font-size="10.00">carla::multigpu::Router</text>
<text text-anchor="middle" x="440.5" y="-144.5" font-family="Helvetica,sans-Serif" font-size="10.00">::SetCallbacks</text>
</a>
</g>
</g>
<!-- Node1&#45;&gt;Node28 -->
<g id="edge32_Node000001_Node000028" class="edge">
<title>Node1&#45;&gt;Node28</title>
<g id="a_edge32_Node000001_Node000028"><a xlink:title=" ">
<path fill="none" stroke="#63b8ff" d="M599.41,-507.9C593.85,-439.84 573.18,-227.74 528,-179 520.03,-170.4 509.31,-164.7 498.12,-160.93"/>
<polygon fill="#63b8ff" stroke="#63b8ff" points="595.97,-507.84 600.25,-517.53 602.95,-507.29 595.97,-507.84"/>
</a>
</g>
</g>
<!-- Node29 -->
<g id="Node000029" class="node">
<title>Node29</title>
<g id="a_Node000029"><a xlink:href="../../dc/db5/classFAsyncDataStreamTmpl.html#a5b048741118e01f60ea77fb063343a4b" target="_top" xlink:title="allow to change the frame number of the header">
<polygon fill="white" stroke="#666666" points="501.75,-120 379.25,-120 379.25,-88 501.75,-88 501.75,-120"/>
<text text-anchor="start" x="387.25" y="-106.5" font-family="Helvetica,sans-Serif" font-size="10.00">FAsyncDataStreamTmpl</text>
<text text-anchor="middle" x="440.5" y="-94.5" font-family="Helvetica,sans-Serif" font-size="10.00">::SetFrameNumber</text>
</a>
</g>
</g>
<!-- Node1&#45;&gt;Node29 -->
<g id="edge33_Node000001_Node000029" class="edge">
<title>Node1&#45;&gt;Node29</title>
<g id="a_edge33_Node000001_Node000029"><a xlink:title=" ">
<path fill="none" stroke="#63b8ff" d="M600.01,-507.86C596.09,-433.55 579.34,-185.8 528,-129 520.98,-121.23 511.7,-115.82 501.84,-112.05"/>
<polygon fill="#63b8ff" stroke="#63b8ff" points="596.55,-507.78 600.54,-517.59 603.54,-507.43 596.55,-507.78"/>
</a>
</g>
</g>
<!-- Node30 -->
<g id="Node000030" class="node">
<title>Node30</title>
<g id="a_Node000030"><a xlink:href="../../d5/d1a/test__image_8cpp.html#a3123b5f8ccefeb364a3411cebcb69b1a" target="_top" xlink:title=" ">
<polygon fill="white" stroke="#666666" points="460.5,-70 420.5,-70 420.5,-50 460.5,-50 460.5,-70"/>
<text text-anchor="middle" x="440.5" y="-56.5" font-family="Helvetica,sans-Serif" font-size="10.00">TEST</text>
</a>
</g>
</g>
<!-- Node1&#45;&gt;Node30 -->
<g id="edge34_Node000001_Node000030" class="edge">
<title>Node1&#45;&gt;Node30</title>
<g id="a_edge34_Node000001_Node000030"><a xlink:title=" ">
<path fill="none" stroke="#63b8ff" d="M600.62,-508.25C598.71,-428.4 587.76,-142.16 528,-79 510.88,-60.91 480.79,-58.1 461,-58.49"/>
<polygon fill="#63b8ff" stroke="#63b8ff" points="597.13,-507.94 600.84,-517.86 604.13,-507.79 597.13,-507.94"/>
</a>
</g>
</g>
<!-- Node31 -->
<g id="Node000031" class="node">
<title>Node31</title>
<g id="a_Node000031"><a xlink:href="../../d6/d51/classcarla_1_1streaming_1_1detail_1_1tcp_1_1ServerSession.html#af5255361ee0fd1c54d54faf759f21da4" target="_top" xlink:title="Writes some data to the socket.">
<polygon fill="white" stroke="#666666" points="507,-32 374,-32 374,0 507,0 507,-32"/>
<text text-anchor="start" x="382" y="-18.5" font-family="Helvetica,sans-Serif" font-size="10.00">carla::streaming::detail</text>
<text text-anchor="middle" x="440.5" y="-6.5" font-family="Helvetica,sans-Serif" font-size="10.00">::tcp::ServerSession::Write</text>
</a>
</g>
</g>
<!-- Node1&#45;&gt;Node31 -->
<g id="edge35_Node000001_Node000031" class="edge">
<title>Node1&#45;&gt;Node31</title>
<g id="a_edge35_Node000001_Node000031"><a xlink:title=" ">
<path fill="none" stroke="#63b8ff" d="M600.77,-508.01C599.44,-423.87 590.31,-112.2 528,-41 522.34,-34.53 515.12,-29.69 507.27,-26.07"/>
<polygon fill="#63b8ff" stroke="#63b8ff" points="597.29,-507.96 600.92,-517.91 604.29,-507.86 597.29,-507.96"/>
</a>
</g>
</g>
<!-- Node3 -->
<g id="Node000003" class="node">
<title>Node3</title>
<g id="a_Node000003"><a xlink:href="../../d6/d60/classcarla_1_1multigpu_1_1Router.html#ad4a81589c51f16abbfb9b7bd3be04313" target="_top" xlink:title=" ">
<polygon fill="white" stroke="#666666" points="302,-1076 187.75,-1076 187.75,-1044 302,-1044 302,-1076"/>
<text text-anchor="start" x="195.75" y="-1062.5" font-family="Helvetica,sans-Serif" font-size="10.00">carla::multigpu::Router</text>
<text text-anchor="middle" x="244.88" y="-1050.5" font-family="Helvetica,sans-Serif" font-size="10.00">::Stop</text>
</a>
</g>
</g>
<!-- Node2&#45;&gt;Node3 -->
<g id="edge2_Node000002_Node000003" class="edge">
<title>Node2&#45;&gt;Node3</title>
<g id="a_edge2_Node000002_Node000003"><a xlink:title=" ">
<path fill="none" stroke="#63b8ff" d="M372.04,-1060C349.34,-1060 324.25,-1060 302.47,-1060"/>
<polygon fill="#63b8ff" stroke="#63b8ff" points="371.98,-1063.5 381.98,-1060 371.98,-1056.5 371.98,-1063.5"/>
</a>
</g>
</g>
<!-- Node4 -->
<g id="Node000004" class="node">
<title>Node4</title>
<g id="a_Node000004"><a xlink:href="../../d6/d60/classcarla_1_1multigpu_1_1Router.html#ad88b546f5f057952e14e6fd6903657f4" target="_top" xlink:title=" ">
<polygon fill="white" stroke="#666666" points="125.5,-1076 11.25,-1076 11.25,-1044 125.5,-1044 125.5,-1076"/>
<text text-anchor="start" x="19.25" y="-1062.5" font-family="Helvetica,sans-Serif" font-size="10.00">carla::multigpu::Router</text>
<text text-anchor="middle" x="68.38" y="-1050.5" font-family="Helvetica,sans-Serif" font-size="10.00">::~Router</text>
</a>
</g>
</g>
<!-- Node3&#45;&gt;Node4 -->
<g id="edge3_Node000003_Node000004" class="edge">
<title>Node3&#45;&gt;Node4</title>
<g id="a_edge3_Node000003_Node000004"><a xlink:title=" ">
<path fill="none" stroke="#63b8ff" d="M176.8,-1060C159.94,-1060 142.02,-1060 125.74,-1060"/>
<polygon fill="#63b8ff" stroke="#63b8ff" points="176.7,-1063.5 186.7,-1060 176.7,-1056.5 176.7,-1063.5"/>
</a>
</g>
</g>
<!-- Node6&#45;&gt;Node6 -->
<g id="edge6_Node000006_Node000006" class="edge">
<title>Node6&#45;&gt;Node6</title>
<g id="a_edge6_Node000006_Node000006"><a xlink:title=" ">
<path fill="none" stroke="#63b8ff" d="M468.14,-969.05C463.94,-973.19 454.72,-976 440.5,-976 415.9,-976 406.29,-967.58 411.67,-958.44"/>
<polygon fill="#63b8ff" stroke="#63b8ff" points="471.69,-969.77 469.33,-959.44 464.74,-968.99 471.69,-969.77"/>
</a>
</g>
</g>
<!-- Node7 -->
<g id="Node000007" class="node">
<title>Node7</title>
<g id="a_Node000007"><a xlink:href="../../dc/d96/classcarla_1_1streaming_1_1detail_1_1tcp_1_1Client.html#aaa78ca2b7195a84a9b0db792fa88ab79" target="_top" xlink:title=" ">
<polygon fill="white" stroke="#666666" points="302.38,-983 187.38,-983 187.38,-951 302.38,-951 302.38,-983"/>
<text text-anchor="start" x="195.38" y="-969.5" font-family="Helvetica,sans-Serif" font-size="10.00">carla::streaming::detail</text>
<text text-anchor="middle" x="244.88" y="-957.5" font-family="Helvetica,sans-Serif" font-size="10.00">::tcp::Client::ReadData</text>
</a>
</g>
</g>
<!-- Node6&#45;&gt;Node7 -->
<g id="edge7_Node000006_Node000007" class="edge">
<title>Node6&#45;&gt;Node7</title>
<g id="a_edge7_Node000006_Node000007"><a xlink:title=" ">
<path fill="none" stroke="#63b8ff" d="M371.84,-944.27C349.25,-946.74 324.33,-950.04 302.66,-953.46"/>
<polygon fill="#63b8ff" stroke="#63b8ff" points="372.13,-947.65 381.71,-943.12 371.4,-940.69 372.13,-947.65"/>
</a>
</g>
</g>
<!-- Node8 -->
<g id="Node000008" class="node">
<title>Node8</title>
<g id="a_Node000008"><a xlink:href="../../dc/d96/classcarla_1_1streaming_1_1detail_1_1tcp_1_1Client.html#a2d95ef9bb8a629f93278bbd3f9deb7a6" target="_top" xlink:title=" ">
<polygon fill="white" stroke="#666666" points="304.25,-933 185.5,-933 185.5,-901 304.25,-901 304.25,-933"/>
<text text-anchor="start" x="193.5" y="-919.5" font-family="Helvetica,sans-Serif" font-size="10.00">carla::streaming::detail</text>
<text text-anchor="middle" x="244.88" y="-907.5" font-family="Helvetica,sans-Serif" font-size="10.00">::tcp::Client::Reconnect</text>
</a>
</g>
</g>
<!-- Node6&#45;&gt;Node8 -->
<g id="edge10_Node000006_Node000008" class="edge">
<title>Node6&#45;&gt;Node8</title>
<g id="a_edge10_Node000006_Node000008"><a xlink:title=" ">
<path fill="none" stroke="#63b8ff" d="M372.13,-926.84C350.17,-923.56 325.96,-920.5 304.68,-918.33"/>
<polygon fill="#63b8ff" stroke="#63b8ff" points="371.3,-930.4 381.71,-928.46 372.36,-923.48 371.3,-930.4"/>
</a>
</g>
</g>
<!-- Node7&#45;&gt;Node6 -->
<g id="edge8_Node000007_Node000006" class="edge">
<title>Node7&#45;&gt;Node6</title>
<g id="a_edge8_Node000007_Node000006"><a xlink:title=" ">
<path fill="none" stroke="#63b8ff" d="M313.54,-964.73C336.12,-962.26 361.04,-958.96 382.71,-955.54"/>
<polygon fill="#63b8ff" stroke="#63b8ff" points="313.24,-961.35 303.66,-965.88 313.97,-968.31 313.24,-961.35"/>
</a>
</g>
</g>
<!-- Node7&#45;&gt;Node7 -->
<g id="edge9_Node000007_Node000007" class="edge">
<title>Node7&#45;&gt;Node7</title>
<g id="a_edge9_Node000007_Node000007"><a xlink:title=" ">
<path fill="none" stroke="#63b8ff" d="M275.08,-994.05C270.49,-998.19 260.42,-1001 244.88,-1001 217.99,-1001 207.48,-992.58 213.36,-983.44"/>
<polygon fill="#63b8ff" stroke="#63b8ff" points="278.64,-994.8 276.39,-984.44 271.69,-993.94 278.64,-994.8"/>
</a>
</g>
</g>
<!-- Node8&#45;&gt;Node6 -->
<g id="edge11_Node000008_Node000006" class="edge">
<title>Node8&#45;&gt;Node6</title>
<g id="a_edge11_Node000008_Node000006"><a xlink:title=" ">
<path fill="none" stroke="#63b8ff" d="M315.34,-932.47C337.44,-935.73 361.62,-938.76 382.71,-940.88"/>
<polygon fill="#63b8ff" stroke="#63b8ff" points="316.09,-928.9 305.68,-930.86 315.04,-935.82 316.09,-928.9"/>
</a>
</g>
</g>
<!-- Node13 -->
<g id="Node000013" class="node">
<title>Node13</title>
<g id="a_Node000013"><a xlink:href="../../df/df3/classcarla_1_1client_1_1detail_1_1Simulator.html#ad62bbe3ac5ff1cf9136b8dcb08b950da" target="_top" xlink:title=" ">
<polygon fill="white" stroke="#666666" points="312.5,-783 177.25,-783 177.25,-751 312.5,-751 312.5,-783"/>
<text text-anchor="start" x="185.25" y="-769.5" font-family="Helvetica,sans-Serif" font-size="10.00">carla::client::detail</text>
<text text-anchor="middle" x="244.88" y="-757.5" font-family="Helvetica,sans-Serif" font-size="10.00">::Simulator::GetCurrentMap</text>
</a>
</g>
</g>
<!-- Node12&#45;&gt;Node13 -->
<g id="edge16_Node000012_Node000013" class="edge">
<title>Node12&#45;&gt;Node13</title>
<g id="a_edge16_Node000012_Node000013"><a xlink:title=" ">
<path fill="none" stroke="#63b8ff" d="M365.72,-751.53C348.36,-753.77 329.96,-756.14 312.92,-758.34"/>
<polygon fill="#63b8ff" stroke="#63b8ff" points="365.9,-754.9 375.37,-750.15 365,-747.96 365.9,-754.9"/>
</a>
</g>
</g>
<!-- Node14 -->
<g id="Node000014" class="node">
<title>Node14</title>
<g id="a_Node000014"><a xlink:href="../../df/df3/classcarla_1_1client_1_1detail_1_1Simulator.html#a4c1ff62aa169c58d450cb9dc0cf3890e" target="_top" xlink:title=" ">
<polygon fill="white" stroke="#666666" points="317,-733 172.75,-733 172.75,-701 317,-701 317,-733"/>
<text text-anchor="start" x="180.75" y="-719.5" font-family="Helvetica,sans-Serif" font-size="10.00">carla::client::detail</text>
<text text-anchor="middle" x="244.88" y="-707.5" font-family="Helvetica,sans-Serif" font-size="10.00">::Simulator::GetRequiredFiles</text>
</a>
</g>
</g>
<!-- Node12&#45;&gt;Node14 -->
<g id="edge17_Node000012_Node000014" class="edge">
<title>Node12&#45;&gt;Node14</title>
<g id="a_edge17_Node000012_Node000014"><a xlink:title=" ">
<path fill="none" stroke="#63b8ff" d="M365.57,-732.45C349.74,-730.41 333.04,-728.25 317.31,-726.22"/>
<polygon fill="#63b8ff" stroke="#63b8ff" points="365,-736.04 375.37,-733.85 365.9,-729.1 365,-736.04"/>
</a>
</g>
</g>
<!-- Node25 -->
<g id="Node000025" class="node">
<title>Node25</title>
<g id="a_Node000025"><a xlink:href="../../da/da8/classcarla_1_1multigpu_1_1PrimaryCommands.html#a5c69feeed4dba60dbf699c444a0ac401" target="_top" xlink:title=" ">
<polygon fill="white" stroke="#666666" points="304.62,-270 185.12,-270 185.12,-238 304.62,-238 304.62,-270"/>
<text text-anchor="start" x="193.12" y="-256.5" font-family="Helvetica,sans-Serif" font-size="10.00">carla::multigpu::Primary</text>
<text text-anchor="middle" x="244.88" y="-244.5" font-family="Helvetica,sans-Serif" font-size="10.00">Commands::GetToken</text>
</a>
</g>
</g>
<!-- Node24&#45;&gt;Node25 -->
<g id="edge28_Node000024_Node000025" class="edge">
<title>Node24&#45;&gt;Node25</title>
<g id="a_edge28_Node000024_Node000025"><a xlink:title=" ">
<path fill="none" stroke="#63b8ff" d="M361.15,-254C342.42,-254 322.72,-254 305.02,-254"/>
<polygon fill="#63b8ff" stroke="#63b8ff" points="361.05,-257.5 371.05,-254 361.05,-250.5 361.05,-257.5"/>
</a>
</g>
</g>
<!-- Node26 -->
<g id="Node000026" class="node">
<title>Node26</title>
<g id="a_Node000026"><a xlink:href="../../da/da8/classcarla_1_1multigpu_1_1PrimaryCommands.html#a68a8f8ee0216b21fc3a337464b22fb01" target="_top" xlink:title=" ">
<polygon fill="white" stroke="#666666" points="136.75,-270 0,-270 0,-238 136.75,-238 136.75,-270"/>
<text text-anchor="start" x="8" y="-256.5" font-family="Helvetica,sans-Serif" font-size="10.00">carla::multigpu::Primary</text>
<text text-anchor="middle" x="68.38" y="-244.5" font-family="Helvetica,sans-Serif" font-size="10.00">Commands::EnableForROS</text>
</a>
</g>
</g>
<!-- Node25&#45;&gt;Node26 -->
<g id="edge29_Node000025_Node000026" class="edge">
<title>Node25&#45;&gt;Node26</title>
<g id="a_edge29_Node000025_Node000026"><a xlink:title=" ">
<path fill="none" stroke="#63b8ff" d="M173.84,-254C161.73,-254 149.16,-254 137.11,-254"/>
<polygon fill="#63b8ff" stroke="#63b8ff" points="173.8,-257.5 183.8,-254 173.8,-250.5 173.8,-257.5"/>
</a>
</g>
</g>
<!-- Node26&#45;&gt;Node26 -->
<g id="edge30_Node000026_Node000026" class="edge">
<title>Node26&#45;&gt;Node26</title>
<g id="a_edge30_Node000026_Node000026"><a xlink:title=" ">
<path fill="none" stroke="#63b8ff" d="M98.58,-281.05C93.99,-285.19 83.92,-288 68.38,-288 41.49,-288 30.98,-279.58 36.86,-270.44"/>
<polygon fill="#63b8ff" stroke="#63b8ff" points="102.14,-281.8 99.89,-271.44 95.19,-280.94 102.14,-281.8"/>
</a>
</g>
</g>
<!-- Node32 -->
<g id="Node000032" class="node">
<title>Node32</title>
<g id="a_Node000032"><a xlink:href="../../d6/d51/classcarla_1_1streaming_1_1detail_1_1tcp_1_1ServerSession.html#adc3bc2f7e8cd44be17aa98c5d2570604" target="_top" xlink:title="Writes some data to the socket.">
<polygon fill="white" stroke="#666666" points="311.38,-32 178.38,-32 178.38,0 311.38,0 311.38,-32"/>
<text text-anchor="start" x="186.38" y="-18.5" font-family="Helvetica,sans-Serif" font-size="10.00">carla::streaming::detail</text>
<text text-anchor="middle" x="244.88" y="-6.5" font-family="Helvetica,sans-Serif" font-size="10.00">::tcp::ServerSession::Write</text>
</a>
</g>
</g>
<!-- Node31&#45;&gt;Node32 -->
<g id="edge36_Node000031_Node000032" class="edge">
<title>Node31&#45;&gt;Node32</title>
<g id="a_edge36_Node000031_Node000032"><a xlink:title=" ">
<path fill="none" stroke="#63b8ff" d="M362.75,-16C345.91,-16 328.22,-16 311.84,-16"/>
<polygon fill="#63b8ff" stroke="#63b8ff" points="362.68,-19.5 372.68,-16 362.68,-12.5 362.68,-19.5"/>
</a>
</g>
</g>
</g>
</svg>
