<?xml version="1.0" encoding="UTF-8" standalone="no"?>
<!DOCTYPE svg PUBLIC "-//W3C//DTD SVG 1.1//EN"
 "http://www.w3.org/Graphics/SVG/1.1/DTD/svg11.dtd">
<!-- Generated by graphviz version 8.1.0 (20230707.0739)
 -->
<!-- Title: pugi::xpath_variable_set Pages: 1 -->
<svg width="164pt" height="164pt"
 viewBox="0.00 0.00 163.88 164.00" xmlns="http://www.w3.org/2000/svg" xmlns:xlink="http://www.w3.org/1999/xlink">
<g id="graph0" class="graph" transform="scale(1 1) rotate(0) translate(4 160)">
<title>pugi::xpath_variable_set</title>
<!-- Node1 -->
<g id="Node000001" class="node">
<title>Node1</title>
<g id="a_Node000001"><a xlink:title=" ">
<polygon fill="#999999" stroke="#666666" points="120.25,-20 0,-20 0,0 120.25,0 120.25,-20"/>
<text text-anchor="middle" x="60.12" y="-6.5" font-family="Helvetica,sans-Serif" font-size="10.00">pugi::xpath_variable_set</text>
</a>
</g>
</g>
<!-- Node2 -->
<g id="Node000002" class="node">
<title>Node2</title>
<g id="a_Node000002"><a xlink:href="../../dd/d2a/classpugi_1_1xpath__variable.html" target="_top" xlink:title=" ">
<polygon fill="white" stroke="#666666" points="110.88,-88 9.38,-88 9.38,-68 110.88,-68 110.88,-88"/>
<text text-anchor="middle" x="60.12" y="-74.5" font-family="Helvetica,sans-Serif" font-size="10.00">pugi::xpath_variable</text>
</a>
</g>
</g>
<!-- Node2&#45;&gt;Node1 -->
<g id="edge1_Node000001_Node000002" class="edge">
<title>Node2&#45;&gt;Node1</title>
<g id="a_edge1_Node000001_Node000002"><a xlink:title=" ">
<path fill="none" stroke="#9a32cd" stroke-dasharray="5,2" d="M60.12,-56.65C60.12,-44.58 60.12,-29.84 60.12,-20.44"/>
<polygon fill="#9a32cd" stroke="#9a32cd" points="56.63,-56.54 60.12,-66.54 63.63,-56.54 56.63,-56.54"/>
</a>
</g>
<text text-anchor="middle" x="73.62" y="-40.5" font-family="Helvetica,sans-Serif" font-size="10.00" fill="grey"> _data</text>
</g>
<!-- Node2&#45;&gt;Node2 -->
<g id="edge3_Node000002_Node000002" class="edge">
<title>Node2&#45;&gt;Node2</title>
<g id="a_edge3_Node000002_Node000002"><a xlink:title=" ">
<path fill="none" stroke="#9a32cd" stroke-dasharray="5,2" d="M121.97,-82.64C126.26,-81.58 128.88,-80.03 128.88,-78 128.88,-74.58 121.46,-72.54 111.09,-71.87"/>
<polygon fill="#9a32cd" stroke="#9a32cd" points="121.52,-79.3 112.09,-84.13 122.48,-86.24 121.52,-79.3"/>
</a>
</g>
<text text-anchor="middle" x="142.38" y="-74.5" font-family="Helvetica,sans-Serif" font-size="10.00" fill="grey"> _next</text>
</g>
<!-- Node3 -->
<g id="Node000003" class="node">
<title>Node3</title>
<g id="a_Node000003"><a xlink:title=" ">
<polygon fill="white" stroke="#666666" points="105.62,-156 14.62,-156 14.62,-136 105.62,-136 105.62,-156"/>
<text text-anchor="middle" x="60.12" y="-142.5" font-family="Helvetica,sans-Serif" font-size="10.00">xpath_value_type</text>
</a>
</g>
</g>
<!-- Node3&#45;&gt;Node2 -->
<g id="edge2_Node000002_Node000003" class="edge">
<title>Node3&#45;&gt;Node2</title>
<g id="a_edge2_Node000002_Node000003"><a xlink:title=" ">
<path fill="none" stroke="#9a32cd" stroke-dasharray="5,2" d="M60.12,-124.65C60.12,-112.58 60.12,-97.84 60.12,-88.44"/>
<polygon fill="#9a32cd" stroke="#9a32cd" points="56.63,-124.54 60.12,-134.54 63.63,-124.54 56.63,-124.54"/>
</a>
</g>
<text text-anchor="middle" x="73.62" y="-108.5" font-family="Helvetica,sans-Serif" font-size="10.00" fill="grey"> _type</text>
</g>
</g>
</svg>
