<?xml version="1.0" encoding="UTF-8" standalone="no"?>
<!DOCTYPE svg PUBLIC "-//W3C//DTD SVG 1.1//EN"
 "http://www.w3.org/Graphics/SVG/1.1/DTD/svg11.dtd">
<!-- Generated by graphviz version 8.1.0 (20230707.0739)
 -->
<!-- Title: ACarlaRecorder::AddVehicleAnimation Pages: 1 -->
<svg width="543pt" height="142pt"
 viewBox="0.00 0.00 542.75 142.00" xmlns="http://www.w3.org/2000/svg" xmlns:xlink="http://www.w3.org/1999/xlink">
<g id="graph0" class="graph" transform="scale(1 1) rotate(0) translate(4 138)">
<title>ACarlaRecorder::AddVehicleAnimation</title>
<!-- Node1 -->
<g id="Node000001" class="node">
<title>Node1</title>
<g id="a_Node000001"><a xlink:title=" ">
<polygon fill="#999999" stroke="#666666" points="139.75,-83 0,-83 0,-51 139.75,-51 139.75,-83"/>
<text text-anchor="start" x="8" y="-69.5" font-family="Helvetica,sans-Serif" font-size="10.00">ACarlaRecorder::AddVehicle</text>
<text text-anchor="middle" x="69.88" y="-57.5" font-family="Helvetica,sans-Serif" font-size="10.00">Animation</text>
</a>
</g>
</g>
<!-- Node2 -->
<g id="Node000002" class="node">
<title>Node2</title>
<g id="a_Node000002"><a xlink:href="../../dd/db9/classACarlaRecorder.html#aad147b3215cc84832562392e8e29c142" target="_top" xlink:title=" ">
<polygon fill="white" stroke="#666666" points="338,-134 175.75,-134 175.75,-114 338,-114 338,-134"/>
<text text-anchor="middle" x="256.88" y="-120.5" font-family="Helvetica,sans-Serif" font-size="10.00">ACarlaRecorder::AddAnimVehicle</text>
</a>
</g>
</g>
<!-- Node1&#45;&gt;Node2 -->
<g id="edge1_Node000001_Node000002" class="edge">
<title>Node1&#45;&gt;Node2</title>
<g id="a_edge1_Node000001_Node000002"><a xlink:title=" ">
<path fill="none" stroke="#63b8ff" d="M112.86,-83.46C131.89,-90.6 154.78,-98.74 175.75,-105 182.65,-107.06 189.94,-109.05 197.2,-110.91"/>
<polygon fill="#63b8ff" stroke="#63b8ff" points="196.21,-114.52 206.76,-113.54 197.9,-107.73 196.21,-114.52"/>
</a>
</g>
</g>
<!-- Node4 -->
<g id="Node000004" class="node">
<title>Node4</title>
<g id="a_Node000004"><a xlink:href="../../dc/dde/classFCarlaActor.html#aca3d1a4bfcb5e0ae1974b7206933d665" target="_top" xlink:title=" ">
<polygon fill="white" stroke="#666666" points="317,-96 196.75,-96 196.75,-76 317,-76 317,-96"/>
<text text-anchor="middle" x="256.88" y="-82.5" font-family="Helvetica,sans-Serif" font-size="10.00">FCarlaActor::GetActorId</text>
</a>
</g>
</g>
<!-- Node1&#45;&gt;Node4 -->
<g id="edge3_Node000001_Node000004" class="edge">
<title>Node1&#45;&gt;Node4</title>
<g id="a_edge3_Node000001_Node000004"><a xlink:title=" ">
<path fill="none" stroke="#63b8ff" d="M140.03,-74.1C154.97,-75.64 170.79,-77.26 185.78,-78.8"/>
<polygon fill="#63b8ff" stroke="#63b8ff" points="185.21,-82.36 195.51,-79.9 185.92,-75.4 185.21,-82.36"/>
</a>
</g>
</g>
<!-- Node5 -->
<g id="Node000005" class="node">
<title>Node5</title>
<g id="a_Node000005"><a xlink:href="../../dc/dde/classFCarlaActor.html#a905eef6b905063651beb035c6693a2cb" target="_top" xlink:title=" ">
<polygon fill="white" stroke="#666666" points="333.12,-58 180.62,-58 180.62,-38 333.12,-38 333.12,-58"/>
<text text-anchor="middle" x="256.88" y="-44.5" font-family="Helvetica,sans-Serif" font-size="10.00">FCarlaActor::GetVehicleControl</text>
</a>
</g>
</g>
<!-- Node1&#45;&gt;Node5 -->
<g id="edge4_Node000001_Node000005" class="edge">
<title>Node1&#45;&gt;Node5</title>
<g id="a_edge4_Node000001_Node000005"><a xlink:title=" ">
<path fill="none" stroke="#63b8ff" d="M140.03,-59.9C149.67,-58.91 159.68,-57.88 169.6,-56.86"/>
<polygon fill="#63b8ff" stroke="#63b8ff" points="169.7,-60.27 179.29,-55.76 168.99,-53.3 169.7,-60.27"/>
</a>
</g>
</g>
<!-- Node6 -->
<g id="Node000006" class="node">
<title>Node6</title>
<g id="a_Node000006"><a xlink:href="../../dc/dde/classFCarlaActor.html#a98149256f8d8b4558994e2d671d73b9a" target="_top" xlink:title=" ">
<polygon fill="white" stroke="#666666" points="321.88,-20 191.88,-20 191.88,0 321.88,0 321.88,-20"/>
<text text-anchor="middle" x="256.88" y="-6.5" font-family="Helvetica,sans-Serif" font-size="10.00">FCarlaActor::IsPendingKill</text>
</a>
</g>
</g>
<!-- Node1&#45;&gt;Node6 -->
<g id="edge5_Node000001_Node000006" class="edge">
<title>Node1&#45;&gt;Node6</title>
<g id="a_edge5_Node000001_Node000006"><a xlink:title=" ">
<path fill="none" stroke="#63b8ff" d="M112.86,-50.54C131.89,-43.4 154.78,-35.26 175.75,-29 182.65,-26.94 189.94,-24.95 197.2,-23.09"/>
<polygon fill="#63b8ff" stroke="#63b8ff" points="197.9,-26.27 206.76,-20.46 196.21,-19.48 197.9,-26.27"/>
</a>
</g>
</g>
<!-- Node3 -->
<g id="Node000003" class="node">
<title>Node3</title>
<g id="a_Node000003"><a xlink:href="../../da/dd4/classCarlaRecorderAnimVehicles.html#ad99fb49da3ef3cfb504d08728d4e910b" target="_top" xlink:title=" ">
<polygon fill="white" stroke="#666666" points="534.75,-134 374,-134 374,-114 534.75,-114 534.75,-134"/>
<text text-anchor="middle" x="454.38" y="-120.5" font-family="Helvetica,sans-Serif" font-size="10.00">CarlaRecorderAnimVehicles::Add</text>
</a>
</g>
</g>
<!-- Node2&#45;&gt;Node3 -->
<g id="edge2_Node000002_Node000003" class="edge">
<title>Node2&#45;&gt;Node3</title>
<g id="a_edge2_Node000002_Node000003"><a xlink:title=" ">
<path fill="none" stroke="#63b8ff" d="M338.24,-124C346.37,-124 354.66,-124 362.89,-124"/>
<polygon fill="#63b8ff" stroke="#63b8ff" points="362.64,-127.5 372.64,-124 362.64,-120.5 362.64,-127.5"/>
</a>
</g>
</g>
</g>
</svg>
