<?xml version="1.0" encoding="UTF-8" standalone="no"?>
<!DOCTYPE svg PUBLIC "-//W3C//DTD SVG 1.1//EN"
 "http://www.w3.org/Graphics/SVG/1.1/DTD/svg11.dtd">
<!-- Generated by graphviz version 8.1.0 (20230707.0739)
 -->
<!-- Title: geometry_msgs::msg::TransformPubSubType::getSerializedSizeProvider Pages: 1 -->
<svg width="540pt" height="190pt"
 viewBox="0.00 0.00 539.75 190.00" xmlns="http://www.w3.org/2000/svg" xmlns:xlink="http://www.w3.org/1999/xlink">
<g id="graph0" class="graph" transform="scale(1 1) rotate(0) translate(4 186)">
<title>geometry_msgs::msg::TransformPubSubType::getSerializedSizeProvider</title>
<!-- Node1 -->
<g id="Node000001" class="node">
<title>Node1</title>
<g id="a_Node000001"><a xlink:title=" ">
<polygon fill="#999999" stroke="#666666" points="132.25,-113 0,-113 0,-69 132.25,-69 132.25,-113"/>
<text text-anchor="start" x="8" y="-99.5" font-family="Helvetica,sans-Serif" font-size="10.00">geometry_msgs::msg</text>
<text text-anchor="start" x="8" y="-87.5" font-family="Helvetica,sans-Serif" font-size="10.00">::TransformPubSubType</text>
<text text-anchor="middle" x="66.12" y="-75.5" font-family="Helvetica,sans-Serif" font-size="10.00">::getSerializedSizeProvider</text>
</a>
</g>
</g>
<!-- Node2 -->
<g id="Node000002" class="node">
<title>Node2</title>
<g id="a_Node000002"><a xlink:href="../../d6/d5a/classgeometry__msgs_1_1msg_1_1Transform.html#a2c265f59d89d3b05d617dc948d9c19b9" target="_top" xlink:title="This function returns the serialized size of a data depending on the buffer alignment.">
<polygon fill="white" stroke="#666666" points="329.75,-107 168.25,-107 168.25,-75 329.75,-75 329.75,-107"/>
<text text-anchor="start" x="176.25" y="-93.5" font-family="Helvetica,sans-Serif" font-size="10.00">geometry_msgs::msg</text>
<text text-anchor="middle" x="249" y="-81.5" font-family="Helvetica,sans-Serif" font-size="10.00">::Transform::getCdrSerializedSize</text>
</a>
</g>
</g>
<!-- Node1&#45;&gt;Node2 -->
<g id="edge1_Node000001_Node000002" class="edge">
<title>Node1&#45;&gt;Node2</title>
<g id="a_edge1_Node000001_Node000002"><a xlink:title=" ">
<path fill="none" stroke="#63b8ff" d="M132.68,-91C140.62,-91 148.85,-91 157.07,-91"/>
<polygon fill="#63b8ff" stroke="#63b8ff" points="156.87,-94.5 166.87,-91 156.87,-87.5 156.87,-94.5"/>
</a>
</g>
</g>
<!-- Node3 -->
<g id="Node000003" class="node">
<title>Node3</title>
<g id="a_Node000003"><a xlink:href="../../d5/de9/classgeometry__msgs_1_1msg_1_1Quaternion.html#a42b051b07b2e83df416c8ebfc76a306c" target="_top" xlink:title="This function returns the serialized size of a data depending on the buffer alignment.">
<polygon fill="white" stroke="#666666" points="531.75,-182 365.75,-182 365.75,-150 531.75,-150 531.75,-182"/>
<text text-anchor="start" x="373.75" y="-168.5" font-family="Helvetica,sans-Serif" font-size="10.00">geometry_msgs::msg</text>
<text text-anchor="middle" x="448.75" y="-156.5" font-family="Helvetica,sans-Serif" font-size="10.00">::Quaternion::getCdrSerializedSize</text>
</a>
</g>
</g>
<!-- Node2&#45;&gt;Node3 -->
<g id="edge2_Node000002_Node000003" class="edge">
<title>Node2&#45;&gt;Node3</title>
<g id="a_edge2_Node000002_Node000003"><a xlink:title=" ">
<path fill="none" stroke="#63b8ff" d="M285.3,-107.47C308.02,-117.76 338.32,-130.93 365.75,-141 370.56,-142.77 375.56,-144.51 380.61,-146.2"/>
<polygon fill="#63b8ff" stroke="#63b8ff" points="379.42,-149.82 390.01,-149.61 381.6,-143.17 379.42,-149.82"/>
</a>
</g>
</g>
<!-- Node4 -->
<g id="Node000004" class="node">
<title>Node4</title>
<g id="a_Node000004"><a xlink:href="../../df/d66/classgeometry__msgs_1_1msg_1_1Vector3.html#a3f4f6b078e23dd8bbd3a400a1c8a6209" target="_top" xlink:title="This function returns the serialized size of a data depending on the buffer alignment.">
<polygon fill="white" stroke="#666666" points="525,-132 372.5,-132 372.5,-100 525,-100 525,-132"/>
<text text-anchor="start" x="380.5" y="-118.5" font-family="Helvetica,sans-Serif" font-size="10.00">geometry_msgs::msg</text>
<text text-anchor="middle" x="448.75" y="-106.5" font-family="Helvetica,sans-Serif" font-size="10.00">::Vector3::getCdrSerializedSize</text>
</a>
</g>
</g>
<!-- Node2&#45;&gt;Node4 -->
<g id="edge3_Node000002_Node000004" class="edge">
<title>Node2&#45;&gt;Node4</title>
<g id="a_edge3_Node000002_Node000004"><a xlink:title=" ">
<path fill="none" stroke="#63b8ff" d="M330.15,-101.13C340.48,-102.44 351.09,-103.78 361.51,-105.1"/>
<polygon fill="#63b8ff" stroke="#63b8ff" points="360.92,-108.68 371.29,-106.46 361.8,-101.73 360.92,-108.68"/>
</a>
</g>
</g>
<!-- Node5 -->
<g id="Node000005" class="node">
<title>Node5</title>
<g id="a_Node000005"><a xlink:href="../../d6/d5a/classgeometry__msgs_1_1msg_1_1Transform.html#a9a1459664ad7860be84baf60265516bc" target="_top" xlink:title="This function copies the value in member rotation">
<polygon fill="white" stroke="#666666" points="504,-82 393.5,-82 393.5,-50 504,-50 504,-82"/>
<text text-anchor="start" x="401.5" y="-68.5" font-family="Helvetica,sans-Serif" font-size="10.00">geometry_msgs::msg</text>
<text text-anchor="middle" x="448.75" y="-56.5" font-family="Helvetica,sans-Serif" font-size="10.00">::Transform::rotation</text>
</a>
</g>
</g>
<!-- Node2&#45;&gt;Node5 -->
<g id="edge4_Node000002_Node000005" class="edge">
<title>Node2&#45;&gt;Node5</title>
<g id="a_edge4_Node000002_Node000005"><a xlink:title=" ">
<path fill="none" stroke="#63b8ff" d="M330.15,-80.87C347.54,-78.67 365.73,-76.37 382.46,-74.25"/>
<polygon fill="#63b8ff" stroke="#63b8ff" points="382.74,-77.62 392.23,-72.89 381.87,-70.67 382.74,-77.62"/>
</a>
</g>
</g>
<!-- Node6 -->
<g id="Node000006" class="node">
<title>Node6</title>
<g id="a_Node000006"><a xlink:href="../../d6/d5a/classgeometry__msgs_1_1msg_1_1Transform.html#a6edb54feae3a094afdb701e1fd3c1fd1" target="_top" xlink:title="This function copies the value in member translation">
<polygon fill="white" stroke="#666666" points="506.62,-32 390.88,-32 390.88,0 506.62,0 506.62,-32"/>
<text text-anchor="start" x="398.88" y="-18.5" font-family="Helvetica,sans-Serif" font-size="10.00">geometry_msgs::msg</text>
<text text-anchor="middle" x="448.75" y="-6.5" font-family="Helvetica,sans-Serif" font-size="10.00">::Transform::translation</text>
</a>
</g>
</g>
<!-- Node2&#45;&gt;Node6 -->
<g id="edge5_Node000002_Node000006" class="edge">
<title>Node2&#45;&gt;Node6</title>
<g id="a_edge5_Node000002_Node000006"><a xlink:title=" ">
<path fill="none" stroke="#63b8ff" d="M285.3,-74.53C308.02,-64.24 338.32,-51.07 365.75,-41 370.56,-39.23 375.56,-37.49 380.61,-35.8"/>
<polygon fill="#63b8ff" stroke="#63b8ff" points="381.6,-38.83 390.01,-32.39 379.42,-32.18 381.6,-38.83"/>
</a>
</g>
</g>
</g>
</svg>
