<?xml version="1.0" encoding="UTF-8" standalone="no"?>
<!DOCTYPE svg PUBLIC "-//W3C//DTD SVG 1.1//EN"
 "http://www.w3.org/Graphics/SVG/1.1/DTD/svg11.dtd">
<!-- Generated by graphviz version 7.0.5 (20221223.1930)
 -->
<!-- Title: geometry_msgs::msg::TransformPubSubType::TransformPubSubType Pages: 1 -->
<svg width="359pt" height="134pt"
 viewBox="0.00 0.00 359.00 134.00" xmlns="http://www.w3.org/2000/svg" xmlns:xlink="http://www.w3.org/1999/xlink">
<g id="graph0" class="graph" transform="scale(1 1) rotate(0) translate(4 130)">
<title>geometry_msgs::msg::TransformPubSubType::TransformPubSubType</title>
<!-- Node1 -->
<g id="node1" class="node">
<title>Node1</title>
<g id="a_node1"><a xlink:title=" ">
<polygon fill="#999999" stroke="#666666" points="121,-83.5 0,-83.5 0,-42.5 121,-42.5 121,-83.5"/>
<text text-anchor="start" x="8" y="-71.5" font-family="Helvetica,sans-Serif" font-size="10.00">geometry_msgs::msg</text>
<text text-anchor="start" x="8" y="-60.5" font-family="Helvetica,sans-Serif" font-size="10.00">::TransformPubSubType</text>
<text text-anchor="middle" x="60.5" y="-49.5" font-family="Helvetica,sans-Serif" font-size="10.00">::TransformPubSubType</text>
</a>
</g>
</g>
<!-- Node2 -->
<g id="node2" class="node">
<title>Node2</title>
<g id="a_node2"><a xlink:href="../../d6/d5a/classgeometry__msgs_1_1msg_1_1Transform.html#a841c2880a9f62f17bf33a29b81edfd1a" target="_top" xlink:title="此函数根据缓冲区对齐方式，返回对象的键（Key）的最大序列化大小。键通常用于在某些数据存储或查找场景中唯一标识对象。">
<polygon fill="white" stroke="#666666" points="351,-126 157,-126 157,-96 351,-96 351,-126"/>
<text text-anchor="start" x="165" y="-114" font-family="Helvetica,sans-Serif" font-size="10.00">geometry_msgs::msg</text>
<text text-anchor="middle" x="254" y="-103" font-family="Helvetica,sans-Serif" font-size="10.00">::Transform::getKeyMaxCdrSerializedSize</text>
</a>
</g>
</g>
<!-- Node1&#45;&gt;Node2 -->
<g id="edge1" class="edge">
<title>Node1&#45;&gt;Node2</title>
<path fill="none" stroke="#63b8ff" d="M121.36,-78.05C133.17,-81.02 145.48,-84.11 157,-87 164.48,-88.87 172.28,-90.83 180.07,-92.78"/>
<polygon fill="#63b8ff" stroke="#63b8ff" points="179.01,-96.12 189.56,-95.15 180.71,-89.33 179.01,-96.12"/>
</g>
<!-- Node3 -->
<g id="node3" class="node">
<title>Node3</title>
<g id="a_node3"><a xlink:href="../../d6/d5a/classgeometry__msgs_1_1msg_1_1Transform.html#a2d46c35b6961d201836b5da725dad977" target="_top" xlink:title="此函数根据缓冲区对齐方式，返回一个对象的最大序列化大小。">
<polygon fill="white" stroke="#666666" points="342.5,-78 165.5,-78 165.5,-48 342.5,-48 342.5,-78"/>
<text text-anchor="start" x="173.5" y="-66" font-family="Helvetica,sans-Serif" font-size="10.00">geometry_msgs::msg</text>
<text text-anchor="middle" x="254" y="-55" font-family="Helvetica,sans-Serif" font-size="10.00">::Transform::getMaxCdrSerializedSize</text>
</a>
</g>
</g>
<!-- Node1&#45;&gt;Node3 -->
<g id="edge2" class="edge">
<title>Node1&#45;&gt;Node3</title>
<path fill="none" stroke="#63b8ff" d="M121.3,-63C131.76,-63 142.88,-63 154.06,-63"/>
<polygon fill="#63b8ff" stroke="#63b8ff" points="153.72,-66.5 163.72,-63 153.72,-59.5 153.72,-66.5"/>
</g>
<!-- Node4 -->
<g id="node4" class="node">
<title>Node4</title>
<g id="a_node4"><a xlink:href="../../d6/d5a/classgeometry__msgs_1_1msg_1_1Transform.html#a53c88ef24b61ae12b4c97781dae9c07c" target="_top" xlink:title="此函数用于判断对于该类型是否已经定义了键（Key）。">
<polygon fill="white" stroke="#666666" points="317,-30 191,-30 191,0 317,0 317,-30"/>
<text text-anchor="start" x="199" y="-18" font-family="Helvetica,sans-Serif" font-size="10.00">geometry_msgs::msg</text>
<text text-anchor="middle" x="254" y="-7" font-family="Helvetica,sans-Serif" font-size="10.00">::Transform::isKeyDefined</text>
</a>
</g>
</g>
<!-- Node1&#45;&gt;Node4 -->
<g id="edge3" class="edge">
<title>Node1&#45;&gt;Node4</title>
<path fill="none" stroke="#63b8ff" d="M121.36,-47.95C133.17,-44.98 145.48,-41.89 157,-39 164.48,-37.13 172.28,-35.17 180.07,-33.22"/>
<polygon fill="#63b8ff" stroke="#63b8ff" points="180.71,-36.67 189.56,-30.85 179.01,-29.88 180.71,-36.67"/>
</g>
</g>
</svg>
