<?xml version="1.0" encoding="UTF-8" standalone="no"?>
<!DOCTYPE svg PUBLIC "-//W3C//DTD SVG 1.1//EN"
 "http://www.w3.org/Graphics/SVG/1.1/DTD/svg11.dtd">
<!-- Generated by graphviz version 8.1.0 (20230707.0739)
 -->
<!-- Title: CaService::ComputeSpeed Pages: 1 -->
<svg width="515pt" height="90pt"
 viewBox="0.00 0.00 515.00 90.00" xmlns="http://www.w3.org/2000/svg" xmlns:xlink="http://www.w3.org/1999/xlink">
<g id="graph0" class="graph" transform="scale(1 1) rotate(0) translate(4 86)">
<title>CaService::ComputeSpeed</title>
<!-- Node1 -->
<g id="Node000001" class="node">
<title>Node1</title>
<g id="a_Node000001"><a xlink:title=" ">
<polygon fill="#999999" stroke="#666666" points="132.25,-51 0,-51 0,-31 132.25,-31 132.25,-51"/>
<text text-anchor="middle" x="66.12" y="-37.5" font-family="Helvetica,sans-Serif" font-size="10.00">CaService::ComputeSpeed</text>
</a>
</g>
</g>
<!-- Node2 -->
<g id="Node000002" class="node">
<title>Node2</title>
<g id="a_Node000002"><a xlink:href="../../d2/d4b/classURandomEngine.html#a794f6be8c1517dba34b61f2b753cb4d3" target="_top" xlink:title=" ">
<polygon fill="white" stroke="#666666" points="309.5,-82 168.25,-82 168.25,-50 309.5,-50 309.5,-82"/>
<text text-anchor="start" x="176.25" y="-68.5" font-family="Helvetica,sans-Serif" font-size="10.00">URandomEngine::GetNormal</text>
<text text-anchor="middle" x="238.88" y="-56.5" font-family="Helvetica,sans-Serif" font-size="10.00">Distribution</text>
</a>
</g>
</g>
<!-- Node1&#45;&gt;Node2 -->
<g id="edge1_Node000001_Node000002" class="edge">
<title>Node1&#45;&gt;Node2</title>
<g id="a_edge1_Node000001_Node000002"><a xlink:title=" ">
<path fill="none" stroke="#63b8ff" d="M132.65,-50.59C140.7,-51.77 148.99,-52.99 157.22,-54.19"/>
<polygon fill="#63b8ff" stroke="#63b8ff" points="156.58,-57.78 166.99,-55.77 157.6,-50.86 156.58,-57.78"/>
</a>
</g>
</g>
<!-- Node3 -->
<g id="Node000003" class="node">
<title>Node3</title>
<g id="a_Node000003"><a xlink:href="../../d5/d70/classACarlaWheeledVehicle.html#a6edcead801fe7eb5c26131370659b287" target="_top" xlink:title="Forward speed in cm/s. Might be negative if goes backwards.">
<polygon fill="white" stroke="#666666" points="305,-32 172.75,-32 172.75,0 305,0 305,-32"/>
<text text-anchor="start" x="180.75" y="-18.5" font-family="Helvetica,sans-Serif" font-size="10.00">ACarlaWheeledVehicle</text>
<text text-anchor="middle" x="238.88" y="-6.5" font-family="Helvetica,sans-Serif" font-size="10.00">::GetVehicleForwardSpeed</text>
</a>
</g>
</g>
<!-- Node1&#45;&gt;Node3 -->
<g id="edge2_Node000001_Node000003" class="edge">
<title>Node1&#45;&gt;Node3</title>
<g id="a_edge2_Node000001_Node000003"><a xlink:title=" ">
<path fill="none" stroke="#63b8ff" d="M132.65,-31.41C142.15,-30.02 152,-28.57 161.68,-27.16"/>
<polygon fill="#63b8ff" stroke="#63b8ff" points="162.13,-30.48 171.52,-25.57 161.12,-23.55 162.13,-30.48"/>
</a>
</g>
</g>
<!-- Node4 -->
<g id="Node000004" class="node">
<title>Node4</title>
<g id="a_Node000004"><a xlink:href="../../d2/d48/classUBaseCarlaMovementComponent.html#a974cdab518603a6b54fa3e3fd8b2c68e" target="_top" xlink:title=" ">
<polygon fill="white" stroke="#666666" points="507,-32 345.5,-32 345.5,0 507,0 507,-32"/>
<text text-anchor="start" x="353.5" y="-18.5" font-family="Helvetica,sans-Serif" font-size="10.00">UBaseCarlaMovementComponent</text>
<text text-anchor="middle" x="426.25" y="-6.5" font-family="Helvetica,sans-Serif" font-size="10.00">::GetVehicleForwardSpeed</text>
</a>
</g>
</g>
<!-- Node3&#45;&gt;Node4 -->
<g id="edge3_Node000003_Node000004" class="edge">
<title>Node3&#45;&gt;Node4</title>
<g id="a_edge3_Node000003_Node000004"><a xlink:title=" ">
<path fill="none" stroke="#63b8ff" d="M305.49,-16C314.8,-16 324.51,-16 334.19,-16"/>
<polygon fill="#63b8ff" stroke="#63b8ff" points="334.09,-19.5 344.09,-16 334.09,-12.5 334.09,-19.5"/>
</a>
</g>
</g>
</g>
</svg>
