<?xml version="1.0" encoding="UTF-8" standalone="no"?>
<!DOCTYPE svg PUBLIC "-//W3C//DTD SVG 1.1//EN"
 "http://www.w3.org/Graphics/SVG/1.1/DTD/svg11.dtd">
<!-- Generated by graphviz version 8.1.0 (20230707.0739)
 -->
<!-- Title: carla::nav::Navigation::AddWalker Pages: 1 -->
<svg width="759pt" height="78pt"
 viewBox="0.00 0.00 758.50 78.00" xmlns="http://www.w3.org/2000/svg" xmlns:xlink="http://www.w3.org/1999/xlink">
<g id="graph0" class="graph" transform="scale(1 1) rotate(0) translate(4 74)">
<title>carla::nav::Navigation::AddWalker</title>
<!-- Node1 -->
<g id="Node000001" class="node">
<title>Node1</title>
<g id="a_Node000001"><a xlink:title="创建新的行人">
<polygon fill="#999999" stroke="#666666" points="107.5,-48 0,-48 0,-16 107.5,-16 107.5,-48"/>
<text text-anchor="start" x="8" y="-34.5" font-family="Helvetica,sans-Serif" font-size="10.00">carla::nav::Navigation</text>
<text text-anchor="middle" x="53.75" y="-22.5" font-family="Helvetica,sans-Serif" font-size="10.00">::AddWalker</text>
</a>
</g>
</g>
<!-- Node2 -->
<g id="Node000002" class="node">
<title>Node2</title>
<g id="a_Node000002"><a xlink:href="../../dd/d5b/classcarla_1_1nav_1_1WalkerManager.html#a2a0ed065945689250a9f81d7eb740016" target="_top" xlink:title=" ">
<polygon fill="white" stroke="#666666" points="275,-70 143.5,-70 143.5,-38 275,-38 275,-70"/>
<text text-anchor="start" x="151.5" y="-56.5" font-family="Helvetica,sans-Serif" font-size="10.00">carla::nav::WalkerManager</text>
<text text-anchor="middle" x="209.25" y="-44.5" font-family="Helvetica,sans-Serif" font-size="10.00">::AddWalker</text>
</a>
</g>
</g>
<!-- Node1&#45;&gt;Node2 -->
<g id="edge1_Node000001_Node000002" class="edge">
<title>Node1&#45;&gt;Node2</title>
<g id="a_edge1_Node000001_Node000002"><a xlink:title=" ">
<path fill="none" stroke="#63b8ff" d="M107.58,-39.57C115.62,-40.72 124.06,-41.93 132.49,-43.14"/>
<polygon fill="#63b8ff" stroke="#63b8ff" points="131.72,-46.71 142.12,-44.67 132.72,-39.78 131.72,-46.71"/>
</a>
</g>
</g>
<!-- Node6 -->
<g id="Node000006" class="node">
<title>Node6</title>
<g id="a_Node000006"><a xlink:href="../../db/dcc/namespacecarla_1_1nav.html#a1653b74e450d94d2dcdb352875bfbf31" target="_top" xlink:title=" ">
<polygon fill="white" stroke="#666666" points="251.38,-20 167.12,-20 167.12,0 251.38,0 251.38,-20"/>
<text text-anchor="middle" x="209.25" y="-6.5" font-family="Helvetica,sans-Serif" font-size="10.00">carla::nav::frand</text>
</a>
</g>
</g>
<!-- Node1&#45;&gt;Node6 -->
<g id="edge5_Node000001_Node000006" class="edge">
<title>Node1&#45;&gt;Node6</title>
<g id="a_edge5_Node000001_Node000006"><a xlink:title=" ">
<path fill="none" stroke="#63b8ff" d="M107.58,-24.43C123.36,-22.17 140.64,-19.69 156.37,-17.44"/>
<polygon fill="#63b8ff" stroke="#63b8ff" points="156.56,-20.8 165.96,-15.92 155.57,-13.87 156.56,-20.8"/>
</a>
</g>
</g>
<!-- Node3 -->
<g id="Node000003" class="node">
<title>Node3</title>
<g id="a_Node000003"><a xlink:href="../../dd/d5b/classcarla_1_1nav_1_1WalkerManager.html#a9289dae0ecd8a03e681939074634730e" target="_top" xlink:title=" ">
<polygon fill="white" stroke="#666666" points="453,-70 311,-70 311,-38 453,-38 453,-70"/>
<text text-anchor="start" x="319" y="-56.5" font-family="Helvetica,sans-Serif" font-size="10.00">carla::nav::WalkerManager</text>
<text text-anchor="middle" x="382" y="-44.5" font-family="Helvetica,sans-Serif" font-size="10.00">::GetAllTrafficLightWaypoints</text>
</a>
</g>
</g>
<!-- Node2&#45;&gt;Node3 -->
<g id="edge2_Node000002_Node000003" class="edge">
<title>Node2&#45;&gt;Node3</title>
<g id="a_edge2_Node000002_Node000003"><a xlink:title=" ">
<path fill="none" stroke="#63b8ff" d="M275.29,-54C283.35,-54 291.67,-54 299.93,-54"/>
<polygon fill="#63b8ff" stroke="#63b8ff" points="299.74,-57.5 309.74,-54 299.74,-50.5 299.74,-57.5"/>
</a>
</g>
</g>
<!-- Node4 -->
<g id="Node000004" class="node">
<title>Node4</title>
<g id="a_Node000004"><a xlink:href="../../db/d1f/classcarla_1_1client_1_1World.html#a4695a58dcf7f3589294b95e3d04cdad7" target="_top" xlink:title="根据id查找actor，如果没有找到则返回nullptr。 通过传入的ActorId参数，在当前模拟世界中查找对应的参与者对象，方便快速定位特定的实体， 比如查找某一辆特定编号的车辆或者某个行人等。">
<polygon fill="white" stroke="#666666" points="586.75,-70 489,-70 489,-38 586.75,-38 586.75,-70"/>
<text text-anchor="start" x="497" y="-56.5" font-family="Helvetica,sans-Serif" font-size="10.00">carla::client::World</text>
<text text-anchor="middle" x="537.88" y="-44.5" font-family="Helvetica,sans-Serif" font-size="10.00">::GetActor</text>
</a>
</g>
</g>
<!-- Node3&#45;&gt;Node4 -->
<g id="edge3_Node000003_Node000004" class="edge">
<title>Node3&#45;&gt;Node4</title>
<g id="a_edge3_Node000003_Node000004"><a xlink:title=" ">
<path fill="none" stroke="#63b8ff" d="M453.18,-54C461.47,-54 469.85,-54 477.96,-54"/>
<polygon fill="#63b8ff" stroke="#63b8ff" points="477.8,-57.5 487.8,-54 477.8,-50.5 477.8,-57.5"/>
</a>
</g>
</g>
<!-- Node5 -->
<g id="Node000005" class="node">
<title>Node5</title>
<g id="a_Node000005"><a xlink:href="../../d1/dd3/classcarla_1_1client_1_1detail_1_1EpisodeProxyImpl.html#aaca857645fbeb6546b4a03a663bb65af" target="_top" xlink:title="与 TryLock 相同，但永远不会返回 nullptr。">
<polygon fill="white" stroke="#666666" points="750.5,-70 622.75,-70 622.75,-38 750.5,-38 750.5,-70"/>
<text text-anchor="start" x="630.75" y="-56.5" font-family="Helvetica,sans-Serif" font-size="10.00">carla::client::detail</text>
<text text-anchor="middle" x="686.62" y="-44.5" font-family="Helvetica,sans-Serif" font-size="10.00">::EpisodeProxyImpl::Lock</text>
</a>
</g>
</g>
<!-- Node4&#45;&gt;Node5 -->
<g id="edge4_Node000004_Node000005" class="edge">
<title>Node4&#45;&gt;Node5</title>
<g id="a_edge4_Node000004_Node000005"><a xlink:title=" ">
<path fill="none" stroke="#63b8ff" d="M586.93,-54C594.83,-54 603.18,-54 611.55,-54"/>
<polygon fill="#63b8ff" stroke="#63b8ff" points="611.51,-57.5 621.51,-54 611.51,-50.5 611.51,-57.5"/>
</a>
</g>
</g>
</g>
</svg>
