<?xml version="1.0" encoding="UTF-8" standalone="no"?>
<!DOCTYPE svg PUBLIC "-//W3C//DTD SVG 1.1//EN"
 "http://www.w3.org/Graphics/SVG/1.1/DTD/svg11.dtd">
<!-- Generated by graphviz version 8.1.0 (20230707.0739)
 -->
<!-- Title: UCarlaLightSubsystem::GetLights Pages: 1 -->
<svg width="921pt" height="65pt"
 viewBox="0.00 0.00 920.75 65.00" xmlns="http://www.w3.org/2000/svg" xmlns:xlink="http://www.w3.org/1999/xlink">
<g id="graph0" class="graph" transform="scale(1 1) rotate(0) translate(4 61)">
<title>UCarlaLightSubsystem::GetLights</title>
<!-- Node1 -->
<g id="Node000001" class="node">
<title>Node1</title>
<g id="a_Node000001"><a xlink:title=" ">
<polygon fill="#999999" stroke="#666666" points="912.75,-35 797,-35 797,-3 912.75,-3 912.75,-35"/>
<text text-anchor="start" x="805" y="-21.5" font-family="Helvetica,sans-Serif" font-size="10.00">UCarlaLightSubsystem</text>
<text text-anchor="middle" x="854.88" y="-9.5" font-family="Helvetica,sans-Serif" font-size="10.00">::GetLights</text>
</a>
</g>
</g>
<!-- Node2 -->
<g id="Node000002" class="node">
<title>Node2</title>
<g id="a_Node000002"><a xlink:href="../../dd/db9/classACarlaRecorder.html#a820569404a522e28f6c4d3d638712214" target="_top" xlink:title=" ">
<polygon fill="white" stroke="#666666" points="761,-57 618.25,-57 618.25,-25 761,-25 761,-57"/>
<text text-anchor="start" x="626.25" y="-43.5" font-family="Helvetica,sans-Serif" font-size="10.00">ACarlaRecorder::AddExisting</text>
<text text-anchor="middle" x="689.62" y="-31.5" font-family="Helvetica,sans-Serif" font-size="10.00">Actors</text>
</a>
</g>
</g>
<!-- Node1&#45;&gt;Node2 -->
<g id="edge1_Node000001_Node000002" class="edge">
<title>Node1&#45;&gt;Node2</title>
<g id="a_edge1_Node000001_Node000002"><a xlink:title=" ">
<path fill="none" stroke="#63b8ff" d="M785.91,-28.16C777.84,-29.25 769.58,-30.36 761.47,-31.45"/>
<polygon fill="#63b8ff" stroke="#63b8ff" points="786.34,-31.5 795.78,-26.69 785.4,-24.56 786.34,-31.5"/>
</a>
</g>
</g>
<!-- Node5 -->
<g id="Node000005" class="node">
<title>Node5</title>
<g id="a_Node000005"><a xlink:href="../../d7/d97/classFCarlaServer_1_1FPimpl.html#a675a6b572112a21e8bc011dddfd0de86" target="_top" xlink:title=" ">
<polygon fill="white" stroke="#666666" points="252.5,-32 144.25,-32 144.25,0 252.5,0 252.5,-32"/>
<text text-anchor="start" x="152.25" y="-18.5" font-family="Helvetica,sans-Serif" font-size="10.00">FCarlaServer::FPimpl</text>
<text text-anchor="middle" x="198.38" y="-6.5" font-family="Helvetica,sans-Serif" font-size="10.00">::BindActions</text>
</a>
</g>
</g>
<!-- Node1&#45;&gt;Node5 -->
<g id="edge6_Node000001_Node000005" class="edge">
<title>Node1&#45;&gt;Node5</title>
<g id="a_edge6_Node000001_Node000005"><a xlink:title=" ">
<path fill="none" stroke="#63b8ff" d="M785.94,-16.55C777.54,-16.32 769.08,-16.13 761,-16 574.3,-12.99 352.65,-14.48 252.81,-15.43"/>
<polygon fill="#63b8ff" stroke="#63b8ff" points="785.81,-20.08 795.91,-16.87 786.01,-13.08 785.81,-20.08"/>
</a>
</g>
</g>
<!-- Node3 -->
<g id="Node000003" class="node">
<title>Node3</title>
<g id="a_Node000003"><a xlink:href="../../dd/db9/classACarlaRecorder.html#aba719596bd56c72a39f902f6e9a5d290" target="_top" xlink:title=" ">
<polygon fill="white" stroke="#666666" points="582.25,-49 471,-49 471,-29 582.25,-29 582.25,-49"/>
<text text-anchor="middle" x="526.62" y="-35.5" font-family="Helvetica,sans-Serif" font-size="10.00">ACarlaRecorder::Start</text>
</a>
</g>
</g>
<!-- Node2&#45;&gt;Node3 -->
<g id="edge2_Node000002_Node000003" class="edge">
<title>Node2&#45;&gt;Node3</title>
<g id="a_edge2_Node000002_Node000003"><a xlink:title=" ">
<path fill="none" stroke="#63b8ff" d="M607.15,-39.99C598.87,-39.88 590.6,-39.78 582.7,-39.68"/>
<polygon fill="#63b8ff" stroke="#63b8ff" points="606.97,-43.5 617.01,-40.12 607.05,-36.5 606.97,-43.5"/>
</a>
</g>
</g>
<!-- Node4 -->
<g id="Node000004" class="node">
<title>Node4</title>
<g id="a_Node000004"><a xlink:href="../../dc/d84/classUCarlaEpisode.html#a1059ce6d102804115b3243de46d46bec" target="_top" xlink:title=" ">
<polygon fill="white" stroke="#666666" points="435,-48 288.5,-48 288.5,-28 435,-28 435,-48"/>
<text text-anchor="middle" x="361.75" y="-34.5" font-family="Helvetica,sans-Serif" font-size="10.00">UCarlaEpisode::StartRecorder</text>
</a>
</g>
</g>
<!-- Node3&#45;&gt;Node4 -->
<g id="edge3_Node000003_Node000004" class="edge">
<title>Node3&#45;&gt;Node4</title>
<g id="a_edge3_Node000003_Node000004"><a xlink:title=" ">
<path fill="none" stroke="#63b8ff" d="M459.99,-38.6C451.84,-38.55 443.48,-38.5 435.23,-38.45"/>
<polygon fill="#63b8ff" stroke="#63b8ff" points="459.92,-42.1 469.94,-38.66 459.96,-35.1 459.92,-42.1"/>
</a>
</g>
</g>
<!-- Node4&#45;&gt;Node5 -->
<g id="edge4_Node000004_Node000005" class="edge">
<title>Node4&#45;&gt;Node5</title>
<g id="a_edge4_Node000004_Node000005"><a xlink:title=" ">
<path fill="none" stroke="#63b8ff" d="M277.19,-26.61C268.9,-25.48 260.65,-24.35 252.79,-23.28"/>
<polygon fill="#63b8ff" stroke="#63b8ff" points="276.71,-30.21 287.09,-28.09 277.65,-23.28 276.71,-30.21"/>
</a>
</g>
</g>
<!-- Node6 -->
<g id="Node000006" class="node">
<title>Node6</title>
<g id="a_Node000006"><a xlink:href="../../d7/d97/classFCarlaServer_1_1FPimpl.html#ab9ff29fc81bd2f9a14677941c7f7b62d" target="_top" xlink:title=" ">
<polygon fill="white" stroke="#666666" points="108.25,-32 0,-32 0,0 108.25,0 108.25,-32"/>
<text text-anchor="start" x="8" y="-18.5" font-family="Helvetica,sans-Serif" font-size="10.00">FCarlaServer::FPimpl</text>
<text text-anchor="middle" x="54.12" y="-6.5" font-family="Helvetica,sans-Serif" font-size="10.00">::FPimpl</text>
</a>
</g>
</g>
<!-- Node5&#45;&gt;Node6 -->
<g id="edge5_Node000005_Node000006" class="edge">
<title>Node5&#45;&gt;Node6</title>
<g id="a_edge5_Node000005_Node000006"><a xlink:title=" ">
<path fill="none" stroke="#63b8ff" d="M133.19,-16C124.87,-16 116.43,-16 108.32,-16"/>
<polygon fill="#63b8ff" stroke="#63b8ff" points="133,-19.5 143,-16 133,-12.5 133,-19.5"/>
</a>
</g>
</g>
</g>
</svg>
