<?xml version="1.0" encoding="UTF-8" standalone="no"?>
<!DOCTYPE svg PUBLIC "-//W3C//DTD SVG 1.1//EN"
 "http://www.w3.org/Graphics/SVG/1.1/DTD/svg11.dtd">
<!-- Generated by graphviz version 8.1.0 (20230707.0739)
 -->
<!-- Title: CarlaSubscriber.h Pages: 1 -->
<svg width="428pt" height="140pt"
 viewBox="0.00 0.00 427.50 140.00" xmlns="http://www.w3.org/2000/svg" xmlns:xlink="http://www.w3.org/1999/xlink">
<g id="graph0" class="graph" transform="scale(1 1) rotate(0) translate(4 136)">
<title>CarlaSubscriber.h</title>
<!-- Node1 -->
<g id="Node000001" class="node">
<title>Node1</title>
<g id="a_Node000001"><a xlink:title=" ">
<polygon fill="#999999" stroke="#666666" points="375.62,-132 282.38,-132 282.38,-112 375.62,-112 375.62,-132"/>
<text text-anchor="middle" x="329" y="-118.5" font-family="Helvetica,sans-Serif" font-size="10.00">CarlaSubscriber.h</text>
</a>
</g>
</g>
<!-- Node2 -->
<g id="Node000002" class="node">
<title>Node2</title>
<g id="a_Node000002"><a xlink:href="../../de/d54/CarlaEgoVehicleControlSubscriber_8h.html" target="_top" xlink:title=" ">
<polygon fill="white" stroke="#666666" points="358.75,-76 185.25,-76 185.25,-56 358.75,-56 358.75,-76"/>
<text text-anchor="middle" x="272" y="-62.5" font-family="Helvetica,sans-Serif" font-size="10.00">CarlaEgoVehicleControlSubscriber.h</text>
</a>
</g>
</g>
<!-- Node1&#45;&gt;Node2 -->
<g id="edge1_Node000001_Node000002" class="edge">
<title>Node1&#45;&gt;Node2</title>
<g id="a_edge1_Node000001_Node000002"><a xlink:title=" ">
<path fill="none" stroke="#63b8ff" d="M311.19,-104.13C301.49,-94.94 289.87,-83.93 281.81,-76.3"/>
<polygon fill="#63b8ff" stroke="#63b8ff" points="308.4,-106.26 318.07,-110.59 313.22,-101.18 308.4,-106.26"/>
</a>
</g>
</g>
<!-- Node5 -->
<g id="Node000005" class="node">
<title>Node5</title>
<g id="a_Node000005"><a xlink:href="../../dd/d14/ROS2_8cpp.html" target="_top" xlink:title=" ">
<polygon fill="white" stroke="#666666" points="419.5,-20 358.5,-20 358.5,0 419.5,0 419.5,-20"/>
<text text-anchor="middle" x="389" y="-6.5" font-family="Helvetica,sans-Serif" font-size="10.00">ROS2.cpp</text>
</a>
</g>
</g>
<!-- Node1&#45;&gt;Node5 -->
<g id="edge5_Node000001_Node000005" class="edge">
<title>Node1&#45;&gt;Node5</title>
<g id="a_edge5_Node000001_Node000005"><a xlink:title=" ">
<path fill="none" stroke="#63b8ff" d="M346.81,-103.8C354.19,-95.89 362.33,-86.05 368,-76 378.37,-57.61 384.47,-33.37 387.23,-20.3"/>
<polygon fill="#63b8ff" stroke="#63b8ff" points="344.74,-100.93 340.26,-110.53 349.75,-105.82 344.74,-100.93"/>
</a>
</g>
</g>
<!-- Node3 -->
<g id="Node000003" class="node">
<title>Node3</title>
<g id="a_Node000003"><a xlink:href="../../da/d9b/CarlaEgoVehicleControlSubscriber_8cpp.html" target="_top" xlink:title=" ">
<polygon fill="white" stroke="#666666" points="184,-20 0,-20 0,0 184,0 184,-20"/>
<text text-anchor="middle" x="92" y="-6.5" font-family="Helvetica,sans-Serif" font-size="10.00">CarlaEgoVehicleControlSubscriber.cpp</text>
</a>
</g>
</g>
<!-- Node2&#45;&gt;Node3 -->
<g id="edge2_Node000002_Node000003" class="edge">
<title>Node2&#45;&gt;Node3</title>
<g id="a_edge2_Node000002_Node000003"><a xlink:title=" ">
<path fill="none" stroke="#63b8ff" d="M230.53,-52.56C197.97,-42.79 153.31,-29.39 123.6,-20.48"/>
<polygon fill="#63b8ff" stroke="#63b8ff" points="229.06,-56.07 239.65,-55.59 231.07,-49.37 229.06,-56.07"/>
</a>
</g>
</g>
<!-- Node4 -->
<g id="Node000004" class="node">
<title>Node4</title>
<g id="a_Node000004"><a xlink:href="../../d1/d58/CarlaSubscriberListener_8cpp.html" target="_top" xlink:title=" ">
<polygon fill="white" stroke="#666666" points="340.12,-20 201.88,-20 201.88,0 340.12,0 340.12,-20"/>
<text text-anchor="middle" x="271" y="-6.5" font-family="Helvetica,sans-Serif" font-size="10.00">CarlaSubscriberListener.cpp</text>
</a>
</g>
</g>
<!-- Node2&#45;&gt;Node4 -->
<g id="edge3_Node000002_Node000004" class="edge">
<title>Node2&#45;&gt;Node4</title>
<g id="a_edge3_Node000002_Node000004"><a xlink:title=" ">
<path fill="none" stroke="#63b8ff" d="M271.62,-44.71C271.47,-36.32 271.3,-27.01 271.17,-20.3"/>
<polygon fill="#63b8ff" stroke="#63b8ff" points="268.14,-44.66 271.83,-54.59 275.14,-44.53 268.14,-44.66"/>
</a>
</g>
</g>
<!-- Node2&#45;&gt;Node5 -->
<g id="edge4_Node000002_Node000005" class="edge">
<title>Node2&#45;&gt;Node5</title>
<g id="a_edge4_Node000002_Node000005"><a xlink:title=" ">
<path fill="none" stroke="#63b8ff" d="M302.31,-51.01C323.11,-41.41 350.15,-28.93 368.46,-20.48"/>
<polygon fill="#63b8ff" stroke="#63b8ff" points="300.99,-48.23 293.38,-55.59 303.93,-54.58 300.99,-48.23"/>
</a>
</g>
</g>
</g>
</svg>
