<?xml version="1.0" encoding="UTF-8" standalone="no"?>
<!DOCTYPE svg PUBLIC "-//W3C//DTD SVG 1.1//EN"
 "http://www.w3.org/Graphics/SVG/1.1/DTD/svg11.dtd">
<!-- Generated by graphviz version 8.1.0 (20230707.0739)
 -->
<!-- Title: xml_allocator::reserve Pages: 1 -->
<svg width="680pt" height="284pt"
 viewBox="0.00 0.00 679.75 284.00" xmlns="http://www.w3.org/2000/svg" xmlns:xlink="http://www.w3.org/1999/xlink">
<g id="graph0" class="graph" transform="scale(1 1) rotate(0) translate(4 280)">
<title>xml_allocator::reserve</title>
<!-- Node1 -->
<g id="Node000001" class="node">
<title>Node1</title>
<g id="a_Node000001"><a xlink:title=" ">
<polygon fill="#999999" stroke="#666666" points="671.75,-229 561.25,-229 561.25,-209 671.75,-209 671.75,-229"/>
<text text-anchor="middle" x="616.5" y="-215.5" font-family="Helvetica,sans-Serif" font-size="10.00">xml_allocator::reserve</text>
</a>
</g>
</g>
<!-- Node2 -->
<g id="Node000002" class="node">
<title>Node2</title>
<g id="a_Node000002"><a xlink:href="../../db/d20/pugixml_8cpp.html#a5bef4fc5debd433356aa4b027b25ffc8" target="_top" xlink:title=" ">
<polygon fill="white" stroke="#666666" points="525.25,-229 414.75,-229 414.75,-209 525.25,-209 525.25,-229"/>
<text text-anchor="middle" x="470" y="-215.5" font-family="Helvetica,sans-Serif" font-size="10.00">append_new_attribute</text>
</a>
</g>
</g>
<!-- Node1&#45;&gt;Node2 -->
<g id="edge1_Node000001_Node000002" class="edge">
<title>Node1&#45;&gt;Node2</title>
<g id="a_edge1_Node000001_Node000002"><a xlink:title=" ">
<path fill="none" stroke="#63b8ff" d="M549.93,-219C541.83,-219 533.62,-219 525.71,-219"/>
<polygon fill="#63b8ff" stroke="#63b8ff" points="549.87,-222.5 559.87,-219 549.87,-215.5 549.87,-222.5"/>
</a>
</g>
</g>
<!-- Node7 -->
<g id="Node000007" class="node">
<title>Node7</title>
<g id="a_Node000007"><a xlink:href="../../db/d20/pugixml_8cpp.html#a862c167fed8376b442cbd33ff981ce30" target="_top" xlink:title=" ">
<polygon fill="white" stroke="#666666" points="518.12,-276 421.88,-276 421.88,-256 518.12,-256 518.12,-276"/>
<text text-anchor="middle" x="470" y="-262.5" font-family="Helvetica,sans-Serif" font-size="10.00">append_new_node</text>
</a>
</g>
</g>
<!-- Node1&#45;&gt;Node7 -->
<g id="edge6_Node000001_Node000007" class="edge">
<title>Node1&#45;&gt;Node7</title>
<g id="a_edge6_Node000001_Node000007"><a xlink:title=" ">
<path fill="none" stroke="#63b8ff" d="M573.21,-232.76C550.86,-240.03 523.86,-248.81 503.23,-255.52"/>
<polygon fill="#63b8ff" stroke="#63b8ff" points="574,-235.85 582.43,-229.43 571.84,-229.2 574,-235.85"/>
</a>
</g>
</g>
<!-- Node8 -->
<g id="Node000008" class="node">
<title>Node8</title>
<g id="a_Node000008"><a xlink:href="../../db/d20/pugixml_8cpp.html#add4b0e8189d4e27898f1cf863cda4f80" target="_top" xlink:title=" ">
<polygon fill="white" stroke="#666666" points="505.75,-134 434.25,-134 434.25,-114 505.75,-114 505.75,-134"/>
<text text-anchor="middle" x="470" y="-120.5" font-family="Helvetica,sans-Serif" font-size="10.00">strcpy_insitu</text>
</a>
</g>
</g>
<!-- Node1&#45;&gt;Node8 -->
<g id="edge8_Node000001_Node000008" class="edge">
<title>Node1&#45;&gt;Node8</title>
<g id="a_edge8_Node000001_Node000008"><a xlink:title=" ">
<path fill="none" stroke="#63b8ff" d="M590.82,-202.78C561.02,-183.19 511.79,-150.82 486.72,-134.33"/>
<polygon fill="#63b8ff" stroke="#63b8ff" points="588.48,-206.08 598.76,-208.65 592.33,-200.23 588.48,-206.08"/>
</a>
</g>
</g>
<!-- Node3 -->
<g id="Node000003" class="node">
<title>Node3</title>
<g id="a_Node000003"><a xlink:href="../../db/d20/pugixml_8cpp.html#a2b5c5c36dd22c98e54dbe1d1269f6e9b" target="_top" xlink:title=" ">
<polygon fill="white" stroke="#666666" points="227,-210 121,-210 121,-190 227,-190 227,-210"/>
<text text-anchor="middle" x="174" y="-196.5" font-family="Helvetica,sans-Serif" font-size="10.00">node_copy_contents</text>
</a>
</g>
</g>
<!-- Node2&#45;&gt;Node3 -->
<g id="edge2_Node000002_Node000003" class="edge">
<title>Node2&#45;&gt;Node3</title>
<g id="a_edge2_Node000002_Node000003"><a xlink:title=" ">
<path fill="none" stroke="#63b8ff" d="M403.72,-214.78C350.61,-211.35 276.62,-206.57 227.34,-203.38"/>
<polygon fill="#63b8ff" stroke="#63b8ff" points="403.18,-218.32 413.39,-215.47 403.64,-211.33 403.18,-218.32"/>
</a>
</g>
</g>
<!-- Node5 -->
<g id="Node000005" class="node">
<title>Node5</title>
<g id="a_Node000005"><a xlink:href="../../db/db4/structxml__parser.html#a35bac90f1975aa1a9d5de4b60b761f16" target="_top" xlink:title=" ">
<polygon fill="white" stroke="#666666" points="378.75,-248 263,-248 263,-228 378.75,-228 378.75,-248"/>
<text text-anchor="middle" x="320.88" y="-234.5" font-family="Helvetica,sans-Serif" font-size="10.00">xml_parser::parse_tree</text>
</a>
</g>
</g>
<!-- Node2&#45;&gt;Node5 -->
<g id="edge4_Node000002_Node000005" class="edge">
<title>Node2&#45;&gt;Node5</title>
<g id="a_edge4_Node000002_Node000005"><a xlink:title=" ">
<path fill="none" stroke="#63b8ff" d="M403.85,-227.41C395.56,-228.48 387.13,-229.57 378.98,-230.63"/>
<polygon fill="#63b8ff" stroke="#63b8ff" points="404.16,-230.77 413.63,-226.02 403.27,-223.83 404.16,-230.77"/>
</a>
</g>
</g>
<!-- Node4 -->
<g id="Node000004" class="node">
<title>Node4</title>
<g id="a_Node000004"><a xlink:href="../../db/d20/pugixml_8cpp.html#a25fed5bc5932c710ca03917ac173f6d1" target="_top" xlink:title=" ">
<polygon fill="white" stroke="#666666" points="85,-248 0,-248 0,-228 85,-228 85,-248"/>
<text text-anchor="middle" x="42.5" y="-234.5" font-family="Helvetica,sans-Serif" font-size="10.00">node_copy_tree</text>
</a>
</g>
</g>
<!-- Node3&#45;&gt;Node4 -->
<g id="edge3_Node000003_Node000004" class="edge">
<title>Node3&#45;&gt;Node4</title>
<g id="a_edge3_Node000003_Node000004"><a xlink:title=" ">
<path fill="none" stroke="#63b8ff" d="M126.73,-213.58C111.06,-218.18 93.82,-223.23 79.11,-227.55"/>
<polygon fill="#63b8ff" stroke="#63b8ff" points="127.66,-216.66 136.27,-210.48 125.69,-209.94 127.66,-216.66"/>
</a>
</g>
</g>
<!-- Node6 -->
<g id="Node000006" class="node">
<title>Node6</title>
<g id="a_Node000006"><a xlink:href="../../db/db4/structxml__parser.html#a4bf0acd166edf3fc6cc9543002ff6f5d" target="_top" xlink:title=" ">
<polygon fill="white" stroke="#666666" points="221,-248 127,-248 127,-228 221,-228 221,-248"/>
<text text-anchor="middle" x="174" y="-234.5" font-family="Helvetica,sans-Serif" font-size="10.00">xml_parser::parse</text>
</a>
</g>
</g>
<!-- Node5&#45;&gt;Node6 -->
<g id="edge5_Node000005_Node000006" class="edge">
<title>Node5&#45;&gt;Node6</title>
<g id="a_edge5_Node000005_Node000006"><a xlink:title=" ">
<path fill="none" stroke="#63b8ff" d="M251.86,-238C241.45,-238 230.93,-238 221.14,-238"/>
<polygon fill="#63b8ff" stroke="#63b8ff" points="251.62,-241.5 261.62,-238 251.62,-234.5 251.62,-241.5"/>
</a>
</g>
</g>
<!-- Node7&#45;&gt;Node4 -->
<g id="edge7_Node000007_Node000004" class="edge">
<title>Node7&#45;&gt;Node4</title>
<g id="a_edge7_Node000007_Node000004"><a xlink:title=" ">
<path fill="none" stroke="#63b8ff" d="M410.77,-268.29C341.41,-270.14 222.21,-270.56 121,-257 107.13,-255.14 92.14,-251.79 79.08,-248.42"/>
<polygon fill="#63b8ff" stroke="#63b8ff" points="410.57,-271.77 420.46,-267.98 410.37,-264.77 410.57,-271.77"/>
</a>
</g>
</g>
<!-- Node9 -->
<g id="Node000009" class="node">
<title>Node9</title>
<g id="a_Node000009"><a xlink:href="../../db/d20/pugixml_8cpp.html#a05e81501deb4a3abe96a3da900711eb6" target="_top" xlink:title=" ">
<polygon fill="white" stroke="#666666" points="367.12,-96 274.62,-96 274.62,-76 367.12,-76 367.12,-96"/>
<text text-anchor="middle" x="320.88" y="-82.5" font-family="Helvetica,sans-Serif" font-size="10.00">node_copy_string</text>
</a>
</g>
</g>
<!-- Node8&#45;&gt;Node9 -->
<g id="edge9_Node000008_Node000009" class="edge">
<title>Node8&#45;&gt;Node9</title>
<g id="a_edge9_Node000008_Node000009"><a xlink:title=" ">
<path fill="none" stroke="#63b8ff" d="M423.28,-112.19C403.76,-107.15 381.18,-101.32 362.29,-96.44"/>
<polygon fill="#63b8ff" stroke="#63b8ff" points="422.2,-115.79 432.76,-114.9 423.95,-109.01 422.2,-115.79"/>
</a>
</g>
</g>
<!-- Node11 -->
<g id="Node000011" class="node">
<title>Node11</title>
<g id="a_Node000011"><a xlink:href="../../db/d20/pugixml_8cpp.html#ac697150045f8a021e42c1c1a028740fd" target="_top" xlink:title=" ">
<polygon fill="white" stroke="#666666" points="361.88,-58 279.88,-58 279.88,-38 361.88,-38 361.88,-58"/>
<text text-anchor="middle" x="320.88" y="-44.5" font-family="Helvetica,sans-Serif" font-size="10.00">set_value_ascii</text>
</a>
</g>
</g>
<!-- Node8&#45;&gt;Node11 -->
<g id="edge12_Node000008_Node000011" class="edge">
<title>Node8&#45;&gt;Node11</title>
<g id="a_edge12_Node000008_Node000011"><a xlink:title=" ">
<path fill="none" stroke="#63b8ff" d="M446.42,-107.58C428.67,-95.22 402.99,-78.5 378.75,-67 372.07,-63.83 364.72,-60.96 357.59,-58.46"/>
<polygon fill="#63b8ff" stroke="#63b8ff" points="443.74,-110.68 453.92,-113.59 447.78,-104.96 443.74,-110.68"/>
</a>
</g>
</g>
<!-- Node14 -->
<g id="Node000014" class="node">
<title>Node14</title>
<g id="a_Node000014"><a xlink:href="../../db/d20/pugixml_8cpp.html#a36fe7c523cde4627c23a7ae75ec7e954" target="_top" xlink:title=" ">
<polygon fill="white" stroke="#666666" points="360.75,-134 281,-134 281,-114 360.75,-114 360.75,-134"/>
<text text-anchor="middle" x="320.88" y="-120.5" font-family="Helvetica,sans-Serif" font-size="10.00">set_value_bool</text>
</a>
</g>
</g>
<!-- Node8&#45;&gt;Node14 -->
<g id="edge15_Node000008_Node000014" class="edge">
<title>Node8&#45;&gt;Node14</title>
<g id="a_edge15_Node000008_Node000014"><a xlink:title=" ">
<path fill="none" stroke="#63b8ff" d="M422.83,-124C403.05,-124 380.19,-124 361.23,-124"/>
<polygon fill="#63b8ff" stroke="#63b8ff" points="422.76,-127.5 432.76,-124 422.76,-120.5 422.76,-127.5"/>
</a>
</g>
</g>
<!-- Node15 -->
<g id="Node000015" class="node">
<title>Node15</title>
<g id="a_Node000015"><a xlink:href="../../db/d20/pugixml_8cpp.html#a237750ca33ed3f13b1c3f80d0aadc93e" target="_top" xlink:title=" ">
<polygon fill="white" stroke="#666666" points="366.38,-172 275.38,-172 275.38,-152 366.38,-152 366.38,-172"/>
<text text-anchor="middle" x="320.88" y="-158.5" font-family="Helvetica,sans-Serif" font-size="10.00">set_value_integer</text>
</a>
</g>
</g>
<!-- Node8&#45;&gt;Node15 -->
<g id="edge16_Node000008_Node000015" class="edge">
<title>Node8&#45;&gt;Node15</title>
<g id="a_edge16_Node000008_Node000015"><a xlink:title=" ">
<path fill="none" stroke="#63b8ff" d="M423.28,-135.81C403.76,-140.85 381.18,-146.68 362.29,-151.56"/>
<polygon fill="#63b8ff" stroke="#63b8ff" points="423.95,-138.99 432.76,-133.1 422.2,-132.21 423.95,-138.99"/>
</a>
</g>
</g>
<!-- Node9&#45;&gt;Node3 -->
<g id="edge11_Node000009_Node000003" class="edge">
<title>Node9&#45;&gt;Node3</title>
<g id="a_edge11_Node000009_Node000003"><a xlink:title=" ">
<path fill="none" stroke="#63b8ff" d="M270.22,-100.86C267.72,-102.14 265.3,-103.52 263,-105 226.73,-128.4 195.36,-170.14 181.95,-189.54"/>
<polygon fill="#63b8ff" stroke="#63b8ff" points="271.45,-103.7 279.14,-96.4 268.58,-97.31 271.45,-103.7"/>
</a>
</g>
</g>
<!-- Node10 -->
<g id="Node000010" class="node">
<title>Node10</title>
<g id="a_Node000010"><a xlink:href="../../db/d20/pugixml_8cpp.html#a1ebf3f9e23bb17f7cc6f4ae26e5abdb8" target="_top" xlink:title=" ">
<polygon fill="white" stroke="#666666" points="225.88,-96 122.12,-96 122.12,-76 225.88,-76 225.88,-96"/>
<text text-anchor="middle" x="174" y="-82.5" font-family="Helvetica,sans-Serif" font-size="10.00">node_copy_attribute</text>
</a>
</g>
</g>
<!-- Node9&#45;&gt;Node10 -->
<g id="edge10_Node000009_Node000010" class="edge">
<title>Node9&#45;&gt;Node10</title>
<g id="a_edge10_Node000009_Node000010"><a xlink:title=" ">
<path fill="none" stroke="#63b8ff" d="M263.81,-86C251.47,-86 238.47,-86 226.34,-86"/>
<polygon fill="#63b8ff" stroke="#63b8ff" points="263.43,-89.5 273.43,-86 263.43,-82.5 263.43,-89.5"/>
</a>
</g>
</g>
<!-- Node12 -->
<g id="Node000012" class="node">
<title>Node12</title>
<g id="a_Node000012"><a xlink:href="../../db/d20/pugixml_8cpp.html#a9511ed80c582c8e36805c6df5714b56a" target="_top" xlink:title=" ">
<polygon fill="white" stroke="#666666" points="220.25,-20 127.75,-20 127.75,0 220.25,0 220.25,-20"/>
<text text-anchor="middle" x="174" y="-6.5" font-family="Helvetica,sans-Serif" font-size="10.00">set_value_convert</text>
</a>
</g>
</g>
<!-- Node11&#45;&gt;Node12 -->
<g id="edge13_Node000011_Node000012" class="edge">
<title>Node11&#45;&gt;Node12</title>
<g id="a_edge13_Node000011_Node000012"><a xlink:title=" ">
<path fill="none" stroke="#63b8ff" d="M269.37,-34.75C251.51,-30.07 231.69,-24.87 214.84,-20.45"/>
<polygon fill="#63b8ff" stroke="#63b8ff" points="268.34,-38.36 278.9,-37.52 270.12,-31.59 268.34,-38.36"/>
</a>
</g>
</g>
<!-- Node13 -->
<g id="Node000013" class="node">
<title>Node13</title>
<g id="a_Node000013"><a xlink:href="../../db/d20/pugixml_8cpp.html#a920fbf56eb3b5360583952e8c08000b3" target="_top" xlink:title=" ">
<polygon fill="white" stroke="#666666" points="220.25,-58 127.75,-58 127.75,-38 220.25,-38 220.25,-58"/>
<text text-anchor="middle" x="174" y="-44.5" font-family="Helvetica,sans-Serif" font-size="10.00">set_value_convert</text>
</a>
</g>
</g>
<!-- Node11&#45;&gt;Node13 -->
<g id="edge14_Node000011_Node000013" class="edge">
<title>Node11&#45;&gt;Node13</title>
<g id="a_edge14_Node000011_Node000013"><a xlink:title=" ">
<path fill="none" stroke="#63b8ff" d="M268.88,-48C253.12,-48 235.86,-48 220.5,-48"/>
<polygon fill="#63b8ff" stroke="#63b8ff" points="268.52,-51.5 278.52,-48 268.52,-44.5 268.52,-51.5"/>
</a>
</g>
</g>
</g>
</svg>
