<?xml version="1.0" encoding="UTF-8" standalone="no"?>
<!DOCTYPE svg PUBLIC "-//W3C//DTD SVG 1.1//EN"
 "http://www.w3.org/Graphics/SVG/1.1/DTD/svg11.dtd">
<!-- Generated by graphviz version 8.1.0 (20230707.0739)
 -->
<!-- Title: carla::BufferView::end Pages: 1 -->
<svg width="388pt" height="66pt"
 viewBox="0.00 0.00 387.50 66.00" xmlns="http://www.w3.org/2000/svg" xmlns:xlink="http://www.w3.org/1999/xlink">
<g id="graph0" class="graph" transform="scale(1 1) rotate(0) translate(4 62)">
<title>carla::BufferView::end</title>
<!-- Node1 -->
<g id="Node000001" class="node">
<title>Node1</title>
<g id="a_Node000001"><a xlink:title=" ">
<polygon fill="#999999" stroke="#666666" points="110.5,-39 0,-39 0,-19 110.5,-19 110.5,-39"/>
<text text-anchor="middle" x="55.25" y="-25.5" font-family="Helvetica,sans-Serif" font-size="10.00">carla::BufferView::end</text>
</a>
</g>
</g>
<!-- Node2 -->
<g id="Node000002" class="node">
<title>Node2</title>
<g id="a_Node000002"><a xlink:href="../../d0/d0a/classcarla_1_1Buffer.html#a3fa645d9dfbc14a4f0f4d5f6ab2ae2c7" target="_top" xlink:title=" ">
<polygon fill="white" stroke="#666666" points="241.25,-39 146.5,-39 146.5,-19 241.25,-19 241.25,-39"/>
<text text-anchor="middle" x="193.88" y="-25.5" font-family="Helvetica,sans-Serif" font-size="10.00">carla::Buffer::cend</text>
</a>
</g>
</g>
<!-- Node1&#45;&gt;Node2 -->
<g id="edge1_Node000001_Node000002" class="edge">
<title>Node1&#45;&gt;Node2</title>
<g id="a_edge1_Node000001_Node000002"><a xlink:title=" ">
<path fill="none" stroke="#63b8ff" d="M110.64,-29C118.72,-29 127.08,-29 135.23,-29"/>
<polygon fill="#63b8ff" stroke="#63b8ff" points="135.16,-32.5 145.16,-29 135.16,-25.5 135.16,-32.5"/>
</a>
</g>
</g>
<!-- Node3 -->
<g id="Node000003" class="node">
<title>Node3</title>
<g id="a_Node000003"><a xlink:href="../../d0/d0a/classcarla_1_1Buffer.html#acbf9f37162db2ddffaf2ae2bfb9fd8a5" target="_top" xlink:title=" ">
<polygon fill="white" stroke="#666666" points="379.5,-58 277.25,-58 277.25,-38 379.5,-38 379.5,-58"/>
<text text-anchor="middle" x="328.38" y="-44.5" font-family="Helvetica,sans-Serif" font-size="10.00">carla::Buffer::cbegin</text>
</a>
</g>
</g>
<!-- Node2&#45;&gt;Node3 -->
<g id="edge2_Node000002_Node000003" class="edge">
<title>Node2&#45;&gt;Node3</title>
<g id="a_edge2_Node000002_Node000003"><a xlink:title=" ">
<path fill="none" stroke="#63b8ff" d="M241.59,-35.7C249.57,-36.84 257.96,-38.05 266.25,-39.23"/>
<polygon fill="#63b8ff" stroke="#63b8ff" points="265.64,-42.83 276.03,-40.78 266.63,-35.9 265.64,-42.83"/>
</a>
</g>
</g>
<!-- Node4 -->
<g id="Node000004" class="node">
<title>Node4</title>
<g id="a_Node000004"><a xlink:href="../../d0/d0a/classcarla_1_1Buffer.html#a3edea2e44a05d9806312e5f9e52315e4" target="_top" xlink:title=" ">
<polygon fill="white" stroke="#666666" points="374.25,-20 282.5,-20 282.5,0 374.25,0 374.25,-20"/>
<text text-anchor="middle" x="328.38" y="-6.5" font-family="Helvetica,sans-Serif" font-size="10.00">carla::Buffer::size</text>
</a>
</g>
</g>
<!-- Node2&#45;&gt;Node4 -->
<g id="edge3_Node000002_Node000004" class="edge">
<title>Node2&#45;&gt;Node4</title>
<g id="a_edge3_Node000002_Node000004"><a xlink:title=" ">
<path fill="none" stroke="#63b8ff" d="M241.59,-22.3C251.33,-20.9 261.69,-19.42 271.71,-17.98"/>
<polygon fill="#63b8ff" stroke="#63b8ff" points="272.01,-21.33 281.42,-16.45 271.02,-14.4 272.01,-21.33"/>
</a>
</g>
</g>
</g>
</svg>
