<?xml version="1.0" encoding="UTF-8" standalone="no"?>
<!DOCTYPE svg PUBLIC "-//W3C//DTD SVG 1.1//EN"
 "http://www.w3.org/Graphics/SVG/1.1/DTD/svg11.dtd">
<!-- Generated by graphviz version 8.1.0 (20230707.0739)
 -->
<!-- Title: CarlaRecorderPosition::Read Pages: 1 -->
<!--zoomable 316 -->

<svg id="main" version="1.1" xmlns="http://www.w3.org/2000/svg" xmlns:xlink="http://www.w3.org/1999/xlink" xml:space="preserve" onload="init(evt)">
<style type="text/css"><![CDATA[
.node, .edge {opacity: 0.7;}
.node.selected, .edge.selected {opacity: 1;}
.edge:hover path { stroke: red; }
.edge:hover polygon { stroke: red; fill: red; }
]]></style>

<defs>
  <circle id="rim" cx="0" cy="0" r="7"/>
  <circle id="rim2" cx="0" cy="0" r="3.5"/>
  <g id="zoomPlus">
    <use xlink:href="#rim" fill="#404040"><set attributeName="fill" to="#808080" begin="zoomplus.mouseover" end="zoomplus.mouseout"/></use>
    <path d="M-4,0h8M0,-4v8" fill="none" stroke="white" stroke-width="1.5" pointer-events="none"/>
  </g>
  <g id="zoomMin">
    <use xlink:href="#rim" fill="#404040"><set attributeName="fill" to="#808080" begin="zoomminus.mouseover" end="zoomminus.mouseout"/></use>
    <path d="M-4,0h8" fill="none" stroke="white" stroke-width="1.5" pointer-events="none"/>
  </g>
  <g id="arrowUp" transform="translate(30 24)">
    <use xlink:href="#rim"/>
    <path pointer-events="none" fill="none" stroke="white" stroke-width="1.5" d="M0,-3.0v7 M-2.5,-0.5L0,-3.0L2.5,-0.5"/>
  </g>
  <g id="arrowRight" transform="rotate(90) translate(36 -43)">
    <use xlink:href="#rim"/>
    <path pointer-events="none" fill="none" stroke="white" stroke-width="1.5" d="M0,-3.0v7 M-2.5,-0.5L0,-3.0L2.5,-0.5"/>
  </g>
  <g id="arrowDown" transform="rotate(180) translate(-30 -48)">
    <use xlink:href="#rim"/>
    <path pointer-events="none" fill="none" stroke="white" stroke-width="1.5" d="M0,-3.0v7 M-2.5,-0.5L0,-3.0L2.5,-0.5"/>
  </g>
  <g id="arrowLeft" transform="rotate(270) translate(-36 17)">
    <use xlink:href="#rim"/>
    <path pointer-events="none" fill="none" stroke="white" stroke-width="1.5" d="M0,-3.0v7 M-2.5,-0.5L0,-3.0L2.5,-0.5"/>
  </g>
  <g id="resetDef">
    <use xlink:href="#rim2" fill="#404040"><set attributeName="fill" to="#808080" begin="reset.mouseover" end="reset.mouseout"/></use>
  </g>
</defs>
<script type="application/ecmascript">
var viewWidth = 999;
var viewHeight = 316;
var sectionId = 'dynsection-2';
</script>
<script type="application/ecmascript" xlink:href="../../svg.min.js"/>
<svg id="graph" class="graph">
<g id="viewport">
<title>CarlaRecorderPosition::Read</title>
<!-- Node1 -->
<g id="Node000001" class="node">
<title>Node1</title>
<g id="a_Node000001"><a xlink:title=" ">
<polygon fill="#999999" stroke="#666666" points="990.75,-107 878,-107 878,-75 990.75,-75 990.75,-107"/>
<text text-anchor="start" x="886" y="-93.5" font-family="Helvetica,sans-Serif" font-size="10.00">CarlaRecorderPosition</text>
<text text-anchor="middle" x="934.38" y="-81.5" font-family="Helvetica,sans-Serif" font-size="10.00">::Read</text>
</a>
</g>
</g>
<!-- Node2 -->
<g id="Node000002" class="node">
<title>Node2</title>
<g id="a_Node000002"><a xlink:href="../../dc/dc6/classCarlaReplayer.html#a5541e07e46c1aa34571834f7bcceb243" target="_top" xlink:title=" ">
<polygon fill="white" stroke="#666666" points="842,-170 682.75,-170 682.75,-150 842,-150 842,-170"/>
<text text-anchor="middle" x="762.38" y="-156.5" font-family="Helvetica,sans-Serif" font-size="10.00">CarlaReplayer::ProcessPositions</text>
</a>
</g>
</g>
<!-- Node1&#45;&gt;Node2 -->
<g id="edge1_Node000001_Node000002" class="edge">
<title>Node1&#45;&gt;Node2</title>
<g id="a_edge1_Node000001_Node000002"><a xlink:title=" ">
<path fill="none" stroke="#63b8ff" d="M898.56,-112.88C881.93,-122.58 861.46,-133.48 842,-141 833.49,-144.29 824.23,-147.14 815.15,-149.55"/>
<polygon fill="#63b8ff" stroke="#63b8ff" points="900.06,-115.46 906.87,-107.34 896.48,-109.45 900.06,-115.46"/>
</a>
</g>
</g>
<!-- Node14 -->
<g id="Node000014" class="node">
<title>Node14</title>
<g id="a_Node000014"><a xlink:href="../../df/d24/classCarlaRecorderQuery.html#a824de476f66ff99b52e1008c1d88b3ad" target="_top" xlink:title=" ">
<polygon fill="white" stroke="#666666" points="814.25,-132 710.5,-132 710.5,-100 814.25,-100 814.25,-132"/>
<text text-anchor="start" x="718.5" y="-118.5" font-family="Helvetica,sans-Serif" font-size="10.00">CarlaRecorderQuery</text>
<text text-anchor="middle" x="762.38" y="-106.5" font-family="Helvetica,sans-Serif" font-size="10.00">::QueryBlocked</text>
</a>
</g>
</g>
<!-- Node1&#45;&gt;Node14 -->
<g id="edge17_Node000001_Node000014" class="edge">
<title>Node1&#45;&gt;Node14</title>
<g id="a_edge17_Node000001_Node000014"><a xlink:title=" ">
<path fill="none" stroke="#63b8ff" d="M867.03,-100.76C849.6,-103.32 831.06,-106.05 814.56,-108.47"/>
<polygon fill="#63b8ff" stroke="#63b8ff" points="867.33,-104.1 876.71,-99.19 866.31,-97.18 867.33,-104.1"/>
</a>
</g>
</g>
<!-- Node16 -->
<g id="Node000016" class="node">
<title>Node16</title>
<g id="a_Node000016"><a xlink:href="../../df/d24/classCarlaRecorderQuery.html#afca6ea52a00461c2b4260c2763b81163" target="_top" xlink:title=" ">
<polygon fill="white" stroke="#666666" points="814.25,-82 710.5,-82 710.5,-50 814.25,-50 814.25,-82"/>
<text text-anchor="start" x="718.5" y="-68.5" font-family="Helvetica,sans-Serif" font-size="10.00">CarlaRecorderQuery</text>
<text text-anchor="middle" x="762.38" y="-56.5" font-family="Helvetica,sans-Serif" font-size="10.00">::QueryInfo</text>
</a>
</g>
</g>
<!-- Node1&#45;&gt;Node16 -->
<g id="edge19_Node000001_Node000016" class="edge">
<title>Node1&#45;&gt;Node16</title>
<g id="a_edge19_Node000001_Node000016"><a xlink:title=" ">
<path fill="none" stroke="#63b8ff" d="M867.03,-81.24C849.6,-78.68 831.06,-75.95 814.56,-73.53"/>
<polygon fill="#63b8ff" stroke="#63b8ff" points="866.31,-84.82 876.71,-82.81 867.33,-77.9 866.31,-84.82"/>
</a>
</g>
</g>
<!-- Node18 -->
<g id="Node000018" class="node">
<title>Node18</title>
<g id="a_Node000018"><a xlink:href="../../da/df1/classCarlaRecorderPositions.html#adbdbfe2a8a981d6467ca0a77cb6d2368" target="_top" xlink:title=" ">
<polygon fill="white" stroke="#666666" points="821.38,-32 703.38,-32 703.38,0 821.38,0 821.38,-32"/>
<text text-anchor="start" x="711.38" y="-18.5" font-family="Helvetica,sans-Serif" font-size="10.00">CarlaRecorderPositions</text>
<text text-anchor="middle" x="762.38" y="-6.5" font-family="Helvetica,sans-Serif" font-size="10.00">::Read</text>
</a>
</g>
</g>
<!-- Node1&#45;&gt;Node18 -->
<g id="edge21_Node000001_Node000018" class="edge">
<title>Node1&#45;&gt;Node18</title>
<g id="a_edge21_Node000001_Node000018"><a xlink:title=" ">
<path fill="none" stroke="#63b8ff" d="M897.58,-69.32C881.04,-59.85 860.9,-49.09 842,-41 834.89,-37.96 827.28,-35.09 819.7,-32.45"/>
<polygon fill="#63b8ff" stroke="#63b8ff" points="895.46,-72.72 905.87,-74.72 898.98,-66.67 895.46,-72.72"/>
</a>
</g>
</g>
<!-- Node3 -->
<g id="Node000003" class="node">
<title>Node3</title>
<g id="a_Node000003"><a xlink:href="../../dc/dc6/classCarlaReplayer.html#ae0a5643d88257bdceb9e12d5c33194cb" target="_top" xlink:title=" ">
<polygon fill="white" stroke="#666666" points="646.75,-170 496.5,-170 496.5,-150 646.75,-150 646.75,-170"/>
<text text-anchor="middle" x="571.62" y="-156.5" font-family="Helvetica,sans-Serif" font-size="10.00">CarlaReplayer::ProcessToTime</text>
</a>
</g>
</g>
<!-- Node2&#45;&gt;Node3 -->
<g id="edge2_Node000002_Node000003" class="edge">
<title>Node2&#45;&gt;Node3</title>
<g id="a_edge2_Node000002_Node000003"><a xlink:title=" ">
<path fill="none" stroke="#63b8ff" d="M671.64,-160C663.4,-160 655.12,-160 647.04,-160"/>
<polygon fill="#63b8ff" stroke="#63b8ff" points="671.42,-163.5 681.42,-160 671.42,-156.5 671.42,-163.5"/>
</a>
</g>
</g>
<!-- Node4 -->
<g id="Node000004" class="node">
<title>Node4</title>
<g id="a_Node000004"><a xlink:href="../../dc/dc6/classCarlaReplayer.html#ac70d3dbe1f79ffd25a695ec3bd2485e6" target="_top" xlink:title=" ">
<polygon fill="white" stroke="#666666" points="311.75,-258 181.75,-258 181.75,-226 311.75,-226 311.75,-258"/>
<text text-anchor="start" x="189.75" y="-244.5" font-family="Helvetica,sans-Serif" font-size="10.00">CarlaReplayer::CheckPlay</text>
<text text-anchor="middle" x="246.75" y="-232.5" font-family="Helvetica,sans-Serif" font-size="10.00">AfterMapLoaded</text>
</a>
</g>
</g>
<!-- Node3&#45;&gt;Node4 -->
<g id="edge3_Node000003_Node000004" class="edge">
<title>Node3&#45;&gt;Node4</title>
<g id="a_edge3_Node000003_Node000004"><a xlink:title=" ">
<path fill="none" stroke="#63b8ff" d="M533.59,-174.11C512.4,-181.85 485.19,-191.22 460.5,-198 411.22,-211.54 354.5,-223.07 312.03,-230.93"/>
<polygon fill="#63b8ff" stroke="#63b8ff" points="534.61,-177.1 542.77,-170.35 532.18,-170.53 534.61,-177.1"/>
</a>
</g>
</g>
<!-- Node7 -->
<g id="Node000007" class="node">
<title>Node7</title>
<g id="a_Node000007"><a xlink:href="../../dc/dc6/classCarlaReplayer.html#a480fd94fedc2367d7f7f58f17f3cd5a4" target="_top" xlink:title=" ">
<polygon fill="white" stroke="#666666" points="311,-208 182.5,-208 182.5,-188 311,-188 311,-208"/>
<text text-anchor="middle" x="246.75" y="-194.5" font-family="Helvetica,sans-Serif" font-size="10.00">CarlaReplayer::ReplayFile</text>
</a>
</g>
</g>
<!-- Node3&#45;&gt;Node7 -->
<g id="edge6_Node000003_Node000007" class="edge">
<title>Node3&#45;&gt;Node7</title>
<g id="a_edge6_Node000003_Node000007"><a xlink:title=" ">
<path fill="none" stroke="#63b8ff" d="M504.86,-172.25C490.29,-174.71 474.9,-177.12 460.5,-179 410.49,-185.54 353.57,-190.49 311.2,-193.7"/>
<polygon fill="#63b8ff" stroke="#63b8ff" points="505.04,-175.6 514.3,-170.46 503.85,-168.7 505.04,-175.6"/>
</a>
</g>
</g>
<!-- Node9 -->
<g id="Node000009" class="node">
<title>Node9</title>
<g id="a_Node000009"><a xlink:href="../../dc/dc6/classCarlaReplayer.html#af627917f2c95135fb11b59af4f65dbf7" target="_top" xlink:title=" ">
<polygon fill="white" stroke="#666666" points="460.5,-170 357.5,-170 357.5,-150 460.5,-150 460.5,-170"/>
<text text-anchor="middle" x="409" y="-156.5" font-family="Helvetica,sans-Serif" font-size="10.00">CarlaReplayer::Stop</text>
</a>
</g>
</g>
<!-- Node3&#45;&gt;Node9 -->
<g id="edge8_Node000003_Node000009" class="edge">
<title>Node3&#45;&gt;Node9</title>
<g id="a_edge8_Node000003_Node000009"><a xlink:title=" ">
<path fill="none" stroke="#63b8ff" d="M485.43,-153.26C477.08,-153.3 468.8,-153.43 460.95,-153.67"/>
<polygon fill="#63b8ff" stroke="#63b8ff" points="485.42,-156.76 495.42,-153.27 485.43,-149.76 485.42,-156.76"/>
</a>
</g>
</g>
<!-- Node13 -->
<g id="Node000013" class="node">
<title>Node13</title>
<g id="a_Node000013"><a xlink:href="../../dc/dc6/classCarlaReplayer.html#a4aeceb13aaa5dfcbf3ee42d7582262a4" target="_top" xlink:title=" ">
<polygon fill="white" stroke="#666666" points="459.38,-114 358.62,-114 358.62,-94 459.38,-94 459.38,-114"/>
<text text-anchor="middle" x="409" y="-100.5" font-family="Helvetica,sans-Serif" font-size="10.00">CarlaReplayer::Tick</text>
</a>
</g>
</g>
<!-- Node3&#45;&gt;Node13 -->
<g id="edge15_Node000003_Node000013" class="edge">
<title>Node3&#45;&gt;Node13</title>
<g id="a_edge15_Node000003_Node000013"><a xlink:title=" ">
<path fill="none" stroke="#63b8ff" d="M514.81,-146.68C508.59,-144.9 502.38,-143 496.5,-141 473.92,-133.33 448.96,-122.37 431.68,-114.37"/>
<polygon fill="#63b8ff" stroke="#63b8ff" points="513.65,-150.26 524.22,-149.54 515.51,-143.51 513.65,-150.26"/>
</a>
</g>
</g>
<!-- Node5 -->
<g id="Node000005" class="node">
<title>Node5</title>
<g id="a_Node000005"><a xlink:href="../../db/de5/classACarlaGameModeBase.html#a3909b055b351f69d7ad1e39a42e72e3d" target="_top" xlink:title=" ">
<polygon fill="white" stroke="#666666" points="127,-258 9,-258 9,-226 127,-226 127,-258"/>
<text text-anchor="start" x="17" y="-244.5" font-family="Helvetica,sans-Serif" font-size="10.00">ACarlaGameModeBase</text>
<text text-anchor="middle" x="68" y="-232.5" font-family="Helvetica,sans-Serif" font-size="10.00">::BeginPlay</text>
</a>
</g>
</g>
<!-- Node4&#45;&gt;Node5 -->
<g id="edge4_Node000004_Node000005" class="edge">
<title>Node4&#45;&gt;Node5</title>
<g id="a_edge4_Node000004_Node000005"><a xlink:title=" ">
<path fill="none" stroke="#63b8ff" d="M170.53,-242C156.1,-242 141.2,-242 127.4,-242"/>
<polygon fill="#63b8ff" stroke="#63b8ff" points="170.44,-245.5 180.44,-242 170.44,-238.5 170.44,-245.5"/>
</a>
</g>
</g>
<!-- Node6 -->
<g id="Node000006" class="node">
<title>Node6</title>
<g id="a_Node000006"><a xlink:href="../../dc/d49/classFCarlaEngine.html#ab4c918e4d4855a26ab57c4bb79ad4645" target="_top" xlink:title=" ">
<polygon fill="white" stroke="#666666" points="133,-308 3,-308 3,-276 133,-276 133,-308"/>
<text text-anchor="start" x="11" y="-294.5" font-family="Helvetica,sans-Serif" font-size="10.00">FCarlaEngine::NotifyBegin</text>
<text text-anchor="middle" x="68" y="-282.5" font-family="Helvetica,sans-Serif" font-size="10.00">Episode</text>
</a>
</g>
</g>
<!-- Node4&#45;&gt;Node6 -->
<g id="edge5_Node000004_Node000006" class="edge">
<title>Node4&#45;&gt;Node6</title>
<g id="a_edge5_Node000004_Node000006"><a xlink:title=" ">
<path fill="none" stroke="#63b8ff" d="M177.68,-261.26C161.06,-265.96 143.43,-270.95 127.31,-275.51"/>
<polygon fill="#63b8ff" stroke="#63b8ff" points="178.21,-264.46 186.88,-258.37 176.3,-257.73 178.21,-264.46"/>
</a>
</g>
</g>
<!-- Node8 -->
<g id="Node000008" class="node">
<title>Node8</title>
<g id="a_Node000008"><a xlink:href="../../dd/db9/classACarlaRecorder.html#a5dc891241c275eedcf6b1f189751520b" target="_top" xlink:title=" ">
<polygon fill="white" stroke="#666666" points="136,-208 0,-208 0,-188 136,-188 136,-208"/>
<text text-anchor="middle" x="68" y="-194.5" font-family="Helvetica,sans-Serif" font-size="10.00">ACarlaRecorder::ReplayFile</text>
</a>
</g>
</g>
<!-- Node7&#45;&gt;Node8 -->
<g id="edge7_Node000007_Node000008" class="edge">
<title>Node7&#45;&gt;Node8</title>
<g id="a_edge7_Node000007_Node000008"><a xlink:title=" ">
<path fill="none" stroke="#63b8ff" d="M171.77,-198C160.03,-198 147.93,-198 136.35,-198"/>
<polygon fill="#63b8ff" stroke="#63b8ff" points="171.44,-201.5 181.44,-198 171.44,-194.5 171.44,-201.5"/>
</a>
</g>
</g>
<!-- Node9&#45;&gt;Node3 -->
<g id="edge10_Node000009_Node000003" class="edge">
<title>Node9&#45;&gt;Node3</title>
<g id="a_edge10_Node000009_Node000003"><a xlink:title=" ">
<path fill="none" stroke="#63b8ff" d="M471.76,-166.59C479.84,-166.73 488.17,-166.78 496.42,-166.73"/>
<polygon fill="#63b8ff" stroke="#63b8ff" points="472.03,-163.07 461.95,-166.33 471.87,-170.07 472.03,-163.07"/>
</a>
</g>
</g>
<!-- Node9&#45;&gt;Node4 -->
<g id="edge9_Node000009_Node000004" class="edge">
<title>Node9&#45;&gt;Node4</title>
<g id="a_edge9_Node000009_Node000004"><a xlink:title=" ">
<path fill="none" stroke="#63b8ff" d="M385.98,-176.8C369.04,-189.14 344.68,-205.67 321.5,-217 315.18,-220.09 308.39,-222.95 301.58,-225.56"/>
<polygon fill="#63b8ff" stroke="#63b8ff" points="387.62,-179.2 393.57,-170.43 383.45,-173.57 387.62,-179.2"/>
</a>
</g>
</g>
<!-- Node9&#45;&gt;Node7 -->
<g id="edge11_Node000009_Node000007" class="edge">
<title>Node9&#45;&gt;Node7</title>
<g id="a_edge11_Node000009_Node000007"><a xlink:title=" ">
<path fill="none" stroke="#63b8ff" d="M353.24,-172.98C333.21,-177.74 310.81,-183.05 291.82,-187.55"/>
<polygon fill="#63b8ff" stroke="#63b8ff" points="353.86,-176.2 362.79,-170.48 352.25,-169.39 353.86,-176.2"/>
</a>
</g>
</g>
<!-- Node10 -->
<g id="Node000010" class="node">
<title>Node10</title>
<g id="a_Node000010"><a xlink:href="../../dd/db9/classACarlaRecorder.html#aba719596bd56c72a39f902f6e9a5d290" target="_top" xlink:title=" ">
<polygon fill="white" stroke="#666666" points="302.38,-170 191.12,-170 191.12,-150 302.38,-150 302.38,-170"/>
<text text-anchor="middle" x="246.75" y="-156.5" font-family="Helvetica,sans-Serif" font-size="10.00">ACarlaRecorder::Start</text>
</a>
</g>
</g>
<!-- Node9&#45;&gt;Node10 -->
<g id="edge12_Node000009_Node000010" class="edge">
<title>Node9&#45;&gt;Node10</title>
<g id="a_edge12_Node000009_Node000010"><a xlink:title=" ">
<path fill="none" stroke="#63b8ff" d="M346.5,-160C332.13,-160 316.92,-160 302.84,-160"/>
<polygon fill="#63b8ff" stroke="#63b8ff" points="346.3,-163.5 356.3,-160 346.3,-156.5 346.3,-163.5"/>
</a>
</g>
</g>
<!-- Node11 -->
<g id="Node000011" class="node">
<title>Node11</title>
<g id="a_Node000011"><a xlink:href="../../dd/db9/classACarlaRecorder.html#a33fb5180defd8c9c1d3063eff52c7a37" target="_top" xlink:title=" ">
<polygon fill="white" stroke="#666666" points="321.12,-132 172.38,-132 172.38,-112 321.12,-112 321.12,-132"/>
<text text-anchor="middle" x="246.75" y="-118.5" font-family="Helvetica,sans-Serif" font-size="10.00">ACarlaRecorder::StopReplayer</text>
</a>
</g>
</g>
<!-- Node9&#45;&gt;Node11 -->
<g id="edge13_Node000009_Node000011" class="edge">
<title>Node9&#45;&gt;Node11</title>
<g id="a_edge13_Node000009_Node000011"><a xlink:title=" ">
<path fill="none" stroke="#63b8ff" d="M353.24,-147.02C333.21,-142.26 310.81,-136.95 291.82,-132.45"/>
<polygon fill="#63b8ff" stroke="#63b8ff" points="352.25,-150.61 362.79,-149.52 353.86,-143.8 352.25,-150.61"/>
</a>
</g>
</g>
<!-- Node12 -->
<g id="Node000012" class="node">
<title>Node12</title>
<g id="a_Node000012"><a xlink:href="../../dc/dc6/classCarlaReplayer.html#a6dadadd7719c5e660d2e3d99b22f5961" target="_top" xlink:title=" ">
<polygon fill="white" stroke="#666666" points="321.5,-94 172,-94 172,-74 321.5,-74 321.5,-94"/>
<text text-anchor="middle" x="246.75" y="-80.5" font-family="Helvetica,sans-Serif" font-size="10.00">CarlaReplayer::~CarlaReplayer</text>
</a>
</g>
</g>
<!-- Node9&#45;&gt;Node12 -->
<g id="edge14_Node000009_Node000012" class="edge">
<title>Node9&#45;&gt;Node12</title>
<g id="a_edge14_Node000009_Node000012"><a xlink:title=" ">
<path fill="none" stroke="#63b8ff" d="M364.12,-144.95C361.83,-143.71 359.61,-142.4 357.5,-141 338.12,-128.13 341.55,-114.81 321.5,-103 315.69,-99.58 309.27,-96.77 302.71,-94.45"/>
<polygon fill="#63b8ff" stroke="#63b8ff" points="362.29,-148.42 372.82,-149.56 365.3,-142.1 362.29,-148.42"/>
</a>
</g>
</g>
<!-- Node13&#45;&gt;Node13 -->
<g id="edge16_Node000013_Node000013" class="edge">
<title>Node13&#45;&gt;Node13</title>
<g id="a_edge16_Node000013_Node000013"><a xlink:title=" ">
<path fill="none" stroke="#63b8ff" d="M438.25,-124.77C435.06,-128.98 425.31,-132 409,-132 380.8,-132 372.2,-122.98 383.22,-114.34"/>
<polygon fill="#63b8ff" stroke="#63b8ff" points="441.26,-123.72 434.78,-115.34 434.62,-125.93 441.26,-123.72"/>
</a>
</g>
</g>
<!-- Node15 -->
<g id="Node000015" class="node">
<title>Node15</title>
<g id="a_Node000015"><a xlink:href="../../dd/db9/classACarlaRecorder.html#a8b79edb76187b8c8605e16ae13795e62" target="_top" xlink:title=" ">
<polygon fill="white" stroke="#666666" points="636.62,-132 506.62,-132 506.62,-100 636.62,-100 636.62,-132"/>
<text text-anchor="start" x="514.62" y="-118.5" font-family="Helvetica,sans-Serif" font-size="10.00">ACarlaRecorder::ShowFile</text>
<text text-anchor="middle" x="571.62" y="-106.5" font-family="Helvetica,sans-Serif" font-size="10.00">ActorsBlocked</text>
</a>
</g>
</g>
<!-- Node14&#45;&gt;Node15 -->
<g id="edge18_Node000014_Node000015" class="edge">
<title>Node14&#45;&gt;Node15</title>
<g id="a_edge18_Node000014_Node000015"><a xlink:title=" ">
<path fill="none" stroke="#63b8ff" d="M699.42,-116C679.38,-116 657.13,-116 636.92,-116"/>
<polygon fill="#63b8ff" stroke="#63b8ff" points="699.3,-119.5 709.3,-116 699.3,-112.5 699.3,-119.5"/>
</a>
</g>
</g>
<!-- Node17 -->
<g id="Node000017" class="node">
<title>Node17</title>
<g id="a_Node000017"><a xlink:href="../../dd/db9/classACarlaRecorder.html#a36bb8a5afb7772514440bfe49e25b88b" target="_top" xlink:title=" ">
<polygon fill="white" stroke="#666666" points="644.12,-76 499.12,-76 499.12,-56 644.12,-56 644.12,-76"/>
<text text-anchor="middle" x="571.62" y="-62.5" font-family="Helvetica,sans-Serif" font-size="10.00">ACarlaRecorder::ShowFileInfo</text>
</a>
</g>
</g>
<!-- Node16&#45;&gt;Node17 -->
<g id="edge20_Node000016_Node000017" class="edge">
<title>Node16&#45;&gt;Node17</title>
<g id="a_edge20_Node000016_Node000017"><a xlink:title=" ">
<path fill="none" stroke="#63b8ff" d="M699.3,-66C681.7,-66 662.4,-66 644.29,-66"/>
<polygon fill="#63b8ff" stroke="#63b8ff" points="699.3,-69.5 709.3,-66 699.3,-62.5 699.3,-69.5"/>
</a>
</g>
</g>
<!-- Node19 -->
<g id="Node000019" class="node">
<title>Node19</title>
<g id="a_Node000019"><a xlink:href="../../de/db4/classFFrameData.html#a1d60d134d0c4ed720a5dbfc8688559ce" target="_top" xlink:title=" ">
<polygon fill="white" stroke="#666666" points="620.88,-26 522.38,-26 522.38,-6 620.88,-6 620.88,-26"/>
<text text-anchor="middle" x="571.62" y="-12.5" font-family="Helvetica,sans-Serif" font-size="10.00">FFrameData::Read</text>
</a>
</g>
</g>
<!-- Node18&#45;&gt;Node19 -->
<g id="edge22_Node000018_Node000019" class="edge">
<title>Node18&#45;&gt;Node19</title>
<g id="a_edge22_Node000018_Node000019"><a xlink:title=" ">
<path fill="none" stroke="#63b8ff" d="M691.98,-16C668.5,-16 642.79,-16 621.27,-16"/>
<polygon fill="#63b8ff" stroke="#63b8ff" points="691.95,-19.5 701.95,-16 691.95,-12.5 691.95,-19.5"/>
</a>
</g>
</g>
</g>
</svg>

<g id="navigator" transform="translate(0 0)" fill="#404254">
  <rect fill="#f2f5e9" fill-opacity="0.5" stroke="#606060" stroke-width=".5" x="0" y="0" width="60" height="60"/>
  <use id="zoomplus" xlink:href="#zoomPlus" x="17" y="9" onmousedown="handleZoom(evt,'in')"/>
  <use id="zoomminus" xlink:href="#zoomMin" x="42" y="9" onmousedown="handleZoom(evt,'out')"/>
  <use id="reset" xlink:href="#resetDef" x="30" y="36" onmousedown="handleReset()"/>
   <use id="arrowup" xlink:href="#arrowUp" x="0" y="0" onmousedown="handlePan(0,-1)"/>
  <use id="arrowright" xlink:href="#arrowRight" x="0" y="0" onmousedown="handlePan(1,0)"/>
  <use id="arrowdown" xlink:href="#arrowDown" x="0" y="0" onmousedown="handlePan(0,1)"/>
  <use id="arrowleft" xlink:href="#arrowLeft" x="0" y="0" onmousedown="handlePan(-1,0)"/>
</g>
<svg viewBox="0 0 15 15" width="100%" height="30px" preserveAspectRatio="xMaxYMin meet">
 <g id="arrow_out" transform="scale(0.3 0.3)">
  <a xlink:href="structCarlaRecorderPosition_a6c79bda342359f98692c9127e6153408_icgraph_org.svg" target="_base">
   <rect id="button" ry="5" rx="5" y="6" x="6" height="38" width="38"
        fill="#f2f5e9" fill-opacity="0.5" stroke="#606060" stroke-width="1.0"/>
   <path id="arrow"
     d="M 11.500037,31.436501 C 11.940474,20.09759 22.043105,11.32322 32.158766,21.979434 L 37.068811,17.246167 C 37.068811,17.246167 37.088388,32 37.088388,32 L 22.160133,31.978069 C 22.160133,31.978069 26.997745,27.140456 26.997745,27.140456 C 18.528582,18.264221 13.291696,25.230495 11.500037,31.436501 z"
     style="fill:#404040;"/>
  </a>
 </g>
</svg>

<style type='text/css'>
<![CDATA[
[data-mouse-over-selected='false'] { opacity: 0.7; }
[data-mouse-over-selected='true']  { opacity: 1.0; }
]]>
</style>
<script type="application/ecmascript"><![CDATA[
document.addEventListener('DOMContentLoaded', (event) => {
  highlightEdges();
  highlightAdjacentNodes();
});
]]></script>
</svg>
