<?xml version="1.0" encoding="UTF-8" standalone="no"?>
<!DOCTYPE svg PUBLIC "-//W3C//DTD SVG 1.1//EN"
 "http://www.w3.org/Graphics/SVG/1.1/DTD/svg11.dtd">
<!-- Generated by graphviz version 8.1.0 (20230707.0739)
 -->
<!-- Title: carla::ros2::CarlaSSCameraPublisher::SetData Pages: 1 -->
<svg width="302pt" height="190pt"
 viewBox="0.00 0.00 301.75 190.00" xmlns="http://www.w3.org/2000/svg" xmlns:xlink="http://www.w3.org/1999/xlink">
<g id="graph0" class="graph" transform="scale(1 1) rotate(0) translate(4 186)">
<title>carla::ros2::CarlaSSCameraPublisher::SetData</title>
<!-- Node1 -->
<g id="Node000001" class="node">
<title>Node1</title>
<g id="a_Node000001"><a xlink:title=" ">
<polygon fill="#999999" stroke="#666666" points="137.5,-107 0,-107 0,-75 137.5,-75 137.5,-107"/>
<text text-anchor="start" x="8" y="-93.5" font-family="Helvetica,sans-Serif" font-size="10.00">carla::ros2::CarlaSSCamera</text>
<text text-anchor="middle" x="68.75" y="-81.5" font-family="Helvetica,sans-Serif" font-size="10.00">Publisher::SetData</text>
</a>
</g>
</g>
<!-- Node2 -->
<g id="Node000002" class="node">
<title>Node2</title>
<g id="a_Node000002"><a xlink:href="../../d8/d15/classstd__msgs_1_1msg_1_1Header.html#a9bd973b4690fefb807fb231f496831d4" target="_top" xlink:title="This function copies the value in member frame_id">
<polygon fill="white" stroke="#666666" points="293.75,-182 173.5,-182 173.5,-150 293.75,-150 293.75,-182"/>
<text text-anchor="start" x="181.5" y="-168.5" font-family="Helvetica,sans-Serif" font-size="10.00">std_msgs::msg::Header</text>
<text text-anchor="middle" x="233.62" y="-156.5" font-family="Helvetica,sans-Serif" font-size="10.00">::frame_id</text>
</a>
</g>
</g>
<!-- Node1&#45;&gt;Node2 -->
<g id="edge1_Node000001_Node000002" class="edge">
<title>Node1&#45;&gt;Node2</title>
<g id="a_edge1_Node000001_Node000002"><a xlink:title=" ">
<path fill="none" stroke="#63b8ff" d="M102.73,-107.4C123.02,-117.37 149.63,-130.21 173.5,-141 176.65,-142.42 179.9,-143.87 183.19,-145.31"/>
<polygon fill="#63b8ff" stroke="#63b8ff" points="181.5,-148.83 192.07,-149.59 184.29,-142.4 181.5,-148.83"/>
</a>
</g>
</g>
<!-- Node3 -->
<g id="Node000003" class="node">
<title>Node3</title>
<g id="a_Node000003"><a xlink:href="../../da/d39/classbuiltin__interfaces_1_1msg_1_1Time.html#aa198ef63c135b5c7856d7f917dee4ba4" target="_top" xlink:title="This function sets a value in member nanosec">
<polygon fill="white" stroke="#666666" points="288.88,-132 178.38,-132 178.38,-100 288.88,-100 288.88,-132"/>
<text text-anchor="start" x="186.38" y="-118.5" font-family="Helvetica,sans-Serif" font-size="10.00">builtin_interfaces</text>
<text text-anchor="middle" x="233.62" y="-106.5" font-family="Helvetica,sans-Serif" font-size="10.00">::msg::Time::nanosec</text>
</a>
</g>
</g>
<!-- Node1&#45;&gt;Node3 -->
<g id="edge2_Node000001_Node000003" class="edge">
<title>Node1&#45;&gt;Node3</title>
<g id="a_edge2_Node000001_Node000003"><a xlink:title=" ">
<path fill="none" stroke="#63b8ff" d="M137.88,-101.46C147.57,-102.94 157.52,-104.47 167.16,-105.95"/>
<polygon fill="#63b8ff" stroke="#63b8ff" points="166.46,-109.54 176.88,-107.6 167.52,-102.62 166.46,-109.54"/>
</a>
</g>
</g>
<!-- Node4 -->
<g id="Node000004" class="node">
<title>Node4</title>
<g id="a_Node000004"><a xlink:href="../../da/d39/classbuiltin__interfaces_1_1msg_1_1Time.html#af90f1d1163f805c9e8af9546399d75b2" target="_top" xlink:title="This function sets a value in member sec">
<polygon fill="white" stroke="#666666" points="278.38,-82 188.88,-82 188.88,-50 278.38,-50 278.38,-82"/>
<text text-anchor="start" x="196.88" y="-68.5" font-family="Helvetica,sans-Serif" font-size="10.00">builtin_interfaces</text>
<text text-anchor="middle" x="233.62" y="-56.5" font-family="Helvetica,sans-Serif" font-size="10.00">::msg::Time::sec</text>
</a>
</g>
</g>
<!-- Node1&#45;&gt;Node4 -->
<g id="edge3_Node000001_Node000004" class="edge">
<title>Node1&#45;&gt;Node4</title>
<g id="a_edge3_Node000001_Node000004"><a xlink:title=" ">
<path fill="none" stroke="#63b8ff" d="M137.88,-80.54C151.23,-78.49 165.07,-76.37 177.91,-74.4"/>
<polygon fill="#63b8ff" stroke="#63b8ff" points="178.07,-77.76 187.43,-72.78 177.01,-70.84 178.07,-77.76"/>
</a>
</g>
</g>
<!-- Node5 -->
<g id="Node000005" class="node">
<title>Node5</title>
<g id="a_Node000005"><a xlink:href="../../d8/d15/classstd__msgs_1_1msg_1_1Header.html#a2ac0c277be6d5edc09d17126767290c9" target="_top" xlink:title="This function copies the value in member stamp">
<polygon fill="white" stroke="#666666" points="293.75,-32 173.5,-32 173.5,0 293.75,0 293.75,-32"/>
<text text-anchor="start" x="181.5" y="-18.5" font-family="Helvetica,sans-Serif" font-size="10.00">std_msgs::msg::Header</text>
<text text-anchor="middle" x="233.62" y="-6.5" font-family="Helvetica,sans-Serif" font-size="10.00">::stamp</text>
</a>
</g>
</g>
<!-- Node1&#45;&gt;Node5 -->
<g id="edge4_Node000001_Node000005" class="edge">
<title>Node1&#45;&gt;Node5</title>
<g id="a_edge4_Node000001_Node000005"><a xlink:title=" ">
<path fill="none" stroke="#63b8ff" d="M102.73,-74.6C123.02,-64.63 149.63,-51.79 173.5,-41 176.65,-39.58 179.9,-38.13 183.19,-36.69"/>
<polygon fill="#63b8ff" stroke="#63b8ff" points="184.29,-39.6 192.07,-32.41 181.5,-33.17 184.29,-39.6"/>
</a>
</g>
</g>
</g>
</svg>
