<?xml version="1.0" encoding="UTF-8" standalone="no"?>
<!DOCTYPE svg PUBLIC "-//W3C//DTD SVG 1.1//EN"
 "http://www.w3.org/Graphics/SVG/1.1/DTD/svg11.dtd">
<!-- Generated by graphviz version 8.1.0 (20230707.0739)
 -->
<!-- Title: URoadMap::IsValid Pages: 1 -->
<svg width="554pt" height="97pt"
 viewBox="0.00 0.00 554.25 97.00" xmlns="http://www.w3.org/2000/svg" xmlns:xlink="http://www.w3.org/1999/xlink">
<g id="graph0" class="graph" transform="scale(1 1) rotate(0) translate(4 93)">
<title>URoadMap::IsValid</title>
<!-- Node1 -->
<g id="Node000001" class="node">
<title>Node1</title>
<g id="a_Node000001"><a xlink:title=" ">
<polygon fill="#999999" stroke="#666666" points="546.25,-70 447,-70 447,-50 546.25,-50 546.25,-70"/>
<text text-anchor="middle" x="496.62" y="-56.5" font-family="Helvetica,sans-Serif" font-size="10.00">URoadMap::IsValid</text>
</a>
</g>
</g>
<!-- Node2 -->
<g id="Node000002" class="node">
<title>Node2</title>
<g id="a_Node000002"><a xlink:href="../../d5/db2/classURoadMap.html#a2d9cb2dfd43f8fb469f320ca6b0b81ca" target="_top" xlink:title="Clamps value if lies outside map limits.">
<polygon fill="white" stroke="#666666" points="406.88,-89 291.12,-89 291.12,-69 406.88,-69 406.88,-89"/>
<text text-anchor="middle" x="349" y="-75.5" font-family="Helvetica,sans-Serif" font-size="10.00">URoadMap::GetDataAt</text>
</a>
</g>
</g>
<!-- Node1&#45;&gt;Node2 -->
<g id="edge1_Node000001_Node000002" class="edge">
<title>Node1&#45;&gt;Node2</title>
<g id="a_edge1_Node000001_Node000002"><a xlink:title=" ">
<path fill="none" stroke="#63b8ff" d="M435.84,-67.8C426.42,-69.03 416.7,-70.3 407.33,-71.52"/>
<polygon fill="#63b8ff" stroke="#63b8ff" points="436.27,-71.14 445.73,-66.38 435.36,-64.2 436.27,-71.14"/>
</a>
</g>
</g>
<!-- Node3 -->
<g id="Node000003" class="node">
<title>Node3</title>
<g id="a_Node000003"><a xlink:href="../../d5/db2/classURoadMap.html#aa47b13000945dfd3e81dd51a69eb2c67" target="_top" xlink:title="Save the current map as PNG with the pixel data encoded as color.">
<polygon fill="white" stroke="#666666" points="411,-51 287,-51 287,-31 411,-31 411,-51"/>
<text text-anchor="middle" x="349" y="-37.5" font-family="Helvetica,sans-Serif" font-size="10.00">URoadMap::SaveAsPNG</text>
</a>
</g>
</g>
<!-- Node1&#45;&gt;Node3 -->
<g id="edge2_Node000001_Node000003" class="edge">
<title>Node1&#45;&gt;Node3</title>
<g id="a_edge2_Node000001_Node000003"><a xlink:title=" ">
<path fill="none" stroke="#63b8ff" d="M435.9,-52.21C427.83,-51.15 419.54,-50.07 411.44,-49.02"/>
<polygon fill="#63b8ff" stroke="#63b8ff" points="435.36,-55.8 445.73,-53.62 436.27,-48.86 435.36,-55.8"/>
</a>
</g>
</g>
<!-- Node4 -->
<g id="Node000004" class="node">
<title>Node4</title>
<g id="a_Node000004"><a xlink:href="../../d1/ddb/classACityMapGenerator.html#a9ce09c4586724fe3e446cbb12712adf3" target="_top" xlink:title="Generate the road map image and save to disk if requested.">
<polygon fill="white" stroke="#666666" points="251,-57 143.5,-57 143.5,-25 251,-25 251,-57"/>
<text text-anchor="start" x="151.5" y="-43.5" font-family="Helvetica,sans-Serif" font-size="10.00">ACityMapGenerator::</text>
<text text-anchor="middle" x="197.25" y="-31.5" font-family="Helvetica,sans-Serif" font-size="10.00">GenerateRoadMap</text>
</a>
</g>
</g>
<!-- Node3&#45;&gt;Node4 -->
<g id="edge3_Node000003_Node000004" class="edge">
<title>Node3&#45;&gt;Node4</title>
<g id="a_edge3_Node000003_Node000004"><a xlink:title=" ">
<path fill="none" stroke="#63b8ff" d="M275.79,-41C267.47,-41 259.11,-41 251.11,-41"/>
<polygon fill="#63b8ff" stroke="#63b8ff" points="275.66,-44.5 285.66,-41 275.66,-37.5 275.66,-44.5"/>
</a>
</g>
</g>
<!-- Node5 -->
<g id="Node000005" class="node">
<title>Node5</title>
<g id="a_Node000005"><a xlink:href="../../d1/ddb/classACityMapGenerator.html#a5627a0935def8c92d8ae226b10238f2c" target="_top" xlink:title=" ">
<polygon fill="white" stroke="#666666" points="107.5,-82 0,-82 0,-50 107.5,-50 107.5,-82"/>
<text text-anchor="start" x="8" y="-68.5" font-family="Helvetica,sans-Serif" font-size="10.00">ACityMapGenerator::</text>
<text text-anchor="middle" x="53.75" y="-56.5" font-family="Helvetica,sans-Serif" font-size="10.00">PreSave</text>
</a>
</g>
</g>
<!-- Node4&#45;&gt;Node5 -->
<g id="edge4_Node000004_Node000005" class="edge">
<title>Node4&#45;&gt;Node5</title>
<g id="a_edge4_Node000004_Node000005"><a xlink:title=" ">
<path fill="none" stroke="#63b8ff" d="M132.4,-52.28C124.13,-53.74 115.73,-55.23 107.67,-56.65"/>
<polygon fill="#63b8ff" stroke="#63b8ff" points="132.92,-55.57 142.16,-50.38 131.7,-48.67 132.92,-55.57"/>
</a>
</g>
</g>
<!-- Node6 -->
<g id="Node000006" class="node">
<title>Node6</title>
<g id="a_Node000006"><a xlink:href="../../d1/ddb/classACityMapGenerator.html#a5ad53319596101e96076a12eab41b9c1" target="_top" xlink:title="Here does nothing, implement in derived classes.">
<polygon fill="white" stroke="#666666" points="107.5,-32 0,-32 0,0 107.5,0 107.5,-32"/>
<text text-anchor="start" x="8" y="-18.5" font-family="Helvetica,sans-Serif" font-size="10.00">ACityMapGenerator::</text>
<text text-anchor="middle" x="53.75" y="-6.5" font-family="Helvetica,sans-Serif" font-size="10.00">UpdateMap</text>
</a>
</g>
</g>
<!-- Node4&#45;&gt;Node6 -->
<g id="edge5_Node000004_Node000006" class="edge">
<title>Node4&#45;&gt;Node6</title>
<g id="a_edge5_Node000004_Node000006"><a xlink:title=" ">
<path fill="none" stroke="#63b8ff" d="M132.4,-29.72C124.13,-28.26 115.73,-26.77 107.67,-25.35"/>
<polygon fill="#63b8ff" stroke="#63b8ff" points="131.7,-33.33 142.16,-31.62 132.92,-26.43 131.7,-33.33"/>
</a>
</g>
</g>
</g>
</svg>
