<?xml version="1.0" encoding="UTF-8" standalone="no"?>
<!DOCTYPE svg PUBLIC "-//W3C//DTD SVG 1.1//EN"
 "http://www.w3.org/Graphics/SVG/1.1/DTD/svg11.dtd">
<!-- Generated by graphviz version 8.1.0 (20230707.0739)
 -->
<!-- Title: URoadMap::GetIndex Pages: 1 -->
<svg width="565pt" height="141pt"
 viewBox="0.00 0.00 564.75 141.00" xmlns="http://www.w3.org/2000/svg" xmlns:xlink="http://www.w3.org/1999/xlink">
<g id="graph0" class="graph" transform="scale(1 1) rotate(0) translate(4 137)">
<title>URoadMap::GetIndex</title>
<!-- Node1 -->
<g id="Node000001" class="node">
<title>Node1</title>
<g id="a_Node000001"><a xlink:title=" ">
<polygon fill="#999999" stroke="#666666" points="556.75,-73 447.75,-73 447.75,-53 556.75,-53 556.75,-73"/>
<text text-anchor="middle" x="502.25" y="-59.5" font-family="Helvetica,sans-Serif" font-size="10.00">URoadMap::GetIndex</text>
</a>
</g>
</g>
<!-- Node2 -->
<g id="Node000002" class="node">
<title>Node2</title>
<g id="a_Node000002"><a xlink:href="../../d5/db2/classURoadMap.html#ac59d61929c6932dffc5cc09e79628b9a" target="_top" xlink:title="Retrieve the data stored at a given pixel.">
<polygon fill="white" stroke="#666666" points="411.38,-95 295.62,-95 295.62,-75 411.38,-75 411.38,-95"/>
<text text-anchor="middle" x="353.5" y="-81.5" font-family="Helvetica,sans-Serif" font-size="10.00">URoadMap::GetDataAt</text>
</a>
</g>
</g>
<!-- Node1&#45;&gt;Node2 -->
<g id="edge1_Node000001_Node000002" class="edge">
<title>Node1&#45;&gt;Node2</title>
<g id="a_edge1_Node000001_Node000002"><a xlink:title=" ">
<path fill="none" stroke="#63b8ff" d="M436.66,-72.68C428.37,-73.93 419.92,-75.19 411.76,-76.42"/>
<polygon fill="#63b8ff" stroke="#63b8ff" points="437.07,-76.01 446.44,-71.07 436.03,-69.09 437.07,-76.01"/>
</a>
</g>
</g>
<!-- Node5 -->
<g id="Node000005" class="node">
<title>Node5</title>
<g id="a_Node000005"><a xlink:href="../../d5/db2/classURoadMap.html#a4d82906248621ab21ccaeff669ebfdab" target="_top" xlink:title=" ">
<polygon fill="white" stroke="#666666" points="411.75,-54 295.25,-54 295.25,-34 411.75,-34 411.75,-54"/>
<text text-anchor="middle" x="353.5" y="-40.5" font-family="Helvetica,sans-Serif" font-size="10.00">URoadMap::SetPixelAt</text>
</a>
</g>
</g>
<!-- Node1&#45;&gt;Node5 -->
<g id="edge4_Node000001_Node000005" class="edge">
<title>Node1&#45;&gt;Node5</title>
<g id="a_edge4_Node000001_Node000005"><a xlink:title=" ">
<path fill="none" stroke="#63b8ff" d="M436.66,-54.64C428.37,-53.56 419.92,-52.47 411.76,-51.41"/>
<polygon fill="#63b8ff" stroke="#63b8ff" points="436.07,-58.22 446.44,-56.03 436.97,-51.28 436.07,-58.22"/>
</a>
</g>
</g>
<!-- Node3 -->
<g id="Node000003" class="node">
<title>Node3</title>
<g id="a_Node000003"><a xlink:href="../../d5/db2/classURoadMap.html#a2d9cb2dfd43f8fb469f320ca6b0b81ca" target="_top" xlink:title="Clamps value if lies outside map limits.">
<polygon fill="white" stroke="#666666" points="259.25,-133 143.5,-133 143.5,-113 259.25,-113 259.25,-133"/>
<text text-anchor="middle" x="201.38" y="-119.5" font-family="Helvetica,sans-Serif" font-size="10.00">URoadMap::GetDataAt</text>
</a>
</g>
</g>
<!-- Node2&#45;&gt;Node3 -->
<g id="edge2_Node000002_Node000003" class="edge">
<title>Node2&#45;&gt;Node3</title>
<g id="a_edge2_Node000002_Node000003"><a xlink:title=" ">
<path fill="none" stroke="#63b8ff" d="M300.42,-98.18C281.85,-102.88 261.2,-108.11 243.66,-112.55"/>
<polygon fill="#63b8ff" stroke="#63b8ff" points="301.24,-101.33 310.08,-95.48 299.53,-94.55 301.24,-101.33"/>
</a>
</g>
</g>
<!-- Node4 -->
<g id="Node000004" class="node">
<title>Node4</title>
<g id="a_Node000004"><a xlink:href="../../d5/db2/classURoadMap.html#ac40ce0534934a56138113b4991b530c1" target="_top" xlink:title="Intersect actor bounds with map.">
<polygon fill="white" stroke="#666666" points="255.12,-95 147.62,-95 147.62,-75 255.12,-75 255.12,-95"/>
<text text-anchor="middle" x="201.38" y="-81.5" font-family="Helvetica,sans-Serif" font-size="10.00">URoadMap::Intersect</text>
</a>
</g>
</g>
<!-- Node2&#45;&gt;Node4 -->
<g id="edge3_Node000002_Node000004" class="edge">
<title>Node2&#45;&gt;Node4</title>
<g id="a_edge3_Node000002_Node000004"><a xlink:title=" ">
<path fill="none" stroke="#63b8ff" d="M284.44,-85C274.71,-85 264.83,-85 255.45,-85"/>
<polygon fill="#63b8ff" stroke="#63b8ff" points="284.32,-88.5 294.32,-85 284.32,-81.5 284.32,-88.5"/>
</a>
</g>
</g>
<!-- Node6 -->
<g id="Node000006" class="node">
<title>Node6</title>
<g id="a_Node000006"><a xlink:href="../../d1/ddb/classACityMapGenerator.html#a9ce09c4586724fe3e446cbb12712adf3" target="_top" xlink:title="Generate the road map image and save to disk if requested.">
<polygon fill="white" stroke="#666666" points="255.12,-57 147.62,-57 147.62,-25 255.12,-25 255.12,-57"/>
<text text-anchor="start" x="155.62" y="-43.5" font-family="Helvetica,sans-Serif" font-size="10.00">ACityMapGenerator::</text>
<text text-anchor="middle" x="201.38" y="-31.5" font-family="Helvetica,sans-Serif" font-size="10.00">GenerateRoadMap</text>
</a>
</g>
</g>
<!-- Node5&#45;&gt;Node6 -->
<g id="edge5_Node000005_Node000006" class="edge">
<title>Node5&#45;&gt;Node6</title>
<g id="a_edge5_Node000005_Node000006"><a xlink:title=" ">
<path fill="none" stroke="#63b8ff" d="M284.04,-42.63C274.34,-42.44 264.5,-42.24 255.16,-42.05"/>
<polygon fill="#63b8ff" stroke="#63b8ff" points="283.82,-46.15 293.89,-42.85 283.96,-39.15 283.82,-46.15"/>
</a>
</g>
</g>
<!-- Node7 -->
<g id="Node000007" class="node">
<title>Node7</title>
<g id="a_Node000007"><a xlink:href="../../d1/ddb/classACityMapGenerator.html#a5627a0935def8c92d8ae226b10238f2c" target="_top" xlink:title=" ">
<polygon fill="white" stroke="#666666" points="107.5,-82 0,-82 0,-50 107.5,-50 107.5,-82"/>
<text text-anchor="start" x="8" y="-68.5" font-family="Helvetica,sans-Serif" font-size="10.00">ACityMapGenerator::</text>
<text text-anchor="middle" x="53.75" y="-56.5" font-family="Helvetica,sans-Serif" font-size="10.00">PreSave</text>
</a>
</g>
</g>
<!-- Node6&#45;&gt;Node7 -->
<g id="edge6_Node000006_Node000007" class="edge">
<title>Node6&#45;&gt;Node7</title>
<g id="a_edge6_Node000006_Node000007"><a xlink:title=" ">
<path fill="none" stroke="#63b8ff" d="M136.69,-51.93C127.09,-53.58 117.28,-55.26 107.94,-56.87"/>
<polygon fill="#63b8ff" stroke="#63b8ff" points="137.13,-55.24 146.39,-50.1 135.94,-48.34 137.13,-55.24"/>
</a>
</g>
</g>
<!-- Node8 -->
<g id="Node000008" class="node">
<title>Node8</title>
<g id="a_Node000008"><a xlink:href="../../d1/ddb/classACityMapGenerator.html#a5ad53319596101e96076a12eab41b9c1" target="_top" xlink:title="Here does nothing, implement in derived classes.">
<polygon fill="white" stroke="#666666" points="107.5,-32 0,-32 0,0 107.5,0 107.5,-32"/>
<text text-anchor="start" x="8" y="-18.5" font-family="Helvetica,sans-Serif" font-size="10.00">ACityMapGenerator::</text>
<text text-anchor="middle" x="53.75" y="-6.5" font-family="Helvetica,sans-Serif" font-size="10.00">UpdateMap</text>
</a>
</g>
</g>
<!-- Node6&#45;&gt;Node8 -->
<g id="edge7_Node000006_Node000008" class="edge">
<title>Node6&#45;&gt;Node8</title>
<g id="a_edge7_Node000006_Node000008"><a xlink:title=" ">
<path fill="none" stroke="#63b8ff" d="M136.69,-30.07C127.09,-28.42 117.28,-26.74 107.94,-25.13"/>
<polygon fill="#63b8ff" stroke="#63b8ff" points="135.94,-33.66 146.39,-31.9 137.13,-26.76 135.94,-33.66"/>
</a>
</g>
</g>
</g>
</svg>
