<?xml version="1.0" encoding="UTF-8" standalone="no"?>
<!DOCTYPE svg PUBLIC "-//W3C//DTD SVG 1.1//EN"
 "http://www.w3.org/Graphics/SVG/1.1/DTD/svg11.dtd">
<!-- Generated by graphviz version 8.1.0 (20230707.0739)
 -->
<!-- Title: URoadMap::SetPixelAt Pages: 1 -->
<svg width="412pt" height="90pt"
 viewBox="0.00 0.00 411.50 90.00" xmlns="http://www.w3.org/2000/svg" xmlns:xlink="http://www.w3.org/1999/xlink">
<g id="graph0" class="graph" transform="scale(1 1) rotate(0) translate(4 86)">
<title>URoadMap::SetPixelAt</title>
<!-- Node1 -->
<g id="Node000001" class="node">
<title>Node1</title>
<g id="a_Node000001"><a xlink:title=" ">
<polygon fill="#999999" stroke="#666666" points="403.5,-51 287,-51 287,-31 403.5,-31 403.5,-51"/>
<text text-anchor="middle" x="345.25" y="-37.5" font-family="Helvetica,sans-Serif" font-size="10.00">URoadMap::SetPixelAt</text>
</a>
</g>
</g>
<!-- Node2 -->
<g id="Node000002" class="node">
<title>Node2</title>
<g id="a_Node000002"><a xlink:href="../../d1/ddb/classACityMapGenerator.html#a9ce09c4586724fe3e446cbb12712adf3" target="_top" xlink:title="Generate the road map image and save to disk if requested.">
<polygon fill="white" stroke="#666666" points="251,-57 143.5,-57 143.5,-25 251,-25 251,-57"/>
<text text-anchor="start" x="151.5" y="-43.5" font-family="Helvetica,sans-Serif" font-size="10.00">ACityMapGenerator::</text>
<text text-anchor="middle" x="197.25" y="-31.5" font-family="Helvetica,sans-Serif" font-size="10.00">GenerateRoadMap</text>
</a>
</g>
</g>
<!-- Node1&#45;&gt;Node2 -->
<g id="edge1_Node000001_Node000002" class="edge">
<title>Node1&#45;&gt;Node2</title>
<g id="a_edge1_Node000001_Node000002"><a xlink:title=" ">
<path fill="none" stroke="#63b8ff" d="M275.79,-41C267.55,-41 259.24,-41 251.26,-41"/>
<polygon fill="#63b8ff" stroke="#63b8ff" points="275.55,-44.5 285.55,-41 275.55,-37.5 275.55,-44.5"/>
</a>
</g>
</g>
<!-- Node3 -->
<g id="Node000003" class="node">
<title>Node3</title>
<g id="a_Node000003"><a xlink:href="../../d1/ddb/classACityMapGenerator.html#a5627a0935def8c92d8ae226b10238f2c" target="_top" xlink:title=" ">
<polygon fill="white" stroke="#666666" points="107.5,-82 0,-82 0,-50 107.5,-50 107.5,-82"/>
<text text-anchor="start" x="8" y="-68.5" font-family="Helvetica,sans-Serif" font-size="10.00">ACityMapGenerator::</text>
<text text-anchor="middle" x="53.75" y="-56.5" font-family="Helvetica,sans-Serif" font-size="10.00">PreSave</text>
</a>
</g>
</g>
<!-- Node2&#45;&gt;Node3 -->
<g id="edge2_Node000002_Node000003" class="edge">
<title>Node2&#45;&gt;Node3</title>
<g id="a_edge2_Node000002_Node000003"><a xlink:title=" ">
<path fill="none" stroke="#63b8ff" d="M132.4,-52.28C124.13,-53.74 115.73,-55.23 107.67,-56.65"/>
<polygon fill="#63b8ff" stroke="#63b8ff" points="132.92,-55.57 142.16,-50.38 131.7,-48.67 132.92,-55.57"/>
</a>
</g>
</g>
<!-- Node4 -->
<g id="Node000004" class="node">
<title>Node4</title>
<g id="a_Node000004"><a xlink:href="../../d1/ddb/classACityMapGenerator.html#a5ad53319596101e96076a12eab41b9c1" target="_top" xlink:title="Here does nothing, implement in derived classes.">
<polygon fill="white" stroke="#666666" points="107.5,-32 0,-32 0,0 107.5,0 107.5,-32"/>
<text text-anchor="start" x="8" y="-18.5" font-family="Helvetica,sans-Serif" font-size="10.00">ACityMapGenerator::</text>
<text text-anchor="middle" x="53.75" y="-6.5" font-family="Helvetica,sans-Serif" font-size="10.00">UpdateMap</text>
</a>
</g>
</g>
<!-- Node2&#45;&gt;Node4 -->
<g id="edge3_Node000002_Node000004" class="edge">
<title>Node2&#45;&gt;Node4</title>
<g id="a_edge3_Node000002_Node000004"><a xlink:title=" ">
<path fill="none" stroke="#63b8ff" d="M132.4,-29.72C124.13,-28.26 115.73,-26.77 107.67,-25.35"/>
<polygon fill="#63b8ff" stroke="#63b8ff" points="131.7,-33.33 142.16,-31.62 132.92,-26.43 131.7,-33.33"/>
</a>
</g>
</g>
</g>
</svg>
