<?xml version="1.0" encoding="UTF-8" standalone="no"?>
<!DOCTYPE svg PUBLIC "-//W3C//DTD SVG 1.1//EN"
 "http://www.w3.org/Graphics/SVG/1.1/DTD/svg11.dtd">
<!-- Generated by graphviz version 8.1.0 (20230707.0739)
 -->
<!-- Title: carla::nav::Navigation::Load Pages: 1 -->
<svg width="524pt" height="62pt"
 viewBox="0.00 0.00 523.50 62.00" xmlns="http://www.w3.org/2000/svg" xmlns:xlink="http://www.w3.org/1999/xlink">
<g id="graph0" class="graph" transform="scale(1 1) rotate(0) translate(4 58)">
<title>carla::nav::Navigation::Load</title>
<!-- Node1 -->
<g id="Node000001" class="node">
<title>Node1</title>
<g id="a_Node000001"><a xlink:title="load navigation data from memory">
<polygon fill="#999999" stroke="#666666" points="107.5,-32 0,-32 0,0 107.5,0 107.5,-32"/>
<text text-anchor="start" x="8" y="-18.5" font-family="Helvetica,sans-Serif" font-size="10.00">carla::nav::Navigation</text>
<text text-anchor="middle" x="53.75" y="-6.5" font-family="Helvetica,sans-Serif" font-size="10.00">::Load</text>
</a>
</g>
</g>
<!-- Node2 -->
<g id="Node000002" class="node">
<title>Node2</title>
<g id="a_Node000002"><a xlink:href="../../d9/dc2/classcarla_1_1nav_1_1Navigation.html#ae8bd3bb45077603e908d8608cba9f3be" target="_top" xlink:title="create the crowd object">
<polygon fill="white" stroke="#666666" points="251,-54 143.5,-54 143.5,-22 251,-22 251,-54"/>
<text text-anchor="start" x="151.5" y="-40.5" font-family="Helvetica,sans-Serif" font-size="10.00">carla::nav::Navigation</text>
<text text-anchor="middle" x="197.25" y="-28.5" font-family="Helvetica,sans-Serif" font-size="10.00">::CreateCrowd</text>
</a>
</g>
</g>
<!-- Node1&#45;&gt;Node2 -->
<g id="edge1_Node000001_Node000002" class="edge">
<title>Node1&#45;&gt;Node2</title>
<g id="a_edge1_Node000001_Node000002"><a xlink:title=" ">
<path fill="none" stroke="#63b8ff" d="M107.84,-24.25C115.91,-25.51 124.31,-26.81 132.58,-28.1"/>
<polygon fill="#63b8ff" stroke="#63b8ff" points="131.91,-31.69 142.33,-29.77 132.99,-24.78 131.91,-31.69"/>
</a>
</g>
</g>
<!-- Node3 -->
<g id="Node000003" class="node">
<title>Node3</title>
<g id="a_Node000003"><a xlink:href="../../d2/d8c/namespacecarla_1_1logging.html#abd90157c295f4863aaaa7d66f18ae0fa" target="_top" xlink:title=" ">
<polygon fill="white" stroke="#666666" points="379.5,-26 287,-26 287,-6 379.5,-6 379.5,-26"/>
<text text-anchor="middle" x="333.25" y="-12.5" font-family="Helvetica,sans-Serif" font-size="10.00">carla::logging::log</text>
</a>
</g>
</g>
<!-- Node1&#45;&gt;Node3 -->
<g id="edge4_Node000001_Node000003" class="edge">
<title>Node1&#45;&gt;Node3</title>
<g id="a_edge4_Node000001_Node000003"><a xlink:title=" ">
<path fill="none" stroke="#63b8ff" d="M107.77,-13.91C119.53,-13.53 131.94,-13.2 143.5,-13 191.27,-12.19 203.23,-12.12 251,-13 259.05,-13.15 267.54,-13.38 275.88,-13.65"/>
<polygon fill="#63b8ff" stroke="#63b8ff" points="275.59,-17.18 285.71,-14.02 275.83,-10.18 275.59,-17.18"/>
</a>
</g>
</g>
<!-- Node2&#45;&gt;Node3 -->
<g id="edge2_Node000002_Node000003" class="edge">
<title>Node2&#45;&gt;Node3</title>
<g id="a_edge2_Node000002_Node000003"><a xlink:title=" ">
<path fill="none" stroke="#63b8ff" d="M251.21,-29.31C259.35,-27.97 267.78,-26.59 275.98,-25.24"/>
<polygon fill="#63b8ff" stroke="#63b8ff" points="276.3,-28.57 285.6,-23.49 275.17,-21.66 276.3,-28.57"/>
</a>
</g>
</g>
<!-- Node4 -->
<g id="Node000004" class="node">
<title>Node4</title>
<g id="a_Node000004"><a xlink:href="../../d2/d8c/namespacecarla_1_1logging.html#a4193666236852fb6a6977299a31445d8" target="_top" xlink:title=" ">
<polygon fill="white" stroke="#666666" points="515.5,-32 415.5,-32 415.5,0 515.5,0 515.5,-32"/>
<text text-anchor="start" x="423.5" y="-18.5" font-family="Helvetica,sans-Serif" font-size="10.00">carla::logging::write</text>
<text text-anchor="middle" x="465.5" y="-6.5" font-family="Helvetica,sans-Serif" font-size="10.00">_to_stream</text>
</a>
</g>
</g>
<!-- Node3&#45;&gt;Node4 -->
<g id="edge3_Node000003_Node000004" class="edge">
<title>Node3&#45;&gt;Node4</title>
<g id="a_edge3_Node000003_Node000004"><a xlink:title=" ">
<path fill="none" stroke="#63b8ff" d="M379.81,-16C387.76,-16 396.15,-16 404.43,-16"/>
<polygon fill="#63b8ff" stroke="#63b8ff" points="404.2,-19.5 414.2,-16 404.2,-12.5 404.2,-19.5"/>
</a>
</g>
</g>
</g>
</svg>
