<?xml version="1.0" encoding="UTF-8" standalone="no"?>
<!DOCTYPE svg PUBLIC "-//W3C//DTD SVG 1.1//EN"
 "http://www.w3.org/Graphics/SVG/1.1/DTD/svg11.dtd">
<!-- Generated by graphviz version 8.1.0 (20230707.0739)
 -->
<!-- Title: strconv_attribute_impl::parse_simple Pages: 1 -->
<svg width="476pt" height="85pt"
 viewBox="0.00 0.00 476.25 85.00" xmlns="http://www.w3.org/2000/svg" xmlns:xlink="http://www.w3.org/1999/xlink">

<svg id="main" version="1.1" xmlns="http://www.w3.org/2000/svg" xmlns:xlink="http://www.w3.org/1999/xlink" xml:space="preserve" onload="init(evt)">
<style type="text/css"><![CDATA[
.node, .edge {opacity: 0.7;}
.node.selected, .edge.selected {opacity: 1;}
.edge:hover path { stroke: red; }
.edge:hover polygon { stroke: red; fill: red; }
]]></style>
<script type="application/ecmascript" xlink:href="../../svg.min.js"/>
<svg id="graph" class="graph">
<g id="graph0" class="graph" transform="scale(1 1) rotate(0) translate(4 81)">
<title>strconv_attribute_impl::parse_simple</title>
<!-- Node1 -->
<g id="Node000001" class="node">
<title>Node1</title>
<g id="a_Node000001"><a xlink:title=" ">
<polygon fill="#999999" stroke="#666666" points="110.5,-64 0,-64 0,-32 110.5,-32 110.5,-64"/>
<text text-anchor="start" x="8" y="-50.5" font-family="Helvetica,sans-Serif" font-size="10.00">strconv_attribute_impl</text>
<text text-anchor="middle" x="55.25" y="-38.5" font-family="Helvetica,sans-Serif" font-size="10.00">::parse_simple</text>
</a>
</g>
</g>
<!-- Node2 -->
<g id="Node000002" class="node">
<title>Node2</title>
<g id="a_Node000002"><a xlink:href="../../d6/d68/structgap.html#a7d5e84d56dbeef1310977fe1ecec5ded" target="_top" xlink:title=" ">
<polygon fill="white" stroke="#666666" points="217.25,-77 159.25,-77 159.25,-57 217.25,-57 217.25,-77"/>
<text text-anchor="middle" x="188.25" y="-63.5" font-family="Helvetica,sans-Serif" font-size="10.00">gap::flush</text>
</a>
</g>
</g>
<!-- Node1&#45;&gt;Node2 -->
<g id="edge1_Node000001_Node000002" class="edge">
<title>Node1&#45;&gt;Node2</title>
<g id="a_edge1_Node000001_Node000002"><a xlink:title=" ">
<path fill="none" stroke="#63b8ff" d="M110.67,-55.89C123.24,-57.72 136.37,-59.62 148.14,-61.33"/>
<polygon fill="#63b8ff" stroke="#63b8ff" points="147.54,-64.92 157.94,-62.89 148.55,-58 147.54,-64.92"/>
</a>
</g>
</g>
<!-- Node3 -->
<g id="Node000003" class="node">
<title>Node3</title>
<g id="a_Node000003"><a xlink:href="../../db/d20/pugixml_8cpp.html#a40c873e554ea1bdeaa31ea5a32d4f6ca" target="_top" xlink:title=" ">
<polygon fill="white" stroke="#666666" points="230,-39 146.5,-39 146.5,-19 230,-19 230,-39"/>
<text text-anchor="middle" x="188.25" y="-25.5" font-family="Helvetica,sans-Serif" font-size="10.00">strconv_escape</text>
</a>
</g>
</g>
<!-- Node1&#45;&gt;Node3 -->
<g id="edge2_Node000001_Node000003" class="edge">
<title>Node1&#45;&gt;Node3</title>
<g id="a_edge2_Node000001_Node000003"><a xlink:title=" ">
<path fill="none" stroke="#63b8ff" d="M110.67,-40.11C118.98,-38.9 127.53,-37.66 135.77,-36.47"/>
<polygon fill="#63b8ff" stroke="#63b8ff" points="135.99,-39.83 145.39,-34.93 134.99,-32.9 135.99,-39.83"/>
</a>
</g>
</g>
<!-- Node4 -->
<g id="Node000004" class="node">
<title>Node4</title>
<g id="a_Node000004"><a xlink:href="../../dd/d5e/structutf8__writer.html#a288e9c5f3720b95ae6b77330ad38dd56" target="_top" xlink:title=" ">
<polygon fill="white" stroke="#666666" points="348,-58 266,-58 266,-38 348,-38 348,-58"/>
<text text-anchor="middle" x="307" y="-44.5" font-family="Helvetica,sans-Serif" font-size="10.00">utf8_writer::any</text>
</a>
</g>
</g>
<!-- Node3&#45;&gt;Node4 -->
<g id="edge3_Node000003_Node000004" class="edge">
<title>Node3&#45;&gt;Node4</title>
<g id="a_edge3_Node000003_Node000004"><a xlink:title=" ">
<path fill="none" stroke="#63b8ff" d="M230.41,-35.7C238.35,-36.99 246.76,-38.36 254.98,-39.7"/>
<polygon fill="#63b8ff" stroke="#63b8ff" points="254.17,-43.27 264.6,-41.43 255.29,-36.36 254.17,-43.27"/>
</a>
</g>
</g>
<!-- Node7 -->
<g id="Node000007" class="node">
<title>Node7</title>
<g id="a_Node000007"><a xlink:href="../../d6/d68/structgap.html#a9c0d0b12bc778c8439c8aec7747ab2b0" target="_top" xlink:title=" ">
<polygon fill="white" stroke="#666666" points="336.38,-20 277.62,-20 277.62,0 336.38,0 336.38,-20"/>
<text text-anchor="middle" x="307" y="-6.5" font-family="Helvetica,sans-Serif" font-size="10.00">gap::push</text>
</a>
</g>
</g>
<!-- Node3&#45;&gt;Node7 -->
<g id="edge6_Node000003_Node000007" class="edge">
<title>Node3&#45;&gt;Node7</title>
<g id="a_edge6_Node000003_Node000007"><a xlink:title=" ">
<path fill="none" stroke="#63b8ff" d="M230.41,-22.3C242.15,-20.39 254.91,-18.31 266.55,-16.42"/>
<polygon fill="#63b8ff" stroke="#63b8ff" points="266.98,-19.73 276.29,-14.67 265.86,-12.82 266.98,-19.73"/>
</a>
</g>
</g>
<!-- Node5 -->
<g id="Node000005" class="node">
<title>Node5</title>
<g id="a_Node000005"><a xlink:href="../../dd/d5e/structutf8__writer.html#ac03dfaf797d599afdf0be7def86ff9b9" target="_top" xlink:title=" ">
<polygon fill="white" stroke="#666666" points="468.25,-77 384,-77 384,-57 468.25,-57 468.25,-77"/>
<text text-anchor="middle" x="426.12" y="-63.5" font-family="Helvetica,sans-Serif" font-size="10.00">utf8_writer::high</text>
</a>
</g>
</g>
<!-- Node4&#45;&gt;Node5 -->
<g id="edge4_Node000004_Node000005" class="edge">
<title>Node4&#45;&gt;Node5</title>
<g id="a_edge4_Node000004_Node000005"><a xlink:title=" ">
<path fill="none" stroke="#63b8ff" d="M348.31,-54.54C356.22,-55.82 364.63,-57.19 372.87,-58.52"/>
<polygon fill="#63b8ff" stroke="#63b8ff" points="372.12,-62.11 382.55,-60.26 373.24,-55.2 372.12,-62.11"/>
</a>
</g>
</g>
<!-- Node6 -->
<g id="Node000006" class="node">
<title>Node6</title>
<g id="a_Node000006"><a xlink:href="../../dd/d5e/structutf8__writer.html#ac4ec52da6f37225ba4fde259bff2f86c" target="_top" xlink:title=" ">
<polygon fill="white" stroke="#666666" points="466.38,-39 385.88,-39 385.88,-19 466.38,-19 466.38,-39"/>
<text text-anchor="middle" x="426.12" y="-25.5" font-family="Helvetica,sans-Serif" font-size="10.00">utf8_writer::low</text>
</a>
</g>
</g>
<!-- Node4&#45;&gt;Node6 -->
<g id="edge5_Node000004_Node000006" class="edge">
<title>Node4&#45;&gt;Node6</title>
<g id="a_edge5_Node000004_Node000006"><a xlink:title=" ">
<path fill="none" stroke="#63b8ff" d="M348.31,-41.46C356.87,-40.07 366.01,-38.59 374.89,-37.15"/>
<polygon fill="#63b8ff" stroke="#63b8ff" points="375.23,-40.48 384.54,-35.42 374.1,-33.57 375.23,-40.48"/>
</a>
</g>
</g>
</g>
</svg>
</svg>

<style type='text/css'>
<![CDATA[
[data-mouse-over-selected='false'] { opacity: 0.7; }
[data-mouse-over-selected='true']  { opacity: 1.0; }
]]>
</style>
<script type="application/ecmascript"><![CDATA[
document.addEventListener('DOMContentLoaded', (event) => {
  highlightEdges();
  highlightAdjacentNodes();
});
]]></script>
</svg>
