<?xml version="1.0" encoding="UTF-8" standalone="no"?>
<!DOCTYPE svg PUBLIC "-//W3C//DTD SVG 1.1//EN"
 "http://www.w3.org/Graphics/SVG/1.1/DTD/svg11.dtd">
<!-- Generated by graphviz version 8.1.0 (20230707.0739)
 -->
<!-- Title: carla::road::Map::GetNext Pages: 1 -->
<!--zoomable 253 -->

<svg id="main" version="1.1" xmlns="http://www.w3.org/2000/svg" xmlns:xlink="http://www.w3.org/1999/xlink" xml:space="preserve" onload="init(evt)">
<style type="text/css"><![CDATA[
.node, .edge {opacity: 0.7;}
.node.selected, .edge.selected {opacity: 1;}
.edge:hover path { stroke: red; }
.edge:hover polygon { stroke: red; fill: red; }
]]></style>

<defs>
  <circle id="rim" cx="0" cy="0" r="7"/>
  <circle id="rim2" cx="0" cy="0" r="3.5"/>
  <g id="zoomPlus">
    <use xlink:href="#rim" fill="#404040"><set attributeName="fill" to="#808080" begin="zoomplus.mouseover" end="zoomplus.mouseout"/></use>
    <path d="M-4,0h8M0,-4v8" fill="none" stroke="white" stroke-width="1.5" pointer-events="none"/>
  </g>
  <g id="zoomMin">
    <use xlink:href="#rim" fill="#404040"><set attributeName="fill" to="#808080" begin="zoomminus.mouseover" end="zoomminus.mouseout"/></use>
    <path d="M-4,0h8" fill="none" stroke="white" stroke-width="1.5" pointer-events="none"/>
  </g>
  <g id="arrowUp" transform="translate(30 24)">
    <use xlink:href="#rim"/>
    <path pointer-events="none" fill="none" stroke="white" stroke-width="1.5" d="M0,-3.0v7 M-2.5,-0.5L0,-3.0L2.5,-0.5"/>
  </g>
  <g id="arrowRight" transform="rotate(90) translate(36 -43)">
    <use xlink:href="#rim"/>
    <path pointer-events="none" fill="none" stroke="white" stroke-width="1.5" d="M0,-3.0v7 M-2.5,-0.5L0,-3.0L2.5,-0.5"/>
  </g>
  <g id="arrowDown" transform="rotate(180) translate(-30 -48)">
    <use xlink:href="#rim"/>
    <path pointer-events="none" fill="none" stroke="white" stroke-width="1.5" d="M0,-3.0v7 M-2.5,-0.5L0,-3.0L2.5,-0.5"/>
  </g>
  <g id="arrowLeft" transform="rotate(270) translate(-36 17)">
    <use xlink:href="#rim"/>
    <path pointer-events="none" fill="none" stroke="white" stroke-width="1.5" d="M0,-3.0v7 M-2.5,-0.5L0,-3.0L2.5,-0.5"/>
  </g>
  <g id="resetDef">
    <use xlink:href="#rim2" fill="#404040"><set attributeName="fill" to="#808080" begin="reset.mouseover" end="reset.mouseout"/></use>
  </g>
</defs>
<script type="application/ecmascript">
var viewWidth = 956;
var viewHeight = 253;
var sectionId = 'dynsection-56';
</script>
<script type="application/ecmascript" xlink:href="../../svg.min.js"/>
<svg id="graph" class="graph">
<g id="viewport">
<title>carla::road::Map::GetNext</title>
<!-- Node1 -->
<g id="Node000001" class="node">
<title>Node1</title>
<g id="a_Node000001"><a xlink:title="Return the list of waypoints at distance such that a vehicle at waypoint could drive to.">
<polygon fill="#999999" stroke="#666666" points="128.5,-162 0,-162 0,-142 128.5,-142 128.5,-162"/>
<text text-anchor="middle" x="64.25" y="-148.5" font-family="Helvetica,sans-Serif" font-size="10.00">carla::road::Map::GetNext</text>
</a>
</g>
</g>
<!-- Node1&#45;&gt;Node1 -->
<g id="edge9_Node000001_Node000001" class="edge">
<title>Node1&#45;&gt;Node1</title>
<g id="a_edge9_Node000001_Node000001"><a xlink:title=" ">
<path fill="none" stroke="#63b8ff" d="M35.61,-162.34C23.37,-170.98 32.92,-180 64.25,-180 82.85,-180 93.78,-176.82 97.02,-172.43"/>
<polygon fill="#63b8ff" stroke="#63b8ff" points="99.92,-171.27 92.89,-163.34 93.44,-173.92 99.92,-171.27"/>
</a>
</g>
</g>
<!-- Node2 -->
<g id="Node000002" class="node">
<title>Node2</title>
<g id="a_Node000002"><a xlink:href="../../de/d26/namespacecarla_1_1road.html#ac4fc819dd14b3fa8e5b2e2e9986a1dc0" target="_top" xlink:title=" ">
<polygon fill="white" stroke="#666666" points="310.62,-200 178.38,-200 178.38,-180 310.62,-180 310.62,-200"/>
<text text-anchor="middle" x="244.5" y="-186.5" font-family="Helvetica,sans-Serif" font-size="10.00">carla::road::ConcatVectors</text>
</a>
</g>
</g>
<!-- Node1&#45;&gt;Node2 -->
<g id="edge1_Node000001_Node000002" class="edge">
<title>Node1&#45;&gt;Node2</title>
<g id="a_edge1_Node000001_Node000002"><a xlink:title=" ">
<path fill="none" stroke="#63b8ff" d="M114.43,-162.48C135.96,-167.07 161.41,-172.5 183.99,-177.31"/>
<polygon fill="#63b8ff" stroke="#63b8ff" points="182.97,-180.89 193.48,-179.55 184.43,-174.04 182.97,-180.89"/>
</a>
</g>
</g>
<!-- Node3 -->
<g id="Node000003" class="node">
<title>Node3</title>
<g id="a_Node000003"><a xlink:href="../../d0/d34/classcarla_1_1road_1_1Map.html#af8814cb7eb14d0691d9c1e49f4ef88b1" target="_top" xlink:title="========================================================================">
<polygon fill="white" stroke="#666666" points="489.75,-164 360.5,-164 360.5,-144 489.75,-144 489.75,-164"/>
<text text-anchor="middle" x="425.12" y="-150.5" font-family="Helvetica,sans-Serif" font-size="10.00">carla::road::Map::GetLane</text>
</a>
</g>
</g>
<!-- Node1&#45;&gt;Node3 -->
<g id="edge3_Node000001_Node000003" class="edge">
<title>Node1&#45;&gt;Node3</title>
<g id="a_edge3_Node000001_Node000003"><a xlink:title=" ">
<path fill="none" stroke="#63b8ff" d="M129,-152.36C190.72,-152.7 284.28,-153.22 349.46,-153.58"/>
<polygon fill="#63b8ff" stroke="#63b8ff" points="349.05,-157.09 359.07,-153.64 349.09,-150.09 349.05,-157.09"/>
</a>
</g>
</g>
<!-- Node9 -->
<g id="Node000009" class="node">
<title>Node9</title>
<g id="a_Node000009"><a xlink:href="../../d0/d34/classcarla_1_1road_1_1Map.html#ad207ea3fcc57867c290d05d8e6578cf5" target="_top" xlink:title="========================================================================">
<polygon fill="white" stroke="#666666" points="324.5,-123 164.5,-123 164.5,-103 324.5,-103 324.5,-123"/>
<text text-anchor="middle" x="244.5" y="-109.5" font-family="Helvetica,sans-Serif" font-size="10.00">carla::road::Map::GetSuccessors</text>
</a>
</g>
</g>
<!-- Node1&#45;&gt;Node9 -->
<g id="edge10_Node000001_Node000009" class="edge">
<title>Node1&#45;&gt;Node9</title>
<g id="a_edge10_Node000001_Node000009"><a xlink:title=" ">
<path fill="none" stroke="#63b8ff" d="M113.02,-141.55C135.2,-136.7 161.76,-130.88 185.12,-125.77"/>
<polygon fill="#63b8ff" stroke="#63b8ff" points="185.58,-129.04 194.6,-123.48 184.08,-122.2 185.58,-129.04"/>
</a>
</g>
</g>
<!-- Node2&#45;&gt;Node2 -->
<g id="edge2_Node000002_Node000002" class="edge">
<title>Node2&#45;&gt;Node2</title>
<g id="a_edge2_Node000002_Node000002"><a xlink:title=" ">
<path fill="none" stroke="#63b8ff" d="M215.86,-200.34C203.62,-208.98 213.17,-218 244.5,-218 263.1,-218 274.03,-214.82 277.27,-210.43"/>
<polygon fill="#63b8ff" stroke="#63b8ff" points="280.17,-209.27 273.14,-201.34 273.69,-211.92 280.17,-209.27"/>
</a>
</g>
</g>
<!-- Node4 -->
<g id="Node000004" class="node">
<title>Node4</title>
<g id="a_Node000004"><a xlink:href="../../dd/de6/classcarla_1_1road_1_1Road.html#a44cd205b140128adf1fc06f91f55409a" target="_top" xlink:title=" ">
<polygon fill="white" stroke="#666666" points="627.25,-220 531,-220 531,-188 627.25,-188 627.25,-220"/>
<text text-anchor="start" x="539" y="-206.5" font-family="Helvetica,sans-Serif" font-size="10.00">carla::road::Road::</text>
<text text-anchor="middle" x="579.12" y="-194.5" font-family="Helvetica,sans-Serif" font-size="10.00">GetLaneById</text>
</a>
</g>
</g>
<!-- Node3&#45;&gt;Node4 -->
<g id="edge4_Node000003_Node000004" class="edge">
<title>Node3&#45;&gt;Node4</title>
<g id="a_edge4_Node000003_Node000004"><a xlink:title=" ">
<path fill="none" stroke="#63b8ff" d="M457.99,-164.48C476.09,-170.44 499.31,-178.07 520.5,-185.04"/>
<polygon fill="#63b8ff" stroke="#63b8ff" points="519.12,-188.6 529.71,-188.4 521.3,-181.95 519.12,-188.6"/>
</a>
</g>
</g>
<!-- Node8 -->
<g id="Node000008" class="node">
<title>Node8</title>
<g id="a_Node000008"><a xlink:href="../../da/d3b/classcarla_1_1road_1_1MapData.html#a7b4838408fa475389a01b2d451b662e7" target="_top" xlink:title=" ">
<polygon fill="white" stroke="#666666" points="632.5,-170 525.75,-170 525.75,-138 632.5,-138 632.5,-170"/>
<text text-anchor="start" x="533.75" y="-156.5" font-family="Helvetica,sans-Serif" font-size="10.00">carla::road::MapData</text>
<text text-anchor="middle" x="579.12" y="-144.5" font-family="Helvetica,sans-Serif" font-size="10.00">::GetRoad</text>
</a>
</g>
</g>
<!-- Node3&#45;&gt;Node8 -->
<g id="edge8_Node000003_Node000008" class="edge">
<title>Node3&#45;&gt;Node8</title>
<g id="a_edge8_Node000003_Node000008"><a xlink:title=" ">
<path fill="none" stroke="#63b8ff" d="M490.15,-154C498.29,-154 506.62,-154 514.76,-154"/>
<polygon fill="#63b8ff" stroke="#63b8ff" points="514.69,-157.5 524.69,-154 514.69,-150.5 514.69,-157.5"/>
</a>
</g>
</g>
<!-- Node5 -->
<g id="Node000005" class="node">
<title>Node5</title>
<g id="a_Node000005"><a xlink:href="../../dd/d80/classcarla_1_1road_1_1LaneSection.html#afb698c17b4d62c0df02cf8dae16b8f50" target="_top" xlink:title=" ">
<polygon fill="white" stroke="#666666" points="790.25,-245 668.5,-245 668.5,-213 790.25,-213 790.25,-245"/>
<text text-anchor="start" x="676.5" y="-231.5" font-family="Helvetica,sans-Serif" font-size="10.00">carla::road::LaneSection</text>
<text text-anchor="middle" x="729.38" y="-219.5" font-family="Helvetica,sans-Serif" font-size="10.00">::GetLanes</text>
</a>
</g>
</g>
<!-- Node4&#45;&gt;Node5 -->
<g id="edge5_Node000004_Node000005" class="edge">
<title>Node4&#45;&gt;Node5</title>
<g id="a_edge5_Node000004_Node000005"><a xlink:title=" ">
<path fill="none" stroke="#63b8ff" d="M627.44,-211.98C637.06,-213.6 647.38,-215.34 657.61,-217.07"/>
<polygon fill="#63b8ff" stroke="#63b8ff" points="656.77,-220.64 667.22,-218.86 657.94,-213.74 656.77,-220.64"/>
</a>
</g>
</g>
<!-- Node6 -->
<g id="Node000006" class="node">
<title>Node6</title>
<g id="a_Node000006"><a xlink:href="../../dd/de6/classcarla_1_1road_1_1Road.html#afc2ce3f2de8825413a827d46c62c197b" target="_top" xlink:title=" ">
<polygon fill="white" stroke="#666666" points="782,-195 676.75,-195 676.75,-163 782,-163 782,-195"/>
<text text-anchor="start" x="684.75" y="-181.5" font-family="Helvetica,sans-Serif" font-size="10.00">carla::road::Road::</text>
<text text-anchor="middle" x="729.38" y="-169.5" font-family="Helvetica,sans-Serif" font-size="10.00">GetLaneSectionById</text>
</a>
</g>
</g>
<!-- Node4&#45;&gt;Node6 -->
<g id="edge6_Node000004_Node000006" class="edge">
<title>Node4&#45;&gt;Node6</title>
<g id="a_edge6_Node000004_Node000006"><a xlink:title=" ">
<path fill="none" stroke="#63b8ff" d="M627.44,-196.02C639.62,-193.97 652.92,-191.72 665.75,-189.56"/>
<polygon fill="#63b8ff" stroke="#63b8ff" points="666.1,-192.88 675.37,-187.77 664.93,-185.98 666.1,-192.88"/>
</a>
</g>
</g>
<!-- Node7 -->
<g id="Node000007" class="node">
<title>Node7</title>
<g id="a_Node000007"><a xlink:href="../../d9/dab/classcarla_1_1road_1_1LaneSectionMap.html#afd0eebe15809491819f1335b7c7157e9" target="_top" xlink:title=" ">
<polygon fill="white" stroke="#666666" points="948,-195 826.25,-195 826.25,-163 948,-163 948,-195"/>
<text text-anchor="start" x="834.25" y="-181.5" font-family="Helvetica,sans-Serif" font-size="10.00">carla::road::LaneSection</text>
<text text-anchor="middle" x="887.12" y="-169.5" font-family="Helvetica,sans-Serif" font-size="10.00">Map::GetById</text>
</a>
</g>
</g>
<!-- Node6&#45;&gt;Node7 -->
<g id="edge7_Node000006_Node000007" class="edge">
<title>Node6&#45;&gt;Node7</title>
<g id="a_edge7_Node000006_Node000007"><a xlink:title=" ">
<path fill="none" stroke="#63b8ff" d="M782.24,-179C792.72,-179 803.92,-179 814.94,-179"/>
<polygon fill="#63b8ff" stroke="#63b8ff" points="814.86,-182.5 824.86,-179 814.86,-175.5 814.86,-182.5"/>
</a>
</g>
</g>
<!-- Node9&#45;&gt;Node3 -->
<g id="edge19_Node000009_Node000003" class="edge">
<title>Node9&#45;&gt;Node3</title>
<g id="a_edge19_Node000009_Node000003"><a xlink:title=" ">
<path fill="none" stroke="#63b8ff" d="M291.04,-123.45C314.45,-128.83 343.19,-135.42 367.96,-141.11"/>
<polygon fill="#63b8ff" stroke="#63b8ff" points="367.14,-144.74 377.67,-143.57 368.71,-137.92 367.14,-144.74"/>
</a>
</g>
</g>
<!-- Node10 -->
<g id="Node000010" class="node">
<title>Node10</title>
<g id="a_Node000010"><a xlink:href="../../de/d26/namespacecarla_1_1road.html#aa758d1155efabd76bd25f2178c6e25e1" target="_top" xlink:title=" ">
<polygon fill="white" stroke="#666666" points="486,-126 364.25,-126 364.25,-94 486,-94 486,-126"/>
<text text-anchor="start" x="372.25" y="-112.5" font-family="Helvetica,sans-Serif" font-size="10.00">carla::road::GetDistance</text>
<text text-anchor="middle" x="425.12" y="-100.5" font-family="Helvetica,sans-Serif" font-size="10.00">AtStartOfLane</text>
</a>
</g>
</g>
<!-- Node9&#45;&gt;Node10 -->
<g id="edge11_Node000009_Node000010" class="edge">
<title>Node9&#45;&gt;Node10</title>
<g id="a_edge11_Node000009_Node000010"><a xlink:title=" ">
<path fill="none" stroke="#63b8ff" d="M324.89,-111.67C334.33,-111.51 343.92,-111.35 353.24,-111.19"/>
<polygon fill="#63b8ff" stroke="#63b8ff" points="353.08,-114.68 363.02,-111.01 352.96,-107.68 353.08,-114.68"/>
</a>
</g>
</g>
<!-- Node17 -->
<g id="Node000017" class="node">
<title>Node17</title>
<g id="a_Node000017"><a xlink:href="../../df/d85/classcarla_1_1road_1_1Lane.html#a12a7a6ad7373c1dd685149c08121bbe2" target="_top" xlink:title=" ">
<polygon fill="white" stroke="#666666" points="472.5,-76 377.75,-76 377.75,-44 472.5,-44 472.5,-76"/>
<text text-anchor="start" x="385.75" y="-62.5" font-family="Helvetica,sans-Serif" font-size="10.00">carla::road::Lane::</text>
<text text-anchor="middle" x="425.12" y="-50.5" font-family="Helvetica,sans-Serif" font-size="10.00">GetNextLanes</text>
</a>
</g>
</g>
<!-- Node9&#45;&gt;Node17 -->
<g id="edge20_Node000009_Node000017" class="edge">
<title>Node9&#45;&gt;Node17</title>
<g id="a_edge20_Node000009_Node000017"><a xlink:title=" ">
<path fill="none" stroke="#63b8ff" d="M280.79,-102.53C305.42,-95.22 338.83,-85.31 367.2,-76.89"/>
<polygon fill="#63b8ff" stroke="#63b8ff" points="367.81,-80.06 376.4,-73.86 365.82,-73.35 367.81,-80.06"/>
</a>
</g>
</g>
<!-- Node11 -->
<g id="Node000011" class="node">
<title>Node11</title>
<g id="a_Node000011"><a xlink:href="../../df/d85/classcarla_1_1road_1_1Lane.html#ae02c9441872377fc865c85339df51cbd" target="_top" xlink:title=" ">
<polygon fill="white" stroke="#666666" points="776.75,-101 682,-101 682,-69 776.75,-69 776.75,-101"/>
<text text-anchor="start" x="690" y="-87.5" font-family="Helvetica,sans-Serif" font-size="10.00">carla::road::Lane::</text>
<text text-anchor="middle" x="729.38" y="-75.5" font-family="Helvetica,sans-Serif" font-size="10.00">GetDistance</text>
</a>
</g>
</g>
<!-- Node10&#45;&gt;Node11 -->
<g id="edge12_Node000010_Node000011" class="edge">
<title>Node10&#45;&gt;Node11</title>
<g id="a_edge12_Node000010_Node000011"><a xlink:title=" ">
<path fill="none" stroke="#63b8ff" d="M486.2,-105.03C539.88,-100.59 618,-94.13 670.88,-89.76"/>
<polygon fill="#63b8ff" stroke="#63b8ff" points="671.09,-93.17 680.77,-88.86 670.51,-86.19 671.09,-93.17"/>
</a>
</g>
</g>
<!-- Node13 -->
<g id="Node000013" class="node">
<title>Node13</title>
<g id="a_Node000013"><a xlink:href="../../df/d85/classcarla_1_1road_1_1Lane.html#ae1a5f15925f91fca2b5d759fb53901f3" target="_top" xlink:title=" ">
<polygon fill="white" stroke="#666666" points="626.5,-82 531.75,-82 531.75,-50 626.5,-50 626.5,-82"/>
<text text-anchor="start" x="539.75" y="-68.5" font-family="Helvetica,sans-Serif" font-size="10.00">carla::road::Lane::</text>
<text text-anchor="middle" x="579.12" y="-56.5" font-family="Helvetica,sans-Serif" font-size="10.00">GetId</text>
</a>
</g>
</g>
<!-- Node10&#45;&gt;Node13 -->
<g id="edge14_Node000010_Node000013" class="edge">
<title>Node10&#45;&gt;Node13</title>
<g id="a_edge14_Node000010_Node000013"><a xlink:title=" ">
<path fill="none" stroke="#63b8ff" d="M482.72,-93.62C495.25,-89.99 508.54,-86.14 521.08,-82.51"/>
<polygon fill="#63b8ff" stroke="#63b8ff" points="521.78,-85.66 530.42,-79.52 519.84,-78.94 521.78,-85.66"/>
</a>
</g>
</g>
<!-- Node14 -->
<g id="Node000014" class="node">
<title>Node14</title>
<g id="a_Node000014"><a xlink:href="../../df/d85/classcarla_1_1road_1_1Lane.html#af158921fdf12a061967943ee2d645481" target="_top" xlink:title=" ">
<polygon fill="white" stroke="#666666" points="626.5,-32 531.75,-32 531.75,0 626.5,0 626.5,-32"/>
<text text-anchor="start" x="539.75" y="-18.5" font-family="Helvetica,sans-Serif" font-size="10.00">carla::road::Lane::</text>
<text text-anchor="middle" x="579.12" y="-6.5" font-family="Helvetica,sans-Serif" font-size="10.00">GetLength</text>
</a>
</g>
</g>
<!-- Node10&#45;&gt;Node14 -->
<g id="edge15_Node000010_Node000014" class="edge">
<title>Node10&#45;&gt;Node14</title>
<g id="a_edge15_Node000010_Node000014"><a xlink:title=" ">
<path fill="none" stroke="#63b8ff" d="M475.42,-93.62C480.46,-91.08 485.34,-88.22 489.75,-85 510.17,-70.12 505.87,-56.6 525.75,-41 526.99,-40.03 528.27,-39.08 529.59,-38.16"/>
<polygon fill="#63b8ff" stroke="#63b8ff" points="531.05,-40.75 537.66,-32.47 527.33,-34.82 531.05,-40.75"/>
</a>
</g>
</g>
<!-- Node12 -->
<g id="Node000012" class="node">
<title>Node12</title>
<g id="a_Node000012"><a xlink:href="../../dd/d80/classcarla_1_1road_1_1LaneSection.html#a2a83bca663a2b7b6388daebed95704a9" target="_top" xlink:title=" ">
<polygon fill="white" stroke="#666666" points="948,-101 826.25,-101 826.25,-69 948,-69 948,-101"/>
<text text-anchor="start" x="834.25" y="-87.5" font-family="Helvetica,sans-Serif" font-size="10.00">carla::road::LaneSection</text>
<text text-anchor="middle" x="887.12" y="-75.5" font-family="Helvetica,sans-Serif" font-size="10.00">::GetDistance</text>
</a>
</g>
</g>
<!-- Node11&#45;&gt;Node12 -->
<g id="edge13_Node000011_Node000012" class="edge">
<title>Node11&#45;&gt;Node12</title>
<g id="a_edge13_Node000011_Node000012"><a xlink:title=" ">
<path fill="none" stroke="#63b8ff" d="M777.11,-85C789.08,-85 802.22,-85 815.11,-85"/>
<polygon fill="#63b8ff" stroke="#63b8ff" points="814.85,-88.5 824.85,-85 814.85,-81.5 814.85,-88.5"/>
</a>
</g>
</g>
<!-- Node14&#45;&gt;Node11 -->
<g id="edge16_Node000014_Node000011" class="edge">
<title>Node14&#45;&gt;Node11</title>
<g id="a_edge16_Node000014_Node000011"><a xlink:title=" ">
<path fill="none" stroke="#63b8ff" d="M615.26,-32.35C635.6,-41.82 661.43,-53.84 683.26,-64"/>
<polygon fill="#63b8ff" stroke="#63b8ff" points="681.44,-67.48 691.98,-68.53 684.39,-61.13 681.44,-67.48"/>
</a>
</g>
</g>
<!-- Node15 -->
<g id="Node000015" class="node">
<title>Node15</title>
<g id="a_Node000015"><a xlink:href="../../df/d85/classcarla_1_1road_1_1Lane.html#a04f454d98f499a700749b8aacc31cfc9" target="_top" xlink:title=" ">
<polygon fill="white" stroke="#666666" points="776.75,-32 682,-32 682,0 776.75,0 776.75,-32"/>
<text text-anchor="start" x="690" y="-18.5" font-family="Helvetica,sans-Serif" font-size="10.00">carla::road::Lane::</text>
<text text-anchor="middle" x="729.38" y="-6.5" font-family="Helvetica,sans-Serif" font-size="10.00">GetRoad</text>
</a>
</g>
</g>
<!-- Node14&#45;&gt;Node15 -->
<g id="edge17_Node000014_Node000015" class="edge">
<title>Node14&#45;&gt;Node15</title>
<g id="a_edge17_Node000014_Node000015"><a xlink:title=" ">
<path fill="none" stroke="#63b8ff" d="M626.63,-16C640.56,-16 656.03,-16 670.6,-16"/>
<polygon fill="#63b8ff" stroke="#63b8ff" points="670.53,-19.5 680.53,-16 670.53,-12.5 670.53,-19.5"/>
</a>
</g>
</g>
<!-- Node16 -->
<g id="Node000016" class="node">
<title>Node16</title>
<g id="a_Node000016"><a xlink:href="../../dd/d80/classcarla_1_1road_1_1LaneSection.html#a20f42f8a9aa46a316e50c2defaac1d55" target="_top" xlink:title=" ">
<polygon fill="white" stroke="#666666" points="948,-32 826.25,-32 826.25,0 948,0 948,-32"/>
<text text-anchor="start" x="834.25" y="-18.5" font-family="Helvetica,sans-Serif" font-size="10.00">carla::road::LaneSection</text>
<text text-anchor="middle" x="887.12" y="-6.5" font-family="Helvetica,sans-Serif" font-size="10.00">::GetRoad</text>
</a>
</g>
</g>
<!-- Node15&#45;&gt;Node16 -->
<g id="edge18_Node000015_Node000016" class="edge">
<title>Node15&#45;&gt;Node16</title>
<g id="a_edge18_Node000015_Node000016"><a xlink:title=" ">
<path fill="none" stroke="#63b8ff" d="M777.11,-16C789.08,-16 802.22,-16 815.11,-16"/>
<polygon fill="#63b8ff" stroke="#63b8ff" points="814.85,-19.5 824.85,-16 814.85,-12.5 814.85,-19.5"/>
</a>
</g>
</g>
</g>
</svg>

<g id="navigator" transform="translate(0 0)" fill="#404254">
  <rect fill="#f2f5e9" fill-opacity="0.5" stroke="#606060" stroke-width=".5" x="0" y="0" width="60" height="60"/>
  <use id="zoomplus" xlink:href="#zoomPlus" x="17" y="9" onmousedown="handleZoom(evt,'in')"/>
  <use id="zoomminus" xlink:href="#zoomMin" x="42" y="9" onmousedown="handleZoom(evt,'out')"/>
  <use id="reset" xlink:href="#resetDef" x="30" y="36" onmousedown="handleReset()"/>
   <use id="arrowup" xlink:href="#arrowUp" x="0" y="0" onmousedown="handlePan(0,-1)"/>
  <use id="arrowright" xlink:href="#arrowRight" x="0" y="0" onmousedown="handlePan(1,0)"/>
  <use id="arrowdown" xlink:href="#arrowDown" x="0" y="0" onmousedown="handlePan(0,1)"/>
  <use id="arrowleft" xlink:href="#arrowLeft" x="0" y="0" onmousedown="handlePan(-1,0)"/>
</g>
<svg viewBox="0 0 15 15" width="100%" height="30px" preserveAspectRatio="xMaxYMin meet">
 <g id="arrow_out" transform="scale(0.3 0.3)">
  <a xlink:href="classcarla_1_1road_1_1Map_a83541de08e4b515768c211f1cdbecd4f_cgraph_org.svg" target="_base">
   <rect id="button" ry="5" rx="5" y="6" x="6" height="38" width="38"
        fill="#f2f5e9" fill-opacity="0.5" stroke="#606060" stroke-width="1.0"/>
   <path id="arrow"
     d="M 11.500037,31.436501 C 11.940474,20.09759 22.043105,11.32322 32.158766,21.979434 L 37.068811,17.246167 C 37.068811,17.246167 37.088388,32 37.088388,32 L 22.160133,31.978069 C 22.160133,31.978069 26.997745,27.140456 26.997745,27.140456 C 18.528582,18.264221 13.291696,25.230495 11.500037,31.436501 z"
     style="fill:#404040;"/>
  </a>
 </g>
</svg>

<style type='text/css'>
<![CDATA[
[data-mouse-over-selected='false'] { opacity: 0.7; }
[data-mouse-over-selected='true']  { opacity: 1.0; }
]]>
</style>
<script type="application/ecmascript"><![CDATA[
document.addEventListener('DOMContentLoaded', (event) => {
  highlightEdges();
  highlightAdjacentNodes();
});
]]></script>
</svg>
