<?xml version="1.0" encoding="UTF-8" standalone="no"?>
<!DOCTYPE svg PUBLIC "-//W3C//DTD SVG 1.1//EN"
 "http://www.w3.org/Graphics/SVG/1.1/DTD/svg11.dtd">
<!-- Generated by graphviz version 8.1.0 (20230707.0739)
 -->
<!-- Title: carla::road::Map::GetNext Pages: 1 -->
<svg width="1445pt" height="601pt"
 viewBox="0.00 0.00 1444.75 601.00" xmlns="http://www.w3.org/2000/svg" xmlns:xlink="http://www.w3.org/1999/xlink">
<g id="graph0" class="graph" transform="scale(1 1) rotate(0) translate(4 597)">
<title>carla::road::Map::GetNext</title>
<!-- Node1 -->
<g id="Node000001" class="node">
<title>Node1</title>
<g id="a_Node000001"><a xlink:title="Return the list of waypoints at distance such that a vehicle at waypoint could drive to.">
<polygon fill="#999999" stroke="#666666" points="1436.75,-239 1308.25,-239 1308.25,-219 1436.75,-219 1436.75,-239"/>
<text text-anchor="middle" x="1372.5" y="-225.5" font-family="Helvetica,sans-Serif" font-size="10.00">carla::road::Map::GetNext</text>
</a>
</g>
</g>
<!-- Node1&#45;&gt;Node1 -->
<g id="edge39_Node000001_Node000001" class="edge">
<title>Node1&#45;&gt;Node1</title>
<g id="a_edge39_Node000001_Node000001"><a xlink:title=" ">
<path fill="none" stroke="#63b8ff" d="M1403.57,-249.43C1400.49,-253.82 1390.14,-257 1372.5,-257 1342.8,-257 1333.75,-247.98 1345.35,-239.34"/>
<polygon fill="#63b8ff" stroke="#63b8ff" points="1406.53,-248.39 1399.65,-240.34 1400.01,-250.93 1406.53,-248.39"/>
</a>
</g>
</g>
<!-- Node2 -->
<g id="Node000002" class="node">
<title>Node2</title>
<g id="a_Node000002"><a xlink:href="../../de/d16/classcarla_1_1road_1_1MapBuilder.html#ab0d9fe008defb1501769cf62f8cadf14" target="_top" xlink:title="Create the bounding boxes of each junction.">
<polygon fill="white" stroke="#666666" points="1095,-334 940.25,-334 940.25,-302 1095,-302 1095,-334"/>
<text text-anchor="start" x="948.25" y="-320.5" font-family="Helvetica,sans-Serif" font-size="10.00">carla::road::MapBuilder</text>
<text text-anchor="middle" x="1017.62" y="-308.5" font-family="Helvetica,sans-Serif" font-size="10.00">::CreateJunctionBoundingBoxes</text>
</a>
</g>
</g>
<!-- Node1&#45;&gt;Node2 -->
<g id="edge1_Node000001_Node000002" class="edge">
<title>Node1&#45;&gt;Node2</title>
<g id="a_edge1_Node000001_Node000002"><a xlink:title=" ">
<path fill="none" stroke="#63b8ff" d="M1350.05,-245.74C1330.82,-259.79 1301.24,-279.11 1272.25,-289 1215,-308.53 1146.69,-315.48 1095.4,-317.71"/>
<polygon fill="#63b8ff" stroke="#63b8ff" points="1351.71,-248.12 1357.61,-239.33 1347.51,-242.52 1351.71,-248.12"/>
</a>
</g>
</g>
<!-- Node22 -->
<g id="Node000022" class="node">
<title>Node22</title>
<g id="a_Node000022"><a xlink:href="../../d0/d34/classcarla_1_1road_1_1Map.html#ad30ed42bc1a8089df7d63ec8cdfa3e72" target="_top" xlink:title=" ">
<polygon fill="white" stroke="#666666" points="1262.12,-280 1141.12,-280 1141.12,-248 1262.12,-248 1262.12,-280"/>
<text text-anchor="start" x="1149.12" y="-266.5" font-family="Helvetica,sans-Serif" font-size="10.00">carla::road::Map::Create</text>
<text text-anchor="middle" x="1201.62" y="-254.5" font-family="Helvetica,sans-Serif" font-size="10.00">Rtree</text>
</a>
</g>
</g>
<!-- Node1&#45;&gt;Node22 -->
<g id="edge22_Node000001_Node000022" class="edge">
<title>Node1&#45;&gt;Node22</title>
<g id="a_edge22_Node000001_Node000022"><a xlink:title=" ">
<path fill="none" stroke="#63b8ff" d="M1310.65,-241.61C1294.97,-244.86 1278.11,-248.36 1262.47,-251.6"/>
<polygon fill="#63b8ff" stroke="#63b8ff" points="1311.21,-244.86 1320.29,-239.41 1309.79,-238.01 1311.21,-244.86"/>
</a>
</g>
</g>
<!-- Node24 -->
<g id="Node000024" class="node">
<title>Node24</title>
<g id="a_Node000024"><a xlink:href="../../d0/d34/classcarla_1_1road_1_1Map.html#a37ba4f58b767002274b6f4d86258986a" target="_top" xlink:title="========================================================================">
<polygon fill="white" stroke="#666666" points="1272.25,-211 1131,-211 1131,-179 1272.25,-179 1272.25,-211"/>
<text text-anchor="start" x="1139" y="-197.5" font-family="Helvetica,sans-Serif" font-size="10.00">carla::road::Map::GetClosest</text>
<text text-anchor="middle" x="1201.62" y="-185.5" font-family="Helvetica,sans-Serif" font-size="10.00">WaypointOnRoad</text>
</a>
</g>
</g>
<!-- Node1&#45;&gt;Node24 -->
<g id="edge24_Node000001_Node000024" class="edge">
<title>Node1&#45;&gt;Node24</title>
<g id="a_edge24_Node000001_Node000024"><a xlink:title=" ">
<path fill="none" stroke="#63b8ff" d="M1308.8,-216.38C1296.98,-214 1284.55,-211.49 1272.52,-209.07"/>
<polygon fill="#63b8ff" stroke="#63b8ff" points="1307.96,-219.98 1318.45,-218.52 1309.34,-213.12 1307.96,-219.98"/>
</a>
</g>
</g>
<!-- Node35 -->
<g id="Node000035" class="node">
<title>Node35</title>
<g id="a_Node000035"><a xlink:href="../../d0/d34/classcarla_1_1road_1_1Map.html#a048dcf017f5500a177b28c36aac1e769" target="_top" xlink:title="Searches signals from an initial waypoint until the defined distance.">
<polygon fill="white" stroke="#666666" points="1271.88,-143 1131.38,-143 1131.38,-111 1271.88,-111 1271.88,-143"/>
<text text-anchor="start" x="1139.38" y="-129.5" font-family="Helvetica,sans-Serif" font-size="10.00">carla::road::Map::GetSignals</text>
<text text-anchor="middle" x="1201.62" y="-117.5" font-family="Helvetica,sans-Serif" font-size="10.00">InDistance</text>
</a>
</g>
</g>
<!-- Node1&#45;&gt;Node35 -->
<g id="edge40_Node000001_Node000035" class="edge">
<title>Node1&#45;&gt;Node35</title>
<g id="a_edge40_Node000001_Node000035"><a xlink:title=" ">
<path fill="none" stroke="#63b8ff" d="M1345.36,-213.21C1313.97,-194.25 1261.6,-162.62 1229.77,-143.4"/>
<polygon fill="#63b8ff" stroke="#63b8ff" points="1343.01,-216.48 1353.38,-218.66 1346.63,-210.49 1343.01,-216.48"/>
</a>
</g>
</g>
<!-- Node3 -->
<g id="Node000003" class="node">
<title>Node3</title>
<g id="a_Node000003"><a xlink:href="../../de/d16/classcarla_1_1road_1_1MapBuilder.html#a7b0bb12125e15fd246924aee12327e7e" target="_top" xlink:title=" ">
<polygon fill="white" stroke="#666666" points="889.25,-334 772.75,-334 772.75,-302 889.25,-302 889.25,-334"/>
<text text-anchor="start" x="780.75" y="-320.5" font-family="Helvetica,sans-Serif" font-size="10.00">carla::road::MapBuilder</text>
<text text-anchor="middle" x="831" y="-308.5" font-family="Helvetica,sans-Serif" font-size="10.00">::Build</text>
</a>
</g>
</g>
<!-- Node2&#45;&gt;Node3 -->
<g id="edge2_Node000002_Node000003" class="edge">
<title>Node2&#45;&gt;Node3</title>
<g id="a_edge2_Node000002_Node000003"><a xlink:title=" ">
<path fill="none" stroke="#63b8ff" d="M929.2,-318C915.75,-318 902.17,-318 889.59,-318"/>
<polygon fill="#63b8ff" stroke="#63b8ff" points="928.93,-321.5 938.93,-318 928.93,-314.5 928.93,-321.5"/>
</a>
</g>
</g>
<!-- Node4 -->
<g id="Node000004" class="node">
<title>Node4</title>
<g id="a_Node000004"><a xlink:href="../../de/d5a/classcarla_1_1opendrive_1_1OpenDriveParser.html#a599fd6174f30aaee59590c16503afd8a" target="_top" xlink:title=" ">
<polygon fill="white" stroke="#666666" points="721.75,-347 588,-347 588,-315 721.75,-315 721.75,-347"/>
<text text-anchor="start" x="596" y="-333.5" font-family="Helvetica,sans-Serif" font-size="10.00">carla::opendrive::OpenDrive</text>
<text text-anchor="middle" x="654.88" y="-321.5" font-family="Helvetica,sans-Serif" font-size="10.00">Parser::Load</text>
</a>
</g>
</g>
<!-- Node3&#45;&gt;Node4 -->
<g id="edge3_Node000003_Node000004" class="edge">
<title>Node3&#45;&gt;Node4</title>
<g id="a_edge3_Node000003_Node000004"><a xlink:title=" ">
<path fill="none" stroke="#63b8ff" d="M761.71,-323.1C748.67,-324.07 735.04,-325.09 722.06,-326.06"/>
<polygon fill="#63b8ff" stroke="#63b8ff" points="761.79,-326.53 771.5,-322.29 761.27,-319.55 761.79,-326.53"/>
</a>
</g>
</g>
<!-- Node5 -->
<g id="Node000005" class="node">
<title>Node5</title>
<g id="a_Node000005"><a xlink:href="../../d0/d2d/classAOpenDriveActor.html#ac8678af2b371c3a3faca8775ab1e4816" target="_top" xlink:title=" ">
<polygon fill="white" stroke="#666666" points="541.88,-517 393.12,-517 393.12,-497 541.88,-497 541.88,-517"/>
<text text-anchor="middle" x="467.5" y="-503.5" font-family="Helvetica,sans-Serif" font-size="10.00">AOpenDriveActor::BuildRoutes</text>
</a>
</g>
</g>
<!-- Node4&#45;&gt;Node5 -->
<g id="edge4_Node000004_Node000005" class="edge">
<title>Node4&#45;&gt;Node5</title>
<g id="a_edge4_Node000004_Node000005"><a xlink:title=" ">
<path fill="none" stroke="#63b8ff" d="M644.16,-357.39C629.71,-392.83 599.08,-455.13 552,-488 547.12,-491.4 541.73,-494.21 536.11,-496.52"/>
<polygon fill="#63b8ff" stroke="#63b8ff" points="647.72,-358.9 648.13,-348.32 641.21,-356.34 647.72,-358.9"/>
</a>
</g>
</g>
<!-- Node6 -->
<g id="Node000006" class="node">
<title>Node6</title>
<g id="a_Node000006"><a xlink:href="../../d8/dfe/classUOpenDriveMap.html#a0ce422ee1f79211e6957bab1d2048348" target="_top" xlink:title="Load this map with an OpenDrive (XODR) file.">
<polygon fill="white" stroke="#666666" points="523.88,-479 411.12,-479 411.12,-459 523.88,-459 523.88,-479"/>
<text text-anchor="middle" x="467.5" y="-465.5" font-family="Helvetica,sans-Serif" font-size="10.00">UOpenDriveMap::Load</text>
</a>
</g>
</g>
<!-- Node4&#45;&gt;Node6 -->
<g id="edge5_Node000004_Node000006" class="edge">
<title>Node4&#45;&gt;Node6</title>
<g id="a_edge5_Node000004_Node000006"><a xlink:title=" ">
<path fill="none" stroke="#63b8ff" d="M638.9,-356.74C621.54,-384.2 590.36,-426.84 552,-450 543.6,-455.07 533.98,-458.79 524.33,-461.52"/>
<polygon fill="#63b8ff" stroke="#63b8ff" points="642.4,-358.73 644.65,-348.38 636.43,-355.07 642.4,-358.73"/>
</a>
</g>
</g>
<!-- Node9 -->
<g id="Node000009" class="node">
<title>Node9</title>
<g id="a_Node000009"><a xlink:href="../../dc/d84/classUCarlaEpisode.html#a3eeed56e0cc3cf04d266b86c5a88c3ed" target="_top" xlink:title="Load a new map generating the mesh from OpenDRIVE data and start a new episode.">
<polygon fill="white" stroke="#666666" points="552,-441 383,-441 383,-409 552,-409 552,-441"/>
<text text-anchor="start" x="391" y="-427.5" font-family="Helvetica,sans-Serif" font-size="10.00">UCarlaEpisode::LoadNewOpendrive</text>
<text text-anchor="middle" x="467.5" y="-415.5" font-family="Helvetica,sans-Serif" font-size="10.00">Episode</text>
</a>
</g>
</g>
<!-- Node4&#45;&gt;Node9 -->
<g id="edge8_Node000004_Node000009" class="edge">
<title>Node4&#45;&gt;Node9</title>
<g id="a_edge8_Node000004_Node000009"><a xlink:title=" ">
<path fill="none" stroke="#63b8ff" d="M625.45,-353.73C605.76,-368.57 578.44,-387.45 552,-400 545.3,-403.18 538.11,-406.06 530.85,-408.63"/>
<polygon fill="#63b8ff" stroke="#63b8ff" points="627.12,-356.09 632.92,-347.23 622.86,-350.54 627.12,-356.09"/>
</a>
</g>
</g>
<!-- Node12 -->
<g id="Node000012" class="node">
<title>Node12</title>
<g id="a_Node000012"><a xlink:href="../../d2/daf/namespacecarla_1_1client.html#a228b83c6429f8e3406a93a1b41eb1565" target="_top" xlink:title=" ">
<polygon fill="white" stroke="#666666" points="525,-391 410,-391 410,-371 525,-371 525,-391"/>
<text text-anchor="middle" x="467.5" y="-377.5" font-family="Helvetica,sans-Serif" font-size="10.00">carla::client::MakeMap</text>
</a>
</g>
</g>
<!-- Node4&#45;&gt;Node12 -->
<g id="edge11_Node000004_Node000012" class="edge">
<title>Node4&#45;&gt;Node12</title>
<g id="a_edge11_Node000004_Node000012"><a xlink:title=" ">
<path fill="none" stroke="#63b8ff" d="M591.9,-350.63C578.78,-354.57 564.97,-358.56 552,-362 540.79,-364.98 528.66,-367.9 517.21,-370.53"/>
<polygon fill="#63b8ff" stroke="#63b8ff" points="592.7,-353.74 601.25,-347.49 590.67,-347.05 592.7,-353.74"/>
</a>
</g>
</g>
<!-- Node13 -->
<g id="Node000013" class="node">
<title>Node13</title>
<g id="a_Node000013"><a xlink:href="../../df/da5/classATrafficLightManager.html#a212893f28dfefd3883c68be7e9a7d835" target="_top" xlink:title=" ">
<polygon fill="white" stroke="#666666" points="539.62,-353 395.38,-353 395.38,-309 539.62,-309 539.62,-353"/>
<text text-anchor="start" x="403.38" y="-339.5" font-family="Helvetica,sans-Serif" font-size="10.00">ATrafficLightManager</text>
<text text-anchor="start" x="403.38" y="-327.5" font-family="Helvetica,sans-Serif" font-size="10.00">::MatchTrafficLightActorsWith</text>
<text text-anchor="middle" x="467.5" y="-315.5" font-family="Helvetica,sans-Serif" font-size="10.00">OpenDriveSignals</text>
</a>
</g>
</g>
<!-- Node4&#45;&gt;Node13 -->
<g id="edge12_Node000004_Node000013" class="edge">
<title>Node4&#45;&gt;Node13</title>
<g id="a_edge12_Node000004_Node000013"><a xlink:title=" ">
<path fill="none" stroke="#63b8ff" d="M577.06,-331C564.78,-331 552.11,-331 539.96,-331"/>
<polygon fill="#63b8ff" stroke="#63b8ff" points="576.74,-334.5 586.74,-331 576.74,-327.5 576.74,-334.5"/>
</a>
</g>
</g>
<!-- Node14 -->
<g id="Node000014" class="node">
<title>Node14</title>
<g id="a_Node000014"><a xlink:href="../../db/de5/classACarlaGameModeBase.html#aa1cc7f6d077f3a4dcf7b1d523c9f5d2f" target="_top" xlink:title=" ">
<polygon fill="white" stroke="#666666" points="526.5,-291 408.5,-291 408.5,-259 526.5,-259 526.5,-291"/>
<text text-anchor="start" x="416.5" y="-277.5" font-family="Helvetica,sans-Serif" font-size="10.00">ACarlaGameModeBase</text>
<text text-anchor="middle" x="467.5" y="-265.5" font-family="Helvetica,sans-Serif" font-size="10.00">::ParseOpenDrive</text>
</a>
</g>
</g>
<!-- Node4&#45;&gt;Node14 -->
<g id="edge13_Node000004_Node000014" class="edge">
<title>Node4&#45;&gt;Node14</title>
<g id="a_edge13_Node000004_Node000014"><a xlink:title=" ">
<path fill="none" stroke="#63b8ff" d="M589.63,-311.4C577.15,-307.61 564.17,-303.67 552,-300 542.73,-297.2 532.87,-294.24 523.31,-291.37"/>
<polygon fill="#63b8ff" stroke="#63b8ff" points="588.37,-314.98 598.96,-314.54 590.41,-308.29 588.37,-314.98"/>
</a>
</g>
</g>
<!-- Node16 -->
<g id="Node000016" class="node">
<title>Node16</title>
<g id="a_Node000016"><a xlink:href="../../d1/dc0/test__opendrive_8cpp.html#a95337c8716f4e9d4e8bba560dbde9e34" target="_top" xlink:title=" ">
<polygon fill="white" stroke="#666666" points="487.5,-241 447.5,-241 447.5,-221 487.5,-221 487.5,-241"/>
<text text-anchor="middle" x="467.5" y="-227.5" font-family="Helvetica,sans-Serif" font-size="10.00">TEST</text>
</a>
</g>
</g>
<!-- Node4&#45;&gt;Node16 -->
<g id="edge16_Node000004_Node000016" class="edge">
<title>Node4&#45;&gt;Node16</title>
<g id="a_edge16_Node000004_Node000016"><a xlink:title=" ">
<path fill="none" stroke="#63b8ff" d="M630.48,-307.27C611.09,-288.95 581.94,-264.38 552,-250 531.36,-240.09 505.34,-235.23 487.88,-232.92"/>
<polygon fill="#63b8ff" stroke="#63b8ff" points="627.54,-309.27 637.17,-313.69 632.4,-304.23 627.54,-309.27"/>
</a>
</g>
</g>
<!-- Node17 -->
<g id="Node000017" class="node">
<title>Node17</title>
<g id="a_Node000017"><a xlink:href="../../d1/dc0/test__opendrive_8cpp.html#a21ad6143dcb9642d77c0dfc031f41b2a" target="_top" xlink:title=" ">
<polygon fill="white" stroke="#666666" points="487.5,-203 447.5,-203 447.5,-183 487.5,-183 487.5,-203"/>
<text text-anchor="middle" x="467.5" y="-189.5" font-family="Helvetica,sans-Serif" font-size="10.00">TEST</text>
</a>
</g>
</g>
<!-- Node4&#45;&gt;Node17 -->
<g id="edge17_Node000004_Node000017" class="edge">
<title>Node4&#45;&gt;Node17</title>
<g id="a_edge17_Node000004_Node000017"><a xlink:title=" ">
<path fill="none" stroke="#63b8ff" d="M638.9,-305.26C621.54,-277.8 590.36,-235.16 552,-212 532.15,-200.01 505.48,-195.58 487.68,-193.94"/>
<polygon fill="#63b8ff" stroke="#63b8ff" points="636.43,-306.93 644.65,-313.62 642.4,-303.27 636.43,-306.93"/>
</a>
</g>
</g>
<!-- Node18 -->
<g id="Node000018" class="node">
<title>Node18</title>
<g id="a_Node000018"><a xlink:href="../../d1/dc0/test__opendrive_8cpp.html#ad3c77eb93e568426e72ddb84a31031a7" target="_top" xlink:title=" ">
<polygon fill="white" stroke="#666666" points="487.5,-165 447.5,-165 447.5,-145 487.5,-145 487.5,-165"/>
<text text-anchor="middle" x="467.5" y="-151.5" font-family="Helvetica,sans-Serif" font-size="10.00">TEST</text>
</a>
</g>
</g>
<!-- Node4&#45;&gt;Node18 -->
<g id="edge18_Node000004_Node000018" class="edge">
<title>Node4&#45;&gt;Node18</title>
<g id="a_edge18_Node000004_Node000018"><a xlink:title=" ">
<path fill="none" stroke="#63b8ff" d="M644.16,-304.61C629.71,-269.17 599.08,-206.87 552,-174 532.86,-160.64 505.79,-156.52 487.72,-155.33"/>
<polygon fill="#63b8ff" stroke="#63b8ff" points="641.21,-305.66 648.13,-313.68 647.72,-303.1 641.21,-305.66"/>
</a>
</g>
</g>
<!-- Node19 -->
<g id="Node000019" class="node">
<title>Node19</title>
<g id="a_Node000019"><a xlink:href="../../d1/dc0/test__opendrive_8cpp.html#aa6244d8f18c32ca7e6f0b3de79354dda" target="_top" xlink:title=" ">
<polygon fill="white" stroke="#666666" points="487.5,-127 447.5,-127 447.5,-107 487.5,-107 487.5,-127"/>
<text text-anchor="middle" x="467.5" y="-113.5" font-family="Helvetica,sans-Serif" font-size="10.00">TEST</text>
</a>
</g>
</g>
<!-- Node4&#45;&gt;Node19 -->
<g id="edge19_Node000004_Node000019" class="edge">
<title>Node4&#45;&gt;Node19</title>
<g id="a_edge19_Node000004_Node000019"><a xlink:title=" ">
<path fill="none" stroke="#63b8ff" d="M647.55,-303.98C636.12,-261.38 607.84,-179.03 552,-136 533.39,-121.66 505.95,-117.79 487.66,-116.92"/>
<polygon fill="#63b8ff" stroke="#63b8ff" points="644.41,-304.82 650.28,-313.64 651.19,-303.08 644.41,-304.82"/>
</a>
</g>
</g>
<!-- Node20 -->
<g id="Node000020" class="node">
<title>Node20</title>
<g id="a_Node000020"><a xlink:href="../../d1/dc0/test__opendrive_8cpp.html#ac8d924b4ffb05114a054b94c74cffa78" target="_top" xlink:title=" ">
<polygon fill="white" stroke="#666666" points="487.5,-593 447.5,-593 447.5,-573 487.5,-573 487.5,-593"/>
<text text-anchor="middle" x="467.5" y="-579.5" font-family="Helvetica,sans-Serif" font-size="10.00">TEST</text>
</a>
</g>
</g>
<!-- Node4&#45;&gt;Node20 -->
<g id="edge20_Node000004_Node000020" class="edge">
<title>Node4&#45;&gt;Node20</title>
<g id="a_edge20_Node000004_Node000020"><a xlink:title=" ">
<path fill="none" stroke="#63b8ff" d="M650.1,-357.91C641.75,-406.82 617.03,-510.2 552,-564 533.9,-578.97 506.34,-582.7 487.88,-583.36"/>
<polygon fill="#63b8ff" stroke="#63b8ff" points="653.68,-358.67 651.8,-348.25 646.77,-357.57 653.68,-358.67"/>
</a>
</g>
</g>
<!-- Node21 -->
<g id="Node000021" class="node">
<title>Node21</title>
<g id="a_Node000021"><a xlink:href="../../d1/dc0/test__opendrive_8cpp.html#a47478715c88bbf3920c5566107f97b94" target="_top" xlink:title=" ">
<polygon fill="white" stroke="#666666" points="487.5,-555 447.5,-555 447.5,-535 487.5,-535 487.5,-555"/>
<text text-anchor="middle" x="467.5" y="-541.5" font-family="Helvetica,sans-Serif" font-size="10.00">TEST</text>
</a>
</g>
</g>
<!-- Node4&#45;&gt;Node21 -->
<g id="edge21_Node000004_Node000021" class="edge">
<title>Node4&#45;&gt;Node21</title>
<g id="a_edge21_Node000004_Node000021"><a xlink:title=" ">
<path fill="none" stroke="#63b8ff" d="M647.55,-358.02C636.12,-400.62 607.84,-482.97 552,-526 533.39,-540.34 505.95,-544.21 487.66,-545.08"/>
<polygon fill="#63b8ff" stroke="#63b8ff" points="651.19,-358.92 650.28,-348.36 644.41,-357.18 651.19,-358.92"/>
</a>
</g>
</g>
<!-- Node7 -->
<g id="Node000007" class="node">
<title>Node7</title>
<g id="a_Node000007"><a xlink:href="../../d1/d1b/classUOpenDrive.html#ac05b8dc3f340e373582945f9215081d9" target="_top" xlink:title="Load OpenDriveMap associated to the given MapName.">
<polygon fill="white" stroke="#666666" points="344.38,-480 187.38,-480 187.38,-460 344.38,-460 344.38,-480"/>
<text text-anchor="middle" x="265.88" y="-466.5" font-family="Helvetica,sans-Serif" font-size="10.00">UOpenDrive::LoadOpenDriveMap</text>
</a>
</g>
</g>
<!-- Node6&#45;&gt;Node7 -->
<g id="edge6_Node000006_Node000007" class="edge">
<title>Node6&#45;&gt;Node7</title>
<g id="a_edge6_Node000006_Node000007"><a xlink:title=" ">
<path fill="none" stroke="#63b8ff" d="M399.85,-469.33C382.18,-469.42 362.95,-469.52 344.75,-469.61"/>
<polygon fill="#63b8ff" stroke="#63b8ff" points="399.65,-472.83 409.63,-469.28 399.61,-465.83 399.65,-472.83"/>
</a>
</g>
</g>
<!-- Node8 -->
<g id="Node000008" class="node">
<title>Node8</title>
<g id="a_Node000008"><a xlink:href="../../d1/d1b/classUOpenDrive.html#a4486c7ee9d4a8bf6cd2a7ca5ad7e4ece" target="_top" xlink:title="Load OpenDriveMap associated to the currently loaded map.">
<polygon fill="white" stroke="#666666" points="148.75,-487 0,-487 0,-455 148.75,-455 148.75,-487"/>
<text text-anchor="start" x="8" y="-473.5" font-family="Helvetica,sans-Serif" font-size="10.00">UOpenDrive::LoadCurrentOpen</text>
<text text-anchor="middle" x="74.38" y="-461.5" font-family="Helvetica,sans-Serif" font-size="10.00">DriveMap</text>
</a>
</g>
</g>
<!-- Node7&#45;&gt;Node8 -->
<g id="edge7_Node000007_Node000008" class="edge">
<title>Node7&#45;&gt;Node8</title>
<g id="a_edge7_Node000007_Node000008"><a xlink:title=" ">
<path fill="none" stroke="#63b8ff" d="M176.01,-470.47C166.97,-470.52 157.86,-470.56 149.01,-470.61"/>
<polygon fill="#63b8ff" stroke="#63b8ff" points="176,-473.96 185.98,-470.41 175.96,-466.96 176,-473.96"/>
</a>
</g>
</g>
<!-- Node10 -->
<g id="Node000010" class="node">
<title>Node10</title>
<g id="a_Node000010"><a xlink:href="../../d7/d97/classFCarlaServer_1_1FPimpl.html#a675a6b572112a21e8bc011dddfd0de86" target="_top" xlink:title=" ">
<polygon fill="white" stroke="#666666" points="320,-439 211.75,-439 211.75,-407 320,-407 320,-439"/>
<text text-anchor="start" x="219.75" y="-425.5" font-family="Helvetica,sans-Serif" font-size="10.00">FCarlaServer::FPimpl</text>
<text text-anchor="middle" x="265.88" y="-413.5" font-family="Helvetica,sans-Serif" font-size="10.00">::BindActions</text>
</a>
</g>
</g>
<!-- Node9&#45;&gt;Node10 -->
<g id="edge9_Node000009_Node000010" class="edge">
<title>Node9&#45;&gt;Node10</title>
<g id="a_edge9_Node000009_Node000010"><a xlink:title=" ">
<path fill="none" stroke="#63b8ff" d="M371.75,-424.05C354.07,-423.87 336.18,-423.69 320.3,-423.54"/>
<polygon fill="#63b8ff" stroke="#63b8ff" points="371.67,-427.56 381.71,-424.16 371.74,-420.56 371.67,-427.56"/>
</a>
</g>
</g>
<!-- Node11 -->
<g id="Node000011" class="node">
<title>Node11</title>
<g id="a_Node000011"><a xlink:href="../../d7/d97/classFCarlaServer_1_1FPimpl.html#ab9ff29fc81bd2f9a14677941c7f7b62d" target="_top" xlink:title=" ">
<polygon fill="white" stroke="#666666" points="128.5,-437 20.25,-437 20.25,-405 128.5,-405 128.5,-437"/>
<text text-anchor="start" x="28.25" y="-423.5" font-family="Helvetica,sans-Serif" font-size="10.00">FCarlaServer::FPimpl</text>
<text text-anchor="middle" x="74.38" y="-411.5" font-family="Helvetica,sans-Serif" font-size="10.00">::FPimpl</text>
</a>
</g>
</g>
<!-- Node10&#45;&gt;Node11 -->
<g id="edge10_Node000010_Node000011" class="edge">
<title>Node10&#45;&gt;Node11</title>
<g id="a_edge10_Node000010_Node000011"><a xlink:title=" ">
<path fill="none" stroke="#63b8ff" d="M200.48,-422.32C177.15,-422.07 151.07,-421.8 128.79,-421.56"/>
<polygon fill="#63b8ff" stroke="#63b8ff" points="200.3,-425.83 210.33,-422.43 200.37,-418.83 200.3,-425.83"/>
</a>
</g>
</g>
<!-- Node15 -->
<g id="Node000015" class="node">
<title>Node15</title>
<g id="a_Node000015"><a xlink:href="../../db/de5/classACarlaGameModeBase.html#a5caddc59713354578997de90542ddd93" target="_top" xlink:title=" ">
<polygon fill="white" stroke="#666666" points="324.88,-291 206.88,-291 206.88,-259 324.88,-259 324.88,-291"/>
<text text-anchor="start" x="214.88" y="-277.5" font-family="Helvetica,sans-Serif" font-size="10.00">ACarlaGameModeBase</text>
<text text-anchor="middle" x="265.88" y="-265.5" font-family="Helvetica,sans-Serif" font-size="10.00">::InitGame</text>
</a>
</g>
</g>
<!-- Node14&#45;&gt;Node15 -->
<g id="edge14_Node000014_Node000015" class="edge">
<title>Node14&#45;&gt;Node15</title>
<g id="a_edge14_Node000014_Node000015"><a xlink:title=" ">
<path fill="none" stroke="#63b8ff" d="M397.27,-275C373.78,-275 347.78,-275 325.22,-275"/>
<polygon fill="#63b8ff" stroke="#63b8ff" points="397.22,-278.5 407.22,-275 397.22,-271.5 397.22,-278.5"/>
</a>
</g>
</g>
<!-- Node15&#45;&gt;Node15 -->
<g id="edge15_Node000015_Node000015" class="edge">
<title>Node15&#45;&gt;Node15</title>
<g id="a_edge15_Node000015_Node000015"><a xlink:title=" ">
<path fill="none" stroke="#63b8ff" d="M298.65,-302.05C293.67,-306.19 282.74,-309 265.88,-309 236.7,-309 225.31,-300.58 231.69,-291.44"/>
<polygon fill="#63b8ff" stroke="#63b8ff" points="302.21,-302.82 300.06,-292.44 295.27,-301.89 302.21,-302.82"/>
</a>
</g>
</g>
<!-- Node23 -->
<g id="Node000023" class="node">
<title>Node23</title>
<g id="a_Node000023"><a xlink:href="../../d0/d34/classcarla_1_1road_1_1Map.html#a8f7405072e937b732ea32c9b73bd116c" target="_top" xlink:title="========================================================================">
<polygon fill="white" stroke="#666666" points="1073.25,-284 962,-284 962,-264 1073.25,-264 1073.25,-284"/>
<text text-anchor="middle" x="1017.62" y="-270.5" font-family="Helvetica,sans-Serif" font-size="10.00">carla::road::Map::Map</text>
</a>
</g>
</g>
<!-- Node22&#45;&gt;Node23 -->
<g id="edge23_Node000022_Node000023" class="edge">
<title>Node22&#45;&gt;Node23</title>
<g id="a_edge23_Node000022_Node000023"><a xlink:title=" ">
<path fill="none" stroke="#63b8ff" d="M1129.93,-267.88C1111.23,-268.91 1091.32,-270.01 1073.58,-270.98"/>
<polygon fill="#63b8ff" stroke="#63b8ff" points="1129.99,-271.33 1139.78,-267.29 1129.6,-264.34 1129.99,-271.33"/>
</a>
</g>
</g>
<!-- Node25 -->
<g id="Node000025" class="node">
<title>Node25</title>
<g id="a_Node000025"><a xlink:href="../../d2/d60/classcarla_1_1road_1_1element_1_1LaneCrossingCalculator.html#a589511f573df9e9c46c55a7a46c02cd6" target="_top" xlink:title=" ">
<polygon fill="white" stroke="#666666" points="717.25,-114 592.5,-114 592.5,-70 717.25,-70 717.25,-114"/>
<text text-anchor="start" x="600.5" y="-100.5" font-family="Helvetica,sans-Serif" font-size="10.00">carla::road::element</text>
<text text-anchor="start" x="600.5" y="-88.5" font-family="Helvetica,sans-Serif" font-size="10.00">::LaneCrossingCalculator</text>
<text text-anchor="middle" x="654.88" y="-76.5" font-family="Helvetica,sans-Serif" font-size="10.00">::Calculate</text>
</a>
</g>
</g>
<!-- Node24&#45;&gt;Node25 -->
<g id="edge25_Node000024_Node000025" class="edge">
<title>Node24&#45;&gt;Node25</title>
<g id="a_edge25_Node000024_Node000025"><a xlink:title=" ">
<path fill="none" stroke="#63b8ff" d="M1119.64,-195.31C1010.38,-194.8 822.06,-190.39 757.75,-167 727,-155.81 697.53,-132.24 678.27,-114.49"/>
<polygon fill="#63b8ff" stroke="#63b8ff" points="1119.59,-198.81 1129.6,-195.35 1119.62,-191.81 1119.59,-198.81"/>
</a>
</g>
</g>
<!-- Node27 -->
<g id="Node000027" class="node">
<title>Node27</title>
<g id="a_Node000027"><a xlink:href="../../de/d16/classcarla_1_1road_1_1MapBuilder.html#af3773de062a9e9aec4310f024f19ba28" target="_top" xlink:title="Checks signals overlapping driving lanes and emits a warning.">
<polygon fill="white" stroke="#666666" points="1078.88,-246 956.38,-246 956.38,-214 1078.88,-214 1078.88,-246"/>
<text text-anchor="start" x="964.38" y="-232.5" font-family="Helvetica,sans-Serif" font-size="10.00">carla::road::MapBuilder</text>
<text text-anchor="middle" x="1017.62" y="-220.5" font-family="Helvetica,sans-Serif" font-size="10.00">::CheckSignalsOnRoads</text>
</a>
</g>
</g>
<!-- Node24&#45;&gt;Node27 -->
<g id="edge27_Node000024_Node000027" class="edge">
<title>Node24&#45;&gt;Node27</title>
<g id="a_edge27_Node000024_Node000027"><a xlink:title=" ">
<path fill="none" stroke="#63b8ff" d="M1120.1,-210.49C1106.37,-213.13 1092.31,-215.83 1079.21,-218.35"/>
<polygon fill="#63b8ff" stroke="#63b8ff" points="1120.36,-213.81 1129.52,-208.48 1119.04,-206.93 1120.36,-213.81"/>
</a>
</g>
</g>
<!-- Node28 -->
<g id="Node000028" class="node">
<title>Node28</title>
<g id="a_Node000028"><a xlink:href="../../d0/d34/classcarla_1_1road_1_1Map.html#a39f0ccacb98f62b339de96c69621543b" target="_top" xlink:title=" ">
<polygon fill="white" stroke="#666666" points="1092.38,-102 942.88,-102 942.88,-82 1092.38,-82 1092.38,-102"/>
<text text-anchor="middle" x="1017.62" y="-88.5" font-family="Helvetica,sans-Serif" font-size="10.00">carla::road::Map::GetWaypoint</text>
</a>
</g>
</g>
<!-- Node24&#45;&gt;Node28 -->
<g id="edge29_Node000024_Node000028" class="edge">
<title>Node24&#45;&gt;Node28</title>
<g id="a_edge29_Node000024_Node000028"><a xlink:title=" ">
<path fill="none" stroke="#63b8ff" d="M1139.9,-174.29C1136.86,-172.91 1133.88,-171.48 1131,-170 1092.15,-149.99 1051.1,-118.45 1031.07,-102.29"/>
<polygon fill="#63b8ff" stroke="#63b8ff" points="1138.19,-177.79 1148.76,-178.5 1140.94,-171.36 1138.19,-177.79"/>
</a>
</g>
</g>
<!-- Node34 -->
<g id="Node000034" class="node">
<title>Node34</title>
<g id="a_Node000034"><a xlink:href="../../d0/d34/classcarla_1_1road_1_1Map.html#a1653a470bdf6e93b0471773b2e079847" target="_top" xlink:title=" ">
<polygon fill="white" stroke="#666666" points="904.25,-20 757.75,-20 757.75,0 904.25,0 904.25,-20"/>
<text text-anchor="middle" x="831" y="-6.5" font-family="Helvetica,sans-Serif" font-size="10.00">carla::road::Map::SDFToMesh</text>
</a>
</g>
</g>
<!-- Node24&#45;&gt;Node34 -->
<g id="edge38_Node000024_Node000034" class="edge">
<title>Node24&#45;&gt;Node34</title>
<g id="a_edge38_Node000024_Node000034"><a xlink:title=" ">
<path fill="none" stroke="#63b8ff" d="M1133.22,-172.07C1132.46,-171.4 1131.72,-170.71 1131,-170 1098.31,-137.66 1129.41,-103.5 1095,-73 1042.82,-26.75 962.68,-12.96 904.58,-9.53"/>
<polygon fill="#63b8ff" stroke="#63b8ff" points="1130.9,-175.44 1141.03,-178.55 1135.04,-169.81 1130.9,-175.44"/>
</a>
</g>
</g>
<!-- Node26 -->
<g id="Node000026" class="node">
<title>Node26</title>
<g id="a_Node000026"><a xlink:href="../../d0/d34/classcarla_1_1road_1_1Map.html#a4d3427dc449d9555dc1a02865d110e76" target="_top" xlink:title=" ">
<polygon fill="white" stroke="#666666" points="534,-89 401,-89 401,-57 534,-57 534,-89"/>
<text text-anchor="start" x="409" y="-75.5" font-family="Helvetica,sans-Serif" font-size="10.00">carla::road::Map::Calculate</text>
<text text-anchor="middle" x="467.5" y="-63.5" font-family="Helvetica,sans-Serif" font-size="10.00">CrossedLanes</text>
</a>
</g>
</g>
<!-- Node25&#45;&gt;Node26 -->
<g id="edge26_Node000025_Node000026" class="edge">
<title>Node25&#45;&gt;Node26</title>
<g id="a_edge26_Node000025_Node000026"><a xlink:title=" ">
<path fill="none" stroke="#63b8ff" d="M581.55,-84.59C566.02,-82.99 549.68,-81.32 534.41,-79.76"/>
<polygon fill="#63b8ff" stroke="#63b8ff" points="580.84,-88.14 591.15,-85.67 581.56,-81.17 580.84,-88.14"/>
</a>
</g>
</g>
<!-- Node27&#45;&gt;Node3 -->
<g id="edge28_Node000027_Node000003" class="edge">
<title>Node27&#45;&gt;Node3</title>
<g id="a_edge28_Node000027_Node000003"><a xlink:title=" ">
<path fill="none" stroke="#63b8ff" d="M951.89,-250.12C947.92,-251.68 944.01,-253.31 940.25,-255 910.29,-268.44 878.01,-287.94 856.57,-301.68"/>
<polygon fill="#63b8ff" stroke="#63b8ff" points="952.72,-253.17 960.85,-246.37 950.26,-246.62 952.72,-253.17"/>
</a>
</g>
</g>
<!-- Node29 -->
<g id="Node000029" class="node">
<title>Node29</title>
<g id="a_Node000029"><a xlink:href="../../d0/d34/classcarla_1_1road_1_1Map.html#accf4f345bb9db4bcd6cdd9e6fec322cc" target="_top" xlink:title=" ">
<polygon fill="white" stroke="#666666" points="721,-39 588.75,-39 588.75,-7 721,-7 721,-39"/>
<text text-anchor="start" x="596.75" y="-25.5" font-family="Helvetica,sans-Serif" font-size="10.00">carla::road::Map::Generate</text>
<text text-anchor="middle" x="654.88" y="-13.5" font-family="Helvetica,sans-Serif" font-size="10.00">SingleJunction</text>
</a>
</g>
</g>
<!-- Node28&#45;&gt;Node29 -->
<g id="edge30_Node000028_Node000029" class="edge">
<title>Node28&#45;&gt;Node29</title>
<g id="a_edge30_Node000028_Node000029"><a xlink:title=" ">
<path fill="none" stroke="#63b8ff" d="M960.96,-79.11C942.9,-75.07 922.76,-70.7 904.25,-67 842.41,-54.65 771.55,-42.27 721.39,-33.8"/>
<polygon fill="#63b8ff" stroke="#63b8ff" points="960.08,-82.73 970.61,-81.51 961.62,-75.9 960.08,-82.73"/>
</a>
</g>
</g>
<!-- Node32 -->
<g id="Node000032" class="node">
<title>Node32</title>
<g id="a_Node000032"><a xlink:href="../../d0/d34/classcarla_1_1road_1_1Map.html#a047f3fd871248ef6cea3d7057e38830b" target="_top" xlink:title="Generate the minimum set of waypoints that define the topology of map.">
<polygon fill="white" stroke="#666666" points="897.12,-158 764.88,-158 764.88,-126 897.12,-126 897.12,-158"/>
<text text-anchor="start" x="772.88" y="-144.5" font-family="Helvetica,sans-Serif" font-size="10.00">carla::road::Map::Generate</text>
<text text-anchor="middle" x="831" y="-132.5" font-family="Helvetica,sans-Serif" font-size="10.00">Topology</text>
</a>
</g>
</g>
<!-- Node28&#45;&gt;Node32 -->
<g id="edge33_Node000028_Node000032" class="edge">
<title>Node28&#45;&gt;Node32</title>
<g id="a_edge33_Node000028_Node000032"><a xlink:title=" ">
<path fill="none" stroke="#63b8ff" d="M967.41,-105.33C944.5,-111.53 917.02,-118.98 892.82,-125.53"/>
<polygon fill="#63b8ff" stroke="#63b8ff" points="968.18,-108.47 976.92,-102.48 966.35,-101.72 968.18,-108.47"/>
</a>
</g>
</g>
<!-- Node33 -->
<g id="Node000033" class="node">
<title>Node33</title>
<g id="a_Node000033"><a xlink:href="../../df/dc1/namespacecarla_1_1road_1_1element.html#ad4397b3938f0a721ad5208f14912b744" target="_top" xlink:title=" ">
<polygon fill="white" stroke="#666666" points="882.12,-108 779.88,-108 779.88,-76 882.12,-76 882.12,-108"/>
<text text-anchor="start" x="787.88" y="-94.5" font-family="Helvetica,sans-Serif" font-size="10.00">carla::road::element</text>
<text text-anchor="middle" x="831" y="-82.5" font-family="Helvetica,sans-Serif" font-size="10.00">::IsOffRoad</text>
</a>
</g>
</g>
<!-- Node28&#45;&gt;Node33 -->
<g id="edge34_Node000028_Node000033" class="edge">
<title>Node28&#45;&gt;Node33</title>
<g id="a_edge34_Node000028_Node000033"><a xlink:title=" ">
<path fill="none" stroke="#63b8ff" d="M931.63,-92C914.84,-92 897.72,-92 882.52,-92"/>
<polygon fill="#63b8ff" stroke="#63b8ff" points="931.59,-95.5 941.59,-92 931.59,-88.5 931.59,-95.5"/>
</a>
</g>
</g>
<!-- Node28&#45;&gt;Node34 -->
<g id="edge36_Node000028_Node000034" class="edge">
<title>Node28&#45;&gt;Node34</title>
<g id="a_edge36_Node000028_Node000034"><a xlink:title=" ">
<path fill="none" stroke="#63b8ff" d="M989.23,-76.33C966.82,-63.89 934.08,-46.56 904.25,-34 892.31,-28.97 878.93,-24.28 866.95,-20.4"/>
<polygon fill="#63b8ff" stroke="#63b8ff" points="987.31,-79.83 997.75,-81.67 990.73,-73.72 987.31,-79.83"/>
</a>
</g>
</g>
<!-- Node30 -->
<g id="Node000030" class="node">
<title>Node30</title>
<g id="a_Node000030"><a xlink:href="../../d0/d34/classcarla_1_1road_1_1Map.html#aa51550af7f6efc7df8691eb41225beec" target="_top" xlink:title=" ">
<polygon fill="white" stroke="#666666" points="533.62,-39 401.38,-39 401.38,-7 533.62,-7 533.62,-39"/>
<text text-anchor="start" x="409.38" y="-25.5" font-family="Helvetica,sans-Serif" font-size="10.00">carla::road::Map::Generate</text>
<text text-anchor="middle" x="467.5" y="-13.5" font-family="Helvetica,sans-Serif" font-size="10.00">Junctions</text>
</a>
</g>
</g>
<!-- Node29&#45;&gt;Node30 -->
<g id="edge31_Node000029_Node000030" class="edge">
<title>Node29&#45;&gt;Node30</title>
<g id="a_edge31_Node000029_Node000030"><a xlink:title=" ">
<path fill="none" stroke="#63b8ff" d="M577.38,-23C562.98,-23 548.05,-23 534.03,-23"/>
<polygon fill="#63b8ff" stroke="#63b8ff" points="577.26,-26.5 587.26,-23 577.26,-19.5 577.26,-26.5"/>
</a>
</g>
</g>
<!-- Node31 -->
<g id="Node000031" class="node">
<title>Node31</title>
<g id="a_Node000031"><a xlink:href="../../d0/d34/classcarla_1_1road_1_1Map.html#ac77235567699cc2853177c441390fd14" target="_top" xlink:title=" ">
<polygon fill="white" stroke="#666666" points="347,-39 184.75,-39 184.75,-7 347,-7 347,-39"/>
<text text-anchor="start" x="192.75" y="-25.5" font-family="Helvetica,sans-Serif" font-size="10.00">carla::road::Map::Generate</text>
<text text-anchor="middle" x="265.88" y="-13.5" font-family="Helvetica,sans-Serif" font-size="10.00">OrderedChunkedMeshInLocations</text>
</a>
</g>
</g>
<!-- Node30&#45;&gt;Node31 -->
<g id="edge32_Node000030_Node000031" class="edge">
<title>Node30&#45;&gt;Node31</title>
<g id="a_edge32_Node000030_Node000031"><a xlink:title=" ">
<path fill="none" stroke="#63b8ff" d="M390.5,-23C376.4,-23 361.62,-23 347.38,-23"/>
<polygon fill="#63b8ff" stroke="#63b8ff" points="390.14,-26.5 400.14,-23 390.14,-19.5 390.14,-26.5"/>
</a>
</g>
</g>
<!-- Node33&#45;&gt;Node25 -->
<g id="edge35_Node000033_Node000025" class="edge">
<title>Node33&#45;&gt;Node25</title>
<g id="a_edge35_Node000033_Node000025"><a xlink:title=" ">
<path fill="none" stroke="#63b8ff" d="M768.93,-92C752.28,-92 734.24,-92 717.56,-92"/>
<polygon fill="#63b8ff" stroke="#63b8ff" points="768.64,-95.5 778.64,-92 768.64,-88.5 768.64,-95.5"/>
</a>
</g>
</g>
<!-- Node34&#45;&gt;Node29 -->
<g id="edge37_Node000034_Node000029" class="edge">
<title>Node34&#45;&gt;Node29</title>
<g id="a_edge37_Node000034_Node000029"><a xlink:title=" ">
<path fill="none" stroke="#63b8ff" d="M746.7,-16.22C738.21,-16.85 729.66,-17.49 721.39,-18.11"/>
<polygon fill="#63b8ff" stroke="#63b8ff" points="746.7,-19.65 756.42,-15.42 746.18,-12.67 746.7,-19.65"/>
</a>
</g>
</g>
<!-- Node35&#45;&gt;Node35 -->
<g id="edge41_Node000035_Node000035" class="edge">
<title>Node35&#45;&gt;Node35</title>
<g id="a_edge41_Node000035_Node000035"><a xlink:title=" ">
<path fill="none" stroke="#63b8ff" d="M1230.87,-154.05C1226.42,-158.19 1216.67,-161 1201.62,-161 1175.59,-161 1165.42,-152.58 1171.12,-143.44"/>
<polygon fill="#63b8ff" stroke="#63b8ff" points="1234.42,-154.79 1232.13,-144.44 1227.47,-153.96 1234.42,-154.79"/>
</a>
</g>
</g>
</g>
</svg>
