<?xml version="1.0" encoding="UTF-8" standalone="no"?>
<!DOCTYPE svg PUBLIC "-//W3C//DTD SVG 1.1//EN"
 "http://www.w3.org/Graphics/SVG/1.1/DTD/svg11.dtd">
<!-- Generated by graphviz version 8.1.0 (20230707.0739)
 -->
<!-- Title: carla::road::Map::GetMarkRecord Pages: 1 -->
<svg width="762pt" height="115pt"
 viewBox="0.00 0.00 761.50 115.00" xmlns="http://www.w3.org/2000/svg" xmlns:xlink="http://www.w3.org/1999/xlink">
<g id="graph0" class="graph" transform="scale(1 1) rotate(0) translate(4 111)">
<title>carla::road::Map::GetMarkRecord</title>
<!-- Node1 -->
<g id="Node000001" class="node">
<title>Node1</title>
<g id="a_Node000001"><a xlink:title=" ">
<polygon fill="#999999" stroke="#666666" points="130,-57 0,-57 0,-25 130,-25 130,-57"/>
<text text-anchor="start" x="8" y="-43.5" font-family="Helvetica,sans-Serif" font-size="10.00">carla::road::Map::GetMark</text>
<text text-anchor="middle" x="65" y="-31.5" font-family="Helvetica,sans-Serif" font-size="10.00">Record</text>
</a>
</g>
</g>
<!-- Node2 -->
<g id="Node000002" class="node">
<title>Node2</title>
<g id="a_Node000002"><a xlink:href="../../d0/d34/classcarla_1_1road_1_1Map.html#af8814cb7eb14d0691d9c1e49f4ef88b1" target="_top" xlink:title="========================================================================">
<polygon fill="white" stroke="#666666" points="295.25,-51 166,-51 166,-31 295.25,-31 295.25,-51"/>
<text text-anchor="middle" x="230.62" y="-37.5" font-family="Helvetica,sans-Serif" font-size="10.00">carla::road::Map::GetLane</text>
</a>
</g>
</g>
<!-- Node1&#45;&gt;Node2 -->
<g id="edge1_Node000001_Node000002" class="edge">
<title>Node1&#45;&gt;Node2</title>
<g id="a_edge1_Node000001_Node000002"><a xlink:title=" ">
<path fill="none" stroke="#63b8ff" d="M130.2,-41C138.29,-41 146.63,-41 154.86,-41"/>
<polygon fill="#63b8ff" stroke="#63b8ff" points="154.61,-44.5 164.61,-41 154.61,-37.5 154.61,-44.5"/>
</a>
</g>
</g>
<!-- Node3 -->
<g id="Node000003" class="node">
<title>Node3</title>
<g id="a_Node000003"><a xlink:href="../../dd/de6/classcarla_1_1road_1_1Road.html#a44cd205b140128adf1fc06f91f55409a" target="_top" xlink:title=" ">
<polygon fill="white" stroke="#666666" points="432.75,-82 336.5,-82 336.5,-50 432.75,-50 432.75,-82"/>
<text text-anchor="start" x="344.5" y="-68.5" font-family="Helvetica,sans-Serif" font-size="10.00">carla::road::Road::</text>
<text text-anchor="middle" x="384.62" y="-56.5" font-family="Helvetica,sans-Serif" font-size="10.00">GetLaneById</text>
</a>
</g>
</g>
<!-- Node2&#45;&gt;Node3 -->
<g id="edge2_Node000002_Node000003" class="edge">
<title>Node2&#45;&gt;Node3</title>
<g id="a_edge2_Node000002_Node000003"><a xlink:title=" ">
<path fill="none" stroke="#63b8ff" d="M295.21,-51.46C305.24,-53.11 315.58,-54.81 325.48,-56.44"/>
<polygon fill="#63b8ff" stroke="#63b8ff" points="324.59,-60 335.03,-58.17 325.73,-53.09 324.59,-60"/>
</a>
</g>
</g>
<!-- Node7 -->
<g id="Node000007" class="node">
<title>Node7</title>
<g id="a_Node000007"><a xlink:href="../../da/d3b/classcarla_1_1road_1_1MapData.html#a7b4838408fa475389a01b2d451b662e7" target="_top" xlink:title=" ">
<polygon fill="white" stroke="#666666" points="438,-32 331.25,-32 331.25,0 438,0 438,-32"/>
<text text-anchor="start" x="339.25" y="-18.5" font-family="Helvetica,sans-Serif" font-size="10.00">carla::road::MapData</text>
<text text-anchor="middle" x="384.62" y="-6.5" font-family="Helvetica,sans-Serif" font-size="10.00">::GetRoad</text>
</a>
</g>
</g>
<!-- Node2&#45;&gt;Node7 -->
<g id="edge6_Node000002_Node000007" class="edge">
<title>Node2&#45;&gt;Node7</title>
<g id="a_edge6_Node000002_Node000007"><a xlink:title=" ">
<path fill="none" stroke="#63b8ff" d="M295.21,-30.54C303.46,-29.18 311.92,-27.79 320.18,-26.44"/>
<polygon fill="#63b8ff" stroke="#63b8ff" points="320.58,-29.75 329.88,-24.67 319.45,-22.84 320.58,-29.75"/>
</a>
</g>
</g>
<!-- Node4 -->
<g id="Node000004" class="node">
<title>Node4</title>
<g id="a_Node000004"><a xlink:href="../../dd/d80/classcarla_1_1road_1_1LaneSection.html#afb698c17b4d62c0df02cf8dae16b8f50" target="_top" xlink:title=" ">
<polygon fill="white" stroke="#666666" points="595.75,-107 474,-107 474,-75 595.75,-75 595.75,-107"/>
<text text-anchor="start" x="482" y="-93.5" font-family="Helvetica,sans-Serif" font-size="10.00">carla::road::LaneSection</text>
<text text-anchor="middle" x="534.88" y="-81.5" font-family="Helvetica,sans-Serif" font-size="10.00">::GetLanes</text>
</a>
</g>
</g>
<!-- Node3&#45;&gt;Node4 -->
<g id="edge3_Node000003_Node000004" class="edge">
<title>Node3&#45;&gt;Node4</title>
<g id="a_edge3_Node000003_Node000004"><a xlink:title=" ">
<path fill="none" stroke="#63b8ff" d="M432.94,-73.98C442.56,-75.6 452.88,-77.34 463.11,-79.07"/>
<polygon fill="#63b8ff" stroke="#63b8ff" points="462.27,-82.64 472.72,-80.86 463.44,-75.74 462.27,-82.64"/>
</a>
</g>
</g>
<!-- Node5 -->
<g id="Node000005" class="node">
<title>Node5</title>
<g id="a_Node000005"><a xlink:href="../../dd/de6/classcarla_1_1road_1_1Road.html#afc2ce3f2de8825413a827d46c62c197b" target="_top" xlink:title=" ">
<polygon fill="white" stroke="#666666" points="587.5,-57 482.25,-57 482.25,-25 587.5,-25 587.5,-57"/>
<text text-anchor="start" x="490.25" y="-43.5" font-family="Helvetica,sans-Serif" font-size="10.00">carla::road::Road::</text>
<text text-anchor="middle" x="534.88" y="-31.5" font-family="Helvetica,sans-Serif" font-size="10.00">GetLaneSectionById</text>
</a>
</g>
</g>
<!-- Node3&#45;&gt;Node5 -->
<g id="edge4_Node000003_Node000005" class="edge">
<title>Node3&#45;&gt;Node5</title>
<g id="a_edge4_Node000003_Node000005"><a xlink:title=" ">
<path fill="none" stroke="#63b8ff" d="M432.94,-58.02C445.12,-55.97 458.42,-53.72 471.25,-51.56"/>
<polygon fill="#63b8ff" stroke="#63b8ff" points="471.6,-54.88 480.87,-49.77 470.43,-47.98 471.6,-54.88"/>
</a>
</g>
</g>
<!-- Node6 -->
<g id="Node000006" class="node">
<title>Node6</title>
<g id="a_Node000006"><a xlink:href="../../d9/dab/classcarla_1_1road_1_1LaneSectionMap.html#afd0eebe15809491819f1335b7c7157e9" target="_top" xlink:title=" ">
<polygon fill="white" stroke="#666666" points="753.5,-57 631.75,-57 631.75,-25 753.5,-25 753.5,-57"/>
<text text-anchor="start" x="639.75" y="-43.5" font-family="Helvetica,sans-Serif" font-size="10.00">carla::road::LaneSection</text>
<text text-anchor="middle" x="692.62" y="-31.5" font-family="Helvetica,sans-Serif" font-size="10.00">Map::GetById</text>
</a>
</g>
</g>
<!-- Node5&#45;&gt;Node6 -->
<g id="edge5_Node000005_Node000006" class="edge">
<title>Node5&#45;&gt;Node6</title>
<g id="a_edge5_Node000005_Node000006"><a xlink:title=" ">
<path fill="none" stroke="#63b8ff" d="M587.74,-41C598.22,-41 609.42,-41 620.44,-41"/>
<polygon fill="#63b8ff" stroke="#63b8ff" points="620.36,-44.5 630.36,-41 620.36,-37.5 620.36,-44.5"/>
</a>
</g>
</g>
</g>
</svg>
