<?xml version="1.0" encoding="UTF-8" standalone="no"?>
<!DOCTYPE svg PUBLIC "-//W3C//DTD SVG 1.1//EN"
 "http://www.w3.org/Graphics/SVG/1.1/DTD/svg11.dtd">
<!-- Generated by graphviz version 8.1.0 (20230707.0739)
 -->
<!-- Title: carla::road::Map::GetRight Pages: 1 -->
<svg width="620pt" height="140pt"
 viewBox="0.00 0.00 620.25 140.00" xmlns="http://www.w3.org/2000/svg" xmlns:xlink="http://www.w3.org/1999/xlink">
<g id="graph0" class="graph" transform="scale(1 1) rotate(0) translate(4 136)">
<title>carla::road::Map::GetRight</title>
<!-- Node1 -->
<g id="Node000001" class="node">
<title>Node1</title>
<g id="a_Node000001"><a xlink:title="Return a waypoint at the lane of waypoint&#39;s right lane.">
<polygon fill="#999999" stroke="#666666" points="130.75,-76 0,-76 0,-56 130.75,-56 130.75,-76"/>
<text text-anchor="middle" x="65.38" y="-62.5" font-family="Helvetica,sans-Serif" font-size="10.00">carla::road::Map::GetRight</text>
</a>
</g>
</g>
<!-- Node2 -->
<g id="Node000002" class="node">
<title>Node2</title>
<g id="a_Node000002"><a xlink:href="../../de/d26/namespacecarla_1_1road.html#a7ecd44cf0915faa4721092185974318d" target="_top" xlink:title="Assumes road_id and section_id are valid.">
<polygon fill="white" stroke="#666666" points="296.75,-76 166.75,-76 166.75,-56 296.75,-56 296.75,-76"/>
<text text-anchor="middle" x="231.75" y="-62.5" font-family="Helvetica,sans-Serif" font-size="10.00">carla::road::IsLanePresent</text>
</a>
</g>
</g>
<!-- Node1&#45;&gt;Node2 -->
<g id="edge1_Node000001_Node000002" class="edge">
<title>Node1&#45;&gt;Node2</title>
<g id="a_edge1_Node000001_Node000002"><a xlink:title=" ">
<path fill="none" stroke="#63b8ff" d="M130.87,-66C139,-66 147.37,-66 155.65,-66"/>
<polygon fill="#63b8ff" stroke="#63b8ff" points="155.44,-69.5 165.44,-66 155.44,-62.5 155.44,-69.5"/>
</a>
</g>
</g>
<!-- Node3 -->
<g id="Node000003" class="node">
<title>Node3</title>
<g id="a_Node000003"><a xlink:href="../../dd/d80/classcarla_1_1road_1_1LaneSection.html#a9478348b133c1ec7b072b3b4c18223c0" target="_top" xlink:title=" ">
<polygon fill="white" stroke="#666666" points="454.5,-132 332.75,-132 332.75,-100 454.5,-100 454.5,-132"/>
<text text-anchor="start" x="340.75" y="-118.5" font-family="Helvetica,sans-Serif" font-size="10.00">carla::road::LaneSection</text>
<text text-anchor="middle" x="393.62" y="-106.5" font-family="Helvetica,sans-Serif" font-size="10.00">::ContainsLane</text>
</a>
</g>
</g>
<!-- Node2&#45;&gt;Node3 -->
<g id="edge2_Node000002_Node000003" class="edge">
<title>Node2&#45;&gt;Node3</title>
<g id="a_edge2_Node000002_Node000003"><a xlink:title=" ">
<path fill="none" stroke="#63b8ff" d="M266.27,-76.48C284.6,-82.22 307.92,-89.51 329.52,-96.26"/>
<polygon fill="#63b8ff" stroke="#63b8ff" points="328.37,-99.88 338.96,-99.53 330.46,-93.2 328.37,-99.88"/>
</a>
</g>
</g>
<!-- Node4 -->
<g id="Node000004" class="node">
<title>Node4</title>
<g id="a_Node000004"><a xlink:href="../../dd/de6/classcarla_1_1road_1_1Road.html#afc2ce3f2de8825413a827d46c62c197b" target="_top" xlink:title=" ">
<polygon fill="white" stroke="#666666" points="446.25,-82 341,-82 341,-50 446.25,-50 446.25,-82"/>
<text text-anchor="start" x="349" y="-68.5" font-family="Helvetica,sans-Serif" font-size="10.00">carla::road::Road::</text>
<text text-anchor="middle" x="393.62" y="-56.5" font-family="Helvetica,sans-Serif" font-size="10.00">GetLaneSectionById</text>
</a>
</g>
</g>
<!-- Node2&#45;&gt;Node4 -->
<g id="edge3_Node000002_Node000004" class="edge">
<title>Node2&#45;&gt;Node4</title>
<g id="a_edge3_Node000002_Node000004"><a xlink:title=" ">
<path fill="none" stroke="#63b8ff" d="M296.86,-66C307.74,-66 319.03,-66 329.87,-66"/>
<polygon fill="#63b8ff" stroke="#63b8ff" points="329.54,-69.5 339.54,-66 329.54,-62.5 329.54,-69.5"/>
</a>
</g>
</g>
<!-- Node6 -->
<g id="Node000006" class="node">
<title>Node6</title>
<g id="a_Node000006"><a xlink:href="../../da/d3b/classcarla_1_1road_1_1MapData.html#a7b4838408fa475389a01b2d451b662e7" target="_top" xlink:title=" ">
<polygon fill="white" stroke="#666666" points="447,-32 340.25,-32 340.25,0 447,0 447,-32"/>
<text text-anchor="start" x="348.25" y="-18.5" font-family="Helvetica,sans-Serif" font-size="10.00">carla::road::MapData</text>
<text text-anchor="middle" x="393.62" y="-6.5" font-family="Helvetica,sans-Serif" font-size="10.00">::GetRoad</text>
</a>
</g>
</g>
<!-- Node2&#45;&gt;Node6 -->
<g id="edge5_Node000002_Node000006" class="edge">
<title>Node2&#45;&gt;Node6</title>
<g id="a_edge5_Node000002_Node000006"><a xlink:title=" ">
<path fill="none" stroke="#63b8ff" d="M266.27,-55.52C284.6,-49.78 307.92,-42.49 329.52,-35.74"/>
<polygon fill="#63b8ff" stroke="#63b8ff" points="330.46,-38.8 338.96,-32.47 328.37,-32.12 330.46,-38.8"/>
</a>
</g>
</g>
<!-- Node5 -->
<g id="Node000005" class="node">
<title>Node5</title>
<g id="a_Node000005"><a xlink:href="../../d9/dab/classcarla_1_1road_1_1LaneSectionMap.html#afd0eebe15809491819f1335b7c7157e9" target="_top" xlink:title=" ">
<polygon fill="white" stroke="#666666" points="612.25,-82 490.5,-82 490.5,-50 612.25,-50 612.25,-82"/>
<text text-anchor="start" x="498.5" y="-68.5" font-family="Helvetica,sans-Serif" font-size="10.00">carla::road::LaneSection</text>
<text text-anchor="middle" x="551.38" y="-56.5" font-family="Helvetica,sans-Serif" font-size="10.00">Map::GetById</text>
</a>
</g>
</g>
<!-- Node4&#45;&gt;Node5 -->
<g id="edge4_Node000004_Node000005" class="edge">
<title>Node4&#45;&gt;Node5</title>
<g id="a_edge4_Node000004_Node000005"><a xlink:title=" ">
<path fill="none" stroke="#63b8ff" d="M446.49,-66C456.97,-66 468.17,-66 479.19,-66"/>
<polygon fill="#63b8ff" stroke="#63b8ff" points="479.11,-69.5 489.11,-66 479.11,-62.5 479.11,-69.5"/>
</a>
</g>
</g>
</g>
</svg>
