<?xml version="1.0" encoding="UTF-8" standalone="no"?>
<!DOCTYPE svg PUBLIC "-//W3C//DTD SVG 1.1//EN"
 "http://www.w3.org/Graphics/SVG/1.1/DTD/svg11.dtd">
<!-- Generated by graphviz version 8.1.0 (20230707.0739)
 -->
<!-- Title: ARayCastLidar::ComputeAndSaveDetections Pages: 1 -->
<svg width="832pt" height="290pt"
 viewBox="0.00 0.00 832.00 290.00" xmlns="http://www.w3.org/2000/svg" xmlns:xlink="http://www.w3.org/1999/xlink">
<g id="graph0" class="graph" transform="scale(1 1) rotate(0) translate(4 286)">
<title>ARayCastLidar::ComputeAndSaveDetections</title>
<!-- Node1 -->
<g id="Node000001" class="node">
<title>Node1</title>
<g id="a_Node000001"><a xlink:title="This method uses all the saved FHitResults, compute the RawDetections and then send it to the LidarDa...">
<polygon fill="#999999" stroke="#666666" points="143.5,-144 0,-144 0,-112 143.5,-112 143.5,-144"/>
<text text-anchor="start" x="8" y="-130.5" font-family="Helvetica,sans-Serif" font-size="10.00">ARayCastLidar::ComputeAnd</text>
<text text-anchor="middle" x="71.75" y="-118.5" font-family="Helvetica,sans-Serif" font-size="10.00">SaveDetections</text>
</a>
</g>
</g>
<!-- Node2 -->
<g id="Node000002" class="node">
<title>Node2</title>
<g id="a_Node000002"><a xlink:href="../../d5/de4/classARayCastLidar.html#aebacab637a19dc789ab1e9c177993b1b" target="_top" xlink:title=" ">
<polygon fill="white" stroke="#666666" points="525,-282 357.5,-282 357.5,-262 525,-262 525,-282"/>
<text text-anchor="middle" x="441.25" y="-268.5" font-family="Helvetica,sans-Serif" font-size="10.00">ARayCastLidar::ComputeDetection</text>
</a>
</g>
</g>
<!-- Node1&#45;&gt;Node2 -->
<g id="edge1_Node000001_Node000002" class="edge">
<title>Node1&#45;&gt;Node2</title>
<g id="a_edge1_Node000001_Node000002"><a xlink:title=" ">
<path fill="none" stroke="#63b8ff" d="M91.57,-144.23C111.99,-161.09 146.15,-187.17 179.5,-203 238.37,-230.94 310.29,-248.9 363.67,-259.46"/>
<polygon fill="#63b8ff" stroke="#63b8ff" points="362.95,-263.08 373.43,-261.54 364.28,-256.21 362.95,-263.08"/>
</a>
</g>
</g>
<!-- Node5 -->
<g id="Node000005" class="node">
<title>Node5</title>
<g id="a_Node000005"><a xlink:href="../../d5/de4/classARayCastLidar.html#a6847345acfcf8e52cf8c1a4cfb93e2bc" target="_top" xlink:title=" ">
<polygon fill="white" stroke="#666666" points="321.5,-194 179.5,-194 179.5,-162 321.5,-162 321.5,-194"/>
<text text-anchor="start" x="187.5" y="-180.5" font-family="Helvetica,sans-Serif" font-size="10.00">ARayCastLidar::Postprocess</text>
<text text-anchor="middle" x="250.5" y="-168.5" font-family="Helvetica,sans-Serif" font-size="10.00">Detection</text>
</a>
</g>
</g>
<!-- Node1&#45;&gt;Node5 -->
<g id="edge4_Node000001_Node000005" class="edge">
<title>Node1&#45;&gt;Node5</title>
<g id="a_edge4_Node000001_Node000005"><a xlink:title=" ">
<path fill="none" stroke="#63b8ff" d="M130.62,-144.37C146.72,-148.92 164.34,-153.91 180.98,-158.62"/>
<polygon fill="#63b8ff" stroke="#63b8ff" points="179.62,-162.15 190.19,-161.51 181.52,-155.42 179.62,-162.15"/>
</a>
</g>
</g>
<!-- Node10 -->
<g id="Node000010" class="node">
<title>Node10</title>
<g id="a_Node000010"><a xlink:href="../../dd/da3/classcarla_1_1sensor_1_1data_1_1LidarData.html#a8b3186d7962d7b4acb620d20f774f70a" target="_top" xlink:title=" ">
<polygon fill="white" stroke="#666666" points="315.5,-144 185.5,-144 185.5,-112 315.5,-112 315.5,-144"/>
<text text-anchor="start" x="193.5" y="-130.5" font-family="Helvetica,sans-Serif" font-size="10.00">carla::sensor::data</text>
<text text-anchor="middle" x="250.5" y="-118.5" font-family="Helvetica,sans-Serif" font-size="10.00">::LidarData::ResetMemory</text>
</a>
</g>
</g>
<!-- Node1&#45;&gt;Node10 -->
<g id="edge10_Node000001_Node000010" class="edge">
<title>Node1&#45;&gt;Node10</title>
<g id="a_edge10_Node000001_Node000010"><a xlink:title=" ">
<path fill="none" stroke="#63b8ff" d="M143.88,-128C153.88,-128 164.19,-128 174.27,-128"/>
<polygon fill="#63b8ff" stroke="#63b8ff" points="174.08,-131.5 184.08,-128 174.08,-124.5 174.08,-131.5"/>
</a>
</g>
</g>
<!-- Node12 -->
<g id="Node000012" class="node">
<title>Node12</title>
<g id="a_Node000012"><a xlink:href="../../d9/d27/classcarla_1_1sensor_1_1data_1_1SemanticLidarData.html#a0a138b447dea31ffa9256b2d2314d5f4" target="_top" xlink:title=" ">
<polygon fill="white" stroke="#666666" points="303.5,-94 197.5,-94 197.5,-50 303.5,-50 303.5,-94"/>
<text text-anchor="start" x="205.5" y="-80.5" font-family="Helvetica,sans-Serif" font-size="10.00">carla::sensor::data</text>
<text text-anchor="start" x="205.5" y="-68.5" font-family="Helvetica,sans-Serif" font-size="10.00">::SemanticLidarData</text>
<text text-anchor="middle" x="250.5" y="-56.5" font-family="Helvetica,sans-Serif" font-size="10.00">::WriteChannelCount</text>
</a>
</g>
</g>
<!-- Node1&#45;&gt;Node12 -->
<g id="edge12_Node000001_Node000012" class="edge">
<title>Node1&#45;&gt;Node12</title>
<g id="a_edge12_Node000001_Node000012"><a xlink:title=" ">
<path fill="none" stroke="#63b8ff" d="M124.82,-111.5C144.25,-105.35 166.5,-98.3 186.79,-91.87"/>
<polygon fill="#63b8ff" stroke="#63b8ff" points="187.71,-94.93 196.19,-88.57 185.6,-88.26 187.71,-94.93"/>
</a>
</g>
</g>
<!-- Node13 -->
<g id="Node000013" class="node">
<title>Node13</title>
<g id="a_Node000013"><a xlink:href="../../dd/da3/classcarla_1_1sensor_1_1data_1_1LidarData.html#af9852d79c667fa468bb5f761d74dc13d" target="_top" xlink:title=" ">
<polygon fill="white" stroke="#666666" points="319.25,-32 181.75,-32 181.75,0 319.25,0 319.25,-32"/>
<text text-anchor="start" x="189.75" y="-18.5" font-family="Helvetica,sans-Serif" font-size="10.00">carla::sensor::data</text>
<text text-anchor="middle" x="250.5" y="-6.5" font-family="Helvetica,sans-Serif" font-size="10.00">::LidarData::WritePointSync</text>
</a>
</g>
</g>
<!-- Node1&#45;&gt;Node13 -->
<g id="edge14_Node000001_Node000013" class="edge">
<title>Node1&#45;&gt;Node13</title>
<g id="a_edge14_Node000001_Node000013"><a xlink:title=" ">
<path fill="none" stroke="#63b8ff" d="M89.16,-111.56C109.06,-92.4 144.3,-60.85 179.5,-41 182.05,-39.56 184.69,-38.19 187.4,-36.87"/>
<polygon fill="#63b8ff" stroke="#63b8ff" points="188.71,-39.66 196.39,-32.36 185.83,-33.28 188.71,-39.66"/>
</a>
</g>
</g>
<!-- Node3 -->
<g id="Node000003" class="node">
<title>Node3</title>
<g id="a_Node000003"><a xlink:href="../../d9/dfe/classcarla_1_1geom_1_1Vector3D.html#aaa4bec48ae0734cca2c027df30ea6b34" target="_top" xlink:title=" ">
<polygon fill="white" stroke="#666666" points="674.5,-241 561,-241 561,-209 674.5,-209 674.5,-241"/>
<text text-anchor="start" x="569" y="-227.5" font-family="Helvetica,sans-Serif" font-size="10.00">carla::geom::Vector3D</text>
<text text-anchor="middle" x="617.75" y="-215.5" font-family="Helvetica,sans-Serif" font-size="10.00">::Length</text>
</a>
</g>
</g>
<!-- Node2&#45;&gt;Node3 -->
<g id="edge2_Node000002_Node000003" class="edge">
<title>Node2&#45;&gt;Node3</title>
<g id="a_edge2_Node000002_Node000003"><a xlink:title=" ">
<path fill="none" stroke="#63b8ff" d="M490.52,-261.52C501.87,-258.89 513.89,-255.97 525,-253 534.67,-250.42 544.86,-247.5 554.79,-244.56"/>
<polygon fill="#63b8ff" stroke="#63b8ff" points="555.44,-247.71 564.01,-241.49 553.43,-241.01 555.44,-247.71"/>
</a>
</g>
</g>
<!-- Node4 -->
<g id="Node000004" class="node">
<title>Node4</title>
<g id="a_Node000004"><a xlink:href="../../d9/dfe/classcarla_1_1geom_1_1Vector3D.html#a0bd1ef6e24532e950b455838ecd4f8cf" target="_top" xlink:title=" ">
<polygon fill="white" stroke="#666666" points="824,-241 710.5,-241 710.5,-209 824,-209 824,-241"/>
<text text-anchor="start" x="718.5" y="-227.5" font-family="Helvetica,sans-Serif" font-size="10.00">carla::geom::Vector3D</text>
<text text-anchor="middle" x="767.25" y="-215.5" font-family="Helvetica,sans-Serif" font-size="10.00">::SquaredLength</text>
</a>
</g>
</g>
<!-- Node3&#45;&gt;Node4 -->
<g id="edge3_Node000003_Node000004" class="edge">
<title>Node3&#45;&gt;Node4</title>
<g id="a_edge3_Node000003_Node000004"><a xlink:title=" ">
<path fill="none" stroke="#63b8ff" d="M674.93,-225C682.88,-225 691.12,-225 699.25,-225"/>
<polygon fill="#63b8ff" stroke="#63b8ff" points="699.22,-228.5 709.22,-225 699.22,-221.5 699.22,-228.5"/>
</a>
</g>
</g>
<!-- Node6 -->
<g id="Node000006" class="node">
<title>Node6</title>
<g id="a_Node000006"><a xlink:href="../../d2/d4b/classURandomEngine.html#a794f6be8c1517dba34b61f2b753cb4d3" target="_top" xlink:title=" ">
<polygon fill="white" stroke="#666666" points="511.88,-244 370.62,-244 370.62,-212 511.88,-212 511.88,-244"/>
<text text-anchor="start" x="378.62" y="-230.5" font-family="Helvetica,sans-Serif" font-size="10.00">URandomEngine::GetNormal</text>
<text text-anchor="middle" x="441.25" y="-218.5" font-family="Helvetica,sans-Serif" font-size="10.00">Distribution</text>
</a>
</g>
</g>
<!-- Node5&#45;&gt;Node6 -->
<g id="edge5_Node000005_Node000006" class="edge">
<title>Node5&#45;&gt;Node6</title>
<g id="a_edge5_Node000005_Node000006"><a xlink:title=" ">
<path fill="none" stroke="#63b8ff" d="M313.57,-194.44C330.82,-199.01 349.71,-204.02 367.52,-208.73"/>
<polygon fill="#63b8ff" stroke="#63b8ff" points="366.58,-212.37 377.15,-211.55 368.38,-205.6 366.58,-212.37"/>
</a>
</g>
</g>
<!-- Node7 -->
<g id="Node000007" class="node">
<title>Node7</title>
<g id="a_Node000007"><a xlink:href="../../d2/d4b/classURandomEngine.html#a7619cfcce2fd1e172a4210e0c5645e8d" target="_top" xlink:title=" ">
<polygon fill="white" stroke="#666666" points="513,-194 369.5,-194 369.5,-162 513,-162 513,-194"/>
<text text-anchor="start" x="377.5" y="-180.5" font-family="Helvetica,sans-Serif" font-size="10.00">URandomEngine::GetUniform</text>
<text text-anchor="middle" x="441.25" y="-168.5" font-family="Helvetica,sans-Serif" font-size="10.00">Float</text>
</a>
</g>
</g>
<!-- Node5&#45;&gt;Node7 -->
<g id="edge6_Node000005_Node000007" class="edge">
<title>Node5&#45;&gt;Node7</title>
<g id="a_edge6_Node000005_Node000007"><a xlink:title=" ">
<path fill="none" stroke="#63b8ff" d="M321.78,-178C333.78,-178 346.34,-178 358.6,-178"/>
<polygon fill="#63b8ff" stroke="#63b8ff" points="358.28,-181.5 368.28,-178 358.28,-174.5 358.28,-181.5"/>
</a>
</g>
</g>
<!-- Node8 -->
<g id="Node000008" class="node">
<title>Node8</title>
<g id="a_Node000008"><a xlink:href="../../d9/dfe/classcarla_1_1geom_1_1Vector3D.html#a15ae9cc36cd1e3fd34c1398acc897f68" target="_top" xlink:title=" ">
<polygon fill="white" stroke="#666666" points="498,-144 384.5,-144 384.5,-112 498,-112 498,-144"/>
<text text-anchor="start" x="392.5" y="-130.5" font-family="Helvetica,sans-Serif" font-size="10.00">carla::geom::Vector3D</text>
<text text-anchor="middle" x="441.25" y="-118.5" font-family="Helvetica,sans-Serif" font-size="10.00">::MakeUnitVector</text>
</a>
</g>
</g>
<!-- Node5&#45;&gt;Node8 -->
<g id="edge7_Node000005_Node000008" class="edge">
<title>Node5&#45;&gt;Node8</title>
<g id="a_edge7_Node000005_Node000008"><a xlink:title=" ">
<path fill="none" stroke="#63b8ff" d="M313.57,-161.56C332.87,-156.44 354.23,-150.79 373.83,-145.6"/>
<polygon fill="#63b8ff" stroke="#63b8ff" points="374.43,-148.79 383.2,-142.85 372.64,-142.03 374.43,-148.79"/>
</a>
</g>
</g>
<!-- Node8&#45;&gt;Node3 -->
<g id="edge8_Node000008_Node000003" class="edge">
<title>Node8&#45;&gt;Node3</title>
<g id="a_edge8_Node000008_Node000003"><a xlink:title=" ">
<path fill="none" stroke="#63b8ff" d="M498.13,-141.77C507.34,-144.91 516.61,-148.64 525,-153 549.7,-165.84 574.34,-185.66 591.85,-201.25"/>
<polygon fill="#63b8ff" stroke="#63b8ff" points="589.09,-203.39 598.85,-207.52 593.8,-198.21 589.09,-203.39"/>
</a>
</g>
</g>
<!-- Node9 -->
<g id="Node000009" class="node">
<title>Node9</title>
<g id="a_Node000009"><a xlink:href="../../d9/dfe/classcarla_1_1geom_1_1Vector3D.html#ae8900b561fa2d9e6667f36038aea7657" target="_top" xlink:title=" ">
<polygon fill="white" stroke="#666666" points="674.5,-144 561,-144 561,-112 674.5,-112 674.5,-144"/>
<text text-anchor="start" x="569" y="-130.5" font-family="Helvetica,sans-Serif" font-size="10.00">carla::geom::Vector3D</text>
<text text-anchor="middle" x="617.75" y="-118.5" font-family="Helvetica,sans-Serif" font-size="10.00">::Vector3D</text>
</a>
</g>
</g>
<!-- Node8&#45;&gt;Node9 -->
<g id="edge9_Node000008_Node000009" class="edge">
<title>Node8&#45;&gt;Node9</title>
<g id="a_edge9_Node000008_Node000009"><a xlink:title=" ">
<path fill="none" stroke="#63b8ff" d="M498.42,-128C514.77,-128 532.79,-128 549.73,-128"/>
<polygon fill="#63b8ff" stroke="#63b8ff" points="549.68,-131.5 559.68,-128 549.68,-124.5 549.68,-131.5"/>
</a>
</g>
</g>
<!-- Node11 -->
<g id="Node000011" class="node">
<title>Node11</title>
<g id="a_Node000011"><a xlink:href="../../d9/d27/classcarla_1_1sensor_1_1data_1_1SemanticLidarData.html#a432e1ad9a42f6469c4fea8b68cbca3b2" target="_top" xlink:title=" ">
<polygon fill="white" stroke="#666666" points="493.5,-94 389,-94 389,-50 493.5,-50 493.5,-94"/>
<text text-anchor="start" x="397" y="-80.5" font-family="Helvetica,sans-Serif" font-size="10.00">carla::sensor::data</text>
<text text-anchor="start" x="397" y="-68.5" font-family="Helvetica,sans-Serif" font-size="10.00">::SemanticLidarData</text>
<text text-anchor="middle" x="441.25" y="-56.5" font-family="Helvetica,sans-Serif" font-size="10.00">::GetChannelCount</text>
</a>
</g>
</g>
<!-- Node10&#45;&gt;Node11 -->
<g id="edge11_Node000010_Node000011" class="edge">
<title>Node10&#45;&gt;Node11</title>
<g id="a_edge11_Node000010_Node000011"><a xlink:title=" ">
<path fill="none" stroke="#63b8ff" d="M307.11,-111.5C329.46,-104.87 355.32,-97.2 378.27,-90.39"/>
<polygon fill="#63b8ff" stroke="#63b8ff" points="379,-93.53 387.59,-87.33 377,-86.82 379,-93.53"/>
</a>
</g>
</g>
<!-- Node12&#45;&gt;Node11 -->
<g id="edge13_Node000012_Node000011" class="edge">
<title>Node12&#45;&gt;Node11</title>
<g id="a_edge13_Node000012_Node000011"><a xlink:title=" ">
<path fill="none" stroke="#63b8ff" d="M303.83,-72C326.82,-72 353.99,-72 378.01,-72"/>
<polygon fill="#63b8ff" stroke="#63b8ff" points="377.8,-75.5 387.8,-72 377.8,-68.5 377.8,-75.5"/>
</a>
</g>
</g>
</g>
</svg>
