<?xml version="1.0" encoding="UTF-8" standalone="no"?>
<!DOCTYPE svg PUBLIC "-//W3C//DTD SVG 1.1//EN"
 "http://www.w3.org/Graphics/SVG/1.1/DTD/svg11.dtd">
<!-- Generated by graphviz version 8.1.0 (20230707.0739)
 -->
<!-- Title: carla::client::RssSensor::~RssSensor Pages: 1 -->
<svg width="753pt" height="266pt"
 viewBox="0.00 0.00 753.25 266.00" xmlns="http://www.w3.org/2000/svg" xmlns:xlink="http://www.w3.org/1999/xlink">
<g id="graph0" class="graph" transform="scale(1 1) rotate(0) translate(4 262)">
<title>carla::client::RssSensor::~RssSensor</title>
<!-- Node1 -->
<g id="Node000001" class="node">
<title>Node1</title>
<g id="a_Node000001"><a xlink:title="destructor">
<polygon fill="#999999" stroke="#666666" points="120.25,-180 0,-180 0,-148 120.25,-148 120.25,-180"/>
<text text-anchor="start" x="8" y="-166.5" font-family="Helvetica,sans-Serif" font-size="10.00">carla::client::RssSensor</text>
<text text-anchor="middle" x="60.12" y="-154.5" font-family="Helvetica,sans-Serif" font-size="10.00">::~RssSensor</text>
</a>
</g>
</g>
<!-- Node2 -->
<g id="Node000002" class="node">
<title>Node2</title>
<g id="a_Node000002"><a xlink:href="../../d7/db6/classcarla_1_1client_1_1RssSensor.html#a4de185e37508b6932b1f4a017726ca71" target="_top" xlink:title="Return whether this Sensor instance is currently listening to the associated sensor in the simulator.">
<polygon fill="white" stroke="#666666" points="437.62,-258 317.38,-258 317.38,-226 437.62,-226 437.62,-258"/>
<text text-anchor="start" x="325.38" y="-244.5" font-family="Helvetica,sans-Serif" font-size="10.00">carla::client::RssSensor</text>
<text text-anchor="middle" x="377.5" y="-232.5" font-family="Helvetica,sans-Serif" font-size="10.00">::IsListening</text>
</a>
</g>
</g>
<!-- Node1&#45;&gt;Node2 -->
<g id="edge1_Node000001_Node000002" class="edge">
<title>Node1&#45;&gt;Node2</title>
<g id="a_edge1_Node000001_Node000002"><a xlink:title=" ">
<path fill="none" stroke="#63b8ff" d="M120.44,-178.67C173.25,-191.73 250.55,-210.85 306.39,-224.66"/>
<polygon fill="#63b8ff" stroke="#63b8ff" points="305.36,-228.26 315.91,-227.26 307.04,-221.46 305.36,-228.26"/>
</a>
</g>
</g>
<!-- Node3 -->
<g id="Node000003" class="node">
<title>Node3</title>
<g id="a_Node000003"><a xlink:href="../../d7/db6/classcarla_1_1client_1_1RssSensor.html#a84708b0cda6793b54a1df34c90050962" target="_top" xlink:title="Stop listening for new measurements.">
<polygon fill="white" stroke="#666666" points="276.5,-158 156.25,-158 156.25,-126 276.5,-126 276.5,-158"/>
<text text-anchor="start" x="164.25" y="-144.5" font-family="Helvetica,sans-Serif" font-size="10.00">carla::client::RssSensor</text>
<text text-anchor="middle" x="216.38" y="-132.5" font-family="Helvetica,sans-Serif" font-size="10.00">::Stop</text>
</a>
</g>
</g>
<!-- Node1&#45;&gt;Node3 -->
<g id="edge2_Node000001_Node000003" class="edge">
<title>Node1&#45;&gt;Node3</title>
<g id="a_edge2_Node000001_Node000003"><a xlink:title=" ">
<path fill="none" stroke="#63b8ff" d="M120.32,-155.56C128.41,-154.4 136.79,-153.21 145.05,-152.03"/>
<polygon fill="#63b8ff" stroke="#63b8ff" points="145.42,-155.37 154.83,-150.49 144.43,-148.44 145.42,-155.37"/>
</a>
</g>
</g>
<!-- Node3&#45;&gt;Node2 -->
<g id="edge5_Node000003_Node000002" class="edge">
<title>Node3&#45;&gt;Node2</title>
<g id="a_edge5_Node000003_Node000002"><a xlink:title=" ">
<path fill="none" stroke="#63b8ff" d="M234.81,-158.37C253.07,-174.85 283.12,-200.18 312.5,-217 314.86,-218.35 317.3,-219.65 319.79,-220.92"/>
<polygon fill="#63b8ff" stroke="#63b8ff" points="318.07,-224.44 328.6,-225.55 321.05,-218.11 318.07,-224.44"/>
</a>
</g>
</g>
<!-- Node4 -->
<g id="Node000004" class="node">
<title>Node4</title>
<g id="a_Node000004"><a xlink:href="../../d2/d06/classcarla_1_1client_1_1detail_1_1ActorState.html#aa98c1565c9edcf133148109c52023819" target="_top" xlink:title=" ">
<polygon fill="white" stroke="#666666" points="442.5,-208 312.5,-208 312.5,-176 442.5,-176 442.5,-208"/>
<text text-anchor="start" x="320.5" y="-194.5" font-family="Helvetica,sans-Serif" font-size="10.00">carla::client::detail</text>
<text text-anchor="middle" x="377.5" y="-182.5" font-family="Helvetica,sans-Serif" font-size="10.00">::ActorState::GetDisplayId</text>
</a>
</g>
</g>
<!-- Node3&#45;&gt;Node4 -->
<g id="edge3_Node000003_Node000004" class="edge">
<title>Node3&#45;&gt;Node4</title>
<g id="a_edge3_Node000003_Node000004"><a xlink:title=" ">
<path fill="none" stroke="#63b8ff" d="M269.48,-158.37C283.56,-162.8 298.94,-167.63 313.54,-172.22"/>
<polygon fill="#63b8ff" stroke="#63b8ff" points="312.42,-175.85 323.01,-175.51 314.52,-169.17 312.42,-175.85"/>
</a>
</g>
</g>
<!-- Node5 -->
<g id="Node000005" class="node">
<title>Node5</title>
<g id="a_Node000005"><a xlink:href="../../d2/d06/classcarla_1_1client_1_1detail_1_1ActorState.html#a520d5ef7284ded86a1d96a346f3516aa" target="_top" xlink:title=" ">
<polygon fill="white" stroke="#666666" points="440.25,-158 314.75,-158 314.75,-126 440.25,-126 440.25,-158"/>
<text text-anchor="start" x="322.75" y="-144.5" font-family="Helvetica,sans-Serif" font-size="10.00">carla::client::detail</text>
<text text-anchor="middle" x="377.5" y="-132.5" font-family="Helvetica,sans-Serif" font-size="10.00">::ActorState::GetEpisode</text>
</a>
</g>
</g>
<!-- Node3&#45;&gt;Node5 -->
<g id="edge4_Node000003_Node000005" class="edge">
<title>Node3&#45;&gt;Node5</title>
<g id="a_edge4_Node000003_Node000005"><a xlink:title=" ">
<path fill="none" stroke="#63b8ff" d="M276.63,-142C285.36,-142 294.44,-142 303.41,-142"/>
<polygon fill="#63b8ff" stroke="#63b8ff" points="303.27,-145.5 313.27,-142 303.27,-138.5 303.27,-145.5"/>
</a>
</g>
</g>
<!-- Node6 -->
<g id="Node000006" class="node">
<title>Node6</title>
<g id="a_Node000006"><a xlink:href="../../d1/dd3/classcarla_1_1client_1_1detail_1_1EpisodeProxyImpl.html#aaca857645fbeb6546b4a03a663bb65af" target="_top" xlink:title="Same as TryLock but never return nullptr.">
<polygon fill="white" stroke="#666666" points="441.38,-108 313.62,-108 313.62,-76 441.38,-76 441.38,-108"/>
<text text-anchor="start" x="321.62" y="-94.5" font-family="Helvetica,sans-Serif" font-size="10.00">carla::client::detail</text>
<text text-anchor="middle" x="377.5" y="-82.5" font-family="Helvetica,sans-Serif" font-size="10.00">::EpisodeProxyImpl::Lock</text>
</a>
</g>
</g>
<!-- Node3&#45;&gt;Node6 -->
<g id="edge6_Node000003_Node000006" class="edge">
<title>Node3&#45;&gt;Node6</title>
<g id="a_edge6_Node000003_Node000006"><a xlink:title=" ">
<path fill="none" stroke="#63b8ff" d="M269.48,-125.63C283.56,-121.2 298.94,-116.37 313.54,-111.78"/>
<polygon fill="#63b8ff" stroke="#63b8ff" points="314.52,-114.83 323.01,-108.49 312.42,-108.15 314.52,-114.83"/>
</a>
</g>
</g>
<!-- Node10 -->
<g id="Node000010" class="node">
<title>Node10</title>
<g id="a_Node000010"><a xlink:href="../../d9/d36/namespacecarla.html#afb6ca911605d1ec35bdf563de2814dba" target="_top" xlink:title=" ">
<polygon fill="white" stroke="#666666" points="421.12,-58 333.88,-58 333.88,-38 421.12,-38 421.12,-58"/>
<text text-anchor="middle" x="377.5" y="-44.5" font-family="Helvetica,sans-Serif" font-size="10.00">carla::log_debug</text>
</a>
</g>
</g>
<!-- Node3&#45;&gt;Node10 -->
<g id="edge10_Node000003_Node000010" class="edge">
<title>Node3&#45;&gt;Node10</title>
<g id="a_edge10_Node000003_Node000010"><a xlink:title=" ">
<path fill="none" stroke="#63b8ff" d="M233.87,-125.74C251.82,-108.87 282.06,-82.77 312.5,-67 316,-65.19 319.7,-63.52 323.48,-61.99"/>
<polygon fill="#63b8ff" stroke="#63b8ff" points="324.43,-65 332.61,-58.27 322.02,-58.43 324.43,-65"/>
</a>
</g>
</g>
<!-- Node12 -->
<g id="Node000012" class="node">
<title>Node12</title>
<g id="a_Node000012"><a xlink:href="../../d9/d36/namespacecarla.html#a7673dfc76e17f5856b798de6d0384b56" target="_top" xlink:title=" ">
<polygon fill="white" stroke="#666666" points="417.75,-20 337.25,-20 337.25,0 417.75,0 417.75,-20"/>
<text text-anchor="middle" x="377.5" y="-6.5" font-family="Helvetica,sans-Serif" font-size="10.00">carla::log_error</text>
</a>
</g>
</g>
<!-- Node3&#45;&gt;Node12 -->
<g id="edge12_Node000003_Node000012" class="edge">
<title>Node3&#45;&gt;Node12</title>
<g id="a_edge12_Node000003_Node000012"><a xlink:title=" ">
<path fill="none" stroke="#63b8ff" d="M226.84,-125.54C241.85,-100.9 273.46,-54.57 312.5,-29 316.99,-26.06 321.95,-23.56 327.06,-21.44"/>
<polygon fill="#63b8ff" stroke="#63b8ff" points="327.81,-24.53 336,-17.81 325.41,-17.95 327.81,-24.53"/>
</a>
</g>
</g>
<!-- Node7 -->
<g id="Node000007" class="node">
<title>Node7</title>
<g id="a_Node000007"><a xlink:href="../../d8/dcd/namespacecarla_1_1client_1_1detail.html#aa47f72a521d97fe3574a56e808b509d8" target="_top" xlink:title=" ">
<polygon fill="white" stroke="#666666" points="583,-142 487.5,-142 487.5,-110 583,-110 583,-142"/>
<text text-anchor="start" x="495.5" y="-128.5" font-family="Helvetica,sans-Serif" font-size="10.00">carla::client::detail</text>
<text text-anchor="middle" x="535.25" y="-116.5" font-family="Helvetica,sans-Serif" font-size="10.00">::Load</text>
</a>
</g>
</g>
<!-- Node6&#45;&gt;Node7 -->
<g id="edge7_Node000006_Node000007" class="edge">
<title>Node6&#45;&gt;Node7</title>
<g id="a_edge7_Node000006_Node000007"><a xlink:title=" ">
<path fill="none" stroke="#63b8ff" d="M441.85,-105.83C453.34,-108.34 465.26,-110.94 476.58,-113.41"/>
<polygon fill="#63b8ff" stroke="#63b8ff" points="475.69,-117.02 486.2,-115.73 477.18,-110.18 475.69,-117.02"/>
</a>
</g>
</g>
<!-- Node9 -->
<g id="Node000009" class="node">
<title>Node9</title>
<g id="a_Node000009"><a xlink:href="../../d9/d36/namespacecarla.html#a23602ab663165210a7757d6108f6b3cd" target="_top" xlink:title=" ">
<polygon fill="white" stroke="#666666" points="592,-92 478.5,-92 478.5,-72 592,-72 592,-92"/>
<text text-anchor="middle" x="535.25" y="-78.5" font-family="Helvetica,sans-Serif" font-size="10.00">carla::throw_exception</text>
</a>
</g>
</g>
<!-- Node6&#45;&gt;Node9 -->
<g id="edge9_Node000006_Node000009" class="edge">
<title>Node6&#45;&gt;Node9</title>
<g id="a_edge9_Node000006_Node000009"><a xlink:title=" ">
<path fill="none" stroke="#63b8ff" d="M441.85,-87.93C450.38,-87.39 459.14,-86.82 467.73,-86.27"/>
<polygon fill="#63b8ff" stroke="#63b8ff" points="467.71,-89.72 477.46,-85.58 467.26,-82.73 467.71,-89.72"/>
</a>
</g>
</g>
<!-- Node8 -->
<g id="Node000008" class="node">
<title>Node8</title>
<g id="a_Node000008"><a xlink:href="../../d2/dcf/classcarla_1_1AtomicSharedPtr.html#a7bb0b8af178b36c923fedac384b3aad4" target="_top" xlink:title=" ">
<polygon fill="white" stroke="#666666" points="745.25,-142 628,-142 628,-110 745.25,-110 745.25,-142"/>
<text text-anchor="start" x="636" y="-128.5" font-family="Helvetica,sans-Serif" font-size="10.00">carla::AtomicSharedPtr</text>
<text text-anchor="middle" x="686.62" y="-116.5" font-family="Helvetica,sans-Serif" font-size="10.00">::load</text>
</a>
</g>
</g>
<!-- Node7&#45;&gt;Node8 -->
<g id="edge8_Node000007_Node000008" class="edge">
<title>Node7&#45;&gt;Node8</title>
<g id="a_edge8_Node000007_Node000008"><a xlink:title=" ">
<path fill="none" stroke="#63b8ff" d="M583.1,-126C593.8,-126 605.39,-126 616.79,-126"/>
<polygon fill="#63b8ff" stroke="#63b8ff" points="616.64,-129.5 626.64,-126 616.64,-122.5 616.64,-129.5"/>
</a>
</g>
</g>
<!-- Node11 -->
<g id="Node000011" class="node">
<title>Node11</title>
<g id="a_Node000011"><a xlink:href="../../d2/d8c/namespacecarla_1_1logging.html#a4193666236852fb6a6977299a31445d8" target="_top" xlink:title=" ">
<polygon fill="white" stroke="#666666" points="585.25,-45 485.25,-45 485.25,-13 585.25,-13 585.25,-45"/>
<text text-anchor="start" x="493.25" y="-31.5" font-family="Helvetica,sans-Serif" font-size="10.00">carla::logging::write</text>
<text text-anchor="middle" x="535.25" y="-19.5" font-family="Helvetica,sans-Serif" font-size="10.00">_to_stream</text>
</a>
</g>
</g>
<!-- Node10&#45;&gt;Node11 -->
<g id="edge11_Node000010_Node000011" class="edge">
<title>Node10&#45;&gt;Node11</title>
<g id="a_edge11_Node000010_Node000011"><a xlink:title=" ">
<path fill="none" stroke="#63b8ff" d="M421.47,-42.76C437.73,-40.77 456.54,-38.48 474.09,-36.34"/>
<polygon fill="#63b8ff" stroke="#63b8ff" points="474.31,-39.72 483.81,-35.03 473.46,-32.77 474.31,-39.72"/>
</a>
</g>
</g>
<!-- Node12&#45;&gt;Node11 -->
<g id="edge13_Node000012_Node000011" class="edge">
<title>Node12&#45;&gt;Node11</title>
<g id="a_edge13_Node000012_Node000011"><a xlink:title=" ">
<path fill="none" stroke="#63b8ff" d="M418.21,-14.84C435.16,-16.91 455.31,-19.37 474.03,-21.65"/>
<polygon fill="#63b8ff" stroke="#63b8ff" points="473.5,-25.24 483.86,-22.97 474.35,-18.29 473.5,-25.24"/>
</a>
</g>
</g>
</g>
</svg>
