<?xml version="1.0" encoding="UTF-8" standalone="no"?>
<!DOCTYPE svg PUBLIC "-//W3C//DTD SVG 1.1//EN"
 "http://www.w3.org/Graphics/SVG/1.1/DTD/svg11.dtd">
<!-- Generated by graphviz version 8.1.0 (20230707.0739)
 -->
<!-- Title: carla::client::RssSensor::GetPedestrianDynamics Pages: 1 -->
<svg width="466pt" height="134pt"
 viewBox="0.00 0.00 465.50 134.00" xmlns="http://www.w3.org/2000/svg" xmlns:xlink="http://www.w3.org/1999/xlink">

<svg id="main" version="1.1" xmlns="http://www.w3.org/2000/svg" xmlns:xlink="http://www.w3.org/1999/xlink" xml:space="preserve" onload="init(evt)">
<style type="text/css"><![CDATA[
.node, .edge {opacity: 0.7;}
.node.selected, .edge.selected {opacity: 1;}
.edge:hover path { stroke: red; }
.edge:hover polygon { stroke: red; fill: red; }
]]></style>
<script type="application/ecmascript" xlink:href="../../svg.min.js"/>
<svg id="graph" class="graph">
<g id="graph0" class="graph" transform="scale(1 1) rotate(0) translate(4 130)">
<title>carla::client::RssSensor::GetPedestrianDynamics</title>
<!-- Node1 -->
<g id="Node000001" class="node">
<title>Node1</title>
<g id="a_Node000001"><a xlink:title=" ">
<polygon fill="#999999" stroke="#666666" points="127.75,-76 0,-76 0,-44 127.75,-44 127.75,-76"/>
<text text-anchor="start" x="8" y="-62.5" font-family="Helvetica,sans-Serif" font-size="10.00">carla::client::RssSensor</text>
<text text-anchor="middle" x="63.88" y="-50.5" font-family="Helvetica,sans-Serif" font-size="10.00">::GetPedestrianDynamics</text>
</a>
</g>
</g>
<!-- Node2 -->
<g id="Node000002" class="node">
<title>Node2</title>
<g id="a_Node000002"><a xlink:href="../../dc/d07/classcarla_1_1rss_1_1RssCheck.html#ab1cdff96841a3e32821c38eb592dd119" target="_top" xlink:title=" ">
<polygon fill="white" stroke="#666666" points="321.5,-126 163.75,-126 163.75,-94 321.5,-94 321.5,-126"/>
<text text-anchor="start" x="171.75" y="-112.5" font-family="Helvetica,sans-Serif" font-size="10.00">carla::rss::RssCheck</text>
<text text-anchor="middle" x="242.62" y="-100.5" font-family="Helvetica,sans-Serif" font-size="10.00">::GetDefaultPedestrianDynamics</text>
</a>
</g>
</g>
<!-- Node1&#45;&gt;Node2 -->
<g id="edge1_Node000001_Node000002" class="edge">
<title>Node1&#45;&gt;Node2</title>
<g id="a_edge1_Node000001_Node000002"><a xlink:title=" ">
<path fill="none" stroke="#63b8ff" d="M122.75,-76.37C138.84,-80.92 156.47,-85.91 173.11,-90.62"/>
<polygon fill="#63b8ff" stroke="#63b8ff" points="171.74,-94.15 182.32,-93.51 173.65,-87.42 171.74,-94.15"/>
</a>
</g>
</g>
<!-- Node3 -->
<g id="Node000003" class="node">
<title>Node3</title>
<g id="a_Node000003"><a xlink:href="../../d2/d06/classcarla_1_1client_1_1detail_1_1ActorState.html#aa98c1565c9edcf133148109c52023819" target="_top" xlink:title=" ">
<polygon fill="white" stroke="#666666" points="307.62,-76 177.62,-76 177.62,-44 307.62,-44 307.62,-76"/>
<text text-anchor="start" x="185.62" y="-62.5" font-family="Helvetica,sans-Serif" font-size="10.00">carla::client::detail</text>
<text text-anchor="middle" x="242.62" y="-50.5" font-family="Helvetica,sans-Serif" font-size="10.00">::ActorState::GetDisplayId</text>
</a>
</g>
</g>
<!-- Node1&#45;&gt;Node3 -->
<g id="edge2_Node000001_Node000003" class="edge">
<title>Node1&#45;&gt;Node3</title>
<g id="a_edge2_Node000001_Node000003"><a xlink:title=" ">
<path fill="none" stroke="#63b8ff" d="M128.19,-60C140.65,-60 153.83,-60 166.63,-60"/>
<polygon fill="#63b8ff" stroke="#63b8ff" points="166.27,-63.5 176.27,-60 166.27,-56.5 166.27,-63.5"/>
</a>
</g>
</g>
<!-- Node4 -->
<g id="Node000004" class="node">
<title>Node4</title>
<g id="a_Node000004"><a xlink:href="../../d9/d36/namespacecarla.html#a7673dfc76e17f5856b798de6d0384b56" target="_top" xlink:title=" ">
<polygon fill="white" stroke="#666666" points="282.88,-26 202.38,-26 202.38,-6 282.88,-6 282.88,-26"/>
<text text-anchor="middle" x="242.62" y="-12.5" font-family="Helvetica,sans-Serif" font-size="10.00">carla::log_error</text>
</a>
</g>
</g>
<!-- Node1&#45;&gt;Node4 -->
<g id="edge3_Node000001_Node000004" class="edge">
<title>Node1&#45;&gt;Node4</title>
<g id="a_edge3_Node000001_Node000004"><a xlink:title=" ">
<path fill="none" stroke="#63b8ff" d="M128.15,-43.92C139.98,-40.94 152.24,-37.86 163.75,-35 172.68,-32.78 182.19,-30.44 191.39,-28.19"/>
<polygon fill="#63b8ff" stroke="#63b8ff" points="192.11,-31.37 200.99,-25.6 190.45,-24.57 192.11,-31.37"/>
</a>
</g>
</g>
<!-- Node5 -->
<g id="Node000005" class="node">
<title>Node5</title>
<g id="a_Node000005"><a xlink:href="../../d2/d8c/namespacecarla_1_1logging.html#a4193666236852fb6a6977299a31445d8" target="_top" xlink:title=" ">
<polygon fill="white" stroke="#666666" points="457.5,-32 357.5,-32 357.5,0 457.5,0 457.5,-32"/>
<text text-anchor="start" x="365.5" y="-18.5" font-family="Helvetica,sans-Serif" font-size="10.00">carla::logging::write</text>
<text text-anchor="middle" x="407.5" y="-6.5" font-family="Helvetica,sans-Serif" font-size="10.00">_to_stream</text>
</a>
</g>
</g>
<!-- Node4&#45;&gt;Node5 -->
<g id="edge4_Node000004_Node000005" class="edge">
<title>Node4&#45;&gt;Node5</title>
<g id="a_edge4_Node000004_Node000005"><a xlink:title=" ">
<path fill="none" stroke="#63b8ff" d="M283.05,-16C302.05,-16 325.26,-16 346.39,-16"/>
<polygon fill="#63b8ff" stroke="#63b8ff" points="346.23,-19.5 356.23,-16 346.23,-12.5 346.23,-19.5"/>
</a>
</g>
</g>
</g>
</svg>
</svg>

<style type='text/css'>
<![CDATA[
[data-mouse-over-selected='false'] { opacity: 0.7; }
[data-mouse-over-selected='true']  { opacity: 1.0; }
]]>
</style>
<script type="application/ecmascript"><![CDATA[
document.addEventListener('DOMContentLoaded', (event) => {
  highlightEdges();
  highlightAdjacentNodes();
});
]]></script>
</svg>
