<?xml version="1.0" encoding="UTF-8" standalone="no"?>
<!DOCTYPE svg PUBLIC "-//W3C//DTD SVG 1.1//EN"
 "http://www.w3.org/Graphics/SVG/1.1/DTD/svg11.dtd">
<!-- Generated by graphviz version 8.1.0 (20230707.0739)
 -->
<!-- Title: carla::client::RssSensor::IsListening Pages: 1 -->
<svg width="496pt" height="162pt"
 viewBox="0.00 0.00 495.50 162.00" xmlns="http://www.w3.org/2000/svg" xmlns:xlink="http://www.w3.org/1999/xlink">

<svg id="main" version="1.1" xmlns="http://www.w3.org/2000/svg" xmlns:xlink="http://www.w3.org/1999/xlink" xml:space="preserve" onload="init(evt)">
<style type="text/css"><![CDATA[
.node, .edge {opacity: 0.7;}
.node.selected, .edge.selected {opacity: 1;}
.edge:hover path { stroke: red; }
.edge:hover polygon { stroke: red; fill: red; }
]]></style>
<script type="application/ecmascript" xlink:href="../../svg.min.js"/>
<svg id="graph" class="graph">
<g id="graph0" class="graph" transform="scale(1 1) rotate(0) translate(4 158)">
<title>carla::client::RssSensor::IsListening</title>
<!-- Node1 -->
<g id="Node000001" class="node">
<title>Node1</title>
<g id="a_Node000001"><a xlink:title="Return whether this Sensor instance is currently listening to the associated sensor in the simulator.">
<polygon fill="#999999" stroke="#666666" points="487.5,-79 367.25,-79 367.25,-47 487.5,-47 487.5,-79"/>
<text text-anchor="start" x="375.25" y="-65.5" font-family="Helvetica,sans-Serif" font-size="10.00">carla::client::RssSensor</text>
<text text-anchor="middle" x="427.38" y="-53.5" font-family="Helvetica,sans-Serif" font-size="10.00">::IsListening</text>
</a>
</g>
</g>
<!-- Node2 -->
<g id="Node000002" class="node">
<title>Node2</title>
<g id="a_Node000002"><a xlink:href="../../d7/db6/classcarla_1_1client_1_1RssSensor.html#af2dcc2b1ee4a52dbc8e1e7727e3653c4" target="_top" xlink:title="Register a callback to be executed each time a new measurement is received.">
<polygon fill="white" stroke="#666666" points="303.88,-154 183.62,-154 183.62,-122 303.88,-122 303.88,-154"/>
<text text-anchor="start" x="191.62" y="-140.5" font-family="Helvetica,sans-Serif" font-size="10.00">carla::client::RssSensor</text>
<text text-anchor="middle" x="243.75" y="-128.5" font-family="Helvetica,sans-Serif" font-size="10.00">::Listen</text>
</a>
</g>
</g>
<!-- Node1&#45;&gt;Node2 -->
<g id="edge1_Node000001_Node000002" class="edge">
<title>Node1&#45;&gt;Node2</title>
<g id="a_edge1_Node000001_Node000002"><a xlink:title=" ">
<path fill="none" stroke="#63b8ff" d="M389.59,-84.57C372.28,-94.13 351.11,-105.01 331.25,-113 322.55,-116.5 313.18,-119.74 303.92,-122.63"/>
<polygon fill="#63b8ff" stroke="#63b8ff" points="390.77,-87.36 397.78,-79.41 387.35,-81.25 390.77,-87.36"/>
</a>
</g>
</g>
<!-- Node3 -->
<g id="Node000003" class="node">
<title>Node3</title>
<g id="a_Node000003"><a xlink:href="../../d7/db6/classcarla_1_1client_1_1RssSensor.html#a761bb9c8cfffcd4225fd19453b76e108" target="_top" xlink:title="Register a callback to be executed for each actor within each measurement to be processed to decide o...">
<polygon fill="white" stroke="#666666" points="331.25,-104 156.25,-104 156.25,-72 331.25,-72 331.25,-104"/>
<text text-anchor="start" x="164.25" y="-90.5" font-family="Helvetica,sans-Serif" font-size="10.00">carla::client::RssSensor</text>
<text text-anchor="middle" x="243.75" y="-78.5" font-family="Helvetica,sans-Serif" font-size="10.00">::RegisterActorConstellationCallback</text>
</a>
</g>
</g>
<!-- Node1&#45;&gt;Node3 -->
<g id="edge2_Node000001_Node000003" class="edge">
<title>Node1&#45;&gt;Node3</title>
<g id="a_edge2_Node000001_Node000003"><a xlink:title=" ">
<path fill="none" stroke="#63b8ff" d="M356.14,-72.67C348.13,-73.77 339.89,-74.9 331.69,-76.03"/>
<polygon fill="#63b8ff" stroke="#63b8ff" points="356.47,-76.02 365.9,-71.19 355.52,-69.08 356.47,-76.02"/>
</a>
</g>
</g>
<!-- Node4 -->
<g id="Node000004" class="node">
<title>Node4</title>
<g id="a_Node000004"><a xlink:href="../../d7/db6/classcarla_1_1client_1_1RssSensor.html#a84708b0cda6793b54a1df34c90050962" target="_top" xlink:title="Stop listening for new measurements.">
<polygon fill="white" stroke="#666666" points="303.88,-54 183.62,-54 183.62,-22 303.88,-22 303.88,-54"/>
<text text-anchor="start" x="191.62" y="-40.5" font-family="Helvetica,sans-Serif" font-size="10.00">carla::client::RssSensor</text>
<text text-anchor="middle" x="243.75" y="-28.5" font-family="Helvetica,sans-Serif" font-size="10.00">::Stop</text>
</a>
</g>
</g>
<!-- Node1&#45;&gt;Node4 -->
<g id="edge3_Node000001_Node000004" class="edge">
<title>Node1&#45;&gt;Node4</title>
<g id="a_edge3_Node000001_Node000004"><a xlink:title=" ">
<path fill="none" stroke="#63b8ff" d="M356.37,-53.36C339.2,-51 320.98,-48.49 304.35,-46.2"/>
<polygon fill="#63b8ff" stroke="#63b8ff" points="355.52,-56.92 365.9,-54.81 356.47,-49.98 355.52,-56.92"/>
</a>
</g>
</g>
<!-- Node5 -->
<g id="Node000005" class="node">
<title>Node5</title>
<g id="a_Node000005"><a xlink:href="../../d7/db6/classcarla_1_1client_1_1RssSensor.html#a4374f932e9cc6e726d7cbf98a7006cc9" target="_top" xlink:title="destructor">
<polygon fill="white" stroke="#666666" points="120.25,-32 0,-32 0,0 120.25,0 120.25,-32"/>
<text text-anchor="start" x="8" y="-18.5" font-family="Helvetica,sans-Serif" font-size="10.00">carla::client::RssSensor</text>
<text text-anchor="middle" x="60.12" y="-6.5" font-family="Helvetica,sans-Serif" font-size="10.00">::~RssSensor</text>
</a>
</g>
</g>
<!-- Node1&#45;&gt;Node5 -->
<g id="edge5_Node000001_Node000005" class="edge">
<title>Node1&#45;&gt;Node5</title>
<g id="a_edge5_Node000001_Node000005"><a xlink:title=" ">
<path fill="none" stroke="#63b8ff" d="M393.78,-40.82C376.12,-30.13 353.41,-18.47 331.25,-13 260.45,4.47 175.99,-0.39 120.59,-6.9"/>
<polygon fill="#63b8ff" stroke="#63b8ff" points="391.71,-44.27 402.05,-46.61 395.42,-38.34 391.71,-44.27"/>
</a>
</g>
</g>
<!-- Node4&#45;&gt;Node5 -->
<g id="edge4_Node000004_Node000005" class="edge">
<title>Node4&#45;&gt;Node5</title>
<g id="a_edge4_Node000004_Node000005"><a xlink:title=" ">
<path fill="none" stroke="#63b8ff" d="M172.75,-29.52C155.58,-27.44 137.36,-25.23 120.73,-23.22"/>
<polygon fill="#63b8ff" stroke="#63b8ff" points="171.93,-33.07 182.28,-30.8 172.77,-26.12 171.93,-33.07"/>
</a>
</g>
</g>
</g>
</svg>
</svg>

<style type='text/css'>
<![CDATA[
[data-mouse-over-selected='false'] { opacity: 0.7; }
[data-mouse-over-selected='true']  { opacity: 1.0; }
]]>
</style>
<script type="application/ecmascript"><![CDATA[
document.addEventListener('DOMContentLoaded', (event) => {
  highlightEdges();
  highlightAdjacentNodes();
});
]]></script>
</svg>
