<?xml version="1.0" encoding="UTF-8" standalone="no"?>
<!DOCTYPE svg PUBLIC "-//W3C//DTD SVG 1.1//EN"
 "http://www.w3.org/Graphics/SVG/1.1/DTD/svg11.dtd">
<!-- Generated by graphviz version 8.1.0 (20230707.0739)
 -->
<!-- Title: carla::client::RssSensor::TickRssSensor Pages: 1 -->
<svg width="934pt" height="184pt"
 viewBox="0.00 0.00 934.25 184.00" xmlns="http://www.w3.org/2000/svg" xmlns:xlink="http://www.w3.org/1999/xlink">
<g id="graph0" class="graph" transform="scale(1 1) rotate(0) translate(4 180)">
<title>carla::client::RssSensor::TickRssSensor</title>
<!-- Node1 -->
<g id="Node000001" class="node">
<title>Node1</title>
<g id="a_Node000001"><a xlink:title="the acutal sensor tick callback function">
<polygon fill="#999999" stroke="#666666" points="120.25,-107 0,-107 0,-75 120.25,-75 120.25,-107"/>
<text text-anchor="start" x="8" y="-93.5" font-family="Helvetica,sans-Serif" font-size="10.00">carla::client::RssSensor</text>
<text text-anchor="middle" x="60.12" y="-81.5" font-family="Helvetica,sans-Serif" font-size="10.00">::TickRssSensor</text>
</a>
</g>
</g>
<!-- Node2 -->
<g id="Node000002" class="node">
<title>Node2</title>
<g id="a_Node000002"><a xlink:href="../../db/d1f/classcarla_1_1client_1_1World.html#a04a22f65ea5ccd3e93b833503dda6d65" target="_top" xlink:title="Return a list with all the actors currently present in the world.">
<polygon fill="white" stroke="#666666" points="449.25,-176 351.5,-176 351.5,-144 449.25,-144 449.25,-176"/>
<text text-anchor="start" x="359.5" y="-162.5" font-family="Helvetica,sans-Serif" font-size="10.00">carla::client::World</text>
<text text-anchor="middle" x="400.38" y="-150.5" font-family="Helvetica,sans-Serif" font-size="10.00">::GetActors</text>
</a>
</g>
</g>
<!-- Node1&#45;&gt;Node2 -->
<g id="edge1_Node000001_Node000002" class="edge">
<title>Node1&#45;&gt;Node2</title>
<g id="a_edge1_Node000001_Node000002"><a xlink:title=" ">
<path fill="none" stroke="#63b8ff" d="M85.38,-107.3C103.94,-118.87 130.62,-133.6 156.25,-141 217.33,-158.63 290.39,-162.11 340.37,-161.98"/>
<polygon fill="#63b8ff" stroke="#63b8ff" points="340.33,-165.47 350.3,-161.89 340.27,-158.47 340.33,-165.47"/>
</a>
</g>
</g>
<!-- Node7 -->
<g id="Node000007" class="node">
<title>Node7</title>
<g id="a_Node000007"><a xlink:href="../../db/d1f/classcarla_1_1client_1_1World.html#afb1d7a4097793754f6ac375ab6ad29c5" target="_top" xlink:title=" ">
<polygon fill="white" stroke="#666666" points="279.5,-132 181.75,-132 181.75,-100 279.5,-100 279.5,-132"/>
<text text-anchor="start" x="189.75" y="-118.5" font-family="Helvetica,sans-Serif" font-size="10.00">carla::client::World</text>
<text text-anchor="middle" x="230.62" y="-106.5" font-family="Helvetica,sans-Serif" font-size="10.00">::GetSettings</text>
</a>
</g>
</g>
<!-- Node1&#45;&gt;Node7 -->
<g id="edge6_Node000001_Node000007" class="edge">
<title>Node1&#45;&gt;Node7</title>
<g id="a_edge6_Node000001_Node000007"><a xlink:title=" ">
<path fill="none" stroke="#63b8ff" d="M120.53,-99.81C136.85,-102.24 154.54,-104.86 170.83,-107.28"/>
<polygon fill="#63b8ff" stroke="#63b8ff" points="169.9,-110.82 180.3,-108.83 170.92,-103.9 169.9,-110.82"/>
</a>
</g>
</g>
<!-- Node8 -->
<g id="Node000008" class="node">
<title>Node8</title>
<g id="a_Node000008"><a xlink:href="../../d2/d06/classcarla_1_1client_1_1detail_1_1ActorState.html#ac98d447f3db74c88b3b43e80435042bc" target="_top" xlink:title=" ">
<polygon fill="white" stroke="#666666" points="288.5,-82 172.75,-82 172.75,-50 288.5,-50 288.5,-82"/>
<text text-anchor="start" x="180.75" y="-68.5" font-family="Helvetica,sans-Serif" font-size="10.00">carla::client::detail</text>
<text text-anchor="middle" x="230.62" y="-56.5" font-family="Helvetica,sans-Serif" font-size="10.00">::ActorState::GetWorld</text>
</a>
</g>
</g>
<!-- Node1&#45;&gt;Node8 -->
<g id="edge8_Node000001_Node000008" class="edge">
<title>Node1&#45;&gt;Node8</title>
<g id="a_edge8_Node000001_Node000008"><a xlink:title=" ">
<path fill="none" stroke="#63b8ff" d="M120.53,-82.19C133.84,-80.21 148.06,-78.1 161.68,-76.08"/>
<polygon fill="#63b8ff" stroke="#63b8ff" points="162.07,-79.41 171.45,-74.48 161.05,-72.49 162.07,-79.41"/>
</a>
</g>
</g>
<!-- Node9 -->
<g id="Node000009" class="node">
<title>Node9</title>
<g id="a_Node000009"><a xlink:href="../../d7/db6/classcarla_1_1client_1_1RssSensor.html#afe634e278e1245d60e7e77d457657e2e" target="_top" xlink:title=" ">
<polygon fill="white" stroke="#666666" points="305,-32 156.25,-32 156.25,0 305,0 305,-32"/>
<text text-anchor="start" x="164.25" y="-18.5" font-family="Helvetica,sans-Serif" font-size="10.00">carla::client::RssSensor</text>
<text text-anchor="middle" x="230.62" y="-6.5" font-family="Helvetica,sans-Serif" font-size="10.00">::TickRssSensorThreadLocked</text>
</a>
</g>
</g>
<!-- Node1&#45;&gt;Node9 -->
<g id="edge9_Node000001_Node000009" class="edge">
<title>Node1&#45;&gt;Node9</title>
<g id="a_edge9_Node000001_Node000009"><a xlink:title=" ">
<path fill="none" stroke="#63b8ff" d="M89.28,-74.72C107.92,-64.31 133.11,-50.95 156.25,-41 160.04,-39.37 163.97,-37.78 167.95,-36.23"/>
<polygon fill="#63b8ff" stroke="#63b8ff" points="168.79,-39.27 176.92,-32.48 166.33,-32.72 168.79,-39.27"/>
</a>
</g>
</g>
<!-- Node3 -->
<g id="Node000003" class="node">
<title>Node3</title>
<g id="a_Node000003"><a xlink:href="../../d1/dd3/classcarla_1_1client_1_1detail_1_1EpisodeProxyImpl.html#aaca857645fbeb6546b4a03a663bb65af" target="_top" xlink:title="Same as TryLock but never return nullptr.">
<polygon fill="white" stroke="#666666" points="623.5,-132 495.75,-132 495.75,-100 623.5,-100 623.5,-132"/>
<text text-anchor="start" x="503.75" y="-118.5" font-family="Helvetica,sans-Serif" font-size="10.00">carla::client::detail</text>
<text text-anchor="middle" x="559.62" y="-106.5" font-family="Helvetica,sans-Serif" font-size="10.00">::EpisodeProxyImpl::Lock</text>
</a>
</g>
</g>
<!-- Node2&#45;&gt;Node3 -->
<g id="edge2_Node000002_Node000003" class="edge">
<title>Node2&#45;&gt;Node3</title>
<g id="a_edge2_Node000002_Node000003"><a xlink:title=" ">
<path fill="none" stroke="#63b8ff" d="M449.41,-146.56C462.08,-143.01 476,-139.12 489.54,-135.33"/>
<polygon fill="#63b8ff" stroke="#63b8ff" points="490.1,-138.53 498.79,-132.46 488.22,-131.79 490.1,-138.53"/>
</a>
</g>
</g>
<!-- Node4 -->
<g id="Node000004" class="node">
<title>Node4</title>
<g id="a_Node000004"><a xlink:href="../../d8/dcd/namespacecarla_1_1client_1_1detail.html#aa47f72a521d97fe3574a56e808b509d8" target="_top" xlink:title=" ">
<polygon fill="white" stroke="#666666" points="764,-154 668.5,-154 668.5,-122 764,-122 764,-154"/>
<text text-anchor="start" x="676.5" y="-140.5" font-family="Helvetica,sans-Serif" font-size="10.00">carla::client::detail</text>
<text text-anchor="middle" x="716.25" y="-128.5" font-family="Helvetica,sans-Serif" font-size="10.00">::Load</text>
</a>
</g>
</g>
<!-- Node3&#45;&gt;Node4 -->
<g id="edge3_Node000003_Node000004" class="edge">
<title>Node3&#45;&gt;Node4</title>
<g id="a_edge3_Node000003_Node000004"><a xlink:title=" ">
<path fill="none" stroke="#63b8ff" d="M623.96,-125.01C635.1,-126.6 646.63,-128.24 657.6,-129.8"/>
<polygon fill="#63b8ff" stroke="#63b8ff" points="656.95,-133.38 667.34,-131.33 657.94,-126.45 656.95,-133.38"/>
</a>
</g>
</g>
<!-- Node6 -->
<g id="Node000006" class="node">
<title>Node6</title>
<g id="a_Node000006"><a xlink:href="../../d9/d36/namespacecarla.html#a23602ab663165210a7757d6108f6b3cd" target="_top" xlink:title=" ">
<polygon fill="white" stroke="#666666" points="773,-104 659.5,-104 659.5,-84 773,-84 773,-104"/>
<text text-anchor="middle" x="716.25" y="-90.5" font-family="Helvetica,sans-Serif" font-size="10.00">carla::throw_exception</text>
</a>
</g>
</g>
<!-- Node3&#45;&gt;Node6 -->
<g id="edge5_Node000003_Node000006" class="edge">
<title>Node3&#45;&gt;Node6</title>
<g id="a_edge5_Node000003_Node000006"><a xlink:title=" ">
<path fill="none" stroke="#63b8ff" d="M623.96,-106.99C632.08,-105.83 640.41,-104.65 648.58,-103.49"/>
<polygon fill="#63b8ff" stroke="#63b8ff" points="648.79,-106.85 658.2,-101.98 647.8,-99.92 648.79,-106.85"/>
</a>
</g>
</g>
<!-- Node5 -->
<g id="Node000005" class="node">
<title>Node5</title>
<g id="a_Node000005"><a xlink:href="../../d2/dcf/classcarla_1_1AtomicSharedPtr.html#a7bb0b8af178b36c923fedac384b3aad4" target="_top" xlink:title=" ">
<polygon fill="white" stroke="#666666" points="926.25,-154 809,-154 809,-122 926.25,-122 926.25,-154"/>
<text text-anchor="start" x="817" y="-140.5" font-family="Helvetica,sans-Serif" font-size="10.00">carla::AtomicSharedPtr</text>
<text text-anchor="middle" x="867.62" y="-128.5" font-family="Helvetica,sans-Serif" font-size="10.00">::load</text>
</a>
</g>
</g>
<!-- Node4&#45;&gt;Node5 -->
<g id="edge4_Node000004_Node000005" class="edge">
<title>Node4&#45;&gt;Node5</title>
<g id="a_edge4_Node000004_Node000005"><a xlink:title=" ">
<path fill="none" stroke="#63b8ff" d="M764.1,-138C774.8,-138 786.39,-138 797.79,-138"/>
<polygon fill="#63b8ff" stroke="#63b8ff" points="797.64,-141.5 807.64,-138 797.64,-134.5 797.64,-141.5"/>
</a>
</g>
</g>
<!-- Node7&#45;&gt;Node3 -->
<g id="edge7_Node000007_Node000003" class="edge">
<title>Node7&#45;&gt;Node3</title>
<g id="a_edge7_Node000007_Node000003"><a xlink:title=" ">
<path fill="none" stroke="#63b8ff" d="M279.87,-116C333.87,-116 421.98,-116 484.68,-116"/>
<polygon fill="#63b8ff" stroke="#63b8ff" points="484.29,-119.5 494.29,-116 484.29,-112.5 484.29,-119.5"/>
</a>
</g>
</g>
<!-- Node10 -->
<g id="Node000010" class="node">
<title>Node10</title>
<g id="a_Node000010"><a xlink:href="../../d2/d06/classcarla_1_1client_1_1detail_1_1ActorState.html#a77b201455dd52b51bb3b1834ccf87ccc" target="_top" xlink:title=" ">
<polygon fill="white" stroke="#666666" points="459.75,-82 341,-82 341,-50 459.75,-50 459.75,-82"/>
<text text-anchor="start" x="349" y="-68.5" font-family="Helvetica,sans-Serif" font-size="10.00">carla::client::detail</text>
<text text-anchor="middle" x="400.38" y="-56.5" font-family="Helvetica,sans-Serif" font-size="10.00">::ActorState::GetParent</text>
</a>
</g>
</g>
<!-- Node9&#45;&gt;Node10 -->
<g id="edge10_Node000009_Node000010" class="edge">
<title>Node9&#45;&gt;Node10</title>
<g id="a_edge10_Node000009_Node000010"><a xlink:title=" ">
<path fill="none" stroke="#63b8ff" d="M286.55,-32.37C301.68,-36.88 318.24,-41.82 333.9,-46.48"/>
<polygon fill="#63b8ff" stroke="#63b8ff" points="332.45,-50 343.04,-49.51 334.45,-43.3 332.45,-50"/>
</a>
</g>
</g>
<!-- Node11 -->
<g id="Node000011" class="node">
<title>Node11</title>
<g id="a_Node000011"><a xlink:href="../../d6/da5/classcarla_1_1client_1_1Actor.html#ab5c7de9cefbe7d189c97a429ab052115" target="_top" xlink:title="Return the current transform of the actor.">
<polygon fill="white" stroke="#666666" points="448.12,-32 352.62,-32 352.62,0 448.12,0 448.12,-32"/>
<text text-anchor="start" x="360.62" y="-18.5" font-family="Helvetica,sans-Serif" font-size="10.00">carla::client::Actor</text>
<text text-anchor="middle" x="400.38" y="-6.5" font-family="Helvetica,sans-Serif" font-size="10.00">::GetTransform</text>
</a>
</g>
</g>
<!-- Node9&#45;&gt;Node11 -->
<g id="edge11_Node000009_Node000011" class="edge">
<title>Node9&#45;&gt;Node11</title>
<g id="a_edge11_Node000009_Node000011"><a xlink:title=" ">
<path fill="none" stroke="#63b8ff" d="M305.2,-16C317.34,-16 329.78,-16 341.47,-16"/>
<polygon fill="#63b8ff" stroke="#63b8ff" points="341.41,-19.5 351.41,-16 341.41,-12.5 341.41,-19.5"/>
</a>
</g>
</g>
<!-- Node11&#45;&gt;Node3 -->
<g id="edge13_Node000011_Node000003" class="edge">
<title>Node11&#45;&gt;Node3</title>
<g id="a_edge13_Node000011_Node000003"><a xlink:title=" ">
<path fill="none" stroke="#63b8ff" d="M443.13,-32.4C448.82,-35.06 454.51,-37.95 459.75,-41 485.59,-56.03 512.47,-76.8 531.66,-92.67"/>
<polygon fill="#63b8ff" stroke="#63b8ff" points="529,-95.84 538.91,-99.58 533.49,-90.48 529,-95.84"/>
</a>
</g>
</g>
<!-- Node12 -->
<g id="Node000012" class="node">
<title>Node12</title>
<g id="a_Node000012"><a xlink:href="../../d2/d06/classcarla_1_1client_1_1detail_1_1ActorState.html#a520d5ef7284ded86a1d96a346f3516aa" target="_top" xlink:title=" ">
<polygon fill="white" stroke="#666666" points="622.38,-32 496.88,-32 496.88,0 622.38,0 622.38,-32"/>
<text text-anchor="start" x="504.88" y="-18.5" font-family="Helvetica,sans-Serif" font-size="10.00">carla::client::detail</text>
<text text-anchor="middle" x="559.62" y="-6.5" font-family="Helvetica,sans-Serif" font-size="10.00">::ActorState::GetEpisode</text>
</a>
</g>
</g>
<!-- Node11&#45;&gt;Node12 -->
<g id="edge12_Node000011_Node000012" class="edge">
<title>Node11&#45;&gt;Node12</title>
<g id="a_edge12_Node000011_Node000012"><a xlink:title=" ">
<path fill="none" stroke="#63b8ff" d="M448.56,-16C460.24,-16 473.03,-16 485.64,-16"/>
<polygon fill="#63b8ff" stroke="#63b8ff" points="485.63,-19.5 495.63,-16 485.63,-12.5 485.63,-19.5"/>
</a>
</g>
</g>
</g>
</svg>
