<?xml version="1.0" encoding="UTF-8" standalone="no"?>
<!DOCTYPE svg PUBLIC "-//W3C//DTD SVG 1.1//EN"
 "http://www.w3.org/Graphics/SVG/1.1/DTD/svg11.dtd">
<!-- Generated by graphviz version 8.1.0 (20230707.0739)
 -->
<!-- Title: pugi::xml_node Pages: 1 -->
<svg width="277pt" height="284pt"
 viewBox="0.00 0.00 276.57 284.00" xmlns="http://www.w3.org/2000/svg" xmlns:xlink="http://www.w3.org/1999/xlink">

<svg id="main" version="1.1" xmlns="http://www.w3.org/2000/svg" xmlns:xlink="http://www.w3.org/1999/xlink" xml:space="preserve" onload="init(evt)">
<style type="text/css"><![CDATA[
.node, .edge {opacity: 0.7;}
.node.selected, .edge.selected {opacity: 1;}
.edge:hover path { stroke: red; }
.edge:hover polygon { stroke: red; fill: red; }
]]></style>
<script type="application/ecmascript" xlink:href="../../svg.min.js"/>
<svg id="graph" class="graph">
<g id="graph0" class="graph" transform="scale(1 1) rotate(0) translate(4 280)">
<title>pugi::xml_node</title>
<!-- Node1 -->
<g id="Node000001" class="node">
<title>Node1</title>
<g id="a_Node000001"><a xlink:title=" ">
<polygon fill="#999999" stroke="#666666" points="134.57,-20 52.57,-20 52.57,0 134.57,0 134.57,-20"/>
<text text-anchor="middle" x="93.57" y="-6.5" font-family="Helvetica,sans-Serif" font-size="10.00">pugi::xml_node</text>
</a>
</g>
</g>
<!-- Node2 -->
<g id="Node000002" class="node">
<title>Node2</title>
<g id="a_Node000002"><a xlink:href="../../d8/d05/structpugi_1_1xml__node__struct.html" target="_top" xlink:title=" ">
<polygon fill="white" stroke="#666666" points="149.57,-102 37.57,-102 37.57,-82 149.57,-82 149.57,-102"/>
<text text-anchor="middle" x="93.57" y="-88.5" font-family="Helvetica,sans-Serif" font-size="10.00">pugi::xml_node_struct</text>
</a>
</g>
</g>
<!-- Node2&#45;&gt;Node1 -->
<g id="edge1_Node000001_Node000002" class="edge">
<title>Node2&#45;&gt;Node1</title>
<g id="a_edge1_Node000001_Node000002"><a xlink:title=" ">
<path fill="none" stroke="#9a32cd" stroke-dasharray="5,2" d="M93.57,-70.54C93.57,-54.44 93.57,-32.74 93.57,-20.48"/>
<polygon fill="#9a32cd" stroke="#9a32cd" points="90.07,-70.51 93.57,-80.51 97.07,-70.51 90.07,-70.51"/>
</a>
</g>
<text text-anchor="middle" x="105.95" y="-40.5" font-family="Helvetica,sans-Serif" font-size="10.00" fill="grey"> _root</text>
</g>
<!-- Node2&#45;&gt;Node2 -->
<g id="edge4_Node000002_Node000002" class="edge">
<title>Node2&#45;&gt;Node2</title>
<g id="a_edge4_Node000002_Node000002"><a xlink:title=" ">
<path fill="none" stroke="#9a32cd" stroke-dasharray="5,2" d="M160.79,-98.32C165.02,-96.84 167.57,-94.73 167.57,-92 167.57,-87.41 160.34,-84.57 150.03,-83.49"/>
<polygon fill="#9a32cd" stroke="#9a32cd" points="160.14,-95.09 151.03,-100.51 161.53,-101.95 160.14,-95.09"/>
</a>
</g>
<text text-anchor="middle" x="197.95" y="-106.5" font-family="Helvetica,sans-Serif" font-size="10.00" fill="grey"> first_child</text>
<text text-anchor="middle" x="197.95" y="-94.5" font-family="Helvetica,sans-Serif" font-size="10.00" fill="grey">next_sibling</text>
<text text-anchor="middle" x="197.95" y="-82.5" font-family="Helvetica,sans-Serif" font-size="10.00" fill="grey">parent</text>
<text text-anchor="middle" x="197.95" y="-70.5" font-family="Helvetica,sans-Serif" font-size="10.00" fill="grey">prev_sibling_c</text>
</g>
<!-- Node3 -->
<g id="Node000003" class="node">
<title>Node3</title>
<g id="a_Node000003"><a xlink:title=" ">
<polygon fill="white" stroke="#666666" points="77.2,-276 25.95,-276 25.95,-256 77.2,-256 77.2,-276"/>
<text text-anchor="middle" x="51.57" y="-262.5" font-family="Helvetica,sans-Serif" font-size="10.00">uintptr_t</text>
</a>
</g>
</g>
<!-- Node3&#45;&gt;Node2 -->
<g id="edge2_Node000002_Node000003" class="edge">
<title>Node3&#45;&gt;Node2</title>
<g id="a_edge2_Node000002_Node000003"><a xlink:title=" ">
<path fill="none" stroke="#9a32cd" stroke-dasharray="5,2" d="M33.94,-248.1C15.22,-227.99 -9.88,-193.45 4.32,-164 18.51,-134.57 51.49,-113.59 73.14,-102.38"/>
<polygon fill="#9a32cd" stroke="#9a32cd" points="30.95,-250.07 40.45,-254.77 35.96,-245.18 30.95,-250.07"/>
</a>
</g>
<text text-anchor="middle" x="20.7" y="-176.5" font-family="Helvetica,sans-Serif" font-size="10.00" fill="grey"> header</text>
</g>
<!-- Node5 -->
<g id="Node000005" class="node">
<title>Node5</title>
<g id="a_Node000005"><a xlink:href="../../df/da1/structpugi_1_1xml__attribute__struct.html" target="_top" xlink:title=" ">
<polygon fill="white" stroke="#666666" points="141.7,-196 45.45,-196 45.45,-164 141.7,-164 141.7,-196"/>
<text text-anchor="start" x="53.45" y="-182.5" font-family="Helvetica,sans-Serif" font-size="10.00">pugi::xml_attribute</text>
<text text-anchor="middle" x="93.57" y="-170.5" font-family="Helvetica,sans-Serif" font-size="10.00">_struct</text>
</a>
</g>
</g>
<!-- Node3&#45;&gt;Node5 -->
<g id="edge6_Node000005_Node000003" class="edge">
<title>Node3&#45;&gt;Node5</title>
<g id="a_edge6_Node000005_Node000003"><a xlink:title=" ">
<path fill="none" stroke="#9a32cd" stroke-dasharray="5,2" d="M59.59,-245.71C63.74,-236.07 69.04,-224.29 74.32,-214 77.35,-208.1 80.95,-201.77 84.21,-196.25"/>
<polygon fill="#9a32cd" stroke="#9a32cd" points="55.98,-244.26 55.31,-254.83 62.43,-246.99 55.98,-244.26"/>
</a>
</g>
<text text-anchor="middle" x="90.7" y="-222.5" font-family="Helvetica,sans-Serif" font-size="10.00" fill="grey"> header</text>
</g>
<!-- Node4 -->
<g id="Node000004" class="node">
<title>Node4</title>
<g id="a_Node000004"><a xlink:title=" ">
<polygon fill="white" stroke="#666666" points="159.45,-276 109.7,-276 109.7,-256 159.45,-256 159.45,-276"/>
<text text-anchor="middle" x="134.57" y="-262.5" font-family="Helvetica,sans-Serif" font-size="10.00">char_t *</text>
</a>
</g>
</g>
<!-- Node4&#45;&gt;Node2 -->
<g id="edge3_Node000002_Node000004" class="edge">
<title>Node4&#45;&gt;Node2</title>
<g id="a_edge3_Node000002_Node000004"><a xlink:title=" ">
<path fill="none" stroke="#9a32cd" stroke-dasharray="5,2" d="M167.83,-251.17C205.56,-233.37 259.11,-200.36 236.57,-164 215.61,-130.19 173.22,-111.98 140,-102.5"/>
<polygon fill="#9a32cd" stroke="#9a32cd" points="166.81,-248.25 159.16,-255.58 169.71,-254.62 166.81,-248.25"/>
</a>
</g>
<text text-anchor="middle" x="255.07" y="-182.5" font-family="Helvetica,sans-Serif" font-size="10.00" fill="grey"> name</text>
<text text-anchor="middle" x="255.07" y="-170.5" font-family="Helvetica,sans-Serif" font-size="10.00" fill="grey">value</text>
</g>
<!-- Node4&#45;&gt;Node5 -->
<g id="edge7_Node000005_Node000004" class="edge">
<title>Node4&#45;&gt;Node5</title>
<g id="a_edge7_Node000005_Node000004"><a xlink:title=" ">
<path fill="none" stroke="#9a32cd" stroke-dasharray="5,2" d="M125.26,-245.93C117.94,-230.92 107.86,-210.27 101.05,-196.32"/>
<polygon fill="#9a32cd" stroke="#9a32cd" points="122.49,-247.24 130.03,-254.69 128.79,-244.17 122.49,-247.24"/>
</a>
</g>
<text text-anchor="middle" x="135.07" y="-228.5" font-family="Helvetica,sans-Serif" font-size="10.00" fill="grey"> name</text>
<text text-anchor="middle" x="135.07" y="-216.5" font-family="Helvetica,sans-Serif" font-size="10.00" fill="grey">value</text>
</g>
<!-- Node5&#45;&gt;Node2 -->
<g id="edge5_Node000002_Node000005" class="edge">
<title>Node5&#45;&gt;Node2</title>
<g id="a_edge5_Node000002_Node000005"><a xlink:title=" ">
<path fill="none" stroke="#9a32cd" stroke-dasharray="5,2" d="M93.57,-152.64C93.57,-135.57 93.57,-114.38 93.57,-102.4"/>
<polygon fill="#9a32cd" stroke="#9a32cd" points="90.07,-152.62 93.57,-162.62 97.07,-152.62 90.07,-152.62"/>
</a>
</g>
<text text-anchor="middle" x="123.2" y="-136.5" font-family="Helvetica,sans-Serif" font-size="10.00" fill="grey"> first_attribute</text>
</g>
<!-- Node5&#45;&gt;Node5 -->
<g id="edge8_Node000005_Node000005" class="edge">
<title>Node5&#45;&gt;Node5</title>
<g id="a_edge8_Node000005_Node000005"><a xlink:title=" ">
<path fill="none" stroke="#9a32cd" stroke-dasharray="5,2" d="M152.81,-185.53C157.08,-184.28 159.7,-182.44 159.7,-180 159.7,-175.9 152.28,-173.48 142.01,-172.74"/>
<polygon fill="#9a32cd" stroke="#9a32cd" points="152.33,-182.22 143.01,-187.26 153.44,-189.13 152.33,-182.22"/>
</a>
</g>
<text text-anchor="middle" x="193.82" y="-182.5" font-family="Helvetica,sans-Serif" font-size="10.00" fill="grey"> next_attribute</text>
<text text-anchor="middle" x="193.82" y="-170.5" font-family="Helvetica,sans-Serif" font-size="10.00" fill="grey">prev_attribute_c</text>
</g>
</g>
</svg>
</svg>

<style type='text/css'>
<![CDATA[
[data-mouse-over-selected='false'] { opacity: 0.7; }
[data-mouse-over-selected='true']  { opacity: 1.0; }
]]>
</style>
<script type="application/ecmascript"><![CDATA[
document.addEventListener('DOMContentLoaded', (event) => {
  highlightEdges();
  highlightAdjacentNodes();
});
]]></script>
</svg>
