<?xml version="1.0" encoding="UTF-8" standalone="no"?>
<!DOCTYPE svg PUBLIC "-//W3C//DTD SVG 1.1//EN"
 "http://www.w3.org/Graphics/SVG/1.1/DTD/svg11.dtd">
<!-- Generated by graphviz version 8.1.0 (20230707.0739)
 -->
<!-- Title: UObjectRegister::RegisterTrafficLight Pages: 1 -->
<!--zoomable 160 -->

<svg id="main" version="1.1" xmlns="http://www.w3.org/2000/svg" xmlns:xlink="http://www.w3.org/1999/xlink" xml:space="preserve" onload="init(evt)">
<style type="text/css"><![CDATA[
.node, .edge {opacity: 0.7;}
.node.selected, .edge.selected {opacity: 1;}
.edge:hover path { stroke: red; }
.edge:hover polygon { stroke: red; fill: red; }
]]></style>

<defs>
  <circle id="rim" cx="0" cy="0" r="7"/>
  <circle id="rim2" cx="0" cy="0" r="3.5"/>
  <g id="zoomPlus">
    <use xlink:href="#rim" fill="#404040"><set attributeName="fill" to="#808080" begin="zoomplus.mouseover" end="zoomplus.mouseout"/></use>
    <path d="M-4,0h8M0,-4v8" fill="none" stroke="white" stroke-width="1.5" pointer-events="none"/>
  </g>
  <g id="zoomMin">
    <use xlink:href="#rim" fill="#404040"><set attributeName="fill" to="#808080" begin="zoomminus.mouseover" end="zoomminus.mouseout"/></use>
    <path d="M-4,0h8" fill="none" stroke="white" stroke-width="1.5" pointer-events="none"/>
  </g>
  <g id="arrowUp" transform="translate(30 24)">
    <use xlink:href="#rim"/>
    <path pointer-events="none" fill="none" stroke="white" stroke-width="1.5" d="M0,-3.0v7 M-2.5,-0.5L0,-3.0L2.5,-0.5"/>
  </g>
  <g id="arrowRight" transform="rotate(90) translate(36 -43)">
    <use xlink:href="#rim"/>
    <path pointer-events="none" fill="none" stroke="white" stroke-width="1.5" d="M0,-3.0v7 M-2.5,-0.5L0,-3.0L2.5,-0.5"/>
  </g>
  <g id="arrowDown" transform="rotate(180) translate(-30 -48)">
    <use xlink:href="#rim"/>
    <path pointer-events="none" fill="none" stroke="white" stroke-width="1.5" d="M0,-3.0v7 M-2.5,-0.5L0,-3.0L2.5,-0.5"/>
  </g>
  <g id="arrowLeft" transform="rotate(270) translate(-36 17)">
    <use xlink:href="#rim"/>
    <path pointer-events="none" fill="none" stroke="white" stroke-width="1.5" d="M0,-3.0v7 M-2.5,-0.5L0,-3.0L2.5,-0.5"/>
  </g>
  <g id="resetDef">
    <use xlink:href="#rim2" fill="#404040"><set attributeName="fill" to="#808080" begin="reset.mouseover" end="reset.mouseout"/></use>
  </g>
</defs>
<script type="application/ecmascript">
var viewWidth = 970;
var viewHeight = 160;
var sectionId = 'dynsection-20';
</script>
<script type="application/ecmascript" xlink:href="../../svg.min.js"/>
<svg id="graph" class="graph">
<g id="viewport">
<title>UObjectRegister::RegisterTrafficLight</title>
<!-- Node1 -->
<g id="Node000001" class="node">
<title>Node1</title>
<g id="a_Node000001"><a xlink:title=" ">
<polygon fill="#999999" stroke="#666666" points="129.25,-76 0,-76 0,-44 129.25,-44 129.25,-76"/>
<text text-anchor="start" x="8" y="-62.5" font-family="Helvetica,sans-Serif" font-size="10.00">UObjectRegister::Register</text>
<text text-anchor="middle" x="64.62" y="-50.5" font-family="Helvetica,sans-Serif" font-size="10.00">TrafficLight</text>
</a>
</g>
</g>
<!-- Node2 -->
<g id="Node000002" class="node">
<title>Node2</title>
<g id="a_Node000002"><a xlink:href="../../df/d02/classUBoundingBoxCalculator.html#af8d4b9688261756447ce09390064d3c2" target="_top" xlink:title=" ">
<polygon fill="white" stroke="#666666" points="539.25,-114 343.25,-114 343.25,-82 539.25,-82 539.25,-114"/>
<text text-anchor="start" x="351.25" y="-100.5" font-family="Helvetica,sans-Serif" font-size="10.00">UBoundingBoxCalculator</text>
<text text-anchor="middle" x="441.25" y="-88.5" font-family="Helvetica,sans-Serif" font-size="10.00">::GetMeshCompsFromActorBoundingBox</text>
</a>
</g>
</g>
<!-- Node1&#45;&gt;Node2 -->
<g id="edge1_Node000001_Node000002" class="edge">
<title>Node1&#45;&gt;Node2</title>
<g id="a_edge1_Node000001_Node000002"><a xlink:title=" ">
<path fill="none" stroke="#63b8ff" d="M129.49,-73.35C141.34,-75.49 153.64,-77.5 165.25,-79 220.08,-86.1 281.43,-90.66 332.25,-93.53"/>
<polygon fill="#63b8ff" stroke="#63b8ff" points="331.75,-97.06 341.93,-94.11 332.13,-90.07 331.75,-97.06"/>
</a>
</g>
</g>
<!-- Node7 -->
<g id="Node000007" class="node">
<title>Node7</title>
<g id="a_Node000007"><a xlink:href="../../da/d86/classATagger.html#a2b8ab63680928bbd944deecb7e87ec23" target="_top" xlink:title="Retrieve the tags of an already tagged actor.">
<polygon fill="white" stroke="#666666" points="299.75,-70 172.75,-70 172.75,-50 299.75,-50 299.75,-70"/>
<text text-anchor="middle" x="236.25" y="-56.5" font-family="Helvetica,sans-Serif" font-size="10.00">ATagger::GetTagAsString</text>
</a>
</g>
</g>
<!-- Node1&#45;&gt;Node7 -->
<g id="edge6_Node000001_Node000007" class="edge">
<title>Node1&#45;&gt;Node7</title>
<g id="a_edge6_Node000001_Node000007"><a xlink:title=" ">
<path fill="none" stroke="#63b8ff" d="M129.27,-60C139.85,-60 150.89,-60 161.69,-60"/>
<polygon fill="#63b8ff" stroke="#63b8ff" points="161.38,-63.5 171.38,-60 161.38,-56.5 161.38,-63.5"/>
</a>
</g>
</g>
<!-- Node8 -->
<g id="Node000008" class="node">
<title>Node8</title>
<g id="a_Node000008"><a xlink:href="../../df/d02/classUBoundingBoxCalculator.html#ad731c0c97029d59cb5b763077a7c18ec" target="_top" xlink:title=" ">
<polygon fill="white" stroke="#666666" points="307.25,-32 165.25,-32 165.25,0 307.25,0 307.25,-32"/>
<text text-anchor="start" x="173.25" y="-18.5" font-family="Helvetica,sans-Serif" font-size="10.00">UBoundingBoxCalculator</text>
<text text-anchor="middle" x="236.25" y="-6.5" font-family="Helvetica,sans-Serif" font-size="10.00">::GetTrafficLightBoundingBox</text>
</a>
</g>
</g>
<!-- Node1&#45;&gt;Node8 -->
<g id="edge7_Node000001_Node000008" class="edge">
<title>Node1&#45;&gt;Node8</title>
<g id="a_edge7_Node000001_Node000008"><a xlink:title=" ">
<path fill="none" stroke="#63b8ff" d="M128.79,-43.62C139.42,-40.86 150.55,-37.97 161.42,-35.15"/>
<polygon fill="#63b8ff" stroke="#63b8ff" points="161.95,-38.37 170.75,-32.47 160.19,-31.59 161.95,-38.37"/>
</a>
</g>
</g>
<!-- Node3 -->
<g id="Node000003" class="node">
<title>Node3</title>
<g id="a_Node000003"><a xlink:href="../../df/d02/classUBoundingBoxCalculator.html#ae6652aae39124e629b2cab14760fa027" target="_top" xlink:title=" ">
<polygon fill="white" stroke="#666666" points="745.75,-114 575.25,-114 575.25,-82 745.75,-82 745.75,-114"/>
<text text-anchor="start" x="583.25" y="-100.5" font-family="Helvetica,sans-Serif" font-size="10.00">UBoundingBoxCalculator</text>
<text text-anchor="middle" x="660.5" y="-88.5" font-family="Helvetica,sans-Serif" font-size="10.00">::GetBBsOfStaticMeshComponents</text>
</a>
</g>
</g>
<!-- Node2&#45;&gt;Node3 -->
<g id="edge2_Node000002_Node000003" class="edge">
<title>Node2&#45;&gt;Node3</title>
<g id="a_edge2_Node000002_Node000003"><a xlink:title=" ">
<path fill="none" stroke="#63b8ff" d="M539.44,-98C547.69,-98 556.02,-98 564.26,-98"/>
<polygon fill="#63b8ff" stroke="#63b8ff" points="564,-101.5 574,-98 564,-94.5 564,-101.5"/>
</a>
</g>
</g>
<!-- Node4 -->
<g id="Node000004" class="node">
<title>Node4</title>
<g id="a_Node000004"><a xlink:href="../../dd/dd8/BoundingBoxCalculator_8cpp.html#a724edcd3050f902e60a4c923013b7e4c" target="_top" xlink:title=" ">
<polygon fill="white" stroke="#666666" points="925.62,-152 818.12,-152 818.12,-132 925.62,-132 925.62,-152"/>
<text text-anchor="middle" x="871.88" y="-138.5" font-family="Helvetica,sans-Serif" font-size="10.00">ApplyTransformToBB</text>
</a>
</g>
</g>
<!-- Node3&#45;&gt;Node4 -->
<g id="edge3_Node000003_Node000004" class="edge">
<title>Node3&#45;&gt;Node4</title>
<g id="a_edge3_Node000003_Node000004"><a xlink:title=" ">
<path fill="none" stroke="#63b8ff" d="M739.76,-114.45C763.12,-119.36 788.35,-124.66 810.39,-129.29"/>
<polygon fill="#63b8ff" stroke="#63b8ff" points="809.42,-132.87 819.93,-131.5 810.86,-126.02 809.42,-132.87"/>
</a>
</g>
</g>
<!-- Node5 -->
<g id="Node000005" class="node">
<title>Node5</title>
<g id="a_Node000005"><a xlink:href="../../df/d02/classUBoundingBoxCalculator.html#acee57735172616e5908916e178b16b7f" target="_top" xlink:title=" ">
<polygon fill="white" stroke="#666666" points="944.38,-114 799.38,-114 799.38,-82 944.38,-82 944.38,-114"/>
<text text-anchor="start" x="807.38" y="-100.5" font-family="Helvetica,sans-Serif" font-size="10.00">UBoundingBoxCalculator</text>
<text text-anchor="middle" x="871.88" y="-88.5" font-family="Helvetica,sans-Serif" font-size="10.00">::GetStaticMeshBoundingBox</text>
</a>
</g>
</g>
<!-- Node3&#45;&gt;Node5 -->
<g id="edge4_Node000003_Node000005" class="edge">
<title>Node3&#45;&gt;Node5</title>
<g id="a_edge4_Node000003_Node000005"><a xlink:title=" ">
<path fill="none" stroke="#63b8ff" d="M746.06,-98C759.94,-98 774.31,-98 788.15,-98"/>
<polygon fill="#63b8ff" stroke="#63b8ff" points="788.11,-101.5 798.11,-98 788.11,-94.5 788.11,-101.5"/>
</a>
</g>
</g>
<!-- Node6 -->
<g id="Node000006" class="node">
<title>Node6</title>
<g id="a_Node000006"><a xlink:href="../../da/d86/classATagger.html#a1fbf1e4054acac5814c5521796a410a2" target="_top" xlink:title="Retrieve the tag of an already tagged component.">
<polygon fill="white" stroke="#666666" points="962,-64 781.75,-64 781.75,-44 962,-44 962,-64"/>
<text text-anchor="middle" x="871.88" y="-50.5" font-family="Helvetica,sans-Serif" font-size="10.00">ATagger::GetTagOfTaggedComponent</text>
</a>
</g>
</g>
<!-- Node3&#45;&gt;Node6 -->
<g id="edge5_Node000003_Node000006" class="edge">
<title>Node3&#45;&gt;Node6</title>
<g id="a_edge5_Node000003_Node000006"><a xlink:title=" ">
<path fill="none" stroke="#63b8ff" d="M739.76,-81.55C763.12,-76.64 788.35,-71.34 810.39,-66.71"/>
<polygon fill="#63b8ff" stroke="#63b8ff" points="810.86,-69.98 819.93,-64.5 809.42,-63.13 810.86,-69.98"/>
</a>
</g>
</g>
<!-- Node9 -->
<g id="Node000009" class="node">
<title>Node9</title>
<g id="a_Node000009"><a xlink:href="../../df/d02/classUBoundingBoxCalculator.html#af2813a65238c05c9f421c93839766edb" target="_top" xlink:title=" ">
<polygon fill="white" stroke="#666666" points="503.25,-32 379.25,-32 379.25,0 503.25,0 503.25,-32"/>
<text text-anchor="start" x="387.25" y="-18.5" font-family="Helvetica,sans-Serif" font-size="10.00">UBoundingBoxCalculator</text>
<text text-anchor="middle" x="441.25" y="-6.5" font-family="Helvetica,sans-Serif" font-size="10.00">::CombineBBsOfActor</text>
</a>
</g>
</g>
<!-- Node8&#45;&gt;Node9 -->
<g id="edge8_Node000008_Node000009" class="edge">
<title>Node8&#45;&gt;Node9</title>
<g id="a_edge8_Node000008_Node000009"><a xlink:title=" ">
<path fill="none" stroke="#63b8ff" d="M307.68,-16C327.29,-16 348.62,-16 368.32,-16"/>
<polygon fill="#63b8ff" stroke="#63b8ff" points="368.08,-19.5 378.08,-16 368.08,-12.5 368.08,-19.5"/>
</a>
</g>
</g>
<!-- Node9&#45;&gt;Node3 -->
<g id="edge11_Node000009_Node000003" class="edge">
<title>Node9&#45;&gt;Node3</title>
<g id="a_edge11_Node000009_Node000003"><a xlink:title=" ">
<path fill="none" stroke="#63b8ff" d="M485.95,-32.5C520.5,-45.53 568.88,-63.79 605.78,-77.72"/>
<polygon fill="#63b8ff" stroke="#63b8ff" points="604.28,-81.27 614.87,-81.53 606.75,-74.73 604.28,-81.27"/>
</a>
</g>
</g>
<!-- Node10 -->
<g id="Node000010" class="node">
<title>Node10</title>
<g id="a_Node000010"><a xlink:href="../../df/d02/classUBoundingBoxCalculator.html#adc638d4ad146b80666f002e31fb67dca" target="_top" xlink:title=" ">
<polygon fill="white" stroke="#666666" points="722.5,-32 598.5,-32 598.5,0 722.5,0 722.5,-32"/>
<text text-anchor="start" x="606.5" y="-18.5" font-family="Helvetica,sans-Serif" font-size="10.00">UBoundingBoxCalculator</text>
<text text-anchor="middle" x="660.5" y="-6.5" font-family="Helvetica,sans-Serif" font-size="10.00">::CombineBBs</text>
</a>
</g>
</g>
<!-- Node9&#45;&gt;Node10 -->
<g id="edge9_Node000009_Node000010" class="edge">
<title>Node9&#45;&gt;Node10</title>
<g id="a_edge9_Node000009_Node000010"><a xlink:title=" ">
<path fill="none" stroke="#63b8ff" d="M503.63,-16C529.66,-16 560.18,-16 587.28,-16"/>
<polygon fill="#63b8ff" stroke="#63b8ff" points="587.27,-19.5 597.27,-16 587.27,-12.5 587.27,-19.5"/>
</a>
</g>
</g>
<!-- Node11 -->
<g id="Node000011" class="node">
<title>Node11</title>
<g id="a_Node000011"><a xlink:href="../../dd/dd8/BoundingBoxCalculator_8cpp.html#add48caf167e197fab6a9c2228ad1c024" target="_top" xlink:title=" ">
<polygon fill="white" stroke="#666666" points="950,-26 793.75,-26 793.75,-6 950,-6 950,-26"/>
<text text-anchor="middle" x="871.88" y="-12.5" font-family="Helvetica,sans-Serif" font-size="10.00">CombineBoundingBoxesGeneric</text>
</a>
</g>
</g>
<!-- Node10&#45;&gt;Node11 -->
<g id="edge10_Node000010_Node000011" class="edge">
<title>Node10&#45;&gt;Node11</title>
<g id="a_edge10_Node000010_Node000011"><a xlink:title=" ">
<path fill="none" stroke="#63b8ff" d="M722.9,-16C741.62,-16 762.58,-16 782.7,-16"/>
<polygon fill="#63b8ff" stroke="#63b8ff" points="782.45,-19.5 792.45,-16 782.45,-12.5 782.45,-19.5"/>
</a>
</g>
</g>
</g>
</svg>

<g id="navigator" transform="translate(0 0)" fill="#404254">
  <rect fill="#f2f5e9" fill-opacity="0.5" stroke="#606060" stroke-width=".5" x="0" y="0" width="60" height="60"/>
  <use id="zoomplus" xlink:href="#zoomPlus" x="17" y="9" onmousedown="handleZoom(evt,'in')"/>
  <use id="zoomminus" xlink:href="#zoomMin" x="42" y="9" onmousedown="handleZoom(evt,'out')"/>
  <use id="reset" xlink:href="#resetDef" x="30" y="36" onmousedown="handleReset()"/>
   <use id="arrowup" xlink:href="#arrowUp" x="0" y="0" onmousedown="handlePan(0,-1)"/>
  <use id="arrowright" xlink:href="#arrowRight" x="0" y="0" onmousedown="handlePan(1,0)"/>
  <use id="arrowdown" xlink:href="#arrowDown" x="0" y="0" onmousedown="handlePan(0,1)"/>
  <use id="arrowleft" xlink:href="#arrowLeft" x="0" y="0" onmousedown="handlePan(-1,0)"/>
</g>
<svg viewBox="0 0 15 15" width="100%" height="30px" preserveAspectRatio="xMaxYMin meet">
 <g id="arrow_out" transform="scale(0.3 0.3)">
  <a xlink:href="classUObjectRegister_a8bc743b6be0375b789d1a04b3555d961_cgraph_org.svg" target="_base">
   <rect id="button" ry="5" rx="5" y="6" x="6" height="38" width="38"
        fill="#f2f5e9" fill-opacity="0.5" stroke="#606060" stroke-width="1.0"/>
   <path id="arrow"
     d="M 11.500037,31.436501 C 11.940474,20.09759 22.043105,11.32322 32.158766,21.979434 L 37.068811,17.246167 C 37.068811,17.246167 37.088388,32 37.088388,32 L 22.160133,31.978069 C 22.160133,31.978069 26.997745,27.140456 26.997745,27.140456 C 18.528582,18.264221 13.291696,25.230495 11.500037,31.436501 z"
     style="fill:#404040;"/>
  </a>
 </g>
</svg>

<style type='text/css'>
<![CDATA[
[data-mouse-over-selected='false'] { opacity: 0.7; }
[data-mouse-over-selected='true']  { opacity: 1.0; }
]]>
</style>
<script type="application/ecmascript"><![CDATA[
document.addEventListener('DOMContentLoaded', (event) => {
  highlightEdges();
  highlightAdjacentNodes();
});
]]></script>
</svg>
