<?xml version="1.0" encoding="UTF-8" standalone="no"?>
<!DOCTYPE svg PUBLIC "-//W3C//DTD SVG 1.1//EN"
 "http://www.w3.org/Graphics/SVG/1.1/DTD/svg11.dtd">
<!-- Generated by graphviz version 8.1.0 (20230707.0739)
 -->
<!-- Title: carla::client::DebugHelper::DrawLine Pages: 1 -->
<svg width="457pt" height="104pt"
 viewBox="0.00 0.00 457.25 104.00" xmlns="http://www.w3.org/2000/svg" xmlns:xlink="http://www.w3.org/1999/xlink">
<g id="graph0" class="graph" transform="scale(1 1) rotate(0) translate(4 100)">
<title>carla::client::DebugHelper::DrawLine</title>
<!-- Node1 -->
<g id="Node000001" class="node">
<title>Node1</title>
<g id="a_Node000001"><a xlink:title=" ">
<polygon fill="#999999" stroke="#666666" points="127.75,-64 0,-64 0,-32 127.75,-32 127.75,-64"/>
<text text-anchor="start" x="8" y="-50.5" font-family="Helvetica,sans-Serif" font-size="10.00">carla::client::DebugHelper</text>
<text text-anchor="middle" x="63.88" y="-38.5" font-family="Helvetica,sans-Serif" font-size="10.00">::DrawLine</text>
</a>
</g>
</g>
<!-- Node2 -->
<g id="Node000002" class="node">
<title>Node2</title>
<g id="a_Node000002"><a xlink:href="../../da/de4/ActorRegistry_8h.html#a8adba6c42fed3c86324a62968648d6a0" target="_top" xlink:title="名称范围迭代支持">
<polygon fill="white" stroke="#666666" points="244.25,-96 205,-96 205,-76 244.25,-76 244.25,-96"/>
<text text-anchor="middle" x="224.62" y="-82.5" font-family="Helvetica,sans-Serif" font-size="10.00">begin</text>
</a>
</g>
</g>
<!-- Node1&#45;&gt;Node2 -->
<g id="edge1_Node000001_Node000002" class="edge">
<title>Node1&#45;&gt;Node2</title>
<g id="a_edge1_Node000001_Node000002"><a xlink:title=" ">
<path fill="none" stroke="#63b8ff" d="M128.07,-63.13C150.84,-68.58 175.47,-74.47 194.02,-78.91"/>
<polygon fill="#63b8ff" stroke="#63b8ff" points="193.17,-82.55 203.71,-81.47 194.8,-75.74 193.17,-82.55"/>
</a>
</g>
</g>
<!-- Node3 -->
<g id="Node000003" class="node">
<title>Node3</title>
<g id="a_Node000003"><a xlink:href="../../d2/daf/namespacecarla_1_1client.html#ad6a9ef8264bd149ac81f419941ed3ffe" target="_top" xlink:title=" ">
<polygon fill="white" stroke="#666666" points="285.5,-58 163.75,-58 163.75,-38 285.5,-38 285.5,-58"/>
<text text-anchor="middle" x="224.62" y="-44.5" font-family="Helvetica,sans-Serif" font-size="10.00">carla::client::DrawShape</text>
</a>
</g>
</g>
<!-- Node1&#45;&gt;Node3 -->
<g id="edge2_Node000001_Node000003" class="edge">
<title>Node1&#45;&gt;Node3</title>
<g id="a_edge2_Node000001_Node000003"><a xlink:title=" ">
<path fill="none" stroke="#63b8ff" d="M128.07,-48C136.1,-48 144.35,-48 152.49,-48"/>
<polygon fill="#63b8ff" stroke="#63b8ff" points="152.49,-51.5 162.49,-48 152.49,-44.5 152.49,-51.5"/>
</a>
</g>
</g>
<!-- Node5 -->
<g id="Node000005" class="node">
<title>Node5</title>
<g id="a_Node000005"><a xlink:href="../../da/de4/ActorRegistry_8h.html#a10fc66af197e25cb554f58a721a473a3" target="_top" xlink:title=" ">
<polygon fill="white" stroke="#666666" points="240.5,-20 208.75,-20 208.75,0 240.5,0 240.5,-20"/>
<text text-anchor="middle" x="224.62" y="-6.5" font-family="Helvetica,sans-Serif" font-size="10.00">end</text>
</a>
</g>
</g>
<!-- Node1&#45;&gt;Node5 -->
<g id="edge4_Node000001_Node000005" class="edge">
<title>Node1&#45;&gt;Node5</title>
<g id="a_edge4_Node000001_Node000005"><a xlink:title=" ">
<path fill="none" stroke="#63b8ff" d="M128.07,-32.87C152.42,-27.04 178.88,-20.71 197.78,-16.19"/>
<polygon fill="#63b8ff" stroke="#63b8ff" points="198.56,-19.36 207.47,-13.63 196.93,-12.55 198.56,-19.36"/>
</a>
</g>
</g>
<!-- Node4 -->
<g id="Node000004" class="node">
<title>Node4</title>
<g id="a_Node000004"><a xlink:href="../../d1/dd3/classcarla_1_1client_1_1detail_1_1EpisodeProxyImpl.html#aaca857645fbeb6546b4a03a663bb65af" target="_top" xlink:title="与 TryLock 相同，但永远不会返回 nullptr。">
<polygon fill="white" stroke="#666666" points="449.25,-64 321.5,-64 321.5,-32 449.25,-32 449.25,-64"/>
<text text-anchor="start" x="329.5" y="-50.5" font-family="Helvetica,sans-Serif" font-size="10.00">carla::client::detail</text>
<text text-anchor="middle" x="385.38" y="-38.5" font-family="Helvetica,sans-Serif" font-size="10.00">::EpisodeProxyImpl::Lock</text>
</a>
</g>
</g>
<!-- Node3&#45;&gt;Node4 -->
<g id="edge3_Node000003_Node000004" class="edge">
<title>Node3&#45;&gt;Node4</title>
<g id="a_edge3_Node000003_Node000004"><a xlink:title=" ">
<path fill="none" stroke="#63b8ff" d="M285.64,-48C293.7,-48 302.04,-48 310.31,-48"/>
<polygon fill="#63b8ff" stroke="#63b8ff" points="310.1,-51.5 320.1,-48 310.1,-44.5 310.1,-51.5"/>
</a>
</g>
</g>
</g>
</svg>
