<?xml version="1.0" encoding="UTF-8" standalone="no"?>
<!DOCTYPE svg PUBLIC "-//W3C//DTD SVG 1.1//EN"
 "http://www.w3.org/Graphics/SVG/1.1/DTD/svg11.dtd">
<!-- Generated by graphviz version 8.1.0 (20230707.0739)
 -->
<!-- Title: Vehicle Pages: 1 -->
<!--zoomable 200 -->

<svg id="main" version="1.1" xmlns="http://www.w3.org/2000/svg" xmlns:xlink="http://www.w3.org/1999/xlink" xml:space="preserve" onload="init(evt)">
<style type="text/css"><![CDATA[
.node, .edge {opacity: 0.7;}
.node.selected, .edge.selected {opacity: 1;}
.edge:hover path { stroke: red; }
.edge:hover polygon { stroke: red; fill: red; }
]]></style>

<defs>
  <circle id="rim" cx="0" cy="0" r="7"/>
  <circle id="rim2" cx="0" cy="0" r="3.5"/>
  <g id="zoomPlus">
    <use xlink:href="#rim" fill="#404040"><set attributeName="fill" to="#808080" begin="zoomplus.mouseover" end="zoomplus.mouseout"/></use>
    <path d="M-4,0h8M0,-4v8" fill="none" stroke="white" stroke-width="1.5" pointer-events="none"/>
  </g>
  <g id="zoomMin">
    <use xlink:href="#rim" fill="#404040"><set attributeName="fill" to="#808080" begin="zoomminus.mouseover" end="zoomminus.mouseout"/></use>
    <path d="M-4,0h8" fill="none" stroke="white" stroke-width="1.5" pointer-events="none"/>
  </g>
  <g id="arrowUp" transform="translate(30 24)">
    <use xlink:href="#rim"/>
    <path pointer-events="none" fill="none" stroke="white" stroke-width="1.5" d="M0,-3.0v7 M-2.5,-0.5L0,-3.0L2.5,-0.5"/>
  </g>
  <g id="arrowRight" transform="rotate(90) translate(36 -43)">
    <use xlink:href="#rim"/>
    <path pointer-events="none" fill="none" stroke="white" stroke-width="1.5" d="M0,-3.0v7 M-2.5,-0.5L0,-3.0L2.5,-0.5"/>
  </g>
  <g id="arrowDown" transform="rotate(180) translate(-30 -48)">
    <use xlink:href="#rim"/>
    <path pointer-events="none" fill="none" stroke="white" stroke-width="1.5" d="M0,-3.0v7 M-2.5,-0.5L0,-3.0L2.5,-0.5"/>
  </g>
  <g id="arrowLeft" transform="rotate(270) translate(-36 17)">
    <use xlink:href="#rim"/>
    <path pointer-events="none" fill="none" stroke="white" stroke-width="1.5" d="M0,-3.0v7 M-2.5,-0.5L0,-3.0L2.5,-0.5"/>
  </g>
  <g id="resetDef">
    <use xlink:href="#rim2" fill="#404040"><set attributeName="fill" to="#808080" begin="reset.mouseover" end="reset.mouseout"/></use>
  </g>
</defs>
<script type="application/ecmascript">
var viewWidth = 634;
var viewHeight = 200;
var sectionId = 'dynsection-0';
</script>
<script type="application/ecmascript" xlink:href="svg.min.js"/>
<svg id="graph" class="graph">
<g id="viewport">
<title>Vehicle</title>
<g id="clust1" class="cluster">
<title>clusterdir_8fc34afb5f07a67966c78bf5319f94ae</title>
<g id="a_clust1"><a xlink:href="dir_8fc34afb5f07a67966c78bf5319f94ae.html" target="_top" xlink:title="Carla">
<polygon fill="#edf0f7" stroke="#7f7f7f" stroke-dasharray="5,2" points="8,-8 8,-184 566,-184 566,-8 8,-8"/>
<text text-anchor="middle" x="287" y="-170.5" font-family="Helvetica,sans-Serif" font-size="10.00">Carla</text>
</a>
</g>
</g>
<g id="clust2" class="cluster">
<title>clusterdir_4d620431c9b0dc62fca23e1ed91a49b6</title>
<g id="a_clust2"><a xlink:href="dir_4d620431c9b0dc62fca23e1ed91a49b6.html" target="_top">
<polygon fill="#edf0f7" stroke="#404040" stroke-width="2" points="319,-64 319,-156 451,-156 451,-64 319,-64"/>
</a>
</g>
</g>
<!-- dir_31691989b6ffa820edb06b9eb32cc520 -->
<g id="node1" class="node">
<title>dir_31691989b6ffa820edb06b9eb32cc520</title>
<g id="a_node1"><a xlink:href="dir_31691989b6ffa820edb06b9eb32cc520.html" target="_top" xlink:title="Actor">
<polygon fill="#a2b4d6" stroke="#404040" points="309.62,-92 270.38,-92 270.38,-72 309.62,-72 309.62,-92"/>
<text text-anchor="middle" x="290" y="-78.5" font-family="Helvetica,sans-Serif" font-size="10.00">Actor</text>
</a>
</g>
</g>
<!-- dir_3e9aec868781f29a05b56aecc37cd1a9 -->
<g id="node2" class="node">
<title>dir_3e9aec868781f29a05b56aecc37cd1a9</title>
<g id="a_node2"><a xlink:href="dir_3e9aec868781f29a05b56aecc37cd1a9.html" target="_top" xlink:title="MapGen">
<polygon fill="#a2b4d6" stroke="#404040" points="68.38,-92 15.62,-92 15.62,-72 68.38,-72 68.38,-92"/>
<text text-anchor="middle" x="42" y="-78.5" font-family="Helvetica,sans-Serif" font-size="10.00">MapGen</text>
</a>
</g>
</g>
<!-- dir_6c62abedd72e3007bc03a7fda3037637 -->
<g id="node3" class="node">
<title>dir_6c62abedd72e3007bc03a7fda3037637</title>
<g id="a_node3"><a xlink:href="dir_6c62abedd72e3007bc03a7fda3037637.html" target="_top" xlink:title="Trigger">
<polygon fill="#a2b4d6" stroke="#404040" points="131.62,-92 86.38,-92 86.38,-72 131.62,-72 131.62,-92"/>
<text text-anchor="middle" x="109" y="-78.5" font-family="Helvetica,sans-Serif" font-size="10.00">Trigger</text>
</a>
</g>
</g>
<!-- dir_a3491c9b10b5a3d0703facb105cd4941 -->
<g id="node4" class="node">
<title>dir_a3491c9b10b5a3d0703facb105cd4941</title>
<g id="a_node4"><a xlink:href="dir_a3491c9b10b5a3d0703facb105cd4941.html" target="_top" xlink:title="Vegetation">
<polygon fill="#a2b4d6" stroke="#404040" points="212.25,-92 149.75,-92 149.75,-72 212.25,-72 212.25,-92"/>
<text text-anchor="middle" x="181" y="-78.5" font-family="Helvetica,sans-Serif" font-size="10.00">Vegetation</text>
</a>
</g>
</g>
<!-- dir_b708e75f0564cefaa95a07ef1c60fa1d -->
<g id="node5" class="node">
<title>dir_b708e75f0564cefaa95a07ef1c60fa1d</title>
<g id="a_node5"><a xlink:href="dir_b708e75f0564cefaa95a07ef1c60fa1d.html" target="_top" xlink:title="Game">
<polygon fill="#a2b4d6" stroke="#404040" points="381.12,-36 338.88,-36 338.88,-16 381.12,-16 381.12,-36"/>
<text text-anchor="middle" x="360" y="-22.5" font-family="Helvetica,sans-Serif" font-size="10.00">Game</text>
</a>
</g>
</g>
<!-- dir_c0211e659583c36c301432102f960843 -->
<g id="node6" class="node">
<title>dir_c0211e659583c36c301432102f960843</title>
<g id="a_node6"><a xlink:href="dir_c0211e659583c36c301432102f960843.html" target="_top" xlink:title="Util">
<polygon fill="#a2b4d6" stroke="#404040" points="271.12,-36 240.88,-36 240.88,-16 271.12,-16 271.12,-36"/>
<text text-anchor="middle" x="256" y="-22.5" font-family="Helvetica,sans-Serif" font-size="10.00">Util</text>
</a>
</g>
</g>
<!-- dir_cf78ae8ffd0f6192e117b8a1751c2bbd -->
<g id="node7" class="node">
<title>dir_cf78ae8ffd0f6192e117b8a1751c2bbd</title>
<g id="a_node7"><a xlink:href="dir_cf78ae8ffd0f6192e117b8a1751c2bbd.html" target="_top" xlink:title="Traffic">
<polygon fill="#a2b4d6" stroke="#404040" points="501.75,-92 460.25,-92 460.25,-72 501.75,-72 501.75,-92"/>
<text text-anchor="middle" x="481" y="-78.5" font-family="Helvetica,sans-Serif" font-size="10.00">Traffic</text>
</a>
</g>
</g>
<!-- dir_f9cdfd101429e27d647f8df664b6ebd1 -->
<g id="node8" class="node">
<title>dir_f9cdfd101429e27d647f8df664b6ebd1</title>
<g id="a_node8"><a xlink:href="dir_f9cdfd101429e27d647f8df664b6ebd1.html" target="_top" xlink:title="Math">
<polygon fill="#a2b4d6" stroke="#404040" points="557.88,-92 520.12,-92 520.12,-72 557.88,-72 557.88,-92"/>
<text text-anchor="middle" x="539" y="-78.5" font-family="Helvetica,sans-Serif" font-size="10.00">Math</text>
</a>
</g>
</g>
<!-- dir_4d620431c9b0dc62fca23e1ed91a49b6 -->
<g id="node9" class="node">
<title>dir_4d620431c9b0dc62fca23e1ed91a49b6</title>
<text text-anchor="middle" x="351" y="-134.5" font-family="Helvetica,sans-Serif" font-size="10.00">Vehicle</text>
</g>
<!-- dir_4d620431c9b0dc62fca23e1ed91a49b6&#45;&gt;dir_31691989b6ffa820edb06b9eb32cc520 -->
<g id="edge3" class="edge">
<title>dir_4d620431c9b0dc62fca23e1ed91a49b6&#45;&gt;dir_31691989b6ffa820edb06b9eb32cc520</title>
<g id="a_edge3"><a xlink:href="dir_000071_000000.html" target="_top">
<path fill="none" stroke="#63b8ff" d="M340.93,-128.08C332.26,-120.41 319.51,-109.12 308.94,-99.76"/>
<polygon fill="#63b8ff" stroke="#63b8ff" points="311.51,-97.48 301.7,-93.48 306.87,-102.72 311.51,-97.48"/>
</a>
</g>
<g id="a_edge3&#45;headlabel"><a xlink:href="dir_000071_000000.html" target="_top" xlink:title="1">
<text text-anchor="middle" x="315.08" y="-93.24" font-family="Helvetica,sans-Serif" font-size="10.00" fill="#63b8ff">1</text>
</a>
</g>
</g>
<!-- dir_4d620431c9b0dc62fca23e1ed91a49b6&#45;&gt;dir_3e9aec868781f29a05b56aecc37cd1a9 -->
<g id="edge4" class="edge">
<title>dir_4d620431c9b0dc62fca23e1ed91a49b6&#45;&gt;dir_3e9aec868781f29a05b56aecc37cd1a9</title>
<g id="a_edge4"><a xlink:href="dir_000071_000024.html" target="_top">
<path fill="none" stroke="#63b8ff" d="M327.04,-133.8C280.93,-127.48 176.45,-112.4 79.28,-92.34"/>
<polygon fill="#63b8ff" stroke="#63b8ff" points="80.2,-88.74 69.7,-90.13 78.77,-95.6 80.2,-88.74"/>
</a>
</g>
<g id="a_edge4&#45;headlabel"><a xlink:href="dir_000071_000024.html" target="_top" xlink:title="4">
<text text-anchor="middle" x="83.3" y="-83.2" font-family="Helvetica,sans-Serif" font-size="10.00" fill="#63b8ff">4</text>
</a>
</g>
</g>
<!-- dir_4d620431c9b0dc62fca23e1ed91a49b6&#45;&gt;dir_6c62abedd72e3007bc03a7fda3037637 -->
<g id="edge5" class="edge">
<title>dir_4d620431c9b0dc62fca23e1ed91a49b6&#45;&gt;dir_6c62abedd72e3007bc03a7fda3037637</title>
<g id="a_edge5"><a xlink:href="dir_000071_000064.html" target="_top">
<path fill="none" stroke="#63b8ff" d="M326.95,-132.36C289.57,-125.04 215.05,-110 142.28,-92.19"/>
<polygon fill="#63b8ff" stroke="#63b8ff" points="143.57,-88.66 133.03,-89.66 141.9,-95.46 143.57,-88.66"/>
</a>
</g>
<g id="a_edge5&#45;headlabel"><a xlink:href="dir_000071_000064.html" target="_top" xlink:title="1">
<text text-anchor="middle" x="146.74" y="-83.27" font-family="Helvetica,sans-Serif" font-size="10.00" fill="#63b8ff">1</text>
</a>
</g>
</g>
<!-- dir_4d620431c9b0dc62fca23e1ed91a49b6&#45;&gt;dir_a3491c9b10b5a3d0703facb105cd4941 -->
<g id="edge6" class="edge">
<title>dir_4d620431c9b0dc62fca23e1ed91a49b6&#45;&gt;dir_a3491c9b10b5a3d0703facb105cd4941</title>
<g id="a_edge6"><a xlink:href="dir_000071_000070.html" target="_top">
<path fill="none" stroke="#63b8ff" d="M327,-129.38C299.5,-120.64 253.99,-106.19 221.09,-95.73"/>
<polygon fill="#63b8ff" stroke="#63b8ff" points="222.47,-92.18 211.88,-92.49 220.35,-98.86 222.47,-92.18"/>
</a>
</g>
<g id="a_edge6&#45;headlabel"><a xlink:href="dir_000071_000070.html" target="_top" xlink:title="1">
<text text-anchor="middle" x="225.76" y="-87.07" font-family="Helvetica,sans-Serif" font-size="10.00" fill="#63b8ff">1</text>
</a>
</g>
</g>
<!-- dir_4d620431c9b0dc62fca23e1ed91a49b6&#45;&gt;dir_b708e75f0564cefaa95a07ef1c60fa1d -->
<g id="edge7" class="edge">
<title>dir_4d620431c9b0dc62fca23e1ed91a49b6&#45;&gt;dir_b708e75f0564cefaa95a07ef1c60fa1d</title>
<g id="a_edge7"><a xlink:href="dir_000071_000017.html" target="_top">
<path fill="none" stroke="#63b8ff" d="M327.09,-132.38C305.61,-126.82 275.33,-115.18 261,-92 254.46,-81.41 253.91,-74.22 261,-64 276.01,-42.36 305.31,-33.36 328.15,-29.62"/>
<polygon fill="#63b8ff" stroke="#63b8ff" points="328.32,-32.99 337.76,-28.18 327.38,-26.06 328.32,-32.99"/>
</a>
</g>
<g id="a_edge7&#45;headlabel"><a xlink:href="dir_000071_000017.html" target="_top" xlink:title="4">
<text text-anchor="middle" x="326.14" y="-32.79" font-family="Helvetica,sans-Serif" font-size="10.00" fill="#63b8ff">4</text>
</a>
</g>
</g>
<!-- dir_4d620431c9b0dc62fca23e1ed91a49b6&#45;&gt;dir_c0211e659583c36c301432102f960843 -->
<g id="edge8" class="edge">
<title>dir_4d620431c9b0dc62fca23e1ed91a49b6&#45;&gt;dir_c0211e659583c36c301432102f960843</title>
<g id="a_edge8"><a xlink:href="dir_000071_000068.html" target="_top">
<path fill="none" stroke="#63b8ff" d="M327.02,-133.57C303.37,-128.77 268.46,-117.56 252,-92 243.39,-78.63 245.45,-60.34 249.05,-46.56"/>
<polygon fill="#63b8ff" stroke="#63b8ff" points="252.62,-47.85 252.24,-37.26 245.94,-45.78 252.62,-47.85"/>
</a>
</g>
<g id="a_edge8&#45;headlabel"><a xlink:href="dir_000071_000068.html" target="_top" xlink:title="6">
<text text-anchor="middle" x="254.27" y="-47.62" font-family="Helvetica,sans-Serif" font-size="10.00" fill="#63b8ff">6</text>
</a>
</g>
</g>
<!-- dir_4d620431c9b0dc62fca23e1ed91a49b6&#45;&gt;dir_cf78ae8ffd0f6192e117b8a1751c2bbd -->
<g id="edge9" class="edge">
<title>dir_4d620431c9b0dc62fca23e1ed91a49b6&#45;&gt;dir_cf78ae8ffd0f6192e117b8a1751c2bbd</title>
<g id="a_edge9"><a xlink:href="dir_000071_000062.html" target="_top">
<path fill="none" stroke="#63b8ff" d="M372.47,-128.08C393.57,-119.32 426.02,-105.84 449.94,-95.9"/>
<polygon fill="#63b8ff" stroke="#63b8ff" points="451.04,-98.82 458.93,-91.75 448.35,-92.35 451.04,-98.82"/>
</a>
</g>
<g id="a_edge9&#45;headlabel"><a xlink:href="dir_000071_000062.html" target="_top" xlink:title="2">
<text text-anchor="middle" x="449.81" y="-99.32" font-family="Helvetica,sans-Serif" font-size="10.00" fill="#63b8ff">2</text>
</a>
</g>
</g>
<!-- dir_4d620431c9b0dc62fca23e1ed91a49b6&#45;&gt;dir_f9cdfd101429e27d647f8df664b6ebd1 -->
<g id="edge10" class="edge">
<title>dir_4d620431c9b0dc62fca23e1ed91a49b6&#45;&gt;dir_f9cdfd101429e27d647f8df664b6ebd1</title>
<g id="a_edge10"><a xlink:href="dir_000071_000026.html" target="_top">
<path fill="none" stroke="#63b8ff" d="M374.93,-130.56C404.39,-122.58 456.16,-108.34 509.44,-92.39"/>
<polygon fill="#63b8ff" stroke="#63b8ff" points="510.18,-95.52 518.75,-89.29 508.17,-88.82 510.18,-95.52"/>
</a>
</g>
<g id="a_edge10&#45;headlabel"><a xlink:href="dir_000071_000026.html" target="_top" xlink:title="1">
<text text-anchor="middle" x="508.56" y="-95.78" font-family="Helvetica,sans-Serif" font-size="10.00" fill="#63b8ff">1</text>
</a>
</g>
</g>
<!-- dir_1f4d1c8a3b0fb9d1db5bfc66e3731bc7 -->
<g id="node10" class="node">
<title>dir_1f4d1c8a3b0fb9d1db5bfc66e3731bc7</title>
<g id="a_node10"><a xlink:href="dir_1f4d1c8a3b0fb9d1db5bfc66e3731bc7.html" target="_top" xlink:title="MovementComponents">
<polygon fill="#a2b4d6" stroke="#404040" points="442.5,-92 327.5,-92 327.5,-72 442.5,-72 442.5,-92"/>
<text text-anchor="middle" x="385" y="-78.5" font-family="Helvetica,sans-Serif" font-size="10.00">MovementComponents</text>
</a>
</g>
</g>
<!-- dir_4d620431c9b0dc62fca23e1ed91a49b6&#45;&gt;dir_1f4d1c8a3b0fb9d1db5bfc66e3731bc7 -->
<g id="edge2" class="edge">
<title>dir_4d620431c9b0dc62fca23e1ed91a49b6&#45;&gt;dir_1f4d1c8a3b0fb9d1db5bfc66e3731bc7</title>
<g id="a_edge2"><a xlink:href="dir_000071_000028.html" target="_top">
<path fill="none" stroke="#63b8ff" d="M356.61,-128.08C361.11,-120.94 367.57,-110.68 373.19,-101.75"/>
<polygon fill="#63b8ff" stroke="#63b8ff" points="376.67,-103.8 379.03,-93.48 370.74,-100.07 376.67,-103.8"/>
</a>
</g>
<g id="a_edge2&#45;headlabel"><a xlink:href="dir_000071_000028.html" target="_top" xlink:title="2">
<text text-anchor="middle" x="377.15" y="-103.86" font-family="Helvetica,sans-Serif" font-size="10.00" fill="#63b8ff">2</text>
</a>
</g>
</g>
<!-- dir_1604d568fa4d964dfa9079b701bbfa07 -->
<g id="node11" class="node">
<title>dir_1604d568fa4d964dfa9079b701bbfa07</title>
<g id="a_node11"><a xlink:href="dir_1604d568fa4d964dfa9079b701bbfa07.html" target="_top" xlink:title="LibCarla">
<polygon fill="#edf0f7" stroke="red" points="625.62,-36 574.38,-36 574.38,-16 625.62,-16 625.62,-36"/>
<text text-anchor="middle" x="600" y="-22.5" font-family="Helvetica,sans-Serif" font-size="10.00">LibCarla</text>
</a>
</g>
</g>
<!-- dir_4d620431c9b0dc62fca23e1ed91a49b6&#45;&gt;dir_1604d568fa4d964dfa9079b701bbfa07 -->
<g id="edge1" class="edge">
<title>dir_4d620431c9b0dc62fca23e1ed91a49b6&#45;&gt;dir_1604d568fa4d964dfa9079b701bbfa07</title>
<g id="a_edge1"><a xlink:href="dir_000071_000020.html" target="_top">
<path fill="none" stroke="#63b8ff" d="M374.99,-134.79C425.35,-129.74 539.89,-115.88 570,-92 584.14,-80.79 591.89,-61.39 595.95,-46.69"/>
<polygon fill="#63b8ff" stroke="#63b8ff" points="599.55,-47.7 598.47,-37.16 592.74,-46.07 599.55,-47.7"/>
</a>
</g>
<g id="a_edge1&#45;headlabel"><a xlink:href="dir_000071_000020.html" target="_top" xlink:title="10">
<text text-anchor="middle" x="601.47" y="-47.36" font-family="Helvetica,sans-Serif" font-size="10.00" fill="#63b8ff">10</text>
</a>
</g>
</g>
<!-- dir_1f4d1c8a3b0fb9d1db5bfc66e3731bc7&#45;&gt;dir_b708e75f0564cefaa95a07ef1c60fa1d -->
<g id="edge12" class="edge">
<title>dir_1f4d1c8a3b0fb9d1db5bfc66e3731bc7&#45;&gt;dir_b708e75f0564cefaa95a07ef1c60fa1d</title>
<g id="a_edge12"><a xlink:href="dir_000028_000017.html" target="_top">
<path fill="none" stroke="#63b8ff" d="M380.65,-71.59C377.38,-64.55 372.81,-54.67 368.8,-46"/>
<polygon fill="#63b8ff" stroke="#63b8ff" points="371.68,-44.9 364.3,-37.3 365.33,-47.84 371.68,-44.9"/>
</a>
</g>
<g id="a_edge12&#45;headlabel"><a xlink:href="dir_000028_000017.html" target="_top" xlink:title="1">
<text text-anchor="middle" x="375.77" y="-42.47" font-family="Helvetica,sans-Serif" font-size="10.00" fill="#63b8ff">1</text>
</a>
</g>
</g>
<!-- dir_1f4d1c8a3b0fb9d1db5bfc66e3731bc7&#45;&gt;dir_c0211e659583c36c301432102f960843 -->
<g id="edge13" class="edge">
<title>dir_1f4d1c8a3b0fb9d1db5bfc66e3731bc7&#45;&gt;dir_c0211e659583c36c301432102f960843</title>
<g id="a_edge13"><a xlink:href="dir_000028_000068.html" target="_top">
<path fill="none" stroke="#63b8ff" d="M362.53,-71.59C339.87,-62.11 304.95,-47.49 281.32,-37.6"/>
<polygon fill="#63b8ff" stroke="#63b8ff" points="282.92,-34.06 272.34,-33.42 280.22,-40.51 282.92,-34.06"/>
</a>
</g>
<g id="a_edge13&#45;headlabel"><a xlink:href="dir_000028_000068.html" target="_top" xlink:title="2">
<text text-anchor="middle" x="286.33" y="-29.33" font-family="Helvetica,sans-Serif" font-size="10.00" fill="#63b8ff">2</text>
</a>
</g>
</g>
<!-- dir_1f4d1c8a3b0fb9d1db5bfc66e3731bc7&#45;&gt;dir_1604d568fa4d964dfa9079b701bbfa07 -->
<g id="edge11" class="edge">
<title>dir_1f4d1c8a3b0fb9d1db5bfc66e3731bc7&#45;&gt;dir_1604d568fa4d964dfa9079b701bbfa07</title>
<g id="a_edge11"><a xlink:href="dir_000028_000020.html" target="_top">
<path fill="none" stroke="#63b8ff" d="M417.84,-71.52C426.94,-68.99 436.83,-66.31 446,-64 497.36,-51.05 513.38,-50.38 563.65,-37.6"/>
<polygon fill="#63b8ff" stroke="#63b8ff" points="564.37,-40.77 573.18,-34.87 562.62,-33.99 564.37,-40.77"/>
</a>
</g>
<g id="a_edge11&#45;headlabel"><a xlink:href="dir_000028_000020.html" target="_top" xlink:title="6">
<text text-anchor="middle" x="562.6" y="-40.91" font-family="Helvetica,sans-Serif" font-size="10.00" fill="#63b8ff">6</text>
</a>
</g>
</g>
</g>
</svg>

<g id="navigator" transform="translate(0 0)" fill="#404254">
  <rect fill="#f2f5e9" fill-opacity="0.5" stroke="#606060" stroke-width=".5" x="0" y="0" width="60" height="60"/>
  <use id="zoomplus" xlink:href="#zoomPlus" x="17" y="9" onmousedown="handleZoom(evt,'in')"/>
  <use id="zoomminus" xlink:href="#zoomMin" x="42" y="9" onmousedown="handleZoom(evt,'out')"/>
  <use id="reset" xlink:href="#resetDef" x="30" y="36" onmousedown="handleReset()"/>
   <use id="arrowup" xlink:href="#arrowUp" x="0" y="0" onmousedown="handlePan(0,-1)"/>
  <use id="arrowright" xlink:href="#arrowRight" x="0" y="0" onmousedown="handlePan(1,0)"/>
  <use id="arrowdown" xlink:href="#arrowDown" x="0" y="0" onmousedown="handlePan(0,1)"/>
  <use id="arrowleft" xlink:href="#arrowLeft" x="0" y="0" onmousedown="handlePan(-1,0)"/>
</g>
<svg viewBox="0 0 15 15" width="100%" height="30px" preserveAspectRatio="xMaxYMin meet">
 <g id="arrow_out" transform="scale(0.3 0.3)">
  <a xlink:href="dir_4d620431c9b0dc62fca23e1ed91a49b6_dep_org.svg" target="_base">
   <rect id="button" ry="5" rx="5" y="6" x="6" height="38" width="38"
        fill="#f2f5e9" fill-opacity="0.5" stroke="#606060" stroke-width="1.0"/>
   <path id="arrow"
     d="M 11.500037,31.436501 C 11.940474,20.09759 22.043105,11.32322 32.158766,21.979434 L 37.068811,17.246167 C 37.068811,17.246167 37.088388,32 37.088388,32 L 22.160133,31.978069 C 22.160133,31.978069 26.997745,27.140456 26.997745,27.140456 C 18.528582,18.264221 13.291696,25.230495 11.500037,31.436501 z"
     style="fill:#404040;"/>
  </a>
 </g>
</svg>

<style type='text/css'>
<![CDATA[
[data-mouse-over-selected='false'] { opacity: 0.7; }
[data-mouse-over-selected='true']  { opacity: 1.0; }
]]>
</style>
<script type="application/ecmascript"><![CDATA[
document.addEventListener('DOMContentLoaded', (event) => {
  highlightEdges();
  highlightAdjacentNodes();
});
]]></script>
</svg>
