<?xml version="1.0" encoding="UTF-8" standalone="no"?>
<!DOCTYPE svg PUBLIC "-//W3C//DTD SVG 1.1//EN"
 "http://www.w3.org/Graphics/SVG/1.1/DTD/svg11.dtd">
<!-- Generated by graphviz version 8.1.0 (20230707.0739)
 -->
<!-- Title: 类继承关系图 Pages: 1 -->
<svg width="244pt" height="142pt"
 viewBox="0.00 0.00 244.00 142.00" xmlns="http://www.w3.org/2000/svg" xmlns:xlink="http://www.w3.org/1999/xlink">
<g id="graph0" class="graph" transform="scale(1 1) rotate(0) translate(4 138)">
<title>类继承关系图</title>
<!-- Node0 -->
<g id="Node000000" class="node">
<title>Node0</title>
<g id="a_Node000000"><a xlink:href="d6/d0c/classxpath__variable.html" target="_top" xlink:title=" ">
<polygon fill="white" stroke="#666666" points="77.5,-77 0,-77 0,-57 77.5,-57 77.5,-77"/>
<text text-anchor="middle" x="38.75" y="-63.5" font-family="Helvetica,sans-Serif" font-size="10.00">xpath_variable</text>
</a>
</g>
</g>
<!-- Node1 -->
<g id="Node000001" class="node">
<title>Node1</title>
<g id="a_Node000001"><a xlink:href="d0/d57/structxpath__variable__boolean.html" target="_top" xlink:title=" ">
<polygon fill="white" stroke="#666666" points="233,-134 116.5,-134 116.5,-114 233,-114 233,-134"/>
<text text-anchor="middle" x="174.75" y="-120.5" font-family="Helvetica,sans-Serif" font-size="10.00">xpath_variable_boolean</text>
</a>
</g>
</g>
<!-- Node0&#45;&gt;Node1 -->
<g id="edge376_Node000000_Node000001" class="edge">
<title>Node0&#45;&gt;Node1</title>
<g id="a_edge376_Node000000_Node000001"><a xlink:title=" ">
<path fill="none" stroke="#63b8ff" d="M67.14,-82.53C80.8,-89.91 97.75,-98.51 113.5,-105 121,-108.09 129.21,-110.98 137.07,-113.53"/>
<polygon fill="#63b8ff" stroke="#63b8ff" points="69.28,-79.16 58.83,-77.42 65.91,-85.3 69.28,-79.16"/>
</a>
</g>
</g>
<!-- Node2 -->
<g id="Node000002" class="node">
<title>Node2</title>
<g id="a_Node000002"><a xlink:href="db/dcb/structxpath__variable__node__set.html" target="_top" xlink:title=" ">
<polygon fill="white" stroke="#666666" points="236,-96 113.5,-96 113.5,-76 236,-76 236,-96"/>
<text text-anchor="middle" x="174.75" y="-82.5" font-family="Helvetica,sans-Serif" font-size="10.00">xpath_variable_node_set</text>
</a>
</g>
</g>
<!-- Node0&#45;&gt;Node2 -->
<g id="edge377_Node000000_Node000002" class="edge">
<title>Node0&#45;&gt;Node2</title>
<g id="a_edge377_Node000000_Node000002"><a xlink:title=" ">
<path fill="none" stroke="#63b8ff" d="M88.42,-73.9C96.42,-75.04 104.8,-76.22 113.05,-77.39"/>
<polygon fill="#63b8ff" stroke="#63b8ff" points="89.18,-70.33 78.79,-72.39 88.2,-77.26 89.18,-70.33"/>
</a>
</g>
</g>
<!-- Node3 -->
<g id="Node000003" class="node">
<title>Node3</title>
<g id="a_Node000003"><a xlink:href="df/db8/structxpath__variable__number.html" target="_top" xlink:title=" ">
<polygon fill="white" stroke="#666666" points="232.25,-58 117.25,-58 117.25,-38 232.25,-38 232.25,-58"/>
<text text-anchor="middle" x="174.75" y="-44.5" font-family="Helvetica,sans-Serif" font-size="10.00">xpath_variable_number</text>
</a>
</g>
</g>
<!-- Node0&#45;&gt;Node3 -->
<g id="edge378_Node000000_Node000003" class="edge">
<title>Node0&#45;&gt;Node3</title>
<g id="a_edge378_Node000000_Node000003"><a xlink:title=" ">
<path fill="none" stroke="#63b8ff" d="M88.67,-60.06C97.83,-58.77 107.47,-57.4 116.85,-56.07"/>
<polygon fill="#63b8ff" stroke="#63b8ff" points="88.2,-56.74 78.79,-61.61 89.18,-63.67 88.2,-56.74"/>
</a>
</g>
</g>
<!-- Node4 -->
<g id="Node000004" class="node">
<title>Node4</title>
<g id="a_Node000004"><a xlink:href="d1/dc9/structxpath__variable__string.html" target="_top" xlink:title=" ">
<polygon fill="white" stroke="#666666" points="228.12,-20 121.38,-20 121.38,0 228.12,0 228.12,-20"/>
<text text-anchor="middle" x="174.75" y="-6.5" font-family="Helvetica,sans-Serif" font-size="10.00">xpath_variable_string</text>
</a>
</g>
</g>
<!-- Node0&#45;&gt;Node4 -->
<g id="edge379_Node000000_Node000004" class="edge">
<title>Node0&#45;&gt;Node4</title>
<g id="a_edge379_Node000000_Node000004"><a xlink:title=" ">
<path fill="none" stroke="#63b8ff" d="M67.14,-51.47C80.8,-44.09 97.75,-35.49 113.5,-29 121,-25.91 129.21,-23.02 137.07,-20.47"/>
<polygon fill="#63b8ff" stroke="#63b8ff" points="65.91,-48.7 58.83,-56.58 69.28,-54.84 65.91,-48.7"/>
</a>
</g>
</g>
</g>
</svg>
