<?xml version="1.0" encoding="UTF-8" standalone="no"?>
<!DOCTYPE svg PUBLIC "-//W3C//DTD SVG 1.1//EN"
 "http://www.w3.org/Graphics/SVG/1.1/DTD/svg11.dtd">
<!-- Generated by graphviz version 8.1.0 (20230707.0739)
 -->
<!-- Title: 类继承关系图 Pages: 1 -->
<svg width="252pt" height="66pt"
 viewBox="0.00 0.00 251.50 66.00" xmlns="http://www.w3.org/2000/svg" xmlns:xlink="http://www.w3.org/1999/xlink">
<g id="graph0" class="graph" transform="scale(1 1) rotate(0) translate(4 62)">
<title>类继承关系图</title>
<!-- Node0 -->
<g id="Node000000" class="node">
<title>Node0</title>
<g id="a_Node000000"><a xlink:href="df/d0f/classAController.html" target="_top" xlink:title=" ">
<polygon fill="white" stroke="#666666" points="64,-39 0,-39 0,-19 64,-19 64,-39"/>
<text text-anchor="middle" x="32" y="-25.5" font-family="Helvetica,sans-Serif" font-size="10.00">AController</text>
</a>
</g>
</g>
<!-- Node1 -->
<g id="Node000001" class="node">
<title>Node1</title>
<g id="a_Node000001"><a xlink:href="de/d2e/classAWalkerController.html" target="_top" xlink:title=" ">
<polygon fill="white" stroke="#666666" points="219.12,-58 124.38,-58 124.38,-38 219.12,-38 219.12,-58"/>
<text text-anchor="middle" x="171.75" y="-44.5" font-family="Helvetica,sans-Serif" font-size="10.00">AWalkerController</text>
</a>
</g>
</g>
<!-- Node0&#45;&gt;Node1 -->
<g id="edge56_Node000000_Node000001" class="edge">
<title>Node0&#45;&gt;Node1</title>
<g id="a_edge56_Node000000_Node000001"><a xlink:title=" ">
<path fill="none" stroke="#63b8ff" d="M75.07,-34.8C90.51,-36.93 108.08,-39.36 123.92,-41.54"/>
<polygon fill="#63b8ff" stroke="#63b8ff" points="75.64,-31.21 65.26,-33.31 74.69,-38.15 75.64,-31.21"/>
</a>
</g>
</g>
<!-- Node2 -->
<g id="Node000002" class="node">
<title>Node2</title>
<g id="a_Node000002"><a xlink:href="dd/dea/classAWheeledVehicleAIController.html" target="_top" xlink:title="Wheeled vehicle controller with optional AI.">
<polygon fill="white" stroke="#666666" points="243.5,-20 100,-20 100,0 243.5,0 243.5,-20"/>
<text text-anchor="middle" x="171.75" y="-6.5" font-family="Helvetica,sans-Serif" font-size="10.00">AWheeledVehicleAIController</text>
</a>
</g>
</g>
<!-- Node0&#45;&gt;Node2 -->
<g id="edge57_Node000000_Node000002" class="edge">
<title>Node0&#45;&gt;Node2</title>
<g id="a_edge57_Node000000_Node000002"><a xlink:title=" ">
<path fill="none" stroke="#63b8ff" d="M74.96,-23.21C82.82,-22.13 91.25,-20.97 99.72,-19.8"/>
<polygon fill="#63b8ff" stroke="#63b8ff" points="74.69,-19.85 65.26,-24.69 75.64,-26.79 74.69,-19.85"/>
</a>
</g>
</g>
</g>
</svg>
