<?xml version="1.0" encoding="UTF-8" standalone="no"?>
<!DOCTYPE svg PUBLIC "-//W3C//DTD SVG 1.1//EN"
 "http://www.w3.org/Graphics/SVG/1.1/DTD/svg11.dtd">
<!-- Generated by graphviz version 8.1.0 (20230707.0739)
 -->
<!-- Title: CachedSimpleWaypoint.h Pages: 1 -->
<svg width="573pt" height="308pt"
 viewBox="0.00 0.00 572.62 308.00" xmlns="http://www.w3.org/2000/svg" xmlns:xlink="http://www.w3.org/1999/xlink">
<g id="graph0" class="graph" transform="scale(1 1) rotate(0) translate(4 304)">
<title>CachedSimpleWaypoint.h</title>
<!-- Node1 -->
<g id="Node000001" class="node">
<title>Node1</title>
<g id="a_Node000001"><a xlink:title=" ">
<polygon fill="#999999" stroke="#666666" points="290.12,-300 161.62,-300 161.62,-280 290.12,-280 290.12,-300"/>
<text text-anchor="middle" x="225.88" y="-286.5" font-family="Helvetica,sans-Serif" font-size="10.00">CachedSimpleWaypoint.h</text>
</a>
</g>
</g>
<!-- Node2 -->
<g id="Node000002" class="node">
<title>Node2</title>
<g id="a_Node000002"><a xlink:href="../../d0/d73/CachedSimpleWaypoint_8cpp.html" target="_top" xlink:title=" ">
<polygon fill="white" stroke="#666666" points="230.38,-244 91.38,-244 91.38,-224 230.38,-224 230.38,-244"/>
<text text-anchor="middle" x="160.88" y="-230.5" font-family="Helvetica,sans-Serif" font-size="10.00">CachedSimpleWaypoint.cpp</text>
</a>
</g>
</g>
<!-- Node1&#45;&gt;Node2 -->
<g id="edge1_Node000001_Node000002" class="edge">
<title>Node1&#45;&gt;Node2</title>
<g id="a_edge1_Node000001_Node000002"><a xlink:title=" ">
<path fill="none" stroke="#63b8ff" d="M206.23,-272.68C195.05,-263.39 181.44,-252.09 172.07,-244.3"/>
<polygon fill="#63b8ff" stroke="#63b8ff" points="203.62,-275.9 213.55,-279.59 208.1,-270.51 203.62,-275.9"/>
</a>
</g>
</g>
<!-- Node3 -->
<g id="Node000003" class="node">
<title>Node3</title>
<g id="a_Node000003"><a xlink:href="../../d3/d89/InMemoryMap_8h.html" target="_top" xlink:title=" ">
<polygon fill="white" stroke="#666666" points="333.75,-244 248,-244 248,-224 333.75,-224 333.75,-244"/>
<text text-anchor="middle" x="290.88" y="-230.5" font-family="Helvetica,sans-Serif" font-size="10.00">InMemoryMap.h</text>
</a>
</g>
</g>
<!-- Node1&#45;&gt;Node3 -->
<g id="edge2_Node000001_Node000003" class="edge">
<title>Node1&#45;&gt;Node3</title>
<g id="a_edge2_Node000001_Node000003"><a xlink:title=" ">
<path fill="none" stroke="#63b8ff" d="M245.52,-272.68C256.7,-263.39 270.31,-252.09 279.68,-244.3"/>
<polygon fill="#63b8ff" stroke="#63b8ff" points="243.65,-270.51 238.2,-279.59 248.13,-275.9 243.65,-270.51"/>
</a>
</g>
</g>
<!-- Node4 -->
<g id="Node000004" class="node">
<title>Node4</title>
<g id="a_Node000004"><a xlink:href="../../dc/d2c/ALSM_8h.html" target="_top" xlink:title=" ">
<polygon fill="white" stroke="#666666" points="56.5,-132 5.25,-132 5.25,-112 56.5,-112 56.5,-132"/>
<text text-anchor="middle" x="30.88" y="-118.5" font-family="Helvetica,sans-Serif" font-size="10.00">ALSM.h</text>
</a>
</g>
</g>
<!-- Node3&#45;&gt;Node4 -->
<g id="edge3_Node000003_Node000004" class="edge">
<title>Node3&#45;&gt;Node4</title>
<g id="a_edge3_Node000003_Node000004"><a xlink:title=" ">
<path fill="none" stroke="#63b8ff" d="M237.29,-222.39C183.35,-211.46 106.38,-195.04 93.88,-188 68.68,-173.81 47.16,-146.44 37.04,-132.17"/>
<polygon fill="#63b8ff" stroke="#63b8ff" points="236.25,-225.96 246.74,-224.5 237.63,-219.1 236.25,-225.96"/>
</a>
</g>
</g>
<!-- Node6 -->
<g id="Node000006" class="node">
<title>Node6</title>
<g id="a_Node000006"><a xlink:href="../../db/ddf/TrafficManagerLocal_8h.html" target="_top" xlink:title=" ">
<polygon fill="white" stroke="#666666" points="249.12,-76 138.62,-76 138.62,-56 249.12,-56 249.12,-76"/>
<text text-anchor="middle" x="193.88" y="-62.5" font-family="Helvetica,sans-Serif" font-size="10.00">TrafficManagerLocal.h</text>
</a>
</g>
</g>
<!-- Node3&#45;&gt;Node6 -->
<g id="edge18_Node000003_Node000006" class="edge">
<title>Node3&#45;&gt;Node6</title>
<g id="a_edge18_Node000003_Node000006"><a xlink:title=" ">
<path fill="none" stroke="#63b8ff" d="M282.58,-213.69C269.82,-184.27 245.62,-129.79 233.88,-112 225.01,-98.57 212.33,-85.01 203.64,-76.34"/>
<polygon fill="#63b8ff" stroke="#63b8ff" points="279.69,-214.81 286.86,-222.6 286.12,-212.03 279.69,-214.81"/>
</a>
</g>
</g>
<!-- Node9 -->
<g id="Node000009" class="node">
<title>Node9</title>
<g id="a_Node000009"><a xlink:href="../../d4/d89/InMemoryMap_8cpp.html" target="_top" xlink:title=" ">
<polygon fill="white" stroke="#666666" points="493,-188 396.75,-188 396.75,-168 493,-168 493,-188"/>
<text text-anchor="middle" x="444.88" y="-174.5" font-family="Helvetica,sans-Serif" font-size="10.00">InMemoryMap.cpp</text>
</a>
</g>
</g>
<!-- Node3&#45;&gt;Node9 -->
<g id="edge8_Node000003_Node000009" class="edge">
<title>Node3&#45;&gt;Node9</title>
<g id="a_edge8_Node000003_Node000009"><a xlink:title=" ">
<path fill="none" stroke="#63b8ff" d="M327.81,-220.05C355.53,-210.33 392.86,-197.24 417.84,-188.48"/>
<polygon fill="#63b8ff" stroke="#63b8ff" points="326.98,-216.98 318.7,-223.59 329.29,-223.59 326.98,-216.98"/>
</a>
</g>
</g>
<!-- Node10 -->
<g id="Node000010" class="node">
<title>Node10</title>
<g id="a_Node000010"><a xlink:href="../../d9/df4/LocalizationStage_8h.html" target="_top" xlink:title=" ">
<polygon fill="white" stroke="#666666" points="204.62,-188 103.12,-188 103.12,-168 204.62,-168 204.62,-188"/>
<text text-anchor="middle" x="153.88" y="-174.5" font-family="Helvetica,sans-Serif" font-size="10.00">LocalizationStage.h</text>
</a>
</g>
</g>
<!-- Node3&#45;&gt;Node10 -->
<g id="edge9_Node000003_Node000010" class="edge">
<title>Node3&#45;&gt;Node10</title>
<g id="a_edge9_Node000003_Node000010"><a xlink:title=" ">
<path fill="none" stroke="#63b8ff" d="M257.04,-219.66C232.48,-209.98 199.85,-197.12 177.92,-188.48"/>
<polygon fill="#63b8ff" stroke="#63b8ff" points="255.42,-223.18 266.01,-223.59 257.99,-216.67 255.42,-223.18"/>
</a>
</g>
</g>
<!-- Node12 -->
<g id="Node000012" class="node">
<title>Node12</title>
<g id="a_Node000012"><a xlink:href="../../db/da0/client_2Map_8cpp.html" target="_top" xlink:title=" ">
<polygon fill="white" stroke="#666666" points="564.62,-188 511.12,-188 511.12,-168 564.62,-168 564.62,-188"/>
<text text-anchor="middle" x="537.88" y="-174.5" font-family="Helvetica,sans-Serif" font-size="10.00">Map.cpp</text>
</a>
</g>
</g>
<!-- Node3&#45;&gt;Node12 -->
<g id="edge13_Node000003_Node000012" class="edge">
<title>Node3&#45;&gt;Node12</title>
<g id="a_edge13_Node000003_Node000012"><a xlink:title=" ">
<path fill="none" stroke="#63b8ff" d="M344.93,-222.01C387.62,-213.2 448.67,-200.32 501.88,-188 504.76,-187.33 507.77,-186.61 510.77,-185.88"/>
<polygon fill="#63b8ff" stroke="#63b8ff" points="344.3,-218.77 335.21,-224.22 345.71,-225.63 344.3,-218.77"/>
</a>
</g>
</g>
<!-- Node13 -->
<g id="Node000013" class="node">
<title>Node13</title>
<g id="a_Node000013"><a xlink:href="../../d3/d00/MotionPlanStage_8h.html" target="_top" xlink:title=" ">
<polygon fill="white" stroke="#666666" points="379.12,-188 280.62,-188 280.62,-168 379.12,-168 379.12,-188"/>
<text text-anchor="middle" x="329.88" y="-174.5" font-family="Helvetica,sans-Serif" font-size="10.00">MotionPlanStage.h</text>
</a>
</g>
</g>
<!-- Node3&#45;&gt;Node13 -->
<g id="edge14_Node000003_Node000013" class="edge">
<title>Node3&#45;&gt;Node13</title>
<g id="a_edge14_Node000003_Node000013"><a xlink:title=" ">
<path fill="none" stroke="#63b8ff" d="M304.08,-214.72C310.49,-205.84 317.92,-195.55 323.16,-188.3"/>
<polygon fill="#63b8ff" stroke="#63b8ff" points="300.69,-212.44 297.67,-222.59 306.36,-216.54 300.69,-212.44"/>
</a>
</g>
</g>
<!-- Node5 -->
<g id="Node000005" class="node">
<title>Node5</title>
<g id="a_Node000005"><a xlink:href="../../d9/da8/ALSM_8cpp.html" target="_top" xlink:title=" ">
<polygon fill="white" stroke="#666666" points="61.75,-76 0,-76 0,-56 61.75,-56 61.75,-76"/>
<text text-anchor="middle" x="30.88" y="-62.5" font-family="Helvetica,sans-Serif" font-size="10.00">ALSM.cpp</text>
</a>
</g>
</g>
<!-- Node4&#45;&gt;Node5 -->
<g id="edge4_Node000004_Node000005" class="edge">
<title>Node4&#45;&gt;Node5</title>
<g id="a_edge4_Node000004_Node000005"><a xlink:title=" ">
<path fill="none" stroke="#63b8ff" d="M30.88,-100.71C30.88,-92.32 30.88,-83.01 30.88,-76.3"/>
<polygon fill="#63b8ff" stroke="#63b8ff" points="27.38,-100.59 30.88,-110.59 34.38,-100.59 27.38,-100.59"/>
</a>
</g>
</g>
<!-- Node4&#45;&gt;Node6 -->
<g id="edge5_Node000004_Node000006" class="edge">
<title>Node4&#45;&gt;Node6</title>
<g id="a_edge5_Node000004_Node000006"><a xlink:title=" ">
<path fill="none" stroke="#63b8ff" d="M67.05,-109.02C96.71,-99.19 138.1,-85.48 165.43,-76.42"/>
<polygon fill="#63b8ff" stroke="#63b8ff" points="66.09,-105.98 57.7,-112.44 68.3,-112.62 66.09,-105.98"/>
</a>
</g>
</g>
<!-- Node7 -->
<g id="Node000007" class="node">
<title>Node7</title>
<g id="a_Node000007"><a xlink:href="../../db/d04/TrafficManager_8cpp.html" target="_top" xlink:title=" ">
<polygon fill="white" stroke="#666666" points="179.75,-20 82,-20 82,0 179.75,0 179.75,-20"/>
<text text-anchor="middle" x="130.88" y="-6.5" font-family="Helvetica,sans-Serif" font-size="10.00">TrafficManager.cpp</text>
</a>
</g>
</g>
<!-- Node6&#45;&gt;Node7 -->
<g id="edge6_Node000006_Node000007" class="edge">
<title>Node6&#45;&gt;Node7</title>
<g id="a_edge6_Node000006_Node000007"><a xlink:title=" ">
<path fill="none" stroke="#63b8ff" d="M174.83,-48.68C164,-39.39 150.81,-28.09 141.72,-20.3"/>
<polygon fill="#63b8ff" stroke="#63b8ff" points="172.03,-51.74 181.9,-55.59 176.59,-46.43 172.03,-51.74"/>
</a>
</g>
</g>
<!-- Node8 -->
<g id="Node000008" class="node">
<title>Node8</title>
<g id="a_Node000008"><a xlink:href="../../da/d53/TrafficManagerLocal_8cpp.html" target="_top" xlink:title=" ">
<polygon fill="white" stroke="#666666" points="318.38,-20 197.38,-20 197.38,0 318.38,0 318.38,-20"/>
<text text-anchor="middle" x="257.88" y="-6.5" font-family="Helvetica,sans-Serif" font-size="10.00">TrafficManagerLocal.cpp</text>
</a>
</g>
</g>
<!-- Node6&#45;&gt;Node8 -->
<g id="edge7_Node000006_Node000008" class="edge">
<title>Node6&#45;&gt;Node8</title>
<g id="a_edge7_Node000006_Node000008"><a xlink:title=" ">
<path fill="none" stroke="#63b8ff" d="M213.22,-48.68C224.23,-39.39 237.62,-28.09 246.85,-20.3"/>
<polygon fill="#63b8ff" stroke="#63b8ff" points="211.41,-46.47 206.02,-55.59 215.92,-51.82 211.41,-46.47"/>
</a>
</g>
</g>
<!-- Node10&#45;&gt;Node4 -->
<g id="edge10_Node000010_Node000004" class="edge">
<title>Node10&#45;&gt;Node4</title>
<g id="a_edge10_Node000010_Node000004"><a xlink:title=" ">
<path fill="none" stroke="#63b8ff" d="M122.6,-163.27C100.66,-153.64 71.89,-141.01 52.47,-132.48"/>
<polygon fill="#63b8ff" stroke="#63b8ff" points="120.89,-166.78 131.45,-167.59 123.7,-160.37 120.89,-166.78"/>
</a>
</g>
</g>
<!-- Node10&#45;&gt;Node6 -->
<g id="edge12_Node000010_Node000006" class="edge">
<title>Node10&#45;&gt;Node6</title>
<g id="a_edge12_Node000010_Node000006"><a xlink:title=" ">
<path fill="none" stroke="#63b8ff" d="M128.53,-161.45C111.07,-148.67 92.85,-129.84 103.88,-112 114.99,-94.02 135.7,-82.98 154.46,-76.34"/>
<polygon fill="#63b8ff" stroke="#63b8ff" points="126.2,-164.78 136.43,-167.54 130.16,-159 126.2,-164.78"/>
</a>
</g>
</g>
<!-- Node11 -->
<g id="Node000011" class="node">
<title>Node11</title>
<g id="a_Node000011"><a xlink:href="../../df/dd3/LocalizationStage_8cpp.html" target="_top" xlink:title=" ">
<polygon fill="white" stroke="#666666" points="224.88,-132 112.88,-132 112.88,-112 224.88,-112 224.88,-132"/>
<text text-anchor="middle" x="168.88" y="-118.5" font-family="Helvetica,sans-Serif" font-size="10.00">LocalizationStage.cpp</text>
</a>
</g>
</g>
<!-- Node10&#45;&gt;Node11 -->
<g id="edge11_Node000010_Node000011" class="edge">
<title>Node10&#45;&gt;Node11</title>
<g id="a_edge11_Node000010_Node000011"><a xlink:title=" ">
<path fill="none" stroke="#63b8ff" d="M159.43,-157C161.78,-148.54 164.41,-139.08 166.29,-132.3"/>
<polygon fill="#63b8ff" stroke="#63b8ff" points="155.79,-156.02 156.49,-166.59 162.54,-157.9 155.79,-156.02"/>
</a>
</g>
</g>
<!-- Node13&#45;&gt;Node4 -->
<g id="edge15_Node000013_Node000004" class="edge">
<title>Node13&#45;&gt;Node4</title>
<g id="a_edge15_Node000013_Node000004"><a xlink:title=" ">
<path fill="none" stroke="#63b8ff" d="M269.64,-166.12C204.51,-154.36 103.74,-136.16 56.7,-127.66"/>
<polygon fill="#63b8ff" stroke="#63b8ff" points="268.7,-169.69 279.17,-168.02 269.95,-162.8 268.7,-169.69"/>
</a>
</g>
</g>
<!-- Node13&#45;&gt;Node6 -->
<g id="edge17_Node000013_Node000006" class="edge">
<title>Node13&#45;&gt;Node6</title>
<g id="a_edge17_Node000013_Node000006"><a xlink:title=" ">
<path fill="none" stroke="#63b8ff" d="M315.29,-159.74C303.15,-145.92 284.97,-126.53 266.88,-112 249.35,-97.92 227.1,-84.8 211.8,-76.4"/>
<polygon fill="#63b8ff" stroke="#63b8ff" points="313.16,-161.62 322.35,-166.9 318.46,-157.04 313.16,-161.62"/>
</a>
</g>
</g>
<!-- Node14 -->
<g id="Node000014" class="node">
<title>Node14</title>
<g id="a_Node000014"><a xlink:href="../../d4/df7/MotionPlanStage_8cpp.html" target="_top" xlink:title=" ">
<polygon fill="white" stroke="#666666" points="428.38,-132 319.38,-132 319.38,-112 428.38,-112 428.38,-132"/>
<text text-anchor="middle" x="373.88" y="-118.5" font-family="Helvetica,sans-Serif" font-size="10.00">MotionPlanStage.cpp</text>
</a>
</g>
</g>
<!-- Node13&#45;&gt;Node14 -->
<g id="edge16_Node000013_Node000014" class="edge">
<title>Node13&#45;&gt;Node14</title>
<g id="a_edge16_Node000013_Node000014"><a xlink:title=" ">
<path fill="none" stroke="#63b8ff" d="M344.31,-159.29C351.65,-150.28 360.27,-139.7 366.3,-132.3"/>
<polygon fill="#63b8ff" stroke="#63b8ff" points="341.14,-156.63 337.54,-166.59 346.57,-161.05 341.14,-156.63"/>
</a>
</g>
</g>
</g>
</svg>
