<?xml version="1.0" encoding="UTF-8" standalone="no"?>
<!DOCTYPE svg PUBLIC "-//W3C//DTD SVG 1.1//EN"
 "http://www.w3.org/Graphics/SVG/1.1/DTD/svg11.dtd">
<!-- Generated by graphviz version 8.1.0 (20230707.0739)
 -->
<!-- Title: ASensor::GetDataStream Pages: 1 -->
<svg width="712pt" height="621pt"
 viewBox="0.00 0.00 711.75 621.00" xmlns="http://www.w3.org/2000/svg" xmlns:xlink="http://www.w3.org/1999/xlink">
<g id="graph0" class="graph" transform="scale(1 1) rotate(0) translate(4 617)">
<title>ASensor::GetDataStream</title>
<!-- Node1 -->
<g id="Node000001" class="node">
<title>Node1</title>
<g id="a_Node000001"><a xlink:title="Return the FDataStream associated with this sensor.">
<polygon fill="#999999" stroke="#666666" points="703.75,-296 576.75,-296 576.75,-276 703.75,-276 703.75,-296"/>
<text text-anchor="middle" x="640.25" y="-282.5" font-family="Helvetica,sans-Serif" font-size="10.00">ASensor::GetDataStream</text>
</a>
</g>
</g>
<!-- Node2 -->
<g id="Node000002" class="node">
<title>Node2</title>
<g id="a_Node000002"><a xlink:href="../../d8/de9/classACollisionSensor.html#ab4fa46f2abc1fbc290f967bb18e7e13e" target="_top" xlink:title=" ">
<polygon fill="white" stroke="#666666" points="528,-563 382.25,-563 382.25,-531 528,-531 528,-563"/>
<text text-anchor="start" x="390.25" y="-549.5" font-family="Helvetica,sans-Serif" font-size="10.00">ACollisionSensor::OnCollision</text>
<text text-anchor="middle" x="455.12" y="-537.5" font-family="Helvetica,sans-Serif" font-size="10.00">Event</text>
</a>
</g>
</g>
<!-- Node1&#45;&gt;Node2 -->
<g id="edge1_Node000001_Node000002" class="edge">
<title>Node1&#45;&gt;Node2</title>
<g id="a_edge1_Node000001_Node000002"><a xlink:title=" ">
<path fill="none" stroke="#63b8ff" d="M635.68,-306.94C627.14,-350.95 601.53,-453.86 540.75,-513 533.26,-520.29 524.01,-526.08 514.4,-530.66"/>
<polygon fill="#63b8ff" stroke="#63b8ff" points="639.26,-307.87 637.62,-297.4 632.37,-306.6 639.26,-307.87"/>
</a>
</g>
</g>
<!-- Node6 -->
<g id="Node000006" class="node">
<title>Node6</title>
<g id="a_Node000006"><a xlink:href="../../d3/d93/classAObstacleDetectionSensor.html#a86daabb07d1a82d74be5ec006b1c20f4" target="_top" xlink:title=" ">
<polygon fill="white" stroke="#666666" points="524.62,-504 385.62,-504 385.62,-472 524.62,-472 524.62,-504"/>
<text text-anchor="start" x="393.62" y="-490.5" font-family="Helvetica,sans-Serif" font-size="10.00">AObstacleDetectionSensor</text>
<text text-anchor="middle" x="455.12" y="-478.5" font-family="Helvetica,sans-Serif" font-size="10.00">::OnObstacleDetectionEvent</text>
</a>
</g>
</g>
<!-- Node1&#45;&gt;Node6 -->
<g id="edge6_Node000001_Node000006" class="edge">
<title>Node1&#45;&gt;Node6</title>
<g id="a_edge6_Node000001_Node000006"><a xlink:title=" ">
<path fill="none" stroke="#63b8ff" d="M633.46,-306.67C622.02,-343.65 593.02,-421.15 540.75,-463 535.97,-466.83 530.61,-470.07 524.98,-472.82"/>
<polygon fill="#63b8ff" stroke="#63b8ff" points="637.08,-307.77 636.56,-297.19 630.37,-305.78 637.08,-307.77"/>
</a>
</g>
</g>
<!-- Node8 -->
<g id="Node000008" class="node">
<title>Node8</title>
<g id="a_Node000008"><a xlink:href="../../d0/dc3/classAGnssSensor.html#a319d23bd045d2c1451f03bfacf666758" target="_top" xlink:title=" ">
<polygon fill="white" stroke="#666666" points="526.88,-436 383.38,-436 383.38,-416 526.88,-416 526.88,-436"/>
<text text-anchor="middle" x="455.12" y="-422.5" font-family="Helvetica,sans-Serif" font-size="10.00">AGnssSensor::PostPhysTick</text>
</a>
</g>
</g>
<!-- Node1&#45;&gt;Node8 -->
<g id="edge9_Node000001_Node000008" class="edge">
<title>Node1&#45;&gt;Node8</title>
<g id="a_edge9_Node000001_Node000008"><a xlink:title=" ">
<path fill="none" stroke="#63b8ff" d="M628.87,-305.68C613.44,-332.91 581.8,-381.59 540.75,-407 535.24,-410.41 529.2,-413.21 522.96,-415.5"/>
<polygon fill="#63b8ff" stroke="#63b8ff" points="632.23,-307.84 633.97,-297.39 626.09,-304.47 632.23,-307.84"/>
</a>
</g>
</g>
<!-- Node9 -->
<g id="Node000009" class="node">
<title>Node9</title>
<g id="a_Node000009"><a xlink:href="../../d5/de4/classARayCastLidar.html#abfd04fd0fb58051afae805f0b94f5923" target="_top" xlink:title=" ">
<polygon fill="white" stroke="#666666" points="529.12,-380 381.12,-380 381.12,-360 529.12,-360 529.12,-380"/>
<text text-anchor="middle" x="455.12" y="-366.5" font-family="Helvetica,sans-Serif" font-size="10.00">ARayCastLidar::PostPhysTick</text>
</a>
</g>
</g>
<!-- Node1&#45;&gt;Node9 -->
<g id="edge11_Node000001_Node000009" class="edge">
<title>Node1&#45;&gt;Node9</title>
<g id="a_edge11_Node000001_Node000009"><a xlink:title=" ">
<path fill="none" stroke="#63b8ff" d="M618.24,-303.15C599.13,-317.92 569.59,-338.74 540.75,-351 532.71,-354.42 523.97,-357.26 515.26,-359.62"/>
<polygon fill="#63b8ff" stroke="#63b8ff" points="620.05,-305.39 625.74,-296.45 615.72,-299.9 620.05,-305.39"/>
</a>
</g>
</g>
<!-- Node10 -->
<g id="Node000010" class="node">
<title>Node10</title>
<g id="a_Node000010"><a xlink:href="../../de/d1f/classACustomV2XSensor.html#ab7792a4f25d71f82e3bebb3828fab743" target="_top" xlink:title=" ">
<polygon fill="white" stroke="#666666" points="540.75,-324 369.5,-324 369.5,-304 540.75,-304 540.75,-324"/>
<text text-anchor="middle" x="455.12" y="-310.5" font-family="Helvetica,sans-Serif" font-size="10.00">ACustomV2XSensor::PostPhysTick</text>
</a>
</g>
</g>
<!-- Node1&#45;&gt;Node10 -->
<g id="edge13_Node000001_Node000010" class="edge">
<title>Node1&#45;&gt;Node10</title>
<g id="a_edge13_Node000001_Node000010"><a xlink:title=" ">
<path fill="none" stroke="#63b8ff" d="M565.77,-297.24C552.23,-299.3 538.15,-301.46 524.76,-303.51"/>
<polygon fill="#63b8ff" stroke="#63b8ff" points="566.13,-300.57 575.48,-295.6 565.07,-293.65 566.13,-300.57"/>
</a>
</g>
</g>
<!-- Node11 -->
<g id="Node000011" class="node">
<title>Node11</title>
<g id="a_Node000011"><a xlink:href="../../d2/daf/classADVSCamera.html#af5bed25bbeaa4669ea0576fdff9ea5e3" target="_top" xlink:title=" ">
<polygon fill="white" stroke="#666666" points="526.88,-268 383.38,-268 383.38,-248 526.88,-248 526.88,-268"/>
<text text-anchor="middle" x="455.12" y="-254.5" font-family="Helvetica,sans-Serif" font-size="10.00">ADVSCamera::PostPhysTick</text>
</a>
</g>
</g>
<!-- Node1&#45;&gt;Node11 -->
<g id="edge15_Node000001_Node000011" class="edge">
<title>Node1&#45;&gt;Node11</title>
<g id="a_edge15_Node000001_Node000011"><a xlink:title=" ">
<path fill="none" stroke="#63b8ff" d="M565.77,-274.76C552.23,-272.7 538.15,-270.54 524.76,-268.49"/>
<polygon fill="#63b8ff" stroke="#63b8ff" points="565.07,-278.35 575.48,-276.4 566.13,-271.43 565.07,-278.35"/>
</a>
</g>
</g>
<!-- Node12 -->
<g id="Node000012" class="node">
<title>Node12</title>
<g id="a_Node000012"><a xlink:href="../../d5/de0/classAInertialMeasurementUnit.html#aa86507b1b877834ae72c1034486b7d90" target="_top" xlink:title=" ">
<polygon fill="white" stroke="#666666" points="519,-212 391.25,-212 391.25,-180 519,-180 519,-212"/>
<text text-anchor="start" x="399.25" y="-198.5" font-family="Helvetica,sans-Serif" font-size="10.00">AInertialMeasurementUnit</text>
<text text-anchor="middle" x="455.12" y="-186.5" font-family="Helvetica,sans-Serif" font-size="10.00">::PostPhysTick</text>
</a>
</g>
</g>
<!-- Node1&#45;&gt;Node12 -->
<g id="edge17_Node000001_Node000012" class="edge">
<title>Node1&#45;&gt;Node12</title>
<g id="a_edge17_Node000001_Node000012"><a xlink:title=" ">
<path fill="none" stroke="#63b8ff" d="M608.69,-270.98C575.77,-254.8 523.56,-229.14 489.57,-212.44"/>
<polygon fill="#63b8ff" stroke="#63b8ff" points="606.72,-274.41 617.24,-275.68 609.81,-268.12 606.72,-274.41"/>
</a>
</g>
</g>
<!-- Node13 -->
<g id="Node000013" class="node">
<title>Node13</title>
<g id="a_Node000013"><a xlink:href="../../d9/d27/classARadar.html#a74d20d2ceebe97b11e8fc12aa8d20d0b" target="_top" xlink:title=" ">
<polygon fill="white" stroke="#666666" points="512.62,-144 397.62,-144 397.62,-124 512.62,-124 512.62,-144"/>
<text text-anchor="middle" x="455.12" y="-130.5" font-family="Helvetica,sans-Serif" font-size="10.00">ARadar::PostPhysTick</text>
</a>
</g>
</g>
<!-- Node1&#45;&gt;Node13 -->
<g id="edge19_Node000001_Node000013" class="edge">
<title>Node1&#45;&gt;Node13</title>
<g id="a_edge19_Node000001_Node000013"><a xlink:title=" ">
<path fill="none" stroke="#63b8ff" d="M626.95,-266.88C610.1,-241.96 577.68,-198.34 540.75,-171 525.16,-159.45 505.4,-150.56 488.9,-144.38"/>
<polygon fill="#63b8ff" stroke="#63b8ff" points="624.38,-268.33 632.81,-274.74 630.21,-264.47 624.38,-268.33"/>
</a>
</g>
</g>
<!-- Node14 -->
<g id="Node000014" class="node">
<title>Node14</title>
<g id="a_Node000014"><a xlink:href="../../d8/d15/classARayCastSemanticLidar.html#a74775c31724f8cf3467765ae3583be5b" target="_top" xlink:title=" ">
<polygon fill="white" stroke="#666666" points="516.38,-88 393.88,-88 393.88,-56 516.38,-56 516.38,-88"/>
<text text-anchor="start" x="401.88" y="-74.5" font-family="Helvetica,sans-Serif" font-size="10.00">ARayCastSemanticLidar</text>
<text text-anchor="middle" x="455.12" y="-62.5" font-family="Helvetica,sans-Serif" font-size="10.00">::PostPhysTick</text>
</a>
</g>
</g>
<!-- Node1&#45;&gt;Node14 -->
<g id="edge21_Node000001_Node000014" class="edge">
<title>Node1&#45;&gt;Node14</title>
<g id="a_edge21_Node000001_Node000014"><a xlink:title=" ">
<path fill="none" stroke="#63b8ff" d="M632.11,-265.92C618.89,-231.22 587.62,-159.47 540.75,-115 529.15,-104 514.2,-95.16 500.09,-88.42"/>
<polygon fill="#63b8ff" stroke="#63b8ff" points="629.01,-266.64 635.76,-274.81 635.58,-264.22 629.01,-266.64"/>
</a>
</g>
</g>
<!-- Node15 -->
<g id="Node000015" class="node">
<title>Node15</title>
<g id="a_Node000015"><a xlink:href="../../d3/dd4/classAV2XSensor.html#ab14344142856578bb4cc69b597318a9c" target="_top" xlink:title=" ">
<polygon fill="white" stroke="#666666" points="523.88,-20 386.38,-20 386.38,0 523.88,0 523.88,-20"/>
<text text-anchor="middle" x="455.12" y="-6.5" font-family="Helvetica,sans-Serif" font-size="10.00">AV2XSensor::PostPhysTick</text>
</a>
</g>
</g>
<!-- Node1&#45;&gt;Node15 -->
<g id="edge23_Node000001_Node000015" class="edge">
<title>Node1&#45;&gt;Node15</title>
<g id="a_edge23_Node000001_Node000015"><a xlink:title=" ">
<path fill="none" stroke="#63b8ff" d="M636.04,-265.07C628.04,-219.59 603.16,-110.75 540.75,-47 528.64,-34.63 511.68,-26.11 496.13,-20.39"/>
<polygon fill="#63b8ff" stroke="#63b8ff" points="632.75,-265.6 637.83,-274.89 639.65,-264.46 632.75,-265.6"/>
</a>
</g>
</g>
<!-- Node3 -->
<g id="Node000003" class="node">
<title>Node3</title>
<g id="a_Node000003"><a xlink:href="../../d8/de9/classACollisionSensor.html#af104d12b73c8fcefbc54027162b6463c" target="_top" xlink:title=" ">
<polygon fill="white" stroke="#666666" points="320.38,-613 188.12,-613 188.12,-581 320.38,-581 320.38,-613"/>
<text text-anchor="start" x="196.12" y="-599.5" font-family="Helvetica,sans-Serif" font-size="10.00">ACollisionSensor::OnActor</text>
<text text-anchor="middle" x="254.25" y="-587.5" font-family="Helvetica,sans-Serif" font-size="10.00">CollisionEvent</text>
</a>
</g>
</g>
<!-- Node2&#45;&gt;Node3 -->
<g id="edge2_Node000002_Node000003" class="edge">
<title>Node2&#45;&gt;Node3</title>
<g id="a_edge2_Node000002_Node000003"><a xlink:title=" ">
<path fill="none" stroke="#63b8ff" d="M378.32,-566.06C359.33,-570.83 339.12,-575.91 320.68,-580.55"/>
<polygon fill="#63b8ff" stroke="#63b8ff" points="378.89,-569.27 387.73,-563.44 377.18,-562.49 378.89,-569.27"/>
</a>
</g>
</g>
<!-- Node5 -->
<g id="Node000005" class="node">
<title>Node5</title>
<g id="a_Node000005"><a xlink:href="../../d8/de9/classACollisionSensor.html#ad65100bbaf7d2c09ec3e5970c10be88b" target="_top" xlink:title=" ">
<polygon fill="white" stroke="#666666" points="333.5,-563 175,-563 175,-531 333.5,-531 333.5,-563"/>
<text text-anchor="start" x="183" y="-549.5" font-family="Helvetica,sans-Serif" font-size="10.00">ACollisionSensor::OnComponent</text>
<text text-anchor="middle" x="254.25" y="-537.5" font-family="Helvetica,sans-Serif" font-size="10.00">CollisionEvent</text>
</a>
</g>
</g>
<!-- Node2&#45;&gt;Node5 -->
<g id="edge4_Node000002_Node000005" class="edge">
<title>Node2&#45;&gt;Node5</title>
<g id="a_edge4_Node000002_Node000005"><a xlink:title=" ">
<path fill="none" stroke="#63b8ff" d="M371.07,-547C358.77,-547 346.14,-547 333.94,-547"/>
<polygon fill="#63b8ff" stroke="#63b8ff" points="370.76,-550.5 380.76,-547 370.76,-543.5 370.76,-550.5"/>
</a>
</g>
</g>
<!-- Node4 -->
<g id="Node000004" class="node">
<title>Node4</title>
<g id="a_Node000004"><a xlink:href="../../d8/de9/classACollisionSensor.html#a182d28935eb0b680bf28bf2a85e21355" target="_top" xlink:title=" ">
<polygon fill="white" stroke="#666666" points="139,-582 0,-582 0,-562 139,-562 139,-582"/>
<text text-anchor="middle" x="69.5" y="-568.5" font-family="Helvetica,sans-Serif" font-size="10.00">ACollisionSensor::SetOwner</text>
</a>
</g>
</g>
<!-- Node3&#45;&gt;Node4 -->
<g id="edge3_Node000003_Node000004" class="edge">
<title>Node3&#45;&gt;Node4</title>
<g id="a_edge3_Node000003_Node000004"><a xlink:title=" ">
<path fill="none" stroke="#63b8ff" d="M176.92,-586.56C164.41,-584.85 151.52,-583.08 139.21,-581.4"/>
<polygon fill="#63b8ff" stroke="#63b8ff" points="176.41,-590.16 186.79,-588.05 177.36,-583.22 176.41,-590.16"/>
</a>
</g>
</g>
<!-- Node5&#45;&gt;Node4 -->
<g id="edge5_Node000005_Node000004" class="edge">
<title>Node5&#45;&gt;Node4</title>
<g id="a_edge5_Node000005_Node000004"><a xlink:title=" ">
<path fill="none" stroke="#63b8ff" d="M163.84,-559.23C155.56,-560.36 147.26,-561.5 139.22,-562.6"/>
<polygon fill="#63b8ff" stroke="#63b8ff" points="164.25,-562.57 173.69,-557.75 163.3,-555.64 164.25,-562.57"/>
</a>
</g>
</g>
<!-- Node7 -->
<g id="Node000007" class="node">
<title>Node7</title>
<g id="a_Node000007"><a xlink:href="../../d3/d93/classAObstacleDetectionSensor.html#ab978d30f92a01a9f29c8d54947380f25" target="_top" xlink:title=" ">
<polygon fill="white" stroke="#666666" points="321.12,-495 187.38,-495 187.38,-463 321.12,-463 321.12,-495"/>
<text text-anchor="start" x="195.38" y="-481.5" font-family="Helvetica,sans-Serif" font-size="10.00">AObstacleDetectionSensor</text>
<text text-anchor="middle" x="254.25" y="-469.5" font-family="Helvetica,sans-Serif" font-size="10.00">::PostPhysTick</text>
</a>
</g>
</g>
<!-- Node6&#45;&gt;Node7 -->
<g id="edge7_Node000006_Node000007" class="edge">
<title>Node6&#45;&gt;Node7</title>
<g id="a_edge7_Node000006_Node000007"><a xlink:title=" ">
<path fill="none" stroke="#63b8ff" d="M374.33,-484.39C356.78,-483.59 338.39,-482.76 321.45,-482"/>
<polygon fill="#63b8ff" stroke="#63b8ff" points="373.98,-487.92 384.13,-484.88 374.29,-480.93 373.98,-487.92"/>
</a>
</g>
</g>
<!-- Node7&#45;&gt;Node7 -->
<g id="edge8_Node000007_Node000007" class="edge">
<title>Node7&#45;&gt;Node7</title>
<g id="a_edge8_Node000007_Node000007"><a xlink:title=" ">
<path fill="none" stroke="#63b8ff" d="M285.87,-506.05C281.06,-510.19 270.52,-513 254.25,-513 226.1,-513 215.11,-504.58 221.27,-495.44"/>
<polygon fill="#63b8ff" stroke="#63b8ff" points="289.43,-506.81 287.23,-496.44 282.48,-505.91 289.43,-506.81"/>
</a>
</g>
</g>
<!-- Node8&#45;&gt;Node8 -->
<g id="edge10_Node000008_Node000008" class="edge">
<title>Node8&#45;&gt;Node8</title>
<g id="a_edge10_Node000008_Node000008"><a xlink:title=" ">
<path fill="none" stroke="#63b8ff" d="M488.78,-446.43C485.45,-450.82 474.23,-454 455.12,-454 422.95,-454 413.14,-444.98 425.71,-436.34"/>
<polygon fill="#63b8ff" stroke="#63b8ff" points="491.64,-445.2 484.54,-437.34 485.19,-447.91 491.64,-445.2"/>
</a>
</g>
</g>
<!-- Node9&#45;&gt;Node9 -->
<g id="edge12_Node000009_Node000009" class="edge">
<title>Node9&#45;&gt;Node9</title>
<g id="a_edge12_Node000009_Node000009"><a xlink:title=" ">
<path fill="none" stroke="#63b8ff" d="M488.78,-390.43C485.45,-394.82 474.23,-398 455.12,-398 422.95,-398 413.14,-388.98 425.71,-380.34"/>
<polygon fill="#63b8ff" stroke="#63b8ff" points="491.64,-389.2 484.54,-381.34 485.19,-391.91 491.64,-389.2"/>
</a>
</g>
</g>
<!-- Node10&#45;&gt;Node10 -->
<g id="edge14_Node000010_Node000010" class="edge">
<title>Node10&#45;&gt;Node10</title>
<g id="a_edge14_Node000010_Node000010"><a xlink:title=" ">
<path fill="none" stroke="#63b8ff" d="M488.78,-334.43C485.45,-338.82 474.23,-342 455.12,-342 422.95,-342 413.14,-332.98 425.71,-324.34"/>
<polygon fill="#63b8ff" stroke="#63b8ff" points="491.64,-333.2 484.54,-325.34 485.19,-335.91 491.64,-333.2"/>
</a>
</g>
</g>
<!-- Node11&#45;&gt;Node11 -->
<g id="edge16_Node000011_Node000011" class="edge">
<title>Node11&#45;&gt;Node11</title>
<g id="a_edge16_Node000011_Node000011"><a xlink:title=" ">
<path fill="none" stroke="#63b8ff" d="M488.78,-278.43C485.45,-282.82 474.23,-286 455.12,-286 422.95,-286 413.14,-276.98 425.71,-268.34"/>
<polygon fill="#63b8ff" stroke="#63b8ff" points="491.64,-277.2 484.54,-269.34 485.19,-279.91 491.64,-277.2"/>
</a>
</g>
</g>
<!-- Node12&#45;&gt;Node12 -->
<g id="edge18_Node000012_Node000012" class="edge">
<title>Node12&#45;&gt;Node12</title>
<g id="a_edge18_Node000012_Node000012"><a xlink:title=" ">
<path fill="none" stroke="#63b8ff" d="M486.81,-223.05C481.99,-227.19 471.43,-230 455.12,-230 426.92,-230 415.91,-221.58 422.08,-212.44"/>
<polygon fill="#63b8ff" stroke="#63b8ff" points="490.37,-223.81 488.17,-213.44 483.42,-222.91 490.37,-223.81"/>
</a>
</g>
</g>
<!-- Node13&#45;&gt;Node13 -->
<g id="edge20_Node000013_Node000013" class="edge">
<title>Node13&#45;&gt;Node13</title>
<g id="a_edge20_Node000013_Node000013"><a xlink:title=" ">
<path fill="none" stroke="#63b8ff" d="M488.78,-154.43C485.45,-158.82 474.23,-162 455.12,-162 422.95,-162 413.14,-152.98 425.71,-144.34"/>
<polygon fill="#63b8ff" stroke="#63b8ff" points="491.64,-153.2 484.54,-145.34 485.19,-155.91 491.64,-153.2"/>
</a>
</g>
</g>
<!-- Node14&#45;&gt;Node14 -->
<g id="edge22_Node000014_Node000014" class="edge">
<title>Node14&#45;&gt;Node14</title>
<g id="a_edge22_Node000014_Node000014"><a xlink:title=" ">
<path fill="none" stroke="#63b8ff" d="M486.81,-99.05C481.99,-103.19 471.43,-106 455.12,-106 426.92,-106 415.91,-97.58 422.08,-88.44"/>
<polygon fill="#63b8ff" stroke="#63b8ff" points="490.37,-99.81 488.17,-89.44 483.42,-98.91 490.37,-99.81"/>
</a>
</g>
</g>
<!-- Node15&#45;&gt;Node15 -->
<g id="edge24_Node000015_Node000015" class="edge">
<title>Node15&#45;&gt;Node15</title>
<g id="a_edge24_Node000015_Node000015"><a xlink:title=" ">
<path fill="none" stroke="#63b8ff" d="M488.78,-30.43C485.45,-34.82 474.23,-38 455.12,-38 422.95,-38 413.14,-28.98 425.71,-20.34"/>
<polygon fill="#63b8ff" stroke="#63b8ff" points="491.64,-29.2 484.54,-21.34 485.19,-31.91 491.64,-29.2"/>
</a>
</g>
</g>
</g>
</svg>
