<?xml version="1.0" encoding="UTF-8" standalone="no"?>
<!DOCTYPE svg PUBLIC "-//W3C//DTD SVG 1.1//EN"
 "http://www.w3.org/Graphics/SVG/1.1/DTD/svg11.dtd">
<!-- Generated by graphviz version 8.1.0 (20230707.0739)
 -->
<!-- Title: xml_buffered_writer::flush Pages: 1 -->
<!--zoomable 116 -->

<svg id="main" version="1.1" xmlns="http://www.w3.org/2000/svg" xmlns:xlink="http://www.w3.org/1999/xlink" xml:space="preserve" onload="init(evt)">
<style type="text/css"><![CDATA[
.node, .edge {opacity: 0.7;}
.node.selected, .edge.selected {opacity: 1;}
.edge:hover path { stroke: red; }
.edge:hover polygon { stroke: red; fill: red; }
]]></style>

<defs>
  <circle id="rim" cx="0" cy="0" r="7"/>
  <circle id="rim2" cx="0" cy="0" r="3.5"/>
  <g id="zoomPlus">
    <use xlink:href="#rim" fill="#404040"><set attributeName="fill" to="#808080" begin="zoomplus.mouseover" end="zoomplus.mouseout"/></use>
    <path d="M-4,0h8M0,-4v8" fill="none" stroke="white" stroke-width="1.5" pointer-events="none"/>
  </g>
  <g id="zoomMin">
    <use xlink:href="#rim" fill="#404040"><set attributeName="fill" to="#808080" begin="zoomminus.mouseover" end="zoomminus.mouseout"/></use>
    <path d="M-4,0h8" fill="none" stroke="white" stroke-width="1.5" pointer-events="none"/>
  </g>
  <g id="arrowUp" transform="translate(30 24)">
    <use xlink:href="#rim"/>
    <path pointer-events="none" fill="none" stroke="white" stroke-width="1.5" d="M0,-3.0v7 M-2.5,-0.5L0,-3.0L2.5,-0.5"/>
  </g>
  <g id="arrowRight" transform="rotate(90) translate(36 -43)">
    <use xlink:href="#rim"/>
    <path pointer-events="none" fill="none" stroke="white" stroke-width="1.5" d="M0,-3.0v7 M-2.5,-0.5L0,-3.0L2.5,-0.5"/>
  </g>
  <g id="arrowDown" transform="rotate(180) translate(-30 -48)">
    <use xlink:href="#rim"/>
    <path pointer-events="none" fill="none" stroke="white" stroke-width="1.5" d="M0,-3.0v7 M-2.5,-0.5L0,-3.0L2.5,-0.5"/>
  </g>
  <g id="arrowLeft" transform="rotate(270) translate(-36 17)">
    <use xlink:href="#rim"/>
    <path pointer-events="none" fill="none" stroke="white" stroke-width="1.5" d="M0,-3.0v7 M-2.5,-0.5L0,-3.0L2.5,-0.5"/>
  </g>
  <g id="resetDef">
    <use xlink:href="#rim2" fill="#404040"><set attributeName="fill" to="#808080" begin="reset.mouseover" end="reset.mouseout"/></use>
  </g>
</defs>
<script type="application/ecmascript">
var viewWidth = 533;
var viewHeight = 116;
var sectionId = 'dynsection-3';
</script>
<script type="application/ecmascript" xlink:href="../../svg.min.js"/>
<svg id="graph" class="graph">
<g id="viewport">
<title>xml_buffered_writer::flush</title>
<!-- Node1 -->
<g id="Node000001" class="node">
<title>Node1</title>
<g id="a_Node000001"><a xlink:title=" ">
<polygon fill="#999999" stroke="#666666" points="99.25,-45 0,-45 0,-13 99.25,-13 99.25,-45"/>
<text text-anchor="start" x="8" y="-31.5" font-family="Helvetica,sans-Serif" font-size="10.00">xml_buffered_writer</text>
<text text-anchor="middle" x="49.62" y="-19.5" font-family="Helvetica,sans-Serif" font-size="10.00">::flush</text>
</a>
</g>
</g>
<!-- Node2 -->
<g id="Node000002" class="node">
<title>Node2</title>
<g id="a_Node000002"><a xlink:href="../../db/d20/pugixml_8cpp.html#a976a3493e244f178a887d589740bea73" target="_top" xlink:title=" ">
<polygon fill="white" stroke="#666666" points="253.62,-58 146.12,-58 146.12,-38 253.62,-38 253.62,-58"/>
<text text-anchor="middle" x="199.88" y="-44.5" font-family="Helvetica,sans-Serif" font-size="10.00">convert_buffer_output</text>
</a>
</g>
</g>
<!-- Node1&#45;&gt;Node2 -->
<g id="edge1_Node000001_Node000002" class="edge">
<title>Node1&#45;&gt;Node2</title>
<g id="a_edge1_Node000001_Node000002"><a xlink:title=" ">
<path fill="none" stroke="#63b8ff" d="M99.58,-35.27C110.88,-36.72 123.06,-38.28 134.9,-39.8"/>
<polygon fill="#63b8ff" stroke="#63b8ff" points="134.27,-43.38 144.63,-41.18 135.16,-36.43 134.27,-43.38"/>
</a>
</g>
</g>
<!-- Node5 -->
<g id="Node000005" class="node">
<title>Node5</title>
<g id="a_Node000005"><a xlink:href="../../db/d20/pugixml_8cpp.html#a12b9d6cff4d37c68755263d0687c62b1" target="_top" xlink:title=" ">
<polygon fill="white" stroke="#666666" points="264.5,-20 135.25,-20 135.25,0 264.5,0 264.5,-20"/>
<text text-anchor="middle" x="199.88" y="-6.5" font-family="Helvetica,sans-Serif" font-size="10.00">get_write_native_encoding</text>
</a>
</g>
</g>
<!-- Node1&#45;&gt;Node5 -->
<g id="edge4_Node000001_Node000005" class="edge">
<title>Node1&#45;&gt;Node5</title>
<g id="a_edge4_Node000001_Node000005"><a xlink:title=" ">
<path fill="none" stroke="#63b8ff" d="M99.58,-22.73C107.44,-21.72 115.72,-20.66 124.02,-19.59"/>
<polygon fill="#63b8ff" stroke="#63b8ff" points="124.43,-22.94 133.9,-18.2 123.54,-16 124.43,-22.94"/>
</a>
</g>
</g>
<!-- Node3 -->
<g id="Node000003" class="node">
<title>Node3</title>
<g id="a_Node000003"><a xlink:href="../../db/d20/pugixml_8cpp.html#a21b89027558b075991093b58af720f66" target="_top" xlink:title=" ">
<polygon fill="white" stroke="#666666" points="408,-108 300.5,-108 300.5,-76 408,-76 408,-108"/>
<text text-anchor="start" x="308.5" y="-94.5" font-family="Helvetica,sans-Serif" font-size="10.00">convert_buffer_output</text>
<text text-anchor="middle" x="354.25" y="-82.5" font-family="Helvetica,sans-Serif" font-size="10.00">_generic</text>
</a>
</g>
</g>
<!-- Node2&#45;&gt;Node3 -->
<g id="edge2_Node000002_Node000003" class="edge">
<title>Node2&#45;&gt;Node3</title>
<g id="a_edge2_Node000002_Node000003"><a xlink:title=" ">
<path fill="none" stroke="#63b8ff" d="M236.99,-58.43C252.73,-62.97 271.66,-68.44 289.64,-73.63"/>
<polygon fill="#63b8ff" stroke="#63b8ff" points="288.5,-77.23 299.08,-76.65 290.44,-70.51 288.5,-77.23"/>
</a>
</g>
</g>
<!-- Node4 -->
<g id="Node000004" class="node">
<title>Node4</title>
<g id="a_Node000004"><a xlink:href="../../db/d20/pugixml_8cpp.html#a282e2854710450f313ea03bb59a8f681" target="_top" xlink:title=" ">
<polygon fill="white" stroke="#666666" points="524.5,-39 444,-39 444,-19 524.5,-19 524.5,-39"/>
<text text-anchor="middle" x="484.25" y="-25.5" font-family="Helvetica,sans-Serif" font-size="10.00">is_little_endian</text>
</a>
</g>
</g>
<!-- Node2&#45;&gt;Node4 -->
<g id="edge3_Node000002_Node000004" class="edge">
<title>Node2&#45;&gt;Node4</title>
<g id="a_edge3_Node000002_Node000004"><a xlink:title=" ">
<path fill="none" stroke="#63b8ff" d="M253.99,-44.43C305.23,-40.98 382.24,-35.8 432.63,-32.41"/>
<polygon fill="#63b8ff" stroke="#63b8ff" points="432.84,-35.83 442.58,-31.67 432.37,-28.85 432.84,-35.83"/>
</a>
</g>
</g>
<!-- Node6 -->
<g id="Node000006" class="node">
<title>Node6</title>
<g id="a_Node000006"><a xlink:href="../../db/d20/pugixml_8cpp.html#a1d386e9425e75d35b01373e46f186b9c" target="_top" xlink:title=" ">
<polygon fill="white" stroke="#666666" points="406.5,-20 302,-20 302,0 406.5,0 406.5,-20"/>
<text text-anchor="middle" x="354.25" y="-6.5" font-family="Helvetica,sans-Serif" font-size="10.00">get_wchar_encoding</text>
</a>
</g>
</g>
<!-- Node5&#45;&gt;Node6 -->
<g id="edge5_Node000005_Node000006" class="edge">
<title>Node5&#45;&gt;Node6</title>
<g id="a_edge5_Node000005_Node000006"><a xlink:title=" ">
<path fill="none" stroke="#63b8ff" d="M264.61,-10C273.33,-10 282.27,-10 290.96,-10"/>
<polygon fill="#63b8ff" stroke="#63b8ff" points="290.8,-13.5 300.8,-10 290.8,-6.5 290.8,-13.5"/>
</a>
</g>
</g>
<!-- Node6&#45;&gt;Node4 -->
<g id="edge6_Node000006_Node000004" class="edge">
<title>Node6&#45;&gt;Node4</title>
<g id="a_edge6_Node000006_Node000004"><a xlink:title=" ">
<path fill="none" stroke="#63b8ff" d="M406.94,-17.67C415.53,-18.95 424.42,-20.27 432.97,-21.54"/>
<polygon fill="#63b8ff" stroke="#63b8ff" points="432.17,-25.1 442.57,-23.11 433.19,-18.18 432.17,-25.1"/>
</a>
</g>
</g>
</g>
</svg>

<g id="navigator" transform="translate(0 0)" fill="#404254">
  <rect fill="#f2f5e9" fill-opacity="0.5" stroke="#606060" stroke-width=".5" x="0" y="0" width="60" height="60"/>
  <use id="zoomplus" xlink:href="#zoomPlus" x="17" y="9" onmousedown="handleZoom(evt,'in')"/>
  <use id="zoomminus" xlink:href="#zoomMin" x="42" y="9" onmousedown="handleZoom(evt,'out')"/>
  <use id="reset" xlink:href="#resetDef" x="30" y="36" onmousedown="handleReset()"/>
   <use id="arrowup" xlink:href="#arrowUp" x="0" y="0" onmousedown="handlePan(0,-1)"/>
  <use id="arrowright" xlink:href="#arrowRight" x="0" y="0" onmousedown="handlePan(1,0)"/>
  <use id="arrowdown" xlink:href="#arrowDown" x="0" y="0" onmousedown="handlePan(0,1)"/>
  <use id="arrowleft" xlink:href="#arrowLeft" x="0" y="0" onmousedown="handlePan(-1,0)"/>
</g>
<svg viewBox="0 0 15 15" width="100%" height="30px" preserveAspectRatio="xMaxYMin meet">
 <g id="arrow_out" transform="scale(0.3 0.3)">
  <a xlink:href="classxml__buffered__writer_aa733cb2cd0d5fcacec92c67a7f26c553_cgraph_org.svg" target="_base">
   <rect id="button" ry="5" rx="5" y="6" x="6" height="38" width="38"
        fill="#f2f5e9" fill-opacity="0.5" stroke="#606060" stroke-width="1.0"/>
   <path id="arrow"
     d="M 11.500037,31.436501 C 11.940474,20.09759 22.043105,11.32322 32.158766,21.979434 L 37.068811,17.246167 C 37.068811,17.246167 37.088388,32 37.088388,32 L 22.160133,31.978069 C 22.160133,31.978069 26.997745,27.140456 26.997745,27.140456 C 18.528582,18.264221 13.291696,25.230495 11.500037,31.436501 z"
     style="fill:#404040;"/>
  </a>
 </g>
</svg>

<style type='text/css'>
<![CDATA[
[data-mouse-over-selected='false'] { opacity: 0.7; }
[data-mouse-over-selected='true']  { opacity: 1.0; }
]]>
</style>
<script type="application/ecmascript"><![CDATA[
document.addEventListener('DOMContentLoaded', (event) => {
  highlightEdges();
  highlightAdjacentNodes();
});
]]></script>
</svg>
