<?xml version="1.0" encoding="UTF-8" standalone="no"?>
<!DOCTYPE svg PUBLIC "-//W3C//DTD SVG 1.1//EN"
 "http://www.w3.org/Graphics/SVG/1.1/DTD/svg11.dtd">
<!-- Generated by graphviz version 8.1.0 (20230707.0739)
 -->
<!-- Title: xml_buffered_writer::write_buffer Pages: 1 -->
<svg width="665pt" height="134pt"
 viewBox="0.00 0.00 664.75 134.00" xmlns="http://www.w3.org/2000/svg" xmlns:xlink="http://www.w3.org/1999/xlink">
<g id="graph0" class="graph" transform="scale(1 1) rotate(0) translate(4 130)">
<title>xml_buffered_writer::write_buffer</title>
<!-- Node1 -->
<g id="Node000001" class="node">
<title>Node1</title>
<g id="a_Node000001"><a xlink:title=" ">
<polygon fill="#999999" stroke="#666666" points="99.25,-64 0,-64 0,-32 99.25,-32 99.25,-64"/>
<text text-anchor="start" x="8" y="-50.5" font-family="Helvetica,sans-Serif" font-size="10.00">xml_buffered_writer</text>
<text text-anchor="middle" x="49.62" y="-38.5" font-family="Helvetica,sans-Serif" font-size="10.00">::write_buffer</text>
</a>
</g>
</g>
<!-- Node2 -->
<g id="Node000002" class="node">
<title>Node2</title>
<g id="a_Node000002"><a xlink:href="../../db/dd3/classxml__buffered__writer.html#a119f9db2f60e578e69ac81177e932fb3" target="_top" xlink:title=" ">
<polygon fill="white" stroke="#666666" points="234.5,-64 135.25,-64 135.25,-32 234.5,-32 234.5,-64"/>
<text text-anchor="start" x="143.25" y="-50.5" font-family="Helvetica,sans-Serif" font-size="10.00">xml_buffered_writer</text>
<text text-anchor="middle" x="184.88" y="-38.5" font-family="Helvetica,sans-Serif" font-size="10.00">::write_direct</text>
</a>
</g>
</g>
<!-- Node1&#45;&gt;Node2 -->
<g id="edge1_Node000001_Node000002" class="edge">
<title>Node1&#45;&gt;Node2</title>
<g id="a_edge1_Node000001_Node000002"><a xlink:title=" ">
<path fill="none" stroke="#63b8ff" d="M99.49,-48C107.54,-48 115.97,-48 124.26,-48"/>
<polygon fill="#63b8ff" stroke="#63b8ff" points="124.02,-51.5 134.02,-48 124.02,-44.5 124.02,-51.5"/>
</a>
</g>
</g>
<!-- Node3 -->
<g id="Node000003" class="node">
<title>Node3</title>
<g id="a_Node000003"><a xlink:href="../../db/dd3/classxml__buffered__writer.html#a4789b8661f9ff4e5e4bb4226f7d45997" target="_top" xlink:title=" ">
<polygon fill="white" stroke="#666666" points="384.75,-108 285.5,-108 285.5,-76 384.75,-76 384.75,-108"/>
<text text-anchor="start" x="293.5" y="-94.5" font-family="Helvetica,sans-Serif" font-size="10.00">xml_buffered_writer</text>
<text text-anchor="middle" x="335.12" y="-82.5" font-family="Helvetica,sans-Serif" font-size="10.00">::flush</text>
</a>
</g>
</g>
<!-- Node2&#45;&gt;Node3 -->
<g id="edge2_Node000002_Node000003" class="edge">
<title>Node2&#45;&gt;Node3</title>
<g id="a_edge2_Node000002_Node000003"><a xlink:title=" ">
<path fill="none" stroke="#63b8ff" d="M234.83,-62.53C247.61,-66.32 261.52,-70.45 274.77,-74.38"/>
<polygon fill="#63b8ff" stroke="#63b8ff" points="273.64,-78 284.22,-77.49 275.63,-71.29 273.64,-78"/>
</a>
</g>
</g>
<!-- Node4 -->
<g id="Node000004" class="node">
<title>Node4</title>
<g id="a_Node000004"><a xlink:href="../../db/d20/pugixml_8cpp.html#a5dfd2dce8fc6dd9268a19ed553884234" target="_top" xlink:title=" ">
<polygon fill="white" stroke="#666666" points="377.62,-58 292.62,-58 292.62,-38 377.62,-38 377.62,-58"/>
<text text-anchor="middle" x="335.12" y="-44.5" font-family="Helvetica,sans-Serif" font-size="10.00">get_valid_length</text>
</a>
</g>
</g>
<!-- Node2&#45;&gt;Node4 -->
<g id="edge4_Node000002_Node000004" class="edge">
<title>Node2&#45;&gt;Node4</title>
<g id="a_edge4_Node000002_Node000004"><a xlink:title=" ">
<path fill="none" stroke="#63b8ff" d="M234.83,-48C249.76,-48 266.24,-48 281.4,-48"/>
<polygon fill="#63b8ff" stroke="#63b8ff" points="281.18,-51.5 291.18,-48 281.18,-44.5 281.18,-51.5"/>
</a>
</g>
</g>
<!-- Node5 -->
<g id="Node000005" class="node">
<title>Node5</title>
<g id="a_Node000005"><a xlink:href="../../db/d20/pugixml_8cpp.html#a12b9d6cff4d37c68755263d0687c62b1" target="_top" xlink:title=" ">
<polygon fill="white" stroke="#666666" points="399.75,-20 270.5,-20 270.5,0 399.75,0 399.75,-20"/>
<text text-anchor="middle" x="335.12" y="-6.5" font-family="Helvetica,sans-Serif" font-size="10.00">get_write_native_encoding</text>
</a>
</g>
</g>
<!-- Node2&#45;&gt;Node5 -->
<g id="edge5_Node000002_Node000005" class="edge">
<title>Node2&#45;&gt;Node5</title>
<g id="a_edge5_Node000002_Node000005"><a xlink:title=" ">
<path fill="none" stroke="#63b8ff" d="M234.83,-35.45C250.32,-31.48 267.47,-27.09 283.09,-23.08"/>
<polygon fill="#63b8ff" stroke="#63b8ff" points="283.81,-26.25 292.63,-20.38 282.08,-19.47 283.81,-26.25"/>
</a>
</g>
</g>
<!-- Node3&#45;&gt;Node3 -->
<g id="edge3_Node000003_Node000003" class="edge">
<title>Node3&#45;&gt;Node3</title>
<g id="a_edge3_Node000003_Node000003"><a xlink:title=" ">
<path fill="none" stroke="#63b8ff" d="M308.3,-108.44C303.29,-117.58 312.24,-126 335.12,-126 348.36,-126 356.93,-123.19 360.84,-119.05"/>
<polygon fill="#63b8ff" stroke="#63b8ff" points="364.39,-119.75 361.95,-109.44 357.43,-119.02 364.39,-119.75"/>
</a>
</g>
</g>
<!-- Node6 -->
<g id="Node000006" class="node">
<title>Node6</title>
<g id="a_Node000006"><a xlink:href="../../db/d20/pugixml_8cpp.html#a1d386e9425e75d35b01373e46f186b9c" target="_top" xlink:title=" ">
<polygon fill="white" stroke="#666666" points="540.25,-20 435.75,-20 435.75,0 540.25,0 540.25,-20"/>
<text text-anchor="middle" x="488" y="-6.5" font-family="Helvetica,sans-Serif" font-size="10.00">get_wchar_encoding</text>
</a>
</g>
</g>
<!-- Node5&#45;&gt;Node6 -->
<g id="edge6_Node000005_Node000006" class="edge">
<title>Node5&#45;&gt;Node6</title>
<g id="a_edge6_Node000005_Node000006"><a xlink:title=" ">
<path fill="none" stroke="#63b8ff" d="M400.11,-10C408.17,-10 416.41,-10 424.45,-10"/>
<polygon fill="#63b8ff" stroke="#63b8ff" points="424.25,-13.5 434.25,-10 424.25,-6.5 424.25,-13.5"/>
</a>
</g>
</g>
<!-- Node7 -->
<g id="Node000007" class="node">
<title>Node7</title>
<g id="a_Node000007"><a xlink:href="../../db/d20/pugixml_8cpp.html#a282e2854710450f313ea03bb59a8f681" target="_top" xlink:title=" ">
<polygon fill="white" stroke="#666666" points="656.75,-20 576.25,-20 576.25,0 656.75,0 656.75,-20"/>
<text text-anchor="middle" x="616.5" y="-6.5" font-family="Helvetica,sans-Serif" font-size="10.00">is_little_endian</text>
</a>
</g>
</g>
<!-- Node6&#45;&gt;Node7 -->
<g id="edge7_Node000006_Node000007" class="edge">
<title>Node6&#45;&gt;Node7</title>
<g id="a_edge7_Node000006_Node000007"><a xlink:title=" ">
<path fill="none" stroke="#63b8ff" d="M540.45,-10C548.64,-10 557.09,-10 565.25,-10"/>
<polygon fill="#63b8ff" stroke="#63b8ff" points="565.12,-13.5 575.12,-10 565.12,-6.5 565.12,-13.5"/>
</a>
</g>
</g>
</g>
</svg>
