<?xml version="1.0" encoding="UTF-8" standalone="no"?>
<!DOCTYPE svg PUBLIC "-//W3C//DTD SVG 1.1//EN"
 "http://www.w3.org/Graphics/SVG/1.1/DTD/svg11.dtd">
<!-- Generated by graphviz version 8.1.0 (20230707.0739)
 -->
<!-- Title: xml_buffered_writer::write Pages: 1 -->
<!--zoomable 360 -->

<svg id="main" version="1.1" xmlns="http://www.w3.org/2000/svg" xmlns:xlink="http://www.w3.org/1999/xlink" xml:space="preserve" onload="init(evt)">
<style type="text/css"><![CDATA[
.node, .edge {opacity: 0.7;}
.node.selected, .edge.selected {opacity: 1;}
.edge:hover path { stroke: red; }
.edge:hover polygon { stroke: red; fill: red; }
]]></style>

<defs>
  <circle id="rim" cx="0" cy="0" r="7"/>
  <circle id="rim2" cx="0" cy="0" r="3.5"/>
  <g id="zoomPlus">
    <use xlink:href="#rim" fill="#404040"><set attributeName="fill" to="#808080" begin="zoomplus.mouseover" end="zoomplus.mouseout"/></use>
    <path d="M-4,0h8M0,-4v8" fill="none" stroke="white" stroke-width="1.5" pointer-events="none"/>
  </g>
  <g id="zoomMin">
    <use xlink:href="#rim" fill="#404040"><set attributeName="fill" to="#808080" begin="zoomminus.mouseover" end="zoomminus.mouseout"/></use>
    <path d="M-4,0h8" fill="none" stroke="white" stroke-width="1.5" pointer-events="none"/>
  </g>
  <g id="arrowUp" transform="translate(30 24)">
    <use xlink:href="#rim"/>
    <path pointer-events="none" fill="none" stroke="white" stroke-width="1.5" d="M0,-3.0v7 M-2.5,-0.5L0,-3.0L2.5,-0.5"/>
  </g>
  <g id="arrowRight" transform="rotate(90) translate(36 -43)">
    <use xlink:href="#rim"/>
    <path pointer-events="none" fill="none" stroke="white" stroke-width="1.5" d="M0,-3.0v7 M-2.5,-0.5L0,-3.0L2.5,-0.5"/>
  </g>
  <g id="arrowDown" transform="rotate(180) translate(-30 -48)">
    <use xlink:href="#rim"/>
    <path pointer-events="none" fill="none" stroke="white" stroke-width="1.5" d="M0,-3.0v7 M-2.5,-0.5L0,-3.0L2.5,-0.5"/>
  </g>
  <g id="arrowLeft" transform="rotate(270) translate(-36 17)">
    <use xlink:href="#rim"/>
    <path pointer-events="none" fill="none" stroke="white" stroke-width="1.5" d="M0,-3.0v7 M-2.5,-0.5L0,-3.0L2.5,-0.5"/>
  </g>
  <g id="resetDef">
    <use xlink:href="#rim2" fill="#404040"><set attributeName="fill" to="#808080" begin="reset.mouseover" end="reset.mouseout"/></use>
  </g>
</defs>
<script type="application/ecmascript">
var viewWidth = 790;
var viewHeight = 360;
var sectionId = 'dynsection-5';
</script>
<script type="application/ecmascript" xlink:href="../../svg.min.js"/>
<svg id="graph" class="graph">
<g id="viewport">
<title>xml_buffered_writer::write</title>
<!-- Node1 -->
<g id="Node000001" class="node">
<title>Node1</title>
<g id="a_Node000001"><a xlink:title=" ">
<polygon fill="#999999" stroke="#666666" points="782.25,-188.22 683,-188.22 683,-156.22 782.25,-156.22 782.25,-188.22"/>
<text text-anchor="start" x="691" y="-174.72" font-family="Helvetica,sans-Serif" font-size="10.00">xml_buffered_writer</text>
<text text-anchor="middle" x="732.62" y="-162.72" font-family="Helvetica,sans-Serif" font-size="10.00">::write</text>
</a>
</g>
</g>
<!-- Node2 -->
<g id="Node000002" class="node">
<title>Node2</title>
<g id="a_Node000002"><a xlink:href="../../db/d20/pugixml_8cpp.html#a2972dfcdf48725e48ce2901d08f7b4ae" target="_top" xlink:title=" ">
<polygon fill="white" stroke="#666666" points="69.25,-182.22 0,-182.22 0,-162.22 69.25,-162.22 69.25,-182.22"/>
<text text-anchor="middle" x="34.62" y="-168.72" font-family="Helvetica,sans-Serif" font-size="10.00">node_output</text>
</a>
</g>
</g>
<!-- Node1&#45;&gt;Node2 -->
<g id="edge1_Node000001_Node000002" class="edge">
<title>Node1&#45;&gt;Node2</title>
<g id="a_edge1_Node000001_Node000002"><a xlink:title=" ">
<path fill="none" stroke="#63b8ff" d="M725.02,-198.97C714.78,-234.21 691.46,-295.11 647,-324.22 573.68,-372.22 538.38,-343.22 450.75,-343.22 450.75,-343.22 450.75,-343.22 300.75,-343.22 205.28,-343.22 181.42,-311.77 105.25,-254.22 77.53,-233.28 53.34,-199.48 42.18,-182.56"/>
<polygon fill="#63b8ff" stroke="#63b8ff" points="728.62,-200.07 727.89,-189.5 721.87,-198.22 728.62,-200.07"/>
</a>
</g>
</g>
<!-- Node3 -->
<g id="Node000003" class="node">
<title>Node3</title>
<g id="a_Node000003"><a xlink:href="../../db/d20/pugixml_8cpp.html#ae35e737e5b408f763f6fe89874ec87cf" target="_top" xlink:title=" ">
<polygon fill="white" stroke="#666666" points="359.25,-49.22 244.25,-49.22 244.25,-29.22 359.25,-29.22 359.25,-49.22"/>
<text text-anchor="middle" x="301.75" y="-35.72" font-family="Helvetica,sans-Serif" font-size="10.00">node_output_attributes</text>
</a>
</g>
</g>
<!-- Node1&#45;&gt;Node3 -->
<g id="edge2_Node000001_Node000003" class="edge">
<title>Node1&#45;&gt;Node3</title>
<g id="a_edge2_Node000001_Node000003"><a xlink:title=" ">
<path fill="none" stroke="#63b8ff" d="M711.53,-147.78C695.84,-130.46 672.48,-108.24 647,-96.22 544.66,-47.94 506.65,-78.05 395.25,-58.22 380.88,-55.66 365.33,-52.58 351.14,-49.66"/>
<polygon fill="#63b8ff" stroke="#63b8ff" points="709.37,-149.62 718.59,-154.83 714.63,-145 709.37,-149.62"/>
</a>
</g>
</g>
<!-- Node4 -->
<g id="Node000004" class="node">
<title>Node4</title>
<g id="a_Node000004"><a xlink:href="../../db/d20/pugixml_8cpp.html#a2a7a7ce70701692e97923c850b3cc130" target="_top" xlink:title=" ">
<polygon fill="white" stroke="#666666" points="208.25,-182.22 105.25,-182.22 105.25,-162.22 208.25,-162.22 208.25,-182.22"/>
<text text-anchor="middle" x="156.75" y="-168.72" font-family="Helvetica,sans-Serif" font-size="10.00">node_output_simple</text>
</a>
</g>
</g>
<!-- Node1&#45;&gt;Node4 -->
<g id="edge13_Node000001_Node000004" class="edge">
<title>Node1&#45;&gt;Node4</title>
<g id="a_edge13_Node000001_Node000004"><a xlink:title=" ">
<path fill="none" stroke="#63b8ff" d="M696.73,-193.99C681.91,-202.25 664.13,-210.94 647,-216.22 475.4,-269.11 412.28,-311.55 244.25,-248.22 209.08,-234.96 178.92,-200.19 165.37,-182.65"/>
<polygon fill="#63b8ff" stroke="#63b8ff" points="698.07,-196.67 705,-188.66 694.58,-190.61 698.07,-196.67"/>
</a>
</g>
</g>
<!-- Node5 -->
<g id="Node000005" class="node">
<title>Node5</title>
<g id="a_Node000005"><a xlink:href="../../db/d20/pugixml_8cpp.html#abe15f1e5861695b34b8581805703d03a" target="_top" xlink:title=" ">
<polygon fill="white" stroke="#666666" points="203.75,-68.22 109.75,-68.22 109.75,-48.22 203.75,-48.22 203.75,-68.22"/>
<text text-anchor="middle" x="156.75" y="-54.72" font-family="Helvetica,sans-Serif" font-size="10.00">node_output_start</text>
</a>
</g>
</g>
<!-- Node1&#45;&gt;Node5 -->
<g id="edge14_Node000001_Node000005" class="edge">
<title>Node1&#45;&gt;Node5</title>
<g id="a_edge14_Node000001_Node000005"><a xlink:title=" ">
<path fill="none" stroke="#63b8ff" d="M724.03,-145.78C713,-112.7 689.11,-57.24 647,-31.22 598.38,-1.17 300.52,-8.4 244.25,-20.22 219.21,-25.48 192.57,-38.44 175.57,-47.76"/>
<polygon fill="#63b8ff" stroke="#63b8ff" points="720.93,-146.59 727.29,-155.07 727.61,-144.48 720.93,-146.59"/>
</a>
</g>
</g>
<!-- Node6 -->
<g id="Node000006" class="node">
<title>Node6</title>
<g id="a_Node000006"><a xlink:href="../../db/d20/pugixml_8cpp.html#a41713d70abc2d1fce3f8aca10f450a1d" target="_top" xlink:title=" ">
<polygon fill="white" stroke="#666666" points="359.25,-239.22 244.25,-239.22 244.25,-219.22 359.25,-219.22 359.25,-239.22"/>
<text text-anchor="middle" x="301.75" y="-225.72" font-family="Helvetica,sans-Serif" font-size="10.00">node_output_comment</text>
</a>
</g>
</g>
<!-- Node1&#45;&gt;Node6 -->
<g id="edge7_Node000001_Node000006" class="edge">
<title>Node1&#45;&gt;Node6</title>
<g id="a_edge7_Node000001_Node000006"><a xlink:title=" ">
<path fill="none" stroke="#63b8ff" d="M672.19,-189.66C663.78,-191.75 655.21,-193.68 647,-195.22 546.79,-213.97 428.12,-222.81 359.52,-226.63"/>
<polygon fill="#63b8ff" stroke="#63b8ff" points="672.9,-192.83 681.71,-186.94 671.15,-186.05 672.9,-192.83"/>
</a>
</g>
</g>
<!-- Node7 -->
<g id="Node000007" class="node">
<title>Node7</title>
<g id="a_Node000007"><a xlink:href="../../db/d20/pugixml_8cpp.html#a8113621e64072a3ad2225574db0d5449" target="_top" xlink:title=" ">
<polygon fill="white" stroke="#666666" points="638.75,-315.22 548.5,-315.22 548.5,-295.22 638.75,-295.22 638.75,-315.22"/>
<text text-anchor="middle" x="593.62" y="-301.72" font-family="Helvetica,sans-Serif" font-size="10.00">node_output_end</text>
</a>
</g>
</g>
<!-- Node1&#45;&gt;Node7 -->
<g id="edge9_Node000001_Node000007" class="edge">
<title>Node1&#45;&gt;Node7</title>
<g id="a_edge9_Node000001_Node000007"><a xlink:title=" ">
<path fill="none" stroke="#63b8ff" d="M716.76,-197.88C701.73,-222.01 676.54,-257.81 647,-281.22 640.1,-286.68 631.76,-291.23 623.78,-294.84"/>
<polygon fill="#63b8ff" stroke="#63b8ff" points="720.18,-200 722.38,-189.64 714.2,-196.37 720.18,-200"/>
</a>
</g>
</g>
<!-- Node8 -->
<g id="Node000008" class="node">
<title>Node8</title>
<g id="a_Node000008"><a xlink:href="../../db/d20/pugixml_8cpp.html#a4738723860e1782016479760528efd62" target="_top" xlink:title=" ">
<polygon fill="white" stroke="#666666" points="504.25,-201.22 395.25,-201.22 395.25,-181.22 504.25,-181.22 504.25,-201.22"/>
<text text-anchor="middle" x="449.75" y="-187.72" font-family="Helvetica,sans-Serif" font-size="10.00">node_output_pi_value</text>
</a>
</g>
</g>
<!-- Node1&#45;&gt;Node8 -->
<g id="edge11_Node000001_Node000008" class="edge">
<title>Node1&#45;&gt;Node8</title>
<g id="a_edge11_Node000001_Node000008"><a xlink:title=" ">
<path fill="none" stroke="#63b8ff" d="M671.81,-176.26C622.17,-179.62 552.22,-184.35 504.38,-187.59"/>
<polygon fill="#63b8ff" stroke="#63b8ff" points="671.96,-179.69 681.7,-175.53 671.49,-172.71 671.96,-179.69"/>
</a>
</g>
</g>
<!-- Node9 -->
<g id="Node000009" class="node">
<title>Node9</title>
<g id="a_Node000009"><a xlink:href="../../db/d20/pugixml_8cpp.html#a21f7b54b5d3837583ca0da632f7c27fc" target="_top" xlink:title=" ">
<polygon fill="white" stroke="#666666" points="348.75,-163.22 254.75,-163.22 254.75,-143.22 348.75,-143.22 348.75,-163.22"/>
<text text-anchor="middle" x="301.75" y="-149.72" font-family="Helvetica,sans-Serif" font-size="10.00">text_output_cdata</text>
</a>
</g>
</g>
<!-- Node1&#45;&gt;Node9 -->
<g id="edge15_Node000001_Node000009" class="edge">
<title>Node1&#45;&gt;Node9</title>
<g id="a_edge15_Node000001_Node000009"><a xlink:title=" ">
<path fill="none" stroke="#63b8ff" d="M671.91,-169.57C585.52,-165.75 427.47,-158.74 349.2,-155.28"/>
<polygon fill="#63b8ff" stroke="#63b8ff" points="671.7,-173.11 681.85,-170.06 672.01,-166.12 671.7,-173.11"/>
</a>
</g>
</g>
<!-- Node10 -->
<g id="Node000010" class="node">
<title>Node10</title>
<g id="a_Node000010"><a xlink:href="../../db/d20/pugixml_8cpp.html#affde71fa96c9fca0c49b21e22ba197c5" target="_top" xlink:title=" ">
<polygon fill="white" stroke="#666666" points="647,-125.22 540.25,-125.22 540.25,-105.22 647,-105.22 647,-125.22"/>
<text text-anchor="middle" x="593.62" y="-111.72" font-family="Helvetica,sans-Serif" font-size="10.00">text_output_escaped</text>
</a>
</g>
</g>
<!-- Node1&#45;&gt;Node10 -->
<g id="edge17_Node000001_Node000010" class="edge">
<title>Node1&#45;&gt;Node10</title>
<g id="a_edge17_Node000001_Node000010"><a xlink:title=" ">
<path fill="none" stroke="#63b8ff" d="M681.84,-151.51C660.65,-142.69 636.87,-132.8 619.5,-125.57"/>
<polygon fill="#63b8ff" stroke="#63b8ff" points="680.42,-155.12 691,-155.73 683.11,-148.66 680.42,-155.12"/>
</a>
</g>
</g>
<!-- Node12 -->
<g id="Node000012" class="node">
<title>Node12</title>
<g id="a_Node000012"><a xlink:href="../../db/d20/pugixml_8cpp.html#a804b556de6a32d00218a37496aef4630" target="_top" xlink:title=" ">
<polygon fill="white" stroke="#666666" points="497.88,-49.22 401.62,-49.22 401.62,-29.22 497.88,-29.22 497.88,-49.22"/>
<text text-anchor="middle" x="449.75" y="-35.72" font-family="Helvetica,sans-Serif" font-size="10.00">text_output_indent</text>
</a>
</g>
</g>
<!-- Node1&#45;&gt;Node12 -->
<g id="edge22_Node000001_Node000012" class="edge">
<title>Node1&#45;&gt;Node12</title>
<g id="a_edge22_Node000001_Node000012"><a xlink:title=" ">
<path fill="none" stroke="#63b8ff" d="M719.31,-146.46C705.54,-120.72 680.66,-82.32 647,-63.22 601.32,-37.3 540.15,-33.79 498.31,-35.16"/>
<polygon fill="#63b8ff" stroke="#63b8ff" points="716.52,-147.67 724.21,-154.96 722.74,-144.47 716.52,-147.67"/>
</a>
</g>
</g>
<!-- Node3&#45;&gt;Node4 -->
<g id="edge3_Node000003_Node000004" class="edge">
<title>Node3&#45;&gt;Node4</title>
<g id="a_edge3_Node000003_Node000004"><a xlink:title=" ">
<path fill="none" stroke="#63b8ff" d="M281.79,-56.85C251.55,-84.98 193.31,-139.15 168.92,-161.83"/>
<polygon fill="#63b8ff" stroke="#63b8ff" points="283.59,-60.03 288.53,-50.65 278.82,-54.9 283.59,-60.03"/>
</a>
</g>
</g>
<!-- Node3&#45;&gt;Node5 -->
<g id="edge5_Node000003_Node000005" class="edge">
<title>Node3&#45;&gt;Node5</title>
<g id="a_edge5_Node000003_Node000005"><a xlink:title=" ">
<path fill="none" stroke="#63b8ff" d="M233.16,-48.2C223.26,-49.51 213.27,-50.84 203.93,-52.08"/>
<polygon fill="#63b8ff" stroke="#63b8ff" points="233.37,-51.57 242.82,-46.78 232.45,-44.63 233.37,-51.57"/>
</a>
</g>
</g>
<!-- Node4&#45;&gt;Node2 -->
<g id="edge4_Node000004_Node000002" class="edge">
<title>Node4&#45;&gt;Node2</title>
<g id="a_edge4_Node000004_Node000002"><a xlink:title=" ">
<path fill="none" stroke="#63b8ff" d="M93.85,-172.22C85.5,-172.22 77.19,-172.22 69.58,-172.22"/>
<polygon fill="#63b8ff" stroke="#63b8ff" points="93.81,-175.72 103.81,-172.22 93.81,-168.72 93.81,-175.72"/>
</a>
</g>
</g>
<!-- Node5&#45;&gt;Node2 -->
<g id="edge6_Node000005_Node000002" class="edge">
<title>Node5&#45;&gt;Node2</title>
<g id="a_edge6_Node000005_Node000002"><a xlink:title=" ">
<path fill="none" stroke="#63b8ff" d="M137.29,-75.74C111.89,-99.84 66.98,-142.46 46.43,-161.96"/>
<polygon fill="#63b8ff" stroke="#63b8ff" points="139.25,-78.76 144.09,-69.33 134.43,-73.68 139.25,-78.76"/>
</a>
</g>
</g>
<!-- Node6&#45;&gt;Node4 -->
<g id="edge8_Node000006_Node000004" class="edge">
<title>Node6&#45;&gt;Node4</title>
<g id="a_edge8_Node000006_Node000004"><a xlink:title=" ">
<path fill="none" stroke="#63b8ff" d="M264.61,-214.81C239.43,-204.78 206.44,-191.63 183.81,-182.61"/>
<polygon fill="#63b8ff" stroke="#63b8ff" points="262.94,-218.31 273.52,-218.76 265.53,-211.81 262.94,-218.31"/>
</a>
</g>
</g>
<!-- Node7&#45;&gt;Node2 -->
<g id="edge10_Node000007_Node000002" class="edge">
<title>Node7&#45;&gt;Node2</title>
<g id="a_edge10_Node000007_Node000002"><a xlink:title=" ">
<path fill="none" stroke="#63b8ff" d="M537.53,-306.98C467.89,-307.77 344.95,-304.38 244.25,-276.22 167.28,-254.69 84.9,-204.48 51.27,-182.66"/>
<polygon fill="#63b8ff" stroke="#63b8ff" points="537.29,-310.47 547.24,-306.82 537.19,-303.47 537.29,-310.47"/>
</a>
</g>
</g>
<!-- Node8&#45;&gt;Node4 -->
<g id="edge12_Node000008_Node000004" class="edge">
<title>Node8&#45;&gt;Node4</title>
<g id="a_edge12_Node000008_Node000004"><a xlink:title=" ">
<path fill="none" stroke="#63b8ff" d="M384.09,-187C331.21,-183.54 257.47,-178.73 208.71,-175.55"/>
<polygon fill="#63b8ff" stroke="#63b8ff" points="383.83,-190.55 394.04,-187.71 384.29,-183.57 383.83,-190.55"/>
</a>
</g>
</g>
<!-- Node9&#45;&gt;Node4 -->
<g id="edge16_Node000009_Node000004" class="edge">
<title>Node9&#45;&gt;Node4</title>
<g id="a_edge16_Node000009_Node000004"><a xlink:title=" ">
<path fill="none" stroke="#63b8ff" d="M243.77,-160.79C232.08,-162.34 219.84,-163.97 208.39,-165.49"/>
<polygon fill="#63b8ff" stroke="#63b8ff" points="243.87,-164.17 253.32,-159.39 242.95,-157.23 243.87,-164.17"/>
</a>
</g>
</g>
<!-- Node11 -->
<g id="Node000011" class="node">
<title>Node11</title>
<g id="a_Node000011"><a xlink:href="../../db/d20/pugixml_8cpp.html#ad40396398fcbab11c9283b516f766413" target="_top" xlink:title=" ">
<polygon fill="white" stroke="#666666" points="482.12,-125.22 417.38,-125.22 417.38,-105.22 482.12,-105.22 482.12,-125.22"/>
<text text-anchor="middle" x="449.75" y="-111.72" font-family="Helvetica,sans-Serif" font-size="10.00">text_output</text>
</a>
</g>
</g>
<!-- Node10&#45;&gt;Node11 -->
<g id="edge18_Node000010_Node000011" class="edge">
<title>Node10&#45;&gt;Node11</title>
<g id="a_edge18_Node000010_Node000011"><a xlink:title=" ">
<path fill="none" stroke="#63b8ff" d="M528.82,-115.22C512.8,-115.22 496.29,-115.22 482.6,-115.22"/>
<polygon fill="#63b8ff" stroke="#63b8ff" points="528.8,-118.72 538.8,-115.22 528.8,-111.72 528.8,-118.72"/>
</a>
</g>
</g>
<!-- Node11&#45;&gt;Node3 -->
<g id="edge19_Node000011_Node000003" class="edge">
<title>Node11&#45;&gt;Node3</title>
<g id="a_edge19_Node000011_Node000003"><a xlink:title=" ">
<path fill="none" stroke="#63b8ff" d="M412.5,-100.38C406.61,-97.57 400.67,-94.48 395.25,-91.22 377.88,-80.77 376.72,-73.49 359.25,-63.22 350.52,-58.09 340.49,-53.46 331.33,-49.67"/>
<polygon fill="#63b8ff" stroke="#63b8ff" points="410.71,-103.87 421.27,-104.83 413.62,-97.5 410.71,-103.87"/>
</a>
</g>
</g>
<!-- Node11&#45;&gt;Node4 -->
<g id="edge20_Node000011_Node000004" class="edge">
<title>Node11&#45;&gt;Node4</title>
<g id="a_edge20_Node000011_Node000004"><a xlink:title=" ">
<path fill="none" stroke="#63b8ff" d="M406.14,-115.22C364.29,-116.15 298.95,-120.06 244.25,-134.22 219.95,-140.51 193.8,-152.85 176.69,-161.77"/>
<polygon fill="#63b8ff" stroke="#63b8ff" points="406.09,-118.71 416.03,-115.04 405.97,-111.71 406.09,-118.71"/>
</a>
</g>
</g>
<!-- Node11&#45;&gt;Node5 -->
<g id="edge21_Node000011_Node000005" class="edge">
<title>Node11&#45;&gt;Node5</title>
<g id="a_edge21_Node000011_Node000005"><a xlink:title=" ">
<path fill="none" stroke="#63b8ff" d="M406.51,-106.94C352.7,-96.4 260,-78.25 204.23,-67.32"/>
<polygon fill="#63b8ff" stroke="#63b8ff" points="405.57,-110.52 416.05,-109.01 406.91,-103.65 405.57,-110.52"/>
</a>
</g>
</g>
<!-- Node12&#45;&gt;Node2 -->
<g id="edge23_Node000012_Node000002" class="edge">
<title>Node12&#45;&gt;Node2</title>
<g id="a_edge23_Node000012_Node000002"><a xlink:title=" ">
<path fill="none" stroke="#63b8ff" d="M408.28,-25.56C339.16,-4.97 196.98,25.19 105.25,-39.22 61.74,-69.77 43.36,-136.09 37.69,-161.77"/>
<polygon fill="#63b8ff" stroke="#63b8ff" points="407.14,-29.18 417.72,-28.77 409.19,-22.49 407.14,-29.18"/>
</a>
</g>
</g>
<!-- Node12&#45;&gt;Node3 -->
<g id="edge24_Node000012_Node000003" class="edge">
<title>Node12&#45;&gt;Node3</title>
<g id="a_edge24_Node000012_Node000003"><a xlink:title=" ">
<path fill="none" stroke="#63b8ff" d="M390.5,-39.22C380.31,-39.22 369.73,-39.22 359.59,-39.22"/>
<polygon fill="#63b8ff" stroke="#63b8ff" points="390.35,-42.72 400.35,-39.22 390.35,-35.72 390.35,-42.72"/>
</a>
</g>
</g>
</g>
</svg>

<g id="navigator" transform="translate(0 0)" fill="#404254">
  <rect fill="#f2f5e9" fill-opacity="0.5" stroke="#606060" stroke-width=".5" x="0" y="0" width="60" height="60"/>
  <use id="zoomplus" xlink:href="#zoomPlus" x="17" y="9" onmousedown="handleZoom(evt,'in')"/>
  <use id="zoomminus" xlink:href="#zoomMin" x="42" y="9" onmousedown="handleZoom(evt,'out')"/>
  <use id="reset" xlink:href="#resetDef" x="30" y="36" onmousedown="handleReset()"/>
   <use id="arrowup" xlink:href="#arrowUp" x="0" y="0" onmousedown="handlePan(0,-1)"/>
  <use id="arrowright" xlink:href="#arrowRight" x="0" y="0" onmousedown="handlePan(1,0)"/>
  <use id="arrowdown" xlink:href="#arrowDown" x="0" y="0" onmousedown="handlePan(0,1)"/>
  <use id="arrowleft" xlink:href="#arrowLeft" x="0" y="0" onmousedown="handlePan(-1,0)"/>
</g>
<svg viewBox="0 0 15 15" width="100%" height="30px" preserveAspectRatio="xMaxYMin meet">
 <g id="arrow_out" transform="scale(0.3 0.3)">
  <a xlink:href="classxml__buffered__writer_a1aa829bd551a69dd9005d2d46063308f_icgraph_org.svg" target="_base">
   <rect id="button" ry="5" rx="5" y="6" x="6" height="38" width="38"
        fill="#f2f5e9" fill-opacity="0.5" stroke="#606060" stroke-width="1.0"/>
   <path id="arrow"
     d="M 11.500037,31.436501 C 11.940474,20.09759 22.043105,11.32322 32.158766,21.979434 L 37.068811,17.246167 C 37.068811,17.246167 37.088388,32 37.088388,32 L 22.160133,31.978069 C 22.160133,31.978069 26.997745,27.140456 26.997745,27.140456 C 18.528582,18.264221 13.291696,25.230495 11.500037,31.436501 z"
     style="fill:#404040;"/>
  </a>
 </g>
</svg>

<style type='text/css'>
<![CDATA[
[data-mouse-over-selected='false'] { opacity: 0.7; }
[data-mouse-over-selected='true']  { opacity: 1.0; }
]]>
</style>
<script type="application/ecmascript"><![CDATA[
document.addEventListener('DOMContentLoaded', (event) => {
  highlightEdges();
  highlightAdjacentNodes();
});
]]></script>
</svg>
