<?xml version="1.0" encoding="UTF-8" standalone="no"?>
<!DOCTYPE svg PUBLIC "-//W3C//DTD SVG 1.1//EN"
 "http://www.w3.org/Graphics/SVG/1.1/DTD/svg11.dtd">
<!-- Generated by graphviz version 8.1.0 (20230707.0739)
 -->
<!-- Title: carla::traffic_manager::TrackTraffic::GetOverlappingVehicles Pages: 1 -->
<svg width="973pt" height="96pt"
 viewBox="0.00 0.00 973.25 96.00" xmlns="http://www.w3.org/2000/svg" xmlns:xlink="http://www.w3.org/1999/xlink">
<g id="graph0" class="graph" transform="scale(1 1) rotate(0) translate(4 92)">
<title>carla::traffic_manager::TrackTraffic::GetOverlappingVehicles</title>
<!-- Node1 -->
<g id="Node000001" class="node">
<title>Node1</title>
<g id="a_Node000001"><a xlink:title=" ">
<polygon fill="#999999" stroke="#666666" points="965.25,-63 821.75,-63 821.75,-19 965.25,-19 965.25,-63"/>
<text text-anchor="start" x="829.75" y="-49.5" font-family="Helvetica,sans-Serif" font-size="10.00">carla::traffic_manager</text>
<text text-anchor="start" x="829.75" y="-37.5" font-family="Helvetica,sans-Serif" font-size="10.00">::TrackTraffic::GetOverlapping</text>
<text text-anchor="middle" x="893.5" y="-25.5" font-family="Helvetica,sans-Serif" font-size="10.00">Vehicles</text>
</a>
</g>
</g>
<!-- Node2 -->
<g id="Node000002" class="node">
<title>Node2</title>
<g id="a_Node000002"><a xlink:href="../../d6/da2/classcarla_1_1traffic__manager_1_1LocalizationStage.html#a9f76e39404feb468084348215d3765c9" target="_top" xlink:title=" ">
<polygon fill="white" stroke="#666666" points="785.75,-88 629.5,-88 629.5,-44 785.75,-44 785.75,-88"/>
<text text-anchor="start" x="637.5" y="-74.5" font-family="Helvetica,sans-Serif" font-size="10.00">carla::traffic_manager</text>
<text text-anchor="start" x="637.5" y="-62.5" font-family="Helvetica,sans-Serif" font-size="10.00">::LocalizationStage::AssignLane</text>
<text text-anchor="middle" x="707.62" y="-50.5" font-family="Helvetica,sans-Serif" font-size="10.00">Change</text>
</a>
</g>
</g>
<!-- Node1&#45;&gt;Node2 -->
<g id="edge1_Node000001_Node000002" class="edge">
<title>Node1&#45;&gt;Node2</title>
<g id="a_edge1_Node000001_Node000002"><a xlink:title=" ">
<path fill="none" stroke="#63b8ff" d="M810.77,-52.11C802.62,-53.22 794.35,-54.34 786.24,-55.45"/>
<polygon fill="#63b8ff" stroke="#63b8ff" points="810.97,-55.48 820.41,-50.67 810.03,-48.54 810.97,-55.48"/>
</a>
</g>
</g>
<!-- Node7 -->
<g id="Node000007" class="node">
<title>Node7</title>
<g id="a_Node000007"><a xlink:href="../../d1/d26/classcarla_1_1traffic__manager_1_1CollisionStage.html#ac446efd585519bce8de5740158758158" target="_top" xlink:title="更新方法。">
<polygon fill="white" stroke="#666666" points="586,-32 465,-32 465,0 586,0 586,-32"/>
<text text-anchor="start" x="473" y="-18.5" font-family="Helvetica,sans-Serif" font-size="10.00">carla::traffic_manager</text>
<text text-anchor="middle" x="525.5" y="-6.5" font-family="Helvetica,sans-Serif" font-size="10.00">::CollisionStage::Update</text>
</a>
</g>
</g>
<!-- Node1&#45;&gt;Node7 -->
<g id="edge6_Node000001_Node000007" class="edge">
<title>Node1&#45;&gt;Node7</title>
<g id="a_edge6_Node000001_Node000007"><a xlink:title=" ">
<path fill="none" stroke="#63b8ff" d="M810.83,-35.42C742.81,-30.78 647.53,-24.27 586.41,-20.09"/>
<polygon fill="#63b8ff" stroke="#63b8ff" points="810.28,-38.96 820.5,-36.15 810.76,-31.98 810.28,-38.96"/>
</a>
</g>
</g>
<!-- Node3 -->
<g id="Node000003" class="node">
<title>Node3</title>
<g id="a_Node000003"><a xlink:href="../../d6/da2/classcarla_1_1traffic__manager_1_1LocalizationStage.html#acf066b922ba5c21c6b6ee23d35731d91" target="_top" xlink:title="更新方法。">
<polygon fill="white" stroke="#666666" points="593.5,-82 457.5,-82 457.5,-50 593.5,-50 593.5,-82"/>
<text text-anchor="start" x="465.5" y="-68.5" font-family="Helvetica,sans-Serif" font-size="10.00">carla::traffic_manager</text>
<text text-anchor="middle" x="525.5" y="-56.5" font-family="Helvetica,sans-Serif" font-size="10.00">::LocalizationStage::Update</text>
</a>
</g>
</g>
<!-- Node2&#45;&gt;Node3 -->
<g id="edge2_Node000002_Node000003" class="edge">
<title>Node2&#45;&gt;Node3</title>
<g id="a_edge2_Node000002_Node000003"><a xlink:title=" ">
<path fill="none" stroke="#63b8ff" d="M618.41,-66C610.19,-66 601.94,-66 593.95,-66"/>
<polygon fill="#63b8ff" stroke="#63b8ff" points="618.19,-69.5 628.19,-66 618.19,-62.5 618.19,-69.5"/>
</a>
</g>
</g>
<!-- Node4 -->
<g id="Node000004" class="node">
<title>Node4</title>
<g id="a_Node000004"><a xlink:href="../../da/d0f/classcarla_1_1traffic__manager_1_1TrafficManagerLocal.html#a6d67cce3d0e5a48056645270364fe637" target="_top" xlink:title="启动线程以顺序运行交通管理器 &#160;&#160;此方法将创建一个新线程（如果尚未创建），并在该线程中顺序运行交通管理器的逻辑">
<polygon fill="white" stroke="#666666" points="421.5,-57 290,-57 290,-25 421.5,-25 421.5,-57"/>
<text text-anchor="start" x="298" y="-43.5" font-family="Helvetica,sans-Serif" font-size="10.00">carla::traffic_manager</text>
<text text-anchor="middle" x="355.75" y="-31.5" font-family="Helvetica,sans-Serif" font-size="10.00">::TrafficManagerLocal::Run</text>
</a>
</g>
</g>
<!-- Node3&#45;&gt;Node4 -->
<g id="edge3_Node000003_Node000004" class="edge">
<title>Node3&#45;&gt;Node4</title>
<g id="a_edge3_Node000003_Node000004"><a xlink:title=" ">
<path fill="none" stroke="#63b8ff" d="M446.47,-54.37C438.23,-53.14 429.92,-51.9 421.85,-50.7"/>
<polygon fill="#63b8ff" stroke="#63b8ff" points="445.83,-57.96 456.24,-55.98 446.86,-51.04 445.83,-57.96"/>
</a>
</g>
</g>
<!-- Node5 -->
<g id="Node000005" class="node">
<title>Node5</title>
<g id="a_Node000005"><a xlink:href="../../da/d0f/classcarla_1_1traffic__manager_1_1TrafficManagerLocal.html#a1ffbdb0bed64f385437d2820a90286d0" target="_top" xlink:title="启动交通管理器 &#160;&#160;此方法用于启动TrafficManagerLocal，开始其管理交通的功能">
<polygon fill="white" stroke="#666666" points="254,-63 145,-63 145,-19 254,-19 254,-63"/>
<text text-anchor="start" x="153" y="-49.5" font-family="Helvetica,sans-Serif" font-size="10.00">carla::traffic_manager</text>
<text text-anchor="start" x="153" y="-37.5" font-family="Helvetica,sans-Serif" font-size="10.00">::TrafficManagerLocal</text>
<text text-anchor="middle" x="199.5" y="-25.5" font-family="Helvetica,sans-Serif" font-size="10.00">::Start</text>
</a>
</g>
</g>
<!-- Node4&#45;&gt;Node5 -->
<g id="edge4_Node000004_Node000005" class="edge">
<title>Node4&#45;&gt;Node5</title>
<g id="a_edge4_Node000004_Node000005"><a xlink:title=" ">
<path fill="none" stroke="#63b8ff" d="M278.87,-41C270.53,-41 262.18,-41 254.19,-41"/>
<polygon fill="#63b8ff" stroke="#63b8ff" points="278.78,-44.5 288.78,-41 278.78,-37.5 278.78,-44.5"/>
</a>
</g>
</g>
<!-- Node6 -->
<g id="Node000006" class="node">
<title>Node6</title>
<g id="a_Node000006"><a xlink:href="../../da/d0f/classcarla_1_1traffic__manager_1_1TrafficManagerLocal.html#a75976d36f4213ab24e79e3ea2dcd280a" target="_top" xlink:title="私有构造函数，用于单例生命周期管理">
<polygon fill="white" stroke="#666666" points="109,-63 0,-63 0,-19 109,-19 109,-63"/>
<text text-anchor="start" x="8" y="-49.5" font-family="Helvetica,sans-Serif" font-size="10.00">carla::traffic_manager</text>
<text text-anchor="start" x="8" y="-37.5" font-family="Helvetica,sans-Serif" font-size="10.00">::TrafficManagerLocal</text>
<text text-anchor="middle" x="54.5" y="-25.5" font-family="Helvetica,sans-Serif" font-size="10.00">::TrafficManagerLocal</text>
</a>
</g>
</g>
<!-- Node5&#45;&gt;Node6 -->
<g id="edge5_Node000005_Node000006" class="edge">
<title>Node5&#45;&gt;Node6</title>
<g id="a_edge5_Node000005_Node000006"><a xlink:title=" ">
<path fill="none" stroke="#63b8ff" d="M134.12,-41C125.88,-41 117.51,-41 109.46,-41"/>
<polygon fill="#63b8ff" stroke="#63b8ff" points="133.85,-44.5 143.85,-41 133.85,-37.5 133.85,-44.5"/>
</a>
</g>
</g>
<!-- Node7&#45;&gt;Node4 -->
<g id="edge7_Node000007_Node000004" class="edge">
<title>Node7&#45;&gt;Node4</title>
<g id="a_edge7_Node000007_Node000004"><a xlink:title=" ">
<path fill="none" stroke="#63b8ff" d="M454.28,-26.47C443.54,-28.07 432.49,-29.71 421.87,-31.3"/>
<polygon fill="#63b8ff" stroke="#63b8ff" points="454.51,-29.82 463.89,-24.88 453.48,-22.9 454.51,-29.82"/>
</a>
</g>
</g>
</g>
</svg>
