<?xml version="1.0" encoding="UTF-8" standalone="no"?>
<!DOCTYPE svg PUBLIC "-//W3C//DTD SVG 1.1//EN"
 "http://www.w3.org/Graphics/SVG/1.1/DTD/svg11.dtd">
<!-- Generated by graphviz version 8.1.0 (20230707.0739)
 -->
<!-- Title: carla::ros2::CarlaDVSCameraPublisher::SetData Pages: 1 -->
<svg width="309pt" height="190pt"
 viewBox="0.00 0.00 308.50 190.00" xmlns="http://www.w3.org/2000/svg" xmlns:xlink="http://www.w3.org/1999/xlink">

<svg id="main" version="1.1" xmlns="http://www.w3.org/2000/svg" xmlns:xlink="http://www.w3.org/1999/xlink" xml:space="preserve" onload="init(evt)">
<style type="text/css"><![CDATA[
.node, .edge {opacity: 0.7;}
.node.selected, .edge.selected {opacity: 1;}
.edge:hover path { stroke: red; }
.edge:hover polygon { stroke: red; fill: red; }
]]></style>
<script type="application/ecmascript" xlink:href="../../svg.min.js"/>
<svg id="graph" class="graph">
<g id="graph0" class="graph" transform="scale(1 1) rotate(0) translate(4 186)">
<title>carla::ros2::CarlaDVSCameraPublisher::SetData</title>
<!-- Node1 -->
<g id="Node000001" class="node">
<title>Node1</title>
<g id="a_Node000001"><a xlink:title=" ">
<polygon fill="#999999" stroke="#666666" points="144.25,-107 0,-107 0,-75 144.25,-75 144.25,-107"/>
<text text-anchor="start" x="8" y="-93.5" font-family="Helvetica,sans-Serif" font-size="10.00">carla::ros2::CarlaDVSCamera</text>
<text text-anchor="middle" x="72.12" y="-81.5" font-family="Helvetica,sans-Serif" font-size="10.00">Publisher::SetData</text>
</a>
</g>
</g>
<!-- Node2 -->
<g id="Node000002" class="node">
<title>Node2</title>
<g id="a_Node000002"><a xlink:href="../../d8/d15/classstd__msgs_1_1msg_1_1Header.html#a9bd973b4690fefb807fb231f496831d4" target="_top" xlink:title="This function copies the value in member frame_id.">
<polygon fill="white" stroke="#666666" points="300.5,-182 180.25,-182 180.25,-150 300.5,-150 300.5,-182"/>
<text text-anchor="start" x="188.25" y="-168.5" font-family="Helvetica,sans-Serif" font-size="10.00">std_msgs::msg::Header</text>
<text text-anchor="middle" x="240.38" y="-156.5" font-family="Helvetica,sans-Serif" font-size="10.00">::frame_id</text>
</a>
</g>
</g>
<!-- Node1&#45;&gt;Node2 -->
<g id="edge1_Node000001_Node000002" class="edge">
<title>Node1&#45;&gt;Node2</title>
<g id="a_edge1_Node000001_Node000002"><a xlink:title=" ">
<path fill="none" stroke="#63b8ff" d="M107.23,-107.31C128.21,-117.24 155.68,-130.08 180.25,-141 183.41,-142.4 186.67,-143.83 189.96,-145.26"/>
<polygon fill="#63b8ff" stroke="#63b8ff" points="188.28,-148.78 198.85,-149.53 191.05,-142.36 188.28,-148.78"/>
</a>
</g>
</g>
<!-- Node3 -->
<g id="Node000003" class="node">
<title>Node3</title>
<g id="a_Node000003"><a xlink:href="../../da/d39/classbuiltin__interfaces_1_1msg_1_1Time.html#aa198ef63c135b5c7856d7f917dee4ba4" target="_top" xlink:title="This function sets a value in member nanosec.">
<polygon fill="white" stroke="#666666" points="295.62,-132 185.12,-132 185.12,-100 295.62,-100 295.62,-132"/>
<text text-anchor="start" x="193.12" y="-118.5" font-family="Helvetica,sans-Serif" font-size="10.00">builtin_interfaces</text>
<text text-anchor="middle" x="240.38" y="-106.5" font-family="Helvetica,sans-Serif" font-size="10.00">::msg::Time::nanosec</text>
</a>
</g>
</g>
<!-- Node1&#45;&gt;Node3 -->
<g id="edge2_Node000001_Node000003" class="edge">
<title>Node1&#45;&gt;Node3</title>
<g id="a_edge2_Node000001_Node000003"><a xlink:title=" ">
<path fill="none" stroke="#63b8ff" d="M144.59,-101.75C154.38,-103.22 164.38,-104.72 174.05,-106.18"/>
<polygon fill="#63b8ff" stroke="#63b8ff" points="173.38,-109.77 183.79,-107.79 174.42,-102.84 173.38,-109.77"/>
</a>
</g>
</g>
<!-- Node4 -->
<g id="Node000004" class="node">
<title>Node4</title>
<g id="a_Node000004"><a xlink:href="../../da/d39/classbuiltin__interfaces_1_1msg_1_1Time.html#af90f1d1163f805c9e8af9546399d75b2" target="_top" xlink:title="This function sets a value in member sec.">
<polygon fill="white" stroke="#666666" points="285.12,-82 195.62,-82 195.62,-50 285.12,-50 285.12,-82"/>
<text text-anchor="start" x="203.62" y="-68.5" font-family="Helvetica,sans-Serif" font-size="10.00">builtin_interfaces</text>
<text text-anchor="middle" x="240.38" y="-56.5" font-family="Helvetica,sans-Serif" font-size="10.00">::msg::Time::sec</text>
</a>
</g>
</g>
<!-- Node1&#45;&gt;Node4 -->
<g id="edge3_Node000001_Node000004" class="edge">
<title>Node1&#45;&gt;Node4</title>
<g id="a_edge3_Node000001_Node000004"><a xlink:title=" ">
<path fill="none" stroke="#63b8ff" d="M144.59,-80.25C158.07,-78.23 171.96,-76.14 184.82,-74.2"/>
<polygon fill="#63b8ff" stroke="#63b8ff" points="184.97,-77.57 194.34,-72.62 183.93,-70.65 184.97,-77.57"/>
</a>
</g>
</g>
<!-- Node5 -->
<g id="Node000005" class="node">
<title>Node5</title>
<g id="a_Node000005"><a xlink:href="../../d8/d15/classstd__msgs_1_1msg_1_1Header.html#a2ac0c277be6d5edc09d17126767290c9" target="_top" xlink:title="This function copies the value in member stamp.">
<polygon fill="white" stroke="#666666" points="300.5,-32 180.25,-32 180.25,0 300.5,0 300.5,-32"/>
<text text-anchor="start" x="188.25" y="-18.5" font-family="Helvetica,sans-Serif" font-size="10.00">std_msgs::msg::Header</text>
<text text-anchor="middle" x="240.38" y="-6.5" font-family="Helvetica,sans-Serif" font-size="10.00">::stamp</text>
</a>
</g>
</g>
<!-- Node1&#45;&gt;Node5 -->
<g id="edge4_Node000001_Node000005" class="edge">
<title>Node1&#45;&gt;Node5</title>
<g id="a_edge4_Node000001_Node000005"><a xlink:title=" ">
<path fill="none" stroke="#63b8ff" d="M107.23,-74.69C128.21,-64.76 155.68,-51.92 180.25,-41 183.41,-39.6 186.67,-38.17 189.96,-36.74"/>
<polygon fill="#63b8ff" stroke="#63b8ff" points="191.05,-39.64 198.85,-32.47 188.28,-33.22 191.05,-39.64"/>
</a>
</g>
</g>
</g>
</svg>
</svg>

<style type='text/css'>
<![CDATA[
[data-mouse-over-selected='false'] { opacity: 0.7; }
[data-mouse-over-selected='true']  { opacity: 1.0; }
]]>
</style>
<script type="application/ecmascript"><![CDATA[
document.addEventListener('DOMContentLoaded', (event) => {
  highlightEdges();
  highlightAdjacentNodes();
});
]]></script>
</svg>
