<?xml version="1.0" encoding="UTF-8" standalone="no"?>
<!DOCTYPE svg PUBLIC "-//W3C//DTD SVG 1.1//EN"
 "http://www.w3.org/Graphics/SVG/1.1/DTD/svg11.dtd">
<!-- Generated by graphviz version 8.1.0 (20230707.0739)
 -->
<!-- Title: carla::traffic_manager::ALSM::Reset Pages: 1 -->
<svg width="759pt" height="112pt"
 viewBox="0.00 0.00 758.50 112.00" xmlns="http://www.w3.org/2000/svg" xmlns:xlink="http://www.w3.org/1999/xlink">
<g id="graph0" class="graph" transform="scale(1 1) rotate(0) translate(4 108)">
<title>carla::traffic_manager::ALSM::Reset</title>
<!-- Node1 -->
<g id="Node000001" class="node">
<title>Node1</title>
<g id="a_Node000001"><a xlink:title=" ">
<polygon fill="#999999" stroke="#666666" points="109,-57 0,-57 0,-25 109,-25 109,-57"/>
<text text-anchor="start" x="8" y="-43.5" font-family="Helvetica,sans-Serif" font-size="10.00">carla::traffic_manager</text>
<text text-anchor="middle" x="54.5" y="-31.5" font-family="Helvetica,sans-Serif" font-size="10.00">::ALSM::Reset</text>
</a>
</g>
</g>
<!-- Node2 -->
<g id="Node000002" class="node">
<title>Node2</title>
<g id="a_Node000002"><a xlink:href="../../db/d1f/classcarla_1_1client_1_1World.html#a259343e4a40aba854336762e415a4397" target="_top" xlink:title="Return a snapshot of the world at this moment.">
<polygon fill="white" stroke="#666666" points="263.38,-82 165.62,-82 165.62,-50 263.38,-50 263.38,-82"/>
<text text-anchor="start" x="173.62" y="-68.5" font-family="Helvetica,sans-Serif" font-size="10.00">carla::client::World</text>
<text text-anchor="middle" x="214.5" y="-56.5" font-family="Helvetica,sans-Serif" font-size="10.00">::GetSnapshot</text>
</a>
</g>
</g>
<!-- Node1&#45;&gt;Node2 -->
<g id="edge1_Node000001_Node000002" class="edge">
<title>Node1&#45;&gt;Node2</title>
<g id="a_edge1_Node000001_Node000002"><a xlink:title=" ">
<path fill="none" stroke="#63b8ff" d="M109.43,-49.53C124.04,-51.84 139.91,-54.36 154.77,-56.71"/>
<polygon fill="#63b8ff" stroke="#63b8ff" points="153.94,-60.28 164.37,-58.38 155.04,-53.36 153.94,-60.28"/>
</a>
</g>
</g>
<!-- Node7 -->
<g id="Node000007" class="node">
<title>Node7</title>
<g id="a_Node000007"><a xlink:href="../../d4/dc6/classcarla_1_1client_1_1WorldSnapshot.html#a52ead59d048a20a519b7c78519648c4f" target="_top" xlink:title="Get timestamp of this snapshot.">
<polygon fill="white" stroke="#666666" points="284,-32 145,-32 145,0 284,0 284,-32"/>
<text text-anchor="start" x="153" y="-18.5" font-family="Helvetica,sans-Serif" font-size="10.00">carla::client::WorldSnapshot</text>
<text text-anchor="middle" x="214.5" y="-6.5" font-family="Helvetica,sans-Serif" font-size="10.00">::GetTimestamp</text>
</a>
</g>
</g>
<!-- Node1&#45;&gt;Node7 -->
<g id="edge6_Node000001_Node000007" class="edge">
<title>Node1&#45;&gt;Node7</title>
<g id="a_edge6_Node000001_Node000007"><a xlink:title=" ">
<path fill="none" stroke="#63b8ff" d="M109.43,-32.47C117.33,-31.22 125.59,-29.91 133.87,-28.6"/>
<polygon fill="#63b8ff" stroke="#63b8ff" points="134.39,-31.9 143.72,-26.88 133.3,-24.99 134.39,-31.9"/>
</a>
</g>
</g>
<!-- Node3 -->
<g id="Node000003" class="node">
<title>Node3</title>
<g id="a_Node000003"><a xlink:href="../../d1/dd3/classcarla_1_1client_1_1detail_1_1EpisodeProxyImpl.html#aaca857645fbeb6546b4a03a663bb65af" target="_top" xlink:title="Same as TryLock but never return nullptr.">
<polygon fill="white" stroke="#666666" points="447.75,-82 320,-82 320,-50 447.75,-50 447.75,-82"/>
<text text-anchor="start" x="328" y="-68.5" font-family="Helvetica,sans-Serif" font-size="10.00">carla::client::detail</text>
<text text-anchor="middle" x="383.88" y="-56.5" font-family="Helvetica,sans-Serif" font-size="10.00">::EpisodeProxyImpl::Lock</text>
</a>
</g>
</g>
<!-- Node2&#45;&gt;Node3 -->
<g id="edge2_Node000002_Node000003" class="edge">
<title>Node2&#45;&gt;Node3</title>
<g id="a_edge2_Node000002_Node000003"><a xlink:title=" ">
<path fill="none" stroke="#63b8ff" d="M263.46,-66C277.67,-66 293.57,-66 309.01,-66"/>
<polygon fill="#63b8ff" stroke="#63b8ff" points="308.6,-69.5 318.6,-66 308.6,-62.5 308.6,-69.5"/>
</a>
</g>
</g>
<!-- Node4 -->
<g id="Node000004" class="node">
<title>Node4</title>
<g id="a_Node000004"><a xlink:href="../../d8/dcd/namespacecarla_1_1client_1_1detail.html#aa47f72a521d97fe3574a56e808b509d8" target="_top" xlink:title=" ">
<polygon fill="white" stroke="#666666" points="588.25,-104 492.75,-104 492.75,-72 588.25,-72 588.25,-104"/>
<text text-anchor="start" x="500.75" y="-90.5" font-family="Helvetica,sans-Serif" font-size="10.00">carla::client::detail</text>
<text text-anchor="middle" x="540.5" y="-78.5" font-family="Helvetica,sans-Serif" font-size="10.00">::Load</text>
</a>
</g>
</g>
<!-- Node3&#45;&gt;Node4 -->
<g id="edge3_Node000003_Node000004" class="edge">
<title>Node3&#45;&gt;Node4</title>
<g id="a_edge3_Node000003_Node000004"><a xlink:title=" ">
<path fill="none" stroke="#63b8ff" d="M448.21,-75.01C459.35,-76.6 470.88,-78.24 481.85,-79.8"/>
<polygon fill="#63b8ff" stroke="#63b8ff" points="481.2,-83.38 491.59,-81.33 482.19,-76.45 481.2,-83.38"/>
</a>
</g>
</g>
<!-- Node6 -->
<g id="Node000006" class="node">
<title>Node6</title>
<g id="a_Node000006"><a xlink:href="../../d9/d36/namespacecarla.html#a23602ab663165210a7757d6108f6b3cd" target="_top" xlink:title=" ">
<polygon fill="white" stroke="#666666" points="597.25,-54 483.75,-54 483.75,-34 597.25,-34 597.25,-54"/>
<text text-anchor="middle" x="540.5" y="-40.5" font-family="Helvetica,sans-Serif" font-size="10.00">carla::throw_exception</text>
</a>
</g>
</g>
<!-- Node3&#45;&gt;Node6 -->
<g id="edge5_Node000003_Node000006" class="edge">
<title>Node3&#45;&gt;Node6</title>
<g id="a_edge5_Node000003_Node000006"><a xlink:title=" ">
<path fill="none" stroke="#63b8ff" d="M448.21,-56.99C456.33,-55.83 464.66,-54.65 472.83,-53.49"/>
<polygon fill="#63b8ff" stroke="#63b8ff" points="473.04,-56.85 482.45,-51.98 472.05,-49.92 473.04,-56.85"/>
</a>
</g>
</g>
<!-- Node5 -->
<g id="Node000005" class="node">
<title>Node5</title>
<g id="a_Node000005"><a xlink:href="../../d2/dcf/classcarla_1_1AtomicSharedPtr.html#a7bb0b8af178b36c923fedac384b3aad4" target="_top" xlink:title=" ">
<polygon fill="white" stroke="#666666" points="750.5,-104 633.25,-104 633.25,-72 750.5,-72 750.5,-104"/>
<text text-anchor="start" x="641.25" y="-90.5" font-family="Helvetica,sans-Serif" font-size="10.00">carla::AtomicSharedPtr</text>
<text text-anchor="middle" x="691.88" y="-78.5" font-family="Helvetica,sans-Serif" font-size="10.00">::load</text>
</a>
</g>
</g>
<!-- Node4&#45;&gt;Node5 -->
<g id="edge4_Node000004_Node000005" class="edge">
<title>Node4&#45;&gt;Node5</title>
<g id="a_edge4_Node000004_Node000005"><a xlink:title=" ">
<path fill="none" stroke="#63b8ff" d="M588.35,-88C599.05,-88 610.64,-88 622.04,-88"/>
<polygon fill="#63b8ff" stroke="#63b8ff" points="621.89,-91.5 631.89,-88 621.89,-84.5 621.89,-91.5"/>
</a>
</g>
</g>
</g>
</svg>
