<?xml version="1.0" encoding="UTF-8" standalone="no"?>
<!DOCTYPE svg PUBLIC "-//W3C//DTD SVG 1.1//EN"
 "http://www.w3.org/Graphics/SVG/1.1/DTD/svg11.dtd">
<!-- Generated by graphviz version 7.0.5 (20221223.1930)
 -->
<!-- Title: carla::geom::MeshFactory Pages: 1 -->
<svg width="175pt" height="258pt"
 viewBox="0.00 0.00 174.50 258.00" xmlns="http://www.w3.org/2000/svg" xmlns:xlink="http://www.w3.org/1999/xlink">
<g id="graph0" class="graph" transform="scale(1 1) rotate(0) translate(4 254)">
<title>carla::geom::MeshFactory</title>
<!-- Node1 -->
<g id="node1" class="node">
<title>Node1</title>
<g id="a_node1"><a xlink:title="Mesh辅助生成器">
<polygon fill="#999999" stroke="#666666" points="127,-19 0,-19 0,0 127,0 127,-19"/>
<text text-anchor="middle" x="63.5" y="-7" font-family="Helvetica,sans-Serif" font-size="10.00">carla::geom::MeshFactory</text>
</a>
</g>
</g>
<!-- Node2 -->
<g id="node2" class="node">
<title>Node2</title>
<g id="a_node2"><a xlink:href="../../d6/d60/structcarla_1_1geom_1_1MeshFactory_1_1RoadParameters.html" target="_top" xlink:title="道路生成参数">
<polygon fill="white" stroke="#666666" points="127,-96 0,-96 0,-66 127,-66 127,-96"/>
<text text-anchor="start" x="8" y="-84" font-family="Helvetica,sans-Serif" font-size="10.00">carla::geom::MeshFactory</text>
<text text-anchor="middle" x="63.5" y="-73" font-family="Helvetica,sans-Serif" font-size="10.00">::RoadParameters</text>
</a>
</g>
</g>
<!-- Node2&#45;&gt;Node1 -->
<g id="edge1" class="edge">
<title>Node2&#45;&gt;Node1</title>
<path fill="none" stroke="#9a32cd" stroke-dasharray="5,2" d="M63.5,-54.46C63.5,-42.07 63.5,-27.99 63.5,-19.18"/>
<polygon fill="#9a32cd" stroke="#9a32cd" points="60,-54.09 63.5,-64.09 67,-54.09 60,-54.09"/>
<text text-anchor="middle" x="90.5" y="-40" font-family="Helvetica,sans-Serif" font-size="10.00"> road_param</text>
</g>
<!-- Node3 -->
<g id="node3" class="node">
<title>Node3</title>
<g id="a_node3"><a xlink:title=" ">
<polygon fill="white" stroke="#666666" points="81,-250 46,-250 46,-231 81,-231 81,-250"/>
<text text-anchor="middle" x="63.5" y="-238" font-family="Helvetica,sans-Serif" font-size="10.00">float</text>
</a>
</g>
</g>
<!-- Node3&#45;&gt;Node2 -->
<g id="edge2" class="edge">
<title>Node3&#45;&gt;Node2</title>
<path fill="none" stroke="#9a32cd" stroke-dasharray="5,2" d="M63.5,-219.09C63.5,-186.78 63.5,-124.63 63.5,-96.48"/>
<polygon fill="#9a32cd" stroke="#9a32cd" points="60,-219.07 63.5,-229.07 67,-219.07 60,-219.07"/>
<text text-anchor="middle" x="115" y="-205" font-family="Helvetica,sans-Serif" font-size="10.00"> extra_lane_width</text>
<text text-anchor="middle" x="115" y="-194" font-family="Helvetica,sans-Serif" font-size="10.00">lane_ends_multiplier</text>
<text text-anchor="middle" x="115" y="-183" font-family="Helvetica,sans-Serif" font-size="10.00">max_road_len</text>
<text text-anchor="middle" x="115" y="-172" font-family="Helvetica,sans-Serif" font-size="10.00">max_weight_distance</text>
<text text-anchor="middle" x="115" y="-161" font-family="Helvetica,sans-Serif" font-size="10.00">resolution</text>
<text text-anchor="start" x="63.5" y="-150" font-family="Helvetica,sans-Serif" font-size="10.00">same_lane_weight</text>
<text text-anchor="middle" x="115" y="-139" font-family="Helvetica,sans-Serif" font-size="10.00">_multiplier</text>
<text text-anchor="middle" x="115" y="-128" font-family="Helvetica,sans-Serif" font-size="10.00">vertex_width_resolution</text>
<text text-anchor="middle" x="115" y="-117" font-family="Helvetica,sans-Serif" font-size="10.00">wall_height</text>
</g>
</g>
</svg>
