<?xml version="1.0" encoding="UTF-8" standalone="no"?>
<!DOCTYPE svg PUBLIC "-//W3C//DTD SVG 1.1//EN"
 "http://www.w3.org/Graphics/SVG/1.1/DTD/svg11.dtd">
<!-- Generated by graphviz version 8.1.0 (20230707.0739)
 -->
<!-- Title: Waypoint.cpp Pages: 1 -->
<svg width="280pt" height="208pt"
 viewBox="0.00 0.00 280.12 208.00" xmlns="http://www.w3.org/2000/svg" xmlns:xlink="http://www.w3.org/1999/xlink">

<svg id="main" version="1.1" xmlns="http://www.w3.org/2000/svg" xmlns:xlink="http://www.w3.org/1999/xlink" xml:space="preserve" onload="init(evt)">
<style type="text/css"><![CDATA[
.node, .edge {opacity: 0.7;}
.node.selected, .edge.selected {opacity: 1;}
.edge:hover path { stroke: red; }
.edge:hover polygon { stroke: red; fill: red; }
]]></style>
<script type="application/ecmascript" xlink:href="../../svg.min.js"/>
<svg id="graph" class="graph">
<g id="graph0" class="graph" transform="scale(1 1) rotate(0) translate(4 204)">
<title>Waypoint.cpp</title>
<!-- Node1 -->
<g id="Node000001" class="node">
<title>Node1</title>
<g id="a_Node000001"><a xlink:title=" ">
<polygon fill="#999999" stroke="#666666" points="194.62,-200 118.62,-200 118.62,-180 194.62,-180 194.62,-200"/>
<text text-anchor="middle" x="156.62" y="-186.5" font-family="Helvetica,sans-Serif" font-size="10.00">Waypoint.cpp</text>
</a>
</g>
</g>
<!-- Node2 -->
<g id="Node000002" class="node">
<title>Node2</title>
<g id="a_Node000002"><a xlink:href="../../d3/dbb/road_2element_2Waypoint_8h.html" target="_top" xlink:title=" ">
<polygon fill="white" stroke="#666666" points="144.75,-144 48.5,-144 48.5,-112 144.75,-112 144.75,-144"/>
<text text-anchor="start" x="56.5" y="-130.5" font-family="Helvetica,sans-Serif" font-size="10.00">carla/road/element</text>
<text text-anchor="middle" x="96.62" y="-118.5" font-family="Helvetica,sans-Serif" font-size="10.00">/Waypoint.h</text>
</a>
</g>
</g>
<!-- Node1&#45;&gt;Node2 -->
<g id="edge1_Node000001_Node000002" class="edge">
<title>Node1&#45;&gt;Node2</title>
<g id="a_edge1_Node000001_Node000002"><a xlink:title=" ">
<path fill="none" stroke="#63b8ff" d="M147.25,-179.62C139.83,-172.21 129.16,-161.53 119.52,-151.9"/>
<polygon fill="#63b8ff" stroke="#63b8ff" points="122.31,-149.74 112.77,-145.14 117.36,-154.69 122.31,-149.74"/>
</a>
</g>
</g>
<!-- Node7 -->
<g id="Node000007" class="node">
<title>Node7</title>
<g id="a_Node000007"><a xlink:title=" ">
<polygon fill="#e0e0e0" stroke="#999999" points="272.12,-144 163.12,-144 163.12,-112 272.12,-112 272.12,-144"/>
<text text-anchor="start" x="171.12" y="-130.5" font-family="Helvetica,sans-Serif" font-size="10.00">boost/container_hash</text>
<text text-anchor="middle" x="217.62" y="-118.5" font-family="Helvetica,sans-Serif" font-size="10.00">/hash.hpp</text>
</a>
</g>
</g>
<!-- Node1&#45;&gt;Node7 -->
<g id="edge7_Node000001_Node000007" class="edge">
<title>Node1&#45;&gt;Node7</title>
<g id="a_edge7_Node000001_Node000007"><a xlink:title=" ">
<path fill="none" stroke="#63b8ff" d="M166.16,-179.62C173.77,-172.14 184.77,-161.32 194.64,-151.61"/>
<polygon fill="#63b8ff" stroke="#63b8ff" points="196.56,-154.65 201.23,-145.14 191.65,-149.66 196.56,-154.65"/>
</a>
</g>
</g>
<!-- Node3 -->
<g id="Node000003" class="node">
<title>Node3</title>
<g id="a_Node000003"><a xlink:href="../../d6/dbb/RoadTypes_8h.html" target="_top" xlink:title=" ">
<polygon fill="white" stroke="#666666" points="156,-76 37.25,-76 37.25,-56 156,-56 156,-76"/>
<text text-anchor="middle" x="96.62" y="-62.5" font-family="Helvetica,sans-Serif" font-size="10.00">carla/road/RoadTypes.h</text>
</a>
</g>
</g>
<!-- Node2&#45;&gt;Node3 -->
<g id="edge2_Node000002_Node000003" class="edge">
<title>Node2&#45;&gt;Node3</title>
<g id="a_edge2_Node000002_Node000003"><a xlink:title=" ">
<path fill="none" stroke="#63b8ff" d="M96.62,-111.55C96.62,-104.17 96.62,-95.24 96.62,-87.32"/>
<polygon fill="#63b8ff" stroke="#63b8ff" points="100.13,-87.41 96.62,-77.41 93.13,-87.41 100.13,-87.41"/>
</a>
</g>
</g>
<!-- Node4 -->
<g id="Node000004" class="node">
<title>Node4</title>
<g id="a_Node000004"><a xlink:title=" ">
<polygon fill="#e0e0e0" stroke="#999999" points="45.25,-20 0,-20 0,0 45.25,0 45.25,-20"/>
<text text-anchor="middle" x="22.62" y="-6.5" font-family="Helvetica,sans-Serif" font-size="10.00">cstdint</text>
</a>
</g>
</g>
<!-- Node2&#45;&gt;Node4 -->
<g id="edge5_Node000002_Node000004" class="edge">
<title>Node2&#45;&gt;Node4</title>
<g id="a_edge5_Node000002_Node000004"><a xlink:title=" ">
<path fill="none" stroke="#63b8ff" d="M65.7,-111.55C51.98,-103.02 37.05,-91.07 28.62,-76 20.93,-62.23 19.83,-44.21 20.43,-30.64"/>
<polygon fill="#63b8ff" stroke="#63b8ff" points="23.96,-31.32 21.27,-21.08 16.98,-30.77 23.96,-31.32"/>
</a>
</g>
</g>
<!-- Node6 -->
<g id="Node000006" class="node">
<title>Node6</title>
<g id="a_Node000006"><a xlink:title=" ">
<polygon fill="#e0e0e0" stroke="#999999" points="231.25,-76 174,-76 174,-56 231.25,-56 231.25,-76"/>
<text text-anchor="middle" x="202.62" y="-62.5" font-family="Helvetica,sans-Serif" font-size="10.00">functional</text>
</a>
</g>
</g>
<!-- Node2&#45;&gt;Node6 -->
<g id="edge6_Node000002_Node000006" class="edge">
<title>Node2&#45;&gt;Node6</title>
<g id="a_edge6_Node000002_Node000006"><a xlink:title=" ">
<path fill="none" stroke="#63b8ff" d="M123.92,-111.55C140.18,-102.35 160.69,-90.74 176.7,-81.68"/>
<polygon fill="#63b8ff" stroke="#63b8ff" points="178.03,-84.38 185,-76.41 174.58,-78.29 178.03,-84.38"/>
</a>
</g>
</g>
<!-- Node3&#45;&gt;Node4 -->
<g id="edge3_Node000003_Node000004" class="edge">
<title>Node3&#45;&gt;Node4</title>
<g id="a_edge3_Node000003_Node000004"><a xlink:title=" ">
<path fill="none" stroke="#63b8ff" d="M83.74,-55.59C72.81,-47.62 56.91,-36.02 44.06,-26.64"/>
<polygon fill="#63b8ff" stroke="#63b8ff" points="46.51,-23.37 36.37,-20.3 42.38,-29.02 46.51,-23.37"/>
</a>
</g>
</g>
<!-- Node5 -->
<g id="Node000005" class="node">
<title>Node5</title>
<g id="a_Node000005"><a xlink:title=" ">
<polygon fill="#e0e0e0" stroke="#999999" points="116.62,-20 76.62,-20 76.62,0 116.62,0 116.62,-20"/>
<text text-anchor="middle" x="96.62" y="-6.5" font-family="Helvetica,sans-Serif" font-size="10.00">string</text>
</a>
</g>
</g>
<!-- Node3&#45;&gt;Node5 -->
<g id="edge4_Node000003_Node000005" class="edge">
<title>Node3&#45;&gt;Node5</title>
<g id="a_edge4_Node000003_Node000005"><a xlink:title=" ">
<path fill="none" stroke="#63b8ff" d="M96.62,-55.59C96.62,-48.86 96.62,-39.53 96.62,-31.15"/>
<polygon fill="#63b8ff" stroke="#63b8ff" points="100.13,-31.3 96.62,-21.3 93.13,-31.3 100.13,-31.3"/>
</a>
</g>
</g>
</g>
</svg>
</svg>

<style type='text/css'>
<![CDATA[
[data-mouse-over-selected='false'] { opacity: 0.7; }
[data-mouse-over-selected='true']  { opacity: 1.0; }
]]>
</style>
<script type="application/ecmascript"><![CDATA[
document.addEventListener('DOMContentLoaded', (event) => {
  highlightEdges();
  highlightAdjacentNodes();
});
]]></script>
</svg>
