<?xml version="1.0" encoding="UTF-8" standalone="no"?>
<!DOCTYPE svg PUBLIC "-//W3C//DTD SVG 1.1//EN"
 "http://www.w3.org/Graphics/SVG/1.1/DTD/svg11.dtd">
<!-- Generated by graphviz version 8.1.0 (20230707.0739)
 -->
<!-- Title: UActorBlueprintFunctionLibrary::CheckActorDefinition Pages: 1 -->
<svg width="505pt" height="178pt"
 viewBox="0.00 0.00 504.50 178.00" xmlns="http://www.w3.org/2000/svg" xmlns:xlink="http://www.w3.org/1999/xlink">
<g id="graph0" class="graph" transform="scale(1 1) rotate(0) translate(4 174)">
<title>UActorBlueprintFunctionLibrary::CheckActorDefinition</title>
<!-- Node1 -->
<g id="Node000001" class="node">
<title>Node1</title>
<g id="a_Node000001"><a xlink:title="返回角色定义是否有效。打印所有找到的错误">
<polygon fill="#999999" stroke="#666666" points="496.5,-107 345.5,-107 345.5,-75 496.5,-75 496.5,-107"/>
<text text-anchor="start" x="353.5" y="-93.5" font-family="Helvetica,sans-Serif" font-size="10.00">UActorBlueprintFunctionLibrary</text>
<text text-anchor="middle" x="421" y="-81.5" font-family="Helvetica,sans-Serif" font-size="10.00">::CheckActorDefinition</text>
</a>
</g>
</g>
<!-- Node2 -->
<g id="Node000002" class="node">
<title>Node2</title>
<g id="a_Node000002"><a xlink:href="../../d7/d90/classUActorDispatcher.html#a25f7b647b7b98c3875052b042c8aca56" target="_top" xlink:title=" ">
<polygon fill="white" stroke="#666666" points="290.75,-170 172.75,-170 172.75,-150 290.75,-150 290.75,-170"/>
<text text-anchor="middle" x="231.75" y="-156.5" font-family="Helvetica,sans-Serif" font-size="10.00">UActorDispatcher::Bind</text>
</a>
</g>
</g>
<!-- Node1&#45;&gt;Node2 -->
<g id="edge1_Node000001_Node000002" class="edge">
<title>Node1&#45;&gt;Node2</title>
<g id="a_edge1_Node000001_Node000002"><a xlink:title=" ">
<path fill="none" stroke="#63b8ff" d="M377.89,-112.24C357.58,-121.92 332.65,-132.97 309.5,-141 300.29,-144.19 290.29,-147.08 280.64,-149.58"/>
<polygon fill="#63b8ff" stroke="#63b8ff" points="379.27,-114.97 386.76,-107.47 376.23,-108.67 379.27,-114.97"/>
</a>
</g>
</g>
<!-- Node4 -->
<g id="Node000004" class="node">
<title>Node4</title>
<g id="a_Node000004"><a xlink:href="../../dd/da3/classUActorBlueprintFunctionLibrary.html#a472a14c750c6c5dc66b38cfeaea82ccc" target="_top" xlink:title="创建一个相机参与者定义，并返回操作是否成功。">
<polygon fill="white" stroke="#666666" points="307.25,-132 156.25,-132 156.25,-100 307.25,-100 307.25,-132"/>
<text text-anchor="start" x="164.25" y="-118.5" font-family="Helvetica,sans-Serif" font-size="10.00">UActorBlueprintFunctionLibrary</text>
<text text-anchor="middle" x="231.75" y="-106.5" font-family="Helvetica,sans-Serif" font-size="10.00">::MakeCameraDefinition</text>
</a>
</g>
</g>
<!-- Node1&#45;&gt;Node4 -->
<g id="edge3_Node000001_Node000004" class="edge">
<title>Node1&#45;&gt;Node4</title>
<g id="a_edge3_Node000001_Node000004"><a xlink:title=" ">
<path fill="none" stroke="#63b8ff" d="M334.32,-102.44C325.35,-103.64 316.28,-104.85 307.44,-106.03"/>
<polygon fill="#63b8ff" stroke="#63b8ff" points="334.74,-105.78 344.19,-100.99 333.81,-98.84 334.74,-105.78"/>
</a>
</g>
</g>
<!-- Node5 -->
<g id="Node000005" class="node">
<title>Node5</title>
<g id="a_Node000005"><a xlink:href="../../dd/da3/classUActorBlueprintFunctionLibrary.html#a8113a5e0efff9740fde3c53ed9994b6e" target="_top" xlink:title="创建一个惯性测量单元参与者定义，并返回操作是否成功。">
<polygon fill="white" stroke="#666666" points="307.25,-82 156.25,-82 156.25,-50 307.25,-50 307.25,-82"/>
<text text-anchor="start" x="164.25" y="-68.5" font-family="Helvetica,sans-Serif" font-size="10.00">UActorBlueprintFunctionLibrary</text>
<text text-anchor="middle" x="231.75" y="-56.5" font-family="Helvetica,sans-Serif" font-size="10.00">::MakeIMUDefinition</text>
</a>
</g>
</g>
<!-- Node1&#45;&gt;Node5 -->
<g id="edge4_Node000001_Node000005" class="edge">
<title>Node1&#45;&gt;Node5</title>
<g id="a_edge4_Node000001_Node000005"><a xlink:title=" ">
<path fill="none" stroke="#63b8ff" d="M334.32,-79.56C325.35,-78.36 316.28,-77.15 307.44,-75.97"/>
<polygon fill="#63b8ff" stroke="#63b8ff" points="333.81,-83.16 344.19,-81.01 334.74,-76.22 333.81,-83.16"/>
</a>
</g>
</g>
<!-- Node6 -->
<g id="Node000006" class="node">
<title>Node6</title>
<g id="a_Node000006"><a xlink:href="../../dd/da3/classUActorBlueprintFunctionLibrary.html#ab49a876cfbacc4ffedbb09362fc9b180" target="_top" xlink:title="创建一个法线相机参与者定义，并返回操作是否成功。">
<polygon fill="white" stroke="#666666" points="309.5,-32 154,-32 154,0 309.5,0 309.5,-32"/>
<text text-anchor="start" x="162" y="-18.5" font-family="Helvetica,sans-Serif" font-size="10.00">UActorBlueprintFunctionLibrary</text>
<text text-anchor="middle" x="231.75" y="-6.5" font-family="Helvetica,sans-Serif" font-size="10.00">::MakeNormalsCameraDefinition</text>
</a>
</g>
</g>
<!-- Node1&#45;&gt;Node6 -->
<g id="edge5_Node000001_Node000006" class="edge">
<title>Node1&#45;&gt;Node6</title>
<g id="a_edge5_Node000001_Node000006"><a xlink:title=" ">
<path fill="none" stroke="#63b8ff" d="M376.71,-70.08C356.51,-60.66 332.01,-49.73 309.5,-41 301.92,-38.06 293.84,-35.17 285.87,-32.46"/>
<polygon fill="#63b8ff" stroke="#63b8ff" points="375.02,-73.62 385.56,-74.71 377.99,-67.29 375.02,-73.62"/>
</a>
</g>
</g>
<!-- Node3 -->
<g id="Node000003" class="node">
<title>Node3</title>
<g id="a_Node000003"><a xlink:href="../../d7/d90/classUActorDispatcher.html#ae8fafc943ff2c9da465f7aa21d0b2025" target="_top" xlink:title=" ">
<polygon fill="white" stroke="#666666" points="118,-170 0,-170 0,-150 118,-150 118,-170"/>
<text text-anchor="middle" x="59" y="-156.5" font-family="Helvetica,sans-Serif" font-size="10.00">UActorDispatcher::Bind</text>
</a>
</g>
</g>
<!-- Node2&#45;&gt;Node3 -->
<g id="edge2_Node000002_Node000003" class="edge">
<title>Node2&#45;&gt;Node3</title>
<g id="a_edge2_Node000002_Node000003"><a xlink:title=" ">
<path fill="none" stroke="#63b8ff" d="M161.63,-160C147.26,-160 132.25,-160 118.31,-160"/>
<polygon fill="#63b8ff" stroke="#63b8ff" points="161.47,-163.5 171.47,-160 161.47,-156.5 161.47,-163.5"/>
</a>
</g>
</g>
</g>
</svg>
