<?xml version="1.0" encoding="UTF-8" standalone="no"?>
<!DOCTYPE svg PUBLIC "-//W3C//DTD SVG 1.1//EN"
 "http://www.w3.org/Graphics/SVG/1.1/DTD/svg11.dtd">
<!-- Generated by graphviz version 8.1.0 (20230707.0739)
 -->
<!-- Title: carla::sensor::data::LaneInvasionEvent Pages: 1 -->
<svg width="1179pt" height="282pt"
 viewBox="0.00 0.00 1179.00 282.05" xmlns="http://www.w3.org/2000/svg" xmlns:xlink="http://www.w3.org/1999/xlink">
<g id="graph0" class="graph" transform="scale(1 1) rotate(0) translate(4 278.05)">
<title>carla::sensor::data::LaneInvasionEvent</title>
<!-- Node1 -->
<g id="Node000001" class="node">
<title>Node1</title>
<g id="a_Node000001"><a xlink:title="A change of lane event.">
<polygon fill="#999999" stroke="#666666" points="1171,-126.05 1069.5,-126.05 1069.5,-94.05 1171,-94.05 1171,-126.05"/>
<text text-anchor="start" x="1077.5" y="-112.55" font-family="Helvetica,sans-Serif" font-size="10.00">carla::sensor::data</text>
<text text-anchor="middle" x="1120.25" y="-100.55" font-family="Helvetica,sans-Serif" font-size="10.00">::LaneInvasionEvent</text>
</a>
</g>
</g>
<!-- Node2 -->
<g id="Node000002" class="node">
<title>Node2</title>
<g id="a_Node000002"><a xlink:href="../../df/d8c/classcarla_1_1sensor_1_1SensorData.html" target="_top" xlink:title="Base class for all the objects containing data generated by a sensor.">
<polygon fill="white" stroke="#666666" points="922.5,-158.05 793.25,-158.05 793.25,-138.05 922.5,-138.05 922.5,-158.05"/>
<text text-anchor="middle" x="857.88" y="-144.55" font-family="Helvetica,sans-Serif" font-size="10.00">carla::sensor::SensorData</text>
</a>
</g>
</g>
<!-- Node2&#45;&gt;Node1 -->
<g id="edge1_Node000001_Node000002" class="edge">
<title>Node2&#45;&gt;Node1</title>
<g id="a_edge1_Node000001_Node000002"><a xlink:title=" ">
<path fill="none" stroke="#63b8ff" d="M933.76,-141.58C969.54,-137.95 1012.89,-132.79 1051.5,-126.05 1057.21,-125.06 1063.17,-123.87 1069.07,-122.6"/>
<polygon fill="#63b8ff" stroke="#63b8ff" points="933.52,-138.18 923.92,-142.65 934.21,-145.15 933.52,-138.18"/>
</a>
</g>
</g>
<!-- Node3 -->
<g id="Node000003" class="node">
<title>Node3</title>
<g id="a_Node000003"><a xlink:href="../../da/d05/classEnableSharedFromThis.html" target="_top" xlink:title=" ">
<polygon fill="white" stroke="#666666" points="663.12,-274.05 545.88,-274.05 545.88,-242.05 663.12,-242.05 663.12,-274.05"/>
<text text-anchor="start" x="553.88" y="-260.55" font-family="Helvetica,sans-Serif" font-size="10.00">EnableSharedFromThis</text>
<text text-anchor="middle" x="604.5" y="-248.55" font-family="Helvetica,sans-Serif" font-size="10.00">&lt; SensorData &gt;</text>
</a>
</g>
</g>
<!-- Node3&#45;&gt;Node2 -->
<g id="edge2_Node000002_Node000003" class="edge">
<title>Node3&#45;&gt;Node2</title>
<g id="a_edge2_Node000002_Node000003"><a xlink:title=" ">
<path fill="none" stroke="#63b8ff" d="M674.04,-239.97C705.62,-230.51 743.14,-217.63 775.25,-202.05 800.93,-189.6 828.06,-170.23 843.68,-158.39"/>
<polygon fill="#63b8ff" stroke="#63b8ff" points="673.18,-236.87 664.57,-243.05 675.15,-243.59 673.18,-236.87"/>
</a>
</g>
</g>
<!-- Node4 -->
<g id="Node000004" class="node">
<title>Node4</title>
<g id="a_Node000004"><a xlink:href="../../d4/d8b/classcarla_1_1NonCopyable.html" target="_top" xlink:title="Inherit (privately) to suppress copy/move construction and assignment.">
<polygon fill="white" stroke="#666666" points="654.88,-224.05 554.12,-224.05 554.12,-204.05 654.88,-204.05 654.88,-224.05"/>
<text text-anchor="middle" x="604.5" y="-210.55" font-family="Helvetica,sans-Serif" font-size="10.00">carla::NonCopyable</text>
</a>
</g>
</g>
<!-- Node4&#45;&gt;Node2 -->
<g id="edge3_Node000002_Node000004" class="edge">
<title>Node4&#45;&gt;Node2</title>
<g id="a_edge3_Node000002_Node000004"><a xlink:title=" ">
<path fill="none" stroke="#8b1a1a" d="M666.09,-203.39C698.71,-197.1 739.49,-188.36 775.25,-178.05 794.4,-172.53 815.5,-164.73 831.45,-158.47"/>
<polygon fill="#8b1a1a" stroke="#8b1a1a" points="665.53,-200.12 656.36,-205.43 666.84,-207 665.53,-200.12"/>
</a>
</g>
</g>
<!-- Node5 -->
<g id="Node000005" class="node">
<title>Node5</title>
<g id="a_Node000005"><a xlink:title=" ">
<polygon fill="white" stroke="#666666" points="674,-186.05 535,-186.05 535,-154.05 674,-154.05 674,-186.05"/>
<text text-anchor="start" x="543" y="-172.55" font-family="Helvetica,sans-Serif" font-size="10.00">EpisodeProxyImpl&lt; Episode</text>
<text text-anchor="middle" x="604.5" y="-160.55" font-family="Helvetica,sans-Serif" font-size="10.00">ProxyPointerType::Weak &gt;</text>
</a>
</g>
</g>
<!-- Node5&#45;&gt;Node2 -->
<g id="edge4_Node000002_Node000005" class="edge">
<title>Node5&#45;&gt;Node2</title>
<g id="a_edge4_Node000002_Node000005"><a xlink:title=" ">
<path fill="none" stroke="#9a32cd" stroke-dasharray="5,2" d="M684.82,-163.11C719.7,-160.06 760.12,-156.52 793.02,-153.64"/>
<polygon fill="#9a32cd" stroke="#9a32cd" points="684.85,-159.68 675.19,-164.04 685.46,-166.66 684.85,-159.68"/>
</a>
</g>
<text text-anchor="middle" x="733.62" y="-164.55" font-family="Helvetica,sans-Serif" font-size="10.00" fill="grey"> _episode</text>
</g>
<!-- Node6 -->
<g id="Node000006" class="node">
<title>Node6</title>
<g id="a_Node000006"><a xlink:title=" ">
<polygon fill="white" stroke="#666666" points="639.12,-136.05 569.88,-136.05 569.88,-116.05 639.12,-116.05 639.12,-136.05"/>
<text text-anchor="middle" x="604.5" y="-122.55" font-family="Helvetica,sans-Serif" font-size="10.00">const size_t</text>
</a>
</g>
</g>
<!-- Node6&#45;&gt;Node2 -->
<g id="edge5_Node000002_Node000006" class="edge">
<title>Node6&#45;&gt;Node2</title>
<g id="a_edge5_Node000002_Node000006"><a xlink:title=" ">
<path fill="none" stroke="#9a32cd" stroke-dasharray="5,2" d="M649.94,-129.05C684.21,-131.46 732.76,-135.08 775.25,-139.05 781.07,-139.6 787.12,-140.2 793.18,-140.82"/>
<polygon fill="#9a32cd" stroke="#9a32cd" points="650.56,-125.51 640.35,-128.31 650.08,-132.5 650.56,-125.51"/>
</a>
</g>
<text text-anchor="middle" x="733.62" y="-141.55" font-family="Helvetica,sans-Serif" font-size="10.00" fill="grey"> _frame</text>
</g>
<!-- Node7 -->
<g id="Node000007" class="node">
<title>Node7</title>
<g id="a_Node000007"><a xlink:title=" ">
<polygon fill="white" stroke="#666666" points="626.75,-98.05 582.25,-98.05 582.25,-78.05 626.75,-78.05 626.75,-98.05"/>
<text text-anchor="middle" x="604.5" y="-84.55" font-family="Helvetica,sans-Serif" font-size="10.00">double</text>
</a>
</g>
</g>
<!-- Node7&#45;&gt;Node2 -->
<g id="edge6_Node000002_Node000007" class="edge">
<title>Node7&#45;&gt;Node2</title>
<g id="a_edge6_Node000002_Node000007"><a xlink:title=" ">
<path fill="none" stroke="#9a32cd" stroke-dasharray="5,2" d="M637.56,-88.98C672.61,-90.98 729.84,-97.15 775.25,-116.05 784.36,-119.85 784.4,-124.69 793.25,-129.05 799.97,-132.36 807.38,-135.22 814.7,-137.64"/>
<polygon fill="#9a32cd" stroke="#9a32cd" points="638.16,-85.46 628,-88.47 637.82,-92.45 638.16,-85.46"/>
</a>
</g>
<text text-anchor="middle" x="733.62" y="-118.55" font-family="Helvetica,sans-Serif" font-size="10.00" fill="grey"> _timestamp</text>
</g>
<!-- Node8 -->
<g id="Node000008" class="node">
<title>Node8</title>
<g id="a_Node000008"><a xlink:href="../../de/da4/classcarla_1_1geom_1_1Transform.html" target="_top" xlink:title=" ">
<polygon fill="white" stroke="#666666" points="662.38,-60.05 546.62,-60.05 546.62,-40.05 662.38,-40.05 662.38,-60.05"/>
<text text-anchor="middle" x="604.5" y="-46.55" font-family="Helvetica,sans-Serif" font-size="10.00">carla::geom::Transform</text>
</a>
</g>
</g>
<!-- Node8&#45;&gt;Node2 -->
<g id="edge7_Node000002_Node000008" class="edge">
<title>Node8&#45;&gt;Node2</title>
<g id="a_edge7_Node000002_Node000008"><a xlink:title=" ">
<path fill="none" stroke="#9a32cd" stroke-dasharray="5,2" d="M673.54,-45.8C707.58,-47.21 747.36,-54.68 775.25,-78.05 793.67,-93.49 775.84,-112.48 793.25,-129.05 796.84,-132.47 801.02,-135.28 805.49,-137.58"/>
<polygon fill="#9a32cd" stroke="#9a32cd" points="673.79,-42.29 663.71,-45.55 673.62,-49.28 673.79,-42.29"/>
</a>
</g>
<text text-anchor="middle" x="733.62" y="-80.55" font-family="Helvetica,sans-Serif" font-size="10.00" fill="grey"> _sensor_transform</text>
</g>
<!-- Node9 -->
<g id="Node000009" class="node">
<title>Node9</title>
<g id="a_Node000009"><a xlink:href="../../de/d23/classcarla_1_1geom_1_1Location.html" target="_top" xlink:title=" ">
<polygon fill="white" stroke="#666666" points="462.25,-83.05 352.5,-83.05 352.5,-63.05 462.25,-63.05 462.25,-83.05"/>
<text text-anchor="middle" x="407.38" y="-69.55" font-family="Helvetica,sans-Serif" font-size="10.00">carla::geom::Location</text>
</a>
</g>
</g>
<!-- Node9&#45;&gt;Node8 -->
<g id="edge8_Node000008_Node000009" class="edge">
<title>Node9&#45;&gt;Node8</title>
<g id="a_edge8_Node000008_Node000009"><a xlink:title=" ">
<path fill="none" stroke="#9a32cd" stroke-dasharray="5,2" d="M473.36,-65.39C496.98,-62.61 523.48,-59.48 546.38,-56.79"/>
<polygon fill="#9a32cd" stroke="#9a32cd" points="473.25,-62 463.73,-66.65 474.07,-68.95 473.25,-62"/>
</a>
</g>
<text text-anchor="middle" x="498.62" y="-67.55" font-family="Helvetica,sans-Serif" font-size="10.00" fill="grey"> location</text>
</g>
<!-- Node10 -->
<g id="Node000010" class="node">
<title>Node10</title>
<g id="a_Node000010"><a xlink:href="../../d9/dfe/classcarla_1_1geom_1_1Vector3D.html" target="_top" xlink:title=" ">
<polygon fill="white" stroke="#666666" points="207.5,-86.05 94,-86.05 94,-66.05 207.5,-66.05 207.5,-86.05"/>
<text text-anchor="middle" x="150.75" y="-72.55" font-family="Helvetica,sans-Serif" font-size="10.00">carla::geom::Vector3D</text>
</a>
</g>
</g>
<!-- Node10&#45;&gt;Node9 -->
<g id="edge9_Node000009_Node000010" class="edge">
<title>Node10&#45;&gt;Node9</title>
<g id="a_edge9_Node000009_Node000010"><a xlink:title=" ">
<path fill="none" stroke="#63b8ff" d="M218.81,-75.26C260.39,-74.77 313.12,-74.15 352.07,-73.69"/>
<polygon fill="#63b8ff" stroke="#63b8ff" points="218.9,-71.77 208.94,-75.39 218.98,-78.77 218.9,-71.77"/>
</a>
</g>
</g>
<!-- Node11 -->
<g id="Node000011" class="node">
<title>Node11</title>
<g id="a_Node000011"><a xlink:title=" ">
<polygon fill="white" stroke="#666666" points="34,-57.05 0,-57.05 0,-37.05 34,-37.05 34,-57.05"/>
<text text-anchor="middle" x="17" y="-43.55" font-family="Helvetica,sans-Serif" font-size="10.00">float</text>
</a>
</g>
</g>
<!-- Node11&#45;&gt;Node10 -->
<g id="edge10_Node000010_Node000011" class="edge">
<title>Node11&#45;&gt;Node10</title>
<g id="a_edge10_Node000010_Node000011"><a xlink:title=" ">
<path fill="none" stroke="#9a32cd" stroke-dasharray="5,2" d="M44.75,-53.4C47.2,-53.96 49.64,-54.52 52,-55.05 67.58,-58.56 84.59,-62.26 99.98,-65.56"/>
<polygon fill="#9a32cd" stroke="#9a32cd" points="45.78,-49.81 35.24,-50.94 44.18,-56.63 45.78,-49.81"/>
</a>
</g>
<text text-anchor="middle" x="64" y="-86.55" font-family="Helvetica,sans-Serif" font-size="10.00" fill="grey"> x</text>
<text text-anchor="middle" x="64" y="-74.55" font-family="Helvetica,sans-Serif" font-size="10.00" fill="grey">y</text>
<text text-anchor="middle" x="64" y="-62.55" font-family="Helvetica,sans-Serif" font-size="10.00" fill="grey">z</text>
</g>
<!-- Node12 -->
<g id="Node000012" class="node">
<title>Node12</title>
<g id="a_Node000012"><a xlink:href="../../d8/dba/classcarla_1_1geom_1_1Rotation.html" target="_top" xlink:title=" ">
<polygon fill="white" stroke="#666666" points="334.5,-33.05 225.5,-33.05 225.5,-13.05 334.5,-13.05 334.5,-33.05"/>
<text text-anchor="middle" x="280" y="-19.55" font-family="Helvetica,sans-Serif" font-size="10.00">carla::geom::Rotation</text>
</a>
</g>
</g>
<!-- Node11&#45;&gt;Node12 -->
<g id="edge12_Node000012_Node000011" class="edge">
<title>Node11&#45;&gt;Node12</title>
<g id="a_edge12_Node000012_Node000011"><a xlink:title=" ">
<path fill="none" stroke="#9a32cd" stroke-dasharray="5,2" d="M32.41,-28.89C37.89,-23.37 44.61,-17.98 52,-15.05 114.32,9.66 193.97,-1.98 240.46,-12.58"/>
<polygon fill="#9a32cd" stroke="#9a32cd" points="30.39,-26.03 26.34,-35.82 35.61,-30.69 30.39,-26.03"/>
</a>
</g>
<text text-anchor="middle" x="64" y="-41.55" font-family="Helvetica,sans-Serif" font-size="10.00" fill="grey"> pitch</text>
<text text-anchor="middle" x="64" y="-29.55" font-family="Helvetica,sans-Serif" font-size="10.00" fill="grey">roll</text>
<text text-anchor="middle" x="64" y="-17.55" font-family="Helvetica,sans-Serif" font-size="10.00" fill="grey">yaw</text>
</g>
<!-- Node12&#45;&gt;Node8 -->
<g id="edge11_Node000008_Node000012" class="edge">
<title>Node12&#45;&gt;Node8</title>
<g id="a_edge11_Node000008_Node000012"><a xlink:title=" ">
<path fill="none" stroke="#9a32cd" stroke-dasharray="5,2" d="M345.61,-28.46C404.32,-33.38 490.1,-40.56 546.35,-45.27"/>
<polygon fill="#9a32cd" stroke="#9a32cd" points="346.24,-24.92 335.98,-27.57 345.65,-31.89 346.24,-24.92"/>
</a>
</g>
<text text-anchor="middle" x="407.38" y="-40.55" font-family="Helvetica,sans-Serif" font-size="10.00" fill="grey"> rotation</text>
</g>
<!-- Node13 -->
<g id="Node000013" class="node">
<title>Node13</title>
<g id="a_Node000013"><a xlink:title=" ">
<polygon fill="white" stroke="#666666" points="883.12,-120.05 832.62,-120.05 832.62,-100.05 883.12,-100.05 883.12,-120.05"/>
<text text-anchor="middle" x="857.88" y="-106.55" font-family="Helvetica,sans-Serif" font-size="10.00">uint32_t</text>
</a>
</g>
</g>
<!-- Node13&#45;&gt;Node1 -->
<g id="edge13_Node000001_Node000013" class="edge">
<title>Node13&#45;&gt;Node1</title>
<g id="a_edge13_Node000001_Node000013"><a xlink:title=" ">
<path fill="none" stroke="#9a32cd" stroke-dasharray="5,2" d="M894.11,-110.05C939.32,-110.05 1018.03,-110.05 1069.38,-110.05"/>
<polygon fill="#9a32cd" stroke="#9a32cd" points="894.37,-106.55 884.37,-110.05 894.37,-113.55 894.37,-106.55"/>
</a>
</g>
<text text-anchor="middle" x="996" y="-112.55" font-family="Helvetica,sans-Serif" font-size="10.00" fill="grey"> _parent</text>
</g>
<!-- Node14 -->
<g id="Node000014" class="node">
<title>Node14</title>
<g id="a_Node000014"><a xlink:title=" ">
<polygon fill="white" stroke="#666666" points="921.38,-82.05 794.38,-82.05 794.38,-50.05 921.38,-50.05 921.38,-82.05"/>
<text text-anchor="start" x="802.38" y="-68.55" font-family="Helvetica,sans-Serif" font-size="10.00">vector&lt; carla::road</text>
<text text-anchor="middle" x="857.88" y="-56.55" font-family="Helvetica,sans-Serif" font-size="10.00">::element::LaneMarking &gt;</text>
</a>
</g>
</g>
<!-- Node14&#45;&gt;Node1 -->
<g id="edge14_Node000001_Node000014" class="edge">
<title>Node14&#45;&gt;Node1</title>
<g id="a_edge14_Node000001_Node000014"><a xlink:title=" ">
<path fill="none" stroke="#9a32cd" stroke-dasharray="5,2" d="M932.01,-75.15C968.1,-80.03 1012.22,-86.57 1051.5,-94.05 1057.2,-95.14 1063.14,-96.38 1069.04,-97.68"/>
<polygon fill="#9a32cd" stroke="#9a32cd" points="932.94,-71.61 922.57,-73.75 932.02,-78.55 932.94,-71.61"/>
</a>
</g>
<text text-anchor="middle" x="996" y="-96.55" font-family="Helvetica,sans-Serif" font-size="10.00" fill="grey"> _crossed_lane_markings</text>
</g>
</g>
</svg>
