<?xml version="1.0" encoding="UTF-8" standalone="no"?>
<!DOCTYPE svg PUBLIC "-//W3C//DTD SVG 1.1//EN"
 "http://www.w3.org/Graphics/SVG/1.1/DTD/svg11.dtd">
<!-- Generated by graphviz version 8.1.0 (20230707.0739)
 -->
<!-- Title: AInertialMeasurementUnit::SetAccelerationStandardDeviation Pages: 1 -->
<svg width="549pt" height="40pt"
 viewBox="0.00 0.00 548.75 40.00" xmlns="http://www.w3.org/2000/svg" xmlns:xlink="http://www.w3.org/1999/xlink">
<g id="graph0" class="graph" transform="scale(1 1) rotate(0) translate(4 36)">
<title>AInertialMeasurementUnit::SetAccelerationStandardDeviation</title>
<!-- Node1 -->
<g id="Node000001" class="node">
<title>Node1</title>
<g id="a_Node000001"><a xlink:title=" ">
<polygon fill="#999999" stroke="#666666" points="540.75,-32 371.75,-32 371.75,0 540.75,0 540.75,-32"/>
<text text-anchor="start" x="379.75" y="-18.5" font-family="Helvetica,sans-Serif" font-size="10.00">AInertialMeasurementUnit</text>
<text text-anchor="middle" x="456.25" y="-6.5" font-family="Helvetica,sans-Serif" font-size="10.00">::SetAccelerationStandardDeviation</text>
</a>
</g>
</g>
<!-- Node2 -->
<g id="Node000002" class="node">
<title>Node2</title>
<g id="a_Node000002"><a xlink:href="../../dd/da3/classUActorBlueprintFunctionLibrary.html#affa8a0128f536d34d052c54c93ff3629" target="_top" xlink:title=" ">
<polygon fill="white" stroke="#666666" points="335.75,-32 184.75,-32 184.75,0 335.75,0 335.75,-32"/>
<text text-anchor="start" x="192.75" y="-18.5" font-family="Helvetica,sans-Serif" font-size="10.00">UActorBlueprintFunctionLibrary</text>
<text text-anchor="middle" x="260.25" y="-6.5" font-family="Helvetica,sans-Serif" font-size="10.00">::SetIMU</text>
</a>
</g>
</g>
<!-- Node1&#45;&gt;Node2 -->
<g id="edge1_Node000001_Node000002" class="edge">
<title>Node1&#45;&gt;Node2</title>
<g id="a_edge1_Node000001_Node000002"><a xlink:title=" ">
<path fill="none" stroke="#63b8ff" d="M360.29,-16C352.2,-16 344.09,-16 336.19,-16"/>
<polygon fill="#63b8ff" stroke="#63b8ff" points="360.29,-19.5 370.29,-16 360.29,-12.5 360.29,-19.5"/>
</a>
</g>
</g>
<!-- Node3 -->
<g id="Node000003" class="node">
<title>Node3</title>
<g id="a_Node000003"><a xlink:href="../../d5/de0/classAInertialMeasurementUnit.html#ac0fd1f47876962647b54b8607a5c4414" target="_top" xlink:title=" ">
<polygon fill="white" stroke="#666666" points="148.75,-26 0,-26 0,-6 148.75,-6 148.75,-26"/>
<text text-anchor="middle" x="74.38" y="-12.5" font-family="Helvetica,sans-Serif" font-size="10.00">AInertialMeasurementUnit::Set</text>
</a>
</g>
</g>
<!-- Node2&#45;&gt;Node3 -->
<g id="edge2_Node000002_Node000003" class="edge">
<title>Node2&#45;&gt;Node3</title>
<g id="a_edge2_Node000002_Node000003"><a xlink:title=" ">
<path fill="none" stroke="#63b8ff" d="M173.47,-16C165.36,-16 157.19,-16 149.2,-16"/>
<polygon fill="#63b8ff" stroke="#63b8ff" points="173.46,-19.5 183.46,-16 173.46,-12.5 173.46,-19.5"/>
</a>
</g>
</g>
</g>
</svg>
