<?xml version="1.0" encoding="UTF-8" standalone="no"?>
<!DOCTYPE svg PUBLIC "-//W3C//DTD SVG 1.1//EN"
 "http://www.w3.org/Graphics/SVG/1.1/DTD/svg11.dtd">
<!-- Generated by graphviz version 7.0.5 (20221223.1930)
 -->
<!-- Title: carla::rpc::Response::HasError Pages: 1 -->
<svg width="590pt" height="263pt"
 viewBox="0.00 0.00 590.00 263.00" xmlns="http://www.w3.org/2000/svg" xmlns:xlink="http://www.w3.org/1999/xlink">
<g id="graph0" class="graph" transform="scale(1 1) rotate(0) translate(4 259)">
<title>carla::rpc::Response::HasError</title>
<!-- Node1 -->
<g id="node1" class="node">
<title>Node1</title>
<g id="a_node1"><a xlink:title=" ">
<polygon fill="#999999" stroke="#666666" points="582,-150 478,-150 478,-120 582,-120 582,-150"/>
<text text-anchor="start" x="486" y="-138" font-family="Helvetica,sans-Serif" font-size="10.00">carla::rpc::Response</text>
<text text-anchor="middle" x="530" y="-127" font-family="Helvetica,sans-Serif" font-size="10.00">::HasError</text>
</a>
</g>
</g>
<!-- Node2 -->
<g id="node2" class="node">
<title>Node2</title>
<g id="a_node2"><a xlink:href="../../dd/db9/classcarla_1_1rpc_1_1Response.html#a670c7306ec1377803382639a120b0895" target="_top" xlink:title=" ">
<polygon fill="white" stroke="#666666" points="442,-249.5 318,-249.5 318,-230.5 442,-230.5 442,-249.5"/>
<text text-anchor="middle" x="380" y="-237.5" font-family="Helvetica,sans-Serif" font-size="10.00">carla::rpc::Response::Get</text>
</a>
</g>
</g>
<!-- Node1&#45;&gt;Node2 -->
<g id="edge1" class="edge">
<title>Node1&#45;&gt;Node2</title>
<path fill="none" stroke="#63b8ff" d="M508.47,-158.4C491.94,-176.1 467.36,-200.02 442,-216 433.05,-221.64 422.55,-226.35 412.81,-230.06"/>
<polygon fill="#63b8ff" stroke="#63b8ff" points="510.72,-161.12 514.89,-151.38 505.56,-156.4 510.72,-161.12"/>
</g>
<!-- Node5 -->
<g id="node5" class="node">
<title>Node5</title>
<g id="a_node5"><a xlink:href="../../dc/ddc/test__msgpack_8cpp.html#a53f5f91b99082ebcba27fdc5fdcfe15f" target="_top" xlink:title=" ">
<polygon fill="white" stroke="#666666" points="246,-211.5 205,-211.5 205,-192.5 246,-192.5 246,-211.5"/>
<text text-anchor="middle" x="225.5" y="-199.5" font-family="Helvetica,sans-Serif" font-size="10.00">TEST</text>
</a>
</g>
</g>
<!-- Node1&#45;&gt;Node5 -->
<g id="edge10" class="edge">
<title>Node1&#45;&gt;Node5</title>
<path fill="none" stroke="#63b8ff" d="M497.89,-156.32C481.9,-166.17 461.68,-177 442,-183 372.49,-204.2 284.94,-204.21 246.33,-202.95"/>
<polygon fill="#63b8ff" stroke="#63b8ff" points="499.42,-159.49 505.98,-151.17 495.66,-153.59 499.42,-159.49"/>
</g>
<!-- Node6 -->
<g id="node6" class="node">
<title>Node6</title>
<g id="a_node6"><a xlink:href="../../dd/db9/classcarla_1_1rpc_1_1Response.html#af15f1335290985761e965deea7c2d40a" target="_top" xlink:title=" ">
<polygon fill="white" stroke="#666666" points="432,-174 328,-174 328,-144 432,-144 432,-174"/>
<text text-anchor="start" x="336" y="-162" font-family="Helvetica,sans-Serif" font-size="10.00">carla::rpc::Response</text>
<text text-anchor="middle" x="380" y="-151" font-family="Helvetica,sans-Serif" font-size="10.00">::GetError</text>
</a>
</g>
</g>
<!-- Node1&#45;&gt;Node6 -->
<g id="edge5" class="edge">
<title>Node1&#45;&gt;Node6</title>
<path fill="none" stroke="#63b8ff" d="M466.43,-145.15C455.03,-146.99 443.27,-148.9 432.26,-150.69"/>
<polygon fill="#63b8ff" stroke="#63b8ff" points="466.85,-148.62 476.16,-143.57 465.73,-141.71 466.85,-148.62"/>
</g>
<!-- Node7 -->
<g id="node7" class="node">
<title>Node7</title>
<g id="a_node7"><a xlink:href="../../d0/d65/classcarla_1_1rpc_1_1Response_3_01void_01_4.html#a9ea31c949794404ab5b920c9ef9de9f5" target="_top" xlink:title=" ">
<polygon fill="white" stroke="#666666" points="432,-126 328,-126 328,-96 432,-96 432,-126"/>
<text text-anchor="start" x="336" y="-114" font-family="Helvetica,sans-Serif" font-size="10.00">carla::rpc::Response</text>
<text text-anchor="middle" x="380" y="-103" font-family="Helvetica,sans-Serif" font-size="10.00">&lt; void &gt;::GetError</text>
</a>
</g>
</g>
<!-- Node1&#45;&gt;Node7 -->
<g id="edge7" class="edge">
<title>Node1&#45;&gt;Node7</title>
<path fill="none" stroke="#63b8ff" d="M466.43,-124.85C455.03,-123.01 443.27,-121.1 432.26,-119.31"/>
<polygon fill="#63b8ff" stroke="#63b8ff" points="465.73,-128.29 476.16,-126.43 466.85,-121.38 465.73,-128.29"/>
</g>
<!-- Node8 -->
<g id="node8" class="node">
<title>Node8</title>
<g id="a_node8"><a xlink:href="../../dd/db9/classcarla_1_1rpc_1_1Response.html#a483edc1a4194bf810b262225b6da9f04" target="_top" xlink:title=" ">
<polygon fill="white" stroke="#666666" points="432,-78 328,-78 328,-48 432,-48 432,-78"/>
<text text-anchor="start" x="336" y="-66" font-family="Helvetica,sans-Serif" font-size="10.00">carla::rpc::Response</text>
<text text-anchor="middle" x="380" y="-55" font-family="Helvetica,sans-Serif" font-size="10.00">::operator bool</text>
</a>
</g>
</g>
<!-- Node1&#45;&gt;Node8 -->
<g id="edge8" class="edge">
<title>Node1&#45;&gt;Node8</title>
<path fill="none" stroke="#63b8ff" d="M493.45,-114.03C477.9,-105.21 459.29,-95.13 442,-87 435.72,-84.05 428.97,-81.14 422.32,-78.42"/>
<polygon fill="#63b8ff" stroke="#63b8ff" points="491.46,-116.92 501.88,-118.86 494.94,-110.85 491.46,-116.92"/>
</g>
<!-- Node9 -->
<g id="node9" class="node">
<title>Node9</title>
<g id="a_node9"><a xlink:href="../../d0/d65/classcarla_1_1rpc_1_1Response_3_01void_01_4.html#a1fa80cb09162da02e62c1cba20d5ba32" target="_top" xlink:title=" ">
<polygon fill="white" stroke="#666666" points="435.5,-30 324.5,-30 324.5,0 435.5,0 435.5,-30"/>
<text text-anchor="start" x="332.5" y="-18" font-family="Helvetica,sans-Serif" font-size="10.00">carla::rpc::Response</text>
<text text-anchor="middle" x="380" y="-7" font-family="Helvetica,sans-Serif" font-size="10.00">&lt; void &gt;::operator bool</text>
</a>
</g>
</g>
<!-- Node1&#45;&gt;Node9 -->
<g id="edge9" class="edge">
<title>Node1&#45;&gt;Node9</title>
<path fill="none" stroke="#63b8ff" d="M511.99,-110.59C496.02,-89.23 470.4,-58.63 442,-39 437.41,-35.83 432.35,-32.99 427.15,-30.48"/>
<polygon fill="#63b8ff" stroke="#63b8ff" points="509,-112.44 517.72,-118.46 514.66,-108.32 509,-112.44"/>
</g>
<!-- Node3 -->
<g id="node3" class="node">
<title>Node3</title>
<g id="a_node3"><a xlink:href="../../d8/dcd/namespacecarla_1_1client_1_1detail.html#a09f3c7aea15fa736fb973b5c4bb90083" target="_top" xlink:title=" ">
<polygon fill="white" stroke="#666666" points="282,-249.5 169,-249.5 169,-230.5 282,-230.5 282,-249.5"/>
<text text-anchor="middle" x="225.5" y="-237.5" font-family="Helvetica,sans-Serif" font-size="10.00">carla::client::detail::Get</text>
</a>
</g>
</g>
<!-- Node2&#45;&gt;Node3 -->
<g id="edge2" class="edge">
<title>Node2&#45;&gt;Node3</title>
<path fill="none" stroke="#63b8ff" d="M306.43,-240C298.3,-240 290.11,-240 282.23,-240"/>
<polygon fill="#63b8ff" stroke="#63b8ff" points="306.34,-243.5 316.34,-240 306.34,-236.5 306.34,-243.5"/>
</g>
<!-- Node2&#45;&gt;Node5 -->
<g id="edge4" class="edge">
<title>Node2&#45;&gt;Node5</title>
<path fill="none" stroke="#63b8ff" d="M328.09,-227.31C300.08,-220.33 266.92,-212.07 246.3,-206.93"/>
<polygon fill="#63b8ff" stroke="#63b8ff" points="326.91,-230.63 337.46,-229.65 328.61,-223.84 326.91,-230.63"/>
</g>
<!-- Node4 -->
<g id="node4" class="node">
<title>Node4</title>
<g id="a_node4"><a xlink:href="../../dc/de1/classcarla_1_1client_1_1detail_1_1Client_1_1Pimpl.html#adda5cd1104173f80cd8a7c9cd1e077d8" target="_top" xlink:title=" ">
<polygon fill="white" stroke="#666666" points="133,-255 0,-255 0,-225 133,-225 133,-255"/>
<text text-anchor="start" x="8" y="-243" font-family="Helvetica,sans-Serif" font-size="10.00">carla::client::detail</text>
<text text-anchor="middle" x="66.5" y="-232" font-family="Helvetica,sans-Serif" font-size="10.00">::Client::Pimpl::CallAndWait</text>
</a>
</g>
</g>
<!-- Node3&#45;&gt;Node4 -->
<g id="edge3" class="edge">
<title>Node3&#45;&gt;Node4</title>
<path fill="none" stroke="#63b8ff" d="M157.24,-240C149.31,-240 141.22,-240 133.31,-240"/>
<polygon fill="#63b8ff" stroke="#63b8ff" points="157.19,-243.5 167.19,-240 157.19,-236.5 157.19,-243.5"/>
</g>
<!-- Node6&#45;&gt;Node5 -->
<g id="edge6" class="edge">
<title>Node6&#45;&gt;Node5</title>
<path fill="none" stroke="#63b8ff" d="M316.81,-176.54C291.66,-183.63 264.4,-191.31 246.48,-196.37"/>
<polygon fill="#63b8ff" stroke="#63b8ff" points="317.66,-179.93 326.34,-173.85 315.76,-173.19 317.66,-179.93"/>
</g>
</g>
</svg>
