<?xml version="1.0" encoding="UTF-8" standalone="no"?>
<!DOCTYPE svg PUBLIC "-//W3C//DTD SVG 1.1//EN"
 "http://www.w3.org/Graphics/SVG/1.1/DTD/svg11.dtd">
<!-- Generated by graphviz version 8.1.0 (20230707.0739)
 -->
<!-- Title: ACarlaRecorder::Disable Pages: 1 -->
<svg width="955pt" height="164pt"
 viewBox="0.00 0.00 955.25 164.00" xmlns="http://www.w3.org/2000/svg" xmlns:xlink="http://www.w3.org/1999/xlink">
<g id="graph0" class="graph" transform="scale(1 1) rotate(0) translate(4 160)">
<title>ACarlaRecorder::Disable</title>
<!-- Node1 -->
<g id="Node000001" class="node">
<title>Node1</title>
<g id="a_Node000001"><a xlink:title=" ">
<polygon fill="#999999" stroke="#666666" points="947.25,-118 824.75,-118 824.75,-98 947.25,-98 947.25,-118"/>
<text text-anchor="middle" x="886" y="-104.5" font-family="Helvetica,sans-Serif" font-size="10.00">ACarlaRecorder::Disable</text>
</a>
</g>
</g>
<!-- Node2 -->
<g id="Node000002" class="node">
<title>Node2</title>
<g id="a_Node000002"><a xlink:href="../../dd/db9/classACarlaRecorder.html#a0a089498a3d94a96b6003419f9d69368" target="_top" xlink:title=" ">
<polygon fill="white" stroke="#666666" points="788.75,-156 630.25,-156 630.25,-136 788.75,-136 788.75,-156"/>
<text text-anchor="middle" x="709.5" y="-142.5" font-family="Helvetica,sans-Serif" font-size="10.00">ACarlaRecorder::ACarlaRecorder</text>
</a>
</g>
</g>
<!-- Node1&#45;&gt;Node2 -->
<g id="edge1_Node000001_Node000002" class="edge">
<title>Node1&#45;&gt;Node2</title>
<g id="a_edge1_Node000001_Node000002"><a xlink:title=" ">
<path fill="none" stroke="#63b8ff" d="M826.28,-120.79C804.23,-125.59 779.45,-130.99 758.49,-135.55"/>
<polygon fill="#63b8ff" stroke="#63b8ff" points="826.83,-124.03 835.86,-118.48 825.34,-117.19 826.83,-124.03"/>
</a>
</g>
</g>
<!-- Node3 -->
<g id="Node000003" class="node">
<title>Node3</title>
<g id="a_Node000003"><a xlink:href="../../dd/db9/classACarlaRecorder.html#a49ecfd34370fa2e8903b6797e9fd3d8f" target="_top" xlink:title=" ">
<polygon fill="white" stroke="#666666" points="788.75,-118 630.25,-118 630.25,-98 788.75,-98 788.75,-118"/>
<text text-anchor="middle" x="709.5" y="-104.5" font-family="Helvetica,sans-Serif" font-size="10.00">ACarlaRecorder::ACarlaRecorder</text>
</a>
</g>
</g>
<!-- Node1&#45;&gt;Node3 -->
<g id="edge2_Node000001_Node000003" class="edge">
<title>Node1&#45;&gt;Node3</title>
<g id="a_edge2_Node000001_Node000003"><a xlink:title=" ">
<path fill="none" stroke="#63b8ff" d="M813.58,-108C805.5,-108 797.23,-108 789.07,-108"/>
<polygon fill="#63b8ff" stroke="#63b8ff" points="813.46,-111.5 823.46,-108 813.46,-104.5 813.46,-111.5"/>
</a>
</g>
</g>
<!-- Node4 -->
<g id="Node000004" class="node">
<title>Node4</title>
<g id="a_Node000004"><a xlink:href="../../dd/db9/classACarlaRecorder.html#afbefa0c9df84650c63f75b780ce2dac5" target="_top" xlink:title=" ">
<polygon fill="white" stroke="#666666" points="764.75,-80 654.25,-80 654.25,-60 764.75,-60 764.75,-80"/>
<text text-anchor="middle" x="709.5" y="-66.5" font-family="Helvetica,sans-Serif" font-size="10.00">ACarlaRecorder::Stop</text>
</a>
</g>
</g>
<!-- Node1&#45;&gt;Node4 -->
<g id="edge3_Node000001_Node000004" class="edge">
<title>Node1&#45;&gt;Node4</title>
<g id="a_edge3_Node000001_Node000004"><a xlink:title=" ">
<path fill="none" stroke="#63b8ff" d="M826.28,-95.21C804.23,-90.41 779.45,-85.01 758.49,-80.45"/>
<polygon fill="#63b8ff" stroke="#63b8ff" points="825.34,-98.81 835.86,-97.52 826.83,-91.97 825.34,-98.81"/>
</a>
</g>
</g>
<!-- Node5 -->
<g id="Node000005" class="node">
<title>Node5</title>
<g id="a_Node000005"><a xlink:href="../../d7/d97/classFCarlaServer_1_1FPimpl.html#a675a6b572112a21e8bc011dddfd0de86" target="_top" xlink:title=" ">
<polygon fill="white" stroke="#666666" points="252.5,-64 144.25,-64 144.25,-32 252.5,-32 252.5,-64"/>
<text text-anchor="start" x="152.25" y="-50.5" font-family="Helvetica,sans-Serif" font-size="10.00">FCarlaServer::FPimpl</text>
<text text-anchor="middle" x="198.38" y="-38.5" font-family="Helvetica,sans-Serif" font-size="10.00">::BindActions</text>
</a>
</g>
</g>
<!-- Node4&#45;&gt;Node5 -->
<g id="edge4_Node000004_Node000005" class="edge">
<title>Node4&#45;&gt;Node5</title>
<g id="a_edge4_Node000004_Node000005"><a xlink:title=" ">
<path fill="none" stroke="#63b8ff" d="M647.08,-83.37C641.33,-85.08 635.64,-86.96 630.25,-89 613.33,-95.41 611.68,-103.16 594.25,-108 463.27,-144.4 417.14,-160.98 288.5,-117 258.13,-106.62 230.1,-81.22 213.87,-64.31"/>
<polygon fill="#63b8ff" stroke="#63b8ff" points="647.75,-86.53 656.43,-80.46 645.86,-79.79 647.75,-86.53"/>
</a>
</g>
</g>
<!-- Node7 -->
<g id="Node000007" class="node">
<title>Node7</title>
<g id="a_Node000007"><a xlink:href="../../dc/d84/classUCarlaEpisode.html#a04380aa760fc6891f1c51cdbe7ddb856" target="_top" xlink:title=" ">
<polygon fill="white" stroke="#666666" points="594.25,-99 471,-99 471,-79 594.25,-79 594.25,-99"/>
<text text-anchor="middle" x="532.62" y="-85.5" font-family="Helvetica,sans-Serif" font-size="10.00">UCarlaEpisode::EndPlay</text>
</a>
</g>
</g>
<!-- Node4&#45;&gt;Node7 -->
<g id="edge6_Node000004_Node000007" class="edge">
<title>Node4&#45;&gt;Node7</title>
<g id="a_edge6_Node000004_Node000007"><a xlink:title=" ">
<path fill="none" stroke="#63b8ff" d="M643.3,-77.08C627.37,-78.81 610.4,-80.66 594.67,-82.37"/>
<polygon fill="#63b8ff" stroke="#63b8ff" points="643.56,-80.47 653.13,-75.91 642.81,-73.51 643.56,-80.47"/>
</a>
</g>
</g>
<!-- Node9 -->
<g id="Node000009" class="node">
<title>Node9</title>
<g id="a_Node000009"><a xlink:href="../../dd/db9/classACarlaRecorder.html#a5dc891241c275eedcf6b1f189751520b" target="_top" xlink:title=" ">
<polygon fill="white" stroke="#666666" points="429.75,-58 293.75,-58 293.75,-38 429.75,-38 429.75,-58"/>
<text text-anchor="middle" x="361.75" y="-44.5" font-family="Helvetica,sans-Serif" font-size="10.00">ACarlaRecorder::ReplayFile</text>
</a>
</g>
</g>
<!-- Node4&#45;&gt;Node9 -->
<g id="edge8_Node000004_Node000009" class="edge">
<title>Node4&#45;&gt;Node9</title>
<g id="a_edge8_Node000004_Node000009"><a xlink:title=" ">
<path fill="none" stroke="#63b8ff" d="M643.46,-65.86C582.53,-61.98 491.87,-56.22 430.18,-52.29"/>
<polygon fill="#63b8ff" stroke="#63b8ff" points="642.89,-69.4 653.1,-66.54 643.34,-62.41 642.89,-69.4"/>
</a>
</g>
</g>
<!-- Node10 -->
<g id="Node000010" class="node">
<title>Node10</title>
<g id="a_Node000010"><a xlink:href="../../dd/db9/classACarlaRecorder.html#aba719596bd56c72a39f902f6e9a5d290" target="_top" xlink:title=" ">
<polygon fill="white" stroke="#666666" points="588.25,-21 477,-21 477,-1 588.25,-1 588.25,-21"/>
<text text-anchor="middle" x="532.62" y="-7.5" font-family="Helvetica,sans-Serif" font-size="10.00">ACarlaRecorder::Start</text>
</a>
</g>
</g>
<!-- Node4&#45;&gt;Node10 -->
<g id="edge10_Node000004_Node000010" class="edge">
<title>Node4&#45;&gt;Node10</title>
<g id="a_edge10_Node000004_Node000010"><a xlink:title=" ">
<path fill="none" stroke="#63b8ff" d="M667.42,-56.14C635.91,-45.51 593.1,-31.07 564.47,-21.41"/>
<polygon fill="#63b8ff" stroke="#63b8ff" points="666.04,-59.71 676.64,-59.59 668.28,-53.07 666.04,-59.71"/>
</a>
</g>
</g>
<!-- Node6 -->
<g id="Node000006" class="node">
<title>Node6</title>
<g id="a_Node000006"><a xlink:href="../../d7/d97/classFCarlaServer_1_1FPimpl.html#ab9ff29fc81bd2f9a14677941c7f7b62d" target="_top" xlink:title=" ">
<polygon fill="white" stroke="#666666" points="108.25,-64 0,-64 0,-32 108.25,-32 108.25,-64"/>
<text text-anchor="start" x="8" y="-50.5" font-family="Helvetica,sans-Serif" font-size="10.00">FCarlaServer::FPimpl</text>
<text text-anchor="middle" x="54.12" y="-38.5" font-family="Helvetica,sans-Serif" font-size="10.00">::FPimpl</text>
</a>
</g>
</g>
<!-- Node5&#45;&gt;Node6 -->
<g id="edge5_Node000005_Node000006" class="edge">
<title>Node5&#45;&gt;Node6</title>
<g id="a_edge5_Node000005_Node000006"><a xlink:title=" ">
<path fill="none" stroke="#63b8ff" d="M133.19,-48C124.87,-48 116.43,-48 108.32,-48"/>
<polygon fill="#63b8ff" stroke="#63b8ff" points="133,-51.5 143,-48 133,-44.5 133,-51.5"/>
</a>
</g>
</g>
<!-- Node8 -->
<g id="Node000008" class="node">
<title>Node8</title>
<g id="a_Node000008"><a xlink:href="../../db/de5/classACarlaGameModeBase.html#a8e61df047eac428453a627a6de9ace75" target="_top" xlink:title=" ">
<polygon fill="white" stroke="#666666" points="420.75,-108 302.75,-108 302.75,-76 420.75,-76 420.75,-108"/>
<text text-anchor="start" x="310.75" y="-94.5" font-family="Helvetica,sans-Serif" font-size="10.00">ACarlaGameModeBase</text>
<text text-anchor="middle" x="361.75" y="-82.5" font-family="Helvetica,sans-Serif" font-size="10.00">::EndPlay</text>
</a>
</g>
</g>
<!-- Node7&#45;&gt;Node8 -->
<g id="edge7_Node000007_Node000008" class="edge">
<title>Node7&#45;&gt;Node8</title>
<g id="a_edge7_Node000007_Node000008"><a xlink:title=" ">
<path fill="none" stroke="#63b8ff" d="M459.9,-90.27C446.96,-90.5 433.6,-90.74 421.09,-90.96"/>
<polygon fill="#63b8ff" stroke="#63b8ff" points="459.72,-93.76 469.66,-90.08 459.6,-86.76 459.72,-93.76"/>
</a>
</g>
</g>
<!-- Node9&#45;&gt;Node5 -->
<g id="edge9_Node000009_Node000005" class="edge">
<title>Node9&#45;&gt;Node5</title>
<g id="a_edge9_Node000009_Node000005"><a xlink:title=" ">
<path fill="none" stroke="#63b8ff" d="M282.73,-48C272.55,-48 262.32,-48 252.69,-48"/>
<polygon fill="#63b8ff" stroke="#63b8ff" points="282.71,-51.5 292.71,-48 282.71,-44.5 282.71,-51.5"/>
</a>
</g>
</g>
<!-- Node11 -->
<g id="Node000011" class="node">
<title>Node11</title>
<g id="a_Node000011"><a xlink:href="../../dc/d84/classUCarlaEpisode.html#a1059ce6d102804115b3243de46d46bec" target="_top" xlink:title=" ">
<polygon fill="white" stroke="#666666" points="435,-20 288.5,-20 288.5,0 435,0 435,-20"/>
<text text-anchor="middle" x="361.75" y="-6.5" font-family="Helvetica,sans-Serif" font-size="10.00">UCarlaEpisode::StartRecorder</text>
</a>
</g>
</g>
<!-- Node10&#45;&gt;Node11 -->
<g id="edge11_Node000010_Node000011" class="edge">
<title>Node10&#45;&gt;Node11</title>
<g id="a_edge11_Node000010_Node000011"><a xlink:title=" ">
<path fill="none" stroke="#63b8ff" d="M466.08,-10.61C456.04,-10.55 445.62,-10.49 435.44,-10.43"/>
<polygon fill="#63b8ff" stroke="#63b8ff" points="465.78,-14.12 475.8,-10.68 465.82,-7.12 465.78,-14.12"/>
</a>
</g>
</g>
<!-- Node11&#45;&gt;Node5 -->
<g id="edge12_Node000011_Node000005" class="edge">
<title>Node11&#45;&gt;Node5</title>
<g id="a_edge12_Node000011_Node000005"><a xlink:title=" ">
<path fill="none" stroke="#63b8ff" d="M305.84,-22.93C288.75,-26.96 269.93,-31.39 252.93,-35.39"/>
<polygon fill="#63b8ff" stroke="#63b8ff" points="306.29,-26.18 315.23,-20.48 304.69,-19.37 306.29,-26.18"/>
</a>
</g>
</g>
</g>
</svg>
