<?xml version="1.0" encoding="UTF-8" standalone="no"?>
<!DOCTYPE svg PUBLIC "-//W3C//DTD SVG 1.1//EN"
 "http://www.w3.org/Graphics/SVG/1.1/DTD/svg11.dtd">
<!-- Generated by graphviz version 8.1.0 (20230707.0739)
 -->
<!-- Title: ACarlaRecorder::AddVehicleDoor Pages: 1 -->
<svg width="560pt" height="154pt"
 viewBox="0.00 0.00 560.00 154.00" xmlns="http://www.w3.org/2000/svg" xmlns:xlink="http://www.w3.org/1999/xlink">
<g id="graph0" class="graph" transform="scale(1 1) rotate(0) translate(4 150)">
<title>ACarlaRecorder::AddVehicleDoor</title>
<!-- Node1 -->
<g id="Node000001" class="node">
<title>Node1</title>
<g id="a_Node000001"><a xlink:title=" ">
<polygon fill="#999999" stroke="#666666" points="160,-80 0,-80 0,-60 160,-60 160,-80"/>
<text text-anchor="middle" x="80" y="-66.5" font-family="Helvetica,sans-Serif" font-size="10.00">ACarlaRecorder::AddVehicleDoor</text>
</a>
</g>
</g>
<!-- Node2 -->
<g id="Node000002" class="node">
<title>Node2</title>
<g id="a_Node000002"><a xlink:href="../../dd/db9/classACarlaRecorder.html#aec6259caf0df6baf554d069a49401b34" target="_top" xlink:title=" ">
<polygon fill="white" stroke="#666666" points="356.75,-146 196.75,-146 196.75,-126 356.75,-126 356.75,-146"/>
<text text-anchor="middle" x="276.75" y="-132.5" font-family="Helvetica,sans-Serif" font-size="10.00">ACarlaRecorder::AddDoorVehicle</text>
</a>
</g>
</g>
<!-- Node1&#45;&gt;Node2 -->
<g id="edge1_Node000001_Node000002" class="edge">
<title>Node1&#45;&gt;Node2</title>
<g id="a_edge1_Node000001_Node000002"><a xlink:title=" ">
<path fill="none" stroke="#63b8ff" d="M103.53,-80.42C126.44,-90.72 163.15,-106.44 196,-117 202.4,-119.06 209.16,-121 215.92,-122.81"/>
<polygon fill="#63b8ff" stroke="#63b8ff" points="214.94,-126.43 225.5,-125.52 216.68,-119.65 214.94,-126.43"/>
</a>
</g>
</g>
<!-- Node4 -->
<g id="Node000004" class="node">
<title>Node4</title>
<g id="a_Node000004"><a xlink:href="../../df/db5/classFActorRegistry.html#aad0e91aea1c0849ca9917af82d4ec0d1" target="_top" xlink:title=" ">
<polygon fill="white" stroke="#666666" points="341,-108 212.5,-108 212.5,-76 341,-76 341,-108"/>
<text text-anchor="start" x="220.5" y="-94.5" font-family="Helvetica,sans-Serif" font-size="10.00">FActorRegistry::FindCarla</text>
<text text-anchor="middle" x="276.75" y="-82.5" font-family="Helvetica,sans-Serif" font-size="10.00">Actor</text>
</a>
</g>
</g>
<!-- Node1&#45;&gt;Node4 -->
<g id="edge3_Node000001_Node000004" class="edge">
<title>Node1&#45;&gt;Node4</title>
<g id="a_edge3_Node000001_Node000004"><a xlink:title=" ">
<path fill="none" stroke="#63b8ff" d="M160.49,-78.98C174.1,-80.52 188.2,-82.11 201.66,-83.63"/>
<polygon fill="#63b8ff" stroke="#63b8ff" points="200.97,-87.19 211.3,-84.83 201.76,-80.23 200.97,-87.19"/>
</a>
</g>
</g>
<!-- Node5 -->
<g id="Node000005" class="node">
<title>Node5</title>
<g id="a_Node000005"><a xlink:href="../../dc/dde/classFCarlaActor.html#aca3d1a4bfcb5e0ae1974b7206933d665" target="_top" xlink:title=" ">
<polygon fill="white" stroke="#666666" points="336.88,-58 216.62,-58 216.62,-38 336.88,-38 336.88,-58"/>
<text text-anchor="middle" x="276.75" y="-44.5" font-family="Helvetica,sans-Serif" font-size="10.00">FCarlaActor::GetActorId</text>
</a>
</g>
</g>
<!-- Node1&#45;&gt;Node5 -->
<g id="edge4_Node000001_Node000005" class="edge">
<title>Node1&#45;&gt;Node5</title>
<g id="a_edge4_Node000001_Node000005"><a xlink:title=" ">
<path fill="none" stroke="#63b8ff" d="M160.49,-61.02C175.33,-59.34 190.74,-57.6 205.28,-55.96"/>
<polygon fill="#63b8ff" stroke="#63b8ff" points="205.66,-59.33 215.2,-54.73 204.87,-52.37 205.66,-59.33"/>
</a>
</g>
</g>
<!-- Node6 -->
<g id="Node000006" class="node">
<title>Node6</title>
<g id="a_Node000006"><a xlink:href="../../dc/d84/classUCarlaEpisode.html#acd82b87ea8d4e7d815922614e6e245ef" target="_top" xlink:title=" ">
<polygon fill="white" stroke="#666666" points="357.5,-20 196,-20 196,0 357.5,0 357.5,-20"/>
<text text-anchor="middle" x="276.75" y="-6.5" font-family="Helvetica,sans-Serif" font-size="10.00">UCarlaEpisode::GetActorRegistry</text>
</a>
</g>
</g>
<!-- Node1&#45;&gt;Node6 -->
<g id="edge5_Node000001_Node000006" class="edge">
<title>Node1&#45;&gt;Node6</title>
<g id="a_edge5_Node000001_Node000006"><a xlink:title=" ">
<path fill="none" stroke="#63b8ff" d="M107.68,-59.56C130.82,-50.73 165.31,-38.1 196,-29 202.97,-26.93 210.33,-24.94 217.65,-23.06"/>
<polygon fill="#63b8ff" stroke="#63b8ff" points="218.44,-26.22 227.29,-20.41 216.75,-19.43 218.44,-26.22"/>
</a>
</g>
</g>
<!-- Node3 -->
<g id="Node000003" class="node">
<title>Node3</title>
<g id="a_Node000003"><a xlink:href="../../dc/dd3/structCarlaRecorderDoorVehicles.html#a90d63ce9de9800aa518c99644572e821" target="_top" xlink:title=" ">
<polygon fill="white" stroke="#666666" points="552,-146 393.5,-146 393.5,-126 552,-126 552,-146"/>
<text text-anchor="middle" x="472.75" y="-132.5" font-family="Helvetica,sans-Serif" font-size="10.00">CarlaRecorderDoorVehicles::Add</text>
</a>
</g>
</g>
<!-- Node2&#45;&gt;Node3 -->
<g id="edge2_Node000002_Node000003" class="edge">
<title>Node2&#45;&gt;Node3</title>
<g id="a_edge2_Node000002_Node000003"><a xlink:title=" ">
<path fill="none" stroke="#63b8ff" d="M357.22,-136C365.44,-136 373.83,-136 382.16,-136"/>
<polygon fill="#63b8ff" stroke="#63b8ff" points="382.03,-139.5 392.03,-136 382.03,-132.5 382.03,-139.5"/>
</a>
</g>
</g>
</g>
</svg>
