<?xml version="1.0" encoding="UTF-8" standalone="no"?>
<!DOCTYPE svg PUBLIC "-//W3C//DTD SVG 1.1//EN"
 "http://www.w3.org/Graphics/SVG/1.1/DTD/svg11.dtd">
<!-- Generated by graphviz version 8.1.0 (20230707.0739)
 -->
<!-- Title: TrafficLightController.h Pages: 1 -->
<svg width="3869pt" height="308pt"
 viewBox="0.00 0.00 3869.38 308.00" xmlns="http://www.w3.org/2000/svg" xmlns:xlink="http://www.w3.org/1999/xlink">
<g id="graph0" class="graph" transform="scale(1 1) rotate(0) translate(4 304)">
<title>TrafficLightController.h</title>
<!-- Node1 -->
<g id="Node000001" class="node">
<title>Node1</title>
<g id="a_Node000001"><a xlink:title=" ">
<polygon fill="#999999" stroke="#666666" points="375.62,-300 263.62,-300 263.62,-280 375.62,-280 375.62,-300"/>
<text text-anchor="middle" x="319.62" y="-286.5" font-family="Helvetica,sans-Serif" font-size="10.00">TrafficLightController.h</text>
</a>
</g>
</g>
<!-- Node2 -->
<g id="Node000002" class="node">
<title>Node2</title>
<g id="a_Node000002"><a xlink:href="../../da/d7f/ActorData_8cpp.html" target="_top" xlink:title=" ">
<polygon fill="white" stroke="#666666" points="469.75,-20 391.5,-20 391.5,0 469.75,0 469.75,-20"/>
<text text-anchor="middle" x="430.62" y="-6.5" font-family="Helvetica,sans-Serif" font-size="10.00">ActorData.cpp</text>
</a>
</g>
</g>
<!-- Node1&#45;&gt;Node2 -->
<g id="edge1_Node000001_Node000002" class="edge">
<title>Node1&#45;&gt;Node2</title>
<g id="a_edge1_Node000001_Node000002"><a xlink:title=" ">
<path fill="none" stroke="#63b8ff" d="M310.79,-269.49C301.04,-245.1 288.24,-202.37 300.62,-168 324.73,-101.08 391.13,-42.46 418.54,-20.36"/>
<polygon fill="#63b8ff" stroke="#63b8ff" points="307.95,-270.76 315.09,-278.6 314.39,-268.02 307.95,-270.76"/>
</a>
</g>
</g>
<!-- Node3 -->
<g id="Node000003" class="node">
<title>Node3</title>
<g id="a_Node000003"><a xlink:href="../../da/d49/CarlaRecorder_8cpp.html" target="_top" xlink:title=" ">
<polygon fill="white" stroke="#666666" points="405.75,-188 309.5,-188 309.5,-168 405.75,-168 405.75,-188"/>
<text text-anchor="middle" x="357.62" y="-174.5" font-family="Helvetica,sans-Serif" font-size="10.00">CarlaRecorder.cpp</text>
</a>
</g>
</g>
<!-- Node1&#45;&gt;Node3 -->
<g id="edge2_Node000001_Node000003" class="edge">
<title>Node1&#45;&gt;Node3</title>
<g id="a_edge2_Node000001_Node000003"><a xlink:title=" ">
<path fill="none" stroke="#63b8ff" d="M326.43,-269.3C334.68,-245.43 348.23,-206.2 354.39,-188.35"/>
<polygon fill="#63b8ff" stroke="#63b8ff" points="322.82,-268.03 322.86,-278.62 329.44,-270.31 322.82,-268.03"/>
</a>
</g>
</g>
<!-- Node4 -->
<g id="Node000004" class="node">
<title>Node4</title>
<g id="a_Node000004"><a xlink:href="../../d2/d32/CarlaReplayerHelper_8cpp.html" target="_top" xlink:title=" ">
<polygon fill="white" stroke="#666666" points="123.25,-20 0,-20 0,0 123.25,0 123.25,-20"/>
<text text-anchor="middle" x="61.62" y="-6.5" font-family="Helvetica,sans-Serif" font-size="10.00">CarlaReplayerHelper.cpp</text>
</a>
</g>
</g>
<!-- Node1&#45;&gt;Node4 -->
<g id="edge3_Node000001_Node000004" class="edge">
<title>Node1&#45;&gt;Node4</title>
<g id="a_edge3_Node000001_Node000004"><a xlink:title=" ">
<path fill="none" stroke="#63b8ff" d="M252.71,-286.23C181.39,-279.26 78.62,-255.89 78.62,-179 78.62,-179 78.62,-179 78.62,-121 78.62,-83.32 68.76,-39.22 64.06,-20.34"/>
<polygon fill="#63b8ff" stroke="#63b8ff" points="252.16,-289.78 262.43,-287.18 252.77,-282.81 252.16,-289.78"/>
</a>
</g>
</g>
<!-- Node5 -->
<g id="Node000005" class="node">
<title>Node5</title>
<g id="a_Node000005"><a xlink:href="../../df/d8a/FrameData_8cpp.html" target="_top" xlink:title=" ">
<polygon fill="white" stroke="#666666" points="224,-20 141.25,-20 141.25,0 224,0 224,-20"/>
<text text-anchor="middle" x="182.62" y="-6.5" font-family="Helvetica,sans-Serif" font-size="10.00">FrameData.cpp</text>
</a>
</g>
</g>
<!-- Node1&#45;&gt;Node5 -->
<g id="edge4_Node000001_Node000005" class="edge">
<title>Node1&#45;&gt;Node5</title>
<g id="a_edge4_Node000001_Node000005"><a xlink:title=" ">
<path fill="none" stroke="#63b8ff" d="M287.6,-274.88C253.88,-257.57 205.62,-224.81 205.62,-179 205.62,-179 205.62,-179 205.62,-121 205.62,-82.96 192.28,-39.05 185.92,-20.28"/>
<polygon fill="#63b8ff" stroke="#63b8ff" points="285.58,-278.28 296.1,-279.55 288.67,-271.99 285.58,-278.28"/>
</a>
</g>
</g>
<!-- Node6 -->
<g id="Node000006" class="node">
<title>Node6</title>
<g id="a_Node000006"><a xlink:href="../../d3/dcd/TrafficLightComponent_8cpp.html" target="_top" xlink:title=" ">
<polygon fill="white" stroke="#666666" points="373,-20 242.25,-20 242.25,0 373,0 373,-20"/>
<text text-anchor="middle" x="307.62" y="-6.5" font-family="Helvetica,sans-Serif" font-size="10.00">TrafficLightComponent.cpp</text>
</a>
</g>
</g>
<!-- Node1&#45;&gt;Node6 -->
<g id="edge5_Node000001_Node000006" class="edge">
<title>Node1&#45;&gt;Node6</title>
<g id="a_edge5_Node000001_Node000006"><a xlink:title=" ">
<path fill="none" stroke="#63b8ff" d="M293.36,-273.33C283.36,-265.84 273.06,-255.89 267.62,-244 230.77,-163.37 284.58,-52.93 302.3,-20.38"/>
<polygon fill="#63b8ff" stroke="#63b8ff" points="291.1,-276.72 301.32,-279.51 295.08,-270.95 291.1,-276.72"/>
</a>
</g>
</g>
<!-- Node7 -->
<g id="Node000007" class="node">
<title>Node7</title>
<g id="a_Node000007"><a xlink:href="../../d7/d63/TrafficLightController_8cpp.html" target="_top" xlink:title=" ">
<polygon fill="white" stroke="#666666" points="717.88,-244 595.38,-244 595.38,-224 717.88,-224 717.88,-244"/>
<text text-anchor="middle" x="656.62" y="-230.5" font-family="Helvetica,sans-Serif" font-size="10.00">TrafficLightController.cpp</text>
</a>
</g>
</g>
<!-- Node1&#45;&gt;Node7 -->
<g id="edge6_Node000001_Node000007" class="edge">
<title>Node1&#45;&gt;Node7</title>
<g id="a_edge6_Node000001_Node000007"><a xlink:title=" ">
<path fill="none" stroke="#63b8ff" d="M386.79,-278.24C448.35,-268.37 538.6,-253.91 597.48,-244.48"/>
<polygon fill="#63b8ff" stroke="#63b8ff" points="386.35,-274.92 377.03,-279.96 387.46,-281.84 386.35,-274.92"/>
</a>
</g>
</g>
<!-- Node8 -->
<g id="Node000008" class="node">
<title>Node8</title>
<g id="a_Node000008"><a xlink:href="../../de/da0/TrafficLightGroup_8h.html" target="_top" xlink:title=" ">
<polygon fill="white" stroke="#666666" points="539.12,-244 442.12,-244 442.12,-224 539.12,-224 539.12,-244"/>
<text text-anchor="middle" x="490.62" y="-230.5" font-family="Helvetica,sans-Serif" font-size="10.00">TrafficLightGroup.h</text>
</a>
</g>
</g>
<!-- Node1&#45;&gt;Node8 -->
<g id="edge7_Node000001_Node000008" class="edge">
<title>Node1&#45;&gt;Node8</title>
<g id="a_edge7_Node000001_Node000008"><a xlink:title=" ">
<path fill="none" stroke="#63b8ff" d="M359.82,-276.31C390.69,-266.56 432.62,-253.32 460.61,-244.48"/>
<polygon fill="#63b8ff" stroke="#63b8ff" points="358.89,-273.24 350.41,-279.59 361,-279.92 358.89,-273.24"/>
</a>
</g>
</g>
<!-- Node41 -->
<g id="Node000041" class="node">
<title>Node41</title>
<g id="a_Node000041"><a xlink:href="../../d9/de7/WorldObserver_8cpp.html" target="_top" xlink:title=" ">
<polygon fill="white" stroke="#666666" points="2136.88,-188 2038.38,-188 2038.38,-168 2136.88,-168 2136.88,-188"/>
<text text-anchor="middle" x="2087.62" y="-174.5" font-family="Helvetica,sans-Serif" font-size="10.00">WorldObserver.cpp</text>
</a>
</g>
</g>
<!-- Node1&#45;&gt;Node41 -->
<g id="edge57_Node000001_Node000041" class="edge">
<title>Node1&#45;&gt;Node41</title>
<g id="a_edge57_Node000001_Node000041"><a xlink:title=" ">
<path fill="none" stroke="#63b8ff" d="M386.83,-280.77C432.94,-273.91 495.05,-262.26 547.62,-244 566.03,-237.61 567.75,-228.81 586.62,-224 741.51,-184.54 1865.35,-201.32 2024.62,-188 2029.03,-187.63 2033.59,-187.16 2038.16,-186.62"/>
<polygon fill="#63b8ff" stroke="#63b8ff" points="386.46,-277.43 377.06,-282.33 387.46,-284.36 386.46,-277.43"/>
</a>
</g>
</g>
<!-- Node8&#45;&gt;Node3 -->
<g id="edge8_Node000008_Node000003" class="edge">
<title>Node8&#45;&gt;Node3</title>
<g id="a_edge8_Node000008_Node000003"><a xlink:title=" ">
<path fill="none" stroke="#63b8ff" d="M457.45,-219.53C433.65,-209.87 402.17,-197.08 380.97,-188.48"/>
<polygon fill="#63b8ff" stroke="#63b8ff" points="455.88,-223.07 466.46,-223.59 458.51,-216.59 455.88,-223.07"/>
</a>
</g>
</g>
<!-- Node8&#45;&gt;Node4 -->
<g id="edge9_Node000008_Node000004" class="edge">
<title>Node8&#45;&gt;Node4</title>
<g id="a_edge9_Node000008_Node000004"><a xlink:title=" ">
<path fill="none" stroke="#63b8ff" d="M473.79,-216.08C459.09,-201.95 436.72,-181.94 414.62,-168 302.04,-96.94 151.81,-41.68 90.01,-20.45"/>
<polygon fill="#63b8ff" stroke="#63b8ff" points="470.9,-218.13 480.5,-222.63 475.8,-213.13 470.9,-218.13"/>
</a>
</g>
</g>
<!-- Node8&#45;&gt;Node5 -->
<g id="edge11_Node000008_Node000005" class="edge">
<title>Node8&#45;&gt;Node5</title>
<g id="a_edge11_Node000008_Node000005"><a xlink:title=" ">
<path fill="none" stroke="#63b8ff" d="M481.15,-214.11C473.49,-200.17 461.68,-181.38 447.62,-168 371.12,-95.19 254.93,-41.28 205.83,-20.44"/>
<polygon fill="#63b8ff" stroke="#63b8ff" points="478.42,-215.43 486.17,-222.65 484.61,-212.17 478.42,-215.43"/>
</a>
</g>
</g>
<!-- Node8&#45;&gt;Node6 -->
<g id="edge12_Node000008_Node000006" class="edge">
<title>Node8&#45;&gt;Node6</title>
<g id="a_edge12_Node000008_Node000006"><a xlink:title=" ">
<path fill="none" stroke="#63b8ff" d="M492.88,-212.71C493.48,-199.33 492.51,-181.8 485.62,-168 449.32,-95.16 363.09,-41.27 325.57,-20.44"/>
<polygon fill="#63b8ff" stroke="#63b8ff" points="489.32,-212.35 492.02,-222.6 496.3,-212.9 489.32,-212.35"/>
</a>
</g>
</g>
<!-- Node9 -->
<g id="Node000009" class="node">
<title>Node9</title>
<g id="a_Node000009"><a xlink:href="../../db/d6c/CarlaServer_8cpp.html" target="_top" xlink:title=" ">
<polygon fill="white" stroke="#666666" points="3735.75,-20 3651.5,-20 3651.5,0 3735.75,0 3735.75,-20"/>
<text text-anchor="middle" x="3693.62" y="-6.5" font-family="Helvetica,sans-Serif" font-size="10.00">CarlaServer.cpp</text>
</a>
</g>
</g>
<!-- Node8&#45;&gt;Node9 -->
<g id="edge10_Node000008_Node000009" class="edge">
<title>Node8&#45;&gt;Node9</title>
<g id="a_edge10_Node000008_Node000009"><a xlink:title=" ">
<path fill="none" stroke="#63b8ff" d="M550.05,-223.4C1013.19,-177.83 1139.91,-261.18 1600.62,-188 1761.09,-162.51 1797.25,-135.02 1948.62,-76 1970.16,-67.6 1974.01,-60.78 1996.62,-56 2354.58,19.67 3278.52,-55.9 3642.62,-20 3645.4,-19.73 3648.25,-19.39 3651.12,-19"/>
<polygon fill="#63b8ff" stroke="#63b8ff" points="550,-219.99 540.4,-224.46 550.7,-226.95 550,-219.99"/>
</a>
</g>
</g>
<!-- Node10 -->
<g id="Node000010" class="node">
<title>Node10</title>
<g id="a_Node000010"><a xlink:href="../../db/d9a/TrafficLightGroup_8cpp.html" target="_top" xlink:title=" ">
<polygon fill="white" stroke="#666666" points="3861.38,-20 3753.88,-20 3753.88,0 3861.38,0 3861.38,-20"/>
<text text-anchor="middle" x="3807.62" y="-6.5" font-family="Helvetica,sans-Serif" font-size="10.00">TrafficLightGroup.cpp</text>
</a>
</g>
</g>
<!-- Node8&#45;&gt;Node10 -->
<g id="edge13_Node000008_Node000010" class="edge">
<title>Node8&#45;&gt;Node10</title>
<g id="a_edge13_Node000008_Node000010"><a xlink:title=" ">
<path fill="none" stroke="#63b8ff" d="M550.32,-223.37C1041.05,-174.8 1170.02,-215.84 1663.62,-188 2590.05,-135.75 2822.46,-122.99 3744.62,-20 3747.59,-19.67 3750.63,-19.31 3753.7,-18.93"/>
<polygon fill="#63b8ff" stroke="#63b8ff" points="550,-219.99 540.4,-224.46 550.7,-226.95 550,-219.99"/>
</a>
</g>
</g>
<!-- Node11 -->
<g id="Node000011" class="node">
<title>Node11</title>
<g id="a_Node000011"><a xlink:href="../../da/ddb/TrafficLightManager_8h.html" target="_top" xlink:title=" ">
<polygon fill="white" stroke="#666666" points="1591.75,-188 1483.5,-188 1483.5,-168 1591.75,-168 1591.75,-188"/>
<text text-anchor="middle" x="1537.62" y="-174.5" font-family="Helvetica,sans-Serif" font-size="10.00">TrafficLightManager.h</text>
</a>
</g>
</g>
<!-- Node8&#45;&gt;Node11 -->
<g id="edge14_Node000008_Node000011" class="edge">
<title>Node8&#45;&gt;Node11</title>
<g id="a_edge14_Node000008_Node000011"><a xlink:title=" ">
<path fill="none" stroke="#63b8ff" d="M550.13,-224.34C551.3,-224.22 552.47,-224.11 553.62,-224 906.91,-190.76 1333.96,-181.84 1483.09,-179.65"/>
<polygon fill="#63b8ff" stroke="#63b8ff" points="549.95,-220.95 540.41,-225.56 550.74,-227.91 549.95,-220.95"/>
</a>
</g>
</g>
<!-- Node8&#45;&gt;Node41 -->
<g id="edge56_Node000008_Node000041" class="edge">
<title>Node8&#45;&gt;Node41</title>
<g id="a_edge56_Node000008_Node000041"><a xlink:title=" ">
<path fill="none" stroke="#63b8ff" d="M550.13,-224.31C551.3,-224.2 552.47,-224.1 553.62,-224 1205.34,-169.66 1372.91,-242.34 2024.62,-188 2029.03,-187.63 2033.6,-187.16 2038.16,-186.63"/>
<polygon fill="#63b8ff" stroke="#63b8ff" points="549.97,-220.91 540.4,-225.46 550.71,-227.87 549.97,-220.91"/>
</a>
</g>
</g>
<!-- Node11&#45;&gt;Node6 -->
<g id="edge54_Node000011_Node000006" class="edge">
<title>Node11&#45;&gt;Node6</title>
<g id="a_edge54_Node000011_Node000006"><a xlink:title=" ">
<path fill="none" stroke="#63b8ff" d="M1472.52,-168.21C1259.85,-139.51 587.07,-48.71 373.42,-19.88"/>
<polygon fill="#63b8ff" stroke="#63b8ff" points="1471.81,-171.78 1482.19,-169.65 1472.74,-164.85 1471.81,-171.78"/>
</a>
</g>
</g>
<!-- Node12 -->
<g id="Node000012" class="node">
<title>Node12</title>
<g id="a_Node000012"><a xlink:href="../../d3/d49/CarlaGameModeBase_8h.html" target="_top" xlink:title=" ">
<polygon fill="white" stroke="#666666" points="1597.38,-132 1477.88,-132 1477.88,-112 1597.38,-112 1597.38,-132"/>
<text text-anchor="middle" x="1537.62" y="-118.5" font-family="Helvetica,sans-Serif" font-size="10.00">CarlaGameModeBase.h</text>
</a>
</g>
</g>
<!-- Node11&#45;&gt;Node12 -->
<g id="edge15_Node000011_Node000012" class="edge">
<title>Node11&#45;&gt;Node12</title>
<g id="a_edge15_Node000011_Node000012"><a xlink:title=" ">
<path fill="none" stroke="#63b8ff" d="M1537.62,-156.71C1537.62,-148.32 1537.62,-139.01 1537.62,-132.3"/>
<polygon fill="#63b8ff" stroke="#63b8ff" points="1534.13,-156.59 1537.62,-166.59 1541.13,-156.59 1534.13,-156.59"/>
</a>
</g>
</g>
<!-- Node27 -->
<g id="Node000027" class="node">
<title>Node27</title>
<g id="a_Node000027"><a xlink:href="../../dc/d85/OpenDriveGenerator_8cpp.html" target="_top" xlink:title=" ">
<polygon fill="white" stroke="#666666" points="3633.5,-20 3511.75,-20 3511.75,0 3633.5,0 3633.5,-20"/>
<text text-anchor="middle" x="3572.62" y="-6.5" font-family="Helvetica,sans-Serif" font-size="10.00">OpenDriveGenerator.cpp</text>
</a>
</g>
</g>
<!-- Node11&#45;&gt;Node27 -->
<g id="edge53_Node000011_Node000027" class="edge">
<title>Node11&#45;&gt;Node27</title>
<g id="a_edge53_Node000011_Node000027"><a xlink:title=" ">
<path fill="none" stroke="#63b8ff" d="M1600.87,-165.47C1642.8,-157.33 1698.87,-145.5 1747.62,-132 1821.85,-111.45 1839.7,-103.54 1911.62,-76 1932.83,-67.88 1936.44,-60.79 1958.62,-56 2126.36,-19.76 3331.51,-32.96 3502.62,-20 3505.56,-19.78 3508.55,-19.52 3511.58,-19.23"/>
<polygon fill="#63b8ff" stroke="#63b8ff" points="1600.41,-162.18 1591.25,-167.51 1601.73,-169.06 1600.41,-162.18"/>
</a>
</g>
</g>
<!-- Node35 -->
<g id="Node000035" class="node">
<title>Node35</title>
<g id="a_Node000035"><a xlink:href="../../d6/d3f/TrafficLightManager_8cpp.html" target="_top" xlink:title=" ">
<polygon fill="white" stroke="#666666" points="3494,-20 3375.25,-20 3375.25,0 3494,0 3494,-20"/>
<text text-anchor="middle" x="3434.62" y="-6.5" font-family="Helvetica,sans-Serif" font-size="10.00">TrafficLightManager.cpp</text>
</a>
</g>
</g>
<!-- Node11&#45;&gt;Node35 -->
<g id="edge55_Node000011_Node000035" class="edge">
<title>Node11&#45;&gt;Node35</title>
<g id="a_edge55_Node000011_Node000035"><a xlink:title=" ">
<path fill="none" stroke="#63b8ff" d="M1584.41,-164.87C1650.02,-147.44 1772.74,-113.27 1874.62,-76 1895.56,-68.34 1898.86,-60.81 1920.62,-56 2234.48,13.36 3046.18,-45.12 3366.62,-20 3369.36,-19.79 3372.14,-19.54 3374.96,-19.26"/>
<polygon fill="#63b8ff" stroke="#63b8ff" points="1583.77,-161.69 1575,-167.63 1585.56,-168.45 1583.77,-161.69"/>
</a>
</g>
</g>
<!-- Node12&#45;&gt;Node2 -->
<g id="edge16_Node000012_Node000002" class="edge">
<title>Node12&#45;&gt;Node2</title>
<g id="a_edge16_Node000012_Node000002"><a xlink:title=" ">
<path fill="none" stroke="#63b8ff" d="M1466.78,-115.26C1371.6,-107.37 1197.19,-92.29 1048.62,-76 978.7,-68.33 961.57,-63.5 891.62,-56 708.42,-36.35 661.17,-45.01 478.62,-20 475.85,-19.62 473,-19.19 470.13,-18.73"/>
<polygon fill="#63b8ff" stroke="#63b8ff" points="1466.46,-118.83 1476.71,-116.17 1467.03,-111.85 1466.46,-118.83"/>
</a>
</g>
</g>
<!-- Node13 -->
<g id="Node000013" class="node">
<title>Node13</title>
<g id="a_Node000013"><a xlink:href="../../d0/d2e/CarlaGameModeBase_8cpp.html" target="_top" xlink:title=" ">
<polygon fill="white" stroke="#666666" points="617.62,-20 487.62,-20 487.62,0 617.62,0 617.62,-20"/>
<text text-anchor="middle" x="552.62" y="-6.5" font-family="Helvetica,sans-Serif" font-size="10.00">CarlaGameModeBase.cpp</text>
</a>
</g>
</g>
<!-- Node12&#45;&gt;Node13 -->
<g id="edge17_Node000012_Node000013" class="edge">
<title>Node12&#45;&gt;Node13</title>
<g id="a_edge17_Node000012_Node000013"><a xlink:title=" ">
<path fill="none" stroke="#63b8ff" d="M1466.89,-110.53C1371.91,-96.73 1197.83,-72.27 1048.62,-56 861.5,-35.59 813.86,-39.37 626.62,-20 623.79,-19.71 620.9,-19.4 617.98,-19.08"/>
<polygon fill="#63b8ff" stroke="#63b8ff" points="1466.11,-114.1 1476.51,-112.08 1467.12,-107.18 1466.11,-114.1"/>
</a>
</g>
</g>
<!-- Node14 -->
<g id="Node000014" class="node">
<title>Node14</title>
<g id="a_Node000014"><a xlink:href="../../d9/dc8/CarlaStatics_8h.html" target="_top" xlink:title=" ">
<polygon fill="white" stroke="#666666" points="1830.38,-76 1752.88,-76 1752.88,-56 1830.38,-56 1830.38,-76"/>
<text text-anchor="middle" x="1791.62" y="-62.5" font-family="Helvetica,sans-Serif" font-size="10.00">CarlaStatics.h</text>
</a>
</g>
</g>
<!-- Node12&#45;&gt;Node14 -->
<g id="edge18_Node000012_Node000014" class="edge">
<title>Node12&#45;&gt;Node14</title>
<g id="a_edge18_Node000012_Node000014"><a xlink:title=" ">
<path fill="none" stroke="#63b8ff" d="M1592.73,-109.29C1640.96,-99.03 1709.81,-84.39 1752.56,-75.3"/>
<polygon fill="#63b8ff" stroke="#63b8ff" points="1592.21,-106.03 1583.16,-111.53 1593.67,-112.88 1592.21,-106.03"/>
</a>
</g>
</g>
<!-- Node26 -->
<g id="Node000026" class="node">
<title>Node26</title>
<g id="a_Node000026"><a xlink:href="../../d9/d30/Unreal_2CarlaUE4_2Plugins_2Carla_2Source_2Carla_2OpenDrive_2OpenDrive_8cpp.html" target="_top" xlink:title=" ">
<polygon fill="white" stroke="#666666" points="3357.12,-20 3278.12,-20 3278.12,0 3357.12,0 3357.12,-20"/>
<text text-anchor="middle" x="3317.62" y="-6.5" font-family="Helvetica,sans-Serif" font-size="10.00">OpenDrive.cpp</text>
</a>
</g>
</g>
<!-- Node12&#45;&gt;Node26 -->
<g id="edge52_Node000012_Node000026" class="edge">
<title>Node12&#45;&gt;Node26</title>
<g id="a_edge52_Node000012_Node000026"><a xlink:title=" ">
<path fill="none" stroke="#63b8ff" d="M1608.59,-116.21C1670.6,-110.67 1762.51,-99.15 1839.62,-76 1859.81,-69.94 1862.11,-60.82 1882.62,-56 2182.57,14.44 2962.18,-51.93 3268.62,-20 3271.64,-19.69 3274.74,-19.29 3277.85,-18.84"/>
<polygon fill="#63b8ff" stroke="#63b8ff" points="1608.42,-112.8 1598.75,-117.15 1609.02,-119.77 1608.42,-112.8"/>
</a>
</g>
</g>
<!-- Node39 -->
<g id="Node000039" class="node">
<title>Node39</title>
<g id="a_Node000039"><a xlink:href="../../da/df0/CollisionSensor_8cpp.html" target="_top" xlink:title=" ">
<polygon fill="white" stroke="#666666" points="1517.75,-76 1415.5,-76 1415.5,-56 1517.75,-56 1517.75,-76"/>
<text text-anchor="middle" x="1466.62" y="-62.5" font-family="Helvetica,sans-Serif" font-size="10.00">CollisionSensor.cpp</text>
</a>
</g>
</g>
<!-- Node12&#45;&gt;Node39 -->
<g id="edge50_Node000012_Node000039" class="edge">
<title>Node12&#45;&gt;Node39</title>
<g id="a_edge50_Node000012_Node000039"><a xlink:title=" ">
<path fill="none" stroke="#63b8ff" d="M1516.53,-104.95C1504.25,-95.61 1489.19,-84.16 1478.85,-76.3"/>
<polygon fill="#63b8ff" stroke="#63b8ff" points="1514.18,-108.33 1524.26,-111.59 1518.42,-102.75 1514.18,-108.33"/>
</a>
</g>
</g>
<!-- Node40 -->
<g id="Node000040" class="node">
<title>Node40</title>
<g id="a_Node000040"><a xlink:href="../../d2/d70/ObstacleDetectionSensor_8cpp.html" target="_top" xlink:title=" ">
<polygon fill="white" stroke="#666666" points="1681.5,-76 1535.75,-76 1535.75,-56 1681.5,-56 1681.5,-76"/>
<text text-anchor="middle" x="1608.62" y="-62.5" font-family="Helvetica,sans-Serif" font-size="10.00">ObstacleDetectionSensor.cpp</text>
</a>
</g>
</g>
<!-- Node12&#45;&gt;Node40 -->
<g id="edge51_Node000012_Node000040" class="edge">
<title>Node12&#45;&gt;Node40</title>
<g id="a_edge51_Node000012_Node000040"><a xlink:title=" ">
<path fill="none" stroke="#63b8ff" d="M1558.72,-104.95C1571,-95.61 1586.06,-84.16 1596.4,-76.3"/>
<polygon fill="#63b8ff" stroke="#63b8ff" points="1556.83,-102.75 1550.99,-111.59 1561.07,-108.33 1556.83,-102.75"/>
</a>
</g>
</g>
<!-- Node14&#45;&gt;Node2 -->
<g id="edge19_Node000014_Node000002" class="edge">
<title>Node14&#45;&gt;Node2</title>
<g id="a_edge19_Node000014_Node000002"><a xlink:title=" ">
<path fill="none" stroke="#63b8ff" d="M1741.87,-59.98C1725.56,-58.49 1707.33,-56.99 1690.62,-56 1152.67,-24.07 1014.42,-77.83 478.62,-20 475.84,-19.7 472.98,-19.33 470.11,-18.91"/>
<polygon fill="#63b8ff" stroke="#63b8ff" points="1741.53,-63.55 1751.82,-61 1742.19,-56.58 1741.53,-63.55"/>
</a>
</g>
</g>
<!-- Node14&#45;&gt;Node4 -->
<g id="edge26_Node000014_Node000004" class="edge">
<title>Node14&#45;&gt;Node4</title>
<g id="a_edge26_Node000014_Node000004"><a xlink:title=" ">
<path fill="none" stroke="#63b8ff" d="M1741.87,-59.91C1725.56,-58.42 1707.33,-56.94 1690.62,-56 999.08,-17.24 823.33,-71.62 132.62,-20 129.65,-19.78 126.61,-19.52 123.54,-19.23"/>
<polygon fill="#63b8ff" stroke="#63b8ff" points="1741.54,-63.49 1751.82,-60.94 1742.19,-56.52 1741.54,-63.49"/>
</a>
</g>
</g>
<!-- Node14&#45;&gt;Node5 -->
<g id="edge32_Node000014_Node000005" class="edge">
<title>Node14&#45;&gt;Node5</title>
<g id="a_edge32_Node000014_Node000005"><a xlink:title=" ">
<path fill="none" stroke="#63b8ff" d="M1741.87,-59.93C1725.56,-58.44 1707.33,-56.95 1690.62,-56 1043.92,-19.23 878.16,-84.47 233.62,-20 230.58,-19.7 227.45,-19.31 224.3,-18.88"/>
<polygon fill="#63b8ff" stroke="#63b8ff" points="1741.54,-63.51 1751.82,-60.96 1742.19,-56.54 1741.54,-63.51"/>
</a>
</g>
</g>
<!-- Node14&#45;&gt;Node6 -->
<g id="edge44_Node000014_Node000006" class="edge">
<title>Node14&#45;&gt;Node6</title>
<g id="a_edge44_Node000014_Node000006"><a xlink:title=" ">
<path fill="none" stroke="#63b8ff" d="M1741.87,-59.96C1725.56,-58.46 1707.33,-56.97 1690.62,-56 1110.06,-22.18 962.61,-62.69 382.62,-20 379.62,-19.78 376.54,-19.52 373.44,-19.24"/>
<polygon fill="#63b8ff" stroke="#63b8ff" points="1741.53,-63.53 1751.82,-60.98 1742.19,-56.56 1741.53,-63.53"/>
</a>
</g>
</g>
<!-- Node14&#45;&gt;Node9 -->
<g id="edge27_Node000014_Node000009" class="edge">
<title>Node14&#45;&gt;Node9</title>
<g id="a_edge27_Node000014_Node000009"><a xlink:title=" ">
<path fill="none" stroke="#63b8ff" d="M1841.54,-61.89C1874.72,-59.92 1919.26,-57.48 1958.62,-56 2332.67,-41.93 3270.11,-56.63 3642.62,-20 3645.4,-19.73 3648.25,-19.39 3651.12,-19"/>
<polygon fill="#63b8ff" stroke="#63b8ff" points="1841.52,-58.44 1831.75,-62.53 1841.94,-65.43 1841.52,-58.44"/>
</a>
</g>
</g>
<!-- Node14&#45;&gt;Node10 -->
<g id="edge45_Node000014_Node000010" class="edge">
<title>Node14&#45;&gt;Node10</title>
<g id="a_edge45_Node000014_Node000010"><a xlink:title=" ">
<path fill="none" stroke="#63b8ff" d="M1841.45,-62.49C1882.95,-60.47 1943.62,-57.71 1996.62,-56 2773.27,-30.96 2970.13,-83.06 3744.62,-20 3747.49,-19.77 3750.42,-19.49 3753.38,-19.18"/>
<polygon fill="#63b8ff" stroke="#63b8ff" points="1841.35,-59.04 1831.53,-63.02 1841.69,-66.03 1841.35,-59.04"/>
</a>
</g>
</g>
<!-- Node14&#45;&gt;Node13 -->
<g id="edge24_Node000014_Node000013" class="edge">
<title>Node14&#45;&gt;Node13</title>
<g id="a_edge24_Node000014_Node000013"><a xlink:title=" ">
<path fill="none" stroke="#63b8ff" d="M1741.87,-60.02C1725.55,-58.53 1707.33,-57.03 1690.62,-56 1218.36,-26.99 1098.37,-56.6 626.62,-20 623.79,-19.78 620.89,-19.53 617.96,-19.26"/>
<polygon fill="#63b8ff" stroke="#63b8ff" points="1741.53,-63.59 1751.81,-61.04 1742.18,-56.63 1741.53,-63.59"/>
</a>
</g>
</g>
<!-- Node15 -->
<g id="Node000015" class="node">
<title>Node15</title>
<g id="a_Node000015"><a xlink:href="../../d3/d43/CarlaActor_8cpp.html" target="_top" xlink:title=" ">
<polygon fill="white" stroke="#666666" points="1526.88,-20 1446.38,-20 1446.38,0 1526.88,0 1526.88,-20"/>
<text text-anchor="middle" x="1486.62" y="-6.5" font-family="Helvetica,sans-Serif" font-size="10.00">CarlaActor.cpp</text>
</a>
</g>
</g>
<!-- Node14&#45;&gt;Node15 -->
<g id="edge20_Node000014_Node000015" class="edge">
<title>Node14&#45;&gt;Node15</title>
<g id="a_edge20_Node000014_Node000015"><a xlink:title=" ">
<path fill="none" stroke="#63b8ff" d="M1742.06,-56.4C1690.48,-47.43 1607.36,-32.89 1535.62,-20 1532.9,-19.51 1530.09,-19 1527.26,-18.49"/>
<polygon fill="#63b8ff" stroke="#63b8ff" points="1741.12,-59.97 1751.57,-58.23 1742.32,-53.07 1741.12,-59.97"/>
</a>
</g>
</g>
<!-- Node16 -->
<g id="Node000016" class="node">
<title>Node16</title>
<g id="a_Node000016"><a xlink:href="../../d0/d3b/CarlaBlueprintRegistry_8cpp.html" target="_top" xlink:title=" ">
<polygon fill="white" stroke="#666666" points="1676.38,-20 1544.88,-20 1544.88,0 1676.38,0 1676.38,-20"/>
<text text-anchor="middle" x="1610.62" y="-6.5" font-family="Helvetica,sans-Serif" font-size="10.00">CarlaBlueprintRegistry.cpp</text>
</a>
</g>
</g>
<!-- Node14&#45;&gt;Node16 -->
<g id="edge21_Node000014_Node000016" class="edge">
<title>Node14&#45;&gt;Node16</title>
<g id="a_edge21_Node000014_Node000016"><a xlink:title=" ">
<path fill="none" stroke="#63b8ff" d="M1749.93,-52.56C1717.18,-42.79 1672.28,-29.39 1642.4,-20.48"/>
<polygon fill="#63b8ff" stroke="#63b8ff" points="1748.51,-56.09 1759.1,-55.59 1750.52,-49.38 1748.51,-56.09"/>
</a>
</g>
</g>
<!-- Node17 -->
<g id="Node000017" class="node">
<title>Node17</title>
<g id="a_Node000017"><a xlink:href="../../d6/da1/CarlaEngine_8cpp.html" target="_top" xlink:title=" ">
<polygon fill="white" stroke="#666666" points="1781.25,-20 1694,-20 1694,0 1781.25,0 1781.25,-20"/>
<text text-anchor="middle" x="1737.62" y="-6.5" font-family="Helvetica,sans-Serif" font-size="10.00">CarlaEngine.cpp</text>
</a>
</g>
</g>
<!-- Node14&#45;&gt;Node17 -->
<g id="edge22_Node000014_Node000017" class="edge">
<title>Node14&#45;&gt;Node17</title>
<g id="a_edge22_Node000014_Node000017"><a xlink:title=" ">
<path fill="none" stroke="#63b8ff" d="M1774.47,-47.85C1765.35,-38.72 1754.48,-27.86 1746.92,-20.3"/>
<polygon fill="#63b8ff" stroke="#63b8ff" points="1771.67,-50 1781.22,-54.59 1776.62,-45.05 1771.67,-50"/>
</a>
</g>
</g>
<!-- Node18 -->
<g id="Node000018" class="node">
<title>Node18</title>
<g id="a_Node000018"><a xlink:href="../../d6/dd9/CarlaEpisode_8cpp.html" target="_top" xlink:title=" ">
<polygon fill="white" stroke="#666666" points="1891.88,-20 1799.38,-20 1799.38,0 1891.88,0 1891.88,-20"/>
<text text-anchor="middle" x="1845.62" y="-6.5" font-family="Helvetica,sans-Serif" font-size="10.00">CarlaEpisode.cpp</text>
</a>
</g>
</g>
<!-- Node14&#45;&gt;Node18 -->
<g id="edge23_Node000014_Node000018" class="edge">
<title>Node14&#45;&gt;Node18</title>
<g id="a_edge23_Node000014_Node000018"><a xlink:title=" ">
<path fill="none" stroke="#63b8ff" d="M1808.78,-47.85C1817.9,-38.72 1828.77,-27.86 1836.33,-20.3"/>
<polygon fill="#63b8ff" stroke="#63b8ff" points="1806.63,-45.05 1802.03,-54.59 1811.58,-50 1806.63,-45.05"/>
</a>
</g>
</g>
<!-- Node19 -->
<g id="Node000019" class="node">
<title>Node19</title>
<g id="a_Node000019"><a xlink:href="../../d9/d95/CarlaLight_8cpp.html" target="_top" xlink:title=" ">
<polygon fill="white" stroke="#666666" points="1987.75,-20 1909.5,-20 1909.5,0 1987.75,0 1987.75,-20"/>
<text text-anchor="middle" x="1948.62" y="-6.5" font-family="Helvetica,sans-Serif" font-size="10.00">CarlaLight.cpp</text>
</a>
</g>
</g>
<!-- Node14&#45;&gt;Node19 -->
<g id="edge25_Node000014_Node000019" class="edge">
<title>Node14&#45;&gt;Node19</title>
<g id="a_edge25_Node000014_Node000019"><a xlink:title=" ">
<path fill="none" stroke="#63b8ff" d="M1829.28,-52.05C1857.54,-42.33 1895.6,-29.24 1921.06,-20.48"/>
<polygon fill="#63b8ff" stroke="#63b8ff" points="1828.29,-49.03 1819.97,-55.59 1830.57,-55.65 1828.29,-49.03"/>
</a>
</g>
</g>
<!-- Node20 -->
<g id="Node000020" class="node">
<title>Node20</title>
<g id="a_Node000020"><a xlink:href="../../d5/d6e/CarlaStatics_8cpp.html" target="_top" xlink:title=" ">
<polygon fill="white" stroke="#666666" points="2093.62,-20 2005.62,-20 2005.62,0 2093.62,0 2093.62,-20"/>
<text text-anchor="middle" x="2049.62" y="-6.5" font-family="Helvetica,sans-Serif" font-size="10.00">CarlaStatics.cpp</text>
</a>
</g>
</g>
<!-- Node14&#45;&gt;Node20 -->
<g id="edge28_Node000014_Node000020" class="edge">
<title>Node14&#45;&gt;Node20</title>
<g id="a_edge28_Node000014_Node000020"><a xlink:title=" ">
<path fill="none" stroke="#63b8ff" d="M1841.46,-54.57C1888.94,-44.63 1959.74,-29.81 2005.3,-20.28"/>
<polygon fill="#63b8ff" stroke="#63b8ff" points="1840.88,-51.32 1831.81,-56.8 1842.31,-58.18 1840.88,-51.32"/>
</a>
</g>
</g>
<!-- Node21 -->
<g id="Node000021" class="node">
<title>Node21</title>
<g id="a_Node000021"><a xlink:href="../../dc/d65/CarlaWheeledVehicle_8cpp.html" target="_top" xlink:title=" ">
<polygon fill="white" stroke="#666666" points="2239.5,-20 2111.75,-20 2111.75,0 2239.5,0 2239.5,-20"/>
<text text-anchor="middle" x="2175.62" y="-6.5" font-family="Helvetica,sans-Serif" font-size="10.00">CarlaWheeledVehicle.cpp</text>
</a>
</g>
</g>
<!-- Node14&#45;&gt;Node21 -->
<g id="edge29_Node000014_Node000021" class="edge">
<title>Node14&#45;&gt;Node21</title>
<g id="a_edge29_Node000014_Node000021"><a xlink:title=" ">
<path fill="none" stroke="#63b8ff" d="M1841.2,-56.53C1842.35,-56.35 1843.49,-56.17 1844.62,-56 1937.21,-41.85 2044.71,-27.64 2111.46,-19.08"/>
<polygon fill="#63b8ff" stroke="#63b8ff" points="1840.99,-53.18 1831.68,-58.22 1842.1,-60.09 1840.99,-53.18"/>
</a>
</g>
</g>
<!-- Node22 -->
<g id="Node000022" class="node">
<title>Node22</title>
<g id="a_Node000022"><a xlink:href="../../d1/d59/CustomTerrainPhysicsComponent_8cpp.html" target="_top" xlink:title=" ">
<polygon fill="white" stroke="#666666" points="2439.88,-20 2257.38,-20 2257.38,0 2439.88,0 2439.88,-20"/>
<text text-anchor="middle" x="2348.62" y="-6.5" font-family="Helvetica,sans-Serif" font-size="10.00">CustomTerrainPhysicsComponent.cpp</text>
</a>
</g>
</g>
<!-- Node14&#45;&gt;Node22 -->
<g id="edge30_Node000014_Node000022" class="edge">
<title>Node14&#45;&gt;Node22</title>
<g id="a_edge30_Node000014_Node000022"><a xlink:title=" ">
<path fill="none" stroke="#63b8ff" d="M1841.19,-56.46C1842.34,-56.3 1843.49,-56.15 1844.62,-56 2023.4,-32.89 2069.08,-36.08 2248.62,-20 2251.4,-19.75 2254.22,-19.5 2257.07,-19.24"/>
<polygon fill="#63b8ff" stroke="#63b8ff" points="1841.03,-53.09 1831.65,-58.01 1842.05,-60.02 1841.03,-53.09"/>
</a>
</g>
</g>
<!-- Node23 -->
<g id="Node000023" class="node">
<title>Node23</title>
<g id="a_Node000023"><a xlink:href="../../d3/d7b/DebugShapeDrawer_8cpp.html" target="_top" xlink:title=" ">
<polygon fill="white" stroke="#666666" points="2577.75,-20 2457.5,-20 2457.5,0 2577.75,0 2577.75,-20"/>
<text text-anchor="middle" x="2517.62" y="-6.5" font-family="Helvetica,sans-Serif" font-size="10.00">DebugShapeDrawer.cpp</text>
</a>
</g>
</g>
<!-- Node14&#45;&gt;Node23 -->
<g id="edge31_Node000014_Node000023" class="edge">
<title>Node14&#45;&gt;Node23</title>
<g id="a_edge31_Node000014_Node000023"><a xlink:title=" ">
<path fill="none" stroke="#63b8ff" d="M1841.18,-56.41C1842.34,-56.27 1843.49,-56.13 1844.62,-56 2111.8,-25.44 2180.91,-45.41 2448.62,-20 2451.39,-19.74 2454.22,-19.45 2457.07,-19.14"/>
<polygon fill="#63b8ff" stroke="#63b8ff" points="1841.05,-53.04 1831.63,-57.88 1842.02,-59.97 1841.05,-53.04"/>
</a>
</g>
</g>
<!-- Node24 -->
<g id="Node000024" class="node">
<title>Node24</title>
<g id="a_Node000024"><a xlink:href="../../d7/d22/GnssSensor_8cpp.html" target="_top" xlink:title=" ">
<polygon fill="white" stroke="#666666" points="2685,-20 2596.25,-20 2596.25,0 2685,0 2685,-20"/>
<text text-anchor="middle" x="2640.62" y="-6.5" font-family="Helvetica,sans-Serif" font-size="10.00">GnssSensor.cpp</text>
</a>
</g>
</g>
<!-- Node14&#45;&gt;Node24 -->
<g id="edge33_Node000014_Node000024" class="edge">
<title>Node14&#45;&gt;Node24</title>
<g id="a_edge33_Node000014_Node000024"><a xlink:title=" ">
<path fill="none" stroke="#63b8ff" d="M1841.18,-56.4C1842.34,-56.26 1843.49,-56.12 1844.62,-56 2172.85,-20.3 2258.34,-55.2 2586.62,-20 2589.65,-19.68 2592.76,-19.29 2595.89,-18.87"/>
<polygon fill="#63b8ff" stroke="#63b8ff" points="1841.06,-53.02 1831.63,-57.83 1842.01,-59.95 1841.06,-53.02"/>
</a>
</g>
</g>
<!-- Node25 -->
<g id="Node000025" class="node">
<title>Node25</title>
<g id="a_Node000025"><a xlink:href="../../df/d6c/LargeMapManager_8cpp.html" target="_top" xlink:title=" ">
<polygon fill="white" stroke="#666666" points="2818.12,-20 2703.12,-20 2703.12,0 2818.12,0 2818.12,-20"/>
<text text-anchor="middle" x="2760.62" y="-6.5" font-family="Helvetica,sans-Serif" font-size="10.00">LargeMapManager.cpp</text>
</a>
</g>
</g>
<!-- Node14&#45;&gt;Node25 -->
<g id="edge34_Node000014_Node000025" class="edge">
<title>Node14&#45;&gt;Node25</title>
<g id="a_edge34_Node000014_Node000025"><a xlink:title=" ">
<path fill="none" stroke="#63b8ff" d="M1841.18,-56.39C1842.34,-56.25 1843.49,-56.12 1844.62,-56 2220.21,-16.31 2317.41,-53.17 2693.62,-20 2696.66,-19.73 2699.78,-19.43 2702.92,-19.09"/>
<polygon fill="#63b8ff" stroke="#63b8ff" points="1841.07,-53 1831.62,-57.81 1842,-59.94 1841.07,-53"/>
</a>
</g>
</g>
<!-- Node14&#45;&gt;Node26 -->
<g id="edge35_Node000014_Node000026" class="edge">
<title>Node14&#45;&gt;Node26</title>
<g id="a_edge35_Node000014_Node000026"><a xlink:title=" ">
<path fill="none" stroke="#63b8ff" d="M1841.18,-56.36C1842.34,-56.23 1843.49,-56.11 1844.62,-56 2474.76,5.15 2638.92,-85.38 3268.62,-20 3271.64,-19.69 3274.74,-19.29 3277.85,-18.84"/>
<polygon fill="#63b8ff" stroke="#63b8ff" points="1841.08,-52.97 1831.61,-57.73 1841.98,-59.91 1841.08,-52.97"/>
</a>
</g>
</g>
<!-- Node14&#45;&gt;Node27 -->
<g id="edge36_Node000014_Node000027" class="edge">
<title>Node14&#45;&gt;Node27</title>
<g id="a_edge36_Node000014_Node000027"><a xlink:title=" ">
<path fill="none" stroke="#63b8ff" d="M1841.76,-60.95C1865.63,-59.17 1894.59,-57.2 1920.62,-56 2623.17,-23.52 2801.33,-72.92 3502.62,-20 3505.56,-19.78 3508.56,-19.52 3511.58,-19.23"/>
<polygon fill="#63b8ff" stroke="#63b8ff" points="1841.54,-57.54 1831.83,-61.78 1842.07,-64.52 1841.54,-57.54"/>
</a>
</g>
</g>
<!-- Node28 -->
<g id="Node000028" class="node">
<title>Node28</title>
<g id="a_Node000028"><a xlink:href="../../de/dc2/RayTracer_8cpp.html" target="_top" xlink:title=" ">
<polygon fill="white" stroke="#666666" points="2915.12,-20 2836.12,-20 2836.12,0 2915.12,0 2915.12,-20"/>
<text text-anchor="middle" x="2875.62" y="-6.5" font-family="Helvetica,sans-Serif" font-size="10.00">RayTracer.cpp</text>
</a>
</g>
</g>
<!-- Node14&#45;&gt;Node28 -->
<g id="edge37_Node000014_Node000028" class="edge">
<title>Node14&#45;&gt;Node28</title>
<g id="a_edge37_Node000014_Node000028"><a xlink:title=" ">
<path fill="none" stroke="#63b8ff" d="M1841.18,-56.38C1842.34,-56.24 1843.49,-56.12 1844.62,-56 2279.52,-11.31 2393.13,-68.42 2827.62,-20 2830.32,-19.7 2833.09,-19.33 2835.88,-18.92"/>
<polygon fill="#63b8ff" stroke="#63b8ff" points="1841.07,-52.99 1831.62,-57.78 1841.99,-59.93 1841.07,-52.99"/>
</a>
</g>
</g>
<!-- Node29 -->
<g id="Node000029" class="node">
<title>Node29</title>
<g id="a_Node000029"><a xlink:href="../../db/d2d/SceneCaptureSensor_8cpp.html" target="_top" xlink:title=" ">
<polygon fill="white" stroke="#666666" points="3060.12,-20 2933.12,-20 2933.12,0 3060.12,0 3060.12,-20"/>
<text text-anchor="middle" x="2996.62" y="-6.5" font-family="Helvetica,sans-Serif" font-size="10.00">SceneCaptureSensor.cpp</text>
</a>
</g>
</g>
<!-- Node14&#45;&gt;Node29 -->
<g id="edge38_Node000014_Node000029" class="edge">
<title>Node14&#45;&gt;Node29</title>
<g id="a_edge38_Node000014_Node000029"><a xlink:title=" ">
<path fill="none" stroke="#63b8ff" d="M1841.18,-56.37C1842.34,-56.24 1843.49,-56.12 1844.62,-56 2322.46,-7.69 2445.85,-57.82 2924.62,-20 2927.26,-19.79 2929.95,-19.56 2932.67,-19.3"/>
<polygon fill="#63b8ff" stroke="#63b8ff" points="1841.07,-52.99 1831.62,-57.77 1841.99,-59.93 1841.07,-52.99"/>
</a>
</g>
</g>
<!-- Node30 -->
<g id="Node000030" class="node">
<title>Node30</title>
<g id="a_Node000030"><a xlink:href="../../d7/d16/Sensor_8cpp.html" target="_top" xlink:title=" ">
<polygon fill="white" stroke="#666666" points="3143.38,-20 3077.88,-20 3077.88,0 3143.38,0 3143.38,-20"/>
<text text-anchor="middle" x="3110.62" y="-6.5" font-family="Helvetica,sans-Serif" font-size="10.00">Sensor.cpp</text>
</a>
</g>
</g>
<!-- Node14&#45;&gt;Node30 -->
<g id="edge39_Node000014_Node000030" class="edge">
<title>Node14&#45;&gt;Node30</title>
<g id="a_edge39_Node000014_Node000030"><a xlink:title=" ">
<path fill="none" stroke="#63b8ff" d="M1841.18,-56.37C1842.34,-56.24 1843.49,-56.11 1844.62,-56 2386.65,-2.28 2529.04,-86.68 3069.62,-20 3072.23,-19.68 3074.91,-19.27 3077.6,-18.8"/>
<polygon fill="#63b8ff" stroke="#63b8ff" points="1841.08,-52.98 1831.62,-57.75 1841.99,-59.92 1841.08,-52.98"/>
</a>
</g>
</g>
<!-- Node31 -->
<g id="Node000031" class="node">
<title>Node31</title>
<g id="a_Node000031"><a xlink:href="../../d0/dde/SensorFactory_8cpp.html" target="_top" xlink:title=" ">
<polygon fill="white" stroke="#666666" points="3259.88,-20 3161.38,-20 3161.38,0 3259.88,0 3259.88,-20"/>
<text text-anchor="middle" x="3210.62" y="-6.5" font-family="Helvetica,sans-Serif" font-size="10.00">SensorFactory.cpp</text>
</a>
</g>
</g>
<!-- Node14&#45;&gt;Node31 -->
<g id="edge40_Node000014_Node000031" class="edge">
<title>Node14&#45;&gt;Node31</title>
<g id="a_edge40_Node000014_Node000031"><a xlink:title=" ">
<path fill="none" stroke="#63b8ff" d="M1841.18,-56.36C1842.34,-56.23 1843.49,-56.11 1844.62,-56 2423.4,0.82 2573.46,-72.69 3152.62,-20 3155.36,-19.75 3158.17,-19.45 3161,-19.12"/>
<polygon fill="#63b8ff" stroke="#63b8ff" points="1841.08,-52.98 1831.62,-57.74 1841.98,-59.92 1841.08,-52.98"/>
</a>
</g>
</g>
<!-- Node32 -->
<g id="Node000032" class="node">
<title>Node32</title>
<g id="a_Node000032"><a xlink:href="../../d2/dd9/SpeedLimitComponent_8cpp.html" target="_top" xlink:title=" ">
<polygon fill="white" stroke="#666666" points="769.12,-20 636.12,-20 636.12,0 769.12,0 769.12,-20"/>
<text text-anchor="middle" x="702.62" y="-6.5" font-family="Helvetica,sans-Serif" font-size="10.00">SpeedLimitComponent.cpp</text>
</a>
</g>
</g>
<!-- Node14&#45;&gt;Node32 -->
<g id="edge41_Node000014_Node000032" class="edge">
<title>Node14&#45;&gt;Node32</title>
<g id="a_edge41_Node000014_Node000032"><a xlink:title=" ">
<path fill="none" stroke="#63b8ff" d="M1741.86,-60.07C1725.55,-58.59 1707.33,-57.07 1690.62,-56 1285.81,-29.99 1183.02,-51.88 778.62,-20 775.58,-19.76 772.47,-19.49 769.32,-19.2"/>
<polygon fill="#63b8ff" stroke="#63b8ff" points="1741.53,-63.65 1751.81,-61.09 1742.18,-56.68 1741.53,-63.65"/>
</a>
</g>
</g>
<!-- Node33 -->
<g id="Node000033" class="node">
<title>Node33</title>
<g id="a_Node000033"><a xlink:href="../../d6/ddb/StopSignComponent_8cpp.html" target="_top" xlink:title=" ">
<polygon fill="white" stroke="#666666" points="911.62,-20 787.62,-20 787.62,0 911.62,0 911.62,-20"/>
<text text-anchor="middle" x="849.62" y="-6.5" font-family="Helvetica,sans-Serif" font-size="10.00">StopSignComponent.cpp</text>
</a>
</g>
</g>
<!-- Node14&#45;&gt;Node33 -->
<g id="edge42_Node000014_Node000033" class="edge">
<title>Node14&#45;&gt;Node33</title>
<g id="a_edge42_Node000014_Node000033"><a xlink:title=" ">
<path fill="none" stroke="#63b8ff" d="M1741.86,-60.15C1725.55,-58.67 1707.32,-57.13 1690.62,-56 1348.82,-32.79 1261.94,-49.56 920.62,-20 917.78,-19.75 914.87,-19.48 911.93,-19.18"/>
<polygon fill="#63b8ff" stroke="#63b8ff" points="1741.53,-63.72 1751.81,-61.16 1742.17,-56.75 1741.53,-63.72"/>
</a>
</g>
</g>
<!-- Node34 -->
<g id="Node000034" class="node">
<title>Node34</title>
<g id="a_Node000034"><a xlink:href="../../d2/d40/TrafficLightBase_8cpp.html" target="_top" xlink:title=" ">
<polygon fill="white" stroke="#666666" points="1033.5,-20 929.75,-20 929.75,0 1033.5,0 1033.5,-20"/>
<text text-anchor="middle" x="981.62" y="-6.5" font-family="Helvetica,sans-Serif" font-size="10.00">TrafficLightBase.cpp</text>
</a>
</g>
</g>
<!-- Node14&#45;&gt;Node34 -->
<g id="edge43_Node000014_Node000034" class="edge">
<title>Node14&#45;&gt;Node34</title>
<g id="a_edge43_Node000014_Node000034"><a xlink:title=" ">
<path fill="none" stroke="#63b8ff" d="M1741.85,-60.23C1725.54,-58.76 1707.32,-57.21 1690.62,-56 1402.49,-35.18 1329.01,-49.46 1041.62,-20 1039.11,-19.74 1036.54,-19.45 1033.95,-19.14"/>
<polygon fill="#63b8ff" stroke="#63b8ff" points="1741.52,-63.81 1751.8,-61.23 1742.16,-56.84 1741.52,-63.81"/>
</a>
</g>
</g>
<!-- Node14&#45;&gt;Node35 -->
<g id="edge46_Node000014_Node000035" class="edge">
<title>Node14&#45;&gt;Node35</title>
<g id="a_edge46_Node000014_Node000035"><a xlink:title=" ">
<path fill="none" stroke="#63b8ff" d="M1841.46,-59.4C1854.81,-58.08 1869.26,-56.82 1882.62,-56 2541.13,-15.51 2708.88,-71.36 3366.62,-20 3369.36,-19.79 3372.14,-19.54 3374.96,-19.27"/>
<polygon fill="#63b8ff" stroke="#63b8ff" points="1841.14,-56.01 1831.54,-60.51 1841.85,-62.98 1841.14,-56.01"/>
</a>
</g>
</g>
<!-- Node36 -->
<g id="Node000036" class="node">
<title>Node36</title>
<g id="a_Node000036"><a xlink:href="../../d3/da1/TriggerFactory_8cpp.html" target="_top" xlink:title=" ">
<polygon fill="white" stroke="#666666" points="1148.12,-20 1051.12,-20 1051.12,0 1148.12,0 1148.12,-20"/>
<text text-anchor="middle" x="1099.62" y="-6.5" font-family="Helvetica,sans-Serif" font-size="10.00">TriggerFactory.cpp</text>
</a>
</g>
</g>
<!-- Node14&#45;&gt;Node36 -->
<g id="edge47_Node000014_Node000036" class="edge">
<title>Node14&#45;&gt;Node36</title>
<g id="a_edge47_Node000014_Node000036"><a xlink:title=" ">
<path fill="none" stroke="#63b8ff" d="M1741.84,-60.35C1725.53,-58.88 1707.31,-57.31 1690.62,-56 1453.92,-37.46 1393.6,-46.23 1157.62,-20 1154.59,-19.66 1151.46,-19.28 1148.32,-18.87"/>
<polygon fill="#63b8ff" stroke="#63b8ff" points="1741.52,-63.93 1751.79,-61.34 1742.15,-56.95 1741.52,-63.93"/>
</a>
</g>
</g>
<!-- Node37 -->
<g id="Node000037" class="node">
<title>Node37</title>
<g id="a_Node000037"><a xlink:href="../../d7/da0/VegetationManager_8cpp.html" target="_top" xlink:title=" ">
<polygon fill="white" stroke="#666666" points="1285,-20 1166.25,-20 1166.25,0 1285,0 1285,-20"/>
<text text-anchor="middle" x="1225.62" y="-6.5" font-family="Helvetica,sans-Serif" font-size="10.00">VegetationManager.cpp</text>
</a>
</g>
</g>
<!-- Node14&#45;&gt;Node37 -->
<g id="edge48_Node000014_Node000037" class="edge">
<title>Node14&#45;&gt;Node37</title>
<g id="a_edge48_Node000014_Node000037"><a xlink:title=" ">
<path fill="none" stroke="#63b8ff" d="M1741.72,-60.55C1619.9,-49.67 1315.67,-22.45 1293.62,-20 1290.9,-19.7 1288.12,-19.38 1285.31,-19.04"/>
<polygon fill="#63b8ff" stroke="#63b8ff" points="1741.31,-64.11 1751.58,-61.52 1741.93,-57.14 1741.31,-64.11"/>
</a>
</g>
</g>
<!-- Node38 -->
<g id="Node000038" class="node">
<title>Node38</title>
<g id="a_Node000038"><a xlink:href="../../d4/d36/YieldSignComponent_8cpp.html" target="_top" xlink:title=" ">
<polygon fill="white" stroke="#666666" points="1428.38,-20 1302.88,-20 1302.88,0 1428.38,0 1428.38,-20"/>
<text text-anchor="middle" x="1365.62" y="-6.5" font-family="Helvetica,sans-Serif" font-size="10.00">YieldSignComponent.cpp</text>
</a>
</g>
</g>
<!-- Node14&#45;&gt;Node38 -->
<g id="edge49_Node000014_Node000038" class="edge">
<title>Node14&#45;&gt;Node38</title>
<g id="a_edge49_Node000014_Node000038"><a xlink:title=" ">
<path fill="none" stroke="#63b8ff" d="M1742.23,-58.74C1664.53,-48.89 1513.86,-29.79 1428.53,-18.97"/>
<polygon fill="#63b8ff" stroke="#63b8ff" points="1741.33,-62.28 1751.69,-60.06 1742.21,-55.33 1741.33,-62.28"/>
</a>
</g>
</g>
</g>
</svg>
