<?xml version="1.0" encoding="UTF-8" standalone="no"?>
<!DOCTYPE svg PUBLIC "-//W3C//DTD SVG 1.1//EN"
 "http://www.w3.org/Graphics/SVG/1.1/DTD/svg11.dtd">
<!-- Generated by graphviz version 8.1.0 (20230707.0739)
 -->
<!-- Title: ATrafficLightBase::AddTimeToRecorder Pages: 1 -->
<svg width="647pt" height="40pt"
 viewBox="0.00 0.00 646.50 40.00" xmlns="http://www.w3.org/2000/svg" xmlns:xlink="http://www.w3.org/1999/xlink">
<g id="graph0" class="graph" transform="scale(1 1) rotate(0) translate(4 36)">
<title>ATrafficLightBase::AddTimeToRecorder</title>
<!-- Node1 -->
<g id="Node000001" class="node">
<title>Node1</title>
<g id="a_Node000001"><a xlink:title=" ">
<polygon fill="#999999" stroke="#666666" points="103.75,-32 0,-32 0,0 103.75,0 103.75,-32"/>
<text text-anchor="start" x="8" y="-18.5" font-family="Helvetica,sans-Serif" font-size="10.00">ATrafficLightBase::</text>
<text text-anchor="middle" x="51.88" y="-6.5" font-family="Helvetica,sans-Serif" font-size="10.00">AddTimeToRecorder</text>
</a>
</g>
</g>
<!-- Node2 -->
<g id="Node000002" class="node">
<title>Node2</title>
<g id="a_Node000002"><a xlink:href="../../d7/d1e/classUCarlaStatics.html#adf84009ecb71dd12430e36c61a030c91" target="_top" xlink:title=" ">
<polygon fill="white" stroke="#666666" points="276.5,-26 139.75,-26 139.75,-6 276.5,-6 276.5,-26"/>
<text text-anchor="middle" x="208.12" y="-12.5" font-family="Helvetica,sans-Serif" font-size="10.00">UCarlaStatics::GetRecorder</text>
</a>
</g>
</g>
<!-- Node1&#45;&gt;Node2 -->
<g id="edge1_Node000001_Node000002" class="edge">
<title>Node1&#45;&gt;Node2</title>
<g id="a_edge1_Node000001_Node000002"><a xlink:title=" ">
<path fill="none" stroke="#63b8ff" d="M104.24,-16C112.1,-16 120.36,-16 128.65,-16"/>
<polygon fill="#63b8ff" stroke="#63b8ff" points="128.52,-19.5 138.52,-16 128.52,-12.5 128.52,-19.5"/>
</a>
</g>
</g>
<!-- Node3 -->
<g id="Node000003" class="node">
<title>Node3</title>
<g id="a_Node000003"><a xlink:href="../../d7/d1e/classUCarlaStatics.html#a83f2a341e32413abf1ec85ee740c2036" target="_top" xlink:title=" ">
<polygon fill="white" stroke="#666666" points="441.75,-32 312.5,-32 312.5,0 441.75,0 441.75,-32"/>
<text text-anchor="start" x="320.5" y="-18.5" font-family="Helvetica,sans-Serif" font-size="10.00">UCarlaStatics::GetCurrent</text>
<text text-anchor="middle" x="377.12" y="-6.5" font-family="Helvetica,sans-Serif" font-size="10.00">Episode</text>
</a>
</g>
</g>
<!-- Node2&#45;&gt;Node3 -->
<g id="edge2_Node000002_Node000003" class="edge">
<title>Node2&#45;&gt;Node3</title>
<g id="a_edge2_Node000002_Node000003"><a xlink:title=" ">
<path fill="none" stroke="#63b8ff" d="M276.57,-16C284.75,-16 293.15,-16 301.43,-16"/>
<polygon fill="#63b8ff" stroke="#63b8ff" points="301.22,-19.5 311.22,-16 301.22,-12.5 301.22,-19.5"/>
</a>
</g>
</g>
<!-- Node4 -->
<g id="Node000004" class="node">
<title>Node4</title>
<g id="a_Node000004"><a xlink:href="../../d7/d1e/classUCarlaStatics.html#a35e7cb760a58848081a618e7fa8201e2" target="_top" xlink:title=" ">
<polygon fill="white" stroke="#666666" points="638.5,-26 477.75,-26 477.75,-6 638.5,-6 638.5,-26"/>
<text text-anchor="middle" x="558.12" y="-12.5" font-family="Helvetica,sans-Serif" font-size="10.00">UCarlaStatics::GetGameInstance</text>
</a>
</g>
</g>
<!-- Node3&#45;&gt;Node4 -->
<g id="edge3_Node000003_Node000004" class="edge">
<title>Node3&#45;&gt;Node4</title>
<g id="a_edge3_Node000003_Node000004"><a xlink:title=" ">
<path fill="none" stroke="#63b8ff" d="M442.24,-16C450.19,-16 458.44,-16 466.69,-16"/>
<polygon fill="#63b8ff" stroke="#63b8ff" points="466.52,-19.5 476.52,-16 466.52,-12.5 466.52,-19.5"/>
</a>
</g>
</g>
</g>
</svg>
