<?xml version="1.0" encoding="UTF-8" standalone="no"?>
<!DOCTYPE svg PUBLIC "-//W3C//DTD SVG 1.1//EN"
 "http://www.w3.org/Graphics/SVG/1.1/DTD/svg11.dtd">
<!-- Generated by graphviz version 8.1.0 (20230707.0739)
 -->
<!-- Title: UMovementComponent Pages: 1 -->
<svg width="480pt" height="140pt"
 viewBox="0.00 0.00 480.25 140.00" xmlns="http://www.w3.org/2000/svg" xmlns:xlink="http://www.w3.org/1999/xlink">

<svg id="main" version="1.1" xmlns="http://www.w3.org/2000/svg" xmlns:xlink="http://www.w3.org/1999/xlink" xml:space="preserve" onload="init(evt)">
<style type="text/css"><![CDATA[
.node, .edge {opacity: 0.7;}
.node.selected, .edge.selected {opacity: 1;}
.edge:hover path { stroke: red; }
.edge:hover polygon { stroke: red; fill: red; }
]]></style>
<script type="application/ecmascript" xlink:href="../../svg.min.js"/>
<svg id="graph" class="graph">
<g id="graph0" class="graph" transform="scale(1 1) rotate(0) translate(4 136)">
<title>UMovementComponent</title>
<!-- Node1 -->
<g id="Node000001" class="node">
<title>Node1</title>
<g id="a_Node000001"><a xlink:title=" ">
<polygon fill="#999999" stroke="#666666" points="292.25,-132 175.75,-132 175.75,-112 292.25,-112 292.25,-132"/>
<text text-anchor="middle" x="234" y="-118.5" font-family="Helvetica,sans-Serif" font-size="10.00">UMovementComponent</text>
</a>
</g>
</g>
<!-- Node2 -->
<g id="Node000002" class="node">
<title>Node2</title>
<g id="a_Node000002"><a xlink:href="../../d2/d48/classUBaseCarlaMovementComponent.html" target="_top" xlink:title=" ">
<polygon fill="white" stroke="#666666" points="314.75,-76 153.25,-76 153.25,-56 314.75,-56 314.75,-76"/>
<text text-anchor="middle" x="234" y="-62.5" font-family="Helvetica,sans-Serif" font-size="10.00">UBaseCarlaMovementComponent</text>
</a>
</g>
</g>
<!-- Node1&#45;&gt;Node2 -->
<g id="edge1_Node000001_Node000002" class="edge">
<title>Node1&#45;&gt;Node2</title>
<g id="a_edge1_Node000001_Node000002"><a xlink:title=" ">
<path fill="none" stroke="#63b8ff" d="M234,-100.71C234,-92.32 234,-83.01 234,-76.3"/>
<polygon fill="#63b8ff" stroke="#63b8ff" points="230.5,-100.59 234,-110.59 237.5,-100.59 230.5,-100.59"/>
</a>
</g>
</g>
<!-- Node3 -->
<g id="Node000003" class="node">
<title>Node3</title>
<g id="a_Node000003"><a xlink:href="../../d2/dea/classUCarSimManagerComponent.html" target="_top" xlink:title=" ">
<polygon fill="white" stroke="#666666" points="142,-20 0,-20 0,0 142,0 142,-20"/>
<text text-anchor="middle" x="71" y="-6.5" font-family="Helvetica,sans-Serif" font-size="10.00">UCarSimManagerComponent</text>
</a>
</g>
</g>
<!-- Node2&#45;&gt;Node3 -->
<g id="edge2_Node000002_Node000003" class="edge">
<title>Node2&#45;&gt;Node3</title>
<g id="a_edge2_Node000002_Node000003"><a xlink:title=" ">
<path fill="none" stroke="#63b8ff" d="M195.29,-52.18C165.91,-42.44 126.17,-29.28 99.61,-20.48"/>
<polygon fill="#63b8ff" stroke="#63b8ff" points="194.01,-55.77 204.61,-55.59 196.22,-49.13 194.01,-55.77"/>
</a>
</g>
</g>
<!-- Node4 -->
<g id="Node000004" class="node">
<title>Node4</title>
<g id="a_Node000004"><a xlink:href="../../dd/d96/classUChronoMovementComponent.html" target="_top" xlink:title=" ">
<polygon fill="white" stroke="#666666" points="307.62,-20 160.38,-20 160.38,0 307.62,0 307.62,-20"/>
<text text-anchor="middle" x="234" y="-6.5" font-family="Helvetica,sans-Serif" font-size="10.00">UChronoMovementComponent</text>
</a>
</g>
</g>
<!-- Node2&#45;&gt;Node4 -->
<g id="edge3_Node000002_Node000004" class="edge">
<title>Node2&#45;&gt;Node4</title>
<g id="a_edge3_Node000002_Node000004"><a xlink:title=" ">
<path fill="none" stroke="#63b8ff" d="M234,-44.71C234,-36.32 234,-27.01 234,-20.3"/>
<polygon fill="#63b8ff" stroke="#63b8ff" points="230.5,-44.59 234,-54.59 237.5,-44.59 230.5,-44.59"/>
</a>
</g>
</g>
<!-- Node5 -->
<g id="Node000005" class="node">
<title>Node5</title>
<g id="a_Node000005"><a xlink:href="../../db/d10/classUDefaultMovementComponent.html" target="_top" xlink:title=" ">
<polygon fill="white" stroke="#666666" points="472.25,-20 325.75,-20 325.75,0 472.25,0 472.25,-20"/>
<text text-anchor="middle" x="399" y="-6.5" font-family="Helvetica,sans-Serif" font-size="10.00">UDefaultMovementComponent</text>
</a>
</g>
</g>
<!-- Node2&#45;&gt;Node5 -->
<g id="edge4_Node000002_Node000005" class="edge">
<title>Node2&#45;&gt;Node5</title>
<g id="a_edge4_Node000002_Node000005"><a xlink:title=" ">
<path fill="none" stroke="#63b8ff" d="M273.18,-52.18C302.92,-42.44 343.15,-29.28 370.03,-20.48"/>
<polygon fill="#63b8ff" stroke="#63b8ff" points="272.16,-49.16 263.74,-55.59 274.33,-55.81 272.16,-49.16"/>
</a>
</g>
</g>
</g>
</svg>
</svg>

<style type='text/css'>
<![CDATA[
[data-mouse-over-selected='false'] { opacity: 0.7; }
[data-mouse-over-selected='true']  { opacity: 1.0; }
]]>
</style>
<script type="application/ecmascript"><![CDATA[
document.addEventListener('DOMContentLoaded', (event) => {
  highlightEdges();
  highlightAdjacentNodes();
});
]]></script>
</svg>
