<?xml version="1.0" encoding="UTF-8" standalone="no"?>
<!DOCTYPE svg PUBLIC "-//W3C//DTD SVG 1.1//EN"
 "http://www.w3.org/Graphics/SVG/1.1/DTD/svg11.dtd">
<!-- Generated by graphviz version 8.1.0 (20230707.0739)
 -->
<!-- Title: TransformStampedPubSubTypes.h Pages: 1 -->
<svg width="423pt" height="140pt"
 viewBox="0.00 0.00 422.88 140.00" xmlns="http://www.w3.org/2000/svg" xmlns:xlink="http://www.w3.org/1999/xlink">
<g id="graph0" class="graph" transform="scale(1 1) rotate(0) translate(4 136)">
<title>TransformStampedPubSubTypes.h</title>
<!-- Node1 -->
<g id="Node000001" class="node">
<title>Node1</title>
<g id="a_Node000001"><a xlink:title=" ">
<polygon fill="#999999" stroke="#666666" points="321.62,-132 154.88,-132 154.88,-112 321.62,-112 321.62,-132"/>
<text text-anchor="middle" x="238.25" y="-118.5" font-family="Helvetica,sans-Serif" font-size="10.00">TransformStampedPubSubTypes.h</text>
</a>
</g>
</g>
<!-- Node2 -->
<g id="Node000002" class="node">
<title>Node2</title>
<g id="a_Node000002"><a xlink:href="../../dc/d51/TFMessagePubSubTypes_8h.html" target="_top" xlink:title=" ">
<polygon fill="white" stroke="#666666" points="219.25,-76 83.25,-76 83.25,-56 219.25,-56 219.25,-76"/>
<text text-anchor="middle" x="151.25" y="-62.5" font-family="Helvetica,sans-Serif" font-size="10.00">TFMessagePubSubTypes.h</text>
</a>
</g>
</g>
<!-- Node1&#45;&gt;Node2 -->
<g id="edge1_Node000001_Node000002" class="edge">
<title>Node1&#45;&gt;Node2</title>
<g id="a_edge1_Node000001_Node000002"><a xlink:title=" ">
<path fill="none" stroke="#63b8ff" d="M213.78,-105.81C198.6,-96.39 179.58,-84.58 166.52,-76.48"/>
<polygon fill="#63b8ff" stroke="#63b8ff" points="211.75,-109.29 222.1,-111.59 215.45,-103.35 211.75,-109.29"/>
</a>
</g>
</g>
<!-- Node5 -->
<g id="Node000005" class="node">
<title>Node5</title>
<g id="a_Node000005"><a xlink:href="../../dc/df6/TransformStampedPubSubTypes_8cpp.html" target="_top" xlink:title=" ">
<polygon fill="white" stroke="#666666" points="414.88,-76 237.62,-76 237.62,-56 414.88,-56 414.88,-76"/>
<text text-anchor="middle" x="326.25" y="-62.5" font-family="Helvetica,sans-Serif" font-size="10.00">TransformStampedPubSubTypes.cpp</text>
</a>
</g>
</g>
<!-- Node1&#45;&gt;Node5 -->
<g id="edge4_Node000001_Node000005" class="edge">
<title>Node1&#45;&gt;Node5</title>
<g id="a_edge4_Node000001_Node000005"><a xlink:title=" ">
<path fill="none" stroke="#63b8ff" d="M262.56,-106.08C277.99,-96.62 297.47,-84.66 310.8,-76.48"/>
<polygon fill="#63b8ff" stroke="#63b8ff" points="261.27,-103.38 254.58,-111.59 264.93,-109.35 261.27,-103.38"/>
</a>
</g>
</g>
<!-- Node3 -->
<g id="Node000003" class="node">
<title>Node3</title>
<g id="a_Node000003"><a xlink:href="../../d3/d11/CarlaTransformPublisher_8cpp.html" target="_top" xlink:title=" ">
<polygon fill="white" stroke="#666666" points="140.5,-20 0,-20 0,0 140.5,0 140.5,-20"/>
<text text-anchor="middle" x="70.25" y="-6.5" font-family="Helvetica,sans-Serif" font-size="10.00">CarlaTransformPublisher.cpp</text>
</a>
</g>
</g>
<!-- Node2&#45;&gt;Node3 -->
<g id="edge2_Node000002_Node000003" class="edge">
<title>Node2&#45;&gt;Node3</title>
<g id="a_edge2_Node000002_Node000003"><a xlink:title=" ">
<path fill="none" stroke="#63b8ff" d="M128.06,-49.54C114,-40.17 96.51,-28.51 84.47,-20.48"/>
<polygon fill="#63b8ff" stroke="#63b8ff" points="125.88,-52.96 136.14,-55.59 129.76,-47.13 125.88,-52.96"/>
</a>
</g>
</g>
<!-- Node4 -->
<g id="Node000004" class="node">
<title>Node4</title>
<g id="a_Node000004"><a xlink:href="../../d1/d42/TFMessagePubSubTypes_8cpp.html" target="_top" xlink:title=" ">
<polygon fill="white" stroke="#666666" points="305.5,-20 159,-20 159,0 305.5,0 305.5,-20"/>
<text text-anchor="middle" x="232.25" y="-6.5" font-family="Helvetica,sans-Serif" font-size="10.00">TFMessagePubSubTypes.cpp</text>
</a>
</g>
</g>
<!-- Node2&#45;&gt;Node4 -->
<g id="edge3_Node000002_Node000004" class="edge">
<title>Node2&#45;&gt;Node4</title>
<g id="a_edge3_Node000002_Node000004"><a xlink:title=" ">
<path fill="none" stroke="#63b8ff" d="M174.44,-49.54C188.5,-40.17 205.99,-28.51 218.03,-20.48"/>
<polygon fill="#63b8ff" stroke="#63b8ff" points="172.74,-47.13 166.36,-55.59 176.62,-52.96 172.74,-47.13"/>
</a>
</g>
</g>
</g>
</svg>
