<?xml version="1.0" encoding="UTF-8" standalone="no"?>
<!DOCTYPE svg PUBLIC "-//W3C//DTD SVG 1.1//EN"
 "http://www.w3.org/Graphics/SVG/1.1/DTD/svg11.dtd">
<!-- Generated by graphviz version 8.1.0 (20230707.0739)
 -->
<!-- Title: ALargeMapManager::BeginPlay Pages: 1 -->
<svg width="1013pt" height="401pt"
 viewBox="0.00 0.00 1013.00 401.00" xmlns="http://www.w3.org/2000/svg" xmlns:xlink="http://www.w3.org/1999/xlink">
<g id="graph0" class="graph" transform="scale(1 1) rotate(0) translate(4 397)">
<title>ALargeMapManager::BeginPlay</title>
<!-- Node1 -->
<g id="Node000001" class="node">
<title>Node1</title>
<g id="a_Node000001"><a xlink:title=" ">
<polygon fill="#999999" stroke="#666666" points="153.25,-126 0,-126 0,-106 153.25,-106 153.25,-126"/>
<text text-anchor="middle" x="76.62" y="-112.5" font-family="Helvetica,sans-Serif" font-size="10.00">ALargeMapManager::BeginPlay</text>
</a>
</g>
</g>
<!-- Node2 -->
<g id="Node000002" class="node">
<title>Node2</title>
<g id="a_Node000002"><a xlink:href="../../d9/d4b/classALargeMapManager.html#ae4d6181a475f85434d957d557038e6b4" target="_top" xlink:title=" ">
<polygon fill="white" stroke="#666666" points="338.38,-253 194.88,-253 194.88,-221 338.38,-221 338.38,-253"/>
<text text-anchor="start" x="202.88" y="-239.5" font-family="Helvetica,sans-Serif" font-size="10.00">ALargeMapManager::OnLevel</text>
<text text-anchor="middle" x="266.62" y="-227.5" font-family="Helvetica,sans-Serif" font-size="10.00">AddedToWorld</text>
</a>
</g>
</g>
<!-- Node1&#45;&gt;Node2 -->
<g id="edge1_Node000001_Node000002" class="edge">
<title>Node1&#45;&gt;Node2</title>
<g id="a_edge1_Node000001_Node000002"><a xlink:title=" ">
<path fill="none" stroke="#63b8ff" d="M87.49,-126.29C105.92,-145.01 147.51,-184.94 189.25,-209 193.68,-211.55 198.39,-213.95 203.2,-216.17"/>
<polygon fill="#63b8ff" stroke="#63b8ff" points="201.62,-219.73 212.18,-220.5 204.4,-213.31 201.62,-219.73"/>
</a>
</g>
</g>
<!-- Node12 -->
<g id="Node000012" class="node">
<title>Node12</title>
<g id="a_Node000012"><a xlink:href="../../d9/d4b/classALargeMapManager.html#a9b754b38fc014bfd11e6ad0b77a8c21f" target="_top" xlink:title=" ">
<polygon fill="white" stroke="#666666" points="338.38,-200 194.88,-200 194.88,-168 338.38,-168 338.38,-200"/>
<text text-anchor="start" x="202.88" y="-186.5" font-family="Helvetica,sans-Serif" font-size="10.00">ALargeMapManager::OnLevel</text>
<text text-anchor="middle" x="266.62" y="-174.5" font-family="Helvetica,sans-Serif" font-size="10.00">RemovedFromWorld</text>
</a>
</g>
</g>
<!-- Node1&#45;&gt;Node12 -->
<g id="edge13_Node000001_Node000012" class="edge">
<title>Node1&#45;&gt;Node12</title>
<g id="a_edge13_Node000001_Node000012"><a xlink:title=" ">
<path fill="none" stroke="#63b8ff" d="M103.65,-126.46C126.18,-135.41 159.71,-148.48 189.25,-159 194.01,-160.69 198.95,-162.41 203.93,-164.11"/>
<polygon fill="#63b8ff" stroke="#63b8ff" points="202.55,-167.67 213.15,-167.55 204.79,-161.04 202.55,-167.67"/>
</a>
</g>
</g>
<!-- Node16 -->
<g id="Node000016" class="node">
<title>Node16</title>
<g id="a_Node000016"><a xlink:href="../../d9/d4b/classALargeMapManager.html#abf26c31bbf6b18e678d4aff461f2913e" target="_top" xlink:title=" ">
<polygon fill="white" stroke="#666666" points="344,-132 189.25,-132 189.25,-100 344,-100 344,-132"/>
<text text-anchor="start" x="197.25" y="-118.5" font-family="Helvetica,sans-Serif" font-size="10.00">ALargeMapManager::PostWorld</text>
<text text-anchor="middle" x="266.62" y="-106.5" font-family="Helvetica,sans-Serif" font-size="10.00">OriginOffset</text>
</a>
</g>
</g>
<!-- Node1&#45;&gt;Node16 -->
<g id="edge19_Node000001_Node000016" class="edge">
<title>Node1&#45;&gt;Node16</title>
<g id="a_edge19_Node000001_Node000016"><a xlink:title=" ">
<path fill="none" stroke="#63b8ff" d="M153.55,-116C161.54,-116 169.7,-116 177.81,-116"/>
<polygon fill="#63b8ff" stroke="#63b8ff" points="177.8,-119.5 187.8,-116 177.8,-112.5 177.8,-119.5"/>
</a>
</g>
</g>
<!-- Node20 -->
<g id="Node000020" class="node">
<title>Node20</title>
<g id="a_Node000020"><a xlink:href="../../d9/d4b/classALargeMapManager.html#a2a33a3e785761a853ecc62be724a4e03" target="_top" xlink:title=" ">
<polygon fill="white" stroke="#666666" points="341.38,-82 191.88,-82 191.88,-50 341.38,-50 341.38,-82"/>
<text text-anchor="start" x="199.88" y="-68.5" font-family="Helvetica,sans-Serif" font-size="10.00">ALargeMapManager::PreWorld</text>
<text text-anchor="middle" x="266.62" y="-56.5" font-family="Helvetica,sans-Serif" font-size="10.00">OriginOffset</text>
</a>
</g>
</g>
<!-- Node1&#45;&gt;Node20 -->
<g id="edge24_Node000001_Node000020" class="edge">
<title>Node1&#45;&gt;Node20</title>
<g id="a_edge24_Node000001_Node000020"><a xlink:title=" ">
<path fill="none" stroke="#63b8ff" d="M117.04,-105.52C139.09,-99.65 167.27,-92.16 193.15,-85.28"/>
<polygon fill="#63b8ff" stroke="#63b8ff" points="193.93,-88.42 202.69,-82.47 192.13,-81.66 193.93,-88.42"/>
</a>
</g>
</g>
<!-- Node21 -->
<g id="Node000021" class="node">
<title>Node21</title>
<g id="a_Node000021"><a xlink:href="../../d9/d4b/classALargeMapManager.html#aacd380beaf907ef4ff7212c5e5a3bd83" target="_top" xlink:title=" ">
<polygon fill="white" stroke="#666666" points="339.12,-32 194.12,-32 194.12,0 339.12,0 339.12,-32"/>
<text text-anchor="start" x="202.12" y="-18.5" font-family="Helvetica,sans-Serif" font-size="10.00">ALargeMapManager::Register</text>
<text text-anchor="middle" x="266.62" y="-6.5" font-family="Helvetica,sans-Serif" font-size="10.00">TilesInWorldComposition</text>
</a>
</g>
</g>
<!-- Node1&#45;&gt;Node21 -->
<g id="edge25_Node000001_Node000021" class="edge">
<title>Node1&#45;&gt;Node21</title>
<g id="a_edge25_Node000001_Node000021"><a xlink:title=" ">
<path fill="none" stroke="#63b8ff" d="M90.31,-105.75C110.31,-90.01 150.85,-59.74 189.25,-41 192.55,-39.39 195.97,-37.85 199.47,-36.38"/>
<polygon fill="#63b8ff" stroke="#63b8ff" points="200.44,-39.36 208.44,-32.42 197.85,-32.85 200.44,-39.36"/>
</a>
</g>
</g>
<!-- Node3 -->
<g id="Node000003" class="node">
<title>Node3</title>
<g id="a_Node000003"><a xlink:href="../../da/d86/classATagger.html#ad1bff091221672f7af2ba6c02fb99f75" target="_top" xlink:title="Set the tag of every actor in level.">
<polygon fill="white" stroke="#666666" points="519.38,-253 387.88,-253 387.88,-233 519.38,-233 519.38,-253"/>
<text text-anchor="middle" x="453.62" y="-239.5" font-family="Helvetica,sans-Serif" font-size="10.00">ATagger::TagActorsInLevel</text>
</a>
</g>
</g>
<!-- Node2&#45;&gt;Node3 -->
<g id="edge2_Node000002_Node000003" class="edge">
<title>Node2&#45;&gt;Node3</title>
<g id="a_edge2_Node000002_Node000003"><a xlink:title=" ">
<path fill="none" stroke="#63b8ff" d="M338.62,-239.3C351.07,-239.71 364.08,-240.13 376.66,-240.54"/>
<polygon fill="#63b8ff" stroke="#63b8ff" points="376.47,-244.06 386.58,-240.89 376.7,-237.07 376.47,-244.06"/>
</a>
</g>
</g>
<!-- Node4 -->
<g id="Node000004" class="node">
<title>Node4</title>
<g id="a_Node000004"><a xlink:href="../../da/d86/classATagger.html#ad0a7c11b5b6a58abecd4a7b5587eeb6a" target="_top" xlink:title="Set the tag of an actor.">
<polygon fill="white" stroke="#666666" points="692.12,-279 595.12,-279 595.12,-259 692.12,-259 692.12,-279"/>
<text text-anchor="middle" x="643.62" y="-265.5" font-family="Helvetica,sans-Serif" font-size="10.00">ATagger::TagActor</text>
</a>
</g>
</g>
<!-- Node3&#45;&gt;Node4 -->
<g id="edge3_Node000003_Node000004" class="edge">
<title>Node3&#45;&gt;Node4</title>
<g id="a_edge3_Node000003_Node000004"><a xlink:title=" ">
<path fill="none" stroke="#63b8ff" d="M519.85,-252.02C540.71,-254.9 563.65,-258.08 584.01,-260.89"/>
<polygon fill="#63b8ff" stroke="#63b8ff" points="583.32,-264.47 593.71,-262.37 584.28,-257.54 583.32,-264.47"/>
</a>
</g>
</g>
<!-- Node5 -->
<g id="Node000005" class="node">
<title>Node5</title>
<g id="a_Node000005"><a xlink:href="../../da/d86/classATagger.html#ad30a07f35f3db9d174589bb8abddd11f" target="_top" xlink:title=" ">
<polygon fill="white" stroke="#666666" points="905,-393 762.25,-393 762.25,-373 905,-373 905,-393"/>
<text text-anchor="middle" x="833.62" y="-379.5" font-family="Helvetica,sans-Serif" font-size="10.00">ATagger::GetActorLabelColor</text>
</a>
</g>
</g>
<!-- Node4&#45;&gt;Node5 -->
<g id="edge4_Node000004_Node000005" class="edge">
<title>Node4&#45;&gt;Node5</title>
<g id="a_edge4_Node000004_Node000005"><a xlink:title=" ">
<path fill="none" stroke="#63b8ff" d="M654.05,-279.29C672.48,-298.79 715.41,-341.22 760,-364 763.51,-365.8 767.21,-367.43 771,-368.92"/>
<polygon fill="#63b8ff" stroke="#63b8ff" points="769.6,-372.49 780.19,-372.53 771.93,-365.89 769.6,-372.49"/>
</a>
</g>
</g>
<!-- Node7 -->
<g id="Node000007" class="node">
<title>Node7</title>
<g id="a_Node000007"><a xlink:href="../../da/d86/classATagger.html#aad05d5a21390b4353006636903dcde06" target="_top" xlink:title="Method that computes the label corresponding to an specific object using the folder path in which it ...">
<polygon fill="white" stroke="#666666" points="898.25,-355 769,-355 769,-335 898.25,-335 898.25,-355"/>
<text text-anchor="middle" x="833.62" y="-341.5" font-family="Helvetica,sans-Serif" font-size="10.00">ATagger::GetLabelByPath</text>
</a>
</g>
</g>
<!-- Node4&#45;&gt;Node7 -->
<g id="edge6_Node000004_Node000007" class="edge">
<title>Node4&#45;&gt;Node7</title>
<g id="a_edge6_Node000004_Node000007"><a xlink:title=" ">
<path fill="none" stroke="#63b8ff" d="M662.89,-279.48C685.22,-291.94 724.42,-312.71 760,-326 765.34,-327.99 770.98,-329.86 776.65,-331.59"/>
<polygon fill="#63b8ff" stroke="#63b8ff" points="775.28,-335.12 785.86,-334.54 777.22,-328.4 775.28,-335.12"/>
</a>
</g>
</g>
<!-- Node8 -->
<g id="Node000008" class="node">
<title>Node8</title>
<g id="a_Node000008"><a xlink:href="../../da/d86/classATagger.html#a2b8ab63680928bbd944deecb7e87ec23" target="_top" xlink:title="Retrieve the tags of an already tagged actor.">
<polygon fill="white" stroke="#666666" points="897.12,-317 770.12,-317 770.12,-297 897.12,-297 897.12,-317"/>
<text text-anchor="middle" x="833.62" y="-303.5" font-family="Helvetica,sans-Serif" font-size="10.00">ATagger::GetTagAsString</text>
</a>
</g>
</g>
<!-- Node4&#45;&gt;Node8 -->
<g id="edge7_Node000004_Node000008" class="edge">
<title>Node4&#45;&gt;Node8</title>
<g id="a_edge7_Node000004_Node000008"><a xlink:title=" ">
<path fill="none" stroke="#63b8ff" d="M692.55,-278.69C716.16,-283.46 744.92,-289.27 770.22,-294.39"/>
<polygon fill="#63b8ff" stroke="#63b8ff" points="769.33,-297.98 779.83,-296.53 770.72,-291.12 769.33,-297.98"/>
</a>
</g>
</g>
<!-- Node9 -->
<g id="Node000009" class="node">
<title>Node9</title>
<g id="a_Node000009"><a xlink:href="../../d2/d40/TrafficLightBase_8cpp.html#a1459952e95242b0c926376d0bb4692b8" target="_top" xlink:title=" ">
<polygon fill="white" stroke="#666666" points="996.75,-231 951.5,-231 951.5,-211 996.75,-211 996.75,-231"/>
<text text-anchor="middle" x="974.12" y="-217.5" font-family="Helvetica,sans-Serif" font-size="10.00">IsValid</text>
</a>
</g>
</g>
<!-- Node4&#45;&gt;Node9 -->
<g id="edge8_Node000004_Node000009" class="edge">
<title>Node4&#45;&gt;Node9</title>
<g id="a_edge8_Node000004_Node000009"><a xlink:title=" ">
<path fill="none" stroke="#63b8ff" d="M692.57,-260.8C713.29,-257.33 737.82,-253.34 760,-250 823.76,-240.41 898.47,-230.57 940.35,-225.17"/>
<polygon fill="#63b8ff" stroke="#63b8ff" points="940.53,-228.55 950.01,-223.8 939.64,-221.6 940.53,-228.55"/>
</a>
</g>
</g>
<!-- Node10 -->
<g id="Node000010" class="node">
<title>Node10</title>
<g id="a_Node000010"><a xlink:href="../../d8/d9f/classUTaggedComponent.html#a996f100e6eead478883b85cbb1d54569" target="_top" xlink:title=" ">
<polygon fill="white" stroke="#666666" points="907.25,-203 760,-203 760,-183 907.25,-183 907.25,-203"/>
<text text-anchor="middle" x="833.62" y="-189.5" font-family="Helvetica,sans-Serif" font-size="10.00">UTaggedComponent::SetColor</text>
</a>
</g>
</g>
<!-- Node4&#45;&gt;Node10 -->
<g id="edge9_Node000004_Node000010" class="edge">
<title>Node4&#45;&gt;Node10</title>
<g id="a_edge9_Node000004_Node000010"><a xlink:title=" ">
<path fill="none" stroke="#63b8ff" d="M666.03,-258.54C688.98,-247.52 726.63,-229.99 760,-217 769.08,-213.46 778.92,-209.98 788.34,-206.82"/>
<polygon fill="#63b8ff" stroke="#63b8ff" points="789.34,-209.84 797.74,-203.39 787.15,-203.2 789.34,-209.84"/>
</a>
</g>
</g>
<!-- Node11 -->
<g id="Node000011" class="node">
<title>Node11</title>
<g id="a_Node000011"><a xlink:href="../../da/d86/classATagger.html#ac21f239b285add6402af8245dc2f53cd" target="_top" xlink:title=" ">
<polygon fill="white" stroke="#666666" points="897.5,-279 769.75,-279 769.75,-259 897.5,-259 897.5,-279"/>
<text text-anchor="middle" x="833.62" y="-265.5" font-family="Helvetica,sans-Serif" font-size="10.00">ATagger::SetStencilValue</text>
</a>
</g>
</g>
<!-- Node4&#45;&gt;Node11 -->
<g id="edge11_Node000004_Node000011" class="edge">
<title>Node4&#45;&gt;Node11</title>
<g id="a_edge11_Node000004_Node000011"><a xlink:title=" ">
<path fill="none" stroke="#63b8ff" d="M692.55,-269C712.65,-269 736.49,-269 758.74,-269"/>
<polygon fill="#63b8ff" stroke="#63b8ff" points="758.52,-272.5 768.52,-269 758.52,-265.5 758.52,-272.5"/>
</a>
</g>
</g>
<!-- Node6 -->
<g id="Node000006" class="node">
<title>Node6</title>
<g id="a_Node000006"><a xlink:href="../../d2/d35/Tagger_8cpp.html#a71868d020d0298e901136dde7c5a62a5" target="_top" xlink:title=" ">
<polygon fill="white" stroke="#666666" points="1005,-288 943.25,-288 943.25,-268 1005,-268 1005,-288"/>
<text text-anchor="middle" x="974.12" y="-274.5" font-family="Helvetica,sans-Serif" font-size="10.00">CastEnum</text>
</a>
</g>
</g>
<!-- Node5&#45;&gt;Node6 -->
<g id="edge5_Node000005_Node000006" class="edge">
<title>Node5&#45;&gt;Node6</title>
<g id="a_edge5_Node000005_Node000006"><a xlink:title=" ">
<path fill="none" stroke="#63b8ff" d="M890.23,-372.61C896.23,-370.29 902.04,-367.46 907.25,-364 932.48,-347.24 952.04,-317.53 963.07,-297.8"/>
<polygon fill="#63b8ff" stroke="#63b8ff" points="966.55,-299.73 968.18,-289.26 960.37,-296.42 966.55,-299.73"/>
</a>
</g>
</g>
<!-- Node10&#45;&gt;Node9 -->
<g id="edge10_Node000010_Node000009" class="edge">
<title>Node10&#45;&gt;Node9</title>
<g id="a_edge10_Node000010_Node000009"><a xlink:title=" ">
<path fill="none" stroke="#63b8ff" d="M886.2,-203.43C904.44,-207.12 924.45,-211.16 940.66,-214.44"/>
<polygon fill="#63b8ff" stroke="#63b8ff" points="939.71,-218.02 950.21,-216.57 941.1,-211.16 939.71,-218.02"/>
</a>
</g>
</g>
<!-- Node11&#45;&gt;Node6 -->
<g id="edge12_Node000011_Node000006" class="edge">
<title>Node11&#45;&gt;Node6</title>
<g id="a_edge12_Node000011_Node000006"><a xlink:title=" ">
<path fill="none" stroke="#63b8ff" d="M897.8,-273.1C909.44,-273.86 921.32,-274.63 932.1,-275.33"/>
<polygon fill="#63b8ff" stroke="#63b8ff" points="931.68,-278.88 941.88,-276.03 932.13,-271.89 931.68,-278.88"/>
</a>
</g>
</g>
<!-- Node13 -->
<g id="Node000013" class="node">
<title>Node13</title>
<g id="a_Node000013"><a xlink:href="../../d9/d4b/classALargeMapManager.html#a83b3ca68bcd13f47484620994b4a6560" target="_top" xlink:title=" ">
<polygon fill="white" stroke="#666666" points="527.25,-196 380,-196 380,-164 527.25,-164 527.25,-196"/>
<text text-anchor="start" x="388" y="-182.5" font-family="Helvetica,sans-Serif" font-size="10.00">ALargeMapManager::GetCarla</text>
<text text-anchor="middle" x="453.62" y="-170.5" font-family="Helvetica,sans-Serif" font-size="10.00">MapTile</text>
</a>
</g>
</g>
<!-- Node12&#45;&gt;Node13 -->
<g id="edge14_Node000012_Node000013" class="edge">
<title>Node12&#45;&gt;Node13</title>
<g id="a_edge14_Node000012_Node000013"><a xlink:title=" ">
<path fill="none" stroke="#63b8ff" d="M338.62,-182.46C348.5,-182.25 358.72,-182.03 368.81,-181.81"/>
<polygon fill="#63b8ff" stroke="#63b8ff" points="368.75,-185.29 378.67,-181.58 368.6,-178.29 368.75,-185.29"/>
</a>
</g>
</g>
<!-- Node13&#45;&gt;Node13 -->
<g id="edge15_Node000013_Node000013" class="edge">
<title>Node13&#45;&gt;Node13</title>
<g id="a_edge15_Node000013_Node000013"><a xlink:title=" ">
<path fill="none" stroke="#63b8ff" d="M420.24,-196.44C414.01,-205.58 425.14,-214 453.62,-214 470.09,-214 480.76,-211.19 485.63,-207.05"/>
<polygon fill="#63b8ff" stroke="#63b8ff" points="489.19,-207.81 487.01,-197.44 482.25,-206.91 489.19,-207.81"/>
</a>
</g>
</g>
<!-- Node14 -->
<g id="Node000014" class="node">
<title>Node14</title>
<g id="a_Node000014"><a xlink:href="../../d9/d4b/classALargeMapManager.html#a719578eff1513ef2ab1993349ea6db52" target="_top" xlink:title="From a given location it retrieves the TileID that covers that area.">
<polygon fill="white" stroke="#666666" points="718,-184 569.25,-184 569.25,-164 718,-164 718,-184"/>
<text text-anchor="middle" x="643.62" y="-170.5" font-family="Helvetica,sans-Serif" font-size="10.00">ALargeMapManager::GetTileID</text>
</a>
</g>
</g>
<!-- Node13&#45;&gt;Node14 -->
<g id="edge16_Node000013_Node000014" class="edge">
<title>Node13&#45;&gt;Node14</title>
<g id="a_edge16_Node000013_Node000014"><a xlink:title=" ">
<path fill="none" stroke="#63b8ff" d="M527.58,-177.67C537.51,-177.35 547.77,-177.03 557.88,-176.7"/>
<polygon fill="#63b8ff" stroke="#63b8ff" points="557.9,-180.17 567.78,-176.36 557.67,-173.18 557.9,-180.17"/>
</a>
</g>
</g>
<!-- Node14&#45;&gt;Node14 -->
<g id="edge17_Node000014_Node000014" class="edge">
<title>Node14&#45;&gt;Node14</title>
<g id="a_edge17_Node000014_Node000014"><a xlink:title=" ">
<path fill="none" stroke="#63b8ff" d="M613.44,-184.34C600.53,-192.98 610.6,-202 643.62,-202 663.23,-202 674.75,-198.82 678.17,-194.43"/>
<polygon fill="#63b8ff" stroke="#63b8ff" points="680.99,-193.13 673.81,-185.34 674.56,-195.91 680.99,-193.13"/>
</a>
</g>
</g>
<!-- Node15 -->
<g id="Node000015" class="node">
<title>Node15</title>
<g id="a_Node000015"><a xlink:href="../../d9/d4b/classALargeMapManager.html#a53d7481bf584f8c3f39c6d8b744084e6" target="_top" xlink:title=" ">
<polygon fill="white" stroke="#666666" points="903.5,-165 763.75,-165 763.75,-133 903.5,-133 903.5,-165"/>
<text text-anchor="start" x="771.75" y="-151.5" font-family="Helvetica,sans-Serif" font-size="10.00">ALargeMapManager::GetTile</text>
<text text-anchor="middle" x="833.62" y="-139.5" font-family="Helvetica,sans-Serif" font-size="10.00">VectorID</text>
</a>
</g>
</g>
<!-- Node14&#45;&gt;Node15 -->
<g id="edge18_Node000014_Node000015" class="edge">
<title>Node14&#45;&gt;Node15</title>
<g id="a_edge18_Node000014_Node000015"><a xlink:title=" ">
<path fill="none" stroke="#63b8ff" d="M718.39,-164.19C729.61,-162.7 741.24,-161.15 752.6,-159.64"/>
<polygon fill="#63b8ff" stroke="#63b8ff" points="752.92,-163 762.37,-158.21 752,-156.06 752.92,-163"/>
</a>
</g>
</g>
<!-- Node16&#45;&gt;Node16 -->
<g id="edge22_Node000016_Node000016" class="edge">
<title>Node16&#45;&gt;Node16</title>
<g id="a_edge22_Node000016_Node000016"><a xlink:title=" ">
<path fill="none" stroke="#63b8ff" d="M233.24,-132.44C227.01,-141.58 238.14,-150 266.62,-150 283.09,-150 293.76,-147.19 298.63,-143.05"/>
<polygon fill="#63b8ff" stroke="#63b8ff" points="302.19,-143.81 300.01,-133.44 295.25,-142.91 302.19,-143.81"/>
</a>
</g>
</g>
<!-- Node17 -->
<g id="Node000017" class="node">
<title>Node17</title>
<g id="a_Node000017"><a xlink:href="../../d7/d1e/classUCarlaStatics.html#a83f2a341e32413abf1ec85ee740c2036" target="_top" xlink:title=" ">
<polygon fill="white" stroke="#666666" points="518.25,-143 389,-143 389,-111 518.25,-111 518.25,-143"/>
<text text-anchor="start" x="397" y="-129.5" font-family="Helvetica,sans-Serif" font-size="10.00">UCarlaStatics::GetCurrent</text>
<text text-anchor="middle" x="453.62" y="-117.5" font-family="Helvetica,sans-Serif" font-size="10.00">Episode</text>
</a>
</g>
</g>
<!-- Node16&#45;&gt;Node17 -->
<g id="edge20_Node000016_Node000017" class="edge">
<title>Node16&#45;&gt;Node17</title>
<g id="a_edge20_Node000016_Node000017"><a xlink:title=" ">
<path fill="none" stroke="#63b8ff" d="M344.47,-120.57C355.49,-121.22 366.82,-121.9 377.8,-122.55"/>
<polygon fill="#63b8ff" stroke="#63b8ff" points="377.45,-126.1 387.64,-123.2 377.86,-119.11 377.45,-126.1"/>
</a>
</g>
</g>
<!-- Node19 -->
<g id="Node000019" class="node">
<title>Node19</title>
<g id="a_Node000019"><a xlink:href="../../dc/d84/classUCarlaEpisode.html#a278833cad3580bdb058b36801007c1ca" target="_top" xlink:title=" ">
<polygon fill="white" stroke="#666666" points="520.12,-93 387.12,-93 387.12,-61 520.12,-61 520.12,-93"/>
<text text-anchor="start" x="395.12" y="-79.5" font-family="Helvetica,sans-Serif" font-size="10.00">UCarlaEpisode::SetCurrent</text>
<text text-anchor="middle" x="453.62" y="-67.5" font-family="Helvetica,sans-Serif" font-size="10.00">MapOrigin</text>
</a>
</g>
</g>
<!-- Node16&#45;&gt;Node19 -->
<g id="edge23_Node000016_Node000019" class="edge">
<title>Node16&#45;&gt;Node19</title>
<g id="a_edge23_Node000016_Node000019"><a xlink:title=" ">
<path fill="none" stroke="#63b8ff" d="M344.47,-99.8C355.05,-97.57 365.9,-95.28 376.46,-93.06"/>
<polygon fill="#63b8ff" stroke="#63b8ff" points="376.84,-96.34 385.9,-90.86 375.4,-89.49 376.84,-96.34"/>
</a>
</g>
</g>
<!-- Node18 -->
<g id="Node000018" class="node">
<title>Node18</title>
<g id="a_Node000018"><a xlink:href="../../d7/d1e/classUCarlaStatics.html#a35e7cb760a58848081a618e7fa8201e2" target="_top" xlink:title=" ">
<polygon fill="white" stroke="#666666" points="724,-137 563.25,-137 563.25,-117 724,-117 724,-137"/>
<text text-anchor="middle" x="643.62" y="-123.5" font-family="Helvetica,sans-Serif" font-size="10.00">UCarlaStatics::GetGameInstance</text>
</a>
</g>
</g>
<!-- Node17&#45;&gt;Node18 -->
<g id="edge21_Node000017_Node000018" class="edge">
<title>Node17&#45;&gt;Node18</title>
<g id="a_edge21_Node000017_Node000018"><a xlink:title=" ">
<path fill="none" stroke="#63b8ff" d="M518.54,-127C529.35,-127 540.75,-127 552.08,-127"/>
<polygon fill="#63b8ff" stroke="#63b8ff" points="551.91,-130.5 561.91,-127 551.91,-123.5 551.91,-130.5"/>
</a>
</g>
</g>
</g>
</svg>
