<?xml version="1.0" encoding="UTF-8" standalone="no"?>
<!DOCTYPE svg PUBLIC "-//W3C//DTD SVG 1.1//EN"
 "http://www.w3.org/Graphics/SVG/1.1/DTD/svg11.dtd">
<!-- Generated by graphviz version 8.1.0 (20230707.0739)
 -->
<!-- Title: ALargeMapManager::CheckIfRebaseIsNeeded Pages: 1 -->
<svg width="510pt" height="152pt"
 viewBox="0.00 0.00 509.75 152.00" xmlns="http://www.w3.org/2000/svg" xmlns:xlink="http://www.w3.org/1999/xlink">
<g id="graph0" class="graph" transform="scale(1 1) rotate(0) translate(4 148)">
<title>ALargeMapManager::CheckIfRebaseIsNeeded</title>
<!-- Node1 -->
<g id="Node000001" class="node">
<title>Node1</title>
<g id="a_Node000001"><a xlink:title=" ">
<polygon fill="#999999" stroke="#666666" points="141.25,-70 0,-70 0,-38 141.25,-38 141.25,-70"/>
<text text-anchor="start" x="8" y="-56.5" font-family="Helvetica,sans-Serif" font-size="10.00">ALargeMapManager::CheckIf</text>
<text text-anchor="middle" x="70.62" y="-44.5" font-family="Helvetica,sans-Serif" font-size="10.00">RebaseIsNeeded</text>
</a>
</g>
</g>
<!-- Node1&#45;&gt;Node1 -->
<g id="edge1_Node000001_Node000001" class="edge">
<title>Node1&#45;&gt;Node1</title>
<g id="a_edge1_Node000001_Node000001"><a xlink:title=" ">
<path fill="none" stroke="#63b8ff" d="M38.31,-70.44C32.28,-79.58 43.05,-88 70.62,-88 86.57,-88 96.89,-85.19 101.6,-81.05"/>
<polygon fill="#63b8ff" stroke="#63b8ff" points="105.16,-81.8 102.94,-71.44 98.21,-80.93 105.16,-81.8"/>
</a>
</g>
</g>
<!-- Node2 -->
<g id="Node000002" class="node">
<title>Node2</title>
<g id="a_Node000002"><a xlink:href="../../d9/d4b/classALargeMapManager.html#a719578eff1513ef2ab1993349ea6db52" target="_top" xlink:title="From a given location it retrieves the TileID that covers that area.">
<polygon fill="white" stroke="#666666" points="326,-126 177.25,-126 177.25,-106 326,-106 326,-126"/>
<text text-anchor="middle" x="251.62" y="-112.5" font-family="Helvetica,sans-Serif" font-size="10.00">ALargeMapManager::GetTileID</text>
</a>
</g>
</g>
<!-- Node1&#45;&gt;Node2 -->
<g id="edge2_Node000001_Node000002" class="edge">
<title>Node1&#45;&gt;Node2</title>
<g id="a_edge2_Node000001_Node000002"><a xlink:title=" ">
<path fill="none" stroke="#63b8ff" d="M108.32,-70.35C128.44,-78.95 153.95,-89.28 177.25,-97 183.25,-98.99 189.58,-100.9 195.91,-102.69"/>
<polygon fill="#63b8ff" stroke="#63b8ff" points="194.93,-106.33 205.5,-105.59 196.78,-99.58 194.93,-106.33"/>
</a>
</g>
</g>
<!-- Node4 -->
<g id="Node000004" class="node">
<title>Node4</title>
<g id="a_Node000004"><a xlink:href="../../d9/d4b/classALargeMapManager.html#abafa68f43a194e756c22a34bac95a84f" target="_top" xlink:title=" ">
<polygon fill="white" stroke="#666666" points="321.5,-70 181.75,-70 181.75,-38 321.5,-38 321.5,-70"/>
<text text-anchor="start" x="189.75" y="-56.5" font-family="Helvetica,sans-Serif" font-size="10.00">ALargeMapManager::GetTile</text>
<text text-anchor="middle" x="251.62" y="-44.5" font-family="Helvetica,sans-Serif" font-size="10.00">Location</text>
</a>
</g>
</g>
<!-- Node1&#45;&gt;Node4 -->
<g id="edge5_Node000001_Node000004" class="edge">
<title>Node1&#45;&gt;Node4</title>
<g id="a_edge5_Node000001_Node000004"><a xlink:title=" ">
<path fill="none" stroke="#63b8ff" d="M141.6,-54C151.08,-54 160.86,-54 170.49,-54"/>
<polygon fill="#63b8ff" stroke="#63b8ff" points="170.29,-57.5 180.29,-54 170.29,-50.5 170.29,-57.5"/>
</a>
</g>
</g>
<!-- Node5 -->
<g id="Node000005" class="node">
<title>Node5</title>
<g id="a_Node000005"><a xlink:href="../../d2/d40/TrafficLightBase_8cpp.html#a1459952e95242b0c926376d0bb4692b8" target="_top" xlink:title=" ">
<polygon fill="white" stroke="#666666" points="274.25,-20 229,-20 229,0 274.25,0 274.25,-20"/>
<text text-anchor="middle" x="251.62" y="-6.5" font-family="Helvetica,sans-Serif" font-size="10.00">IsValid</text>
</a>
</g>
</g>
<!-- Node1&#45;&gt;Node5 -->
<g id="edge8_Node000001_Node000005" class="edge">
<title>Node1&#45;&gt;Node5</title>
<g id="a_edge8_Node000001_Node000005"><a xlink:title=" ">
<path fill="none" stroke="#63b8ff" d="M138.53,-37.55C165.72,-30.87 195.88,-23.46 218.06,-18.01"/>
<polygon fill="#63b8ff" stroke="#63b8ff" points="218.69,-21.21 227.56,-15.42 217.02,-14.41 218.69,-21.21"/>
</a>
</g>
</g>
<!-- Node2&#45;&gt;Node2 -->
<g id="edge3_Node000002_Node000002" class="edge">
<title>Node2&#45;&gt;Node2</title>
<g id="a_edge3_Node000002_Node000002"><a xlink:title=" ">
<path fill="none" stroke="#63b8ff" d="M222.99,-126.34C210.75,-134.98 220.29,-144 251.62,-144 270.23,-144 281.15,-140.82 284.39,-136.43"/>
<polygon fill="#63b8ff" stroke="#63b8ff" points="287.29,-135.27 280.26,-127.34 280.82,-137.92 287.29,-135.27"/>
</a>
</g>
</g>
<!-- Node3 -->
<g id="Node000003" class="node">
<title>Node3</title>
<g id="a_Node000003"><a xlink:href="../../d9/d4b/classALargeMapManager.html#a53d7481bf584f8c3f39c6d8b744084e6" target="_top" xlink:title=" ">
<polygon fill="white" stroke="#666666" points="501.75,-101 362,-101 362,-69 501.75,-69 501.75,-101"/>
<text text-anchor="start" x="370" y="-87.5" font-family="Helvetica,sans-Serif" font-size="10.00">ALargeMapManager::GetTile</text>
<text text-anchor="middle" x="431.88" y="-75.5" font-family="Helvetica,sans-Serif" font-size="10.00">VectorID</text>
</a>
</g>
</g>
<!-- Node2&#45;&gt;Node3 -->
<g id="edge4_Node000002_Node000003" class="edge">
<title>Node2&#45;&gt;Node3</title>
<g id="a_edge4_Node000002_Node000003"><a xlink:title=" ">
<path fill="none" stroke="#63b8ff" d="M312.97,-105.5C325.2,-103.38 338.24,-101.11 351.03,-98.89"/>
<polygon fill="#63b8ff" stroke="#63b8ff" points="351.43,-102.2 360.68,-97.03 350.23,-95.3 351.43,-102.2"/>
</a>
</g>
</g>
<!-- Node4&#45;&gt;Node3 -->
<g id="edge7_Node000004_Node000003" class="edge">
<title>Node4&#45;&gt;Node3</title>
<g id="a_edge7_Node000004_Node000003"><a xlink:title=" ">
<path fill="none" stroke="#63b8ff" d="M321.8,-66.03C331.43,-67.7 341.38,-69.44 351.19,-71.14"/>
<polygon fill="#63b8ff" stroke="#63b8ff" points="350.29,-74.71 360.74,-72.98 351.49,-67.82 350.29,-74.71"/>
</a>
</g>
</g>
<!-- Node4&#45;&gt;Node4 -->
<g id="edge6_Node000004_Node000004" class="edge">
<title>Node4&#45;&gt;Node4</title>
<g id="a_edge6_Node000004_Node000004"><a xlink:title=" ">
<path fill="none" stroke="#63b8ff" d="M219.45,-70.44C213.44,-79.58 224.17,-88 251.62,-88 267.5,-88 277.78,-85.19 282.47,-81.05"/>
<polygon fill="#63b8ff" stroke="#63b8ff" points="286.03,-81.8 283.8,-71.44 279.09,-80.93 286.03,-81.8"/>
</a>
</g>
</g>
</g>
</svg>
