<?xml version="1.0" encoding="UTF-8" standalone="no"?>
<!DOCTYPE svg PUBLIC "-//W3C//DTD SVG 1.1//EN"
 "http://www.w3.org/Graphics/SVG/1.1/DTD/svg11.dtd">
<!-- Generated by graphviz version 8.1.0 (20230707.0739)
 -->
<!-- Title: ALargeMapManager::ClearWorldAndTiles Pages: 1 -->
<svg width="726pt" height="96pt"
 viewBox="0.00 0.00 726.00 96.00" xmlns="http://www.w3.org/2000/svg" xmlns:xlink="http://www.w3.org/1999/xlink">
<g id="graph0" class="graph" transform="scale(1 1) rotate(0) translate(4 92)">
<title>ALargeMapManager::ClearWorldAndTiles</title>
<!-- Node1 -->
<g id="Node000001" class="node">
<title>Node1</title>
<g id="a_Node000001"><a xlink:title=" ">
<polygon fill="#999999" stroke="#666666" points="718,-45 561,-45 561,-13 718,-13 718,-45"/>
<text text-anchor="start" x="569" y="-31.5" font-family="Helvetica,sans-Serif" font-size="10.00">ALargeMapManager::ClearWorld</text>
<text text-anchor="middle" x="639.5" y="-19.5" font-family="Helvetica,sans-Serif" font-size="10.00">AndTiles</text>
</a>
</g>
</g>
<!-- Node2 -->
<g id="Node000002" class="node">
<title>Node2</title>
<g id="a_Node000002"><a xlink:href="../../d9/d4b/classALargeMapManager.html#ad64af224a44bf7a476284eee4cb93725" target="_top" xlink:title=" ">
<polygon fill="white" stroke="#666666" points="525,-58 357.5,-58 357.5,-38 525,-38 525,-58"/>
<text text-anchor="middle" x="441.25" y="-44.5" font-family="Helvetica,sans-Serif" font-size="10.00">ALargeMapManager::GenerateMap</text>
</a>
</g>
</g>
<!-- Node1&#45;&gt;Node2 -->
<g id="edge1_Node000001_Node000002" class="edge">
<title>Node1&#45;&gt;Node2</title>
<g id="a_edge1_Node000001_Node000002"><a xlink:title=" ">
<path fill="none" stroke="#63b8ff" d="M549.73,-37.59C541.66,-38.38 533.5,-39.17 525.48,-39.94"/>
<polygon fill="#63b8ff" stroke="#63b8ff" points="550.04,-40.98 559.65,-36.54 549.36,-34.02 550.04,-40.98"/>
</a>
</g>
</g>
<!-- Node5 -->
<g id="Node000005" class="node">
<title>Node5</title>
<g id="a_Node000005"><a xlink:href="../../d9/d4b/classALargeMapManager.html#a025d29241aac714c59d24ea3597f6e3b" target="_top" xlink:title=" ">
<polygon fill="white" stroke="#666666" points="321.5,-20 154,-20 154,0 321.5,0 321.5,-20"/>
<text text-anchor="middle" x="237.75" y="-6.5" font-family="Helvetica,sans-Serif" font-size="10.00">ALargeMapManager::GenerateMap</text>
</a>
</g>
</g>
<!-- Node1&#45;&gt;Node5 -->
<g id="edge7_Node000001_Node000005" class="edge">
<title>Node1&#45;&gt;Node5</title>
<g id="a_edge7_Node000001_Node000005"><a xlink:title=" ">
<path fill="none" stroke="#63b8ff" d="M550.25,-24.81C482.19,-21.57 388.7,-17.13 321.94,-13.95"/>
<polygon fill="#63b8ff" stroke="#63b8ff" points="549.8,-28.34 559.95,-25.31 550.13,-21.34 549.8,-28.34"/>
</a>
</g>
</g>
<!-- Node2&#45;&gt;Node2 -->
<g id="edge5_Node000002_Node000002" class="edge">
<title>Node2&#45;&gt;Node2</title>
<g id="a_edge5_Node000002_Node000002"><a xlink:title=" ">
<path fill="none" stroke="#63b8ff" d="M477.56,-68.08C474.35,-72.65 462.25,-76 441.25,-76 406.79,-76 396.29,-66.98 409.75,-58.34"/>
<polygon fill="#63b8ff" stroke="#63b8ff" points="480.31,-66.76 472.75,-59.34 474.04,-69.85 480.31,-66.76"/>
</a>
</g>
</g>
<!-- Node3 -->
<g id="Node000003" class="node">
<title>Node3</title>
<g id="a_Node000003"><a xlink:href="../../d9/d4b/classALargeMapManager.html#ab60cade8bdb4fc712affb89522b244e3" target="_top" xlink:title=" ">
<polygon fill="white" stroke="#666666" points="312.12,-70 163.38,-70 163.38,-38 312.12,-38 312.12,-70"/>
<text text-anchor="start" x="171.38" y="-56.5" font-family="Helvetica,sans-Serif" font-size="10.00">ALargeMapManager::Generate</text>
<text text-anchor="middle" x="237.75" y="-44.5" font-family="Helvetica,sans-Serif" font-size="10.00">LargeMap</text>
</a>
</g>
</g>
<!-- Node2&#45;&gt;Node3 -->
<g id="edge2_Node000002_Node000003" class="edge">
<title>Node2&#45;&gt;Node3</title>
<g id="a_edge2_Node000002_Node000003"><a xlink:title=" ">
<path fill="none" stroke="#63b8ff" d="M346.26,-50.8C334.88,-51.14 323.37,-51.48 312.34,-51.81"/>
<polygon fill="#63b8ff" stroke="#63b8ff" points="346.24,-54.27 356.13,-50.48 346.03,-47.27 346.24,-54.27"/>
</a>
</g>
</g>
<!-- Node2&#45;&gt;Node5 -->
<g id="edge6_Node000002_Node000005" class="edge">
<title>Node2&#45;&gt;Node5</title>
<g id="a_edge6_Node000002_Node000005"><a xlink:title=" ">
<path fill="none" stroke="#63b8ff" d="M374.17,-35.54C348.29,-30.66 318.92,-25.12 294.16,-20.45"/>
<polygon fill="#63b8ff" stroke="#63b8ff" points="373.18,-39.1 383.66,-37.52 374.48,-32.22 373.18,-39.1"/>
</a>
</g>
</g>
<!-- Node4 -->
<g id="Node000004" class="node">
<title>Node4</title>
<g id="a_Node000004"><a xlink:href="../../db/de5/classACarlaGameModeBase.html#a5caddc59713354578997de90542ddd93" target="_top" xlink:title=" ">
<polygon fill="white" stroke="#666666" points="118,-70 0,-70 0,-38 118,-38 118,-70"/>
<text text-anchor="start" x="8" y="-56.5" font-family="Helvetica,sans-Serif" font-size="10.00">ACarlaGameModeBase</text>
<text text-anchor="middle" x="59" y="-44.5" font-family="Helvetica,sans-Serif" font-size="10.00">::InitGame</text>
</a>
</g>
</g>
<!-- Node3&#45;&gt;Node4 -->
<g id="edge3_Node000003_Node000004" class="edge">
<title>Node3&#45;&gt;Node4</title>
<g id="a_edge3_Node000003_Node000004"><a xlink:title=" ">
<path fill="none" stroke="#63b8ff" d="M152.19,-54C140.79,-54 129.3,-54 118.49,-54"/>
<polygon fill="#63b8ff" stroke="#63b8ff" points="152.07,-57.5 162.07,-54 152.07,-50.5 152.07,-57.5"/>
</a>
</g>
</g>
<!-- Node4&#45;&gt;Node4 -->
<g id="edge4_Node000004_Node000004" class="edge">
<title>Node4&#45;&gt;Node4</title>
<g id="a_edge4_Node000004_Node000004"><a xlink:title=" ">
<path fill="none" stroke="#63b8ff" d="M89.59,-81.05C84.94,-85.19 74.74,-88 59,-88 31.77,-88 21.13,-79.58 27.09,-70.44"/>
<polygon fill="#63b8ff" stroke="#63b8ff" points="93.15,-81.8 90.91,-71.44 86.2,-80.93 93.15,-81.8"/>
</a>
</g>
</g>
</g>
</svg>
