<?xml version="1.0" encoding="UTF-8" standalone="no"?>
<!DOCTYPE svg PUBLIC "-//W3C//DTD SVG 1.1//EN"
 "http://www.w3.org/Graphics/SVG/1.1/DTD/svg11.dtd">
<!-- Generated by graphviz version 8.1.0 (20230707.0739)
 -->
<!-- Title: FileTransfer.h Pages: 1 -->
<svg width="424pt" height="140pt"
 viewBox="0.00 0.00 423.62 140.00" xmlns="http://www.w3.org/2000/svg" xmlns:xlink="http://www.w3.org/1999/xlink">

<svg id="main" version="1.1" xmlns="http://www.w3.org/2000/svg" xmlns:xlink="http://www.w3.org/1999/xlink" xml:space="preserve" onload="init(evt)">
<style type="text/css"><![CDATA[
.node, .edge {opacity: 0.7;}
.node.selected, .edge.selected {opacity: 1;}
.edge:hover path { stroke: red; }
.edge:hover polygon { stroke: red; fill: red; }
]]></style>
<script type="application/ecmascript" xlink:href="../../svg.min.js"/>
<svg id="graph" class="graph">
<g id="graph0" class="graph" transform="scale(1 1) rotate(0) translate(4 136)">
<title>FileTransfer.h</title>
<!-- Node1 -->
<g id="Node000001" class="node">
<title>Node1</title>
<g id="a_Node000001"><a xlink:title=" ">
<polygon fill="#999999" stroke="#666666" points="250.25,-132 175.75,-132 175.75,-112 250.25,-112 250.25,-132"/>
<text text-anchor="middle" x="213" y="-118.5" font-family="Helvetica,sans-Serif" font-size="10.00">FileTransfer.h</text>
</a>
</g>
</g>
<!-- Node2 -->
<g id="Node000002" class="node">
<title>Node2</title>
<g id="a_Node000002"><a xlink:href="../../d2/d7a/FileSystem_8h.html" target="_top" xlink:title=" ">
<polygon fill="white" stroke="#666666" points="136.88,-76 39.12,-76 39.12,-56 136.88,-56 136.88,-76"/>
<text text-anchor="middle" x="88" y="-62.5" font-family="Helvetica,sans-Serif" font-size="10.00">carla/FileSystem.h</text>
</a>
</g>
</g>
<!-- Node1&#45;&gt;Node2 -->
<g id="edge1_Node000001_Node000002" class="edge">
<title>Node1&#45;&gt;Node2</title>
<g id="a_edge1_Node000001_Node000002"><a xlink:title=" ">
<path fill="none" stroke="#63b8ff" d="M191.23,-111.59C171.54,-103.09 142.31,-90.46 119.97,-80.81"/>
<polygon fill="#63b8ff" stroke="#63b8ff" points="121.51,-77.23 110.94,-76.48 118.74,-83.66 121.51,-77.23"/>
</a>
</g>
</g>
<!-- Node3 -->
<g id="Node000003" class="node">
<title>Node3</title>
<g id="a_Node000003"><a xlink:title=" ">
<polygon fill="#e0e0e0" stroke="#999999" points="40,-20 0,-20 0,0 40,0 40,-20"/>
<text text-anchor="middle" x="20" y="-6.5" font-family="Helvetica,sans-Serif" font-size="10.00">string</text>
</a>
</g>
</g>
<!-- Node1&#45;&gt;Node3 -->
<g id="edge6_Node000001_Node000003" class="edge">
<title>Node1&#45;&gt;Node3</title>
<g id="a_edge6_Node000001_Node000003"><a xlink:title=" ">
<path fill="none" stroke="#63b8ff" d="M175.44,-116.68C127.75,-110.39 49.33,-97.12 30,-76 19.04,-64.02 17.17,-45.3 17.67,-31.02"/>
<polygon fill="#63b8ff" stroke="#63b8ff" points="21.22,-31.55 18.51,-21.31 14.24,-31.01 21.22,-31.55"/>
</a>
</g>
</g>
<!-- Node5 -->
<g id="Node000005" class="node">
<title>Node5</title>
<g id="a_Node000005"><a xlink:title=" ">
<polygon fill="#e0e0e0" stroke="#999999" points="203.12,-76 154.88,-76 154.88,-56 203.12,-56 203.12,-76"/>
<text text-anchor="middle" x="179" y="-62.5" font-family="Helvetica,sans-Serif" font-size="10.00">fstream</text>
</a>
</g>
</g>
<!-- Node1&#45;&gt;Node5 -->
<g id="edge4_Node000001_Node000005" class="edge">
<title>Node1&#45;&gt;Node5</title>
<g id="a_edge4_Node000001_Node000005"><a xlink:title=" ">
<path fill="none" stroke="#63b8ff" d="M207.08,-111.59C202.54,-104.39 196.15,-94.23 190.6,-85.43"/>
<polygon fill="#63b8ff" stroke="#63b8ff" points="193.14,-83.9 184.85,-77.3 187.22,-87.63 193.14,-83.9"/>
</a>
</g>
</g>
<!-- Node6 -->
<g id="Node000006" class="node">
<title>Node6</title>
<g id="a_Node000006"><a xlink:title=" ">
<polygon fill="#e0e0e0" stroke="#999999" points="274.75,-76 221.25,-76 221.25,-56 274.75,-56 274.75,-76"/>
<text text-anchor="middle" x="248" y="-62.5" font-family="Helvetica,sans-Serif" font-size="10.00">iostream</text>
</a>
</g>
</g>
<!-- Node1&#45;&gt;Node6 -->
<g id="edge5_Node000001_Node000006" class="edge">
<title>Node1&#45;&gt;Node6</title>
<g id="a_edge5_Node000001_Node000006"><a xlink:title=" ">
<path fill="none" stroke="#63b8ff" d="M219.1,-111.59C223.76,-104.39 230.35,-94.23 236.05,-85.43"/>
<polygon fill="#63b8ff" stroke="#63b8ff" points="239.47,-87.59 241.97,-77.3 233.6,-83.79 239.47,-87.59"/>
</a>
</g>
</g>
<!-- Node7 -->
<g id="Node000007" class="node">
<title>Node7</title>
<g id="a_Node000007"><a xlink:title=" ">
<polygon fill="#e0e0e0" stroke="#999999" points="352.75,-76 293.25,-76 293.25,-56 352.75,-56 352.75,-76"/>
<text text-anchor="middle" x="323" y="-62.5" font-family="Helvetica,sans-Serif" font-size="10.00">sys/stat.h</text>
</a>
</g>
</g>
<!-- Node1&#45;&gt;Node7 -->
<g id="edge7_Node000001_Node000007" class="edge">
<title>Node1&#45;&gt;Node7</title>
<g id="a_edge7_Node000001_Node000007"><a xlink:title=" ">
<path fill="none" stroke="#63b8ff" d="M232.16,-111.59C249.25,-103.21 274.51,-90.8 294.06,-81.21"/>
<polygon fill="#63b8ff" stroke="#63b8ff" points="295.26,-84.03 302.69,-76.48 292.17,-77.74 295.26,-84.03"/>
</a>
</g>
</g>
<!-- Node8 -->
<g id="Node000008" class="node">
<title>Node8</title>
<g id="a_Node000008"><a xlink:title=" ">
<polygon fill="#e0e0e0" stroke="#999999" points="415.62,-76 370.38,-76 370.38,-56 415.62,-56 415.62,-76"/>
<text text-anchor="middle" x="393" y="-62.5" font-family="Helvetica,sans-Serif" font-size="10.00">cstdint</text>
</a>
</g>
</g>
<!-- Node1&#45;&gt;Node8 -->
<g id="edge8_Node000001_Node000008" class="edge">
<title>Node1&#45;&gt;Node8</title>
<g id="a_edge8_Node000001_Node000008"><a xlink:title=" ">
<path fill="none" stroke="#63b8ff" d="M244.35,-111.59C276.57,-101.93 326.54,-86.94 359.52,-77.04"/>
<polygon fill="#63b8ff" stroke="#63b8ff" points="360.42,-80.13 369,-73.9 358.41,-73.42 360.42,-80.13"/>
</a>
</g>
</g>
<!-- Node2&#45;&gt;Node3 -->
<g id="edge2_Node000002_Node000003" class="edge">
<title>Node2&#45;&gt;Node3</title>
<g id="a_edge2_Node000002_Node000003"><a xlink:title=" ">
<path fill="none" stroke="#63b8ff" d="M76.16,-55.59C66.21,-47.7 51.78,-36.24 40.04,-26.92"/>
<polygon fill="#63b8ff" stroke="#63b8ff" points="42.72,-23.78 32.71,-20.3 38.36,-29.26 42.72,-23.78"/>
</a>
</g>
</g>
<!-- Node4 -->
<g id="Node000004" class="node">
<title>Node4</title>
<g id="a_Node000004"><a xlink:title=" ">
<polygon fill="#e0e0e0" stroke="#999999" points="108.75,-20 67.25,-20 67.25,0 108.75,0 108.75,-20"/>
<text text-anchor="middle" x="88" y="-6.5" font-family="Helvetica,sans-Serif" font-size="10.00">vector</text>
</a>
</g>
</g>
<!-- Node2&#45;&gt;Node4 -->
<g id="edge3_Node000002_Node000004" class="edge">
<title>Node2&#45;&gt;Node4</title>
<g id="a_edge3_Node000002_Node000004"><a xlink:title=" ">
<path fill="none" stroke="#63b8ff" d="M88,-55.59C88,-48.86 88,-39.53 88,-31.15"/>
<polygon fill="#63b8ff" stroke="#63b8ff" points="91.5,-31.3 88,-21.3 84.5,-31.3 91.5,-31.3"/>
</a>
</g>
</g>
</g>
</svg>
</svg>

<style type='text/css'>
<![CDATA[
[data-mouse-over-selected='false'] { opacity: 0.7; }
[data-mouse-over-selected='true']  { opacity: 1.0; }
]]>
</style>
<script type="application/ecmascript"><![CDATA[
document.addEventListener('DOMContentLoaded', (event) => {
  highlightEdges();
  highlightAdjacentNodes();
});
]]></script>
</svg>
