<?xml version="1.0" encoding="UTF-8" standalone="no"?>
<!DOCTYPE svg PUBLIC "-//W3C//DTD SVG 1.1//EN"
 "http://www.w3.org/Graphics/SVG/1.1/DTD/svg11.dtd">
<!-- Generated by graphviz version 8.1.0 (20230707.0739)
 -->
<!-- Title: carla::rpc::Texture::GetHeight Pages: 1 -->
<svg width="556pt" height="190pt"
 viewBox="0.00 0.00 555.75 190.00" xmlns="http://www.w3.org/2000/svg" xmlns:xlink="http://www.w3.org/1999/xlink">
<g id="graph0" class="graph" transform="scale(1 1) rotate(0) translate(4 186)">
<title>carla::rpc::Texture::GetHeight</title>
<!-- Node1 -->
<g id="Node000001" class="node">
<title>Node1</title>
<g id="a_Node000001"><a xlink:title=" ">
<polygon fill="#999999" stroke="#666666" points="547.75,-107 453,-107 453,-75 547.75,-75 547.75,-107"/>
<text text-anchor="start" x="461" y="-93.5" font-family="Helvetica,sans-Serif" font-size="10.00">carla::rpc::Texture</text>
<text text-anchor="middle" x="500.38" y="-81.5" font-family="Helvetica,sans-Serif" font-size="10.00">::GetHeight</text>
</a>
</g>
</g>
<!-- Node2 -->
<g id="Node000002" class="node">
<title>Node2</title>
<g id="a_Node000002"><a xlink:href="../../db/d1f/classcarla_1_1client_1_1World.html#a83e566e6abb0fdf79a49a1456e153b9c" target="_top" xlink:title=" ">
<polygon fill="white" stroke="#666666" points="414.38,-182 291.12,-182 291.12,-150 414.38,-150 414.38,-182"/>
<text text-anchor="start" x="299.12" y="-168.5" font-family="Helvetica,sans-Serif" font-size="10.00">carla::client::World</text>
<text text-anchor="middle" x="352.75" y="-156.5" font-family="Helvetica,sans-Serif" font-size="10.00">::ApplyTexturesToObject</text>
</a>
</g>
</g>
<!-- Node1&#45;&gt;Node2 -->
<g id="edge1_Node000001_Node000002" class="edge">
<title>Node1&#45;&gt;Node2</title>
<g id="a_edge1_Node000001_Node000002"><a xlink:title=" ">
<path fill="none" stroke="#63b8ff" d="M465.61,-113.27C450.98,-122.45 433.47,-132.82 417,-141 410.97,-143.99 404.49,-146.89 398.06,-149.59"/>
<polygon fill="#63b8ff" stroke="#63b8ff" points="467.2,-115.77 473.76,-107.45 463.44,-109.86 467.2,-115.77"/>
</a>
</g>
</g>
<!-- Node3 -->
<g id="Node000003" class="node">
<title>Node3</title>
<g id="a_Node000003"><a xlink:href="../../db/d1f/classcarla_1_1client_1_1World.html#abb8e50fc72f6f15c98ffde1e51d525a9" target="_top" xlink:title=" ">
<polygon fill="white" stroke="#666666" points="417,-132 288.5,-132 288.5,-100 417,-100 417,-132"/>
<text text-anchor="start" x="296.5" y="-118.5" font-family="Helvetica,sans-Serif" font-size="10.00">carla::client::World</text>
<text text-anchor="middle" x="352.75" y="-106.5" font-family="Helvetica,sans-Serif" font-size="10.00">::ApplyTexturesToObjects</text>
</a>
</g>
</g>
<!-- Node1&#45;&gt;Node3 -->
<g id="edge2_Node000001_Node000003" class="edge">
<title>Node1&#45;&gt;Node3</title>
<g id="a_edge2_Node000001_Node000003"><a xlink:title=" ">
<path fill="none" stroke="#63b8ff" d="M442.31,-100.8C434.11,-102.2 425.63,-103.66 417.31,-105.09"/>
<polygon fill="#63b8ff" stroke="#63b8ff" points="442.63,-104.12 451.9,-98.98 441.45,-97.22 442.63,-104.12"/>
</a>
</g>
</g>
<!-- Node4 -->
<g id="Node000004" class="node">
<title>Node4</title>
<g id="a_Node000004"><a xlink:href="../../db/de5/classACarlaGameModeBase.html#af92e2e15f1f89d7061c9aa9e56309994" target="_top" xlink:title=" ">
<polygon fill="white" stroke="#666666" points="411.75,-82 293.75,-82 293.75,-50 411.75,-50 411.75,-82"/>
<text text-anchor="start" x="301.75" y="-68.5" font-family="Helvetica,sans-Serif" font-size="10.00">ACarlaGameModeBase</text>
<text text-anchor="middle" x="352.75" y="-56.5" font-family="Helvetica,sans-Serif" font-size="10.00">::CreateUETexture</text>
</a>
</g>
</g>
<!-- Node1&#45;&gt;Node4 -->
<g id="edge3_Node000001_Node000004" class="edge">
<title>Node1&#45;&gt;Node4</title>
<g id="a_edge3_Node000001_Node000004"><a xlink:title=" ">
<path fill="none" stroke="#63b8ff" d="M442.31,-81.2C432.38,-79.5 422.03,-77.72 412.06,-76.01"/>
<polygon fill="#63b8ff" stroke="#63b8ff" points="441.45,-84.78 451.9,-83.02 442.63,-77.88 441.45,-84.78"/>
</a>
</g>
</g>
<!-- Node7 -->
<g id="Node000007" class="node">
<title>Node7</title>
<g id="a_Node000007"><a xlink:href="../../db/de5/classACarlaGameModeBase.html#a460e0160fd7db602df76670c61f86d2b" target="_top" xlink:title=" ">
<polygon fill="white" stroke="#666666" points="411.75,-32 293.75,-32 293.75,0 411.75,0 411.75,-32"/>
<text text-anchor="start" x="301.75" y="-18.5" font-family="Helvetica,sans-Serif" font-size="10.00">ACarlaGameModeBase</text>
<text text-anchor="middle" x="352.75" y="-6.5" font-family="Helvetica,sans-Serif" font-size="10.00">::CreateUETexture</text>
</a>
</g>
</g>
<!-- Node1&#45;&gt;Node7 -->
<g id="edge6_Node000001_Node000007" class="edge">
<title>Node1&#45;&gt;Node7</title>
<g id="a_edge6_Node000001_Node000007"><a xlink:title=" ">
<path fill="none" stroke="#63b8ff" d="M465.61,-68.73C450.98,-59.55 433.47,-49.18 417,-41 410.97,-38.01 404.49,-35.11 398.06,-32.41"/>
<polygon fill="#63b8ff" stroke="#63b8ff" points="463.44,-72.14 473.76,-74.55 467.2,-66.23 463.44,-72.14"/>
</a>
</g>
</g>
<!-- Node5 -->
<g id="Node000005" class="node">
<title>Node5</title>
<g id="a_Node000005"><a xlink:href="../../d7/d97/classFCarlaServer_1_1FPimpl.html#a675a6b572112a21e8bc011dddfd0de86" target="_top" xlink:title=" ">
<polygon fill="white" stroke="#666666" points="252.5,-82 144.25,-82 144.25,-50 252.5,-50 252.5,-82"/>
<text text-anchor="start" x="152.25" y="-68.5" font-family="Helvetica,sans-Serif" font-size="10.00">FCarlaServer::FPimpl</text>
<text text-anchor="middle" x="198.38" y="-56.5" font-family="Helvetica,sans-Serif" font-size="10.00">::BindActions</text>
</a>
</g>
</g>
<!-- Node4&#45;&gt;Node5 -->
<g id="edge4_Node000004_Node000005" class="edge">
<title>Node4&#45;&gt;Node5</title>
<g id="a_edge4_Node000004_Node000005"><a xlink:title=" ">
<path fill="none" stroke="#63b8ff" d="M282.58,-66C272.63,-66 262.53,-66 252.95,-66"/>
<polygon fill="#63b8ff" stroke="#63b8ff" points="282.27,-69.5 292.27,-66 282.27,-62.5 282.27,-69.5"/>
</a>
</g>
</g>
<!-- Node6 -->
<g id="Node000006" class="node">
<title>Node6</title>
<g id="a_Node000006"><a xlink:href="../../d7/d97/classFCarlaServer_1_1FPimpl.html#ab9ff29fc81bd2f9a14677941c7f7b62d" target="_top" xlink:title=" ">
<polygon fill="white" stroke="#666666" points="108.25,-82 0,-82 0,-50 108.25,-50 108.25,-82"/>
<text text-anchor="start" x="8" y="-68.5" font-family="Helvetica,sans-Serif" font-size="10.00">FCarlaServer::FPimpl</text>
<text text-anchor="middle" x="54.12" y="-56.5" font-family="Helvetica,sans-Serif" font-size="10.00">::FPimpl</text>
</a>
</g>
</g>
<!-- Node5&#45;&gt;Node6 -->
<g id="edge5_Node000005_Node000006" class="edge">
<title>Node5&#45;&gt;Node6</title>
<g id="a_edge5_Node000005_Node000006"><a xlink:title=" ">
<path fill="none" stroke="#63b8ff" d="M133.19,-66C124.87,-66 116.43,-66 108.32,-66"/>
<polygon fill="#63b8ff" stroke="#63b8ff" points="133,-69.5 143,-66 133,-62.5 133,-69.5"/>
</a>
</g>
</g>
</g>
</svg>
