<?xml version="1.0" encoding="UTF-8" standalone="no"?>
<!DOCTYPE svg PUBLIC "-//W3C//DTD SVG 1.1//EN"
 "http://www.w3.org/Graphics/SVG/1.1/DTD/svg11.dtd">
<!-- Generated by graphviz version 8.1.0 (20230707.0739)
 -->
<!-- Title: FWalkerData Pages: 1 -->
<svg width="619pt" height="280pt"
 viewBox="0.00 0.00 619.38 280.00" xmlns="http://www.w3.org/2000/svg" xmlns:xlink="http://www.w3.org/1999/xlink">
<g id="graph0" class="graph" transform="scale(1 1) rotate(0) translate(4 276)">
<title>FWalkerData</title>
<!-- Node1 -->
<g id="Node000001" class="node">
<title>Node1</title>
<g id="a_Node000001"><a xlink:title=" ">
<polygon fill="#999999" stroke="#666666" points="387.12,-20 314.12,-20 314.12,0 387.12,0 387.12,-20"/>
<text text-anchor="middle" x="350.62" y="-6.5" font-family="Helvetica,sans-Serif" font-size="10.00">FWalkerData</text>
</a>
</g>
</g>
<!-- Node2 -->
<g id="Node000002" class="node">
<title>Node2</title>
<g id="a_Node000002"><a xlink:href="../../dd/d67/classFActorData.html" target="_top" xlink:title=" ">
<polygon fill="white" stroke="#666666" points="192.38,-88 126.88,-88 126.88,-68 192.38,-68 192.38,-88"/>
<text text-anchor="middle" x="159.62" y="-74.5" font-family="Helvetica,sans-Serif" font-size="10.00">FActorData</text>
</a>
</g>
</g>
<!-- Node2&#45;&gt;Node1 -->
<g id="edge1_Node000001_Node000002" class="edge">
<title>Node2&#45;&gt;Node1</title>
<g id="a_edge1_Node000001_Node000002"><a xlink:title=" ">
<path fill="none" stroke="#63b8ff" d="M196.92,-64.11C234.05,-51.28 290.14,-31.9 323.31,-20.44"/>
<polygon fill="#63b8ff" stroke="#63b8ff" points="196.3,-60.97 187.99,-67.54 198.59,-67.59 196.3,-60.97"/>
</a>
</g>
</g>
<!-- Node3 -->
<g id="Node000003" class="node">
<title>Node3</title>
<g id="a_Node000003"><a xlink:href="../../de/d7a/structFDVector.html" target="_top" xlink:title=" ">
<polygon fill="white" stroke="#666666" points="57.25,-180 0,-180 0,-160 57.25,-160 57.25,-180"/>
<text text-anchor="middle" x="28.62" y="-166.5" font-family="Helvetica,sans-Serif" font-size="10.00">FDVector</text>
</a>
</g>
</g>
<!-- Node3&#45;&gt;Node2 -->
<g id="edge2_Node000002_Node000003" class="edge">
<title>Node3&#45;&gt;Node2</title>
<g id="a_edge2_Node000002_Node000003"><a xlink:title=" ">
<path fill="none" stroke="#9a32cd" stroke-dasharray="5,2" d="M33.04,-149.25C37.17,-135.23 44.74,-117.02 57.88,-106 77.06,-89.91 104.85,-83.31 126.54,-80.65"/>
<polygon fill="#9a32cd" stroke="#9a32cd" points="29.43,-148.23 30.33,-158.79 36.21,-149.97 29.43,-148.23"/>
</a>
</g>
<text text-anchor="middle" x="78.5" y="-120.5" font-family="Helvetica,sans-Serif" font-size="10.00" fill="grey"> Location</text>
</g>
<!-- Node4 -->
<g id="Node000004" class="node">
<title>Node4</title>
<g id="a_Node000004"><a xlink:title=" ">
<polygon fill="white" stroke="#666666" points="50.88,-272 6.38,-272 6.38,-252 50.88,-252 50.88,-272"/>
<text text-anchor="middle" x="28.62" y="-258.5" font-family="Helvetica,sans-Serif" font-size="10.00">double</text>
</a>
</g>
</g>
<!-- Node4&#45;&gt;Node3 -->
<g id="edge3_Node000003_Node000004" class="edge">
<title>Node4&#45;&gt;Node3</title>
<g id="a_edge3_Node000003_Node000004"><a xlink:title=" ">
<path fill="none" stroke="#9a32cd" stroke-dasharray="5,2" d="M28.62,-240.75C28.62,-221.87 28.62,-194.58 28.62,-180.38"/>
<polygon fill="#9a32cd" stroke="#9a32cd" points="25.13,-240.71 28.62,-250.71 32.13,-240.71 25.13,-240.71"/>
</a>
</g>
<text text-anchor="middle" x="32.75" y="-224.5" font-family="Helvetica,sans-Serif" font-size="10.00" fill="grey"> X</text>
<text text-anchor="middle" x="32.75" y="-212.5" font-family="Helvetica,sans-Serif" font-size="10.00" fill="grey">Y</text>
<text text-anchor="middle" x="32.75" y="-200.5" font-family="Helvetica,sans-Serif" font-size="10.00" fill="grey">Z</text>
</g>
<!-- Node5 -->
<g id="Node000005" class="node">
<title>Node5</title>
<g id="a_Node000005"><a xlink:title=" ">
<polygon fill="white" stroke="#666666" points="118.12,-180 75.12,-180 75.12,-160 118.12,-160 118.12,-180"/>
<text text-anchor="middle" x="96.62" y="-166.5" font-family="Helvetica,sans-Serif" font-size="10.00">FQuat</text>
</a>
</g>
</g>
<!-- Node5&#45;&gt;Node2 -->
<g id="edge4_Node000002_Node000005" class="edge">
<title>Node5&#45;&gt;Node2</title>
<g id="a_edge4_Node000002_Node000005"><a xlink:title=" ">
<path fill="none" stroke="#9a32cd" stroke-dasharray="5,2" d="M99.69,-149.1C102.55,-135.81 107.89,-118.53 117.62,-106 123.26,-98.74 131.43,-92.87 139.07,-88.47"/>
<polygon fill="#9a32cd" stroke="#9a32cd" points="96.14,-148.06 97.78,-158.53 103.03,-149.33 96.14,-148.06"/>
</a>
</g>
<text text-anchor="middle" x="137.12" y="-120.5" font-family="Helvetica,sans-Serif" font-size="10.00" fill="grey"> Rotation</text>
</g>
<!-- Node6 -->
<g id="Node000006" class="node">
<title>Node6</title>
<g id="a_Node000006"><a xlink:title=" ">
<polygon fill="white" stroke="#666666" points="186.88,-180 136.38,-180 136.38,-160 186.88,-160 186.88,-180"/>
<text text-anchor="middle" x="161.62" y="-166.5" font-family="Helvetica,sans-Serif" font-size="10.00">FVector</text>
</a>
</g>
</g>
<!-- Node6&#45;&gt;Node2 -->
<g id="edge5_Node000002_Node000006" class="edge">
<title>Node6&#45;&gt;Node2</title>
<g id="a_edge5_Node000002_Node000006"><a xlink:title=" ">
<path fill="none" stroke="#9a32cd" stroke-dasharray="5,2" d="M160.61,-148.73C160.52,-146.46 160.44,-144.18 160.38,-142 159.82,-122.98 159.67,-100.71 159.64,-88.39"/>
<polygon fill="#9a32cd" stroke="#9a32cd" points="157.15,-148.68 161.11,-158.51 164.14,-148.36 157.15,-148.68"/>
</a>
</g>
<text text-anchor="middle" x="196.25" y="-132.5" font-family="Helvetica,sans-Serif" font-size="10.00" fill="grey"> AngularVelocity</text>
<text text-anchor="middle" x="196.25" y="-120.5" font-family="Helvetica,sans-Serif" font-size="10.00" fill="grey">Scale</text>
<text text-anchor="middle" x="196.25" y="-108.5" font-family="Helvetica,sans-Serif" font-size="10.00" fill="grey">Velocity</text>
</g>
<!-- Node7 -->
<g id="Node000007" class="node">
<title>Node7</title>
<g id="a_Node000007"><a xlink:title=" ">
<polygon fill="white" stroke="#666666" points="367.62,-180 333.62,-180 333.62,-160 367.62,-160 367.62,-180"/>
<text text-anchor="middle" x="350.62" y="-166.5" font-family="Helvetica,sans-Serif" font-size="10.00">bool</text>
</a>
</g>
</g>
<!-- Node7&#45;&gt;Node1 -->
<g id="edge12_Node000001_Node000007" class="edge">
<title>Node7&#45;&gt;Node1</title>
<g id="a_edge12_Node000001_Node000007"><a xlink:title=" ">
<path fill="none" stroke="#9a32cd" stroke-dasharray="5,2" d="M350.62,-148.96C350.62,-114.44 350.62,-45.07 350.62,-20.16"/>
<polygon fill="#9a32cd" stroke="#9a32cd" points="347.13,-148.59 350.62,-158.59 354.13,-148.59 347.13,-148.59"/>
</a>
</g>
<text text-anchor="middle" x="364.88" y="-74.5" font-family="Helvetica,sans-Serif" font-size="10.00" fill="grey"> bAlive</text>
</g>
<!-- Node7&#45;&gt;Node2 -->
<g id="edge6_Node000002_Node000007" class="edge">
<title>Node7&#45;&gt;Node2</title>
<g id="a_edge6_Node000002_Node000007"><a xlink:title=" ">
<path fill="none" stroke="#9a32cd" stroke-dasharray="5,2" d="M322.64,-166.42C302.2,-163.36 274.71,-156.65 254.88,-142 239.55,-130.69 246.46,-117.95 231.62,-106 220.4,-96.96 205.83,-90.74 192.74,-86.57"/>
<polygon fill="#9a32cd" stroke="#9a32cd" points="322.1,-170.01 332.46,-167.81 322.99,-163.07 322.1,-170.01"/>
</a>
</g>
<text text-anchor="middle" x="296.5" y="-120.5" font-family="Helvetica,sans-Serif" font-size="10.00" fill="grey"> bSimulatePhysics</text>
</g>
<!-- Node8 -->
<g id="Node000008" class="node">
<title>Node8</title>
<g id="a_Node000008"><a xlink:href="../../d7/d1b/classcarla_1_1rpc_1_1WalkerControl.html" target="_top" xlink:title=" ">
<polygon fill="white" stroke="#666666" points="521.62,-88 397.62,-88 397.62,-68 521.62,-68 521.62,-88"/>
<text text-anchor="middle" x="459.62" y="-74.5" font-family="Helvetica,sans-Serif" font-size="10.00">carla::rpc::WalkerControl</text>
</a>
</g>
</g>
<!-- Node7&#45;&gt;Node8 -->
<g id="edge11_Node000008_Node000007" class="edge">
<title>Node7&#45;&gt;Node8</title>
<g id="a_edge11_Node000008_Node000007"><a xlink:title=" ">
<path fill="none" stroke="#9a32cd" stroke-dasharray="5,2" d="M365.3,-151.69C377.21,-138.26 394.89,-119.69 412.62,-106 421.27,-99.33 431.73,-93.16 440.58,-88.41"/>
<polygon fill="#9a32cd" stroke="#9a32cd" points="362.28,-148.82 358.36,-158.67 367.57,-153.42 362.28,-148.82"/>
</a>
</g>
<text text-anchor="middle" x="424.62" y="-120.5" font-family="Helvetica,sans-Serif" font-size="10.00" fill="grey"> jump</text>
</g>
<!-- Node8&#45;&gt;Node1 -->
<g id="edge7_Node000001_Node000008" class="edge">
<title>Node8&#45;&gt;Node1</title>
<g id="a_edge7_Node000001_Node000008"><a xlink:title=" ">
<path fill="none" stroke="#9a32cd" stroke-dasharray="5,2" d="M434.71,-61.91C413.64,-49.15 384.09,-31.26 366.21,-20.44"/>
<polygon fill="#9a32cd" stroke="#9a32cd" points="432.64,-65.36 443.01,-67.54 436.27,-59.37 432.64,-65.36"/>
</a>
</g>
<text text-anchor="middle" x="447.88" y="-40.5" font-family="Helvetica,sans-Serif" font-size="10.00" fill="grey"> WalkerControl</text>
</g>
<!-- Node9 -->
<g id="Node000009" class="node">
<title>Node9</title>
<g id="a_Node000009"><a xlink:href="../../d9/dfe/classcarla_1_1geom_1_1Vector3D.html" target="_top" xlink:title=" ">
<polygon fill="white" stroke="#666666" points="611.38,-180 497.88,-180 497.88,-160 611.38,-160 611.38,-180"/>
<text text-anchor="middle" x="554.62" y="-166.5" font-family="Helvetica,sans-Serif" font-size="10.00">carla::geom::Vector3D</text>
</a>
</g>
</g>
<!-- Node9&#45;&gt;Node8 -->
<g id="edge8_Node000008_Node000009" class="edge">
<title>Node9&#45;&gt;Node8</title>
<g id="a_edge8_Node000008_Node000009"><a xlink:title=" ">
<path fill="none" stroke="#9a32cd" stroke-dasharray="5,2" d="M536.84,-152.15C516.95,-133.3 485.44,-103.46 469.52,-88.38"/>
<polygon fill="#9a32cd" stroke="#9a32cd" points="534.15,-154.37 543.82,-158.71 538.96,-149.29 534.15,-154.37"/>
</a>
</g>
<text text-anchor="middle" x="543.5" y="-120.5" font-family="Helvetica,sans-Serif" font-size="10.00" fill="grey"> direction</text>
</g>
<!-- Node10 -->
<g id="Node000010" class="node">
<title>Node10</title>
<g id="a_Node000010"><a xlink:title=" ">
<polygon fill="white" stroke="#666666" points="501.62,-272 467.62,-272 467.62,-252 501.62,-252 501.62,-272"/>
<text text-anchor="middle" x="484.62" y="-258.5" font-family="Helvetica,sans-Serif" font-size="10.00">float</text>
</a>
</g>
</g>
<!-- Node10&#45;&gt;Node8 -->
<g id="edge10_Node000008_Node000010" class="edge">
<title>Node10&#45;&gt;Node8</title>
<g id="a_edge10_Node000008_Node000010"><a xlink:title=" ">
<path fill="none" stroke="#9a32cd" stroke-dasharray="5,2" d="M476.87,-241.91C470.74,-225.74 462.69,-201.77 459.38,-180 454.28,-146.54 457.01,-106.13 458.66,-88.26"/>
<polygon fill="#9a32cd" stroke="#9a32cd" points="473.82,-242.71 480.72,-250.74 480.33,-240.15 473.82,-242.71"/>
</a>
</g>
<text text-anchor="middle" x="474.25" y="-166.5" font-family="Helvetica,sans-Serif" font-size="10.00" fill="grey"> speed</text>
</g>
<!-- Node10&#45;&gt;Node9 -->
<g id="edge9_Node000009_Node000010" class="edge">
<title>Node10&#45;&gt;Node9</title>
<g id="a_edge9_Node000009_Node000010"><a xlink:title=" ">
<path fill="none" stroke="#9a32cd" stroke-dasharray="5,2" d="M498.53,-243.12C513.22,-224.24 535.81,-195.18 547.33,-180.38"/>
<polygon fill="#9a32cd" stroke="#9a32cd" points="495.23,-240.67 491.85,-250.71 500.75,-244.96 495.23,-240.67"/>
</a>
</g>
<text text-anchor="middle" x="535.75" y="-224.5" font-family="Helvetica,sans-Serif" font-size="10.00" fill="grey"> x</text>
<text text-anchor="middle" x="535.75" y="-212.5" font-family="Helvetica,sans-Serif" font-size="10.00" fill="grey">y</text>
<text text-anchor="middle" x="535.75" y="-200.5" font-family="Helvetica,sans-Serif" font-size="10.00" fill="grey">z</text>
</g>
</g>
</svg>
