<?xml version="1.0" encoding="UTF-8" standalone="no"?>
<!DOCTYPE svg PUBLIC "-//W3C//DTD SVG 1.1//EN"
 "http://www.w3.org/Graphics/SVG/1.1/DTD/svg11.dtd">
<!-- Generated by graphviz version 8.1.0 (20230707.0739)
 -->
<!-- Title: AProceduralBuilding::AddChunck Pages: 1 -->
<svg width="708pt" height="152pt"
 viewBox="0.00 0.00 707.50 152.00" xmlns="http://www.w3.org/2000/svg" xmlns:xlink="http://www.w3.org/1999/xlink">
<g id="graph0" class="graph" transform="scale(1 1) rotate(0) translate(4 148)">
<title>AProceduralBuilding::AddChunck</title>
<!-- Node1 -->
<g id="Node000001" class="node">
<title>Node1</title>
<g id="a_Node000001"><a xlink:title=" ">
<polygon fill="#999999" stroke="#666666" points="103.75,-94 0,-94 0,-62 103.75,-62 103.75,-94"/>
<text text-anchor="start" x="8" y="-80.5" font-family="Helvetica,sans-Serif" font-size="10.00">AProceduralBuilding</text>
<text text-anchor="middle" x="51.88" y="-68.5" font-family="Helvetica,sans-Serif" font-size="10.00">::AddChunck</text>
</a>
</g>
</g>
<!-- Node2 -->
<g id="Node000002" class="node">
<title>Node2</title>
<g id="a_Node000002"><a xlink:href="../../de/d3c/classAProceduralBuilding.html#a7d1dcc5207ef5c2161db28c38867c8c1" target="_top" xlink:title=" ">
<polygon fill="white" stroke="#666666" points="264.5,-144 156.25,-144 156.25,-112 264.5,-112 264.5,-144"/>
<text text-anchor="start" x="164.25" y="-130.5" font-family="Helvetica,sans-Serif" font-size="10.00">AProceduralBuilding</text>
<text text-anchor="middle" x="210.38" y="-118.5" font-family="Helvetica,sans-Serif" font-size="10.00">::AddMeshToBuilding</text>
</a>
</g>
</g>
<!-- Node1&#45;&gt;Node2 -->
<g id="edge1_Node000001_Node000002" class="edge">
<title>Node1&#45;&gt;Node2</title>
<g id="a_edge1_Node000001_Node000002"><a xlink:title=" ">
<path fill="none" stroke="#63b8ff" d="M104.12,-94.37C117.96,-98.8 133.09,-103.63 147.46,-108.22"/>
<polygon fill="#63b8ff" stroke="#63b8ff" points="146.16,-111.8 156.75,-111.51 148.29,-105.13 146.16,-111.8"/>
</a>
</g>
</g>
<!-- Node4 -->
<g id="Node000004" class="node">
<title>Node4</title>
<g id="a_Node000004"><a xlink:href="../../de/d3c/classAProceduralBuilding.html#ae68359b5bb6e1f605faf926660786e4c" target="_top" xlink:title=" ">
<polygon fill="white" stroke="#666666" points="262.25,-94 158.5,-94 158.5,-62 262.25,-62 262.25,-94"/>
<text text-anchor="start" x="166.5" y="-80.5" font-family="Helvetica,sans-Serif" font-size="10.00">AProceduralBuilding</text>
<text text-anchor="middle" x="210.38" y="-68.5" font-family="Helvetica,sans-Serif" font-size="10.00">::GetMeshSize</text>
</a>
</g>
</g>
<!-- Node1&#45;&gt;Node4 -->
<g id="edge3_Node000001_Node000004" class="edge">
<title>Node1&#45;&gt;Node4</title>
<g id="a_edge3_Node000001_Node000004"><a xlink:title=" ">
<path fill="none" stroke="#63b8ff" d="M104.12,-78C117.9,-78 132.96,-78 147.26,-78"/>
<polygon fill="#63b8ff" stroke="#63b8ff" points="147.02,-81.5 157.02,-78 147.02,-74.5 147.02,-81.5"/>
</a>
</g>
</g>
<!-- Node5 -->
<g id="Node000005" class="node">
<title>Node5</title>
<g id="a_Node000005"><a xlink:href="../../de/d3c/classAProceduralBuilding.html#a87a294eda3026380704e1920b34827db" target="_top" xlink:title=" ">
<polygon fill="white" stroke="#666666" points="281,-44 139.75,-44 139.75,0 281,0 281,-44"/>
<text text-anchor="start" x="147.75" y="-30.5" font-family="Helvetica,sans-Serif" font-size="10.00">AProceduralBuilding</text>
<text text-anchor="start" x="147.75" y="-18.5" font-family="Helvetica,sans-Serif" font-size="10.00">::UpdateTransformPositionTo</text>
<text text-anchor="middle" x="210.38" y="-6.5" font-family="Helvetica,sans-Serif" font-size="10.00">NextChunk</text>
</a>
</g>
</g>
<!-- Node1&#45;&gt;Node5 -->
<g id="edge4_Node000001_Node000005" class="edge">
<title>Node1&#45;&gt;Node5</title>
<g id="a_edge4_Node000001_Node000005"><a xlink:title=" ">
<path fill="none" stroke="#63b8ff" d="M98.98,-61.5C110.79,-57.28 123.79,-52.63 136.58,-48.05"/>
<polygon fill="#63b8ff" stroke="#63b8ff" points="137.54,-51.06 145.78,-44.4 135.18,-44.47 137.54,-51.06"/>
</a>
</g>
</g>
<!-- Node3 -->
<g id="Node000003" class="node">
<title>Node3</title>
<g id="a_Node000003"><a xlink:href="../../de/d3c/classAProceduralBuilding.html#a1433bbf088df8158fbccb32d0b203e72" target="_top" xlink:title=" ">
<polygon fill="white" stroke="#666666" points="423.38,-144 319.62,-144 319.62,-112 423.38,-112 423.38,-144"/>
<text text-anchor="start" x="327.62" y="-130.5" font-family="Helvetica,sans-Serif" font-size="10.00">AProceduralBuilding</text>
<text text-anchor="middle" x="371.5" y="-118.5" font-family="Helvetica,sans-Serif" font-size="10.00">::GetHISMComp</text>
</a>
</g>
</g>
<!-- Node2&#45;&gt;Node3 -->
<g id="edge2_Node000002_Node000003" class="edge">
<title>Node2&#45;&gt;Node3</title>
<g id="a_edge2_Node000002_Node000003"><a xlink:title=" ">
<path fill="none" stroke="#63b8ff" d="M264.8,-128C278.83,-128 294.08,-128 308.52,-128"/>
<polygon fill="#63b8ff" stroke="#63b8ff" points="308.37,-131.5 318.37,-128 308.37,-124.5 308.37,-131.5"/>
</a>
</g>
</g>
<!-- Node6 -->
<g id="Node000006" class="node">
<title>Node6</title>
<g id="a_Node000006"><a xlink:href="../../d8/dba/classcarla_1_1geom_1_1Rotation.html#af3b9aeecb1d8a5a29aac264ea2b780dc" target="_top" xlink:title=" ">
<polygon fill="white" stroke="#666666" points="426,-38 317,-38 317,-6 426,-6 426,-38"/>
<text text-anchor="start" x="325" y="-24.5" font-family="Helvetica,sans-Serif" font-size="10.00">carla::geom::Rotation</text>
<text text-anchor="middle" x="371.5" y="-12.5" font-family="Helvetica,sans-Serif" font-size="10.00">::GetForwardVector</text>
</a>
</g>
</g>
<!-- Node5&#45;&gt;Node6 -->
<g id="edge5_Node000005_Node000006" class="edge">
<title>Node5&#45;&gt;Node6</title>
<g id="a_edge5_Node000005_Node000006"><a xlink:title=" ">
<path fill="none" stroke="#63b8ff" d="M281.17,-22C289.32,-22 297.61,-22 305.69,-22"/>
<polygon fill="#63b8ff" stroke="#63b8ff" points="305.55,-25.5 315.55,-22 305.55,-18.5 305.55,-25.5"/>
</a>
</g>
</g>
<!-- Node7 -->
<g id="Node000007" class="node">
<title>Node7</title>
<g id="a_Node000007"><a xlink:href="../../d0/dea/classcarla_1_1geom_1_1Math.html#aafbb2dc8a60aa6e86cc7fe1ad2872beb" target="_top" xlink:title="Compute the unit vector pointing towards the X&#45;axis of rotation.">
<polygon fill="white" stroke="#666666" points="562.75,-38 462,-38 462,-6 562.75,-6 562.75,-38"/>
<text text-anchor="start" x="470" y="-24.5" font-family="Helvetica,sans-Serif" font-size="10.00">carla::geom::Math::</text>
<text text-anchor="middle" x="512.38" y="-12.5" font-family="Helvetica,sans-Serif" font-size="10.00">GetForwardVector</text>
</a>
</g>
</g>
<!-- Node6&#45;&gt;Node7 -->
<g id="edge6_Node000006_Node000007" class="edge">
<title>Node6&#45;&gt;Node7</title>
<g id="a_edge6_Node000006_Node000007"><a xlink:title=" ">
<path fill="none" stroke="#63b8ff" d="M426.19,-22C434.37,-22 442.85,-22 451.15,-22"/>
<polygon fill="#63b8ff" stroke="#63b8ff" points="450.92,-25.5 460.92,-22 450.92,-18.5 450.92,-25.5"/>
</a>
</g>
</g>
<!-- Node8 -->
<g id="Node000008" class="node">
<title>Node8</title>
<g id="a_Node000008"><a xlink:href="../../d0/dea/classcarla_1_1geom_1_1Math.html#a2bd79912876dfbab9354c0bb841320e4" target="_top" xlink:title=" ">
<polygon fill="white" stroke="#666666" points="699.5,-38 598.75,-38 598.75,-6 699.5,-6 699.5,-38"/>
<text text-anchor="start" x="606.75" y="-24.5" font-family="Helvetica,sans-Serif" font-size="10.00">carla::geom::Math::</text>
<text text-anchor="middle" x="649.12" y="-12.5" font-family="Helvetica,sans-Serif" font-size="10.00">ToRadians</text>
</a>
</g>
</g>
<!-- Node7&#45;&gt;Node8 -->
<g id="edge7_Node000007_Node000008" class="edge">
<title>Node7&#45;&gt;Node8</title>
<g id="a_edge7_Node000007_Node000008"><a xlink:title=" ">
<path fill="none" stroke="#63b8ff" d="M563.17,-22C571.11,-22 579.39,-22 587.55,-22"/>
<polygon fill="#63b8ff" stroke="#63b8ff" points="587.54,-25.5 597.54,-22 587.54,-18.5 587.54,-25.5"/>
</a>
</g>
</g>
</g>
</svg>
