<?xml version="1.0" encoding="UTF-8" standalone="no"?>
<!DOCTYPE svg PUBLIC "-//W3C//DTD SVG 1.1//EN"
 "http://www.w3.org/Graphics/SVG/1.1/DTD/svg11.dtd">
<!-- Generated by graphviz version 8.1.0 (20230707.0739)
 -->
<!-- Title: carla::rpc::LightState Pages: 1 -->
<svg width="443pt" height="280pt"
 viewBox="0.00 0.00 443.34 280.00" xmlns="http://www.w3.org/2000/svg" xmlns:xlink="http://www.w3.org/1999/xlink">

<svg id="main" version="1.1" xmlns="http://www.w3.org/2000/svg" xmlns:xlink="http://www.w3.org/1999/xlink" xml:space="preserve" onload="init(evt)">
<style type="text/css"><![CDATA[
.node, .edge {opacity: 0.7;}
.node.selected, .edge.selected {opacity: 1;}
.edge:hover path { stroke: red; }
.edge:hover polygon { stroke: red; fill: red; }
]]></style>
<script type="application/ecmascript" xlink:href="../../svg.min.js"/>
<svg id="graph" class="graph">
<g id="graph0" class="graph" transform="scale(1 1) rotate(0) translate(4 276)">
<title>carla::rpc::LightState</title>
<!-- Node1 -->
<g id="Node000001" class="node">
<title>Node1</title>
<g id="a_Node000001"><a xlink:title=" ">
<polygon fill="#999999" stroke="#666666" points="269.71,-20 162.96,-20 162.96,0 269.71,0 269.71,-20"/>
<text text-anchor="middle" x="216.34" y="-6.5" font-family="Helvetica,sans-Serif" font-size="10.00">carla::rpc::LightState</text>
</a>
</g>
</g>
<!-- Node2 -->
<g id="Node000002" class="node">
<title>Node2</title>
<g id="a_Node000002"><a xlink:href="../../de/d23/classcarla_1_1geom_1_1Location.html" target="_top" xlink:title=" ">
<polygon fill="white" stroke="#666666" points="143.21,-88 33.46,-88 33.46,-68 143.21,-68 143.21,-88"/>
<text text-anchor="middle" x="88.34" y="-74.5" font-family="Helvetica,sans-Serif" font-size="10.00">carla::geom::Location</text>
</a>
</g>
</g>
<!-- Node2&#45;&gt;Node1 -->
<g id="edge1_Node000001_Node000002" class="edge">
<title>Node2&#45;&gt;Node1</title>
<g id="a_edge1_Node000001_Node000002"><a xlink:title=" ">
<path fill="none" stroke="#9a32cd" stroke-dasharray="5,2" d="M111.76,-61.9C123.93,-54.32 139.19,-45.23 153.34,-38 165.95,-31.55 180.45,-25.27 192.36,-20.38"/>
<polygon fill="#9a32cd" stroke="#9a32cd" points="110.32,-59.3 103.73,-67.59 114.06,-65.22 110.32,-59.3"/>
</a>
</g>
<text text-anchor="middle" x="174.34" y="-40.5" font-family="Helvetica,sans-Serif" font-size="10.00" fill="grey"> _location</text>
</g>
<!-- Node3 -->
<g id="Node000003" class="node">
<title>Node3</title>
<g id="a_Node000003"><a xlink:href="../../d9/dfe/classcarla_1_1geom_1_1Vector3D.html" target="_top" xlink:title=" ">
<polygon fill="white" stroke="#666666" points="146.09,-180 32.59,-180 32.59,-160 146.09,-160 146.09,-180"/>
<text text-anchor="middle" x="89.34" y="-166.5" font-family="Helvetica,sans-Serif" font-size="10.00">carla::geom::Vector3D</text>
</a>
</g>
</g>
<!-- Node3&#45;&gt;Node2 -->
<g id="edge2_Node000002_Node000003" class="edge">
<title>Node3&#45;&gt;Node2</title>
<g id="a_edge2_Node000002_Node000003"><a xlink:title=" ">
<path fill="none" stroke="#63b8ff" d="M89.11,-148.75C88.9,-129.87 88.6,-102.58 88.44,-88.38"/>
<polygon fill="#63b8ff" stroke="#63b8ff" points="85.63,-148.75 89.24,-158.71 92.62,-148.67 85.63,-148.75"/>
</a>
</g>
</g>
<!-- Node4 -->
<g id="Node000004" class="node">
<title>Node4</title>
<g id="a_Node000004"><a xlink:title=" ">
<polygon fill="white" stroke="#666666" points="37.34,-272 3.34,-272 3.34,-252 37.34,-252 37.34,-272"/>
<text text-anchor="middle" x="20.34" y="-258.5" font-family="Helvetica,sans-Serif" font-size="10.00">float</text>
</a>
</g>
</g>
<!-- Node4&#45;&gt;Node1 -->
<g id="edge4_Node000001_Node000004" class="edge">
<title>Node4&#45;&gt;Node1</title>
<g id="a_edge4_Node000001_Node000004"><a xlink:title=" ">
<path fill="none" stroke="#9a32cd" stroke-dasharray="5,2" d="M13.98,-241.58C2.93,-203.82 -15.07,-119.68 24.34,-68 41.21,-45.88 111.99,-29.14 162.71,-19.7"/>
<polygon fill="#9a32cd" stroke="#9a32cd" points="10.82,-242.2 17.12,-250.73 17.51,-240.14 10.82,-242.2"/>
</a>
</g>
<text text-anchor="middle" x="28.84" y="-120.5" font-family="Helvetica,sans-Serif" font-size="10.00" fill="grey"> _intensity</text>
</g>
<!-- Node4&#45;&gt;Node3 -->
<g id="edge3_Node000003_Node000004" class="edge">
<title>Node4&#45;&gt;Node3</title>
<g id="a_edge3_Node000003_Node000004"><a xlink:title=" ">
<path fill="none" stroke="#9a32cd" stroke-dasharray="5,2" d="M34.04,-243.12C48.52,-224.24 70.8,-195.18 82.15,-180.38"/>
<polygon fill="#9a32cd" stroke="#9a32cd" points="30.77,-240.64 27.46,-250.71 36.33,-244.9 30.77,-240.64"/>
</a>
</g>
<text text-anchor="middle" x="71.46" y="-224.5" font-family="Helvetica,sans-Serif" font-size="10.00" fill="grey"> x</text>
<text text-anchor="middle" x="71.46" y="-212.5" font-family="Helvetica,sans-Serif" font-size="10.00" fill="grey">y</text>
<text text-anchor="middle" x="71.46" y="-200.5" font-family="Helvetica,sans-Serif" font-size="10.00" fill="grey">z</text>
</g>
<!-- Node5 -->
<g id="Node000005" class="node">
<title>Node5</title>
<g id="a_Node000005"><a xlink:title=" ">
<polygon fill="white" stroke="#666666" points="211.59,-88 161.09,-88 161.09,-68 211.59,-68 211.59,-88"/>
<text text-anchor="middle" x="186.34" y="-74.5" font-family="Helvetica,sans-Serif" font-size="10.00">uint32_t</text>
</a>
</g>
</g>
<!-- Node5&#45;&gt;Node1 -->
<g id="edge5_Node000001_Node000005" class="edge">
<title>Node5&#45;&gt;Node1</title>
<g id="a_edge5_Node000001_Node000005"><a xlink:title=" ">
<path fill="none" stroke="#9a32cd" stroke-dasharray="5,2" d="M195.08,-57.78C200.65,-45.51 207.64,-30.14 212.05,-20.44"/>
<polygon fill="#9a32cd" stroke="#9a32cd" points="191.59,-55.99 190.64,-66.54 197.96,-58.89 191.59,-55.99"/>
</a>
</g>
<text text-anchor="middle" x="211.21" y="-40.5" font-family="Helvetica,sans-Serif" font-size="10.00" fill="grey"> _id</text>
</g>
<!-- Node6 -->
<g id="Node000006" class="node">
<title>Node6</title>
<g id="a_Node000006"><a xlink:title=" ">
<polygon fill="white" stroke="#666666" points="301.96,-180 256.71,-180 256.71,-160 301.96,-160 301.96,-180"/>
<text text-anchor="middle" x="279.34" y="-166.5" font-family="Helvetica,sans-Serif" font-size="10.00">uint8_t</text>
</a>
</g>
</g>
<!-- Node6&#45;&gt;Node1 -->
<g id="edge6_Node000001_Node000006" class="edge">
<title>Node6&#45;&gt;Node1</title>
<g id="a_edge6_Node000001_Node000006"><a xlink:title=" ">
<path fill="none" stroke="#9a32cd" stroke-dasharray="5,2" d="M271.53,-149.41C257.83,-115.05 229.97,-45.18 219.99,-20.16"/>
<polygon fill="#9a32cd" stroke="#9a32cd" points="268.63,-150.6 275.59,-158.59 275.13,-148 268.63,-150.6"/>
</a>
</g>
<text text-anchor="middle" x="262.46" y="-74.5" font-family="Helvetica,sans-Serif" font-size="10.00" fill="grey"> _group</text>
</g>
<!-- Node7 -->
<g id="Node000007" class="node">
<title>Node7</title>
<g id="a_Node000007"><a xlink:href="../../da/d44/classcarla_1_1rpc_1_1Color.html" target="_top" xlink:title=" ">
<polygon fill="white" stroke="#666666" points="382.84,-88 297.84,-88 297.84,-68 382.84,-68 382.84,-88"/>
<text text-anchor="middle" x="340.34" y="-74.5" font-family="Helvetica,sans-Serif" font-size="10.00">carla::rpc::Color</text>
</a>
</g>
</g>
<!-- Node6&#45;&gt;Node7 -->
<g id="edge8_Node000007_Node000006" class="edge">
<title>Node6&#45;&gt;Node7</title>
<g id="a_edge8_Node000007_Node000006"><a xlink:title=" ">
<path fill="none" stroke="#9a32cd" stroke-dasharray="5,2" d="M291.81,-150.6C304.62,-131.71 324.04,-103.05 333.98,-88.38"/>
<polygon fill="#9a32cd" stroke="#9a32cd" points="288.35,-148.47 285.64,-158.71 294.15,-152.39 288.35,-148.47"/>
</a>
</g>
<text text-anchor="middle" x="324.46" y="-132.5" font-family="Helvetica,sans-Serif" font-size="10.00" fill="grey"> b</text>
<text text-anchor="middle" x="324.46" y="-120.5" font-family="Helvetica,sans-Serif" font-size="10.00" fill="grey">g</text>
<text text-anchor="middle" x="324.46" y="-108.5" font-family="Helvetica,sans-Serif" font-size="10.00" fill="grey">r</text>
</g>
<!-- Node7&#45;&gt;Node1 -->
<g id="edge7_Node000001_Node000007" class="edge">
<title>Node7&#45;&gt;Node1</title>
<g id="a_edge7_Node000001_Node000007"><a xlink:title=" ">
<path fill="none" stroke="#9a32cd" stroke-dasharray="5,2" d="M312.97,-62.43C288.94,-49.64 254.68,-31.41 234.07,-20.44"/>
<polygon fill="#9a32cd" stroke="#9a32cd" points="311.1,-65.93 321.57,-67.54 314.39,-59.76 311.1,-65.93"/>
</a>
</g>
<text text-anchor="middle" x="303.96" y="-40.5" font-family="Helvetica,sans-Serif" font-size="10.00" fill="grey"> _color</text>
</g>
<!-- Node8 -->
<g id="Node000008" class="node">
<title>Node8</title>
<g id="a_Node000008"><a xlink:title=" ">
<polygon fill="white" stroke="#666666" points="435.34,-88 401.34,-88 401.34,-68 435.34,-68 435.34,-88"/>
<text text-anchor="middle" x="418.34" y="-74.5" font-family="Helvetica,sans-Serif" font-size="10.00">bool</text>
</a>
</g>
</g>
<!-- Node8&#45;&gt;Node1 -->
<g id="edge9_Node000001_Node000008" class="edge">
<title>Node8&#45;&gt;Node1</title>
<g id="a_edge9_Node000001_Node000008"><a xlink:title=" ">
<path fill="none" stroke="#9a32cd" stroke-dasharray="5,2" d="M390.88,-64.68C371.88,-56.44 345.88,-45.74 322.34,-38 301.77,-31.24 278.5,-25.14 259.02,-20.46"/>
<polygon fill="#9a32cd" stroke="#9a32cd" points="389.35,-68.27 399.91,-69.08 392.16,-61.86 389.35,-68.27"/>
</a>
</g>
<text text-anchor="middle" x="370.84" y="-40.5" font-family="Helvetica,sans-Serif" font-size="10.00" fill="grey"> _active</text>
</g>
</g>
</svg>
</svg>

<style type='text/css'>
<![CDATA[
[data-mouse-over-selected='false'] { opacity: 0.7; }
[data-mouse-over-selected='true']  { opacity: 1.0; }
]]>
</style>
<script type="application/ecmascript"><![CDATA[
document.addEventListener('DOMContentLoaded', (event) => {
  highlightEdges();
  highlightAdjacentNodes();
});
]]></script>
</svg>
