<?xml version="1.0" encoding="UTF-8" standalone="no"?>
<!DOCTYPE svg PUBLIC "-//W3C//DTD SVG 1.1//EN"
 "http://www.w3.org/Graphics/SVG/1.1/DTD/svg11.dtd">
<!-- Generated by graphviz version 8.1.0 (20230707.0739)
 -->
<!-- Title: carla::Buffer::buffer Pages: 1 -->
<svg width="234pt" height="66pt"
 viewBox="0.00 0.00 233.50 66.00" xmlns="http://www.w3.org/2000/svg" xmlns:xlink="http://www.w3.org/1999/xlink">
<g id="graph0" class="graph" transform="scale(1 1) rotate(0) translate(4 62)">
<title>carla::Buffer::buffer</title>
<!-- Node1 -->
<g id="Node000001" class="node">
<title>Node1</title>
<g id="a_Node000001"><a xlink:title="Make a boost::asio::buffer from this buffer.">
<polygon fill="#999999" stroke="#666666" points="97,-39 0,-39 0,-19 97,-19 97,-39"/>
<text text-anchor="middle" x="48.5" y="-25.5" font-family="Helvetica,sans-Serif" font-size="10.00">carla::Buffer::buffer</text>
</a>
</g>
</g>
<!-- Node2 -->
<g id="Node000002" class="node">
<title>Node2</title>
<g id="a_Node000002"><a xlink:href="../../d0/d0a/classcarla_1_1Buffer.html#a10680a1dd5dd8718b8e871b631022cdf" target="_top" xlink:title="Direct access to the allocated memory or nullptr if no memory is allocated.">
<polygon fill="white" stroke="#666666" points="225.5,-58 133,-58 133,-38 225.5,-38 225.5,-58"/>
<text text-anchor="middle" x="179.25" y="-44.5" font-family="Helvetica,sans-Serif" font-size="10.00">carla::Buffer::data</text>
</a>
</g>
</g>
<!-- Node1&#45;&gt;Node2 -->
<g id="edge1_Node000001_Node000002" class="edge">
<title>Node1&#45;&gt;Node2</title>
<g id="a_edge1_Node000001_Node000002"><a xlink:title=" ">
<path fill="none" stroke="#63b8ff" d="M97.44,-36.07C105.49,-37.26 113.92,-38.51 122.15,-39.72"/>
<polygon fill="#63b8ff" stroke="#63b8ff" points="121.43,-43.3 131.83,-41.3 122.45,-36.37 121.43,-43.3"/>
</a>
</g>
</g>
<!-- Node3 -->
<g id="Node000003" class="node">
<title>Node3</title>
<g id="a_Node000003"><a xlink:href="../../d0/d0a/classcarla_1_1Buffer.html#a3edea2e44a05d9806312e5f9e52315e4" target="_top" xlink:title=" ">
<polygon fill="white" stroke="#666666" points="225.12,-20 133.38,-20 133.38,0 225.12,0 225.12,-20"/>
<text text-anchor="middle" x="179.25" y="-6.5" font-family="Helvetica,sans-Serif" font-size="10.00">carla::Buffer::size</text>
</a>
</g>
</g>
<!-- Node1&#45;&gt;Node3 -->
<g id="edge2_Node000001_Node000003" class="edge">
<title>Node1&#45;&gt;Node3</title>
<g id="a_edge2_Node000001_Node000003"><a xlink:title=" ">
<path fill="none" stroke="#63b8ff" d="M97.44,-21.93C105.59,-20.72 114.12,-19.46 122.46,-18.23"/>
<polygon fill="#63b8ff" stroke="#63b8ff" points="122.87,-21.56 132.25,-16.64 121.85,-14.64 122.87,-21.56"/>
</a>
</g>
</g>
</g>
</svg>
