<?xml version="1.0" encoding="UTF-8" standalone="no"?>
<!DOCTYPE svg PUBLIC "-//W3C//DTD SVG 1.1//EN"
 "http://www.w3.org/Graphics/SVG/1.1/DTD/svg11.dtd">
<!-- Generated by graphviz version 8.1.0 (20230707.0739)
 -->
<!-- Title: carla::traffic_manager::AtomicActorSet Pages: 1 -->
<svg width="264pt" height="108pt"
 viewBox="0.00 0.00 263.75 108.00" xmlns="http://www.w3.org/2000/svg" xmlns:xlink="http://www.w3.org/1999/xlink">

<svg id="main" version="1.1" xmlns="http://www.w3.org/2000/svg" xmlns:xlink="http://www.w3.org/1999/xlink" xml:space="preserve" onload="init(evt)">
<style type="text/css"><![CDATA[
.node, .edge {opacity: 0.7;}
.node.selected, .edge.selected {opacity: 1;}
.edge:hover path { stroke: red; }
.edge:hover polygon { stroke: red; fill: red; }
]]></style>
<script type="application/ecmascript" xlink:href="../../svg.min.js"/>
<svg id="graph" class="graph">
<g id="graph0" class="graph" transform="scale(1 1) rotate(0) translate(4 104)">
<title>carla::traffic_manager::AtomicActorSet</title>
<!-- Node1 -->
<g id="Node000001" class="node">
<title>Node1</title>
<g id="a_Node000001"><a xlink:title=" ">
<polygon fill="#999999" stroke="#666666" points="186,-32 77,-32 77,0 186,0 186,-32"/>
<text text-anchor="start" x="85" y="-18.5" font-family="Helvetica,sans-Serif" font-size="10.00">carla::traffic_manager</text>
<text text-anchor="middle" x="131.5" y="-6.5" font-family="Helvetica,sans-Serif" font-size="10.00">::AtomicActorSet</text>
</a>
</g>
</g>
<!-- Node2 -->
<g id="Node000002" class="node">
<title>Node2</title>
<g id="a_Node000002"><a xlink:title=" ">
<polygon fill="white" stroke="#666666" points="43,-100 0,-100 0,-80 43,-80 43,-100"/>
<text text-anchor="middle" x="21.5" y="-86.5" font-family="Helvetica,sans-Serif" font-size="10.00">mutex</text>
</a>
</g>
</g>
<!-- Node2&#45;&gt;Node1 -->
<g id="edge1_Node000001_Node000002" class="edge">
<title>Node2&#45;&gt;Node1</title>
<g id="a_edge1_Node000001_Node000002"><a xlink:title=" ">
<path fill="none" stroke="#9a32cd" stroke-dasharray="5,2" d="M27.51,-69.56C30.48,-62.61 34.69,-55.22 40.5,-50 50.74,-40.78 63.76,-34.08 76.73,-29.24"/>
<polygon fill="#9a32cd" stroke="#9a32cd" points="23.94,-68.13 23.83,-78.73 30.52,-70.51 23.94,-68.13"/>
</a>
</g>
<text text-anchor="middle" x="84" y="-52.5" font-family="Helvetica,sans-Serif" font-size="10.00" fill="grey"> modification_mutex</text>
</g>
<!-- Node3 -->
<g id="Node000003" class="node">
<title>Node3</title>
<g id="a_Node000003"><a xlink:title=" ">
<polygon fill="white" stroke="#666666" points="194.25,-100 68.75,-100 68.75,-80 194.25,-80 194.25,-100"/>
<text text-anchor="middle" x="131.5" y="-86.5" font-family="Helvetica,sans-Serif" font-size="10.00">map&lt; ActorId, ActorPtr &gt;</text>
</a>
</g>
</g>
<!-- Node3&#45;&gt;Node1 -->
<g id="edge2_Node000001_Node000003" class="edge">
<title>Node3&#45;&gt;Node1</title>
<g id="a_edge2_Node000001_Node000003"><a xlink:title=" ">
<path fill="none" stroke="#9a32cd" stroke-dasharray="5,2" d="M131.5,-68.83C131.5,-57.31 131.5,-43.1 131.5,-32.47"/>
<polygon fill="#9a32cd" stroke="#9a32cd" points="128,-68.59 131.5,-78.59 135,-68.59 128,-68.59"/>
</a>
</g>
<text text-anchor="middle" x="153.25" y="-52.5" font-family="Helvetica,sans-Serif" font-size="10.00" fill="grey"> actor_set</text>
</g>
<!-- Node4 -->
<g id="Node000004" class="node">
<title>Node4</title>
<g id="a_Node000004"><a xlink:title=" ">
<polygon fill="white" stroke="#666666" points="240.9,-100 212.1,-100 212.1,-80 240.9,-80 240.9,-100"/>
<text text-anchor="middle" x="226.5" y="-86.5" font-family="Helvetica,sans-Serif" font-size="10.00">int</text>
</a>
</g>
</g>
<!-- Node4&#45;&gt;Node1 -->
<g id="edge3_Node000001_Node000004" class="edge">
<title>Node4&#45;&gt;Node1</title>
<g id="a_edge3_Node000001_Node000004"><a xlink:title=" ">
<path fill="none" stroke="#9a32cd" stroke-dasharray="5,2" d="M207.79,-72.82C199.3,-65.64 189.04,-57.21 179.5,-50 171.6,-44.02 162.71,-37.79 154.75,-32.36"/>
<polygon fill="#9a32cd" stroke="#9a32cd" points="205.02,-75.9 214.9,-79.73 209.56,-70.58 205.02,-75.9"/>
</a>
</g>
<text text-anchor="middle" x="224.62" y="-52.5" font-family="Helvetica,sans-Serif" font-size="10.00" fill="grey"> state_counter</text>
</g>
</g>
</svg>
</svg>

<style type='text/css'>
<![CDATA[
[data-mouse-over-selected='false'] { opacity: 0.7; }
[data-mouse-over-selected='true']  { opacity: 1.0; }
]]>
</style>
<script type="application/ecmascript"><![CDATA[
document.addEventListener('DOMContentLoaded', (event) => {
  highlightEdges();
  highlightAdjacentNodes();
});
]]></script>
</svg>
