<?xml version="1.0" encoding="UTF-8" standalone="no"?>
<!DOCTYPE svg PUBLIC "-//W3C//DTD SVG 1.1//EN"
 "http://www.w3.org/Graphics/SVG/1.1/DTD/svg11.dtd">
<!-- Generated by graphviz version 8.1.0 (20230707.0739)
 -->
<!-- Title: CityMapDefinitions.h Pages: 1 -->
<!--zoomable 308 -->

<svg id="main" version="1.1" xmlns="http://www.w3.org/2000/svg" xmlns:xlink="http://www.w3.org/1999/xlink" xml:space="preserve" onload="init(evt)">
<style type="text/css"><![CDATA[
.node, .edge {opacity: 0.7;}
.node.selected, .edge.selected {opacity: 1;}
.edge:hover path { stroke: red; }
.edge:hover polygon { stroke: red; fill: red; }
]]></style>

<defs>
  <circle id="rim" cx="0" cy="0" r="7"/>
  <circle id="rim2" cx="0" cy="0" r="3.5"/>
  <g id="zoomPlus">
    <use xlink:href="#rim" fill="#404040"><set attributeName="fill" to="#808080" begin="zoomplus.mouseover" end="zoomplus.mouseout"/></use>
    <path d="M-4,0h8M0,-4v8" fill="none" stroke="white" stroke-width="1.5" pointer-events="none"/>
  </g>
  <g id="zoomMin">
    <use xlink:href="#rim" fill="#404040"><set attributeName="fill" to="#808080" begin="zoomminus.mouseover" end="zoomminus.mouseout"/></use>
    <path d="M-4,0h8" fill="none" stroke="white" stroke-width="1.5" pointer-events="none"/>
  </g>
  <g id="arrowUp" transform="translate(30 24)">
    <use xlink:href="#rim"/>
    <path pointer-events="none" fill="none" stroke="white" stroke-width="1.5" d="M0,-3.0v7 M-2.5,-0.5L0,-3.0L2.5,-0.5"/>
  </g>
  <g id="arrowRight" transform="rotate(90) translate(36 -43)">
    <use xlink:href="#rim"/>
    <path pointer-events="none" fill="none" stroke="white" stroke-width="1.5" d="M0,-3.0v7 M-2.5,-0.5L0,-3.0L2.5,-0.5"/>
  </g>
  <g id="arrowDown" transform="rotate(180) translate(-30 -48)">
    <use xlink:href="#rim"/>
    <path pointer-events="none" fill="none" stroke="white" stroke-width="1.5" d="M0,-3.0v7 M-2.5,-0.5L0,-3.0L2.5,-0.5"/>
  </g>
  <g id="arrowLeft" transform="rotate(270) translate(-36 17)">
    <use xlink:href="#rim"/>
    <path pointer-events="none" fill="none" stroke="white" stroke-width="1.5" d="M0,-3.0v7 M-2.5,-0.5L0,-3.0L2.5,-0.5"/>
  </g>
  <g id="resetDef">
    <use xlink:href="#rim2" fill="#404040"><set attributeName="fill" to="#808080" begin="reset.mouseover" end="reset.mouseout"/></use>
  </g>
</defs>
<script type="application/ecmascript">
var viewWidth = 551;
var viewHeight = 308;
var sectionId = 'dynsection-0';
</script>
<script type="application/ecmascript" xlink:href="../../svg.min.js"/>
<svg id="graph" class="graph">
<g id="viewport">
<title>CityMapDefinitions.h</title>
<!-- Node1 -->
<g id="Node000001" class="node">
<title>Node1</title>
<g id="a_Node000001"><a xlink:title=" ">
<polygon fill="#999999" stroke="#666666" points="293.38,-300 188.12,-300 188.12,-280 293.38,-280 293.38,-300"/>
<text text-anchor="middle" x="240.75" y="-286.5" font-family="Helvetica,sans-Serif" font-size="10.00">CityMapDefinitions.h</text>
</a>
</g>
</g>
<!-- Node2 -->
<g id="Node000002" class="node">
<title>Node2</title>
<g id="a_Node000002"><a xlink:href="../../d4/d09/GraphTypes_8h.html" target="_top" xlink:title=" ">
<polygon fill="white" stroke="#666666" points="279.12,-244 202.38,-244 202.38,-224 279.12,-224 279.12,-244"/>
<text text-anchor="middle" x="240.75" y="-230.5" font-family="Helvetica,sans-Serif" font-size="10.00">GraphTypes.h</text>
</a>
</g>
</g>
<!-- Node1&#45;&gt;Node2 -->
<g id="edge1_Node000001_Node000002" class="edge">
<title>Node1&#45;&gt;Node2</title>
<g id="a_edge1_Node000001_Node000002"><a xlink:title=" ">
<path fill="none" stroke="#63b8ff" d="M240.75,-268.71C240.75,-260.32 240.75,-251.01 240.75,-244.3"/>
<polygon fill="#63b8ff" stroke="#63b8ff" points="237.25,-268.59 240.75,-278.59 244.25,-268.59 237.25,-268.59"/>
</a>
</g>
</g>
<!-- Node3 -->
<g id="Node000003" class="node">
<title>Node3</title>
<g id="a_Node000003"><a xlink:href="../../d5/d44/CityAreaDescription_8h.html" target="_top" xlink:title=" ">
<polygon fill="white" stroke="#666666" points="155,-188 44.5,-188 44.5,-168 155,-168 155,-188"/>
<text text-anchor="middle" x="99.75" y="-174.5" font-family="Helvetica,sans-Serif" font-size="10.00">CityAreaDescription.h</text>
</a>
</g>
</g>
<!-- Node2&#45;&gt;Node3 -->
<g id="edge2_Node000002_Node000003" class="edge">
<title>Node2&#45;&gt;Node3</title>
<g id="a_edge2_Node000002_Node000003"><a xlink:title=" ">
<path fill="none" stroke="#63b8ff" d="M205.92,-219.66C180.65,-209.98 147.07,-197.12 124.5,-188.48"/>
<polygon fill="#63b8ff" stroke="#63b8ff" points="204.6,-223.29 215.19,-223.59 207.1,-216.75 204.6,-223.29"/>
</a>
</g>
</g>
<!-- Node4 -->
<g id="Node000004" class="node">
<title>Node4</title>
<g id="a_Node000004"><a xlink:href="../../dc/d6a/GraphParser_8h.html" target="_top" xlink:title=" ">
<polygon fill="white" stroke="#666666" points="145.25,-132 66.25,-132 66.25,-112 145.25,-112 145.25,-132"/>
<text text-anchor="middle" x="105.75" y="-118.5" font-family="Helvetica,sans-Serif" font-size="10.00">GraphParser.h</text>
</a>
</g>
</g>
<!-- Node2&#45;&gt;Node4 -->
<g id="edge15_Node000002_Node000004" class="edge">
<title>Node2&#45;&gt;Node4</title>
<g id="a_edge15_Node000002_Node000004"><a xlink:title=" ">
<path fill="none" stroke="#63b8ff" d="M191.47,-229.15C137.16,-223.77 54.92,-211.84 35.75,-188 17.98,-165.9 55.18,-144.32 81.84,-132.43"/>
<polygon fill="#63b8ff" stroke="#63b8ff" points="190.98,-232.72 201.26,-230.17 191.64,-225.75 190.98,-232.72"/>
</a>
</g>
</g>
<!-- Node9 -->
<g id="Node000009" class="node">
<title>Node9</title>
<g id="a_Node000009"><a xlink:href="../../d8/db3/DoublyConnectedEdgeList_8h.html" target="_top" xlink:title=" ">
<polygon fill="white" stroke="#666666" points="398.25,-132 259.25,-132 259.25,-112 398.25,-112 398.25,-132"/>
<text text-anchor="middle" x="328.75" y="-118.5" font-family="Helvetica,sans-Serif" font-size="10.00">DoublyConnectedEdgeList.h</text>
</a>
</g>
</g>
<!-- Node2&#45;&gt;Node9 -->
<g id="edge8_Node000002_Node000009" class="edge">
<title>Node2&#45;&gt;Node9</title>
<g id="a_edge8_Node000002_Node000009"><a xlink:title=" ">
<path fill="none" stroke="#63b8ff" d="M277.74,-219.06C292.02,-211.87 307.19,-201.69 316.75,-188 328.57,-171.06 329.7,-145.81 329.33,-132.31"/>
<polygon fill="#63b8ff" stroke="#63b8ff" points="276.66,-216.17 269.07,-223.56 279.61,-222.51 276.66,-216.17"/>
</a>
</g>
</g>
<!-- Node13 -->
<g id="Node000013" class="node">
<title>Node13</title>
<g id="a_Node000013"><a xlink:href="../../db/d97/GraphTypes_8cpp.html" target="_top" xlink:title=" ">
<polygon fill="white" stroke="#666666" points="451.38,-188 364.12,-188 364.12,-168 451.38,-168 451.38,-188"/>
<text text-anchor="middle" x="407.75" y="-174.5" font-family="Helvetica,sans-Serif" font-size="10.00">GraphTypes.cpp</text>
</a>
</g>
</g>
<!-- Node2&#45;&gt;Node13 -->
<g id="edge16_Node000002_Node000013" class="edge">
<title>Node2&#45;&gt;Node13</title>
<g id="a_edge16_Node000002_Node000013"><a xlink:title=" ">
<path fill="none" stroke="#63b8ff" d="M280.01,-220.31C310.15,-210.56 351.11,-197.32 378.43,-188.48"/>
<polygon fill="#63b8ff" stroke="#63b8ff" points="279.28,-217.19 270.84,-223.59 281.43,-223.85 279.28,-217.19"/>
</a>
</g>
</g>
<!-- Node14 -->
<g id="Node000014" class="node">
<title>Node14</title>
<g id="a_Node000014"><a xlink:href="../../d9/dc0/RoadSegmentDescription_8h.html" target="_top" xlink:title=" ">
<polygon fill="white" stroke="#666666" points="308,-188 173.5,-188 173.5,-168 308,-168 308,-188"/>
<text text-anchor="middle" x="240.75" y="-174.5" font-family="Helvetica,sans-Serif" font-size="10.00">RoadSegmentDescription.h</text>
</a>
</g>
</g>
<!-- Node2&#45;&gt;Node14 -->
<g id="edge17_Node000002_Node000014" class="edge">
<title>Node2&#45;&gt;Node14</title>
<g id="a_edge17_Node000002_Node000014"><a xlink:title=" ">
<path fill="none" stroke="#63b8ff" d="M240.75,-212.71C240.75,-204.32 240.75,-195.01 240.75,-188.3"/>
<polygon fill="#63b8ff" stroke="#63b8ff" points="237.25,-212.59 240.75,-222.59 244.25,-212.59 237.25,-212.59"/>
</a>
</g>
</g>
<!-- Node3&#45;&gt;Node4 -->
<g id="edge3_Node000003_Node000004" class="edge">
<title>Node3&#45;&gt;Node4</title>
<g id="a_edge3_Node000003_Node000004"><a xlink:title=" ">
<path fill="none" stroke="#63b8ff" d="M102,-156.71C102.94,-148.32 103.97,-139.01 104.72,-132.3"/>
<polygon fill="#63b8ff" stroke="#63b8ff" points="98.42,-156.27 100.8,-166.59 105.38,-157.04 98.42,-156.27"/>
</a>
</g>
</g>
<!-- Node5 -->
<g id="Node000005" class="node">
<title>Node5</title>
<g id="a_Node000005"><a xlink:href="../../d0/da2/CityMapGenerator_8h.html" target="_top" xlink:title=" ">
<polygon fill="white" stroke="#666666" points="157.25,-76 54.25,-76 54.25,-56 157.25,-56 157.25,-76"/>
<text text-anchor="middle" x="105.75" y="-62.5" font-family="Helvetica,sans-Serif" font-size="10.00">CityMapGenerator.h</text>
</a>
</g>
</g>
<!-- Node4&#45;&gt;Node5 -->
<g id="edge4_Node000004_Node000005" class="edge">
<title>Node4&#45;&gt;Node5</title>
<g id="a_edge4_Node000004_Node000005"><a xlink:title=" ">
<path fill="none" stroke="#63b8ff" d="M105.75,-100.71C105.75,-92.32 105.75,-83.01 105.75,-76.3"/>
<polygon fill="#63b8ff" stroke="#63b8ff" points="102.25,-100.59 105.75,-110.59 109.25,-100.59 102.25,-100.59"/>
</a>
</g>
</g>
<!-- Node8 -->
<g id="Node000008" class="node">
<title>Node8</title>
<g id="a_Node000008"><a xlink:href="../../dd/db2/GraphParser_8cpp.html" target="_top" xlink:title=" ">
<polygon fill="white" stroke="#666666" points="264.5,-76 175,-76 175,-56 264.5,-56 264.5,-76"/>
<text text-anchor="middle" x="219.75" y="-62.5" font-family="Helvetica,sans-Serif" font-size="10.00">GraphParser.cpp</text>
</a>
</g>
</g>
<!-- Node4&#45;&gt;Node8 -->
<g id="edge7_Node000004_Node000008" class="edge">
<title>Node4&#45;&gt;Node8</title>
<g id="a_edge7_Node000004_Node000008"><a xlink:title=" ">
<path fill="none" stroke="#63b8ff" d="M135.29,-107.01C155.55,-97.41 181.9,-84.93 199.74,-76.48"/>
<polygon fill="#63b8ff" stroke="#63b8ff" points="134.15,-104.15 126.61,-111.59 137.14,-110.48 134.15,-104.15"/>
</a>
</g>
</g>
<!-- Node6 -->
<g id="Node000006" class="node">
<title>Node6</title>
<g id="a_Node000006"><a xlink:href="../../d9/d8e/CityMapGenerator_8cpp.html" target="_top" xlink:title=" ">
<polygon fill="white" stroke="#666666" points="287.5,-20 174,-20 174,0 287.5,0 287.5,-20"/>
<text text-anchor="middle" x="230.75" y="-6.5" font-family="Helvetica,sans-Serif" font-size="10.00">CityMapGenerator.cpp</text>
</a>
</g>
</g>
<!-- Node5&#45;&gt;Node6 -->
<g id="edge5_Node000005_Node000006" class="edge">
<title>Node5&#45;&gt;Node6</title>
<g id="a_edge5_Node000005_Node000006"><a xlink:title=" ">
<path fill="none" stroke="#63b8ff" d="M137.53,-51.27C159.83,-41.64 189.07,-29.01 208.81,-20.48"/>
<polygon fill="#63b8ff" stroke="#63b8ff" points="136.32,-48.42 128.52,-55.59 139.09,-54.84 136.32,-48.42"/>
</a>
</g>
</g>
<!-- Node7 -->
<g id="Node000007" class="node">
<title>Node7</title>
<g id="a_Node000007"><a xlink:href="../../d8/de0/WheeledVehicleAIController_8cpp.html" target="_top" xlink:title=" ">
<polygon fill="white" stroke="#666666" points="155.5,-20 0,-20 0,0 155.5,0 155.5,-20"/>
<text text-anchor="middle" x="77.75" y="-6.5" font-family="Helvetica,sans-Serif" font-size="10.00">WheeledVehicleAIController.cpp</text>
</a>
</g>
</g>
<!-- Node5&#45;&gt;Node7 -->
<g id="edge6_Node000005_Node000007" class="edge">
<title>Node5&#45;&gt;Node7</title>
<g id="a_edge6_Node000005_Node000007"><a xlink:title=" ">
<path fill="none" stroke="#63b8ff" d="M95.83,-45.87C91.33,-37.19 86.21,-27.32 82.57,-20.3"/>
<polygon fill="#63b8ff" stroke="#63b8ff" points="93.16,-47.33 100.87,-54.59 99.38,-44.11 93.16,-47.33"/>
</a>
</g>
</g>
<!-- Node9&#45;&gt;Node5 -->
<g id="edge9_Node000009_Node000005" class="edge">
<title>Node9&#45;&gt;Node5</title>
<g id="a_edge9_Node000009_Node000005"><a xlink:title=" ">
<path fill="none" stroke="#63b8ff" d="M279.2,-109C238.68,-99.19 182.17,-85.51 144.8,-76.46"/>
<polygon fill="#63b8ff" stroke="#63b8ff" points="278.11,-112.58 288.65,-111.53 279.76,-105.78 278.11,-112.58"/>
</a>
</g>
</g>
<!-- Node9&#45;&gt;Node8 -->
<g id="edge14_Node000009_Node000008" class="edge">
<title>Node9&#45;&gt;Node8</title>
<g id="a_edge14_Node000009_Node000008"><a xlink:title=" ">
<path fill="none" stroke="#63b8ff" d="M299.98,-106.75C280.68,-97.18 255.79,-84.85 238.88,-76.48"/>
<polygon fill="#63b8ff" stroke="#63b8ff" points="298.25,-110.29 308.76,-111.59 301.36,-104.02 298.25,-110.29"/>
</a>
</g>
</g>
<!-- Node10 -->
<g id="Node000010" class="node">
<title>Node10</title>
<g id="a_Node000010"><a xlink:href="../../dd/db4/DoublyConnectedEdgeList_8cpp.html" target="_top" xlink:title=" ">
<polygon fill="white" stroke="#666666" points="542.5,-76 393,-76 393,-56 542.5,-56 542.5,-76"/>
<text text-anchor="middle" x="467.75" y="-62.5" font-family="Helvetica,sans-Serif" font-size="10.00">DoublyConnectedEdgeList.cpp</text>
</a>
</g>
</g>
<!-- Node9&#45;&gt;Node10 -->
<g id="edge10_Node000009_Node000010" class="edge">
<title>Node9&#45;&gt;Node10</title>
<g id="a_edge10_Node000009_Node000010"><a xlink:title=" ">
<path fill="none" stroke="#63b8ff" d="M363.08,-107.66C388,-97.98 421.1,-85.12 443.35,-76.48"/>
<polygon fill="#63b8ff" stroke="#63b8ff" points="362.02,-104.71 353.96,-111.59 364.55,-111.24 362.02,-104.71"/>
</a>
</g>
</g>
<!-- Node11 -->
<g id="Node000011" class="node">
<title>Node11</title>
<g id="a_Node000011"><a xlink:href="../../d4/d24/GraphGenerator_8h.html" target="_top" xlink:title=" ">
<polygon fill="white" stroke="#666666" points="375.38,-76 282.12,-76 282.12,-56 375.38,-56 375.38,-76"/>
<text text-anchor="middle" x="328.75" y="-62.5" font-family="Helvetica,sans-Serif" font-size="10.00">GraphGenerator.h</text>
</a>
</g>
</g>
<!-- Node9&#45;&gt;Node11 -->
<g id="edge11_Node000009_Node000011" class="edge">
<title>Node9&#45;&gt;Node11</title>
<g id="a_edge11_Node000009_Node000011"><a xlink:title=" ">
<path fill="none" stroke="#63b8ff" d="M328.75,-100.71C328.75,-92.32 328.75,-83.01 328.75,-76.3"/>
<polygon fill="#63b8ff" stroke="#63b8ff" points="325.25,-100.59 328.75,-110.59 332.25,-100.59 325.25,-100.59"/>
</a>
</g>
</g>
<!-- Node11&#45;&gt;Node6 -->
<g id="edge12_Node000011_Node000006" class="edge">
<title>Node11&#45;&gt;Node6</title>
<g id="a_edge12_Node000011_Node000006"><a xlink:title=" ">
<path fill="none" stroke="#63b8ff" d="M302.16,-50.35C284.91,-40.84 262.94,-28.74 247.95,-20.48"/>
<polygon fill="#63b8ff" stroke="#63b8ff" points="300.23,-53.83 310.68,-55.59 303.61,-47.7 300.23,-53.83"/>
</a>
</g>
</g>
<!-- Node12 -->
<g id="Node000012" class="node">
<title>Node12</title>
<g id="a_Node000012"><a xlink:href="../../d4/d03/GraphGenerator_8cpp.html" target="_top" xlink:title=" ">
<polygon fill="white" stroke="#666666" points="409.62,-20 305.88,-20 305.88,0 409.62,0 409.62,-20"/>
<text text-anchor="middle" x="357.75" y="-6.5" font-family="Helvetica,sans-Serif" font-size="10.00">GraphGenerator.cpp</text>
</a>
</g>
</g>
<!-- Node11&#45;&gt;Node12 -->
<g id="edge13_Node000011_Node000012" class="edge">
<title>Node11&#45;&gt;Node12</title>
<g id="a_edge13_Node000011_Node000012"><a xlink:title=" ">
<path fill="none" stroke="#63b8ff" d="M338.87,-46.15C343.57,-37.4 348.95,-27.39 352.76,-20.3"/>
<polygon fill="#63b8ff" stroke="#63b8ff" points="335.45,-44.13 333.8,-54.59 341.62,-47.44 335.45,-44.13"/>
</a>
</g>
</g>
<!-- Node14&#45;&gt;Node4 -->
<g id="edge18_Node000014_Node000004" class="edge">
<title>Node14&#45;&gt;Node4</title>
<g id="a_edge18_Node000014_Node000004"><a xlink:title=" ">
<path fill="none" stroke="#63b8ff" d="M207.08,-163.53C182.92,-153.87 150.96,-141.08 129.45,-132.48"/>
<polygon fill="#63b8ff" stroke="#63b8ff" points="205.65,-167.13 216.23,-167.59 208.25,-160.63 205.65,-167.13"/>
</a>
</g>
</g>
</g>
</svg>

<g id="navigator" transform="translate(0 0)" fill="#404254">
  <rect fill="#f2f5e9" fill-opacity="0.5" stroke="#606060" stroke-width=".5" x="0" y="0" width="60" height="60"/>
  <use id="zoomplus" xlink:href="#zoomPlus" x="17" y="9" onmousedown="handleZoom(evt,'in')"/>
  <use id="zoomminus" xlink:href="#zoomMin" x="42" y="9" onmousedown="handleZoom(evt,'out')"/>
  <use id="reset" xlink:href="#resetDef" x="30" y="36" onmousedown="handleReset()"/>
   <use id="arrowup" xlink:href="#arrowUp" x="0" y="0" onmousedown="handlePan(0,-1)"/>
  <use id="arrowright" xlink:href="#arrowRight" x="0" y="0" onmousedown="handlePan(1,0)"/>
  <use id="arrowdown" xlink:href="#arrowDown" x="0" y="0" onmousedown="handlePan(0,1)"/>
  <use id="arrowleft" xlink:href="#arrowLeft" x="0" y="0" onmousedown="handlePan(-1,0)"/>
</g>
<svg viewBox="0 0 15 15" width="100%" height="30px" preserveAspectRatio="xMaxYMin meet">
 <g id="arrow_out" transform="scale(0.3 0.3)">
  <a xlink:href="CityMapDefinitions_8h__dep__incl_org.svg" target="_base">
   <rect id="button" ry="5" rx="5" y="6" x="6" height="38" width="38"
        fill="#f2f5e9" fill-opacity="0.5" stroke="#606060" stroke-width="1.0"/>
   <path id="arrow"
     d="M 11.500037,31.436501 C 11.940474,20.09759 22.043105,11.32322 32.158766,21.979434 L 37.068811,17.246167 C 37.068811,17.246167 37.088388,32 37.088388,32 L 22.160133,31.978069 C 22.160133,31.978069 26.997745,27.140456 26.997745,27.140456 C 18.528582,18.264221 13.291696,25.230495 11.500037,31.436501 z"
     style="fill:#404040;"/>
  </a>
 </g>
</svg>

<style type='text/css'>
<![CDATA[
[data-mouse-over-selected='false'] { opacity: 0.7; }
[data-mouse-over-selected='true']  { opacity: 1.0; }
]]>
</style>
<script type="application/ecmascript"><![CDATA[
document.addEventListener('DOMContentLoaded', (event) => {
  highlightEdges();
  highlightAdjacentNodes();
});
]]></script>
</svg>
