<?xml version="1.0" encoding="UTF-8" standalone="no"?>
<!DOCTYPE svg PUBLIC "-//W3C//DTD SVG 1.1//EN"
 "http://www.w3.org/Graphics/SVG/1.1/DTD/svg11.dtd">
<!-- Generated by graphviz version 8.1.0 (20230707.0739)
 -->
<!-- Title: sensor_msgs::msg::PointField::getKeyMaxCdrSerializedSize Pages: 1 -->
<svg width="369pt" height="90pt"
 viewBox="0.00 0.00 369.25 90.00" xmlns="http://www.w3.org/2000/svg" xmlns:xlink="http://www.w3.org/1999/xlink">
<g id="graph0" class="graph" transform="scale(1 1) rotate(0) translate(4 86)">
<title>sensor_msgs::msg::PointField::getKeyMaxCdrSerializedSize</title>
<!-- Node1 -->
<g id="Node000001" class="node">
<title>Node1</title>
<g id="a_Node000001"><a xlink:title="This function returns the maximum serialized size of the Key of an object depending on the buffer ali...">
<polygon fill="#999999" stroke="#666666" points="361.25,-57 212.5,-57 212.5,-25 361.25,-25 361.25,-57"/>
<text text-anchor="start" x="220.5" y="-43.5" font-family="Helvetica,sans-Serif" font-size="10.00">sensor_msgs::msg::PointField</text>
<text text-anchor="middle" x="286.88" y="-31.5" font-family="Helvetica,sans-Serif" font-size="10.00">::getKeyMaxCdrSerializedSize</text>
</a>
</g>
</g>
<!-- Node2 -->
<g id="Node000002" class="node">
<title>Node2</title>
<g id="a_Node000002"><a xlink:href="../../d9/d30/classsensor__msgs_1_1msg_1_1PointFieldPubSubType.html#aa58f8e4b73ae83878786857a2493cf11" target="_top" xlink:title=" ">
<polygon fill="white" stroke="#666666" points="162.62,-82 13.88,-82 13.88,-50 162.62,-50 162.62,-82"/>
<text text-anchor="start" x="21.88" y="-68.5" font-family="Helvetica,sans-Serif" font-size="10.00">sensor_msgs::msg::PointField</text>
<text text-anchor="middle" x="88.25" y="-56.5" font-family="Helvetica,sans-Serif" font-size="10.00">PubSubType::getKey</text>
</a>
</g>
</g>
<!-- Node1&#45;&gt;Node2 -->
<g id="edge1_Node000001_Node000002" class="edge">
<title>Node1&#45;&gt;Node2</title>
<g id="a_edge1_Node000001_Node000002"><a xlink:title=" ">
<path fill="none" stroke="#63b8ff" d="M201.47,-51.73C188.71,-53.35 175.63,-55.02 163.11,-56.61"/>
<polygon fill="#63b8ff" stroke="#63b8ff" points="201.62,-55.11 211.1,-50.38 200.74,-48.17 201.62,-55.11"/>
</a>
</g>
</g>
<!-- Node3 -->
<g id="Node000003" class="node">
<title>Node3</title>
<g id="a_Node000003"><a xlink:href="../../d9/d30/classsensor__msgs_1_1msg_1_1PointFieldPubSubType.html#ad3bf81b163eaf2ac331a8595bad6166f" target="_top" xlink:title=" ">
<polygon fill="white" stroke="#666666" points="176.5,-32 0,-32 0,0 176.5,0 176.5,-32"/>
<text text-anchor="start" x="8" y="-18.5" font-family="Helvetica,sans-Serif" font-size="10.00">sensor_msgs::msg::PointField</text>
<text text-anchor="middle" x="88.25" y="-6.5" font-family="Helvetica,sans-Serif" font-size="10.00">PubSubType::PointFieldPubSubType</text>
</a>
</g>
</g>
<!-- Node1&#45;&gt;Node3 -->
<g id="edge2_Node000001_Node000003" class="edge">
<title>Node1&#45;&gt;Node3</title>
<g id="a_edge2_Node000001_Node000003"><a xlink:title=" ">
<path fill="none" stroke="#63b8ff" d="M201.43,-30.26C193.24,-29.22 184.91,-28.16 176.69,-27.12"/>
<polygon fill="#63b8ff" stroke="#63b8ff" points="200.74,-33.83 211.1,-31.62 201.62,-26.89 200.74,-33.83"/>
</a>
</g>
</g>
</g>
</svg>
