<?xml version="1.0" encoding="UTF-8" standalone="no"?>
<!DOCTYPE svg PUBLIC "-//W3C//DTD SVG 1.1//EN"
 "http://www.w3.org/Graphics/SVG/1.1/DTD/svg11.dtd">
<!-- Generated by graphviz version 8.1.0 (20230707.0739)
 -->
<!-- Title: sensor_msgs::msg::PointField::name Pages: 1 -->
<!--zoomable 265 -->

<svg id="main" version="1.1" xmlns="http://www.w3.org/2000/svg" xmlns:xlink="http://www.w3.org/1999/xlink" xml:space="preserve" onload="init(evt)">
<style type="text/css"><![CDATA[
.node, .edge {opacity: 0.7;}
.node.selected, .edge.selected {opacity: 1;}
.edge:hover path { stroke: red; }
.edge:hover polygon { stroke: red; fill: red; }
]]></style>

<defs>
  <circle id="rim" cx="0" cy="0" r="7"/>
  <circle id="rim2" cx="0" cy="0" r="3.5"/>
  <g id="zoomPlus">
    <use xlink:href="#rim" fill="#404040"><set attributeName="fill" to="#808080" begin="zoomplus.mouseover" end="zoomplus.mouseout"/></use>
    <path d="M-4,0h8M0,-4v8" fill="none" stroke="white" stroke-width="1.5" pointer-events="none"/>
  </g>
  <g id="zoomMin">
    <use xlink:href="#rim" fill="#404040"><set attributeName="fill" to="#808080" begin="zoomminus.mouseover" end="zoomminus.mouseout"/></use>
    <path d="M-4,0h8" fill="none" stroke="white" stroke-width="1.5" pointer-events="none"/>
  </g>
  <g id="arrowUp" transform="translate(30 24)">
    <use xlink:href="#rim"/>
    <path pointer-events="none" fill="none" stroke="white" stroke-width="1.5" d="M0,-3.0v7 M-2.5,-0.5L0,-3.0L2.5,-0.5"/>
  </g>
  <g id="arrowRight" transform="rotate(90) translate(36 -43)">
    <use xlink:href="#rim"/>
    <path pointer-events="none" fill="none" stroke="white" stroke-width="1.5" d="M0,-3.0v7 M-2.5,-0.5L0,-3.0L2.5,-0.5"/>
  </g>
  <g id="arrowDown" transform="rotate(180) translate(-30 -48)">
    <use xlink:href="#rim"/>
    <path pointer-events="none" fill="none" stroke="white" stroke-width="1.5" d="M0,-3.0v7 M-2.5,-0.5L0,-3.0L2.5,-0.5"/>
  </g>
  <g id="arrowLeft" transform="rotate(270) translate(-36 17)">
    <use xlink:href="#rim"/>
    <path pointer-events="none" fill="none" stroke="white" stroke-width="1.5" d="M0,-3.0v7 M-2.5,-0.5L0,-3.0L2.5,-0.5"/>
  </g>
  <g id="resetDef">
    <use xlink:href="#rim2" fill="#404040"><set attributeName="fill" to="#808080" begin="reset.mouseover" end="reset.mouseout"/></use>
  </g>
</defs>
<script type="application/ecmascript">
var viewWidth = 797;
var viewHeight = 265;
var sectionId = 'dynsection-9';
</script>
<script type="application/ecmascript" xlink:href="../../svg.min.js"/>
<svg id="graph" class="graph">
<g id="viewport">
<title>sensor_msgs::msg::PointField::name</title>
<!-- Node1 -->
<g id="Node000001" class="node">
<title>Node1</title>
<g id="a_Node000001"><a xlink:title="This function copies the value in member name">
<polygon fill="#999999" stroke="#666666" points="788.5,-132 639.75,-132 639.75,-100 788.5,-100 788.5,-132"/>
<text text-anchor="start" x="647.75" y="-118.5" font-family="Helvetica,sans-Serif" font-size="10.00">sensor_msgs::msg::PointField</text>
<text text-anchor="middle" x="714.12" y="-106.5" font-family="Helvetica,sans-Serif" font-size="10.00">::name</text>
</a>
</g>
</g>
<!-- Node2 -->
<g id="Node000002" class="node">
<title>Node2</title>
<g id="a_Node000002"><a xlink:href="../../d4/d87/classsensor__msgs_1_1msg_1_1PointField.html#a8dcd851ee5bc79a9d73b779f86794051" target="_top" xlink:title="This function returns the serialized size of a data depending on the buffer alignment.">
<polygon fill="white" stroke="#666666" points="600,-232 451.25,-232 451.25,-200 600,-200 600,-232"/>
<text text-anchor="start" x="459.25" y="-218.5" font-family="Helvetica,sans-Serif" font-size="10.00">sensor_msgs::msg::PointField</text>
<text text-anchor="middle" x="525.62" y="-206.5" font-family="Helvetica,sans-Serif" font-size="10.00">::getCdrSerializedSize</text>
</a>
</g>
</g>
<!-- Node1&#45;&gt;Node2 -->
<g id="edge1_Node000001_Node000002" class="edge">
<title>Node1&#45;&gt;Node2</title>
<g id="a_edge1_Node000001_Node000002"><a xlink:title=" ">
<path fill="none" stroke="#63b8ff" d="M684.71,-138.87C663.42,-155.14 633.03,-176.59 603.75,-191 597.44,-194.11 590.65,-196.95 583.81,-199.52"/>
<polygon fill="#63b8ff" stroke="#63b8ff" points="686.49,-141.14 692.25,-132.25 682.2,-135.61 686.49,-141.14"/>
</a>
</g>
</g>
<!-- Node6 -->
<g id="Node000006" class="node">
<title>Node6</title>
<g id="a_Node000006"><a xlink:href="../../d6/db4/classcarla_1_1ros2_1_1CarlaRadarPublisher.html#aefe48518957ec184d72371aadeba8487" target="_top" xlink:title=" ">
<polygon fill="white" stroke="#666666" points="603.75,-182 447.5,-182 447.5,-150 603.75,-150 603.75,-182"/>
<text text-anchor="start" x="455.5" y="-168.5" font-family="Helvetica,sans-Serif" font-size="10.00">carla::ros2::CarlaRadarPublisher</text>
<text text-anchor="middle" x="525.62" y="-156.5" font-family="Helvetica,sans-Serif" font-size="10.00">::SetData</text>
</a>
</g>
</g>
<!-- Node1&#45;&gt;Node6 -->
<g id="edge5_Node000001_Node000006" class="edge">
<title>Node1&#45;&gt;Node6</title>
<g id="a_edge5_Node000001_Node000006"><a xlink:title=" ">
<path fill="none" stroke="#63b8ff" d="M641.55,-135.19C623.88,-139.93 605.12,-144.96 587.99,-149.55"/>
<polygon fill="#63b8ff" stroke="#63b8ff" points="642.05,-138.41 650.8,-132.44 640.23,-131.65 642.05,-138.41"/>
</a>
</g>
</g>
<!-- Node7 -->
<g id="Node000007" class="node">
<title>Node7</title>
<g id="a_Node000007"><a xlink:href="../../d9/dae/classcarla_1_1ros2_1_1CarlaLidarPublisher.html#a9a0fc8878d018e49596a99010c721bf6" target="_top" xlink:title=" ">
<polygon fill="white" stroke="#666666" points="601.5,-132 449.75,-132 449.75,-100 601.5,-100 601.5,-132"/>
<text text-anchor="start" x="457.75" y="-118.5" font-family="Helvetica,sans-Serif" font-size="10.00">carla::ros2::CarlaLidarPublisher</text>
<text text-anchor="middle" x="525.62" y="-106.5" font-family="Helvetica,sans-Serif" font-size="10.00">::SetData</text>
</a>
</g>
</g>
<!-- Node1&#45;&gt;Node7 -->
<g id="edge6_Node000001_Node000007" class="edge">
<title>Node1&#45;&gt;Node7</title>
<g id="a_edge6_Node000001_Node000007"><a xlink:title=" ">
<path fill="none" stroke="#63b8ff" d="M628.63,-116C619.73,-116 610.73,-116 601.94,-116"/>
<polygon fill="#63b8ff" stroke="#63b8ff" points="628.42,-119.5 638.42,-116 628.42,-112.5 628.42,-119.5"/>
</a>
</g>
</g>
<!-- Node8 -->
<g id="Node000008" class="node">
<title>Node8</title>
<g id="a_Node000008"><a xlink:href="../../db/de8/classcarla_1_1ros2_1_1CarlaSemanticLidarPublisher.html#a0e6c9a9946aff85b0642730972a89474" target="_top" xlink:title=" ">
<polygon fill="white" stroke="#666666" points="591.38,-82 459.88,-82 459.88,-50 591.38,-50 591.38,-82"/>
<text text-anchor="start" x="467.88" y="-68.5" font-family="Helvetica,sans-Serif" font-size="10.00">carla::ros2::CarlaSemantic</text>
<text text-anchor="middle" x="525.62" y="-56.5" font-family="Helvetica,sans-Serif" font-size="10.00">LidarPublisher::SetData</text>
</a>
</g>
</g>
<!-- Node1&#45;&gt;Node8 -->
<g id="edge7_Node000001_Node000008" class="edge">
<title>Node1&#45;&gt;Node8</title>
<g id="a_edge7_Node000001_Node000008"><a xlink:title=" ">
<path fill="none" stroke="#63b8ff" d="M641.55,-96.81C623.88,-92.07 605.12,-87.04 587.99,-82.45"/>
<polygon fill="#63b8ff" stroke="#63b8ff" points="640.23,-100.35 650.8,-99.56 642.05,-93.59 640.23,-100.35"/>
</a>
</g>
</g>
<!-- Node9 -->
<g id="Node000009" class="node">
<title>Node9</title>
<g id="a_Node000009"><a xlink:href="../../dd/d7a/classcarla_1_1ros2_1_1CarlaDVSCameraPublisher.html#a06bdf027f8bc1a984e2369fdb9d66e96" target="_top" xlink:title=" ">
<polygon fill="white" stroke="#666666" points="598.12,-32 453.12,-32 453.12,0 598.12,0 598.12,-32"/>
<text text-anchor="start" x="461.12" y="-18.5" font-family="Helvetica,sans-Serif" font-size="10.00">carla::ros2::CarlaDVSCamera</text>
<text text-anchor="middle" x="525.62" y="-6.5" font-family="Helvetica,sans-Serif" font-size="10.00">Publisher::SetPointCloudData</text>
</a>
</g>
</g>
<!-- Node1&#45;&gt;Node9 -->
<g id="edge8_Node000001_Node000009" class="edge">
<title>Node1&#45;&gt;Node9</title>
<g id="a_edge8_Node000001_Node000009"><a xlink:title=" ">
<path fill="none" stroke="#63b8ff" d="M684.71,-93.13C663.42,-76.86 633.03,-55.41 603.75,-41 597.44,-37.89 590.65,-35.05 583.81,-32.48"/>
<polygon fill="#63b8ff" stroke="#63b8ff" points="682.2,-96.39 692.25,-99.75 686.49,-90.86 682.2,-96.39"/>
</a>
</g>
</g>
<!-- Node3 -->
<g id="Node000003" class="node">
<title>Node3</title>
<g id="a_Node000003"><a xlink:href="../../d8/da2/classsensor__msgs_1_1msg_1_1PointCloud2.html#aa9aef76d2156e1d9cb0b7cd2da0b3955" target="_top" xlink:title="This function returns the serialized size of a data depending on the buffer alignment.">
<polygon fill="white" stroke="#666666" points="396.5,-257 238.75,-257 238.75,-225 396.5,-225 396.5,-257"/>
<text text-anchor="start" x="246.75" y="-243.5" font-family="Helvetica,sans-Serif" font-size="10.00">sensor_msgs::msg::PointCloud2</text>
<text text-anchor="middle" x="317.62" y="-231.5" font-family="Helvetica,sans-Serif" font-size="10.00">::getCdrSerializedSize</text>
</a>
</g>
</g>
<!-- Node2&#45;&gt;Node3 -->
<g id="edge2_Node000002_Node000003" class="edge">
<title>Node2&#45;&gt;Node3</title>
<g id="a_edge2_Node000002_Node000003"><a xlink:title=" ">
<path fill="none" stroke="#63b8ff" d="M440.01,-226.27C425.7,-228.01 410.9,-229.8 396.77,-231.52"/>
<polygon fill="#63b8ff" stroke="#63b8ff" points="440.33,-229.63 449.84,-224.95 439.49,-222.69 440.33,-229.63"/>
</a>
</g>
</g>
<!-- Node5 -->
<g id="Node000005" class="node">
<title>Node5</title>
<g id="a_Node000005"><a xlink:href="../../d9/d30/classsensor__msgs_1_1msg_1_1PointFieldPubSubType.html#a3ca356b03047188d21016449f6bce1fc" target="_top" xlink:title=" ">
<polygon fill="white" stroke="#666666" points="411.5,-207 223.75,-207 223.75,-175 411.5,-175 411.5,-207"/>
<text text-anchor="start" x="231.75" y="-193.5" font-family="Helvetica,sans-Serif" font-size="10.00">sensor_msgs::msg::PointField</text>
<text text-anchor="middle" x="317.62" y="-181.5" font-family="Helvetica,sans-Serif" font-size="10.00">PubSubType::getSerializedSizeProvider</text>
</a>
</g>
</g>
<!-- Node2&#45;&gt;Node5 -->
<g id="edge4_Node000002_Node000005" class="edge">
<title>Node2&#45;&gt;Node5</title>
<g id="a_edge4_Node000002_Node000005"><a xlink:title=" ">
<path fill="none" stroke="#63b8ff" d="M439.99,-205.73C430.65,-204.59 421.1,-203.44 411.66,-202.29"/>
<polygon fill="#63b8ff" stroke="#63b8ff" points="439.49,-209.31 449.84,-207.05 440.33,-202.37 439.49,-209.31"/>
</a>
</g>
</g>
<!-- Node4 -->
<g id="Node000004" class="node">
<title>Node4</title>
<g id="a_Node000004"><a xlink:href="../../d8/dd0/classsensor__msgs_1_1msg_1_1PointCloud2PubSubType.html#a217c43f6d12e5c89d4906982e397c43c" target="_top" xlink:title=" ">
<polygon fill="white" stroke="#666666" points="187.75,-257 0,-257 0,-225 187.75,-225 187.75,-257"/>
<text text-anchor="start" x="8" y="-243.5" font-family="Helvetica,sans-Serif" font-size="10.00">sensor_msgs::msg::PointCloud2</text>
<text text-anchor="middle" x="93.88" y="-231.5" font-family="Helvetica,sans-Serif" font-size="10.00">PubSubType::getSerializedSizeProvider</text>
</a>
</g>
</g>
<!-- Node3&#45;&gt;Node4 -->
<g id="edge3_Node000003_Node000004" class="edge">
<title>Node3&#45;&gt;Node4</title>
<g id="a_edge3_Node000003_Node000004"><a xlink:title=" ">
<path fill="none" stroke="#63b8ff" d="M227.59,-241C214.53,-241 201.06,-241 187.92,-241"/>
<polygon fill="#63b8ff" stroke="#63b8ff" points="227.44,-244.5 237.44,-241 227.44,-237.5 227.44,-244.5"/>
</a>
</g>
</g>
</g>
</svg>

<g id="navigator" transform="translate(0 0)" fill="#404254">
  <rect fill="#f2f5e9" fill-opacity="0.5" stroke="#606060" stroke-width=".5" x="0" y="0" width="60" height="60"/>
  <use id="zoomplus" xlink:href="#zoomPlus" x="17" y="9" onmousedown="handleZoom(evt,'in')"/>
  <use id="zoomminus" xlink:href="#zoomMin" x="42" y="9" onmousedown="handleZoom(evt,'out')"/>
  <use id="reset" xlink:href="#resetDef" x="30" y="36" onmousedown="handleReset()"/>
   <use id="arrowup" xlink:href="#arrowUp" x="0" y="0" onmousedown="handlePan(0,-1)"/>
  <use id="arrowright" xlink:href="#arrowRight" x="0" y="0" onmousedown="handlePan(1,0)"/>
  <use id="arrowdown" xlink:href="#arrowDown" x="0" y="0" onmousedown="handlePan(0,1)"/>
  <use id="arrowleft" xlink:href="#arrowLeft" x="0" y="0" onmousedown="handlePan(-1,0)"/>
</g>
<svg viewBox="0 0 15 15" width="100%" height="30px" preserveAspectRatio="xMaxYMin meet">
 <g id="arrow_out" transform="scale(0.3 0.3)">
  <a xlink:href="classsensor__msgs_1_1msg_1_1PointField_a9af638b4180b9e3deb8cd7cf0ec2b4ee_icgraph_org.svg" target="_base">
   <rect id="button" ry="5" rx="5" y="6" x="6" height="38" width="38"
        fill="#f2f5e9" fill-opacity="0.5" stroke="#606060" stroke-width="1.0"/>
   <path id="arrow"
     d="M 11.500037,31.436501 C 11.940474,20.09759 22.043105,11.32322 32.158766,21.979434 L 37.068811,17.246167 C 37.068811,17.246167 37.088388,32 37.088388,32 L 22.160133,31.978069 C 22.160133,31.978069 26.997745,27.140456 26.997745,27.140456 C 18.528582,18.264221 13.291696,25.230495 11.500037,31.436501 z"
     style="fill:#404040;"/>
  </a>
 </g>
</svg>

<style type='text/css'>
<![CDATA[
[data-mouse-over-selected='false'] { opacity: 0.7; }
[data-mouse-over-selected='true']  { opacity: 1.0; }
]]>
</style>
<script type="application/ecmascript"><![CDATA[
document.addEventListener('DOMContentLoaded', (event) => {
  highlightEdges();
  highlightAdjacentNodes();
});
]]></script>
</svg>
