<?xml version="1.0" encoding="UTF-8" standalone="no"?>
<!DOCTYPE svg PUBLIC "-//W3C//DTD SVG 1.1//EN"
 "http://www.w3.org/Graphics/SVG/1.1/DTD/svg11.dtd">
<!-- Generated by graphviz version 8.1.0 (20230707.0739)
 -->
<!-- Title: carla::client::Actor::SetActorDead Pages: 1 -->
<svg width="570pt" height="106pt"
 viewBox="0.00 0.00 570.00 106.00" xmlns="http://www.w3.org/2000/svg" xmlns:xlink="http://www.w3.org/1999/xlink">
<g id="graph0" class="graph" transform="scale(1 1) rotate(0) translate(4 102)">
<title>carla::client::Actor::SetActorDead</title>
<!-- Node1 -->
<g id="Node000001" class="node">
<title>Node1</title>
<g id="a_Node000001"><a xlink:title="Set actor as dead and starts his life span">
<polygon fill="#999999" stroke="#666666" points="95.5,-73 0,-73 0,-41 95.5,-41 95.5,-73"/>
<text text-anchor="start" x="8" y="-59.5" font-family="Helvetica,sans-Serif" font-size="10.00">carla::client::Actor</text>
<text text-anchor="middle" x="47.75" y="-47.5" font-family="Helvetica,sans-Serif" font-size="10.00">::SetActorDead</text>
</a>
</g>
</g>
<!-- Node2 -->
<g id="Node000002" class="node">
<title>Node2</title>
<g id="a_Node000002"><a xlink:href="../../d2/d06/classcarla_1_1client_1_1detail_1_1ActorState.html#a520d5ef7284ded86a1d96a346f3516aa" target="_top" xlink:title=" ">
<polygon fill="white" stroke="#666666" points="258.12,-98 132.62,-98 132.62,-66 258.12,-66 258.12,-98"/>
<text text-anchor="start" x="140.62" y="-84.5" font-family="Helvetica,sans-Serif" font-size="10.00">carla::client::detail</text>
<text text-anchor="middle" x="195.38" y="-72.5" font-family="Helvetica,sans-Serif" font-size="10.00">::ActorState::GetEpisode</text>
</a>
</g>
</g>
<!-- Node1&#45;&gt;Node2 -->
<g id="edge1_Node000001_Node000002" class="edge">
<title>Node1&#45;&gt;Node2</title>
<g id="a_edge1_Node000001_Node000002"><a xlink:title=" ">
<path fill="none" stroke="#63b8ff" d="M95.63,-65.05C103.9,-66.47 112.69,-67.98 121.48,-69.49"/>
<polygon fill="#63b8ff" stroke="#63b8ff" points="120.73,-73.08 131.17,-71.32 121.91,-66.18 120.73,-73.08"/>
</a>
</g>
</g>
<!-- Node3 -->
<g id="Node000003" class="node">
<title>Node3</title>
<g id="a_Node000003"><a xlink:href="../../d1/dd3/classcarla_1_1client_1_1detail_1_1EpisodeProxyImpl.html#aaca857645fbeb6546b4a03a663bb65af" target="_top" xlink:title="Same as TryLock but never return nullptr.">
<polygon fill="white" stroke="#666666" points="259.25,-48 131.5,-48 131.5,-16 259.25,-16 259.25,-48"/>
<text text-anchor="start" x="139.5" y="-34.5" font-family="Helvetica,sans-Serif" font-size="10.00">carla::client::detail</text>
<text text-anchor="middle" x="195.38" y="-22.5" font-family="Helvetica,sans-Serif" font-size="10.00">::EpisodeProxyImpl::Lock</text>
</a>
</g>
</g>
<!-- Node1&#45;&gt;Node3 -->
<g id="edge2_Node000001_Node000003" class="edge">
<title>Node1&#45;&gt;Node3</title>
<g id="a_edge2_Node000001_Node000003"><a xlink:title=" ">
<path fill="none" stroke="#63b8ff" d="M95.63,-48.95C103.58,-47.59 112,-46.14 120.45,-44.69"/>
<polygon fill="#63b8ff" stroke="#63b8ff" points="120.86,-48 130.12,-42.86 119.68,-41.1 120.86,-48"/>
</a>
</g>
</g>
<!-- Node4 -->
<g id="Node000004" class="node">
<title>Node4</title>
<g id="a_Node000004"><a xlink:href="../../d8/dcd/namespacecarla_1_1client_1_1detail.html#aa47f72a521d97fe3574a56e808b509d8" target="_top" xlink:title=" ">
<polygon fill="white" stroke="#666666" points="399.75,-70 304.25,-70 304.25,-38 399.75,-38 399.75,-70"/>
<text text-anchor="start" x="312.25" y="-56.5" font-family="Helvetica,sans-Serif" font-size="10.00">carla::client::detail</text>
<text text-anchor="middle" x="352" y="-44.5" font-family="Helvetica,sans-Serif" font-size="10.00">::Load</text>
</a>
</g>
</g>
<!-- Node3&#45;&gt;Node4 -->
<g id="edge3_Node000003_Node000004" class="edge">
<title>Node3&#45;&gt;Node4</title>
<g id="a_edge3_Node000003_Node000004"><a xlink:title=" ">
<path fill="none" stroke="#63b8ff" d="M259.71,-41.01C270.85,-42.6 282.38,-44.24 293.35,-45.8"/>
<polygon fill="#63b8ff" stroke="#63b8ff" points="292.7,-49.38 303.09,-47.33 293.69,-42.45 292.7,-49.38"/>
</a>
</g>
</g>
<!-- Node6 -->
<g id="Node000006" class="node">
<title>Node6</title>
<g id="a_Node000006"><a xlink:href="../../d9/d36/namespacecarla.html#a23602ab663165210a7757d6108f6b3cd" target="_top" xlink:title=" ">
<polygon fill="white" stroke="#666666" points="408.75,-20 295.25,-20 295.25,0 408.75,0 408.75,-20"/>
<text text-anchor="middle" x="352" y="-6.5" font-family="Helvetica,sans-Serif" font-size="10.00">carla::throw_exception</text>
</a>
</g>
</g>
<!-- Node3&#45;&gt;Node6 -->
<g id="edge5_Node000003_Node000006" class="edge">
<title>Node3&#45;&gt;Node6</title>
<g id="a_edge5_Node000003_Node000006"><a xlink:title=" ">
<path fill="none" stroke="#63b8ff" d="M259.71,-22.99C267.83,-21.83 276.16,-20.65 284.33,-19.49"/>
<polygon fill="#63b8ff" stroke="#63b8ff" points="284.54,-22.85 293.95,-17.98 283.55,-15.92 284.54,-22.85"/>
</a>
</g>
</g>
<!-- Node5 -->
<g id="Node000005" class="node">
<title>Node5</title>
<g id="a_Node000005"><a xlink:href="../../d2/dcf/classcarla_1_1AtomicSharedPtr.html#a7bb0b8af178b36c923fedac384b3aad4" target="_top" xlink:title=" ">
<polygon fill="white" stroke="#666666" points="562,-70 444.75,-70 444.75,-38 562,-38 562,-70"/>
<text text-anchor="start" x="452.75" y="-56.5" font-family="Helvetica,sans-Serif" font-size="10.00">carla::AtomicSharedPtr</text>
<text text-anchor="middle" x="503.38" y="-44.5" font-family="Helvetica,sans-Serif" font-size="10.00">::load</text>
</a>
</g>
</g>
<!-- Node4&#45;&gt;Node5 -->
<g id="edge4_Node000004_Node000005" class="edge">
<title>Node4&#45;&gt;Node5</title>
<g id="a_edge4_Node000004_Node000005"><a xlink:title=" ">
<path fill="none" stroke="#63b8ff" d="M399.85,-54C410.55,-54 422.14,-54 433.54,-54"/>
<polygon fill="#63b8ff" stroke="#63b8ff" points="433.39,-57.5 443.39,-54 433.39,-50.5 433.39,-57.5"/>
</a>
</g>
</g>
</g>
</svg>
