<?xml version="1.0" encoding="UTF-8" standalone="no"?>
<!DOCTYPE svg PUBLIC "-//W3C//DTD SVG 1.1//EN"
 "http://www.w3.org/Graphics/SVG/1.1/DTD/svg11.dtd">
<!-- Generated by graphviz version 8.1.0 (20230707.0739)
 -->
<!-- Title: carla::client::Actor::GetAngularVelocity Pages: 1 -->
<svg width="599pt" height="40pt"
 viewBox="0.00 0.00 598.50 40.00" xmlns="http://www.w3.org/2000/svg" xmlns:xlink="http://www.w3.org/1999/xlink">
<g id="graph0" class="graph" transform="scale(1 1) rotate(0) translate(4 36)">
<title>carla::client::Actor::GetAngularVelocity</title>
<!-- Node1 -->
<g id="Node000001" class="node">
<title>Node1</title>
<g id="a_Node000001"><a xlink:title="Return the current 3D angular velocity of the actor.">
<polygon fill="#999999" stroke="#666666" points="590.5,-32 484.5,-32 484.5,0 590.5,0 590.5,-32"/>
<text text-anchor="start" x="492.5" y="-18.5" font-family="Helvetica,sans-Serif" font-size="10.00">carla::client::Actor</text>
<text text-anchor="middle" x="537.5" y="-6.5" font-family="Helvetica,sans-Serif" font-size="10.00">::GetAngularVelocity</text>
</a>
</g>
</g>
<!-- Node2 -->
<g id="Node000002" class="node">
<title>Node2</title>
<g id="a_Node000002"><a xlink:href="../../dc/d07/classcarla_1_1rss_1_1RssCheck.html#a25f1eac0cc58d2c2c0b409832b59960a" target="_top" xlink:title="calculate the heading change from the actor">
<polygon fill="white" stroke="#666666" points="448.5,-32 341,-32 341,0 448.5,0 448.5,-32"/>
<text text-anchor="start" x="349" y="-18.5" font-family="Helvetica,sans-Serif" font-size="10.00">carla::rss::RssCheck</text>
<text text-anchor="middle" x="394.75" y="-6.5" font-family="Helvetica,sans-Serif" font-size="10.00">::GetHeadingChange</text>
</a>
</g>
</g>
<!-- Node1&#45;&gt;Node2 -->
<g id="edge1_Node000001_Node000002" class="edge">
<title>Node1&#45;&gt;Node2</title>
<g id="a_edge1_Node000001_Node000002"><a xlink:title=" ">
<path fill="none" stroke="#63b8ff" d="M473.36,-16C465.11,-16 456.73,-16 448.67,-16"/>
<polygon fill="#63b8ff" stroke="#63b8ff" points="473.09,-19.5 483.09,-16 473.09,-12.5 473.09,-19.5"/>
</a>
</g>
</g>
<!-- Node3 -->
<g id="Node000003" class="node">
<title>Node3</title>
<g id="a_Node000003"><a xlink:href="../../dc/d07/classcarla_1_1rss_1_1RssCheck.html#aaaf0a0f73759f525137e227af98f5074" target="_top" xlink:title="calculate ego vehicle dynamics on the route">
<polygon fill="white" stroke="#666666" points="305,-32 143.5,-32 143.5,0 305,0 305,-32"/>
<text text-anchor="start" x="151.5" y="-18.5" font-family="Helvetica,sans-Serif" font-size="10.00">carla::rss::RssCheck</text>
<text text-anchor="middle" x="224.25" y="-6.5" font-family="Helvetica,sans-Serif" font-size="10.00">::CalculateEgoDynamicsOnRoute</text>
</a>
</g>
</g>
<!-- Node2&#45;&gt;Node3 -->
<g id="edge2_Node000002_Node000003" class="edge">
<title>Node2&#45;&gt;Node3</title>
<g id="a_edge2_Node000002_Node000003"><a xlink:title=" ">
<path fill="none" stroke="#63b8ff" d="M330.08,-16C322.01,-16 313.67,-16 305.38,-16"/>
<polygon fill="#63b8ff" stroke="#63b8ff" points="329.9,-19.5 339.9,-16 329.9,-12.5 329.9,-19.5"/>
</a>
</g>
</g>
<!-- Node4 -->
<g id="Node000004" class="node">
<title>Node4</title>
<g id="a_Node000004"><a xlink:href="../../dc/d07/classcarla_1_1rss_1_1RssCheck.html#a7ddb47aaeb4d941c95e5b2fce91186b7" target="_top" xlink:title="main function to trigger the RSS check at a certain point in time">
<polygon fill="white" stroke="#666666" points="107.5,-32 0,-32 0,0 107.5,0 107.5,-32"/>
<text text-anchor="start" x="8" y="-18.5" font-family="Helvetica,sans-Serif" font-size="10.00">carla::rss::RssCheck</text>
<text text-anchor="middle" x="53.75" y="-6.5" font-family="Helvetica,sans-Serif" font-size="10.00">::CheckObjects</text>
</a>
</g>
</g>
<!-- Node3&#45;&gt;Node4 -->
<g id="edge3_Node000003_Node000004" class="edge">
<title>Node3&#45;&gt;Node4</title>
<g id="a_edge3_Node000003_Node000004"><a xlink:title=" ">
<path fill="none" stroke="#63b8ff" d="M132.68,-16C124.19,-16 115.8,-16 107.83,-16"/>
<polygon fill="#63b8ff" stroke="#63b8ff" points="132.44,-19.5 142.44,-16 132.44,-12.5 132.44,-19.5"/>
</a>
</g>
</g>
</g>
</svg>
