<?xml version="1.0" encoding="UTF-8" standalone="no"?>
<!DOCTYPE svg PUBLIC "-//W3C//DTD SVG 1.1//EN"
 "http://www.w3.org/Graphics/SVG/1.1/DTD/svg11.dtd">
<!-- Generated by graphviz version 8.1.0 (20230707.0739)
 -->
<!-- Title: CarlaRecorderAnimVehicleWheels::Add Pages: 1 -->
<!--zoomable 140 -->

<svg id="main" version="1.1" xmlns="http://www.w3.org/2000/svg" xmlns:xlink="http://www.w3.org/1999/xlink" xml:space="preserve" onload="init(evt)">
<style type="text/css"><![CDATA[
.node, .edge {opacity: 0.7;}
.node.selected, .edge.selected {opacity: 1;}
.edge:hover path { stroke: red; }
.edge:hover polygon { stroke: red; fill: red; }
]]></style>

<defs>
  <circle id="rim" cx="0" cy="0" r="7"/>
  <circle id="rim2" cx="0" cy="0" r="3.5"/>
  <g id="zoomPlus">
    <use xlink:href="#rim" fill="#404040"><set attributeName="fill" to="#808080" begin="zoomplus.mouseover" end="zoomplus.mouseout"/></use>
    <path d="M-4,0h8M0,-4v8" fill="none" stroke="white" stroke-width="1.5" pointer-events="none"/>
  </g>
  <g id="zoomMin">
    <use xlink:href="#rim" fill="#404040"><set attributeName="fill" to="#808080" begin="zoomminus.mouseover" end="zoomminus.mouseout"/></use>
    <path d="M-4,0h8" fill="none" stroke="white" stroke-width="1.5" pointer-events="none"/>
  </g>
  <g id="arrowUp" transform="translate(30 24)">
    <use xlink:href="#rim"/>
    <path pointer-events="none" fill="none" stroke="white" stroke-width="1.5" d="M0,-3.0v7 M-2.5,-0.5L0,-3.0L2.5,-0.5"/>
  </g>
  <g id="arrowRight" transform="rotate(90) translate(36 -43)">
    <use xlink:href="#rim"/>
    <path pointer-events="none" fill="none" stroke="white" stroke-width="1.5" d="M0,-3.0v7 M-2.5,-0.5L0,-3.0L2.5,-0.5"/>
  </g>
  <g id="arrowDown" transform="rotate(180) translate(-30 -48)">
    <use xlink:href="#rim"/>
    <path pointer-events="none" fill="none" stroke="white" stroke-width="1.5" d="M0,-3.0v7 M-2.5,-0.5L0,-3.0L2.5,-0.5"/>
  </g>
  <g id="arrowLeft" transform="rotate(270) translate(-36 17)">
    <use xlink:href="#rim"/>
    <path pointer-events="none" fill="none" stroke="white" stroke-width="1.5" d="M0,-3.0v7 M-2.5,-0.5L0,-3.0L2.5,-0.5"/>
  </g>
  <g id="resetDef">
    <use xlink:href="#rim2" fill="#404040"><set attributeName="fill" to="#808080" begin="reset.mouseover" end="reset.mouseout"/></use>
  </g>
</defs>
<script type="application/ecmascript">
var viewWidth = 1057;
var viewHeight = 140;
var sectionId = 'dynsection-1';
</script>
<script type="application/ecmascript" xlink:href="../../svg.min.js"/>
<svg id="graph" class="graph">
<g id="viewport">
<title>CarlaRecorderAnimVehicleWheels::Add</title>
<!-- Node1 -->
<g id="Node000001" class="node">
<title>Node1</title>
<g id="a_Node000001"><a xlink:title=" ">
<polygon fill="#999999" stroke="#666666" points="1048.5,-82 916.25,-82 916.25,-50 1048.5,-50 1048.5,-82"/>
<text text-anchor="start" x="924.25" y="-68.5" font-family="Helvetica,sans-Serif" font-size="10.00">CarlaRecorderAnimVehicle</text>
<text text-anchor="middle" x="982.38" y="-56.5" font-family="Helvetica,sans-Serif" font-size="10.00">Wheels::Add</text>
</a>
</g>
</g>
<!-- Node2 -->
<g id="Node000002" class="node">
<title>Node2</title>
<g id="a_Node000002"><a xlink:href="../../de/db4/classFFrameData.html#ab2f6c1ae16eb1d43c54346c993a3fba4" target="_top" xlink:title=" ">
<polygon fill="white" stroke="#666666" points="873.12,-132 725.12,-132 725.12,-100 873.12,-100 873.12,-132"/>
<text text-anchor="start" x="733.12" y="-118.5" font-family="Helvetica,sans-Serif" font-size="10.00">FFrameData::AddAnimVehicle</text>
<text text-anchor="middle" x="799.12" y="-106.5" font-family="Helvetica,sans-Serif" font-size="10.00">Wheels</text>
</a>
</g>
</g>
<!-- Node1&#45;&gt;Node2 -->
<g id="edge1_Node000001_Node000002" class="edge">
<title>Node1&#45;&gt;Node2</title>
<g id="a_edge1_Node000001_Node000002"><a xlink:title=" ">
<path fill="none" stroke="#63b8ff" d="M911.33,-85.32C894.3,-90.02 876.25,-95 859.76,-99.55"/>
<polygon fill="#63b8ff" stroke="#63b8ff" points="912.07,-88.47 920.78,-82.44 910.21,-81.73 912.07,-88.47"/>
</a>
</g>
</g>
<!-- Node7 -->
<g id="Node000007" class="node">
<title>Node7</title>
<g id="a_Node000007"><a xlink:href="../../dd/db9/classACarlaRecorder.html#a0d2ceccf0e02007b378089d65ac33463" target="_top" xlink:title=" ">
<polygon fill="white" stroke="#666666" points="880.25,-82 718,-82 718,-50 880.25,-50 880.25,-82"/>
<text text-anchor="start" x="726" y="-68.5" font-family="Helvetica,sans-Serif" font-size="10.00">ACarlaRecorder::AddAnimVehicle</text>
<text text-anchor="middle" x="799.12" y="-56.5" font-family="Helvetica,sans-Serif" font-size="10.00">Wheels</text>
</a>
</g>
</g>
<!-- Node1&#45;&gt;Node7 -->
<g id="edge6_Node000001_Node000007" class="edge">
<title>Node1&#45;&gt;Node7</title>
<g id="a_edge6_Node000001_Node000007"><a xlink:title=" ">
<path fill="none" stroke="#63b8ff" d="M905.05,-66C896.98,-66 888.75,-66 880.63,-66"/>
<polygon fill="#63b8ff" stroke="#63b8ff" points="904.94,-69.5 914.94,-66 904.94,-62.5 904.94,-69.5"/>
</a>
</g>
</g>
<!-- Node10 -->
<g id="Node000010" class="node">
<title>Node10</title>
<g id="a_Node000010"><a xlink:href="../../d6/dd8/classCarlaRecorderAnimVehicleWheels.html#aaee7a1b144e070500a1dcb2dc64bfcde" target="_top" xlink:title=" ">
<polygon fill="white" stroke="#666666" points="865.25,-32 733,-32 733,0 865.25,0 865.25,-32"/>
<text text-anchor="start" x="741" y="-18.5" font-family="Helvetica,sans-Serif" font-size="10.00">CarlaRecorderAnimVehicle</text>
<text text-anchor="middle" x="799.12" y="-6.5" font-family="Helvetica,sans-Serif" font-size="10.00">Wheels::Read</text>
</a>
</g>
</g>
<!-- Node1&#45;&gt;Node10 -->
<g id="edge11_Node000001_Node000010" class="edge">
<title>Node1&#45;&gt;Node10</title>
<g id="a_edge11_Node000001_Node000010"><a xlink:title=" ">
<path fill="none" stroke="#63b8ff" d="M911.33,-46.68C894.3,-41.98 876.25,-37 859.76,-32.45"/>
<polygon fill="#63b8ff" stroke="#63b8ff" points="910.21,-50.27 920.78,-49.56 912.07,-43.53 910.21,-50.27"/>
</a>
</g>
</g>
<!-- Node3 -->
<g id="Node000003" class="node">
<title>Node3</title>
<g id="a_Node000003"><a xlink:href="../../de/db4/classFFrameData.html#a4b746433bc48707916f2dd4424fa5adb" target="_top" xlink:title=" ">
<polygon fill="white" stroke="#666666" points="682,-132 523.5,-132 523.5,-100 682,-100 682,-132"/>
<text text-anchor="start" x="531.5" y="-118.5" font-family="Helvetica,sans-Serif" font-size="10.00">FFrameData::AddVehicleWheels</text>
<text text-anchor="middle" x="602.75" y="-106.5" font-family="Helvetica,sans-Serif" font-size="10.00">Animation</text>
</a>
</g>
</g>
<!-- Node2&#45;&gt;Node3 -->
<g id="edge2_Node000002_Node000003" class="edge">
<title>Node2&#45;&gt;Node3</title>
<g id="a_edge2_Node000002_Node000003"><a xlink:title=" ">
<path fill="none" stroke="#63b8ff" d="M713.8,-116C703.3,-116 692.6,-116 682.2,-116"/>
<polygon fill="#63b8ff" stroke="#63b8ff" points="713.64,-119.5 723.64,-116 713.64,-112.5 713.64,-119.5"/>
</a>
</g>
</g>
<!-- Node4 -->
<g id="Node000004" class="node">
<title>Node4</title>
<g id="a_Node000004"><a xlink:href="../../de/db4/classFFrameData.html#a13396099d7e1c32df563893f7d0b35be" target="_top" xlink:title=" ">
<polygon fill="white" stroke="#666666" points="487.5,-126 347.75,-126 347.75,-106 487.5,-106 487.5,-126"/>
<text text-anchor="middle" x="417.62" y="-112.5" font-family="Helvetica,sans-Serif" font-size="10.00">FFrameData::GetFrameData</text>
</a>
</g>
</g>
<!-- Node3&#45;&gt;Node4 -->
<g id="edge3_Node000003_Node000004" class="edge">
<title>Node3&#45;&gt;Node4</title>
<g id="a_edge3_Node000003_Node000004"><a xlink:title=" ">
<path fill="none" stroke="#63b8ff" d="M512.25,-116C504.02,-116 495.77,-116 487.77,-116"/>
<polygon fill="#63b8ff" stroke="#63b8ff" points="512.03,-119.5 522.03,-116 512.03,-112.5 512.03,-119.5"/>
</a>
</g>
</g>
<!-- Node5 -->
<g id="Node000005" class="node">
<title>Node5</title>
<g id="a_Node000005"><a xlink:href="../../dc/d49/classFCarlaEngine.html#aff440c7ba9d004e4c5b60125cc4d709b" target="_top" xlink:title=" ">
<polygon fill="white" stroke="#666666" points="311.75,-70 180.25,-70 180.25,-50 311.75,-50 311.75,-70"/>
<text text-anchor="middle" x="246" y="-56.5" font-family="Helvetica,sans-Serif" font-size="10.00">FCarlaEngine::OnPostTick</text>
</a>
</g>
</g>
<!-- Node4&#45;&gt;Node5 -->
<g id="edge4_Node000004_Node000005" class="edge">
<title>Node4&#45;&gt;Node5</title>
<g id="a_edge4_Node000004_Node000005"><a xlink:title=" ">
<path fill="none" stroke="#63b8ff" d="M366.07,-102.57C359.87,-100.77 353.65,-98.89 347.75,-97 322.2,-88.8 293.52,-78.12 273.31,-70.34"/>
<polygon fill="#63b8ff" stroke="#63b8ff" points="364.82,-106.14 375.4,-105.51 366.73,-99.41 364.82,-106.14"/>
</a>
</g>
</g>
<!-- Node6 -->
<g id="Node000006" class="node">
<title>Node6</title>
<g id="a_Node000006"><a xlink:href="../../dc/d49/classFCarlaEngine.html#ab8d13063cde985781237dd7da308227e" target="_top" xlink:title=" ">
<polygon fill="white" stroke="#666666" points="144.25,-48 0,-48 0,-28 144.25,-28 144.25,-48"/>
<text text-anchor="middle" x="72.12" y="-34.5" font-family="Helvetica,sans-Serif" font-size="10.00">FCarlaEngine::NotifyInitGame</text>
</a>
</g>
</g>
<!-- Node5&#45;&gt;Node6 -->
<g id="edge5_Node000005_Node000006" class="edge">
<title>Node5&#45;&gt;Node6</title>
<g id="a_edge5_Node000005_Node000006"><a xlink:title=" ">
<path fill="none" stroke="#63b8ff" d="M169.3,-50.31C161.06,-49.26 152.7,-48.19 144.52,-47.14"/>
<polygon fill="#63b8ff" stroke="#63b8ff" points="168.66,-53.88 179.02,-51.68 169.55,-46.94 168.66,-53.88"/>
</a>
</g>
</g>
<!-- Node8 -->
<g id="Node000008" class="node">
<title>Node8</title>
<g id="a_Node000008"><a xlink:href="../../dd/db9/classACarlaRecorder.html#a1addd4df329443d82bf3e1f9e2dbcc07" target="_top" xlink:title=" ">
<polygon fill="white" stroke="#666666" points="672.62,-80 532.88,-80 532.88,-48 672.62,-48 672.62,-80"/>
<text text-anchor="start" x="540.88" y="-66.5" font-family="Helvetica,sans-Serif" font-size="10.00">ACarlaRecorder::AddVehicle</text>
<text text-anchor="middle" x="602.75" y="-54.5" font-family="Helvetica,sans-Serif" font-size="10.00">WheelsAnimation</text>
</a>
</g>
</g>
<!-- Node7&#45;&gt;Node8 -->
<g id="edge7_Node000007_Node000008" class="edge">
<title>Node7&#45;&gt;Node8</title>
<g id="a_edge7_Node000007_Node000008"><a xlink:title=" ">
<path fill="none" stroke="#63b8ff" d="M706.81,-65.06C695.44,-64.94 683.96,-64.83 673,-64.71"/>
<polygon fill="#63b8ff" stroke="#63b8ff" points="706.63,-68.57 716.66,-65.17 706.7,-61.57 706.63,-68.57"/>
</a>
</g>
</g>
<!-- Node9 -->
<g id="Node000009" class="node">
<title>Node9</title>
<g id="a_Node000009"><a xlink:href="../../dd/db9/classACarlaRecorder.html#a1074f19dfe5b16a9e10b24ef35b26abc" target="_top" xlink:title=" ">
<polygon fill="white" stroke="#666666" points="478.12,-70 357.12,-70 357.12,-50 478.12,-50 478.12,-70"/>
<text text-anchor="middle" x="417.62" y="-56.5" font-family="Helvetica,sans-Serif" font-size="10.00">ACarlaRecorder::Ticking</text>
</a>
</g>
</g>
<!-- Node8&#45;&gt;Node9 -->
<g id="edge8_Node000008_Node000009" class="edge">
<title>Node8&#45;&gt;Node9</title>
<g id="a_edge8_Node000008_Node000009"><a xlink:title=" ">
<path fill="none" stroke="#63b8ff" d="M521.53,-62.25C507.03,-61.93 492.15,-61.61 478.37,-61.3"/>
<polygon fill="#63b8ff" stroke="#63b8ff" points="521.44,-65.77 531.52,-62.49 521.6,-58.77 521.44,-65.77"/>
</a>
</g>
</g>
<!-- Node9&#45;&gt;Node5 -->
<g id="edge9_Node000009_Node000005" class="edge">
<title>Node9&#45;&gt;Node5</title>
<g id="a_edge9_Node000009_Node000005"><a xlink:title=" ">
<path fill="none" stroke="#63b8ff" d="M346.13,-60C334.83,-60 323.19,-60 312.03,-60"/>
<polygon fill="#63b8ff" stroke="#63b8ff" points="345.82,-63.5 355.82,-60 345.82,-56.5 345.82,-63.5"/>
</a>
</g>
</g>
<!-- Node9&#45;&gt;Node9 -->
<g id="edge10_Node000009_Node000009" class="edge">
<title>Node9&#45;&gt;Node9</title>
<g id="a_edge10_Node000009_Node000009"><a xlink:title=" ">
<path fill="none" stroke="#63b8ff" d="M448.83,-80.43C445.74,-84.82 435.34,-88 417.62,-88 387.79,-88 378.7,-78.98 390.36,-70.34"/>
<polygon fill="#63b8ff" stroke="#63b8ff" points="451.79,-79.38 444.89,-71.34 445.27,-81.93 451.79,-79.38"/>
</a>
</g>
</g>
<!-- Node11 -->
<g id="Node000011" class="node">
<title>Node11</title>
<g id="a_Node000011"><a xlink:href="../../de/db4/classFFrameData.html#a1d60d134d0c4ed720a5dbfc8688559ce" target="_top" xlink:title=" ">
<polygon fill="white" stroke="#666666" points="295.25,-29 196.75,-29 196.75,-9 295.25,-9 295.25,-29"/>
<text text-anchor="middle" x="246" y="-15.5" font-family="Helvetica,sans-Serif" font-size="10.00">FFrameData::Read</text>
</a>
</g>
</g>
<!-- Node10&#45;&gt;Node11 -->
<g id="edge12_Node000010_Node000011" class="edge">
<title>Node10&#45;&gt;Node11</title>
<g id="a_edge12_Node000010_Node000011"><a xlink:title=" ">
<path fill="none" stroke="#63b8ff" d="M721.92,-16.41C606.84,-17.04 391.94,-18.21 295.74,-18.73"/>
<polygon fill="#63b8ff" stroke="#63b8ff" points="721.76,-19.91 731.74,-16.36 721.72,-12.91 721.76,-19.91"/>
</a>
</g>
</g>
<!-- Node11&#45;&gt;Node6 -->
<g id="edge13_Node000011_Node000006" class="edge">
<title>Node11&#45;&gt;Node6</title>
<g id="a_edge13_Node000011_Node000006"><a xlink:title=" ">
<path fill="none" stroke="#63b8ff" d="M185.76,-25.55C172.47,-27.02 158.24,-28.59 144.52,-30.11"/>
<polygon fill="#63b8ff" stroke="#63b8ff" points="186.11,-28.92 195.67,-24.34 185.34,-21.96 186.11,-28.92"/>
</a>
</g>
</g>
</g>
</svg>

<g id="navigator" transform="translate(0 0)" fill="#404254">
  <rect fill="#f2f5e9" fill-opacity="0.5" stroke="#606060" stroke-width=".5" x="0" y="0" width="60" height="60"/>
  <use id="zoomplus" xlink:href="#zoomPlus" x="17" y="9" onmousedown="handleZoom(evt,'in')"/>
  <use id="zoomminus" xlink:href="#zoomMin" x="42" y="9" onmousedown="handleZoom(evt,'out')"/>
  <use id="reset" xlink:href="#resetDef" x="30" y="36" onmousedown="handleReset()"/>
   <use id="arrowup" xlink:href="#arrowUp" x="0" y="0" onmousedown="handlePan(0,-1)"/>
  <use id="arrowright" xlink:href="#arrowRight" x="0" y="0" onmousedown="handlePan(1,0)"/>
  <use id="arrowdown" xlink:href="#arrowDown" x="0" y="0" onmousedown="handlePan(0,1)"/>
  <use id="arrowleft" xlink:href="#arrowLeft" x="0" y="0" onmousedown="handlePan(-1,0)"/>
</g>
<svg viewBox="0 0 15 15" width="100%" height="30px" preserveAspectRatio="xMaxYMin meet">
 <g id="arrow_out" transform="scale(0.3 0.3)">
  <a xlink:href="classCarlaRecorderAnimVehicleWheels_a5d0edd58d70c80f36a433e29cf6f12d6_icgraph_org.svg" target="_base">
   <rect id="button" ry="5" rx="5" y="6" x="6" height="38" width="38"
        fill="#f2f5e9" fill-opacity="0.5" stroke="#606060" stroke-width="1.0"/>
   <path id="arrow"
     d="M 11.500037,31.436501 C 11.940474,20.09759 22.043105,11.32322 32.158766,21.979434 L 37.068811,17.246167 C 37.068811,17.246167 37.088388,32 37.088388,32 L 22.160133,31.978069 C 22.160133,31.978069 26.997745,27.140456 26.997745,27.140456 C 18.528582,18.264221 13.291696,25.230495 11.500037,31.436501 z"
     style="fill:#404040;"/>
  </a>
 </g>
</svg>

<style type='text/css'>
<![CDATA[
[data-mouse-over-selected='false'] { opacity: 0.7; }
[data-mouse-over-selected='true']  { opacity: 1.0; }
]]>
</style>
<script type="application/ecmascript"><![CDATA[
document.addEventListener('DOMContentLoaded', (event) => {
  highlightEdges();
  highlightAdjacentNodes();
});
]]></script>
</svg>
