<?xml version="1.0" encoding="UTF-8" standalone="no"?>
<!DOCTYPE svg PUBLIC "-//W3C//DTD SVG 1.1//EN"
 "http://www.w3.org/Graphics/SVG/1.1/DTD/svg11.dtd">
<!-- Generated by graphviz version 8.1.0 (20230707.0739)
 -->
<!-- Title: carla::sensor::data::ImageTmpl::GetHeight Pages: 1 -->
<svg width="896pt" height="102pt"
 viewBox="0.00 0.00 896.00 102.00" xmlns="http://www.w3.org/2000/svg" xmlns:xlink="http://www.w3.org/1999/xlink">
<g id="graph0" class="graph" transform="scale(1 1) rotate(0) translate(4 98)">
<title>carla::sensor::data::ImageTmpl::GetHeight</title>
<!-- Node1 -->
<g id="Node000001" class="node">
<title>Node1</title>
<g id="a_Node000001"><a xlink:title="Get image height in pixels.">
<polygon fill="#999999" stroke="#666666" points="118.75,-60 0,-60 0,-28 118.75,-28 118.75,-60"/>
<text text-anchor="start" x="8" y="-46.5" font-family="Helvetica,sans-Serif" font-size="10.00">carla::sensor::data</text>
<text text-anchor="middle" x="59.38" y="-34.5" font-family="Helvetica,sans-Serif" font-size="10.00">::ImageTmpl::GetHeight</text>
</a>
</g>
</g>
<!-- Node2 -->
<g id="Node000002" class="node">
<title>Node2</title>
<g id="a_Node000002"><a xlink:href="../../df/d55/classcarla_1_1sensor_1_1data_1_1ImageTmpl.html#afdc0f33247d9775258c2cf82a64d8d33" target="_top" xlink:title=" ">
<polygon fill="white" stroke="#666666" points="276.5,-60 154.75,-60 154.75,-28 276.5,-28 276.5,-60"/>
<text text-anchor="start" x="162.75" y="-46.5" font-family="Helvetica,sans-Serif" font-size="10.00">carla::sensor::data</text>
<text text-anchor="middle" x="215.62" y="-34.5" font-family="Helvetica,sans-Serif" font-size="10.00">::ImageTmpl::GetHeader</text>
</a>
</g>
</g>
<!-- Node1&#45;&gt;Node2 -->
<g id="edge1_Node000001_Node000002" class="edge">
<title>Node1&#45;&gt;Node2</title>
<g id="a_edge1_Node000001_Node000002"><a xlink:title=" ">
<path fill="none" stroke="#63b8ff" d="M119.13,-44C127.18,-44 135.52,-44 143.75,-44"/>
<polygon fill="#63b8ff" stroke="#63b8ff" points="143.5,-47.5 153.5,-44 143.5,-40.5 143.5,-47.5"/>
</a>
</g>
</g>
<!-- Node3 -->
<g id="Node000003" class="node">
<title>Node3</title>
<g id="a_Node000003"><a xlink:href="../../db/dba/classcarla_1_1sensor_1_1s11n_1_1ImageSerializer.html#aa3fdfba42660f9865b1967194a34b755" target="_top" xlink:title=" ">
<polygon fill="white" stroke="#666666" points="459.38,-94 316.62,-94 316.62,-50 459.38,-50 459.38,-94"/>
<text text-anchor="start" x="324.62" y="-80.5" font-family="Helvetica,sans-Serif" font-size="10.00">carla::sensor::s11n</text>
<text text-anchor="start" x="324.62" y="-68.5" font-family="Helvetica,sans-Serif" font-size="10.00">::ImageSerializer::Deserialize</text>
<text text-anchor="middle" x="388" y="-56.5" font-family="Helvetica,sans-Serif" font-size="10.00">Header</text>
</a>
</g>
</g>
<!-- Node2&#45;&gt;Node3 -->
<g id="edge2_Node000002_Node000003" class="edge">
<title>Node2&#45;&gt;Node3</title>
<g id="a_edge2_Node000002_Node000003"><a xlink:title=" ">
<path fill="none" stroke="#63b8ff" d="M276.69,-53.87C286.12,-55.42 296,-57.04 305.81,-58.66"/>
<polygon fill="#63b8ff" stroke="#63b8ff" points="304.96,-62.23 315.4,-60.4 306.1,-55.32 304.96,-62.23"/>
</a>
</g>
</g>
<!-- Node7 -->
<g id="Node000007" class="node">
<title>Node7</title>
<g id="a_Node000007"><a xlink:href="../../d2/dcc/classcarla_1_1sensor_1_1data_1_1Array.html#a983393435e9f7b95abfa923448a831bd" target="_top" xlink:title=" ">
<polygon fill="white" stroke="#666666" points="463.5,-32 312.5,-32 312.5,0 463.5,0 463.5,-32"/>
<text text-anchor="start" x="320.5" y="-18.5" font-family="Helvetica,sans-Serif" font-size="10.00">carla::sensor::data</text>
<text text-anchor="middle" x="388" y="-6.5" font-family="Helvetica,sans-Serif" font-size="10.00">::Array&lt; PixelT &gt;::GetRawData</text>
</a>
</g>
</g>
<!-- Node2&#45;&gt;Node7 -->
<g id="edge6_Node000002_Node000007" class="edge">
<title>Node2&#45;&gt;Node7</title>
<g id="a_edge6_Node000002_Node000007"><a xlink:title=" ">
<path fill="none" stroke="#63b8ff" d="M276.69,-34.13C284.78,-32.8 293.19,-31.42 301.61,-30.03"/>
<polygon fill="#63b8ff" stroke="#63b8ff" points="301.95,-33.36 311.25,-28.29 300.81,-26.45 301.95,-33.36"/>
</a>
</g>
</g>
<!-- Node4 -->
<g id="Node000004" class="node">
<title>Node4</title>
<g id="a_Node000004"><a xlink:href="../../d3/da0/classcarla_1_1sensor_1_1RawData.html#ad29c6a9698aa66f593286f5e6fc601ea" target="_top" xlink:title="Begin iterator to the data generated by the sensor.">
<polygon fill="white" stroke="#666666" points="616.75,-88 499.5,-88 499.5,-56 616.75,-56 616.75,-88"/>
<text text-anchor="start" x="507.5" y="-74.5" font-family="Helvetica,sans-Serif" font-size="10.00">carla::sensor::RawData</text>
<text text-anchor="middle" x="558.12" y="-62.5" font-family="Helvetica,sans-Serif" font-size="10.00">::begin</text>
</a>
</g>
</g>
<!-- Node3&#45;&gt;Node4 -->
<g id="edge3_Node000003_Node000004" class="edge">
<title>Node3&#45;&gt;Node4</title>
<g id="a_edge3_Node000003_Node000004"><a xlink:title=" ">
<path fill="none" stroke="#63b8ff" d="M459.81,-72C469.23,-72 478.87,-72 488.26,-72"/>
<polygon fill="#63b8ff" stroke="#63b8ff" points="488.12,-75.5 498.12,-72 488.12,-68.5 488.12,-75.5"/>
</a>
</g>
</g>
<!-- Node5 -->
<g id="Node000005" class="node">
<title>Node5</title>
<g id="a_Node000005"><a xlink:href="../../d0/d0a/classcarla_1_1Buffer.html#a0afeda4355e6196d808ddf25142d5dbd" target="_top" xlink:title=" ">
<polygon fill="white" stroke="#666666" points="749.75,-82 652.75,-82 652.75,-62 749.75,-62 749.75,-82"/>
<text text-anchor="middle" x="701.25" y="-68.5" font-family="Helvetica,sans-Serif" font-size="10.00">carla::Buffer::begin</text>
</a>
</g>
</g>
<!-- Node4&#45;&gt;Node5 -->
<g id="edge4_Node000004_Node000005" class="edge">
<title>Node4&#45;&gt;Node5</title>
<g id="a_edge4_Node000004_Node000005"><a xlink:title=" ">
<path fill="none" stroke="#63b8ff" d="M616.93,-72C625.1,-72 633.5,-72 641.67,-72"/>
<polygon fill="#63b8ff" stroke="#63b8ff" points="641.65,-75.5 651.65,-72 641.65,-68.5 641.65,-75.5"/>
</a>
</g>
</g>
<!-- Node6 -->
<g id="Node000006" class="node">
<title>Node6</title>
<g id="a_Node000006"><a xlink:href="../../d0/d0a/classcarla_1_1Buffer.html#acbf9f37162db2ddffaf2ae2bfb9fd8a5" target="_top" xlink:title=" ">
<polygon fill="white" stroke="#666666" points="888,-82 785.75,-82 785.75,-62 888,-62 888,-82"/>
<text text-anchor="middle" x="836.88" y="-68.5" font-family="Helvetica,sans-Serif" font-size="10.00">carla::Buffer::cbegin</text>
</a>
</g>
</g>
<!-- Node5&#45;&gt;Node6 -->
<g id="edge5_Node000005_Node000006" class="edge">
<title>Node5&#45;&gt;Node6</title>
<g id="a_edge5_Node000005_Node000006"><a xlink:title=" ">
<path fill="none" stroke="#63b8ff" d="M750.11,-72C758.13,-72 766.55,-72 774.84,-72"/>
<polygon fill="#63b8ff" stroke="#63b8ff" points="774.64,-75.5 784.64,-72 774.64,-68.5 774.64,-75.5"/>
</a>
</g>
</g>
</g>
</svg>
