<?xml version="1.0" encoding="UTF-8" standalone="no"?>
<!DOCTYPE svg PUBLIC "-//W3C//DTD SVG 1.1//EN"
 "http://www.w3.org/Graphics/SVG/1.1/DTD/svg11.dtd">
<!-- Generated by graphviz version 8.1.0 (20230707.0739)
 -->
<!-- Title: carla::sensor::data::ImageTmpl::ImageTmpl Pages: 1 -->
<svg width="1055pt" height="149pt"
 viewBox="0.00 0.00 1054.50 149.00" xmlns="http://www.w3.org/2000/svg" xmlns:xlink="http://www.w3.org/1999/xlink">
<g id="graph0" class="graph" transform="scale(1 1) rotate(0) translate(4 145)">
<title>carla::sensor::data::ImageTmpl::ImageTmpl</title>
<!-- Node1 -->
<g id="Node000001" class="node">
<title>Node1</title>
<g id="a_Node000001"><a xlink:title=" ">
<polygon fill="#999999" stroke="#666666" points="122.5,-82 0,-82 0,-50 122.5,-50 122.5,-82"/>
<text text-anchor="start" x="8" y="-68.5" font-family="Helvetica,sans-Serif" font-size="10.00">carla::sensor::data</text>
<text text-anchor="middle" x="61.25" y="-56.5" font-family="Helvetica,sans-Serif" font-size="10.00">::ImageTmpl::ImageTmpl</text>
</a>
</g>
</g>
<!-- Node2 -->
<g id="Node000002" class="node">
<title>Node2</title>
<g id="a_Node000002"><a xlink:href="../../df/d55/classcarla_1_1sensor_1_1data_1_1ImageTmpl.html#a9862785df08e15410044833f9b5e9d1e" target="_top" xlink:title="Get image height in pixels.">
<polygon fill="white" stroke="#666666" points="277.25,-132 158.5,-132 158.5,-100 277.25,-100 277.25,-132"/>
<text text-anchor="start" x="166.5" y="-118.5" font-family="Helvetica,sans-Serif" font-size="10.00">carla::sensor::data</text>
<text text-anchor="middle" x="217.88" y="-106.5" font-family="Helvetica,sans-Serif" font-size="10.00">::ImageTmpl::GetHeight</text>
</a>
</g>
</g>
<!-- Node1&#45;&gt;Node2 -->
<g id="edge1_Node000001_Node000002" class="edge">
<title>Node1&#45;&gt;Node2</title>
<g id="a_edge1_Node000001_Node000002"><a xlink:title=" ">
<path fill="none" stroke="#63b8ff" d="M112.88,-82.37C126.56,-86.8 141.51,-91.63 155.7,-96.22"/>
<polygon fill="#63b8ff" stroke="#63b8ff" points="154.27,-99.76 164.87,-99.51 156.43,-93.1 154.27,-99.76"/>
</a>
</g>
</g>
<!-- Node9 -->
<g id="Node000009" class="node">
<title>Node9</title>
<g id="a_Node000009"><a xlink:href="../../df/d55/classcarla_1_1sensor_1_1data_1_1ImageTmpl.html#a882f2a8224953695857c2aab3d26dc7d" target="_top" xlink:title="Get image width in pixels.">
<polygon fill="white" stroke="#666666" points="276.12,-82 159.62,-82 159.62,-50 276.12,-50 276.12,-82"/>
<text text-anchor="start" x="167.62" y="-68.5" font-family="Helvetica,sans-Serif" font-size="10.00">carla::sensor::data</text>
<text text-anchor="middle" x="217.88" y="-56.5" font-family="Helvetica,sans-Serif" font-size="10.00">::ImageTmpl::GetWidth</text>
</a>
</g>
</g>
<!-- Node1&#45;&gt;Node9 -->
<g id="edge8_Node000001_Node000009" class="edge">
<title>Node1&#45;&gt;Node9</title>
<g id="a_edge8_Node000001_Node000009"><a xlink:title=" ">
<path fill="none" stroke="#63b8ff" d="M122.92,-66C131.21,-66 139.78,-66 148.2,-66"/>
<polygon fill="#63b8ff" stroke="#63b8ff" points="148.16,-69.5 158.16,-66 148.16,-62.5 148.16,-69.5"/>
</a>
</g>
</g>
<!-- Node10 -->
<g id="Node000010" class="node">
<title>Node10</title>
<g id="a_Node000010"><a xlink:href="../../d2/dcc/classcarla_1_1sensor_1_1data_1_1Array.html#aa74c92285dda9ebeba4094ef12b6f50b" target="_top" xlink:title=" ">
<polygon fill="white" stroke="#666666" points="275,-32 160.75,-32 160.75,0 275,0 275,-32"/>
<text text-anchor="start" x="168.75" y="-18.5" font-family="Helvetica,sans-Serif" font-size="10.00">carla::sensor::data</text>
<text text-anchor="middle" x="217.88" y="-6.5" font-family="Helvetica,sans-Serif" font-size="10.00">::Array&lt; PixelT &gt;::size</text>
</a>
</g>
</g>
<!-- Node1&#45;&gt;Node10 -->
<g id="edge10_Node000001_Node000010" class="edge">
<title>Node1&#45;&gt;Node10</title>
<g id="a_edge10_Node000001_Node000010"><a xlink:title=" ">
<path fill="none" stroke="#63b8ff" d="M112.88,-49.63C126.56,-45.2 141.51,-40.37 155.7,-35.78"/>
<polygon fill="#63b8ff" stroke="#63b8ff" points="156.43,-38.9 164.87,-32.49 154.27,-32.24 156.43,-38.9"/>
</a>
</g>
</g>
<!-- Node3 -->
<g id="Node000003" class="node">
<title>Node3</title>
<g id="a_Node000003"><a xlink:href="../../df/d55/classcarla_1_1sensor_1_1data_1_1ImageTmpl.html#afdc0f33247d9775258c2cf82a64d8d33" target="_top" xlink:title=" ">
<polygon fill="white" stroke="#666666" points="435,-107 313.25,-107 313.25,-75 435,-75 435,-107"/>
<text text-anchor="start" x="321.25" y="-93.5" font-family="Helvetica,sans-Serif" font-size="10.00">carla::sensor::data</text>
<text text-anchor="middle" x="374.12" y="-81.5" font-family="Helvetica,sans-Serif" font-size="10.00">::ImageTmpl::GetHeader</text>
</a>
</g>
</g>
<!-- Node2&#45;&gt;Node3 -->
<g id="edge2_Node000002_Node000003" class="edge">
<title>Node2&#45;&gt;Node3</title>
<g id="a_edge2_Node000002_Node000003"><a xlink:title=" ">
<path fill="none" stroke="#63b8ff" d="M277.63,-106.48C285.68,-105.17 294.02,-103.82 302.25,-102.49"/>
<polygon fill="#63b8ff" stroke="#63b8ff" points="302.69,-105.8 312,-100.75 301.57,-98.89 302.69,-105.8"/>
</a>
</g>
</g>
<!-- Node4 -->
<g id="Node000004" class="node">
<title>Node4</title>
<g id="a_Node000004"><a xlink:href="../../db/dba/classcarla_1_1sensor_1_1s11n_1_1ImageSerializer.html#aa3fdfba42660f9865b1967194a34b755" target="_top" xlink:title=" ">
<polygon fill="white" stroke="#666666" points="617.88,-141 475.12,-141 475.12,-97 617.88,-97 617.88,-141"/>
<text text-anchor="start" x="483.12" y="-127.5" font-family="Helvetica,sans-Serif" font-size="10.00">carla::sensor::s11n</text>
<text text-anchor="start" x="483.12" y="-115.5" font-family="Helvetica,sans-Serif" font-size="10.00">::ImageSerializer::Deserialize</text>
<text text-anchor="middle" x="546.5" y="-103.5" font-family="Helvetica,sans-Serif" font-size="10.00">Header</text>
</a>
</g>
</g>
<!-- Node3&#45;&gt;Node4 -->
<g id="edge3_Node000003_Node000004" class="edge">
<title>Node3&#45;&gt;Node4</title>
<g id="a_edge3_Node000003_Node000004"><a xlink:title=" ">
<path fill="none" stroke="#63b8ff" d="M435.19,-100.87C444.62,-102.42 454.5,-104.04 464.31,-105.66"/>
<polygon fill="#63b8ff" stroke="#63b8ff" points="463.46,-109.23 473.9,-107.4 464.6,-102.32 463.46,-109.23"/>
</a>
</g>
</g>
<!-- Node8 -->
<g id="Node000008" class="node">
<title>Node8</title>
<g id="a_Node000008"><a xlink:href="../../d2/dcc/classcarla_1_1sensor_1_1data_1_1Array.html#a983393435e9f7b95abfa923448a831bd" target="_top" xlink:title=" ">
<polygon fill="white" stroke="#666666" points="622,-79 471,-79 471,-47 622,-47 622,-79"/>
<text text-anchor="start" x="479" y="-65.5" font-family="Helvetica,sans-Serif" font-size="10.00">carla::sensor::data</text>
<text text-anchor="middle" x="546.5" y="-53.5" font-family="Helvetica,sans-Serif" font-size="10.00">::Array&lt; PixelT &gt;::GetRawData</text>
</a>
</g>
</g>
<!-- Node3&#45;&gt;Node8 -->
<g id="edge7_Node000003_Node000008" class="edge">
<title>Node3&#45;&gt;Node8</title>
<g id="a_edge7_Node000003_Node000008"><a xlink:title=" ">
<path fill="none" stroke="#63b8ff" d="M435.19,-81.13C443.28,-79.8 451.69,-78.42 460.11,-77.03"/>
<polygon fill="#63b8ff" stroke="#63b8ff" points="460.45,-80.36 469.75,-75.29 459.31,-73.45 460.45,-80.36"/>
</a>
</g>
</g>
<!-- Node5 -->
<g id="Node000005" class="node">
<title>Node5</title>
<g id="a_Node000005"><a xlink:href="../../d3/da0/classcarla_1_1sensor_1_1RawData.html#ad29c6a9698aa66f593286f5e6fc601ea" target="_top" xlink:title="Begin iterator to the data generated by the sensor.">
<polygon fill="white" stroke="#666666" points="775.25,-135 658,-135 658,-103 775.25,-103 775.25,-135"/>
<text text-anchor="start" x="666" y="-121.5" font-family="Helvetica,sans-Serif" font-size="10.00">carla::sensor::RawData</text>
<text text-anchor="middle" x="716.62" y="-109.5" font-family="Helvetica,sans-Serif" font-size="10.00">::begin</text>
</a>
</g>
</g>
<!-- Node4&#45;&gt;Node5 -->
<g id="edge4_Node000004_Node000005" class="edge">
<title>Node4&#45;&gt;Node5</title>
<g id="a_edge4_Node000004_Node000005"><a xlink:title=" ">
<path fill="none" stroke="#63b8ff" d="M618.31,-119C627.73,-119 637.37,-119 646.76,-119"/>
<polygon fill="#63b8ff" stroke="#63b8ff" points="646.62,-122.5 656.62,-119 646.62,-115.5 646.62,-122.5"/>
</a>
</g>
</g>
<!-- Node6 -->
<g id="Node000006" class="node">
<title>Node6</title>
<g id="a_Node000006"><a xlink:href="../../d0/d0a/classcarla_1_1Buffer.html#a0afeda4355e6196d808ddf25142d5dbd" target="_top" xlink:title=" ">
<polygon fill="white" stroke="#666666" points="908.25,-129 811.25,-129 811.25,-109 908.25,-109 908.25,-129"/>
<text text-anchor="middle" x="859.75" y="-115.5" font-family="Helvetica,sans-Serif" font-size="10.00">carla::Buffer::begin</text>
</a>
</g>
</g>
<!-- Node5&#45;&gt;Node6 -->
<g id="edge5_Node000005_Node000006" class="edge">
<title>Node5&#45;&gt;Node6</title>
<g id="a_edge5_Node000005_Node000006"><a xlink:title=" ">
<path fill="none" stroke="#63b8ff" d="M775.43,-119C783.6,-119 792,-119 800.17,-119"/>
<polygon fill="#63b8ff" stroke="#63b8ff" points="800.15,-122.5 810.15,-119 800.15,-115.5 800.15,-122.5"/>
</a>
</g>
</g>
<!-- Node7 -->
<g id="Node000007" class="node">
<title>Node7</title>
<g id="a_Node000007"><a xlink:href="../../d0/d0a/classcarla_1_1Buffer.html#acbf9f37162db2ddffaf2ae2bfb9fd8a5" target="_top" xlink:title=" ">
<polygon fill="white" stroke="#666666" points="1046.5,-129 944.25,-129 944.25,-109 1046.5,-109 1046.5,-129"/>
<text text-anchor="middle" x="995.38" y="-115.5" font-family="Helvetica,sans-Serif" font-size="10.00">carla::Buffer::cbegin</text>
</a>
</g>
</g>
<!-- Node6&#45;&gt;Node7 -->
<g id="edge6_Node000006_Node000007" class="edge">
<title>Node6&#45;&gt;Node7</title>
<g id="a_edge6_Node000006_Node000007"><a xlink:title=" ">
<path fill="none" stroke="#63b8ff" d="M908.61,-119C916.63,-119 925.05,-119 933.34,-119"/>
<polygon fill="#63b8ff" stroke="#63b8ff" points="933.14,-122.5 943.14,-119 933.14,-115.5 933.14,-122.5"/>
</a>
</g>
</g>
<!-- Node9&#45;&gt;Node3 -->
<g id="edge9_Node000009_Node000003" class="edge">
<title>Node9&#45;&gt;Node3</title>
<g id="a_edge9_Node000009_Node000003"><a xlink:title=" ">
<path fill="none" stroke="#63b8ff" d="M276.31,-75.31C284.68,-76.67 293.39,-78.08 301.99,-79.47"/>
<polygon fill="#63b8ff" stroke="#63b8ff" points="301.37,-83.08 311.8,-81.22 302.49,-76.17 301.37,-83.08"/>
</a>
</g>
</g>
</g>
</svg>
