<?xml version="1.0" encoding="UTF-8" standalone="no"?>
<!DOCTYPE svg PUBLIC "-//W3C//DTD SVG 1.1//EN"
 "http://www.w3.org/Graphics/SVG/1.1/DTD/svg11.dtd">
<!-- Generated by graphviz version 8.1.0 (20230707.0739)
 -->
<!-- Title: UChronoMovementComponent::OnVehicleOverlap Pages: 1 -->
<svg width="1923pt" height="245pt"
 viewBox="0.00 0.00 1923.25 244.93" xmlns="http://www.w3.org/2000/svg" xmlns:xlink="http://www.w3.org/1999/xlink">
<g id="graph0" class="graph" transform="scale(1 1) rotate(0) translate(4 240.93)">
<title>UChronoMovementComponent::OnVehicleOverlap</title>
<!-- Node1 -->
<g id="Node000001" class="node">
<title>Node1</title>
<g id="a_Node000001"><a xlink:title=" ">
<polygon fill="#999999" stroke="#666666" points="147.25,-82 0,-82 0,-50 147.25,-50 147.25,-82"/>
<text text-anchor="start" x="8" y="-68.5" font-family="Helvetica,sans-Serif" font-size="10.00">UChronoMovementComponent</text>
<text text-anchor="middle" x="73.62" y="-56.5" font-family="Helvetica,sans-Serif" font-size="10.00">::OnVehicleOverlap</text>
</a>
</g>
</g>
<!-- Node2 -->
<g id="Node000002" class="node">
<title>Node2</title>
<g id="a_Node000002"><a xlink:href="../../dd/d96/classUChronoMovementComponent.html#a856b9866205a366212dcb5ba6bac0983" target="_top" xlink:title=" ">
<polygon fill="white" stroke="#666666" points="330.5,-82 183.25,-82 183.25,-50 330.5,-50 330.5,-82"/>
<text text-anchor="start" x="191.25" y="-68.5" font-family="Helvetica,sans-Serif" font-size="10.00">UChronoMovementComponent</text>
<text text-anchor="middle" x="256.88" y="-56.5" font-family="Helvetica,sans-Serif" font-size="10.00">::DisableChronoPhysics</text>
</a>
</g>
</g>
<!-- Node1&#45;&gt;Node2 -->
<g id="edge1_Node000001_Node000002" class="edge">
<title>Node1&#45;&gt;Node2</title>
<g id="a_edge1_Node000001_Node000002"><a xlink:title=" ">
<path fill="none" stroke="#63b8ff" d="M147.56,-59.37C155.54,-59.26 163.71,-59.23 171.81,-59.27"/>
<polygon fill="#63b8ff" stroke="#63b8ff" points="171.76,-62.77 181.79,-59.36 171.82,-55.77 171.76,-62.77"/>
</a>
</g>
</g>
<!-- Node6 -->
<g id="Node000006" class="node">
<title>Node6</title>
<g id="a_Node000006"><a xlink:href="../../d9/d36/namespacecarla.html#aca0bf2b2b37178b5e39c9bdbb5fadeb6" target="_top" xlink:title=" ">
<polygon fill="white" stroke="#666666" points="704.5,-76 610.5,-76 610.5,-56 704.5,-56 704.5,-76"/>
<text text-anchor="middle" x="657.5" y="-62.5" font-family="Helvetica,sans-Serif" font-size="10.00">carla::log_warning</text>
</a>
</g>
</g>
<!-- Node1&#45;&gt;Node6 -->
<g id="edge26_Node000001_Node000006" class="edge">
<title>Node1&#45;&gt;Node6</title>
<g id="a_edge26_Node000001_Node000006"><a xlink:title=" ">
<path fill="none" stroke="#63b8ff" d="M135.1,-49.53C150.67,-46 167.48,-42.79 183.25,-41 341.12,-23.07 382.76,-24.13 540.75,-41 562.84,-43.36 586.91,-48.18 607.35,-52.97"/>
<polygon fill="#63b8ff" stroke="#63b8ff" points="606.45,-56.59 616.99,-55.53 608.09,-49.79 606.45,-56.59"/>
</a>
</g>
</g>
<!-- Node2&#45;&gt;Node1 -->
<g id="edge25_Node000002_Node000001" class="edge">
<title>Node2&#45;&gt;Node1</title>
<g id="a_edge25_Node000002_Node000001"><a xlink:title=" ">
<path fill="none" stroke="#63b8ff" d="M182.79,-72.64C174.81,-72.74 166.64,-72.77 158.54,-72.73"/>
<polygon fill="#63b8ff" stroke="#63b8ff" points="158.59,-69.22 148.56,-72.63 158.53,-76.22 158.59,-69.22"/>
</a>
</g>
</g>
<!-- Node3 -->
<g id="Node000003" class="node">
<title>Node3</title>
<g id="a_Node000003"><a xlink:href="../../db/d10/classUDefaultMovementComponent.html#ae4d4da445db2f8e8abacaf22c5070277" target="_top" xlink:title=" ">
<polygon fill="white" stroke="#666666" points="540.75,-182 366.5,-182 366.5,-150 540.75,-150 540.75,-182"/>
<text text-anchor="start" x="374.5" y="-168.5" font-family="Helvetica,sans-Serif" font-size="10.00">UDefaultMovementComponent</text>
<text text-anchor="middle" x="453.62" y="-156.5" font-family="Helvetica,sans-Serif" font-size="10.00">::CreateDefaultMovementComponent</text>
</a>
</g>
</g>
<!-- Node2&#45;&gt;Node3 -->
<g id="edge2_Node000002_Node000003" class="edge">
<title>Node2&#45;&gt;Node3</title>
<g id="a_edge2_Node000002_Node000003"><a xlink:title=" ">
<path fill="none" stroke="#63b8ff" d="M277.49,-82.47C298.37,-99.27 332.96,-125.07 366.5,-141 370.09,-142.7 373.81,-144.32 377.62,-145.84"/>
<polygon fill="#63b8ff" stroke="#63b8ff" points="376.23,-149.43 386.82,-149.66 378.68,-142.87 376.23,-149.43"/>
</a>
</g>
</g>
<!-- Node4 -->
<g id="Node000004" class="node">
<title>Node4</title>
<g id="a_Node000004"><a xlink:href="../../d2/d48/classUBaseCarlaMovementComponent.html#ac579e7fcca58d6d306b9959861db99c4" target="_top" xlink:title=" ">
<polygon fill="white" stroke="#666666" points="534.38,-132 372.88,-132 372.88,-100 534.38,-100 534.38,-132"/>
<text text-anchor="start" x="380.88" y="-118.5" font-family="Helvetica,sans-Serif" font-size="10.00">UBaseCarlaMovementComponent</text>
<text text-anchor="middle" x="453.62" y="-106.5" font-family="Helvetica,sans-Serif" font-size="10.00">::EnableUE4VehiclePhysics</text>
</a>
</g>
</g>
<!-- Node2&#45;&gt;Node4 -->
<g id="edge3_Node000002_Node000004" class="edge">
<title>Node2&#45;&gt;Node4</title>
<g id="a_edge3_Node000002_Node000004"><a xlink:title=" ">
<path fill="none" stroke="#63b8ff" d="M321.91,-82.44C339.88,-87.05 359.58,-92.11 378.1,-96.87"/>
<polygon fill="#63b8ff" stroke="#63b8ff" points="376.99,-100.45 387.55,-99.55 378.73,-93.67 376.99,-100.45"/>
</a>
</g>
</g>
<!-- Node21 -->
<g id="Node000021" class="node">
<title>Node21</title>
<g id="a_Node000021"><a xlink:href="../../dd/d96/classUChronoMovementComponent.html#a5bf531862d814571930b4950ebc11db9" target="_top" xlink:title=" ">
<polygon fill="white" stroke="#666666" points="527.25,-82 380,-82 380,-50 527.25,-50 527.25,-82"/>
<text text-anchor="start" x="388" y="-68.5" font-family="Helvetica,sans-Serif" font-size="10.00">UChronoMovementComponent</text>
<text text-anchor="middle" x="453.62" y="-56.5" font-family="Helvetica,sans-Serif" font-size="10.00">::OnVehicleHit</text>
</a>
</g>
</g>
<!-- Node2&#45;&gt;Node21 -->
<g id="edge22_Node000002_Node000021" class="edge">
<title>Node2&#45;&gt;Node21</title>
<g id="a_edge22_Node000002_Node000021"><a xlink:title=" ">
<path fill="none" stroke="#63b8ff" d="M330.95,-59.44C343.3,-59.24 356.21,-59.2 368.82,-59.31"/>
<polygon fill="#63b8ff" stroke="#63b8ff" points="368.75,-62.82 378.79,-59.44 368.84,-55.82 368.75,-62.82"/>
</a>
</g>
</g>
<!-- Node5 -->
<g id="Node000005" class="node">
<title>Node5</title>
<g id="a_Node000005"><a xlink:href="../../d2/d48/classUBaseCarlaMovementComponent.html#ac6f038c3f307cb6e6729304521ece924" target="_top" xlink:title=" ">
<polygon fill="white" stroke="#666666" points="738.25,-182 576.75,-182 576.75,-150 738.25,-150 738.25,-182"/>
<text text-anchor="start" x="584.75" y="-168.5" font-family="Helvetica,sans-Serif" font-size="10.00">UBaseCarlaMovementComponent</text>
<text text-anchor="middle" x="657.5" y="-156.5" font-family="Helvetica,sans-Serif" font-size="10.00">::GetVelocity</text>
</a>
</g>
</g>
<!-- Node4&#45;&gt;Node5 -->
<g id="edge4_Node000004_Node000005" class="edge">
<title>Node4&#45;&gt;Node5</title>
<g id="a_edge4_Node000004_Node000005"><a xlink:title=" ">
<path fill="none" stroke="#63b8ff" d="M521.01,-132.44C539.72,-137.08 560.24,-142.16 579.52,-146.93"/>
<polygon fill="#63b8ff" stroke="#63b8ff" points="578.53,-150.54 589.08,-149.55 580.21,-143.75 578.53,-150.54"/>
</a>
</g>
</g>
<!-- Node4&#45;&gt;Node6 -->
<g id="edge5_Node000004_Node000006" class="edge">
<title>Node4&#45;&gt;Node6</title>
<g id="a_edge5_Node000004_Node000006"><a xlink:title=" ">
<path fill="none" stroke="#63b8ff" d="M521.01,-99.56C547.85,-92.91 578.41,-85.34 603.7,-79.08"/>
<polygon fill="#63b8ff" stroke="#63b8ff" points="604.33,-82.28 613.19,-76.48 602.65,-75.49 604.33,-82.28"/>
</a>
</g>
</g>
<!-- Node8 -->
<g id="Node000008" class="node">
<title>Node8</title>
<g id="a_Node000008"><a xlink:href="../../d5/d70/classACarlaWheeledVehicle.html#a0eb752614da592e60b34079ca09d0331" target="_top" xlink:title=" ">
<polygon fill="white" stroke="#666666" points="734.5,-132 580.5,-132 580.5,-100 734.5,-100 734.5,-132"/>
<text text-anchor="start" x="588.5" y="-118.5" font-family="Helvetica,sans-Serif" font-size="10.00">ACarlaWheeledVehicle</text>
<text text-anchor="middle" x="657.5" y="-106.5" font-family="Helvetica,sans-Serif" font-size="10.00">::RestoreVehiclePhysicsControl</text>
</a>
</g>
</g>
<!-- Node4&#45;&gt;Node8 -->
<g id="edge7_Node000004_Node000008" class="edge">
<title>Node4&#45;&gt;Node8</title>
<g id="a_edge7_Node000004_Node000008"><a xlink:title=" ">
<path fill="none" stroke="#63b8ff" d="M534.7,-116C546.05,-116 557.76,-116 569.23,-116"/>
<polygon fill="#63b8ff" stroke="#63b8ff" points="569.14,-119.5 579.14,-116 569.14,-112.5 569.14,-119.5"/>
</a>
</g>
</g>
<!-- Node7 -->
<g id="Node000007" class="node">
<title>Node7</title>
<g id="a_Node000007"><a xlink:href="../../d2/d8c/namespacecarla_1_1logging.html#a4193666236852fb6a6977299a31445d8" target="_top" xlink:title=" ">
<polygon fill="white" stroke="#666666" points="896.75,-82 796.75,-82 796.75,-50 896.75,-50 896.75,-82"/>
<text text-anchor="start" x="804.75" y="-68.5" font-family="Helvetica,sans-Serif" font-size="10.00">carla::logging::write</text>
<text text-anchor="middle" x="846.75" y="-56.5" font-family="Helvetica,sans-Serif" font-size="10.00">_to_stream</text>
</a>
</g>
</g>
<!-- Node6&#45;&gt;Node7 -->
<g id="edge6_Node000006_Node000007" class="edge">
<title>Node6&#45;&gt;Node7</title>
<g id="a_edge6_Node000006_Node000007"><a xlink:title=" ">
<path fill="none" stroke="#63b8ff" d="M704.79,-66C729.14,-66 759.29,-66 785.45,-66"/>
<polygon fill="#63b8ff" stroke="#63b8ff" points="785.39,-69.5 795.39,-66 785.39,-62.5 785.39,-69.5"/>
</a>
</g>
</g>
<!-- Node9 -->
<g id="Node000009" class="node">
<title>Node9</title>
<g id="a_Node000009"><a xlink:href="../../d5/d70/classACarlaWheeledVehicle.html#a3e610d951ef26385950981f732fa9f42" target="_top" xlink:title=" ">
<polygon fill="white" stroke="#666666" points="919.25,-132 774.25,-132 774.25,-100 919.25,-100 919.25,-132"/>
<text text-anchor="start" x="782.25" y="-118.5" font-family="Helvetica,sans-Serif" font-size="10.00">ACarlaWheeledVehicle</text>
<text text-anchor="middle" x="846.75" y="-106.5" font-family="Helvetica,sans-Serif" font-size="10.00">::ApplyVehiclePhysicsControl</text>
</a>
</g>
</g>
<!-- Node8&#45;&gt;Node9 -->
<g id="edge8_Node000008_Node000009" class="edge">
<title>Node8&#45;&gt;Node9</title>
<g id="a_edge8_Node000008_Node000009"><a xlink:title=" ">
<path fill="none" stroke="#63b8ff" d="M734.93,-116C744.16,-116 753.62,-116 762.94,-116"/>
<polygon fill="#63b8ff" stroke="#63b8ff" points="762.79,-119.5 772.79,-116 762.79,-112.5 762.79,-119.5"/>
</a>
</g>
</g>
<!-- Node10 -->
<g id="Node000010" class="node">
<title>Node10</title>
<g id="a_Node000010"><a xlink:href="../../d7/d1e/classUCarlaStatics.html#adf84009ecb71dd12430e36c61a030c91" target="_top" xlink:title=" ">
<polygon fill="white" stroke="#666666" points="1553.25,-223 1416.5,-223 1416.5,-203 1553.25,-203 1553.25,-223"/>
<text text-anchor="middle" x="1484.88" y="-209.5" font-family="Helvetica,sans-Serif" font-size="10.00">UCarlaStatics::GetRecorder</text>
</a>
</g>
</g>
<!-- Node9&#45;&gt;Node10 -->
<g id="edge9_Node000009_Node000010" class="edge">
<title>Node9&#45;&gt;Node10</title>
<g id="a_edge9_Node000009_Node000010"><a xlink:title=" ">
<path fill="none" stroke="#63b8ff" d="M865.65,-132.36C885.84,-149.85 920.44,-176.94 955.25,-191 1107.63,-252.55 1305.23,-238.81 1410.4,-224.96"/>
<polygon fill="#63b8ff" stroke="#63b8ff" points="1410.78,-228.31 1420.22,-223.49 1409.84,-221.37 1410.78,-228.31"/>
</a>
</g>
</g>
<!-- Node13 -->
<g id="Node000013" class="node">
<title>Node13</title>
<g id="a_Node000013"><a xlink:href="../../d5/d70/classACarlaWheeledVehicle.html#a80344597cc1f76c5759bf9b813bb346f" target="_top" xlink:title=" ">
<polygon fill="white" stroke="#666666" points="1073.25,-182 957.5,-182 957.5,-150 1073.25,-150 1073.25,-182"/>
<text text-anchor="start" x="965.5" y="-168.5" font-family="Helvetica,sans-Serif" font-size="10.00">ACarlaWheeledVehicle</text>
<text text-anchor="middle" x="1015.38" y="-156.5" font-family="Helvetica,sans-Serif" font-size="10.00">::ResetConstraints</text>
</a>
</g>
</g>
<!-- Node9&#45;&gt;Node13 -->
<g id="edge12_Node000009_Node000013" class="edge">
<title>Node9&#45;&gt;Node13</title>
<g id="a_edge12_Node000009_Node000013"><a xlink:title=" ">
<path fill="none" stroke="#63b8ff" d="M902.31,-132.37C917.19,-136.84 933.47,-141.72 948.89,-146.35"/>
<polygon fill="#63b8ff" stroke="#63b8ff" points="947.82,-149.98 958.41,-149.51 949.84,-143.28 947.82,-149.98"/>
</a>
</g>
</g>
<!-- Node17 -->
<g id="Node000017" class="node">
<title>Node17</title>
<g id="a_Node000017"><a xlink:href="../../d5/d70/classACarlaWheeledVehicle.html#a33b430d2706ec2490b2147a242085af4" target="_top" xlink:title=" ">
<polygon fill="white" stroke="#666666" points="1073.25,-132 957.5,-132 957.5,-100 1073.25,-100 1073.25,-132"/>
<text text-anchor="start" x="965.5" y="-118.5" font-family="Helvetica,sans-Serif" font-size="10.00">ACarlaWheeledVehicle</text>
<text text-anchor="middle" x="1015.38" y="-106.5" font-family="Helvetica,sans-Serif" font-size="10.00">::SetWheelCollision</text>
</a>
</g>
</g>
<!-- Node9&#45;&gt;Node17 -->
<g id="edge18_Node000009_Node000017" class="edge">
<title>Node9&#45;&gt;Node17</title>
<g id="a_edge18_Node000009_Node000017"><a xlink:title=" ">
<path fill="none" stroke="#63b8ff" d="M919.38,-116C928.35,-116 937.5,-116 946.41,-116"/>
<polygon fill="#63b8ff" stroke="#63b8ff" points="946.13,-119.5 956.13,-116 946.13,-112.5 946.13,-119.5"/>
</a>
</g>
</g>
<!-- Node19 -->
<g id="Node000019" class="node">
<title>Node19</title>
<g id="a_Node000019"><a xlink:href="../../d5/d70/classACarlaWheeledVehicle.html#a29574baf1b80d8345e8ddbab1825fa4b" target="_top" xlink:title=" ">
<polygon fill="white" stroke="#666666" points="1074.38,-82 956.38,-82 956.38,-50 1074.38,-50 1074.38,-82"/>
<text text-anchor="start" x="964.38" y="-68.5" font-family="Helvetica,sans-Serif" font-size="10.00">ACarlaWheeledVehicle</text>
<text text-anchor="middle" x="1015.38" y="-56.5" font-family="Helvetica,sans-Serif" font-size="10.00">::SetWheelCollisionNW</text>
</a>
</g>
</g>
<!-- Node9&#45;&gt;Node19 -->
<g id="edge20_Node000009_Node000019" class="edge">
<title>Node9&#45;&gt;Node19</title>
<g id="a_edge20_Node000009_Node000019"><a xlink:title=" ">
<path fill="none" stroke="#63b8ff" d="M902.31,-99.63C917.19,-95.16 933.47,-90.28 948.89,-85.65"/>
<polygon fill="#63b8ff" stroke="#63b8ff" points="949.84,-88.72 958.41,-82.49 947.82,-82.02 949.84,-88.72"/>
</a>
</g>
</g>
<!-- Node20 -->
<g id="Node000020" class="node">
<title>Node20</title>
<g id="a_Node000020"><a xlink:href="../../d7/db5/classFAckermannController.html#abe8d237fb808b0eca659fb7008054a90" target="_top" xlink:title=" ">
<polygon fill="white" stroke="#666666" points="1075.5,-32 955.25,-32 955.25,0 1075.5,0 1075.5,-32"/>
<text text-anchor="start" x="963.25" y="-18.5" font-family="Helvetica,sans-Serif" font-size="10.00">FAckermannController</text>
<text text-anchor="middle" x="1015.38" y="-6.5" font-family="Helvetica,sans-Serif" font-size="10.00">::UpdateVehiclePhysics</text>
</a>
</g>
</g>
<!-- Node9&#45;&gt;Node20 -->
<g id="edge21_Node000009_Node000020" class="edge">
<title>Node9&#45;&gt;Node20</title>
<g id="a_edge21_Node000009_Node000020"><a xlink:title=" ">
<path fill="none" stroke="#63b8ff" d="M905.2,-99.55C910.16,-97.06 914.93,-94.23 919.25,-91 941.19,-74.61 933.84,-58.08 955.25,-41 956.5,-40 957.8,-39.04 959.14,-38.1"/>
<polygon fill="#63b8ff" stroke="#63b8ff" points="960.7,-40.64 967.38,-32.41 957.03,-34.67 960.7,-40.64"/>
</a>
</g>
</g>
<!-- Node11 -->
<g id="Node000011" class="node">
<title>Node11</title>
<g id="a_Node000011"><a xlink:href="../../d7/d1e/classUCarlaStatics.html#a83f2a341e32413abf1ec85ee740c2036" target="_top" xlink:title=" ">
<polygon fill="white" stroke="#666666" points="1718.5,-229 1589.25,-229 1589.25,-197 1718.5,-197 1718.5,-229"/>
<text text-anchor="start" x="1597.25" y="-215.5" font-family="Helvetica,sans-Serif" font-size="10.00">UCarlaStatics::GetCurrent</text>
<text text-anchor="middle" x="1653.88" y="-203.5" font-family="Helvetica,sans-Serif" font-size="10.00">Episode</text>
</a>
</g>
</g>
<!-- Node10&#45;&gt;Node11 -->
<g id="edge10_Node000010_Node000011" class="edge">
<title>Node10&#45;&gt;Node11</title>
<g id="a_edge10_Node000010_Node000011"><a xlink:title=" ">
<path fill="none" stroke="#63b8ff" d="M1553.32,-213C1561.5,-213 1569.9,-213 1578.18,-213"/>
<polygon fill="#63b8ff" stroke="#63b8ff" points="1577.97,-216.5 1587.97,-213 1577.97,-209.5 1577.97,-216.5"/>
</a>
</g>
</g>
<!-- Node12 -->
<g id="Node000012" class="node">
<title>Node12</title>
<g id="a_Node000012"><a xlink:href="../../d7/d1e/classUCarlaStatics.html#a35e7cb760a58848081a618e7fa8201e2" target="_top" xlink:title=" ">
<polygon fill="white" stroke="#666666" points="1915.25,-223 1754.5,-223 1754.5,-203 1915.25,-203 1915.25,-223"/>
<text text-anchor="middle" x="1834.88" y="-209.5" font-family="Helvetica,sans-Serif" font-size="10.00">UCarlaStatics::GetGameInstance</text>
</a>
</g>
</g>
<!-- Node11&#45;&gt;Node12 -->
<g id="edge11_Node000011_Node000012" class="edge">
<title>Node11&#45;&gt;Node12</title>
<g id="a_edge11_Node000011_Node000012"><a xlink:title=" ">
<path fill="none" stroke="#63b8ff" d="M1718.99,-213C1726.94,-213 1735.19,-213 1743.44,-213"/>
<polygon fill="#63b8ff" stroke="#63b8ff" points="1743.27,-216.5 1753.27,-213 1743.27,-209.5 1743.27,-216.5"/>
</a>
</g>
</g>
<!-- Node14 -->
<g id="Node000014" class="node">
<title>Node14</title>
<g id="a_Node000014"><a xlink:href="../../d5/d70/classACarlaWheeledVehicle.html#a114c84eaff7178ef92e37ea0e0ac9e34" target="_top" xlink:title=" ">
<polygon fill="white" stroke="#666666" points="1228,-207 1112.25,-207 1112.25,-175 1228,-175 1228,-207"/>
<text text-anchor="start" x="1120.25" y="-193.5" font-family="Helvetica,sans-Serif" font-size="10.00">ACarlaWheeledVehicle</text>
<text text-anchor="middle" x="1170.12" y="-181.5" font-family="Helvetica,sans-Serif" font-size="10.00">::CloseDoorPhys</text>
</a>
</g>
</g>
<!-- Node13&#45;&gt;Node14 -->
<g id="edge13_Node000013_Node000014" class="edge">
<title>Node13&#45;&gt;Node14</title>
<g id="a_edge13_Node000013_Node000014"><a xlink:title=" ">
<path fill="none" stroke="#63b8ff" d="M1073.69,-175.38C1082.69,-176.85 1092.08,-178.39 1101.29,-179.9"/>
<polygon fill="#63b8ff" stroke="#63b8ff" points="1100.56,-183.49 1111,-181.65 1101.7,-176.58 1100.56,-183.49"/>
</a>
</g>
</g>
<!-- Node16 -->
<g id="Node000016" class="node">
<title>Node16</title>
<g id="a_Node000016"><a xlink:href="../../d5/d70/classACarlaWheeledVehicle.html#ac366b344047c94137d813a4a8a35eaeb" target="_top" xlink:title=" ">
<polygon fill="white" stroke="#666666" points="1228,-157 1112.25,-157 1112.25,-125 1228,-125 1228,-157"/>
<text text-anchor="start" x="1120.25" y="-143.5" font-family="Helvetica,sans-Serif" font-size="10.00">ACarlaWheeledVehicle</text>
<text text-anchor="middle" x="1170.12" y="-131.5" font-family="Helvetica,sans-Serif" font-size="10.00">::OpenDoorPhys</text>
</a>
</g>
</g>
<!-- Node13&#45;&gt;Node16 -->
<g id="edge16_Node000013_Node000016" class="edge">
<title>Node13&#45;&gt;Node16</title>
<g id="a_edge16_Node000013_Node000016"><a xlink:title=" ">
<path fill="none" stroke="#63b8ff" d="M1073.69,-156.62C1082.69,-155.15 1092.08,-153.61 1101.29,-152.1"/>
<polygon fill="#63b8ff" stroke="#63b8ff" points="1101.7,-155.42 1111,-150.35 1100.56,-148.51 1101.7,-155.42"/>
</a>
</g>
</g>
<!-- Node15 -->
<g id="Node000015" class="node">
<title>Node15</title>
<g id="a_Node000015"><a xlink:href="../../d5/d70/classACarlaWheeledVehicle.html#a087b3bd2e47d6662fce3e4f0da7cca61" target="_top" xlink:title=" ">
<polygon fill="white" stroke="#666666" points="1380.5,-207 1264.75,-207 1264.75,-175 1380.5,-175 1380.5,-207"/>
<text text-anchor="start" x="1272.75" y="-193.5" font-family="Helvetica,sans-Serif" font-size="10.00">ACarlaWheeledVehicle</text>
<text text-anchor="middle" x="1322.62" y="-181.5" font-family="Helvetica,sans-Serif" font-size="10.00">::RecordDoorChange</text>
</a>
</g>
</g>
<!-- Node14&#45;&gt;Node15 -->
<g id="edge14_Node000014_Node000015" class="edge">
<title>Node14&#45;&gt;Node15</title>
<g id="a_edge14_Node000014_Node000015"><a xlink:title=" ">
<path fill="none" stroke="#63b8ff" d="M1228.45,-191C1236.65,-191 1245.16,-191 1253.54,-191"/>
<polygon fill="#63b8ff" stroke="#63b8ff" points="1253.46,-194.5 1263.46,-191 1253.46,-187.5 1253.46,-194.5"/>
</a>
</g>
</g>
<!-- Node15&#45;&gt;Node10 -->
<g id="edge15_Node000015_Node000010" class="edge">
<title>Node15&#45;&gt;Node10</title>
<g id="a_edge15_Node000015_Node000010"><a xlink:title=" ">
<path fill="none" stroke="#63b8ff" d="M1380.57,-198.82C1388.67,-199.93 1397.11,-201.09 1405.53,-202.24"/>
<polygon fill="#63b8ff" stroke="#63b8ff" points="1404.76,-205.81 1415.15,-203.7 1405.72,-198.87 1404.76,-205.81"/>
</a>
</g>
</g>
<!-- Node16&#45;&gt;Node15 -->
<g id="edge17_Node000016_Node000015" class="edge">
<title>Node16&#45;&gt;Node15</title>
<g id="a_edge17_Node000016_Node000015"><a xlink:title=" ">
<path fill="none" stroke="#63b8ff" d="M1220.4,-157.37C1233.59,-161.75 1247.99,-166.54 1261.68,-171.08"/>
<polygon fill="#63b8ff" stroke="#63b8ff" points="1260.38,-174.67 1270.98,-174.51 1262.59,-168.03 1260.38,-174.67"/>
</a>
</g>
</g>
<!-- Node18 -->
<g id="Node000018" class="node">
<title>Node18</title>
<g id="a_Node000018"><a xlink:href="../../d5/d70/classACarlaWheeledVehicle.html#a1a14797d457e94cbed68571fc8c914bb" target="_top" xlink:title=" ">
<polygon fill="white" stroke="#666666" points="1228.75,-107 1111.5,-107 1111.5,-75 1228.75,-75 1228.75,-107"/>
<text text-anchor="start" x="1119.5" y="-93.5" font-family="Helvetica,sans-Serif" font-size="10.00">ACarlaWheeledVehicle</text>
<text text-anchor="middle" x="1170.12" y="-81.5" font-family="Helvetica,sans-Serif" font-size="10.00">::IsTwoWheeledVehicle</text>
</a>
</g>
</g>
<!-- Node17&#45;&gt;Node18 -->
<g id="edge19_Node000017_Node000018" class="edge">
<title>Node17&#45;&gt;Node18</title>
<g id="a_edge19_Node000017_Node000018"><a xlink:title=" ">
<path fill="none" stroke="#63b8ff" d="M1073.69,-106.62C1082.41,-105.19 1091.5,-103.71 1100.44,-102.24"/>
<polygon fill="#63b8ff" stroke="#63b8ff" points="1100.93,-105.54 1110.24,-100.47 1099.8,-98.64 1100.93,-105.54"/>
</a>
</g>
</g>
<!-- Node21&#45;&gt;Node2 -->
<g id="edge23_Node000021_Node000002" class="edge">
<title>Node21&#45;&gt;Node2</title>
<g id="a_edge23_Node000021_Node000002"><a xlink:title=" ">
<path fill="none" stroke="#63b8ff" d="M379.79,-72.56C367.44,-72.76 354.53,-72.8 341.93,-72.69"/>
<polygon fill="#63b8ff" stroke="#63b8ff" points="341.99,-69.18 331.95,-72.56 341.9,-76.18 341.99,-69.18"/>
</a>
</g>
</g>
<!-- Node21&#45;&gt;Node6 -->
<g id="edge24_Node000021_Node000006" class="edge">
<title>Node21&#45;&gt;Node6</title>
<g id="a_edge24_Node000021_Node000006"><a xlink:title=" ">
<path fill="none" stroke="#63b8ff" d="M527.51,-66C551.08,-66 576.87,-66 599.16,-66"/>
<polygon fill="#63b8ff" stroke="#63b8ff" points="599.12,-69.5 609.12,-66 599.12,-62.5 599.12,-69.5"/>
</a>
</g>
</g>
</g>
</svg>
