<?xml version="1.0" encoding="UTF-8" standalone="no"?>
<!DOCTYPE svg PUBLIC "-//W3C//DTD SVG 1.1//EN"
 "http://www.w3.org/Graphics/SVG/1.1/DTD/svg11.dtd">
<!-- Generated by graphviz version 8.1.0 (20230707.0739)
 -->
<!-- Title: UChronoMovementComponent::OnVehicleHit Pages: 1 -->
<svg width="522pt" height="90pt"
 viewBox="0.00 0.00 521.75 90.00" xmlns="http://www.w3.org/2000/svg" xmlns:xlink="http://www.w3.org/1999/xlink">
<g id="graph0" class="graph" transform="scale(1 1) rotate(0) translate(4 86)">
<title>UChronoMovementComponent::OnVehicleHit</title>
<!-- Node1 -->
<g id="Node000001" class="node">
<title>Node1</title>
<g id="a_Node000001"><a xlink:title=" ">
<polygon fill="#999999" stroke="#666666" points="513.75,-32 366.5,-32 366.5,0 513.75,0 513.75,-32"/>
<text text-anchor="start" x="374.5" y="-18.5" font-family="Helvetica,sans-Serif" font-size="10.00">UChronoMovementComponent</text>
<text text-anchor="middle" x="440.12" y="-6.5" font-family="Helvetica,sans-Serif" font-size="10.00">::OnVehicleHit</text>
</a>
</g>
</g>
<!-- Node2 -->
<g id="Node000002" class="node">
<title>Node2</title>
<g id="a_Node000002"><a xlink:href="../../dd/d96/classUChronoMovementComponent.html#a856b9866205a366212dcb5ba6bac0983" target="_top" xlink:title=" ">
<polygon fill="white" stroke="#666666" points="330.5,-32 183.25,-32 183.25,0 330.5,0 330.5,-32"/>
<text text-anchor="start" x="191.25" y="-18.5" font-family="Helvetica,sans-Serif" font-size="10.00">UChronoMovementComponent</text>
<text text-anchor="middle" x="256.88" y="-6.5" font-family="Helvetica,sans-Serif" font-size="10.00">::DisableChronoPhysics</text>
</a>
</g>
</g>
<!-- Node1&#45;&gt;Node2 -->
<g id="edge1_Node000001_Node000002" class="edge">
<title>Node1&#45;&gt;Node2</title>
<g id="a_edge1_Node000001_Node000002"><a xlink:title=" ">
<path fill="none" stroke="#63b8ff" d="M355.21,-9.27C347.11,-9.23 338.94,-9.26 330.96,-9.36"/>
<polygon fill="#63b8ff" stroke="#63b8ff" points="355.16,-12.78 365.19,-9.37 355.22,-5.78 355.16,-12.78"/>
</a>
</g>
</g>
<!-- Node2&#45;&gt;Node1 -->
<g id="edge3_Node000002_Node000001" class="edge">
<title>Node2&#45;&gt;Node1</title>
<g id="a_edge3_Node000002_Node000001"><a xlink:title=" ">
<path fill="none" stroke="#63b8ff" d="M341.94,-22.73C350.04,-22.77 358.21,-22.74 366.19,-22.63"/>
<polygon fill="#63b8ff" stroke="#63b8ff" points="341.99,-19.23 331.96,-22.64 341.93,-26.23 341.99,-19.23"/>
</a>
</g>
</g>
<!-- Node3 -->
<g id="Node000003" class="node">
<title>Node3</title>
<g id="a_Node000003"><a xlink:href="../../dd/d96/classUChronoMovementComponent.html#ac1f51975e9728b663fe48af80bb7d4e7" target="_top" xlink:title=" ">
<polygon fill="white" stroke="#666666" points="147.25,-82 0,-82 0,-50 147.25,-50 147.25,-82"/>
<text text-anchor="start" x="8" y="-68.5" font-family="Helvetica,sans-Serif" font-size="10.00">UChronoMovementComponent</text>
<text text-anchor="middle" x="73.62" y="-56.5" font-family="Helvetica,sans-Serif" font-size="10.00">::DisableSpecialPhysics</text>
</a>
</g>
</g>
<!-- Node2&#45;&gt;Node3 -->
<g id="edge2_Node000002_Node000003" class="edge">
<title>Node2&#45;&gt;Node3</title>
<g id="a_edge2_Node000002_Node000003"><a xlink:title=" ">
<path fill="none" stroke="#63b8ff" d="M185.83,-35.32C168.8,-40.02 150.75,-45 134.26,-49.55"/>
<polygon fill="#63b8ff" stroke="#63b8ff" points="186.57,-38.47 195.28,-32.44 184.71,-31.73 186.57,-38.47"/>
</a>
</g>
</g>
<!-- Node4 -->
<g id="Node000004" class="node">
<title>Node4</title>
<g id="a_Node000004"><a xlink:href="../../dd/d96/classUChronoMovementComponent.html#ab5366fe07b3700649f48e6ec2c79663a" target="_top" xlink:title=" ">
<polygon fill="white" stroke="#666666" points="147.25,-32 0,-32 0,0 147.25,0 147.25,-32"/>
<text text-anchor="start" x="8" y="-18.5" font-family="Helvetica,sans-Serif" font-size="10.00">UChronoMovementComponent</text>
<text text-anchor="middle" x="73.62" y="-6.5" font-family="Helvetica,sans-Serif" font-size="10.00">::OnVehicleOverlap</text>
</a>
</g>
</g>
<!-- Node2&#45;&gt;Node4 -->
<g id="edge4_Node000002_Node000004" class="edge">
<title>Node2&#45;&gt;Node4</title>
<g id="a_edge4_Node000002_Node000004"><a xlink:title=" ">
<path fill="none" stroke="#63b8ff" d="M171.96,-9.27C163.86,-9.23 155.69,-9.26 147.71,-9.36"/>
<polygon fill="#63b8ff" stroke="#63b8ff" points="171.91,-12.78 181.94,-9.37 171.97,-5.78 171.91,-12.78"/>
</a>
</g>
</g>
<!-- Node4&#45;&gt;Node2 -->
<g id="edge5_Node000004_Node000002" class="edge">
<title>Node4&#45;&gt;Node2</title>
<g id="a_edge5_Node000004_Node000002"><a xlink:title=" ">
<path fill="none" stroke="#63b8ff" d="M158.69,-22.73C166.79,-22.77 174.96,-22.74 182.94,-22.63"/>
<polygon fill="#63b8ff" stroke="#63b8ff" points="158.74,-19.23 148.71,-22.64 158.68,-26.23 158.74,-19.23"/>
</a>
</g>
</g>
</g>
</svg>
