<?xml version="1.0" encoding="UTF-8" standalone="no"?>
<!DOCTYPE svg PUBLIC "-//W3C//DTD SVG 1.1//EN"
 "http://www.w3.org/Graphics/SVG/1.1/DTD/svg11.dtd">
<!-- Generated by graphviz version 8.1.0 (20230707.0739)
 -->
<!-- Title: carla::client::TrafficLight::GetAffectedLaneWaypoints Pages: 1 -->
<svg width="770pt" height="115pt"
 viewBox="0.00 0.00 769.75 115.00" xmlns="http://www.w3.org/2000/svg" xmlns:xlink="http://www.w3.org/1999/xlink">
<g id="graph0" class="graph" transform="scale(1 1) rotate(0) translate(4 111)">
<title>carla::client::TrafficLight::GetAffectedLaneWaypoints</title>
<!-- Node1 -->
<g id="Node000001" class="node">
<title>Node1</title>
<g id="a_Node000001"><a xlink:title=" ">
<polygon fill="#999999" stroke="#666666" points="140.5,-73 0,-73 0,-41 140.5,-41 140.5,-73"/>
<text text-anchor="start" x="8" y="-59.5" font-family="Helvetica,sans-Serif" font-size="10.00">carla::client::TrafficLight</text>
<text text-anchor="middle" x="70.25" y="-47.5" font-family="Helvetica,sans-Serif" font-size="10.00">::GetAffectedLaneWaypoints</text>
</a>
</g>
</g>
<!-- Node2 -->
<g id="Node000002" class="node">
<title>Node2</title>
<g id="a_Node000002"><a xlink:href="../../d2/d06/classcarla_1_1client_1_1detail_1_1ActorState.html#a520d5ef7284ded86a1d96a346f3516aa" target="_top" xlink:title=" ">
<polygon fill="white" stroke="#666666" points="457.88,-107 332.38,-107 332.38,-75 457.88,-75 457.88,-107"/>
<text text-anchor="start" x="340.38" y="-93.5" font-family="Helvetica,sans-Serif" font-size="10.00">carla::client::detail</text>
<text text-anchor="middle" x="395.12" y="-81.5" font-family="Helvetica,sans-Serif" font-size="10.00">::ActorState::GetEpisode</text>
</a>
</g>
</g>
<!-- Node1&#45;&gt;Node2 -->
<g id="edge1_Node000001_Node000002" class="edge">
<title>Node1&#45;&gt;Node2</title>
<g id="a_edge1_Node000001_Node000002"><a xlink:title=" ">
<path fill="none" stroke="#63b8ff" d="M131.82,-73.48C146.35,-76.85 161.9,-79.98 176.5,-82 224.4,-88.62 278.74,-90.87 321.14,-91.47"/>
<polygon fill="#63b8ff" stroke="#63b8ff" points="320.89,-94.97 330.93,-91.59 320.97,-87.97 320.89,-94.97"/>
</a>
</g>
</g>
<!-- Node3 -->
<g id="Node000003" class="node">
<title>Node3</title>
<g id="a_Node000003"><a xlink:href="../../df/def/classcarla_1_1client_1_1TrafficLight.html#a875ad72014bf28c3d35831e19851567a" target="_top" xlink:title=" ">
<polygon fill="white" stroke="#666666" points="295.25,-73 176.5,-73 176.5,-41 295.25,-41 295.25,-73"/>
<text text-anchor="start" x="184.5" y="-59.5" font-family="Helvetica,sans-Serif" font-size="10.00">carla::client::TrafficLight</text>
<text text-anchor="middle" x="235.88" y="-47.5" font-family="Helvetica,sans-Serif" font-size="10.00">::GetOpenDRIVEID</text>
</a>
</g>
</g>
<!-- Node1&#45;&gt;Node3 -->
<g id="edge2_Node000001_Node000003" class="edge">
<title>Node1&#45;&gt;Node3</title>
<g id="a_edge2_Node000001_Node000003"><a xlink:title=" ">
<path fill="none" stroke="#63b8ff" d="M140.64,-57C148.79,-57 157.1,-57 165.25,-57"/>
<polygon fill="#63b8ff" stroke="#63b8ff" points="165.22,-60.5 175.22,-57 165.22,-53.5 165.22,-60.5"/>
</a>
</g>
</g>
<!-- Node4 -->
<g id="Node000004" class="node">
<title>Node4</title>
<g id="a_Node000004"><a xlink:href="../../d1/dd3/classcarla_1_1client_1_1detail_1_1EpisodeProxyImpl.html#aaca857645fbeb6546b4a03a663bb65af" target="_top" xlink:title="Same as TryLock but never return nullptr.">
<polygon fill="white" stroke="#666666" points="459,-48 331.25,-48 331.25,-16 459,-16 459,-48"/>
<text text-anchor="start" x="339.25" y="-34.5" font-family="Helvetica,sans-Serif" font-size="10.00">carla::client::detail</text>
<text text-anchor="middle" x="395.12" y="-22.5" font-family="Helvetica,sans-Serif" font-size="10.00">::EpisodeProxyImpl::Lock</text>
</a>
</g>
</g>
<!-- Node1&#45;&gt;Node4 -->
<g id="edge8_Node000001_Node000004" class="edge">
<title>Node1&#45;&gt;Node4</title>
<g id="a_edge8_Node000001_Node000004"><a xlink:title=" ">
<path fill="none" stroke="#63b8ff" d="M129.82,-40.53C144.91,-37 161.2,-33.79 176.5,-32 224.14,-26.42 278.05,-26.37 320.29,-27.75"/>
<polygon fill="#63b8ff" stroke="#63b8ff" points="319.93,-31.27 330.05,-28.13 320.18,-24.28 319.93,-31.27"/>
</a>
</g>
</g>
<!-- Node3&#45;&gt;Node2 -->
<g id="edge3_Node000003_Node000002" class="edge">
<title>Node3&#45;&gt;Node2</title>
<g id="a_edge3_Node000003_Node000002"><a xlink:title=" ">
<path fill="none" stroke="#63b8ff" d="M295.43,-69.66C303.93,-71.5 312.77,-73.41 321.52,-75.3"/>
<polygon fill="#63b8ff" stroke="#63b8ff" points="320.59,-78.9 331.1,-77.59 322.06,-72.05 320.59,-78.9"/>
</a>
</g>
</g>
<!-- Node3&#45;&gt;Node4 -->
<g id="edge4_Node000003_Node000004" class="edge">
<title>Node3&#45;&gt;Node4</title>
<g id="a_edge4_Node000003_Node000004"><a xlink:title=" ">
<path fill="none" stroke="#63b8ff" d="M295.43,-47.69C303.44,-46.42 311.76,-45.1 320,-43.78"/>
<polygon fill="#63b8ff" stroke="#63b8ff" points="320.45,-47.1 329.77,-42.07 319.35,-40.19 320.45,-47.1"/>
</a>
</g>
</g>
<!-- Node5 -->
<g id="Node000005" class="node">
<title>Node5</title>
<g id="a_Node000005"><a xlink:href="../../d8/dcd/namespacecarla_1_1client_1_1detail.html#aa47f72a521d97fe3574a56e808b509d8" target="_top" xlink:title=" ">
<polygon fill="white" stroke="#666666" points="599.5,-70 504,-70 504,-38 599.5,-38 599.5,-70"/>
<text text-anchor="start" x="512" y="-56.5" font-family="Helvetica,sans-Serif" font-size="10.00">carla::client::detail</text>
<text text-anchor="middle" x="551.75" y="-44.5" font-family="Helvetica,sans-Serif" font-size="10.00">::Load</text>
</a>
</g>
</g>
<!-- Node4&#45;&gt;Node5 -->
<g id="edge5_Node000004_Node000005" class="edge">
<title>Node4&#45;&gt;Node5</title>
<g id="a_edge5_Node000004_Node000005"><a xlink:title=" ">
<path fill="none" stroke="#63b8ff" d="M459.46,-41.01C470.6,-42.6 482.13,-44.24 493.1,-45.8"/>
<polygon fill="#63b8ff" stroke="#63b8ff" points="492.45,-49.38 502.84,-47.33 493.44,-42.45 492.45,-49.38"/>
</a>
</g>
</g>
<!-- Node7 -->
<g id="Node000007" class="node">
<title>Node7</title>
<g id="a_Node000007"><a xlink:href="../../d9/d36/namespacecarla.html#a23602ab663165210a7757d6108f6b3cd" target="_top" xlink:title=" ">
<polygon fill="white" stroke="#666666" points="608.5,-20 495,-20 495,0 608.5,0 608.5,-20"/>
<text text-anchor="middle" x="551.75" y="-6.5" font-family="Helvetica,sans-Serif" font-size="10.00">carla::throw_exception</text>
</a>
</g>
</g>
<!-- Node4&#45;&gt;Node7 -->
<g id="edge7_Node000004_Node000007" class="edge">
<title>Node4&#45;&gt;Node7</title>
<g id="a_edge7_Node000004_Node000007"><a xlink:title=" ">
<path fill="none" stroke="#63b8ff" d="M459.46,-22.99C467.58,-21.83 475.91,-20.65 484.08,-19.49"/>
<polygon fill="#63b8ff" stroke="#63b8ff" points="484.29,-22.85 493.7,-17.98 483.3,-15.92 484.29,-22.85"/>
</a>
</g>
</g>
<!-- Node6 -->
<g id="Node000006" class="node">
<title>Node6</title>
<g id="a_Node000006"><a xlink:href="../../d2/dcf/classcarla_1_1AtomicSharedPtr.html#a7bb0b8af178b36c923fedac384b3aad4" target="_top" xlink:title=" ">
<polygon fill="white" stroke="#666666" points="761.75,-70 644.5,-70 644.5,-38 761.75,-38 761.75,-70"/>
<text text-anchor="start" x="652.5" y="-56.5" font-family="Helvetica,sans-Serif" font-size="10.00">carla::AtomicSharedPtr</text>
<text text-anchor="middle" x="703.12" y="-44.5" font-family="Helvetica,sans-Serif" font-size="10.00">::load</text>
</a>
</g>
</g>
<!-- Node5&#45;&gt;Node6 -->
<g id="edge6_Node000005_Node000006" class="edge">
<title>Node5&#45;&gt;Node6</title>
<g id="a_edge6_Node000005_Node000006"><a xlink:title=" ">
<path fill="none" stroke="#63b8ff" d="M599.6,-54C610.3,-54 621.89,-54 633.29,-54"/>
<polygon fill="#63b8ff" stroke="#63b8ff" points="633.14,-57.5 643.14,-54 633.14,-50.5 633.14,-57.5"/>
</a>
</g>
</g>
</g>
</svg>
