<?xml version="1.0" encoding="UTF-8" standalone="no"?>
<!DOCTYPE svg PUBLIC "-//W3C//DTD SVG 1.1//EN"
 "http://www.w3.org/Graphics/SVG/1.1/DTD/svg11.dtd">
<!-- Generated by graphviz version 8.1.0 (20230707.0739)
 -->
<!-- Title: carla::opendrive::parser::JunctionParser::Parse Pages: 1 -->
<svg width="453pt" height="354pt"
 viewBox="0.00 0.00 452.75 354.00" xmlns="http://www.w3.org/2000/svg" xmlns:xlink="http://www.w3.org/1999/xlink">

<svg id="main" version="1.1" xmlns="http://www.w3.org/2000/svg" xmlns:xlink="http://www.w3.org/1999/xlink" xml:space="preserve" onload="init(evt)">
<style type="text/css"><![CDATA[
.node, .edge {opacity: 0.7;}
.node.selected, .edge.selected {opacity: 1;}
.edge:hover path { stroke: red; }
.edge:hover polygon { stroke: red; fill: red; }
]]></style>
<script type="application/ecmascript" xlink:href="../../svg.min.js"/>
<svg id="graph" class="graph">
<g id="graph0" class="graph" transform="scale(1 1) rotate(0) translate(4 350)">
<title>carla::opendrive::parser::JunctionParser::Parse</title>
<!-- Node1 -->
<g id="Node000001" class="node">
<title>Node1</title>
<g id="a_Node000001"><a xlink:title=" ">
<polygon fill="#999999" stroke="#666666" points="118,-171 0,-171 0,-139 118,-139 118,-171"/>
<text text-anchor="start" x="8" y="-157.5" font-family="Helvetica,sans-Serif" font-size="10.00">carla::opendrive::parser</text>
<text text-anchor="middle" x="59" y="-145.5" font-family="Helvetica,sans-Serif" font-size="10.00">::JunctionParser::Parse</text>
</a>
</g>
</g>
<!-- Node2 -->
<g id="Node000002" class="node">
<title>Node2</title>
<g id="a_Node000002"><a xlink:href="../../de/d16/classcarla_1_1road_1_1MapBuilder.html#aca70ccf621b7b40053014478bb934410" target="_top" xlink:title=" ">
<polygon fill="white" stroke="#666666" points="273.12,-296 156.62,-296 156.62,-264 273.12,-264 273.12,-296"/>
<text text-anchor="start" x="164.62" y="-282.5" font-family="Helvetica,sans-Serif" font-size="10.00">carla::road::MapBuilder</text>
<text text-anchor="middle" x="214.88" y="-270.5" font-family="Helvetica,sans-Serif" font-size="10.00">::AddConnection</text>
</a>
</g>
</g>
<!-- Node1&#45;&gt;Node2 -->
<g id="edge1_Node000001_Node000002" class="edge">
<title>Node1&#45;&gt;Node2</title>
<g id="a_edge1_Node000001_Node000002"><a xlink:title=" ">
<path fill="none" stroke="#63b8ff" d="M71.7,-171.2C88.03,-192.81 119.53,-231.12 154,-255 155.7,-256.18 157.47,-257.32 159.28,-258.41"/>
<polygon fill="#63b8ff" stroke="#63b8ff" points="157.19,-261.81 167.64,-263.56 160.56,-255.68 157.19,-261.81"/>
</a>
</g>
</g>
<!-- Node5 -->
<g id="Node000005" class="node">
<title>Node5</title>
<g id="a_Node000005"><a xlink:href="../../de/d16/classcarla_1_1road_1_1MapBuilder.html#a7ca3a4005f3f53fdca75465b7782696b" target="_top" xlink:title=" ">
<polygon fill="white" stroke="#666666" points="273.12,-146 156.62,-146 156.62,-114 273.12,-114 273.12,-146"/>
<text text-anchor="start" x="164.62" y="-132.5" font-family="Helvetica,sans-Serif" font-size="10.00">carla::road::MapBuilder</text>
<text text-anchor="middle" x="214.88" y="-120.5" font-family="Helvetica,sans-Serif" font-size="10.00">::AddJunction</text>
</a>
</g>
</g>
<!-- Node1&#45;&gt;Node5 -->
<g id="edge4_Node000001_Node000005" class="edge">
<title>Node1&#45;&gt;Node5</title>
<g id="a_edge4_Node000001_Node000005"><a xlink:title=" ">
<path fill="none" stroke="#63b8ff" d="M118.17,-145.55C127.1,-144.1 136.39,-142.59 145.52,-141.11"/>
<polygon fill="#63b8ff" stroke="#63b8ff" points="145.82,-144.44 155.13,-139.38 144.7,-137.53 145.82,-144.44"/>
</a>
</g>
</g>
<!-- Node7 -->
<g id="Node000007" class="node">
<title>Node7</title>
<g id="a_Node000007"><a xlink:href="../../de/d16/classcarla_1_1road_1_1MapBuilder.html#a43256ab478dc6251af976c7b466b0c45" target="_top" xlink:title=" ">
<polygon fill="white" stroke="#666666" points="273.12,-246 156.62,-246 156.62,-214 273.12,-214 273.12,-246"/>
<text text-anchor="start" x="164.62" y="-232.5" font-family="Helvetica,sans-Serif" font-size="10.00">carla::road::MapBuilder</text>
<text text-anchor="middle" x="214.88" y="-220.5" font-family="Helvetica,sans-Serif" font-size="10.00">::AddJunctionController</text>
</a>
</g>
</g>
<!-- Node1&#45;&gt;Node7 -->
<g id="edge6_Node000001_Node000007" class="edge">
<title>Node1&#45;&gt;Node7</title>
<g id="a_edge6_Node000001_Node000007"><a xlink:title=" ">
<path fill="none" stroke="#63b8ff" d="M89.28,-171.48C107.64,-181.59 131.95,-194.56 154,-205 156.96,-206.4 160.02,-207.81 163.12,-209.2"/>
<polygon fill="#63b8ff" stroke="#63b8ff" points="161.5,-212.75 172.07,-213.56 164.32,-206.34 161.5,-212.75"/>
</a>
</g>
</g>
<!-- Node8 -->
<g id="Node000008" class="node">
<title>Node8</title>
<g id="a_Node000008"><a xlink:href="../../de/d16/classcarla_1_1road_1_1MapBuilder.html#a8a75b8af56314c29891cb5c91a7fd00d" target="_top" xlink:title=" ">
<polygon fill="white" stroke="#666666" points="273.12,-196 156.62,-196 156.62,-164 273.12,-164 273.12,-196"/>
<text text-anchor="start" x="164.62" y="-182.5" font-family="Helvetica,sans-Serif" font-size="10.00">carla::road::MapBuilder</text>
<text text-anchor="middle" x="214.88" y="-170.5" font-family="Helvetica,sans-Serif" font-size="10.00">::AddLaneLink</text>
</a>
</g>
</g>
<!-- Node1&#45;&gt;Node8 -->
<g id="edge8_Node000001_Node000008" class="edge">
<title>Node1&#45;&gt;Node8</title>
<g id="a_edge8_Node000001_Node000008"><a xlink:title=" ">
<path fill="none" stroke="#63b8ff" d="M118.17,-164.45C127.1,-165.9 136.39,-167.41 145.52,-168.89"/>
<polygon fill="#63b8ff" stroke="#63b8ff" points="144.7,-172.47 155.13,-170.62 145.82,-165.56 144.7,-172.47"/>
</a>
</g>
</g>
<!-- Node11 -->
<g id="Node000011" class="node">
<title>Node11</title>
<g id="a_Node000011"><a xlink:href="../../db/d65/classpugi_1_1xml__node.html#a1e23e9720c90ef764197f1e0c71aa287" target="_top" xlink:title=" ">
<polygon fill="white" stroke="#666666" points="269,-96 160.75,-96 160.75,-76 269,-76 269,-96"/>
<text text-anchor="middle" x="214.88" y="-82.5" font-family="Helvetica,sans-Serif" font-size="10.00">pugi::xml_node::child</text>
</a>
</g>
</g>
<!-- Node1&#45;&gt;Node11 -->
<g id="edge12_Node000001_Node000011" class="edge">
<title>Node1&#45;&gt;Node11</title>
<g id="a_edge12_Node000001_Node000011"><a xlink:title=" ">
<path fill="none" stroke="#63b8ff" d="M87.73,-138.53C106.11,-128.05 131,-114.67 154,-105 158.18,-103.24 162.59,-101.55 167.04,-99.95"/>
<polygon fill="#63b8ff" stroke="#63b8ff" points="168.07,-102.96 176.4,-96.41 165.8,-96.34 168.07,-102.96"/>
</a>
</g>
</g>
<!-- Node13 -->
<g id="Node000013" class="node">
<title>Node13</title>
<g id="a_Node000013"><a xlink:href="../../db/d65/classpugi_1_1xml__node.html#a3dd84eaeb958e8262f3edb7bda013101" target="_top" xlink:title=" ">
<polygon fill="white" stroke="#666666" points="275.75,-58 154,-58 154,-38 275.75,-38 275.75,-58"/>
<text text-anchor="middle" x="214.88" y="-44.5" font-family="Helvetica,sans-Serif" font-size="10.00">pugi::xml_node::children</text>
</a>
</g>
</g>
<!-- Node1&#45;&gt;Node13 -->
<g id="edge14_Node000001_Node000013" class="edge">
<title>Node1&#45;&gt;Node13</title>
<g id="a_edge14_Node000001_Node000013"><a xlink:title=" ">
<path fill="none" stroke="#63b8ff" d="M73.3,-138.73C90.15,-119.09 121.02,-86.32 154,-67 156.69,-65.42 159.53,-63.96 162.44,-62.61"/>
<polygon fill="#63b8ff" stroke="#63b8ff" points="163.67,-65.48 171.57,-58.43 160.99,-59.01 163.67,-65.48"/>
</a>
</g>
</g>
<!-- Node3 -->
<g id="Node000003" class="node">
<title>Node3</title>
<g id="a_Node000003"><a xlink:href="../../dd/dc6/classcarla_1_1road_1_1Junction.html#abedc91af2eee0d254ed59a43f2a37744" target="_top" xlink:title=" ">
<polygon fill="white" stroke="#666666" points="430.12,-346 326.38,-346 326.38,-314 430.12,-314 430.12,-346"/>
<text text-anchor="start" x="334.38" y="-332.5" font-family="Helvetica,sans-Serif" font-size="10.00">carla::road::Junction</text>
<text text-anchor="middle" x="378.25" y="-320.5" font-family="Helvetica,sans-Serif" font-size="10.00">::GetConnections</text>
</a>
</g>
</g>
<!-- Node2&#45;&gt;Node3 -->
<g id="edge2_Node000002_Node000003" class="edge">
<title>Node2&#45;&gt;Node3</title>
<g id="a_edge2_Node000002_Node000003"><a xlink:title=" ">
<path fill="none" stroke="#63b8ff" d="M268.72,-296.37C283.65,-301 300.04,-306.08 315.45,-310.85"/>
<polygon fill="#63b8ff" stroke="#63b8ff" points="314.35,-314.49 324.94,-314.1 316.42,-307.8 314.35,-314.49"/>
</a>
</g>
</g>
<!-- Node4 -->
<g id="Node000004" class="node">
<title>Node4</title>
<g id="a_Node000004"><a xlink:href="../../da/d3b/classcarla_1_1road_1_1MapData.html#af580facf9de3fe646c8984dc2365301d" target="_top" xlink:title=" ">
<polygon fill="white" stroke="#666666" points="431.62,-296 324.88,-296 324.88,-264 431.62,-264 431.62,-296"/>
<text text-anchor="start" x="332.88" y="-282.5" font-family="Helvetica,sans-Serif" font-size="10.00">carla::road::MapData</text>
<text text-anchor="middle" x="378.25" y="-270.5" font-family="Helvetica,sans-Serif" font-size="10.00">::GetJunction</text>
</a>
</g>
</g>
<!-- Node2&#45;&gt;Node4 -->
<g id="edge3_Node000002_Node000004" class="edge">
<title>Node2&#45;&gt;Node4</title>
<g id="a_edge3_Node000002_Node000004"><a xlink:title=" ">
<path fill="none" stroke="#63b8ff" d="M273.22,-280C286.25,-280 300.16,-280 313.43,-280"/>
<polygon fill="#63b8ff" stroke="#63b8ff" points="313.4,-283.5 323.4,-280 313.4,-276.5 313.4,-283.5"/>
</a>
</g>
</g>
<!-- Node6 -->
<g id="Node000006" class="node">
<title>Node6</title>
<g id="a_Node000006"><a xlink:href="../../da/d3b/classcarla_1_1road_1_1MapData.html#ada1ec7c5f6908e9b4cebc302aa4ec466" target="_top" xlink:title=" ">
<polygon fill="white" stroke="#666666" points="431.62,-146 324.88,-146 324.88,-114 431.62,-114 431.62,-146"/>
<text text-anchor="start" x="332.88" y="-132.5" font-family="Helvetica,sans-Serif" font-size="10.00">carla::road::MapData</text>
<text text-anchor="middle" x="378.25" y="-120.5" font-family="Helvetica,sans-Serif" font-size="10.00">::GetJunctions</text>
</a>
</g>
</g>
<!-- Node5&#45;&gt;Node6 -->
<g id="edge5_Node000005_Node000006" class="edge">
<title>Node5&#45;&gt;Node6</title>
<g id="a_edge5_Node000005_Node000006"><a xlink:title=" ">
<path fill="none" stroke="#63b8ff" d="M273.22,-130C286.25,-130 300.16,-130 313.43,-130"/>
<polygon fill="#63b8ff" stroke="#63b8ff" points="313.4,-133.5 323.4,-130 313.4,-126.5 313.4,-133.5"/>
</a>
</g>
</g>
<!-- Node7&#45;&gt;Node4 -->
<g id="edge7_Node000007_Node000004" class="edge">
<title>Node7&#45;&gt;Node4</title>
<g id="a_edge7_Node000007_Node000004"><a xlink:title=" ">
<path fill="none" stroke="#63b8ff" d="M268.72,-246.37C283.28,-250.88 299.22,-255.82 314.3,-260.49"/>
<polygon fill="#63b8ff" stroke="#63b8ff" points="312.98,-264.06 323.57,-263.68 315.05,-257.37 312.98,-264.06"/>
</a>
</g>
</g>
<!-- Node8&#45;&gt;Node4 -->
<g id="edge11_Node000008_Node000004" class="edge">
<title>Node8&#45;&gt;Node4</title>
<g id="a_edge11_Node000008_Node000004"><a xlink:title=" ">
<path fill="none" stroke="#63b8ff" d="M262.45,-196.36C267.16,-198.91 271.69,-201.78 275.75,-205 297.19,-222.03 290.05,-238.3 311.75,-255 313.18,-256.1 314.66,-257.15 316.18,-258.16"/>
<polygon fill="#63b8ff" stroke="#63b8ff" points="313.89,-261.47 324.29,-263.51 317.43,-255.43 313.89,-261.47"/>
</a>
</g>
</g>
<!-- Node9 -->
<g id="Node000009" class="node">
<title>Node9</title>
<g id="a_Node000009"><a xlink:href="../../d1/d9e/structcarla_1_1road_1_1Junction_1_1Connection.html#a06d553f83562d5a8576fb5cb96ae4fd0" target="_top" xlink:title=" ">
<polygon fill="white" stroke="#666666" points="444.75,-246 311.75,-246 311.75,-214 444.75,-214 444.75,-246"/>
<text text-anchor="start" x="319.75" y="-232.5" font-family="Helvetica,sans-Serif" font-size="10.00">carla::road::Junction</text>
<text text-anchor="middle" x="378.25" y="-220.5" font-family="Helvetica,sans-Serif" font-size="10.00">::Connection::AddLaneLink</text>
</a>
</g>
</g>
<!-- Node8&#45;&gt;Node9 -->
<g id="edge9_Node000008_Node000009" class="edge">
<title>Node8&#45;&gt;Node9</title>
<g id="a_edge9_Node000008_Node000009"><a xlink:title=" ">
<path fill="none" stroke="#63b8ff" d="M268.72,-196.37C283.13,-200.84 298.9,-205.72 313.83,-210.35"/>
<polygon fill="#63b8ff" stroke="#63b8ff" points="312.43,-213.89 323.02,-213.51 314.5,-207.2 312.43,-213.89"/>
</a>
</g>
</g>
<!-- Node10 -->
<g id="Node000010" class="node">
<title>Node10</title>
<g id="a_Node000010"><a xlink:href="../../dd/dc6/classcarla_1_1road_1_1Junction.html#a9f491d0ae7799de3471ea4fb4656c5a4" target="_top" xlink:title=" ">
<polygon fill="white" stroke="#666666" points="430.12,-196 326.38,-196 326.38,-164 430.12,-164 430.12,-196"/>
<text text-anchor="start" x="334.38" y="-182.5" font-family="Helvetica,sans-Serif" font-size="10.00">carla::road::Junction</text>
<text text-anchor="middle" x="378.25" y="-170.5" font-family="Helvetica,sans-Serif" font-size="10.00">::GetConnection</text>
</a>
</g>
</g>
<!-- Node8&#45;&gt;Node10 -->
<g id="edge10_Node000008_Node000010" class="edge">
<title>Node8&#45;&gt;Node10</title>
<g id="a_edge10_Node000008_Node000010"><a xlink:title=" ">
<path fill="none" stroke="#63b8ff" d="M273.22,-180C286.81,-180 301.35,-180 315.14,-180"/>
<polygon fill="#63b8ff" stroke="#63b8ff" points="314.99,-183.5 324.99,-180 314.99,-176.5 314.99,-183.5"/>
</a>
</g>
</g>
<!-- Node12 -->
<g id="Node000012" class="node">
<title>Node12</title>
<g id="a_Node000012"><a xlink:href="../../db/d65/classpugi_1_1xml__node.html#a36ec0eb8b399d71f6b55be0e181c69f9" target="_top" xlink:title=" ">
<polygon fill="white" stroke="#666666" points="443.25,-96 313.25,-96 313.25,-76 443.25,-76 443.25,-96"/>
<text text-anchor="middle" x="378.25" y="-82.5" font-family="Helvetica,sans-Serif" font-size="10.00">pugi::xml_node::xml_node</text>
</a>
</g>
</g>
<!-- Node11&#45;&gt;Node12 -->
<g id="edge13_Node000011_Node000012" class="edge">
<title>Node11&#45;&gt;Node12</title>
<g id="a_edge13_Node000011_Node000012"><a xlink:title=" ">
<path fill="none" stroke="#63b8ff" d="M269.16,-86C279.63,-86 290.79,-86 301.82,-86"/>
<polygon fill="#63b8ff" stroke="#63b8ff" points="301.78,-89.5 311.78,-86 301.78,-82.5 301.78,-89.5"/>
</a>
</g>
</g>
<!-- Node14 -->
<g id="Node000014" class="node">
<title>Node14</title>
<g id="a_Node000014"><a xlink:href="../../db/d65/classpugi_1_1xml__node.html#ae42dc1a560ee36a16f907cd7aa89cc9c" target="_top" xlink:title=" ">
<polygon fill="white" stroke="#666666" points="433.88,-58 322.62,-58 322.62,-38 433.88,-38 433.88,-58"/>
<text text-anchor="middle" x="378.25" y="-44.5" font-family="Helvetica,sans-Serif" font-size="10.00">pugi::xml_node::begin</text>
</a>
</g>
</g>
<!-- Node13&#45;&gt;Node14 -->
<g id="edge15_Node000013_Node000014" class="edge">
<title>Node13&#45;&gt;Node14</title>
<g id="a_edge15_Node000013_Node000014"><a xlink:title=" ">
<path fill="none" stroke="#63b8ff" d="M275.97,-48C287.56,-48 299.76,-48 311.53,-48"/>
<polygon fill="#63b8ff" stroke="#63b8ff" points="311.18,-51.5 321.18,-48 311.18,-44.5 311.18,-51.5"/>
</a>
</g>
</g>
<!-- Node15 -->
<g id="Node000015" class="node">
<title>Node15</title>
<g id="a_Node000015"><a xlink:href="../../db/d65/classpugi_1_1xml__node.html#a6c1f42812de4e25ac72908efab842126" target="_top" xlink:title=" ">
<polygon fill="white" stroke="#666666" points="430.12,-20 326.38,-20 326.38,0 430.12,0 430.12,-20"/>
<text text-anchor="middle" x="378.25" y="-6.5" font-family="Helvetica,sans-Serif" font-size="10.00">pugi::xml_node::end</text>
</a>
</g>
</g>
<!-- Node13&#45;&gt;Node15 -->
<g id="edge16_Node000013_Node000015" class="edge">
<title>Node13&#45;&gt;Node15</title>
<g id="a_edge16_Node000013_Node000015"><a xlink:title=" ">
<path fill="none" stroke="#63b8ff" d="M260.4,-37.52C279.54,-33.01 302.1,-27.7 322.26,-22.95"/>
<polygon fill="#63b8ff" stroke="#63b8ff" points="322.94,-26.15 331.87,-20.45 321.34,-19.34 322.94,-26.15"/>
</a>
</g>
</g>
</g>
</svg>
</svg>

<style type='text/css'>
<![CDATA[
[data-mouse-over-selected='false'] { opacity: 0.7; }
[data-mouse-over-selected='true']  { opacity: 1.0; }
]]>
</style>
<script type="application/ecmascript"><![CDATA[
document.addEventListener('DOMContentLoaded', (event) => {
  highlightEdges();
  highlightAdjacentNodes();
});
]]></script>
</svg>
