<?xml version="1.0" encoding="UTF-8" standalone="no"?>
<!DOCTYPE svg PUBLIC "-//W3C//DTD SVG 1.1//EN"
 "http://www.w3.org/Graphics/SVG/1.1/DTD/svg11.dtd">
<!-- Generated by graphviz version 8.1.0 (20230707.0739)
 -->
<!-- Title: CarlaReplayerHelper::ProcessReplayerAnimVehicle Pages: 1 -->
<svg width="324pt" height="90pt"
 viewBox="0.00 0.00 324.25 90.00" xmlns="http://www.w3.org/2000/svg" xmlns:xlink="http://www.w3.org/1999/xlink">
<g id="graph0" class="graph" transform="scale(1 1) rotate(0) translate(4 86)">
<title>CarlaReplayerHelper::ProcessReplayerAnimVehicle</title>
<!-- Node1 -->
<g id="Node000001" class="node">
<title>Node1</title>
<g id="a_Node000001"><a xlink:title=" ">
<polygon fill="#999999" stroke="#666666" points="151,-57 0,-57 0,-25 151,-25 151,-57"/>
<text text-anchor="start" x="8" y="-43.5" font-family="Helvetica,sans-Serif" font-size="10.00">CarlaReplayerHelper</text>
<text text-anchor="middle" x="75.5" y="-31.5" font-family="Helvetica,sans-Serif" font-size="10.00">::ProcessReplayerAnimVehicle</text>
</a>
</g>
</g>
<!-- Node2 -->
<g id="Node000002" class="node">
<title>Node2</title>
<g id="a_Node000002"><a xlink:href="../../dc/dde/classFCarlaActor.html#a512d81b6449c44c14e54848e71b4f053" target="_top" xlink:title=" ">
<polygon fill="white" stroke="#666666" points="316.25,-82 187,-82 187,-50 316.25,-50 316.25,-82"/>
<text text-anchor="start" x="195" y="-68.5" font-family="Helvetica,sans-Serif" font-size="10.00">FCarlaActor::ApplyControl</text>
<text text-anchor="middle" x="251.62" y="-56.5" font-family="Helvetica,sans-Serif" font-size="10.00">ToVehicle</text>
</a>
</g>
</g>
<!-- Node1&#45;&gt;Node2 -->
<g id="edge1_Node000001_Node000002" class="edge">
<title>Node1&#45;&gt;Node2</title>
<g id="a_edge1_Node000001_Node000002"><a xlink:title=" ">
<path fill="none" stroke="#63b8ff" d="M151.36,-51.75C159.4,-52.9 167.59,-54.08 175.64,-55.23"/>
<polygon fill="#63b8ff" stroke="#63b8ff" points="175.11,-58.84 185.51,-56.79 176.1,-51.91 175.11,-58.84"/>
</a>
</g>
</g>
<!-- Node3 -->
<g id="Node000003" class="node">
<title>Node3</title>
<g id="a_Node000003"><a xlink:href="../../dc/d84/classUCarlaEpisode.html#a4d0c7a09f4d9de8110605e10125a93aa" target="_top" xlink:title="Find a Carla actor by id.">
<polygon fill="white" stroke="#666666" points="315.5,-32 187.75,-32 187.75,0 315.5,0 315.5,-32"/>
<text text-anchor="start" x="195.75" y="-18.5" font-family="Helvetica,sans-Serif" font-size="10.00">UCarlaEpisode::FindCarla</text>
<text text-anchor="middle" x="251.62" y="-6.5" font-family="Helvetica,sans-Serif" font-size="10.00">Actor</text>
</a>
</g>
</g>
<!-- Node1&#45;&gt;Node3 -->
<g id="edge2_Node000001_Node000003" class="edge">
<title>Node1&#45;&gt;Node3</title>
<g id="a_edge2_Node000001_Node000003"><a xlink:title=" ">
<path fill="none" stroke="#63b8ff" d="M151.36,-30.25C159.69,-29.06 168.17,-27.84 176.49,-26.64"/>
<polygon fill="#63b8ff" stroke="#63b8ff" points="176.91,-29.98 186.32,-25.09 175.92,-23.05 176.91,-29.98"/>
</a>
</g>
</g>
</g>
</svg>
