<?xml version="1.0" encoding="UTF-8" standalone="no"?>
<!DOCTYPE svg PUBLIC "-//W3C//DTD SVG 1.1//EN"
 "http://www.w3.org/Graphics/SVG/1.1/DTD/svg11.dtd">
<!-- Generated by graphviz version 8.1.0 (20230707.0739)
 -->
<!-- Title: UBoundingBoxCalculator::CombineBBsOfActor Pages: 1 -->
<!--zoomable 154 -->

<svg id="main" version="1.1" xmlns="http://www.w3.org/2000/svg" xmlns:xlink="http://www.w3.org/1999/xlink" xml:space="preserve" onload="init(evt)">
<style type="text/css"><![CDATA[
.node, .edge {opacity: 0.7;}
.node.selected, .edge.selected {opacity: 1;}
.edge:hover path { stroke: red; }
.edge:hover polygon { stroke: red; fill: red; }
]]></style>

<defs>
  <circle id="rim" cx="0" cy="0" r="7"/>
  <circle id="rim2" cx="0" cy="0" r="3.5"/>
  <g id="zoomPlus">
    <use xlink:href="#rim" fill="#404040"><set attributeName="fill" to="#808080" begin="zoomplus.mouseover" end="zoomplus.mouseout"/></use>
    <path d="M-4,0h8M0,-4v8" fill="none" stroke="white" stroke-width="1.5" pointer-events="none"/>
  </g>
  <g id="zoomMin">
    <use xlink:href="#rim" fill="#404040"><set attributeName="fill" to="#808080" begin="zoomminus.mouseover" end="zoomminus.mouseout"/></use>
    <path d="M-4,0h8" fill="none" stroke="white" stroke-width="1.5" pointer-events="none"/>
  </g>
  <g id="arrowUp" transform="translate(30 24)">
    <use xlink:href="#rim"/>
    <path pointer-events="none" fill="none" stroke="white" stroke-width="1.5" d="M0,-3.0v7 M-2.5,-0.5L0,-3.0L2.5,-0.5"/>
  </g>
  <g id="arrowRight" transform="rotate(90) translate(36 -43)">
    <use xlink:href="#rim"/>
    <path pointer-events="none" fill="none" stroke="white" stroke-width="1.5" d="M0,-3.0v7 M-2.5,-0.5L0,-3.0L2.5,-0.5"/>
  </g>
  <g id="arrowDown" transform="rotate(180) translate(-30 -48)">
    <use xlink:href="#rim"/>
    <path pointer-events="none" fill="none" stroke="white" stroke-width="1.5" d="M0,-3.0v7 M-2.5,-0.5L0,-3.0L2.5,-0.5"/>
  </g>
  <g id="arrowLeft" transform="rotate(270) translate(-36 17)">
    <use xlink:href="#rim"/>
    <path pointer-events="none" fill="none" stroke="white" stroke-width="1.5" d="M0,-3.0v7 M-2.5,-0.5L0,-3.0L2.5,-0.5"/>
  </g>
  <g id="resetDef">
    <use xlink:href="#rim2" fill="#404040"><set attributeName="fill" to="#808080" begin="reset.mouseover" end="reset.mouseout"/></use>
  </g>
</defs>
<script type="application/ecmascript">
var viewWidth = 555;
var viewHeight = 154;
var sectionId = 'dynsection-4';
</script>
<script type="application/ecmascript" xlink:href="../../svg.min.js"/>
<svg id="graph" class="graph">
<g id="viewport">
<title>UBoundingBoxCalculator::CombineBBsOfActor</title>
<!-- Node1 -->
<g id="Node000001" class="node">
<title>Node1</title>
<g id="a_Node000001"><a xlink:title=" ">
<polygon fill="#999999" stroke="#666666" points="124,-111 0,-111 0,-79 124,-79 124,-111"/>
<text text-anchor="start" x="8" y="-97.5" font-family="Helvetica,sans-Serif" font-size="10.00">UBoundingBoxCalculator</text>
<text text-anchor="middle" x="62" y="-85.5" font-family="Helvetica,sans-Serif" font-size="10.00">::CombineBBsOfActor</text>
</a>
</g>
</g>
<!-- Node2 -->
<g id="Node000002" class="node">
<title>Node2</title>
<g id="a_Node000002"><a xlink:href="../../df/d02/classUBoundingBoxCalculator.html#adc638d4ad146b80666f002e31fb67dca" target="_top" xlink:title=" ">
<polygon fill="white" stroke="#666666" points="307.25,-144 183.25,-144 183.25,-112 307.25,-112 307.25,-144"/>
<text text-anchor="start" x="191.25" y="-130.5" font-family="Helvetica,sans-Serif" font-size="10.00">UBoundingBoxCalculator</text>
<text text-anchor="middle" x="245.25" y="-118.5" font-family="Helvetica,sans-Serif" font-size="10.00">::CombineBBs</text>
</a>
</g>
</g>
<!-- Node1&#45;&gt;Node2 -->
<g id="edge1_Node000001_Node000002" class="edge">
<title>Node1&#45;&gt;Node2</title>
<g id="a_edge1_Node000001_Node000002"><a xlink:title=" ">
<path fill="none" stroke="#63b8ff" d="M124.36,-106.17C139.72,-108.97 156.33,-111.99 172.15,-114.87"/>
<polygon fill="#63b8ff" stroke="#63b8ff" points="171.48,-118.49 181.95,-116.84 172.74,-111.6 171.48,-118.49"/>
</a>
</g>
</g>
<!-- Node4 -->
<g id="Node000004" class="node">
<title>Node4</title>
<g id="a_Node000004"><a xlink:href="../../df/d02/classUBoundingBoxCalculator.html#ae6652aae39124e629b2cab14760fa027" target="_top" xlink:title=" ">
<polygon fill="white" stroke="#666666" points="330.5,-86 160,-86 160,-54 330.5,-54 330.5,-86"/>
<text text-anchor="start" x="168" y="-72.5" font-family="Helvetica,sans-Serif" font-size="10.00">UBoundingBoxCalculator</text>
<text text-anchor="middle" x="245.25" y="-60.5" font-family="Helvetica,sans-Serif" font-size="10.00">::GetBBsOfStaticMeshComponents</text>
</a>
</g>
</g>
<!-- Node1&#45;&gt;Node4 -->
<g id="edge3_Node000001_Node000004" class="edge">
<title>Node1&#45;&gt;Node4</title>
<g id="a_edge3_Node000001_Node000004"><a xlink:title=" ">
<path fill="none" stroke="#63b8ff" d="M124.36,-86.54C132.38,-85.43 140.74,-84.28 149.14,-83.12"/>
<polygon fill="#63b8ff" stroke="#63b8ff" points="149.37,-86.48 158.8,-81.65 148.42,-79.55 149.37,-86.48"/>
</a>
</g>
</g>
<!-- Node3 -->
<g id="Node000003" class="node">
<title>Node3</title>
<g id="a_Node000003"><a xlink:href="../../dd/dd8/BoundingBoxCalculator_8cpp.html#add48caf167e197fab6a9c2228ad1c024" target="_top" xlink:title=" ">
<polygon fill="white" stroke="#666666" points="534.75,-146 378.5,-146 378.5,-126 534.75,-126 534.75,-146"/>
<text text-anchor="middle" x="456.62" y="-132.5" font-family="Helvetica,sans-Serif" font-size="10.00">CombineBoundingBoxesGeneric</text>
</a>
</g>
</g>
<!-- Node2&#45;&gt;Node3 -->
<g id="edge2_Node000002_Node000003" class="edge">
<title>Node2&#45;&gt;Node3</title>
<g id="a_edge2_Node000002_Node000003"><a xlink:title=" ">
<path fill="none" stroke="#63b8ff" d="M307.65,-130.35C326.37,-131.06 347.33,-131.86 367.45,-132.63"/>
<polygon fill="#63b8ff" stroke="#63b8ff" points="367.08,-136.16 377.2,-133.04 367.35,-129.16 367.08,-136.16"/>
</a>
</g>
</g>
<!-- Node5 -->
<g id="Node000005" class="node">
<title>Node5</title>
<g id="a_Node000005"><a xlink:href="../../dd/dd8/BoundingBoxCalculator_8cpp.html#a724edcd3050f902e60a4c923013b7e4c" target="_top" xlink:title=" ">
<polygon fill="white" stroke="#666666" points="510.38,-108 402.88,-108 402.88,-88 510.38,-88 510.38,-108"/>
<text text-anchor="middle" x="456.62" y="-94.5" font-family="Helvetica,sans-Serif" font-size="10.00">ApplyTransformToBB</text>
</a>
</g>
</g>
<!-- Node4&#45;&gt;Node5 -->
<g id="edge4_Node000004_Node000005" class="edge">
<title>Node4&#45;&gt;Node5</title>
<g id="a_edge4_Node000004_Node000005"><a xlink:title=" ">
<path fill="none" stroke="#63b8ff" d="M330.81,-81.31C351.21,-84.04 372.66,-86.91 391.92,-89.48"/>
<polygon fill="#63b8ff" stroke="#63b8ff" points="391.3,-93.06 401.68,-90.92 392.23,-86.12 391.3,-93.06"/>
</a>
</g>
</g>
<!-- Node6 -->
<g id="Node000006" class="node">
<title>Node6</title>
<g id="a_Node000006"><a xlink:href="../../df/d02/classUBoundingBoxCalculator.html#acee57735172616e5908916e178b16b7f" target="_top" xlink:title=" ">
<polygon fill="white" stroke="#666666" points="529.12,-70 384.12,-70 384.12,-38 529.12,-38 529.12,-70"/>
<text text-anchor="start" x="392.12" y="-56.5" font-family="Helvetica,sans-Serif" font-size="10.00">UBoundingBoxCalculator</text>
<text text-anchor="middle" x="456.62" y="-44.5" font-family="Helvetica,sans-Serif" font-size="10.00">::GetStaticMeshBoundingBox</text>
</a>
</g>
</g>
<!-- Node4&#45;&gt;Node6 -->
<g id="edge5_Node000004_Node000006" class="edge">
<title>Node4&#45;&gt;Node6</title>
<g id="a_edge5_Node000004_Node000006"><a xlink:title=" ">
<path fill="none" stroke="#63b8ff" d="M330.81,-63.54C344.69,-62.48 359.06,-61.38 372.9,-60.32"/>
<polygon fill="#63b8ff" stroke="#63b8ff" points="373.15,-63.74 382.86,-59.48 372.62,-56.76 373.15,-63.74"/>
</a>
</g>
</g>
<!-- Node7 -->
<g id="Node000007" class="node">
<title>Node7</title>
<g id="a_Node000007"><a xlink:href="../../da/d86/classATagger.html#a1fbf1e4054acac5814c5521796a410a2" target="_top" xlink:title="Retrieve the tag of an already tagged component.">
<polygon fill="white" stroke="#666666" points="546.75,-20 366.5,-20 366.5,0 546.75,0 546.75,-20"/>
<text text-anchor="middle" x="456.62" y="-6.5" font-family="Helvetica,sans-Serif" font-size="10.00">ATagger::GetTagOfTaggedComponent</text>
</a>
</g>
</g>
<!-- Node4&#45;&gt;Node7 -->
<g id="edge6_Node000004_Node000007" class="edge">
<title>Node4&#45;&gt;Node7</title>
<g id="a_edge6_Node000004_Node000007"><a xlink:title=" ">
<path fill="none" stroke="#63b8ff" d="M290.4,-53.54C312.97,-45.49 340.99,-36.04 366.5,-29 374.44,-26.81 382.83,-24.72 391.16,-22.79"/>
<polygon fill="#63b8ff" stroke="#63b8ff" points="391.66,-26.04 400.65,-20.43 390.12,-19.21 391.66,-26.04"/>
</a>
</g>
</g>
</g>
</svg>

<g id="navigator" transform="translate(0 0)" fill="#404254">
  <rect fill="#f2f5e9" fill-opacity="0.5" stroke="#606060" stroke-width=".5" x="0" y="0" width="60" height="60"/>
  <use id="zoomplus" xlink:href="#zoomPlus" x="17" y="9" onmousedown="handleZoom(evt,'in')"/>
  <use id="zoomminus" xlink:href="#zoomMin" x="42" y="9" onmousedown="handleZoom(evt,'out')"/>
  <use id="reset" xlink:href="#resetDef" x="30" y="36" onmousedown="handleReset()"/>
   <use id="arrowup" xlink:href="#arrowUp" x="0" y="0" onmousedown="handlePan(0,-1)"/>
  <use id="arrowright" xlink:href="#arrowRight" x="0" y="0" onmousedown="handlePan(1,0)"/>
  <use id="arrowdown" xlink:href="#arrowDown" x="0" y="0" onmousedown="handlePan(0,1)"/>
  <use id="arrowleft" xlink:href="#arrowLeft" x="0" y="0" onmousedown="handlePan(-1,0)"/>
</g>
<svg viewBox="0 0 15 15" width="100%" height="30px" preserveAspectRatio="xMaxYMin meet">
 <g id="arrow_out" transform="scale(0.3 0.3)">
  <a xlink:href="classUBoundingBoxCalculator_af2813a65238c05c9f421c93839766edb_cgraph_org.svg" target="_base">
   <rect id="button" ry="5" rx="5" y="6" x="6" height="38" width="38"
        fill="#f2f5e9" fill-opacity="0.5" stroke="#606060" stroke-width="1.0"/>
   <path id="arrow"
     d="M 11.500037,31.436501 C 11.940474,20.09759 22.043105,11.32322 32.158766,21.979434 L 37.068811,17.246167 C 37.068811,17.246167 37.088388,32 37.088388,32 L 22.160133,31.978069 C 22.160133,31.978069 26.997745,27.140456 26.997745,27.140456 C 18.528582,18.264221 13.291696,25.230495 11.500037,31.436501 z"
     style="fill:#404040;"/>
  </a>
 </g>
</svg>

<style type='text/css'>
<![CDATA[
[data-mouse-over-selected='false'] { opacity: 0.7; }
[data-mouse-over-selected='true']  { opacity: 1.0; }
]]>
</style>
<script type="application/ecmascript"><![CDATA[
document.addEventListener('DOMContentLoaded', (event) => {
  highlightEdges();
  highlightAdjacentNodes();
});
]]></script>
</svg>
