<?xml version="1.0" encoding="UTF-8" standalone="no"?>
<!DOCTYPE svg PUBLIC "-//W3C//DTD SVG 1.1//EN"
 "http://www.w3.org/Graphics/SVG/1.1/DTD/svg11.dtd">
<!-- Generated by graphviz version 8.1.0 (20230707.0739)
 -->
<!-- Title: FSparseHighDetailMap::InitializeRegionInCache Pages: 1 -->
<svg width="462pt" height="134pt"
 viewBox="0.00 0.00 461.75 134.00" xmlns="http://www.w3.org/2000/svg" xmlns:xlink="http://www.w3.org/1999/xlink">
<g id="graph0" class="graph" transform="scale(1 1) rotate(0) translate(4 130)">
<title>FSparseHighDetailMap::InitializeRegionInCache</title>
<!-- Node1 -->
<g id="Node000001" class="node">
<title>Node1</title>
<g id="a_Node000001"><a xlink:title=" ">
<polygon fill="#999999" stroke="#666666" points="122.5,-86 0,-86 0,-54 122.5,-54 122.5,-86"/>
<text text-anchor="start" x="8" y="-72.5" font-family="Helvetica,sans-Serif" font-size="10.00">FSparseHighDetailMap</text>
<text text-anchor="middle" x="61.25" y="-60.5" font-family="Helvetica,sans-Serif" font-size="10.00">::InitializeRegionInCache</text>
</a>
</g>
</g>
<!-- Node2 -->
<g id="Node000002" class="node">
<title>Node2</title>
<g id="a_Node000002"><a xlink:href="../../d1/d85/classFSparseHighDetailMap.html#ab8c5d5555733083d93ac509424e11fc2" target="_top" xlink:title=" ">
<polygon fill="white" stroke="#666666" points="276.88,-108 161.12,-108 161.12,-76 276.88,-76 276.88,-108"/>
<text text-anchor="start" x="169.12" y="-94.5" font-family="Helvetica,sans-Serif" font-size="10.00">FSparseHighDetailMap</text>
<text text-anchor="middle" x="219" y="-82.5" font-family="Helvetica,sans-Serif" font-size="10.00">::GetTilePosition</text>
</a>
</g>
</g>
<!-- Node1&#45;&gt;Node2 -->
<g id="edge1_Node000001_Node000002" class="edge">
<title>Node1&#45;&gt;Node2</title>
<g id="a_edge1_Node000001_Node000002"><a xlink:title=" ">
<path fill="none" stroke="#63b8ff" d="M122.91,-78.57C131.78,-79.82 140.96,-81.12 149.96,-82.39"/>
<polygon fill="#63b8ff" stroke="#63b8ff" points="149.43,-85.99 159.82,-83.92 150.4,-79.06 149.43,-85.99"/>
</a>
</g>
</g>
<!-- Node3 -->
<g id="Node000003" class="node">
<title>Node3</title>
<g id="a_Node000003"><a xlink:href="../../d3/de5/structFDenseTile.html#ab6b0e572c1d1baad07394d553b96b03b" target="_top" xlink:title=" ">
<polygon fill="white" stroke="#666666" points="279.5,-58 158.5,-58 158.5,-38 279.5,-38 279.5,-58"/>
<text text-anchor="middle" x="219" y="-44.5" font-family="Helvetica,sans-Serif" font-size="10.00">FDenseTile::InitializeTile</text>
</a>
</g>
</g>
<!-- Node1&#45;&gt;Node3 -->
<g id="edge3_Node000001_Node000003" class="edge">
<title>Node1&#45;&gt;Node3</title>
<g id="a_edge3_Node000001_Node000003"><a xlink:title=" ">
<path fill="none" stroke="#63b8ff" d="M122.91,-61.43C130.93,-60.3 139.2,-59.13 147.37,-57.98"/>
<polygon fill="#63b8ff" stroke="#63b8ff" points="147.6,-61.34 157.01,-56.47 146.62,-54.41 147.6,-61.34"/>
</a>
</g>
</g>
<!-- Node2&#45;&gt;Node2 -->
<g id="edge2_Node000002_Node000002" class="edge">
<title>Node2&#45;&gt;Node2</title>
<g id="a_edge2_Node000002_Node000002"><a xlink:title=" ">
<path fill="none" stroke="#63b8ff" d="M190.84,-108.44C185.58,-117.58 194.97,-126 219,-126 232.89,-126 241.89,-123.19 246,-119.05"/>
<polygon fill="#63b8ff" stroke="#63b8ff" points="249.55,-119.77 247.16,-109.44 242.59,-119 249.55,-119.77"/>
</a>
</g>
</g>
<!-- Node4 -->
<g id="Node000004" class="node">
<title>Node4</title>
<g id="a_Node000004"><a xlink:href="../../d7/d20/structFHeightMapData.html#a8f577c9a56dd60674dbdaf31abbebb8f" target="_top" xlink:title=" ">
<polygon fill="white" stroke="#666666" points="453.75,-96 315.5,-96 315.5,-76 453.75,-76 453.75,-96"/>
<text text-anchor="middle" x="384.62" y="-82.5" font-family="Helvetica,sans-Serif" font-size="10.00">FHeightMapData::GetHeight</text>
</a>
</g>
</g>
<!-- Node3&#45;&gt;Node4 -->
<g id="edge4_Node000003_Node000004" class="edge">
<title>Node3&#45;&gt;Node4</title>
<g id="a_edge4_Node000003_Node000004"><a xlink:title=" ">
<path fill="none" stroke="#63b8ff" d="M265.14,-58.48C284.64,-63.01 307.63,-68.35 328.15,-73.12"/>
<polygon fill="#63b8ff" stroke="#63b8ff" points="327.1,-76.7 337.63,-75.55 328.68,-69.88 327.1,-76.7"/>
</a>
</g>
</g>
<!-- Node5 -->
<g id="Node000005" class="node">
<title>Node5</title>
<g id="a_Node000005"><a xlink:href="../../d6/d51/CarlaRecorderHelpers_8cpp.html#ae08e4aad382a9626efef6d44e45905d2" target="_top" xlink:title=" ">
<polygon fill="white" stroke="#666666" points="421.12,-58 348.12,-58 348.12,-38 421.12,-38 421.12,-58"/>
<text text-anchor="middle" x="384.62" y="-44.5" font-family="Helvetica,sans-Serif" font-size="10.00">ReadFVector</text>
</a>
</g>
</g>
<!-- Node3&#45;&gt;Node5 -->
<g id="edge5_Node000003_Node000005" class="edge">
<title>Node3&#45;&gt;Node5</title>
<g id="a_edge5_Node000003_Node000005"><a xlink:title=" ">
<path fill="none" stroke="#63b8ff" d="M280,-48C298.79,-48 319.24,-48 336.97,-48"/>
<polygon fill="#63b8ff" stroke="#63b8ff" points="336.9,-51.5 346.9,-48 336.9,-44.5 336.9,-51.5"/>
</a>
</g>
</g>
<!-- Node6 -->
<g id="Node000006" class="node">
<title>Node6</title>
<g id="a_Node000006"><a xlink:href="../../de/d7a/structFDVector.html#aef09da4e4eb5acd25e716bc739c0cf2a" target="_top" xlink:title=" ">
<polygon fill="white" stroke="#666666" points="434.25,-20 335,-20 335,0 434.25,0 434.25,-20"/>
<text text-anchor="middle" x="384.62" y="-6.5" font-family="Helvetica,sans-Serif" font-size="10.00">FDVector::ToString</text>
</a>
</g>
</g>
<!-- Node3&#45;&gt;Node6 -->
<g id="edge6_Node000003_Node000006" class="edge">
<title>Node3&#45;&gt;Node6</title>
<g id="a_edge6_Node000003_Node000006"><a xlink:title=" ">
<path fill="none" stroke="#63b8ff" d="M265.14,-37.52C284.64,-32.99 307.63,-27.65 328.15,-22.88"/>
<polygon fill="#63b8ff" stroke="#63b8ff" points="328.68,-26.12 337.63,-20.45 327.1,-19.3 328.68,-26.12"/>
</a>
</g>
</g>
</g>
</svg>
