<?xml version="1.0" encoding="UTF-8" standalone="no"?>
<!DOCTYPE svg PUBLIC "-//W3C//DTD SVG 1.1//EN"
 "http://www.w3.org/Graphics/SVG/1.1/DTD/svg11.dtd">
<!-- Generated by graphviz version 8.1.0 (20230707.0739)
 -->
<!-- Title: carla::sensor::CompositeSerializer::Deserialize Pages: 1 -->
<svg width="728pt" height="52pt"
 viewBox="0.00 0.00 727.75 52.00" xmlns="http://www.w3.org/2000/svg" xmlns:xlink="http://www.w3.org/1999/xlink">
<g id="graph0" class="graph" transform="scale(1 1) rotate(0) translate(4 48)">
<title>carla::sensor::CompositeSerializer::Deserialize</title>
<!-- Node1 -->
<g id="Node000001" class="node">
<title>Node1</title>
<g id="a_Node000001"><a xlink:title="Deserializes a Buffer by calling the &quot;Deserialize&quot; function of the serializer that generated the Buff...">
<polygon fill="#999999" stroke="#666666" points="124.75,-38 0,-38 0,-6 124.75,-6 124.75,-38"/>
<text text-anchor="start" x="8" y="-24.5" font-family="Helvetica,sans-Serif" font-size="10.00">carla::sensor::Composite</text>
<text text-anchor="middle" x="62.38" y="-12.5" font-family="Helvetica,sans-Serif" font-size="10.00">Serializer::Deserialize</text>
</a>
</g>
</g>
<!-- Node2 -->
<g id="Node000002" class="node">
<title>Node2</title>
<g id="a_Node000002"><a xlink:href="../../d3/da0/classcarla_1_1sensor_1_1RawData.html#adc7be4d18ab65e9462b6e8d385c143a9" target="_top" xlink:title="Type&#45;id of the sensor that generated the data.">
<polygon fill="white" stroke="#666666" points="278,-38 160.75,-38 160.75,-6 278,-6 278,-38"/>
<text text-anchor="start" x="168.75" y="-24.5" font-family="Helvetica,sans-Serif" font-size="10.00">carla::sensor::RawData</text>
<text text-anchor="middle" x="219.38" y="-12.5" font-family="Helvetica,sans-Serif" font-size="10.00">::GetSensorTypeId</text>
</a>
</g>
</g>
<!-- Node1&#45;&gt;Node2 -->
<g id="edge1_Node000001_Node000002" class="edge">
<title>Node1&#45;&gt;Node2</title>
<g id="a_edge1_Node000001_Node000002"><a xlink:title=" ">
<path fill="none" stroke="#63b8ff" d="M125.08,-22C133.09,-22 141.33,-22 149.45,-22"/>
<polygon fill="#63b8ff" stroke="#63b8ff" points="149.41,-25.5 159.41,-22 149.41,-18.5 149.41,-25.5"/>
</a>
</g>
</g>
<!-- Node3 -->
<g id="Node000003" class="node">
<title>Node3</title>
<g id="a_Node000003"><a xlink:href="../../d3/da0/classcarla_1_1sensor_1_1RawData.html#a8f35a6f2ecc379a9d29cc35aebb76f1a" target="_top" xlink:title=" ">
<polygon fill="white" stroke="#666666" points="431.25,-38 314,-38 314,-6 431.25,-6 431.25,-38"/>
<text text-anchor="start" x="322" y="-24.5" font-family="Helvetica,sans-Serif" font-size="10.00">carla::sensor::RawData</text>
<text text-anchor="middle" x="372.62" y="-12.5" font-family="Helvetica,sans-Serif" font-size="10.00">::GetHeader</text>
</a>
</g>
</g>
<!-- Node2&#45;&gt;Node3 -->
<g id="edge2_Node000002_Node000003" class="edge">
<title>Node2&#45;&gt;Node3</title>
<g id="a_edge2_Node000002_Node000003"><a xlink:title=" ">
<path fill="none" stroke="#63b8ff" d="M278.42,-22C286.53,-22 294.92,-22 303.2,-22"/>
<polygon fill="#63b8ff" stroke="#63b8ff" points="302.99,-25.5 312.99,-22 302.99,-18.5 302.99,-25.5"/>
</a>
</g>
</g>
<!-- Node4 -->
<g id="Node000004" class="node">
<title>Node4</title>
<g id="a_Node000004"><a xlink:href="../../dc/df4/classcarla_1_1sensor_1_1s11n_1_1SensorHeaderSerializer.html#af3ebc96297846620c976c770d4c047ea" target="_top" xlink:title=" ">
<polygon fill="white" stroke="#666666" points="591.25,-44 467.25,-44 467.25,0 591.25,0 591.25,-44"/>
<text text-anchor="start" x="475.25" y="-30.5" font-family="Helvetica,sans-Serif" font-size="10.00">carla::sensor::s11n</text>
<text text-anchor="start" x="475.25" y="-18.5" font-family="Helvetica,sans-Serif" font-size="10.00">::SensorHeaderSerializer</text>
<text text-anchor="middle" x="529.25" y="-6.5" font-family="Helvetica,sans-Serif" font-size="10.00">::Deserialize</text>
</a>
</g>
</g>
<!-- Node3&#45;&gt;Node4 -->
<g id="edge3_Node000003_Node000004" class="edge">
<title>Node3&#45;&gt;Node4</title>
<g id="a_edge3_Node000003_Node000004"><a xlink:title=" ">
<path fill="none" stroke="#63b8ff" d="M431.64,-22C439.54,-22 447.72,-22 455.83,-22"/>
<polygon fill="#63b8ff" stroke="#63b8ff" points="455.81,-25.5 465.81,-22 455.81,-18.5 455.81,-25.5"/>
</a>
</g>
</g>
<!-- Node5 -->
<g id="Node000005" class="node">
<title>Node5</title>
<g id="a_Node000005"><a xlink:href="../../d0/d0a/classcarla_1_1Buffer.html#a10680a1dd5dd8718b8e871b631022cdf" target="_top" xlink:title="Direct access to the allocated memory or nullptr if no memory is allocated.">
<polygon fill="white" stroke="#666666" points="719.75,-32 627.25,-32 627.25,-12 719.75,-12 719.75,-32"/>
<text text-anchor="middle" x="673.5" y="-18.5" font-family="Helvetica,sans-Serif" font-size="10.00">carla::Buffer::data</text>
</a>
</g>
</g>
<!-- Node4&#45;&gt;Node5 -->
<g id="edge4_Node000004_Node000005" class="edge">
<title>Node4&#45;&gt;Node5</title>
<g id="a_edge4_Node000004_Node000005"><a xlink:title=" ">
<path fill="none" stroke="#63b8ff" d="M591.4,-22C599.58,-22 607.94,-22 616.04,-22"/>
<polygon fill="#63b8ff" stroke="#63b8ff" points="615.87,-25.5 625.87,-22 615.87,-18.5 615.87,-25.5"/>
</a>
</g>
</g>
</g>
</svg>
