<?xml version="1.0" encoding="UTF-8" standalone="no"?>
<!DOCTYPE svg PUBLIC "-//W3C//DTD SVG 1.1//EN"
 "http://www.w3.org/Graphics/SVG/1.1/DTD/svg11.dtd">
<!-- Generated by graphviz version 8.1.0 (20230707.0739)
 -->
<!-- Title: carla::opendrive::parser::ParseDouble Pages: 1 -->
<!--zoomable 116 -->

<svg id="main" version="1.1" xmlns="http://www.w3.org/2000/svg" xmlns:xlink="http://www.w3.org/1999/xlink" xml:space="preserve" onload="init(evt)">
<style type="text/css"><![CDATA[
.node, .edge {opacity: 0.7;}
.node.selected, .edge.selected {opacity: 1;}
.edge:hover path { stroke: red; }
.edge:hover polygon { stroke: red; fill: red; }
]]></style>

<defs>
  <circle id="rim" cx="0" cy="0" r="7"/>
  <circle id="rim2" cx="0" cy="0" r="3.5"/>
  <g id="zoomPlus">
    <use xlink:href="#rim" fill="#404040"><set attributeName="fill" to="#808080" begin="zoomplus.mouseover" end="zoomplus.mouseout"/></use>
    <path d="M-4,0h8M0,-4v8" fill="none" stroke="white" stroke-width="1.5" pointer-events="none"/>
  </g>
  <g id="zoomMin">
    <use xlink:href="#rim" fill="#404040"><set attributeName="fill" to="#808080" begin="zoomminus.mouseover" end="zoomminus.mouseout"/></use>
    <path d="M-4,0h8" fill="none" stroke="white" stroke-width="1.5" pointer-events="none"/>
  </g>
  <g id="arrowUp" transform="translate(30 24)">
    <use xlink:href="#rim"/>
    <path pointer-events="none" fill="none" stroke="white" stroke-width="1.5" d="M0,-3.0v7 M-2.5,-0.5L0,-3.0L2.5,-0.5"/>
  </g>
  <g id="arrowRight" transform="rotate(90) translate(36 -43)">
    <use xlink:href="#rim"/>
    <path pointer-events="none" fill="none" stroke="white" stroke-width="1.5" d="M0,-3.0v7 M-2.5,-0.5L0,-3.0L2.5,-0.5"/>
  </g>
  <g id="arrowDown" transform="rotate(180) translate(-30 -48)">
    <use xlink:href="#rim"/>
    <path pointer-events="none" fill="none" stroke="white" stroke-width="1.5" d="M0,-3.0v7 M-2.5,-0.5L0,-3.0L2.5,-0.5"/>
  </g>
  <g id="arrowLeft" transform="rotate(270) translate(-36 17)">
    <use xlink:href="#rim"/>
    <path pointer-events="none" fill="none" stroke="white" stroke-width="1.5" d="M0,-3.0v7 M-2.5,-0.5L0,-3.0L2.5,-0.5"/>
  </g>
  <g id="resetDef">
    <use xlink:href="#rim2" fill="#404040"><set attributeName="fill" to="#808080" begin="reset.mouseover" end="reset.mouseout"/></use>
  </g>
</defs>
<script type="application/ecmascript">
var viewWidth = 694;
var viewHeight = 116;
var sectionId = 'dynsection-2';
</script>
<script type="application/ecmascript" xlink:href="../../svg.min.js"/>
<svg id="graph" class="graph">
<g id="viewport">
<title>carla::opendrive::parser::ParseDouble</title>
<!-- Node1 -->
<g id="Node000001" class="node">
<title>Node1</title>
<g id="a_Node000001"><a xlink:title=" ">
<polygon fill="#999999" stroke="#666666" points="116.5,-54 0,-54 0,-22 116.5,-22 116.5,-54"/>
<text text-anchor="start" x="8" y="-40.5" font-family="Helvetica,sans-Serif" font-size="10.00">carla::opendrive::parser</text>
<text text-anchor="middle" x="58.25" y="-28.5" font-family="Helvetica,sans-Serif" font-size="10.00">::ParseDouble</text>
</a>
</g>
</g>
<!-- Node2 -->
<g id="Node000002" class="node">
<title>Node2</title>
<g id="a_Node000002"><a xlink:href="../../db/d20/pugixml_8cpp.html#a7983b03f2dd06eb98951cd2dde03cd87" target="_top" xlink:title=" ">
<polygon fill="white" stroke="#666666" points="219.5,-48 152.5,-48 152.5,-28 219.5,-28 219.5,-48"/>
<text text-anchor="middle" x="186" y="-34.5" font-family="Helvetica,sans-Serif" font-size="10.00">string_value</text>
</a>
</g>
</g>
<!-- Node1&#45;&gt;Node2 -->
<g id="edge1_Node000001_Node000002" class="edge">
<title>Node1&#45;&gt;Node2</title>
<g id="a_edge1_Node000001_Node000002"><a xlink:title=" ">
<path fill="none" stroke="#63b8ff" d="M116.97,-38C125.22,-38 133.59,-38 141.51,-38"/>
<polygon fill="#63b8ff" stroke="#63b8ff" points="141.34,-41.5 151.34,-38 141.33,-34.5 141.34,-41.5"/>
</a>
</g>
</g>
<!-- Node3 -->
<g id="Node000003" class="node">
<title>Node3</title>
<g id="a_Node000003"><a xlink:href="../../dd/d5c/classxpath__string.html#aab0d867c56d390213cf0fbe7334e1cc0" target="_top" xlink:title=" ">
<polygon fill="white" stroke="#666666" points="362.25,-70 255.5,-70 255.5,-50 362.25,-50 362.25,-70"/>
<text text-anchor="middle" x="308.88" y="-56.5" font-family="Helvetica,sans-Serif" font-size="10.00">xpath_string::append</text>
</a>
</g>
</g>
<!-- Node2&#45;&gt;Node3 -->
<g id="edge2_Node000002_Node000003" class="edge">
<title>Node2&#45;&gt;Node3</title>
<g id="a_edge2_Node000002_Node000003"><a xlink:title=" ">
<path fill="none" stroke="#63b8ff" d="M219.71,-43.95C227.38,-45.35 235.81,-46.88 244.32,-48.43"/>
<polygon fill="#63b8ff" stroke="#63b8ff" points="243.63,-52.05 254.1,-50.39 244.88,-45.16 243.63,-52.05"/>
</a>
</g>
</g>
<!-- Node8 -->
<g id="Node000008" class="node">
<title>Node8</title>
<g id="a_Node000008"><a xlink:href="../../dd/d5c/classxpath__string.html#a6dce01c6b3a949c3c4c886e6be44931e" target="_top" xlink:title=" ">
<polygon fill="white" stroke="#666666" points="355.88,-32 261.88,-32 261.88,0 355.88,0 355.88,-32"/>
<text text-anchor="start" x="269.88" y="-18.5" font-family="Helvetica,sans-Serif" font-size="10.00">xpath_string::from</text>
<text text-anchor="middle" x="308.88" y="-6.5" font-family="Helvetica,sans-Serif" font-size="10.00">_const</text>
</a>
</g>
</g>
<!-- Node2&#45;&gt;Node8 -->
<g id="edge7_Node000002_Node000008" class="edge">
<title>Node2&#45;&gt;Node8</title>
<g id="a_edge7_Node000002_Node000008"><a xlink:title=" ">
<path fill="none" stroke="#63b8ff" d="M219.71,-32.05C229.36,-30.29 240.21,-28.32 250.92,-26.37"/>
<polygon fill="#63b8ff" stroke="#63b8ff" points="251.31,-29.67 260.53,-24.44 250.06,-22.78 251.31,-29.67"/>
</a>
</g>
</g>
<!-- Node4 -->
<g id="Node000004" class="node">
<title>Node4</title>
<g id="a_Node000004"><a xlink:href="../../dd/d5c/classxpath__string.html#a8469bd7512df66adabd3f5144c4b2ef7" target="_top" xlink:title=" ">
<polygon fill="white" stroke="#666666" points="514,-108 412.5,-108 412.5,-88 514,-88 514,-108"/>
<text text-anchor="middle" x="463.25" y="-94.5" font-family="Helvetica,sans-Serif" font-size="10.00">xpath_string::length</text>
</a>
</g>
</g>
<!-- Node3&#45;&gt;Node4 -->
<g id="edge3_Node000003_Node000004" class="edge">
<title>Node3&#45;&gt;Node4</title>
<g id="a_edge3_Node000003_Node000004"><a xlink:title=" ">
<path fill="none" stroke="#63b8ff" d="M351.92,-70.48C369.82,-74.95 390.89,-80.21 409.8,-84.92"/>
<polygon fill="#63b8ff" stroke="#63b8ff" points="408.8,-88.53 419.35,-87.55 410.49,-81.73 408.8,-88.53"/>
</a>
</g>
</g>
<!-- Node6 -->
<g id="Node000006" class="node">
<title>Node6</title>
<g id="a_Node000006"><a xlink:href="../../d3/d89/structxpath__allocator.html#a5d3ba1b01ba87b2002b348674e9d50b6" target="_top" xlink:title=" ">
<polygon fill="white" stroke="#666666" points="528.25,-70 398.25,-70 398.25,-50 528.25,-50 528.25,-70"/>
<text text-anchor="middle" x="463.25" y="-56.5" font-family="Helvetica,sans-Serif" font-size="10.00">xpath_allocator::reallocate</text>
</a>
</g>
</g>
<!-- Node3&#45;&gt;Node6 -->
<g id="edge5_Node000003_Node000006" class="edge">
<title>Node3&#45;&gt;Node6</title>
<g id="a_edge5_Node000003_Node000006"><a xlink:title=" ">
<path fill="none" stroke="#63b8ff" d="M362.74,-60C370.63,-60 378.89,-60 387.13,-60"/>
<polygon fill="#63b8ff" stroke="#63b8ff" points="386.92,-63.5 396.92,-60 386.92,-56.5 386.92,-63.5"/>
</a>
</g>
</g>
<!-- Node5 -->
<g id="Node000005" class="node">
<title>Node5</title>
<g id="a_Node000005"><a xlink:href="../../db/d20/pugixml_8cpp.html#aab9e1f034d085b663d146fcceabb1c48" target="_top" xlink:title=" ">
<polygon fill="white" stroke="#666666" points="651.88,-108 598.38,-108 598.38,-88 651.88,-88 651.88,-108"/>
<text text-anchor="middle" x="625.12" y="-94.5" font-family="Helvetica,sans-Serif" font-size="10.00">strlength</text>
</a>
</g>
</g>
<!-- Node4&#45;&gt;Node5 -->
<g id="edge4_Node000004_Node000005" class="edge">
<title>Node4&#45;&gt;Node5</title>
<g id="a_edge4_Node000004_Node000005"><a xlink:title=" ">
<path fill="none" stroke="#63b8ff" d="M514.4,-98C538.1,-98 565.89,-98 587.57,-98"/>
<polygon fill="#63b8ff" stroke="#63b8ff" points="587.29,-101.5 597.29,-98 587.29,-94.5 587.29,-101.5"/>
</a>
</g>
</g>
<!-- Node7 -->
<g id="Node000007" class="node">
<title>Node7</title>
<g id="a_Node000007"><a xlink:href="../../d3/d89/structxpath__allocator.html#a6c13fefbd7038d78b336987f396c8415" target="_top" xlink:title=" ">
<polygon fill="white" stroke="#666666" points="686,-70 564.25,-70 564.25,-50 686,-50 686,-70"/>
<text text-anchor="middle" x="625.12" y="-56.5" font-family="Helvetica,sans-Serif" font-size="10.00">xpath_allocator::allocate</text>
</a>
</g>
</g>
<!-- Node6&#45;&gt;Node7 -->
<g id="edge6_Node000006_Node000007" class="edge">
<title>Node6&#45;&gt;Node7</title>
<g id="a_edge6_Node000006_Node000007"><a xlink:title=" ">
<path fill="none" stroke="#63b8ff" d="M528.36,-60C536.51,-60 544.89,-60 553.15,-60"/>
<polygon fill="#63b8ff" stroke="#63b8ff" points="552.89,-63.5 562.89,-60 552.89,-56.5 552.89,-63.5"/>
</a>
</g>
</g>
<!-- Node9 -->
<g id="Node000009" class="node">
<title>Node9</title>
<g id="a_Node000009"><a xlink:href="../../dd/d5c/classxpath__string.html#a6c415f55011c6b816446d7454d1e9d2c" target="_top" xlink:title=" ">
<polygon fill="white" stroke="#666666" points="512.88,-32 413.62,-32 413.62,0 512.88,0 512.88,-32"/>
<text text-anchor="start" x="421.62" y="-18.5" font-family="Helvetica,sans-Serif" font-size="10.00">xpath_string::xpath</text>
<text text-anchor="middle" x="463.25" y="-6.5" font-family="Helvetica,sans-Serif" font-size="10.00">_string</text>
</a>
</g>
</g>
<!-- Node8&#45;&gt;Node9 -->
<g id="edge8_Node000008_Node000009" class="edge">
<title>Node8&#45;&gt;Node9</title>
<g id="a_edge8_Node000008_Node000009"><a xlink:title=" ">
<path fill="none" stroke="#63b8ff" d="M356.01,-16C370.74,-16 387.26,-16 402.8,-16"/>
<polygon fill="#63b8ff" stroke="#63b8ff" points="402.37,-19.5 412.37,-16 402.37,-12.5 402.37,-19.5"/>
</a>
</g>
</g>
</g>
</svg>

<g id="navigator" transform="translate(0 0)" fill="#404254">
  <rect fill="#f2f5e9" fill-opacity="0.5" stroke="#606060" stroke-width=".5" x="0" y="0" width="60" height="60"/>
  <use id="zoomplus" xlink:href="#zoomPlus" x="17" y="9" onmousedown="handleZoom(evt,'in')"/>
  <use id="zoomminus" xlink:href="#zoomMin" x="42" y="9" onmousedown="handleZoom(evt,'out')"/>
  <use id="reset" xlink:href="#resetDef" x="30" y="36" onmousedown="handleReset()"/>
   <use id="arrowup" xlink:href="#arrowUp" x="0" y="0" onmousedown="handlePan(0,-1)"/>
  <use id="arrowright" xlink:href="#arrowRight" x="0" y="0" onmousedown="handlePan(1,0)"/>
  <use id="arrowdown" xlink:href="#arrowDown" x="0" y="0" onmousedown="handlePan(0,1)"/>
  <use id="arrowleft" xlink:href="#arrowLeft" x="0" y="0" onmousedown="handlePan(-1,0)"/>
</g>
<svg viewBox="0 0 15 15" width="100%" height="30px" preserveAspectRatio="xMaxYMin meet">
 <g id="arrow_out" transform="scale(0.3 0.3)">
  <a xlink:href="namespacecarla_1_1opendrive_1_1parser_aa4e3c66089b7ba1cc71545e693a1dcd1_cgraph_org.svg" target="_base">
   <rect id="button" ry="5" rx="5" y="6" x="6" height="38" width="38"
        fill="#f2f5e9" fill-opacity="0.5" stroke="#606060" stroke-width="1.0"/>
   <path id="arrow"
     d="M 11.500037,31.436501 C 11.940474,20.09759 22.043105,11.32322 32.158766,21.979434 L 37.068811,17.246167 C 37.068811,17.246167 37.088388,32 37.088388,32 L 22.160133,31.978069 C 22.160133,31.978069 26.997745,27.140456 26.997745,27.140456 C 18.528582,18.264221 13.291696,25.230495 11.500037,31.436501 z"
     style="fill:#404040;"/>
  </a>
 </g>
</svg>

<style type='text/css'>
<![CDATA[
[data-mouse-over-selected='false'] { opacity: 0.7; }
[data-mouse-over-selected='true']  { opacity: 1.0; }
]]>
</style>
<script type="application/ecmascript"><![CDATA[
document.addEventListener('DOMContentLoaded', (event) => {
  highlightEdges();
  highlightAdjacentNodes();
});
]]></script>
</svg>
