<?xml version="1.0" encoding="UTF-8" standalone="no"?>
<!DOCTYPE svg PUBLIC "-//W3C//DTD SVG 1.1//EN"
 "http://www.w3.org/Graphics/SVG/1.1/DTD/svg11.dtd">
<!-- Generated by graphviz version 8.1.0 (20230707.0739)
 -->
<!-- Title: FCameraGBufferFloat Pages: 1 -->
<svg width="265pt" height="256pt"
 viewBox="0.00 0.00 264.88 256.00" xmlns="http://www.w3.org/2000/svg" xmlns:xlink="http://www.w3.org/1999/xlink">

<svg id="main" version="1.1" xmlns="http://www.w3.org/2000/svg" xmlns:xlink="http://www.w3.org/1999/xlink" xml:space="preserve" onload="init(evt)">
<style type="text/css"><![CDATA[
.node, .edge {opacity: 0.7;}
.node.selected, .edge.selected {opacity: 1;}
.edge:hover path { stroke: red; }
.edge:hover polygon { stroke: red; fill: red; }
]]></style>
<script type="application/ecmascript" xlink:href="../../svg.min.js"/>
<svg id="graph" class="graph">
<g id="graph0" class="graph" transform="scale(1 1) rotate(0) translate(4 252)">
<title>FCameraGBufferFloat</title>
<!-- Node1 -->
<g id="Node000001" class="node">
<title>Node1</title>
<g id="a_Node000001"><a xlink:title=" ">
<polygon fill="#999999" stroke="#666666" points="109.75,-20 0,-20 0,0 109.75,0 109.75,-20"/>
<text text-anchor="middle" x="54.88" y="-6.5" font-family="Helvetica,sans-Serif" font-size="10.00">FCameraGBufferFloat</text>
</a>
</g>
</g>
<!-- Node2 -->
<g id="Node000002" class="node">
<title>Node2</title>
<g id="a_Node000002"><a xlink:title=" ">
<polygon fill="white" stroke="#666666" points="41.88,-94 7.88,-94 7.88,-74 41.88,-74 41.88,-94"/>
<text text-anchor="middle" x="24.88" y="-80.5" font-family="Helvetica,sans-Serif" font-size="10.00">bool</text>
</a>
</g>
</g>
<!-- Node2&#45;&gt;Node1 -->
<g id="edge1_Node000001_Node000002" class="edge">
<title>Node2&#45;&gt;Node1</title>
<g id="a_edge1_Node000001_Node000002"><a xlink:title=" ">
<path fill="none" stroke="#9a32cd" stroke-dasharray="5,2" d="M33.02,-63.44C38.89,-49.37 46.53,-31.03 51.05,-20.19"/>
<polygon fill="#9a32cd" stroke="#9a32cd" points="29.41,-62.01 28.8,-72.59 35.87,-64.7 29.41,-62.01"/>
</a>
</g>
<text text-anchor="middle" x="63" y="-40.5" font-family="Helvetica,sans-Serif" font-size="10.00" fill="grey"> bIsUsed</text>
</g>
<!-- Node3 -->
<g id="Node000003" class="node">
<title>Node3</title>
<g id="a_Node000003"><a xlink:href="../../d4/d9c/classFDataStreamTmpl.html" target="_top" xlink:title=" ">
<polygon fill="white" stroke="#666666" points="184.25,-100 59.5,-100 59.5,-68 184.25,-68 184.25,-100"/>
<text text-anchor="start" x="67.5" y="-86.5" font-family="Helvetica,sans-Serif" font-size="10.00">FDataStreamTmpl&lt; carla</text>
<text text-anchor="middle" x="121.88" y="-74.5" font-family="Helvetica,sans-Serif" font-size="10.00">::streaming::Stream &gt;</text>
</a>
</g>
</g>
<!-- Node3&#45;&gt;Node1 -->
<g id="edge2_Node000001_Node000003" class="edge">
<title>Node3&#45;&gt;Node1</title>
<g id="a_edge2_Node000001_Node000003"><a xlink:title=" ">
<path fill="none" stroke="#9a32cd" stroke-dasharray="5,2" d="M101.78,-59.87C95.49,-52.78 88.47,-45 81.88,-38 76.24,-32.02 69.72,-25.5 64.51,-20.36"/>
<polygon fill="#9a32cd" stroke="#9a32cd" points="99.53,-61.61 108.76,-66.8 104.78,-56.98 99.53,-61.61"/>
</a>
</g>
<text text-anchor="middle" x="110.12" y="-40.5" font-family="Helvetica,sans-Serif" font-size="10.00" fill="grey"> Stream</text>
</g>
<!-- Node4 -->
<g id="Node000004" class="node">
<title>Node4</title>
<g id="a_Node000004"><a xlink:title=" ">
<polygon fill="white" stroke="#666666" points="162,-248 41.75,-248 41.75,-228 162,-228 162,-248"/>
<text text-anchor="middle" x="101.88" y="-234.5" font-family="Helvetica,sans-Serif" font-size="10.00">optional&lt; StreamType &gt;</text>
</a>
</g>
</g>
<!-- Node4&#45;&gt;Node3 -->
<g id="edge3_Node000003_Node000004" class="edge">
<title>Node4&#45;&gt;Node3</title>
<g id="a_edge3_Node000003_Node000004"><a xlink:title=" ">
<path fill="none" stroke="#9a32cd" stroke-dasharray="5,2" d="M99.02,-216.87C97.61,-205.98 96.07,-192.28 95.38,-180 94.87,-171.13 93.87,-168.76 95.38,-160 99.04,-138.63 108.18,-115.26 114.69,-100.39"/>
<polygon fill="#9a32cd" stroke="#9a32cd" points="95.68,-217.31 100.49,-226.75 102.61,-216.37 95.68,-217.31"/>
</a>
</g>
<text text-anchor="middle" x="113.12" y="-166.5" font-family="Helvetica,sans-Serif" font-size="10.00" fill="grey"> Stream</text>
</g>
<!-- Node5 -->
<g id="Node000005" class="node">
<title>Node5</title>
<g id="a_Node000005"><a xlink:href="../../d4/d9c/classFDataStreamTmpl.html" target="_top" xlink:title="A streaming channel for sending sensor data to clients.">
<polygon fill="white" stroke="#666666" points="256.88,-180 138.88,-180 138.88,-160 256.88,-160 256.88,-180"/>
<text text-anchor="middle" x="197.88" y="-166.5" font-family="Helvetica,sans-Serif" font-size="10.00">FDataStreamTmpl&lt; T &gt;</text>
</a>
</g>
</g>
<!-- Node4&#45;&gt;Node5 -->
<g id="edge5_Node000005_Node000004" class="edge">
<title>Node4&#45;&gt;Node5</title>
<g id="a_edge5_Node000005_Node000004"><a xlink:title=" ">
<path fill="none" stroke="#9a32cd" stroke-dasharray="5,2" d="M124.58,-221.39C143.08,-208.67 168.62,-191.12 184.15,-180.44"/>
<polygon fill="#9a32cd" stroke="#9a32cd" points="122.89,-218.99 116.63,-227.54 126.85,-224.76 122.89,-218.99"/>
</a>
</g>
<text text-anchor="middle" x="175.12" y="-200.5" font-family="Helvetica,sans-Serif" font-size="10.00" fill="grey"> Stream</text>
</g>
<!-- Node5&#45;&gt;Node3 -->
<g id="edge4_Node000003_Node000005" class="edge">
<title>Node5&#45;&gt;Node3</title>
<g id="a_edge4_Node000003_Node000005"><a xlink:title=" ">
<path fill="none" stroke="orange" stroke-dasharray="5,2" d="M182.18,-151.65C168.5,-136.53 148.85,-114.81 135.74,-100.32"/>
<polygon fill="orange" stroke="orange" points="179.15,-153.62 188.45,-158.69 184.34,-148.93 179.15,-153.62"/>
</a>
</g>
<text text-anchor="start" x="172.88" y="-132.5" font-family="Helvetica,sans-Serif" font-size="10.00" fill="grey"> &lt; carla::streaming</text>
<text text-anchor="middle" x="213.75" y="-120.5" font-family="Helvetica,sans-Serif" font-size="10.00" fill="grey">::Stream &gt;</text>
</g>
</g>
</svg>
</svg>

<style type='text/css'>
<![CDATA[
[data-mouse-over-selected='false'] { opacity: 0.7; }
[data-mouse-over-selected='true']  { opacity: 1.0; }
]]>
</style>
<script type="application/ecmascript"><![CDATA[
document.addEventListener('DOMContentLoaded', (event) => {
  highlightEdges();
  highlightAdjacentNodes();
});
]]></script>
</svg>
