<?xml version="1.0" encoding="UTF-8" standalone="no"?>
<!DOCTYPE svg PUBLIC "-//W3C//DTD SVG 1.1//EN"
 "http://www.w3.org/Graphics/SVG/1.1/DTD/svg11.dtd">
<!-- Generated by graphviz version 8.1.0 (20230707.0739)
 -->
<!-- Title: CAMContainer::LowFrequencyContainer Pages: 1 -->
<svg width="370pt" height="280pt"
 viewBox="0.00 0.00 370.00 280.00" xmlns="http://www.w3.org/2000/svg" xmlns:xlink="http://www.w3.org/1999/xlink">

<svg id="main" version="1.1" xmlns="http://www.w3.org/2000/svg" xmlns:xlink="http://www.w3.org/1999/xlink" xml:space="preserve" onload="init(evt)">
<style type="text/css"><![CDATA[
.node, .edge {opacity: 0.7;}
.node.selected, .edge.selected {opacity: 1;}
.edge:hover path { stroke: red; }
.edge:hover polygon { stroke: red; fill: red; }
]]></style>
<script type="application/ecmascript" xlink:href="../../svg.min.js"/>
<svg id="graph" class="graph">
<g id="graph0" class="graph" transform="scale(1 1) rotate(0) translate(4 276)">
<title>CAMContainer::LowFrequencyContainer</title>
<!-- Node1 -->
<g id="Node000001" class="node">
<title>Node1</title>
<g id="a_Node000001"><a xlink:title=" ">
<polygon fill="#999999" stroke="#666666" points="172.5,-32 24.5,-32 24.5,0 172.5,0 172.5,-32"/>
<text text-anchor="start" x="32.5" y="-18.5" font-family="Helvetica,sans-Serif" font-size="10.00">CAMContainer::LowFrequency</text>
<text text-anchor="middle" x="98.5" y="-6.5" font-family="Helvetica,sans-Serif" font-size="10.00">Container</text>
</a>
</g>
</g>
<!-- Node2 -->
<g id="Node000002" class="node">
<title>Node2</title>
<g id="a_Node000002"><a xlink:title=" ">
<polygon fill="white" stroke="#666666" points="139,-118 0,-118 0,-98 139,-98 139,-118"/>
<text text-anchor="middle" x="69.5" y="-104.5" font-family="Helvetica,sans-Serif" font-size="10.00">LowFrequencyContainer_PR</text>
</a>
</g>
</g>
<!-- Node2&#45;&gt;Node1 -->
<g id="edge1_Node000001_Node000002" class="edge">
<title>Node2&#45;&gt;Node1</title>
<g id="a_edge1_Node000001_Node000002"><a xlink:title=" ">
<path fill="none" stroke="#9a32cd" stroke-dasharray="5,2" d="M75.77,-87.55C81.09,-71.02 88.63,-47.62 93.55,-32.38"/>
<polygon fill="#9a32cd" stroke="#9a32cd" points="72.23,-86.12 72.49,-96.71 78.89,-88.26 72.23,-86.12"/>
</a>
</g>
<text text-anchor="middle" x="105.12" y="-58.5" font-family="Helvetica,sans-Serif" font-size="10.00" fill="grey"> present</text>
</g>
<!-- Node3 -->
<g id="Node000003" class="node">
<title>Node3</title>
<g id="a_Node000003"><a xlink:href="../../d9/d11/structCAMContainer_1_1BasicVehicleContainerLowFrequency.html" target="_top" xlink:title=" ">
<polygon fill="white" stroke="#666666" points="299.5,-124 157.5,-124 157.5,-92 299.5,-92 299.5,-124"/>
<text text-anchor="start" x="165.5" y="-110.5" font-family="Helvetica,sans-Serif" font-size="10.00">CAMContainer::BasicVehicle</text>
<text text-anchor="middle" x="228.5" y="-98.5" font-family="Helvetica,sans-Serif" font-size="10.00">ContainerLowFrequency</text>
</a>
</g>
</g>
<!-- Node3&#45;&gt;Node1 -->
<g id="edge2_Node000001_Node000003" class="edge">
<title>Node3&#45;&gt;Node1</title>
<g id="a_edge2_Node000001_Node000003"><a xlink:title=" ">
<path fill="none" stroke="#9a32cd" stroke-dasharray="5,2" d="M197.2,-85.33C173.53,-68.94 141.61,-46.84 120.56,-32.27"/>
<polygon fill="#9a32cd" stroke="#9a32cd" points="194.94,-88.71 205.15,-91.53 198.92,-82.96 194.94,-88.71"/>
</a>
</g>
<text text-anchor="start" x="179.5" y="-64.5" font-family="Helvetica,sans-Serif" font-size="10.00" fill="grey"> basicVehicleContainerLow</text>
<text text-anchor="middle" x="238" y="-52.5" font-family="Helvetica,sans-Serif" font-size="10.00" fill="grey">Frequency</text>
</g>
<!-- Node4 -->
<g id="Node000004" class="node">
<title>Node4</title>
<g id="a_Node000004"><a xlink:title=" ">
<polygon fill="white" stroke="#666666" points="128.5,-266 94.5,-266 94.5,-246 128.5,-246 128.5,-266"/>
<text text-anchor="middle" x="111.5" y="-252.5" font-family="Helvetica,sans-Serif" font-size="10.00">long</text>
</a>
</g>
</g>
<!-- Node4&#45;&gt;Node3 -->
<g id="edge3_Node000003_Node000004" class="edge">
<title>Node4&#45;&gt;Node3</title>
<g id="a_edge3_Node000003_Node000004"><a xlink:title=" ">
<path fill="none" stroke="#9a32cd" stroke-dasharray="5,2" d="M103.43,-235.63C97.37,-217.77 91.94,-191.2 103.75,-172 117.99,-148.86 143.65,-133.9 168.01,-124.41"/>
<polygon fill="#9a32cd" stroke="#9a32cd" points="100.43,-236.59 107.24,-244.71 106.98,-234.12 100.43,-236.59"/>
</a>
</g>
<text text-anchor="middle" x="130.38" y="-178.5" font-family="Helvetica,sans-Serif" font-size="10.00" fill="grey"> vehicleRole</text>
</g>
<!-- Node6 -->
<g id="Node000006" class="node">
<title>Node6</title>
<g id="a_Node000006"><a xlink:href="../../d0/d54/structITSContainer_1_1PathHistory.html" target="_top" xlink:title=" ">
<polygon fill="white" stroke="#666666" points="292.75,-192 164.25,-192 164.25,-172 292.75,-172 292.75,-192"/>
<text text-anchor="middle" x="228.5" y="-178.5" font-family="Helvetica,sans-Serif" font-size="10.00">ITSContainer::PathHistory</text>
</a>
</g>
</g>
<!-- Node4&#45;&gt;Node6 -->
<g id="edge6_Node000006_Node000004" class="edge">
<title>Node4&#45;&gt;Node6</title>
<g id="a_edge6_Node000006_Node000004"><a xlink:title=" ">
<path fill="none" stroke="#9a32cd" stroke-dasharray="5,2" d="M119.36,-235.93C123.96,-226.91 130.57,-216.68 139.25,-210 149.64,-202 162.39,-196.36 174.97,-192.39"/>
<polygon fill="#9a32cd" stroke="#9a32cd" points="115.88,-234.12 114.9,-244.67 122.25,-237.04 115.88,-234.12"/>
</a>
</g>
<text text-anchor="middle" x="184.12" y="-212.5" font-family="Helvetica,sans-Serif" font-size="10.00" fill="grey"> NumberOfPathPoint</text>
</g>
<!-- Node5 -->
<g id="Node000005" class="node">
<title>Node5</title>
<g id="a_Node000005"><a xlink:title=" ">
<polygon fill="white" stroke="#666666" points="356.12,-192 310.88,-192 310.88,-172 356.12,-172 356.12,-192"/>
<text text-anchor="middle" x="333.5" y="-178.5" font-family="Helvetica,sans-Serif" font-size="10.00">uint8_t</text>
</a>
</g>
</g>
<!-- Node5&#45;&gt;Node3 -->
<g id="edge4_Node000003_Node000005" class="edge">
<title>Node5&#45;&gt;Node3</title>
<g id="a_edge4_Node000003_Node000005"><a xlink:title=" ">
<path fill="none" stroke="#9a32cd" stroke-dasharray="5,2" d="M314.61,-164.5C305.98,-157.26 295.47,-148.88 285.5,-142 276.56,-135.83 266.4,-129.7 257.17,-124.42"/>
<polygon fill="#9a32cd" stroke="#9a32cd" points="311.94,-167.68 321.82,-171.51 316.49,-162.35 311.94,-167.68"/>
</a>
</g>
<text text-anchor="middle" x="331.25" y="-144.5" font-family="Helvetica,sans-Serif" font-size="10.00" fill="grey"> exteriorLights</text>
</g>
<!-- Node6&#45;&gt;Node3 -->
<g id="edge5_Node000003_Node000006" class="edge">
<title>Node6&#45;&gt;Node3</title>
<g id="a_edge5_Node000003_Node000006"><a xlink:title=" ">
<path fill="none" stroke="#9a32cd" stroke-dasharray="5,2" d="M228.5,-160.83C228.5,-149.31 228.5,-135.1 228.5,-124.47"/>
<polygon fill="#9a32cd" stroke="#9a32cd" points="225,-160.59 228.5,-170.59 232,-160.59 225,-160.59"/>
</a>
</g>
<text text-anchor="middle" x="254.75" y="-144.5" font-family="Helvetica,sans-Serif" font-size="10.00" fill="grey"> pathHistory</text>
</g>
<!-- Node7 -->
<g id="Node000007" class="node">
<title>Node7</title>
<g id="a_Node000007"><a xlink:title=" ">
<polygon fill="white" stroke="#666666" points="292.5,-272 186.5,-272 186.5,-240 292.5,-240 292.5,-272"/>
<text text-anchor="start" x="194.5" y="-258.5" font-family="Helvetica,sans-Serif" font-size="10.00">vector&lt; ITSContainer</text>
<text text-anchor="middle" x="239.5" y="-246.5" font-family="Helvetica,sans-Serif" font-size="10.00">::PathPoint &gt;</text>
</a>
</g>
</g>
<!-- Node7&#45;&gt;Node6 -->
<g id="edge7_Node000006_Node000007" class="edge">
<title>Node7&#45;&gt;Node6</title>
<g id="a_edge7_Node000006_Node000007"><a xlink:title=" ">
<path fill="none" stroke="#9a32cd" stroke-dasharray="5,2" d="M235.55,-229.12C233.59,-216.29 231.34,-201.6 229.92,-192.31"/>
<polygon fill="#9a32cd" stroke="#9a32cd" points="232.2,-229.37 237.17,-238.73 239.12,-228.32 232.2,-229.37"/>
</a>
</g>
<text text-anchor="middle" x="244.38" y="-212.5" font-family="Helvetica,sans-Serif" font-size="10.00" fill="grey"> data</text>
</g>
</g>
</svg>
</svg>

<style type='text/css'>
<![CDATA[
[data-mouse-over-selected='false'] { opacity: 0.7; }
[data-mouse-over-selected='true']  { opacity: 1.0; }
]]>
</style>
<script type="application/ecmascript"><![CDATA[
document.addEventListener('DOMContentLoaded', (event) => {
  highlightEdges();
  highlightAdjacentNodes();
});
]]></script>
</svg>
