<?xml version="1.0" encoding="UTF-8" standalone="no"?>
<!DOCTYPE svg PUBLIC "-//W3C//DTD SVG 1.1//EN"
 "http://www.w3.org/Graphics/SVG/1.1/DTD/svg11.dtd">
<!-- Generated by graphviz version 8.1.0 (20230707.0739)
 -->
<!-- Title: AObstacleDetectionSensor Pages: 1 -->
<svg width="142pt" height="140pt"
 viewBox="0.00 0.00 141.75 140.00" xmlns="http://www.w3.org/2000/svg" xmlns:xlink="http://www.w3.org/1999/xlink">
<g id="graph0" class="graph" transform="scale(1 1) rotate(0) translate(4 136)">
<title>AObstacleDetectionSensor</title>
<!-- Node1 -->
<g id="Node000001" class="node">
<title>Node1</title>
<g id="a_Node000001"><a xlink:title="A sensor to register collisions.">
<polygon fill="#999999" stroke="#666666" points="133.75,-20 0,-20 0,0 133.75,0 133.75,-20"/>
<text text-anchor="middle" x="66.88" y="-6.5" font-family="Helvetica,sans-Serif" font-size="10.00">AObstacleDetectionSensor</text>
</a>
</g>
</g>
<!-- Node2 -->
<g id="Node000002" class="node">
<title>Node2</title>
<g id="a_Node000002"><a xlink:href="../../d3/d01/classASensor.html" target="_top" xlink:title="Base class for sensors.">
<polygon fill="white" stroke="#666666" points="93.62,-76 40.12,-76 40.12,-56 93.62,-56 93.62,-76"/>
<text text-anchor="middle" x="66.88" y="-62.5" font-family="Helvetica,sans-Serif" font-size="10.00">ASensor</text>
</a>
</g>
</g>
<!-- Node2&#45;&gt;Node1 -->
<g id="edge1_Node000001_Node000002" class="edge">
<title>Node2&#45;&gt;Node1</title>
<g id="a_edge1_Node000001_Node000002"><a xlink:title=" ">
<path fill="none" stroke="#63b8ff" d="M66.88,-44.71C66.88,-36.32 66.88,-27.01 66.88,-20.3"/>
<polygon fill="#63b8ff" stroke="#63b8ff" points="63.38,-44.59 66.88,-54.59 70.38,-44.59 63.38,-44.59"/>
</a>
</g>
</g>
<!-- Node3 -->
<g id="Node000003" class="node">
<title>Node3</title>
<g id="a_Node000003"><a xlink:href="../../d1/da4/classAActor.html" target="_top" xlink:title=" ">
<polygon fill="white" stroke="#666666" points="89.88,-132 43.88,-132 43.88,-112 89.88,-112 89.88,-132"/>
<text text-anchor="middle" x="66.88" y="-118.5" font-family="Helvetica,sans-Serif" font-size="10.00">AActor</text>
</a>
</g>
</g>
<!-- Node3&#45;&gt;Node2 -->
<g id="edge2_Node000002_Node000003" class="edge">
<title>Node3&#45;&gt;Node2</title>
<g id="a_edge2_Node000002_Node000003"><a xlink:title=" ">
<path fill="none" stroke="#63b8ff" d="M66.88,-100.71C66.88,-92.32 66.88,-83.01 66.88,-76.3"/>
<polygon fill="#63b8ff" stroke="#63b8ff" points="63.38,-100.59 66.88,-110.59 70.38,-100.59 63.38,-100.59"/>
</a>
</g>
</g>
</g>
</svg>
