<?xml version="1.0" encoding="UTF-8" standalone="no"?>
<!DOCTYPE svg PUBLIC "-//W3C//DTD SVG 1.1//EN"
 "http://www.w3.org/Graphics/SVG/1.1/DTD/svg11.dtd">
<!-- Generated by graphviz version 8.1.0 (20230707.0739)
 -->
<!-- Title: carla::client::detail::Simulator::SpawnActor Pages: 1 -->
<svg width="1004pt" height="551pt"
 viewBox="0.00 0.00 1004.00 551.00" xmlns="http://www.w3.org/2000/svg" xmlns:xlink="http://www.w3.org/1999/xlink">
<g id="graph0" class="graph" transform="scale(1 1) rotate(0) translate(4 547)">
<title>carla::client::detail::Simulator::SpawnActor</title>
<!-- Node1 -->
<g id="Node000001" class="node">
<title>Node1</title>
<g id="a_Node000001"><a xlink:title="在模拟中生成一个参与者">
<polygon fill="#999999" stroke="#666666" points="121.75,-229 0,-229 0,-197 121.75,-197 121.75,-229"/>
<text text-anchor="start" x="8" y="-215.5" font-family="Helvetica,sans-Serif" font-size="10.00">carla::client::detail</text>
<text text-anchor="middle" x="60.88" y="-203.5" font-family="Helvetica,sans-Serif" font-size="10.00">::Simulator::SpawnActor</text>
</a>
</g>
</g>
<!-- Node2 -->
<g id="Node000002" class="node">
<title>Node2</title>
<g id="a_Node000002"><a xlink:href="../../df/df3/classcarla_1_1client_1_1detail_1_1Simulator.html#af6e35986ac6ca31bfa0f99df4be2b8d3" target="_top" xlink:title=" ">
<polygon fill="white" stroke="#666666" points="310.62,-370 158.88,-370 158.88,-338 310.62,-338 310.62,-370"/>
<text text-anchor="start" x="166.88" y="-356.5" font-family="Helvetica,sans-Serif" font-size="10.00">carla::client::detail</text>
<text text-anchor="middle" x="234.75" y="-344.5" font-family="Helvetica,sans-Serif" font-size="10.00">::Simulator::GetCurrentEpisode</text>
</a>
</g>
</g>
<!-- Node1&#45;&gt;Node2 -->
<g id="edge1_Node000001_Node000002" class="edge">
<title>Node1&#45;&gt;Node2</title>
<g id="a_edge1_Node000001_Node000002"><a xlink:title=" ">
<path fill="none" stroke="#63b8ff" d="M72.82,-229.29C89.02,-252.35 121.41,-294.66 157.75,-321 163.84,-325.41 170.6,-329.4 177.52,-332.95"/>
<polygon fill="#63b8ff" stroke="#63b8ff" points="175.47,-336.32 186,-337.51 178.51,-330.02 175.47,-336.32"/>
</a>
</g>
</g>
<!-- Node15 -->
<g id="Node000015" class="node">
<title>Node15</title>
<g id="a_Node000015"><a xlink:href="../../d2/d06/classcarla_1_1client_1_1detail_1_1ActorState.html#a1affb3c32be5ebbacff4200f46cd38ec" target="_top" xlink:title=" ">
<polygon fill="white" stroke="#666666" points="283.62,-279 185.88,-279 185.88,-247 283.62,-247 283.62,-279"/>
<text text-anchor="start" x="193.88" y="-265.5" font-family="Helvetica,sans-Serif" font-size="10.00">carla::client::detail</text>
<text text-anchor="middle" x="234.75" y="-253.5" font-family="Helvetica,sans-Serif" font-size="10.00">::ActorState::GetId</text>
</a>
</g>
</g>
<!-- Node1&#45;&gt;Node15 -->
<g id="edge14_Node000001_Node000015" class="edge">
<title>Node1&#45;&gt;Node15</title>
<g id="a_edge14_Node000001_Node000015"><a xlink:title=" ">
<path fill="none" stroke="#63b8ff" d="M118.15,-229.37C136.41,-234.68 156.69,-240.58 175.12,-245.94"/>
<polygon fill="#63b8ff" stroke="#63b8ff" points="173.84,-249.51 184.42,-248.94 175.8,-242.79 173.84,-249.51"/>
</a>
</g>
</g>
<!-- Node16 -->
<g id="Node000016" class="node">
<title>Node16</title>
<g id="a_Node000016"><a xlink:href="../../d9/d36/namespacecarla.html#afb6ca911605d1ec35bdf563de2814dba" target="_top" xlink:title=" ">
<polygon fill="white" stroke="#666666" points="463.5,-309 376.25,-309 376.25,-289 463.5,-289 463.5,-309"/>
<text text-anchor="middle" x="419.88" y="-295.5" font-family="Helvetica,sans-Serif" font-size="10.00">carla::log_debug</text>
</a>
</g>
</g>
<!-- Node1&#45;&gt;Node16 -->
<g id="edge15_Node000001_Node000016" class="edge">
<title>Node1&#45;&gt;Node16</title>
<g id="a_edge15_Node000001_Node000016"><a xlink:title=" ">
<path fill="none" stroke="#63b8ff" d="M76.57,-229.47C93.92,-247.6 124.63,-275.8 157.75,-288 226.06,-313.17 311.32,-311.11 365.45,-306.07"/>
<polygon fill="#63b8ff" stroke="#63b8ff" points="365.57,-309.47 375.17,-304.99 364.87,-302.5 365.57,-309.47"/>
</a>
</g>
</g>
<!-- Node17 -->
<g id="Node000017" class="node">
<title>Node17</title>
<g id="a_Node000017"><a xlink:href="../../d8/d4b/classcarla_1_1client_1_1detail_1_1ActorFactory.html#a35ca6b1f59d086fa27630c9f818cf843" target="_top" xlink:title="基于提供的 actor_description 创建一个参与者。episode 必须指向该参与者所在的章节（或者说区域）">
<polygon fill="white" stroke="#666666" points="300.5,-229 169,-229 169,-197 300.5,-197 300.5,-229"/>
<text text-anchor="start" x="177" y="-215.5" font-family="Helvetica,sans-Serif" font-size="10.00">carla::client::detail</text>
<text text-anchor="middle" x="234.75" y="-203.5" font-family="Helvetica,sans-Serif" font-size="10.00">::ActorFactory::MakeActor</text>
</a>
</g>
</g>
<!-- Node1&#45;&gt;Node17 -->
<g id="edge17_Node000001_Node000017" class="edge">
<title>Node1&#45;&gt;Node17</title>
<g id="a_edge17_Node000001_Node000017"><a xlink:title=" ">
<path fill="none" stroke="#63b8ff" d="M121.99,-213C133.55,-213 145.8,-213 157.79,-213"/>
<polygon fill="#63b8ff" stroke="#63b8ff" points="157.69,-216.5 167.69,-213 157.69,-209.5 157.69,-216.5"/>
</a>
</g>
</g>
<!-- Node20 -->
<g id="Node000020" class="node">
<title>Node20</title>
<g id="a_Node000020"><a xlink:href="../../d8/dd9/classcarla_1_1client_1_1ActorBlueprint.html#a2378dc77cfcb8815c0c23c0e9be03f31" target="_top" xlink:title=" ">
<polygon fill="white" stroke="#666666" points="301.62,-179 167.88,-179 167.88,-147 301.62,-147 301.62,-179"/>
<text text-anchor="start" x="175.88" y="-165.5" font-family="Helvetica,sans-Serif" font-size="10.00">carla::client::ActorBlueprint</text>
<text text-anchor="middle" x="234.75" y="-153.5" font-family="Helvetica,sans-Serif" font-size="10.00">::MakeActorDescription</text>
</a>
</g>
</g>
<!-- Node1&#45;&gt;Node20 -->
<g id="edge20_Node000001_Node000020" class="edge">
<title>Node1&#45;&gt;Node20</title>
<g id="a_edge20_Node000001_Node000020"><a xlink:title=" ">
<path fill="none" stroke="#63b8ff" d="M118.15,-196.63C133.65,-192.12 150.62,-187.18 166.67,-182.52"/>
<polygon fill="#63b8ff" stroke="#63b8ff" points="167.43,-185.65 176.05,-179.49 165.47,-178.93 167.43,-185.65"/>
</a>
</g>
</g>
<!-- Node21 -->
<g id="Node000021" class="node">
<title>Node21</title>
<g id="a_Node000021"><a xlink:href="../../dd/ddd/classcarla_1_1client_1_1detail_1_1Client.html#afc0a650bf0849577f19662a649121bcb" target="_top" xlink:title=" ">
<polygon fill="white" stroke="#666666" points="287.38,-129 182.12,-129 182.12,-97 287.38,-97 287.38,-129"/>
<text text-anchor="start" x="190.12" y="-115.5" font-family="Helvetica,sans-Serif" font-size="10.00">carla::client::detail</text>
<text text-anchor="middle" x="234.75" y="-103.5" font-family="Helvetica,sans-Serif" font-size="10.00">::Client::SpawnActor</text>
</a>
</g>
</g>
<!-- Node1&#45;&gt;Node21 -->
<g id="edge21_Node000001_Node000021" class="edge">
<title>Node1&#45;&gt;Node21</title>
<g id="a_edge21_Node000001_Node000021"><a xlink:title=" ">
<path fill="none" stroke="#63b8ff" d="M78.95,-196.62C97.18,-179.88 127.56,-154.14 157.75,-138 162.19,-135.63 166.89,-133.43 171.69,-131.4"/>
<polygon fill="#63b8ff" stroke="#63b8ff" points="172.63,-134.4 180.65,-127.47 170.06,-127.88 172.63,-134.4"/>
</a>
</g>
</g>
<!-- Node22 -->
<g id="Node000022" class="node">
<title>Node22</title>
<g id="a_Node000022"><a xlink:href="../../dd/ddd/classcarla_1_1client_1_1detail_1_1Client.html#a58f8877006e58047271127055ae9086e" target="_top" xlink:title=" ">
<polygon fill="white" stroke="#666666" points="311.75,-79 157.75,-79 157.75,-47 311.75,-47 311.75,-79"/>
<text text-anchor="start" x="165.75" y="-65.5" font-family="Helvetica,sans-Serif" font-size="10.00">carla::client::detail</text>
<text text-anchor="middle" x="234.75" y="-53.5" font-family="Helvetica,sans-Serif" font-size="10.00">::Client::SpawnActorWithParent</text>
</a>
</g>
</g>
<!-- Node1&#45;&gt;Node22 -->
<g id="edge22_Node000001_Node000022" class="edge">
<title>Node1&#45;&gt;Node22</title>
<g id="a_edge22_Node000001_Node000022"><a xlink:title=" ">
<path fill="none" stroke="#63b8ff" d="M70.15,-196.68C84.45,-170.09 116.26,-117.44 157.75,-88 159.45,-86.79 161.21,-85.64 163.02,-84.55"/>
<polygon fill="#63b8ff" stroke="#63b8ff" points="164.27,-87.31 171.41,-79.49 160.95,-81.15 164.27,-87.31"/>
</a>
</g>
</g>
<!-- Node3 -->
<g id="Node000003" class="node">
<title>Node3</title>
<g id="a_Node000003"><a xlink:href="../../df/df3/classcarla_1_1client_1_1detail_1_1Simulator.html#a57c33e4d297be5e0285a14fc8bac65b2" target="_top" xlink:title=" ">
<polygon fill="white" stroke="#666666" points="492,-383 347.75,-383 347.75,-339 492,-339 492,-383"/>
<text text-anchor="start" x="355.75" y="-369.5" font-family="Helvetica,sans-Serif" font-size="10.00">carla::client::detail</text>
<text text-anchor="start" x="355.75" y="-357.5" font-family="Helvetica,sans-Serif" font-size="10.00">::Simulator::GetReadyCurrent</text>
<text text-anchor="middle" x="419.88" y="-345.5" font-family="Helvetica,sans-Serif" font-size="10.00">Episode</text>
</a>
</g>
</g>
<!-- Node2&#45;&gt;Node3 -->
<g id="edge2_Node000002_Node000003" class="edge">
<title>Node2&#45;&gt;Node3</title>
<g id="a_edge2_Node000002_Node000003"><a xlink:title=" ">
<path fill="none" stroke="#63b8ff" d="M311.03,-356.88C319.49,-357.2 328.14,-357.53 336.69,-357.86"/>
<polygon fill="#63b8ff" stroke="#63b8ff" points="336.3,-361.38 346.43,-358.27 336.57,-354.39 336.3,-361.38"/>
</a>
</g>
</g>
<!-- Node4 -->
<g id="Node000004" class="node">
<title>Node4</title>
<g id="a_Node000004"><a xlink:href="../../df/df3/classcarla_1_1client_1_1detail_1_1Simulator.html#ae51eef7fae1a55b31ed1a272d35efbf6" target="_top" xlink:title=" ">
<polygon fill="white" stroke="#666666" points="684.25,-377 528,-377 528,-345 684.25,-345 684.25,-377"/>
<text text-anchor="start" x="536" y="-363.5" font-family="Helvetica,sans-Serif" font-size="10.00">carla::client::detail</text>
<text text-anchor="middle" x="606.12" y="-351.5" font-family="Helvetica,sans-Serif" font-size="10.00">::Simulator::GetEpisodeSettings</text>
</a>
</g>
</g>
<!-- Node3&#45;&gt;Node4 -->
<g id="edge3_Node000003_Node000004" class="edge">
<title>Node3&#45;&gt;Node4</title>
<g id="a_edge3_Node000003_Node000004"><a xlink:title=" ">
<path fill="none" stroke="#63b8ff" d="M492.37,-361C500.39,-361 508.63,-361 516.83,-361"/>
<polygon fill="#63b8ff" stroke="#63b8ff" points="516.56,-364.5 526.56,-361 516.56,-357.5 516.56,-364.5"/>
</a>
</g>
</g>
<!-- Node6 -->
<g id="Node000006" class="node">
<title>Node6</title>
<g id="a_Node000006"><a xlink:href="../../dd/ddd/classcarla_1_1client_1_1detail_1_1Client.html#af34fe04817ab044b2326c18dee2ee8fd" target="_top" xlink:title=" ">
<polygon fill="white" stroke="#666666" points="657.62,-327 554.62,-327 554.62,-295 657.62,-295 657.62,-327"/>
<text text-anchor="start" x="562.62" y="-313.5" font-family="Helvetica,sans-Serif" font-size="10.00">carla::client::detail</text>
<text text-anchor="middle" x="606.12" y="-301.5" font-family="Helvetica,sans-Serif" font-size="10.00">::Client::GetTimeout</text>
</a>
</g>
</g>
<!-- Node3&#45;&gt;Node6 -->
<g id="edge5_Node000003_Node000006" class="edge">
<title>Node3&#45;&gt;Node6</title>
<g id="a_edge5_Node000003_Node000006"><a xlink:title=" ">
<path fill="none" stroke="#63b8ff" d="M492.37,-341.6C509.3,-337 527.21,-332.14 543.65,-327.68"/>
<polygon fill="#63b8ff" stroke="#63b8ff" points="544.48,-330.81 553.21,-324.82 542.64,-324.06 544.48,-330.81"/>
</a>
</g>
</g>
<!-- Node7 -->
<g id="Node000007" class="node">
<title>Node7</title>
<g id="a_Node000007"><a xlink:href="../../d8/dcd/namespacecarla_1_1client_1_1detail.html#a097188ada46523ae4f48d6e1b2add828" target="_top" xlink:title=" ">
<polygon fill="white" stroke="#666666" points="653.88,-427 558.38,-427 558.38,-395 653.88,-395 653.88,-427"/>
<text text-anchor="start" x="566.38" y="-413.5" font-family="Helvetica,sans-Serif" font-size="10.00">carla::client::detail</text>
<text text-anchor="middle" x="606.12" y="-401.5" font-family="Helvetica,sans-Serif" font-size="10.00">::ValidateVersions</text>
</a>
</g>
</g>
<!-- Node3&#45;&gt;Node7 -->
<g id="edge6_Node000003_Node000007" class="edge">
<title>Node3&#45;&gt;Node7</title>
<g id="a_edge6_Node000003_Node000007"><a xlink:title=" ">
<path fill="none" stroke="#63b8ff" d="M492.37,-380.4C510.64,-385.36 530.04,-390.62 547.5,-395.36"/>
<polygon fill="#63b8ff" stroke="#63b8ff" points="546.54,-399 557.1,-398.24 548.37,-392.24 546.54,-399"/>
</a>
</g>
</g>
<!-- Node10 -->
<g id="Node000010" class="node">
<title>Node10</title>
<g id="a_Node000010"><a xlink:href="../../df/df3/classcarla_1_1client_1_1detail_1_1Simulator.html#a002b29bb5445982c00d7566e5cfa0439" target="_top" xlink:title=" ">
<polygon fill="white" stroke="#666666" points="667,-486 545.25,-486 545.25,-454 667,-454 667,-486"/>
<text text-anchor="start" x="553.25" y="-472.5" font-family="Helvetica,sans-Serif" font-size="10.00">carla::client::detail</text>
<text text-anchor="middle" x="606.12" y="-460.5" font-family="Helvetica,sans-Serif" font-size="10.00">::Simulator::WaitForTick</text>
</a>
</g>
</g>
<!-- Node3&#45;&gt;Node10 -->
<g id="edge9_Node000003_Node000010" class="edge">
<title>Node3&#45;&gt;Node10</title>
<g id="a_edge9_Node000003_Node000010"><a xlink:title=" ">
<path fill="none" stroke="#63b8ff" d="M449.42,-383.3C470.44,-399.13 500.11,-420.29 528,-436 536.24,-440.64 545.24,-445.11 554.09,-449.19"/>
<polygon fill="#63b8ff" stroke="#63b8ff" points="552.41,-452.73 562.97,-453.63 555.28,-446.34 552.41,-452.73"/>
</a>
</g>
</g>
<!-- Node5 -->
<g id="Node000005" class="node">
<title>Node5</title>
<g id="a_Node000005"><a xlink:href="../../dd/ddd/classcarla_1_1client_1_1detail_1_1Client.html#af24b90fee0483f3819213b2513406099" target="_top" xlink:title=" ">
<polygon fill="white" stroke="#666666" points="860,-367 720.25,-367 720.25,-335 860,-335 860,-367"/>
<text text-anchor="start" x="728.25" y="-353.5" font-family="Helvetica,sans-Serif" font-size="10.00">carla::client::detail</text>
<text text-anchor="middle" x="790.12" y="-341.5" font-family="Helvetica,sans-Serif" font-size="10.00">::Client::GetEpisodeSettings</text>
</a>
</g>
</g>
<!-- Node4&#45;&gt;Node5 -->
<g id="edge4_Node000004_Node000005" class="edge">
<title>Node4&#45;&gt;Node5</title>
<g id="a_edge4_Node000004_Node000005"><a xlink:title=" ">
<path fill="none" stroke="#63b8ff" d="M684.57,-356.74C692.62,-356.3 700.81,-355.85 708.89,-355.41"/>
<polygon fill="#63b8ff" stroke="#63b8ff" points="709.02,-358.85 718.81,-354.81 708.64,-351.86 709.02,-358.85"/>
</a>
</g>
</g>
<!-- Node8 -->
<g id="Node000008" class="node">
<title>Node8</title>
<g id="a_Node000008"><a xlink:href="../../d9/d36/namespacecarla.html#aca0bf2b2b37178b5e39c9bdbb5fadeb6" target="_top" xlink:title=" ">
<polygon fill="white" stroke="#666666" points="837.12,-405 743.12,-405 743.12,-385 837.12,-385 837.12,-405"/>
<text text-anchor="middle" x="790.12" y="-391.5" font-family="Helvetica,sans-Serif" font-size="10.00">carla::log_warning</text>
</a>
</g>
</g>
<!-- Node7&#45;&gt;Node8 -->
<g id="edge7_Node000007_Node000008" class="edge">
<title>Node7&#45;&gt;Node8</title>
<g id="a_edge7_Node000007_Node000008"><a xlink:title=" ">
<path fill="none" stroke="#63b8ff" d="M653.99,-406.88C677.76,-404.79 706.82,-402.24 731.89,-400.03"/>
<polygon fill="#63b8ff" stroke="#63b8ff" points="732.07,-403.44 741.73,-399.08 731.46,-396.47 732.07,-403.44"/>
</a>
</g>
</g>
<!-- Node9 -->
<g id="Node000009" class="node">
<title>Node9</title>
<g id="a_Node000009"><a xlink:href="../../d2/d8c/namespacecarla_1_1logging.html#a4193666236852fb6a6977299a31445d8" target="_top" xlink:title=" ">
<polygon fill="white" stroke="#666666" points="996,-347 896,-347 896,-315 996,-315 996,-347"/>
<text text-anchor="start" x="904" y="-333.5" font-family="Helvetica,sans-Serif" font-size="10.00">carla::logging::write</text>
<text text-anchor="middle" x="946" y="-321.5" font-family="Helvetica,sans-Serif" font-size="10.00">_to_stream</text>
</a>
</g>
</g>
<!-- Node8&#45;&gt;Node9 -->
<g id="edge8_Node000008_Node000009" class="edge">
<title>Node8&#45;&gt;Node9</title>
<g id="a_edge8_Node000008_Node000009"><a xlink:title=" ">
<path fill="none" stroke="#63b8ff" d="M834.59,-384.56C843.12,-382.08 851.93,-379.2 860,-376 876.42,-369.48 893.79,-360.66 908.52,-352.56"/>
<polygon fill="#63b8ff" stroke="#63b8ff" points="909.77,-355.31 916.78,-347.37 906.34,-349.2 909.77,-355.31"/>
</a>
</g>
</g>
<!-- Node11 -->
<g id="Node000011" class="node">
<title>Node11</title>
<g id="a_Node000011"><a xlink:href="../../dd/ddd/classcarla_1_1client_1_1detail_1_1Client.html#a0a5a097fb68fdf8a588a99c06433c3a4" target="_top" xlink:title=" ">
<polygon fill="white" stroke="#666666" points="843.5,-455 736.75,-455 736.75,-423 843.5,-423 843.5,-455"/>
<text text-anchor="start" x="744.75" y="-441.5" font-family="Helvetica,sans-Serif" font-size="10.00">carla::client::detail</text>
<text text-anchor="middle" x="790.12" y="-429.5" font-family="Helvetica,sans-Serif" font-size="10.00">::Client::GetEndpoint</text>
</a>
</g>
</g>
<!-- Node10&#45;&gt;Node11 -->
<g id="edge10_Node000010_Node000011" class="edge">
<title>Node10&#45;&gt;Node11</title>
<g id="a_edge10_Node000010_Node000011"><a xlink:title=" ">
<path fill="none" stroke="#63b8ff" d="M667.48,-459.72C686.16,-456.54 706.8,-453.02 725.68,-449.81"/>
<polygon fill="#63b8ff" stroke="#63b8ff" points="726,-453.13 735.27,-448 724.82,-446.23 726,-453.13"/>
</a>
</g>
</g>
<!-- Node12 -->
<g id="Node000012" class="node">
<title>Node12</title>
<g id="a_Node000012"><a xlink:href="../../df/df3/classcarla_1_1client_1_1detail_1_1Simulator.html#a11e83fc493dc1c68258f1d66e8a384df" target="_top" xlink:title=" ">
<polygon fill="white" stroke="#666666" points="855.88,-505 724.38,-505 724.38,-473 855.88,-473 855.88,-505"/>
<text text-anchor="start" x="732.38" y="-491.5" font-family="Helvetica,sans-Serif" font-size="10.00">carla::client::detail</text>
<text text-anchor="middle" x="790.12" y="-479.5" font-family="Helvetica,sans-Serif" font-size="10.00">::Simulator::NavigationTick</text>
</a>
</g>
</g>
<!-- Node10&#45;&gt;Node12 -->
<g id="edge11_Node000010_Node000012" class="edge">
<title>Node10&#45;&gt;Node12</title>
<g id="a_edge11_Node000010_Node000012"><a xlink:title=" ">
<path fill="none" stroke="#63b8ff" d="M667.48,-476.3C682.05,-477.82 697.81,-479.47 713,-481.05"/>
<polygon fill="#63b8ff" stroke="#63b8ff" points="712.62,-484.64 722.93,-482.19 713.35,-477.67 712.62,-484.64"/>
</a>
</g>
</g>
<!-- Node13 -->
<g id="Node000013" class="node">
<title>Node13</title>
<g id="a_Node000013"><a xlink:href="../../d9/d36/namespacecarla.html#a23602ab663165210a7757d6108f6b3cd" target="_top" xlink:title=" ">
<polygon fill="white" stroke="#666666" points="846.88,-543 733.38,-543 733.38,-523 846.88,-523 846.88,-543"/>
<text text-anchor="middle" x="790.12" y="-529.5" font-family="Helvetica,sans-Serif" font-size="10.00">carla::throw_exception</text>
</a>
</g>
</g>
<!-- Node10&#45;&gt;Node13 -->
<g id="edge12_Node000010_Node000013" class="edge">
<title>Node10&#45;&gt;Node13</title>
<g id="a_edge12_Node000010_Node000013"><a xlink:title=" ">
<path fill="none" stroke="#63b8ff" d="M646.55,-486.47C668.13,-495.2 695.45,-505.78 720.25,-514 726.06,-515.93 732.18,-517.81 738.29,-519.61"/>
<polygon fill="#63b8ff" stroke="#63b8ff" points="736.92,-523.14 747.49,-522.53 738.84,-516.41 736.92,-523.14"/>
</a>
</g>
</g>
<!-- Node14 -->
<g id="Node000014" class="node">
<title>Node14</title>
<g id="a_Node000014"><a xlink:href="../../d0/d6a/ActorDispatcher_8cpp.html#a69d0a7232310b5ebaa51abb2b9945184" target="_top" xlink:title=" ">
<polygon fill="white" stroke="#666666" points="973.5,-543 918.5,-543 918.5,-523 973.5,-523 973.5,-543"/>
<text text-anchor="middle" x="946" y="-529.5" font-family="Helvetica,sans-Serif" font-size="10.00">UE_LOG</text>
</a>
</g>
</g>
<!-- Node13&#45;&gt;Node14 -->
<g id="edge13_Node000013_Node000014" class="edge">
<title>Node13&#45;&gt;Node14</title>
<g id="a_edge13_Node000013_Node000014"><a xlink:title=" ">
<path fill="none" stroke="#63b8ff" d="M847.11,-533C867.09,-533 889.1,-533 907.18,-533"/>
<polygon fill="#63b8ff" stroke="#63b8ff" points="907.16,-536.5 917.16,-533 907.16,-529.5 907.16,-536.5"/>
</a>
</g>
</g>
<!-- Node16&#45;&gt;Node9 -->
<g id="edge16_Node000016_Node000009" class="edge">
<title>Node16&#45;&gt;Node9</title>
<g id="a_edge16_Node000016_Node000009"><a xlink:title=" ">
<path fill="none" stroke="#63b8ff" d="M463.77,-292.59C483.31,-289.98 506.78,-287.28 528,-286 597.32,-281.81 615.06,-280.07 684.25,-286 753.83,-291.96 832.73,-306.71 885.34,-317.71"/>
<polygon fill="#63b8ff" stroke="#63b8ff" points="884.32,-321.28 894.82,-319.93 885.76,-314.43 884.32,-321.28"/>
</a>
</g>
</g>
<!-- Node18 -->
<g id="Node000018" class="node">
<title>Node18</title>
<g id="a_Node000018"><a xlink:href="../../db/dfd/classcarla_1_1rpc_1_1Actor.html#a427ab77ca916ac215a38a6e984356326" target="_top" xlink:title=" ">
<polygon fill="white" stroke="#666666" points="465.75,-248 374,-248 374,-216 465.75,-216 465.75,-248"/>
<text text-anchor="start" x="382" y="-234.5" font-family="Helvetica,sans-Serif" font-size="10.00">carla::rpc::Actor::</text>
<text text-anchor="middle" x="419.88" y="-222.5" font-family="Helvetica,sans-Serif" font-size="10.00">HasAStream</text>
</a>
</g>
</g>
<!-- Node17&#45;&gt;Node18 -->
<g id="edge18_Node000017_Node000018" class="edge">
<title>Node17&#45;&gt;Node18</title>
<g id="a_edge18_Node000017_Node000018"><a xlink:title=" ">
<path fill="none" stroke="#63b8ff" d="M300.83,-219.75C321.03,-221.85 343.12,-224.14 362.66,-226.17"/>
<polygon fill="#63b8ff" stroke="#63b8ff" points="362.23,-229.75 372.54,-227.3 362.95,-222.78 362.23,-229.75"/>
</a>
</g>
</g>
<!-- Node19 -->
<g id="Node000019" class="node">
<title>Node19</title>
<g id="a_Node000019"><a xlink:href="../../de/d93/classcarla_1_1StringUtil.html#afa9750d2d007ece06fb6f51311a4d7ba" target="_top" xlink:title=" ">
<polygon fill="white" stroke="#666666" points="464.25,-198 375.5,-198 375.5,-166 464.25,-166 464.25,-198"/>
<text text-anchor="start" x="383.5" y="-184.5" font-family="Helvetica,sans-Serif" font-size="10.00">carla::StringUtil::</text>
<text text-anchor="middle" x="419.88" y="-172.5" font-family="Helvetica,sans-Serif" font-size="10.00">StartsWith</text>
</a>
</g>
</g>
<!-- Node17&#45;&gt;Node19 -->
<g id="edge19_Node000017_Node000019" class="edge">
<title>Node17&#45;&gt;Node19</title>
<g id="a_edge19_Node000017_Node000019"><a xlink:title=" ">
<path fill="none" stroke="#63b8ff" d="M300.83,-201.98C321.65,-198.46 344.46,-194.6 364.44,-191.21"/>
<polygon fill="#63b8ff" stroke="#63b8ff" points="364.94,-194.51 374.22,-189.39 363.77,-187.61 364.94,-194.51"/>
</a>
</g>
</g>
<!-- Node23 -->
<g id="Node000023" class="node">
<title>Node23</title>
<g id="a_Node000023"><a xlink:href="../../d0/dea/classcarla_1_1geom_1_1Math.html#a98bc1394f89f87defc597b229f22d12f" target="_top" xlink:title=" ">
<polygon fill="white" stroke="#666666" points="477.75,-95 362,-95 362,-75 477.75,-75 477.75,-95"/>
<text text-anchor="middle" x="419.88" y="-81.5" font-family="Helvetica,sans-Serif" font-size="10.00">carla::geom::Math::Dot</text>
</a>
</g>
</g>
<!-- Node22&#45;&gt;Node23 -->
<g id="edge23_Node000022_Node000023" class="edge">
<title>Node22&#45;&gt;Node23</title>
<g id="a_edge23_Node000022_Node000023"><a xlink:title=" ">
<path fill="none" stroke="#63b8ff" d="M312.09,-72.17C324.91,-73.71 338.15,-75.3 350.75,-76.82"/>
<polygon fill="#63b8ff" stroke="#63b8ff" points="350.29,-80.41 360.64,-78.12 351.13,-73.46 350.29,-80.41"/>
</a>
</g>
</g>
<!-- Node24 -->
<g id="Node000024" class="node">
<title>Node24</title>
<g id="a_Node000024"><a xlink:href="../../d9/dfe/classcarla_1_1geom_1_1Vector3D.html#a21f9cb00ea207d0f5304fad1c40b20e7" target="_top" xlink:title=" ">
<polygon fill="white" stroke="#666666" points="476.62,-57 363.12,-57 363.12,-25 476.62,-25 476.62,-57"/>
<text text-anchor="start" x="371.12" y="-43.5" font-family="Helvetica,sans-Serif" font-size="10.00">carla::geom::Vector3D</text>
<text text-anchor="middle" x="419.88" y="-31.5" font-family="Helvetica,sans-Serif" font-size="10.00">::MakeSafeUnitVector</text>
</a>
</g>
</g>
<!-- Node22&#45;&gt;Node24 -->
<g id="edge24_Node000022_Node000024" class="edge">
<title>Node22&#45;&gt;Node24</title>
<g id="a_edge24_Node000022_Node000024"><a xlink:title=" ">
<path fill="none" stroke="#63b8ff" d="M312.09,-53.83C325.35,-52.24 339.05,-50.59 352.04,-49.03"/>
<polygon fill="#63b8ff" stroke="#63b8ff" points="352.24,-52.41 361.75,-47.74 351.41,-45.46 352.24,-52.41"/>
</a>
</g>
</g>
<!-- Node25 -->
<g id="Node000025" class="node">
<title>Node25</title>
<g id="a_Node000025"><a xlink:href="../../d9/dfe/classcarla_1_1geom_1_1Vector3D.html#aaa4bec48ae0734cca2c027df30ea6b34" target="_top" xlink:title=" ">
<polygon fill="white" stroke="#666666" points="662.88,-82 549.38,-82 549.38,-50 662.88,-50 662.88,-82"/>
<text text-anchor="start" x="557.38" y="-68.5" font-family="Helvetica,sans-Serif" font-size="10.00">carla::geom::Vector3D</text>
<text text-anchor="middle" x="606.12" y="-56.5" font-family="Helvetica,sans-Serif" font-size="10.00">::Length</text>
</a>
</g>
</g>
<!-- Node24&#45;&gt;Node25 -->
<g id="edge25_Node000024_Node000025" class="edge">
<title>Node24&#45;&gt;Node25</title>
<g id="a_edge25_Node000024_Node000025"><a xlink:title=" ">
<path fill="none" stroke="#63b8ff" d="M476.91,-48.6C496.29,-51.23 518.21,-54.21 538.37,-56.94"/>
<polygon fill="#63b8ff" stroke="#63b8ff" points="537.66,-60.51 548.04,-58.39 538.6,-53.58 537.66,-60.51"/>
</a>
</g>
</g>
<!-- Node27 -->
<g id="Node000027" class="node">
<title>Node27</title>
<g id="a_Node000027"><a xlink:href="../../d9/dfe/classcarla_1_1geom_1_1Vector3D.html#ae8900b561fa2d9e6667f36038aea7657" target="_top" xlink:title=" ">
<polygon fill="white" stroke="#666666" points="662.88,-32 549.38,-32 549.38,0 662.88,0 662.88,-32"/>
<text text-anchor="start" x="557.38" y="-18.5" font-family="Helvetica,sans-Serif" font-size="10.00">carla::geom::Vector3D</text>
<text text-anchor="middle" x="606.12" y="-6.5" font-family="Helvetica,sans-Serif" font-size="10.00">::Vector3D</text>
</a>
</g>
</g>
<!-- Node24&#45;&gt;Node27 -->
<g id="edge27_Node000024_Node000027" class="edge">
<title>Node24&#45;&gt;Node27</title>
<g id="a_edge27_Node000024_Node000027"><a xlink:title=" ">
<path fill="none" stroke="#63b8ff" d="M476.91,-33.4C496.29,-30.77 518.21,-27.79 538.37,-25.06"/>
<polygon fill="#63b8ff" stroke="#63b8ff" points="538.6,-28.42 548.04,-23.61 537.66,-21.49 538.6,-28.42"/>
</a>
</g>
</g>
<!-- Node26 -->
<g id="Node000026" class="node">
<title>Node26</title>
<g id="a_Node000026"><a xlink:href="../../d9/dfe/classcarla_1_1geom_1_1Vector3D.html#a0bd1ef6e24532e950b455838ecd4f8cf" target="_top" xlink:title=" ">
<polygon fill="white" stroke="#666666" points="846.88,-82 733.38,-82 733.38,-50 846.88,-50 846.88,-82"/>
<text text-anchor="start" x="741.38" y="-68.5" font-family="Helvetica,sans-Serif" font-size="10.00">carla::geom::Vector3D</text>
<text text-anchor="middle" x="790.12" y="-56.5" font-family="Helvetica,sans-Serif" font-size="10.00">::SquaredLength</text>
</a>
</g>
</g>
<!-- Node25&#45;&gt;Node26 -->
<g id="edge26_Node000025_Node000026" class="edge">
<title>Node25&#45;&gt;Node26</title>
<g id="a_edge26_Node000025_Node000026"><a xlink:title=" ">
<path fill="none" stroke="#63b8ff" d="M663.22,-66C681.81,-66 702.7,-66 722.04,-66"/>
<polygon fill="#63b8ff" stroke="#63b8ff" points="721.91,-69.5 731.91,-66 721.91,-62.5 721.91,-69.5"/>
</a>
</g>
</g>
</g>
</svg>
