<?xml version="1.0" encoding="UTF-8" standalone="no"?>
<!DOCTYPE svg PUBLIC "-//W3C//DTD SVG 1.1//EN"
 "http://www.w3.org/Graphics/SVG/1.1/DTD/svg11.dtd">
<!-- Generated by graphviz version 8.1.0 (20230707.0739)
 -->
<!-- Title: carla::client::detail::Simulator::LoadEpisode Pages: 1 -->
<svg width="339pt" height="90pt"
 viewBox="0.00 0.00 339.25 90.00" xmlns="http://www.w3.org/2000/svg" xmlns:xlink="http://www.w3.org/1999/xlink">
<g id="graph0" class="graph" transform="scale(1 1) rotate(0) translate(4 86)">
<title>carla::client::detail::Simulator::LoadEpisode</title>
<!-- Node1 -->
<g id="Node000001" class="node">
<title>Node1</title>
<g id="a_Node000001"><a xlink:title=" ">
<polygon fill="#999999" stroke="#666666" points="331.25,-57 205.75,-57 205.75,-25 331.25,-25 331.25,-57"/>
<text text-anchor="start" x="213.75" y="-43.5" font-family="Helvetica,sans-Serif" font-size="10.00">carla::client::detail</text>
<text text-anchor="middle" x="268.5" y="-31.5" font-family="Helvetica,sans-Serif" font-size="10.00">::Simulator::LoadEpisode</text>
</a>
</g>
</g>
<!-- Node2 -->
<g id="Node000002" class="node">
<title>Node2</title>
<g id="a_Node000002"><a xlink:href="../../df/df3/classcarla_1_1client_1_1detail_1_1Simulator.html#a9c02ba42b0f621acadcedde6cece26f7" target="_top" xlink:title=" ">
<polygon fill="white" stroke="#666666" points="169.75,-82 0,-82 0,-50 169.75,-50 169.75,-82"/>
<text text-anchor="start" x="8" y="-68.5" font-family="Helvetica,sans-Serif" font-size="10.00">carla::client::detail</text>
<text text-anchor="middle" x="84.88" y="-56.5" font-family="Helvetica,sans-Serif" font-size="10.00">::Simulator::LoadOpenDriveEpisode</text>
</a>
</g>
</g>
<!-- Node1&#45;&gt;Node2 -->
<g id="edge1_Node000001_Node000002" class="edge">
<title>Node1&#45;&gt;Node2</title>
<g id="a_edge1_Node000001_Node000002"><a xlink:title=" ">
<path fill="none" stroke="#63b8ff" d="M194.64,-51.03C186.56,-52.14 178.28,-53.28 170.08,-54.41"/>
<polygon fill="#63b8ff" stroke="#63b8ff" points="195.07,-54.36 204.5,-49.53 194.12,-47.43 195.07,-54.36"/>
</a>
</g>
</g>
<!-- Node3 -->
<g id="Node000003" class="node">
<title>Node3</title>
<g id="a_Node000003"><a xlink:href="../../df/df3/classcarla_1_1client_1_1detail_1_1Simulator.html#a3456d71f81301522bdfb013838bc4589" target="_top" xlink:title=" ">
<polygon fill="white" stroke="#666666" points="152.12,-32 17.62,-32 17.62,0 152.12,0 152.12,-32"/>
<text text-anchor="start" x="25.62" y="-18.5" font-family="Helvetica,sans-Serif" font-size="10.00">carla::client::detail</text>
<text text-anchor="middle" x="84.88" y="-6.5" font-family="Helvetica,sans-Serif" font-size="10.00">::Simulator::ReloadEpisode</text>
</a>
</g>
</g>
<!-- Node1&#45;&gt;Node3 -->
<g id="edge2_Node000001_Node000003" class="edge">
<title>Node1&#45;&gt;Node3</title>
<g id="a_edge2_Node000001_Node000003"><a xlink:title=" ">
<path fill="none" stroke="#63b8ff" d="M194.94,-31.01C180.95,-29.09 166.36,-27.08 152.56,-25.18"/>
<polygon fill="#63b8ff" stroke="#63b8ff" points="194.12,-34.57 204.5,-32.47 195.07,-27.64 194.12,-34.57"/>
</a>
</g>
</g>
</g>
</svg>
