<?xml version="1.0" encoding="UTF-8" standalone="no"?>
<!DOCTYPE svg PUBLIC "-//W3C//DTD SVG 1.1//EN"
 "http://www.w3.org/Graphics/SVG/1.1/DTD/svg11.dtd">
<!-- Generated by graphviz version 8.1.0 (20230707.0739)
 -->
<!-- Title: ACarlaGameModeBase::RegisterEnvironmentObjects Pages: 1 -->
<svg width="1404pt" height="417pt"
 viewBox="0.00 0.00 1404.25 417.40" xmlns="http://www.w3.org/2000/svg" xmlns:xlink="http://www.w3.org/1999/xlink">
<g id="graph0" class="graph" transform="scale(1 1) rotate(0) translate(4 413.4)">
<title>ACarlaGameModeBase::RegisterEnvironmentObjects</title>
<!-- Node1 -->
<g id="Node000001" class="node">
<title>Node1</title>
<g id="a_Node000001"><a xlink:title=" ">
<polygon fill="#999999" stroke="#666666" points="145,-237 0,-237 0,-205 145,-205 145,-237"/>
<text text-anchor="start" x="8" y="-223.5" font-family="Helvetica,sans-Serif" font-size="10.00">ACarlaGameModeBase</text>
<text text-anchor="middle" x="72.5" y="-211.5" font-family="Helvetica,sans-Serif" font-size="10.00">::RegisterEnvironmentObjects</text>
</a>
</g>
</g>
<!-- Node2 -->
<g id="Node000002" class="node">
<title>Node2</title>
<g id="a_Node000002"><a xlink:href="../../d2/d5b/classUObjectRegister.html#a8e77baf3dffa6dc5919a2ee4d8c9a965" target="_top" xlink:title=" ">
<polygon fill="white" stroke="#666666" points="310.25,-237 181,-237 181,-205 310.25,-205 310.25,-237"/>
<text text-anchor="start" x="189" y="-223.5" font-family="Helvetica,sans-Serif" font-size="10.00">UObjectRegister::Register</text>
<text text-anchor="middle" x="245.62" y="-211.5" font-family="Helvetica,sans-Serif" font-size="10.00">Objects</text>
</a>
</g>
</g>
<!-- Node1&#45;&gt;Node2 -->
<g id="edge1_Node000001_Node000002" class="edge">
<title>Node1&#45;&gt;Node2</title>
<g id="a_edge1_Node000001_Node000002"><a xlink:title=" ">
<path fill="none" stroke="#63b8ff" d="M145.08,-221C153.3,-221 161.69,-221 169.94,-221"/>
<polygon fill="#63b8ff" stroke="#63b8ff" points="169.69,-224.5 179.69,-221 169.69,-217.5 169.69,-224.5"/>
</a>
</g>
</g>
<!-- Node3 -->
<g id="Node000003" class="node">
<title>Node3</title>
<g id="a_Node000003"><a xlink:href="../../d2/d5b/classUObjectRegister.html#ab8704b164ab785b6ad2b1d0dcab44223" target="_top" xlink:title=" ">
<polygon fill="white" stroke="#666666" points="872.75,-261 743.5,-261 743.5,-229 872.75,-229 872.75,-261"/>
<text text-anchor="start" x="751.5" y="-247.5" font-family="Helvetica,sans-Serif" font-size="10.00">UObjectRegister::Register</text>
<text text-anchor="middle" x="808.12" y="-235.5" font-family="Helvetica,sans-Serif" font-size="10.00">Character</text>
</a>
</g>
</g>
<!-- Node2&#45;&gt;Node3 -->
<g id="edge2_Node000002_Node000003" class="edge">
<title>Node2&#45;&gt;Node3</title>
<g id="a_edge2_Node000002_Node000003"><a xlink:title=" ">
<path fill="none" stroke="#63b8ff" d="M310.65,-223.74C415.03,-228.21 621.35,-237.05 732.31,-241.8"/>
<polygon fill="#63b8ff" stroke="#63b8ff" points="731.94,-245.33 742.08,-242.26 732.23,-238.33 731.94,-245.33"/>
</a>
</g>
</g>
<!-- Node7 -->
<g id="Node000007" class="node">
<title>Node7</title>
<g id="a_Node000007"><a xlink:href="../../d2/d5b/classUObjectRegister.html#aef70e7b2f497e5be2a2ea4051ca3cdab" target="_top" xlink:title=" ">
<polygon fill="white" stroke="#666666" points="872.75,-211 743.5,-211 743.5,-179 872.75,-179 872.75,-211"/>
<text text-anchor="start" x="751.5" y="-197.5" font-family="Helvetica,sans-Serif" font-size="10.00">UObjectRegister::Register</text>
<text text-anchor="middle" x="808.12" y="-185.5" font-family="Helvetica,sans-Serif" font-size="10.00">ISMComponents</text>
</a>
</g>
</g>
<!-- Node2&#45;&gt;Node7 -->
<g id="edge6_Node000002_Node000007" class="edge">
<title>Node2&#45;&gt;Node7</title>
<g id="a_edge6_Node000002_Node000007"><a xlink:title=" ">
<path fill="none" stroke="#63b8ff" d="M310.65,-218.03C415.03,-213.19 621.35,-203.62 732.31,-198.47"/>
<polygon fill="#63b8ff" stroke="#63b8ff" points="732.25,-201.93 742.08,-197.97 731.92,-194.94 732.25,-201.93"/>
</a>
</g>
</g>
<!-- Node12 -->
<g id="Node000012" class="node">
<title>Node12</title>
<g id="a_Node000012"><a xlink:href="../../d2/d5b/classUObjectRegister.html#a91639ab20ae6a79cae508fac6774d7f8" target="_top" xlink:title=" ">
<polygon fill="white" stroke="#666666" points="475.5,-348 346.25,-348 346.25,-316 475.5,-316 475.5,-348"/>
<text text-anchor="start" x="354.25" y="-334.5" font-family="Helvetica,sans-Serif" font-size="10.00">UObjectRegister::Register</text>
<text text-anchor="middle" x="410.88" y="-322.5" font-family="Helvetica,sans-Serif" font-size="10.00">SKMComponents</text>
</a>
</g>
</g>
<!-- Node2&#45;&gt;Node12 -->
<g id="edge12_Node000002_Node000012" class="edge">
<title>Node2&#45;&gt;Node12</title>
<g id="a_edge12_Node000002_Node000012"><a xlink:title=" ">
<path fill="none" stroke="#63b8ff" d="M266.67,-237.32C286.4,-253.08 317.64,-277.25 346.25,-296 353.65,-300.85 361.73,-305.72 369.58,-310.25"/>
<polygon fill="#63b8ff" stroke="#63b8ff" points="367.55,-313.69 377.97,-315.58 371,-307.6 367.55,-313.69"/>
</a>
</g>
</g>
<!-- Node15 -->
<g id="Node000015" class="node">
<title>Node15</title>
<g id="a_Node000015"><a xlink:href="../../d2/d5b/classUObjectRegister.html#a3170c79e4e27ef979a163a05a84bd278" target="_top" xlink:title=" ">
<polygon fill="white" stroke="#666666" points="475.5,-171 346.25,-171 346.25,-139 475.5,-139 475.5,-171"/>
<text text-anchor="start" x="354.25" y="-157.5" font-family="Helvetica,sans-Serif" font-size="10.00">UObjectRegister::Register</text>
<text text-anchor="middle" x="410.88" y="-145.5" font-family="Helvetica,sans-Serif" font-size="10.00">SMComponents</text>
</a>
</g>
</g>
<!-- Node2&#45;&gt;Node15 -->
<g id="edge19_Node000002_Node000015" class="edge">
<title>Node2&#45;&gt;Node15</title>
<g id="a_edge19_Node000002_Node000015"><a xlink:title=" ">
<path fill="none" stroke="#63b8ff" d="M287.4,-204.52C309.2,-195.7 336.24,-184.77 359.36,-175.42"/>
<polygon fill="#63b8ff" stroke="#63b8ff" points="360.38,-178.38 368.34,-171.39 357.76,-171.89 360.38,-178.38"/>
</a>
</g>
</g>
<!-- Node17 -->
<g id="Node000017" class="node">
<title>Node17</title>
<g id="a_Node000017"><a xlink:href="../../d2/d5b/classUObjectRegister.html#a8bc743b6be0375b789d1a04b3555d961" target="_top" xlink:title=" ">
<polygon fill="white" stroke="#666666" points="475.5,-101 346.25,-101 346.25,-69 475.5,-69 475.5,-101"/>
<text text-anchor="start" x="354.25" y="-87.5" font-family="Helvetica,sans-Serif" font-size="10.00">UObjectRegister::Register</text>
<text text-anchor="middle" x="410.88" y="-75.5" font-family="Helvetica,sans-Serif" font-size="10.00">TrafficLight</text>
</a>
</g>
</g>
<!-- Node2&#45;&gt;Node17 -->
<g id="edge24_Node000002_Node000017" class="edge">
<title>Node2&#45;&gt;Node17</title>
<g id="a_edge24_Node000002_Node000017"><a xlink:title=" ">
<path fill="none" stroke="#63b8ff" d="M263.33,-204.55C282.67,-185.78 315.78,-154.53 346.25,-130 355.77,-122.33 366.5,-114.47 376.39,-107.51"/>
<polygon fill="#63b8ff" stroke="#63b8ff" points="377.97,-109.98 384.18,-101.4 373.97,-104.23 377.97,-109.98"/>
</a>
</g>
</g>
<!-- Node24 -->
<g id="Node000024" class="node">
<title>Node24</title>
<g id="a_Node000024"><a xlink:href="../../d2/d5b/classUObjectRegister.html#a03ae90f5d7245f380fda3e44d42870b7" target="_top" xlink:title=" ">
<polygon fill="white" stroke="#666666" points="872.75,-312 743.5,-312 743.5,-280 872.75,-280 872.75,-312"/>
<text text-anchor="start" x="751.5" y="-298.5" font-family="Helvetica,sans-Serif" font-size="10.00">UObjectRegister::Register</text>
<text text-anchor="middle" x="808.12" y="-286.5" font-family="Helvetica,sans-Serif" font-size="10.00">Vehicle</text>
</a>
</g>
</g>
<!-- Node2&#45;&gt;Node24 -->
<g id="edge33_Node000002_Node000024" class="edge">
<title>Node2&#45;&gt;Node24</title>
<g id="a_edge33_Node000002_Node000024"><a xlink:title=" ">
<path fill="none" stroke="#63b8ff" d="M310.53,-234.61C322.38,-236.91 334.67,-239.15 346.25,-241 481.78,-262.66 640.98,-279.84 732.36,-288.92"/>
<polygon fill="#63b8ff" stroke="#63b8ff" points="731.86,-292.49 742.16,-289.99 732.55,-285.52 731.86,-292.49"/>
</a>
</g>
</g>
<!-- Node4 -->
<g id="Node000004" class="node">
<title>Node4</title>
<g id="a_Node000004"><a xlink:href="../../df/d02/classUBoundingBoxCalculator.html#a6f9f361b86200319b604a459008c48c0" target="_top" xlink:title=" ">
<polygon fill="white" stroke="#666666" points="1067.62,-220 930.12,-220 930.12,-188 1067.62,-188 1067.62,-220"/>
<text text-anchor="start" x="938.12" y="-206.5" font-family="Helvetica,sans-Serif" font-size="10.00">UBoundingBoxCalculator</text>
<text text-anchor="middle" x="998.88" y="-194.5" font-family="Helvetica,sans-Serif" font-size="10.00">::GetCharacterBoundingBox</text>
</a>
</g>
</g>
<!-- Node3&#45;&gt;Node4 -->
<g id="edge3_Node000003_Node000004" class="edge">
<title>Node3&#45;&gt;Node4</title>
<g id="a_edge3_Node000003_Node000004"><a xlink:title=" ">
<path fill="none" stroke="#63b8ff" d="M873.03,-231.12C887.89,-227.89 903.87,-224.42 919.28,-221.07"/>
<polygon fill="#63b8ff" stroke="#63b8ff" points="919.81,-224.32 928.84,-218.78 918.33,-217.48 919.81,-224.32"/>
</a>
</g>
</g>
<!-- Node6 -->
<g id="Node000006" class="node">
<title>Node6</title>
<g id="a_Node000006"><a xlink:href="../../d2/d5b/classUObjectRegister.html#a8c7557f3311d68b4e010ff4463bdb713" target="_top" xlink:title=" ">
<polygon fill="white" stroke="#666666" points="1063.5,-270 934.25,-270 934.25,-238 1063.5,-238 1063.5,-270"/>
<text text-anchor="start" x="942.25" y="-256.5" font-family="Helvetica,sans-Serif" font-size="10.00">UObjectRegister::Register</text>
<text text-anchor="middle" x="998.88" y="-244.5" font-family="Helvetica,sans-Serif" font-size="10.00">EnvironmentObject</text>
</a>
</g>
</g>
<!-- Node3&#45;&gt;Node6 -->
<g id="edge5_Node000003_Node000006" class="edge">
<title>Node3&#45;&gt;Node6</title>
<g id="a_edge5_Node000003_Node000006"><a xlink:title=" ">
<path fill="none" stroke="#63b8ff" d="M873.03,-248.05C889.17,-248.82 906.64,-249.65 923.26,-250.44"/>
<polygon fill="#63b8ff" stroke="#63b8ff" points="922.88,-253.98 933.04,-250.96 923.22,-246.98 922.88,-253.98"/>
</a>
</g>
</g>
<!-- Node5 -->
<g id="Node000005" class="node">
<title>Node5</title>
<g id="a_Node000005"><a xlink:href="../../dd/dd8/BoundingBoxCalculator_8cpp.html#a724edcd3050f902e60a4c923013b7e4c" target="_top" xlink:title=" ">
<polygon fill="white" stroke="#666666" points="1268.88,-214 1161.38,-214 1161.38,-194 1268.88,-194 1268.88,-214"/>
<text text-anchor="middle" x="1215.12" y="-200.5" font-family="Helvetica,sans-Serif" font-size="10.00">ApplyTransformToBB</text>
</a>
</g>
</g>
<!-- Node4&#45;&gt;Node5 -->
<g id="edge4_Node000004_Node000005" class="edge">
<title>Node4&#45;&gt;Node5</title>
<g id="a_edge4_Node000004_Node000005"><a xlink:title=" ">
<path fill="none" stroke="#63b8ff" d="M1067.96,-204C1094.33,-204 1124.37,-204 1150.32,-204"/>
<polygon fill="#63b8ff" stroke="#63b8ff" points="1150.17,-207.5 1160.17,-204 1150.17,-200.5 1150.17,-207.5"/>
</a>
</g>
</g>
<!-- Node8 -->
<g id="Node000008" class="node">
<title>Node8</title>
<g id="a_Node000008"><a xlink:href="../../df/d02/classUBoundingBoxCalculator.html#aa5f1454b3356ef909e81b68ed5bdb2d5" target="_top" xlink:title=" ">
<polygon fill="white" stroke="#666666" points="1060.88,-82 936.88,-82 936.88,-50 1060.88,-50 1060.88,-82"/>
<text text-anchor="start" x="944.88" y="-68.5" font-family="Helvetica,sans-Serif" font-size="10.00">UBoundingBoxCalculator</text>
<text text-anchor="middle" x="998.88" y="-56.5" font-family="Helvetica,sans-Serif" font-size="10.00">::GetISMBoundingBox</text>
</a>
</g>
</g>
<!-- Node7&#45;&gt;Node8 -->
<g id="edge7_Node000007_Node000008" class="edge">
<title>Node7&#45;&gt;Node8</title>
<g id="a_edge7_Node000007_Node000008"><a xlink:title=" ">
<path fill="none" stroke="#63b8ff" d="M820.32,-178.68C836.95,-155.69 870.37,-114.02 908.75,-91 914.36,-87.64 920.43,-84.71 926.69,-82.17"/>
<polygon fill="#63b8ff" stroke="#63b8ff" points="927.47,-85.24 935.62,-78.48 925.03,-78.68 927.47,-85.24"/>
</a>
</g>
</g>
<!-- Node11 -->
<g id="Node000011" class="node">
<title>Node11</title>
<g id="a_Node000011"><a xlink:href="../../da/d86/classATagger.html#a1fbf1e4054acac5814c5521796a410a2" target="_top" xlink:title="检索已标记组件的标记。">
<polygon fill="white" stroke="#666666" points="1305.25,-292 1125,-292 1125,-272 1305.25,-272 1305.25,-292"/>
<text text-anchor="middle" x="1215.12" y="-278.5" font-family="Helvetica,sans-Serif" font-size="10.00">ATagger::GetTagOfTaggedComponent</text>
</a>
</g>
</g>
<!-- Node7&#45;&gt;Node11 -->
<g id="edge11_Node000007_Node000011" class="edge">
<title>Node7&#45;&gt;Node11</title>
<g id="a_edge11_Node000007_Node000011"><a xlink:title=" ">
<path fill="none" stroke="#63b8ff" d="M858.37,-178.51C916.51,-162.03 1014.67,-143.78 1089,-179 1111.83,-189.82 1106.25,-206.06 1125,-223 1143.55,-239.77 1167.28,-255.23 1185.58,-266.12"/>
<polygon fill="#63b8ff" stroke="#63b8ff" points="1183.46,-269.52 1193.86,-271.53 1186.98,-263.47 1183.46,-269.52"/>
</a>
</g>
</g>
<!-- Node8&#45;&gt;Node5 -->
<g id="edge8_Node000008_Node000005" class="edge">
<title>Node8&#45;&gt;Node5</title>
<g id="a_edge8_Node000008_Node000005"><a xlink:title=" ">
<path fill="none" stroke="#63b8ff" d="M1061.17,-77.52C1070.96,-80.93 1080.62,-85.32 1089,-91 1110.79,-105.76 1106.24,-119.55 1125,-138 1144.4,-157.09 1169.55,-175.22 1188.19,-187.63"/>
<polygon fill="#63b8ff" stroke="#63b8ff" points="1185.99,-191.03 1196.27,-193.58 1189.82,-185.17 1185.99,-191.03"/>
</a>
</g>
</g>
<!-- Node9 -->
<g id="Node000009" class="node">
<title>Node9</title>
<g id="a_Node000009"><a xlink:href="../../df/d02/classUBoundingBoxCalculator.html#acee57735172616e5908916e178b16b7f" target="_top" xlink:title=" ">
<polygon fill="white" stroke="#666666" points="1287.62,-129 1142.62,-129 1142.62,-97 1287.62,-97 1287.62,-129"/>
<text text-anchor="start" x="1150.62" y="-115.5" font-family="Helvetica,sans-Serif" font-size="10.00">UBoundingBoxCalculator</text>
<text text-anchor="middle" x="1215.12" y="-103.5" font-family="Helvetica,sans-Serif" font-size="10.00">::GetStaticMeshBoundingBox</text>
</a>
</g>
</g>
<!-- Node8&#45;&gt;Node9 -->
<g id="edge9_Node000008_Node000009" class="edge">
<title>Node8&#45;&gt;Node9</title>
<g id="a_edge9_Node000008_Node000009"><a xlink:title=" ">
<path fill="none" stroke="#63b8ff" d="M1061.27,-79.47C1083.25,-84.29 1108.4,-89.81 1131.86,-94.95"/>
<polygon fill="#63b8ff" stroke="#63b8ff" points="1130.98,-98.56 1141.5,-97.29 1132.48,-91.73 1130.98,-98.56"/>
</a>
</g>
</g>
<!-- Node10 -->
<g id="Node000010" class="node">
<title>Node10</title>
<g id="a_Node000010"><a xlink:href="../../d0/d6a/ActorDispatcher_8cpp.html#a69d0a7232310b5ebaa51abb2b9945184" target="_top" xlink:title=" ">
<polygon fill="white" stroke="#666666" points="1396.25,-352 1341.25,-352 1341.25,-332 1396.25,-332 1396.25,-352"/>
<text text-anchor="middle" x="1368.75" y="-338.5" font-family="Helvetica,sans-Serif" font-size="10.00">UE_LOG</text>
</a>
</g>
</g>
<!-- Node8&#45;&gt;Node10 -->
<g id="edge10_Node000008_Node000010" class="edge">
<title>Node8&#45;&gt;Node10</title>
<g id="a_edge10_Node000008_Node000010"><a xlink:title=" ">
<path fill="none" stroke="#63b8ff" d="M1061.25,-51.21C1129.1,-38.77 1237.7,-31.02 1305.25,-88 1341.15,-118.28 1359.84,-265.47 1365.69,-320.86"/>
<polygon fill="#63b8ff" stroke="#63b8ff" points="1362.31,-321.17 1366.8,-330.76 1369.27,-320.46 1362.31,-321.17"/>
</a>
</g>
</g>
<!-- Node13 -->
<g id="Node000013" class="node">
<title>Node13</title>
<g id="a_Node000013"><a xlink:href="../../df/d02/classUBoundingBoxCalculator.html#a26b06d84b8d5990869150aaabc633072" target="_top" xlink:title=" ">
<polygon fill="white" stroke="#666666" points="1089,-408 908.75,-408 908.75,-376 1089,-376 1089,-408"/>
<text text-anchor="start" x="916.75" y="-394.5" font-family="Helvetica,sans-Serif" font-size="10.00">UBoundingBoxCalculator</text>
<text text-anchor="middle" x="998.88" y="-382.5" font-family="Helvetica,sans-Serif" font-size="10.00">::GetBBsOfSkeletalMeshComponents</text>
</a>
</g>
</g>
<!-- Node12&#45;&gt;Node13 -->
<g id="edge13_Node000012_Node000013" class="edge">
<title>Node12&#45;&gt;Node13</title>
<g id="a_edge13_Node000012_Node000013"><a xlink:title=" ">
<path fill="none" stroke="#63b8ff" d="M475.98,-338.56C577.75,-348.98 777.05,-369.39 897.76,-381.75"/>
<polygon fill="#63b8ff" stroke="#63b8ff" points="897.17,-385.31 907.47,-382.85 897.88,-378.35 897.17,-385.31"/>
</a>
</g>
</g>
<!-- Node13&#45;&gt;Node5 -->
<g id="edge14_Node000013_Node000005" class="edge">
<title>Node13&#45;&gt;Node5</title>
<g id="a_edge14_Node000013_Node000005"><a xlink:title=" ">
<path fill="none" stroke="#63b8ff" d="M1077.41,-375.68C1081.58,-373.18 1085.49,-370.31 1089,-367 1124.6,-333.46 1095.02,-301.65 1125,-263 1139.56,-244.23 1161.84,-229.48 1180.48,-219.42"/>
<polygon fill="#63b8ff" stroke="#63b8ff" points="1181.82,-222.15 1189.11,-214.46 1178.62,-215.93 1181.82,-222.15"/>
</a>
</g>
</g>
<!-- Node13&#45;&gt;Node10 -->
<g id="edge18_Node000013_Node000010" class="edge">
<title>Node13&#45;&gt;Node10</title>
<g id="a_edge18_Node000013_Node000010"><a xlink:title=" ">
<path fill="none" stroke="#63b8ff" d="M1089.2,-405.54C1151.43,-411.54 1235.47,-412.69 1305.25,-389 1322.63,-383.1 1339.08,-370.32 1350.74,-359.58"/>
<polygon fill="#63b8ff" stroke="#63b8ff" points="1352.57,-362.71 1357.33,-353.24 1347.71,-357.68 1352.57,-362.71"/>
</a>
</g>
</g>
<!-- Node13&#45;&gt;Node11 -->
<g id="edge17_Node000013_Node000011" class="edge">
<title>Node13&#45;&gt;Node11</title>
<g id="a_edge17_Node000013_Node000011"><a xlink:title=" ">
<path fill="none" stroke="#63b8ff" d="M1069.02,-375.51C1075.91,-373.01 1082.69,-370.19 1089,-367 1107.1,-357.87 1108.44,-350.7 1125,-339 1145.51,-324.51 1169.52,-309.25 1187.45,-298.16"/>
<polygon fill="#63b8ff" stroke="#63b8ff" points="1189.04,-300.68 1195.73,-292.47 1185.38,-294.72 1189.04,-300.68"/>
</a>
</g>
</g>
<!-- Node14 -->
<g id="Node000014" class="node">
<title>Node14</title>
<g id="a_Node000014"><a xlink:href="../../df/d02/classUBoundingBoxCalculator.html#ac9bad7655f552b0f47ee7a59237fcf8a" target="_top" xlink:title=" ">
<polygon fill="white" stroke="#666666" points="1292.5,-380 1137.75,-380 1137.75,-348 1292.5,-348 1292.5,-380"/>
<text text-anchor="start" x="1145.75" y="-366.5" font-family="Helvetica,sans-Serif" font-size="10.00">UBoundingBoxCalculator</text>
<text text-anchor="middle" x="1215.12" y="-354.5" font-family="Helvetica,sans-Serif" font-size="10.00">::GetSkeletalMeshBoundingBox</text>
</a>
</g>
</g>
<!-- Node13&#45;&gt;Node14 -->
<g id="edge15_Node000013_Node000014" class="edge">
<title>Node13&#45;&gt;Node14</title>
<g id="a_edge15_Node000013_Node000014"><a xlink:title=" ">
<path fill="none" stroke="#63b8ff" d="M1089.49,-380.29C1101.82,-378.68 1114.47,-377.02 1126.75,-375.42"/>
<polygon fill="#63b8ff" stroke="#63b8ff" points="1126.98,-378.79 1136.44,-374.02 1126.07,-371.85 1126.98,-378.79"/>
</a>
</g>
</g>
<!-- Node14&#45;&gt;Node10 -->
<g id="edge16_Node000014_Node000010" class="edge">
<title>Node14&#45;&gt;Node10</title>
<g id="a_edge16_Node000014_Node000010"><a xlink:title=" ">
<path fill="none" stroke="#63b8ff" d="M1292.83,-352.87C1305.83,-350.98 1318.79,-349.1 1330.2,-347.45"/>
<polygon fill="#63b8ff" stroke="#63b8ff" points="1330.62,-350.78 1340.02,-345.88 1329.62,-343.85 1330.62,-350.78"/>
</a>
</g>
</g>
<!-- Node16 -->
<g id="Node000016" class="node">
<title>Node16</title>
<g id="a_Node000016"><a xlink:href="../../df/d02/classUBoundingBoxCalculator.html#ae6652aae39124e629b2cab14760fa027" target="_top" xlink:title=" ">
<polygon fill="white" stroke="#666666" points="1084.12,-132 913.62,-132 913.62,-100 1084.12,-100 1084.12,-132"/>
<text text-anchor="start" x="921.62" y="-118.5" font-family="Helvetica,sans-Serif" font-size="10.00">UBoundingBoxCalculator</text>
<text text-anchor="middle" x="998.88" y="-106.5" font-family="Helvetica,sans-Serif" font-size="10.00">::GetBBsOfStaticMeshComponents</text>
</a>
</g>
</g>
<!-- Node15&#45;&gt;Node16 -->
<g id="edge20_Node000015_Node000016" class="edge">
<title>Node15&#45;&gt;Node16</title>
<g id="a_edge20_Node000015_Node000016"><a xlink:title=" ">
<path fill="none" stroke="#63b8ff" d="M475.63,-150.99C564.57,-145.36 730.96,-134.71 872.75,-125 882.4,-124.34 892.48,-123.64 902.53,-122.93"/>
<polygon fill="#63b8ff" stroke="#63b8ff" points="902.68,-126.35 912.41,-122.15 902.19,-119.37 902.68,-126.35"/>
</a>
</g>
</g>
<!-- Node16&#45;&gt;Node5 -->
<g id="edge21_Node000016_Node000005" class="edge">
<title>Node16&#45;&gt;Node5</title>
<g id="a_edge21_Node000016_Node000005"><a xlink:title=" ">
<path fill="none" stroke="#63b8ff" d="M1051.59,-132.34C1063.95,-136.54 1077.02,-141.22 1089,-146 1122.04,-159.17 1158.86,-176.58 1183.95,-188.88"/>
<polygon fill="#63b8ff" stroke="#63b8ff" points="1182.1,-192.36 1192.62,-193.65 1185.2,-186.09 1182.1,-192.36"/>
</a>
</g>
</g>
<!-- Node16&#45;&gt;Node9 -->
<g id="edge22_Node000016_Node000009" class="edge">
<title>Node16&#45;&gt;Node9</title>
<g id="a_edge22_Node000016_Node000009"><a xlink:title=" ">
<path fill="none" stroke="#63b8ff" d="M1084.55,-114.81C1099.89,-114.6 1115.88,-114.38 1131.17,-114.16"/>
<polygon fill="#63b8ff" stroke="#63b8ff" points="1131.21,-117.65 1141.16,-114.01 1131.12,-110.65 1131.21,-117.65"/>
</a>
</g>
</g>
<!-- Node16&#45;&gt;Node11 -->
<g id="edge23_Node000016_Node000011" class="edge">
<title>Node16&#45;&gt;Node11</title>
<g id="a_edge23_Node000016_Node000011"><a xlink:title=" ">
<path fill="none" stroke="#63b8ff" d="M1068.3,-132.45C1075.8,-136.1 1082.91,-140.56 1089,-146 1117.17,-171.17 1100.33,-194.39 1125,-223 1140.82,-241.34 1163.68,-256.32 1182.29,-266.59"/>
<polygon fill="#63b8ff" stroke="#63b8ff" points="1180.37,-270.07 1190.84,-271.67 1183.65,-263.89 1180.37,-270.07"/>
</a>
</g>
</g>
<!-- Node18 -->
<g id="Node000018" class="node">
<title>Node18</title>
<g id="a_Node000018"><a xlink:href="../../df/d02/classUBoundingBoxCalculator.html#af8d4b9688261756447ce09390064d3c2" target="_top" xlink:title=" ">
<polygon fill="white" stroke="#666666" points="707.5,-123 511.5,-123 511.5,-91 707.5,-91 707.5,-123"/>
<text text-anchor="start" x="519.5" y="-109.5" font-family="Helvetica,sans-Serif" font-size="10.00">UBoundingBoxCalculator</text>
<text text-anchor="middle" x="609.5" y="-97.5" font-family="Helvetica,sans-Serif" font-size="10.00">::GetMeshCompsFromActorBoundingBox</text>
</a>
</g>
</g>
<!-- Node17&#45;&gt;Node18 -->
<g id="edge25_Node000017_Node000018" class="edge">
<title>Node17&#45;&gt;Node18</title>
<g id="a_edge25_Node000017_Node000018"><a xlink:title=" ">
<path fill="none" stroke="#63b8ff" d="M475.99,-92.17C483.94,-93.06 492.24,-93.99 500.64,-94.93"/>
<polygon fill="#63b8ff" stroke="#63b8ff" points="499.97,-98.49 510.3,-96.12 500.75,-91.53 499.97,-98.49"/>
</a>
</g>
</g>
<!-- Node19 -->
<g id="Node000019" class="node">
<title>Node19</title>
<g id="a_Node000019"><a xlink:href="../../da/d86/classATagger.html#a2b8ab63680928bbd944deecb7e87ec23" target="_top" xlink:title="检索已标记的角色的标记。CityObjectLabel：：None 为 未添加到数组中。">
<polygon fill="white" stroke="#666666" points="673,-73 546,-73 546,-53 673,-53 673,-73"/>
<text text-anchor="middle" x="609.5" y="-59.5" font-family="Helvetica,sans-Serif" font-size="10.00">ATagger::GetTagAsString</text>
</a>
</g>
</g>
<!-- Node17&#45;&gt;Node19 -->
<g id="edge27_Node000017_Node000019" class="edge">
<title>Node17&#45;&gt;Node19</title>
<g id="a_edge27_Node000017_Node000019"><a xlink:title=" ">
<path fill="none" stroke="#63b8ff" d="M475.99,-77.83C494.81,-75.72 515.54,-73.4 534.91,-71.23"/>
<polygon fill="#63b8ff" stroke="#63b8ff" points="535.27,-74.6 544.82,-70.01 534.49,-67.65 535.27,-74.6"/>
</a>
</g>
</g>
<!-- Node20 -->
<g id="Node000020" class="node">
<title>Node20</title>
<g id="a_Node000020"><a xlink:href="../../df/d02/classUBoundingBoxCalculator.html#ad731c0c97029d59cb5b763077a7c18ec" target="_top" xlink:title=" ">
<polygon fill="white" stroke="#666666" points="680.5,-35 538.5,-35 538.5,-3 680.5,-3 680.5,-35"/>
<text text-anchor="start" x="546.5" y="-21.5" font-family="Helvetica,sans-Serif" font-size="10.00">UBoundingBoxCalculator</text>
<text text-anchor="middle" x="609.5" y="-9.5" font-family="Helvetica,sans-Serif" font-size="10.00">::GetTrafficLightBoundingBox</text>
</a>
</g>
</g>
<!-- Node17&#45;&gt;Node20 -->
<g id="edge28_Node000017_Node000020" class="edge">
<title>Node17&#45;&gt;Node20</title>
<g id="a_edge28_Node000017_Node000020"><a xlink:title=" ">
<path fill="none" stroke="#63b8ff" d="M448.32,-68.58C466.98,-60.54 490.2,-51.09 511.5,-44 517.31,-42.06 523.36,-40.19 529.48,-38.39"/>
<polygon fill="#63b8ff" stroke="#63b8ff" points="530.14,-41.56 538.79,-35.45 528.22,-34.83 530.14,-41.56"/>
</a>
</g>
</g>
<!-- Node18&#45;&gt;Node16 -->
<g id="edge26_Node000018_Node000016" class="edge">
<title>Node18&#45;&gt;Node16</title>
<g id="a_edge26_Node000018_Node000016"><a xlink:title=" ">
<path fill="none" stroke="#63b8ff" d="M707.75,-109.26C767.35,-110.64 843.32,-112.41 902.56,-113.79"/>
<polygon fill="#63b8ff" stroke="#63b8ff" points="902.34,-117.3 912.42,-114.04 902.5,-110.31 902.34,-117.3"/>
</a>
</g>
</g>
<!-- Node21 -->
<g id="Node000021" class="node">
<title>Node21</title>
<g id="a_Node000021"><a xlink:href="../../df/d02/classUBoundingBoxCalculator.html#af2813a65238c05c9f421c93839766edb" target="_top" xlink:title=" ">
<polygon fill="white" stroke="#666666" points="870.12,-35 746.12,-35 746.12,-3 870.12,-3 870.12,-35"/>
<text text-anchor="start" x="754.12" y="-21.5" font-family="Helvetica,sans-Serif" font-size="10.00">UBoundingBoxCalculator</text>
<text text-anchor="middle" x="808.12" y="-9.5" font-family="Helvetica,sans-Serif" font-size="10.00">::CombineBBsOfActor</text>
</a>
</g>
</g>
<!-- Node20&#45;&gt;Node21 -->
<g id="edge29_Node000020_Node000021" class="edge">
<title>Node20&#45;&gt;Node21</title>
<g id="a_edge29_Node000020_Node000021"><a xlink:title=" ">
<path fill="none" stroke="#63b8ff" d="M680.93,-19C698.45,-19 717.26,-19 734.87,-19"/>
<polygon fill="#63b8ff" stroke="#63b8ff" points="734.65,-22.5 744.65,-19 734.65,-15.5 734.65,-22.5"/>
</a>
</g>
</g>
<!-- Node21&#45;&gt;Node16 -->
<g id="edge32_Node000021_Node000016" class="edge">
<title>Node21&#45;&gt;Node16</title>
<g id="a_edge32_Node000021_Node000016"><a xlink:title=" ">
<path fill="none" stroke="#63b8ff" d="M827.32,-35.22C846.38,-51.44 877.81,-76.07 908.75,-91 912.29,-92.71 915.96,-94.32 919.71,-95.83"/>
<polygon fill="#63b8ff" stroke="#63b8ff" points="918.2,-99.37 928.79,-99.62 920.66,-92.82 918.2,-99.37"/>
</a>
</g>
</g>
<!-- Node22 -->
<g id="Node000022" class="node">
<title>Node22</title>
<g id="a_Node000022"><a xlink:href="../../df/d02/classUBoundingBoxCalculator.html#adc638d4ad146b80666f002e31fb67dca" target="_top" xlink:title=" ">
<polygon fill="white" stroke="#666666" points="1060.88,-32 936.88,-32 936.88,0 1060.88,0 1060.88,-32"/>
<text text-anchor="start" x="944.88" y="-18.5" font-family="Helvetica,sans-Serif" font-size="10.00">UBoundingBoxCalculator</text>
<text text-anchor="middle" x="998.88" y="-6.5" font-family="Helvetica,sans-Serif" font-size="10.00">::CombineBBs</text>
</a>
</g>
</g>
<!-- Node21&#45;&gt;Node22 -->
<g id="edge30_Node000021_Node000022" class="edge">
<title>Node21&#45;&gt;Node22</title>
<g id="a_edge30_Node000021_Node000022"><a xlink:title=" ">
<path fill="none" stroke="#63b8ff" d="M870.41,-18.03C888.05,-17.75 907.46,-17.44 925.7,-17.15"/>
<polygon fill="#63b8ff" stroke="#63b8ff" points="925.63,-20.63 935.58,-16.97 925.52,-13.63 925.63,-20.63"/>
</a>
</g>
</g>
<!-- Node23 -->
<g id="Node000023" class="node">
<title>Node23</title>
<g id="a_Node000023"><a xlink:href="../../dd/dd8/BoundingBoxCalculator_8cpp.html#add48caf167e197fab6a9c2228ad1c024" target="_top" xlink:title=" ">
<polygon fill="white" stroke="#666666" points="1293.25,-26 1137,-26 1137,-6 1293.25,-6 1293.25,-26"/>
<text text-anchor="middle" x="1215.12" y="-12.5" font-family="Helvetica,sans-Serif" font-size="10.00">CombineBoundingBoxesGeneric</text>
</a>
</g>
</g>
<!-- Node22&#45;&gt;Node23 -->
<g id="edge31_Node000022_Node000023" class="edge">
<title>Node22&#45;&gt;Node23</title>
<g id="a_edge31_Node000022_Node000023"><a xlink:title=" ">
<path fill="none" stroke="#63b8ff" d="M1061.27,-16C1081.37,-16 1104.11,-16 1125.79,-16"/>
<polygon fill="#63b8ff" stroke="#63b8ff" points="1125.67,-19.5 1135.67,-16 1125.67,-12.5 1125.67,-19.5"/>
</a>
</g>
</g>
<!-- Node24&#45;&gt;Node6 -->
<g id="edge40_Node000024_Node000006" class="edge">
<title>Node24&#45;&gt;Node6</title>
<g id="a_edge40_Node000024_Node000006"><a xlink:title=" ">
<path fill="none" stroke="#63b8ff" d="M873.03,-281.78C889.32,-278.15 906.98,-274.23 923.74,-270.5"/>
<polygon fill="#63b8ff" stroke="#63b8ff" points="924.04,-273.79 933.04,-268.2 922.52,-266.96 924.04,-273.79"/>
</a>
</g>
</g>
<!-- Node24&#45;&gt;Node11 -->
<g id="edge34_Node000024_Node000011" class="edge">
<title>Node24&#45;&gt;Node11</title>
<g id="a_edge34_Node000024_Node000011"><a xlink:title=" ">
<path fill="none" stroke="#63b8ff" d="M872.85,-293.8C937.5,-291.56 1038.52,-288.07 1113.89,-285.46"/>
<polygon fill="#63b8ff" stroke="#63b8ff" points="1113.95,-288.93 1123.82,-285.09 1113.71,-281.93 1113.95,-288.93"/>
</a>
</g>
</g>
<!-- Node25 -->
<g id="Node000025" class="node">
<title>Node25</title>
<g id="a_Node000025"><a xlink:href="../../df/d02/classUBoundingBoxCalculator.html#af1eef05f52ea2eea5fb35d30e4034b61" target="_top" xlink:title=" ">
<polygon fill="white" stroke="#666666" points="1062.75,-358 935,-358 935,-326 1062.75,-326 1062.75,-358"/>
<text text-anchor="start" x="943" y="-344.5" font-family="Helvetica,sans-Serif" font-size="10.00">UBoundingBoxCalculator</text>
<text text-anchor="middle" x="998.88" y="-332.5" font-family="Helvetica,sans-Serif" font-size="10.00">::GetVehicleBoundingBox</text>
</a>
</g>
</g>
<!-- Node24&#45;&gt;Node25 -->
<g id="edge35_Node000024_Node000025" class="edge">
<title>Node24&#45;&gt;Node25</title>
<g id="a_edge35_Node000024_Node000025"><a xlink:title=" ">
<path fill="none" stroke="#63b8ff" d="M873.03,-311.57C889.5,-315.59 907.36,-319.94 924.28,-324.07"/>
<polygon fill="#63b8ff" stroke="#63b8ff" points="923.14,-327.63 933.68,-326.6 924.79,-320.83 923.14,-327.63"/>
</a>
</g>
</g>
<!-- Node25&#45;&gt;Node5 -->
<g id="edge36_Node000025_Node000005" class="edge">
<title>Node25&#45;&gt;Node5</title>
<g id="a_edge36_Node000025_Node000005"><a xlink:title=" ">
<path fill="none" stroke="#63b8ff" d="M1025.29,-325.63C1066.55,-299.06 1147.6,-246.85 1188.79,-220.32"/>
<polygon fill="#63b8ff" stroke="#63b8ff" points="1190.38,-222.81 1196.89,-214.46 1186.59,-216.93 1190.38,-222.81"/>
</a>
</g>
</g>
<!-- Node25&#45;&gt;Node10 -->
<g id="edge39_Node000025_Node000010" class="edge">
<title>Node25&#45;&gt;Node10</title>
<g id="a_edge39_Node000025_Node000010"><a xlink:title=" ">
<path fill="none" stroke="#63b8ff" d="M1063.05,-340.13C1124.81,-338.6 1221.5,-336.99 1305.25,-339 1313.31,-339.19 1321.96,-339.53 1330.17,-339.9"/>
<polygon fill="#63b8ff" stroke="#63b8ff" points="1329.84,-343.44 1340,-340.43 1330.18,-336.45 1329.84,-343.44"/>
</a>
</g>
</g>
<!-- Node25&#45;&gt;Node11 -->
<g id="edge38_Node000025_Node000011" class="edge">
<title>Node25&#45;&gt;Node11</title>
<g id="a_edge38_Node000025_Node000011"><a xlink:title=" ">
<path fill="none" stroke="#63b8ff" d="M1056.19,-325.58C1077.7,-319.36 1102.46,-312.28 1125,-306 1137.66,-302.47 1151.36,-298.74 1164.13,-295.3"/>
<polygon fill="#63b8ff" stroke="#63b8ff" points="1164.85,-298.46 1173.6,-292.49 1163.03,-291.7 1164.85,-298.46"/>
</a>
</g>
</g>
<!-- Node25&#45;&gt;Node14 -->
<g id="edge37_Node000025_Node000014" class="edge">
<title>Node25&#45;&gt;Node14</title>
<g id="a_edge37_Node000025_Node000014"><a xlink:title=" ">
<path fill="none" stroke="#63b8ff" d="M1063,-348.48C1082.96,-350.53 1105.38,-352.83 1126.72,-355.03"/>
<polygon fill="#63b8ff" stroke="#63b8ff" points="1126.12,-358.58 1136.43,-356.12 1126.84,-351.62 1126.12,-358.58"/>
</a>
</g>
</g>
</g>
</svg>
