<?xml version="1.0" encoding="UTF-8" standalone="no"?>
<!DOCTYPE svg PUBLIC "-//W3C//DTD SVG 1.1//EN"
 "http://www.w3.org/Graphics/SVG/1.1/DTD/svg11.dtd">
<!-- Generated by graphviz version 8.1.0 (20230707.0739)
 -->
<!-- Title: ACarlaGameModeBase::OnLoadStreamLevel Pages: 1 -->
<!--zoomable 632 -->

<svg id="main" version="1.1" xmlns="http://www.w3.org/2000/svg" xmlns:xlink="http://www.w3.org/1999/xlink" xml:space="preserve" onload="init(evt)">
<style type="text/css"><![CDATA[
.node, .edge {opacity: 0.7;}
.node.selected, .edge.selected {opacity: 1;}
.edge:hover path { stroke: red; }
.edge:hover polygon { stroke: red; fill: red; }
]]></style>

<defs>
  <circle id="rim" cx="0" cy="0" r="7"/>
  <circle id="rim2" cx="0" cy="0" r="3.5"/>
  <g id="zoomPlus">
    <use xlink:href="#rim" fill="#404040"><set attributeName="fill" to="#808080" begin="zoomplus.mouseover" end="zoomplus.mouseout"/></use>
    <path d="M-4,0h8M0,-4v8" fill="none" stroke="white" stroke-width="1.5" pointer-events="none"/>
  </g>
  <g id="zoomMin">
    <use xlink:href="#rim" fill="#404040"><set attributeName="fill" to="#808080" begin="zoomminus.mouseover" end="zoomminus.mouseout"/></use>
    <path d="M-4,0h8" fill="none" stroke="white" stroke-width="1.5" pointer-events="none"/>
  </g>
  <g id="arrowUp" transform="translate(30 24)">
    <use xlink:href="#rim"/>
    <path pointer-events="none" fill="none" stroke="white" stroke-width="1.5" d="M0,-3.0v7 M-2.5,-0.5L0,-3.0L2.5,-0.5"/>
  </g>
  <g id="arrowRight" transform="rotate(90) translate(36 -43)">
    <use xlink:href="#rim"/>
    <path pointer-events="none" fill="none" stroke="white" stroke-width="1.5" d="M0,-3.0v7 M-2.5,-0.5L0,-3.0L2.5,-0.5"/>
  </g>
  <g id="arrowDown" transform="rotate(180) translate(-30 -48)">
    <use xlink:href="#rim"/>
    <path pointer-events="none" fill="none" stroke="white" stroke-width="1.5" d="M0,-3.0v7 M-2.5,-0.5L0,-3.0L2.5,-0.5"/>
  </g>
  <g id="arrowLeft" transform="rotate(270) translate(-36 17)">
    <use xlink:href="#rim"/>
    <path pointer-events="none" fill="none" stroke="white" stroke-width="1.5" d="M0,-3.0v7 M-2.5,-0.5L0,-3.0L2.5,-0.5"/>
  </g>
  <g id="resetDef">
    <use xlink:href="#rim2" fill="#404040"><set attributeName="fill" to="#808080" begin="reset.mouseover" end="reset.mouseout"/></use>
  </g>
</defs>
<script type="application/ecmascript">
var viewWidth = 1558;
var viewHeight = 632;
var sectionId = 'dynsection-37';
</script>
<script type="application/ecmascript" xlink:href="../../svg.min.js"/>
<svg id="graph" class="graph">
<g id="viewport">
<title>ACarlaGameModeBase::OnLoadStreamLevel</title>
<!-- Node1 -->
<g id="Node000001" class="node">
<title>Node1</title>
<g id="a_Node000001"><a xlink:title=" ">
<polygon fill="#999999" stroke="#666666" points="118,-327 0,-327 0,-295 118,-295 118,-327"/>
<text text-anchor="start" x="8" y="-313.5" font-family="Helvetica,sans-Serif" font-size="10.00">ACarlaGameModeBase</text>
<text text-anchor="middle" x="59" y="-301.5" font-family="Helvetica,sans-Serif" font-size="10.00">::OnLoadStreamLevel</text>
</a>
</g>
</g>
<!-- Node2 -->
<g id="Node000002" class="node">
<title>Node2</title>
<g id="a_Node000002"><a xlink:href="../../db/de5/classACarlaGameModeBase.html#a093ea406d6426ce31c75cda5248362fd" target="_top" xlink:title=" ">
<polygon fill="white" stroke="#666666" points="299,-407 154,-407 154,-375 299,-375 299,-407"/>
<text text-anchor="start" x="162" y="-393.5" font-family="Helvetica,sans-Serif" font-size="10.00">ACarlaGameModeBase</text>
<text text-anchor="middle" x="226.5" y="-381.5" font-family="Helvetica,sans-Serif" font-size="10.00">::RegisterEnvironmentObjects</text>
</a>
</g>
</g>
<!-- Node1&#45;&gt;Node2 -->
<g id="edge1_Node000001_Node000002" class="edge">
<title>Node1&#45;&gt;Node2</title>
<g id="a_edge1_Node000001_Node000002"><a xlink:title=" ">
<path fill="none" stroke="#63b8ff" d="M93.89,-327.38C119.24,-339.64 154.13,-356.5 181.61,-369.78"/>
<polygon fill="#63b8ff" stroke="#63b8ff" points="179.84,-373.3 190.37,-374.5 182.89,-367 179.84,-373.3"/>
</a>
</g>
</g>
<!-- Node27 -->
<g id="Node000027" class="node">
<title>Node27</title>
<g id="a_Node000027"><a xlink:href="../../da/d86/classATagger.html#ad1bff091221672f7af2ba6c02fb99f75" target="_top" xlink:title="设置 level 中每个 actor 的标签。">
<polygon fill="white" stroke="#666666" points="292.25,-299 160.75,-299 160.75,-279 292.25,-279 292.25,-299"/>
<text text-anchor="middle" x="226.5" y="-285.5" font-family="Helvetica,sans-Serif" font-size="10.00">ATagger::TagActorsInLevel</text>
</a>
</g>
</g>
<!-- Node1&#45;&gt;Node27 -->
<g id="edge42_Node000001_Node000027" class="edge">
<title>Node1&#45;&gt;Node27</title>
<g id="a_edge42_Node000001_Node000027"><a xlink:title=" ">
<path fill="none" stroke="#63b8ff" d="M118.35,-303.24C128.43,-301.9 139.05,-300.49 149.52,-299.1"/>
<polygon fill="#63b8ff" stroke="#63b8ff" points="149.9,-302.45 159.35,-297.66 148.97,-295.51 149.9,-302.45"/>
</a>
</g>
</g>
<!-- Node3 -->
<g id="Node000003" class="node">
<title>Node3</title>
<g id="a_Node000003"><a xlink:href="../../d2/d5b/classUObjectRegister.html#a8e77baf3dffa6dc5919a2ee4d8c9a965" target="_top" xlink:title=" ">
<polygon fill="white" stroke="#666666" points="464.25,-436 335,-436 335,-404 464.25,-404 464.25,-436"/>
<text text-anchor="start" x="343" y="-422.5" font-family="Helvetica,sans-Serif" font-size="10.00">UObjectRegister::Register</text>
<text text-anchor="middle" x="399.62" y="-410.5" font-family="Helvetica,sans-Serif" font-size="10.00">Objects</text>
</a>
</g>
</g>
<!-- Node2&#45;&gt;Node3 -->
<g id="edge2_Node000002_Node000003" class="edge">
<title>Node2&#45;&gt;Node3</title>
<g id="a_edge2_Node000002_Node000003"><a xlink:title=" ">
<path fill="none" stroke="#63b8ff" d="M299.08,-403.13C307.3,-404.52 315.69,-405.94 323.94,-407.34"/>
<polygon fill="#63b8ff" stroke="#63b8ff" points="323.24,-410.94 333.69,-409.16 324.41,-404.04 323.24,-410.94"/>
</a>
</g>
</g>
<!-- Node4 -->
<g id="Node000004" class="node">
<title>Node4</title>
<g id="a_Node000004"><a xlink:href="../../d2/d5b/classUObjectRegister.html#ab8704b164ab785b6ad2b1d0dcab44223" target="_top" xlink:title=" ">
<polygon fill="white" stroke="#666666" points="1026.75,-524 897.5,-524 897.5,-492 1026.75,-492 1026.75,-524"/>
<text text-anchor="start" x="905.5" y="-510.5" font-family="Helvetica,sans-Serif" font-size="10.00">UObjectRegister::Register</text>
<text text-anchor="middle" x="962.12" y="-498.5" font-family="Helvetica,sans-Serif" font-size="10.00">Character</text>
</a>
</g>
</g>
<!-- Node3&#45;&gt;Node4 -->
<g id="edge3_Node000003_Node000004" class="edge">
<title>Node3&#45;&gt;Node4</title>
<g id="a_edge3_Node000003_Node000004"><a xlink:title=" ">
<path fill="none" stroke="#63b8ff" d="M417.64,-436.39C436.24,-453.11 467.73,-478.1 500.25,-489 630.62,-532.71 793.43,-526.33 886.52,-517.39"/>
<polygon fill="#63b8ff" stroke="#63b8ff" points="886.64,-520.8 896.25,-516.32 885.95,-513.83 886.64,-520.8"/>
</a>
</g>
</g>
<!-- Node8 -->
<g id="Node000008" class="node">
<title>Node8</title>
<g id="a_Node000008"><a xlink:href="../../d2/d5b/classUObjectRegister.html#aef70e7b2f497e5be2a2ea4051ca3cdab" target="_top" xlink:title=" ">
<polygon fill="white" stroke="#666666" points="1026.75,-436 897.5,-436 897.5,-404 1026.75,-404 1026.75,-436"/>
<text text-anchor="start" x="905.5" y="-422.5" font-family="Helvetica,sans-Serif" font-size="10.00">UObjectRegister::Register</text>
<text text-anchor="middle" x="962.12" y="-410.5" font-family="Helvetica,sans-Serif" font-size="10.00">ISMComponents</text>
</a>
</g>
</g>
<!-- Node3&#45;&gt;Node8 -->
<g id="edge7_Node000003_Node000008" class="edge">
<title>Node3&#45;&gt;Node8</title>
<g id="a_edge7_Node000003_Node000008"><a xlink:title=" ">
<path fill="none" stroke="#63b8ff" d="M464.65,-420C569.03,-420 775.35,-420 886.31,-420"/>
<polygon fill="#63b8ff" stroke="#63b8ff" points="886.08,-423.5 896.08,-420 886.08,-416.5 886.08,-423.5"/>
</a>
</g>
</g>
<!-- Node13 -->
<g id="Node000013" class="node">
<title>Node13</title>
<g id="a_Node000013"><a xlink:href="../../d2/d5b/classUObjectRegister.html#a91639ab20ae6a79cae508fac6774d7f8" target="_top" xlink:title=" ">
<polygon fill="white" stroke="#666666" points="629.5,-480 500.25,-480 500.25,-448 629.5,-448 629.5,-480"/>
<text text-anchor="start" x="508.25" y="-466.5" font-family="Helvetica,sans-Serif" font-size="10.00">UObjectRegister::Register</text>
<text text-anchor="middle" x="564.88" y="-454.5" font-family="Helvetica,sans-Serif" font-size="10.00">SKMComponents</text>
</a>
</g>
</g>
<!-- Node3&#45;&gt;Node13 -->
<g id="edge13_Node000003_Node000013" class="edge">
<title>Node3&#45;&gt;Node13</title>
<g id="a_edge13_Node000003_Node000013"><a xlink:title=" ">
<path fill="none" stroke="#63b8ff" d="M461.41,-436.38C471.44,-439.09 481.91,-441.91 492.17,-444.67"/>
<polygon fill="#63b8ff" stroke="#63b8ff" points="491.2,-448.31 501.76,-447.53 493.02,-441.55 491.2,-448.31"/>
</a>
</g>
</g>
<!-- Node16 -->
<g id="Node000016" class="node">
<title>Node16</title>
<g id="a_Node000016"><a xlink:href="../../d2/d5b/classUObjectRegister.html#a3170c79e4e27ef979a163a05a84bd278" target="_top" xlink:title=" ">
<polygon fill="white" stroke="#666666" points="629.5,-392 500.25,-392 500.25,-360 629.5,-360 629.5,-392"/>
<text text-anchor="start" x="508.25" y="-378.5" font-family="Helvetica,sans-Serif" font-size="10.00">UObjectRegister::Register</text>
<text text-anchor="middle" x="564.88" y="-366.5" font-family="Helvetica,sans-Serif" font-size="10.00">SMComponents</text>
</a>
</g>
</g>
<!-- Node3&#45;&gt;Node16 -->
<g id="edge20_Node000003_Node000016" class="edge">
<title>Node3&#45;&gt;Node16</title>
<g id="a_edge20_Node000003_Node000016"><a xlink:title=" ">
<path fill="none" stroke="#63b8ff" d="M461.41,-403.62C471.44,-400.91 481.91,-398.09 492.17,-395.33"/>
<polygon fill="#63b8ff" stroke="#63b8ff" points="493.02,-398.45 501.76,-392.47 491.2,-391.69 493.02,-398.45"/>
</a>
</g>
</g>
<!-- Node18 -->
<g id="Node000018" class="node">
<title>Node18</title>
<g id="a_Node000018"><a xlink:href="../../d2/d5b/classUObjectRegister.html#a8bc743b6be0375b789d1a04b3555d961" target="_top" xlink:title=" ">
<polygon fill="white" stroke="#666666" points="629.5,-320 500.25,-320 500.25,-288 629.5,-288 629.5,-320"/>
<text text-anchor="start" x="508.25" y="-306.5" font-family="Helvetica,sans-Serif" font-size="10.00">UObjectRegister::Register</text>
<text text-anchor="middle" x="564.88" y="-294.5" font-family="Helvetica,sans-Serif" font-size="10.00">TrafficLight</text>
</a>
</g>
</g>
<!-- Node3&#45;&gt;Node18 -->
<g id="edge25_Node000003_Node000018" class="edge">
<title>Node3&#45;&gt;Node18</title>
<g id="a_edge25_Node000003_Node000018"><a xlink:title=" ">
<path fill="none" stroke="#63b8ff" d="M423.67,-403.63C451.91,-383.56 499.91,-349.45 531.76,-326.82"/>
<polygon fill="#63b8ff" stroke="#63b8ff" points="533.56,-329.12 539.68,-320.48 529.51,-323.42 533.56,-329.12"/>
</a>
</g>
</g>
<!-- Node25 -->
<g id="Node000025" class="node">
<title>Node25</title>
<g id="a_Node000025"><a xlink:href="../../d2/d5b/classUObjectRegister.html#a03ae90f5d7245f380fda3e44d42870b7" target="_top" xlink:title=" ">
<polygon fill="white" stroke="#666666" points="1026.75,-577 897.5,-577 897.5,-545 1026.75,-545 1026.75,-577"/>
<text text-anchor="start" x="905.5" y="-563.5" font-family="Helvetica,sans-Serif" font-size="10.00">UObjectRegister::Register</text>
<text text-anchor="middle" x="962.12" y="-551.5" font-family="Helvetica,sans-Serif" font-size="10.00">Vehicle</text>
</a>
</g>
</g>
<!-- Node3&#45;&gt;Node25 -->
<g id="edge34_Node000003_Node000025" class="edge">
<title>Node3&#45;&gt;Node25</title>
<g id="a_edge34_Node000003_Node000025"><a xlink:title=" ">
<path fill="none" stroke="#63b8ff" d="M411.97,-436.23C428.52,-458.47 461.58,-497.76 500.25,-516 625.8,-575.21 791.65,-575.02 886.32,-568.62"/>
<polygon fill="#63b8ff" stroke="#63b8ff" points="886.5,-572.05 896.22,-567.84 886,-565.06 886.5,-572.05"/>
</a>
</g>
</g>
<!-- Node5 -->
<g id="Node000005" class="node">
<title>Node5</title>
<g id="a_Node000005"><a xlink:href="../../df/d02/classUBoundingBoxCalculator.html#a6f9f361b86200319b604a459008c48c0" target="_top" xlink:title=" ">
<polygon fill="white" stroke="#666666" points="1221.62,-436 1084.12,-436 1084.12,-404 1221.62,-404 1221.62,-436"/>
<text text-anchor="start" x="1092.12" y="-422.5" font-family="Helvetica,sans-Serif" font-size="10.00">UBoundingBoxCalculator</text>
<text text-anchor="middle" x="1152.88" y="-410.5" font-family="Helvetica,sans-Serif" font-size="10.00">::GetCharacterBoundingBox</text>
</a>
</g>
</g>
<!-- Node4&#45;&gt;Node5 -->
<g id="edge4_Node000004_Node000005" class="edge">
<title>Node4&#45;&gt;Node5</title>
<g id="a_edge4_Node000004_Node000005"><a xlink:title=" ">
<path fill="none" stroke="#63b8ff" d="M985.02,-491.52C1004.54,-477.48 1034.33,-457.65 1062.75,-445 1066.6,-443.28 1070.6,-441.66 1074.68,-440.12"/>
<polygon fill="#63b8ff" stroke="#63b8ff" points="1075.68,-443.13 1083.93,-436.48 1073.34,-436.53 1075.68,-443.13"/>
</a>
</g>
</g>
<!-- Node7 -->
<g id="Node000007" class="node">
<title>Node7</title>
<g id="a_Node000007"><a xlink:href="../../d2/d5b/classUObjectRegister.html#a8c7557f3311d68b4e010ff4463bdb713" target="_top" xlink:title=" ">
<polygon fill="white" stroke="#666666" points="1217.5,-536 1088.25,-536 1088.25,-504 1217.5,-504 1217.5,-536"/>
<text text-anchor="start" x="1096.25" y="-522.5" font-family="Helvetica,sans-Serif" font-size="10.00">UObjectRegister::Register</text>
<text text-anchor="middle" x="1152.88" y="-510.5" font-family="Helvetica,sans-Serif" font-size="10.00">EnvironmentObject</text>
</a>
</g>
</g>
<!-- Node4&#45;&gt;Node7 -->
<g id="edge6_Node000004_Node000007" class="edge">
<title>Node4&#45;&gt;Node7</title>
<g id="a_edge6_Node000004_Node000007"><a xlink:title=" ">
<path fill="none" stroke="#63b8ff" d="M1027.03,-512.06C1043.17,-513.09 1060.64,-514.2 1077.26,-515.26"/>
<polygon fill="#63b8ff" stroke="#63b8ff" points="1076.84,-518.8 1087.04,-515.94 1077.28,-511.81 1076.84,-518.8"/>
</a>
</g>
</g>
<!-- Node6 -->
<g id="Node000006" class="node">
<title>Node6</title>
<g id="a_Node000006"><a xlink:href="../../dd/dd8/BoundingBoxCalculator_8cpp.html#a724edcd3050f902e60a4c923013b7e4c" target="_top" xlink:title=" ">
<polygon fill="white" stroke="#666666" points="1422.88,-417 1315.38,-417 1315.38,-397 1422.88,-397 1422.88,-417"/>
<text text-anchor="middle" x="1369.12" y="-403.5" font-family="Helvetica,sans-Serif" font-size="10.00">ApplyTransformToBB</text>
</a>
</g>
</g>
<!-- Node5&#45;&gt;Node6 -->
<g id="edge5_Node000005_Node000006" class="edge">
<title>Node5&#45;&gt;Node6</title>
<g id="a_edge5_Node000005_Node000006"><a xlink:title=" ">
<path fill="none" stroke="#63b8ff" d="M1221.96,-415.87C1248.33,-414.27 1278.37,-412.45 1304.32,-410.87"/>
<polygon fill="#63b8ff" stroke="#63b8ff" points="1304.4,-414.31 1314.17,-410.21 1303.98,-407.33 1304.4,-414.31"/>
</a>
</g>
</g>
<!-- Node9 -->
<g id="Node000009" class="node">
<title>Node9</title>
<g id="a_Node000009"><a xlink:href="../../df/d02/classUBoundingBoxCalculator.html#aa5f1454b3356ef909e81b68ed5bdb2d5" target="_top" xlink:title=" ">
<polygon fill="white" stroke="#666666" points="1214.88,-298 1090.88,-298 1090.88,-266 1214.88,-266 1214.88,-298"/>
<text text-anchor="start" x="1098.88" y="-284.5" font-family="Helvetica,sans-Serif" font-size="10.00">UBoundingBoxCalculator</text>
<text text-anchor="middle" x="1152.88" y="-272.5" font-family="Helvetica,sans-Serif" font-size="10.00">::GetISMBoundingBox</text>
</a>
</g>
</g>
<!-- Node8&#45;&gt;Node9 -->
<g id="edge8_Node000008_Node000009" class="edge">
<title>Node8&#45;&gt;Node9</title>
<g id="a_edge8_Node000008_Node000009"><a xlink:title=" ">
<path fill="none" stroke="#63b8ff" d="M972.92,-403.89C988.73,-379.26 1022.22,-332.46 1062.75,-307 1068.29,-303.52 1074.32,-300.52 1080.54,-297.93"/>
<polygon fill="#63b8ff" stroke="#63b8ff" points="1081.32,-300.99 1089.44,-294.18 1078.85,-294.45 1081.32,-300.99"/>
</a>
</g>
</g>
<!-- Node12 -->
<g id="Node000012" class="node">
<title>Node12</title>
<g id="a_Node000012"><a xlink:href="../../da/d86/classATagger.html#a1fbf1e4054acac5814c5521796a410a2" target="_top" xlink:title="检索已标记组件的标记。">
<polygon fill="white" stroke="#666666" points="1459.25,-493 1279,-493 1279,-473 1459.25,-473 1459.25,-493"/>
<text text-anchor="middle" x="1369.12" y="-479.5" font-family="Helvetica,sans-Serif" font-size="10.00">ATagger::GetTagOfTaggedComponent</text>
</a>
</g>
</g>
<!-- Node8&#45;&gt;Node12 -->
<g id="edge12_Node000008_Node000012" class="edge">
<title>Node8&#45;&gt;Node12</title>
<g id="a_edge12_Node000008_Node000012"><a xlink:title=" ">
<path fill="none" stroke="#63b8ff" d="M1010.84,-403.51C1067.92,-386.51 1165.48,-366.22 1243,-395 1262.79,-402.35 1262.06,-413.39 1279,-426 1299.01,-440.9 1322.88,-456.04 1340.88,-466.96"/>
<polygon fill="#63b8ff" stroke="#63b8ff" points="1338.84,-470.42 1349.21,-472.57 1342.45,-464.42 1338.84,-470.42"/>
</a>
</g>
</g>
<!-- Node9&#45;&gt;Node6 -->
<g id="edge9_Node000009_Node000006" class="edge">
<title>Node9&#45;&gt;Node6</title>
<g id="a_edge9_Node000009_Node000006"><a xlink:title=" ">
<path fill="none" stroke="#63b8ff" d="M1215.17,-293.52C1224.96,-296.93 1234.62,-301.32 1243,-307 1264.79,-321.76 1259.34,-336.52 1279,-354 1296.06,-369.17 1318.09,-382.32 1335.98,-391.72"/>
<polygon fill="#63b8ff" stroke="#63b8ff" points="1334.2,-395.25 1344.7,-396.68 1337.38,-389.02 1334.2,-395.25"/>
</a>
</g>
</g>
<!-- Node10 -->
<g id="Node000010" class="node">
<title>Node10</title>
<g id="a_Node000010"><a xlink:href="../../df/d02/classUBoundingBoxCalculator.html#acee57735172616e5908916e178b16b7f" target="_top" xlink:title=" ">
<polygon fill="white" stroke="#666666" points="1441.62,-345 1296.62,-345 1296.62,-313 1441.62,-313 1441.62,-345"/>
<text text-anchor="start" x="1304.62" y="-331.5" font-family="Helvetica,sans-Serif" font-size="10.00">UBoundingBoxCalculator</text>
<text text-anchor="middle" x="1369.12" y="-319.5" font-family="Helvetica,sans-Serif" font-size="10.00">::GetStaticMeshBoundingBox</text>
</a>
</g>
</g>
<!-- Node9&#45;&gt;Node10 -->
<g id="edge10_Node000009_Node000010" class="edge">
<title>Node9&#45;&gt;Node10</title>
<g id="a_edge10_Node000009_Node000010"><a xlink:title=" ">
<path fill="none" stroke="#63b8ff" d="M1215.27,-295.47C1237.25,-300.29 1262.4,-305.81 1285.86,-310.95"/>
<polygon fill="#63b8ff" stroke="#63b8ff" points="1284.98,-314.56 1295.5,-313.29 1286.48,-307.73 1284.98,-314.56"/>
</a>
</g>
</g>
<!-- Node11 -->
<g id="Node000011" class="node">
<title>Node11</title>
<g id="a_Node000011"><a xlink:href="../../d0/d6a/ActorDispatcher_8cpp.html#a69d0a7232310b5ebaa51abb2b9945184" target="_top" xlink:title=" ">
<polygon fill="white" stroke="#666666" points="1550.25,-455 1495.25,-455 1495.25,-435 1550.25,-435 1550.25,-455"/>
<text text-anchor="middle" x="1522.75" y="-441.5" font-family="Helvetica,sans-Serif" font-size="10.00">UE_LOG</text>
</a>
</g>
</g>
<!-- Node9&#45;&gt;Node11 -->
<g id="edge11_Node000009_Node000011" class="edge">
<title>Node9&#45;&gt;Node11</title>
<g id="a_edge11_Node000009_Node000011"><a xlink:title=" ">
<path fill="none" stroke="#63b8ff" d="M1215.31,-269.2C1281.7,-258.99 1387.61,-253.64 1459.25,-304 1499.26,-332.13 1514,-391.9 1519.15,-423.84"/>
<polygon fill="#63b8ff" stroke="#63b8ff" points="1515.81,-424.19 1520.69,-433.6 1522.74,-423.2 1515.81,-424.19"/>
</a>
</g>
</g>
<!-- Node14 -->
<g id="Node000014" class="node">
<title>Node14</title>
<g id="a_Node000014"><a xlink:href="../../df/d02/classUBoundingBoxCalculator.html#a26b06d84b8d5990869150aaabc633072" target="_top" xlink:title=" ">
<polygon fill="white" stroke="#666666" points="1243,-486 1062.75,-486 1062.75,-454 1243,-454 1243,-486"/>
<text text-anchor="start" x="1070.75" y="-472.5" font-family="Helvetica,sans-Serif" font-size="10.00">UBoundingBoxCalculator</text>
<text text-anchor="middle" x="1152.88" y="-460.5" font-family="Helvetica,sans-Serif" font-size="10.00">::GetBBsOfSkeletalMeshComponents</text>
</a>
</g>
</g>
<!-- Node13&#45;&gt;Node14 -->
<g id="edge14_Node000013_Node000014" class="edge">
<title>Node13&#45;&gt;Node14</title>
<g id="a_edge14_Node000013_Node000014"><a xlink:title=" ">
<path fill="none" stroke="#63b8ff" d="M629.98,-464.66C731.75,-465.7 931.05,-467.74 1051.76,-468.97"/>
<polygon fill="#63b8ff" stroke="#63b8ff" points="1051.44,-472.48 1061.47,-469.08 1051.51,-465.48 1051.44,-472.48"/>
</a>
</g>
</g>
<!-- Node14&#45;&gt;Node6 -->
<g id="edge15_Node000014_Node000006" class="edge">
<title>Node14&#45;&gt;Node6</title>
<g id="a_edge15_Node000014_Node000006"><a xlink:title=" ">
<path fill="none" stroke="#63b8ff" d="M1215.48,-453.56C1224.75,-450.85 1234.16,-447.95 1243,-445 1259.28,-439.56 1262.69,-436.35 1279,-431 1290.66,-427.18 1303.32,-423.49 1315.33,-420.21"/>
<polygon fill="#63b8ff" stroke="#63b8ff" points="1315.93,-423.4 1324.69,-417.43 1314.12,-416.64 1315.93,-423.4"/>
</a>
</g>
</g>
<!-- Node14&#45;&gt;Node11 -->
<g id="edge19_Node000014_Node000011" class="edge">
<title>Node14&#45;&gt;Node11</title>
<g id="a_edge19_Node000014_Node000011"><a xlink:title=" ">
<path fill="none" stroke="#63b8ff" d="M1243.4,-463.92C1320.4,-458.68 1427.69,-451.39 1483.93,-447.57"/>
<polygon fill="#63b8ff" stroke="#63b8ff" points="1484.06,-451 1493.8,-446.83 1483.58,-444.02 1484.06,-451"/>
</a>
</g>
</g>
<!-- Node14&#45;&gt;Node12 -->
<g id="edge18_Node000014_Node000012" class="edge">
<title>Node14&#45;&gt;Node12</title>
<g id="a_edge18_Node000014_Node000012"><a xlink:title=" ">
<path fill="none" stroke="#63b8ff" d="M1243.49,-475.44C1251.46,-475.92 1259.55,-476.41 1267.6,-476.9"/>
<polygon fill="#63b8ff" stroke="#63b8ff" points="1267.33,-480.45 1277.52,-477.56 1267.75,-473.46 1267.33,-480.45"/>
</a>
</g>
</g>
<!-- Node15 -->
<g id="Node000015" class="node">
<title>Node15</title>
<g id="a_Node000015"><a xlink:href="../../df/d02/classUBoundingBoxCalculator.html#ac9bad7655f552b0f47ee7a59237fcf8a" target="_top" xlink:title=" ">
<polygon fill="white" stroke="#666666" points="1446.5,-543 1291.75,-543 1291.75,-511 1446.5,-511 1446.5,-543"/>
<text text-anchor="start" x="1299.75" y="-529.5" font-family="Helvetica,sans-Serif" font-size="10.00">UBoundingBoxCalculator</text>
<text text-anchor="middle" x="1369.12" y="-517.5" font-family="Helvetica,sans-Serif" font-size="10.00">::GetSkeletalMeshBoundingBox</text>
</a>
</g>
</g>
<!-- Node14&#45;&gt;Node15 -->
<g id="edge16_Node000014_Node000015" class="edge">
<title>Node14&#45;&gt;Node15</title>
<g id="a_edge16_Node000014_Node000015"><a xlink:title=" ">
<path fill="none" stroke="#63b8ff" d="M1215.84,-486.49C1240.83,-493.13 1269.82,-500.85 1295.76,-507.75"/>
<polygon fill="#63b8ff" stroke="#63b8ff" points="1294.73,-511.36 1305.29,-510.55 1296.53,-504.6 1294.73,-511.36"/>
</a>
</g>
</g>
<!-- Node15&#45;&gt;Node11 -->
<g id="edge17_Node000015_Node000011" class="edge">
<title>Node15&#45;&gt;Node11</title>
<g id="a_edge17_Node000015_Node000011"><a xlink:title=" ">
<path fill="none" stroke="#63b8ff" d="M1440.47,-510.66C1446.98,-508.15 1453.35,-505.27 1459.25,-502 1477.2,-492.04 1494.17,-475.97 1505.89,-463.43"/>
<polygon fill="#63b8ff" stroke="#63b8ff" points="1508.01,-466.2 1512.11,-456.43 1502.82,-461.51 1508.01,-466.2"/>
</a>
</g>
</g>
<!-- Node17 -->
<g id="Node000017" class="node">
<title>Node17</title>
<g id="a_Node000017"><a xlink:href="../../df/d02/classUBoundingBoxCalculator.html#ae6652aae39124e629b2cab14760fa027" target="_top" xlink:title=" ">
<polygon fill="white" stroke="#666666" points="1238.12,-348 1067.62,-348 1067.62,-316 1238.12,-316 1238.12,-348"/>
<text text-anchor="start" x="1075.62" y="-334.5" font-family="Helvetica,sans-Serif" font-size="10.00">UBoundingBoxCalculator</text>
<text text-anchor="middle" x="1152.88" y="-322.5" font-family="Helvetica,sans-Serif" font-size="10.00">::GetBBsOfStaticMeshComponents</text>
</a>
</g>
</g>
<!-- Node16&#45;&gt;Node17 -->
<g id="edge21_Node000016_Node000017" class="edge">
<title>Node16&#45;&gt;Node17</title>
<g id="a_edge21_Node000016_Node000017"><a xlink:title=" ">
<path fill="none" stroke="#63b8ff" d="M629.69,-372.81C718.72,-368.15 885.19,-358.62 1026.75,-346 1036.42,-345.14 1046.51,-344.15 1056.57,-343.11"/>
<polygon fill="#63b8ff" stroke="#63b8ff" points="1056.88,-346.5 1066.46,-341.97 1056.15,-339.53 1056.88,-346.5"/>
</a>
</g>
</g>
<!-- Node17&#45;&gt;Node6 -->
<g id="edge22_Node000017_Node000006" class="edge">
<title>Node17&#45;&gt;Node6</title>
<g id="a_edge22_Node000017_Node000006"><a xlink:title=" ">
<path fill="none" stroke="#63b8ff" d="M1203.44,-348.48C1216.33,-352.83 1230.2,-357.55 1243,-362 1272.19,-372.16 1305.07,-384 1329.79,-392.98"/>
<polygon fill="#63b8ff" stroke="#63b8ff" points="1328.26,-396.52 1338.86,-396.65 1330.66,-389.94 1328.26,-396.52"/>
</a>
</g>
</g>
<!-- Node17&#45;&gt;Node10 -->
<g id="edge23_Node000017_Node000010" class="edge">
<title>Node17&#45;&gt;Node10</title>
<g id="a_edge23_Node000017_Node000010"><a xlink:title=" ">
<path fill="none" stroke="#63b8ff" d="M1238.55,-330.81C1253.89,-330.6 1269.88,-330.38 1285.17,-330.16"/>
<polygon fill="#63b8ff" stroke="#63b8ff" points="1285.21,-333.65 1295.16,-330.01 1285.12,-326.65 1285.21,-333.65"/>
</a>
</g>
</g>
<!-- Node17&#45;&gt;Node12 -->
<g id="edge24_Node000017_Node000012" class="edge">
<title>Node17&#45;&gt;Node12</title>
<g id="a_edge24_Node000017_Node000012"><a xlink:title=" ">
<path fill="none" stroke="#63b8ff" d="M1221,-348.48C1228.9,-352.13 1236.46,-356.59 1243,-362 1268.14,-382.81 1256.59,-402.28 1279,-426 1295.28,-443.23 1317.81,-457.58 1336.14,-467.57"/>
<polygon fill="#63b8ff" stroke="#63b8ff" points="1334.34,-471.11 1344.82,-472.66 1337.6,-464.91 1334.34,-471.11"/>
</a>
</g>
</g>
<!-- Node19 -->
<g id="Node000019" class="node">
<title>Node19</title>
<g id="a_Node000019"><a xlink:href="../../df/d02/classUBoundingBoxCalculator.html#af8d4b9688261756447ce09390064d3c2" target="_top" xlink:title=" ">
<polygon fill="white" stroke="#666666" points="861.5,-348 665.5,-348 665.5,-316 861.5,-316 861.5,-348"/>
<text text-anchor="start" x="673.5" y="-334.5" font-family="Helvetica,sans-Serif" font-size="10.00">UBoundingBoxCalculator</text>
<text text-anchor="middle" x="763.5" y="-322.5" font-family="Helvetica,sans-Serif" font-size="10.00">::GetMeshCompsFromActorBoundingBox</text>
</a>
</g>
</g>
<!-- Node18&#45;&gt;Node19 -->
<g id="edge26_Node000018_Node000019" class="edge">
<title>Node18&#45;&gt;Node19</title>
<g id="a_edge26_Node000018_Node000019"><a xlink:title=" ">
<path fill="none" stroke="#63b8ff" d="M629.99,-313.13C637.94,-314.26 646.24,-315.44 654.64,-316.64"/>
<polygon fill="#63b8ff" stroke="#63b8ff" points="653.91,-320.21 664.3,-318.16 654.9,-313.28 653.91,-320.21"/>
</a>
</g>
</g>
<!-- Node20 -->
<g id="Node000020" class="node">
<title>Node20</title>
<g id="a_Node000020"><a xlink:href="../../da/d86/classATagger.html#a2b8ab63680928bbd944deecb7e87ec23" target="_top" xlink:title="检索已标记的角色的标记。CityObjectLabel：：None 为 未添加到数组中。">
<polygon fill="white" stroke="#666666" points="827,-248 700,-248 700,-228 827,-228 827,-248"/>
<text text-anchor="middle" x="763.5" y="-234.5" font-family="Helvetica,sans-Serif" font-size="10.00">ATagger::GetTagAsString</text>
</a>
</g>
</g>
<!-- Node18&#45;&gt;Node20 -->
<g id="edge28_Node000018_Node000020" class="edge">
<title>Node18&#45;&gt;Node20</title>
<g id="a_edge28_Node000018_Node000020"><a xlink:title=" ">
<path fill="none" stroke="#63b8ff" d="M595.6,-287.6C615,-277.49 641.15,-264.99 665.5,-257 673.04,-254.53 681.02,-252.33 689.03,-250.38"/>
<polygon fill="#63b8ff" stroke="#63b8ff" points="689.59,-253.61 698.56,-247.97 688.03,-246.79 689.59,-253.61"/>
</a>
</g>
</g>
<!-- Node21 -->
<g id="Node000021" class="node">
<title>Node21</title>
<g id="a_Node000021"><a xlink:href="../../df/d02/classUBoundingBoxCalculator.html#ad731c0c97029d59cb5b763077a7c18ec" target="_top" xlink:title=" ">
<polygon fill="white" stroke="#666666" points="834.5,-298 692.5,-298 692.5,-266 834.5,-266 834.5,-298"/>
<text text-anchor="start" x="700.5" y="-284.5" font-family="Helvetica,sans-Serif" font-size="10.00">UBoundingBoxCalculator</text>
<text text-anchor="middle" x="763.5" y="-272.5" font-family="Helvetica,sans-Serif" font-size="10.00">::GetTrafficLightBoundingBox</text>
</a>
</g>
</g>
<!-- Node18&#45;&gt;Node21 -->
<g id="edge29_Node000018_Node000021" class="edge">
<title>Node18&#45;&gt;Node21</title>
<g id="a_edge29_Node000018_Node000021"><a xlink:title=" ">
<path fill="none" stroke="#63b8ff" d="M629.99,-296.83C646.41,-294.99 664.29,-292.99 681.45,-291.07"/>
<polygon fill="#63b8ff" stroke="#63b8ff" points="681.47,-294.48 691.02,-289.89 680.69,-287.52 681.47,-294.48"/>
</a>
</g>
</g>
<!-- Node19&#45;&gt;Node17 -->
<g id="edge27_Node000019_Node000017" class="edge">
<title>Node19&#45;&gt;Node17</title>
<g id="a_edge27_Node000019_Node000017"><a xlink:title=" ">
<path fill="none" stroke="#63b8ff" d="M861.75,-332C921.35,-332 997.32,-332 1056.56,-332"/>
<polygon fill="#63b8ff" stroke="#63b8ff" points="1056.42,-335.5 1066.42,-332 1056.42,-328.5 1056.42,-335.5"/>
</a>
</g>
</g>
<!-- Node22 -->
<g id="Node000022" class="node">
<title>Node22</title>
<g id="a_Node000022"><a xlink:href="../../df/d02/classUBoundingBoxCalculator.html#af2813a65238c05c9f421c93839766edb" target="_top" xlink:title=" ">
<polygon fill="white" stroke="#666666" points="1024.12,-298 900.12,-298 900.12,-266 1024.12,-266 1024.12,-298"/>
<text text-anchor="start" x="908.12" y="-284.5" font-family="Helvetica,sans-Serif" font-size="10.00">UBoundingBoxCalculator</text>
<text text-anchor="middle" x="962.12" y="-272.5" font-family="Helvetica,sans-Serif" font-size="10.00">::CombineBBsOfActor</text>
</a>
</g>
</g>
<!-- Node21&#45;&gt;Node22 -->
<g id="edge30_Node000021_Node000022" class="edge">
<title>Node21&#45;&gt;Node22</title>
<g id="a_edge30_Node000021_Node000022"><a xlink:title=" ">
<path fill="none" stroke="#63b8ff" d="M834.93,-282C852.45,-282 871.26,-282 888.87,-282"/>
<polygon fill="#63b8ff" stroke="#63b8ff" points="888.65,-285.5 898.65,-282 888.65,-278.5 888.65,-285.5"/>
</a>
</g>
</g>
<!-- Node22&#45;&gt;Node17 -->
<g id="edge33_Node000022_Node000017" class="edge">
<title>Node22&#45;&gt;Node17</title>
<g id="a_edge33_Node000022_Node000017"><a xlink:title=" ">
<path fill="none" stroke="#63b8ff" d="M1024.41,-298.23C1041.86,-302.86 1061.05,-307.94 1079.12,-312.73"/>
<polygon fill="#63b8ff" stroke="#63b8ff" points="1078.04,-316.33 1088.61,-315.51 1079.84,-309.56 1078.04,-316.33"/>
</a>
</g>
</g>
<!-- Node23 -->
<g id="Node000023" class="node">
<title>Node23</title>
<g id="a_Node000023"><a xlink:href="../../df/d02/classUBoundingBoxCalculator.html#adc638d4ad146b80666f002e31fb67dca" target="_top" xlink:title=" ">
<polygon fill="white" stroke="#666666" points="1214.88,-248 1090.88,-248 1090.88,-216 1214.88,-216 1214.88,-248"/>
<text text-anchor="start" x="1098.88" y="-234.5" font-family="Helvetica,sans-Serif" font-size="10.00">UBoundingBoxCalculator</text>
<text text-anchor="middle" x="1152.88" y="-222.5" font-family="Helvetica,sans-Serif" font-size="10.00">::CombineBBs</text>
</a>
</g>
</g>
<!-- Node22&#45;&gt;Node23 -->
<g id="edge31_Node000022_Node000023" class="edge">
<title>Node22&#45;&gt;Node23</title>
<g id="a_edge31_Node000022_Node000023"><a xlink:title=" ">
<path fill="none" stroke="#63b8ff" d="M1024.41,-265.77C1042.13,-261.07 1061.64,-255.9 1079.96,-251.05"/>
<polygon fill="#63b8ff" stroke="#63b8ff" points="1080.81,-254.18 1089.58,-248.24 1079.02,-247.42 1080.81,-254.18"/>
</a>
</g>
</g>
<!-- Node24 -->
<g id="Node000024" class="node">
<title>Node24</title>
<g id="a_Node000024"><a xlink:href="../../dd/dd8/BoundingBoxCalculator_8cpp.html#add48caf167e197fab6a9c2228ad1c024" target="_top" xlink:title=" ">
<polygon fill="white" stroke="#666666" points="1447.25,-242 1291,-242 1291,-222 1447.25,-222 1447.25,-242"/>
<text text-anchor="middle" x="1369.12" y="-228.5" font-family="Helvetica,sans-Serif" font-size="10.00">CombineBoundingBoxesGeneric</text>
</a>
</g>
</g>
<!-- Node23&#45;&gt;Node24 -->
<g id="edge32_Node000023_Node000024" class="edge">
<title>Node23&#45;&gt;Node24</title>
<g id="a_edge32_Node000023_Node000024"><a xlink:title=" ">
<path fill="none" stroke="#63b8ff" d="M1215.27,-232C1235.37,-232 1258.11,-232 1279.79,-232"/>
<polygon fill="#63b8ff" stroke="#63b8ff" points="1279.67,-235.5 1289.67,-232 1279.67,-228.5 1279.67,-235.5"/>
</a>
</g>
</g>
<!-- Node25&#45;&gt;Node7 -->
<g id="edge41_Node000025_Node000007" class="edge">
<title>Node25&#45;&gt;Node7</title>
<g id="a_edge41_Node000025_Node000007"><a xlink:title=" ">
<path fill="none" stroke="#63b8ff" d="M1027.03,-547.12C1043.32,-543.58 1060.98,-539.74 1077.74,-536.1"/>
<polygon fill="#63b8ff" stroke="#63b8ff" points="1078.01,-539.41 1087.04,-533.87 1076.52,-532.57 1078.01,-539.41"/>
</a>
</g>
</g>
<!-- Node25&#45;&gt;Node12 -->
<g id="edge35_Node000025_Node000012" class="edge">
<title>Node25&#45;&gt;Node12</title>
<g id="a_edge35_Node000025_Node000012"><a xlink:title=" ">
<path fill="none" stroke="#63b8ff" d="M1027.11,-571.21C1086.35,-577.57 1175.26,-579.02 1243,-545 1265.27,-533.81 1257.65,-514.86 1279,-502 1281.67,-500.39 1284.45,-498.92 1287.32,-497.57"/>
<polygon fill="#63b8ff" stroke="#63b8ff" points="1288.43,-500.49 1296.34,-493.45 1285.76,-494.02 1288.43,-500.49"/>
</a>
</g>
</g>
<!-- Node26 -->
<g id="Node000026" class="node">
<title>Node26</title>
<g id="a_Node000026"><a xlink:href="../../df/d02/classUBoundingBoxCalculator.html#af1eef05f52ea2eea5fb35d30e4034b61" target="_top" xlink:title=" ">
<polygon fill="white" stroke="#666666" points="1216.75,-624 1089,-624 1089,-592 1216.75,-592 1216.75,-624"/>
<text text-anchor="start" x="1097" y="-610.5" font-family="Helvetica,sans-Serif" font-size="10.00">UBoundingBoxCalculator</text>
<text text-anchor="middle" x="1152.88" y="-598.5" font-family="Helvetica,sans-Serif" font-size="10.00">::GetVehicleBoundingBox</text>
</a>
</g>
</g>
<!-- Node25&#45;&gt;Node26 -->
<g id="edge36_Node000025_Node000026" class="edge">
<title>Node25&#45;&gt;Node26</title>
<g id="a_edge36_Node000025_Node000026"><a xlink:title=" ">
<path fill="none" stroke="#63b8ff" d="M1027.03,-576.91C1043.5,-581.01 1061.36,-585.46 1078.28,-589.68"/>
<polygon fill="#63b8ff" stroke="#63b8ff" points="1077.13,-593.24 1087.68,-592.26 1078.82,-586.45 1077.13,-593.24"/>
</a>
</g>
</g>
<!-- Node26&#45;&gt;Node6 -->
<g id="edge37_Node000026_Node000006" class="edge">
<title>Node26&#45;&gt;Node6</title>
<g id="a_edge37_Node000026_Node000006"><a xlink:title=" ">
<path fill="none" stroke="#63b8ff" d="M1185.19,-591.59C1203.94,-580.49 1227.14,-564.34 1243,-545 1267.98,-514.54 1253.32,-493.88 1279,-464 1294.15,-446.37 1316.11,-432.24 1334.43,-422.46"/>
<polygon fill="#63b8ff" stroke="#63b8ff" points="1335.86,-425.15 1343.17,-417.48 1332.68,-418.92 1335.86,-425.15"/>
</a>
</g>
</g>
<!-- Node26&#45;&gt;Node11 -->
<g id="edge40_Node000026_Node000011" class="edge">
<title>Node26&#45;&gt;Node11</title>
<g id="a_edge40_Node000026_Node000011"><a xlink:title=" ">
<path fill="none" stroke="#63b8ff" d="M1217.02,-611.18C1283.19,-611.36 1387.33,-602.46 1459.25,-552 1489.35,-530.88 1507.12,-490.26 1515.6,-465.6"/>
<polygon fill="#63b8ff" stroke="#63b8ff" points="1519.21,-466.81 1518.95,-456.22 1512.55,-464.67 1519.21,-466.81"/>
</a>
</g>
</g>
<!-- Node26&#45;&gt;Node12 -->
<g id="edge39_Node000026_Node000012" class="edge">
<title>Node26&#45;&gt;Node12</title>
<g id="a_edge39_Node000026_Node000012"><a xlink:title=" ">
<path fill="none" stroke="#63b8ff" d="M1216.81,-594.01C1226.31,-589.95 1235.43,-584.72 1243,-578 1270.94,-553.17 1249.69,-525.19 1279,-502 1280.49,-500.82 1282.04,-499.71 1283.64,-498.66"/>
<polygon fill="#63b8ff" stroke="#63b8ff" points="1285.19,-501.25 1292.25,-493.35 1281.81,-495.12 1285.19,-501.25"/>
</a>
</g>
</g>
<!-- Node26&#45;&gt;Node15 -->
<g id="edge38_Node000026_Node000015" class="edge">
<title>Node26&#45;&gt;Node15</title>
<g id="a_edge38_Node000026_Node000015"><a xlink:title=" ">
<path fill="none" stroke="#63b8ff" d="M1204.5,-591.57C1217.13,-587.3 1230.6,-582.61 1243,-578 1268.47,-568.53 1296.52,-557.19 1319.59,-547.61"/>
<polygon fill="#63b8ff" stroke="#63b8ff" points="1320.6,-550.56 1328.48,-543.48 1317.9,-544.1 1320.6,-550.56"/>
</a>
</g>
</g>
<!-- Node28 -->
<g id="Node000028" class="node">
<title>Node28</title>
<g id="a_Node000028"><a xlink:href="../../da/d86/classATagger.html#ad0a7c11b5b6a58abecd4a7b5587eeb6a" target="_top" xlink:title="设置角色的标签。">
<polygon fill="white" stroke="#666666" points="613.38,-153 516.38,-153 516.38,-133 613.38,-133 613.38,-153"/>
<text text-anchor="middle" x="564.88" y="-139.5" font-family="Helvetica,sans-Serif" font-size="10.00">ATagger::TagActor</text>
</a>
</g>
</g>
<!-- Node27&#45;&gt;Node28 -->
<g id="edge43_Node000027_Node000028" class="edge">
<title>Node27&#45;&gt;Node28</title>
<g id="a_edge43_Node000027_Node000028"><a xlink:title=" ">
<path fill="none" stroke="#63b8ff" d="M251.69,-278.5C310.72,-252.88 462.28,-187.1 530.14,-157.64"/>
<polygon fill="#63b8ff" stroke="#63b8ff" points="531.12,-160.6 538.9,-153.4 528.34,-154.18 531.12,-160.6"/>
</a>
</g>
</g>
<!-- Node28&#45;&gt;Node11 -->
<g id="edge53_Node000028_Node000011" class="edge">
<title>Node28&#45;&gt;Node11</title>
<g id="a_edge53_Node000028_Node000011"><a xlink:title=" ">
<path fill="none" stroke="#63b8ff" d="M613.6,-139.22C687.86,-133.68 835.58,-124 961.12,-124 961.12,-124 961.12,-124 1153.88,-124 1295.24,-124 1360.31,-112.02 1459.25,-213 1517.15,-272.1 1522.85,-378.89 1522.48,-424"/>
<polygon fill="#63b8ff" stroke="#63b8ff" points="1518.96,-423.92 1522.25,-433.99 1525.96,-424.06 1518.96,-423.92"/>
</a>
</g>
</g>
<!-- Node28&#45;&gt;Node20 -->
<g id="edge47_Node000028_Node000020" class="edge">
<title>Node28&#45;&gt;Node20</title>
<g id="a_edge47_Node000028_Node000020"><a xlink:title=" ">
<path fill="none" stroke="#63b8ff" d="M576.14,-153.49C593.11,-170.16 628.79,-202.5 665.5,-219 672.9,-222.33 680.88,-225.07 688.96,-227.34"/>
<polygon fill="#63b8ff" stroke="#63b8ff" points="688.06,-230.98 698.62,-230.05 689.79,-224.19 688.06,-230.98"/>
</a>
</g>
</g>
<!-- Node29 -->
<g id="Node000029" class="node">
<title>Node29</title>
<g id="a_Node000029"><a xlink:href="../../da/d86/classATagger.html#ad30a07f35f3db9d174589bb8abddd11f" target="_top" xlink:title="获得实例分割中参与者所标注的颜色">
<polygon fill="white" stroke="#666666" points="834.88,-96 692.12,-96 692.12,-76 834.88,-76 834.88,-96"/>
<text text-anchor="middle" x="763.5" y="-82.5" font-family="Helvetica,sans-Serif" font-size="10.00">ATagger::GetActorLabelColor</text>
</a>
</g>
</g>
<!-- Node28&#45;&gt;Node29 -->
<g id="edge44_Node000028_Node000029" class="edge">
<title>Node28&#45;&gt;Node29</title>
<g id="a_edge44_Node000028_Node000029"><a xlink:title=" ">
<path fill="none" stroke="#63b8ff" d="M595.33,-132.58C615.06,-125.76 641.69,-116.88 665.5,-110 678.78,-106.16 693.2,-102.39 706.75,-99.01"/>
<polygon fill="#63b8ff" stroke="#63b8ff" points="707.52,-102.18 716.39,-96.39 705.85,-95.38 707.52,-102.18"/>
</a>
</g>
</g>
<!-- Node31 -->
<g id="Node000031" class="node">
<title>Node31</title>
<g id="a_Node000031"><a xlink:href="../../da/d86/classATagger.html#aad05d5a21390b4353006636903dcde06" target="_top" xlink:title="计算特定对象对应的 label 的方法 使用存储它的文件夹路径">
<polygon fill="white" stroke="#666666" points="828.12,-20 698.88,-20 698.88,0 828.12,0 828.12,-20"/>
<text text-anchor="middle" x="763.5" y="-6.5" font-family="Helvetica,sans-Serif" font-size="10.00">ATagger::GetLabelByPath</text>
</a>
</g>
</g>
<!-- Node28&#45;&gt;Node31 -->
<g id="edge46_Node000028_Node000031" class="edge">
<title>Node28&#45;&gt;Node31</title>
<g id="a_edge46_Node000028_Node000031"><a xlink:title=" ">
<path fill="none" stroke="#63b8ff" d="M571.55,-132.79C584.77,-110.07 619.96,-55.26 665.5,-29 672.48,-24.98 680.16,-21.79 688.05,-19.27"/>
<polygon fill="#63b8ff" stroke="#63b8ff" points="688.82,-22.41 697.5,-16.32 686.92,-15.67 688.82,-22.41"/>
</a>
</g>
</g>
<!-- Node32 -->
<g id="Node000032" class="node">
<title>Node32</title>
<g id="a_Node000032"><a xlink:href="../../d2/d40/TrafficLightBase_8cpp.html#a1459952e95242b0c926376d0bb4692b8" target="_top" xlink:title=" ">
<polygon fill="white" stroke="#666666" points="984.75,-191 939.5,-191 939.5,-171 984.75,-171 984.75,-191"/>
<text text-anchor="middle" x="962.12" y="-177.5" font-family="Helvetica,sans-Serif" font-size="10.00">IsValid</text>
</a>
</g>
</g>
<!-- Node28&#45;&gt;Node32 -->
<g id="edge48_Node000028_Node000032" class="edge">
<title>Node28&#45;&gt;Node32</title>
<g id="a_edge48_Node000028_Node000032"><a xlink:title=" ">
<path fill="none" stroke="#63b8ff" d="M613.55,-147.58C695.04,-155.42 859.06,-171.19 928.68,-177.88"/>
<polygon fill="#63b8ff" stroke="#63b8ff" points="928.11,-181.44 938.4,-178.91 928.78,-174.47 928.11,-181.44"/>
</a>
</g>
</g>
<!-- Node33 -->
<g id="Node000033" class="node">
<title>Node33</title>
<g id="a_Node000033"><a xlink:href="../../d8/d9f/classUTaggedComponent.html#a996f100e6eead478883b85cbb1d54569" target="_top" xlink:title=" ">
<polygon fill="white" stroke="#666666" points="837.12,-210 689.88,-210 689.88,-190 837.12,-190 837.12,-210"/>
<text text-anchor="middle" x="763.5" y="-196.5" font-family="Helvetica,sans-Serif" font-size="10.00">UTaggedComponent::SetColor</text>
</a>
</g>
</g>
<!-- Node28&#45;&gt;Node33 -->
<g id="edge49_Node000028_Node000033" class="edge">
<title>Node28&#45;&gt;Node33</title>
<g id="a_edge49_Node000028_Node000033"><a xlink:title=" ">
<path fill="none" stroke="#63b8ff" d="M595.33,-153.42C615.06,-160.24 641.69,-169.12 665.5,-176 678.78,-179.84 693.2,-183.61 706.75,-186.99"/>
<polygon fill="#63b8ff" stroke="#63b8ff" points="705.85,-190.62 716.39,-189.61 707.52,-183.82 705.85,-190.62"/>
</a>
</g>
</g>
<!-- Node34 -->
<g id="Node000034" class="node">
<title>Node34</title>
<g id="a_Node000034"><a xlink:href="../../da/d86/classATagger.html#ac21f239b285add6402af8245dc2f53cd" target="_top" xlink:title=" ">
<polygon fill="white" stroke="#666666" points="827.38,-58 699.62,-58 699.62,-38 827.38,-38 827.38,-58"/>
<text text-anchor="middle" x="763.5" y="-44.5" font-family="Helvetica,sans-Serif" font-size="10.00">ATagger::SetStencilValue</text>
</a>
</g>
</g>
<!-- Node28&#45;&gt;Node34 -->
<g id="edge51_Node000028_Node000034" class="edge">
<title>Node28&#45;&gt;Node34</title>
<g id="a_edge51_Node000028_Node000034"><a xlink:title=" ">
<path fill="none" stroke="#63b8ff" d="M576.14,-132.51C593.11,-115.84 628.79,-83.5 665.5,-67 672.85,-63.7 680.76,-60.97 688.78,-58.71"/>
<polygon fill="#63b8ff" stroke="#63b8ff" points="689.54,-61.87 698.36,-56.01 687.8,-55.09 689.54,-61.87"/>
</a>
</g>
</g>
<!-- Node30 -->
<g id="Node000030" class="node">
<title>Node30</title>
<g id="a_Node000030"><a xlink:href="../../d2/d35/Tagger_8cpp.html#a71868d020d0298e901136dde7c5a62a5" target="_top" xlink:title=" ">
<polygon fill="white" stroke="#666666" points="993,-77 931.25,-77 931.25,-57 993,-57 993,-77"/>
<text text-anchor="middle" x="962.12" y="-63.5" font-family="Helvetica,sans-Serif" font-size="10.00">CastEnum</text>
</a>
</g>
</g>
<!-- Node29&#45;&gt;Node30 -->
<g id="edge45_Node000029_Node000030" class="edge">
<title>Node29&#45;&gt;Node30</title>
<g id="a_edge45_Node000029_Node000030"><a xlink:title=" ">
<path fill="none" stroke="#63b8ff" d="M835.21,-79.17C863.76,-76.41 895.68,-73.32 920.24,-70.95"/>
<polygon fill="#63b8ff" stroke="#63b8ff" points="920.36,-74.36 929.97,-69.91 919.68,-67.39 920.36,-74.36"/>
</a>
</g>
</g>
<!-- Node33&#45;&gt;Node32 -->
<g id="edge50_Node000033_Node000032" class="edge">
<title>Node33&#45;&gt;Node32</title>
<g id="a_edge50_Node000033_Node000032"><a xlink:title=" ">
<path fill="none" stroke="#63b8ff" d="M837.44,-192.95C868.57,-189.94 903.35,-186.58 928.08,-184.19"/>
<polygon fill="#63b8ff" stroke="#63b8ff" points="928.4,-187.58 938.02,-183.14 927.73,-180.61 928.4,-187.58"/>
</a>
</g>
</g>
<!-- Node34&#45;&gt;Node30 -->
<g id="edge52_Node000034_Node000030" class="edge">
<title>Node34&#45;&gt;Node30</title>
<g id="a_edge52_Node000034_Node000030"><a xlink:title=" ">
<path fill="none" stroke="#63b8ff" d="M827.8,-54.12C858.05,-57.04 893.4,-60.46 920.09,-63.03"/>
<polygon fill="#63b8ff" stroke="#63b8ff" points="919.67,-66.61 929.96,-64.09 920.34,-59.64 919.67,-66.61"/>
</a>
</g>
</g>
</g>
</svg>

<g id="navigator" transform="translate(0 0)" fill="#404254">
  <rect fill="#f2f5e9" fill-opacity="0.5" stroke="#606060" stroke-width=".5" x="0" y="0" width="60" height="60"/>
  <use id="zoomplus" xlink:href="#zoomPlus" x="17" y="9" onmousedown="handleZoom(evt,'in')"/>
  <use id="zoomminus" xlink:href="#zoomMin" x="42" y="9" onmousedown="handleZoom(evt,'out')"/>
  <use id="reset" xlink:href="#resetDef" x="30" y="36" onmousedown="handleReset()"/>
   <use id="arrowup" xlink:href="#arrowUp" x="0" y="0" onmousedown="handlePan(0,-1)"/>
  <use id="arrowright" xlink:href="#arrowRight" x="0" y="0" onmousedown="handlePan(1,0)"/>
  <use id="arrowdown" xlink:href="#arrowDown" x="0" y="0" onmousedown="handlePan(0,1)"/>
  <use id="arrowleft" xlink:href="#arrowLeft" x="0" y="0" onmousedown="handlePan(-1,0)"/>
</g>
<svg viewBox="0 0 15 15" width="100%" height="30px" preserveAspectRatio="xMaxYMin meet">
 <g id="arrow_out" transform="scale(0.3 0.3)">
  <a xlink:href="classACarlaGameModeBase_a63efed9c79f812c2ed41f53aa6205681_cgraph_org.svg" target="_base">
   <rect id="button" ry="5" rx="5" y="6" x="6" height="38" width="38"
        fill="#f2f5e9" fill-opacity="0.5" stroke="#606060" stroke-width="1.0"/>
   <path id="arrow"
     d="M 11.500037,31.436501 C 11.940474,20.09759 22.043105,11.32322 32.158766,21.979434 L 37.068811,17.246167 C 37.068811,17.246167 37.088388,32 37.088388,32 L 22.160133,31.978069 C 22.160133,31.978069 26.997745,27.140456 26.997745,27.140456 C 18.528582,18.264221 13.291696,25.230495 11.500037,31.436501 z"
     style="fill:#404040;"/>
  </a>
 </g>
</svg>

<style type='text/css'>
<![CDATA[
[data-mouse-over-selected='false'] { opacity: 0.7; }
[data-mouse-over-selected='true']  { opacity: 1.0; }
]]>
</style>
<script type="application/ecmascript"><![CDATA[
document.addEventListener('DOMContentLoaded', (event) => {
  highlightEdges();
  highlightAdjacentNodes();
});
]]></script>
</svg>
