<?xml version="1.0" encoding="UTF-8" standalone="no"?>
<!DOCTYPE svg PUBLIC "-//W3C//DTD SVG 1.1//EN"
 "http://www.w3.org/Graphics/SVG/1.1/DTD/svg11.dtd">
<!-- Generated by graphviz version 8.1.0 (20230707.0739)
 -->
<!-- Title: carla::geom::CubicPolynomial::Tangent Pages: 1 -->
<svg width="538pt" height="176pt"
 viewBox="0.00 0.00 538.25 176.00" xmlns="http://www.w3.org/2000/svg" xmlns:xlink="http://www.w3.org/1999/xlink">
<g id="graph0" class="graph" transform="scale(1 1) rotate(0) translate(4 172)">
<title>carla::geom::CubicPolynomial::Tangent</title>
<!-- Node1 -->
<g id="Node000001" class="node">
<title>Node1</title>
<g id="a_Node000001"><a xlink:title="Evaluates the tangent using df/dx = b + 2cx + 3dx^2">
<polygon fill="#999999" stroke="#666666" points="530.25,-100 384.5,-100 384.5,-68 530.25,-68 530.25,-100"/>
<text text-anchor="start" x="392.5" y="-86.5" font-family="Helvetica,sans-Serif" font-size="10.00">carla::geom::CubicPolynomial</text>
<text text-anchor="middle" x="457.38" y="-74.5" font-family="Helvetica,sans-Serif" font-size="10.00">::Tangent</text>
</a>
</g>
</g>
<!-- Node2 -->
<g id="Node000002" class="node">
<title>Node2</title>
<g id="a_Node000002"><a xlink:href="../../d7/d3e/classcarla_1_1road_1_1element_1_1RoadInfoElevation.html#a529992a4219ddfa3ffbaeb1754519219" target="_top" xlink:title=" ">
<polygon fill="white" stroke="#666666" points="326,-168 221.5,-168 221.5,-124 326,-124 326,-168"/>
<text text-anchor="start" x="229.5" y="-154.5" font-family="Helvetica,sans-Serif" font-size="10.00">carla::road::element</text>
<text text-anchor="start" x="229.5" y="-142.5" font-family="Helvetica,sans-Serif" font-size="10.00">::RoadInfoElevation::</text>
<text text-anchor="middle" x="273.75" y="-130.5" font-family="Helvetica,sans-Serif" font-size="10.00">Evaluate</text>
</a>
</g>
</g>
<!-- Node1&#45;&gt;Node2 -->
<g id="edge1_Node000001_Node000002" class="edge">
<title>Node1&#45;&gt;Node2</title>
<g id="a_edge1_Node000001_Node000002"><a xlink:title=" ">
<path fill="none" stroke="#63b8ff" d="M397.86,-103.98C374.84,-111.83 348.65,-120.77 326.36,-128.38"/>
<polygon fill="#63b8ff" stroke="#63b8ff" points="398.85,-107 407.18,-100.45 396.59,-100.37 398.85,-107"/>
</a>
</g>
</g>
<!-- Node3 -->
<g id="Node000003" class="node">
<title>Node3</title>
<g id="a_Node000003"><a xlink:href="../../da/dee/classcarla_1_1road_1_1element_1_1GeometryPoly3.html#aac97415dacf427647d44dc64b8066d03" target="_top" xlink:title=" ">
<polygon fill="white" stroke="#666666" points="348.5,-106 199,-106 199,-62 348.5,-62 348.5,-106"/>
<text text-anchor="start" x="207" y="-92.5" font-family="Helvetica,sans-Serif" font-size="10.00">carla::road::element</text>
<text text-anchor="start" x="207" y="-80.5" font-family="Helvetica,sans-Serif" font-size="10.00">::GeometryPoly3::PreCompute</text>
<text text-anchor="middle" x="273.75" y="-68.5" font-family="Helvetica,sans-Serif" font-size="10.00">Spline</text>
</a>
</g>
</g>
<!-- Node1&#45;&gt;Node3 -->
<g id="edge2_Node000001_Node000003" class="edge">
<title>Node1&#45;&gt;Node3</title>
<g id="a_edge2_Node000001_Node000003"><a xlink:title=" ">
<path fill="none" stroke="#63b8ff" d="M373.12,-84C365.04,-84 356.87,-84 348.89,-84"/>
<polygon fill="#63b8ff" stroke="#63b8ff" points="373.07,-87.5 383.07,-84 373.07,-80.5 373.07,-87.5"/>
</a>
</g>
</g>
<!-- Node5 -->
<g id="Node000005" class="node">
<title>Node5</title>
<g id="a_Node000005"><a xlink:href="../../da/dfa/classcarla_1_1road_1_1element_1_1GeometryParamPoly3.html#aa550e28b186d099e5848a48d5713f9ba" target="_top" xlink:title=" ">
<polygon fill="white" stroke="#666666" points="332.75,-44 214.75,-44 214.75,0 332.75,0 332.75,-44"/>
<text text-anchor="start" x="222.75" y="-30.5" font-family="Helvetica,sans-Serif" font-size="10.00">carla::road::element</text>
<text text-anchor="start" x="222.75" y="-18.5" font-family="Helvetica,sans-Serif" font-size="10.00">::GeometryParamPoly3</text>
<text text-anchor="middle" x="273.75" y="-6.5" font-family="Helvetica,sans-Serif" font-size="10.00">::PreComputeSpline</text>
</a>
</g>
</g>
<!-- Node1&#45;&gt;Node5 -->
<g id="edge4_Node000001_Node000005" class="edge">
<title>Node1&#45;&gt;Node5</title>
<g id="a_edge4_Node000001_Node000005"><a xlink:title=" ">
<path fill="none" stroke="#63b8ff" d="M397.93,-64.05C377.22,-56.98 353.93,-49.03 333.22,-41.96"/>
<polygon fill="#63b8ff" stroke="#63b8ff" points="396.59,-67.63 407.18,-67.55 398.85,-61 396.59,-67.63"/>
</a>
</g>
</g>
<!-- Node4 -->
<g id="Node000004" class="node">
<title>Node4</title>
<g id="a_Node000004"><a xlink:href="../../da/dee/classcarla_1_1road_1_1element_1_1GeometryPoly3.html#a195e30a0dc62fc0b55e30639e1fc22b1" target="_top" xlink:title=" ">
<polygon fill="white" stroke="#666666" points="163,-100 0,-100 0,-68 163,-68 163,-100"/>
<text text-anchor="start" x="8" y="-86.5" font-family="Helvetica,sans-Serif" font-size="10.00">carla::road::element</text>
<text text-anchor="middle" x="81.5" y="-74.5" font-family="Helvetica,sans-Serif" font-size="10.00">::GeometryPoly3::GeometryPoly3</text>
</a>
</g>
</g>
<!-- Node3&#45;&gt;Node4 -->
<g id="edge3_Node000003_Node000004" class="edge">
<title>Node3&#45;&gt;Node4</title>
<g id="a_edge3_Node000003_Node000004"><a xlink:title=" ">
<path fill="none" stroke="#63b8ff" d="M187.69,-84C179.59,-84 171.39,-84 163.33,-84"/>
<polygon fill="#63b8ff" stroke="#63b8ff" points="187.65,-87.5 197.65,-84 187.65,-80.5 187.65,-87.5"/>
</a>
</g>
</g>
<!-- Node6 -->
<g id="Node000006" class="node">
<title>Node6</title>
<g id="a_Node000006"><a xlink:href="../../da/dfa/classcarla_1_1road_1_1element_1_1GeometryParamPoly3.html#afd58dd8cbc333f25a15294d81a432038" target="_top" xlink:title=" ">
<polygon fill="white" stroke="#666666" points="140.5,-44 22.5,-44 22.5,0 140.5,0 140.5,-44"/>
<text text-anchor="start" x="30.5" y="-30.5" font-family="Helvetica,sans-Serif" font-size="10.00">carla::road::element</text>
<text text-anchor="start" x="30.5" y="-18.5" font-family="Helvetica,sans-Serif" font-size="10.00">::GeometryParamPoly3</text>
<text text-anchor="middle" x="81.5" y="-6.5" font-family="Helvetica,sans-Serif" font-size="10.00">::GeometryParamPoly3</text>
</a>
</g>
</g>
<!-- Node5&#45;&gt;Node6 -->
<g id="edge5_Node000005_Node000006" class="edge">
<title>Node5&#45;&gt;Node6</title>
<g id="a_edge5_Node000005_Node000006"><a xlink:title=" ">
<path fill="none" stroke="#63b8ff" d="M203.47,-22C182.89,-22 160.57,-22 140.76,-22"/>
<polygon fill="#63b8ff" stroke="#63b8ff" points="203.38,-25.5 213.38,-22 203.38,-18.5 203.38,-25.5"/>
</a>
</g>
</g>
</g>
</svg>
