<?xml version="1.0" encoding="UTF-8" standalone="no"?>
<!DOCTYPE svg PUBLIC "-//W3C//DTD SVG 1.1//EN"
 "http://www.w3.org/Graphics/SVG/1.1/DTD/svg11.dtd">
<!-- Generated by graphviz version 8.1.0 (20230707.0739)
 -->
<!-- Title: AObstacleDetectionSensor::OnObstacleDetectionEvent Pages: 1 -->
<svg width="321pt" height="242pt"
 viewBox="0.00 0.00 320.50 242.00" xmlns="http://www.w3.org/2000/svg" xmlns:xlink="http://www.w3.org/1999/xlink">

<svg id="main" version="1.1" xmlns="http://www.w3.org/2000/svg" xmlns:xlink="http://www.w3.org/1999/xlink" xml:space="preserve" onload="init(evt)">
<style type="text/css"><![CDATA[
.node, .edge {opacity: 0.7;}
.node.selected, .edge.selected {opacity: 1;}
.edge:hover path { stroke: red; }
.edge:hover polygon { stroke: red; fill: red; }
]]></style>
<script type="application/ecmascript" xlink:href="../../svg.min.js"/>
<svg id="graph" class="graph">
<g id="graph0" class="graph" transform="scale(1 1) rotate(0) translate(4 238)">
<title>AObstacleDetectionSensor::OnObstacleDetectionEvent</title>
<!-- Node1 -->
<g id="Node000001" class="node">
<title>Node1</title>
<g id="a_Node000001"><a xlink:title=" ">
<polygon fill="#999999" stroke="#666666" points="139,-130 0,-130 0,-98 139,-98 139,-130"/>
<text text-anchor="start" x="8" y="-116.5" font-family="Helvetica,sans-Serif" font-size="10.00">AObstacleDetectionSensor</text>
<text text-anchor="middle" x="69.5" y="-104.5" font-family="Helvetica,sans-Serif" font-size="10.00">::OnObstacleDetectionEvent</text>
</a>
</g>
</g>
<!-- Node2 -->
<g id="Node000002" class="node">
<title>Node2</title>
<g id="a_Node000002"><a xlink:href="../../df/de1/classcarla_1_1streaming_1_1detail_1_1token__type.html#a2edd9e9111f8f91b47791baec38c5829" target="_top" xlink:title="获取流ID的引用。">
<polygon fill="white" stroke="#666666" points="312.5,-234 175,-234 175,-202 312.5,-202 312.5,-234"/>
<text text-anchor="start" x="183" y="-220.5" font-family="Helvetica,sans-Serif" font-size="10.00">carla::streaming::detail</text>
<text text-anchor="middle" x="243.75" y="-208.5" font-family="Helvetica,sans-Serif" font-size="10.00">::token_type::get_stream_id</text>
</a>
</g>
</g>
<!-- Node1&#45;&gt;Node2 -->
<g id="edge1_Node000001_Node000002" class="edge">
<title>Node1&#45;&gt;Node2</title>
<g id="a_edge1_Node000001_Node000002"><a xlink:title=" ">
<path fill="none" stroke="#63b8ff" d="M88.61,-130.34C108.59,-147.72 142.27,-175.1 175,-193 177.68,-194.47 180.47,-195.88 183.31,-197.24"/>
<polygon fill="#63b8ff" stroke="#63b8ff" points="181.59,-200.75 192.15,-201.63 184.45,-194.36 181.59,-200.75"/>
</a>
</g>
</g>
<!-- Node3 -->
<g id="Node000003" class="node">
<title>Node3</title>
<g id="a_Node000003"><a xlink:href="../../d3/d01/classASensor.html#a8fa217c0d68d5c774510d5e941ae0ade" target="_top" xlink:title="Return the FDataStream associated with this sensor.">
<polygon fill="white" stroke="#666666" points="307.25,-184 180.25,-184 180.25,-164 307.25,-164 307.25,-184"/>
<text text-anchor="middle" x="243.75" y="-170.5" font-family="Helvetica,sans-Serif" font-size="10.00">ASensor::GetDataStream</text>
</a>
</g>
</g>
<!-- Node1&#45;&gt;Node3 -->
<g id="edge2_Node000001_Node000003" class="edge">
<title>Node1&#45;&gt;Node3</title>
<g id="a_edge2_Node000001_Node000003"><a xlink:title=" ">
<path fill="none" stroke="#63b8ff" d="M109.36,-130.32C128.89,-138.25 153.01,-147.62 175,-155 180.57,-156.87 186.45,-158.71 192.31,-160.46"/>
<polygon fill="#63b8ff" stroke="#63b8ff" points="191.2,-164.07 201.78,-163.51 193.16,-157.35 191.2,-164.07"/>
</a>
</g>
</g>
<!-- Node4 -->
<g id="Node000004" class="node">
<title>Node4</title>
<g id="a_Node000004"><a xlink:href="../../d3/d01/classASensor.html#adfbd2b80613e8936e27f29436d62812c" target="_top" xlink:title=" ">
<polygon fill="white" stroke="#666666" points="299,-146 188.5,-146 188.5,-126 299,-126 299,-146"/>
<text text-anchor="middle" x="243.75" y="-132.5" font-family="Helvetica,sans-Serif" font-size="10.00">ASensor::GetEpisode</text>
</a>
</g>
</g>
<!-- Node1&#45;&gt;Node4 -->
<g id="edge3_Node000001_Node000004" class="edge">
<title>Node1&#45;&gt;Node4</title>
<g id="a_edge3_Node000001_Node000004"><a xlink:title=" ">
<path fill="none" stroke="#63b8ff" d="M139.07,-122.76C151.7,-124.37 164.85,-126.05 177.38,-127.65"/>
<polygon fill="#63b8ff" stroke="#63b8ff" points="176.84,-131.24 187.2,-129.03 177.72,-124.29 176.84,-131.24"/>
</a>
</g>
</g>
<!-- Node5 -->
<g id="Node000005" class="node">
<title>Node5</title>
<g id="a_Node000005"><a xlink:href="../../d8/d78/classcarla_1_1ros2_1_1ROS2.html#a2cec6f14ee2b8e025b585575508d77f1" target="_top" xlink:title=" ">
<polygon fill="white" stroke="#666666" points="293.75,-108 193.75,-108 193.75,-76 293.75,-76 293.75,-108"/>
<text text-anchor="start" x="201.75" y="-94.5" font-family="Helvetica,sans-Serif" font-size="10.00">carla::ros2::ROS2::</text>
<text text-anchor="middle" x="243.75" y="-82.5" font-family="Helvetica,sans-Serif" font-size="10.00">GetInstance</text>
</a>
</g>
</g>
<!-- Node1&#45;&gt;Node5 -->
<g id="edge4_Node000001_Node000005" class="edge">
<title>Node1&#45;&gt;Node5</title>
<g id="a_edge4_Node000001_Node000005"><a xlink:title=" ">
<path fill="none" stroke="#63b8ff" d="M139.07,-105.24C153.58,-103.39 168.77,-101.45 182.92,-99.64"/>
<polygon fill="#63b8ff" stroke="#63b8ff" points="183.03,-103.03 192.51,-98.29 182.15,-96.08 183.03,-103.03"/>
</a>
</g>
</g>
<!-- Node6 -->
<g id="Node000006" class="node">
<title>Node6</title>
<g id="a_Node000006"><a xlink:href="../../d3/d01/classASensor.html#a66fce49debf0145d15f810fd78775e9d" target="_top" xlink:title="Return the token that allows subscribing to this sensor&#39;s stream.">
<polygon fill="white" stroke="#666666" points="294.5,-58 193,-58 193,-38 294.5,-38 294.5,-58"/>
<text text-anchor="middle" x="243.75" y="-44.5" font-family="Helvetica,sans-Serif" font-size="10.00">ASensor::GetToken</text>
</a>
</g>
</g>
<!-- Node1&#45;&gt;Node6 -->
<g id="edge5_Node000001_Node000006" class="edge">
<title>Node1&#45;&gt;Node6</title>
<g id="a_edge5_Node000001_Node000006"><a xlink:title=" ">
<path fill="none" stroke="#63b8ff" d="M103.39,-97.68C123.71,-87.99 150.5,-75.89 175,-67 180.18,-65.12 185.63,-63.31 191.11,-61.61"/>
<polygon fill="#63b8ff" stroke="#63b8ff" points="192.02,-64.7 200.6,-58.48 190.01,-57.99 192.02,-64.7"/>
</a>
</g>
</g>
<!-- Node7 -->
<g id="Node000007" class="node">
<title>Node7</title>
<g id="a_Node000007"><a xlink:href="../../d3/d01/classASensor.html#a13a798c094b844a8d208a6c16dd5c47b" target="_top" xlink:title=" ">
<polygon fill="white" stroke="#666666" points="306.88,-20 180.62,-20 180.62,0 306.88,0 306.88,-20"/>
<text text-anchor="middle" x="243.75" y="-6.5" font-family="Helvetica,sans-Serif" font-size="10.00">ASensor::IsStreamReady</text>
</a>
</g>
</g>
<!-- Node1&#45;&gt;Node7 -->
<g id="edge6_Node000001_Node000007" class="edge">
<title>Node1&#45;&gt;Node7</title>
<g id="a_edge6_Node000001_Node000007"><a xlink:title=" ">
<path fill="none" stroke="#63b8ff" d="M86.35,-97.52C105.61,-78.4 139.91,-47.19 175,-29 178.46,-27.21 182.1,-25.57 185.84,-24.07"/>
<polygon fill="#63b8ff" stroke="#63b8ff" points="186.66,-27.13 194.86,-20.43 184.27,-20.55 186.66,-27.13"/>
</a>
</g>
</g>
</g>
</svg>
</svg>

<style type='text/css'>
<![CDATA[
[data-mouse-over-selected='false'] { opacity: 0.7; }
[data-mouse-over-selected='true']  { opacity: 1.0; }
]]>
</style>
<script type="application/ecmascript"><![CDATA[
document.addEventListener('DOMContentLoaded', (event) => {
  highlightEdges();
  highlightAdjacentNodes();
});
]]></script>
</svg>
