<?xml version="1.0" encoding="UTF-8" standalone="no"?>
<!DOCTYPE svg PUBLIC "-//W3C//DTD SVG 1.1//EN"
 "http://www.w3.org/Graphics/SVG/1.1/DTD/svg11.dtd">
<!-- Generated by graphviz version 8.1.0 (20230707.0739)
 -->
<!-- Title: Junction.h Pages: 1 -->
<svg width="1513pt" height="544pt"
 viewBox="0.00 0.00 1512.75 544.00" xmlns="http://www.w3.org/2000/svg" xmlns:xlink="http://www.w3.org/1999/xlink">
<g id="graph0" class="graph" transform="scale(1 1) rotate(0) translate(4 540)">
<title>Junction.h</title>
<!-- Node1 -->
<g id="Node000001" class="node">
<title>Node1</title>
<g id="a_Node000001"><a xlink:title=" ">
<polygon fill="#999999" stroke="#666666" points="1226.12,-536 1165.88,-536 1165.88,-516 1226.12,-516 1226.12,-536"/>
<text text-anchor="middle" x="1196" y="-522.5" font-family="Helvetica,sans-Serif" font-size="10.00">Junction.h</text>
</a>
</g>
</g>
<!-- Node2 -->
<g id="Node000002" class="node">
<title>Node2</title>
<g id="a_Node000002"><a xlink:href="../../d2/dfe/LibCarla_2source_2carla_2geom_2BoundingBox_8h.html" target="_top" xlink:title=" ">
<polygon fill="white" stroke="#666666" points="591.5,-480 458.5,-480 458.5,-460 591.5,-460 591.5,-480"/>
<text text-anchor="middle" x="525" y="-466.5" font-family="Helvetica,sans-Serif" font-size="10.00">carla/geom/BoundingBox.h</text>
</a>
</g>
</g>
<!-- Node1&#45;&gt;Node2 -->
<g id="edge1_Node000001_Node000002" class="edge">
<title>Node1&#45;&gt;Node2</title>
<g id="a_edge1_Node000001_Node000002"><a xlink:title=" ">
<path fill="none" stroke="#63b8ff" d="M1165.42,-522.54C1066.06,-514.54 750.19,-489.12 602.5,-477.24"/>
<polygon fill="#63b8ff" stroke="#63b8ff" points="602.99,-473.68 592.74,-476.37 602.43,-480.66 602.99,-473.68"/>
</a>
</g>
</g>
<!-- Node38 -->
<g id="Node000038" class="node">
<title>Node38</title>
<g id="a_Node000038"><a xlink:href="../../d4/dd8/LibCarla_2source_2carla_2NonCopyable_8h.html" target="_top" xlink:title=" ">
<polygon fill="white" stroke="#666666" points="1249,-480 1143,-480 1143,-460 1249,-460 1249,-480"/>
<text text-anchor="middle" x="1196" y="-466.5" font-family="Helvetica,sans-Serif" font-size="10.00">carla/NonCopyable.h</text>
</a>
</g>
</g>
<!-- Node1&#45;&gt;Node38 -->
<g id="edge61_Node000001_Node000038" class="edge">
<title>Node1&#45;&gt;Node38</title>
<g id="a_edge61_Node000001_Node000038"><a xlink:title=" ">
<path fill="none" stroke="#63b8ff" d="M1196,-515.59C1196,-508.86 1196,-499.53 1196,-491.15"/>
<polygon fill="#63b8ff" stroke="#63b8ff" points="1199.5,-491.3 1196,-481.3 1192.5,-491.3 1199.5,-491.3"/>
</a>
</g>
</g>
<!-- Node39 -->
<g id="Node000039" class="node">
<title>Node39</title>
<g id="a_Node000039"><a xlink:href="../../d6/dbb/RoadTypes_8h.html" target="_top" xlink:title=" ">
<polygon fill="white" stroke="#666666" points="1087.38,-480 968.62,-480 968.62,-460 1087.38,-460 1087.38,-480"/>
<text text-anchor="middle" x="1028" y="-466.5" font-family="Helvetica,sans-Serif" font-size="10.00">carla/road/RoadTypes.h</text>
</a>
</g>
</g>
<!-- Node1&#45;&gt;Node39 -->
<g id="edge62_Node000001_Node000039" class="edge">
<title>Node1&#45;&gt;Node39</title>
<g id="a_edge62_Node000001_Node000039"><a xlink:title=" ">
<path fill="none" stroke="#63b8ff" d="M1166.74,-515.59C1139.32,-506.78 1098.13,-493.54 1067.75,-483.78"/>
<polygon fill="#63b8ff" stroke="#63b8ff" points="1069.08,-480.21 1058.49,-480.48 1066.94,-486.87 1069.08,-480.21"/>
</a>
</g>
</g>
<!-- Node40 -->
<g id="Node000040" class="node">
<title>Node40</title>
<g id="a_Node000040"><a xlink:title=" ">
<polygon fill="#e0e0e0" stroke="#999999" points="1125,-424 1085,-424 1085,-404 1125,-404 1125,-424"/>
<text text-anchor="middle" x="1105" y="-410.5" font-family="Helvetica,sans-Serif" font-size="10.00">string</text>
</a>
</g>
</g>
<!-- Node1&#45;&gt;Node40 -->
<g id="edge68_Node000001_Node000040" class="edge">
<title>Node1&#45;&gt;Node40</title>
<g id="a_edge68_Node000001_Node000040"><a xlink:title=" ">
<path fill="none" stroke="#63b8ff" d="M1178.27,-515.57C1164.68,-507.6 1146.23,-495.08 1134,-480 1123.06,-466.5 1115.38,-448.22 1110.69,-434.48"/>
<polygon fill="#63b8ff" stroke="#63b8ff" points="1113.8,-433.7 1107.45,-425.22 1107.12,-435.81 1113.8,-433.7"/>
</a>
</g>
</g>
<!-- Node41 -->
<g id="Node000041" class="node">
<title>Node41</title>
<g id="a_Node000041"><a xlink:title=" ">
<polygon fill="#e0e0e0" stroke="#999999" points="1349.38,-480 1266.62,-480 1266.62,-460 1349.38,-460 1349.38,-480"/>
<text text-anchor="middle" x="1308" y="-466.5" font-family="Helvetica,sans-Serif" font-size="10.00">unordered_map</text>
</a>
</g>
</g>
<!-- Node1&#45;&gt;Node41 -->
<g id="edge65_Node000001_Node000041" class="edge">
<title>Node1&#45;&gt;Node41</title>
<g id="a_edge65_Node000001_Node000041"><a xlink:title=" ">
<path fill="none" stroke="#63b8ff" d="M1215.51,-515.59C1232.91,-507.21 1258.63,-494.8 1278.54,-485.21"/>
<polygon fill="#63b8ff" stroke="#63b8ff" points="1279.85,-487.98 1287.34,-480.48 1276.81,-481.67 1279.85,-487.98"/>
</a>
</g>
</g>
<!-- Node42 -->
<g id="Node000042" class="node">
<title>Node42</title>
<g id="a_Node000042"><a xlink:title=" ">
<polygon fill="#e0e0e0" stroke="#999999" points="1444.75,-480 1367.25,-480 1367.25,-460 1444.75,-460 1444.75,-480"/>
<text text-anchor="middle" x="1406" y="-466.5" font-family="Helvetica,sans-Serif" font-size="10.00">unordered_set</text>
</a>
</g>
</g>
<!-- Node1&#45;&gt;Node42 -->
<g id="edge66_Node000001_Node000042" class="edge">
<title>Node1&#45;&gt;Node42</title>
<g id="a_edge66_Node000001_Node000042"><a xlink:title=" ">
<path fill="none" stroke="#63b8ff" d="M1226.54,-517.15C1261.2,-508.23 1318.19,-493.58 1358.64,-483.18"/>
<polygon fill="#63b8ff" stroke="#63b8ff" points="1359.24,-486.38 1368.06,-480.5 1357.5,-479.6 1359.24,-486.38"/>
</a>
</g>
</g>
<!-- Node43 -->
<g id="Node000043" class="node">
<title>Node43</title>
<g id="a_Node000043"><a xlink:title=" ">
<polygon fill="#e0e0e0" stroke="#999999" points="1504.75,-480 1463.25,-480 1463.25,-460 1504.75,-460 1504.75,-480"/>
<text text-anchor="middle" x="1484" y="-466.5" font-family="Helvetica,sans-Serif" font-size="10.00">vector</text>
</a>
</g>
</g>
<!-- Node1&#45;&gt;Node43 -->
<g id="edge67_Node000001_Node000043" class="edge">
<title>Node1&#45;&gt;Node43</title>
<g id="a_edge67_Node000001_Node000043"><a xlink:title=" ">
<path fill="none" stroke="#63b8ff" d="M1226.42,-520.89C1273.02,-514.34 1365.03,-500.39 1452.18,-480.2"/>
<polygon fill="#63b8ff" stroke="#63b8ff" points="1452.85,-483.4 1461.78,-477.71 1451.24,-476.59 1452.85,-483.4"/>
</a>
</g>
</g>
<!-- Node3 -->
<g id="Node000003" class="node">
<title>Node3</title>
<g id="a_Node000003"><a xlink:href="../../d4/deb/Debug_8h.html" target="_top" xlink:title=" ">
<polygon fill="white" stroke="#666666" points="605,-76 529,-76 529,-56 605,-56 605,-76"/>
<text text-anchor="middle" x="567" y="-62.5" font-family="Helvetica,sans-Serif" font-size="10.00">carla/Debug.h</text>
</a>
</g>
</g>
<!-- Node2&#45;&gt;Node3 -->
<g id="edge2_Node000002_Node000003" class="edge">
<title>Node2&#45;&gt;Node3</title>
<g id="a_edge2_Node000002_Node000003"><a xlink:title=" ">
<path fill="none" stroke="#63b8ff" d="M591.8,-467.35C722.63,-462.29 1000,-441.8 1000,-359 1000,-359 1000,-359 1000,-177 1000,-98.56 729.7,-75.4 616.22,-69.14"/>
<polygon fill="#63b8ff" stroke="#63b8ff" points="616.6,-65.6 606.43,-68.57 616.23,-72.59 616.6,-65.6"/>
</a>
</g>
</g>
<!-- Node7 -->
<g id="Node000007" class="node">
<title>Node7</title>
<g id="a_Node000007"><a xlink:href="../../d9/d6f/MsgPack_8h.html" target="_top" xlink:title=" ">
<polygon fill="white" stroke="#666666" points="274.75,-188 185.25,-188 185.25,-168 274.75,-168 274.75,-188"/>
<text text-anchor="middle" x="230" y="-174.5" font-family="Helvetica,sans-Serif" font-size="10.00">carla/MsgPack.h</text>
</a>
</g>
</g>
<!-- Node2&#45;&gt;Node7 -->
<g id="edge6_Node000002_Node000007" class="edge">
<title>Node2&#45;&gt;Node7</title>
<g id="a_edge6_Node000002_Node000007"><a xlink:title=" ">
<path fill="none" stroke="#63b8ff" d="M458.24,-468.85C316.84,-466.71 0,-451.6 0,-359 0,-359 0,-359 0,-295 0,-217.21 106.19,-191.58 174.26,-183.14"/>
<polygon fill="#63b8ff" stroke="#63b8ff" points="174.3,-186.54 183.83,-181.92 173.5,-179.59 174.3,-186.54"/>
</a>
</g>
</g>
<!-- Node18 -->
<g id="Node000018" class="node">
<title>Node18</title>
<g id="a_Node000018"><a xlink:href="../../de/d17/geom_2Transform_8h.html" target="_top" xlink:title=" ">
<polygon fill="white" stroke="#666666" points="452,-424 334,-424 334,-404 452,-404 452,-424"/>
<text text-anchor="middle" x="393" y="-410.5" font-family="Helvetica,sans-Serif" font-size="10.00">carla/geom/Transform.h</text>
</a>
</g>
</g>
<!-- Node2&#45;&gt;Node18 -->
<g id="edge19_Node000002_Node000018" class="edge">
<title>Node2&#45;&gt;Node18</title>
<g id="a_edge19_Node000002_Node000018"><a xlink:title=" ">
<path fill="none" stroke="#63b8ff" d="M502.01,-459.59C481.03,-451.01 449.79,-438.23 426.12,-428.55"/>
<polygon fill="#63b8ff" stroke="#63b8ff" points="427.75,-425.03 417.17,-424.48 425.1,-431.51 427.75,-425.03"/>
</a>
</g>
</g>
<!-- Node19 -->
<g id="Node000019" class="node">
<title>Node19</title>
<g id="a_Node000019"><a xlink:href="../../d9/d8b/geom_2Location_8h.html" target="_top" xlink:title=" ">
<polygon fill="white" stroke="#666666" points="604,-368 492,-368 492,-348 604,-348 604,-368"/>
<text text-anchor="middle" x="548" y="-354.5" font-family="Helvetica,sans-Serif" font-size="10.00">carla/geom/Location.h</text>
</a>
</g>
</g>
<!-- Node2&#45;&gt;Node19 -->
<g id="edge54_Node000002_Node000019" class="edge">
<title>Node2&#45;&gt;Node19</title>
<g id="a_edge54_Node000002_Node000019"><a xlink:title=" ">
<path fill="none" stroke="#63b8ff" d="M526.96,-459.62C530.68,-441.84 538.82,-402.88 543.82,-379"/>
<polygon fill="#63b8ff" stroke="#63b8ff" points="547.42,-379.86 546.04,-369.35 540.57,-378.43 547.42,-379.86"/>
</a>
</g>
</g>
<!-- Node20 -->
<g id="Node000020" class="node">
<title>Node20</title>
<g id="a_Node000020"><a xlink:href="../../de/d70/geom_2Vector3D_8h.html" target="_top" xlink:title=" ">
<polygon fill="white" stroke="#666666" points="370.88,-244 255.12,-244 255.12,-224 370.88,-224 370.88,-244"/>
<text text-anchor="middle" x="313" y="-230.5" font-family="Helvetica,sans-Serif" font-size="10.00">carla/geom/Vector3D.h</text>
</a>
</g>
</g>
<!-- Node2&#45;&gt;Node20 -->
<g id="edge55_Node000002_Node000020" class="edge">
<title>Node2&#45;&gt;Node20</title>
<g id="a_edge55_Node000002_Node000020"><a xlink:title=" ">
<path fill="none" stroke="#63b8ff" d="M458.2,-468.38C396.04,-465.64 301.99,-455.89 227,-424 156.2,-393.89 125.37,-382.69 95,-312 89.39,-298.93 86.02,-291.03 95,-280 113.6,-257.17 187.34,-245.57 243.96,-239.92"/>
<polygon fill="#63b8ff" stroke="#63b8ff" points="244.05,-243.34 253.67,-238.91 243.39,-236.37 244.05,-243.34"/>
</a>
</g>
</g>
<!-- Node25 -->
<g id="Node000025" class="node">
<title>Node25</title>
<g id="a_Node000025"><a xlink:href="../../d9/da2/enable-ue4-macros_8h.html" target="_top" xlink:title=" ">
<polygon fill="white" stroke="#666666" points="207.5,-312 104.5,-312 104.5,-280 207.5,-280 207.5,-312"/>
<text text-anchor="start" x="112.5" y="-298.5" font-family="Helvetica,sans-Serif" font-size="10.00">compiler/enable&#45;ue4</text>
<text text-anchor="middle" x="156" y="-286.5" font-family="Helvetica,sans-Serif" font-size="10.00">&#45;macros.h</text>
</a>
</g>
</g>
<!-- Node2&#45;&gt;Node25 -->
<g id="edge57_Node000002_Node000025" class="edge">
<title>Node2&#45;&gt;Node25</title>
<g id="a_edge57_Node000002_Node000025"><a xlink:title=" ">
<path fill="none" stroke="#63b8ff" d="M459.65,-459.54C366.91,-444.68 204.19,-412.88 167,-368 156.83,-355.72 154.07,-338 153.86,-323.34"/>
<polygon fill="#63b8ff" stroke="#63b8ff" points="157.38,-323.48 154.15,-313.39 150.39,-323.3 157.38,-323.48"/>
</a>
</g>
</g>
<!-- Node27 -->
<g id="Node000027" class="node">
<title>Node27</title>
<g id="a_Node000027"><a xlink:href="../../d2/d02/disable-ue4-macros_8h.html" target="_top" xlink:title=" ">
<polygon fill="white" stroke="#666666" points="792.62,-312 687.38,-312 687.38,-280 792.62,-280 792.62,-312"/>
<text text-anchor="start" x="695.38" y="-298.5" font-family="Helvetica,sans-Serif" font-size="10.00">compiler/disable&#45;ue4</text>
<text text-anchor="middle" x="740" y="-286.5" font-family="Helvetica,sans-Serif" font-size="10.00">&#45;macros.h</text>
</a>
</g>
</g>
<!-- Node2&#45;&gt;Node27 -->
<g id="edge60_Node000002_Node000027" class="edge">
<title>Node2&#45;&gt;Node27</title>
<g id="a_edge60_Node000002_Node000027"><a xlink:title=" ">
<path fill="none" stroke="#63b8ff" d="M536.87,-459.51C570.11,-432.91 664.83,-357.13 712.25,-319.2"/>
<polygon fill="#63b8ff" stroke="#63b8ff" points="714.18,-321.34 719.8,-312.36 709.81,-315.87 714.18,-321.34"/>
</a>
</g>
</g>
<!-- Node35 -->
<g id="Node000035" class="node">
<title>Node35</title>
<g id="a_Node000035"><a xlink:title=" ">
<polygon fill="#e0e0e0" stroke="#999999" points="519.88,-424 482.12,-424 482.12,-404 519.88,-404 519.88,-424"/>
<text text-anchor="middle" x="501" y="-410.5" font-family="Helvetica,sans-Serif" font-size="10.00">array</text>
</a>
</g>
</g>
<!-- Node2&#45;&gt;Node35 -->
<g id="edge56_Node000002_Node000035" class="edge">
<title>Node2&#45;&gt;Node35</title>
<g id="a_edge56_Node000002_Node000035"><a xlink:title=" ">
<path fill="none" stroke="#63b8ff" d="M520.82,-459.59C517.72,-452.63 513.39,-442.89 509.57,-434.29"/>
<polygon fill="#63b8ff" stroke="#63b8ff" points="512.39,-433.01 505.13,-425.3 506,-435.86 512.39,-433.01"/>
</a>
</g>
</g>
<!-- Node36 -->
<g id="Node000036" class="node">
<title>Node36</title>
<g id="a_Node000036"><a xlink:href="../../d2/d62/Unreal_2CarlaUE4_2Plugins_2Carla_2Source_2Carla_2Util_2BoundingBox_8h.html" target="_top" xlink:title=" ">
<polygon fill="white" stroke="#666666" points="823.38,-424 698.62,-424 698.62,-404 823.38,-404 823.38,-424"/>
<text text-anchor="middle" x="761" y="-410.5" font-family="Helvetica,sans-Serif" font-size="10.00">Carla/Util/BoundingBox.h</text>
</a>
</g>
</g>
<!-- Node2&#45;&gt;Node36 -->
<g id="edge58_Node000002_Node000036" class="edge">
<title>Node2&#45;&gt;Node36</title>
<g id="a_edge58_Node000002_Node000036"><a xlink:title=" ">
<path fill="none" stroke="#63b8ff" d="M566.38,-459.53C606.11,-450.44 666.25,-436.68 709.16,-426.86"/>
<polygon fill="#63b8ff" stroke="#63b8ff" points="709.7,-430.1 718.67,-424.46 708.14,-423.28 709.7,-430.1"/>
</a>
</g>
</g>
<!-- Node4 -->
<g id="Node000004" class="node">
<title>Node4</title>
<g id="a_Node000004"><a xlink:href="../../d8/d8a/Exception_8h.html" target="_top" xlink:title=" ">
<polygon fill="white" stroke="#666666" points="344.88,-20 253.12,-20 253.12,0 344.88,0 344.88,-20"/>
<text text-anchor="middle" x="299" y="-6.5" font-family="Helvetica,sans-Serif" font-size="10.00">carla/Exception.h</text>
</a>
</g>
</g>
<!-- Node3&#45;&gt;Node4 -->
<g id="edge3_Node000003_Node000004" class="edge">
<title>Node3&#45;&gt;Node4</title>
<g id="a_edge3_Node000003_Node000004"><a xlink:title=" ">
<path fill="none" stroke="#63b8ff" d="M528.6,-57.26C483.34,-48.14 407.7,-32.9 355.68,-22.42"/>
<polygon fill="#63b8ff" stroke="#63b8ff" points="356.46,-18.81 345.96,-20.26 355.08,-25.67 356.46,-18.81"/>
</a>
</g>
</g>
<!-- Node5 -->
<g id="Node000005" class="node">
<title>Node5</title>
<g id="a_Node000005"><a xlink:title=" ">
<polygon fill="#e0e0e0" stroke="#999999" points="560.38,-20 501.62,-20 501.62,0 560.38,0 560.38,-20"/>
<text text-anchor="middle" x="531" y="-6.5" font-family="Helvetica,sans-Serif" font-size="10.00">stdexcept</text>
</a>
</g>
</g>
<!-- Node3&#45;&gt;Node5 -->
<g id="edge4_Node000003_Node000005" class="edge">
<title>Node3&#45;&gt;Node5</title>
<g id="a_edge4_Node000003_Node000005"><a xlink:title=" ">
<path fill="none" stroke="#63b8ff" d="M560.73,-55.59C555.93,-48.39 549.16,-38.23 543.29,-29.43"/>
<polygon fill="#63b8ff" stroke="#63b8ff" points="545.66,-27.68 537.2,-21.3 539.83,-31.56 545.66,-27.68"/>
</a>
</g>
</g>
<!-- Node6 -->
<g id="Node000006" class="node">
<title>Node6</title>
<g id="a_Node000006"><a xlink:title=" ">
<polygon fill="#e0e0e0" stroke="#999999" points="627.12,-20 578.88,-20 578.88,0 627.12,0 627.12,-20"/>
<text text-anchor="middle" x="603" y="-6.5" font-family="Helvetica,sans-Serif" font-size="10.00">cassert</text>
</a>
</g>
</g>
<!-- Node3&#45;&gt;Node6 -->
<g id="edge5_Node000003_Node000006" class="edge">
<title>Node3&#45;&gt;Node6</title>
<g id="a_edge5_Node000003_Node000006"><a xlink:title=" ">
<path fill="none" stroke="#63b8ff" d="M573.27,-55.59C578.07,-48.39 584.84,-38.23 590.71,-29.43"/>
<polygon fill="#63b8ff" stroke="#63b8ff" points="594.17,-31.56 596.8,-21.3 588.34,-27.68 594.17,-31.56"/>
</a>
</g>
</g>
<!-- Node8 -->
<g id="Node000008" class="node">
<title>Node8</title>
<g id="a_Node000008"><a xlink:href="../../d2/dda/carla_2Buffer_8h.html" target="_top" xlink:title=" ">
<polygon fill="white" stroke="#666666" points="368.5,-132 295.5,-132 295.5,-112 368.5,-112 368.5,-132"/>
<text text-anchor="middle" x="332" y="-118.5" font-family="Helvetica,sans-Serif" font-size="10.00">carla/Buffer.h</text>
</a>
</g>
</g>
<!-- Node7&#45;&gt;Node8 -->
<g id="edge7_Node000007_Node000008" class="edge">
<title>Node7&#45;&gt;Node8</title>
<g id="a_edge7_Node000007_Node000008"><a xlink:title=" ">
<path fill="none" stroke="#63b8ff" d="M247.77,-167.59C263.39,-159.32 286.39,-147.14 304.41,-137.6"/>
<polygon fill="#63b8ff" stroke="#63b8ff" points="305.89,-140.25 313.09,-132.48 302.62,-134.07 305.89,-140.25"/>
</a>
</g>
</g>
<!-- Node17 -->
<g id="Node000017" class="node">
<title>Node17</title>
<g id="a_Node000017"><a xlink:title=" ">
<polygon fill="#e0e0e0" stroke="#999999" points="275.5,-132 184.5,-132 184.5,-112 275.5,-112 275.5,-132"/>
<text text-anchor="middle" x="230" y="-118.5" font-family="Helvetica,sans-Serif" font-size="10.00">rpc/msgpack.hpp</text>
</a>
</g>
</g>
<!-- Node7&#45;&gt;Node17 -->
<g id="edge18_Node000007_Node000017" class="edge">
<title>Node7&#45;&gt;Node17</title>
<g id="a_edge18_Node000007_Node000017"><a xlink:title=" ">
<path fill="none" stroke="#63b8ff" d="M230,-167.59C230,-160.86 230,-151.53 230,-143.15"/>
<polygon fill="#63b8ff" stroke="#63b8ff" points="233.5,-143.3 230,-133.3 226.5,-143.3 233.5,-143.3"/>
</a>
</g>
</g>
<!-- Node8&#45;&gt;Node3 -->
<g id="edge8_Node000008_Node000003" class="edge">
<title>Node8&#45;&gt;Node3</title>
<g id="a_edge8_Node000008_Node000003"><a xlink:title=" ">
<path fill="none" stroke="#63b8ff" d="M368.98,-112.5C409.22,-103.26 473.74,-88.43 518.13,-78.23"/>
<polygon fill="#63b8ff" stroke="#63b8ff" points="518.72,-81.46 527.68,-75.81 517.15,-74.63 518.72,-81.46"/>
</a>
</g>
</g>
<!-- Node8&#45;&gt;Node4 -->
<g id="edge9_Node000008_Node000004" class="edge">
<title>Node8&#45;&gt;Node4</title>
<g id="a_edge9_Node000008_Node000004"><a xlink:title=" ">
<path fill="none" stroke="#63b8ff" d="M295.05,-114.06C291.32,-113.36 287.58,-112.67 284,-112 240.46,-103.92 116.34,-110.02 88,-76 82.31,-69.17 82.41,-62.91 88,-56 92.92,-49.91 181.43,-32.58 242.24,-21.29"/>
<polygon fill="#63b8ff" stroke="#63b8ff" points="242.67,-24.58 251.87,-19.32 241.4,-17.7 242.67,-24.58"/>
</a>
</g>
</g>
<!-- Node9 -->
<g id="Node000009" class="node">
<title>Node9</title>
<g id="a_Node000009"><a xlink:href="../../de/d87/Logging_8h.html" target="_top" xlink:title=" ">
<polygon fill="white" stroke="#666666" points="373,-76 291,-76 291,-56 373,-56 373,-76"/>
<text text-anchor="middle" x="332" y="-62.5" font-family="Helvetica,sans-Serif" font-size="10.00">carla/Logging.h</text>
</a>
</g>
</g>
<!-- Node8&#45;&gt;Node9 -->
<g id="edge10_Node000008_Node000009" class="edge">
<title>Node8&#45;&gt;Node9</title>
<g id="a_edge10_Node000008_Node000009"><a xlink:title=" ">
<path fill="none" stroke="#63b8ff" d="M332,-111.59C332,-104.86 332,-95.53 332,-87.15"/>
<polygon fill="#63b8ff" stroke="#63b8ff" points="335.5,-87.3 332,-77.3 328.5,-87.3 335.5,-87.3"/>
</a>
</g>
</g>
<!-- Node12 -->
<g id="Node000012" class="node">
<title>Node12</title>
<g id="a_Node000012"><a xlink:title=" ">
<polygon fill="#e0e0e0" stroke="#999999" points="203,-76 97,-76 97,-56 203,-56 203,-76"/>
<text text-anchor="middle" x="150" y="-62.5" font-family="Helvetica,sans-Serif" font-size="10.00">boost/asio/buffer.hpp</text>
</a>
</g>
</g>
<!-- Node8&#45;&gt;Node12 -->
<g id="edge13_Node000008_Node000012" class="edge">
<title>Node8&#45;&gt;Node12</title>
<g id="a_edge13_Node000008_Node000012"><a xlink:title=" ">
<path fill="none" stroke="#63b8ff" d="M300.3,-111.59C270.34,-102.71 225.19,-89.31 192.2,-79.52"/>
<polygon fill="#63b8ff" stroke="#63b8ff" points="193.53,-75.97 182.95,-76.48 191.54,-82.68 193.53,-75.97"/>
</a>
</g>
</g>
<!-- Node13 -->
<g id="Node000013" class="node">
<title>Node13</title>
<g id="a_Node000013"><a xlink:title=" ">
<polygon fill="#e0e0e0" stroke="#999999" points="864.62,-76 819.38,-76 819.38,-56 864.62,-56 864.62,-76"/>
<text text-anchor="middle" x="842" y="-62.5" font-family="Helvetica,sans-Serif" font-size="10.00">cstdint</text>
</a>
</g>
</g>
<!-- Node8&#45;&gt;Node13 -->
<g id="edge14_Node000008_Node000013" class="edge">
<title>Node8&#45;&gt;Node13</title>
<g id="a_edge14_Node000008_Node000013"><a xlink:title=" ">
<path fill="none" stroke="#63b8ff" d="M368.68,-117.12C463.63,-107.06 716.43,-80.3 808.15,-70.58"/>
<polygon fill="#63b8ff" stroke="#63b8ff" points="808.44,-73.97 818.01,-69.43 807.7,-67.01 808.44,-73.97"/>
</a>
</g>
</g>
<!-- Node14 -->
<g id="Node000014" class="node">
<title>Node14</title>
<g id="a_Node000014"><a xlink:title=" ">
<polygon fill="#e0e0e0" stroke="#999999" points="510.62,-76 471.38,-76 471.38,-56 510.62,-56 510.62,-76"/>
<text text-anchor="middle" x="491" y="-62.5" font-family="Helvetica,sans-Serif" font-size="10.00">limits</text>
</a>
</g>
</g>
<!-- Node8&#45;&gt;Node14 -->
<g id="edge15_Node000008_Node000014" class="edge">
<title>Node8&#45;&gt;Node14</title>
<g id="a_edge15_Node000008_Node000014"><a xlink:title=" ">
<path fill="none" stroke="#63b8ff" d="M359.7,-111.59C387.94,-102 431.64,-87.16 460.77,-77.27"/>
<polygon fill="#63b8ff" stroke="#63b8ff" points="461.81,-80.27 470.15,-73.74 459.56,-73.64 461.81,-80.27"/>
</a>
</g>
</g>
<!-- Node15 -->
<g id="Node000015" class="node">
<title>Node15</title>
<g id="a_Node000015"><a xlink:title=" ">
<polygon fill="#e0e0e0" stroke="#999999" points="272.62,-76 221.38,-76 221.38,-56 272.62,-56 272.62,-76"/>
<text text-anchor="middle" x="247" y="-62.5" font-family="Helvetica,sans-Serif" font-size="10.00">memory</text>
</a>
</g>
</g>
<!-- Node8&#45;&gt;Node15 -->
<g id="edge16_Node000008_Node000015" class="edge">
<title>Node8&#45;&gt;Node15</title>
<g id="a_edge16_Node000008_Node000015"><a xlink:title=" ">
<path fill="none" stroke="#63b8ff" d="M317.19,-111.59C304.47,-103.51 285.89,-91.71 271.04,-82.27"/>
<polygon fill="#63b8ff" stroke="#63b8ff" points="273.24,-78.89 262.92,-76.48 269.49,-84.8 273.24,-78.89"/>
</a>
</g>
</g>
<!-- Node16 -->
<g id="Node000016" class="node">
<title>Node16</title>
<g id="a_Node000016"><a xlink:title=" ">
<polygon fill="#e0e0e0" stroke="#999999" points="452.88,-76 391.12,-76 391.12,-56 452.88,-56 452.88,-76"/>
<text text-anchor="middle" x="422" y="-62.5" font-family="Helvetica,sans-Serif" font-size="10.00">type_traits</text>
</a>
</g>
</g>
<!-- Node8&#45;&gt;Node16 -->
<g id="edge17_Node000008_Node000016" class="edge">
<title>Node8&#45;&gt;Node16</title>
<g id="a_edge17_Node000008_Node000016"><a xlink:title=" ">
<path fill="none" stroke="#63b8ff" d="M347.68,-111.59C361.27,-103.44 381.2,-91.48 396.99,-82"/>
<polygon fill="#63b8ff" stroke="#63b8ff" points="398.43,-84.63 405.2,-76.48 394.83,-78.62 398.43,-84.63"/>
</a>
</g>
</g>
<!-- Node10 -->
<g id="Node000010" class="node">
<title>Node10</title>
<g id="a_Node000010"><a xlink:href="../../d9/dd0/Platform_8h.html" target="_top" xlink:title=" ">
<polygon fill="white" stroke="#666666" points="447.12,-20 362.88,-20 362.88,0 447.12,0 447.12,-20"/>
<text text-anchor="middle" x="405" y="-6.5" font-family="Helvetica,sans-Serif" font-size="10.00">carla/Platform.h</text>
</a>
</g>
</g>
<!-- Node9&#45;&gt;Node10 -->
<g id="edge11_Node000009_Node000010" class="edge">
<title>Node9&#45;&gt;Node10</title>
<g id="a_edge11_Node000009_Node000010"><a xlink:title=" ">
<path fill="none" stroke="#63b8ff" d="M344.72,-55.59C355.5,-47.62 371.18,-36.02 383.85,-26.64"/>
<polygon fill="#63b8ff" stroke="#63b8ff" points="385.47,-29.06 391.43,-20.3 381.31,-23.43 385.47,-29.06"/>
</a>
</g>
</g>
<!-- Node11 -->
<g id="Node000011" class="node">
<title>Node11</title>
<g id="a_Node000011"><a xlink:title=" ">
<polygon fill="#e0e0e0" stroke="#999999" points="234.75,-20 181.25,-20 181.25,0 234.75,0 234.75,-20"/>
<text text-anchor="middle" x="208" y="-6.5" font-family="Helvetica,sans-Serif" font-size="10.00">iostream</text>
</a>
</g>
</g>
<!-- Node9&#45;&gt;Node11 -->
<g id="edge12_Node000009_Node000011" class="edge">
<title>Node9&#45;&gt;Node11</title>
<g id="a_edge12_Node000009_Node000011"><a xlink:title=" ">
<path fill="none" stroke="#63b8ff" d="M310.4,-55.59C290.87,-47.09 261.87,-34.46 239.72,-24.81"/>
<polygon fill="#63b8ff" stroke="#63b8ff" points="241.33,-21.26 230.77,-20.48 238.54,-27.68 241.33,-21.26"/>
</a>
</g>
</g>
<!-- Node18&#45;&gt;Node7 -->
<g id="edge20_Node000018_Node000007" class="edge">
<title>Node18&#45;&gt;Node7</title>
<g id="a_edge20_Node000018_Node000007"><a xlink:title=" ">
<path fill="none" stroke="#63b8ff" d="M333.58,-408.72C286.61,-403.58 220.3,-392.37 167,-368 130.13,-351.14 112.81,-348.42 95,-312 68.81,-258.44 147.33,-214.07 195.45,-192.71"/>
<polygon fill="#63b8ff" stroke="#63b8ff" points="196.7,-195.55 204.5,-188.39 193.93,-189.12 196.7,-195.55"/>
</a>
</g>
</g>
<!-- Node18&#45;&gt;Node19 -->
<g id="edge21_Node000018_Node000019" class="edge">
<title>Node18&#45;&gt;Node19</title>
<g id="a_edge21_Node000018_Node000019"><a xlink:title=" ">
<path fill="none" stroke="#63b8ff" d="M420,-403.59C445.07,-394.86 482.63,-381.77 510.59,-372.03"/>
<polygon fill="#63b8ff" stroke="#63b8ff" points="511.5,-375.07 519.79,-368.48 509.2,-368.46 511.5,-375.07"/>
</a>
</g>
</g>
<!-- Node23 -->
<g id="Node000023" class="node">
<title>Node23</title>
<g id="a_Node000023"><a xlink:href="../../db/d8a/Math_8h.html" target="_top" xlink:title=" ">
<polygon fill="white" stroke="#666666" points="535.5,-306 438.5,-306 438.5,-286 535.5,-286 535.5,-306"/>
<text text-anchor="middle" x="487" y="-292.5" font-family="Helvetica,sans-Serif" font-size="10.00">carla/geom/Math.h</text>
</a>
</g>
</g>
<!-- Node18&#45;&gt;Node23 -->
<g id="edge43_Node000018_Node000023" class="edge">
<title>Node18&#45;&gt;Node23</title>
<g id="a_edge43_Node000018_Node000023"><a xlink:title=" ">
<path fill="none" stroke="#63b8ff" d="M406.01,-403.65C417.22,-395.18 433.37,-381.93 445,-368 458.44,-351.9 470.25,-330.99 477.9,-316.03"/>
<polygon fill="#63b8ff" stroke="#63b8ff" points="481.39,-317.87 482.69,-307.35 475.11,-314.76 481.39,-317.87"/>
</a>
</g>
</g>
<!-- Node18&#45;&gt;Node25 -->
<g id="edge51_Node000018_Node000025" class="edge">
<title>Node18&#45;&gt;Node25</title>
<g id="a_edge51_Node000018_Node000025"><a xlink:title=" ">
<path fill="none" stroke="#63b8ff" d="M376.92,-403.7C349.92,-388.12 296.49,-357.53 277,-348 254.02,-336.76 227.93,-325.57 205.88,-316.55"/>
<polygon fill="#63b8ff" stroke="#63b8ff" points="207.32,-312.96 196.73,-312.44 204.69,-319.44 207.32,-312.96"/>
</a>
</g>
</g>
<!-- Node18&#45;&gt;Node27 -->
<g id="edge53_Node000018_Node000027" class="edge">
<title>Node18&#45;&gt;Node27</title>
<g id="a_edge53_Node000018_Node000027"><a xlink:title=" ">
<path fill="none" stroke="#63b8ff" d="M452.27,-405.92C497.35,-399.35 560.38,-387.55 613,-368 631.45,-361.14 674.52,-336.31 705.38,-317.94"/>
<polygon fill="#63b8ff" stroke="#63b8ff" points="706.74,-320.61 713.53,-312.47 703.15,-314.6 706.74,-320.61"/>
</a>
</g>
</g>
<!-- Node32 -->
<g id="Node000032" class="node">
<title>Node32</title>
<g id="a_Node000032"><a xlink:href="../../d0/d8f/Rotation_8h.html" target="_top" xlink:title=" ">
<polygon fill="white" stroke="#666666" points="435.62,-368 324.38,-368 324.38,-348 435.62,-348 435.62,-368"/>
<text text-anchor="middle" x="380" y="-354.5" font-family="Helvetica,sans-Serif" font-size="10.00">carla/geom/Rotation.h</text>
</a>
</g>
</g>
<!-- Node18&#45;&gt;Node32 -->
<g id="edge44_Node000018_Node000032" class="edge">
<title>Node18&#45;&gt;Node32</title>
<g id="a_edge44_Node000018_Node000032"><a xlink:title=" ">
<path fill="none" stroke="#63b8ff" d="M390.74,-403.59C389.1,-396.78 386.82,-387.32 384.78,-378.86"/>
<polygon fill="#63b8ff" stroke="#63b8ff" points="387.98,-378.2 382.24,-369.3 381.18,-379.84 387.98,-378.2"/>
</a>
</g>
</g>
<!-- Node34 -->
<g id="Node000034" class="node">
<title>Node34</title>
<g id="a_Node000034"><a xlink:title=" ">
<polygon fill="#e0e0e0" stroke="#999999" points="267.88,-368 176.12,-368 176.12,-348 267.88,-348 267.88,-368"/>
<text text-anchor="middle" x="222" y="-354.5" font-family="Helvetica,sans-Serif" font-size="10.00">Math/Transform.h</text>
</a>
</g>
</g>
<!-- Node18&#45;&gt;Node34 -->
<g id="edge52_Node000018_Node000034" class="edge">
<title>Node18&#45;&gt;Node34</title>
<g id="a_edge52_Node000018_Node000034"><a xlink:title=" ">
<path fill="none" stroke="#63b8ff" d="M363.21,-403.59C335.31,-394.78 293.38,-381.54 262.46,-371.78"/>
<polygon fill="#63b8ff" stroke="#63b8ff" points="263.61,-368.15 253.02,-368.48 261.5,-374.83 263.61,-368.15"/>
</a>
</g>
</g>
<!-- Node19&#45;&gt;Node20 -->
<g id="edge22_Node000019_Node000020" class="edge">
<title>Node19&#45;&gt;Node20</title>
<g id="a_edge22_Node000019_Node000020"><a xlink:title=" ">
<path fill="none" stroke="#63b8ff" d="M518.14,-347.63C493.81,-339.52 458.88,-326.79 430,-312 394.77,-293.96 357.05,-267.74 334.24,-251.03"/>
<polygon fill="#63b8ff" stroke="#63b8ff" points="336.55,-247.64 326.43,-244.5 332.38,-253.26 336.55,-247.64"/>
</a>
</g>
</g>
<!-- Node22 -->
<g id="Node000022" class="node">
<title>Node22</title>
<g id="a_Node000022"><a xlink:href="../../d1/da4/Vector3DInt_8h.html" target="_top" xlink:title=" ">
<polygon fill="white" stroke="#666666" points="649.12,-244 522.88,-244 522.88,-224 649.12,-224 649.12,-244"/>
<text text-anchor="middle" x="586" y="-230.5" font-family="Helvetica,sans-Serif" font-size="10.00">carla/geom/Vector3DInt.h</text>
</a>
</g>
</g>
<!-- Node19&#45;&gt;Node22 -->
<g id="edge26_Node000019_Node000022" class="edge">
<title>Node19&#45;&gt;Node22</title>
<g id="a_edge26_Node000019_Node000022"><a xlink:title=" ">
<path fill="none" stroke="#63b8ff" d="M550.86,-347.83C556.99,-328.14 571.54,-281.42 579.87,-254.68"/>
<polygon fill="#63b8ff" stroke="#63b8ff" points="583.48,-255.86 583.11,-245.28 576.8,-253.78 583.48,-255.86"/>
</a>
</g>
</g>
<!-- Node19&#45;&gt;Node23 -->
<g id="edge30_Node000019_Node000023" class="edge">
<title>Node19&#45;&gt;Node23</title>
<g id="a_edge30_Node000019_Node000023"><a xlink:title=" ">
<path fill="none" stroke="#63b8ff" d="M538.47,-347.62C529.28,-338.59 515.18,-324.72 504.06,-313.78"/>
<polygon fill="#63b8ff" stroke="#63b8ff" points="506.85,-311.63 497.26,-307.11 501.94,-316.62 506.85,-311.63"/>
</a>
</g>
</g>
<!-- Node19&#45;&gt;Node25 -->
<g id="edge36_Node000019_Node000025" class="edge">
<title>Node19&#45;&gt;Node25</title>
<g id="a_edge36_Node000019_Node000025"><a xlink:title=" ">
<path fill="none" stroke="#63b8ff" d="M491.84,-348.4C419.5,-337.33 294.14,-318.14 218.74,-306.6"/>
<polygon fill="#63b8ff" stroke="#63b8ff" points="219.41,-303.01 208.99,-304.96 218.35,-309.93 219.41,-303.01"/>
</a>
</g>
</g>
<!-- Node26 -->
<g id="Node000026" class="node">
<title>Node26</title>
<g id="a_Node000026"><a xlink:title=" ">
<polygon fill="#e0e0e0" stroke="#999999" points="669.75,-306 592.25,-306 592.25,-286 669.75,-286 669.75,-306"/>
<text text-anchor="middle" x="631" y="-292.5" font-family="Helvetica,sans-Serif" font-size="10.00">Math/Vector.h</text>
</a>
</g>
</g>
<!-- Node19&#45;&gt;Node26 -->
<g id="edge37_Node000019_Node000026" class="edge">
<title>Node19&#45;&gt;Node26</title>
<g id="a_edge37_Node000019_Node000026"><a xlink:title=" ">
<path fill="none" stroke="#63b8ff" d="M560.97,-347.62C573.88,-338.29 593.94,-323.79 609.28,-312.7"/>
<polygon fill="#63b8ff" stroke="#63b8ff" points="611.07,-315 617.12,-306.31 606.97,-309.33 611.07,-315"/>
</a>
</g>
</g>
<!-- Node19&#45;&gt;Node27 -->
<g id="edge38_Node000019_Node000027" class="edge">
<title>Node19&#45;&gt;Node27</title>
<g id="a_edge38_Node000019_Node000027"><a xlink:title=" ">
<path fill="none" stroke="#63b8ff" d="M578,-347.62C605.24,-339.11 646.22,-326.31 680.15,-315.7"/>
<polygon fill="#63b8ff" stroke="#63b8ff" points="680.93,-318.81 689.43,-312.49 678.84,-312.13 680.93,-318.81"/>
</a>
</g>
</g>
<!-- Node20&#45;&gt;Node7 -->
<g id="edge23_Node000020_Node000007" class="edge">
<title>Node20&#45;&gt;Node7</title>
<g id="a_edge23_Node000020_Node000007"><a xlink:title=" ">
<path fill="none" stroke="#63b8ff" d="M298.54,-223.59C286.12,-215.51 267.98,-203.71 253.48,-194.27"/>
<polygon fill="#63b8ff" stroke="#63b8ff" points="255.86,-191 245.57,-188.48 252.04,-196.87 255.86,-191"/>
</a>
</g>
</g>
<!-- Node20&#45;&gt;Node14 -->
<g id="edge25_Node000020_Node000014" class="edge">
<title>Node20&#45;&gt;Node14</title>
<g id="a_edge25_Node000020_Node000014"><a xlink:title=" ">
<path fill="none" stroke="#63b8ff" d="M323.08,-223.6C352.08,-196.55 436.04,-118.26 473.08,-83.71"/>
<polygon fill="#63b8ff" stroke="#63b8ff" points="475.1,-86.68 480.03,-77.3 470.33,-81.56 475.1,-86.68"/>
</a>
</g>
</g>
<!-- Node21 -->
<g id="Node000021" class="node">
<title>Node21</title>
<g id="a_Node000021"><a xlink:title=" ">
<polygon fill="#e0e0e0" stroke="#999999" points="500.5,-188 457.5,-188 457.5,-168 500.5,-168 500.5,-188"/>
<text text-anchor="middle" x="479" y="-174.5" font-family="Helvetica,sans-Serif" font-size="10.00">cmath</text>
</a>
</g>
</g>
<!-- Node20&#45;&gt;Node21 -->
<g id="edge24_Node000020_Node000021" class="edge">
<title>Node20&#45;&gt;Node21</title>
<g id="a_edge24_Node000020_Node000021"><a xlink:title=" ">
<path fill="none" stroke="#63b8ff" d="M341.91,-223.59C371.33,-214.03 416.8,-199.23 447.21,-189.34"/>
<polygon fill="#63b8ff" stroke="#63b8ff" points="447.86,-192.48 456.29,-186.06 445.7,-185.83 447.86,-192.48"/>
</a>
</g>
</g>
<!-- Node22&#45;&gt;Node7 -->
<g id="edge27_Node000022_Node000007" class="edge">
<title>Node22&#45;&gt;Node7</title>
<g id="a_edge27_Node000022_Node000007"><a xlink:title=" ">
<path fill="none" stroke="#63b8ff" d="M523.58,-223.53C456.38,-213.34 350.45,-197.27 285.89,-187.48"/>
<polygon fill="#63b8ff" stroke="#63b8ff" points="286.53,-183.88 276.12,-185.84 285.48,-190.8 286.53,-183.88"/>
</a>
</g>
</g>
<!-- Node22&#45;&gt;Node14 -->
<g id="edge29_Node000022_Node000014" class="edge">
<title>Node22&#45;&gt;Node14</title>
<g id="a_edge29_Node000022_Node000014"><a xlink:title=" ">
<path fill="none" stroke="#63b8ff" d="M578.46,-223.65C571.46,-214.76 560.94,-200.86 553,-188 531.6,-153.34 510.88,-110.42 499.64,-86.13"/>
<polygon fill="#63b8ff" stroke="#63b8ff" points="502.53,-85.02 495.18,-77.38 496.16,-87.93 502.53,-85.02"/>
</a>
</g>
</g>
<!-- Node22&#45;&gt;Node21 -->
<g id="edge28_Node000022_Node000021" class="edge">
<title>Node22&#45;&gt;Node21</title>
<g id="a_edge28_Node000022_Node000021"><a xlink:title=" ">
<path fill="none" stroke="#63b8ff" d="M567.36,-223.59C550.82,-215.24 526.39,-202.92 507.41,-193.34"/>
<polygon fill="#63b8ff" stroke="#63b8ff" points="509.29,-189.86 498.78,-188.48 506.13,-196.11 509.29,-189.86"/>
</a>
</g>
</g>
<!-- Node23&#45;&gt;Node3 -->
<g id="edge31_Node000023_Node000003" class="edge">
<title>Node23&#45;&gt;Node3</title>
<g id="a_edge31_Node000023_Node000003"><a xlink:title=" ">
<path fill="none" stroke="#63b8ff" d="M535.71,-287.09C580.88,-278.64 643.28,-263.75 658,-244 689.32,-201.98 608.1,-218.22 586,-188 564.11,-158.07 563.23,-112.77 564.89,-86.93"/>
<polygon fill="#63b8ff" stroke="#63b8ff" points="568.44,-87.51 565.79,-77.25 561.46,-86.92 568.44,-87.51"/>
</a>
</g>
</g>
<!-- Node23&#45;&gt;Node16 -->
<g id="edge34_Node000023_Node000016" class="edge">
<title>Node23&#45;&gt;Node16</title>
<g id="a_edge34_Node000023_Node000016"><a xlink:title=" ">
<path fill="none" stroke="#63b8ff" d="M465.15,-285.6C448.86,-277.28 427.79,-263.42 418,-244 391.87,-192.2 406.45,-120.57 415.91,-86.5"/>
<polygon fill="#63b8ff" stroke="#63b8ff" points="419.5,-87.7 418.97,-77.12 412.78,-85.72 419.5,-87.7"/>
</a>
</g>
</g>
<!-- Node23&#45;&gt;Node20 -->
<g id="edge32_Node000023_Node000020" class="edge">
<title>Node23&#45;&gt;Node20</title>
<g id="a_edge32_Node000023_Node000020"><a xlink:title=" ">
<path fill="none" stroke="#63b8ff" d="M459.81,-285.62C430.4,-275.48 383.32,-259.25 350.42,-247.9"/>
<polygon fill="#63b8ff" stroke="#63b8ff" points="351.88,-244.36 341.28,-244.41 349.6,-250.98 351.88,-244.36"/>
</a>
</g>
</g>
<!-- Node23&#45;&gt;Node21 -->
<g id="edge33_Node000023_Node000021" class="edge">
<title>Node23&#45;&gt;Node21</title>
<g id="a_edge33_Node000023_Node000021"><a xlink:title=" ">
<path fill="none" stroke="#63b8ff" d="M486.35,-285.51C485.05,-266.72 482.13,-224.44 480.39,-199.16"/>
<polygon fill="#63b8ff" stroke="#63b8ff" points="483.82,-199.04 479.64,-189.3 476.84,-199.52 483.82,-199.04"/>
</a>
</g>
</g>
<!-- Node24 -->
<g id="Node000024" class="node">
<title>Node24</title>
<g id="a_Node000024"><a xlink:title=" ">
<polygon fill="#e0e0e0" stroke="#999999" points="466.62,-244 427.38,-244 427.38,-224 466.62,-224 466.62,-244"/>
<text text-anchor="middle" x="447" y="-230.5" font-family="Helvetica,sans-Serif" font-size="10.00">utility</text>
</a>
</g>
</g>
<!-- Node23&#45;&gt;Node24 -->
<g id="edge35_Node000023_Node000024" class="edge">
<title>Node23&#45;&gt;Node24</title>
<g id="a_edge35_Node000023_Node000024"><a xlink:title=" ">
<path fill="none" stroke="#63b8ff" d="M480.75,-285.62C474.96,-276.94 466.2,-263.8 459.05,-253.08"/>
<polygon fill="#63b8ff" stroke="#63b8ff" points="461.53,-251.49 453.08,-245.11 455.71,-255.37 461.53,-251.49"/>
</a>
</g>
</g>
<!-- Node28 -->
<g id="Node000028" class="node">
<title>Node28</title>
<g id="a_Node000028"><a xlink:href="../../d7/d7d/Carla_8h.html" target="_top" xlink:title=" ">
<polygon fill="white" stroke="#666666" points="777.38,-244 730.62,-244 730.62,-224 777.38,-224 777.38,-244"/>
<text text-anchor="middle" x="754" y="-230.5" font-family="Helvetica,sans-Serif" font-size="10.00">Carla.h</text>
</a>
</g>
</g>
<!-- Node27&#45;&gt;Node28 -->
<g id="edge39_Node000027_Node000028" class="edge">
<title>Node27&#45;&gt;Node28</title>
<g id="a_edge39_Node000027_Node000028"><a xlink:title=" ">
<path fill="none" stroke="#63b8ff" d="M743.61,-279.55C745.35,-272.08 747.46,-263.03 749.32,-255.04"/>
<polygon fill="#63b8ff" stroke="#63b8ff" points="752.94,-255.94 751.8,-245.41 746.12,-254.35 752.94,-255.94"/>
</a>
</g>
</g>
<!-- Node29 -->
<g id="Node000029" class="node">
<title>Node29</title>
<g id="a_Node000029"><a xlink:href="../../d4/d57/Unreal_2CarlaUE4_2Plugins_2Carla_2Source_2Carla_2Util_2NonCopyable_8h.html" target="_top" xlink:title=" ">
<polygon fill="white" stroke="#666666" points="694.62,-188 595.38,-188 595.38,-168 694.62,-168 694.62,-188"/>
<text text-anchor="middle" x="645" y="-174.5" font-family="Helvetica,sans-Serif" font-size="10.00">Util/NonCopyable.h</text>
</a>
</g>
</g>
<!-- Node28&#45;&gt;Node29 -->
<g id="edge40_Node000028_Node000029" class="edge">
<title>Node28&#45;&gt;Node29</title>
<g id="a_edge40_Node000028_Node000029"><a xlink:title=" ">
<path fill="none" stroke="#63b8ff" d="M735.01,-223.59C718.16,-215.24 693.28,-202.92 673.94,-193.34"/>
<polygon fill="#63b8ff" stroke="#63b8ff" points="675.65,-189.78 665.13,-188.48 672.54,-196.05 675.65,-189.78"/>
</a>
</g>
</g>
<!-- Node30 -->
<g id="Node000030" class="node">
<title>Node30</title>
<g id="a_Node000030"><a xlink:title=" ">
<polygon fill="#e0e0e0" stroke="#999999" points="821.5,-188 712.5,-188 712.5,-168 821.5,-168 821.5,-188"/>
<text text-anchor="middle" x="767" y="-174.5" font-family="Helvetica,sans-Serif" font-size="10.00">Logging/LogMacros.h</text>
</a>
</g>
</g>
<!-- Node28&#45;&gt;Node30 -->
<g id="edge41_Node000028_Node000030" class="edge">
<title>Node28&#45;&gt;Node30</title>
<g id="a_edge41_Node000028_Node000030"><a xlink:title=" ">
<path fill="none" stroke="#63b8ff" d="M756.26,-223.59C757.9,-216.78 760.18,-207.32 762.22,-198.86"/>
<polygon fill="#63b8ff" stroke="#63b8ff" points="765.82,-199.84 764.76,-189.3 759.02,-198.2 765.82,-199.84"/>
</a>
</g>
</g>
<!-- Node31 -->
<g id="Node000031" class="node">
<title>Node31</title>
<g id="a_Node000031"><a xlink:title=" ">
<polygon fill="#e0e0e0" stroke="#999999" points="972.12,-188 839.88,-188 839.88,-168 972.12,-168 972.12,-188"/>
<text text-anchor="middle" x="906" y="-174.5" font-family="Helvetica,sans-Serif" font-size="10.00">Modules/ModuleInterface.h</text>
</a>
</g>
</g>
<!-- Node28&#45;&gt;Node31 -->
<g id="edge42_Node000028_Node000031" class="edge">
<title>Node28&#45;&gt;Node31</title>
<g id="a_edge42_Node000028_Node000031"><a xlink:title=" ">
<path fill="none" stroke="#63b8ff" d="M777.75,-224.56C802.18,-215.88 840.58,-202.24 869,-192.15"/>
<polygon fill="#63b8ff" stroke="#63b8ff" points="870.1,-195.11 878.35,-188.47 867.75,-188.52 870.1,-195.11"/>
</a>
</g>
</g>
<!-- Node32&#45;&gt;Node7 -->
<g id="edge45_Node000032_Node000007" class="edge">
<title>Node32&#45;&gt;Node7</title>
<g id="a_edge45_Node000032_Node000007"><a xlink:title=" ">
<path fill="none" stroke="#63b8ff" d="M323.98,-349.54C299.41,-343.42 272.27,-332.28 255,-312 227.67,-279.92 226.37,-227.5 228.03,-198.99"/>
<polygon fill="#63b8ff" stroke="#63b8ff" points="231.57,-199.61 228.86,-189.37 224.6,-199.06 231.57,-199.61"/>
</a>
</g>
</g>
<!-- Node32&#45;&gt;Node20 -->
<g id="edge47_Node000032_Node000020" class="edge">
<title>Node32&#45;&gt;Node20</title>
<g id="a_edge47_Node000032_Node000020"><a xlink:title=" ">
<path fill="none" stroke="#63b8ff" d="M378.05,-347.97C374.56,-333.07 366.36,-302.71 353,-280 347.08,-269.94 338.72,-260.1 331.17,-252.2"/>
<polygon fill="#63b8ff" stroke="#63b8ff" points="333.99,-250.07 324.45,-245.47 329.04,-255.02 333.99,-250.07"/>
</a>
</g>
</g>
<!-- Node32&#45;&gt;Node23 -->
<g id="edge46_Node000032_Node000023" class="edge">
<title>Node32&#45;&gt;Node23</title>
<g id="a_edge46_Node000032_Node000023"><a xlink:title=" ">
<path fill="none" stroke="#63b8ff" d="M396.72,-347.62C413.92,-337.98 440.94,-322.83 460.94,-311.61"/>
<polygon fill="#63b8ff" stroke="#63b8ff" points="462.39,-314.25 469.4,-306.31 458.96,-308.15 462.39,-314.25"/>
</a>
</g>
</g>
<!-- Node32&#45;&gt;Node25 -->
<g id="edge48_Node000032_Node000025" class="edge">
<title>Node32&#45;&gt;Node25</title>
<g id="a_edge48_Node000032_Node000025"><a xlink:title=" ">
<path fill="none" stroke="#63b8ff" d="M345,-347.62C311.16,-338.56 259.13,-324.62 218.22,-313.67"/>
<polygon fill="#63b8ff" stroke="#63b8ff" points="219.38,-310.08 208.81,-310.88 217.57,-316.85 219.38,-310.08"/>
</a>
</g>
</g>
<!-- Node32&#45;&gt;Node27 -->
<g id="edge50_Node000032_Node000027" class="edge">
<title>Node32&#45;&gt;Node27</title>
<g id="a_edge50_Node000032_Node000027"><a xlink:title=" ">
<path fill="none" stroke="#63b8ff" d="M435.92,-350.14C493.9,-342.68 587.35,-329.69 676.59,-312.38"/>
<polygon fill="#63b8ff" stroke="#63b8ff" points="677.03,-315.67 686.16,-310.31 675.68,-308.8 677.03,-315.67"/>
</a>
</g>
</g>
<!-- Node33 -->
<g id="Node000033" class="node">
<title>Node33</title>
<g id="a_Node000033"><a xlink:title=" ">
<polygon fill="#e0e0e0" stroke="#999999" points="344.25,-306 263.75,-306 263.75,-286 344.25,-286 344.25,-306"/>
<text text-anchor="middle" x="304" y="-292.5" font-family="Helvetica,sans-Serif" font-size="10.00">Math/Rotator.h</text>
</a>
</g>
</g>
<!-- Node32&#45;&gt;Node33 -->
<g id="edge49_Node000032_Node000033" class="edge">
<title>Node32&#45;&gt;Node33</title>
<g id="a_edge49_Node000032_Node000033"><a xlink:title=" ">
<path fill="none" stroke="#63b8ff" d="M368.12,-347.62C356.34,-338.32 338.07,-323.9 324.04,-312.82"/>
<polygon fill="#63b8ff" stroke="#63b8ff" points="326.56,-309.56 316.54,-306.11 322.22,-315.06 326.56,-309.56"/>
</a>
</g>
</g>
<!-- Node37 -->
<g id="Node000037" class="node">
<title>Node37</title>
<g id="a_Node000037"><a xlink:title=" ">
<polygon fill="#e0e0e0" stroke="#999999" points="825.88,-368 698.12,-368 698.12,-348 825.88,-348 825.88,-368"/>
<text text-anchor="middle" x="762" y="-354.5" font-family="Helvetica,sans-Serif" font-size="10.00">BoundingBox.generated.h</text>
</a>
</g>
</g>
<!-- Node36&#45;&gt;Node37 -->
<g id="edge59_Node000036_Node000037" class="edge">
<title>Node36&#45;&gt;Node37</title>
<g id="a_edge59_Node000036_Node000037"><a xlink:title=" ">
<path fill="none" stroke="#63b8ff" d="M761.17,-403.59C761.3,-396.86 761.47,-387.53 761.63,-379.15"/>
<polygon fill="#63b8ff" stroke="#63b8ff" points="765.14,-379.36 761.83,-369.3 758.14,-379.23 765.14,-379.36"/>
</a>
</g>
</g>
<!-- Node39&#45;&gt;Node13 -->
<g id="edge63_Node000039_Node000013" class="edge">
<title>Node39&#45;&gt;Node13</title>
<g id="a_edge63_Node000039_Node000013"><a xlink:title=" ">
<path fill="none" stroke="#63b8ff" d="M1029.43,-459.61C1032.2,-440.64 1038,-396.39 1038,-359 1038,-359 1038,-359 1038,-177 1038,-103.44 931.72,-78.57 875.68,-70.57"/>
<polygon fill="#63b8ff" stroke="#63b8ff" points="876.24,-66.98 865.87,-69.14 875.32,-73.92 876.24,-66.98"/>
</a>
</g>
</g>
<!-- Node39&#45;&gt;Node40 -->
<g id="edge64_Node000039_Node000040" class="edge">
<title>Node39&#45;&gt;Node40</title>
<g id="a_edge64_Node000039_Node000040"><a xlink:title=" ">
<path fill="none" stroke="#63b8ff" d="M1041.41,-459.59C1052.83,-451.59 1069.45,-439.93 1082.84,-430.54"/>
<polygon fill="#63b8ff" stroke="#63b8ff" points="1084.31,-433.09 1090.48,-424.48 1080.29,-427.36 1084.31,-433.09"/>
</a>
</g>
</g>
</g>
</svg>
