<?xml version="1.0" encoding="UTF-8" standalone="no"?>
<!DOCTYPE svg PUBLIC "-//W3C//DTD SVG 1.1//EN"
 "http://www.w3.org/Graphics/SVG/1.1/DTD/svg11.dtd">
<!-- Generated by graphviz version 8.1.0 (20230707.0739)
 -->
<!-- Title: ALargeMapManager::OnLevelAddedToWorld Pages: 1 -->
<svg width="733pt" height="256pt"
 viewBox="0.00 0.00 733.00 256.00" xmlns="http://www.w3.org/2000/svg" xmlns:xlink="http://www.w3.org/1999/xlink">
<g id="graph0" class="graph" transform="scale(1 1) rotate(0) translate(4 252)">
<title>ALargeMapManager::OnLevelAddedToWorld</title>
<!-- Node1 -->
<g id="Node000001" class="node">
<title>Node1</title>
<g id="a_Node000001"><a xlink:title=" ">
<polygon fill="#999999" stroke="#666666" points="143.5,-140 0,-140 0,-108 143.5,-108 143.5,-140"/>
<text text-anchor="start" x="8" y="-126.5" font-family="Helvetica,sans-Serif" font-size="10.00">ALargeMapManager::OnLevel</text>
<text text-anchor="middle" x="71.75" y="-114.5" font-family="Helvetica,sans-Serif" font-size="10.00">AddedToWorld</text>
</a>
</g>
</g>
<!-- Node2 -->
<g id="Node000002" class="node">
<title>Node2</title>
<g id="a_Node000002"><a xlink:href="../../da/d86/classATagger.html#ad1bff091221672f7af2ba6c02fb99f75" target="_top" xlink:title="设置 level 中每个 actor 的标签。">
<polygon fill="white" stroke="#666666" points="311,-134 179.5,-134 179.5,-114 311,-114 311,-134"/>
<text text-anchor="middle" x="245.25" y="-120.5" font-family="Helvetica,sans-Serif" font-size="10.00">ATagger::TagActorsInLevel</text>
</a>
</g>
</g>
<!-- Node1&#45;&gt;Node2 -->
<g id="edge1_Node000001_Node000002" class="edge">
<title>Node1&#45;&gt;Node2</title>
<g id="a_edge1_Node000001_Node000002"><a xlink:title=" ">
<path fill="none" stroke="#63b8ff" d="M143.99,-124C152.03,-124 160.24,-124 168.33,-124"/>
<polygon fill="#63b8ff" stroke="#63b8ff" points="168.26,-127.5 178.26,-124 168.26,-120.5 168.26,-127.5"/>
</a>
</g>
</g>
<!-- Node3 -->
<g id="Node000003" class="node">
<title>Node3</title>
<g id="a_Node000003"><a xlink:href="../../da/d86/classATagger.html#ad0a7c11b5b6a58abecd4a7b5587eeb6a" target="_top" xlink:title="设置角色的标签。">
<polygon fill="white" stroke="#666666" points="444,-134 347,-134 347,-114 444,-114 444,-134"/>
<text text-anchor="middle" x="395.5" y="-120.5" font-family="Helvetica,sans-Serif" font-size="10.00">ATagger::TagActor</text>
</a>
</g>
</g>
<!-- Node2&#45;&gt;Node3 -->
<g id="edge2_Node000002_Node000003" class="edge">
<title>Node2&#45;&gt;Node3</title>
<g id="a_edge2_Node000002_Node000003"><a xlink:title=" ">
<path fill="none" stroke="#63b8ff" d="M311.27,-124C319.51,-124 327.9,-124 336.03,-124"/>
<polygon fill="#63b8ff" stroke="#63b8ff" points="335.91,-127.5 345.91,-124 335.91,-120.5 335.91,-127.5"/>
</a>
</g>
</g>
<!-- Node4 -->
<g id="Node000004" class="node">
<title>Node4</title>
<g id="a_Node000004"><a xlink:href="../../da/d86/classATagger.html#ad30a07f35f3db9d174589bb8abddd11f" target="_top" xlink:title="获得实例分割中参与者所标注的颜色">
<polygon fill="white" stroke="#666666" points="625,-248 482.25,-248 482.25,-228 625,-228 625,-248"/>
<text text-anchor="middle" x="553.62" y="-234.5" font-family="Helvetica,sans-Serif" font-size="10.00">ATagger::GetActorLabelColor</text>
</a>
</g>
</g>
<!-- Node3&#45;&gt;Node4 -->
<g id="edge3_Node000003_Node000004" class="edge">
<title>Node3&#45;&gt;Node4</title>
<g id="a_edge3_Node000003_Node000004"><a xlink:title=" ">
<path fill="none" stroke="#63b8ff" d="M402.63,-134.39C414.79,-154.05 443.93,-196.75 480,-219 482.51,-220.55 485.15,-221.98 487.87,-223.28"/>
<polygon fill="#63b8ff" stroke="#63b8ff" points="486.43,-226.89 497,-227.54 489.14,-220.44 486.43,-226.89"/>
</a>
</g>
</g>
<!-- Node6 -->
<g id="Node000006" class="node">
<title>Node6</title>
<g id="a_Node000006"><a xlink:href="../../da/d86/classATagger.html#aad05d5a21390b4353006636903dcde06" target="_top" xlink:title="计算特定对象对应的 label 的方法 使用存储它的文件夹路径">
<polygon fill="white" stroke="#666666" points="618.25,-210 489,-210 489,-190 618.25,-190 618.25,-210"/>
<text text-anchor="middle" x="553.62" y="-196.5" font-family="Helvetica,sans-Serif" font-size="10.00">ATagger::GetLabelByPath</text>
</a>
</g>
</g>
<!-- Node3&#45;&gt;Node6 -->
<g id="edge5_Node000003_Node000006" class="edge">
<title>Node3&#45;&gt;Node6</title>
<g id="a_edge5_Node000003_Node000006"><a xlink:title=" ">
<path fill="none" stroke="#63b8ff" d="M408.7,-134.34C424.28,-147.06 452.53,-168.49 480,-181 484.14,-182.88 488.49,-184.61 492.93,-186.18"/>
<polygon fill="#63b8ff" stroke="#63b8ff" points="491.79,-189.81 502.38,-189.57 493.96,-183.16 491.79,-189.81"/>
</a>
</g>
</g>
<!-- Node7 -->
<g id="Node000007" class="node">
<title>Node7</title>
<g id="a_Node000007"><a xlink:href="../../da/d86/classATagger.html#a2b8ab63680928bbd944deecb7e87ec23" target="_top" xlink:title="检索已标记的角色的标记。CityObjectLabel：：None 为 未添加到数组中。">
<polygon fill="white" stroke="#666666" points="617.12,-172 490.12,-172 490.12,-152 617.12,-152 617.12,-172"/>
<text text-anchor="middle" x="553.62" y="-158.5" font-family="Helvetica,sans-Serif" font-size="10.00">ATagger::GetTagAsString</text>
</a>
</g>
</g>
<!-- Node3&#45;&gt;Node7 -->
<g id="edge6_Node000003_Node000007" class="edge">
<title>Node3&#45;&gt;Node7</title>
<g id="a_edge6_Node000003_Node000007"><a xlink:title=" ">
<path fill="none" stroke="#63b8ff" d="M439.58,-134.48C458,-138.97 479.71,-144.25 499.16,-148.99"/>
<polygon fill="#63b8ff" stroke="#63b8ff" points="498.15,-152.59 508.69,-151.55 499.8,-145.78 498.15,-152.59"/>
</a>
</g>
</g>
<!-- Node8 -->
<g id="Node000008" class="node">
<title>Node8</title>
<g id="a_Node000008"><a xlink:href="../../d2/d40/TrafficLightBase_8cpp.html#a1459952e95242b0c926376d0bb4692b8" target="_top" xlink:title=" ">
<polygon fill="white" stroke="#666666" points="716.75,-86 671.5,-86 671.5,-66 716.75,-66 716.75,-86"/>
<text text-anchor="middle" x="694.12" y="-72.5" font-family="Helvetica,sans-Serif" font-size="10.00">IsValid</text>
</a>
</g>
</g>
<!-- Node3&#45;&gt;Node8 -->
<g id="edge7_Node000003_Node000008" class="edge">
<title>Node3&#45;&gt;Node8</title>
<g id="a_edge7_Node000003_Node000008"><a xlink:title=" ">
<path fill="none" stroke="#63b8ff" d="M439.26,-113.51C452.29,-110.51 466.69,-107.42 480,-105 543.47,-93.48 618.34,-84.3 660.31,-79.55"/>
<polygon fill="#63b8ff" stroke="#63b8ff" points="660.69,-82.92 670.24,-78.33 659.91,-75.96 660.69,-82.92"/>
</a>
</g>
</g>
<!-- Node9 -->
<g id="Node000009" class="node">
<title>Node9</title>
<g id="a_Node000009"><a xlink:href="../../d8/d9f/classUTaggedComponent.html#a996f100e6eead478883b85cbb1d54569" target="_top" xlink:title=" ">
<polygon fill="white" stroke="#666666" points="627.25,-58 480,-58 480,-38 627.25,-38 627.25,-58"/>
<text text-anchor="middle" x="553.62" y="-44.5" font-family="Helvetica,sans-Serif" font-size="10.00">UTaggedComponent::SetColor</text>
</a>
</g>
</g>
<!-- Node3&#45;&gt;Node9 -->
<g id="edge8_Node000003_Node000009" class="edge">
<title>Node3&#45;&gt;Node9</title>
<g id="a_edge8_Node000003_Node000009"><a xlink:title=" ">
<path fill="none" stroke="#63b8ff" d="M410.69,-113.7C426.84,-102.32 454.33,-84.03 480,-72 487.95,-68.28 496.64,-64.87 505.15,-61.88"/>
<polygon fill="#63b8ff" stroke="#63b8ff" points="506.03,-64.94 514.39,-58.43 503.8,-58.3 506.03,-64.94"/>
</a>
</g>
</g>
<!-- Node10 -->
<g id="Node000010" class="node">
<title>Node10</title>
<g id="a_Node000010"><a xlink:href="../../da/d86/classATagger.html#ac21f239b285add6402af8245dc2f53cd" target="_top" xlink:title=" ">
<polygon fill="white" stroke="#666666" points="617.5,-134 489.75,-134 489.75,-114 617.5,-114 617.5,-134"/>
<text text-anchor="middle" x="553.62" y="-120.5" font-family="Helvetica,sans-Serif" font-size="10.00">ATagger::SetStencilValue</text>
</a>
</g>
</g>
<!-- Node3&#45;&gt;Node10 -->
<g id="edge10_Node000003_Node000010" class="edge">
<title>Node3&#45;&gt;Node10</title>
<g id="a_edge10_Node000003_Node000010"><a xlink:title=" ">
<path fill="none" stroke="#63b8ff" d="M444.19,-124C455.11,-124 466.96,-124 478.69,-124"/>
<polygon fill="#63b8ff" stroke="#63b8ff" points="478.4,-127.5 488.4,-124 478.4,-120.5 478.4,-127.5"/>
</a>
</g>
</g>
<!-- Node11 -->
<g id="Node000011" class="node">
<title>Node11</title>
<g id="a_Node000011"><a xlink:href="../../d0/d6a/ActorDispatcher_8cpp.html#a69d0a7232310b5ebaa51abb2b9945184" target="_top" xlink:title=" ">
<polygon fill="white" stroke="#666666" points="581.12,-20 526.12,-20 526.12,0 581.12,0 581.12,-20"/>
<text text-anchor="middle" x="553.62" y="-6.5" font-family="Helvetica,sans-Serif" font-size="10.00">UE_LOG</text>
</a>
</g>
</g>
<!-- Node3&#45;&gt;Node11 -->
<g id="edge12_Node000003_Node000011" class="edge">
<title>Node3&#45;&gt;Node11</title>
<g id="a_edge12_Node000003_Node000011"><a xlink:title=" ">
<path fill="none" stroke="#63b8ff" d="M402.63,-113.61C414.79,-93.95 443.93,-51.25 480,-29 490.62,-22.45 503.44,-18.14 515.35,-15.32"/>
<polygon fill="#63b8ff" stroke="#63b8ff" points="515.85,-18.58 524.93,-13.11 514.42,-11.72 515.85,-18.58"/>
</a>
</g>
</g>
<!-- Node5 -->
<g id="Node000005" class="node">
<title>Node5</title>
<g id="a_Node000005"><a xlink:href="../../d2/d35/Tagger_8cpp.html#a71868d020d0298e901136dde7c5a62a5" target="_top" xlink:title=" ">
<polygon fill="white" stroke="#666666" points="725,-143 663.25,-143 663.25,-123 725,-123 725,-143"/>
<text text-anchor="middle" x="694.12" y="-129.5" font-family="Helvetica,sans-Serif" font-size="10.00">CastEnum</text>
</a>
</g>
</g>
<!-- Node4&#45;&gt;Node5 -->
<g id="edge4_Node000004_Node000005" class="edge">
<title>Node4&#45;&gt;Node5</title>
<g id="a_edge4_Node000004_Node000005"><a xlink:title=" ">
<path fill="none" stroke="#63b8ff" d="M610.23,-227.61C616.23,-225.29 622.04,-222.46 627.25,-219 652.48,-202.24 672.04,-172.53 683.07,-152.8"/>
<polygon fill="#63b8ff" stroke="#63b8ff" points="686.55,-154.73 688.18,-144.26 680.37,-151.42 686.55,-154.73"/>
</a>
</g>
</g>
<!-- Node9&#45;&gt;Node8 -->
<g id="edge9_Node000009_Node000008" class="edge">
<title>Node9&#45;&gt;Node8</title>
<g id="a_edge9_Node000009_Node000008"><a xlink:title=" ">
<path fill="none" stroke="#63b8ff" d="M606.2,-58.43C624.44,-62.12 644.45,-66.16 660.66,-69.44"/>
<polygon fill="#63b8ff" stroke="#63b8ff" points="659.71,-73.02 670.21,-71.57 661.1,-66.16 659.71,-73.02"/>
</a>
</g>
</g>
<!-- Node10&#45;&gt;Node5 -->
<g id="edge11_Node000010_Node000005" class="edge">
<title>Node10&#45;&gt;Node5</title>
<g id="a_edge11_Node000010_Node000005"><a xlink:title=" ">
<path fill="none" stroke="#63b8ff" d="M617.8,-128.1C629.44,-128.86 641.32,-129.63 652.1,-130.33"/>
<polygon fill="#63b8ff" stroke="#63b8ff" points="651.68,-133.88 661.88,-131.03 652.13,-126.89 651.68,-133.88"/>
</a>
</g>
</g>
</g>
</svg>
