<?xml version="1.0" encoding="UTF-8" standalone="no"?>
<!DOCTYPE svg PUBLIC "-//W3C//DTD SVG 1.1//EN"
 "http://www.w3.org/Graphics/SVG/1.1/DTD/svg11.dtd">
<!-- Generated by graphviz version 8.1.0 (20230707.0739)
 -->
<!-- Title: ALargeMapManager::IsTileLoaded Pages: 1 -->
<svg width="512pt" height="126pt"
 viewBox="0.00 0.00 512.00 126.00" xmlns="http://www.w3.org/2000/svg" xmlns:xlink="http://www.w3.org/1999/xlink">
<g id="graph0" class="graph" transform="scale(1 1) rotate(0) translate(4 122)">
<title>ALargeMapManager::IsTileLoaded</title>
<!-- Node1 -->
<g id="Node000001" class="node">
<title>Node1</title>
<g id="a_Node000001"><a xlink:title=" ">
<polygon fill="#999999" stroke="#666666" points="504,-66 372.5,-66 372.5,-34 504,-34 504,-66"/>
<text text-anchor="start" x="380.5" y="-52.5" font-family="Helvetica,sans-Serif" font-size="10.00">ALargeMapManager::IsTile</text>
<text text-anchor="middle" x="438.25" y="-40.5" font-family="Helvetica,sans-Serif" font-size="10.00">Loaded</text>
</a>
</g>
</g>
<!-- Node2 -->
<g id="Node000002" class="node">
<title>Node2</title>
<g id="a_Node000002"><a xlink:href="../../d9/d4b/classALargeMapManager.html#a4d5cd9f2685df9c0b4b7f0bb1e438d51" target="_top" xlink:title=" ">
<polygon fill="white" stroke="#666666" points="331.25,-100 168.25,-100 168.25,-68 331.25,-68 331.25,-100"/>
<text text-anchor="start" x="176.25" y="-86.5" font-family="Helvetica,sans-Serif" font-size="10.00">ALargeMapManager::CheckActive</text>
<text text-anchor="middle" x="249.75" y="-74.5" font-family="Helvetica,sans-Serif" font-size="10.00">Actors</text>
</a>
</g>
</g>
<!-- Node1&#45;&gt;Node2 -->
<g id="edge1_Node000001_Node000002" class="edge">
<title>Node1&#45;&gt;Node2</title>
<g id="a_edge1_Node000001_Node000002"><a xlink:title=" ">
<path fill="none" stroke="#63b8ff" d="M361.49,-63.81C351.67,-65.6 341.59,-67.44 331.69,-69.24"/>
<polygon fill="#63b8ff" stroke="#63b8ff" points="361.81,-67.13 371.02,-61.89 360.56,-60.24 361.81,-67.13"/>
</a>
</g>
</g>
<!-- Node4 -->
<g id="Node000004" class="node">
<title>Node4</title>
<g id="a_Node000004"><a xlink:href="../../d9/d4b/classALargeMapManager.html#a3726918078acb9facd89c80060c19bd5" target="_top" xlink:title=" ">
<polygon fill="white" stroke="#666666" points="336.5,-32 163,-32 163,0 336.5,0 336.5,-32"/>
<text text-anchor="start" x="171" y="-18.5" font-family="Helvetica,sans-Serif" font-size="10.00">ALargeMapManager::CheckDormant</text>
<text text-anchor="middle" x="249.75" y="-6.5" font-family="Helvetica,sans-Serif" font-size="10.00">Actors</text>
</a>
</g>
</g>
<!-- Node1&#45;&gt;Node4 -->
<g id="edge4_Node000001_Node000004" class="edge">
<title>Node1&#45;&gt;Node4</title>
<g id="a_edge4_Node000001_Node000004"><a xlink:title=" ">
<path fill="none" stroke="#63b8ff" d="M361.23,-36.14C353.22,-34.68 345.03,-33.19 336.92,-31.71"/>
<polygon fill="#63b8ff" stroke="#63b8ff" points="360.56,-39.76 371.02,-38.11 361.81,-32.87 360.56,-39.76"/>
</a>
</g>
</g>
<!-- Node2&#45;&gt;Node2 -->
<g id="edge2_Node000002_Node000002" class="edge">
<title>Node2&#45;&gt;Node2</title>
<g id="a_edge2_Node000002_Node000002"><a xlink:title=" ">
<path fill="none" stroke="#63b8ff" d="M281.62,-111.05C276.78,-115.19 266.15,-118 249.75,-118 221.38,-118 210.29,-109.58 216.5,-100.44"/>
<polygon fill="#63b8ff" stroke="#63b8ff" points="285.18,-111.81 283,-101.44 278.24,-110.91 285.18,-111.81"/>
</a>
</g>
</g>
<!-- Node3 -->
<g id="Node000003" class="node">
<title>Node3</title>
<g id="a_Node000003"><a xlink:href="../../d9/d4b/classALargeMapManager.html#aa8b88f7b5c296ff148be41becbd67201" target="_top" xlink:title=" ">
<polygon fill="white" stroke="#666666" points="127,-60 0,-60 0,-40 127,-40 127,-60"/>
<text text-anchor="middle" x="63.5" y="-46.5" font-family="Helvetica,sans-Serif" font-size="10.00">ALargeMapManager::Tick</text>
</a>
</g>
</g>
<!-- Node2&#45;&gt;Node3 -->
<g id="edge3_Node000002_Node000003" class="edge">
<title>Node2&#45;&gt;Node3</title>
<g id="a_edge3_Node000002_Node000003"><a xlink:title=" ">
<path fill="none" stroke="#63b8ff" d="M157.18,-67.1C144.9,-64.84 132.62,-62.57 121.19,-60.46"/>
<polygon fill="#63b8ff" stroke="#63b8ff" points="156.47,-70.71 166.94,-69.09 157.74,-63.83 156.47,-70.71"/>
</a>
</g>
</g>
<!-- Node4&#45;&gt;Node3 -->
<g id="edge6_Node000004_Node000003" class="edge">
<title>Node4&#45;&gt;Node3</title>
<g id="a_edge6_Node000004_Node000003"><a xlink:title=" ">
<path fill="none" stroke="#63b8ff" d="M152.01,-33.85C141.46,-35.8 131,-37.73 121.17,-39.54"/>
<polygon fill="#63b8ff" stroke="#63b8ff" points="152.36,-37.16 161.56,-31.9 151.09,-30.28 152.36,-37.16"/>
</a>
</g>
</g>
<!-- Node4&#45;&gt;Node4 -->
<g id="edge5_Node000004_Node000004" class="edge">
<title>Node4&#45;&gt;Node4</title>
<g id="a_edge5_Node000004_Node000004"><a xlink:title=" ">
<path fill="none" stroke="#63b8ff" d="M281.62,-43.05C276.78,-47.19 266.15,-50 249.75,-50 221.38,-50 210.29,-41.58 216.5,-32.44"/>
<polygon fill="#63b8ff" stroke="#63b8ff" points="285.18,-43.81 283,-33.44 278.24,-42.91 285.18,-43.81"/>
</a>
</g>
</g>
</g>
</svg>
