<?xml version="1.0" encoding="UTF-8" standalone="no"?>
<!DOCTYPE svg PUBLIC "-//W3C//DTD SVG 1.1//EN"
 "http://www.w3.org/Graphics/SVG/1.1/DTD/svg11.dtd">
<!-- Generated by graphviz version 8.1.0 (20230707.0739)
 -->
<!-- Title: ALargeMapManager::CheckDormantActors Pages: 1 -->
<!--zoomable 204 -->

<svg id="main" version="1.1" xmlns="http://www.w3.org/2000/svg" xmlns:xlink="http://www.w3.org/1999/xlink" xml:space="preserve" onload="init(evt)">
<style type="text/css"><![CDATA[
.node, .edge {opacity: 0.7;}
.node.selected, .edge.selected {opacity: 1;}
.edge:hover path { stroke: red; }
.edge:hover polygon { stroke: red; fill: red; }
]]></style>

<defs>
  <circle id="rim" cx="0" cy="0" r="7"/>
  <circle id="rim2" cx="0" cy="0" r="3.5"/>
  <g id="zoomPlus">
    <use xlink:href="#rim" fill="#404040"><set attributeName="fill" to="#808080" begin="zoomplus.mouseover" end="zoomplus.mouseout"/></use>
    <path d="M-4,0h8M0,-4v8" fill="none" stroke="white" stroke-width="1.5" pointer-events="none"/>
  </g>
  <g id="zoomMin">
    <use xlink:href="#rim" fill="#404040"><set attributeName="fill" to="#808080" begin="zoomminus.mouseover" end="zoomminus.mouseout"/></use>
    <path d="M-4,0h8" fill="none" stroke="white" stroke-width="1.5" pointer-events="none"/>
  </g>
  <g id="arrowUp" transform="translate(30 24)">
    <use xlink:href="#rim"/>
    <path pointer-events="none" fill="none" stroke="white" stroke-width="1.5" d="M0,-3.0v7 M-2.5,-0.5L0,-3.0L2.5,-0.5"/>
  </g>
  <g id="arrowRight" transform="rotate(90) translate(36 -43)">
    <use xlink:href="#rim"/>
    <path pointer-events="none" fill="none" stroke="white" stroke-width="1.5" d="M0,-3.0v7 M-2.5,-0.5L0,-3.0L2.5,-0.5"/>
  </g>
  <g id="arrowDown" transform="rotate(180) translate(-30 -48)">
    <use xlink:href="#rim"/>
    <path pointer-events="none" fill="none" stroke="white" stroke-width="1.5" d="M0,-3.0v7 M-2.5,-0.5L0,-3.0L2.5,-0.5"/>
  </g>
  <g id="arrowLeft" transform="rotate(270) translate(-36 17)">
    <use xlink:href="#rim"/>
    <path pointer-events="none" fill="none" stroke="white" stroke-width="1.5" d="M0,-3.0v7 M-2.5,-0.5L0,-3.0L2.5,-0.5"/>
  </g>
  <g id="resetDef">
    <use xlink:href="#rim2" fill="#404040"><set attributeName="fill" to="#808080" begin="reset.mouseover" end="reset.mouseout"/></use>
  </g>
</defs>
<script type="application/ecmascript">
var viewWidth = 547;
var viewHeight = 204;
var sectionId = 'dynsection-5';
</script>
<script type="application/ecmascript" xlink:href="../../svg.min.js"/>
<svg id="graph" class="graph">
<g id="viewport">
<title>ALargeMapManager::CheckDormantActors</title>
<!-- Node1 -->
<g id="Node000001" class="node">
<title>Node1</title>
<g id="a_Node000001"><a xlink:title=" ">
<polygon fill="#999999" stroke="#666666" points="173.5,-120 0,-120 0,-88 173.5,-88 173.5,-120"/>
<text text-anchor="start" x="8" y="-106.5" font-family="Helvetica,sans-Serif" font-size="10.00">ALargeMapManager::CheckDormant</text>
<text text-anchor="middle" x="86.75" y="-94.5" font-family="Helvetica,sans-Serif" font-size="10.00">Actors</text>
</a>
</g>
</g>
<!-- Node1&#45;&gt;Node1 -->
<g id="edge1_Node000001_Node000001" class="edge">
<title>Node1&#45;&gt;Node1</title>
<g id="a_edge1_Node000001_Node000001"><a xlink:title=" ">
<path fill="none" stroke="#63b8ff" d="M52.96,-120.44C46.66,-129.58 57.92,-138 86.75,-138 103.42,-138 114.21,-135.19 119.14,-131.05"/>
<polygon fill="#63b8ff" stroke="#63b8ff" points="122.7,-131.81 120.54,-121.44 115.76,-130.9 122.7,-131.81"/>
</a>
</g>
</g>
<!-- Node2 -->
<g id="Node000002" class="node">
<title>Node2</title>
<g id="a_Node000002"><a xlink:href="../../dc/dde/classFCarlaActor.html#a91773d7762150f11081c48d558bd0764" target="_top" xlink:title=" ">
<polygon fill="white" stroke="#666666" points="342.5,-196 209.5,-196 209.5,-176 342.5,-176 342.5,-196"/>
<text text-anchor="middle" x="276" y="-182.5" font-family="Helvetica,sans-Serif" font-size="10.00">FCarlaActor::GetActorData</text>
</a>
</g>
</g>
<!-- Node1&#45;&gt;Node2 -->
<g id="edge2_Node000001_Node000002" class="edge">
<title>Node1&#45;&gt;Node2</title>
<g id="a_edge2_Node000001_Node000002"><a xlink:title=" ">
<path fill="none" stroke="#63b8ff" d="M115.55,-120.38C139.76,-134.15 176.13,-153.67 209.5,-167 214.2,-168.88 219.16,-170.66 224.16,-172.32"/>
<polygon fill="#63b8ff" stroke="#63b8ff" points="222.81,-175.88 233.4,-175.56 224.92,-169.21 222.81,-175.88"/>
</a>
</g>
</g>
<!-- Node3 -->
<g id="Node000003" class="node">
<title>Node3</title>
<g id="a_Node000003"><a xlink:href="../../dc/dde/classFCarlaActor.html#aca3d1a4bfcb5e0ae1974b7206933d665" target="_top" xlink:title=" ">
<polygon fill="white" stroke="#666666" points="336.12,-158 215.88,-158 215.88,-138 336.12,-138 336.12,-158"/>
<text text-anchor="middle" x="276" y="-144.5" font-family="Helvetica,sans-Serif" font-size="10.00">FCarlaActor::GetActorId</text>
</a>
</g>
</g>
<!-- Node1&#45;&gt;Node3 -->
<g id="edge3_Node000001_Node000003" class="edge">
<title>Node1&#45;&gt;Node3</title>
<g id="a_edge3_Node000001_Node000003"><a xlink:title=" ">
<path fill="none" stroke="#63b8ff" d="M157.74,-120.45C178.25,-125.27 200.38,-130.47 219.83,-135.04"/>
<polygon fill="#63b8ff" stroke="#63b8ff" points="218.79,-138.62 229.33,-137.5 220.4,-131.81 218.79,-138.62"/>
</a>
</g>
</g>
<!-- Node4 -->
<g id="Node000004" class="node">
<title>Node4</title>
<g id="a_Node000004"><a xlink:href="../../d7/d1e/classUCarlaStatics.html#a83f2a341e32413abf1ec85ee740c2036" target="_top" xlink:title=" ">
<polygon fill="white" stroke="#666666" points="340.62,-120 211.38,-120 211.38,-88 340.62,-88 340.62,-120"/>
<text text-anchor="start" x="219.38" y="-106.5" font-family="Helvetica,sans-Serif" font-size="10.00">UCarlaStatics::GetCurrent</text>
<text text-anchor="middle" x="276" y="-94.5" font-family="Helvetica,sans-Serif" font-size="10.00">Episode</text>
</a>
</g>
</g>
<!-- Node1&#45;&gt;Node4 -->
<g id="edge4_Node000001_Node000004" class="edge">
<title>Node1&#45;&gt;Node4</title>
<g id="a_edge4_Node000001_Node000004"><a xlink:title=" ">
<path fill="none" stroke="#63b8ff" d="M173.98,-104C182.75,-104 191.61,-104 200.25,-104"/>
<polygon fill="#63b8ff" stroke="#63b8ff" points="200.05,-107.5 210.05,-104 200.05,-100.5 200.05,-107.5"/>
</a>
</g>
</g>
<!-- Node6 -->
<g id="Node000006" class="node">
<title>Node6</title>
<g id="a_Node000006"><a xlink:href="../../dc/dde/classFCarlaActor.html#a49f76353c69e02542858ed2cf6eeb000" target="_top" xlink:title=" ">
<polygon fill="white" stroke="#666666" points="335,-70 217,-70 217,-50 335,-50 335,-70"/>
<text text-anchor="middle" x="276" y="-56.5" font-family="Helvetica,sans-Serif" font-size="10.00">FCarlaActor::IsDormant</text>
</a>
</g>
</g>
<!-- Node1&#45;&gt;Node6 -->
<g id="edge6_Node000001_Node000006" class="edge">
<title>Node1&#45;&gt;Node6</title>
<g id="a_edge6_Node000001_Node000006"><a xlink:title=" ">
<path fill="none" stroke="#63b8ff" d="M157.74,-87.55C178.25,-82.73 200.38,-77.53 219.83,-72.96"/>
<polygon fill="#63b8ff" stroke="#63b8ff" points="220.4,-76.19 229.33,-70.5 218.79,-69.38 220.4,-76.19"/>
</a>
</g>
</g>
<!-- Node7 -->
<g id="Node000007" class="node">
<title>Node7</title>
<g id="a_Node000007"><a xlink:href="../../d9/d4b/classALargeMapManager.html#a8bfcd0707445690c3ab8346e63deef75" target="_top" xlink:title=" ">
<polygon fill="white" stroke="#666666" points="341.75,-32 210.25,-32 210.25,0 341.75,0 341.75,-32"/>
<text text-anchor="start" x="218.25" y="-18.5" font-family="Helvetica,sans-Serif" font-size="10.00">ALargeMapManager::IsTile</text>
<text text-anchor="middle" x="276" y="-6.5" font-family="Helvetica,sans-Serif" font-size="10.00">Loaded</text>
</a>
</g>
</g>
<!-- Node1&#45;&gt;Node7 -->
<g id="edge7_Node000001_Node000007" class="edge">
<title>Node1&#45;&gt;Node7</title>
<g id="a_edge7_Node000001_Node000007"><a xlink:title=" ">
<path fill="none" stroke="#63b8ff" d="M117.31,-87.51C141.68,-74.2 177.35,-55.4 209.5,-41 212.88,-39.49 216.38,-37.98 219.93,-36.5"/>
<polygon fill="#63b8ff" stroke="#63b8ff" points="221.03,-39.42 228.98,-32.41 218.4,-32.94 221.03,-39.42"/>
</a>
</g>
</g>
<!-- Node5 -->
<g id="Node000005" class="node">
<title>Node5</title>
<g id="a_Node000005"><a xlink:href="../../d7/d1e/classUCarlaStatics.html#a35e7cb760a58848081a618e7fa8201e2" target="_top" xlink:title=" ">
<polygon fill="white" stroke="#666666" points="539.25,-114 378.5,-114 378.5,-94 539.25,-94 539.25,-114"/>
<text text-anchor="middle" x="458.88" y="-100.5" font-family="Helvetica,sans-Serif" font-size="10.00">UCarlaStatics::GetGameInstance</text>
</a>
</g>
</g>
<!-- Node4&#45;&gt;Node5 -->
<g id="edge5_Node000004_Node000005" class="edge">
<title>Node4&#45;&gt;Node5</title>
<g id="a_edge5_Node000004_Node000005"><a xlink:title=" ">
<path fill="none" stroke="#63b8ff" d="M341.02,-104C349.55,-104 358.42,-104 367.29,-104"/>
<polygon fill="#63b8ff" stroke="#63b8ff" points="367.09,-107.5 377.09,-104 367.09,-100.5 367.09,-107.5"/>
</a>
</g>
</g>
</g>
</svg>

<g id="navigator" transform="translate(0 0)" fill="#404254">
  <rect fill="#f2f5e9" fill-opacity="0.5" stroke="#606060" stroke-width=".5" x="0" y="0" width="60" height="60"/>
  <use id="zoomplus" xlink:href="#zoomPlus" x="17" y="9" onmousedown="handleZoom(evt,'in')"/>
  <use id="zoomminus" xlink:href="#zoomMin" x="42" y="9" onmousedown="handleZoom(evt,'out')"/>
  <use id="reset" xlink:href="#resetDef" x="30" y="36" onmousedown="handleReset()"/>
   <use id="arrowup" xlink:href="#arrowUp" x="0" y="0" onmousedown="handlePan(0,-1)"/>
  <use id="arrowright" xlink:href="#arrowRight" x="0" y="0" onmousedown="handlePan(1,0)"/>
  <use id="arrowdown" xlink:href="#arrowDown" x="0" y="0" onmousedown="handlePan(0,1)"/>
  <use id="arrowleft" xlink:href="#arrowLeft" x="0" y="0" onmousedown="handlePan(-1,0)"/>
</g>
<svg viewBox="0 0 15 15" width="100%" height="30px" preserveAspectRatio="xMaxYMin meet">
 <g id="arrow_out" transform="scale(0.3 0.3)">
  <a xlink:href="classALargeMapManager_a3726918078acb9facd89c80060c19bd5_cgraph_org.svg" target="_base">
   <rect id="button" ry="5" rx="5" y="6" x="6" height="38" width="38"
        fill="#f2f5e9" fill-opacity="0.5" stroke="#606060" stroke-width="1.0"/>
   <path id="arrow"
     d="M 11.500037,31.436501 C 11.940474,20.09759 22.043105,11.32322 32.158766,21.979434 L 37.068811,17.246167 C 37.068811,17.246167 37.088388,32 37.088388,32 L 22.160133,31.978069 C 22.160133,31.978069 26.997745,27.140456 26.997745,27.140456 C 18.528582,18.264221 13.291696,25.230495 11.500037,31.436501 z"
     style="fill:#404040;"/>
  </a>
 </g>
</svg>

<style type='text/css'>
<![CDATA[
[data-mouse-over-selected='false'] { opacity: 0.7; }
[data-mouse-over-selected='true']  { opacity: 1.0; }
]]>
</style>
<script type="application/ecmascript"><![CDATA[
document.addEventListener('DOMContentLoaded', (event) => {
  highlightEdges();
  highlightAdjacentNodes();
});
]]></script>
</svg>
