<?xml version="1.0" encoding="UTF-8" standalone="no"?>
<!DOCTYPE svg PUBLIC "-//W3C//DTD SVG 1.1//EN"
 "http://www.w3.org/Graphics/SVG/1.1/DTD/svg11.dtd">
<!-- Generated by graphviz version 8.1.0 (20230707.0739)
 -->
<!-- Title: UChronoMovementComponent::DisableSpecialPhysics Pages: 1 -->
<!--zoomable 305 -->

<svg id="main" version="1.1" xmlns="http://www.w3.org/2000/svg" xmlns:xlink="http://www.w3.org/1999/xlink" xml:space="preserve" onload="init(evt)">
<style type="text/css"><![CDATA[
.node, .edge {opacity: 0.7;}
.node.selected, .edge.selected {opacity: 1;}
.edge:hover path { stroke: red; }
.edge:hover polygon { stroke: red; fill: red; }
]]></style>

<defs>
  <circle id="rim" cx="0" cy="0" r="7"/>
  <circle id="rim2" cx="0" cy="0" r="3.5"/>
  <g id="zoomPlus">
    <use xlink:href="#rim" fill="#404040"><set attributeName="fill" to="#808080" begin="zoomplus.mouseover" end="zoomplus.mouseout"/></use>
    <path d="M-4,0h8M0,-4v8" fill="none" stroke="white" stroke-width="1.5" pointer-events="none"/>
  </g>
  <g id="zoomMin">
    <use xlink:href="#rim" fill="#404040"><set attributeName="fill" to="#808080" begin="zoomminus.mouseover" end="zoomminus.mouseout"/></use>
    <path d="M-4,0h8" fill="none" stroke="white" stroke-width="1.5" pointer-events="none"/>
  </g>
  <g id="arrowUp" transform="translate(30 24)">
    <use xlink:href="#rim"/>
    <path pointer-events="none" fill="none" stroke="white" stroke-width="1.5" d="M0,-3.0v7 M-2.5,-0.5L0,-3.0L2.5,-0.5"/>
  </g>
  <g id="arrowRight" transform="rotate(90) translate(36 -43)">
    <use xlink:href="#rim"/>
    <path pointer-events="none" fill="none" stroke="white" stroke-width="1.5" d="M0,-3.0v7 M-2.5,-0.5L0,-3.0L2.5,-0.5"/>
  </g>
  <g id="arrowDown" transform="rotate(180) translate(-30 -48)">
    <use xlink:href="#rim"/>
    <path pointer-events="none" fill="none" stroke="white" stroke-width="1.5" d="M0,-3.0v7 M-2.5,-0.5L0,-3.0L2.5,-0.5"/>
  </g>
  <g id="arrowLeft" transform="rotate(270) translate(-36 17)">
    <use xlink:href="#rim"/>
    <path pointer-events="none" fill="none" stroke="white" stroke-width="1.5" d="M0,-3.0v7 M-2.5,-0.5L0,-3.0L2.5,-0.5"/>
  </g>
  <g id="resetDef">
    <use xlink:href="#rim2" fill="#404040"><set attributeName="fill" to="#808080" begin="reset.mouseover" end="reset.mouseout"/></use>
  </g>
</defs>
<script type="application/ecmascript">
var viewWidth = 1923;
var viewHeight = 305;
var sectionId = 'dynsection-6';
</script>
<script type="application/ecmascript" xlink:href="../../svg.min.js"/>
<svg id="graph" class="graph">
<g id="viewport">
<title>UChronoMovementComponent::DisableSpecialPhysics</title>
<!-- Node1 -->
<g id="Node000001" class="node">
<title>Node1</title>
<g id="a_Node000001"><a xlink:title=" ">
<polygon fill="#999999" stroke="#666666" points="147.25,-98 0,-98 0,-66 147.25,-66 147.25,-98"/>
<text text-anchor="start" x="8" y="-84.5" font-family="Helvetica,sans-Serif" font-size="10.00">UChronoMovementComponent</text>
<text text-anchor="middle" x="73.62" y="-72.5" font-family="Helvetica,sans-Serif" font-size="10.00">::DisableSpecialPhysics</text>
</a>
</g>
</g>
<!-- Node2 -->
<g id="Node000002" class="node">
<title>Node2</title>
<g id="a_Node000002"><a xlink:href="../../dd/d96/classUChronoMovementComponent.html#a856b9866205a366212dcb5ba6bac0983" target="_top" xlink:title=" ">
<polygon fill="white" stroke="#666666" points="330.5,-98 183.25,-98 183.25,-66 330.5,-66 330.5,-98"/>
<text text-anchor="start" x="191.25" y="-84.5" font-family="Helvetica,sans-Serif" font-size="10.00">UChronoMovementComponent</text>
<text text-anchor="middle" x="256.88" y="-72.5" font-family="Helvetica,sans-Serif" font-size="10.00">::DisableChronoPhysics</text>
</a>
</g>
</g>
<!-- Node1&#45;&gt;Node2 -->
<g id="edge1_Node000001_Node000002" class="edge">
<title>Node1&#45;&gt;Node2</title>
<g id="a_edge1_Node000001_Node000002"><a xlink:title=" ">
<path fill="none" stroke="#63b8ff" d="M147.56,-82C155.54,-82 163.71,-82 171.81,-82"/>
<polygon fill="#63b8ff" stroke="#63b8ff" points="171.79,-85.5 181.79,-82 171.79,-78.5 171.79,-85.5"/>
</a>
</g>
</g>
<!-- Node3 -->
<g id="Node000003" class="node">
<title>Node3</title>
<g id="a_Node000003"><a xlink:href="../../db/d10/classUDefaultMovementComponent.html#ae4d4da445db2f8e8abacaf22c5070277" target="_top" xlink:title=" ">
<polygon fill="white" stroke="#666666" points="540.75,-198 366.5,-198 366.5,-166 540.75,-166 540.75,-198"/>
<text text-anchor="start" x="374.5" y="-184.5" font-family="Helvetica,sans-Serif" font-size="10.00">UDefaultMovementComponent</text>
<text text-anchor="middle" x="453.62" y="-172.5" font-family="Helvetica,sans-Serif" font-size="10.00">::CreateDefaultMovementComponent</text>
</a>
</g>
</g>
<!-- Node2&#45;&gt;Node3 -->
<g id="edge2_Node000002_Node000003" class="edge">
<title>Node2&#45;&gt;Node3</title>
<g id="a_edge2_Node000002_Node000003"><a xlink:title=" ">
<path fill="none" stroke="#63b8ff" d="M277.49,-98.47C298.37,-115.27 332.96,-141.07 366.5,-157 370.09,-158.7 373.81,-160.32 377.62,-161.84"/>
<polygon fill="#63b8ff" stroke="#63b8ff" points="376.23,-165.43 386.82,-165.66 378.68,-158.87 376.23,-165.43"/>
</a>
</g>
</g>
<!-- Node4 -->
<g id="Node000004" class="node">
<title>Node4</title>
<g id="a_Node000004"><a xlink:href="../../d2/d48/classUBaseCarlaMovementComponent.html#ac579e7fcca58d6d306b9959861db99c4" target="_top" xlink:title=" ">
<polygon fill="white" stroke="#666666" points="534.38,-148 372.88,-148 372.88,-116 534.38,-116 534.38,-148"/>
<text text-anchor="start" x="380.88" y="-134.5" font-family="Helvetica,sans-Serif" font-size="10.00">UBaseCarlaMovementComponent</text>
<text text-anchor="middle" x="453.62" y="-122.5" font-family="Helvetica,sans-Serif" font-size="10.00">::EnableUE4VehiclePhysics</text>
</a>
</g>
</g>
<!-- Node2&#45;&gt;Node4 -->
<g id="edge3_Node000002_Node000004" class="edge">
<title>Node2&#45;&gt;Node4</title>
<g id="a_edge3_Node000002_Node000004"><a xlink:title=" ">
<path fill="none" stroke="#63b8ff" d="M321.91,-98.44C339.88,-103.05 359.58,-108.11 378.1,-112.87"/>
<polygon fill="#63b8ff" stroke="#63b8ff" points="376.99,-116.45 387.55,-115.55 378.73,-109.67 376.99,-116.45"/>
</a>
</g>
</g>
<!-- Node22 -->
<g id="Node000022" class="node">
<title>Node22</title>
<g id="a_Node000022"><a xlink:href="../../dd/d96/classUChronoMovementComponent.html#a5bf531862d814571930b4950ebc11db9" target="_top" xlink:title=" ">
<polygon fill="white" stroke="#666666" points="527.25,-98 380,-98 380,-66 527.25,-66 527.25,-98"/>
<text text-anchor="start" x="388" y="-84.5" font-family="Helvetica,sans-Serif" font-size="10.00">UChronoMovementComponent</text>
<text text-anchor="middle" x="453.62" y="-72.5" font-family="Helvetica,sans-Serif" font-size="10.00">::OnVehicleHit</text>
</a>
</g>
</g>
<!-- Node2&#45;&gt;Node22 -->
<g id="edge25_Node000002_Node000022" class="edge">
<title>Node2&#45;&gt;Node22</title>
<g id="a_edge25_Node000002_Node000022"><a xlink:title=" ">
<path fill="none" stroke="#63b8ff" d="M330.95,-75.44C343.3,-75.24 356.21,-75.2 368.82,-75.31"/>
<polygon fill="#63b8ff" stroke="#63b8ff" points="368.75,-78.82 378.79,-75.44 368.84,-71.82 368.75,-78.82"/>
</a>
</g>
</g>
<!-- Node23 -->
<g id="Node000023" class="node">
<title>Node23</title>
<g id="a_Node000023"><a xlink:href="../../dd/d96/classUChronoMovementComponent.html#ab5366fe07b3700649f48e6ec2c79663a" target="_top" xlink:title=" ">
<polygon fill="white" stroke="#666666" points="527.25,-48 380,-48 380,-16 527.25,-16 527.25,-48"/>
<text text-anchor="start" x="388" y="-34.5" font-family="Helvetica,sans-Serif" font-size="10.00">UChronoMovementComponent</text>
<text text-anchor="middle" x="453.62" y="-22.5" font-family="Helvetica,sans-Serif" font-size="10.00">::OnVehicleOverlap</text>
</a>
</g>
</g>
<!-- Node2&#45;&gt;Node23 -->
<g id="edge28_Node000002_Node000023" class="edge">
<title>Node2&#45;&gt;Node23</title>
<g id="a_edge28_Node000002_Node000023"><a xlink:title=" ">
<path fill="none" stroke="#63b8ff" d="M299.65,-65.62C320,-59.49 345.22,-52.67 369.27,-46.71"/>
<polygon fill="#63b8ff" stroke="#63b8ff" points="369.97,-49.9 378.86,-44.13 368.31,-43.1 369.97,-49.9"/>
</a>
</g>
</g>
<!-- Node5 -->
<g id="Node000005" class="node">
<title>Node5</title>
<g id="a_Node000005"><a xlink:href="../../d2/d48/classUBaseCarlaMovementComponent.html#ac6f038c3f307cb6e6729304521ece924" target="_top" xlink:title=" ">
<polygon fill="white" stroke="#666666" points="738.25,-198 576.75,-198 576.75,-166 738.25,-166 738.25,-198"/>
<text text-anchor="start" x="584.75" y="-184.5" font-family="Helvetica,sans-Serif" font-size="10.00">UBaseCarlaMovementComponent</text>
<text text-anchor="middle" x="657.5" y="-172.5" font-family="Helvetica,sans-Serif" font-size="10.00">::GetVelocity</text>
</a>
</g>
</g>
<!-- Node4&#45;&gt;Node5 -->
<g id="edge4_Node000004_Node000005" class="edge">
<title>Node4&#45;&gt;Node5</title>
<g id="a_edge4_Node000004_Node000005"><a xlink:title=" ">
<path fill="none" stroke="#63b8ff" d="M521.01,-148.44C539.72,-153.08 560.24,-158.16 579.52,-162.93"/>
<polygon fill="#63b8ff" stroke="#63b8ff" points="578.53,-166.54 589.08,-165.55 580.21,-159.75 578.53,-166.54"/>
</a>
</g>
</g>
<!-- Node6 -->
<g id="Node000006" class="node">
<title>Node6</title>
<g id="a_Node000006"><a xlink:href="../../d9/d36/namespacecarla.html#aca0bf2b2b37178b5e39c9bdbb5fadeb6" target="_top" xlink:title=" ">
<polygon fill="white" stroke="#666666" points="704.5,-92 610.5,-92 610.5,-72 704.5,-72 704.5,-92"/>
<text text-anchor="middle" x="657.5" y="-78.5" font-family="Helvetica,sans-Serif" font-size="10.00">carla::log_warning</text>
</a>
</g>
</g>
<!-- Node4&#45;&gt;Node6 -->
<g id="edge5_Node000004_Node000006" class="edge">
<title>Node4&#45;&gt;Node6</title>
<g id="a_edge5_Node000004_Node000006"><a xlink:title=" ">
<path fill="none" stroke="#63b8ff" d="M521.01,-115.56C547.85,-108.91 578.41,-101.34 603.7,-95.08"/>
<polygon fill="#63b8ff" stroke="#63b8ff" points="604.33,-98.28 613.19,-92.48 602.65,-91.49 604.33,-98.28"/>
</a>
</g>
</g>
<!-- Node8 -->
<g id="Node000008" class="node">
<title>Node8</title>
<g id="a_Node000008"><a xlink:href="../../d5/d70/classACarlaWheeledVehicle.html#a0eb752614da592e60b34079ca09d0331" target="_top" xlink:title=" ">
<polygon fill="white" stroke="#666666" points="734.5,-148 580.5,-148 580.5,-116 734.5,-116 734.5,-148"/>
<text text-anchor="start" x="588.5" y="-134.5" font-family="Helvetica,sans-Serif" font-size="10.00">ACarlaWheeledVehicle</text>
<text text-anchor="middle" x="657.5" y="-122.5" font-family="Helvetica,sans-Serif" font-size="10.00">::RestoreVehiclePhysicsControl</text>
</a>
</g>
</g>
<!-- Node4&#45;&gt;Node8 -->
<g id="edge7_Node000004_Node000008" class="edge">
<title>Node4&#45;&gt;Node8</title>
<g id="a_edge7_Node000004_Node000008"><a xlink:title=" ">
<path fill="none" stroke="#63b8ff" d="M534.7,-132C546.05,-132 557.76,-132 569.23,-132"/>
<polygon fill="#63b8ff" stroke="#63b8ff" points="569.14,-135.5 579.14,-132 569.14,-128.5 569.14,-135.5"/>
</a>
</g>
</g>
<!-- Node7 -->
<g id="Node000007" class="node">
<title>Node7</title>
<g id="a_Node000007"><a xlink:href="../../d2/d8c/namespacecarla_1_1logging.html#a4193666236852fb6a6977299a31445d8" target="_top" xlink:title=" ">
<polygon fill="white" stroke="#666666" points="896.75,-98 796.75,-98 796.75,-66 896.75,-66 896.75,-98"/>
<text text-anchor="start" x="804.75" y="-84.5" font-family="Helvetica,sans-Serif" font-size="10.00">carla::logging::write</text>
<text text-anchor="middle" x="846.75" y="-72.5" font-family="Helvetica,sans-Serif" font-size="10.00">_to_stream</text>
</a>
</g>
</g>
<!-- Node6&#45;&gt;Node7 -->
<g id="edge6_Node000006_Node000007" class="edge">
<title>Node6&#45;&gt;Node7</title>
<g id="a_edge6_Node000006_Node000007"><a xlink:title=" ">
<path fill="none" stroke="#63b8ff" d="M704.79,-82C729.14,-82 759.29,-82 785.45,-82"/>
<polygon fill="#63b8ff" stroke="#63b8ff" points="785.39,-85.5 795.39,-82 785.39,-78.5 785.39,-85.5"/>
</a>
</g>
</g>
<!-- Node9 -->
<g id="Node000009" class="node">
<title>Node9</title>
<g id="a_Node000009"><a xlink:href="../../d5/d70/classACarlaWheeledVehicle.html#a3e610d951ef26385950981f732fa9f42" target="_top" xlink:title=" ">
<polygon fill="white" stroke="#666666" points="919.25,-148 774.25,-148 774.25,-116 919.25,-116 919.25,-148"/>
<text text-anchor="start" x="782.25" y="-134.5" font-family="Helvetica,sans-Serif" font-size="10.00">ACarlaWheeledVehicle</text>
<text text-anchor="middle" x="846.75" y="-122.5" font-family="Helvetica,sans-Serif" font-size="10.00">::ApplyVehiclePhysicsControl</text>
</a>
</g>
</g>
<!-- Node8&#45;&gt;Node9 -->
<g id="edge8_Node000008_Node000009" class="edge">
<title>Node8&#45;&gt;Node9</title>
<g id="a_edge8_Node000008_Node000009"><a xlink:title=" ">
<path fill="none" stroke="#63b8ff" d="M734.93,-132C744.16,-132 753.62,-132 762.94,-132"/>
<polygon fill="#63b8ff" stroke="#63b8ff" points="762.79,-135.5 772.79,-132 762.79,-128.5 762.79,-135.5"/>
</a>
</g>
</g>
<!-- Node10 -->
<g id="Node000010" class="node">
<title>Node10</title>
<g id="a_Node000010"><a xlink:href="../../d7/d1e/classUCarlaStatics.html#adf84009ecb71dd12430e36c61a030c91" target="_top" xlink:title=" ">
<polygon fill="white" stroke="#666666" points="1553.25,-286 1416.5,-286 1416.5,-266 1553.25,-266 1553.25,-286"/>
<text text-anchor="middle" x="1484.88" y="-272.5" font-family="Helvetica,sans-Serif" font-size="10.00">UCarlaStatics::GetRecorder</text>
</a>
</g>
</g>
<!-- Node9&#45;&gt;Node10 -->
<g id="edge9_Node000009_Node000010" class="edge">
<title>Node9&#45;&gt;Node10</title>
<g id="a_edge9_Node000009_Node000010"><a xlink:title=" ">
<path fill="none" stroke="#63b8ff" d="M861.77,-148.4C880.88,-169.79 917.12,-207.07 955.25,-229 1099.07,-311.71 1302.11,-301.32 1409.9,-287.88"/>
<polygon fill="#63b8ff" stroke="#63b8ff" points="1410.19,-291.24 1419.66,-286.49 1409.29,-284.3 1410.19,-291.24"/>
</a>
</g>
</g>
<!-- Node13 -->
<g id="Node000013" class="node">
<title>Node13</title>
<g id="a_Node000013"><a xlink:href="../../d5/d70/classACarlaWheeledVehicle.html#a80344597cc1f76c5759bf9b813bb346f" target="_top" xlink:title=" ">
<polygon fill="white" stroke="#666666" points="1073.25,-220 957.5,-220 957.5,-188 1073.25,-188 1073.25,-220"/>
<text text-anchor="start" x="965.5" y="-206.5" font-family="Helvetica,sans-Serif" font-size="10.00">ACarlaWheeledVehicle</text>
<text text-anchor="middle" x="1015.38" y="-194.5" font-family="Helvetica,sans-Serif" font-size="10.00">::ResetConstraints</text>
</a>
</g>
</g>
<!-- Node9&#45;&gt;Node13 -->
<g id="edge12_Node000009_Node000013" class="edge">
<title>Node9&#45;&gt;Node13</title>
<g id="a_edge12_Node000009_Node000013"><a xlink:title=" ">
<path fill="none" stroke="#63b8ff" d="M885.01,-148.42C905.68,-157.5 931.86,-168.94 955.25,-179 958.48,-180.39 961.8,-181.81 965.16,-183.24"/>
<polygon fill="#63b8ff" stroke="#63b8ff" points="963.66,-186.83 974.23,-187.53 966.4,-180.39 963.66,-186.83"/>
</a>
</g>
</g>
<!-- Node17 -->
<g id="Node000017" class="node">
<title>Node17</title>
<g id="a_Node000017"><a xlink:href="../../d5/d70/classACarlaWheeledVehicle.html#a33b430d2706ec2490b2147a242085af4" target="_top" xlink:title=" ">
<polygon fill="white" stroke="#666666" points="1073.25,-170 957.5,-170 957.5,-138 1073.25,-138 1073.25,-170"/>
<text text-anchor="start" x="965.5" y="-156.5" font-family="Helvetica,sans-Serif" font-size="10.00">ACarlaWheeledVehicle</text>
<text text-anchor="middle" x="1015.38" y="-144.5" font-family="Helvetica,sans-Serif" font-size="10.00">::SetWheelCollision</text>
</a>
</g>
</g>
<!-- Node9&#45;&gt;Node17 -->
<g id="edge18_Node000009_Node000017" class="edge">
<title>Node9&#45;&gt;Node17</title>
<g id="a_edge18_Node000009_Node000017"><a xlink:title=" ">
<path fill="none" stroke="#63b8ff" d="M919.38,-141.46C928.35,-142.64 937.5,-143.85 946.41,-145.03"/>
<polygon fill="#63b8ff" stroke="#63b8ff" points="945.75,-148.6 956.13,-146.44 946.67,-141.66 945.75,-148.6"/>
</a>
</g>
</g>
<!-- Node19 -->
<g id="Node000019" class="node">
<title>Node19</title>
<g id="a_Node000019"><a xlink:href="../../d0/d6a/ActorDispatcher_8cpp.html#a69d0a7232310b5ebaa51abb2b9945184" target="_top" xlink:title=" ">
<polygon fill="white" stroke="#666666" points="1197.62,-120 1142.62,-120 1142.62,-100 1197.62,-100 1197.62,-120"/>
<text text-anchor="middle" x="1170.12" y="-106.5" font-family="Helvetica,sans-Serif" font-size="10.00">UE_LOG</text>
</a>
</g>
</g>
<!-- Node9&#45;&gt;Node19 -->
<g id="edge23_Node000009_Node000019" class="edge">
<title>Node9&#45;&gt;Node19</title>
<g id="a_edge23_Node000009_Node000019"><a xlink:title=" ">
<path fill="none" stroke="#63b8ff" d="M919.47,-127.09C985.14,-122.6 1079.74,-116.12 1131.6,-112.57"/>
<polygon fill="#63b8ff" stroke="#63b8ff" points="1131.56,-116.01 1141.3,-111.84 1131.08,-109.03 1131.56,-116.01"/>
</a>
</g>
</g>
<!-- Node20 -->
<g id="Node000020" class="node">
<title>Node20</title>
<g id="a_Node000020"><a xlink:href="../../d5/d70/classACarlaWheeledVehicle.html#a29574baf1b80d8345e8ddbab1825fa4b" target="_top" xlink:title=" ">
<polygon fill="white" stroke="#666666" points="1074.38,-82 956.38,-82 956.38,-50 1074.38,-50 1074.38,-82"/>
<text text-anchor="start" x="964.38" y="-68.5" font-family="Helvetica,sans-Serif" font-size="10.00">ACarlaWheeledVehicle</text>
<text text-anchor="middle" x="1015.38" y="-56.5" font-family="Helvetica,sans-Serif" font-size="10.00">::SetWheelCollisionNW</text>
</a>
</g>
</g>
<!-- Node9&#45;&gt;Node20 -->
<g id="edge21_Node000009_Node000020" class="edge">
<title>Node9&#45;&gt;Node20</title>
<g id="a_edge21_Node000009_Node000020"><a xlink:title=" ">
<path fill="none" stroke="#63b8ff" d="M896.38,-115.52C904.07,-112.76 911.9,-109.87 919.25,-107 935.33,-100.73 952.73,-93.4 968.19,-86.69"/>
<polygon fill="#63b8ff" stroke="#63b8ff" points="969.28,-89.59 977.04,-82.38 966.47,-83.18 969.28,-89.59"/>
</a>
</g>
</g>
<!-- Node21 -->
<g id="Node000021" class="node">
<title>Node21</title>
<g id="a_Node000021"><a xlink:href="../../d7/db5/classFAckermannController.html#abe8d237fb808b0eca659fb7008054a90" target="_top" xlink:title=" ">
<polygon fill="white" stroke="#666666" points="1075.5,-32 955.25,-32 955.25,0 1075.5,0 1075.5,-32"/>
<text text-anchor="start" x="963.25" y="-18.5" font-family="Helvetica,sans-Serif" font-size="10.00">FAckermannController</text>
<text text-anchor="middle" x="1015.38" y="-6.5" font-family="Helvetica,sans-Serif" font-size="10.00">::UpdateVehiclePhysics</text>
</a>
</g>
</g>
<!-- Node9&#45;&gt;Node21 -->
<g id="edge24_Node000009_Node000021" class="edge">
<title>Node9&#45;&gt;Node21</title>
<g id="a_edge24_Node000009_Node000021"><a xlink:title=" ">
<path fill="none" stroke="#63b8ff" d="M906.7,-115.52C911.19,-113.06 915.44,-110.23 919.25,-107 944.72,-85.37 930.48,-63.42 955.25,-41 956.14,-40.2 957.06,-39.42 958,-38.66"/>
<polygon fill="#63b8ff" stroke="#63b8ff" points="959.8,-40.98 966.07,-32.44 955.84,-35.21 959.8,-40.98"/>
</a>
</g>
</g>
<!-- Node11 -->
<g id="Node000011" class="node">
<title>Node11</title>
<g id="a_Node000011"><a xlink:href="../../d7/d1e/classUCarlaStatics.html#a83f2a341e32413abf1ec85ee740c2036" target="_top" xlink:title=" ">
<polygon fill="white" stroke="#666666" points="1718.5,-292 1589.25,-292 1589.25,-260 1718.5,-260 1718.5,-292"/>
<text text-anchor="start" x="1597.25" y="-278.5" font-family="Helvetica,sans-Serif" font-size="10.00">UCarlaStatics::GetCurrent</text>
<text text-anchor="middle" x="1653.88" y="-266.5" font-family="Helvetica,sans-Serif" font-size="10.00">Episode</text>
</a>
</g>
</g>
<!-- Node10&#45;&gt;Node11 -->
<g id="edge10_Node000010_Node000011" class="edge">
<title>Node10&#45;&gt;Node11</title>
<g id="a_edge10_Node000010_Node000011"><a xlink:title=" ">
<path fill="none" stroke="#63b8ff" d="M1553.32,-276C1561.5,-276 1569.9,-276 1578.18,-276"/>
<polygon fill="#63b8ff" stroke="#63b8ff" points="1577.97,-279.5 1587.97,-276 1577.97,-272.5 1577.97,-279.5"/>
</a>
</g>
</g>
<!-- Node12 -->
<g id="Node000012" class="node">
<title>Node12</title>
<g id="a_Node000012"><a xlink:href="../../d7/d1e/classUCarlaStatics.html#a35e7cb760a58848081a618e7fa8201e2" target="_top" xlink:title=" ">
<polygon fill="white" stroke="#666666" points="1915.25,-286 1754.5,-286 1754.5,-266 1915.25,-266 1915.25,-286"/>
<text text-anchor="middle" x="1834.88" y="-272.5" font-family="Helvetica,sans-Serif" font-size="10.00">UCarlaStatics::GetGameInstance</text>
</a>
</g>
</g>
<!-- Node11&#45;&gt;Node12 -->
<g id="edge11_Node000011_Node000012" class="edge">
<title>Node11&#45;&gt;Node12</title>
<g id="a_edge11_Node000011_Node000012"><a xlink:title=" ">
<path fill="none" stroke="#63b8ff" d="M1718.99,-276C1726.94,-276 1735.19,-276 1743.44,-276"/>
<polygon fill="#63b8ff" stroke="#63b8ff" points="1743.27,-279.5 1753.27,-276 1743.27,-272.5 1743.27,-279.5"/>
</a>
</g>
</g>
<!-- Node14 -->
<g id="Node000014" class="node">
<title>Node14</title>
<g id="a_Node000014"><a xlink:href="../../d5/d70/classACarlaWheeledVehicle.html#a114c84eaff7178ef92e37ea0e0ac9e34" target="_top" xlink:title=" ">
<polygon fill="white" stroke="#666666" points="1228,-270 1112.25,-270 1112.25,-238 1228,-238 1228,-270"/>
<text text-anchor="start" x="1120.25" y="-256.5" font-family="Helvetica,sans-Serif" font-size="10.00">ACarlaWheeledVehicle</text>
<text text-anchor="middle" x="1170.12" y="-244.5" font-family="Helvetica,sans-Serif" font-size="10.00">::CloseDoorPhys</text>
</a>
</g>
</g>
<!-- Node13&#45;&gt;Node14 -->
<g id="edge13_Node000013_Node000014" class="edge">
<title>Node13&#45;&gt;Node14</title>
<g id="a_edge13_Node000013_Node000014"><a xlink:title=" ">
<path fill="none" stroke="#63b8ff" d="M1066.39,-220.37C1079.9,-224.8 1094.67,-229.63 1108.69,-234.22"/>
<polygon fill="#63b8ff" stroke="#63b8ff" points="1107.14,-237.72 1117.74,-237.51 1109.32,-231.07 1107.14,-237.72"/>
</a>
</g>
</g>
<!-- Node16 -->
<g id="Node000016" class="node">
<title>Node16</title>
<g id="a_Node000016"><a xlink:href="../../d5/d70/classACarlaWheeledVehicle.html#ac366b344047c94137d813a4a8a35eaeb" target="_top" xlink:title=" ">
<polygon fill="white" stroke="#666666" points="1228,-220 1112.25,-220 1112.25,-188 1228,-188 1228,-220"/>
<text text-anchor="start" x="1120.25" y="-206.5" font-family="Helvetica,sans-Serif" font-size="10.00">ACarlaWheeledVehicle</text>
<text text-anchor="middle" x="1170.12" y="-194.5" font-family="Helvetica,sans-Serif" font-size="10.00">::OpenDoorPhys</text>
</a>
</g>
</g>
<!-- Node13&#45;&gt;Node16 -->
<g id="edge16_Node000013_Node000016" class="edge">
<title>Node13&#45;&gt;Node16</title>
<g id="a_edge16_Node000013_Node000016"><a xlink:title=" ">
<path fill="none" stroke="#63b8ff" d="M1073.69,-204C1082.69,-204 1092.08,-204 1101.29,-204"/>
<polygon fill="#63b8ff" stroke="#63b8ff" points="1101,-207.5 1111,-204 1101,-200.5 1101,-207.5"/>
</a>
</g>
</g>
<!-- Node15 -->
<g id="Node000015" class="node">
<title>Node15</title>
<g id="a_Node000015"><a xlink:href="../../d5/d70/classACarlaWheeledVehicle.html#a087b3bd2e47d6662fce3e4f0da7cca61" target="_top" xlink:title=" ">
<polygon fill="white" stroke="#666666" points="1380.5,-270 1264.75,-270 1264.75,-238 1380.5,-238 1380.5,-270"/>
<text text-anchor="start" x="1272.75" y="-256.5" font-family="Helvetica,sans-Serif" font-size="10.00">ACarlaWheeledVehicle</text>
<text text-anchor="middle" x="1322.62" y="-244.5" font-family="Helvetica,sans-Serif" font-size="10.00">::RecordDoorChange</text>
</a>
</g>
</g>
<!-- Node14&#45;&gt;Node15 -->
<g id="edge14_Node000014_Node000015" class="edge">
<title>Node14&#45;&gt;Node15</title>
<g id="a_edge14_Node000014_Node000015"><a xlink:title=" ">
<path fill="none" stroke="#63b8ff" d="M1228.45,-254C1236.65,-254 1245.16,-254 1253.54,-254"/>
<polygon fill="#63b8ff" stroke="#63b8ff" points="1253.46,-257.5 1263.46,-254 1253.46,-250.5 1253.46,-257.5"/>
</a>
</g>
</g>
<!-- Node15&#45;&gt;Node10 -->
<g id="edge15_Node000015_Node000010" class="edge">
<title>Node15&#45;&gt;Node10</title>
<g id="a_edge15_Node000015_Node000010"><a xlink:title=" ">
<path fill="none" stroke="#63b8ff" d="M1380.57,-261.82C1388.67,-262.93 1397.11,-264.09 1405.53,-265.24"/>
<polygon fill="#63b8ff" stroke="#63b8ff" points="1404.76,-268.81 1415.15,-266.7 1405.72,-261.87 1404.76,-268.81"/>
</a>
</g>
</g>
<!-- Node16&#45;&gt;Node15 -->
<g id="edge17_Node000016_Node000015" class="edge">
<title>Node16&#45;&gt;Node15</title>
<g id="a_edge17_Node000016_Node000015"><a xlink:title=" ">
<path fill="none" stroke="#63b8ff" d="M1220.4,-220.37C1233.59,-224.75 1247.99,-229.54 1261.68,-234.08"/>
<polygon fill="#63b8ff" stroke="#63b8ff" points="1260.38,-237.67 1270.98,-237.51 1262.59,-231.03 1260.38,-237.67"/>
</a>
</g>
</g>
<!-- Node18 -->
<g id="Node000018" class="node">
<title>Node18</title>
<g id="a_Node000018"><a xlink:href="../../d5/d70/classACarlaWheeledVehicle.html#a1a14797d457e94cbed68571fc8c914bb" target="_top" xlink:title=" ">
<polygon fill="white" stroke="#666666" points="1228.75,-170 1111.5,-170 1111.5,-138 1228.75,-138 1228.75,-170"/>
<text text-anchor="start" x="1119.5" y="-156.5" font-family="Helvetica,sans-Serif" font-size="10.00">ACarlaWheeledVehicle</text>
<text text-anchor="middle" x="1170.12" y="-144.5" font-family="Helvetica,sans-Serif" font-size="10.00">::IsTwoWheeledVehicle</text>
</a>
</g>
</g>
<!-- Node17&#45;&gt;Node18 -->
<g id="edge19_Node000017_Node000018" class="edge">
<title>Node17&#45;&gt;Node18</title>
<g id="a_edge19_Node000017_Node000018"><a xlink:title=" ">
<path fill="none" stroke="#63b8ff" d="M1073.69,-154C1082.41,-154 1091.5,-154 1100.44,-154"/>
<polygon fill="#63b8ff" stroke="#63b8ff" points="1100.24,-157.5 1110.24,-154 1100.24,-150.5 1100.24,-157.5"/>
</a>
</g>
</g>
<!-- Node17&#45;&gt;Node19 -->
<g id="edge20_Node000017_Node000019" class="edge">
<title>Node17&#45;&gt;Node19</title>
<g id="a_edge20_Node000017_Node000019"><a xlink:title=" ">
<path fill="none" stroke="#63b8ff" d="M1073.25,-137.62C1092.78,-131.99 1114.13,-125.84 1131.72,-120.78"/>
<polygon fill="#63b8ff" stroke="#63b8ff" points="1132.49,-123.91 1141.13,-117.78 1130.55,-117.18 1132.49,-123.91"/>
</a>
</g>
</g>
<!-- Node20&#45;&gt;Node19 -->
<g id="edge22_Node000020_Node000019" class="edge">
<title>Node20&#45;&gt;Node19</title>
<g id="a_edge22_Node000020_Node000019"><a xlink:title=" ">
<path fill="none" stroke="#63b8ff" d="M1073.25,-82.38C1092.78,-88.01 1114.13,-94.16 1131.72,-99.22"/>
<polygon fill="#63b8ff" stroke="#63b8ff" points="1130.55,-102.82 1141.13,-102.22 1132.49,-96.09 1130.55,-102.82"/>
</a>
</g>
</g>
<!-- Node22&#45;&gt;Node2 -->
<g id="edge26_Node000022_Node000002" class="edge">
<title>Node22&#45;&gt;Node2</title>
<g id="a_edge26_Node000022_Node000002"><a xlink:title=" ">
<path fill="none" stroke="#63b8ff" d="M379.79,-88.56C367.44,-88.76 354.53,-88.8 341.93,-88.69"/>
<polygon fill="#63b8ff" stroke="#63b8ff" points="341.99,-85.18 331.95,-88.56 341.9,-92.18 341.99,-85.18"/>
</a>
</g>
</g>
<!-- Node22&#45;&gt;Node6 -->
<g id="edge27_Node000022_Node000006" class="edge">
<title>Node22&#45;&gt;Node6</title>
<g id="a_edge27_Node000022_Node000006"><a xlink:title=" ">
<path fill="none" stroke="#63b8ff" d="M527.51,-82C551.08,-82 576.87,-82 599.16,-82"/>
<polygon fill="#63b8ff" stroke="#63b8ff" points="599.12,-85.5 609.12,-82 599.12,-78.5 599.12,-85.5"/>
</a>
</g>
</g>
<!-- Node23&#45;&gt;Node2 -->
<g id="edge29_Node000023_Node000002" class="edge">
<title>Node23&#45;&gt;Node2</title>
<g id="a_edge29_Node000023_Node000002"><a xlink:title=" ">
<path fill="none" stroke="#63b8ff" d="M410.56,-48.47C390.33,-54.55 365.33,-61.31 341.45,-67.23"/>
<polygon fill="#63b8ff" stroke="#63b8ff" points="340.83,-64.03 331.95,-69.8 342.49,-70.83 340.83,-64.03"/>
</a>
</g>
</g>
<!-- Node23&#45;&gt;Node6 -->
<g id="edge30_Node000023_Node000006" class="edge">
<title>Node23&#45;&gt;Node6</title>
<g id="a_edge30_Node000023_Node000006"><a xlink:title=" ">
<path fill="none" stroke="#63b8ff" d="M521.01,-48.44C547.85,-55.09 578.41,-62.66 603.7,-68.92"/>
<polygon fill="#63b8ff" stroke="#63b8ff" points="602.65,-72.51 613.19,-71.52 604.33,-65.72 602.65,-72.51"/>
</a>
</g>
</g>
</g>
</svg>

<g id="navigator" transform="translate(0 0)" fill="#404254">
  <rect fill="#f2f5e9" fill-opacity="0.5" stroke="#606060" stroke-width=".5" x="0" y="0" width="60" height="60"/>
  <use id="zoomplus" xlink:href="#zoomPlus" x="17" y="9" onmousedown="handleZoom(evt,'in')"/>
  <use id="zoomminus" xlink:href="#zoomMin" x="42" y="9" onmousedown="handleZoom(evt,'out')"/>
  <use id="reset" xlink:href="#resetDef" x="30" y="36" onmousedown="handleReset()"/>
   <use id="arrowup" xlink:href="#arrowUp" x="0" y="0" onmousedown="handlePan(0,-1)"/>
  <use id="arrowright" xlink:href="#arrowRight" x="0" y="0" onmousedown="handlePan(1,0)"/>
  <use id="arrowdown" xlink:href="#arrowDown" x="0" y="0" onmousedown="handlePan(0,1)"/>
  <use id="arrowleft" xlink:href="#arrowLeft" x="0" y="0" onmousedown="handlePan(-1,0)"/>
</g>
<svg viewBox="0 0 15 15" width="100%" height="30px" preserveAspectRatio="xMaxYMin meet">
 <g id="arrow_out" transform="scale(0.3 0.3)">
  <a xlink:href="classUChronoMovementComponent_ac1f51975e9728b663fe48af80bb7d4e7_cgraph_org.svg" target="_base">
   <rect id="button" ry="5" rx="5" y="6" x="6" height="38" width="38"
        fill="#f2f5e9" fill-opacity="0.5" stroke="#606060" stroke-width="1.0"/>
   <path id="arrow"
     d="M 11.500037,31.436501 C 11.940474,20.09759 22.043105,11.32322 32.158766,21.979434 L 37.068811,17.246167 C 37.068811,17.246167 37.088388,32 37.088388,32 L 22.160133,31.978069 C 22.160133,31.978069 26.997745,27.140456 26.997745,27.140456 C 18.528582,18.264221 13.291696,25.230495 11.500037,31.436501 z"
     style="fill:#404040;"/>
  </a>
 </g>
</svg>

<style type='text/css'>
<![CDATA[
[data-mouse-over-selected='false'] { opacity: 0.7; }
[data-mouse-over-selected='true']  { opacity: 1.0; }
]]>
</style>
<script type="application/ecmascript"><![CDATA[
document.addEventListener('DOMContentLoaded', (event) => {
  highlightEdges();
  highlightAdjacentNodes();
});
]]></script>
</svg>
