<?xml version="1.0" encoding="UTF-8" standalone="no"?>
<!DOCTYPE svg PUBLIC "-//W3C//DTD SVG 1.1//EN"
 "http://www.w3.org/Graphics/SVG/1.1/DTD/svg11.dtd">
<!-- Generated by graphviz version 8.1.0 (20230707.0739)
 -->
<!-- Title: ASceneCaptureSensor::ReadPixels Pages: 1 -->
<svg width="303pt" height="52pt"
 viewBox="0.00 0.00 302.50 52.00" xmlns="http://www.w3.org/2000/svg" xmlns:xlink="http://www.w3.org/1999/xlink">
<g id="graph0" class="graph" transform="scale(1 1) rotate(0) translate(4 48)">
<title>ASceneCaptureSensor::ReadPixels</title>
<!-- Node1 -->
<g id="Node000001" class="node">
<title>Node1</title>
<g id="a_Node000001"><a xlink:title="Use for debugging purposes only.">
<polygon fill="#999999" stroke="#666666" points="294.5,-32 179.5,-32 179.5,0 294.5,0 294.5,-32"/>
<text text-anchor="start" x="187.5" y="-18.5" font-family="Helvetica,sans-Serif" font-size="10.00">ASceneCaptureSensor</text>
<text text-anchor="middle" x="237" y="-6.5" font-family="Helvetica,sans-Serif" font-size="10.00">::ReadPixels</text>
</a>
</g>
</g>
<!-- Node2 -->
<g id="Node000002" class="node">
<title>Node2</title>
<g id="a_Node000002"><a xlink:href="../../d2/daf/classADVSCamera.html#af5bed25bbeaa4669ea0576fdff9ea5e3" target="_top" xlink:title=" ">
<polygon fill="white" stroke="#666666" points="143.5,-26 0,-26 0,-6 143.5,-6 143.5,-26"/>
<text text-anchor="middle" x="71.75" y="-12.5" font-family="Helvetica,sans-Serif" font-size="10.00">ADVSCamera::PostPhysTick</text>
</a>
</g>
</g>
<!-- Node1&#45;&gt;Node2 -->
<g id="edge1_Node000001_Node000002" class="edge">
<title>Node1&#45;&gt;Node2</title>
<g id="a_edge1_Node000001_Node000002"><a xlink:title=" ">
<path fill="none" stroke="#63b8ff" d="M168.48,-16C160.38,-16 152.1,-16 143.96,-16"/>
<polygon fill="#63b8ff" stroke="#63b8ff" points="168.36,-19.5 178.36,-16 168.36,-12.5 168.36,-19.5"/>
</a>
</g>
</g>
<!-- Node2&#45;&gt;Node2 -->
<g id="edge2_Node000002_Node000002" class="edge">
<title>Node2&#45;&gt;Node2</title>
<g id="a_edge2_Node000002_Node000002"><a xlink:title=" ">
<path fill="none" stroke="#63b8ff" d="M101.79,-36.43C98.82,-40.82 88.81,-44 71.75,-44 43.02,-44 34.27,-34.98 45.49,-26.34"/>
<polygon fill="#63b8ff" stroke="#63b8ff" points="104.8,-35.47 98.01,-27.34 98.24,-37.93 104.8,-35.47"/>
</a>
</g>
</g>
</g>
</svg>
