<?xml version="1.0" encoding="UTF-8" standalone="no"?>
<!DOCTYPE svg PUBLIC "-//W3C//DTD SVG 1.1//EN"
 "http://www.w3.org/Graphics/SVG/1.1/DTD/svg11.dtd">
<!-- Generated by graphviz version 8.1.0 (20230707.0739)
 -->
<!-- Title: carla::client::Walker::GetBonesTransform Pages: 1 -->
<svg width="583pt" height="106pt"
 viewBox="0.00 0.00 582.75 106.00" xmlns="http://www.w3.org/2000/svg" xmlns:xlink="http://www.w3.org/1999/xlink">
<g id="graph0" class="graph" transform="scale(1 1) rotate(0) translate(4 102)">
<title>carla::client::Walker::GetBonesTransform</title>
<!-- Node1 -->
<g id="Node000001" class="node">
<title>Node1</title>
<g id="a_Node000001"><a xlink:title=" ">
<polygon fill="#999999" stroke="#666666" points="108.25,-73 0,-73 0,-41 108.25,-41 108.25,-73"/>
<text text-anchor="start" x="8" y="-59.5" font-family="Helvetica,sans-Serif" font-size="10.00">carla::client::Walker</text>
<text text-anchor="middle" x="54.12" y="-47.5" font-family="Helvetica,sans-Serif" font-size="10.00">::GetBonesTransform</text>
</a>
</g>
</g>
<!-- Node2 -->
<g id="Node000002" class="node">
<title>Node2</title>
<g id="a_Node000002"><a xlink:href="../../d2/d06/classcarla_1_1client_1_1detail_1_1ActorState.html#a520d5ef7284ded86a1d96a346f3516aa" target="_top" xlink:title=" ">
<polygon fill="white" stroke="#666666" points="270.88,-98 145.38,-98 145.38,-66 270.88,-66 270.88,-98"/>
<text text-anchor="start" x="153.38" y="-84.5" font-family="Helvetica,sans-Serif" font-size="10.00">carla::client::detail</text>
<text text-anchor="middle" x="208.12" y="-72.5" font-family="Helvetica,sans-Serif" font-size="10.00">::ActorState::GetEpisode</text>
</a>
</g>
</g>
<!-- Node1&#45;&gt;Node2 -->
<g id="edge1_Node000001_Node000002" class="edge">
<title>Node1&#45;&gt;Node2</title>
<g id="a_edge1_Node000001_Node000002"><a xlink:title=" ">
<path fill="none" stroke="#63b8ff" d="M108.71,-65.81C116.95,-67.17 125.57,-68.59 134.13,-69.99"/>
<polygon fill="#63b8ff" stroke="#63b8ff" points="133.49,-73.6 143.93,-71.77 134.63,-66.69 133.49,-73.6"/>
</a>
</g>
</g>
<!-- Node3 -->
<g id="Node000003" class="node">
<title>Node3</title>
<g id="a_Node000003"><a xlink:href="../../d1/dd3/classcarla_1_1client_1_1detail_1_1EpisodeProxyImpl.html#aaca857645fbeb6546b4a03a663bb65af" target="_top" xlink:title="Same as TryLock but never return nullptr.">
<polygon fill="white" stroke="#666666" points="272,-48 144.25,-48 144.25,-16 272,-16 272,-48"/>
<text text-anchor="start" x="152.25" y="-34.5" font-family="Helvetica,sans-Serif" font-size="10.00">carla::client::detail</text>
<text text-anchor="middle" x="208.12" y="-22.5" font-family="Helvetica,sans-Serif" font-size="10.00">::EpisodeProxyImpl::Lock</text>
</a>
</g>
</g>
<!-- Node1&#45;&gt;Node3 -->
<g id="edge2_Node000001_Node000003" class="edge">
<title>Node1&#45;&gt;Node3</title>
<g id="a_edge2_Node000001_Node000003"><a xlink:title=" ">
<path fill="none" stroke="#63b8ff" d="M108.71,-48.19C116.62,-46.89 124.88,-45.53 133.11,-44.17"/>
<polygon fill="#63b8ff" stroke="#63b8ff" points="133.57,-47.48 142.87,-42.4 132.44,-40.57 133.57,-47.48"/>
</a>
</g>
</g>
<!-- Node4 -->
<g id="Node000004" class="node">
<title>Node4</title>
<g id="a_Node000004"><a xlink:href="../../d8/dcd/namespacecarla_1_1client_1_1detail.html#aa47f72a521d97fe3574a56e808b509d8" target="_top" xlink:title=" ">
<polygon fill="white" stroke="#666666" points="412.5,-70 317,-70 317,-38 412.5,-38 412.5,-70"/>
<text text-anchor="start" x="325" y="-56.5" font-family="Helvetica,sans-Serif" font-size="10.00">carla::client::detail</text>
<text text-anchor="middle" x="364.75" y="-44.5" font-family="Helvetica,sans-Serif" font-size="10.00">::Load</text>
</a>
</g>
</g>
<!-- Node3&#45;&gt;Node4 -->
<g id="edge3_Node000003_Node000004" class="edge">
<title>Node3&#45;&gt;Node4</title>
<g id="a_edge3_Node000003_Node000004"><a xlink:title=" ">
<path fill="none" stroke="#63b8ff" d="M272.46,-41.01C283.6,-42.6 295.13,-44.24 306.1,-45.8"/>
<polygon fill="#63b8ff" stroke="#63b8ff" points="305.45,-49.38 315.84,-47.33 306.44,-42.45 305.45,-49.38"/>
</a>
</g>
</g>
<!-- Node6 -->
<g id="Node000006" class="node">
<title>Node6</title>
<g id="a_Node000006"><a xlink:href="../../d9/d36/namespacecarla.html#a23602ab663165210a7757d6108f6b3cd" target="_top" xlink:title=" ">
<polygon fill="white" stroke="#666666" points="421.5,-20 308,-20 308,0 421.5,0 421.5,-20"/>
<text text-anchor="middle" x="364.75" y="-6.5" font-family="Helvetica,sans-Serif" font-size="10.00">carla::throw_exception</text>
</a>
</g>
</g>
<!-- Node3&#45;&gt;Node6 -->
<g id="edge5_Node000003_Node000006" class="edge">
<title>Node3&#45;&gt;Node6</title>
<g id="a_edge5_Node000003_Node000006"><a xlink:title=" ">
<path fill="none" stroke="#63b8ff" d="M272.46,-22.99C280.58,-21.83 288.91,-20.65 297.08,-19.49"/>
<polygon fill="#63b8ff" stroke="#63b8ff" points="297.29,-22.85 306.7,-17.98 296.3,-15.92 297.29,-22.85"/>
</a>
</g>
</g>
<!-- Node5 -->
<g id="Node000005" class="node">
<title>Node5</title>
<g id="a_Node000005"><a xlink:href="../../d2/dcf/classcarla_1_1AtomicSharedPtr.html#a7bb0b8af178b36c923fedac384b3aad4" target="_top" xlink:title=" ">
<polygon fill="white" stroke="#666666" points="574.75,-70 457.5,-70 457.5,-38 574.75,-38 574.75,-70"/>
<text text-anchor="start" x="465.5" y="-56.5" font-family="Helvetica,sans-Serif" font-size="10.00">carla::AtomicSharedPtr</text>
<text text-anchor="middle" x="516.12" y="-44.5" font-family="Helvetica,sans-Serif" font-size="10.00">::load</text>
</a>
</g>
</g>
<!-- Node4&#45;&gt;Node5 -->
<g id="edge4_Node000004_Node000005" class="edge">
<title>Node4&#45;&gt;Node5</title>
<g id="a_edge4_Node000004_Node000005"><a xlink:title=" ">
<path fill="none" stroke="#63b8ff" d="M412.6,-54C423.3,-54 434.89,-54 446.29,-54"/>
<polygon fill="#63b8ff" stroke="#63b8ff" points="446.14,-57.5 456.14,-54 446.14,-50.5 446.14,-57.5"/>
</a>
</g>
</g>
</g>
</svg>
