<?xml version="1.0" encoding="UTF-8" standalone="no"?>
<!DOCTYPE svg PUBLIC "-//W3C//DTD SVG 1.1//EN"
 "http://www.w3.org/Graphics/SVG/1.1/DTD/svg11.dtd">
<!-- Generated by graphviz version 8.1.0 (20230707.0739)
 -->
<!-- Title: Simplify::SimplificationObject::flipped Pages: 1 -->
<svg width="244pt" height="104pt"
 viewBox="0.00 0.00 244.00 104.00" xmlns="http://www.w3.org/2000/svg" xmlns:xlink="http://www.w3.org/1999/xlink">
<g id="graph0" class="graph" transform="scale(1 1) rotate(0) translate(4 100)">
<title>Simplify::SimplificationObject::flipped</title>
<!-- Node1 -->
<g id="Node000001" class="node">
<title>Node1</title>
<g id="a_Node000001"><a xlink:title=" ">
<polygon fill="#999999" stroke="#666666" points="114.25,-64 0,-64 0,-32 114.25,-32 114.25,-64"/>
<text text-anchor="start" x="8" y="-50.5" font-family="Helvetica,sans-Serif" font-size="10.00">Simplify::Simplification</text>
<text text-anchor="middle" x="57.12" y="-38.5" font-family="Helvetica,sans-Serif" font-size="10.00">Object::flipped</text>
</a>
</g>
</g>
<!-- Node2 -->
<g id="Node000002" class="node">
<title>Node2</title>
<g id="a_Node000002"><a xlink:href="../../da/d83/structvec3f.html#acfc5e873d7913cb6ca8a0caa583367ed" target="_top" xlink:title=" ">
<polygon fill="white" stroke="#666666" points="227,-96 159.25,-96 159.25,-76 227,-76 227,-96"/>
<text text-anchor="middle" x="193.12" y="-82.5" font-family="Helvetica,sans-Serif" font-size="10.00">vec3f::cross</text>
</a>
</g>
</g>
<!-- Node1&#45;&gt;Node2 -->
<g id="edge1_Node000001_Node000002" class="edge">
<title>Node1&#45;&gt;Node2</title>
<g id="a_edge1_Node000001_Node000002"><a xlink:title=" ">
<path fill="none" stroke="#63b8ff" d="M114.56,-64.01C125.94,-67.23 137.73,-70.57 148.58,-73.65"/>
<polygon fill="#63b8ff" stroke="#63b8ff" points="147.49,-77.26 158.06,-76.62 149.4,-70.53 147.49,-77.26"/>
</a>
</g>
</g>
<!-- Node3 -->
<g id="Node000003" class="node">
<title>Node3</title>
<g id="a_Node000003"><a xlink:href="../../da/d83/structvec3f.html#aa731ccc98a532eeacbff2390963ce426" target="_top" xlink:title=" ">
<polygon fill="white" stroke="#666666" points="221.75,-58 164.5,-58 164.5,-38 221.75,-38 221.75,-58"/>
<text text-anchor="middle" x="193.12" y="-44.5" font-family="Helvetica,sans-Serif" font-size="10.00">vec3f::dot</text>
</a>
</g>
</g>
<!-- Node1&#45;&gt;Node3 -->
<g id="edge2_Node000001_Node000003" class="edge">
<title>Node1&#45;&gt;Node3</title>
<g id="a_edge2_Node000001_Node000003"><a xlink:title=" ">
<path fill="none" stroke="#63b8ff" d="M114.56,-48C127.71,-48 141.41,-48 153.57,-48"/>
<polygon fill="#63b8ff" stroke="#63b8ff" points="153.25,-51.5 163.25,-48 153.25,-44.5 153.25,-51.5"/>
</a>
</g>
</g>
<!-- Node4 -->
<g id="Node000004" class="node">
<title>Node4</title>
<g id="a_Node000004"><a xlink:href="../../da/d83/structvec3f.html#abddffff6253347aeb55355e229d25aed" target="_top" xlink:title=" ">
<polygon fill="white" stroke="#666666" points="236,-20 150.25,-20 150.25,0 236,0 236,-20"/>
<text text-anchor="middle" x="193.12" y="-6.5" font-family="Helvetica,sans-Serif" font-size="10.00">vec3f::normalize</text>
</a>
</g>
</g>
<!-- Node1&#45;&gt;Node4 -->
<g id="edge3_Node000001_Node000004" class="edge">
<title>Node1&#45;&gt;Node4</title>
<g id="a_edge3_Node000001_Node000004"><a xlink:title=" ">
<path fill="none" stroke="#63b8ff" d="M114.56,-31.99C124.65,-29.13 135.06,-26.18 144.86,-23.4"/>
<polygon fill="#63b8ff" stroke="#63b8ff" points="145.53,-26.57 154.2,-20.47 143.62,-19.83 145.53,-26.57"/>
</a>
</g>
</g>
</g>
</svg>
