<?xml version="1.0" encoding="UTF-8" standalone="no"?>
<!DOCTYPE svg PUBLIC "-//W3C//DTD SVG 1.1//EN"
 "http://www.w3.org/Graphics/SVG/1.1/DTD/svg11.dtd">
<!-- Generated by graphviz version 8.1.0 (20230707.0739)
 -->
<!-- Title: FSensorDefinitionGatherer::AppendDefinitions Pages: 1 -->
<svg width="493pt" height="40pt"
 viewBox="0.00 0.00 493.25 40.00" xmlns="http://www.w3.org/2000/svg" xmlns:xlink="http://www.w3.org/1999/xlink">
<g id="graph0" class="graph" transform="scale(1 1) rotate(0) translate(4 36)">
<title>FSensorDefinitionGatherer::AppendDefinitions</title>
<!-- Node1 -->
<g id="Node000001" class="node">
<title>Node1</title>
<g id="a_Node000001"><a xlink:title=" ">
<polygon fill="#999999" stroke="#666666" points="485.25,-32 355.25,-32 355.25,0 485.25,0 485.25,-32"/>
<text text-anchor="start" x="363.25" y="-18.5" font-family="Helvetica,sans-Serif" font-size="10.00">FSensorDefinitionGatherer</text>
<text text-anchor="middle" x="420.25" y="-6.5" font-family="Helvetica,sans-Serif" font-size="10.00">::AppendDefinitions</text>
</a>
</g>
</g>
<!-- Node2 -->
<g id="Node000002" class="node">
<title>Node2</title>
<g id="a_Node000002"><a xlink:href="../../dc/dd0/classFSensorDefinitionGatherer.html#a038432db0ebd13d163108788bbaafdd8" target="_top" xlink:title=" ">
<polygon fill="white" stroke="#666666" points="319.25,-32 189.25,-32 189.25,0 319.25,0 319.25,-32"/>
<text text-anchor="start" x="197.25" y="-18.5" font-family="Helvetica,sans-Serif" font-size="10.00">FSensorDefinitionGatherer</text>
<text text-anchor="middle" x="254.25" y="-6.5" font-family="Helvetica,sans-Serif" font-size="10.00">::GetSensorDefinitions</text>
</a>
</g>
</g>
<!-- Node1&#45;&gt;Node2 -->
<g id="edge1_Node000001_Node000002" class="edge">
<title>Node1&#45;&gt;Node2</title>
<g id="a_edge1_Node000001_Node000002"><a xlink:title=" ">
<path fill="none" stroke="#63b8ff" d="M343.94,-16C335.83,-16 327.64,-16 319.68,-16"/>
<polygon fill="#63b8ff" stroke="#63b8ff" points="343.9,-19.5 353.9,-16 343.9,-12.5 343.9,-19.5"/>
</a>
</g>
</g>
<!-- Node3 -->
<g id="Node000003" class="node">
<title>Node3</title>
<g id="a_Node000003"><a xlink:href="../../df/d9e/classASensorFactory.html#ada4d883159054b360383e7e93166af82" target="_top" xlink:title="Retrieve the definitions of all the sensors registered in the SensorRegistry.">
<polygon fill="white" stroke="#666666" points="153.25,-26 0,-26 0,-6 153.25,-6 153.25,-26"/>
<text text-anchor="middle" x="76.62" y="-12.5" font-family="Helvetica,sans-Serif" font-size="10.00">ASensorFactory::GetDefinitions</text>
</a>
</g>
</g>
<!-- Node2&#45;&gt;Node3 -->
<g id="edge2_Node000002_Node000003" class="edge">
<title>Node2&#45;&gt;Node3</title>
<g id="a_edge2_Node000002_Node000003"><a xlink:title=" ">
<path fill="none" stroke="#63b8ff" d="M177.97,-16C169.91,-16 161.7,-16 153.63,-16"/>
<polygon fill="#63b8ff" stroke="#63b8ff" points="177.85,-19.5 187.85,-16 177.85,-12.5 177.85,-19.5"/>
</a>
</g>
</g>
</g>
</svg>
