<?xml version="1.0" encoding="UTF-8" standalone="no"?>
<!DOCTYPE svg PUBLIC "-//W3C//DTD SVG 1.1//EN"
 "http://www.w3.org/Graphics/SVG/1.1/DTD/svg11.dtd">
<!-- Generated by graphviz version 8.1.0 (20230707.0739)
 -->
<!-- Title: ADVSCamera::PostPhysTick Pages: 1 -->
<svg width="792pt" height="766pt"
 viewBox="0.00 0.00 792.25 766.00" xmlns="http://www.w3.org/2000/svg" xmlns:xlink="http://www.w3.org/1999/xlink">
<g id="graph0" class="graph" transform="scale(1 1) rotate(0) translate(4 762)">
<title>ADVSCamera::PostPhysTick</title>
<!-- Node1 -->
<g id="Node000001" class="node">
<title>Node1</title>
<g id="a_Node000001"><a xlink:title=" ">
<polygon fill="#999999" stroke="#666666" points="143.5,-391 0,-391 0,-371 143.5,-371 143.5,-391"/>
<text text-anchor="middle" x="71.75" y="-377.5" font-family="Helvetica,sans-Serif" font-size="10.00">ADVSCamera::PostPhysTick</text>
</a>
</g>
</g>
<!-- Node1&#45;&gt;Node1 -->
<g id="edge20_Node000001_Node000001" class="edge">
<title>Node1&#45;&gt;Node1</title>
<g id="a_edge20_Node000001_Node000001"><a xlink:title=" ">
<path fill="none" stroke="#63b8ff" d="M41.26,-391.34C28.23,-399.98 38.4,-409 71.75,-409 92.07,-409 103.79,-405.65 106.89,-401.08"/>
<polygon fill="#63b8ff" stroke="#63b8ff" points="109.71,-399.85 102.24,-392.34 103.39,-402.87 109.71,-399.85"/>
</a>
</g>
</g>
<!-- Node2 -->
<g id="Node000002" class="node">
<title>Node2</title>
<g id="a_Node000002"><a xlink:href="../../db/db8/classcarla_1_1BufferView.html#a4eefa5dd2893554424512814e6de0c9e" target="_top" xlink:title=" ">
<polygon fill="white" stroke="#666666" points="311,-704 216.25,-704 216.25,-672 311,-672 311,-704"/>
<text text-anchor="start" x="224.25" y="-690.5" font-family="Helvetica,sans-Serif" font-size="10.00">carla::BufferView::</text>
<text text-anchor="middle" x="263.62" y="-678.5" font-family="Helvetica,sans-Serif" font-size="10.00">CreateFrom</text>
</a>
</g>
</g>
<!-- Node1&#45;&gt;Node2 -->
<g id="edge1_Node000001_Node000002" class="edge">
<title>Node1&#45;&gt;Node2</title>
<g id="a_edge1_Node000001_Node000002"><a xlink:title=" ">
<path fill="none" stroke="#63b8ff" d="M73.47,-391.22C76.89,-431.95 95.08,-584.27 179.5,-663 186.87,-669.87 196.05,-674.85 205.6,-678.47"/>
<polygon fill="#63b8ff" stroke="#63b8ff" points="204.45,-682.11 215.04,-681.89 206.63,-675.45 204.45,-682.11"/>
</a>
</g>
</g>
<!-- Node8 -->
<g id="Node000008" class="node">
<title>Node8</title>
<g id="a_Node000008"><a xlink:href="../../d4/d60/classASceneCaptureSensor.html#a887f576f53f4ad4c65c4e04da296d1d3" target="_top" xlink:title="Immediate enqueues render commands of the scene at the current time.">
<polygon fill="white" stroke="#666666" points="345.5,-636 181.75,-636 181.75,-604 345.5,-604 345.5,-636"/>
<text text-anchor="start" x="189.75" y="-622.5" font-family="Helvetica,sans-Serif" font-size="10.00">ASceneCaptureSensor</text>
<text text-anchor="middle" x="263.62" y="-610.5" font-family="Helvetica,sans-Serif" font-size="10.00">::EnqueueRenderSceneImmediate</text>
</a>
</g>
</g>
<!-- Node1&#45;&gt;Node8 -->
<g id="edge7_Node000001_Node000008" class="edge">
<title>Node1&#45;&gt;Node8</title>
<g id="a_edge7_Node000001_Node000008"><a xlink:title=" ">
<path fill="none" stroke="#63b8ff" d="M74.83,-391.28C82.34,-425.64 111.23,-537.49 179.5,-595 180.72,-596.03 181.99,-597.02 183.29,-597.97"/>
<polygon fill="#63b8ff" stroke="#63b8ff" points="181.02,-601.3 191.35,-603.65 184.74,-595.37 181.02,-601.3"/>
</a>
</g>
</g>
<!-- Node10 -->
<g id="Node000010" class="node">
<title>Node10</title>
<g id="a_Node000010"><a xlink:href="../../df/de1/classcarla_1_1streaming_1_1detail_1_1token__type.html#a2edd9e9111f8f91b47791baec38c5829" target="_top" xlink:title=" ">
<polygon fill="white" stroke="#666666" points="332.38,-586 194.88,-586 194.88,-554 332.38,-554 332.38,-586"/>
<text text-anchor="start" x="202.88" y="-572.5" font-family="Helvetica,sans-Serif" font-size="10.00">carla::streaming::detail</text>
<text text-anchor="middle" x="263.62" y="-560.5" font-family="Helvetica,sans-Serif" font-size="10.00">::token_type::get_stream_id</text>
</a>
</g>
</g>
<!-- Node1&#45;&gt;Node10 -->
<g id="edge10_Node000001_Node000010" class="edge">
<title>Node1&#45;&gt;Node10</title>
<g id="a_edge10_Node000001_Node000010"><a xlink:title=" ">
<path fill="none" stroke="#63b8ff" d="M76.48,-391.25C87.48,-420.06 122.67,-502.43 179.5,-545 181.22,-546.29 183,-547.51 184.84,-548.67"/>
<polygon fill="#63b8ff" stroke="#63b8ff" points="182.98,-552.19 193.42,-553.96 186.36,-546.06 182.98,-552.19"/>
</a>
</g>
</g>
<!-- Node11 -->
<g id="Node000011" class="node">
<title>Node11</title>
<g id="a_Node000011"><a xlink:href="../../d3/d01/classASensor.html#a3a5ffb398a9916d3cedd1f1e3f0e1ed4" target="_top" xlink:title=" ">
<polygon fill="white" stroke="#666666" points="319.62,-536 207.62,-536 207.62,-516 319.62,-516 319.62,-536"/>
<text text-anchor="middle" x="263.62" y="-522.5" font-family="Helvetica,sans-Serif" font-size="10.00">ASensor::GetAttribute</text>
</a>
</g>
</g>
<!-- Node1&#45;&gt;Node11 -->
<g id="edge11_Node000001_Node000011" class="edge">
<title>Node1&#45;&gt;Node11</title>
<g id="a_edge11_Node000001_Node000011"><a xlink:title=" ">
<path fill="none" stroke="#63b8ff" d="M78.39,-391.44C92.16,-415.86 130.02,-476.91 179.5,-507 184.93,-510.3 190.87,-513.03 197.01,-515.28"/>
<polygon fill="#63b8ff" stroke="#63b8ff" points="195.87,-518.92 206.46,-518.65 198.01,-512.25 195.87,-518.92"/>
</a>
</g>
</g>
<!-- Node12 -->
<g id="Node000012" class="node">
<title>Node12</title>
<g id="a_Node000012"><a xlink:href="../../d3/d01/classASensor.html#a8fa217c0d68d5c774510d5e941ae0ade" target="_top" xlink:title="Return the FDataStream associated with this sensor.">
<polygon fill="white" stroke="#666666" points="327.12,-498 200.12,-498 200.12,-478 327.12,-478 327.12,-498"/>
<text text-anchor="middle" x="263.62" y="-484.5" font-family="Helvetica,sans-Serif" font-size="10.00">ASensor::GetDataStream</text>
</a>
</g>
</g>
<!-- Node1&#45;&gt;Node12 -->
<g id="edge12_Node000001_Node000012" class="edge">
<title>Node1&#45;&gt;Node12</title>
<g id="a_edge12_Node000001_Node000012"><a xlink:title=" ">
<path fill="none" stroke="#63b8ff" d="M81.94,-391.22C99.17,-409.73 138.33,-448.75 179.5,-469 183.28,-470.86 187.24,-472.54 191.3,-474.06"/>
<polygon fill="#63b8ff" stroke="#63b8ff" points="189.96,-477.63 200.56,-477.51 192.19,-471 189.96,-477.63"/>
</a>
</g>
</g>
<!-- Node13 -->
<g id="Node000013" class="node">
<title>Node13</title>
<g id="a_Node000013"><a xlink:href="../../d8/d78/classcarla_1_1ros2_1_1ROS2.html#a2cec6f14ee2b8e025b585575508d77f1" target="_top" xlink:title=" ">
<polygon fill="white" stroke="#666666" points="313.62,-460 213.62,-460 213.62,-428 313.62,-428 313.62,-460"/>
<text text-anchor="start" x="221.62" y="-446.5" font-family="Helvetica,sans-Serif" font-size="10.00">carla::ros2::ROS2::</text>
<text text-anchor="middle" x="263.62" y="-434.5" font-family="Helvetica,sans-Serif" font-size="10.00">GetInstance</text>
</a>
</g>
</g>
<!-- Node1&#45;&gt;Node13 -->
<g id="edge13_Node000001_Node000013" class="edge">
<title>Node1&#45;&gt;Node13</title>
<g id="a_edge13_Node000001_Node000013"><a xlink:title=" ">
<path fill="none" stroke="#63b8ff" d="M100.71,-391.38C122.17,-399.25 152.58,-410.17 179.5,-419 187.07,-421.48 195.05,-424.01 202.96,-426.45"/>
<polygon fill="#63b8ff" stroke="#63b8ff" points="201.68,-430.02 212.27,-429.6 203.73,-423.33 201.68,-430.02"/>
</a>
</g>
</g>
<!-- Node14 -->
<g id="Node000014" class="node">
<title>Node14</title>
<g id="a_Node000014"><a xlink:href="../../d4/d9c/classFDataStreamTmpl.html#a8350f93ef64dc8931d1c9b9de49ac09e" target="_top" xlink:title=" ">
<polygon fill="white" stroke="#666666" points="347.75,-410 179.5,-410 179.5,-390 347.75,-390 347.75,-410"/>
<text text-anchor="middle" x="263.62" y="-396.5" font-family="Helvetica,sans-Serif" font-size="10.00">FDataStreamTmpl::GetSensorType</text>
</a>
</g>
</g>
<!-- Node1&#45;&gt;Node14 -->
<g id="edge14_Node000001_Node000014" class="edge">
<title>Node1&#45;&gt;Node14</title>
<g id="a_edge14_Node000001_Node000014"><a xlink:title=" ">
<path fill="none" stroke="#63b8ff" d="M143.99,-388.13C151.97,-388.93 160.18,-389.75 168.39,-390.57"/>
<polygon fill="#63b8ff" stroke="#63b8ff" points="167.85,-394.13 178.15,-391.65 168.55,-387.17 167.85,-394.13"/>
</a>
</g>
</g>
<!-- Node15 -->
<g id="Node000015" class="node">
<title>Node15</title>
<g id="a_Node000015"><a xlink:href="../../d3/d01/classASensor.html#a66fce49debf0145d15f810fd78775e9d" target="_top" xlink:title="Return the token that allows subscribing to this sensor&#39;s stream.">
<polygon fill="white" stroke="#666666" points="314.38,-372 212.88,-372 212.88,-352 314.38,-352 314.38,-372"/>
<text text-anchor="middle" x="263.62" y="-358.5" font-family="Helvetica,sans-Serif" font-size="10.00">ASensor::GetToken</text>
</a>
</g>
</g>
<!-- Node1&#45;&gt;Node15 -->
<g id="edge15_Node000001_Node000015" class="edge">
<title>Node1&#45;&gt;Node15</title>
<g id="a_edge15_Node000001_Node000015"><a xlink:title=" ">
<path fill="none" stroke="#63b8ff" d="M143.99,-373.87C162.99,-371.97 183.34,-369.93 201.73,-368.09"/>
<polygon fill="#63b8ff" stroke="#63b8ff" points="202,-371.48 211.6,-367.01 201.3,-364.52 202,-371.48"/>
</a>
</g>
</g>
<!-- Node16 -->
<g id="Node000016" class="node">
<title>Node16</title>
<g id="a_Node000016"><a xlink:href="../../d2/daf/classADVSCamera.html#adc39a38b36bd7288a59d1efd0b530641" target="_top" xlink:title=" ">
<polygon fill="white" stroke="#666666" points="333.88,-334 193.38,-334 193.38,-314 333.88,-314 333.88,-334"/>
<text text-anchor="middle" x="263.62" y="-320.5" font-family="Helvetica,sans-Serif" font-size="10.00">ADVSCamera::ImageToGray</text>
</a>
</g>
</g>
<!-- Node1&#45;&gt;Node16 -->
<g id="edge16_Node000001_Node000016" class="edge">
<title>Node1&#45;&gt;Node16</title>
<g id="a_edge16_Node000001_Node000016"><a xlink:title=" ">
<path fill="none" stroke="#63b8ff" d="M99.23,-370.6C120.66,-362.41 151.74,-351.08 179.5,-343 186.75,-340.89 194.4,-338.87 202.02,-336.98"/>
<polygon fill="#63b8ff" stroke="#63b8ff" points="202.81,-340.15 211.71,-334.41 201.17,-333.34 202.81,-340.15"/>
</a>
</g>
</g>
<!-- Node18 -->
<g id="Node000018" class="node">
<title>Node18</title>
<g id="a_Node000018"><a xlink:href="../../d2/daf/classADVSCamera.html#a9c72e5692025bde8a29d4d0f61853d99" target="_top" xlink:title=" ">
<polygon fill="white" stroke="#666666" points="341.75,-296 185.5,-296 185.5,-276 341.75,-276 341.75,-296"/>
<text text-anchor="middle" x="263.62" y="-282.5" font-family="Helvetica,sans-Serif" font-size="10.00">ADVSCamera::ImageToLogGray</text>
</a>
</g>
</g>
<!-- Node1&#45;&gt;Node18 -->
<g id="edge18_Node000001_Node000018" class="edge">
<title>Node1&#45;&gt;Node18</title>
<g id="a_edge18_Node000001_Node000018"><a xlink:title=" ">
<path fill="none" stroke="#63b8ff" d="M83.97,-370.68C102.45,-354.25 141.1,-322.23 179.5,-305 183.87,-303.04 188.47,-301.27 193.16,-299.67"/>
<polygon fill="#63b8ff" stroke="#63b8ff" points="194.03,-302.76 202.54,-296.46 191.95,-296.07 194.03,-302.76"/>
</a>
</g>
</g>
<!-- Node19 -->
<g id="Node000019" class="node">
<title>Node19</title>
<g id="a_Node000019"><a xlink:href="../../d4/d60/classASceneCaptureSensor.html#a0097292698470dba39d4e6ce1907db30" target="_top" xlink:title="Use for debugging purposes only.">
<polygon fill="white" stroke="#666666" points="321.12,-258 206.12,-258 206.12,-226 321.12,-226 321.12,-258"/>
<text text-anchor="start" x="214.12" y="-244.5" font-family="Helvetica,sans-Serif" font-size="10.00">ASceneCaptureSensor</text>
<text text-anchor="middle" x="263.62" y="-232.5" font-family="Helvetica,sans-Serif" font-size="10.00">::ReadPixels</text>
</a>
</g>
</g>
<!-- Node1&#45;&gt;Node19 -->
<g id="edge21_Node000001_Node000019" class="edge">
<title>Node1&#45;&gt;Node19</title>
<g id="a_edge21_Node000001_Node000019"><a xlink:title=" ">
<path fill="none" stroke="#63b8ff" d="M79.45,-370.79C94.58,-348.55 133.65,-295.44 179.5,-267 184.67,-263.79 190.27,-260.98 196.05,-258.51"/>
<polygon fill="#63b8ff" stroke="#63b8ff" points="196.84,-261.57 204.88,-254.67 194.29,-255.05 196.84,-261.57"/>
</a>
</g>
</g>
<!-- Node21 -->
<g id="Node000021" class="node">
<title>Node21</title>
<g id="a_Node000021"><a xlink:href="../../d3/d81/classcarla_1_1sensor_1_1CompositeSerializer.html#a69dc7c61b631b59bcc50ffb08f4a6972" target="_top" xlink:title="Serialize the arguments provided into a Buffer by calling to the serializer registered for the given ...">
<polygon fill="white" stroke="#666666" points="326,-208 201.25,-208 201.25,-176 326,-176 326,-208"/>
<text text-anchor="start" x="209.25" y="-194.5" font-family="Helvetica,sans-Serif" font-size="10.00">carla::sensor::Composite</text>
<text text-anchor="middle" x="263.62" y="-182.5" font-family="Helvetica,sans-Serif" font-size="10.00">Serializer::Serialize</text>
</a>
</g>
</g>
<!-- Node1&#45;&gt;Node21 -->
<g id="edge23_Node000001_Node000021" class="edge">
<title>Node1&#45;&gt;Node21</title>
<g id="a_edge23_Node000001_Node000021"><a xlink:title=" ">
<path fill="none" stroke="#63b8ff" d="M76.48,-370.75C87.48,-341.94 122.67,-259.57 179.5,-217 183.1,-214.31 186.98,-211.9 191.04,-209.75"/>
<polygon fill="#63b8ff" stroke="#63b8ff" points="192.2,-212.61 199.77,-205.2 189.23,-206.27 192.2,-212.61"/>
</a>
</g>
</g>
<!-- Node22 -->
<g id="Node000022" class="node">
<title>Node22</title>
<g id="a_Node000022"><a xlink:href="../../d2/daf/classADVSCamera.html#a62f068271a856fdda9e885ce94403105" target="_top" xlink:title=" ">
<polygon fill="white" stroke="#666666" points="327.88,-155 199.38,-155 199.38,-135 327.88,-135 327.88,-155"/>
<text text-anchor="middle" x="263.62" y="-141.5" font-family="Helvetica,sans-Serif" font-size="10.00">ADVSCamera::Simulation</text>
</a>
</g>
</g>
<!-- Node1&#45;&gt;Node22 -->
<g id="edge24_Node000001_Node000022" class="edge">
<title>Node1&#45;&gt;Node22</title>
<g id="a_edge24_Node000001_Node000022"><a xlink:title=" ">
<path fill="none" stroke="#63b8ff" d="M74.76,-370.63C82.03,-336 110.28,-223.37 179.5,-167 182.64,-164.45 186.04,-162.19 189.62,-160.19"/>
<polygon fill="#63b8ff" stroke="#63b8ff" points="190.93,-162.96 198.44,-155.48 187.91,-156.65 190.93,-162.96"/>
</a>
</g>
</g>
<!-- Node29 -->
<g id="Node000029" class="node">
<title>Node29</title>
<g id="a_Node000029"><a xlink:href="../../d4/d60/classASceneCaptureSensor.html#aed2f2ec55fe52044468657aecf49682c" target="_top" xlink:title="Blocks until the render thread has finished all it&#39;s tasks.">
<polygon fill="white" stroke="#666666" points="340.25,-99 187,-99 187,-67 340.25,-67 340.25,-99"/>
<text text-anchor="start" x="195" y="-85.5" font-family="Helvetica,sans-Serif" font-size="10.00">ASceneCaptureSensor</text>
<text text-anchor="middle" x="263.62" y="-73.5" font-family="Helvetica,sans-Serif" font-size="10.00">::WaitForRenderThreadToFinish</text>
</a>
</g>
</g>
<!-- Node1&#45;&gt;Node29 -->
<g id="edge31_Node000001_Node000029" class="edge">
<title>Node1&#45;&gt;Node29</title>
<g id="a_edge31_Node000001_Node000029"><a xlink:title=" ">
<path fill="none" stroke="#63b8ff" d="M74.47,-370.64C81.16,-333.15 108.73,-202.74 179.5,-126 187.43,-117.4 197.47,-110.24 207.8,-104.39"/>
<polygon fill="#63b8ff" stroke="#63b8ff" points="209.11,-107.13 216.33,-99.38 205.85,-100.94 209.11,-107.13"/>
</a>
</g>
</g>
<!-- Node3 -->
<g id="Node000003" class="node">
<title>Node3</title>
<g id="a_Node000003"><a xlink:href="../../db/db8/classcarla_1_1BufferView.html#ab2dfa752fa10fcc6693b27f7bd663479" target="_top" xlink:title="Make a boost::asio::buffer from this buffer.">
<polygon fill="white" stroke="#666666" points="501.75,-745 407,-745 407,-713 501.75,-713 501.75,-745"/>
<text text-anchor="start" x="415" y="-731.5" font-family="Helvetica,sans-Serif" font-size="10.00">carla::BufferView::</text>
<text text-anchor="middle" x="454.38" y="-719.5" font-family="Helvetica,sans-Serif" font-size="10.00">buffer</text>
</a>
</g>
</g>
<!-- Node2&#45;&gt;Node3 -->
<g id="edge2_Node000002_Node000003" class="edge">
<title>Node2&#45;&gt;Node3</title>
<g id="a_edge2_Node000002_Node000003"><a xlink:title=" ">
<path fill="none" stroke="#63b8ff" d="M311.28,-698.13C336.92,-703.7 368.93,-710.66 396.07,-716.55"/>
<polygon fill="#63b8ff" stroke="#63b8ff" points="395.09,-720.14 405.6,-718.84 396.57,-713.3 395.09,-720.14"/>
</a>
</g>
</g>
<!-- Node7 -->
<g id="Node000007" class="node">
<title>Node7</title>
<g id="a_Node000007"><a xlink:href="../../db/db8/classcarla_1_1BufferView.html#a6b5d5cde7bc06e5296c0a1312721411a" target="_top" xlink:title=" ">
<polygon fill="white" stroke="#666666" points="501.75,-695 407,-695 407,-663 501.75,-663 501.75,-695"/>
<text text-anchor="start" x="415" y="-681.5" font-family="Helvetica,sans-Serif" font-size="10.00">carla::BufferView::</text>
<text text-anchor="middle" x="454.38" y="-669.5" font-family="Helvetica,sans-Serif" font-size="10.00">BufferView</text>
</a>
</g>
</g>
<!-- Node2&#45;&gt;Node7 -->
<g id="edge6_Node000002_Node000007" class="edge">
<title>Node2&#45;&gt;Node7</title>
<g id="a_edge6_Node000002_Node000007"><a xlink:title=" ">
<path fill="none" stroke="#63b8ff" d="M311.28,-685.78C336.8,-684.56 368.65,-683.04 395.71,-681.75"/>
<polygon fill="#63b8ff" stroke="#63b8ff" points="395.78,-685.2 405.6,-681.23 395.44,-678.21 395.78,-685.2"/>
</a>
</g>
</g>
<!-- Node4 -->
<g id="Node000004" class="node">
<title>Node4</title>
<g id="a_Node000004"><a xlink:href="../../db/db8/classcarla_1_1BufferView.html#a7f789d855f7596a0874eb91fd913c5a7" target="_top" xlink:title="Make a boost::asio::buffer from this buffer.">
<polygon fill="white" stroke="#666666" points="655.75,-745 561,-745 561,-713 655.75,-713 655.75,-745"/>
<text text-anchor="start" x="569" y="-731.5" font-family="Helvetica,sans-Serif" font-size="10.00">carla::BufferView::</text>
<text text-anchor="middle" x="608.38" y="-719.5" font-family="Helvetica,sans-Serif" font-size="10.00">cbuffer</text>
</a>
</g>
</g>
<!-- Node3&#45;&gt;Node4 -->
<g id="edge3_Node000003_Node000004" class="edge">
<title>Node3&#45;&gt;Node4</title>
<g id="a_edge3_Node000003_Node000004"><a xlink:title=" ">
<path fill="none" stroke="#63b8ff" d="M502.22,-729C517.32,-729 534.22,-729 549.99,-729"/>
<polygon fill="#63b8ff" stroke="#63b8ff" points="549.68,-732.5 559.68,-729 549.68,-725.5 549.68,-732.5"/>
</a>
</g>
</g>
<!-- Node5 -->
<g id="Node000005" class="node">
<title>Node5</title>
<g id="a_Node000005"><a xlink:href="../../d0/d0a/classcarla_1_1Buffer.html#a10680a1dd5dd8718b8e871b631022cdf" target="_top" xlink:title="Direct access to the allocated memory or nullptr if no memory is allocated.">
<polygon fill="white" stroke="#666666" points="784.25,-758 691.75,-758 691.75,-738 784.25,-738 784.25,-758"/>
<text text-anchor="middle" x="738" y="-744.5" font-family="Helvetica,sans-Serif" font-size="10.00">carla::Buffer::data</text>
</a>
</g>
</g>
<!-- Node4&#45;&gt;Node5 -->
<g id="edge4_Node000004_Node000005" class="edge">
<title>Node4&#45;&gt;Node5</title>
<g id="a_edge4_Node000004_Node000005"><a xlink:title=" ">
<path fill="none" stroke="#63b8ff" d="M656.17,-735.97C664.19,-737.16 672.59,-738.41 680.81,-739.64"/>
<polygon fill="#63b8ff" stroke="#63b8ff" points="680.08,-743.21 690.48,-741.22 681.11,-736.29 680.08,-743.21"/>
</a>
</g>
</g>
<!-- Node6 -->
<g id="Node000006" class="node">
<title>Node6</title>
<g id="a_Node000006"><a xlink:href="../../d0/d0a/classcarla_1_1Buffer.html#a3edea2e44a05d9806312e5f9e52315e4" target="_top" xlink:title=" ">
<polygon fill="white" stroke="#666666" points="783.88,-720 692.12,-720 692.12,-700 783.88,-700 783.88,-720"/>
<text text-anchor="middle" x="738" y="-706.5" font-family="Helvetica,sans-Serif" font-size="10.00">carla::Buffer::size</text>
</a>
</g>
</g>
<!-- Node4&#45;&gt;Node6 -->
<g id="edge5_Node000004_Node000006" class="edge">
<title>Node4&#45;&gt;Node6</title>
<g id="a_edge5_Node000004_Node000006"><a xlink:title=" ">
<path fill="none" stroke="#63b8ff" d="M656.17,-722.03C664.29,-720.83 672.79,-719.56 681.12,-718.32"/>
<polygon fill="#63b8ff" stroke="#63b8ff" points="681.53,-721.65 690.91,-716.71 680.5,-714.72 681.53,-721.65"/>
</a>
</g>
</g>
<!-- Node8&#45;&gt;Node8 -->
<g id="edge8_Node000008_Node000008" class="edge">
<title>Node8&#45;&gt;Node8</title>
<g id="a_edge8_Node000008_Node000008"><a xlink:title=" ">
<path fill="none" stroke="#63b8ff" d="M229.57,-636.44C223.21,-645.58 234.57,-654 263.62,-654 280.43,-654 291.31,-651.19 296.27,-647.05"/>
<polygon fill="#63b8ff" stroke="#63b8ff" points="299.83,-647.82 297.68,-637.44 292.89,-646.89 299.83,-647.82"/>
</a>
</g>
</g>
<!-- Node9 -->
<g id="Node000009" class="node">
<title>Node9</title>
<g id="a_Node000009"><a xlink:href="../../d4/d60/classASceneCaptureSensor.html#a6abb372aa02dac0b573a671ccc74714d" target="_top" xlink:title=" ">
<polygon fill="white" stroke="#666666" points="520.88,-636 387.88,-636 387.88,-604 520.88,-604 520.88,-636"/>
<text text-anchor="start" x="395.88" y="-622.5" font-family="Helvetica,sans-Serif" font-size="10.00">ASceneCaptureSensor</text>
<text text-anchor="middle" x="454.38" y="-610.5" font-family="Helvetica,sans-Serif" font-size="10.00">::GetCaptureComponent2D</text>
</a>
</g>
</g>
<!-- Node8&#45;&gt;Node9 -->
<g id="edge9_Node000008_Node000009" class="edge">
<title>Node8&#45;&gt;Node9</title>
<g id="a_edge9_Node000008_Node000009"><a xlink:title=" ">
<path fill="none" stroke="#63b8ff" d="M345.77,-620C356.04,-620 366.53,-620 376.73,-620"/>
<polygon fill="#63b8ff" stroke="#63b8ff" points="376.66,-623.5 386.66,-620 376.66,-616.5 376.66,-623.5"/>
</a>
</g>
</g>
<!-- Node17 -->
<g id="Node000017" class="node">
<title>Node17</title>
<g id="a_Node000017"><a xlink:href="../../d9/d6e/DVSCamera_8cpp.html#ab98aba97257f58cd0cca398b748c7371" target="_top" xlink:title=" ">
<polygon fill="white" stroke="#666666" points="515.62,-334 393.12,-334 393.12,-314 515.62,-314 515.62,-334"/>
<text text-anchor="middle" x="454.38" y="-320.5" font-family="Helvetica,sans-Serif" font-size="10.00">FColorToGrayScaleFloat</text>
</a>
</g>
</g>
<!-- Node16&#45;&gt;Node17 -->
<g id="edge17_Node000016_Node000017" class="edge">
<title>Node16&#45;&gt;Node17</title>
<g id="a_edge17_Node000016_Node000017"><a xlink:title=" ">
<path fill="none" stroke="#63b8ff" d="M334.37,-324C349.99,-324 366.57,-324 382.24,-324"/>
<polygon fill="#63b8ff" stroke="#63b8ff" points="381.92,-327.5 391.92,-324 381.92,-320.5 381.92,-327.5"/>
</a>
</g>
</g>
<!-- Node18&#45;&gt;Node17 -->
<g id="edge19_Node000018_Node000017" class="edge">
<title>Node18&#45;&gt;Node17</title>
<g id="a_edge19_Node000018_Node000017"><a xlink:title=" ">
<path fill="none" stroke="#63b8ff" d="M316.7,-296.48C339.6,-301.09 366.69,-306.55 390.69,-311.38"/>
<polygon fill="#63b8ff" stroke="#63b8ff" points="389.97,-315.01 400.47,-313.55 391.36,-308.15 389.97,-315.01"/>
</a>
</g>
</g>
<!-- Node20 -->
<g id="Node000020" class="node">
<title>Node20</title>
<g id="a_Node000020"><a xlink:href="../../dd/d11/classFPixelReader.html#a7b7dcebd2d155ed24686e65d0c420c7e" target="_top" xlink:title="Copy the pixels in RenderTarget into BitMap.">
<polygon fill="white" stroke="#666666" points="519.75,-296 389,-296 389,-264 519.75,-264 519.75,-296"/>
<text text-anchor="start" x="397" y="-282.5" font-family="Helvetica,sans-Serif" font-size="10.00">FPixelReader::WritePixels</text>
<text text-anchor="middle" x="454.38" y="-270.5" font-family="Helvetica,sans-Serif" font-size="10.00">ToArray</text>
</a>
</g>
</g>
<!-- Node19&#45;&gt;Node20 -->
<g id="edge22_Node000019_Node000020" class="edge">
<title>Node19&#45;&gt;Node20</title>
<g id="a_edge22_Node000019_Node000020"><a xlink:title=" ">
<path fill="none" stroke="#63b8ff" d="M321.51,-253.45C339.29,-257.03 359.18,-261.04 378.02,-264.83"/>
<polygon fill="#63b8ff" stroke="#63b8ff" points="377.17,-268.43 387.67,-266.97 378.55,-261.57 377.17,-268.43"/>
</a>
</g>
</g>
<!-- Node23 -->
<g id="Node000023" class="node">
<title>Node23</title>
<g id="a_Node000023"><a xlink:href="../../d3/d01/classASensor.html#adfbd2b80613e8936e27f29436d62812c" target="_top" xlink:title=" ">
<polygon fill="white" stroke="#666666" points="509.62,-246 399.12,-246 399.12,-226 509.62,-226 509.62,-246"/>
<text text-anchor="middle" x="454.38" y="-232.5" font-family="Helvetica,sans-Serif" font-size="10.00">ASensor::GetEpisode</text>
</a>
</g>
</g>
<!-- Node22&#45;&gt;Node23 -->
<g id="edge25_Node000022_Node000023" class="edge">
<title>Node22&#45;&gt;Node23</title>
<g id="a_edge25_Node000022_Node000023"><a xlink:title=" ">
<path fill="none" stroke="#63b8ff" d="M324.52,-155.47C332.73,-158.41 340.74,-162.18 347.75,-167 370.31,-182.52 361.25,-201.39 383.75,-217 385.76,-218.39 387.86,-219.68 390.04,-220.88"/>
<polygon fill="#63b8ff" stroke="#63b8ff" points="388.42,-224.46 398.96,-225.54 391.4,-218.12 388.42,-224.46"/>
</a>
</g>
</g>
<!-- Node24 -->
<g id="Node000024" class="node">
<title>Node24</title>
<g id="a_Node000024"><a xlink:href="../../d4/d60/classASceneCaptureSensor.html#a967e3b939916ceeeff7a23b6f072233e" target="_top" xlink:title=" ">
<polygon fill="white" stroke="#666666" points="511.88,-208 396.88,-208 396.88,-176 511.88,-176 511.88,-208"/>
<text text-anchor="start" x="404.88" y="-194.5" font-family="Helvetica,sans-Serif" font-size="10.00">ASceneCaptureSensor</text>
<text text-anchor="middle" x="454.38" y="-182.5" font-family="Helvetica,sans-Serif" font-size="10.00">::GetImageHeight</text>
</a>
</g>
</g>
<!-- Node22&#45;&gt;Node24 -->
<g id="edge26_Node000022_Node000024" class="edge">
<title>Node22&#45;&gt;Node24</title>
<g id="a_edge26_Node000022_Node000024"><a xlink:title=" ">
<path fill="none" stroke="#63b8ff" d="M306.51,-155.43C329.91,-161.26 359.61,-168.65 386.18,-175.27"/>
<polygon fill="#63b8ff" stroke="#63b8ff" points="385.02,-178.83 395.57,-177.85 386.71,-172.04 385.02,-178.83"/>
</a>
</g>
</g>
<!-- Node25 -->
<g id="Node000025" class="node">
<title>Node25</title>
<g id="a_Node000025"><a xlink:href="../../d4/d60/classASceneCaptureSensor.html#aaf1064834429bc5ac472d2a7f6d534f0" target="_top" xlink:title=" ">
<polygon fill="white" stroke="#666666" points="511.88,-158 396.88,-158 396.88,-126 511.88,-126 511.88,-158"/>
<text text-anchor="start" x="404.88" y="-144.5" font-family="Helvetica,sans-Serif" font-size="10.00">ASceneCaptureSensor</text>
<text text-anchor="middle" x="454.38" y="-132.5" font-family="Helvetica,sans-Serif" font-size="10.00">::GetImageWidth</text>
</a>
</g>
</g>
<!-- Node22&#45;&gt;Node25 -->
<g id="edge27_Node000022_Node000025" class="edge">
<title>Node22&#45;&gt;Node25</title>
<g id="a_edge27_Node000022_Node000025"><a xlink:title=" ">
<path fill="none" stroke="#63b8ff" d="M328.26,-143.99C346.78,-143.69 367.08,-143.37 385.83,-143.07"/>
<polygon fill="#63b8ff" stroke="#63b8ff" points="385.72,-146.56 395.66,-142.9 385.61,-139.56 385.72,-146.56"/>
</a>
</g>
</g>
<!-- Node26 -->
<g id="Node000026" class="node">
<title>Node26</title>
<g id="a_Node000026"><a xlink:href="../../d2/d4b/classURandomEngine.html#a794f6be8c1517dba34b61f2b753cb4d3" target="_top" xlink:title=" ">
<polygon fill="white" stroke="#666666" points="525,-108 383.75,-108 383.75,-76 525,-76 525,-108"/>
<text text-anchor="start" x="391.75" y="-94.5" font-family="Helvetica,sans-Serif" font-size="10.00">URandomEngine::GetNormal</text>
<text text-anchor="middle" x="454.38" y="-82.5" font-family="Helvetica,sans-Serif" font-size="10.00">Distribution</text>
</a>
</g>
</g>
<!-- Node22&#45;&gt;Node26 -->
<g id="edge28_Node000022_Node000026" class="edge">
<title>Node22&#45;&gt;Node26</title>
<g id="a_edge28_Node000022_Node000026"><a xlink:title=" ">
<path fill="none" stroke="#63b8ff" d="M313.59,-134.55C324.86,-131.94 336.76,-129.02 347.75,-126 363.15,-121.77 379.64,-116.72 394.91,-111.82"/>
<polygon fill="#63b8ff" stroke="#63b8ff" points="395.83,-114.87 404.26,-108.46 393.67,-108.21 395.83,-114.87"/>
</a>
</g>
</g>
<!-- Node27 -->
<g id="Node000027" class="node">
<title>Node27</title>
<g id="a_Node000027"><a xlink:href="../../da/db4/namespacedvs.html#ac54b5bb06427e16dc43ab116b1bfa5a7" target="_top" xlink:title=" ">
<polygon fill="white" stroke="#666666" points="516.75,-58 392,-58 392,-38 516.75,-38 516.75,-58"/>
<text text-anchor="middle" x="454.38" y="-44.5" font-family="Helvetica,sans-Serif" font-size="10.00">dvs::nanosecToSecTrunc</text>
</a>
</g>
</g>
<!-- Node22&#45;&gt;Node27 -->
<g id="edge29_Node000022_Node000027" class="edge">
<title>Node22&#45;&gt;Node27</title>
<g id="a_edge29_Node000022_Node000027"><a xlink:title=" ">
<path fill="none" stroke="#63b8ff" d="M328.23,-136.13C335.18,-133.55 341.86,-130.24 347.75,-126 372.68,-108.06 359.2,-85.46 383.75,-67 385.62,-65.59 387.59,-64.29 389.63,-63.08"/>
<polygon fill="#63b8ff" stroke="#63b8ff" points="390.62,-66 397.99,-58.39 387.48,-59.75 390.62,-66"/>
</a>
</g>
</g>
<!-- Node28 -->
<g id="Node000028" class="node">
<title>Node28</title>
<g id="a_Node000028"><a xlink:href="../../da/db4/namespacedvs.html#a7428ef639b135279110db3754676188e" target="_top" xlink:title=" ">
<polygon fill="white" stroke="#666666" points="504.75,-20 404,-20 404,0 504.75,0 504.75,-20"/>
<text text-anchor="middle" x="454.38" y="-6.5" font-family="Helvetica,sans-Serif" font-size="10.00">dvs::secToNanosec</text>
</a>
</g>
</g>
<!-- Node22&#45;&gt;Node28 -->
<g id="edge30_Node000022_Node000028" class="edge">
<title>Node22&#45;&gt;Node28</title>
<g id="a_edge30_Node000022_Node000028"><a xlink:title=" ">
<path fill="none" stroke="#63b8ff" d="M328.25,-137.54C335.36,-134.73 342.07,-130.98 347.75,-126 382.32,-95.68 349.82,-60.04 383.75,-29 386.75,-26.26 390.1,-23.91 393.67,-21.89"/>
<polygon fill="#63b8ff" stroke="#63b8ff" points="394.95,-24.69 402.54,-17.3 392,-18.34 394.95,-24.69"/>
</a>
</g>
</g>
<!-- Node29&#45;&gt;Node29 -->
<g id="edge32_Node000029_Node000029" class="edge">
<title>Node29&#45;&gt;Node29</title>
<g id="a_edge32_Node000029_Node000029"><a xlink:title=" ">
<path fill="none" stroke="#63b8ff" d="M229.57,-99.44C223.21,-108.58 234.57,-117 263.62,-117 280.43,-117 291.31,-114.19 296.27,-110.05"/>
<polygon fill="#63b8ff" stroke="#63b8ff" points="299.83,-110.82 297.68,-100.44 292.89,-109.89 299.83,-110.82"/>
</a>
</g>
</g>
</g>
</svg>
