<?xml version="1.0" encoding="UTF-8" standalone="no"?>
<!DOCTYPE svg PUBLIC "-//W3C//DTD SVG 1.1//EN"
 "http://www.w3.org/Graphics/SVG/1.1/DTD/svg11.dtd">
<!-- Generated by graphviz version 8.1.0 (20230707.0739)
 -->
<!-- Title: carla::road::LaneSectionMap Pages: 1 -->
<svg width="357pt" height="128pt"
 viewBox="0.00 0.00 356.50 128.00" xmlns="http://www.w3.org/2000/svg" xmlns:xlink="http://www.w3.org/1999/xlink">
<g id="graph0" class="graph" transform="scale(1 1) rotate(0) translate(4 124)">
<title>carla::road::LaneSectionMap</title>
<!-- Node1 -->
<g id="Node000001" class="node">
<title>Node1</title>
<g id="a_Node000001"><a xlink:title=" ">
<polygon fill="#999999" stroke="#666666" points="348.5,-70 208,-70 208,-50 348.5,-50 348.5,-70"/>
<text text-anchor="middle" x="278.25" y="-56.5" font-family="Helvetica,sans-Serif" font-size="10.00">carla::road::LaneSectionMap</text>
</a>
</g>
</g>
<!-- Node2 -->
<g id="Node000002" class="node">
<title>Node2</title>
<g id="a_Node000002"><a xlink:title=" ">
<polygon fill="white" stroke="#666666" points="128.12,-120 12.38,-120 12.38,-88 128.12,-88 128.12,-120"/>
<text text-anchor="start" x="20.38" y="-106.5" font-family="Helvetica,sans-Serif" font-size="10.00">std::multimap&lt; double,</text>
<text text-anchor="middle" x="70.25" y="-94.5" font-family="Helvetica,sans-Serif" font-size="10.00"> LaneSection &gt;</text>
</a>
</g>
</g>
<!-- Node2&#45;&gt;Node1 -->
<g id="edge1_Node000001_Node000002" class="edge">
<title>Node2&#45;&gt;Node1</title>
<g id="a_edge1_Node000001_Node000002"><a xlink:title=" ">
<path fill="none" stroke="#8b1a1a" d="M138.91,-89.55C168.14,-83.31 201.68,-76.14 228.42,-70.43"/>
<polygon fill="#8b1a1a" stroke="#8b1a1a" points="138.41,-86.29 129.36,-91.8 139.87,-93.14 138.41,-86.29"/>
</a>
</g>
</g>
<!-- Node3 -->
<g id="Node000003" class="node">
<title>Node3</title>
<g id="a_Node000003"><a xlink:href="../../d7/d55/classcarla_1_1MovableNonCopyable.html" target="_top" xlink:title="Inherit (privately) to suppress copy construction and assignment.">
<polygon fill="white" stroke="#666666" points="138.25,-70 2.25,-70 2.25,-50 138.25,-50 138.25,-70"/>
<text text-anchor="middle" x="70.25" y="-56.5" font-family="Helvetica,sans-Serif" font-size="10.00">carla::MovableNonCopyable</text>
</a>
</g>
</g>
<!-- Node3&#45;&gt;Node1 -->
<g id="edge2_Node000001_Node000003" class="edge">
<title>Node3&#45;&gt;Node1</title>
<g id="a_edge2_Node000001_Node000003"><a xlink:title=" ">
<path fill="none" stroke="#8b1a1a" d="M149.47,-60C168.56,-60 188.86,-60 207.53,-60"/>
<polygon fill="#8b1a1a" stroke="#8b1a1a" points="149.7,-56.5 139.7,-60 149.7,-63.5 149.7,-56.5"/>
</a>
</g>
</g>
<!-- Node4 -->
<g id="Node000004" class="node">
<title>Node4</title>
<g id="a_Node000004"><a xlink:title=" ">
<polygon fill="white" stroke="#666666" points="140.5,-32 0,-32 0,0 140.5,0 140.5,-32"/>
<text text-anchor="start" x="8" y="-18.5" font-family="Helvetica,sans-Serif" font-size="10.00">unordered_map&lt; SectionId,</text>
<text text-anchor="middle" x="70.25" y="-6.5" font-family="Helvetica,sans-Serif" font-size="10.00"> carla::road::LaneSection * &gt;</text>
</a>
</g>
</g>
<!-- Node4&#45;&gt;Node1 -->
<g id="edge3_Node000001_Node000004" class="edge">
<title>Node4&#45;&gt;Node1</title>
<g id="a_edge3_Node000001_Node000004"><a xlink:title=" ">
<path fill="none" stroke="#9a32cd" stroke-dasharray="5,2" d="M151.57,-33.16C177.5,-38.69 205.44,-44.66 228.38,-49.56"/>
<polygon fill="#9a32cd" stroke="#9a32cd" points="152.5,-29.56 141.99,-30.9 151.04,-36.41 152.5,-29.56"/>
</a>
</g>
<text text-anchor="middle" x="174.25" y="-42.5" font-family="Helvetica,sans-Serif" font-size="10.00" fill="grey"> _by_id</text>
</g>
</g>
</svg>
