<?xml version="1.0" encoding="UTF-8" standalone="no"?>
<!DOCTYPE svg PUBLIC "-//W3C//DTD SVG 1.1//EN"
 "http://www.w3.org/Graphics/SVG/1.1/DTD/svg11.dtd">
<!-- Generated by graphviz version 8.1.0 (20230707.0739)
 -->
<!-- Title: carla::client::detail::Client::Pimpl Pages: 1 -->
<svg width="985pt" height="287pt"
 viewBox="0.00 0.00 985.00 287.40" xmlns="http://www.w3.org/2000/svg" xmlns:xlink="http://www.w3.org/1999/xlink">
<g id="graph0" class="graph" transform="scale(1 1) rotate(0) translate(4 283.4)">
<title>carla::client::detail::Client::Pimpl</title>
<!-- Node1 -->
<g id="Node000001" class="node">
<title>Node1</title>
<g id="a_Node000001"><a xlink:title=" ">
<polygon fill="#999999" stroke="#666666" points="977,-241 881.5,-241 881.5,-209 977,-209 977,-241"/>
<text text-anchor="start" x="889.5" y="-227.5" font-family="Helvetica,sans-Serif" font-size="10.00">carla::client::detail</text>
<text text-anchor="middle" x="929.25" y="-215.5" font-family="Helvetica,sans-Serif" font-size="10.00">::Client::Pimpl</text>
</a>
</g>
</g>
<!-- Node2 -->
<g id="Node000002" class="node">
<title>Node2</title>
<g id="a_Node000002"><a xlink:title=" ">
<polygon fill="white" stroke="#666666" points="733,-273 693,-273 693,-253 733,-253 733,-273"/>
<text text-anchor="middle" x="713" y="-259.5" font-family="Helvetica,sans-Serif" font-size="10.00">string</text>
</a>
</g>
</g>
<!-- Node2&#45;&gt;Node1 -->
<g id="edge1_Node000001_Node000002" class="edge">
<title>Node2&#45;&gt;Node1</title>
<g id="a_edge1_Node000001_Node000002"><a xlink:title=" ">
<path fill="none" stroke="#9a32cd" stroke-dasharray="5,2" d="M744.15,-259.43C774.45,-255.64 822.41,-249.08 863.5,-241 869.29,-239.86 875.35,-238.54 881.33,-237.16"/>
<polygon fill="#9a32cd" stroke="#9a32cd" points="743.95,-256.05 734.45,-260.74 744.81,-263 743.95,-256.05"/>
</a>
</g>
<text text-anchor="middle" x="826.38" y="-255.5" font-family="Helvetica,sans-Serif" font-size="10.00" fill="grey"> endpoint</text>
</g>
<!-- Node3 -->
<g id="Node000003" class="node">
<title>Node3</title>
<g id="a_Node000003"><a xlink:href="../../df/d9d/classcarla_1_1rpc_1_1Client.html" target="_top" xlink:title=" ">
<polygon fill="white" stroke="#666666" points="756.62,-235 669.38,-235 669.38,-215 756.62,-215 756.62,-235"/>
<text text-anchor="middle" x="713" y="-221.5" font-family="Helvetica,sans-Serif" font-size="10.00">carla::rpc::Client</text>
</a>
</g>
</g>
<!-- Node3&#45;&gt;Node1 -->
<g id="edge2_Node000001_Node000003" class="edge">
<title>Node3&#45;&gt;Node1</title>
<g id="a_edge2_Node000001_Node000003"><a xlink:title=" ">
<path fill="none" stroke="#9a32cd" stroke-dasharray="5,2" d="M768.03,-225C802.87,-225 847.74,-225 881.13,-225"/>
<polygon fill="#9a32cd" stroke="#9a32cd" points="768.1,-221.5 758.1,-225 768.1,-228.5 768.1,-221.5"/>
</a>
</g>
<text text-anchor="middle" x="826.38" y="-227.5" font-family="Helvetica,sans-Serif" font-size="10.00" fill="grey"> rpc_client</text>
</g>
<!-- Node4 -->
<g id="Node000004" class="node">
<title>Node4</title>
<g id="a_Node000004"><a xlink:title=" ">
<polygon fill="white" stroke="#666666" points="547.12,-235 507.88,-235 507.88,-215 547.12,-215 547.12,-235"/>
<text text-anchor="middle" x="527.5" y="-221.5" font-family="Helvetica,sans-Serif" font-size="10.00">client</text>
</a>
</g>
</g>
<!-- Node4&#45;&gt;Node3 -->
<g id="edge3_Node000003_Node000004" class="edge">
<title>Node4&#45;&gt;Node3</title>
<g id="a_edge3_Node000003_Node000004"><a xlink:title=" ">
<path fill="none" stroke="#9a32cd" stroke-dasharray="5,2" d="M558.07,-225C588.09,-225 634.88,-225 669,-225"/>
<polygon fill="#9a32cd" stroke="#9a32cd" points="558.45,-221.5 548.45,-225 558.45,-228.5 558.45,-221.5"/>
</a>
</g>
<text text-anchor="middle" x="617.62" y="-227.5" font-family="Helvetica,sans-Serif" font-size="10.00" fill="grey"> _client</text>
</g>
<!-- Node5 -->
<g id="Node000005" class="node">
<title>Node5</title>
<g id="a_Node000005"><a xlink:href="../../d0/daa/classcarla_1_1streaming_1_1Client.html" target="_top" xlink:title="A client able to subscribe to multiple streams.">
<polygon fill="white" stroke="#666666" points="771.25,-197 654.75,-197 654.75,-177 771.25,-177 771.25,-197"/>
<text text-anchor="middle" x="713" y="-183.5" font-family="Helvetica,sans-Serif" font-size="10.00">carla::streaming::Client</text>
</a>
</g>
</g>
<!-- Node5&#45;&gt;Node1 -->
<g id="edge4_Node000001_Node000005" class="edge">
<title>Node5&#45;&gt;Node1</title>
<g id="a_edge4_Node000001_Node000005"><a xlink:title=" ">
<path fill="none" stroke="#9a32cd" stroke-dasharray="5,2" d="M782.43,-195.66C807.96,-199.26 837.15,-203.82 863.5,-209 869.29,-210.14 875.35,-211.46 881.33,-212.84"/>
<polygon fill="#9a32cd" stroke="#9a32cd" points="783.11,-192.08 772.72,-194.18 782.15,-199.02 783.11,-192.08"/>
</a>
</g>
<text text-anchor="middle" x="826.38" y="-211.5" font-family="Helvetica,sans-Serif" font-size="10.00" fill="grey"> streaming_client</text>
</g>
<!-- Node6 -->
<g id="Node000006" class="node">
<title>Node6</title>
<g id="a_Node000006"><a xlink:href="../../da/d72/classcarla_1_1ThreadPool.html" target="_top" xlink:title="A thread pool based on Boost.Asio&#39;s io context.">
<polygon fill="white" stroke="#666666" points="573.38,-197 481.62,-197 481.62,-177 573.38,-177 573.38,-197"/>
<text text-anchor="middle" x="527.5" y="-183.5" font-family="Helvetica,sans-Serif" font-size="10.00">carla::ThreadPool</text>
</a>
</g>
</g>
<!-- Node6&#45;&gt;Node5 -->
<g id="edge5_Node000005_Node000006" class="edge">
<title>Node6&#45;&gt;Node5</title>
<g id="a_edge5_Node000005_Node000006"><a xlink:title=" ">
<path fill="none" stroke="#9a32cd" stroke-dasharray="5,2" d="M584.74,-187C606.8,-187 632.11,-187 654.32,-187"/>
<polygon fill="#9a32cd" stroke="#9a32cd" points="584.86,-183.5 574.86,-187 584.86,-190.5 584.86,-183.5"/>
</a>
</g>
<text text-anchor="middle" x="617.62" y="-189.5" font-family="Helvetica,sans-Serif" font-size="10.00" fill="grey"> _service</text>
</g>
<!-- Node7 -->
<g id="Node000007" class="node">
<title>Node7</title>
<g id="a_Node000007"><a xlink:href="../../d4/d8b/classcarla_1_1NonCopyable.html" target="_top" xlink:title="Inherit (privately) to suppress copy/move construction and assignment.">
<polygon fill="white" stroke="#666666" points="110.88,-266 10.12,-266 10.12,-246 110.88,-246 110.88,-266"/>
<text text-anchor="middle" x="60.5" y="-252.5" font-family="Helvetica,sans-Serif" font-size="10.00">carla::NonCopyable</text>
</a>
</g>
</g>
<!-- Node7&#45;&gt;Node6 -->
<g id="edge6_Node000006_Node000007" class="edge">
<title>Node7&#45;&gt;Node6</title>
<g id="a_edge6_Node000006_Node000007"><a xlink:title=" ">
<path fill="none" stroke="#8b1a1a" d="M121.19,-268.28C203.05,-281.78 351.9,-294.1 456.5,-232 468.59,-224.83 463.38,-214.59 474.5,-206 478.91,-202.59 483.99,-199.75 489.22,-197.4"/>
<polygon fill="#8b1a1a" stroke="#8b1a1a" points="122.02,-264.7 111.58,-266.46 120.84,-271.6 122.02,-264.7"/>
</a>
</g>
</g>
<!-- Node10 -->
<g id="Node000010" class="node">
<title>Node10</title>
<g id="a_Node000010"><a xlink:href="../../db/d71/classcarla_1_1ThreadGroup.html" target="_top" xlink:title=" ">
<polygon fill="white" stroke="#666666" points="340.25,-235 241.75,-235 241.75,-215 340.25,-215 340.25,-235"/>
<text text-anchor="middle" x="291" y="-221.5" font-family="Helvetica,sans-Serif" font-size="10.00">carla::ThreadGroup</text>
</a>
</g>
</g>
<!-- Node7&#45;&gt;Node10 -->
<g id="edge10_Node000010_Node000007" class="edge">
<title>Node7&#45;&gt;Node10</title>
<g id="a_edge10_Node000010_Node000007"><a xlink:title=" ">
<path fill="none" stroke="#8b1a1a" d="M122.1,-247.78C159.4,-242.72 206.58,-236.32 241.42,-231.59"/>
<polygon fill="#8b1a1a" stroke="#8b1a1a" points="121.8,-244.42 112.36,-249.24 122.74,-251.36 121.8,-244.42"/>
</a>
</g>
</g>
<!-- Node8 -->
<g id="Node000008" class="node">
<title>Node8</title>
<g id="a_Node000008"><a xlink:title=" ">
<polygon fill="white" stroke="#666666" points="321.5,-197 260.5,-197 260.5,-177 321.5,-177 321.5,-197"/>
<text text-anchor="middle" x="291" y="-183.5" font-family="Helvetica,sans-Serif" font-size="10.00">io_context</text>
</a>
</g>
</g>
<!-- Node8&#45;&gt;Node6 -->
<g id="edge7_Node000006_Node000008" class="edge">
<title>Node8&#45;&gt;Node6</title>
<g id="a_edge7_Node000006_Node000008"><a xlink:title=" ">
<path fill="none" stroke="#9a32cd" stroke-dasharray="5,2" d="M332.5,-187C373.98,-187 438.31,-187 481.39,-187"/>
<polygon fill="#9a32cd" stroke="#9a32cd" points="332.7,-183.5 322.7,-187 332.7,-190.5 332.7,-183.5"/>
</a>
</g>
<text text-anchor="middle" x="409.25" y="-189.5" font-family="Helvetica,sans-Serif" font-size="10.00" fill="grey"> _io_context</text>
</g>
<!-- Node9 -->
<g id="Node000009" class="node">
<title>Node9</title>
<g id="a_Node000009"><a xlink:title=" ">
<polygon fill="white" stroke="#666666" points="309.12,-159 272.88,-159 272.88,-139 309.12,-139 309.12,-159"/>
<text text-anchor="middle" x="291" y="-145.5" font-family="Helvetica,sans-Serif" font-size="10.00">work</text>
</a>
</g>
</g>
<!-- Node9&#45;&gt;Node6 -->
<g id="edge8_Node000006_Node000009" class="edge">
<title>Node9&#45;&gt;Node6</title>
<g id="a_edge8_Node000006_Node000009"><a xlink:title=" ">
<path fill="none" stroke="#9a32cd" stroke-dasharray="5,2" d="M319.96,-151.95C352.79,-155.59 408.82,-162.38 456.5,-171 465.33,-172.6 474.73,-174.56 483.69,-176.56"/>
<polygon fill="#9a32cd" stroke="#9a32cd" points="320.69,-148.4 310.37,-150.79 319.93,-155.36 320.69,-148.4"/>
</a>
</g>
<text text-anchor="middle" x="409.25" y="-173.5" font-family="Helvetica,sans-Serif" font-size="10.00" fill="grey"> _work_to_do</text>
</g>
<!-- Node10&#45;&gt;Node6 -->
<g id="edge9_Node000006_Node000010" class="edge">
<title>Node10&#45;&gt;Node6</title>
<g id="a_edge9_Node000006_Node000010"><a xlink:title=" ">
<path fill="none" stroke="#9a32cd" stroke-dasharray="5,2" d="M351.47,-217.74C382.81,-213.65 421.83,-208.13 456.5,-202 464.58,-200.57 473.14,-198.88 481.41,-197.16"/>
<polygon fill="#9a32cd" stroke="#9a32cd" points="351.2,-214.37 341.73,-219.12 352.1,-221.31 351.2,-214.37"/>
</a>
</g>
<text text-anchor="middle" x="409.25" y="-218.5" font-family="Helvetica,sans-Serif" font-size="10.00" fill="grey"> _workers</text>
</g>
<!-- Node11 -->
<g id="Node000011" class="node">
<title>Node11</title>
<g id="a_Node000011"><a xlink:title=" ">
<polygon fill="white" stroke="#666666" points="113.5,-221 7.5,-221 7.5,-201 113.5,-201 113.5,-221"/>
<text text-anchor="middle" x="60.5" y="-207.5" font-family="Helvetica,sans-Serif" font-size="10.00">vector&lt; std::thread &gt;</text>
</a>
</g>
</g>
<!-- Node11&#45;&gt;Node10 -->
<g id="edge11_Node000010_Node000011" class="edge">
<title>Node11&#45;&gt;Node10</title>
<g id="a_edge11_Node000010_Node000011"><a xlink:title=" ">
<path fill="none" stroke="#9a32cd" stroke-dasharray="5,2" d="M124.58,-208.84C153.69,-208.5 188.66,-209.02 220,-212 227.01,-212.67 234.37,-213.68 241.58,-214.86"/>
<polygon fill="#9a32cd" stroke="#9a32cd" points="124.67,-205.35 114.73,-209.01 124.78,-212.35 124.67,-205.35"/>
</a>
</g>
<text text-anchor="middle" x="179.5" y="-214.5" font-family="Helvetica,sans-Serif" font-size="10.00" fill="grey"> _threads</text>
</g>
<!-- Node12 -->
<g id="Node000012" class="node">
<title>Node12</title>
<g id="a_Node000012"><a xlink:href="../../da/d83/classcarla_1_1streaming_1_1low__level_1_1Client.html" target="_top" xlink:title=" ">
<polygon fill="white" stroke="#666666" points="580.5,-112 474.5,-112 474.5,-68 580.5,-68 580.5,-112"/>
<text text-anchor="start" x="482.5" y="-98.5" font-family="Helvetica,sans-Serif" font-size="10.00">carla::streaming::low</text>
<text text-anchor="start" x="482.5" y="-86.5" font-family="Helvetica,sans-Serif" font-size="10.00">_level::Client&lt; detail</text>
<text text-anchor="middle" x="527.5" y="-74.5" font-family="Helvetica,sans-Serif" font-size="10.00">::tcp::Client &gt;</text>
</a>
</g>
</g>
<!-- Node12&#45;&gt;Node5 -->
<g id="edge12_Node000005_Node000012" class="edge">
<title>Node12&#45;&gt;Node5</title>
<g id="a_edge12_Node000005_Node000012"><a xlink:title=" ">
<path fill="none" stroke="#9a32cd" stroke-dasharray="5,2" d="M580.74,-117.62C617.9,-137.26 665.73,-162.54 692.19,-176.53"/>
<polygon fill="#9a32cd" stroke="#9a32cd" points="582.54,-114.08 572.06,-112.5 579.26,-120.27 582.54,-114.08"/>
</a>
</g>
<text text-anchor="middle" x="617.62" y="-149.5" font-family="Helvetica,sans-Serif" font-size="10.00" fill="grey"> _client</text>
</g>
<!-- Node13 -->
<g id="Node000013" class="node">
<title>Node13</title>
<g id="a_Node000013"><a xlink:title=" ">
<polygon fill="white" stroke="#666666" points="85.75,-115 35.25,-115 35.25,-95 85.75,-95 85.75,-115"/>
<text text-anchor="middle" x="60.5" y="-101.5" font-family="Helvetica,sans-Serif" font-size="10.00">address</text>
</a>
</g>
</g>
<!-- Node13&#45;&gt;Node12 -->
<g id="edge13_Node000012_Node000013" class="edge">
<title>Node13&#45;&gt;Node12</title>
<g id="a_edge13_Node000012_Node000013"><a xlink:title=" ">
<path fill="none" stroke="#9a32cd" stroke-dasharray="5,2" d="M96.7,-104.65C165.74,-103.85 323.77,-101.42 456.5,-95 462.22,-94.72 468.2,-94.38 474.15,-94"/>
<polygon fill="#9a32cd" stroke="#9a32cd" points="96.97,-101.16 87.01,-104.77 97.05,-108.16 96.97,-101.16"/>
</a>
</g>
<text text-anchor="middle" x="291" y="-104.5" font-family="Helvetica,sans-Serif" font-size="10.00" fill="grey"> _fallback_address</text>
</g>
<!-- Node15 -->
<g id="Node000015" class="node">
<title>Node15</title>
<g id="a_Node000015"><a xlink:href="../../da/d83/classcarla_1_1streaming_1_1low__level_1_1Client.html" target="_top" xlink:title="A client able to subscribe to multiple streams.">
<polygon fill="white" stroke="#666666" points="344,-73 238,-73 238,-41 344,-41 344,-73"/>
<text text-anchor="start" x="246" y="-59.5" font-family="Helvetica,sans-Serif" font-size="10.00">carla::streaming::low</text>
<text text-anchor="middle" x="291" y="-47.5" font-family="Helvetica,sans-Serif" font-size="10.00">_level::Client&lt; T &gt;</text>
</a>
</g>
</g>
<!-- Node13&#45;&gt;Node15 -->
<g id="edge16_Node000015_Node000013" class="edge">
<title>Node13&#45;&gt;Node15</title>
<g id="a_edge16_Node000015_Node000013"><a xlink:title=" ">
<path fill="none" stroke="#9a32cd" stroke-dasharray="5,2" d="M96.26,-94.28C109.55,-90.41 124.9,-86.21 139,-83 171.55,-75.6 208.48,-69.21 237.67,-64.61"/>
<polygon fill="#9a32cd" stroke="#9a32cd" points="95.7,-91.09 87.11,-97.29 97.69,-97.81 95.7,-91.09"/>
</a>
</g>
<text text-anchor="middle" x="179.5" y="-85.5" font-family="Helvetica,sans-Serif" font-size="10.00" fill="grey"> _fallback_address</text>
</g>
<!-- Node14 -->
<g id="Node000014" class="node">
<title>Node14</title>
<g id="a_Node000014"><a xlink:title=" ">
<polygon fill="white" stroke="#666666" points="121,-56 0,-56 0,0 121,0 121,-56"/>
<text text-anchor="start" x="8" y="-42.5" font-family="Helvetica,sans-Serif" font-size="10.00">unordered_map&lt; detail</text>
<text text-anchor="start" x="8" y="-30.5" font-family="Helvetica,sans-Serif" font-size="10.00">::stream_id_type, std</text>
<text text-anchor="start" x="8" y="-18.5" font-family="Helvetica,sans-Serif" font-size="10.00">::shared_ptr&lt; underlying</text>
<text text-anchor="middle" x="60.5" y="-6.5" font-family="Helvetica,sans-Serif" font-size="10.00">_client &gt; &gt;</text>
</a>
</g>
</g>
<!-- Node14&#45;&gt;Node12 -->
<g id="edge14_Node000012_Node000014" class="edge">
<title>Node14&#45;&gt;Node12</title>
<g id="a_edge14_Node000012_Node000014"><a xlink:title=" ">
<path fill="none" stroke="#9a32cd" stroke-dasharray="5,2" d="M132.1,-17.86C189.63,-11.53 272.72,-6.84 344,-20 393.06,-29.06 445.95,-50.79 482.1,-67.66"/>
<polygon fill="#9a32cd" stroke="#9a32cd" points="131.84,-14.48 122.31,-19.1 132.64,-21.43 131.84,-14.48"/>
</a>
</g>
<text text-anchor="middle" x="291" y="-22.5" font-family="Helvetica,sans-Serif" font-size="10.00" fill="grey"> _clients</text>
</g>
<!-- Node14&#45;&gt;Node15 -->
<g id="edge17_Node000015_Node000014" class="edge">
<title>Node14&#45;&gt;Node15</title>
<g id="a_edge17_Node000015_Node000014"><a xlink:title=" ">
<path fill="none" stroke="#9a32cd" stroke-dasharray="5,2" d="M132.07,-36.11C159.53,-39.36 191.25,-43.22 220,-47 225.72,-47.75 231.7,-48.56 237.65,-49.39"/>
<polygon fill="#9a32cd" stroke="#9a32cd" points="132.72,-32.55 122.38,-34.85 131.9,-39.5 132.72,-32.55"/>
</a>
</g>
<text text-anchor="middle" x="179.5" y="-49.5" font-family="Helvetica,sans-Serif" font-size="10.00" fill="grey"> _clients</text>
</g>
<!-- Node15&#45;&gt;Node12 -->
<g id="edge15_Node000012_Node000015" class="edge">
<title>Node15&#45;&gt;Node12</title>
<g id="a_edge15_Node000012_Node000015"><a xlink:title=" ">
<path fill="none" stroke="orange" stroke-dasharray="5,2" d="M355.09,-65.88C392.41,-71.13 439.1,-77.7 474.33,-82.66"/>
<polygon fill="orange" stroke="orange" points="355.72,-62.29 345.33,-64.36 354.75,-69.22 355.72,-62.29"/>
</a>
</g>
<text text-anchor="middle" x="409.25" y="-81.5" font-family="Helvetica,sans-Serif" font-size="10.00" fill="grey"> &lt; detail::tcp::Client &gt;</text>
</g>
</g>
</svg>
