<?xml version="1.0" encoding="UTF-8" standalone="no"?>
<!DOCTYPE svg PUBLIC "-//W3C//DTD SVG 1.1//EN"
 "http://www.w3.org/Graphics/SVG/1.1/DTD/svg11.dtd">
<!-- Generated by graphviz version 8.1.0 (20230707.0739)
 -->
<!-- Title: AVegetationManager::OnLevelRemovedFromWorld Pages: 1 -->
<svg width="376pt" height="58pt"
 viewBox="0.00 0.00 376.25 58.00" xmlns="http://www.w3.org/2000/svg" xmlns:xlink="http://www.w3.org/1999/xlink">
<g id="graph0" class="graph" transform="scale(1 1) rotate(0) translate(4 54)">
<title>AVegetationManager::OnLevelRemovedFromWorld</title>
<!-- Node1 -->
<g id="Node000001" class="node">
<title>Node1</title>
<g id="a_Node000001"><a xlink:title=" ">
<polygon fill="#999999" stroke="#666666" points="144.25,-32 0,-32 0,0 144.25,0 144.25,-32"/>
<text text-anchor="start" x="8" y="-18.5" font-family="Helvetica,sans-Serif" font-size="10.00">AVegetationManager</text>
<text text-anchor="middle" x="72.12" y="-6.5" font-family="Helvetica,sans-Serif" font-size="10.00">::OnLevelRemovedFromWorld</text>
</a>
</g>
</g>
<!-- Node1&#45;&gt;Node1 -->
<g id="edge3_Node000001_Node000001" class="edge">
<title>Node1&#45;&gt;Node1</title>
<g id="a_edge3_Node000001_Node000001"><a xlink:title=" ">
<path fill="none" stroke="#63b8ff" d="M43.29,-32.44C37.91,-41.58 47.52,-50 72.12,-50 86.35,-50 95.56,-47.19 99.76,-43.05"/>
<polygon fill="#63b8ff" stroke="#63b8ff" points="103.32,-43.77 100.96,-33.44 96.36,-42.99 103.32,-43.77"/>
</a>
</g>
</g>
<!-- Node2 -->
<g id="Node000002" class="node">
<title>Node2</title>
<g id="a_Node000002"><a xlink:href="../../dd/dfc/classAVegetationManager.html#a79e5771a17cde84828630b0950614708" target="_top" xlink:title=" ">
<polygon fill="white" stroke="#666666" points="287,-32 180.25,-32 180.25,0 287,0 287,-32"/>
<text text-anchor="start" x="188.25" y="-18.5" font-family="Helvetica,sans-Serif" font-size="10.00">AVegetationManager</text>
<text text-anchor="middle" x="233.62" y="-6.5" font-family="Helvetica,sans-Serif" font-size="10.00">::FreeTileCache</text>
</a>
</g>
</g>
<!-- Node1&#45;&gt;Node2 -->
<g id="edge1_Node000001_Node000002" class="edge">
<title>Node1&#45;&gt;Node2</title>
<g id="a_edge1_Node000001_Node000002"><a xlink:title=" ">
<path fill="none" stroke="#63b8ff" d="M144.48,-16C152.69,-16 161.02,-16 169.12,-16"/>
<polygon fill="#63b8ff" stroke="#63b8ff" points="168.98,-19.5 178.98,-16 168.98,-12.5 168.98,-19.5"/>
</a>
</g>
</g>
<!-- Node3 -->
<g id="Node000003" class="node">
<title>Node3</title>
<g id="a_Node000003"><a xlink:href="../../d2/d40/TrafficLightBase_8cpp.html#a1459952e95242b0c926376d0bb4692b8" target="_top" xlink:title=" ">
<polygon fill="white" stroke="#666666" points="368.25,-26 323,-26 323,-6 368.25,-6 368.25,-26"/>
<text text-anchor="middle" x="345.62" y="-12.5" font-family="Helvetica,sans-Serif" font-size="10.00">IsValid</text>
</a>
</g>
</g>
<!-- Node2&#45;&gt;Node3 -->
<g id="edge2_Node000002_Node000003" class="edge">
<title>Node2&#45;&gt;Node3</title>
<g id="a_edge2_Node000002_Node000003"><a xlink:title=" ">
<path fill="none" stroke="#63b8ff" d="M287.37,-16C295.74,-16 304.18,-16 311.92,-16"/>
<polygon fill="#63b8ff" stroke="#63b8ff" points="311.65,-19.5 321.65,-16 311.65,-12.5 311.65,-19.5"/>
</a>
</g>
</g>
</g>
</svg>
