<?xml version="1.0" encoding="UTF-8" standalone="no"?>
<!DOCTYPE svg PUBLIC "-//W3C//DTD SVG 1.1//EN"
 "http://www.w3.org/Graphics/SVG/1.1/DTD/svg11.dtd">
<!-- Generated by graphviz version 8.1.0 (20230707.0739)
 -->
<!-- Title: AVegetationManager::SetTileDataInternals Pages: 1 -->
<svg width="587pt" height="58pt"
 viewBox="0.00 0.00 586.50 58.00" xmlns="http://www.w3.org/2000/svg" xmlns:xlink="http://www.w3.org/1999/xlink">
<g id="graph0" class="graph" transform="scale(1 1) rotate(0) translate(4 54)">
<title>AVegetationManager::SetTileDataInternals</title>
<!-- Node1 -->
<g id="Node000001" class="node">
<title>Node1</title>
<g id="a_Node000001"><a xlink:title=" ">
<polygon fill="#999999" stroke="#666666" points="578.5,-32 469.5,-32 469.5,0 578.5,0 578.5,-32"/>
<text text-anchor="start" x="477.5" y="-18.5" font-family="Helvetica,sans-Serif" font-size="10.00">AVegetationManager</text>
<text text-anchor="middle" x="524" y="-6.5" font-family="Helvetica,sans-Serif" font-size="10.00">::SetTileDataInternals</text>
</a>
</g>
</g>
<!-- Node1&#45;&gt;Node1 -->
<g id="edge7_Node000001_Node000001" class="edge">
<title>Node1&#45;&gt;Node1</title>
<g id="a_edge7_Node000001_Node000001"><a xlink:title=" ">
<path fill="none" stroke="#63b8ff" d="M551,-43.05C546.89,-47.19 537.89,-50 524,-50 499.97,-50 490.58,-41.58 495.84,-32.44"/>
<polygon fill="#63b8ff" stroke="#63b8ff" points="554.55,-43.77 552.16,-33.44 547.59,-43 554.55,-43.77"/>
</a>
</g>
</g>
<!-- Node2 -->
<g id="Node000002" class="node">
<title>Node2</title>
<g id="a_Node000002"><a xlink:href="../../dd/dfc/classAVegetationManager.html#a9181debaeebfb82bc853ec5b9abc400d" target="_top" xlink:title=" ">
<polygon fill="white" stroke="#666666" points="433.5,-32 299,-32 299,0 433.5,0 433.5,-32"/>
<text text-anchor="start" x="307" y="-18.5" font-family="Helvetica,sans-Serif" font-size="10.00">AVegetationManager</text>
<text text-anchor="middle" x="366.25" y="-6.5" font-family="Helvetica,sans-Serif" font-size="10.00">::CreateOrUpdateTileCache</text>
</a>
</g>
</g>
<!-- Node1&#45;&gt;Node2 -->
<g id="edge1_Node000001_Node000002" class="edge">
<title>Node1&#45;&gt;Node2</title>
<g id="a_edge1_Node000001_Node000002"><a xlink:title=" ">
<path fill="none" stroke="#63b8ff" d="M458.48,-16C450.36,-16 442.04,-16 433.88,-16"/>
<polygon fill="#63b8ff" stroke="#63b8ff" points="458.4,-19.5 468.4,-16 458.4,-12.5 458.4,-19.5"/>
</a>
</g>
</g>
<!-- Node2&#45;&gt;Node2 -->
<g id="edge2_Node000002_Node000002" class="edge">
<title>Node2&#45;&gt;Node2</title>
<g id="a_edge2_Node000002_Node000002"><a xlink:title=" ">
<path fill="none" stroke="#63b8ff" d="M393.25,-43.05C389.14,-47.19 380.14,-50 366.25,-50 342.22,-50 332.83,-41.58 338.09,-32.44"/>
<polygon fill="#63b8ff" stroke="#63b8ff" points="396.8,-43.77 394.41,-33.44 389.84,-43 396.8,-43.77"/>
</a>
</g>
</g>
<!-- Node3 -->
<g id="Node000003" class="node">
<title>Node3</title>
<g id="a_Node000003"><a xlink:href="../../dd/dfc/classAVegetationManager.html#acf2b61c9dc617c0968f75af789a3232c" target="_top" xlink:title=" ">
<polygon fill="white" stroke="#666666" points="263,-32 142.75,-32 142.75,0 263,0 263,-32"/>
<text text-anchor="start" x="150.75" y="-18.5" font-family="Helvetica,sans-Serif" font-size="10.00">AVegetationManager</text>
<text text-anchor="middle" x="202.88" y="-6.5" font-family="Helvetica,sans-Serif" font-size="10.00">::OnLevelAddedToWorld</text>
</a>
</g>
</g>
<!-- Node2&#45;&gt;Node3 -->
<g id="edge3_Node000002_Node000003" class="edge">
<title>Node2&#45;&gt;Node3</title>
<g id="a_edge3_Node000002_Node000003"><a xlink:title=" ">
<path fill="none" stroke="#63b8ff" d="M287.88,-16C279.63,-16 271.32,-16 263.32,-16"/>
<polygon fill="#63b8ff" stroke="#63b8ff" points="287.68,-19.5 297.68,-16 287.68,-12.5 287.68,-19.5"/>
</a>
</g>
</g>
<!-- Node3&#45;&gt;Node3 -->
<g id="edge6_Node000003_Node000003" class="edge">
<title>Node3&#45;&gt;Node3</title>
<g id="a_edge6_Node000003_Node000003"><a xlink:title=" ">
<path fill="none" stroke="#63b8ff" d="M228.46,-43.05C224.57,-47.19 216.04,-50 202.88,-50 180.1,-50 171.2,-41.58 176.19,-32.44"/>
<polygon fill="#63b8ff" stroke="#63b8ff" points="232.01,-43.75 229.56,-33.44 225.05,-43.03 232.01,-43.75"/>
</a>
</g>
</g>
<!-- Node4 -->
<g id="Node000004" class="node">
<title>Node4</title>
<g id="a_Node000004"><a xlink:href="../../dd/dfc/classAVegetationManager.html#ad8d1fb58c6f26e253d6466e8a240ead2" target="_top" xlink:title=" ">
<polygon fill="white" stroke="#666666" points="106.75,-32 0,-32 0,0 106.75,0 106.75,-32"/>
<text text-anchor="start" x="8" y="-18.5" font-family="Helvetica,sans-Serif" font-size="10.00">AVegetationManager</text>
<text text-anchor="middle" x="53.38" y="-6.5" font-family="Helvetica,sans-Serif" font-size="10.00">::BeginPlay</text>
</a>
</g>
</g>
<!-- Node3&#45;&gt;Node4 -->
<g id="edge4_Node000003_Node000004" class="edge">
<title>Node3&#45;&gt;Node4</title>
<g id="a_edge4_Node000003_Node000004"><a xlink:title=" ">
<path fill="none" stroke="#63b8ff" d="M131.53,-16C123.29,-16 114.98,-16 107.04,-16"/>
<polygon fill="#63b8ff" stroke="#63b8ff" points="131.31,-19.5 141.31,-16 131.31,-12.5 131.31,-19.5"/>
</a>
</g>
</g>
<!-- Node4&#45;&gt;Node4 -->
<g id="edge5_Node000004_Node000004" class="edge">
<title>Node4&#45;&gt;Node4</title>
<g id="a_edge5_Node000004_Node000004"><a xlink:title=" ">
<path fill="none" stroke="#63b8ff" d="M78.96,-43.05C75.07,-47.19 66.54,-50 53.38,-50 30.6,-50 21.7,-41.58 26.69,-32.44"/>
<polygon fill="#63b8ff" stroke="#63b8ff" points="82.51,-43.75 80.06,-33.44 75.55,-43.03 82.51,-43.75"/>
</a>
</g>
</g>
</g>
</svg>
