<?xml version="1.0" encoding="UTF-8" standalone="no"?>
<!DOCTYPE svg PUBLIC "-//W3C//DTD SVG 1.1//EN"
 "http://www.w3.org/Graphics/SVG/1.1/DTD/svg11.dtd">
<!-- Generated by graphviz version 8.1.0 (20230707.0739)
 -->
<!-- Title: AVegetationManager::SpawnSkeletalFoliages Pages: 1 -->
<svg width="274pt" height="58pt"
 viewBox="0.00 0.00 274.00 58.00" xmlns="http://www.w3.org/2000/svg" xmlns:xlink="http://www.w3.org/1999/xlink">
<g id="graph0" class="graph" transform="scale(1 1) rotate(0) translate(4 54)">
<title>AVegetationManager::SpawnSkeletalFoliages</title>
<!-- Node1 -->
<g id="Node000001" class="node">
<title>Node1</title>
<g id="a_Node000001"><a xlink:title=" ">
<polygon fill="#999999" stroke="#666666" points="266,-32 142.75,-32 142.75,0 266,0 266,-32"/>
<text text-anchor="start" x="150.75" y="-18.5" font-family="Helvetica,sans-Serif" font-size="10.00">AVegetationManager</text>
<text text-anchor="middle" x="204.38" y="-6.5" font-family="Helvetica,sans-Serif" font-size="10.00">::SpawnSkeletalFoliages</text>
</a>
</g>
</g>
<!-- Node1&#45;&gt;Node1 -->
<g id="edge1_Node000001_Node000001" class="edge">
<title>Node1&#45;&gt;Node1</title>
<g id="a_edge1_Node000001_Node000001"><a xlink:title=" ">
<path fill="none" stroke="#63b8ff" d="M230.22,-43.05C226.29,-47.19 217.67,-50 204.38,-50 181.37,-50 172.39,-41.58 177.42,-32.44"/>
<polygon fill="#63b8ff" stroke="#63b8ff" points="233.77,-43.75 231.33,-33.44 226.81,-43.02 233.77,-43.75"/>
</a>
</g>
</g>
<!-- Node2 -->
<g id="Node000002" class="node">
<title>Node2</title>
<g id="a_Node000002"><a xlink:href="../../dd/dfc/classAVegetationManager.html#ada74503c5ecccbf6bde2f4c065bca528" target="_top" xlink:title=" ">
<polygon fill="white" stroke="#666666" points="106.75,-32 0,-32 0,0 106.75,0 106.75,-32"/>
<text text-anchor="start" x="8" y="-18.5" font-family="Helvetica,sans-Serif" font-size="10.00">AVegetationManager</text>
<text text-anchor="middle" x="53.38" y="-6.5" font-family="Helvetica,sans-Serif" font-size="10.00">::Tick</text>
</a>
</g>
</g>
<!-- Node1&#45;&gt;Node2 -->
<g id="edge2_Node000001_Node000002" class="edge">
<title>Node1&#45;&gt;Node2</title>
<g id="a_edge2_Node000001_Node000002"><a xlink:title=" ">
<path fill="none" stroke="#63b8ff" d="M131.52,-16C123.25,-16 114.93,-16 106.97,-16"/>
<polygon fill="#63b8ff" stroke="#63b8ff" points="131.34,-19.5 141.34,-16 131.34,-12.5 131.34,-19.5"/>
</a>
</g>
</g>
<!-- Node2&#45;&gt;Node2 -->
<g id="edge3_Node000002_Node000002" class="edge">
<title>Node2&#45;&gt;Node2</title>
<g id="a_edge3_Node000002_Node000002"><a xlink:title=" ">
<path fill="none" stroke="#63b8ff" d="M79.22,-43.05C75.29,-47.19 66.67,-50 53.38,-50 30.37,-50 21.39,-41.58 26.42,-32.44"/>
<polygon fill="#63b8ff" stroke="#63b8ff" points="82.77,-43.75 80.33,-33.44 75.81,-43.02 82.77,-43.75"/>
</a>
</g>
</g>
</g>
</svg>
