<?xml version="1.0" encoding="UTF-8" standalone="no"?>
<!DOCTYPE svg PUBLIC "-//W3C//DTD SVG 1.1//EN"
 "http://www.w3.org/Graphics/SVG/1.1/DTD/svg11.dtd">
<!-- Generated by graphviz version 8.1.0 (20230707.0739)
 -->
<!-- Title: geometry_msgs::msg::TransformStampedPubSubType::getSerializedSizeProvider Pages: 1 -->
<svg width="713pt" height="364pt"
 viewBox="0.00 0.00 713.25 364.00" xmlns="http://www.w3.org/2000/svg" xmlns:xlink="http://www.w3.org/1999/xlink">
<g id="graph0" class="graph" transform="scale(1 1) rotate(0) translate(4 360)">
<title>geometry_msgs::msg::TransformStampedPubSubType::getSerializedSizeProvider</title>
<!-- Node1 -->
<g id="Node000001" class="node">
<title>Node1</title>
<g id="a_Node000001"><a xlink:title=" ">
<polygon fill="#999999" stroke="#666666" points="159.25,-162 0,-162 0,-118 159.25,-118 159.25,-162"/>
<text text-anchor="start" x="8" y="-148.5" font-family="Helvetica,sans-Serif" font-size="10.00">geometry_msgs::msg</text>
<text text-anchor="start" x="8" y="-136.5" font-family="Helvetica,sans-Serif" font-size="10.00">::TransformStampedPubSubType</text>
<text text-anchor="middle" x="79.62" y="-124.5" font-family="Helvetica,sans-Serif" font-size="10.00">::getSerializedSizeProvider</text>
</a>
</g>
</g>
<!-- Node2 -->
<g id="Node000002" class="node">
<title>Node2</title>
<g id="a_Node000002"><a xlink:href="../../dc/d01/classgeometry__msgs_1_1msg_1_1TransformStamped.html#a4222cca48a2ef9582346b5644584e5b9" target="_top" xlink:title="This function returns the serialized size of a data depending on the buffer alignment.">
<polygon fill="white" stroke="#666666" points="305.75,-162 195.25,-162 195.25,-118 305.75,-118 305.75,-162"/>
<text text-anchor="start" x="203.25" y="-148.5" font-family="Helvetica,sans-Serif" font-size="10.00">geometry_msgs::msg</text>
<text text-anchor="start" x="203.25" y="-136.5" font-family="Helvetica,sans-Serif" font-size="10.00">::TransformStamped::</text>
<text text-anchor="middle" x="250.5" y="-124.5" font-family="Helvetica,sans-Serif" font-size="10.00">getCdrSerializedSize</text>
</a>
</g>
</g>
<!-- Node1&#45;&gt;Node2 -->
<g id="edge1_Node000001_Node000002" class="edge">
<title>Node1&#45;&gt;Node2</title>
<g id="a_edge1_Node000001_Node000002"><a xlink:title=" ">
<path fill="none" stroke="#63b8ff" d="M159.62,-140C167.89,-140 176.22,-140 184.3,-140"/>
<polygon fill="#63b8ff" stroke="#63b8ff" points="184.14,-143.5 194.14,-140 184.14,-136.5 184.14,-143.5"/>
</a>
</g>
</g>
<!-- Node3 -->
<g id="Node000003" class="node">
<title>Node3</title>
<g id="a_Node000003"><a xlink:href="../../dc/d01/classgeometry__msgs_1_1msg_1_1TransformStamped.html#aaabafeeb5083f4525db1dc6d37e6c065" target="_top" xlink:title="This function copies the value in member child_frame_id">
<polygon fill="white" stroke="#666666" points="477.75,-293 367.25,-293 367.25,-249 477.75,-249 477.75,-293"/>
<text text-anchor="start" x="375.25" y="-279.5" font-family="Helvetica,sans-Serif" font-size="10.00">geometry_msgs::msg</text>
<text text-anchor="start" x="375.25" y="-267.5" font-family="Helvetica,sans-Serif" font-size="10.00">::TransformStamped::</text>
<text text-anchor="middle" x="422.5" y="-255.5" font-family="Helvetica,sans-Serif" font-size="10.00">child_frame_id</text>
</a>
</g>
</g>
<!-- Node2&#45;&gt;Node3 -->
<g id="edge2_Node000002_Node000003" class="edge">
<title>Node2&#45;&gt;Node3</title>
<g id="a_edge2_Node000002_Node000003"><a xlink:title=" ">
<path fill="none" stroke="#63b8ff" d="M266.76,-162.26C283.05,-184.58 310.75,-218.63 341.75,-240 346.57,-243.32 351.79,-246.35 357.17,-249.11"/>
<polygon fill="#63b8ff" stroke="#63b8ff" points="355.46,-252.64 366,-253.77 358.46,-246.32 355.46,-252.64"/>
</a>
</g>
</g>
<!-- Node4 -->
<g id="Node000004" class="node">
<title>Node4</title>
<g id="a_Node000004"><a xlink:href="../../d6/d5a/classgeometry__msgs_1_1msg_1_1Transform.html#a2c265f59d89d3b05d617dc948d9c19b9" target="_top" xlink:title="This function returns the serialized size of a data depending on the buffer alignment.">
<polygon fill="white" stroke="#666666" points="503.25,-231 341.75,-231 341.75,-199 503.25,-199 503.25,-231"/>
<text text-anchor="start" x="349.75" y="-217.5" font-family="Helvetica,sans-Serif" font-size="10.00">geometry_msgs::msg</text>
<text text-anchor="middle" x="422.5" y="-205.5" font-family="Helvetica,sans-Serif" font-size="10.00">::Transform::getCdrSerializedSize</text>
</a>
</g>
</g>
<!-- Node2&#45;&gt;Node4 -->
<g id="edge3_Node000002_Node000004" class="edge">
<title>Node2&#45;&gt;Node4</title>
<g id="a_edge3_Node000002_Node000004"><a xlink:title=" ">
<path fill="none" stroke="#63b8ff" d="M302.05,-162.3C324.88,-172.37 351.7,-184.21 374.14,-194.11"/>
<polygon fill="#63b8ff" stroke="#63b8ff" points="372.55,-197.67 383.11,-198.5 375.37,-191.27 372.55,-197.67"/>
</a>
</g>
</g>
<!-- Node9 -->
<g id="Node000009" class="node">
<title>Node9</title>
<g id="a_Node000009"><a xlink:href="../../d8/d15/classstd__msgs_1_1msg_1_1Header.html#ae439639025ac66880a861f521fd84016" target="_top" xlink:title="This function returns the serialized size of a data depending on the buffer alignment.">
<polygon fill="white" stroke="#666666" points="482.62,-156 362.38,-156 362.38,-124 482.62,-124 482.62,-156"/>
<text text-anchor="start" x="370.38" y="-142.5" font-family="Helvetica,sans-Serif" font-size="10.00">std_msgs::msg::Header</text>
<text text-anchor="middle" x="422.5" y="-130.5" font-family="Helvetica,sans-Serif" font-size="10.00">::getCdrSerializedSize</text>
</a>
</g>
</g>
<!-- Node2&#45;&gt;Node9 -->
<g id="edge8_Node000002_Node000009" class="edge">
<title>Node2&#45;&gt;Node9</title>
<g id="a_edge8_Node000002_Node000009"><a xlink:title=" ">
<path fill="none" stroke="#63b8ff" d="M306.22,-140C320.52,-140 336.13,-140 351.11,-140"/>
<polygon fill="#63b8ff" stroke="#63b8ff" points="350.88,-143.5 360.88,-140 350.88,-136.5 350.88,-143.5"/>
</a>
</g>
</g>
<!-- Node13 -->
<g id="Node000013" class="node">
<title>Node13</title>
<g id="a_Node000013"><a xlink:href="../../dc/d01/classgeometry__msgs_1_1msg_1_1TransformStamped.html#abf590cca246791b55267967051efc7a4" target="_top" xlink:title="This function copies the value in member header">
<polygon fill="white" stroke="#666666" points="477.75,-106 367.25,-106 367.25,-62 477.75,-62 477.75,-106"/>
<text text-anchor="start" x="375.25" y="-92.5" font-family="Helvetica,sans-Serif" font-size="10.00">geometry_msgs::msg</text>
<text text-anchor="start" x="375.25" y="-80.5" font-family="Helvetica,sans-Serif" font-size="10.00">::TransformStamped::</text>
<text text-anchor="middle" x="422.5" y="-68.5" font-family="Helvetica,sans-Serif" font-size="10.00">header</text>
</a>
</g>
</g>
<!-- Node2&#45;&gt;Node13 -->
<g id="edge12_Node000002_Node000013" class="edge">
<title>Node2&#45;&gt;Node13</title>
<g id="a_edge12_Node000002_Node000013"><a xlink:title=" ">
<path fill="none" stroke="#63b8ff" d="M306.22,-121.97C322.3,-116.68 340.04,-110.83 356.68,-105.35"/>
<polygon fill="#63b8ff" stroke="#63b8ff" points="357.47,-108.45 365.88,-101.99 355.28,-101.8 357.47,-108.45"/>
</a>
</g>
</g>
<!-- Node14 -->
<g id="Node000014" class="node">
<title>Node14</title>
<g id="a_Node000014"><a xlink:href="../../dc/d01/classgeometry__msgs_1_1msg_1_1TransformStamped.html#a79a685ff268b47b2a1a8f04b4dfc8da2" target="_top" xlink:title="This function copies the value in member transform">
<polygon fill="white" stroke="#666666" points="477.75,-44 367.25,-44 367.25,0 477.75,0 477.75,-44"/>
<text text-anchor="start" x="375.25" y="-30.5" font-family="Helvetica,sans-Serif" font-size="10.00">geometry_msgs::msg</text>
<text text-anchor="start" x="375.25" y="-18.5" font-family="Helvetica,sans-Serif" font-size="10.00">::TransformStamped::</text>
<text text-anchor="middle" x="422.5" y="-6.5" font-family="Helvetica,sans-Serif" font-size="10.00">transform</text>
</a>
</g>
</g>
<!-- Node2&#45;&gt;Node14 -->
<g id="edge13_Node000002_Node000014" class="edge">
<title>Node2&#45;&gt;Node14</title>
<g id="a_edge13_Node000002_Node000014"><a xlink:title=" ">
<path fill="none" stroke="#63b8ff" d="M269.95,-117.79C286.94,-98.51 313.7,-70.94 341.75,-53 346.6,-49.9 351.81,-47.03 357.16,-44.38"/>
<polygon fill="#63b8ff" stroke="#63b8ff" points="358.28,-47.26 365.89,-39.88 355.34,-40.91 358.28,-47.26"/>
</a>
</g>
</g>
<!-- Node5 -->
<g id="Node000005" class="node">
<title>Node5</title>
<g id="a_Node000005"><a xlink:href="../../d5/de9/classgeometry__msgs_1_1msg_1_1Quaternion.html#a42b051b07b2e83df416c8ebfc76a306c" target="_top" xlink:title="This function returns the serialized size of a data depending on the buffer alignment.">
<polygon fill="white" stroke="#666666" points="705.25,-356 539.25,-356 539.25,-324 705.25,-324 705.25,-356"/>
<text text-anchor="start" x="547.25" y="-342.5" font-family="Helvetica,sans-Serif" font-size="10.00">geometry_msgs::msg</text>
<text text-anchor="middle" x="622.25" y="-330.5" font-family="Helvetica,sans-Serif" font-size="10.00">::Quaternion::getCdrSerializedSize</text>
</a>
</g>
</g>
<!-- Node4&#45;&gt;Node5 -->
<g id="edge4_Node000004_Node000005" class="edge">
<title>Node4&#45;&gt;Node5</title>
<g id="a_edge4_Node000004_Node000005"><a xlink:title=" ">
<path fill="none" stroke="#63b8ff" d="M490.6,-231.29C495.13,-233.79 499.41,-236.68 503.25,-240 531.2,-264.2 511.2,-290.91 539.25,-315 540.45,-316.03 541.69,-317.02 542.97,-317.97"/>
<polygon fill="#63b8ff" stroke="#63b8ff" points="540.55,-321.21 550.87,-323.64 544.32,-315.31 540.55,-321.21"/>
</a>
</g>
</g>
<!-- Node6 -->
<g id="Node000006" class="node">
<title>Node6</title>
<g id="a_Node000006"><a xlink:href="../../df/d66/classgeometry__msgs_1_1msg_1_1Vector3.html#a3f4f6b078e23dd8bbd3a400a1c8a6209" target="_top" xlink:title="This function returns the serialized size of a data depending on the buffer alignment.">
<polygon fill="white" stroke="#666666" points="698.5,-306 546,-306 546,-274 698.5,-274 698.5,-306"/>
<text text-anchor="start" x="554" y="-292.5" font-family="Helvetica,sans-Serif" font-size="10.00">geometry_msgs::msg</text>
<text text-anchor="middle" x="622.25" y="-280.5" font-family="Helvetica,sans-Serif" font-size="10.00">::Vector3::getCdrSerializedSize</text>
</a>
</g>
</g>
<!-- Node4&#45;&gt;Node6 -->
<g id="edge5_Node000004_Node000006" class="edge">
<title>Node4&#45;&gt;Node6</title>
<g id="a_edge5_Node000004_Node000006"><a xlink:title=" ">
<path fill="none" stroke="#63b8ff" d="M483.08,-231.47C490,-234.03 496.86,-236.87 503.25,-240 520.74,-248.57 521.72,-256.5 539.25,-265 542.63,-266.64 546.15,-268.2 549.73,-269.68"/>
<polygon fill="#63b8ff" stroke="#63b8ff" points="548.39,-273.3 558.98,-273.64 550.92,-266.77 548.39,-273.3"/>
</a>
</g>
</g>
<!-- Node7 -->
<g id="Node000007" class="node">
<title>Node7</title>
<g id="a_Node000007"><a xlink:href="../../d6/d5a/classgeometry__msgs_1_1msg_1_1Transform.html#a9a1459664ad7860be84baf60265516bc" target="_top" xlink:title="This function copies the value in member rotation">
<polygon fill="white" stroke="#666666" points="677.5,-256 567,-256 567,-224 677.5,-224 677.5,-256"/>
<text text-anchor="start" x="575" y="-242.5" font-family="Helvetica,sans-Serif" font-size="10.00">geometry_msgs::msg</text>
<text text-anchor="middle" x="622.25" y="-230.5" font-family="Helvetica,sans-Serif" font-size="10.00">::Transform::rotation</text>
</a>
</g>
</g>
<!-- Node4&#45;&gt;Node7 -->
<g id="edge6_Node000004_Node000007" class="edge">
<title>Node4&#45;&gt;Node7</title>
<g id="a_edge6_Node000004_Node000007"><a xlink:title=" ">
<path fill="none" stroke="#63b8ff" d="M503.65,-225.13C521.04,-227.33 539.23,-229.63 555.96,-231.75"/>
<polygon fill="#63b8ff" stroke="#63b8ff" points="555.37,-235.33 565.73,-233.11 556.24,-228.38 555.37,-235.33"/>
</a>
</g>
</g>
<!-- Node8 -->
<g id="Node000008" class="node">
<title>Node8</title>
<g id="a_Node000008"><a xlink:href="../../d6/d5a/classgeometry__msgs_1_1msg_1_1Transform.html#a6edb54feae3a094afdb701e1fd3c1fd1" target="_top" xlink:title="This function copies the value in member translation">
<polygon fill="white" stroke="#666666" points="680.12,-206 564.38,-206 564.38,-174 680.12,-174 680.12,-206"/>
<text text-anchor="start" x="572.38" y="-192.5" font-family="Helvetica,sans-Serif" font-size="10.00">geometry_msgs::msg</text>
<text text-anchor="middle" x="622.25" y="-180.5" font-family="Helvetica,sans-Serif" font-size="10.00">::Transform::translation</text>
</a>
</g>
</g>
<!-- Node4&#45;&gt;Node8 -->
<g id="edge7_Node000004_Node000008" class="edge">
<title>Node4&#45;&gt;Node8</title>
<g id="a_edge7_Node000004_Node000008"><a xlink:title=" ">
<path fill="none" stroke="#63b8ff" d="M503.65,-204.87C520.09,-202.79 537.25,-200.62 553.21,-198.6"/>
<polygon fill="#63b8ff" stroke="#63b8ff" points="553.57,-201.96 563.05,-197.23 552.69,-195.01 553.57,-201.96"/>
</a>
</g>
</g>
<!-- Node10 -->
<g id="Node000010" class="node">
<title>Node10</title>
<g id="a_Node000010"><a xlink:href="../../d8/d15/classstd__msgs_1_1msg_1_1Header.html#a9bd973b4690fefb807fb231f496831d4" target="_top" xlink:title="This function copies the value in member frame_id">
<polygon fill="white" stroke="#666666" points="682.38,-156 562.12,-156 562.12,-124 682.38,-124 682.38,-156"/>
<text text-anchor="start" x="570.12" y="-142.5" font-family="Helvetica,sans-Serif" font-size="10.00">std_msgs::msg::Header</text>
<text text-anchor="middle" x="622.25" y="-130.5" font-family="Helvetica,sans-Serif" font-size="10.00">::frame_id</text>
</a>
</g>
</g>
<!-- Node9&#45;&gt;Node10 -->
<g id="edge9_Node000009_Node000010" class="edge">
<title>Node9&#45;&gt;Node10</title>
<g id="a_edge9_Node000009_Node000010"><a xlink:title=" ">
<path fill="none" stroke="#63b8ff" d="M483.1,-140C504.5,-140 528.84,-140 551.06,-140"/>
<polygon fill="#63b8ff" stroke="#63b8ff" points="550.77,-143.5 560.77,-140 550.77,-136.5 550.77,-143.5"/>
</a>
</g>
</g>
<!-- Node11 -->
<g id="Node000011" class="node">
<title>Node11</title>
<g id="a_Node000011"><a xlink:href="../../da/d39/classbuiltin__interfaces_1_1msg_1_1Time.html#abdf1cc0285c53ceeb6c4eae36acd3c0f" target="_top" xlink:title="This function returns the serialized size of a data depending on the buffer alignment.">
<polygon fill="white" stroke="#666666" points="704.5,-106 540,-106 540,-74 704.5,-74 704.5,-106"/>
<text text-anchor="start" x="548" y="-92.5" font-family="Helvetica,sans-Serif" font-size="10.00">builtin_interfaces</text>
<text text-anchor="middle" x="622.25" y="-80.5" font-family="Helvetica,sans-Serif" font-size="10.00">::msg::Time::getCdrSerializedSize</text>
</a>
</g>
</g>
<!-- Node9&#45;&gt;Node11 -->
<g id="edge10_Node000009_Node000011" class="edge">
<title>Node9&#45;&gt;Node11</title>
<g id="a_edge10_Node000009_Node000011"><a xlink:title=" ">
<path fill="none" stroke="#63b8ff" d="M483.1,-124.93C502.85,-119.94 525.09,-114.31 545.87,-109.06"/>
<polygon fill="#63b8ff" stroke="#63b8ff" points="546.42,-112.28 555.26,-106.43 544.7,-105.49 546.42,-112.28"/>
</a>
</g>
</g>
<!-- Node12 -->
<g id="Node000012" class="node">
<title>Node12</title>
<g id="a_Node000012"><a xlink:href="../../d8/d15/classstd__msgs_1_1msg_1_1Header.html#a2ac0c277be6d5edc09d17126767290c9" target="_top" xlink:title="This function copies the value in member stamp">
<polygon fill="white" stroke="#666666" points="682.38,-56 562.12,-56 562.12,-24 682.38,-24 682.38,-56"/>
<text text-anchor="start" x="570.12" y="-42.5" font-family="Helvetica,sans-Serif" font-size="10.00">std_msgs::msg::Header</text>
<text text-anchor="middle" x="622.25" y="-30.5" font-family="Helvetica,sans-Serif" font-size="10.00">::stamp</text>
</a>
</g>
</g>
<!-- Node9&#45;&gt;Node12 -->
<g id="edge11_Node000009_Node000012" class="edge">
<title>Node9&#45;&gt;Node12</title>
<g id="a_edge11_Node000009_Node000012"><a xlink:title=" ">
<path fill="none" stroke="#63b8ff" d="M483.06,-126.09C490.21,-123.07 497.13,-119.42 503.25,-115 525.45,-98.97 516.99,-80.94 539.25,-65 543.17,-62.2 547.41,-59.7 551.82,-57.48"/>
<polygon fill="#63b8ff" stroke="#63b8ff" points="553.02,-60.33 560.71,-53.05 550.16,-53.94 553.02,-60.33"/>
</a>
</g>
</g>
</g>
</svg>
