<?xml version="1.0" encoding="UTF-8" standalone="no"?>
<!DOCTYPE svg PUBLIC "-//W3C//DTD SVG 1.1//EN"
 "http://www.w3.org/Graphics/SVG/1.1/DTD/svg11.dtd">
<!-- Generated by graphviz version 7.0.5 (20221223.1930)
 -->
<!-- Title: geometry_msgs::msg::TransformStampedPubSubType::getKey Pages: 1 -->
<svg width="344pt" height="108pt"
 viewBox="0.00 0.00 344.00 108.00" xmlns="http://www.w3.org/2000/svg" xmlns:xlink="http://www.w3.org/1999/xlink">
<g id="graph0" class="graph" transform="scale(1 1) rotate(0) translate(4 104)">
<title>geometry_msgs::msg::TransformStampedPubSubType::getKey</title>
<!-- Node1 -->
<g id="node1" class="node">
<title>Node1</title>
<g id="a_node1"><a xlink:title=" ">
<polygon fill="#999999" stroke="#666666" points="160,-70 0,-70 0,-29 160,-29 160,-70"/>
<text text-anchor="start" x="8" y="-58" font-family="Helvetica,sans-Serif" font-size="10.00">geometry_msgs::msg</text>
<text text-anchor="start" x="8" y="-47" font-family="Helvetica,sans-Serif" font-size="10.00">::TransformStampedPubSubType</text>
<text text-anchor="middle" x="80" y="-36" font-family="Helvetica,sans-Serif" font-size="10.00">::getKey</text>
</a>
</g>
</g>
<!-- Node2 -->
<g id="node2" class="node">
<title>Node2</title>
<g id="a_node2"><a xlink:href="../../dc/d01/classgeometry__msgs_1_1msg_1_1TransformStamped.html#a2ec42a28623addb0dacf3697aaaf4720" target="_top" xlink:title="此函数返回对象键的最大序列化尺寸，取决于缓冲区对齐。">
<polygon fill="white" stroke="#666666" points="336,-100 196,-100 196,-59 336,-59 336,-100"/>
<text text-anchor="start" x="204" y="-88" font-family="Helvetica,sans-Serif" font-size="10.00">geometry_msgs::msg</text>
<text text-anchor="start" x="204" y="-77" font-family="Helvetica,sans-Serif" font-size="10.00">::TransformStamped::</text>
<text text-anchor="middle" x="266" y="-66" font-family="Helvetica,sans-Serif" font-size="10.00">getKeyMaxCdrSerializedSize</text>
</a>
</g>
</g>
<!-- Node1&#45;&gt;Node2 -->
<g id="edge1" class="edge">
<title>Node1&#45;&gt;Node2</title>
<path fill="none" stroke="#63b8ff" d="M160.37,-62.44C168.37,-63.74 176.5,-65.07 184.51,-66.38"/>
<polygon fill="#63b8ff" stroke="#63b8ff" points="183.8,-69.81 194.23,-67.96 184.93,-62.9 183.8,-69.81"/>
</g>
<!-- Node3 -->
<g id="node3" class="node">
<title>Node3</title>
<g id="a_node3"><a xlink:href="../../dc/d01/classgeometry__msgs_1_1msg_1_1TransformStamped.html#af4cdbcb94de8d7be37ac7505e9e5df14" target="_top" xlink:title="此函数使用 CDR 序列化对象序列化对象的键成员。">
<polygon fill="white" stroke="#666666" points="320.5,-41 211.5,-41 211.5,0 320.5,0 320.5,-41"/>
<text text-anchor="start" x="219.5" y="-29" font-family="Helvetica,sans-Serif" font-size="10.00">geometry_msgs::msg</text>
<text text-anchor="start" x="219.5" y="-18" font-family="Helvetica,sans-Serif" font-size="10.00">::TransformStamped::</text>
<text text-anchor="middle" x="266" y="-7" font-family="Helvetica,sans-Serif" font-size="10.00">serializeKey</text>
</a>
</g>
</g>
<!-- Node1&#45;&gt;Node3 -->
<g id="edge2" class="edge">
<title>Node1&#45;&gt;Node3</title>
<path fill="none" stroke="#63b8ff" d="M160.37,-36.99C173.61,-34.9 187.2,-32.76 200.03,-30.74"/>
<polygon fill="#63b8ff" stroke="#63b8ff" points="200.25,-34.25 209.58,-29.23 199.16,-27.33 200.25,-34.25"/>
</g>
</g>
</svg>
