<?xml version="1.0" encoding="UTF-8" standalone="no"?>
<!DOCTYPE svg PUBLIC "-//W3C//DTD SVG 1.1//EN"
 "http://www.w3.org/Graphics/SVG/1.1/DTD/svg11.dtd">
<!-- Generated by graphviz version 8.1.0 (20230707.0739)
 -->
<!-- Title: is_little_endian Pages: 1 -->
<svg width="1340pt" height="357pt"
 viewBox="0.00 0.00 1340.25 357.14" xmlns="http://www.w3.org/2000/svg" xmlns:xlink="http://www.w3.org/1999/xlink">
<g id="graph0" class="graph" transform="scale(1 1) rotate(0) translate(4 353.14)">
<title>is_little_endian</title>
<!-- Node1 -->
<g id="Node000001" class="node">
<title>Node1</title>
<g id="a_Node000001"><a xlink:title=" ">
<polygon fill="#999999" stroke="#666666" points="1332.25,-187.14 1251.75,-187.14 1251.75,-167.14 1332.25,-167.14 1332.25,-187.14"/>
<text text-anchor="middle" x="1292" y="-173.64" font-family="Helvetica,sans-Serif" font-size="10.00">is_little_endian</text>
</a>
</g>
</g>
<!-- Node2 -->
<g id="Node000002" class="node">
<title>Node2</title>
<g id="a_Node000002"><a xlink:href="../../db/d20/pugixml_8cpp.html#a307f5fbb9d87b5938c0b442458185ca6" target="_top" xlink:title=" ">
<polygon fill="white" stroke="#666666" points="1199.62,-263.14 1124.38,-263.14 1124.38,-243.14 1199.62,-243.14 1199.62,-263.14"/>
<text text-anchor="middle" x="1162" y="-249.64" font-family="Helvetica,sans-Serif" font-size="10.00">convert_buffer</text>
</a>
</g>
</g>
<!-- Node1&#45;&gt;Node2 -->
<g id="edge1_Node000001_Node000002" class="edge">
<title>Node1&#45;&gt;Node2</title>
<g id="a_edge1_Node000001_Node000002"><a xlink:title=" ">
<path fill="none" stroke="#63b8ff" d="M1268.8,-194.03C1254.17,-204.78 1234.33,-218.6 1215.75,-229.14 1207.09,-234.05 1197.23,-238.75 1188.41,-242.67"/>
<polygon fill="#63b8ff" stroke="#63b8ff" points="1270.67,-196.26 1276.61,-187.48 1266.5,-190.64 1270.67,-196.26"/>
</a>
</g>
</g>
<!-- Node3 -->
<g id="Node000003" class="node">
<title>Node3</title>
<g id="a_Node000003"><a xlink:href="../../db/d20/pugixml_8cpp.html#a976a3493e244f178a887d589740bea73" target="_top" xlink:title=" ">
<polygon fill="white" stroke="#666666" points="1215.75,-111.14 1108.25,-111.14 1108.25,-91.14 1215.75,-91.14 1215.75,-111.14"/>
<text text-anchor="middle" x="1162" y="-97.64" font-family="Helvetica,sans-Serif" font-size="10.00">convert_buffer_output</text>
</a>
</g>
</g>
<!-- Node1&#45;&gt;Node3 -->
<g id="edge2_Node000001_Node000003" class="edge">
<title>Node1&#45;&gt;Node3</title>
<g id="a_edge2_Node000001_Node000003"><a xlink:title=" ">
<path fill="none" stroke="#63b8ff" d="M1268.8,-160.24C1254.17,-149.5 1234.33,-135.68 1215.75,-125.14 1207.09,-120.23 1197.23,-115.52 1188.41,-111.6"/>
<polygon fill="#63b8ff" stroke="#63b8ff" points="1266.5,-163.63 1276.61,-166.8 1270.67,-158.02 1266.5,-163.63"/>
</a>
</g>
</g>
<!-- Node5 -->
<g id="Node000005" class="node">
<title>Node5</title>
<g id="a_Node000005"><a xlink:href="../../db/d20/pugixml_8cpp.html#ae841fafba520d2341dc8386a6f825ac6" target="_top" xlink:title=" ">
<polygon fill="white" stroke="#666666" points="1058.75,-263.14 956.5,-263.14 956.5,-243.14 1058.75,-243.14 1058.75,-263.14"/>
<text text-anchor="middle" x="1007.62" y="-249.64" font-family="Helvetica,sans-Serif" font-size="10.00">get_buffer_encoding</text>
</a>
</g>
</g>
<!-- Node1&#45;&gt;Node5 -->
<g id="edge4_Node000001_Node000005" class="edge">
<title>Node1&#45;&gt;Node5</title>
<g id="a_edge4_Node000001_Node000005"><a xlink:title=" ">
<path fill="none" stroke="#63b8ff" d="M1241.42,-190.48C1186.06,-205.38 1097.63,-229.18 1047.19,-242.76"/>
<polygon fill="#63b8ff" stroke="#63b8ff" points="1242.29,-193.61 1251.03,-187.63 1240.47,-186.85 1242.29,-193.61"/>
</a>
</g>
</g>
<!-- Node8 -->
<g id="Node000008" class="node">
<title>Node8</title>
<g id="a_Node000008"><a xlink:href="../../db/d20/pugixml_8cpp.html#a1d386e9425e75d35b01373e46f186b9c" target="_top" xlink:title=" ">
<polygon fill="white" stroke="#666666" points="1214.25,-187.14 1109.75,-187.14 1109.75,-167.14 1214.25,-167.14 1214.25,-187.14"/>
<text text-anchor="middle" x="1162" y="-173.64" font-family="Helvetica,sans-Serif" font-size="10.00">get_wchar_encoding</text>
</a>
</g>
</g>
<!-- Node1&#45;&gt;Node8 -->
<g id="edge7_Node000001_Node000008" class="edge">
<title>Node1&#45;&gt;Node8</title>
<g id="a_edge7_Node000001_Node000008"><a xlink:title=" ">
<path fill="none" stroke="#63b8ff" d="M1240.79,-177.14C1232.11,-177.14 1223.06,-177.14 1214.35,-177.14"/>
<polygon fill="#63b8ff" stroke="#63b8ff" points="1240.55,-180.64 1250.55,-177.14 1240.55,-173.64 1240.55,-180.64"/>
</a>
</g>
</g>
<!-- Node9 -->
<g id="Node000009" class="node">
<title>Node9</title>
<g id="a_Node000009"><a xlink:href="../../db/d20/pugixml_8cpp.html#aa7c85cfc84db7ee4b4eb887366365479" target="_top" xlink:title=" ">
<polygon fill="white" stroke="#666666" points="1057.25,-149.14 958,-149.14 958,-129.14 1057.25,-129.14 1057.25,-149.14"/>
<text text-anchor="middle" x="1007.62" y="-135.64" font-family="Helvetica,sans-Serif" font-size="10.00">get_write_encoding</text>
</a>
</g>
</g>
<!-- Node1&#45;&gt;Node9 -->
<g id="edge42_Node000001_Node000009" class="edge">
<title>Node1&#45;&gt;Node9</title>
<g id="a_edge42_Node000001_Node000009"><a xlink:title=" ">
<path fill="none" stroke="#63b8ff" d="M1243.87,-164.04C1234.6,-161.81 1224.91,-159.71 1215.75,-158.14 1162,-148.95 1099.6,-143.99 1057.45,-141.47"/>
<polygon fill="#63b8ff" stroke="#63b8ff" points="1242.95,-167.67 1253.5,-166.71 1244.65,-160.88 1242.95,-167.67"/>
</a>
</g>
</g>
<!-- Node4 -->
<g id="Node000004" class="node">
<title>Node4</title>
<g id="a_Node000004"><a xlink:href="../../db/dd3/classxml__buffered__writer.html#aa733cb2cd0d5fcacec92c67a7f26c553" target="_top" xlink:title=" ">
<polygon fill="white" stroke="#666666" points="907,-127.14 807.75,-127.14 807.75,-95.14 907,-95.14 907,-127.14"/>
<text text-anchor="start" x="815.75" y="-113.64" font-family="Helvetica,sans-Serif" font-size="10.00">xml_buffered_writer</text>
<text text-anchor="middle" x="857.38" y="-101.64" font-family="Helvetica,sans-Serif" font-size="10.00">::flush</text>
</a>
</g>
</g>
<!-- Node3&#45;&gt;Node4 -->
<g id="edge3_Node000003_Node000004" class="edge">
<title>Node3&#45;&gt;Node4</title>
<g id="a_edge3_Node000003_Node000004"><a xlink:title=" ">
<path fill="none" stroke="#63b8ff" d="M1096.96,-103.25C1040.34,-105.13 958.93,-107.82 907.36,-109.52"/>
<polygon fill="#63b8ff" stroke="#63b8ff" points="1097.06,-106.72 1106.94,-102.89 1096.83,-99.72 1097.06,-106.72"/>
</a>
</g>
</g>
<!-- Node6 -->
<g id="Node000006" class="node">
<title>Node6</title>
<g id="a_Node000006"><a xlink:href="../../db/d20/pugixml_8cpp.html#ae84338a5107019d1ae2a491168dad821" target="_top" xlink:title=" ">
<polygon fill="white" stroke="#666666" points="894.62,-225.14 820.12,-225.14 820.12,-205.14 894.62,-205.14 894.62,-225.14"/>
<text text-anchor="middle" x="857.38" y="-211.64" font-family="Helvetica,sans-Serif" font-size="10.00">load_file_impl</text>
</a>
</g>
</g>
<!-- Node5&#45;&gt;Node6 -->
<g id="edge5_Node000005_Node000006" class="edge">
<title>Node5&#45;&gt;Node6</title>
<g id="a_edge5_Node000005_Node000006"><a xlink:title=" ">
<path fill="none" stroke="#63b8ff" d="M955.31,-239.98C935.49,-234.9 913.26,-229.21 895.09,-224.55"/>
<polygon fill="#63b8ff" stroke="#63b8ff" points="954.17,-243.56 964.72,-242.65 955.9,-236.78 954.17,-243.56"/>
</a>
</g>
</g>
<!-- Node7 -->
<g id="Node000007" class="node">
<title>Node7</title>
<g id="a_Node000007"><a xlink:href="../../db/d20/pugixml_8cpp.html#a9a1f27967fef419fecd466f904c165e0" target="_top" xlink:title=" ">
<polygon fill="white" stroke="#666666" points="903.62,-263.14 811.12,-263.14 811.12,-243.14 903.62,-243.14 903.62,-263.14"/>
<text text-anchor="middle" x="857.38" y="-249.64" font-family="Helvetica,sans-Serif" font-size="10.00">load_stream_impl</text>
</a>
</g>
</g>
<!-- Node5&#45;&gt;Node7 -->
<g id="edge6_Node000005_Node000007" class="edge">
<title>Node5&#45;&gt;Node7</title>
<g id="a_edge6_Node000005_Node000007"><a xlink:title=" ">
<path fill="none" stroke="#63b8ff" d="M945.09,-253.14C931.26,-253.14 916.82,-253.14 903.78,-253.14"/>
<polygon fill="#63b8ff" stroke="#63b8ff" points="945.02,-256.64 955.02,-253.14 945.02,-249.64 945.02,-256.64"/>
</a>
</g>
</g>
<!-- Node8&#45;&gt;Node5 -->
<g id="edge8_Node000008_Node000005" class="edge">
<title>Node8&#45;&gt;Node5</title>
<g id="a_edge8_Node000008_Node000005"><a xlink:title=" ">
<path fill="none" stroke="#63b8ff" d="M1124.09,-192.12C1118.63,-194.85 1113.18,-197.88 1108.25,-201.14 1090.15,-213.11 1091.13,-223.43 1072.25,-234.14 1066.33,-237.5 1059.77,-240.31 1053.16,-242.66"/>
<polygon fill="#63b8ff" stroke="#63b8ff" points="1125.28,-194.96 1132.84,-187.54 1122.3,-188.62 1125.28,-194.96"/>
</a>
</g>
</g>
<!-- Node8&#45;&gt;Node9 -->
<g id="edge9_Node000008_Node000009" class="edge">
<title>Node8&#45;&gt;Node9</title>
<g id="a_edge9_Node000008_Node000009"><a xlink:title=" ">
<path fill="none" stroke="#63b8ff" d="M1108.41,-164.02C1089.49,-159.3 1068.42,-154.05 1050.53,-149.59"/>
<polygon fill="#63b8ff" stroke="#63b8ff" points="1107.41,-167.63 1117.96,-166.65 1109.1,-160.84 1107.41,-167.63"/>
</a>
</g>
</g>
<!-- Node10 -->
<g id="Node000010" class="node">
<title>Node10</title>
<g id="a_Node000010"><a xlink:href="../../db/d20/pugixml_8cpp.html#a12b9d6cff4d37c68755263d0687c62b1" target="_top" xlink:title=" ">
<polygon fill="white" stroke="#666666" points="1072.25,-187.14 943,-187.14 943,-167.14 1072.25,-167.14 1072.25,-187.14"/>
<text text-anchor="middle" x="1007.62" y="-173.64" font-family="Helvetica,sans-Serif" font-size="10.00">get_write_native_encoding</text>
</a>
</g>
</g>
<!-- Node8&#45;&gt;Node10 -->
<g id="edge10_Node000008_Node000010" class="edge">
<title>Node8&#45;&gt;Node10</title>
<g id="a_edge10_Node000008_Node000010"><a xlink:title=" ">
<path fill="none" stroke="#63b8ff" d="M1098.68,-177.14C1090.07,-177.14 1081.22,-177.14 1072.59,-177.14"/>
<polygon fill="#63b8ff" stroke="#63b8ff" points="1098.41,-180.64 1108.41,-177.14 1098.41,-173.64 1098.41,-180.64"/>
</a>
</g>
</g>
<!-- Node25 -->
<g id="Node000025" class="node">
<title>Node25</title>
<g id="a_Node000025"><a xlink:href="../../db/d20/pugixml_8cpp.html#a2a34bcc0f03213bd1a9bb8a488682d3a" target="_top" xlink:title=" ">
<polygon fill="white" stroke="#666666" points="1062.12,-225.14 953.12,-225.14 953.12,-205.14 1062.12,-205.14 1062.12,-225.14"/>
<text text-anchor="middle" x="1007.62" y="-211.64" font-family="Helvetica,sans-Serif" font-size="10.00">zero_terminate_buffer</text>
</a>
</g>
</g>
<!-- Node8&#45;&gt;Node25 -->
<g id="edge39_Node000008_Node000025" class="edge">
<title>Node8&#45;&gt;Node25</title>
<g id="a_edge39_Node000008_Node000025"><a xlink:title=" ">
<path fill="none" stroke="#63b8ff" d="M1108.41,-190.25C1089.49,-194.97 1068.42,-200.23 1050.53,-204.69"/>
<polygon fill="#63b8ff" stroke="#63b8ff" points="1109.1,-193.44 1117.96,-187.62 1107.41,-186.65 1109.1,-193.44"/>
</a>
</g>
</g>
<!-- Node10&#45;&gt;Node4 -->
<g id="edge11_Node000010_Node000004" class="edge">
<title>Node10&#45;&gt;Node4</title>
<g id="a_edge11_Node000010_Node000004"><a xlink:title=" ">
<path fill="none" stroke="#63b8ff" d="M956.61,-163.33C951.96,-161.71 947.36,-159.98 943,-158.14 922.56,-149.53 900.7,-137.3 884.31,-127.48"/>
<polygon fill="#63b8ff" stroke="#63b8ff" points="955.19,-166.88 965.79,-166.69 957.39,-160.23 955.19,-166.88"/>
</a>
</g>
</g>
<!-- Node11 -->
<g id="Node000011" class="node">
<title>Node11</title>
<g id="a_Node000011"><a xlink:href="../../db/dd3/classxml__buffered__writer.html#a119f9db2f60e578e69ac81177e932fb3" target="_top" xlink:title=" ">
<polygon fill="white" stroke="#666666" points="907,-187.14 807.75,-187.14 807.75,-155.14 907,-155.14 907,-187.14"/>
<text text-anchor="start" x="815.75" y="-173.64" font-family="Helvetica,sans-Serif" font-size="10.00">xml_buffered_writer</text>
<text text-anchor="middle" x="857.38" y="-161.64" font-family="Helvetica,sans-Serif" font-size="10.00">::write_direct</text>
</a>
</g>
</g>
<!-- Node10&#45;&gt;Node11 -->
<g id="edge12_Node000010_Node000011" class="edge">
<title>Node10&#45;&gt;Node11</title>
<g id="a_edge12_Node000010_Node000011"><a xlink:title=" ">
<path fill="none" stroke="#63b8ff" d="M931.92,-174.12C923.56,-173.78 915.2,-173.44 907.28,-173.12"/>
<polygon fill="#63b8ff" stroke="#63b8ff" points="931.76,-177.65 941.89,-174.56 932.04,-170.66 931.76,-177.65"/>
</a>
</g>
</g>
<!-- Node12 -->
<g id="Node000012" class="node">
<title>Node12</title>
<g id="a_Node000012"><a xlink:href="../../db/dd3/classxml__buffered__writer.html#ae62b84beff660555acb76e277f967c0d" target="_top" xlink:title=" ">
<polygon fill="white" stroke="#666666" points="771.75,-222.14 672.5,-222.14 672.5,-190.14 771.75,-190.14 771.75,-222.14"/>
<text text-anchor="start" x="680.5" y="-208.64" font-family="Helvetica,sans-Serif" font-size="10.00">xml_buffered_writer</text>
<text text-anchor="middle" x="722.12" y="-196.64" font-family="Helvetica,sans-Serif" font-size="10.00">::write_buffer</text>
</a>
</g>
</g>
<!-- Node11&#45;&gt;Node12 -->
<g id="edge13_Node000011_Node000012" class="edge">
<title>Node11&#45;&gt;Node12</title>
<g id="a_edge13_Node000011_Node000012"><a xlink:title=" ">
<path fill="none" stroke="#63b8ff" d="M797.03,-186.73C788.66,-188.93 780.13,-191.17 771.98,-193.31"/>
<polygon fill="#63b8ff" stroke="#63b8ff" points="797.73,-189.9 806.51,-183.97 795.95,-183.13 797.73,-189.9"/>
</a>
</g>
</g>
<!-- Node23 -->
<g id="Node000023" class="node">
<title>Node23</title>
<g id="a_Node000023"><a xlink:href="../../db/dd3/classxml__buffered__writer.html#a1699556c38e942f7c1db1b98ddf15642" target="_top" xlink:title=" ">
<polygon fill="white" stroke="#666666" points="631.62,-105.14 532.38,-105.14 532.38,-73.14 631.62,-73.14 631.62,-105.14"/>
<text text-anchor="start" x="540.38" y="-91.64" font-family="Helvetica,sans-Serif" font-size="10.00">xml_buffered_writer</text>
<text text-anchor="middle" x="582" y="-79.64" font-family="Helvetica,sans-Serif" font-size="10.00">::write_string</text>
</a>
</g>
</g>
<!-- Node11&#45;&gt;Node23 -->
<g id="edge32_Node000011_Node000023" class="edge">
<title>Node11&#45;&gt;Node23</title>
<g id="a_edge32_Node000011_Node000023"><a xlink:title=" ">
<path fill="none" stroke="#63b8ff" d="M796.97,-153.32C747.58,-138.51 678.14,-117.68 631.91,-103.81"/>
<polygon fill="#63b8ff" stroke="#63b8ff" points="795.92,-156.96 806.5,-156.48 797.93,-150.25 795.92,-156.96"/>
</a>
</g>
</g>
<!-- Node13 -->
<g id="Node000013" class="node">
<title>Node13</title>
<g id="a_Node000013"><a xlink:href="../../db/d20/pugixml_8cpp.html#a41713d70abc2d1fce3f8aca10f450a1d" target="_top" xlink:title=" ">
<polygon fill="white" stroke="#666666" points="359.25,-349.14 244.25,-349.14 244.25,-329.14 359.25,-329.14 359.25,-349.14"/>
<text text-anchor="middle" x="301.75" y="-335.64" font-family="Helvetica,sans-Serif" font-size="10.00">node_output_comment</text>
</a>
</g>
</g>
<!-- Node12&#45;&gt;Node13 -->
<g id="edge14_Node000012_Node000013" class="edge">
<title>Node12&#45;&gt;Node13</title>
<g id="a_edge14_Node000012_Node000013"><a xlink:title=" ">
<path fill="none" stroke="#63b8ff" d="M700.96,-230.43C685.23,-247.68 661.86,-269.87 636.5,-282.14 546.41,-325.71 428.53,-336.54 359.68,-338.9"/>
<polygon fill="#63b8ff" stroke="#63b8ff" points="703.04,-233.23 707.04,-223.42 697.8,-228.59 703.04,-233.23"/>
</a>
</g>
</g>
<!-- Node16 -->
<g id="Node000016" class="node">
<title>Node16</title>
<g id="a_Node000016"><a xlink:href="../../db/d20/pugixml_8cpp.html#a4738723860e1782016479760528efd62" target="_top" xlink:title=" ">
<polygon fill="white" stroke="#666666" points="636.5,-273.14 527.5,-273.14 527.5,-253.14 636.5,-253.14 636.5,-273.14"/>
<text text-anchor="middle" x="582" y="-259.64" font-family="Helvetica,sans-Serif" font-size="10.00">node_output_pi_value</text>
</a>
</g>
</g>
<!-- Node12&#45;&gt;Node16 -->
<g id="edge17_Node000012_Node000016" class="edge">
<title>Node12&#45;&gt;Node16</title>
<g id="a_edge17_Node000012_Node000016"><a xlink:title=" ">
<path fill="none" stroke="#63b8ff" d="M671.23,-226.73C649.79,-235.58 625.68,-245.53 608.08,-252.79"/>
<polygon fill="#63b8ff" stroke="#63b8ff" points="672.26,-229.68 680.17,-222.63 669.59,-223.2 672.26,-229.68"/>
</a>
</g>
</g>
<!-- Node17 -->
<g id="Node000017" class="node">
<title>Node17</title>
<g id="a_Node000017"><a xlink:href="../../db/d20/pugixml_8cpp.html#a21f7b54b5d3837583ca0da632f7c27fc" target="_top" xlink:title=" ">
<polygon fill="white" stroke="#666666" points="348.75,-235.14 254.75,-235.14 254.75,-215.14 348.75,-215.14 348.75,-235.14"/>
<text text-anchor="middle" x="301.75" y="-221.64" font-family="Helvetica,sans-Serif" font-size="10.00">text_output_cdata</text>
</a>
</g>
</g>
<!-- Node12&#45;&gt;Node17 -->
<g id="edge19_Node000012_Node000017" class="edge">
<title>Node12&#45;&gt;Node17</title>
<g id="a_edge19_Node000012_Node000017"><a xlink:title=" ">
<path fill="none" stroke="#63b8ff" d="M661.45,-208.98C653.07,-209.37 644.57,-209.77 636.5,-210.14 533.95,-214.87 413.66,-220.23 349.18,-223.09"/>
<polygon fill="#63b8ff" stroke="#63b8ff" points="661.52,-212.43 671.35,-208.46 661.2,-205.44 661.52,-212.43"/>
</a>
</g>
</g>
<!-- Node18 -->
<g id="Node000018" class="node">
<title>Node18</title>
<g id="a_Node000018"><a xlink:href="../../db/d20/pugixml_8cpp.html#affde71fa96c9fca0c49b21e22ba197c5" target="_top" xlink:title=" ">
<polygon fill="white" stroke="#666666" points="635.38,-159.14 528.62,-159.14 528.62,-139.14 635.38,-139.14 635.38,-159.14"/>
<text text-anchor="middle" x="582" y="-145.64" font-family="Helvetica,sans-Serif" font-size="10.00">text_output_escaped</text>
</a>
</g>
</g>
<!-- Node12&#45;&gt;Node18 -->
<g id="edge21_Node000012_Node000018" class="edge">
<title>Node12&#45;&gt;Node18</title>
<g id="a_edge21_Node000012_Node000018"><a xlink:title=" ">
<path fill="none" stroke="#63b8ff" d="M671.23,-185.55C649.79,-176.7 625.68,-166.75 608.08,-159.49"/>
<polygon fill="#63b8ff" stroke="#63b8ff" points="669.59,-189.07 680.17,-189.65 672.26,-182.6 669.59,-189.07"/>
</a>
</g>
</g>
<!-- Node22 -->
<g id="Node000022" class="node">
<title>Node22</title>
<g id="a_Node000022"><a xlink:href="../../db/d20/pugixml_8cpp.html#a804b556de6a32d00218a37496aef4630" target="_top" xlink:title=" ">
<polygon fill="white" stroke="#666666" points="491.5,-197.14 395.25,-197.14 395.25,-177.14 491.5,-177.14 491.5,-197.14"/>
<text text-anchor="middle" x="443.38" y="-183.64" font-family="Helvetica,sans-Serif" font-size="10.00">text_output_indent</text>
</a>
</g>
</g>
<!-- Node12&#45;&gt;Node22 -->
<g id="edge29_Node000012_Node000022" class="edge">
<title>Node12&#45;&gt;Node22</title>
<g id="a_edge29_Node000012_Node000022"><a xlink:title=" ">
<path fill="none" stroke="#63b8ff" d="M661.47,-202.04C610.69,-198.56 538.73,-193.62 491.8,-190.39"/>
<polygon fill="#63b8ff" stroke="#63b8ff" points="661.07,-205.59 671.28,-202.79 661.55,-198.61 661.07,-205.59"/>
</a>
</g>
</g>
<!-- Node14 -->
<g id="Node000014" class="node">
<title>Node14</title>
<g id="a_Node000014"><a xlink:href="../../db/d20/pugixml_8cpp.html#a2a7a7ce70701692e97923c850b3cc130" target="_top" xlink:title=" ">
<polygon fill="white" stroke="#666666" points="208.25,-197.14 105.25,-197.14 105.25,-177.14 208.25,-177.14 208.25,-197.14"/>
<text text-anchor="middle" x="156.75" y="-183.64" font-family="Helvetica,sans-Serif" font-size="10.00">node_output_simple</text>
</a>
</g>
</g>
<!-- Node13&#45;&gt;Node14 -->
<g id="edge15_Node000013_Node000014" class="edge">
<title>Node13&#45;&gt;Node14</title>
<g id="a_edge15_Node000013_Node000014"><a xlink:title=" ">
<path fill="none" stroke="#63b8ff" d="M283.6,-320.91C253.25,-288.65 191.04,-222.52 167.27,-197.26"/>
<polygon fill="#63b8ff" stroke="#63b8ff" points="280.52,-322.81 289.92,-327.69 285.62,-318.01 280.52,-322.81"/>
</a>
</g>
</g>
<!-- Node15 -->
<g id="Node000015" class="node">
<title>Node15</title>
<g id="a_Node000015"><a xlink:href="../../db/d20/pugixml_8cpp.html#a2972dfcdf48725e48ce2901d08f7b4ae" target="_top" xlink:title=" ">
<polygon fill="white" stroke="#666666" points="69.25,-178.14 0,-178.14 0,-158.14 69.25,-158.14 69.25,-178.14"/>
<text text-anchor="middle" x="34.62" y="-164.64" font-family="Helvetica,sans-Serif" font-size="10.00">node_output</text>
</a>
</g>
</g>
<!-- Node14&#45;&gt;Node15 -->
<g id="edge16_Node000014_Node000015" class="edge">
<title>Node14&#45;&gt;Node15</title>
<g id="a_edge16_Node000014_Node000015"><a xlink:title=" ">
<path fill="none" stroke="#63b8ff" d="M94.13,-177.39C85.69,-176.06 77.28,-174.73 69.58,-173.51"/>
<polygon fill="#63b8ff" stroke="#63b8ff" points="93.38,-180.98 103.81,-179.08 94.48,-174.06 93.38,-180.98"/>
</a>
</g>
</g>
<!-- Node16&#45;&gt;Node14 -->
<g id="edge18_Node000016_Node000014" class="edge">
<title>Node16&#45;&gt;Node14</title>
<g id="a_edge18_Node000016_Node000014"><a xlink:title=" ">
<path fill="none" stroke="#63b8ff" d="M516.48,-269.27C447.3,-273.62 335.15,-274.21 244.25,-244.14 214.2,-234.2 184.58,-210.98 169.01,-197.45"/>
<polygon fill="#63b8ff" stroke="#63b8ff" points="516.46,-272.71 526.2,-268.54 515.99,-265.72 516.46,-272.71"/>
</a>
</g>
</g>
<!-- Node17&#45;&gt;Node14 -->
<g id="edge20_Node000017_Node000014" class="edge">
<title>Node17&#45;&gt;Node14</title>
<g id="a_edge20_Node000017_Node000014"><a xlink:title=" ">
<path fill="none" stroke="#63b8ff" d="M251.15,-211.96C233.45,-207.26 213.78,-202.03 197.08,-197.59"/>
<polygon fill="#63b8ff" stroke="#63b8ff" points="249.73,-215.47 260.3,-214.65 251.53,-208.7 249.73,-215.47"/>
</a>
</g>
</g>
<!-- Node19 -->
<g id="Node000019" class="node">
<title>Node19</title>
<g id="a_Node000019"><a xlink:href="../../db/d20/pugixml_8cpp.html#ad40396398fcbab11c9283b516f766413" target="_top" xlink:title=" ">
<polygon fill="white" stroke="#666666" points="475.75,-159.14 411,-159.14 411,-139.14 475.75,-139.14 475.75,-159.14"/>
<text text-anchor="middle" x="443.38" y="-145.64" font-family="Helvetica,sans-Serif" font-size="10.00">text_output</text>
</a>
</g>
</g>
<!-- Node18&#45;&gt;Node19 -->
<g id="edge22_Node000018_Node000019" class="edge">
<title>Node18&#45;&gt;Node19</title>
<g id="a_edge22_Node000018_Node000019"><a xlink:title=" ">
<path fill="none" stroke="#63b8ff" d="M517.33,-149.14C503.03,-149.14 488.45,-149.14 476.12,-149.14"/>
<polygon fill="#63b8ff" stroke="#63b8ff" points="517.18,-152.64 527.18,-149.14 517.18,-145.64 517.18,-152.64"/>
</a>
</g>
</g>
<!-- Node19&#45;&gt;Node14 -->
<g id="edge27_Node000019_Node000014" class="edge">
<title>Node19&#45;&gt;Node14</title>
<g id="a_edge27_Node000019_Node000014"><a xlink:title=" ">
<path fill="none" stroke="#63b8ff" d="M400.04,-159.94C387.03,-162.96 372.61,-165.99 359.25,-168.14 308.25,-176.34 249.38,-181.38 208.5,-184.2"/>
<polygon fill="#63b8ff" stroke="#63b8ff" points="400.67,-163.15 409.59,-157.43 399.05,-156.34 400.67,-163.15"/>
</a>
</g>
</g>
<!-- Node20 -->
<g id="Node000020" class="node">
<title>Node20</title>
<g id="a_Node000020"><a xlink:href="../../db/d20/pugixml_8cpp.html#ae35e737e5b408f763f6fe89874ec87cf" target="_top" xlink:title=" ">
<polygon fill="white" stroke="#666666" points="359.25,-159.14 244.25,-159.14 244.25,-139.14 359.25,-139.14 359.25,-159.14"/>
<text text-anchor="middle" x="301.75" y="-145.64" font-family="Helvetica,sans-Serif" font-size="10.00">node_output_attributes</text>
</a>
</g>
</g>
<!-- Node19&#45;&gt;Node20 -->
<g id="edge23_Node000019_Node000020" class="edge">
<title>Node19&#45;&gt;Node20</title>
<g id="a_edge23_Node000019_Node000020"><a xlink:title=" ">
<path fill="none" stroke="#63b8ff" d="M399.93,-149.14C387.21,-149.14 373.04,-149.14 359.55,-149.14"/>
<polygon fill="#63b8ff" stroke="#63b8ff" points="399.69,-152.64 409.69,-149.14 399.69,-145.64 399.69,-152.64"/>
</a>
</g>
</g>
<!-- Node21 -->
<g id="Node000021" class="node">
<title>Node21</title>
<g id="a_Node000021"><a xlink:href="../../db/d20/pugixml_8cpp.html#abe15f1e5861695b34b8581805703d03a" target="_top" xlink:title=" ">
<polygon fill="white" stroke="#666666" points="203.75,-140.14 109.75,-140.14 109.75,-120.14 203.75,-120.14 203.75,-140.14"/>
<text text-anchor="middle" x="156.75" y="-126.64" font-family="Helvetica,sans-Serif" font-size="10.00">node_output_start</text>
</a>
</g>
</g>
<!-- Node19&#45;&gt;Node21 -->
<g id="edge28_Node000019_Node000021" class="edge">
<title>Node19&#45;&gt;Node21</title>
<g id="a_edge28_Node000019_Node000021"><a xlink:title=" ">
<path fill="none" stroke="#63b8ff" d="M400.15,-137.56C387.14,-134.51 372.7,-131.66 359.25,-130.14 306.24,-124.16 244.88,-125.3 203.93,-127.21"/>
<polygon fill="#63b8ff" stroke="#63b8ff" points="399.15,-141.16 409.69,-140.13 400.81,-134.36 399.15,-141.16"/>
</a>
</g>
</g>
<!-- Node20&#45;&gt;Node14 -->
<g id="edge24_Node000020_Node000014" class="edge">
<title>Node20&#45;&gt;Node14</title>
<g id="a_edge24_Node000020_Node000014"><a xlink:title=" ">
<path fill="none" stroke="#63b8ff" d="M251.15,-162.32C233.45,-167.02 213.78,-172.25 197.08,-176.69"/>
<polygon fill="#63b8ff" stroke="#63b8ff" points="251.53,-165.57 260.3,-159.62 249.73,-158.81 251.53,-165.57"/>
</a>
</g>
</g>
<!-- Node20&#45;&gt;Node21 -->
<g id="edge25_Node000020_Node000021" class="edge">
<title>Node20&#45;&gt;Node21</title>
<g id="a_edge25_Node000020_Node000021"><a xlink:title=" ">
<path fill="none" stroke="#63b8ff" d="M233.16,-140.16C223.26,-138.84 213.27,-137.52 203.93,-136.27"/>
<polygon fill="#63b8ff" stroke="#63b8ff" points="232.45,-143.73 242.82,-141.57 233.37,-136.79 232.45,-143.73"/>
</a>
</g>
</g>
<!-- Node21&#45;&gt;Node15 -->
<g id="edge26_Node000021_Node000015" class="edge">
<title>Node21&#45;&gt;Node15</title>
<g id="a_edge26_Node000021_Node000015"><a xlink:title=" ">
<path fill="none" stroke="#63b8ff" d="M112.41,-143.85C97.99,-148.41 82.17,-153.41 68.66,-157.69"/>
<polygon fill="#63b8ff" stroke="#63b8ff" points="113.13,-146.98 121.61,-140.62 111.02,-140.3 113.13,-146.98"/>
</a>
</g>
</g>
<!-- Node22&#45;&gt;Node15 -->
<g id="edge30_Node000022_Node000015" class="edge">
<title>Node22&#45;&gt;Node15</title>
<g id="a_edge30_Node000022_Node000015"><a xlink:title=" ">
<path fill="none" stroke="#63b8ff" d="M424.38,-204.32C408.61,-218.09 384.35,-236.36 359.25,-244.14 310.43,-259.27 294.91,-250.94 244.25,-244.14 180.77,-235.62 164.65,-230.09 105.25,-206.14 86.22,-198.47 65.76,-186.85 51.97,-178.48"/>
<polygon fill="#63b8ff" stroke="#63b8ff" points="426.15,-207.53 431.21,-198.22 421.45,-202.34 426.15,-207.53"/>
</a>
</g>
</g>
<!-- Node22&#45;&gt;Node20 -->
<g id="edge31_Node000022_Node000020" class="edge">
<title>Node22&#45;&gt;Node20</title>
<g id="a_edge31_Node000022_Node000020"><a xlink:title=" ">
<path fill="none" stroke="#63b8ff" d="M393.46,-173.83C376.31,-169.16 357.31,-163.99 341.15,-159.59"/>
<polygon fill="#63b8ff" stroke="#63b8ff" points="392.28,-177.41 402.85,-176.65 394.12,-170.65 392.28,-177.41"/>
</a>
</g>
</g>
<!-- Node23&#45;&gt;Node14 -->
<g id="edge36_Node000023_Node000014" class="edge">
<title>Node23&#45;&gt;Node14</title>
<g id="a_edge36_Node000023_Node000014"><a xlink:title=" ">
<path fill="none" stroke="#63b8ff" d="M521.32,-87.44C452.22,-87.48 336.14,-93.8 244.25,-130.14 229.11,-136.12 192.14,-162.14 171.78,-176.87"/>
<polygon fill="#63b8ff" stroke="#63b8ff" points="520.98,-90.95 531,-87.49 521.01,-83.95 520.98,-90.95"/>
</a>
</g>
</g>
<!-- Node23&#45;&gt;Node19 -->
<g id="edge38_Node000023_Node000019" class="edge">
<title>Node23&#45;&gt;Node19</title>
<g id="a_edge38_Node000023_Node000019"><a xlink:title=" ">
<path fill="none" stroke="#63b8ff" d="M533.72,-109.9C511.5,-119.66 485.98,-130.87 467.92,-138.8"/>
<polygon fill="#63b8ff" stroke="#63b8ff" points="534.92,-112.76 542.67,-105.53 532.1,-106.35 534.92,-112.76"/>
</a>
</g>
</g>
<!-- Node23&#45;&gt;Node20 -->
<g id="edge33_Node000023_Node000020" class="edge">
<title>Node23&#45;&gt;Node20</title>
<g id="a_edge33_Node000023_Node000020"><a xlink:title=" ">
<path fill="none" stroke="#63b8ff" d="M521.41,-101.99C470.67,-112.93 398.68,-128.45 351.36,-138.66"/>
<polygon fill="#63b8ff" stroke="#63b8ff" points="521.86,-105.26 530.89,-99.73 520.38,-98.41 521.86,-105.26"/>
</a>
</g>
</g>
<!-- Node23&#45;&gt;Node21 -->
<g id="edge37_Node000023_Node000021" class="edge">
<title>Node23&#45;&gt;Node21</title>
<g id="a_edge37_Node000023_Node000021"><a xlink:title=" ">
<path fill="none" stroke="#63b8ff" d="M530.83,-69.16C518.19,-65.01 504.52,-61.26 491.5,-59.14 383.04,-41.45 347.71,-22.11 244.25,-59.14 210.23,-71.31 179.98,-103.28 165.98,-119.85"/>
<polygon fill="#63b8ff" stroke="#63b8ff" points="529.56,-72.77 540.16,-72.71 531.84,-66.15 529.56,-72.77"/>
</a>
</g>
</g>
<!-- Node24 -->
<g id="Node000024" class="node">
<title>Node24</title>
<g id="a_Node000024"><a xlink:href="../../db/d20/pugixml_8cpp.html#a8113621e64072a3ad2225574db0d5449" target="_top" xlink:title=" ">
<polygon fill="white" stroke="#666666" points="201.88,-64.14 111.62,-64.14 111.62,-44.14 201.88,-44.14 201.88,-64.14"/>
<text text-anchor="middle" x="156.75" y="-50.64" font-family="Helvetica,sans-Serif" font-size="10.00">node_output_end</text>
</a>
</g>
</g>
<!-- Node23&#45;&gt;Node24 -->
<g id="edge34_Node000023_Node000024" class="edge">
<title>Node23&#45;&gt;Node24</title>
<g id="a_edge34_Node000023_Node000024"><a xlink:title=" ">
<path fill="none" stroke="#63b8ff" d="M558.5,-65.3C541.76,-49.4 517.41,-29.86 491.5,-21.14 387.36,13.94 352.32,-1.22 244.25,-21.14 220.86,-25.45 195.6,-35.81 178.45,-43.78"/>
<polygon fill="#63b8ff" stroke="#63b8ff" points="555.5,-67.24 565.08,-71.76 560.4,-62.25 555.5,-67.24"/>
</a>
</g>
</g>
<!-- Node24&#45;&gt;Node15 -->
<g id="edge35_Node000024_Node000015" class="edge">
<title>Node24&#45;&gt;Node15</title>
<g id="a_edge35_Node000024_Node000015"><a xlink:title=" ">
<path fill="none" stroke="#63b8ff" d="M137.29,-71.66C111.89,-95.76 66.98,-138.38 46.43,-157.88"/>
<polygon fill="#63b8ff" stroke="#63b8ff" points="139.25,-74.68 144.09,-65.26 134.43,-69.6 139.25,-74.68"/>
</a>
</g>
</g>
<!-- Node25&#45;&gt;Node6 -->
<g id="edge40_Node000025_Node000006" class="edge">
<title>Node25&#45;&gt;Node6</title>
<g id="a_edge40_Node000025_Node000006"><a xlink:title=" ">
<path fill="none" stroke="#63b8ff" d="M941.71,-215.14C925.67,-215.14 909.05,-215.14 894.91,-215.14"/>
<polygon fill="#63b8ff" stroke="#63b8ff" points="941.68,-218.64 951.68,-215.14 941.68,-211.64 941.68,-218.64"/>
</a>
</g>
</g>
<!-- Node25&#45;&gt;Node7 -->
<g id="edge41_Node000025_Node000007" class="edge">
<title>Node25&#45;&gt;Node7</title>
<g id="a_edge41_Node000025_Node000007"><a xlink:title=" ">
<path fill="none" stroke="#63b8ff" d="M955.2,-228.32C936.86,-233.02 916.47,-238.25 899.14,-242.69"/>
<polygon fill="#63b8ff" stroke="#63b8ff" points="955.9,-231.5 964.72,-225.62 954.17,-224.72 955.9,-231.5"/>
</a>
</g>
</g>
</g>
</svg>
