<?xml version="1.0" encoding="UTF-8" standalone="no"?>
<!DOCTYPE svg PUBLIC "-//W3C//DTD SVG 1.1//EN"
 "http://www.w3.org/Graphics/SVG/1.1/DTD/svg11.dtd">
<!-- Generated by graphviz version 8.1.0 (20230707.0739)
 -->
<!-- Title: xpath_first Pages: 1 -->
<svg width="252pt" height="75pt"
 viewBox="0.00 0.00 251.75 75.00" xmlns="http://www.w3.org/2000/svg" xmlns:xlink="http://www.w3.org/1999/xlink">
<g id="graph0" class="graph" transform="scale(1 1) rotate(0) translate(4 71)">
<title>xpath_first</title>
<!-- Node1 -->
<g id="Node000001" class="node">
<title>Node1</title>
<g id="a_Node000001"><a xlink:title=" ">
<polygon fill="#999999" stroke="#666666" points="61,-48 0,-48 0,-28 61,-28 61,-48"/>
<text text-anchor="middle" x="30.5" y="-34.5" font-family="Helvetica,sans-Serif" font-size="10.00">xpath_first</text>
</a>
</g>
</g>
<!-- Node2 -->
<g id="Node000002" class="node">
<title>Node2</title>
<g id="a_Node000002"><a xlink:href="../../da/de4/ActorRegistry_8h.html#a8adba6c42fed3c86324a62968648d6a0" target="_top" xlink:title="名称范围迭代支持">
<polygon fill="white" stroke="#666666" points="243.75,-67 204.5,-67 204.5,-47 243.75,-47 243.75,-67"/>
<text text-anchor="middle" x="224.12" y="-53.5" font-family="Helvetica,sans-Serif" font-size="10.00">begin</text>
</a>
</g>
</g>
<!-- Node1&#45;&gt;Node2 -->
<g id="edge1_Node000001_Node000002" class="edge">
<title>Node1&#45;&gt;Node2</title>
<g id="a_edge1_Node000001_Node000002"><a xlink:title=" ">
<path fill="none" stroke="#63b8ff" d="M60.78,-48.41C71.96,-51.87 84.93,-55.28 97,-57 129.71,-61.65 167.68,-60.82 193.34,-59.35"/>
<polygon fill="#63b8ff" stroke="#63b8ff" points="193.45,-62.79 203.2,-58.65 193,-55.8 193.45,-62.79"/>
</a>
</g>
</g>
<!-- Node3 -->
<g id="Node000003" class="node">
<title>Node3</title>
<g id="a_Node000003"><a xlink:href="../../da/de4/ActorRegistry_8h.html#a10fc66af197e25cb554f58a721a473a3" target="_top" xlink:title=" ">
<polygon fill="white" stroke="#666666" points="240,-20 208.25,-20 208.25,0 240,0 240,-20"/>
<text text-anchor="middle" x="224.12" y="-6.5" font-family="Helvetica,sans-Serif" font-size="10.00">end</text>
</a>
</g>
</g>
<!-- Node1&#45;&gt;Node3 -->
<g id="edge2_Node000001_Node000003" class="edge">
<title>Node1&#45;&gt;Node3</title>
<g id="a_edge2_Node000001_Node000003"><a xlink:title=" ">
<path fill="none" stroke="#63b8ff" d="M61.18,-27.95C72.3,-24.57 85.11,-21.12 97,-19 131.29,-12.87 171.54,-10.88 197.18,-10.26"/>
<polygon fill="#63b8ff" stroke="#63b8ff" points="196.92,-13.74 206.85,-10.05 196.79,-6.74 196.92,-13.74"/>
</a>
</g>
</g>
<!-- Node4 -->
<g id="Node000004" class="node">
<title>Node4</title>
<g id="a_Node000004"><a xlink:href="../../db/d20/pugixml_8cpp.html#a37eb89acc08a977a8f07c737048f1082" target="_top" xlink:title=" ">
<polygon fill="white" stroke="#666666" points="168.5,-48 97,-48 97,-28 168.5,-28 168.5,-48"/>
<text text-anchor="middle" x="132.75" y="-34.5" font-family="Helvetica,sans-Serif" font-size="10.00">min_element</text>
</a>
</g>
</g>
<!-- Node1&#45;&gt;Node4 -->
<g id="edge3_Node000001_Node000004" class="edge">
<title>Node1&#45;&gt;Node4</title>
<g id="a_edge3_Node000001_Node000004"><a xlink:title=" ">
<path fill="none" stroke="#63b8ff" d="M61.31,-38C69.01,-38 77.49,-38 85.81,-38"/>
<polygon fill="#63b8ff" stroke="#63b8ff" points="85.58,-41.5 95.58,-38 85.58,-34.5 85.58,-41.5"/>
</a>
</g>
</g>
<!-- Node4&#45;&gt;Node2 -->
<g id="edge4_Node000004_Node000002" class="edge">
<title>Node4&#45;&gt;Node2</title>
<g id="a_edge4_Node000004_Node000002"><a xlink:title=" ">
<path fill="none" stroke="#63b8ff" d="M168.82,-45.45C176.99,-47.19 185.62,-49.03 193.53,-50.71"/>
<polygon fill="#63b8ff" stroke="#63b8ff" points="192.61,-54.3 203.12,-52.96 194.07,-47.46 192.61,-54.3"/>
</a>
</g>
</g>
<!-- Node4&#45;&gt;Node3 -->
<g id="edge5_Node000004_Node000003" class="edge">
<title>Node4&#45;&gt;Node3</title>
<g id="a_edge5_Node000004_Node000003"><a xlink:title=" ">
<path fill="none" stroke="#63b8ff" d="M167.03,-27.57C177.16,-24.4 188.13,-20.96 197.66,-17.98"/>
<polygon fill="#63b8ff" stroke="#63b8ff" points="198.55,-21.05 207.05,-14.72 196.46,-14.37 198.55,-21.05"/>
</a>
</g>
</g>
</g>
</svg>
