<?xml version="1.0" encoding="UTF-8" standalone="no"?>
<!DOCTYPE svg PUBLIC "-//W3C//DTD SVG 1.1//EN"
 "http://www.w3.org/Graphics/SVG/1.1/DTD/svg11.dtd">
<!-- Generated by graphviz version 8.1.0 (20230707.0739)
 -->
<!-- Title: load_stream_impl Pages: 1 -->
<svg width="607pt" height="218pt"
 viewBox="0.00 0.00 606.75 218.00" xmlns="http://www.w3.org/2000/svg" xmlns:xlink="http://www.w3.org/1999/xlink">
<g id="graph0" class="graph" transform="scale(1 1) rotate(0) translate(4 214)">
<title>load_stream_impl</title>
<!-- Node1 -->
<g id="Node000001" class="node">
<title>Node1</title>
<g id="a_Node000001"><a xlink:title=" ">
<polygon fill="#999999" stroke="#666666" points="92.5,-115 0,-115 0,-95 92.5,-95 92.5,-115"/>
<text text-anchor="middle" x="46.25" y="-101.5" font-family="Helvetica,sans-Serif" font-size="10.00">load_stream_impl</text>
</a>
</g>
</g>
<!-- Node2 -->
<g id="Node000002" class="node">
<title>Node2</title>
<g id="a_Node000002"><a xlink:href="../../db/d20/pugixml_8cpp.html#ae841fafba520d2341dc8386a6f825ac6" target="_top" xlink:title=" ">
<polygon fill="white" stroke="#666666" points="244.62,-172 142.38,-172 142.38,-152 244.62,-152 244.62,-172"/>
<text text-anchor="middle" x="193.5" y="-158.5" font-family="Helvetica,sans-Serif" font-size="10.00">get_buffer_encoding</text>
</a>
</g>
</g>
<!-- Node1&#45;&gt;Node2 -->
<g id="edge1_Node000001_Node000002" class="edge">
<title>Node1&#45;&gt;Node2</title>
<g id="a_edge1_Node000001_Node000002"><a xlink:title=" ">
<path fill="none" stroke="#63b8ff" d="M67.26,-115.38C83.49,-123.55 107.1,-134.87 128.5,-143 133.32,-144.83 138.41,-146.6 143.51,-148.28"/>
<polygon fill="#63b8ff" stroke="#63b8ff" points="142.36,-151.9 152.95,-151.57 144.46,-145.22 142.36,-151.9"/>
</a>
</g>
</g>
<!-- Node7 -->
<g id="Node000007" class="node">
<title>Node7</title>
<g id="a_Node000007"><a xlink:href="../../db/d20/pugixml_8cpp.html#a0d9bcb567b8ceb20206147857f03c187" target="_top" xlink:title=" ">
<polygon fill="white" stroke="#666666" points="236.38,-134 150.62,-134 150.62,-114 236.38,-114 236.38,-134"/>
<text text-anchor="middle" x="193.5" y="-120.5" font-family="Helvetica,sans-Serif" font-size="10.00">load_buffer_impl</text>
</a>
</g>
</g>
<!-- Node1&#45;&gt;Node7 -->
<g id="edge7_Node000001_Node000007" class="edge">
<title>Node1&#45;&gt;Node7</title>
<g id="a_edge7_Node000001_Node000007"><a xlink:title=" ">
<path fill="none" stroke="#63b8ff" d="M92.81,-110.96C107.82,-112.92 124.62,-115.12 140.1,-117.15"/>
<polygon fill="#63b8ff" stroke="#63b8ff" points="139.19,-120.69 149.56,-118.51 140.1,-113.75 139.19,-120.69"/>
</a>
</g>
</g>
<!-- Node8 -->
<g id="Node000008" class="node">
<title>Node8</title>
<g id="a_Node000008"><a xlink:href="../../db/d20/pugixml_8cpp.html#a9081c36df7470451a2a067677ee9e423" target="_top" xlink:title=" ">
<polygon fill="white" stroke="#666666" points="409.5,-96 311,-96 311,-76 409.5,-76 409.5,-96"/>
<text text-anchor="middle" x="360.25" y="-82.5" font-family="Helvetica,sans-Serif" font-size="10.00">make_parse_result</text>
</a>
</g>
</g>
<!-- Node1&#45;&gt;Node8 -->
<g id="edge14_Node000001_Node000008" class="edge">
<title>Node1&#45;&gt;Node8</title>
<g id="a_edge14_Node000001_Node000008"><a xlink:title=" ">
<path fill="none" stroke="#63b8ff" d="M92.95,-102.22C147.69,-98.88 239.51,-93.29 299.74,-89.62"/>
<polygon fill="#63b8ff" stroke="#63b8ff" points="299.83,-93.06 309.6,-88.96 299.4,-86.08 299.83,-93.06"/>
</a>
</g>
</g>
<!-- Node9 -->
<g id="Node000009" class="node">
<title>Node9</title>
<g id="a_Node000009"><a xlink:href="../../db/d20/pugixml_8cpp.html#a827b6edb9124c219970981a291543b0f" target="_top" xlink:title=" ">
<polygon fill="white" stroke="#666666" points="258.5,-58 128.5,-58 128.5,-38 258.5,-38 258.5,-58"/>
<text text-anchor="middle" x="193.5" y="-44.5" font-family="Helvetica,sans-Serif" font-size="10.00">load_stream_data_noseek</text>
</a>
</g>
</g>
<!-- Node1&#45;&gt;Node9 -->
<g id="edge9_Node000001_Node000009" class="edge">
<title>Node1&#45;&gt;Node9</title>
<g id="a_edge9_Node000001_Node000009"><a xlink:title=" ">
<path fill="none" stroke="#63b8ff" d="M72.43,-94.57C88.44,-87.98 109.64,-79.37 128.5,-72 136.66,-68.81 145.44,-65.47 153.8,-62.32"/>
<polygon fill="#63b8ff" stroke="#63b8ff" points="154.95,-65.25 163.08,-58.47 152.49,-58.7 154.95,-65.25"/>
</a>
</g>
</g>
<!-- Node12 -->
<g id="Node000012" class="node">
<title>Node12</title>
<g id="a_Node000012"><a xlink:href="../../db/d20/pugixml_8cpp.html#a342e4630ae5d483f0956c92fd6f0bd1d" target="_top" xlink:title=" ">
<polygon fill="white" stroke="#666666" points="253.25,-20 133.75,-20 133.75,0 253.25,0 253.25,-20"/>
<text text-anchor="middle" x="193.5" y="-6.5" font-family="Helvetica,sans-Serif" font-size="10.00">load_stream_data_seek</text>
</a>
</g>
</g>
<!-- Node1&#45;&gt;Node12 -->
<g id="edge12_Node000001_Node000012" class="edge">
<title>Node1&#45;&gt;Node12</title>
<g id="a_edge12_Node000001_Node000012"><a xlink:title=" ">
<path fill="none" stroke="#63b8ff" d="M55.6,-94.54C69.18,-78.2 97.66,-46.67 128.5,-29 131.37,-27.35 134.4,-25.84 137.52,-24.44"/>
<polygon fill="#63b8ff" stroke="#63b8ff" points="138.68,-27.35 146.67,-20.4 136.09,-20.85 138.68,-27.35"/>
</a>
</g>
</g>
<!-- Node14 -->
<g id="Node000014" class="node">
<title>Node14</title>
<g id="a_Node000014"><a xlink:href="../../db/d20/pugixml_8cpp.html#a2a34bcc0f03213bd1a9bb8a488682d3a" target="_top" xlink:title=" ">
<polygon fill="white" stroke="#666666" points="248,-210 139,-210 139,-190 248,-190 248,-210"/>
<text text-anchor="middle" x="193.5" y="-196.5" font-family="Helvetica,sans-Serif" font-size="10.00">zero_terminate_buffer</text>
</a>
</g>
</g>
<!-- Node1&#45;&gt;Node14 -->
<g id="edge15_Node000001_Node000014" class="edge">
<title>Node1&#45;&gt;Node14</title>
<g id="a_edge15_Node000001_Node000014"><a xlink:title=" ">
<path fill="none" stroke="#63b8ff" d="M55.6,-115.46C69.18,-131.8 97.66,-163.33 128.5,-181 131.37,-182.65 134.4,-184.16 137.52,-185.56"/>
<polygon fill="#63b8ff" stroke="#63b8ff" points="136.09,-189.15 146.67,-189.6 138.68,-182.65 136.09,-189.15"/>
</a>
</g>
</g>
<!-- Node3 -->
<g id="Node000003" class="node">
<title>Node3</title>
<g id="a_Node000003"><a xlink:href="../../db/d20/pugixml_8cpp.html#a1d386e9425e75d35b01373e46f186b9c" target="_top" xlink:title=" ">
<polygon fill="white" stroke="#666666" points="412.5,-210 308,-210 308,-190 412.5,-190 412.5,-210"/>
<text text-anchor="middle" x="360.25" y="-196.5" font-family="Helvetica,sans-Serif" font-size="10.00">get_wchar_encoding</text>
</a>
</g>
</g>
<!-- Node2&#45;&gt;Node3 -->
<g id="edge2_Node000002_Node000003" class="edge">
<title>Node2&#45;&gt;Node3</title>
<g id="a_edge2_Node000002_Node000003"><a xlink:title=" ">
<path fill="none" stroke="#63b8ff" d="M239.95,-172.48C259.58,-177.01 282.74,-182.35 303.4,-187.12"/>
<polygon fill="#63b8ff" stroke="#63b8ff" points="302.41,-190.71 312.94,-189.55 303.99,-183.89 302.41,-190.71"/>
</a>
</g>
</g>
<!-- Node4 -->
<g id="Node000004" class="node">
<title>Node4</title>
<g id="a_Node000004"><a xlink:href="../../db/d20/pugixml_8cpp.html#a282e2854710450f313ea03bb59a8f681" target="_top" xlink:title=" ">
<polygon fill="white" stroke="#666666" points="570.62,-191 490.12,-191 490.12,-171 570.62,-171 570.62,-191"/>
<text text-anchor="middle" x="530.38" y="-177.5" font-family="Helvetica,sans-Serif" font-size="10.00">is_little_endian</text>
</a>
</g>
</g>
<!-- Node2&#45;&gt;Node4 -->
<g id="edge6_Node000002_Node000004" class="edge">
<title>Node2&#45;&gt;Node4</title>
<g id="a_edge6_Node000002_Node000004"><a xlink:title=" ">
<path fill="none" stroke="#63b8ff" d="M245,-164.87C308.26,-168.45 415.99,-174.57 479.13,-178.15"/>
<polygon fill="#63b8ff" stroke="#63b8ff" points="478.82,-181.69 489,-178.77 479.22,-174.71 478.82,-181.69"/>
</a>
</g>
</g>
<!-- Node5 -->
<g id="Node000005" class="node">
<title>Node5</title>
<g id="a_Node000005"><a xlink:href="../../db/d20/pugixml_8cpp.html#a3d680d2e13dd3e0c073b58cab16fc535" target="_top" xlink:title=" ">
<polygon fill="white" stroke="#666666" points="417.75,-134 302.75,-134 302.75,-114 417.75,-114 417.75,-134"/>
<text text-anchor="middle" x="360.25" y="-120.5" font-family="Helvetica,sans-Serif" font-size="10.00">guess_buffer_encoding</text>
</a>
</g>
</g>
<!-- Node2&#45;&gt;Node5 -->
<g id="edge4_Node000002_Node000005" class="edge">
<title>Node2&#45;&gt;Node5</title>
<g id="a_edge4_Node000002_Node000005"><a xlink:title=" ">
<path fill="none" stroke="#63b8ff" d="M239.95,-151.52C259.58,-146.99 282.74,-141.65 303.4,-136.88"/>
<polygon fill="#63b8ff" stroke="#63b8ff" points="303.99,-140.11 312.94,-134.45 302.41,-133.29 303.99,-140.11"/>
</a>
</g>
</g>
<!-- Node3&#45;&gt;Node4 -->
<g id="edge3_Node000003_Node000004" class="edge">
<title>Node3&#45;&gt;Node4</title>
<g id="a_edge3_Node000003_Node000004"><a xlink:title=" ">
<path fill="none" stroke="#63b8ff" d="M412.61,-194.2C433.74,-191.81 458.14,-189.05 479.16,-186.68"/>
<polygon fill="#63b8ff" stroke="#63b8ff" points="479.26,-190.07 488.8,-185.47 478.47,-183.12 479.26,-190.07"/>
</a>
</g>
</g>
<!-- Node6 -->
<g id="Node000006" class="node">
<title>Node6</title>
<g id="a_Node000006"><a xlink:href="../../db/d20/pugixml_8cpp.html#a79d1bc216fc42e9d8749ac22361e9850" target="_top" xlink:title=" ">
<polygon fill="white" stroke="#666666" points="598.75,-134 462,-134 462,-114 598.75,-114 598.75,-134"/>
<text text-anchor="middle" x="530.38" y="-120.5" font-family="Helvetica,sans-Serif" font-size="10.00">parse_declaration_encoding</text>
</a>
</g>
</g>
<!-- Node5&#45;&gt;Node6 -->
<g id="edge5_Node000005_Node000006" class="edge">
<title>Node5&#45;&gt;Node6</title>
<g id="a_edge5_Node000005_Node000006"><a xlink:title=" ">
<path fill="none" stroke="#63b8ff" d="M418.17,-124C428.67,-124 439.81,-124 450.82,-124"/>
<polygon fill="#63b8ff" stroke="#63b8ff" points="450.76,-127.5 460.76,-124 450.76,-120.5 450.76,-127.5"/>
</a>
</g>
</g>
<!-- Node7&#45;&gt;Node8 -->
<g id="edge8_Node000007_Node000008" class="edge">
<title>Node7&#45;&gt;Node8</title>
<g id="a_edge8_Node000007_Node000008"><a xlink:title=" ">
<path fill="none" stroke="#63b8ff" d="M236.5,-114.31C256.82,-109.63 281.49,-103.94 303.37,-98.89"/>
<polygon fill="#63b8ff" stroke="#63b8ff" points="303.9,-102.13 312.86,-96.47 302.33,-95.31 303.9,-102.13"/>
</a>
</g>
</g>
<!-- Node10 -->
<g id="Node000010" class="node">
<title>Node10</title>
<g id="a_Node000010"><a xlink:href="../../dc/d16/structxml__stream__chunk.html#a2c01c25f2791d25214d3c73fae63f8d9" target="_top" xlink:title=" ">
<polygon fill="white" stroke="#666666" points="426,-58 294.5,-58 294.5,-38 426,-38 426,-58"/>
<text text-anchor="middle" x="360.25" y="-44.5" font-family="Helvetica,sans-Serif" font-size="10.00">xml_stream_chunk::create</text>
</a>
</g>
</g>
<!-- Node9&#45;&gt;Node10 -->
<g id="edge10_Node000009_Node000010" class="edge">
<title>Node9&#45;&gt;Node10</title>
<g id="a_edge10_Node000009_Node000010"><a xlink:title=" ">
<path fill="none" stroke="#63b8ff" d="M258.67,-48C266.77,-48 275.12,-48 283.39,-48"/>
<polygon fill="#63b8ff" stroke="#63b8ff" points="283.17,-51.5 293.17,-48 283.17,-44.5 283.17,-51.5"/>
</a>
</g>
</g>
<!-- Node11 -->
<g id="Node000011" class="node">
<title>Node11</title>
<g id="a_Node000011"><a xlink:href="../../dc/d16/structxml__stream__chunk.html#a8b87fcb2074014dd252f752a95092337" target="_top" xlink:title=" ">
<polygon fill="white" stroke="#666666" points="590.5,-64 470.25,-64 470.25,-32 590.5,-32 590.5,-64"/>
<text text-anchor="start" x="478.25" y="-50.5" font-family="Helvetica,sans-Serif" font-size="10.00">xml_stream_chunk::xml</text>
<text text-anchor="middle" x="530.38" y="-38.5" font-family="Helvetica,sans-Serif" font-size="10.00">_stream_chunk</text>
</a>
</g>
</g>
<!-- Node10&#45;&gt;Node11 -->
<g id="edge11_Node000010_Node000011" class="edge">
<title>Node10&#45;&gt;Node11</title>
<g id="a_edge11_Node000010_Node000011"><a xlink:title=" ">
<path fill="none" stroke="#63b8ff" d="M426.25,-48C436.99,-48 448.17,-48 459.04,-48"/>
<polygon fill="#63b8ff" stroke="#63b8ff" points="458.77,-51.5 468.77,-48 458.77,-44.5 458.77,-51.5"/>
</a>
</g>
</g>
<!-- Node13 -->
<g id="Node000013" class="node">
<title>Node13</title>
<g id="a_Node000013"><a xlink:href="../../d6/d78/structauto__deleter.html#a6c02cf0240e922064cbf4672bb4363ce" target="_top" xlink:title=" ">
<polygon fill="white" stroke="#666666" points="413.62,-20 306.88,-20 306.88,0 413.62,0 413.62,-20"/>
<text text-anchor="middle" x="360.25" y="-6.5" font-family="Helvetica,sans-Serif" font-size="10.00">auto_deleter::release</text>
</a>
</g>
</g>
<!-- Node12&#45;&gt;Node13 -->
<g id="edge13_Node000012_Node000013" class="edge">
<title>Node12&#45;&gt;Node13</title>
<g id="a_edge13_Node000012_Node000013"><a xlink:title=" ">
<path fill="none" stroke="#63b8ff" d="M253.51,-10C267.14,-10 281.69,-10 295.51,-10"/>
<polygon fill="#63b8ff" stroke="#63b8ff" points="295.4,-13.5 305.4,-10 295.4,-6.5 295.4,-13.5"/>
</a>
</g>
</g>
<!-- Node14&#45;&gt;Node3 -->
<g id="edge16_Node000014_Node000003" class="edge">
<title>Node14&#45;&gt;Node3</title>
<g id="a_edge16_Node000014_Node000003"><a xlink:title=" ">
<path fill="none" stroke="#63b8ff" d="M248.45,-200C263.92,-200 280.93,-200 296.87,-200"/>
<polygon fill="#63b8ff" stroke="#63b8ff" points="296.7,-203.5 306.7,-200 296.7,-196.5 296.7,-203.5"/>
</a>
</g>
</g>
</g>
</svg>
