<?xml version="1.0" encoding="UTF-8" standalone="no"?>
<!DOCTYPE svg PUBLIC "-//W3C//DTD SVG 1.1//EN"
 "http://www.w3.org/Graphics/SVG/1.1/DTD/svg11.dtd">
<!-- Generated by graphviz version 8.1.0 (20230707.0739)
 -->
<!-- Title: node_output_attributes Pages: 1 -->
<svg width="367pt" height="66pt"
 viewBox="0.00 0.00 367.25 66.00" xmlns="http://www.w3.org/2000/svg" xmlns:xlink="http://www.w3.org/1999/xlink">

<svg id="main" version="1.1" xmlns="http://www.w3.org/2000/svg" xmlns:xlink="http://www.w3.org/1999/xlink" xml:space="preserve" onload="init(evt)">
<style type="text/css"><![CDATA[
.node, .edge {opacity: 0.7;}
.node.selected, .edge.selected {opacity: 1;}
.edge:hover path { stroke: red; }
.edge:hover polygon { stroke: red; fill: red; }
]]></style>
<script type="application/ecmascript" xlink:href="../../svg.min.js"/>
<svg id="graph" class="graph">
<g id="graph0" class="graph" transform="scale(1 1) rotate(0) translate(4 62)">
<title>node_output_attributes</title>
<!-- Node1 -->
<g id="Node000001" class="node">
<title>Node1</title>
<g id="a_Node000001"><a xlink:title=" ">
<polygon fill="#999999" stroke="#666666" points="359.25,-39 244.25,-39 244.25,-19 359.25,-19 359.25,-39"/>
<text text-anchor="middle" x="301.75" y="-25.5" font-family="Helvetica,sans-Serif" font-size="10.00">node_output_attributes</text>
</a>
</g>
</g>
<!-- Node2 -->
<g id="Node000002" class="node">
<title>Node2</title>
<g id="a_Node000002"><a xlink:href="../../db/d20/pugixml_8cpp.html#a2a7a7ce70701692e97923c850b3cc130" target="_top" xlink:title=" ">
<polygon fill="white" stroke="#666666" points="208.25,-58 105.25,-58 105.25,-38 208.25,-38 208.25,-58"/>
<text text-anchor="middle" x="156.75" y="-44.5" font-family="Helvetica,sans-Serif" font-size="10.00">node_output_simple</text>
</a>
</g>
</g>
<!-- Node1&#45;&gt;Node2 -->
<g id="edge1_Node000001_Node000002" class="edge">
<title>Node1&#45;&gt;Node2</title>
<g id="a_edge1_Node000001_Node000002"><a xlink:title=" ">
<path fill="none" stroke="#63b8ff" d="M233.03,-38C224.76,-39.1 216.43,-40.2 208.47,-41.26"/>
<polygon fill="#63b8ff" stroke="#63b8ff" points="233.37,-41.35 242.82,-36.56 232.45,-34.41 233.37,-41.35"/>
</a>
</g>
</g>
<!-- Node4 -->
<g id="Node000004" class="node">
<title>Node4</title>
<g id="a_Node000004"><a xlink:href="../../db/d20/pugixml_8cpp.html#abe15f1e5861695b34b8581805703d03a" target="_top" xlink:title=" ">
<polygon fill="white" stroke="#666666" points="203.75,-20 109.75,-20 109.75,0 203.75,0 203.75,-20"/>
<text text-anchor="middle" x="156.75" y="-6.5" font-family="Helvetica,sans-Serif" font-size="10.00">node_output_start</text>
</a>
</g>
</g>
<!-- Node1&#45;&gt;Node4 -->
<g id="edge3_Node000001_Node000004" class="edge">
<title>Node1&#45;&gt;Node4</title>
<g id="a_edge3_Node000001_Node000004"><a xlink:title=" ">
<path fill="none" stroke="#63b8ff" d="M233.16,-20.02C223.26,-18.7 213.27,-17.38 203.93,-16.14"/>
<polygon fill="#63b8ff" stroke="#63b8ff" points="232.45,-23.59 242.82,-21.44 233.37,-16.65 232.45,-23.59"/>
</a>
</g>
</g>
<!-- Node3 -->
<g id="Node000003" class="node">
<title>Node3</title>
<g id="a_Node000003"><a xlink:href="../../db/d20/pugixml_8cpp.html#a2972dfcdf48725e48ce2901d08f7b4ae" target="_top" xlink:title=" ">
<polygon fill="white" stroke="#666666" points="69.25,-39 0,-39 0,-19 69.25,-19 69.25,-39"/>
<text text-anchor="middle" x="34.62" y="-25.5" font-family="Helvetica,sans-Serif" font-size="10.00">node_output</text>
</a>
</g>
</g>
<!-- Node2&#45;&gt;Node3 -->
<g id="edge2_Node000002_Node000003" class="edge">
<title>Node2&#45;&gt;Node3</title>
<g id="a_edge2_Node000002_Node000003"><a xlink:title=" ">
<path fill="none" stroke="#63b8ff" d="M94.13,-38.25C85.69,-36.92 77.28,-35.59 69.58,-34.37"/>
<polygon fill="#63b8ff" stroke="#63b8ff" points="93.38,-41.84 103.81,-39.94 94.48,-34.92 93.38,-41.84"/>
</a>
</g>
</g>
<!-- Node4&#45;&gt;Node3 -->
<g id="edge4_Node000004_Node000003" class="edge">
<title>Node4&#45;&gt;Node3</title>
<g id="a_edge4_Node000004_Node000003"><a xlink:title=" ">
<path fill="none" stroke="#63b8ff" d="M98.64,-19.03C88.72,-20.6 78.7,-22.19 69.65,-23.62"/>
<polygon fill="#63b8ff" stroke="#63b8ff" points="98.98,-22.37 108.31,-17.35 97.88,-15.45 98.98,-22.37"/>
</a>
</g>
</g>
</g>
</svg>
</svg>

<style type='text/css'>
<![CDATA[
[data-mouse-over-selected='false'] { opacity: 0.7; }
[data-mouse-over-selected='true']  { opacity: 1.0; }
]]>
</style>
<script type="application/ecmascript"><![CDATA[
document.addEventListener('DOMContentLoaded', (event) => {
  highlightEdges();
  highlightAdjacentNodes();
});
]]></script>
</svg>
