<?xml version="1.0" encoding="UTF-8" standalone="no"?>
<!DOCTYPE svg PUBLIC "-//W3C//DTD SVG 1.1//EN"
 "http://www.w3.org/Graphics/SVG/1.1/DTD/svg11.dtd">
<!-- Generated by graphviz version 8.1.0 (20230707.0739)
 -->
<!-- Title: convert_number_to_mantissa_exponent Pages: 1 -->
<svg width="343pt" height="66pt"
 viewBox="0.00 0.00 342.50 66.00" xmlns="http://www.w3.org/2000/svg" xmlns:xlink="http://www.w3.org/1999/xlink">
<g id="graph0" class="graph" transform="scale(1 1) rotate(0) translate(4 62)">
<title>convert_number_to_mantissa_exponent</title>
<!-- Node1 -->
<g id="Node000001" class="node">
<title>Node1</title>
<g id="a_Node000001"><a xlink:title=" ">
<polygon fill="#999999" stroke="#666666" points="142.75,-45 0,-45 0,-13 142.75,-13 142.75,-45"/>
<text text-anchor="start" x="8" y="-31.5" font-family="Helvetica,sans-Serif" font-size="10.00">convert_number_to_mantissa</text>
<text text-anchor="middle" x="71.38" y="-19.5" font-family="Helvetica,sans-Serif" font-size="10.00">_exponent</text>
</a>
</g>
</g>
<!-- Node2 -->
<g id="Node000002" class="node">
<title>Node2</title>
<g id="a_Node000002"><a xlink:href="../../db/d20/pugixml_8cpp.html#ae4e5418ba6b9fb37fd27eb89a00de148" target="_top" xlink:title=" ">
<polygon fill="white" stroke="#666666" points="259.25,-39 178.75,-39 178.75,-19 259.25,-19 259.25,-39"/>
<text text-anchor="middle" x="219" y="-25.5" font-family="Helvetica,sans-Serif" font-size="10.00">truncate_zeros</text>
</a>
</g>
</g>
<!-- Node1&#45;&gt;Node2 -->
<g id="edge1_Node000001_Node000002" class="edge">
<title>Node1&#45;&gt;Node2</title>
<g id="a_edge1_Node000001_Node000002"><a xlink:title=" ">
<path fill="none" stroke="#63b8ff" d="M143.05,-29C151.33,-29 159.64,-29 167.56,-29"/>
<polygon fill="#63b8ff" stroke="#63b8ff" points="167.45,-32.5 177.45,-29 167.45,-25.5 167.45,-32.5"/>
</a>
</g>
</g>
<!-- Node3 -->
<g id="Node000003" class="node">
<title>Node3</title>
<g id="a_Node000003"><a xlink:href="../../da/de4/ActorRegistry_8h.html#a8adba6c42fed3c86324a62968648d6a0" target="_top" xlink:title="名称范围迭代支持">
<polygon fill="white" stroke="#666666" points="334.5,-58 295.25,-58 295.25,-38 334.5,-38 334.5,-58"/>
<text text-anchor="middle" x="314.88" y="-44.5" font-family="Helvetica,sans-Serif" font-size="10.00">begin</text>
</a>
</g>
</g>
<!-- Node2&#45;&gt;Node3 -->
<g id="edge2_Node000002_Node000003" class="edge">
<title>Node2&#45;&gt;Node3</title>
<g id="a_edge2_Node000002_Node000003"><a xlink:title=" ">
<path fill="none" stroke="#63b8ff" d="M259.54,-37C267.75,-38.67 276.28,-40.39 284.07,-41.97"/>
<polygon fill="#63b8ff" stroke="#63b8ff" points="283.35,-45.6 293.85,-44.15 284.74,-38.73 283.35,-45.6"/>
</a>
</g>
</g>
<!-- Node4 -->
<g id="Node000004" class="node">
<title>Node4</title>
<g id="a_Node000004"><a xlink:href="../../da/de4/ActorRegistry_8h.html#a10fc66af197e25cb554f58a721a473a3" target="_top" xlink:title=" ">
<polygon fill="white" stroke="#666666" points="330.75,-20 299,-20 299,0 330.75,0 330.75,-20"/>
<text text-anchor="middle" x="314.88" y="-6.5" font-family="Helvetica,sans-Serif" font-size="10.00">end</text>
</a>
</g>
</g>
<!-- Node2&#45;&gt;Node4 -->
<g id="edge3_Node000002_Node000004" class="edge">
<title>Node2&#45;&gt;Node4</title>
<g id="a_edge3_Node000002_Node000004"><a xlink:title=" ">
<path fill="none" stroke="#63b8ff" d="M259.54,-21C269.16,-19.05 279.2,-17.02 287.99,-15.24"/>
<polygon fill="#63b8ff" stroke="#63b8ff" points="288.59,-18.49 297.7,-13.07 287.2,-11.62 288.59,-18.49"/>
</a>
</g>
</g>
</g>
</svg>
