<?xml version="1.0" encoding="UTF-8" standalone="no"?>
<!DOCTYPE svg PUBLIC "-//W3C//DTD SVG 1.1//EN"
 "http://www.w3.org/Graphics/SVG/1.1/DTD/svg11.dtd">
<!-- Generated by graphviz version 8.1.0 (20230707.0739)
 -->
<!-- Title: CarlaReplayer::ProcessDoorVehicle Pages: 1 -->
<svg width="496pt" height="112pt"
 viewBox="0.00 0.00 495.50 112.00" xmlns="http://www.w3.org/2000/svg" xmlns:xlink="http://www.w3.org/1999/xlink">
<g id="graph0" class="graph" transform="scale(1 1) rotate(0) translate(4 108)">
<title>CarlaReplayer::ProcessDoorVehicle</title>
<!-- Node1 -->
<g id="Node000001" class="node">
<title>Node1</title>
<g id="a_Node000001"><a xlink:title=" ">
<polygon fill="#999999" stroke="#666666" points="139,-57 0,-57 0,-25 139,-25 139,-57"/>
<text text-anchor="start" x="8" y="-43.5" font-family="Helvetica,sans-Serif" font-size="10.00">CarlaReplayer::ProcessDoor</text>
<text text-anchor="middle" x="69.5" y="-31.5" font-family="Helvetica,sans-Serif" font-size="10.00">Vehicle</text>
</a>
</g>
</g>
<!-- Node2 -->
<g id="Node000002" class="node">
<title>Node2</title>
<g id="a_Node000002"><a xlink:href="../../d8/d27/classCarlaReplayerHelper.html#a716a5cb1f1f6b65f5953407da4b9bb1a" target="_top" xlink:title=" ">
<polygon fill="white" stroke="#666666" points="323.75,-82 175,-82 175,-50 323.75,-50 323.75,-82"/>
<text text-anchor="start" x="183" y="-68.5" font-family="Helvetica,sans-Serif" font-size="10.00">CarlaReplayerHelper</text>
<text text-anchor="middle" x="249.38" y="-56.5" font-family="Helvetica,sans-Serif" font-size="10.00">::ProcessReplayerDoorVehicle</text>
</a>
</g>
</g>
<!-- Node1&#45;&gt;Node2 -->
<g id="edge1_Node000001_Node000002" class="edge">
<title>Node1&#45;&gt;Node2</title>
<g id="a_edge1_Node000001_Node000002"><a xlink:title=" ">
<path fill="none" stroke="#63b8ff" d="M139.27,-50.67C147.36,-51.8 155.68,-52.97 163.96,-54.14"/>
<polygon fill="#63b8ff" stroke="#63b8ff" points="163.39,-57.73 173.78,-55.66 164.36,-50.8 163.39,-57.73"/>
</a>
</g>
</g>
<!-- Node5 -->
<g id="Node000005" class="node">
<title>Node5</title>
<g id="a_Node000005"><a xlink:href="../../dd/d8d/structCarlaRecorderDoorVehicle.html#aa9392010b8d18ea30dbfd97dd6359f64" target="_top" xlink:title=" ">
<polygon fill="white" stroke="#666666" points="314.38,-32 184.38,-32 184.38,0 314.38,0 314.38,-32"/>
<text text-anchor="start" x="192.38" y="-18.5" font-family="Helvetica,sans-Serif" font-size="10.00">CarlaRecorderDoorVehicle</text>
<text text-anchor="middle" x="249.38" y="-6.5" font-family="Helvetica,sans-Serif" font-size="10.00">::Read</text>
</a>
</g>
</g>
<!-- Node1&#45;&gt;Node5 -->
<g id="edge4_Node000001_Node000005" class="edge">
<title>Node1&#45;&gt;Node5</title>
<g id="a_edge4_Node000001_Node000005"><a xlink:title=" ">
<path fill="none" stroke="#63b8ff" d="M139.27,-31.33C150.46,-29.76 162.09,-28.13 173.42,-26.53"/>
<polygon fill="#63b8ff" stroke="#63b8ff" points="173.74,-29.88 183.16,-25.03 172.77,-22.95 173.74,-29.88"/>
</a>
</g>
</g>
<!-- Node3 -->
<g id="Node000003" class="node">
<title>Node3</title>
<g id="a_Node000003"><a xlink:href="../../dc/d84/classUCarlaEpisode.html#a4d0c7a09f4d9de8110605e10125a93aa" target="_top" xlink:title="Find a Carla actor by id.">
<polygon fill="white" stroke="#666666" points="487.5,-104 359.75,-104 359.75,-72 487.5,-72 487.5,-104"/>
<text text-anchor="start" x="367.75" y="-90.5" font-family="Helvetica,sans-Serif" font-size="10.00">UCarlaEpisode::FindCarla</text>
<text text-anchor="middle" x="423.62" y="-78.5" font-family="Helvetica,sans-Serif" font-size="10.00">Actor</text>
</a>
</g>
</g>
<!-- Node2&#45;&gt;Node3 -->
<g id="edge2_Node000002_Node000003" class="edge">
<title>Node2&#45;&gt;Node3</title>
<g id="a_edge2_Node000002_Node000003"><a xlink:title=" ">
<path fill="none" stroke="#63b8ff" d="M323.92,-75.39C332.13,-76.44 340.48,-77.51 348.69,-78.56"/>
<polygon fill="#63b8ff" stroke="#63b8ff" points="348,-82.13 358.37,-79.92 348.89,-75.18 348,-82.13"/>
</a>
</g>
</g>
<!-- Node4 -->
<g id="Node000004" class="node">
<title>Node4</title>
<g id="a_Node000004"><a xlink:href="../../dc/dde/classFCarlaActor.html#a4d2752987e47827efd488b90053ad415" target="_top" xlink:title=" ">
<polygon fill="white" stroke="#666666" points="480,-54 367.25,-54 367.25,-34 480,-34 480,-54"/>
<text text-anchor="middle" x="423.62" y="-40.5" font-family="Helvetica,sans-Serif" font-size="10.00">FCarlaActor::GetActor</text>
</a>
</g>
</g>
<!-- Node2&#45;&gt;Node4 -->
<g id="edge3_Node000002_Node000004" class="edge">
<title>Node2&#45;&gt;Node4</title>
<g id="a_edge3_Node000002_Node000004"><a xlink:title=" ">
<path fill="none" stroke="#63b8ff" d="M323.92,-56.61C334.58,-55.25 345.5,-53.85 356,-52.51"/>
<polygon fill="#63b8ff" stroke="#63b8ff" points="356.3,-55.87 365.78,-51.13 355.42,-48.93 356.3,-55.87"/>
</a>
</g>
</g>
</g>
</svg>
