<?xml version="1.0" encoding="UTF-8" standalone="no"?>
<!DOCTYPE svg PUBLIC "-//W3C//DTD SVG 1.1//EN"
 "http://www.w3.org/Graphics/SVG/1.1/DTD/svg11.dtd">
<!-- Generated by graphviz version 8.1.0 (20230707.0739)
 -->
<!-- Title: FActorData::RespawnActor Pages: 1 -->
<svg width="502pt" height="84pt"
 viewBox="0.00 0.00 501.50 84.00" xmlns="http://www.w3.org/2000/svg" xmlns:xlink="http://www.w3.org/1999/xlink">
<g id="graph0" class="graph" transform="scale(1 1) rotate(0) translate(4 80)">
<title>FActorData::RespawnActor</title>
<!-- Node1 -->
<g id="Node000001" class="node">
<title>Node1</title>
<g id="a_Node000001"><a xlink:title=" ">
<polygon fill="#999999" stroke="#666666" points="134.5,-48 0,-48 0,-28 134.5,-28 134.5,-48"/>
<text text-anchor="middle" x="67.25" y="-34.5" font-family="Helvetica,sans-Serif" font-size="10.00">FActorData::RespawnActor</text>
</a>
</g>
</g>
<!-- Node2 -->
<g id="Node000002" class="node">
<title>Node2</title>
<g id="a_Node000002"><a xlink:href="../../dd/d67/classFActorData.html#ae20fceca0d39d508b767b8694e43a53b" target="_top" xlink:title=" ">
<polygon fill="white" stroke="#666666" points="323.75,-70 170.5,-70 170.5,-50 323.75,-50 323.75,-70"/>
<text text-anchor="middle" x="247.12" y="-56.5" font-family="Helvetica,sans-Serif" font-size="10.00">FActorData::GetLocalTransform</text>
</a>
</g>
</g>
<!-- Node1&#45;&gt;Node2 -->
<g id="edge1_Node000001_Node000002" class="edge">
<title>Node1&#45;&gt;Node2</title>
<g id="a_edge1_Node000001_Node000002"><a xlink:title=" ">
<path fill="none" stroke="#63b8ff" d="M134.99,-46.25C142.94,-47.24 151.15,-48.25 159.32,-49.26"/>
<polygon fill="#63b8ff" stroke="#63b8ff" points="158.69,-52.84 169.04,-50.59 159.55,-45.89 158.69,-52.84"/>
</a>
</g>
</g>
<!-- Node4 -->
<g id="Node000004" class="node">
<title>Node4</title>
<g id="a_Node000004"><a xlink:href="../../dc/d84/classUCarlaEpisode.html#aaa6840abc9b55004794c726aacf2f4ed" target="_top" xlink:title="Spawns an actor based on ActorDescription at Transform.">
<polygon fill="white" stroke="#666666" points="322.62,-32 171.62,-32 171.62,0 322.62,0 322.62,-32"/>
<text text-anchor="start" x="179.62" y="-18.5" font-family="Helvetica,sans-Serif" font-size="10.00">UCarlaEpisode::ReSpawnActor</text>
<text text-anchor="middle" x="247.12" y="-6.5" font-family="Helvetica,sans-Serif" font-size="10.00">WithInfo</text>
</a>
</g>
</g>
<!-- Node1&#45;&gt;Node4 -->
<g id="edge3_Node000001_Node000004" class="edge">
<title>Node1&#45;&gt;Node4</title>
<g id="a_edge3_Node000001_Node000004"><a xlink:title=" ">
<path fill="none" stroke="#63b8ff" d="M134.99,-29.75C143.31,-28.72 151.9,-27.65 160.46,-26.6"/>
<polygon fill="#63b8ff" stroke="#63b8ff" points="160.75,-29.96 170.25,-25.26 159.89,-23.02 160.75,-29.96"/>
</a>
</g>
</g>
<!-- Node3 -->
<g id="Node000003" class="node">
<title>Node3</title>
<g id="a_Node000003"><a xlink:href="../../dc/d84/classUCarlaEpisode.html#a079f3aace58f935aea59e0a6a1c7cda7" target="_top" xlink:title=" ">
<polygon fill="white" stroke="#666666" points="493.5,-76 359.75,-76 359.75,-44 493.5,-44 493.5,-76"/>
<text text-anchor="start" x="367.75" y="-62.5" font-family="Helvetica,sans-Serif" font-size="10.00">UCarlaEpisode::GetCurrent</text>
<text text-anchor="middle" x="426.62" y="-50.5" font-family="Helvetica,sans-Serif" font-size="10.00">MapOrigin</text>
</a>
</g>
</g>
<!-- Node2&#45;&gt;Node3 -->
<g id="edge2_Node000002_Node000003" class="edge">
<title>Node2&#45;&gt;Node3</title>
<g id="a_edge2_Node000002_Node000003"><a xlink:title=" ">
<path fill="none" stroke="#63b8ff" d="M324.17,-60C332.26,-60 340.49,-60 348.59,-60"/>
<polygon fill="#63b8ff" stroke="#63b8ff" points="348.52,-63.5 358.52,-60 348.52,-56.5 348.52,-63.5"/>
</a>
</g>
</g>
</g>
</svg>
