<?xml version="1.0" encoding="UTF-8" standalone="no"?>
<!DOCTYPE svg PUBLIC "-//W3C//DTD SVG 1.1//EN"
 "http://www.w3.org/Graphics/SVG/1.1/DTD/svg11.dtd">
<!-- Generated by graphviz version 8.1.0 (20230707.0739)
 -->
<!-- Title: FActorData::GetLocalTransform Pages: 1 -->
<svg width="540pt" height="216pt"
 viewBox="0.00 0.00 539.75 216.00" xmlns="http://www.w3.org/2000/svg" xmlns:xlink="http://www.w3.org/1999/xlink">
<g id="graph0" class="graph" transform="scale(1 1) rotate(0) translate(4 212)">
<title>FActorData::GetLocalTransform</title>
<!-- Node1 -->
<g id="Node000001" class="node">
<title>Node1</title>
<g id="a_Node000001"><a xlink:title=" ">
<polygon fill="#999999" stroke="#666666" points="531.75,-139 378.5,-139 378.5,-119 531.75,-119 531.75,-139"/>
<text text-anchor="middle" x="455.12" y="-125.5" font-family="Helvetica,sans-Serif" font-size="10.00">FActorData::GetLocalTransform</text>
</a>
</g>
</g>
<!-- Node2 -->
<g id="Node000002" class="node">
<title>Node2</title>
<g id="a_Node000002"><a xlink:href="../../dd/d67/classFActorData.html#a3deed0136360e782a9f0d43996164415" target="_top" xlink:title=" ">
<polygon fill="white" stroke="#666666" points="335.38,-208 200.88,-208 200.88,-188 335.38,-188 335.38,-208"/>
<text text-anchor="middle" x="268.12" y="-194.5" font-family="Helvetica,sans-Serif" font-size="10.00">FActorData::RespawnActor</text>
</a>
</g>
</g>
<!-- Node1&#45;&gt;Node2 -->
<g id="edge1_Node000001_Node000002" class="edge">
<title>Node1&#45;&gt;Node2</title>
<g id="a_edge1_Node000001_Node000002"><a xlink:title=" ">
<path fill="none" stroke="#63b8ff" d="M423.76,-144.27C401.62,-154.99 370.7,-169.11 342.5,-179 333.56,-182.14 323.84,-185.01 314.5,-187.52"/>
<polygon fill="#63b8ff" stroke="#63b8ff" points="425.12,-147.01 432.57,-139.47 422.05,-140.72 425.12,-147.01"/>
</a>
</g>
</g>
<!-- Node3 -->
<g id="Node000003" class="node">
<title>Node3</title>
<g id="a_Node000003"><a xlink:href="../../dc/d36/classFTrafficSignData.html#aa737cba78f0ed83806ba866a25d8149a" target="_top" xlink:title=" ">
<polygon fill="white" stroke="#666666" points="334.62,-170 201.62,-170 201.62,-138 334.62,-138 334.62,-170"/>
<text text-anchor="start" x="209.62" y="-156.5" font-family="Helvetica,sans-Serif" font-size="10.00">FTrafficSignData::Respawn</text>
<text text-anchor="middle" x="268.12" y="-144.5" font-family="Helvetica,sans-Serif" font-size="10.00">Actor</text>
</a>
</g>
</g>
<!-- Node1&#45;&gt;Node3 -->
<g id="edge2_Node000001_Node000003" class="edge">
<title>Node1&#45;&gt;Node3</title>
<g id="a_edge2_Node000001_Node000003"><a xlink:title=" ">
<path fill="none" stroke="#63b8ff" d="M367.31,-140.73C356.49,-142.19 345.56,-143.67 335.12,-145.08"/>
<polygon fill="#63b8ff" stroke="#63b8ff" points="367.64,-144.08 377.08,-139.28 366.7,-137.15 367.64,-144.08"/>
</a>
</g>
</g>
<!-- Node4 -->
<g id="Node000004" class="node">
<title>Node4</title>
<g id="a_Node000004"><a xlink:href="../../d5/d59/classFTrafficLightData.html#af2ba998551c66668ea3a18d57032cc4f" target="_top" xlink:title=" ">
<polygon fill="white" stroke="#666666" points="315.5,-120 220.75,-120 220.75,-88 315.5,-88 315.5,-120"/>
<text text-anchor="start" x="228.75" y="-106.5" font-family="Helvetica,sans-Serif" font-size="10.00">FTrafficLightData::</text>
<text text-anchor="middle" x="268.12" y="-94.5" font-family="Helvetica,sans-Serif" font-size="10.00">RespawnActor</text>
</a>
</g>
</g>
<!-- Node1&#45;&gt;Node4 -->
<g id="edge3_Node000001_Node000004" class="edge">
<title>Node1&#45;&gt;Node4</title>
<g id="a_edge3_Node000001_Node000004"><a xlink:title=" ">
<path fill="none" stroke="#63b8ff" d="M367.35,-117.27C349.55,-114.87 331.47,-112.42 315.75,-110.3"/>
<polygon fill="#63b8ff" stroke="#63b8ff" points="366.7,-120.85 377.08,-118.72 367.64,-113.92 366.7,-120.85"/>
</a>
</g>
</g>
<!-- Node5 -->
<g id="Node000005" class="node">
<title>Node5</title>
<g id="a_Node000005"><a xlink:href="../../dd/d67/classFActorData.html#a8e02790813812376432b23be35df002d" target="_top" xlink:title=" ">
<polygon fill="white" stroke="#666666" points="342.5,-70 193.75,-70 193.75,-50 342.5,-50 342.5,-70"/>
<text text-anchor="middle" x="268.12" y="-56.5" font-family="Helvetica,sans-Serif" font-size="10.00">FActorData::RestoreActorData</text>
</a>
</g>
</g>
<!-- Node1&#45;&gt;Node5 -->
<g id="edge4_Node000001_Node000005" class="edge">
<title>Node1&#45;&gt;Node5</title>
<g id="a_edge4_Node000001_Node000005"><a xlink:title=" ">
<path fill="none" stroke="#63b8ff" d="M423.76,-113.73C401.62,-103.01 370.7,-88.89 342.5,-79 333.56,-75.86 323.84,-72.99 314.5,-70.48"/>
<polygon fill="#63b8ff" stroke="#63b8ff" points="422.05,-117.28 432.57,-118.53 425.12,-110.99 422.05,-117.28"/>
</a>
</g>
</g>
<!-- Node6 -->
<g id="Node000006" class="node">
<title>Node6</title>
<g id="a_Node000006"><a xlink:href="../../da/df6/classFVehicleData.html#a5f350e898813fda12bb447445d6c4a5a" target="_top" xlink:title=" ">
<polygon fill="white" stroke="#666666" points="157.75,-108 0,-108 0,-88 157.75,-88 157.75,-108"/>
<text text-anchor="middle" x="78.88" y="-94.5" font-family="Helvetica,sans-Serif" font-size="10.00">FVehicleData::RestoreActorData</text>
</a>
</g>
</g>
<!-- Node5&#45;&gt;Node6 -->
<g id="edge5_Node000005_Node000006" class="edge">
<title>Node5&#45;&gt;Node6</title>
<g id="a_edge5_Node000005_Node000006"><a xlink:title=" ">
<path fill="none" stroke="#63b8ff" d="M204.76,-72.66C180.94,-77.49 154.07,-82.94 131.37,-87.55"/>
<polygon fill="#63b8ff" stroke="#63b8ff" points="205.36,-75.9 214.46,-70.48 203.97,-69.04 205.36,-75.9"/>
</a>
</g>
</g>
<!-- Node7 -->
<g id="Node000007" class="node">
<title>Node7</title>
<g id="a_Node000007"><a xlink:href="../../db/d6d/classFWalkerData.html#acd731c444cc7413a3de498abf0e0c602" target="_top" xlink:title=" ">
<polygon fill="white" stroke="#666666" points="157,-70 0.75,-70 0.75,-50 157,-50 157,-70"/>
<text text-anchor="middle" x="78.88" y="-56.5" font-family="Helvetica,sans-Serif" font-size="10.00">FWalkerData::RestoreActorData</text>
</a>
</g>
</g>
<!-- Node5&#45;&gt;Node7 -->
<g id="edge6_Node000005_Node000007" class="edge">
<title>Node5&#45;&gt;Node7</title>
<g id="a_edge6_Node000005_Node000007"><a xlink:title=" ">
<path fill="none" stroke="#63b8ff" d="M182.43,-60C174.04,-60 165.55,-60 157.24,-60"/>
<polygon fill="#63b8ff" stroke="#63b8ff" points="182.39,-63.5 192.39,-60 182.39,-56.5 182.39,-63.5"/>
</a>
</g>
</g>
<!-- Node8 -->
<g id="Node000008" class="node">
<title>Node8</title>
<g id="a_Node000008"><a xlink:href="../../d4/dba/classFActorSensorData.html#a8ff3113b35c24e732aab7370f056b1cd" target="_top" xlink:title=" ">
<polygon fill="white" stroke="#666666" points="146.88,-32 10.88,-32 10.88,0 146.88,0 146.88,-32"/>
<text text-anchor="start" x="18.88" y="-18.5" font-family="Helvetica,sans-Serif" font-size="10.00">FActorSensorData::Restore</text>
<text text-anchor="middle" x="78.88" y="-6.5" font-family="Helvetica,sans-Serif" font-size="10.00">ActorData</text>
</a>
</g>
</g>
<!-- Node5&#45;&gt;Node8 -->
<g id="edge7_Node000005_Node000008" class="edge">
<title>Node5&#45;&gt;Node8</title>
<g id="a_edge7_Node000005_Node000008"><a xlink:title=" ">
<path fill="none" stroke="#63b8ff" d="M212.08,-47.06C191.69,-42.27 168.35,-36.79 147.02,-31.78"/>
<polygon fill="#63b8ff" stroke="#63b8ff" points="211.21,-50.69 221.75,-49.57 212.82,-43.88 211.21,-50.69"/>
</a>
</g>
</g>
</g>
</svg>
