<?xml version="1.0" encoding="UTF-8" standalone="no"?>
<!DOCTYPE svg PUBLIC "-//W3C//DTD SVG 1.1//EN"
 "http://www.w3.org/Graphics/SVG/1.1/DTD/svg11.dtd">
<!-- Generated by graphviz version 8.1.0 (20230707.0739)
 -->
<!-- Title: ShaderBasedSensor.h Pages: 1 -->
<!--zoomable 140 -->

<svg id="main" version="1.1" xmlns="http://www.w3.org/2000/svg" xmlns:xlink="http://www.w3.org/1999/xlink" xml:space="preserve" onload="init(evt)">
<style type="text/css"><![CDATA[
.node, .edge {opacity: 0.7;}
.node.selected, .edge.selected {opacity: 1;}
.edge:hover path { stroke: red; }
.edge:hover polygon { stroke: red; fill: red; }
]]></style>

<defs>
  <circle id="rim" cx="0" cy="0" r="7"/>
  <circle id="rim2" cx="0" cy="0" r="3.5"/>
  <g id="zoomPlus">
    <use xlink:href="#rim" fill="#404040"><set attributeName="fill" to="#808080" begin="zoomplus.mouseover" end="zoomplus.mouseout"/></use>
    <path d="M-4,0h8M0,-4v8" fill="none" stroke="white" stroke-width="1.5" pointer-events="none"/>
  </g>
  <g id="zoomMin">
    <use xlink:href="#rim" fill="#404040"><set attributeName="fill" to="#808080" begin="zoomminus.mouseover" end="zoomminus.mouseout"/></use>
    <path d="M-4,0h8" fill="none" stroke="white" stroke-width="1.5" pointer-events="none"/>
  </g>
  <g id="arrowUp" transform="translate(30 24)">
    <use xlink:href="#rim"/>
    <path pointer-events="none" fill="none" stroke="white" stroke-width="1.5" d="M0,-3.0v7 M-2.5,-0.5L0,-3.0L2.5,-0.5"/>
  </g>
  <g id="arrowRight" transform="rotate(90) translate(36 -43)">
    <use xlink:href="#rim"/>
    <path pointer-events="none" fill="none" stroke="white" stroke-width="1.5" d="M0,-3.0v7 M-2.5,-0.5L0,-3.0L2.5,-0.5"/>
  </g>
  <g id="arrowDown" transform="rotate(180) translate(-30 -48)">
    <use xlink:href="#rim"/>
    <path pointer-events="none" fill="none" stroke="white" stroke-width="1.5" d="M0,-3.0v7 M-2.5,-0.5L0,-3.0L2.5,-0.5"/>
  </g>
  <g id="arrowLeft" transform="rotate(270) translate(-36 17)">
    <use xlink:href="#rim"/>
    <path pointer-events="none" fill="none" stroke="white" stroke-width="1.5" d="M0,-3.0v7 M-2.5,-0.5L0,-3.0L2.5,-0.5"/>
  </g>
  <g id="resetDef">
    <use xlink:href="#rim2" fill="#404040"><set attributeName="fill" to="#808080" begin="reset.mouseover" end="reset.mouseout"/></use>
  </g>
</defs>
<script type="application/ecmascript">
var viewWidth = 1477;
var viewHeight = 140;
var sectionId = 'dynsection-1';
</script>
<script type="application/ecmascript" xlink:href="../../svg.min.js"/>
<svg id="graph" class="graph">
<g id="viewport">
<title>ShaderBasedSensor.h</title>
<!-- Node1 -->
<g id="Node000001" class="node">
<title>Node1</title>
<g id="a_Node000001"><a xlink:title=" ">
<polygon fill="#999999" stroke="#666666" points="784.25,-132 670.75,-132 670.75,-112 784.25,-112 784.25,-132"/>
<text text-anchor="middle" x="727.5" y="-118.5" font-family="Helvetica,sans-Serif" font-size="10.00">ShaderBasedSensor.h</text>
</a>
</g>
</g>
<!-- Node2 -->
<g id="Node000002" class="node">
<title>Node2</title>
<g id="a_Node000002"><a xlink:href="../../dd/d08/ActorBlueprintFunctionLibrary_8cpp.html" target="_top" xlink:title=" ">
<polygon fill="white" stroke="#666666" points="163,-76 0,-76 0,-56 163,-56 163,-76"/>
<text text-anchor="middle" x="81.5" y="-62.5" font-family="Helvetica,sans-Serif" font-size="10.00">ActorBlueprintFunctionLibrary.cpp</text>
</a>
</g>
</g>
<!-- Node1&#45;&gt;Node2 -->
<g id="edge1_Node000001_Node000002" class="edge">
<title>Node1&#45;&gt;Node2</title>
<g id="a_edge1_Node000001_Node000002"><a xlink:title=" ">
<path fill="none" stroke="#63b8ff" d="M659.63,-115.89C555,-107.91 348.02,-91.79 172.5,-76 169.5,-75.73 166.44,-75.45 163.35,-75.16"/>
<polygon fill="#63b8ff" stroke="#63b8ff" points="659.11,-119.43 669.35,-116.7 659.64,-112.45 659.11,-119.43"/>
</a>
</g>
</g>
<!-- Node3 -->
<g id="Node000003" class="node">
<title>Node3</title>
<g id="a_Node000003"><a xlink:href="../../d6/db9/DVSCamera_8h.html" target="_top" xlink:title=" ">
<polygon fill="white" stroke="#666666" points="259.62,-76 181.38,-76 181.38,-56 259.62,-56 259.62,-76"/>
<text text-anchor="middle" x="220.5" y="-62.5" font-family="Helvetica,sans-Serif" font-size="10.00">DVSCamera.h</text>
</a>
</g>
</g>
<!-- Node1&#45;&gt;Node3 -->
<g id="edge2_Node000001_Node000003" class="edge">
<title>Node1&#45;&gt;Node3</title>
<g id="a_edge2_Node000001_Node000003"><a xlink:title=" ">
<path fill="none" stroke="#63b8ff" d="M659.57,-116.21C569.79,-109.45 406.8,-95.71 268.5,-76 265.73,-75.61 262.88,-75.16 260.01,-74.69"/>
<polygon fill="#63b8ff" stroke="#63b8ff" points="659.19,-119.77 669.42,-117.02 659.71,-112.79 659.19,-119.77"/>
</a>
</g>
</g>
<!-- Node5 -->
<g id="Node000005" class="node">
<title>Node5</title>
<g id="a_Node000005"><a xlink:href="../../da/d7d/DepthCamera_8h.html" target="_top" xlink:title=" ">
<polygon fill="white" stroke="#666666" points="361.25,-76 277.75,-76 277.75,-56 361.25,-56 361.25,-76"/>
<text text-anchor="middle" x="319.5" y="-62.5" font-family="Helvetica,sans-Serif" font-size="10.00">DepthCamera.h</text>
</a>
</g>
</g>
<!-- Node1&#45;&gt;Node5 -->
<g id="edge4_Node000001_Node000005" class="edge">
<title>Node1&#45;&gt;Node5</title>
<g id="a_edge4_Node000001_Node000005"><a xlink:title=" ">
<path fill="none" stroke="#63b8ff" d="M659.79,-113.47C587.88,-105.24 470.97,-91.19 370.5,-76 367.57,-75.56 364.54,-75.08 361.5,-74.58"/>
<polygon fill="#63b8ff" stroke="#63b8ff" points="659.16,-117.04 669.5,-114.69 659.96,-110.08 659.16,-117.04"/>
</a>
</g>
</g>
<!-- Node7 -->
<g id="Node000007" class="node">
<title>Node7</title>
<g id="a_Node000007"><a xlink:href="../../d4/d34/InstanceSegmentationCamera_8h.html" target="_top" xlink:title=" ">
<polygon fill="white" stroke="#666666" points="533.88,-76 379.12,-76 379.12,-56 533.88,-56 533.88,-76"/>
<text text-anchor="middle" x="456.5" y="-62.5" font-family="Helvetica,sans-Serif" font-size="10.00">InstanceSegmentationCamera.h</text>
</a>
</g>
</g>
<!-- Node1&#45;&gt;Node7 -->
<g id="edge6_Node000001_Node000007" class="edge">
<title>Node1&#45;&gt;Node7</title>
<g id="a_edge6_Node000001_Node000007"><a xlink:title=" ">
<path fill="none" stroke="#63b8ff" d="M669.47,-109.44C620.09,-99.6 550.05,-85.64 503.96,-76.46"/>
<polygon fill="#63b8ff" stroke="#63b8ff" points="668.49,-113.01 678.99,-111.53 669.86,-106.15 668.49,-113.01"/>
</a>
</g>
</g>
<!-- Node9 -->
<g id="Node000009" class="node">
<title>Node9</title>
<g id="a_Node000009"><a xlink:href="../../d8/d48/Unreal_2CarlaUE4_2Plugins_2Carla_2Source_2Carla_2Sensor_2LaneInvasionSensor_8h.html" target="_top" xlink:title=" ">
<polygon fill="white" stroke="#666666" points="662.75,-76 552.25,-76 552.25,-56 662.75,-56 662.75,-76"/>
<text text-anchor="middle" x="607.5" y="-62.5" font-family="Helvetica,sans-Serif" font-size="10.00">LaneInvasionSensor.h</text>
</a>
</g>
</g>
<!-- Node1&#45;&gt;Node9 -->
<g id="edge8_Node000001_Node000009" class="edge">
<title>Node1&#45;&gt;Node9</title>
<g id="a_edge8_Node000001_Node000009"><a xlink:title=" ">
<path fill="none" stroke="#63b8ff" d="M696.7,-107.14C675.33,-97.52 647.43,-84.97 628.57,-76.48"/>
<polygon fill="#63b8ff" stroke="#63b8ff" points="695.04,-110.68 705.6,-111.59 697.91,-104.3 695.04,-110.68"/>
</a>
</g>
</g>
<!-- Node11 -->
<g id="Node000011" class="node">
<title>Node11</title>
<g id="a_Node000011"><a xlink:href="../../df/d8f/NormalsCamera_8h.html" target="_top" xlink:title=" ">
<polygon fill="white" stroke="#666666" points="774.5,-76 680.5,-76 680.5,-56 774.5,-56 774.5,-76"/>
<text text-anchor="middle" x="727.5" y="-62.5" font-family="Helvetica,sans-Serif" font-size="10.00">NormalsCamera.h</text>
</a>
</g>
</g>
<!-- Node1&#45;&gt;Node11 -->
<g id="edge10_Node000001_Node000011" class="edge">
<title>Node1&#45;&gt;Node11</title>
<g id="a_edge10_Node000001_Node000011"><a xlink:title=" ">
<path fill="none" stroke="#63b8ff" d="M727.5,-100.71C727.5,-92.32 727.5,-83.01 727.5,-76.3"/>
<polygon fill="#63b8ff" stroke="#63b8ff" points="724,-100.59 727.5,-110.59 731,-100.59 724,-100.59"/>
</a>
</g>
</g>
<!-- Node13 -->
<g id="Node000013" class="node">
<title>Node13</title>
<g id="a_Node000013"><a xlink:href="../../df/d72/OpticalFlowCamera_8h.html" target="_top" xlink:title=" ">
<polygon fill="white" stroke="#666666" points="907,-76 798,-76 798,-56 907,-56 907,-76"/>
<text text-anchor="middle" x="852.5" y="-62.5" font-family="Helvetica,sans-Serif" font-size="10.00">OpticalFlowCamera.h</text>
</a>
</g>
</g>
<!-- Node1&#45;&gt;Node13 -->
<g id="edge12_Node000001_Node000013" class="edge">
<title>Node1&#45;&gt;Node13</title>
<g id="a_edge12_Node000001_Node000013"><a xlink:title=" ">
<path fill="none" stroke="#63b8ff" d="M759.28,-107.27C781.58,-97.64 810.82,-85.01 830.56,-76.48"/>
<polygon fill="#63b8ff" stroke="#63b8ff" points="758.07,-104.42 750.27,-111.59 760.84,-110.84 758.07,-104.42"/>
</a>
</g>
</g>
<!-- Node15 -->
<g id="Node000015" class="node">
<title>Node15</title>
<g id="a_Node000015"><a xlink:href="../../de/d29/Unreal_2CarlaUE4_2Plugins_2Carla_2Source_2Carla_2Sensor_2RssSensor_8h.html" target="_top" xlink:title=" ">
<polygon fill="white" stroke="#666666" points="1003.62,-76 931.38,-76 931.38,-56 1003.62,-56 1003.62,-76"/>
<text text-anchor="middle" x="967.5" y="-62.5" font-family="Helvetica,sans-Serif" font-size="10.00">RssSensor.h</text>
</a>
</g>
</g>
<!-- Node1&#45;&gt;Node15 -->
<g id="edge14_Node000001_Node000015" class="edge">
<title>Node1&#45;&gt;Node15</title>
<g id="a_edge14_Node000001_Node000015"><a xlink:title=" ">
<path fill="none" stroke="#63b8ff" d="M780.17,-109.15C825.86,-98.87 890.79,-84.26 930.97,-75.22"/>
<polygon fill="#63b8ff" stroke="#63b8ff" points="779.57,-105.92 770.58,-111.53 781.1,-112.75 779.57,-105.92"/>
</a>
</g>
</g>
<!-- Node17 -->
<g id="Node000017" class="node">
<title>Node17</title>
<g id="a_Node000017"><a xlink:href="../../dc/d56/SceneCaptureCamera_8h.html" target="_top" xlink:title=" ">
<polygon fill="white" stroke="#666666" points="1149.25,-76 1029.75,-76 1029.75,-56 1149.25,-56 1149.25,-76"/>
<text text-anchor="middle" x="1089.5" y="-62.5" font-family="Helvetica,sans-Serif" font-size="10.00">SceneCaptureCamera.h</text>
</a>
</g>
</g>
<!-- Node1&#45;&gt;Node17 -->
<g id="edge16_Node000001_Node000017" class="edge">
<title>Node1&#45;&gt;Node17</title>
<g id="a_edge16_Node000001_Node000017"><a xlink:title=" ">
<path fill="none" stroke="#63b8ff" d="M794.95,-110.94C862.23,-100.9 964.62,-85.63 1029.25,-75.99"/>
<polygon fill="#63b8ff" stroke="#63b8ff" points="794.83,-107.57 785.46,-112.5 795.87,-114.49 794.83,-107.57"/>
</a>
</g>
</g>
<!-- Node20 -->
<g id="Node000020" class="node">
<title>Node20</title>
<g id="a_Node000020"><a xlink:href="../../de/d13/SemanticSegmentationCamera_8h.html" target="_top" xlink:title=" ">
<polygon fill="white" stroke="#666666" points="1326.12,-76 1166.88,-76 1166.88,-56 1326.12,-56 1326.12,-76"/>
<text text-anchor="middle" x="1246.5" y="-62.5" font-family="Helvetica,sans-Serif" font-size="10.00">SemanticSegmentationCamera.h</text>
</a>
</g>
</g>
<!-- Node1&#45;&gt;Node20 -->
<g id="edge19_Node000001_Node000020" class="edge">
<title>Node1&#45;&gt;Node20</title>
<g id="a_edge19_Node000001_Node000020"><a xlink:title=" ">
<path fill="none" stroke="#63b8ff" d="M795.21,-113.95C890.74,-104.02 1064.73,-85.91 1166.51,-75.32"/>
<polygon fill="#63b8ff" stroke="#63b8ff" points="795.11,-110.55 785.53,-115.07 795.84,-117.51 795.11,-110.55"/>
</a>
</g>
</g>
<!-- Node22 -->
<g id="Node000022" class="node">
<title>Node22</title>
<g id="a_Node000022"><a xlink:href="../../da/d96/ShaderBasedSensor_8cpp.html" target="_top" xlink:title=" ">
<polygon fill="white" stroke="#666666" points="1468.5,-76 1344.5,-76 1344.5,-56 1468.5,-56 1468.5,-76"/>
<text text-anchor="middle" x="1406.5" y="-62.5" font-family="Helvetica,sans-Serif" font-size="10.00">ShaderBasedSensor.cpp</text>
</a>
</g>
</g>
<!-- Node1&#45;&gt;Node22 -->
<g id="edge21_Node000001_Node000022" class="edge">
<title>Node1&#45;&gt;Node22</title>
<g id="a_edge21_Node000001_Node000022"><a xlink:title=" ">
<path fill="none" stroke="#63b8ff" d="M795.42,-117.13C907.88,-110.47 1139.81,-95.63 1335.5,-76 1338.34,-75.71 1341.25,-75.41 1344.18,-75.09"/>
<polygon fill="#63b8ff" stroke="#63b8ff" points="795.36,-113.69 785.59,-117.77 795.77,-120.68 795.36,-113.69"/>
</a>
</g>
</g>
<!-- Node4 -->
<g id="Node000004" class="node">
<title>Node4</title>
<g id="a_Node000004"><a xlink:href="../../d9/d6e/DVSCamera_8cpp.html" target="_top" xlink:title=" ">
<polygon fill="white" stroke="#666666" points="219.88,-20 131.12,-20 131.12,0 219.88,0 219.88,-20"/>
<text text-anchor="middle" x="175.5" y="-6.5" font-family="Helvetica,sans-Serif" font-size="10.00">DVSCamera.cpp</text>
</a>
</g>
</g>
<!-- Node3&#45;&gt;Node4 -->
<g id="edge3_Node000003_Node000004" class="edge">
<title>Node3&#45;&gt;Node4</title>
<g id="a_edge3_Node000003_Node000004"><a xlink:title=" ">
<path fill="none" stroke="#63b8ff" d="M205.74,-47.29C198.23,-38.28 189.42,-27.7 183.25,-20.3"/>
<polygon fill="#63b8ff" stroke="#63b8ff" points="203.57,-49.15 212.66,-54.59 208.95,-44.67 203.57,-49.15"/>
</a>
</g>
</g>
<!-- Node6 -->
<g id="Node000006" class="node">
<title>Node6</title>
<g id="a_Node000006"><a xlink:href="../../d7/d0e/DepthCamera_8cpp.html" target="_top" xlink:title=" ">
<polygon fill="white" stroke="#666666" points="331.5,-20 237.5,-20 237.5,0 331.5,0 331.5,-20"/>
<text text-anchor="middle" x="284.5" y="-6.5" font-family="Helvetica,sans-Serif" font-size="10.00">DepthCamera.cpp</text>
</a>
</g>
</g>
<!-- Node5&#45;&gt;Node6 -->
<g id="edge5_Node000005_Node000006" class="edge">
<title>Node5&#45;&gt;Node6</title>
<g id="a_edge5_Node000005_Node000006"><a xlink:title=" ">
<path fill="none" stroke="#63b8ff" d="M307.47,-46.44C301.75,-37.62 295.17,-27.47 290.53,-20.3"/>
<polygon fill="#63b8ff" stroke="#63b8ff" points="305.03,-48.11 313.4,-54.59 310.9,-44.3 305.03,-48.11"/>
</a>
</g>
</g>
<!-- Node8 -->
<g id="Node000008" class="node">
<title>Node8</title>
<g id="a_Node000008"><a xlink:href="../../d6/dcd/InstanceSegmentationCamera_8cpp.html" target="_top" xlink:title=" ">
<polygon fill="white" stroke="#666666" points="515.12,-20 349.88,-20 349.88,0 515.12,0 515.12,-20"/>
<text text-anchor="middle" x="432.5" y="-6.5" font-family="Helvetica,sans-Serif" font-size="10.00">InstanceSegmentationCamera.cpp</text>
</a>
</g>
</g>
<!-- Node7&#45;&gt;Node8 -->
<g id="edge7_Node000007_Node000008" class="edge">
<title>Node7&#45;&gt;Node8</title>
<g id="a_edge7_Node000007_Node000008"><a xlink:title=" ">
<path fill="none" stroke="#63b8ff" d="M447.87,-45.58C444.04,-36.97 439.72,-27.24 436.63,-20.3"/>
<polygon fill="#63b8ff" stroke="#63b8ff" points="445.06,-46.88 452.32,-54.59 451.46,-44.03 445.06,-46.88"/>
</a>
</g>
</g>
<!-- Node10 -->
<g id="Node000010" class="node">
<title>Node10</title>
<g id="a_Node000010"><a xlink:href="../../d4/d9b/Unreal_2CarlaUE4_2Plugins_2Carla_2Source_2Carla_2Sensor_2LaneInvasionSensor_8cpp.html" target="_top" xlink:title=" ">
<polygon fill="white" stroke="#666666" points="654,-20 533,-20 533,0 654,0 654,-20"/>
<text text-anchor="middle" x="593.5" y="-6.5" font-family="Helvetica,sans-Serif" font-size="10.00">LaneInvasionSensor.cpp</text>
</a>
</g>
</g>
<!-- Node9&#45;&gt;Node10 -->
<g id="edge9_Node000009_Node000010" class="edge">
<title>Node9&#45;&gt;Node10</title>
<g id="a_edge9_Node000009_Node000010"><a xlink:title=" ">
<path fill="none" stroke="#63b8ff" d="M602.32,-45C600.12,-36.54 597.67,-27.08 595.91,-20.3"/>
<polygon fill="#63b8ff" stroke="#63b8ff" points="599.16,-45.79 605.06,-54.59 605.94,-44.04 599.16,-45.79"/>
</a>
</g>
</g>
<!-- Node12 -->
<g id="Node000012" class="node">
<title>Node12</title>
<g id="a_Node000012"><a xlink:href="../../d6/d81/NormalsCamera_8cpp.html" target="_top" xlink:title=" ">
<polygon fill="white" stroke="#666666" points="776.75,-20 672.25,-20 672.25,0 776.75,0 776.75,-20"/>
<text text-anchor="middle" x="724.5" y="-6.5" font-family="Helvetica,sans-Serif" font-size="10.00">NormalsCamera.cpp</text>
</a>
</g>
</g>
<!-- Node11&#45;&gt;Node12 -->
<g id="edge11_Node000011_Node000012" class="edge">
<title>Node11&#45;&gt;Node12</title>
<g id="a_edge11_Node000011_Node000012"><a xlink:title=" ">
<path fill="none" stroke="#63b8ff" d="M726.37,-44.71C725.91,-36.32 725.39,-27.01 725.02,-20.3"/>
<polygon fill="#63b8ff" stroke="#63b8ff" points="722.93,-44.8 726.98,-54.59 729.92,-44.42 722.93,-44.8"/>
</a>
</g>
</g>
<!-- Node14 -->
<g id="Node000014" class="node">
<title>Node14</title>
<g id="a_Node000014"><a xlink:href="../../d0/d58/OpticalFlowCamera_8cpp.html" target="_top" xlink:title=" ">
<polygon fill="white" stroke="#666666" points="914.25,-20 794.75,-20 794.75,0 914.25,0 914.25,-20"/>
<text text-anchor="middle" x="854.5" y="-6.5" font-family="Helvetica,sans-Serif" font-size="10.00">OpticalFlowCamera.cpp</text>
</a>
</g>
</g>
<!-- Node13&#45;&gt;Node14 -->
<g id="edge13_Node000013_Node000014" class="edge">
<title>Node13&#45;&gt;Node14</title>
<g id="a_edge13_Node000013_Node000014"><a xlink:title=" ">
<path fill="none" stroke="#63b8ff" d="M853.25,-44.71C853.56,-36.32 853.91,-27.01 854.16,-20.3"/>
<polygon fill="#63b8ff" stroke="#63b8ff" points="849.72,-44.47 852.85,-54.59 856.72,-44.73 849.72,-44.47"/>
</a>
</g>
</g>
<!-- Node16 -->
<g id="Node000016" class="node">
<title>Node16</title>
<g id="a_Node000016"><a xlink:href="../../df/db5/Unreal_2CarlaUE4_2Plugins_2Carla_2Source_2Carla_2Sensor_2RssSensor_8cpp.html" target="_top" xlink:title=" ">
<polygon fill="white" stroke="#666666" points="1014.88,-20 932.12,-20 932.12,0 1014.88,0 1014.88,-20"/>
<text text-anchor="middle" x="973.5" y="-6.5" font-family="Helvetica,sans-Serif" font-size="10.00">RssSensor.cpp</text>
</a>
</g>
</g>
<!-- Node15&#45;&gt;Node16 -->
<g id="edge15_Node000015_Node000016" class="edge">
<title>Node15&#45;&gt;Node16</title>
<g id="a_edge15_Node000015_Node000016"><a xlink:title=" ">
<path fill="none" stroke="#63b8ff" d="M969.75,-44.71C970.69,-36.32 971.72,-27.01 972.47,-20.3"/>
<polygon fill="#63b8ff" stroke="#63b8ff" points="966.17,-44.27 968.55,-54.59 973.13,-45.04 966.17,-44.27"/>
</a>
</g>
</g>
<!-- Node18 -->
<g id="Node000018" class="node">
<title>Node18</title>
<g id="a_Node000018"><a xlink:href="../../d1/dec/SceneCaptureCamera_8cpp.html" target="_top" xlink:title=" ">
<polygon fill="white" stroke="#666666" points="1162.5,-20 1032.5,-20 1032.5,0 1162.5,0 1162.5,-20"/>
<text text-anchor="middle" x="1097.5" y="-6.5" font-family="Helvetica,sans-Serif" font-size="10.00">SceneCaptureCamera.cpp</text>
</a>
</g>
</g>
<!-- Node17&#45;&gt;Node18 -->
<g id="edge17_Node000017_Node000018" class="edge">
<title>Node17&#45;&gt;Node18</title>
<g id="a_edge17_Node000017_Node000018"><a xlink:title=" ">
<path fill="none" stroke="#63b8ff" d="M1092.51,-44.71C1093.75,-36.32 1095.13,-27.01 1096.12,-20.3"/>
<polygon fill="#63b8ff" stroke="#63b8ff" points="1088.9,-44.19 1090.89,-54.59 1095.82,-45.21 1088.9,-44.19"/>
</a>
</g>
</g>
<!-- Node19 -->
<g id="Node000019" class="node">
<title>Node19</title>
<g id="a_Node000019"><a xlink:href="../../d2/d0f/Weather_8cpp.html" target="_top" xlink:title=" ">
<polygon fill="white" stroke="#666666" points="1252.25,-20 1180.75,-20 1180.75,0 1252.25,0 1252.25,-20"/>
<text text-anchor="middle" x="1216.5" y="-6.5" font-family="Helvetica,sans-Serif" font-size="10.00">Weather.cpp</text>
</a>
</g>
</g>
<!-- Node17&#45;&gt;Node19 -->
<g id="edge18_Node000017_Node000019" class="edge">
<title>Node17&#45;&gt;Node19</title>
<g id="a_edge18_Node000017_Node000019"><a xlink:title=" ">
<path fill="none" stroke="#63b8ff" d="M1121.48,-51.4C1144.17,-41.75 1174.06,-29.05 1194.21,-20.48"/>
<polygon fill="#63b8ff" stroke="#63b8ff" points="1120.45,-48.46 1112.62,-55.59 1123.19,-54.9 1120.45,-48.46"/>
</a>
</g>
</g>
<!-- Node21 -->
<g id="Node000021" class="node">
<title>Node21</title>
<g id="a_Node000021"><a xlink:href="../../d9/d38/SemanticSegmentationCamera_8cpp.html" target="_top" xlink:title=" ">
<polygon fill="white" stroke="#666666" points="1440.38,-20 1270.62,-20 1270.62,0 1440.38,0 1440.38,-20"/>
<text text-anchor="middle" x="1355.5" y="-6.5" font-family="Helvetica,sans-Serif" font-size="10.00">SemanticSegmentationCamera.cpp</text>
</a>
</g>
</g>
<!-- Node20&#45;&gt;Node21 -->
<g id="edge20_Node000020_Node000021" class="edge">
<title>Node20&#45;&gt;Node21</title>
<g id="a_edge20_Node000020_Node000021"><a xlink:title=" ">
<path fill="none" stroke="#63b8ff" d="M1275.27,-50.75C1294.57,-41.18 1319.46,-28.85 1336.37,-20.48"/>
<polygon fill="#63b8ff" stroke="#63b8ff" points="1273.89,-48.02 1266.49,-55.59 1277,-54.29 1273.89,-48.02"/>
</a>
</g>
</g>
</g>
</svg>

<g id="navigator" transform="translate(0 0)" fill="#404254">
  <rect fill="#f2f5e9" fill-opacity="0.5" stroke="#606060" stroke-width=".5" x="0" y="0" width="60" height="60"/>
  <use id="zoomplus" xlink:href="#zoomPlus" x="17" y="9" onmousedown="handleZoom(evt,'in')"/>
  <use id="zoomminus" xlink:href="#zoomMin" x="42" y="9" onmousedown="handleZoom(evt,'out')"/>
  <use id="reset" xlink:href="#resetDef" x="30" y="36" onmousedown="handleReset()"/>
   <use id="arrowup" xlink:href="#arrowUp" x="0" y="0" onmousedown="handlePan(0,-1)"/>
  <use id="arrowright" xlink:href="#arrowRight" x="0" y="0" onmousedown="handlePan(1,0)"/>
  <use id="arrowdown" xlink:href="#arrowDown" x="0" y="0" onmousedown="handlePan(0,1)"/>
  <use id="arrowleft" xlink:href="#arrowLeft" x="0" y="0" onmousedown="handlePan(-1,0)"/>
</g>
<svg viewBox="0 0 15 15" width="100%" height="30px" preserveAspectRatio="xMaxYMin meet">
 <g id="arrow_out" transform="scale(0.3 0.3)">
  <a xlink:href="ShaderBasedSensor_8h__dep__incl_org.svg" target="_base">
   <rect id="button" ry="5" rx="5" y="6" x="6" height="38" width="38"
        fill="#f2f5e9" fill-opacity="0.5" stroke="#606060" stroke-width="1.0"/>
   <path id="arrow"
     d="M 11.500037,31.436501 C 11.940474,20.09759 22.043105,11.32322 32.158766,21.979434 L 37.068811,17.246167 C 37.068811,17.246167 37.088388,32 37.088388,32 L 22.160133,31.978069 C 22.160133,31.978069 26.997745,27.140456 26.997745,27.140456 C 18.528582,18.264221 13.291696,25.230495 11.500037,31.436501 z"
     style="fill:#404040;"/>
  </a>
 </g>
</svg>

<style type='text/css'>
<![CDATA[
[data-mouse-over-selected='false'] { opacity: 0.7; }
[data-mouse-over-selected='true']  { opacity: 1.0; }
]]>
</style>
<script type="application/ecmascript"><![CDATA[
document.addEventListener('DOMContentLoaded', (event) => {
  highlightEdges();
  highlightAdjacentNodes();
});
]]></script>
</svg>
