<?xml version="1.0" encoding="UTF-8" standalone="no"?>
<!DOCTYPE svg PUBLIC "-//W3C//DTD SVG 1.1//EN"
 "http://www.w3.org/Graphics/SVG/1.1/DTD/svg11.dtd">
<!-- Generated by graphviz version 8.1.0 (20230707.0739)
 -->
<!-- Title: carla::sensor::data::RssResponse Pages: 1 -->
<svg width="1253pt" height="750pt"
 viewBox="0.00 0.00 1252.50 749.65" xmlns="http://www.w3.org/2000/svg" xmlns:xlink="http://www.w3.org/1999/xlink">
<g id="graph0" class="graph" transform="scale(1 1) rotate(0) translate(4 745.65)">
<title>carla::sensor::data::RssResponse</title>
<!-- Node1 -->
<g id="Node000001" class="node">
<title>Node1</title>
<g id="a_Node000001"><a xlink:title="A RSS Response.">
<polygon fill="#999999" stroke="#666666" points="1244.5,-278.65 1147.5,-278.65 1147.5,-246.65 1244.5,-246.65 1244.5,-278.65"/>
<text text-anchor="start" x="1155.5" y="-265.15" font-family="Helvetica,sans-Serif" font-size="10.00">carla::sensor::data</text>
<text text-anchor="middle" x="1196" y="-253.15" font-family="Helvetica,sans-Serif" font-size="10.00">::RssResponse</text>
</a>
</g>
</g>
<!-- Node2 -->
<g id="Node000002" class="node">
<title>Node2</title>
<g id="a_Node000002"><a xlink:href="../../df/d8c/classcarla_1_1sensor_1_1SensorData.html" target="_top" xlink:title="Base class for all the objects containing data generated by a sensor.">
<polygon fill="white" stroke="#666666" points="994.12,-615.65 864.88,-615.65 864.88,-595.65 994.12,-595.65 994.12,-615.65"/>
<text text-anchor="middle" x="929.5" y="-602.15" font-family="Helvetica,sans-Serif" font-size="10.00">carla::sensor::SensorData</text>
</a>
</g>
</g>
<!-- Node2&#45;&gt;Node1 -->
<g id="edge1_Node000001_Node000002" class="edge">
<title>Node2&#45;&gt;Node1</title>
<g id="a_edge1_Node000001_Node000002"><a xlink:title=" ">
<path fill="none" stroke="#63b8ff" d="M1005.01,-594.62C1047.23,-584.59 1097.8,-565.56 1129.5,-529.65 1163.22,-491.45 1186.25,-331.26 1192.97,-279.12"/>
<polygon fill="#63b8ff" stroke="#63b8ff" points="1004.46,-591.38 995.47,-596.98 1005.99,-598.21 1004.46,-591.38"/>
</a>
</g>
</g>
<!-- Node3 -->
<g id="Node000003" class="node">
<title>Node3</title>
<g id="a_Node000003"><a xlink:href="../../da/d05/classEnableSharedFromThis.html" target="_top" xlink:title=" ">
<polygon fill="white" stroke="#666666" points="711.88,-529.65 594.62,-529.65 594.62,-497.65 711.88,-497.65 711.88,-529.65"/>
<text text-anchor="start" x="602.62" y="-516.15" font-family="Helvetica,sans-Serif" font-size="10.00">EnableSharedFromThis</text>
<text text-anchor="middle" x="653.25" y="-504.15" font-family="Helvetica,sans-Serif" font-size="10.00">&lt; SensorData &gt;</text>
</a>
</g>
</g>
<!-- Node3&#45;&gt;Node2 -->
<g id="edge2_Node000002_Node000003" class="edge">
<title>Node3&#45;&gt;Node2</title>
<g id="a_edge2_Node000002_Node000003"><a xlink:title=" ">
<path fill="none" stroke="#63b8ff" d="M722.78,-526.06C767.59,-534.65 821.72,-546.03 843.5,-554.65 870.22,-565.23 898.25,-583.71 914.51,-595.28"/>
<polygon fill="#63b8ff" stroke="#63b8ff" points="723.67,-522.48 713.2,-524.06 722.37,-529.36 723.67,-522.48"/>
</a>
</g>
</g>
<!-- Node4 -->
<g id="Node000004" class="node">
<title>Node4</title>
<g id="a_Node000004"><a xlink:href="../../d4/d8b/classcarla_1_1NonCopyable.html" target="_top" xlink:title="Inherit (privately) to suppress copy/move construction and assignment.">
<polygon fill="white" stroke="#666666" points="703.62,-741.65 602.88,-741.65 602.88,-721.65 703.62,-721.65 703.62,-741.65"/>
<text text-anchor="middle" x="653.25" y="-728.15" font-family="Helvetica,sans-Serif" font-size="10.00">carla::NonCopyable</text>
</a>
</g>
</g>
<!-- Node4&#45;&gt;Node2 -->
<g id="edge3_Node000002_Node000004" class="edge">
<title>Node4&#45;&gt;Node2</title>
<g id="a_edge3_Node000002_Node000004"><a xlink:title=" ">
<path fill="none" stroke="#8b1a1a" d="M714.57,-727.38C753.34,-722.57 803.71,-712.35 843.5,-690.65 878.31,-671.66 908.27,-634.04 921.41,-615.9"/>
<polygon fill="#8b1a1a" stroke="#8b1a1a" points="714.5,-723.98 704.96,-728.59 715.29,-730.93 714.5,-723.98"/>
</a>
</g>
</g>
<!-- Node5 -->
<g id="Node000005" class="node">
<title>Node5</title>
<g id="a_Node000005"><a xlink:title=" ">
<polygon fill="white" stroke="#666666" points="722.75,-703.65 583.75,-703.65 583.75,-671.65 722.75,-671.65 722.75,-703.65"/>
<text text-anchor="start" x="591.75" y="-690.15" font-family="Helvetica,sans-Serif" font-size="10.00">EpisodeProxyImpl&lt; Episode</text>
<text text-anchor="middle" x="653.25" y="-678.15" font-family="Helvetica,sans-Serif" font-size="10.00">ProxyPointerType::Weak &gt;</text>
</a>
</g>
</g>
<!-- Node5&#45;&gt;Node2 -->
<g id="edge4_Node000002_Node000005" class="edge">
<title>Node5&#45;&gt;Node2</title>
<g id="a_edge4_Node000002_Node000005"><a xlink:title=" ">
<path fill="none" stroke="#9a32cd" stroke-dasharray="5,2" d="M733.4,-676.83C767.82,-670.84 808.26,-662.03 843.5,-649.65 868.43,-640.89 895.18,-626.04 911.87,-616.04"/>
<polygon fill="#9a32cd" stroke="#9a32cd" points="733.2,-673.48 723.93,-678.6 734.37,-680.39 733.2,-673.48"/>
</a>
</g>
<text text-anchor="middle" x="792.12" y="-677.15" font-family="Helvetica,sans-Serif" font-size="10.00" fill="grey"> _episode</text>
</g>
<!-- Node6 -->
<g id="Node000006" class="node">
<title>Node6</title>
<g id="a_Node000006"><a xlink:title=" ">
<polygon fill="white" stroke="#666666" points="687.88,-653.65 618.62,-653.65 618.62,-633.65 687.88,-633.65 687.88,-653.65"/>
<text text-anchor="middle" x="653.25" y="-640.15" font-family="Helvetica,sans-Serif" font-size="10.00">const size_t</text>
</a>
</g>
</g>
<!-- Node6&#45;&gt;Node2 -->
<g id="edge5_Node000002_Node000006" class="edge">
<title>Node6&#45;&gt;Node2</title>
<g id="a_edge5_Node000002_Node000006"><a xlink:title=" ">
<path fill="none" stroke="#9a32cd" stroke-dasharray="5,2" d="M699.01,-639.34C737.43,-635.43 794.24,-629.14 843.5,-621.65 854.04,-620.05 865.27,-618.1 876,-616.13"/>
<polygon fill="#9a32cd" stroke="#9a32cd" points="698.79,-635.95 689.19,-640.43 699.49,-642.91 698.79,-635.95"/>
</a>
</g>
<text text-anchor="middle" x="792.12" y="-636.15" font-family="Helvetica,sans-Serif" font-size="10.00" fill="grey"> _frame</text>
</g>
<!-- Node7 -->
<g id="Node000007" class="node">
<title>Node7</title>
<g id="a_Node000007"><a xlink:title=" ">
<polygon fill="white" stroke="#666666" points="429.62,-187.65 385.12,-187.65 385.12,-167.65 429.62,-167.65 429.62,-187.65"/>
<text text-anchor="middle" x="407.38" y="-174.15" font-family="Helvetica,sans-Serif" font-size="10.00">double</text>
</a>
</g>
</g>
<!-- Node7&#45;&gt;Node2 -->
<g id="edge6_Node000002_Node000007" class="edge">
<title>Node7&#45;&gt;Node2</title>
<g id="a_edge6_Node000002_Node000007"><a xlink:title=" ">
<path fill="none" stroke="#9a32cd" stroke-dasharray="5,2" d="M411.86,-198.55C423.47,-261.24 466.97,-448.9 583.75,-538.65 605.78,-555.58 771.17,-582.36 864.63,-596.39"/>
<polygon fill="#9a32cd" stroke="#9a32cd" points="415.19,-198.28 410,-189.05 408.3,-199.5 415.19,-198.28"/>
</a>
</g>
<text text-anchor="middle" x="653.25" y="-574.15" font-family="Helvetica,sans-Serif" font-size="10.00" fill="grey"> _timestamp</text>
</g>
<!-- Node18 -->
<g id="Node000018" class="node">
<title>Node18</title>
<g id="a_Node000018"><a xlink:href="../../d1/d1b/structcarla_1_1rss_1_1EgoDynamicsOnRoute.html" target="_top" xlink:title="struct defining the ego vehicles current dynamics in respect to the current route">
<polygon fill="white" stroke="#666666" points="997.5,-322.65 861.5,-322.65 861.5,-290.65 997.5,-290.65 997.5,-322.65"/>
<text text-anchor="start" x="869.5" y="-309.15" font-family="Helvetica,sans-Serif" font-size="10.00">carla::rss::EgoDynamicsOn</text>
<text text-anchor="middle" x="929.5" y="-297.15" font-family="Helvetica,sans-Serif" font-size="10.00">Route</text>
</a>
</g>
</g>
<!-- Node7&#45;&gt;Node18 -->
<g id="edge22_Node000018_Node000007" class="edge">
<title>Node7&#45;&gt;Node18</title>
<g id="a_edge22_Node000018_Node000007"><a xlink:title=" ">
<path fill="none" stroke="#9a32cd" stroke-dasharray="5,2" d="M440.38,-174.04C497.93,-168.54 622.27,-161.18 722.75,-186.65 781.03,-201.42 800.58,-205.54 843.5,-247.65 855.71,-259.62 848.65,-270.37 861.5,-281.65 865.23,-284.93 869.43,-287.79 873.87,-290.29"/>
<polygon fill="#9a32cd" stroke="#9a32cd" points="440.38,-170.62 430.78,-175.11 441.08,-177.59 440.38,-170.62"/>
</a>
</g>
<text text-anchor="start" x="596.62" y="-225.15" font-family="Helvetica,sans-Serif" font-size="10.00" fill="grey"> time_since_epoch_check</text>
<text text-anchor="middle" x="653.25" y="-213.15" font-family="Helvetica,sans-Serif" font-size="10.00" fill="grey">_end_ms</text>
<text text-anchor="start" x="596.62" y="-201.15" font-family="Helvetica,sans-Serif" font-size="10.00" fill="grey">time_since_epoch_check</text>
<text text-anchor="middle" x="653.25" y="-189.15" font-family="Helvetica,sans-Serif" font-size="10.00" fill="grey">_start_ms</text>
</g>
<!-- Node19 -->
<g id="Node000019" class="node">
<title>Node19</title>
<g id="a_Node000019"><a xlink:href="../../df/d2c/classcarla_1_1client_1_1Timestamp.html" target="_top" xlink:title=" ">
<polygon fill="white" stroke="#666666" points="713.38,-136.65 593.12,-136.65 593.12,-116.65 713.38,-116.65 713.38,-136.65"/>
<text text-anchor="middle" x="653.25" y="-123.15" font-family="Helvetica,sans-Serif" font-size="10.00">carla::client::Timestamp</text>
</a>
</g>
</g>
<!-- Node7&#45;&gt;Node19 -->
<g id="edge21_Node000019_Node000007" class="edge">
<title>Node7&#45;&gt;Node19</title>
<g id="a_edge21_Node000019_Node000007"><a xlink:title=" ">
<path fill="none" stroke="#9a32cd" stroke-dasharray="5,2" d="M426.94,-159.98C440.52,-148.32 460.04,-134.05 480.25,-127.65 516.4,-116.2 559.02,-115.86 592.78,-118.43"/>
<polygon fill="#9a32cd" stroke="#9a32cd" points="425.03,-156.88 419.92,-166.15 429.7,-162.09 425.03,-156.88"/>
</a>
</g>
<text text-anchor="middle" x="523" y="-154.15" font-family="Helvetica,sans-Serif" font-size="10.00" fill="grey"> delta_seconds</text>
<text text-anchor="middle" x="523" y="-142.15" font-family="Helvetica,sans-Serif" font-size="10.00" fill="grey">elapsed_seconds</text>
<text text-anchor="middle" x="523" y="-130.15" font-family="Helvetica,sans-Serif" font-size="10.00" fill="grey">platform_timestamp</text>
</g>
<!-- Node8 -->
<g id="Node000008" class="node">
<title>Node8</title>
<g id="a_Node000008"><a xlink:href="../../de/da4/classcarla_1_1geom_1_1Transform.html" target="_top" xlink:title=" ">
<polygon fill="white" stroke="#666666" points="711.12,-615.65 595.38,-615.65 595.38,-595.65 711.12,-595.65 711.12,-615.65"/>
<text text-anchor="middle" x="653.25" y="-602.15" font-family="Helvetica,sans-Serif" font-size="10.00">carla::geom::Transform</text>
</a>
</g>
</g>
<!-- Node8&#45;&gt;Node2 -->
<g id="edge7_Node000002_Node000008" class="edge">
<title>Node8&#45;&gt;Node2</title>
<g id="a_edge7_Node000002_Node000008"><a xlink:title=" ">
<path fill="none" stroke="#9a32cd" stroke-dasharray="5,2" d="M722.2,-605.65C765.77,-605.65 821.97,-605.65 864.7,-605.65"/>
<polygon fill="#9a32cd" stroke="#9a32cd" points="722.41,-602.15 712.41,-605.65 722.41,-609.15 722.41,-602.15"/>
</a>
</g>
<text text-anchor="middle" x="792.12" y="-608.15" font-family="Helvetica,sans-Serif" font-size="10.00" fill="grey"> _sensor_transform</text>
</g>
<!-- Node9 -->
<g id="Node000009" class="node">
<title>Node9</title>
<g id="a_Node000009"><a xlink:href="../../de/d23/classcarla_1_1geom_1_1Location.html" target="_top" xlink:title=" ">
<polygon fill="white" stroke="#666666" points="462.25,-656.65 352.5,-656.65 352.5,-636.65 462.25,-636.65 462.25,-656.65"/>
<text text-anchor="middle" x="407.38" y="-643.15" font-family="Helvetica,sans-Serif" font-size="10.00">carla::geom::Location</text>
</a>
</g>
</g>
<!-- Node9&#45;&gt;Node8 -->
<g id="edge8_Node000008_Node000009" class="edge">
<title>Node9&#45;&gt;Node8</title>
<g id="a_edge8_Node000008_Node000009"><a xlink:title=" ">
<path fill="none" stroke="#9a32cd" stroke-dasharray="5,2" d="M472.92,-635.8C510.81,-629.43 558.3,-621.44 594.88,-615.29"/>
<polygon fill="#9a32cd" stroke="#9a32cd" points="472.78,-632.44 463.5,-637.55 473.94,-639.34 472.78,-632.44"/>
</a>
</g>
<text text-anchor="middle" x="523" y="-636.15" font-family="Helvetica,sans-Serif" font-size="10.00" fill="grey"> location</text>
</g>
<!-- Node10 -->
<g id="Node000010" class="node">
<title>Node10</title>
<g id="a_Node000010"><a xlink:href="../../d9/dfe/classcarla_1_1geom_1_1Vector3D.html" target="_top" xlink:title=" ">
<polygon fill="white" stroke="#666666" points="207.5,-659.65 94,-659.65 94,-639.65 207.5,-639.65 207.5,-659.65"/>
<text text-anchor="middle" x="150.75" y="-646.15" font-family="Helvetica,sans-Serif" font-size="10.00">carla::geom::Vector3D</text>
</a>
</g>
</g>
<!-- Node10&#45;&gt;Node9 -->
<g id="edge9_Node000009_Node000010" class="edge">
<title>Node10&#45;&gt;Node9</title>
<g id="a_edge9_Node000009_Node000010"><a xlink:title=" ">
<path fill="none" stroke="#63b8ff" d="M218.81,-648.86C260.39,-648.37 313.12,-647.75 352.07,-647.29"/>
<polygon fill="#63b8ff" stroke="#63b8ff" points="218.9,-645.37 208.94,-648.99 218.98,-652.37 218.9,-645.37"/>
</a>
</g>
</g>
<!-- Node11 -->
<g id="Node000011" class="node">
<title>Node11</title>
<g id="a_Node000011"><a xlink:title=" ">
<polygon fill="white" stroke="#666666" points="34,-630.65 0,-630.65 0,-610.65 34,-610.65 34,-630.65"/>
<text text-anchor="middle" x="17" y="-617.15" font-family="Helvetica,sans-Serif" font-size="10.00">float</text>
</a>
</g>
</g>
<!-- Node11&#45;&gt;Node10 -->
<g id="edge10_Node000010_Node000011" class="edge">
<title>Node11&#45;&gt;Node10</title>
<g id="a_edge10_Node000010_Node000011"><a xlink:title=" ">
<path fill="none" stroke="#9a32cd" stroke-dasharray="5,2" d="M44.75,-627C47.2,-627.56 49.64,-628.12 52,-628.65 67.58,-632.16 84.59,-635.85 99.98,-639.15"/>
<polygon fill="#9a32cd" stroke="#9a32cd" points="45.78,-623.41 35.24,-624.54 44.18,-630.22 45.78,-623.41"/>
</a>
</g>
<text text-anchor="middle" x="64" y="-659.15" font-family="Helvetica,sans-Serif" font-size="10.00" fill="grey"> x</text>
<text text-anchor="middle" x="64" y="-647.15" font-family="Helvetica,sans-Serif" font-size="10.00" fill="grey">y</text>
<text text-anchor="middle" x="64" y="-635.15" font-family="Helvetica,sans-Serif" font-size="10.00" fill="grey">z</text>
</g>
<!-- Node12 -->
<g id="Node000012" class="node">
<title>Node12</title>
<g id="a_Node000012"><a xlink:href="../../d8/dba/classcarla_1_1geom_1_1Rotation.html" target="_top" xlink:title=" ">
<polygon fill="white" stroke="#666666" points="334.5,-606.65 225.5,-606.65 225.5,-586.65 334.5,-586.65 334.5,-606.65"/>
<text text-anchor="middle" x="280" y="-593.15" font-family="Helvetica,sans-Serif" font-size="10.00">carla::geom::Rotation</text>
</a>
</g>
</g>
<!-- Node11&#45;&gt;Node12 -->
<g id="edge12_Node000012_Node000011" class="edge">
<title>Node11&#45;&gt;Node12</title>
<g id="a_edge12_Node000012_Node000011"><a xlink:title=" ">
<path fill="none" stroke="#9a32cd" stroke-dasharray="5,2" d="M32.41,-602.49C37.89,-596.96 44.61,-591.58 52,-588.65 114.32,-563.94 193.97,-575.57 240.46,-586.18"/>
<polygon fill="#9a32cd" stroke="#9a32cd" points="30.39,-599.63 26.34,-609.42 35.61,-604.28 30.39,-599.63"/>
</a>
</g>
<text text-anchor="middle" x="64" y="-615.15" font-family="Helvetica,sans-Serif" font-size="10.00" fill="grey"> pitch</text>
<text text-anchor="middle" x="64" y="-603.15" font-family="Helvetica,sans-Serif" font-size="10.00" fill="grey">roll</text>
<text text-anchor="middle" x="64" y="-591.15" font-family="Helvetica,sans-Serif" font-size="10.00" fill="grey">yaw</text>
</g>
<!-- Node12&#45;&gt;Node8 -->
<g id="edge11_Node000008_Node000012" class="edge">
<title>Node12&#45;&gt;Node8</title>
<g id="a_edge11_Node000008_Node000012"><a xlink:title=" ">
<path fill="none" stroke="#9a32cd" stroke-dasharray="5,2" d="M345.93,-598.22C416.42,-599.93 527.89,-602.63 595.15,-604.27"/>
<polygon fill="#9a32cd" stroke="#9a32cd" points="346.06,-594.7 335.98,-597.96 345.9,-601.7 346.06,-594.7"/>
</a>
</g>
<text text-anchor="middle" x="407.38" y="-603.15" font-family="Helvetica,sans-Serif" font-size="10.00" fill="grey"> rotation</text>
</g>
<!-- Node13 -->
<g id="Node000013" class="node">
<title>Node13</title>
<g id="a_Node000013"><a xlink:title=" ">
<polygon fill="white" stroke="#666666" points="670.25,-478.65 636.25,-478.65 636.25,-458.65 670.25,-458.65 670.25,-478.65"/>
<text text-anchor="middle" x="653.25" y="-465.15" font-family="Helvetica,sans-Serif" font-size="10.00">bool</text>
</a>
</g>
</g>
<!-- Node13&#45;&gt;Node1 -->
<g id="edge13_Node000001_Node000013" class="edge">
<title>Node13&#45;&gt;Node1</title>
<g id="a_edge13_Node000001_Node000013"><a xlink:title=" ">
<path fill="none" stroke="#9a32cd" stroke-dasharray="5,2" d="M681.2,-474.26C694.15,-477.51 709.67,-482.25 722.75,-488.65 731.62,-492.98 731.36,-498.61 740.75,-501.65 784.2,-515.7 799.78,-514.85 843.5,-501.65 991.5,-456.97 1132.67,-325.36 1179.07,-279.02"/>
<polygon fill="#9a32cd" stroke="#9a32cd" points="682.14,-470.65 671.6,-471.77 680.54,-477.46 682.14,-470.65"/>
</a>
</g>
<text text-anchor="middle" x="929.5" y="-498.15" font-family="Helvetica,sans-Serif" font-size="10.00" fill="grey"> _response_valid</text>
</g>
<!-- Node13&#45;&gt;Node18 -->
<g id="edge29_Node000018_Node000013" class="edge">
<title>Node13&#45;&gt;Node18</title>
<g id="a_edge29_Node000018_Node000013"><a xlink:title=" ">
<path fill="none" stroke="#9a32cd" stroke-dasharray="5,2" d="M681.58,-467.38C727.41,-464.8 817.3,-457.67 843.5,-440.65 887.39,-412.13 912.95,-352.13 923.22,-323.09"/>
<polygon fill="#9a32cd" stroke="#9a32cd" points="681.49,-463.93 671.69,-467.95 681.86,-470.92 681.49,-463.93"/>
</a>
</g>
<text text-anchor="middle" x="792.12" y="-488.15" font-family="Helvetica,sans-Serif" font-size="10.00" fill="grey"> crossing_border</text>
<text text-anchor="start" x="753.12" y="-476.15" font-family="Helvetica,sans-Serif" font-size="10.00" fill="grey">ego_center_within</text>
<text text-anchor="middle" x="792.12" y="-464.15" font-family="Helvetica,sans-Serif" font-size="10.00" fill="grey">_route</text>
</g>
<!-- Node14 -->
<g id="Node000014" class="node">
<title>Node14</title>
<g id="a_Node000014"><a xlink:title=" ">
<polygon fill="white" stroke="#666666" points="973.5,-272.65 885.5,-272.65 885.5,-252.65 973.5,-252.65 973.5,-272.65"/>
<text text-anchor="middle" x="929.5" y="-259.15" font-family="Helvetica,sans-Serif" font-size="10.00">ProperResponse</text>
</a>
</g>
</g>
<!-- Node14&#45;&gt;Node1 -->
<g id="edge14_Node000001_Node000014" class="edge">
<title>Node14&#45;&gt;Node1</title>
<g id="a_edge14_Node000001_Node000014"><a xlink:title=" ">
<path fill="none" stroke="#9a32cd" stroke-dasharray="5,2" d="M984.63,-262.65C1032.39,-262.65 1101.34,-262.65 1147.12,-262.65"/>
<polygon fill="#9a32cd" stroke="#9a32cd" points="984.88,-259.15 974.88,-262.65 984.88,-266.15 984.88,-259.15"/>
</a>
</g>
<text text-anchor="middle" x="1072.5" y="-265.15" font-family="Helvetica,sans-Serif" font-size="10.00" fill="grey"> _response</text>
</g>
<!-- Node15 -->
<g id="Node000015" class="node">
<title>Node15</title>
<g id="a_Node000015"><a xlink:title=" ">
<polygon fill="white" stroke="#666666" points="978.38,-234.65 880.62,-234.65 880.62,-214.65 978.38,-214.65 978.38,-234.65"/>
<text text-anchor="middle" x="929.5" y="-221.15" font-family="Helvetica,sans-Serif" font-size="10.00">RssStateSnapshot</text>
</a>
</g>
</g>
<!-- Node15&#45;&gt;Node1 -->
<g id="edge15_Node000001_Node000015" class="edge">
<title>Node15&#45;&gt;Node1</title>
<g id="a_edge15_Node000001_Node000015"><a xlink:title=" ">
<path fill="none" stroke="#9a32cd" stroke-dasharray="5,2" d="M989.43,-229.15C1029.18,-232.68 1082.73,-238.39 1129.5,-246.65 1135.26,-247.67 1141.27,-248.9 1147.22,-250.22"/>
<polygon fill="#9a32cd" stroke="#9a32cd" points="989.86,-225.59 979.6,-228.21 989.26,-232.56 989.86,-225.59"/>
</a>
</g>
<text text-anchor="middle" x="1072.5" y="-249.15" font-family="Helvetica,sans-Serif" font-size="10.00" fill="grey"> _rss_state_snapshot</text>
</g>
<!-- Node16 -->
<g id="Node000016" class="node">
<title>Node16</title>
<g id="a_Node000016"><a xlink:title=" ">
<polygon fill="white" stroke="#666666" points="977.25,-196.65 881.75,-196.65 881.75,-176.65 977.25,-176.65 977.25,-196.65"/>
<text text-anchor="middle" x="929.5" y="-183.15" font-family="Helvetica,sans-Serif" font-size="10.00">SituationSnapshot</text>
</a>
</g>
</g>
<!-- Node16&#45;&gt;Node1 -->
<g id="edge16_Node000001_Node000016" class="edge">
<title>Node16&#45;&gt;Node1</title>
<g id="a_edge16_Node000001_Node000016"><a xlink:title=" ">
<path fill="none" stroke="#9a32cd" stroke-dasharray="5,2" d="M988.4,-187.87C1029.15,-190.43 1084.27,-197.4 1129.5,-215.65 1147.28,-222.83 1164.79,-235.78 1177.23,-246.28"/>
<polygon fill="#9a32cd" stroke="#9a32cd" points="988.75,-184.32 978.57,-187.27 988.36,-191.31 988.75,-184.32"/>
</a>
</g>
<text text-anchor="middle" x="1072.5" y="-218.15" font-family="Helvetica,sans-Serif" font-size="10.00" fill="grey"> _situation_snapshot</text>
</g>
<!-- Node17 -->
<g id="Node000017" class="node">
<title>Node17</title>
<g id="a_Node000017"><a xlink:title=" ">
<polygon fill="white" stroke="#666666" points="963.38,-158.65 895.62,-158.65 895.62,-138.65 963.38,-138.65 963.38,-158.65"/>
<text text-anchor="middle" x="929.5" y="-145.15" font-family="Helvetica,sans-Serif" font-size="10.00">WorldModel</text>
</a>
</g>
</g>
<!-- Node17&#45;&gt;Node1 -->
<g id="edge17_Node000001_Node000017" class="edge">
<title>Node17&#45;&gt;Node1</title>
<g id="a_edge17_Node000001_Node000017"><a xlink:title=" ">
<path fill="none" stroke="#9a32cd" stroke-dasharray="5,2" d="M974.52,-144.61C1017.08,-142.8 1081.95,-145.74 1129.5,-173.65 1158.29,-190.54 1178.2,-225.59 1188.01,-246.31"/>
<polygon fill="#9a32cd" stroke="#9a32cd" points="974.47,-141.16 964.67,-145.19 974.84,-148.15 974.47,-141.16"/>
</a>
</g>
<text text-anchor="middle" x="1072.5" y="-176.15" font-family="Helvetica,sans-Serif" font-size="10.00" fill="grey"> _world_model</text>
</g>
<!-- Node18&#45;&gt;Node1 -->
<g id="edge18_Node000001_Node000018" class="edge">
<title>Node18&#45;&gt;Node1</title>
<g id="a_edge18_Node000001_Node000018"><a xlink:title=" ">
<path fill="none" stroke="#9a32cd" stroke-dasharray="5,2" d="M1008.25,-297.54C1045.13,-292.75 1089.74,-286.28 1129.5,-278.65 1135.25,-277.55 1141.25,-276.26 1147.19,-274.91"/>
<polygon fill="#9a32cd" stroke="#9a32cd" points="1008.04,-294.16 998.56,-298.91 1008.93,-301.11 1008.04,-294.16"/>
</a>
</g>
<text text-anchor="middle" x="1072.5" y="-298.15" font-family="Helvetica,sans-Serif" font-size="10.00" fill="grey"> _ego_dynamics_on_route</text>
</g>
<!-- Node19&#45;&gt;Node18 -->
<g id="edge19_Node000018_Node000019" class="edge">
<title>Node19&#45;&gt;Node18</title>
<g id="a_edge19_Node000018_Node000019"><a xlink:title=" ">
<path fill="none" stroke="#9a32cd" stroke-dasharray="5,2" d="M724.5,-131.82C774.74,-136.21 834.93,-143.13 843.5,-151.65 884.87,-192.77 825.02,-236.13 861.5,-281.65 864.14,-284.94 867.26,-287.8 870.69,-290.29"/>
<polygon fill="#9a32cd" stroke="#9a32cd" points="724.89,-128.26 714.63,-130.9 724.29,-135.24 724.89,-128.26"/>
</a>
</g>
<text text-anchor="middle" x="792.12" y="-154.15" font-family="Helvetica,sans-Serif" font-size="10.00" fill="grey"> timestamp</text>
</g>
<!-- Node20 -->
<g id="Node000020" class="node">
<title>Node20</title>
<g id="a_Node000020"><a xlink:title=" ">
<polygon fill="white" stroke="#666666" points="428.5,-101.65 386.25,-101.65 386.25,-81.65 428.5,-81.65 428.5,-101.65"/>
<text text-anchor="middle" x="407.38" y="-88.15" font-family="Helvetica,sans-Serif" font-size="10.00">size_t</text>
</a>
</g>
</g>
<!-- Node20&#45;&gt;Node19 -->
<g id="edge20_Node000019_Node000020" class="edge">
<title>Node20&#45;&gt;Node19</title>
<g id="a_edge20_Node000019_Node000020"><a xlink:title=" ">
<path fill="none" stroke="#9a32cd" stroke-dasharray="5,2" d="M439.87,-88.49C471.88,-86.06 522.74,-84.36 565.75,-92.65 572.05,-93.86 603.89,-106.69 627.12,-116.23"/>
<polygon fill="#9a32cd" stroke="#9a32cd" points="439.66,-85.08 429.98,-89.4 440.24,-92.05 439.66,-85.08"/>
</a>
</g>
<text text-anchor="middle" x="523" y="-95.15" font-family="Helvetica,sans-Serif" font-size="10.00" fill="grey"> frame</text>
</g>
<!-- Node21 -->
<g id="Node000021" class="node">
<title>Node21</title>
<g id="a_Node000021"><a xlink:title=" ">
<polygon fill="white" stroke="#666666" points="675.12,-30.65 631.38,-30.65 631.38,-10.65 675.12,-10.65 675.12,-30.65"/>
<text text-anchor="middle" x="653.25" y="-17.15" font-family="Helvetica,sans-Serif" font-size="10.00">Speed</text>
</a>
</g>
</g>
<!-- Node21&#45;&gt;Node18 -->
<g id="edge23_Node000018_Node000021" class="edge">
<title>Node21&#45;&gt;Node18</title>
<g id="a_edge23_Node000018_Node000021"><a xlink:title=" ">
<path fill="none" stroke="#9a32cd" stroke-dasharray="5,2" d="M685.8,-10.74C727.9,0.31 801.93,11.74 843.5,-28.65 883.92,-67.93 827.73,-236.52 861.5,-281.65 863.95,-284.93 866.89,-287.78 870.14,-290.26"/>
<polygon fill="#9a32cd" stroke="#9a32cd" points="685.03,-7.6 676.33,-13.65 686.9,-14.34 685.03,-7.6"/>
</a>
</g>
<text text-anchor="middle" x="792.12" y="-55.15" font-family="Helvetica,sans-Serif" font-size="10.00" fill="grey"> ego_speed</text>
<text text-anchor="middle" x="792.12" y="-43.15" font-family="Helvetica,sans-Serif" font-size="10.00" fill="grey">route_speed_lat</text>
<text text-anchor="middle" x="792.12" y="-31.15" font-family="Helvetica,sans-Serif" font-size="10.00" fill="grey">route_speed_lon</text>
</g>
<!-- Node22 -->
<g id="Node000022" class="node">
<title>Node22</title>
<g id="a_Node000022"><a xlink:title=" ">
<polygon fill="white" stroke="#666666" points="680.38,-439.65 626.12,-439.65 626.12,-419.65 680.38,-419.65 680.38,-439.65"/>
<text text-anchor="middle" x="653.25" y="-426.15" font-family="Helvetica,sans-Serif" font-size="10.00">Distance</text>
</a>
</g>
</g>
<!-- Node22&#45;&gt;Node18 -->
<g id="edge24_Node000018_Node000022" class="edge">
<title>Node22&#45;&gt;Node18</title>
<g id="a_edge24_Node000018_Node000022"><a xlink:title=" ">
<path fill="none" stroke="#9a32cd" stroke-dasharray="5,2" d="M691.47,-428.55C738.96,-426.6 818.01,-421.36 843.5,-407.65 879.83,-388.11 907.09,-346.11 920.08,-322.9"/>
<polygon fill="#9a32cd" stroke="#9a32cd" points="691.56,-425.08 681.7,-428.96 691.82,-432.08 691.56,-425.08"/>
</a>
</g>
<text text-anchor="middle" x="792.12" y="-427.15" font-family="Helvetica,sans-Serif" font-size="10.00" fill="grey"> min_stopping_distance</text>
</g>
<!-- Node23 -->
<g id="Node000023" class="node">
<title>Node23</title>
<g id="a_Node000023"><a xlink:title=" ">
<polygon fill="white" stroke="#666666" points="682.62,-392.65 623.88,-392.65 623.88,-372.65 682.62,-372.65 682.62,-392.65"/>
<text text-anchor="middle" x="653.25" y="-379.15" font-family="Helvetica,sans-Serif" font-size="10.00">ENUPoint</text>
</a>
</g>
</g>
<!-- Node23&#45;&gt;Node18 -->
<g id="edge25_Node000018_Node000023" class="edge">
<title>Node23&#45;&gt;Node18</title>
<g id="a_edge25_Node000018_Node000023"><a xlink:title=" ">
<path fill="none" stroke="#9a32cd" stroke-dasharray="5,2" d="M693.95,-383.14C733.07,-382.45 793.99,-378.21 843.5,-360.65 867.72,-352.06 892.15,-335.53 908.57,-323.01"/>
<polygon fill="#9a32cd" stroke="#9a32cd" points="694,-379.65 684.04,-383.25 694.07,-386.65 694,-379.65"/>
</a>
</g>
<text text-anchor="middle" x="792.12" y="-394.15" font-family="Helvetica,sans-Serif" font-size="10.00" fill="grey"> ego_center</text>
<text text-anchor="middle" x="792.12" y="-382.15" font-family="Helvetica,sans-Serif" font-size="10.00" fill="grey">route_nominal_center</text>
</g>
<!-- Node24 -->
<g id="Node000024" class="node">
<title>Node24</title>
<g id="a_Node000024"><a xlink:title=" ">
<polygon fill="white" stroke="#666666" points="689,-339.65 617.5,-339.65 617.5,-319.65 689,-319.65 689,-339.65"/>
<text text-anchor="middle" x="653.25" y="-326.15" font-family="Helvetica,sans-Serif" font-size="10.00">ENUHeading</text>
</a>
</g>
</g>
<!-- Node24&#45;&gt;Node18 -->
<g id="edge26_Node000018_Node000024" class="edge">
<title>Node24&#45;&gt;Node18</title>
<g id="a_edge26_Node000018_Node000024"><a xlink:title=" ">
<path fill="none" stroke="#9a32cd" stroke-dasharray="5,2" d="M700.21,-325.8C744.22,-322.1 811.13,-316.49 861.15,-312.3"/>
<polygon fill="#9a32cd" stroke="#9a32cd" points="699.94,-322.39 690.26,-326.71 700.52,-329.37 699.94,-322.39"/>
</a>
</g>
<text text-anchor="middle" x="792.12" y="-348.15" font-family="Helvetica,sans-Serif" font-size="10.00" fill="grey"> ego_heading</text>
<text text-anchor="middle" x="792.12" y="-336.15" font-family="Helvetica,sans-Serif" font-size="10.00" fill="grey">heading_diff</text>
<text text-anchor="middle" x="792.12" y="-324.15" font-family="Helvetica,sans-Serif" font-size="10.00" fill="grey">route_heading</text>
</g>
<!-- Node25 -->
<g id="Node000025" class="node">
<title>Node25</title>
<g id="a_Node000025"><a xlink:title=" ">
<polygon fill="white" stroke="#666666" points="695.38,-301.65 611.12,-301.65 611.12,-281.65 695.38,-281.65 695.38,-301.65"/>
<text text-anchor="middle" x="653.25" y="-288.15" font-family="Helvetica,sans-Serif" font-size="10.00">AngularVelocity</text>
</a>
</g>
</g>
<!-- Node25&#45;&gt;Node18 -->
<g id="edge27_Node000018_Node000025" class="edge">
<title>Node25&#45;&gt;Node18</title>
<g id="a_edge27_Node000018_Node000025"><a xlink:title=" ">
<path fill="none" stroke="#9a32cd" stroke-dasharray="5,2" d="M706.54,-288.04C744.61,-286.16 797.37,-285.08 843.5,-289.65 849.34,-290.23 855.37,-291.02 861.41,-291.96"/>
<polygon fill="#9a32cd" stroke="#9a32cd" points="706.51,-284.59 696.71,-288.62 706.88,-291.58 706.51,-284.59"/>
</a>
</g>
<text text-anchor="middle" x="792.12" y="-292.15" font-family="Helvetica,sans-Serif" font-size="10.00" fill="grey"> ego_heading_change</text>
</g>
<!-- Node26 -->
<g id="Node000026" class="node">
<title>Node26</title>
<g id="a_Node000026"><a xlink:title=" ">
<polygon fill="white" stroke="#666666" points="673.62,-263.65 632.88,-263.65 632.88,-243.65 673.62,-243.65 673.62,-263.65"/>
<text text-anchor="middle" x="653.25" y="-250.15" font-family="Helvetica,sans-Serif" font-size="10.00">Angle</text>
</a>
</g>
</g>
<!-- Node26&#45;&gt;Node18 -->
<g id="edge28_Node000018_Node000026" class="edge">
<title>Node26&#45;&gt;Node18</title>
<g id="a_edge28_Node000018_Node000026"><a xlink:title=" ">
<path fill="none" stroke="#9a32cd" stroke-dasharray="5,2" d="M684.89,-251.64C723.14,-250.15 790.04,-250.97 843.5,-269.65 852.58,-272.82 852.94,-277.27 861.5,-281.65 867.47,-284.7 873.9,-287.58 880.34,-290.22"/>
<polygon fill="#9a32cd" stroke="#9a32cd" points="684.81,-248.18 674.99,-252.15 685.14,-255.18 684.81,-248.18"/>
</a>
</g>
<text text-anchor="middle" x="792.12" y="-272.15" font-family="Helvetica,sans-Serif" font-size="10.00" fill="grey"> ego_steering_angle</text>
</g>
<!-- Node27 -->
<g id="Node000027" class="node">
<title>Node27</title>
<g id="a_Node000027"><a xlink:title=" ">
<polygon fill="white" stroke="#666666" points="688.25,-89.65 618.25,-89.65 618.25,-69.65 688.25,-69.65 688.25,-89.65"/>
<text text-anchor="middle" x="653.25" y="-76.15" font-family="Helvetica,sans-Serif" font-size="10.00">Acceleration</text>
</a>
</g>
</g>
<!-- Node27&#45;&gt;Node18 -->
<g id="edge30_Node000018_Node000027" class="edge">
<title>Node27&#45;&gt;Node18</title>
<g id="a_edge30_Node000018_Node000027"><a xlink:title=" ">
<path fill="none" stroke="#9a32cd" stroke-dasharray="5,2" d="M699.36,-73.49C748.65,-67.87 823.31,-62.99 843.5,-81.65 876.28,-111.93 834.43,-246.17 861.5,-281.65 863.99,-284.91 866.94,-287.74 870.21,-290.2"/>
<polygon fill="#9a32cd" stroke="#9a32cd" points="699.16,-70.11 689.64,-74.77 699.99,-77.06 699.16,-70.11"/>
</a>
</g>
<text text-anchor="middle" x="792.12" y="-120.15" font-family="Helvetica,sans-Serif" font-size="10.00" fill="grey"> avg_route_accel_lat</text>
<text text-anchor="middle" x="792.12" y="-108.15" font-family="Helvetica,sans-Serif" font-size="10.00" fill="grey">avg_route_accel_lon</text>
<text text-anchor="middle" x="792.12" y="-96.15" font-family="Helvetica,sans-Serif" font-size="10.00" fill="grey">route_accel_lat</text>
<text text-anchor="middle" x="792.12" y="-84.15" font-family="Helvetica,sans-Serif" font-size="10.00" fill="grey">route_accel_lon</text>
</g>
</g>
</svg>
