<?xml version="1.0" encoding="UTF-8" standalone="no"?>
<!DOCTYPE svg PUBLIC "-//W3C//DTD SVG 1.1//EN"
 "http://www.w3.org/Graphics/SVG/1.1/DTD/svg11.dtd">
<!-- Generated by graphviz version 8.1.0 (20230707.0739)
 -->
<!-- Title: NavSatStatusPubSubTypes.h Pages: 1 -->
<svg width="383pt" height="140pt"
 viewBox="0.00 0.00 383.12 140.00" xmlns="http://www.w3.org/2000/svg" xmlns:xlink="http://www.w3.org/1999/xlink">

<svg id="main" version="1.1" xmlns="http://www.w3.org/2000/svg" xmlns:xlink="http://www.w3.org/1999/xlink" xml:space="preserve" onload="init(evt)">
<style type="text/css"><![CDATA[
.node, .edge {opacity: 0.7;}
.node.selected, .edge.selected {opacity: 1;}
.edge:hover path { stroke: red; }
.edge:hover polygon { stroke: red; fill: red; }
]]></style>
<script type="application/ecmascript" xlink:href="../../svg.min.js"/>
<svg id="graph" class="graph">
<g id="graph0" class="graph" transform="scale(1 1) rotate(0) translate(4 136)">
<title>NavSatStatusPubSubTypes.h</title>
<!-- Node1 -->
<g id="Node000001" class="node">
<title>Node1</title>
<g id="a_Node000001"><a xlink:title=" ">
<polygon fill="#999999" stroke="#666666" points="289.88,-132 145.62,-132 145.62,-112 289.88,-112 289.88,-132"/>
<text text-anchor="middle" x="217.75" y="-118.5" font-family="Helvetica,sans-Serif" font-size="10.00">NavSatStatusPubSubTypes.h</text>
</a>
</g>
</g>
<!-- Node2 -->
<g id="Node000002" class="node">
<title>Node2</title>
<g id="a_Node000002"><a xlink:href="../../d4/d34/NavSatFixPubSubTypes_8h.html" target="_top" xlink:title=" ">
<polygon fill="white" stroke="#666666" points="202.38,-76 73.12,-76 73.12,-56 202.38,-56 202.38,-76"/>
<text text-anchor="middle" x="137.75" y="-62.5" font-family="Helvetica,sans-Serif" font-size="10.00">NavSatFixPubSubTypes.h</text>
</a>
</g>
</g>
<!-- Node1&#45;&gt;Node2 -->
<g id="edge1_Node000001_Node000002" class="edge">
<title>Node1&#45;&gt;Node2</title>
<g id="a_edge1_Node000001_Node000002"><a xlink:title=" ">
<path fill="none" stroke="#63b8ff" d="M194.85,-105.54C180.96,-96.17 163.68,-84.51 151.79,-76.48"/>
<polygon fill="#63b8ff" stroke="#63b8ff" points="192.57,-108.9 202.82,-111.59 196.48,-103.1 192.57,-108.9"/>
</a>
</g>
</g>
<!-- Node5 -->
<g id="Node000005" class="node">
<title>Node5</title>
<g id="a_Node000005"><a xlink:href="../../db/df8/NavSatStatusPubSubTypes_8cpp.html" target="_top" xlink:title=" ">
<polygon fill="white" stroke="#666666" points="375.12,-76 220.38,-76 220.38,-56 375.12,-56 375.12,-76"/>
<text text-anchor="middle" x="297.75" y="-62.5" font-family="Helvetica,sans-Serif" font-size="10.00">NavSatStatusPubSubTypes.cpp</text>
</a>
</g>
</g>
<!-- Node1&#45;&gt;Node5 -->
<g id="edge4_Node000001_Node000005" class="edge">
<title>Node1&#45;&gt;Node5</title>
<g id="a_edge4_Node000001_Node000005"><a xlink:title=" ">
<path fill="none" stroke="#63b8ff" d="M240.65,-105.54C254.54,-96.17 271.82,-84.51 283.71,-76.48"/>
<polygon fill="#63b8ff" stroke="#63b8ff" points="239.02,-103.1 232.68,-111.59 242.93,-108.9 239.02,-103.1"/>
</a>
</g>
</g>
<!-- Node3 -->
<g id="Node000003" class="node">
<title>Node3</title>
<g id="a_Node000003"><a xlink:href="../../d6/d5f/CarlaGNSSPublisher_8cpp.html" target="_top" xlink:title=" ">
<polygon fill="white" stroke="#666666" points="125.5,-20 0,-20 0,0 125.5,0 125.5,-20"/>
<text text-anchor="middle" x="62.75" y="-6.5" font-family="Helvetica,sans-Serif" font-size="10.00">CarlaGNSSPublisher.cpp</text>
</a>
</g>
</g>
<!-- Node2&#45;&gt;Node3 -->
<g id="edge2_Node000002_Node000003" class="edge">
<title>Node2&#45;&gt;Node3</title>
<g id="a_edge2_Node000002_Node000003"><a xlink:title=" ">
<path fill="none" stroke="#63b8ff" d="M115.9,-49.27C102.95,-39.94 86.96,-28.43 75.92,-20.48"/>
<polygon fill="#63b8ff" stroke="#63b8ff" points="113.53,-52.59 123.69,-55.59 117.62,-46.91 113.53,-52.59"/>
</a>
</g>
</g>
<!-- Node4 -->
<g id="Node000004" class="node">
<title>Node4</title>
<g id="a_Node000004"><a xlink:href="../../d4/de5/NavSatFixPubSubTypes_8cpp.html" target="_top" xlink:title=" ">
<polygon fill="white" stroke="#666666" points="283.62,-20 143.88,-20 143.88,0 283.62,0 283.62,-20"/>
<text text-anchor="middle" x="213.75" y="-6.5" font-family="Helvetica,sans-Serif" font-size="10.00">NavSatFixPubSubTypes.cpp</text>
</a>
</g>
</g>
<!-- Node2&#45;&gt;Node4 -->
<g id="edge3_Node000002_Node000004" class="edge">
<title>Node2&#45;&gt;Node4</title>
<g id="a_edge3_Node000002_Node000004"><a xlink:title=" ">
<path fill="none" stroke="#63b8ff" d="M159.89,-49.27C173.02,-39.94 189.22,-28.43 200.41,-20.48"/>
<polygon fill="#63b8ff" stroke="#63b8ff" points="158.11,-46.95 151.99,-55.59 162.17,-52.65 158.11,-46.95"/>
</a>
</g>
</g>
</g>
</svg>
</svg>

<style type='text/css'>
<![CDATA[
[data-mouse-over-selected='false'] { opacity: 0.7; }
[data-mouse-over-selected='true']  { opacity: 1.0; }
]]>
</style>
<script type="application/ecmascript"><![CDATA[
document.addEventListener('DOMContentLoaded', (event) => {
  highlightEdges();
  highlightAdjacentNodes();
});
]]></script>
</svg>
