<?xml version="1.0" encoding="UTF-8" standalone="no"?>
<!DOCTYPE svg PUBLIC "-//W3C//DTD SVG 1.1//EN"
 "http://www.w3.org/Graphics/SVG/1.1/DTD/svg11.dtd">
<!-- Generated by graphviz version 8.1.0 (20230707.0739)
 -->
<!-- Title: ARoutePlanner::Init Pages: 1 -->
<!--zoomable 128 -->

<svg id="main" version="1.1" xmlns="http://www.w3.org/2000/svg" xmlns:xlink="http://www.w3.org/1999/xlink" xml:space="preserve" onload="init(evt)">
<style type="text/css"><![CDATA[
.node, .edge {opacity: 0.7;}
.node.selected, .edge.selected {opacity: 1;}
.edge:hover path { stroke: red; }
.edge:hover polygon { stroke: red; fill: red; }
]]></style>

<defs>
  <circle id="rim" cx="0" cy="0" r="7"/>
  <circle id="rim2" cx="0" cy="0" r="3.5"/>
  <g id="zoomPlus">
    <use xlink:href="#rim" fill="#404040"><set attributeName="fill" to="#808080" begin="zoomplus.mouseover" end="zoomplus.mouseout"/></use>
    <path d="M-4,0h8M0,-4v8" fill="none" stroke="white" stroke-width="1.5" pointer-events="none"/>
  </g>
  <g id="zoomMin">
    <use xlink:href="#rim" fill="#404040"><set attributeName="fill" to="#808080" begin="zoomminus.mouseover" end="zoomminus.mouseout"/></use>
    <path d="M-4,0h8" fill="none" stroke="white" stroke-width="1.5" pointer-events="none"/>
  </g>
  <g id="arrowUp" transform="translate(30 24)">
    <use xlink:href="#rim"/>
    <path pointer-events="none" fill="none" stroke="white" stroke-width="1.5" d="M0,-3.0v7 M-2.5,-0.5L0,-3.0L2.5,-0.5"/>
  </g>
  <g id="arrowRight" transform="rotate(90) translate(36 -43)">
    <use xlink:href="#rim"/>
    <path pointer-events="none" fill="none" stroke="white" stroke-width="1.5" d="M0,-3.0v7 M-2.5,-0.5L0,-3.0L2.5,-0.5"/>
  </g>
  <g id="arrowDown" transform="rotate(180) translate(-30 -48)">
    <use xlink:href="#rim"/>
    <path pointer-events="none" fill="none" stroke="white" stroke-width="1.5" d="M0,-3.0v7 M-2.5,-0.5L0,-3.0L2.5,-0.5"/>
  </g>
  <g id="arrowLeft" transform="rotate(270) translate(-36 17)">
    <use xlink:href="#rim"/>
    <path pointer-events="none" fill="none" stroke="white" stroke-width="1.5" d="M0,-3.0v7 M-2.5,-0.5L0,-3.0L2.5,-0.5"/>
  </g>
  <g id="resetDef">
    <use xlink:href="#rim2" fill="#404040"><set attributeName="fill" to="#808080" begin="reset.mouseover" end="reset.mouseout"/></use>
  </g>
</defs>
<script type="application/ecmascript">
var viewWidth = 819;
var viewHeight = 128;
var sectionId = 'dynsection-9';
</script>
<script type="application/ecmascript" xlink:href="../../svg.min.js"/>
<svg id="graph" class="graph">
<g id="viewport">
<title>ARoutePlanner::Init</title>
<!-- Node1 -->
<g id="Node000001" class="node">
<title>Node1</title>
<g id="a_Node000001"><a xlink:title=" ">
<polygon fill="#999999" stroke="#666666" points="100,-70 0,-70 0,-50 100,-50 100,-70"/>
<text text-anchor="middle" x="50" y="-56.5" font-family="Helvetica,sans-Serif" font-size="10.00">ARoutePlanner::Init</text>
</a>
</g>
</g>
<!-- Node2 -->
<g id="Node000002" class="node">
<title>Node2</title>
<g id="a_Node000002"><a xlink:href="../../de/d45/RoutePlanner_8cpp.html#a99e9a133abf38f0bd639179b5e0c40b2" target="_top" xlink:title=" ">
<polygon fill="white" stroke="#666666" points="236.75,-92 164.5,-92 164.5,-72 236.75,-72 236.75,-92"/>
<text text-anchor="middle" x="200.62" y="-78.5" font-family="Helvetica,sans-Serif" font-size="10.00">IsSplineValid</text>
</a>
</g>
</g>
<!-- Node1&#45;&gt;Node2 -->
<g id="edge1_Node000001_Node000002" class="edge">
<title>Node1&#45;&gt;Node2</title>
<g id="a_edge1_Node000001_Node000002"><a xlink:title=" ">
<path fill="none" stroke="#63b8ff" d="M100.49,-67.33C117.67,-69.87 136.85,-72.71 153.72,-75.21"/>
<polygon fill="#63b8ff" stroke="#63b8ff" points="153.03,-78.79 163.44,-76.79 154.06,-71.86 153.03,-78.79"/>
</a>
</g>
</g>
<!-- Node3 -->
<g id="Node000003" class="node">
<title>Node3</title>
<g id="a_Node000003"><a xlink:href="../../dc/d0f/classARoutePlanner.html#aa21655e46a7c9c7cd6f18ab89ecf66d5" target="_top" xlink:title=" ">
<polygon fill="white" stroke="#666666" points="265.25,-54 136,-54 136,-22 265.25,-22 265.25,-54"/>
<text text-anchor="start" x="144" y="-40.5" font-family="Helvetica,sans-Serif" font-size="10.00">ARoutePlanner::OnTrigger</text>
<text text-anchor="middle" x="200.62" y="-28.5" font-family="Helvetica,sans-Serif" font-size="10.00">BeginOverlap</text>
</a>
</g>
</g>
<!-- Node1&#45;&gt;Node3 -->
<g id="edge2_Node000001_Node000003" class="edge">
<title>Node1&#45;&gt;Node3</title>
<g id="a_edge2_Node000001_Node000003"><a xlink:title=" ">
<path fill="none" stroke="#63b8ff" d="M100.49,-52.67C108.3,-51.52 116.52,-50.3 124.75,-49.08"/>
<polygon fill="#63b8ff" stroke="#63b8ff" points="125.17,-52.41 134.54,-47.49 124.14,-45.49 125.17,-52.41"/>
</a>
</g>
</g>
<!-- Node4 -->
<g id="Node000004" class="node">
<title>Node4</title>
<g id="a_Node000004"><a xlink:href="../../dc/d0f/classARoutePlanner.html#a92310180fe5bcd5987dc9d7df410b7c1" target="_top" xlink:title=" ">
<polygon fill="white" stroke="#666666" points="454.5,-76 301.25,-76 301.25,-44 454.5,-44 454.5,-76"/>
<text text-anchor="start" x="309.25" y="-62.5" font-family="Helvetica,sans-Serif" font-size="10.00">ARoutePlanner::AssignRandom</text>
<text text-anchor="middle" x="377.88" y="-50.5" font-family="Helvetica,sans-Serif" font-size="10.00">Route</text>
</a>
</g>
</g>
<!-- Node3&#45;&gt;Node4 -->
<g id="edge3_Node000003_Node000004" class="edge">
<title>Node3&#45;&gt;Node4</title>
<g id="a_edge3_Node000003_Node000004"><a xlink:title=" ">
<path fill="none" stroke="#63b8ff" d="M265.39,-46C273.42,-47.01 281.74,-48.06 290.05,-49.1"/>
<polygon fill="#63b8ff" stroke="#63b8ff" points="289.58,-52.69 299.94,-50.47 290.46,-45.75 289.58,-52.69"/>
</a>
</g>
</g>
<!-- Node10 -->
<g id="Node000010" class="node">
<title>Node10</title>
<g id="a_Node000010"><a xlink:href="../../de/d45/RoutePlanner_8cpp.html#a31d5741c4c3fa84473596436bfc74fba" target="_top" xlink:title=" ">
<polygon fill="white" stroke="#666666" points="430.5,-26 325.25,-26 325.25,-6 430.5,-6 430.5,-26"/>
<text text-anchor="middle" x="377.88" y="-12.5" font-family="Helvetica,sans-Serif" font-size="10.00">GetVehicleController</text>
</a>
</g>
</g>
<!-- Node3&#45;&gt;Node10 -->
<g id="edge9_Node000003_Node000010" class="edge">
<title>Node3&#45;&gt;Node10</title>
<g id="a_edge9_Node000003_Node000010"><a xlink:title=" ">
<path fill="none" stroke="#63b8ff" d="M265.39,-30C281.29,-28 298.33,-25.86 314.18,-23.87"/>
<polygon fill="#63b8ff" stroke="#63b8ff" points="314.45,-27.24 323.94,-22.52 313.58,-20.29 314.45,-27.24"/>
</a>
</g>
</g>
<!-- Node5 -->
<g id="Node000005" class="node">
<title>Node5</title>
<g id="a_Node000005"><a xlink:href="../../dd/dea/classAWheeledVehicleAIController.html#a8cd92423de8bda9544f09752610927d3" target="_top" xlink:title=" ">
<polygon fill="white" stroke="#666666" points="634,-120 490.5,-120 490.5,-88 634,-88 634,-120"/>
<text text-anchor="start" x="498.5" y="-106.5" font-family="Helvetica,sans-Serif" font-size="10.00">AWheeledVehicleAIController</text>
<text text-anchor="middle" x="562.25" y="-94.5" font-family="Helvetica,sans-Serif" font-size="10.00">::GetRandomEngine</text>
</a>
</g>
</g>
<!-- Node4&#45;&gt;Node5 -->
<g id="edge4_Node000004_Node000005" class="edge">
<title>Node4&#45;&gt;Node5</title>
<g id="a_edge4_Node000004_Node000005"><a xlink:title=" ">
<path fill="none" stroke="#63b8ff" d="M447.04,-76.45C458.51,-79.21 470.49,-82.1 482.2,-84.93"/>
<polygon fill="#63b8ff" stroke="#63b8ff" points="481.32,-88.56 491.86,-87.5 482.96,-81.75 481.32,-88.56"/>
</a>
</g>
</g>
<!-- Node6 -->
<g id="Node000006" class="node">
<title>Node6</title>
<g id="a_Node000006"><a xlink:href="../../de/d45/RoutePlanner_8cpp.html#acff87aa2ba7cbb8197363d9e11811fc7" target="_top" xlink:title=" ">
<polygon fill="white" stroke="#666666" points="596.12,-70 528.38,-70 528.38,-50 596.12,-50 596.12,-70"/>
<text text-anchor="middle" x="562.25" y="-56.5" font-family="Helvetica,sans-Serif" font-size="10.00">PickARoute</text>
</a>
</g>
</g>
<!-- Node4&#45;&gt;Node6 -->
<g id="edge5_Node000004_Node000006" class="edge">
<title>Node4&#45;&gt;Node6</title>
<g id="a_edge5_Node000004_Node000006"><a xlink:title=" ">
<path fill="none" stroke="#63b8ff" d="M454.9,-60C476.2,-60 498.65,-60 517.4,-60"/>
<polygon fill="#63b8ff" stroke="#63b8ff" points="517.26,-63.5 527.26,-60 517.26,-56.5 517.26,-63.5"/>
</a>
</g>
</g>
<!-- Node8 -->
<g id="Node000008" class="node">
<title>Node8</title>
<g id="a_Node000008"><a xlink:href="../../dd/dea/classAWheeledVehicleAIController.html#abd1204b5a9676d4d21c172c8f6f0189e" target="_top" xlink:title="Set a fixed route to follow if autopilot is enabled.">
<polygon fill="white" stroke="#666666" points="634,-32 490.5,-32 490.5,0 634,0 634,-32"/>
<text text-anchor="start" x="498.5" y="-18.5" font-family="Helvetica,sans-Serif" font-size="10.00">AWheeledVehicleAIController</text>
<text text-anchor="middle" x="562.25" y="-6.5" font-family="Helvetica,sans-Serif" font-size="10.00">::SetFixedRoute</text>
</a>
</g>
</g>
<!-- Node4&#45;&gt;Node8 -->
<g id="edge7_Node000004_Node000008" class="edge">
<title>Node4&#45;&gt;Node8</title>
<g id="a_edge7_Node000004_Node000008"><a xlink:title=" ">
<path fill="none" stroke="#63b8ff" d="M447.04,-43.55C458.51,-40.79 470.49,-37.9 482.2,-35.07"/>
<polygon fill="#63b8ff" stroke="#63b8ff" points="482.96,-38.25 491.86,-32.5 481.32,-31.44 482.96,-38.25"/>
</a>
</g>
</g>
<!-- Node7 -->
<g id="Node000007" class="node">
<title>Node7</title>
<g id="a_Node000007"><a xlink:href="../../d2/d4b/classURandomEngine.html#a0131b345a19d79159629c710e3ef3e3b" target="_top" xlink:title=" ">
<polygon fill="white" stroke="#666666" points="811.25,-76 670,-76 670,-44 811.25,-44 811.25,-76"/>
<text text-anchor="start" x="678" y="-62.5" font-family="Helvetica,sans-Serif" font-size="10.00">URandomEngine::GetIntWith</text>
<text text-anchor="middle" x="740.62" y="-50.5" font-family="Helvetica,sans-Serif" font-size="10.00">Weight</text>
</a>
</g>
</g>
<!-- Node6&#45;&gt;Node7 -->
<g id="edge6_Node000006_Node000007" class="edge">
<title>Node6&#45;&gt;Node7</title>
<g id="a_edge6_Node000006_Node000007"><a xlink:title=" ">
<path fill="none" stroke="#63b8ff" d="M596.42,-60C614.18,-60 636.88,-60 658.95,-60"/>
<polygon fill="#63b8ff" stroke="#63b8ff" points="658.71,-63.5 668.71,-60 658.71,-56.5 658.71,-63.5"/>
</a>
</g>
</g>
<!-- Node9 -->
<g id="Node000009" class="node">
<title>Node9</title>
<g id="a_Node000009"><a xlink:href="../../d8/de0/WheeledVehicleAIController_8cpp.html#ab9ac127e37ab6847232563c41023b95f" target="_top" xlink:title=" ">
<polygon fill="white" stroke="#666666" points="774.12,-26 707.12,-26 707.12,-6 774.12,-6 774.12,-26"/>
<text text-anchor="middle" x="740.62" y="-12.5" font-family="Helvetica,sans-Serif" font-size="10.00">ClearQueue</text>
</a>
</g>
</g>
<!-- Node8&#45;&gt;Node9 -->
<g id="edge8_Node000008_Node000009" class="edge">
<title>Node8&#45;&gt;Node9</title>
<g id="a_edge8_Node000008_Node000009"><a xlink:title=" ">
<path fill="none" stroke="#63b8ff" d="M634.48,-16C655.32,-16 677.48,-16 696.05,-16"/>
<polygon fill="#63b8ff" stroke="#63b8ff" points="695.82,-19.5 705.82,-16 695.82,-12.5 695.82,-19.5"/>
</a>
</g>
</g>
</g>
</svg>

<g id="navigator" transform="translate(0 0)" fill="#404254">
  <rect fill="#f2f5e9" fill-opacity="0.5" stroke="#606060" stroke-width=".5" x="0" y="0" width="60" height="60"/>
  <use id="zoomplus" xlink:href="#zoomPlus" x="17" y="9" onmousedown="handleZoom(evt,'in')"/>
  <use id="zoomminus" xlink:href="#zoomMin" x="42" y="9" onmousedown="handleZoom(evt,'out')"/>
  <use id="reset" xlink:href="#resetDef" x="30" y="36" onmousedown="handleReset()"/>
   <use id="arrowup" xlink:href="#arrowUp" x="0" y="0" onmousedown="handlePan(0,-1)"/>
  <use id="arrowright" xlink:href="#arrowRight" x="0" y="0" onmousedown="handlePan(1,0)"/>
  <use id="arrowdown" xlink:href="#arrowDown" x="0" y="0" onmousedown="handlePan(0,1)"/>
  <use id="arrowleft" xlink:href="#arrowLeft" x="0" y="0" onmousedown="handlePan(-1,0)"/>
</g>
<svg viewBox="0 0 15 15" width="100%" height="30px" preserveAspectRatio="xMaxYMin meet">
 <g id="arrow_out" transform="scale(0.3 0.3)">
  <a xlink:href="classARoutePlanner_a26d76fc968a2d28f2c0ef50d3a98c1fc_cgraph_org.svg" target="_base">
   <rect id="button" ry="5" rx="5" y="6" x="6" height="38" width="38"
        fill="#f2f5e9" fill-opacity="0.5" stroke="#606060" stroke-width="1.0"/>
   <path id="arrow"
     d="M 11.500037,31.436501 C 11.940474,20.09759 22.043105,11.32322 32.158766,21.979434 L 37.068811,17.246167 C 37.068811,17.246167 37.088388,32 37.088388,32 L 22.160133,31.978069 C 22.160133,31.978069 26.997745,27.140456 26.997745,27.140456 C 18.528582,18.264221 13.291696,25.230495 11.500037,31.436501 z"
     style="fill:#404040;"/>
  </a>
 </g>
</svg>

<style type='text/css'>
<![CDATA[
[data-mouse-over-selected='false'] { opacity: 0.7; }
[data-mouse-over-selected='true']  { opacity: 1.0; }
]]>
</style>
<script type="application/ecmascript"><![CDATA[
document.addEventListener('DOMContentLoaded', (event) => {
  highlightEdges();
  highlightAdjacentNodes();
});
]]></script>
</svg>
