<?xml version="1.0" encoding="UTF-8" standalone="no"?>
<!DOCTYPE svg PUBLIC "-//W3C//DTD SVG 1.1//EN"
 "http://www.w3.org/Graphics/SVG/1.1/DTD/svg11.dtd">
<!-- Generated by graphviz version 8.1.0 (20230707.0739)
 -->
<!-- Title: carla::multigpu::PrimaryCommands::EnableForROS Pages: 1 -->
<!--zoomable 187 -->

<svg id="main" version="1.1" xmlns="http://www.w3.org/2000/svg" xmlns:xlink="http://www.w3.org/1999/xlink" xml:space="preserve" onload="init(evt)">
<style type="text/css"><![CDATA[
.node, .edge {opacity: 0.7;}
.node.selected, .edge.selected {opacity: 1;}
.edge:hover path { stroke: red; }
.edge:hover polygon { stroke: red; fill: red; }
]]></style>

<defs>
  <circle id="rim" cx="0" cy="0" r="7"/>
  <circle id="rim2" cx="0" cy="0" r="3.5"/>
  <g id="zoomPlus">
    <use xlink:href="#rim" fill="#404040"><set attributeName="fill" to="#808080" begin="zoomplus.mouseover" end="zoomplus.mouseout"/></use>
    <path d="M-4,0h8M0,-4v8" fill="none" stroke="white" stroke-width="1.5" pointer-events="none"/>
  </g>
  <g id="zoomMin">
    <use xlink:href="#rim" fill="#404040"><set attributeName="fill" to="#808080" begin="zoomminus.mouseover" end="zoomminus.mouseout"/></use>
    <path d="M-4,0h8" fill="none" stroke="white" stroke-width="1.5" pointer-events="none"/>
  </g>
  <g id="arrowUp" transform="translate(30 24)">
    <use xlink:href="#rim"/>
    <path pointer-events="none" fill="none" stroke="white" stroke-width="1.5" d="M0,-3.0v7 M-2.5,-0.5L0,-3.0L2.5,-0.5"/>
  </g>
  <g id="arrowRight" transform="rotate(90) translate(36 -43)">
    <use xlink:href="#rim"/>
    <path pointer-events="none" fill="none" stroke="white" stroke-width="1.5" d="M0,-3.0v7 M-2.5,-0.5L0,-3.0L2.5,-0.5"/>
  </g>
  <g id="arrowDown" transform="rotate(180) translate(-30 -48)">
    <use xlink:href="#rim"/>
    <path pointer-events="none" fill="none" stroke="white" stroke-width="1.5" d="M0,-3.0v7 M-2.5,-0.5L0,-3.0L2.5,-0.5"/>
  </g>
  <g id="arrowLeft" transform="rotate(270) translate(-36 17)">
    <use xlink:href="#rim"/>
    <path pointer-events="none" fill="none" stroke="white" stroke-width="1.5" d="M0,-3.0v7 M-2.5,-0.5L0,-3.0L2.5,-0.5"/>
  </g>
  <g id="resetDef">
    <use xlink:href="#rim2" fill="#404040"><set attributeName="fill" to="#808080" begin="reset.mouseover" end="reset.mouseout"/></use>
  </g>
</defs>
<script type="application/ecmascript">
var viewWidth = 822;
var viewHeight = 187;
var sectionId = 'dynsection-2';
</script>
<script type="application/ecmascript" xlink:href="../../svg.min.js"/>
<svg id="graph" class="graph">
<g id="viewport">
<title>carla::multigpu::PrimaryCommands::EnableForROS</title>
<!-- Node1 -->
<g id="Node000001" class="node">
<title>Node1</title>
<g id="a_Node000001"><a xlink:title=" ">
<polygon fill="#999999" stroke="#666666" points="136.75,-59 0,-59 0,-27 136.75,-27 136.75,-59"/>
<text text-anchor="start" x="8" y="-45.5" font-family="Helvetica,sans-Serif" font-size="10.00">carla::multigpu::Primary</text>
<text text-anchor="middle" x="68.38" y="-33.5" font-family="Helvetica,sans-Serif" font-size="10.00">Commands::EnableForROS</text>
</a>
</g>
</g>
<!-- Node1&#45;&gt;Node1 -->
<g id="edge1_Node000001_Node000001" class="edge">
<title>Node1&#45;&gt;Node1</title>
<g id="a_edge1_Node000001_Node000001"><a xlink:title=" ">
<path fill="none" stroke="#63b8ff" d="M35.53,-59.44C29.39,-68.58 40.34,-77 68.38,-77 84.58,-77 95.08,-74.19 99.86,-70.05"/>
<polygon fill="#63b8ff" stroke="#63b8ff" points="103.42,-70.81 101.22,-60.44 96.48,-69.92 103.42,-70.81"/>
</a>
</g>
</g>
<!-- Node2 -->
<g id="Node000002" class="node">
<title>Node2</title>
<g id="a_Node000002"><a xlink:href="../../da/da8/classcarla_1_1multigpu_1_1PrimaryCommands.html#a5c69feeed4dba60dbf699c444a0ac401" target="_top" xlink:title=" ">
<polygon fill="white" stroke="#666666" points="312.12,-100 192.62,-100 192.62,-68 312.12,-68 312.12,-100"/>
<text text-anchor="start" x="200.62" y="-86.5" font-family="Helvetica,sans-Serif" font-size="10.00">carla::multigpu::Primary</text>
<text text-anchor="middle" x="252.38" y="-74.5" font-family="Helvetica,sans-Serif" font-size="10.00">Commands::GetToken</text>
</a>
</g>
</g>
<!-- Node1&#45;&gt;Node2 -->
<g id="edge2_Node000001_Node000002" class="edge">
<title>Node1&#45;&gt;Node2</title>
<g id="a_edge2_Node000001_Node000002"><a xlink:title=" ">
<path fill="none" stroke="#63b8ff" d="M137.15,-58.27C151.7,-61.55 167.11,-65.02 181.74,-68.31"/>
<polygon fill="#63b8ff" stroke="#63b8ff" points="180.7,-71.89 191.23,-70.68 182.24,-65.06 180.7,-71.89"/>
</a>
</g>
</g>
<!-- Node9 -->
<g id="Node000009" class="node">
<title>Node9</title>
<g id="a_Node000009"><a xlink:href="../../da/da8/classcarla_1_1multigpu_1_1PrimaryCommands.html#a06d5a4cd883c0b12ac31eb4364849e25" target="_top" xlink:title=" ">
<polygon fill="white" stroke="#666666" points="332,-34 172.75,-34 172.75,-2 332,-2 332,-34"/>
<text text-anchor="start" x="180.75" y="-20.5" font-family="Helvetica,sans-Serif" font-size="10.00">carla::multigpu::Primary</text>
<text text-anchor="middle" x="252.38" y="-8.5" font-family="Helvetica,sans-Serif" font-size="10.00">Commands::SendEnableForROS</text>
</a>
</g>
</g>
<!-- Node1&#45;&gt;Node9 -->
<g id="edge10_Node000001_Node000009" class="edge">
<title>Node1&#45;&gt;Node9</title>
<g id="a_edge10_Node000001_Node000009"><a xlink:title=" ">
<path fill="none" stroke="#63b8ff" d="M137.15,-33.69C145.16,-32.59 153.42,-31.45 161.68,-30.32"/>
<polygon fill="#63b8ff" stroke="#63b8ff" points="162.07,-33.66 171.5,-28.83 161.11,-26.73 162.07,-33.66"/>
</a>
</g>
</g>
<!-- Node3 -->
<g id="Node000003" class="node">
<title>Node3</title>
<g id="a_Node000003"><a xlink:href="../../d9/d36/namespacecarla.html#afb6ca911605d1ec35bdf563de2814dba" target="_top" xlink:title=" ">
<polygon fill="white" stroke="#666666" points="479.62,-163 392.38,-163 392.38,-143 479.62,-143 479.62,-163"/>
<text text-anchor="middle" x="436" y="-149.5" font-family="Helvetica,sans-Serif" font-size="10.00">carla::log_debug</text>
</a>
</g>
</g>
<!-- Node2&#45;&gt;Node3 -->
<g id="edge3_Node000002_Node000003" class="edge">
<title>Node2&#45;&gt;Node3</title>
<g id="a_edge3_Node000002_Node000003"><a xlink:title=" ">
<path fill="none" stroke="#63b8ff" d="M296.42,-100.35C327.06,-111.99 367.85,-127.49 397.23,-138.65"/>
<polygon fill="#63b8ff" stroke="#63b8ff" points="395.91,-142.27 406.5,-142.55 398.4,-135.73 395.91,-142.27"/>
</a>
</g>
</g>
<!-- Node5 -->
<g id="Node000005" class="node">
<title>Node5</title>
<g id="a_Node000005"><a xlink:href="../../da/da8/classcarla_1_1multigpu_1_1PrimaryCommands.html#ab4d09fd63dc935c297966a919eab7ba4" target="_top" xlink:title=" ">
<polygon fill="white" stroke="#666666" points="504,-100 368,-100 368,-68 504,-68 504,-100"/>
<text text-anchor="start" x="376" y="-86.5" font-family="Helvetica,sans-Serif" font-size="10.00">carla::multigpu::Primary</text>
<text text-anchor="middle" x="436" y="-74.5" font-family="Helvetica,sans-Serif" font-size="10.00">Commands::SendGetToken</text>
</a>
</g>
</g>
<!-- Node2&#45;&gt;Node5 -->
<g id="edge5_Node000002_Node000005" class="edge">
<title>Node2&#45;&gt;Node5</title>
<g id="a_edge5_Node000002_Node000005"><a xlink:title=" ">
<path fill="none" stroke="#63b8ff" d="M312.59,-84C326.76,-84 342.09,-84 356.95,-84"/>
<polygon fill="#63b8ff" stroke="#63b8ff" points="356.67,-87.5 366.67,-84 356.67,-80.5 356.67,-87.5"/>
</a>
</g>
</g>
<!-- Node4 -->
<g id="Node000004" class="node">
<title>Node4</title>
<g id="a_Node000004"><a xlink:href="../../d2/d8c/namespacecarla_1_1logging.html#a4193666236852fb6a6977299a31445d8" target="_top" xlink:title=" ">
<polygon fill="white" stroke="#666666" points="813.5,-56 713.5,-56 713.5,-24 813.5,-24 813.5,-56"/>
<text text-anchor="start" x="721.5" y="-42.5" font-family="Helvetica,sans-Serif" font-size="10.00">carla::logging::write</text>
<text text-anchor="middle" x="763.5" y="-30.5" font-family="Helvetica,sans-Serif" font-size="10.00">_to_stream</text>
</a>
</g>
</g>
<!-- Node3&#45;&gt;Node4 -->
<g id="edge4_Node000003_Node000004" class="edge">
<title>Node3&#45;&gt;Node4</title>
<g id="a_edge4_Node000003_Node000004"><a xlink:title=" ">
<path fill="none" stroke="#63b8ff" d="M470.73,-163.48C519.42,-176.55 610.84,-193.31 677.5,-159 715.3,-139.55 740.01,-94.63 752.59,-65.89"/>
<polygon fill="#63b8ff" stroke="#63b8ff" points="756.05,-67.68 756.68,-57.11 749.59,-64.98 756.05,-67.68"/>
</a>
</g>
</g>
<!-- Node6 -->
<g id="Node000006" class="node">
<title>Node6</title>
<g id="a_Node000006"><a xlink:href="../../df/de1/classcarla_1_1streaming_1_1detail_1_1token__type.html#a91d1c24bee671b95702cd270275cc94c" target="_top" xlink:title=" ">
<polygon fill="white" stroke="#666666" points="666.25,-150 551.25,-150 551.25,-118 666.25,-118 666.25,-150"/>
<text text-anchor="start" x="559.25" y="-136.5" font-family="Helvetica,sans-Serif" font-size="10.00">carla::streaming::detail</text>
<text text-anchor="middle" x="608.75" y="-124.5" font-family="Helvetica,sans-Serif" font-size="10.00">::token_type::get_port</text>
</a>
</g>
</g>
<!-- Node5&#45;&gt;Node6 -->
<g id="edge6_Node000005_Node000006" class="edge">
<title>Node5&#45;&gt;Node6</title>
<g id="a_edge6_Node000005_Node000006"><a xlink:title=" ">
<path fill="none" stroke="#63b8ff" d="M492.91,-100.37C508.31,-104.88 525.16,-109.82 541.1,-114.48"/>
<polygon fill="#63b8ff" stroke="#63b8ff" points="539.84,-118.05 550.42,-117.51 541.81,-111.34 539.84,-118.05"/>
</a>
</g>
</g>
<!-- Node7 -->
<g id="Node000007" class="node">
<title>Node7</title>
<g id="a_Node000007"><a xlink:href="../../df/de1/classcarla_1_1streaming_1_1detail_1_1token__type.html#a2edd9e9111f8f91b47791baec38c5829" target="_top" xlink:title=" ">
<polygon fill="white" stroke="#666666" points="677.5,-100 540,-100 540,-68 677.5,-68 677.5,-100"/>
<text text-anchor="start" x="548" y="-86.5" font-family="Helvetica,sans-Serif" font-size="10.00">carla::streaming::detail</text>
<text text-anchor="middle" x="608.75" y="-74.5" font-family="Helvetica,sans-Serif" font-size="10.00">::token_type::get_stream_id</text>
</a>
</g>
</g>
<!-- Node5&#45;&gt;Node7 -->
<g id="edge7_Node000005_Node000007" class="edge">
<title>Node5&#45;&gt;Node7</title>
<g id="a_edge7_Node000005_Node000007"><a xlink:title=" ">
<path fill="none" stroke="#63b8ff" d="M504.48,-84C512.43,-84 520.6,-84 528.68,-84"/>
<polygon fill="#63b8ff" stroke="#63b8ff" points="528.64,-87.5 538.64,-84 528.64,-80.5 528.64,-87.5"/>
</a>
</g>
</g>
<!-- Node8 -->
<g id="Node000008" class="node">
<title>Node8</title>
<g id="a_Node000008"><a xlink:href="../../d9/d36/namespacecarla.html#a7d4c773703bac6e1ed8379a090228612" target="_top" xlink:title=" ">
<polygon fill="white" stroke="#666666" points="646.75,-50 570.75,-50 570.75,-30 646.75,-30 646.75,-50"/>
<text text-anchor="middle" x="608.75" y="-36.5" font-family="Helvetica,sans-Serif" font-size="10.00">carla::log_info</text>
</a>
</g>
</g>
<!-- Node5&#45;&gt;Node8 -->
<g id="edge8_Node000005_Node000008" class="edge">
<title>Node5&#45;&gt;Node8</title>
<g id="a_edge8_Node000005_Node000008"><a xlink:title=" ">
<path fill="none" stroke="#63b8ff" d="M500.58,-67.62C520.24,-62.55 541.55,-57.06 559.95,-52.32"/>
<polygon fill="#63b8ff" stroke="#63b8ff" points="560.6,-55.51 569.41,-49.62 558.85,-48.73 560.6,-55.51"/>
</a>
</g>
</g>
<!-- Node8&#45;&gt;Node4 -->
<g id="edge9_Node000008_Node000004" class="edge">
<title>Node8&#45;&gt;Node4</title>
<g id="a_edge9_Node000008_Node000004"><a xlink:title=" ">
<path fill="none" stroke="#63b8ff" d="M647.12,-40C663.73,-40 683.71,-40 702.34,-40"/>
<polygon fill="#63b8ff" stroke="#63b8ff" points="702.11,-43.5 712.11,-40 702.11,-36.5 702.11,-43.5"/>
</a>
</g>
</g>
<!-- Node10 -->
<g id="Node000010" class="node">
<title>Node10</title>
<g id="a_Node000010"><a xlink:href="../../d9/d36/namespacecarla.html#a7673dfc76e17f5856b798de6d0384b56" target="_top" xlink:title=" ">
<polygon fill="white" stroke="#666666" points="476.25,-20 395.75,-20 395.75,0 476.25,0 476.25,-20"/>
<text text-anchor="middle" x="436" y="-6.5" font-family="Helvetica,sans-Serif" font-size="10.00">carla::log_error</text>
</a>
</g>
</g>
<!-- Node9&#45;&gt;Node10 -->
<g id="edge11_Node000009_Node000010" class="edge">
<title>Node9&#45;&gt;Node10</title>
<g id="a_edge11_Node000009_Node000010"><a xlink:title=" ">
<path fill="none" stroke="#63b8ff" d="M332.25,-14.53C349.98,-13.74 368.33,-12.94 384.54,-12.22"/>
<polygon fill="#63b8ff" stroke="#63b8ff" points="384.54,-15.68 394.37,-11.75 384.23,-8.69 384.54,-15.68"/>
</a>
</g>
</g>
<!-- Node10&#45;&gt;Node4 -->
<g id="edge12_Node000010_Node000004" class="edge">
<title>Node10&#45;&gt;Node4</title>
<g id="a_edge12_Node000010_Node000004"><a xlink:title=" ">
<path fill="none" stroke="#63b8ff" d="M476.34,-9.7C524.12,-9.83 607.07,-11.59 677.5,-21 685.72,-22.1 694.32,-23.6 702.76,-25.28"/>
<polygon fill="#63b8ff" stroke="#63b8ff" points="701.82,-28.86 712.32,-27.48 703.25,-22.01 701.82,-28.86"/>
</a>
</g>
</g>
</g>
</svg>

<g id="navigator" transform="translate(0 0)" fill="#404254">
  <rect fill="#f2f5e9" fill-opacity="0.5" stroke="#606060" stroke-width=".5" x="0" y="0" width="60" height="60"/>
  <use id="zoomplus" xlink:href="#zoomPlus" x="17" y="9" onmousedown="handleZoom(evt,'in')"/>
  <use id="zoomminus" xlink:href="#zoomMin" x="42" y="9" onmousedown="handleZoom(evt,'out')"/>
  <use id="reset" xlink:href="#resetDef" x="30" y="36" onmousedown="handleReset()"/>
   <use id="arrowup" xlink:href="#arrowUp" x="0" y="0" onmousedown="handlePan(0,-1)"/>
  <use id="arrowright" xlink:href="#arrowRight" x="0" y="0" onmousedown="handlePan(1,0)"/>
  <use id="arrowdown" xlink:href="#arrowDown" x="0" y="0" onmousedown="handlePan(0,1)"/>
  <use id="arrowleft" xlink:href="#arrowLeft" x="0" y="0" onmousedown="handlePan(-1,0)"/>
</g>
<svg viewBox="0 0 15 15" width="100%" height="30px" preserveAspectRatio="xMaxYMin meet">
 <g id="arrow_out" transform="scale(0.3 0.3)">
  <a xlink:href="classcarla_1_1multigpu_1_1PrimaryCommands_a68a8f8ee0216b21fc3a337464b22fb01_cgraph_org.svg" target="_base">
   <rect id="button" ry="5" rx="5" y="6" x="6" height="38" width="38"
        fill="#f2f5e9" fill-opacity="0.5" stroke="#606060" stroke-width="1.0"/>
   <path id="arrow"
     d="M 11.500037,31.436501 C 11.940474,20.09759 22.043105,11.32322 32.158766,21.979434 L 37.068811,17.246167 C 37.068811,17.246167 37.088388,32 37.088388,32 L 22.160133,31.978069 C 22.160133,31.978069 26.997745,27.140456 26.997745,27.140456 C 18.528582,18.264221 13.291696,25.230495 11.500037,31.436501 z"
     style="fill:#404040;"/>
  </a>
 </g>
</svg>

<style type='text/css'>
<![CDATA[
[data-mouse-over-selected='false'] { opacity: 0.7; }
[data-mouse-over-selected='true']  { opacity: 1.0; }
]]>
</style>
<script type="application/ecmascript"><![CDATA[
document.addEventListener('DOMContentLoaded', (event) => {
  highlightEdges();
  highlightAdjacentNodes();
});
]]></script>
</svg>
