<?xml version="1.0" encoding="UTF-8" standalone="no"?>
<!DOCTYPE svg PUBLIC "-//W3C//DTD SVG 1.1//EN"
 "http://www.w3.org/Graphics/SVG/1.1/DTD/svg11.dtd">
<!-- Generated by graphviz version 8.1.0 (20230707.0739)
 -->
<!-- Title: carla::ros2::CarlaLineInvasionPublisher::SetData Pages: 1 -->
<svg width="297pt" height="90pt"
 viewBox="0.00 0.00 297.25 90.00" xmlns="http://www.w3.org/2000/svg" xmlns:xlink="http://www.w3.org/1999/xlink">
<g id="graph0" class="graph" transform="scale(1 1) rotate(0) translate(4 86)">
<title>carla::ros2::CarlaLineInvasionPublisher::SetData</title>
<!-- Node1 -->
<g id="Node000001" class="node">
<title>Node1</title>
<g id="a_Node000001"><a xlink:title=" ">
<polygon fill="#999999" stroke="#666666" points="142.75,-57 0,-57 0,-25 142.75,-25 142.75,-57"/>
<text text-anchor="start" x="8" y="-43.5" font-family="Helvetica,sans-Serif" font-size="10.00">carla::ros2::CarlaLineInvasion</text>
<text text-anchor="middle" x="71.38" y="-31.5" font-family="Helvetica,sans-Serif" font-size="10.00">Publisher::SetData</text>
</a>
</g>
</g>
<!-- Node2 -->
<g id="Node000002" class="node">
<title>Node2</title>
<g id="a_Node000002"><a xlink:href="../../da/d39/classbuiltin__interfaces_1_1msg_1_1Time.html#aa198ef63c135b5c7856d7f917dee4ba4" target="_top" xlink:title="此函数设置成员nanosec的值。">
<polygon fill="white" stroke="#666666" points="289.25,-82 178.75,-82 178.75,-50 289.25,-50 289.25,-82"/>
<text text-anchor="start" x="186.75" y="-68.5" font-family="Helvetica,sans-Serif" font-size="10.00">builtin_interfaces</text>
<text text-anchor="middle" x="234" y="-56.5" font-family="Helvetica,sans-Serif" font-size="10.00">::msg::Time::nanosec</text>
</a>
</g>
</g>
<!-- Node1&#45;&gt;Node2 -->
<g id="edge1_Node000001_Node000002" class="edge">
<title>Node1&#45;&gt;Node2</title>
<g id="a_edge1_Node000001_Node000002"><a xlink:title=" ">
<path fill="none" stroke="#63b8ff" d="M142.83,-51.97C151.15,-53.26 159.62,-54.58 167.86,-55.86"/>
<polygon fill="#63b8ff" stroke="#63b8ff" points="167.12,-59.44 177.54,-57.52 168.2,-52.53 167.12,-59.44"/>
</a>
</g>
</g>
<!-- Node3 -->
<g id="Node000003" class="node">
<title>Node3</title>
<g id="a_Node000003"><a xlink:href="../../da/d39/classbuiltin__interfaces_1_1msg_1_1Time.html#af90f1d1163f805c9e8af9546399d75b2" target="_top" xlink:title="此函数设置成员sec的值。">
<polygon fill="white" stroke="#666666" points="278.75,-32 189.25,-32 189.25,0 278.75,0 278.75,-32"/>
<text text-anchor="start" x="197.25" y="-18.5" font-family="Helvetica,sans-Serif" font-size="10.00">builtin_interfaces</text>
<text text-anchor="middle" x="234" y="-6.5" font-family="Helvetica,sans-Serif" font-size="10.00">::msg::Time::sec</text>
</a>
</g>
</g>
<!-- Node1&#45;&gt;Node3 -->
<g id="edge2_Node000001_Node000003" class="edge">
<title>Node1&#45;&gt;Node3</title>
<g id="a_edge2_Node000001_Node000003"><a xlink:title=" ">
<path fill="none" stroke="#63b8ff" d="M142.83,-30.03C154.71,-28.19 166.88,-26.29 178.29,-24.52"/>
<polygon fill="#63b8ff" stroke="#63b8ff" points="178.61,-27.85 187.95,-22.86 177.53,-20.94 178.61,-27.85"/>
</a>
</g>
</g>
</g>
</svg>
