<?xml version="1.0" encoding="UTF-8" standalone="no"?>
<!DOCTYPE svg PUBLIC "-//W3C//DTD SVG 1.1//EN"
 "http://www.w3.org/Graphics/SVG/1.1/DTD/svg11.dtd">
<!-- Generated by graphviz version 8.1.0 (20230707.0739)
 -->
<!-- Title: UCarlaGameInstance::GetCarlaEpisode Pages: 1 -->
<svg width="297pt" height="66pt"
 viewBox="0.00 0.00 297.25 66.00" xmlns="http://www.w3.org/2000/svg" xmlns:xlink="http://www.w3.org/1999/xlink">
<g id="graph0" class="graph" transform="scale(1 1) rotate(0) translate(4 62)">
<title>UCarlaGameInstance::GetCarlaEpisode</title>
<!-- Node1 -->
<g id="Node000001" class="node">
<title>Node1</title>
<g id="a_Node000001"><a xlink:title=" ">
<polygon fill="#999999" stroke="#666666" points="289.25,-45 181,-45 181,-13 289.25,-13 289.25,-45"/>
<text text-anchor="start" x="189" y="-31.5" font-family="Helvetica,sans-Serif" font-size="10.00">UCarlaGameInstance</text>
<text text-anchor="middle" x="235.12" y="-19.5" font-family="Helvetica,sans-Serif" font-size="10.00">::GetCarlaEpisode</text>
</a>
</g>
</g>
<!-- Node2 -->
<g id="Node000002" class="node">
<title>Node2</title>
<g id="a_Node000002"><a xlink:href="../../df/d9e/classASensorFactory.html#a98d8a966c03351611dffe60ac26c6c91" target="_top" xlink:title="Spawn an actor based on ActorDescription and Transform.">
<polygon fill="white" stroke="#666666" points="145,-58 0,-58 0,-38 145,-38 145,-58"/>
<text text-anchor="middle" x="72.5" y="-44.5" font-family="Helvetica,sans-Serif" font-size="10.00">ASensorFactory::SpawnActor</text>
</a>
</g>
</g>
<!-- Node1&#45;&gt;Node2 -->
<g id="edge1_Node000001_Node000002" class="edge">
<title>Node1&#45;&gt;Node2</title>
<g id="a_edge1_Node000001_Node000002"><a xlink:title=" ">
<path fill="none" stroke="#63b8ff" d="M169.83,-36.61C161.77,-37.56 153.49,-38.54 145.33,-39.5"/>
<polygon fill="#63b8ff" stroke="#63b8ff" points="170.12,-39.98 179.64,-35.33 169.3,-33.03 170.12,-39.98"/>
</a>
</g>
</g>
<!-- Node3 -->
<g id="Node000003" class="node">
<title>Node3</title>
<g id="a_Node000003"><a xlink:href="../../d0/df9/classATriggerFactory.html#ab9cf40937d3e165697f6838e35ea0c0d" target="_top" xlink:title="Spawn an actor based on ActorDescription and Transform.">
<polygon fill="white" stroke="#666666" points="144.25,-20 0.75,-20 0.75,0 144.25,0 144.25,-20"/>
<text text-anchor="middle" x="72.5" y="-6.5" font-family="Helvetica,sans-Serif" font-size="10.00">ATriggerFactory::SpawnActor</text>
</a>
</g>
</g>
<!-- Node1&#45;&gt;Node3 -->
<g id="edge2_Node000001_Node000003" class="edge">
<title>Node1&#45;&gt;Node3</title>
<g id="a_edge2_Node000001_Node000003"><a xlink:title=" ">
<path fill="none" stroke="#63b8ff" d="M169.84,-21.4C161.5,-20.41 152.92,-19.39 144.47,-18.4"/>
<polygon fill="#63b8ff" stroke="#63b8ff" points="169.3,-24.97 179.64,-22.67 170.12,-18.02 169.3,-24.97"/>
</a>
</g>
</g>
</g>
</svg>
