<?xml version="1.0" encoding="UTF-8" standalone="no"?>
<!DOCTYPE svg PUBLIC "-//W3C//DTD SVG 1.1//EN"
 "http://www.w3.org/Graphics/SVG/1.1/DTD/svg11.dtd">
<!-- Generated by graphviz version 8.1.0 (20230707.0739)
 -->
<!-- Title: UCarlaGameInstance::UCarlaGameInstance Pages: 1 -->
<svg width="855pt" height="235pt"
 viewBox="0.00 0.00 854.50 235.00" xmlns="http://www.w3.org/2000/svg" xmlns:xlink="http://www.w3.org/1999/xlink">
<g id="graph0" class="graph" transform="scale(1 1) rotate(0) translate(4 231)">
<title>UCarlaGameInstance::UCarlaGameInstance</title>
<!-- Node1 -->
<g id="Node000001" class="node">
<title>Node1</title>
<g id="a_Node000001"><a xlink:title=" ">
<polygon fill="#999999" stroke="#666666" points="114.25,-64 0,-64 0,-32 114.25,-32 114.25,-64"/>
<text text-anchor="start" x="8" y="-50.5" font-family="Helvetica,sans-Serif" font-size="10.00">UCarlaGameInstance</text>
<text text-anchor="middle" x="57.12" y="-38.5" font-family="Helvetica,sans-Serif" font-size="10.00">::UCarlaGameInstance</text>
</a>
</g>
</g>
<!-- Node2 -->
<g id="Node000002" class="node">
<title>Node2</title>
<g id="a_Node000002"><a xlink:href="../../d7/d1e/classUCarlaSettings.html#a174db9a076cd0df7a2324ca728aeb1e5" target="_top" xlink:title="Load the settings based on the command&#45;line arguments and the INI file if provided.">
<polygon fill="white" stroke="#666666" points="294.5,-118 150.25,-118 150.25,-98 294.5,-98 294.5,-118"/>
<text text-anchor="middle" x="222.38" y="-104.5" font-family="Helvetica,sans-Serif" font-size="10.00">UCarlaSettings::LoadSettings</text>
</a>
</g>
</g>
<!-- Node1&#45;&gt;Node2 -->
<g id="edge1_Node000001_Node000002" class="edge">
<title>Node1&#45;&gt;Node2</title>
<g id="a_edge1_Node000001_Node000002"><a xlink:title=" ">
<path fill="none" stroke="#63b8ff" d="M102.73,-64.4C127.9,-73.64 159.02,-85.08 183.07,-93.92"/>
<polygon fill="#63b8ff" stroke="#63b8ff" points="181.65,-97.5 192.24,-97.66 184.06,-90.93 181.65,-97.5"/>
</a>
</g>
</g>
<!-- Node11 -->
<g id="Node000011" class="node">
<title>Node11</title>
<g id="a_Node000011"><a xlink:href="../../d7/d1e/classUCarlaSettings.html#aadaca1c20e5413aab737e3cd63779bd4" target="_top" xlink:title="Log settings values.">
<polygon fill="white" stroke="#666666" points="291.88,-58 152.88,-58 152.88,-38 291.88,-38 291.88,-58"/>
<text text-anchor="middle" x="222.38" y="-44.5" font-family="Helvetica,sans-Serif" font-size="10.00">UCarlaSettings::LogSettings</text>
</a>
</g>
</g>
<!-- Node1&#45;&gt;Node11 -->
<g id="edge11_Node000001_Node000011" class="edge">
<title>Node1&#45;&gt;Node11</title>
<g id="a_edge11_Node000001_Node000011"><a xlink:title=" ">
<path fill="none" stroke="#63b8ff" d="M114.31,-48C123.12,-48 132.38,-48 141.61,-48"/>
<polygon fill="#63b8ff" stroke="#63b8ff" points="141.39,-51.5 151.39,-48 141.39,-44.5 141.39,-51.5"/>
</a>
</g>
</g>
<!-- Node13 -->
<g id="Node000013" class="node">
<title>Node13</title>
<g id="a_Node000013"><a xlink:href="../../dc/d49/classFCarlaEngine.html#ac432b3a472ef220baca1d7086e2ae8c0" target="_top" xlink:title=" ">
<polygon fill="white" stroke="#666666" points="289.62,-20 155.12,-20 155.12,0 289.62,0 289.62,-20"/>
<text text-anchor="middle" x="222.38" y="-6.5" font-family="Helvetica,sans-Serif" font-size="10.00">FCarlaEngine::SetRecorder</text>
</a>
</g>
</g>
<!-- Node1&#45;&gt;Node13 -->
<g id="edge13_Node000001_Node000013" class="edge">
<title>Node1&#45;&gt;Node13</title>
<g id="a_edge13_Node000001_Node000013"><a xlink:title=" ">
<path fill="none" stroke="#63b8ff" d="M114.31,-34.92C130.95,-31.05 149.16,-26.81 165.77,-22.94"/>
<polygon fill="#63b8ff" stroke="#63b8ff" points="166.48,-26.14 175.42,-20.46 164.89,-19.32 166.48,-26.14"/>
</a>
</g>
</g>
<!-- Node3 -->
<g id="Node000003" class="node">
<title>Node3</title>
<g id="a_Node000003"><a xlink:href="../../dc/d42/CarlaSettings_8cpp.html#a011f1d39c2ae335fcd72a783bc89f51f" target="_top" xlink:title=" ">
<polygon fill="white" stroke="#666666" points="519,-173 330.5,-173 330.5,-153 519,-153 519,-173"/>
<text text-anchor="middle" x="424.75" y="-159.5" font-family="Helvetica,sans-Serif" font-size="10.00">GetSettingsFilePathFromCommandLine</text>
</a>
</g>
</g>
<!-- Node2&#45;&gt;Node3 -->
<g id="edge2_Node000002_Node000003" class="edge">
<title>Node2&#45;&gt;Node3</title>
<g id="a_edge2_Node000002_Node000003"><a xlink:title=" ">
<path fill="none" stroke="#63b8ff" d="M251.28,-118.43C272.73,-126.19 303.22,-136.67 330.5,-144 338.78,-146.23 347.54,-148.33 356.23,-150.27"/>
<polygon fill="#63b8ff" stroke="#63b8ff" points="355.26,-153.86 365.78,-152.55 356.75,-147.02 355.26,-153.86"/>
</a>
</g>
</g>
<!-- Node4 -->
<g id="Node000004" class="node">
<title>Node4</title>
<g id="a_Node000004"><a xlink:href="../../d7/d1e/classUCarlaSettings.html#aa20145a25cbf094c738d7177b3291f8e" target="_top" xlink:title=" ">
<polygon fill="white" stroke="#666666" points="496.88,-135 352.62,-135 352.62,-103 496.88,-103 496.88,-135"/>
<text text-anchor="start" x="360.62" y="-121.5" font-family="Helvetica,sans-Serif" font-size="10.00">UCarlaSettings::LoadSettings</text>
<text text-anchor="middle" x="424.75" y="-109.5" font-family="Helvetica,sans-Serif" font-size="10.00">FromFile</text>
</a>
</g>
</g>
<!-- Node2&#45;&gt;Node4 -->
<g id="edge3_Node000002_Node000004" class="edge">
<title>Node2&#45;&gt;Node4</title>
<g id="a_edge3_Node000002_Node000004"><a xlink:title=" ">
<path fill="none" stroke="#63b8ff" d="M294.87,-111.92C310.03,-112.76 326.14,-113.64 341.66,-114.49"/>
<polygon fill="#63b8ff" stroke="#63b8ff" points="341.11,-118.02 351.29,-115.08 341.49,-111.03 341.11,-118.02"/>
</a>
</g>
</g>
<!-- Node9 -->
<g id="Node000009" class="node">
<title>Node9</title>
<g id="a_Node000009"><a xlink:href="../../dc/d42/CarlaSettings_8cpp.html#ab1cd26508512d8e907e1dfb2c86cb757" target="_top" xlink:title=" ">
<polygon fill="white" stroke="#666666" points="838.25,-63 721.75,-63 721.75,-43 838.25,-43 838.25,-63"/>
<text text-anchor="middle" x="780" y="-49.5" font-family="Helvetica,sans-Serif" font-size="10.00">QualityLevelFromString</text>
</a>
</g>
</g>
<!-- Node2&#45;&gt;Node9 -->
<g id="edge10_Node000002_Node000009" class="edge">
<title>Node2&#45;&gt;Node9</title>
<g id="a_edge10_Node000002_Node000009"><a xlink:title=" ">
<path fill="none" stroke="#63b8ff" d="M294.78,-98.28C306.7,-96.77 318.94,-95.28 330.5,-94 465.02,-79.07 622.67,-65.58 710.68,-58.42"/>
<polygon fill="#63b8ff" stroke="#63b8ff" points="710.9,-61.83 720.58,-57.53 710.33,-54.85 710.9,-61.83"/>
</a>
</g>
</g>
<!-- Node5 -->
<g id="Node000005" class="node">
<title>Node5</title>
<g id="a_Node000005"><a xlink:href="../../dc/d42/CarlaSettings_8cpp.html#a602a9561bdae71fa20d601f6fbad6b33" target="_top" xlink:title=" ">
<polygon fill="white" stroke="#666666" points="677.5,-129 555,-129 555,-109 677.5,-109 677.5,-129"/>
<text text-anchor="middle" x="616.25" y="-115.5" font-family="Helvetica,sans-Serif" font-size="10.00">LoadSettingsFromConfig</text>
</a>
</g>
</g>
<!-- Node4&#45;&gt;Node5 -->
<g id="edge4_Node000004_Node000005" class="edge">
<title>Node4&#45;&gt;Node5</title>
<g id="a_edge4_Node000004_Node000005"><a xlink:title=" ">
<path fill="none" stroke="#63b8ff" d="M497.12,-119C512.4,-119 528.55,-119 543.83,-119"/>
<polygon fill="#63b8ff" stroke="#63b8ff" points="543.78,-122.5 553.78,-119 543.78,-115.5 543.78,-122.5"/>
</a>
</g>
</g>
<!-- Node6 -->
<g id="Node000006" class="node">
<title>Node6</title>
<g id="a_Node000006"><a xlink:href="../../d6/de8/classFIniFile.html#a951d1e6601a472980d10666c3e01dd3d" target="_top" xlink:title=" ">
<polygon fill="white" stroke="#666666" points="824.38,-227 735.62,-227 735.62,-207 824.38,-207 824.38,-227"/>
<text text-anchor="middle" x="780" y="-213.5" font-family="Helvetica,sans-Serif" font-size="10.00">FIniFile::GetBool</text>
</a>
</g>
</g>
<!-- Node5&#45;&gt;Node6 -->
<g id="edge5_Node000005_Node000006" class="edge">
<title>Node5&#45;&gt;Node6</title>
<g id="a_edge5_Node000005_Node000006"><a xlink:title=" ">
<path fill="none" stroke="#63b8ff" d="M626.92,-129.29C643.23,-146.05 677.92,-179.26 713.5,-198 717.22,-199.96 721.18,-201.74 725.22,-203.36"/>
<polygon fill="#63b8ff" stroke="#63b8ff" points="723.8,-206.93 734.4,-207.04 726.18,-200.35 723.8,-206.93"/>
</a>
</g>
</g>
<!-- Node7 -->
<g id="Node000007" class="node">
<title>Node7</title>
<g id="a_Node000007"><a xlink:href="../../d6/de8/classFIniFile.html#ae4e12c8fd62cea857e718ac066657297" target="_top" xlink:title=" ">
<polygon fill="white" stroke="#666666" points="819.88,-189 740.12,-189 740.12,-169 819.88,-169 819.88,-189"/>
<text text-anchor="middle" x="780" y="-175.5" font-family="Helvetica,sans-Serif" font-size="10.00">FIniFile::GetInt</text>
</a>
</g>
</g>
<!-- Node5&#45;&gt;Node7 -->
<g id="edge6_Node000005_Node000007" class="edge">
<title>Node5&#45;&gt;Node7</title>
<g id="a_edge6_Node000005_Node000007"><a xlink:title=" ">
<path fill="none" stroke="#63b8ff" d="M639.51,-129.39C658.82,-138.18 687.67,-150.79 713.5,-160 718.67,-161.84 724.1,-163.64 729.55,-165.35"/>
<polygon fill="#63b8ff" stroke="#63b8ff" points="728.38,-168.95 738.96,-168.51 730.41,-162.25 728.38,-168.95"/>
</a>
</g>
</g>
<!-- Node8 -->
<g id="Node000008" class="node">
<title>Node8</title>
<g id="a_Node000008"><a xlink:href="../../d6/de8/classFIniFile.html#aaa6537e119fba826b0958195237202a7" target="_top" xlink:title=" ">
<polygon fill="white" stroke="#666666" points="827.38,-151 732.62,-151 732.62,-131 827.38,-131 827.38,-151"/>
<text text-anchor="middle" x="780" y="-137.5" font-family="Helvetica,sans-Serif" font-size="10.00">FIniFile::GetString</text>
</a>
</g>
</g>
<!-- Node5&#45;&gt;Node8 -->
<g id="edge7_Node000005_Node000008" class="edge">
<title>Node5&#45;&gt;Node8</title>
<g id="a_edge7_Node000005_Node000008"><a xlink:title=" ">
<path fill="none" stroke="#63b8ff" d="M677.94,-127.25C692.23,-129.2 707.41,-131.26 721.55,-133.19"/>
<polygon fill="#63b8ff" stroke="#63b8ff" points="720.75,-136.74 731.13,-134.62 721.69,-129.81 720.75,-136.74"/>
</a>
</g>
</g>
<!-- Node5&#45;&gt;Node9 -->
<g id="edge8_Node000005_Node000009" class="edge">
<title>Node5&#45;&gt;Node9</title>
<g id="a_edge8_Node000005_Node000009"><a xlink:title=" ">
<path fill="none" stroke="#63b8ff" d="M638.23,-108.52C664.2,-95.58 705.95,-74.91 713.5,-72 718.29,-70.15 723.33,-68.39 728.41,-66.73"/>
<polygon fill="#63b8ff" stroke="#63b8ff" points="729.3,-69.8 737.8,-63.48 727.21,-63.12 729.3,-69.8"/>
</a>
</g>
</g>
<!-- Node10 -->
<g id="Node000010" class="node">
<title>Node10</title>
<g id="a_Node000010"><a xlink:href="../../d7/d1e/classUCarlaSettings.html#aa0d675637e55db086b3441792b26381e" target="_top" xlink:title="Sets the new quality settings level and make changes in the game related to it.">
<polygon fill="white" stroke="#666666" points="846.5,-113 713.5,-113 713.5,-81 846.5,-81 846.5,-113"/>
<text text-anchor="start" x="721.5" y="-99.5" font-family="Helvetica,sans-Serif" font-size="10.00">UCarlaSettings::SetQuality</text>
<text text-anchor="middle" x="780" y="-87.5" font-family="Helvetica,sans-Serif" font-size="10.00">Level</text>
</a>
</g>
</g>
<!-- Node5&#45;&gt;Node10 -->
<g id="edge9_Node000005_Node000010" class="edge">
<title>Node5&#45;&gt;Node10</title>
<g id="a_edge9_Node000005_Node000010"><a xlink:title=" ">
<path fill="none" stroke="#63b8ff" d="M677.94,-110.75C685.92,-109.66 694.18,-108.54 702.38,-107.42"/>
<polygon fill="#63b8ff" stroke="#63b8ff" points="702.66,-110.78 712.09,-105.96 701.71,-103.84 702.66,-110.78"/>
</a>
</g>
</g>
<!-- Node12 -->
<g id="Node000012" class="node">
<title>Node12</title>
<g id="a_Node000012"><a xlink:href="../../dc/d42/CarlaSettings_8cpp.html#ae720dbfe78ddf9fb3db15ef2a404817f" target="_top" xlink:title=" ">
<polygon fill="white" stroke="#666666" points="477,-47 372.5,-47 372.5,-27 477,-27 477,-47"/>
<text text-anchor="middle" x="424.75" y="-33.5" font-family="Helvetica,sans-Serif" font-size="10.00">QualityLevelToString</text>
</a>
</g>
</g>
<!-- Node11&#45;&gt;Node12 -->
<g id="edge12_Node000011_Node000012" class="edge">
<title>Node11&#45;&gt;Node12</title>
<g id="a_edge12_Node000011_Node000012"><a xlink:title=" ">
<path fill="none" stroke="#63b8ff" d="M292.33,-44.21C314.7,-42.99 339.38,-41.63 361.26,-40.43"/>
<polygon fill="#63b8ff" stroke="#63b8ff" points="361.28,-43.88 371.08,-39.84 360.9,-36.89 361.28,-43.88"/>
</a>
</g>
</g>
</g>
</svg>
