<?xml version="1.0" encoding="UTF-8" standalone="no"?>
<!DOCTYPE svg PUBLIC "-//W3C//DTD SVG 1.1//EN"
 "http://www.w3.org/Graphics/SVG/1.1/DTD/svg11.dtd">
<!-- Generated by graphviz version 8.1.0 (20230707.0739)
 -->
<!-- Title: carla::traffic_manager::InMemoryMap::Save Pages: 1 -->
<svg width="440pt" height="140pt"
 viewBox="0.00 0.00 440.00 140.00" xmlns="http://www.w3.org/2000/svg" xmlns:xlink="http://www.w3.org/1999/xlink">
<g id="graph0" class="graph" transform="scale(1 1) rotate(0) translate(4 136)">
<title>carla::traffic_manager::InMemoryMap::Save</title>
<!-- Node1 -->
<g id="Node000001" class="node">
<title>Node1</title>
<g id="a_Node000001"><a xlink:title=" ">
<polygon fill="#999999" stroke="#666666" points="110.5,-88 0,-88 0,-56 110.5,-56 110.5,-88"/>
<text text-anchor="start" x="8" y="-74.5" font-family="Helvetica,sans-Serif" font-size="10.00">carla::traffic_manager</text>
<text text-anchor="middle" x="55.25" y="-62.5" font-family="Helvetica,sans-Serif" font-size="10.00">::InMemoryMap::Save</text>
</a>
</g>
</g>
<!-- Node2 -->
<g id="Node000002" class="node">
<title>Node2</title>
<g id="a_Node000002"><a xlink:href="../../da/d07/classcarla_1_1traffic__manager_1_1InMemoryMap.html#adf7b3b090e975a8430f12d05cfe29d7c" target="_top" xlink:title=" ">
<polygon fill="white" stroke="#666666" points="296,-132 146.5,-132 146.5,-100 296,-100 296,-132"/>
<text text-anchor="start" x="154.5" y="-118.5" font-family="Helvetica,sans-Serif" font-size="10.00">carla::traffic_manager</text>
<text text-anchor="middle" x="221.25" y="-106.5" font-family="Helvetica,sans-Serif" font-size="10.00">::InMemoryMap::GetMapName</text>
</a>
</g>
</g>
<!-- Node1&#45;&gt;Node2 -->
<g id="edge1_Node000001_Node000002" class="edge">
<title>Node1&#45;&gt;Node2</title>
<g id="a_edge1_Node000001_Node000002"><a xlink:title=" ">
<path fill="none" stroke="#63b8ff" d="M110.86,-86.65C122.87,-89.87 135.77,-93.33 148.34,-96.71"/>
<polygon fill="#63b8ff" stroke="#63b8ff" points="147.24,-100.3 157.81,-99.51 149.05,-93.54 147.24,-100.3"/>
</a>
</g>
</g>
<!-- Node3 -->
<g id="Node000003" class="node">
<title>Node3</title>
<g id="a_Node000003"><a xlink:href="../../d9/d36/namespacecarla.html#a7673dfc76e17f5856b798de6d0384b56" target="_top" xlink:title=" ">
<polygon fill="white" stroke="#666666" points="261.5,-82 181,-82 181,-62 261.5,-62 261.5,-82"/>
<text text-anchor="middle" x="221.25" y="-68.5" font-family="Helvetica,sans-Serif" font-size="10.00">carla::log_error</text>
</a>
</g>
</g>
<!-- Node1&#45;&gt;Node3 -->
<g id="edge2_Node000001_Node000003" class="edge">
<title>Node1&#45;&gt;Node3</title>
<g id="a_edge2_Node000001_Node000003"><a xlink:title=" ">
<path fill="none" stroke="#63b8ff" d="M110.86,-72C129.85,-72 151.06,-72 169.71,-72"/>
<polygon fill="#63b8ff" stroke="#63b8ff" points="169.66,-75.5 179.66,-72 169.66,-68.5 169.66,-75.5"/>
</a>
</g>
</g>
<!-- Node5 -->
<g id="Node000005" class="node">
<title>Node5</title>
<g id="a_Node000005"><a xlink:href="../../df/d1a/classcarla_1_1traffic__manager_1_1CachedSimpleWaypoint.html#a8dfb1dd47c4ee5a5a18a68ff9eae7d12" target="_top" xlink:title=" ">
<polygon fill="white" stroke="#666666" points="284.38,-44 158.12,-44 158.12,0 284.38,0 284.38,-44"/>
<text text-anchor="start" x="166.12" y="-30.5" font-family="Helvetica,sans-Serif" font-size="10.00">carla::traffic_manager</text>
<text text-anchor="start" x="166.12" y="-18.5" font-family="Helvetica,sans-Serif" font-size="10.00">::CachedSimpleWaypoint</text>
<text text-anchor="middle" x="221.25" y="-6.5" font-family="Helvetica,sans-Serif" font-size="10.00">::Write</text>
</a>
</g>
</g>
<!-- Node1&#45;&gt;Node5 -->
<g id="edge4_Node000001_Node000005" class="edge">
<title>Node1&#45;&gt;Node5</title>
<g id="a_edge4_Node000001_Node000005"><a xlink:title=" ">
<path fill="none" stroke="#63b8ff" d="M109.95,-55.63C121.92,-51.98 134.8,-48.05 147.4,-44.21"/>
<polygon fill="#63b8ff" stroke="#63b8ff" points="148.34,-47.28 156.88,-41.01 146.3,-40.58 148.34,-47.28"/>
</a>
</g>
</g>
<!-- Node4 -->
<g id="Node000004" class="node">
<title>Node4</title>
<g id="a_Node000004"><a xlink:href="../../d2/d8c/namespacecarla_1_1logging.html#a4193666236852fb6a6977299a31445d8" target="_top" xlink:title=" ">
<polygon fill="white" stroke="#666666" points="432,-88 332,-88 332,-56 432,-56 432,-88"/>
<text text-anchor="start" x="340" y="-74.5" font-family="Helvetica,sans-Serif" font-size="10.00">carla::logging::write</text>
<text text-anchor="middle" x="382" y="-62.5" font-family="Helvetica,sans-Serif" font-size="10.00">_to_stream</text>
</a>
</g>
</g>
<!-- Node3&#45;&gt;Node4 -->
<g id="edge3_Node000003_Node000004" class="edge">
<title>Node3&#45;&gt;Node4</title>
<g id="a_edge3_Node000003_Node000004"><a xlink:title=" ">
<path fill="none" stroke="#63b8ff" d="M261.9,-72C279.72,-72 301.14,-72 320.88,-72"/>
<polygon fill="#63b8ff" stroke="#63b8ff" points="320.63,-75.5 330.63,-72 320.63,-68.5 320.63,-75.5"/>
</a>
</g>
</g>
</g>
</svg>
