<?xml version="1.0" encoding="UTF-8" standalone="no"?>
<!DOCTYPE svg PUBLIC "-//W3C//DTD SVG 1.1//EN"
 "http://www.w3.org/Graphics/SVG/1.1/DTD/svg11.dtd">
<!-- Generated by graphviz version 8.1.0 (20230707.0739)
 -->
<!-- Title: carla::traffic_manager::InMemoryMap::GetWaypoint Pages: 1 -->
<svg width="656pt" height="52pt"
 viewBox="0.00 0.00 655.50 52.00" xmlns="http://www.w3.org/2000/svg" xmlns:xlink="http://www.w3.org/1999/xlink">
<g id="graph0" class="graph" transform="scale(1 1) rotate(0) translate(4 48)">
<title>carla::traffic_manager::InMemoryMap::GetWaypoint</title>
<!-- Node1 -->
<g id="Node000001" class="node">
<title>Node1</title>
<g id="a_Node000001"><a xlink:title="此方法返回给定位置上最近的路径点。">
<polygon fill="#999999" stroke="#666666" points="647.5,-38 501,-38 501,-6 647.5,-6 647.5,-38"/>
<text text-anchor="start" x="509" y="-24.5" font-family="Helvetica,sans-Serif" font-size="10.00">carla::traffic_manager</text>
<text text-anchor="middle" x="574.25" y="-12.5" font-family="Helvetica,sans-Serif" font-size="10.00">::InMemoryMap::GetWaypoint</text>
</a>
</g>
</g>
<!-- Node2 -->
<g id="Node000002" class="node">
<title>Node2</title>
<g id="a_Node000002"><a xlink:href="../../da/d07/classcarla_1_1traffic__manager_1_1InMemoryMap.html#a3e468ba555815640c939fc4177fc1ca1" target="_top" xlink:title="此方法用于查找和链接车道变更连接。">
<polygon fill="white" stroke="#666666" points="465,-44 300.5,-44 300.5,0 465,0 465,-44"/>
<text text-anchor="start" x="308.5" y="-30.5" font-family="Helvetica,sans-Serif" font-size="10.00">carla::traffic_manager</text>
<text text-anchor="start" x="308.5" y="-18.5" font-family="Helvetica,sans-Serif" font-size="10.00">::InMemoryMap::FindAndLinkLane</text>
<text text-anchor="middle" x="382.75" y="-6.5" font-family="Helvetica,sans-Serif" font-size="10.00">Change</text>
</a>
</g>
</g>
<!-- Node1&#45;&gt;Node2 -->
<g id="edge1_Node000001_Node000002" class="edge">
<title>Node1&#45;&gt;Node2</title>
<g id="a_edge1_Node000001_Node000002"><a xlink:title=" ">
<path fill="none" stroke="#63b8ff" d="M489.65,-22C481.61,-22 473.46,-22 465.44,-22"/>
<polygon fill="#63b8ff" stroke="#63b8ff" points="489.53,-25.5 499.53,-22 489.53,-18.5 489.53,-25.5"/>
</a>
</g>
</g>
<!-- Node3 -->
<g id="Node000003" class="node">
<title>Node3</title>
<g id="a_Node000003"><a xlink:href="../../da/d07/classcarla_1_1traffic__manager_1_1InMemoryMap.html#a7217fb548cea753e9040417ec7327e36" target="_top" xlink:title="此方法以采样分辨率构建本地地图。">
<polygon fill="white" stroke="#666666" points="264.5,-38 148,-38 148,-6 264.5,-6 264.5,-38"/>
<text text-anchor="start" x="156" y="-24.5" font-family="Helvetica,sans-Serif" font-size="10.00">carla::traffic_manager</text>
<text text-anchor="middle" x="206.25" y="-12.5" font-family="Helvetica,sans-Serif" font-size="10.00">::InMemoryMap::SetUp</text>
</a>
</g>
</g>
<!-- Node2&#45;&gt;Node3 -->
<g id="edge2_Node000002_Node000003" class="edge">
<title>Node2&#45;&gt;Node3</title>
<g id="a_edge2_Node000002_Node000003"><a xlink:title=" ">
<path fill="none" stroke="#63b8ff" d="M289.24,-22C280.98,-22 272.77,-22 264.93,-22"/>
<polygon fill="#63b8ff" stroke="#63b8ff" points="289.12,-25.5 299.12,-22 289.12,-18.5 289.12,-25.5"/>
</a>
</g>
</g>
<!-- Node4 -->
<g id="Node000004" class="node">
<title>Node4</title>
<g id="a_Node000004"><a xlink:href="../../da/d07/classcarla_1_1traffic__manager_1_1InMemoryMap.html#a4863f21fabc688a516b77e78cc8df5bb" target="_top" xlink:title=" ">
<polygon fill="white" stroke="#666666" points="112,-38 0,-38 0,-6 112,-6 112,-38"/>
<text text-anchor="start" x="8" y="-24.5" font-family="Helvetica,sans-Serif" font-size="10.00">carla::traffic_manager</text>
<text text-anchor="middle" x="56" y="-12.5" font-family="Helvetica,sans-Serif" font-size="10.00">::InMemoryMap::Cook</text>
</a>
</g>
</g>
<!-- Node3&#45;&gt;Node4 -->
<g id="edge3_Node000003_Node000004" class="edge">
<title>Node3&#45;&gt;Node4</title>
<g id="a_edge3_Node000003_Node000004"><a xlink:title=" ">
<path fill="none" stroke="#63b8ff" d="M136.56,-22C128.46,-22 120.28,-22 112.4,-22"/>
<polygon fill="#63b8ff" stroke="#63b8ff" points="136.51,-25.5 146.51,-22 136.51,-18.5 136.51,-25.5"/>
</a>
</g>
</g>
</g>
</svg>
