<?xml version="1.0" encoding="UTF-8" standalone="no"?>
<!DOCTYPE svg PUBLIC "-//W3C//DTD SVG 1.1//EN"
 "http://www.w3.org/Graphics/SVG/1.1/DTD/svg11.dtd">
<!-- Generated by graphviz version 8.1.0 (20230707.0739)
 -->
<!-- Title: carla::streaming::Client Pages: 1 -->
<!--zoomable 274 -->

<svg id="main" version="1.1" xmlns="http://www.w3.org/2000/svg" xmlns:xlink="http://www.w3.org/1999/xlink" xml:space="preserve" onload="init(evt)">
<style type="text/css"><![CDATA[
.node, .edge {opacity: 0.7;}
.node.selected, .edge.selected {opacity: 1;}
.edge:hover path { stroke: red; }
.edge:hover polygon { stroke: red; fill: red; }
]]></style>

<defs>
  <circle id="rim" cx="0" cy="0" r="7"/>
  <circle id="rim2" cx="0" cy="0" r="3.5"/>
  <g id="zoomPlus">
    <use xlink:href="#rim" fill="#404040"><set attributeName="fill" to="#808080" begin="zoomplus.mouseover" end="zoomplus.mouseout"/></use>
    <path d="M-4,0h8M0,-4v8" fill="none" stroke="white" stroke-width="1.5" pointer-events="none"/>
  </g>
  <g id="zoomMin">
    <use xlink:href="#rim" fill="#404040"><set attributeName="fill" to="#808080" begin="zoomminus.mouseover" end="zoomminus.mouseout"/></use>
    <path d="M-4,0h8" fill="none" stroke="white" stroke-width="1.5" pointer-events="none"/>
  </g>
  <g id="arrowUp" transform="translate(30 24)">
    <use xlink:href="#rim"/>
    <path pointer-events="none" fill="none" stroke="white" stroke-width="1.5" d="M0,-3.0v7 M-2.5,-0.5L0,-3.0L2.5,-0.5"/>
  </g>
  <g id="arrowRight" transform="rotate(90) translate(36 -43)">
    <use xlink:href="#rim"/>
    <path pointer-events="none" fill="none" stroke="white" stroke-width="1.5" d="M0,-3.0v7 M-2.5,-0.5L0,-3.0L2.5,-0.5"/>
  </g>
  <g id="arrowDown" transform="rotate(180) translate(-30 -48)">
    <use xlink:href="#rim"/>
    <path pointer-events="none" fill="none" stroke="white" stroke-width="1.5" d="M0,-3.0v7 M-2.5,-0.5L0,-3.0L2.5,-0.5"/>
  </g>
  <g id="arrowLeft" transform="rotate(270) translate(-36 17)">
    <use xlink:href="#rim"/>
    <path pointer-events="none" fill="none" stroke="white" stroke-width="1.5" d="M0,-3.0v7 M-2.5,-0.5L0,-3.0L2.5,-0.5"/>
  </g>
  <g id="resetDef">
    <use xlink:href="#rim2" fill="#404040"><set attributeName="fill" to="#808080" begin="reset.mouseover" end="reset.mouseout"/></use>
  </g>
</defs>
<script type="application/ecmascript">
var viewWidth = 779;
var viewHeight = 274;
var sectionId = 'dynsection-0';
</script>
<script type="application/ecmascript" xlink:href="../../svg.min.js"/>
<svg id="graph" class="graph">
<g id="viewport">
<title>carla::streaming::Client</title>
<!-- Node1 -->
<g id="Node000001" class="node">
<title>Node1</title>
<g id="a_Node000001"><a xlink:title="A client able to subscribe to multiple streams.">
<polygon fill="#999999" stroke="#666666" points="771.25,-138 654.75,-138 654.75,-118 771.25,-118 771.25,-138"/>
<text text-anchor="middle" x="713" y="-124.5" font-family="Helvetica,sans-Serif" font-size="10.00">carla::streaming::Client</text>
</a>
</g>
</g>
<!-- Node2 -->
<g id="Node000002" class="node">
<title>Node2</title>
<g id="a_Node000002"><a xlink:href="../../da/d72/classcarla_1_1ThreadPool.html" target="_top" xlink:title="A thread pool based on Boost.Asio&#39;s io context.">
<polygon fill="white" stroke="#666666" points="573.38,-197 481.62,-197 481.62,-177 573.38,-177 573.38,-197"/>
<text text-anchor="middle" x="527.5" y="-183.5" font-family="Helvetica,sans-Serif" font-size="10.00">carla::ThreadPool</text>
</a>
</g>
</g>
<!-- Node2&#45;&gt;Node1 -->
<g id="edge1_Node000001_Node000002" class="edge">
<title>Node2&#45;&gt;Node1</title>
<g id="a_edge1_Node000001_Node000002"><a xlink:title=" ">
<path fill="none" stroke="#9a32cd" stroke-dasharray="5,2" d="M571.17,-173.28C604.28,-162.64 649.46,-148.11 679.63,-138.41"/>
<polygon fill="#9a32cd" stroke="#9a32cd" points="570.33,-170.19 561.88,-176.59 572.48,-176.86 570.33,-170.19"/>
</a>
</g>
<text text-anchor="middle" x="617.62" y="-164.5" font-family="Helvetica,sans-Serif" font-size="10.00" fill="grey"> _service</text>
</g>
<!-- Node3 -->
<g id="Node000003" class="node">
<title>Node3</title>
<g id="a_Node000003"><a xlink:href="../../d4/d8b/classcarla_1_1NonCopyable.html" target="_top" xlink:title="Inherit (privately) to suppress copy/move construction and assignment.">
<polygon fill="white" stroke="#666666" points="110.88,-266 10.12,-266 10.12,-246 110.88,-246 110.88,-266"/>
<text text-anchor="middle" x="60.5" y="-252.5" font-family="Helvetica,sans-Serif" font-size="10.00">carla::NonCopyable</text>
</a>
</g>
</g>
<!-- Node3&#45;&gt;Node2 -->
<g id="edge2_Node000002_Node000003" class="edge">
<title>Node3&#45;&gt;Node2</title>
<g id="a_edge2_Node000002_Node000003"><a xlink:title=" ">
<path fill="none" stroke="#8b1a1a" d="M122,-262.39C201.3,-268.53 343.56,-271.8 456.5,-232 478.85,-224.13 501.29,-207.87 514.53,-197.21"/>
<polygon fill="#8b1a1a" stroke="#8b1a1a" points="122.49,-258.83 112.24,-261.51 121.92,-265.81 122.49,-258.83"/>
</a>
</g>
</g>
<!-- Node6 -->
<g id="Node000006" class="node">
<title>Node6</title>
<g id="a_Node000006"><a xlink:href="../../db/d71/classcarla_1_1ThreadGroup.html" target="_top" xlink:title=" ">
<polygon fill="white" stroke="#666666" points="340.25,-235 241.75,-235 241.75,-215 340.25,-215 340.25,-235"/>
<text text-anchor="middle" x="291" y="-221.5" font-family="Helvetica,sans-Serif" font-size="10.00">carla::ThreadGroup</text>
</a>
</g>
</g>
<!-- Node3&#45;&gt;Node6 -->
<g id="edge6_Node000006_Node000003" class="edge">
<title>Node3&#45;&gt;Node6</title>
<g id="a_edge6_Node000006_Node000003"><a xlink:title=" ">
<path fill="none" stroke="#8b1a1a" d="M122.1,-247.78C159.4,-242.72 206.58,-236.32 241.42,-231.59"/>
<polygon fill="#8b1a1a" stroke="#8b1a1a" points="121.8,-244.42 112.36,-249.24 122.74,-251.36 121.8,-244.42"/>
</a>
</g>
</g>
<!-- Node4 -->
<g id="Node000004" class="node">
<title>Node4</title>
<g id="a_Node000004"><a xlink:title=" ">
<polygon fill="white" stroke="#666666" points="321.5,-197 260.5,-197 260.5,-177 321.5,-177 321.5,-197"/>
<text text-anchor="middle" x="291" y="-183.5" font-family="Helvetica,sans-Serif" font-size="10.00">io_context</text>
</a>
</g>
</g>
<!-- Node4&#45;&gt;Node2 -->
<g id="edge3_Node000002_Node000004" class="edge">
<title>Node4&#45;&gt;Node2</title>
<g id="a_edge3_Node000002_Node000004"><a xlink:title=" ">
<path fill="none" stroke="#9a32cd" stroke-dasharray="5,2" d="M332.5,-187C373.98,-187 438.31,-187 481.39,-187"/>
<polygon fill="#9a32cd" stroke="#9a32cd" points="332.7,-183.5 322.7,-187 332.7,-190.5 332.7,-183.5"/>
</a>
</g>
<text text-anchor="middle" x="409.25" y="-189.5" font-family="Helvetica,sans-Serif" font-size="10.00" fill="grey"> _io_context</text>
</g>
<!-- Node5 -->
<g id="Node000005" class="node">
<title>Node5</title>
<g id="a_Node000005"><a xlink:title=" ">
<polygon fill="white" stroke="#666666" points="309.12,-159 272.88,-159 272.88,-139 309.12,-139 309.12,-159"/>
<text text-anchor="middle" x="291" y="-145.5" font-family="Helvetica,sans-Serif" font-size="10.00">work</text>
</a>
</g>
</g>
<!-- Node5&#45;&gt;Node2 -->
<g id="edge4_Node000002_Node000005" class="edge">
<title>Node5&#45;&gt;Node2</title>
<g id="a_edge4_Node000002_Node000005"><a xlink:title=" ">
<path fill="none" stroke="#9a32cd" stroke-dasharray="5,2" d="M319.96,-151.95C352.79,-155.59 408.82,-162.38 456.5,-171 465.33,-172.6 474.73,-174.56 483.69,-176.56"/>
<polygon fill="#9a32cd" stroke="#9a32cd" points="320.69,-148.4 310.37,-150.79 319.93,-155.36 320.69,-148.4"/>
</a>
</g>
<text text-anchor="middle" x="409.25" y="-173.5" font-family="Helvetica,sans-Serif" font-size="10.00" fill="grey"> _work_to_do</text>
</g>
<!-- Node6&#45;&gt;Node2 -->
<g id="edge5_Node000002_Node000006" class="edge">
<title>Node6&#45;&gt;Node2</title>
<g id="a_edge5_Node000002_Node000006"><a xlink:title=" ">
<path fill="none" stroke="#9a32cd" stroke-dasharray="5,2" d="M351.47,-217.74C382.81,-213.65 421.83,-208.13 456.5,-202 464.58,-200.57 473.14,-198.88 481.41,-197.16"/>
<polygon fill="#9a32cd" stroke="#9a32cd" points="351.2,-214.37 341.73,-219.12 352.1,-221.31 351.2,-214.37"/>
</a>
</g>
<text text-anchor="middle" x="409.25" y="-218.5" font-family="Helvetica,sans-Serif" font-size="10.00" fill="grey"> _workers</text>
</g>
<!-- Node7 -->
<g id="Node000007" class="node">
<title>Node7</title>
<g id="a_Node000007"><a xlink:title=" ">
<polygon fill="white" stroke="#666666" points="113.5,-221 7.5,-221 7.5,-201 113.5,-201 113.5,-221"/>
<text text-anchor="middle" x="60.5" y="-207.5" font-family="Helvetica,sans-Serif" font-size="10.00">vector&lt; std::thread &gt;</text>
</a>
</g>
</g>
<!-- Node7&#45;&gt;Node6 -->
<g id="edge7_Node000006_Node000007" class="edge">
<title>Node7&#45;&gt;Node6</title>
<g id="a_edge7_Node000006_Node000007"><a xlink:title=" ">
<path fill="none" stroke="#9a32cd" stroke-dasharray="5,2" d="M124.58,-208.84C153.69,-208.5 188.66,-209.02 220,-212 227.01,-212.67 234.37,-213.68 241.58,-214.86"/>
<polygon fill="#9a32cd" stroke="#9a32cd" points="124.67,-205.35 114.73,-209.01 124.78,-212.35 124.67,-205.35"/>
</a>
</g>
<text text-anchor="middle" x="179.5" y="-214.5" font-family="Helvetica,sans-Serif" font-size="10.00" fill="grey"> _threads</text>
</g>
<!-- Node8 -->
<g id="Node000008" class="node">
<title>Node8</title>
<g id="a_Node000008"><a xlink:href="../../da/d83/classcarla_1_1streaming_1_1low__level_1_1Client.html" target="_top" xlink:title=" ">
<polygon fill="white" stroke="#666666" points="580.5,-112 474.5,-112 474.5,-68 580.5,-68 580.5,-112"/>
<text text-anchor="start" x="482.5" y="-98.5" font-family="Helvetica,sans-Serif" font-size="10.00">carla::streaming::low</text>
<text text-anchor="start" x="482.5" y="-86.5" font-family="Helvetica,sans-Serif" font-size="10.00">_level::Client&lt; detail</text>
<text text-anchor="middle" x="527.5" y="-74.5" font-family="Helvetica,sans-Serif" font-size="10.00">::tcp::Client &gt;</text>
</a>
</g>
</g>
<!-- Node8&#45;&gt;Node1 -->
<g id="edge8_Node000001_Node000008" class="edge">
<title>Node8&#45;&gt;Node1</title>
<g id="a_edge8_Node000001_Node000008"><a xlink:title=" ">
<path fill="none" stroke="#9a32cd" stroke-dasharray="5,2" d="M591.23,-102.99C614.11,-107.73 639.67,-113.02 661.36,-117.51"/>
<polygon fill="#9a32cd" stroke="#9a32cd" points="592.09,-99.39 581.59,-100.79 590.68,-106.24 592.09,-99.39"/>
</a>
</g>
<text text-anchor="middle" x="617.62" y="-114.5" font-family="Helvetica,sans-Serif" font-size="10.00" fill="grey"> _client</text>
</g>
<!-- Node9 -->
<g id="Node000009" class="node">
<title>Node9</title>
<g id="a_Node000009"><a xlink:title=" ">
<polygon fill="white" stroke="#666666" points="85.75,-115 35.25,-115 35.25,-95 85.75,-95 85.75,-115"/>
<text text-anchor="middle" x="60.5" y="-101.5" font-family="Helvetica,sans-Serif" font-size="10.00">address</text>
</a>
</g>
</g>
<!-- Node9&#45;&gt;Node8 -->
<g id="edge9_Node000008_Node000009" class="edge">
<title>Node9&#45;&gt;Node8</title>
<g id="a_edge9_Node000008_Node000009"><a xlink:title=" ">
<path fill="none" stroke="#9a32cd" stroke-dasharray="5,2" d="M96.7,-104.65C165.74,-103.85 323.77,-101.42 456.5,-95 462.22,-94.72 468.2,-94.38 474.15,-94"/>
<polygon fill="#9a32cd" stroke="#9a32cd" points="96.97,-101.16 87.01,-104.77 97.05,-108.16 96.97,-101.16"/>
</a>
</g>
<text text-anchor="middle" x="291" y="-104.5" font-family="Helvetica,sans-Serif" font-size="10.00" fill="grey"> _fallback_address</text>
</g>
<!-- Node11 -->
<g id="Node000011" class="node">
<title>Node11</title>
<g id="a_Node000011"><a xlink:href="../../da/d83/classcarla_1_1streaming_1_1low__level_1_1Client.html" target="_top" xlink:title="A client able to subscribe to multiple streams.">
<polygon fill="white" stroke="#666666" points="344,-73 238,-73 238,-41 344,-41 344,-73"/>
<text text-anchor="start" x="246" y="-59.5" font-family="Helvetica,sans-Serif" font-size="10.00">carla::streaming::low</text>
<text text-anchor="middle" x="291" y="-47.5" font-family="Helvetica,sans-Serif" font-size="10.00">_level::Client&lt; T &gt;</text>
</a>
</g>
</g>
<!-- Node9&#45;&gt;Node11 -->
<g id="edge12_Node000011_Node000009" class="edge">
<title>Node9&#45;&gt;Node11</title>
<g id="a_edge12_Node000011_Node000009"><a xlink:title=" ">
<path fill="none" stroke="#9a32cd" stroke-dasharray="5,2" d="M96.26,-94.28C109.55,-90.41 124.9,-86.21 139,-83 171.55,-75.6 208.48,-69.21 237.67,-64.61"/>
<polygon fill="#9a32cd" stroke="#9a32cd" points="95.7,-91.09 87.11,-97.29 97.69,-97.81 95.7,-91.09"/>
</a>
</g>
<text text-anchor="middle" x="179.5" y="-85.5" font-family="Helvetica,sans-Serif" font-size="10.00" fill="grey"> _fallback_address</text>
</g>
<!-- Node10 -->
<g id="Node000010" class="node">
<title>Node10</title>
<g id="a_Node000010"><a xlink:title=" ">
<polygon fill="white" stroke="#666666" points="121,-56 0,-56 0,0 121,0 121,-56"/>
<text text-anchor="start" x="8" y="-42.5" font-family="Helvetica,sans-Serif" font-size="10.00">unordered_map&lt; detail</text>
<text text-anchor="start" x="8" y="-30.5" font-family="Helvetica,sans-Serif" font-size="10.00">::stream_id_type, std</text>
<text text-anchor="start" x="8" y="-18.5" font-family="Helvetica,sans-Serif" font-size="10.00">::shared_ptr&lt; underlying</text>
<text text-anchor="middle" x="60.5" y="-6.5" font-family="Helvetica,sans-Serif" font-size="10.00">_client &gt; &gt;</text>
</a>
</g>
</g>
<!-- Node10&#45;&gt;Node8 -->
<g id="edge10_Node000008_Node000010" class="edge">
<title>Node10&#45;&gt;Node8</title>
<g id="a_edge10_Node000008_Node000010"><a xlink:title=" ">
<path fill="none" stroke="#9a32cd" stroke-dasharray="5,2" d="M132.1,-17.86C189.63,-11.53 272.72,-6.84 344,-20 393.06,-29.06 445.95,-50.79 482.1,-67.66"/>
<polygon fill="#9a32cd" stroke="#9a32cd" points="131.84,-14.48 122.31,-19.1 132.64,-21.43 131.84,-14.48"/>
</a>
</g>
<text text-anchor="middle" x="291" y="-22.5" font-family="Helvetica,sans-Serif" font-size="10.00" fill="grey"> _clients</text>
</g>
<!-- Node10&#45;&gt;Node11 -->
<g id="edge13_Node000011_Node000010" class="edge">
<title>Node10&#45;&gt;Node11</title>
<g id="a_edge13_Node000011_Node000010"><a xlink:title=" ">
<path fill="none" stroke="#9a32cd" stroke-dasharray="5,2" d="M132.07,-36.11C159.53,-39.36 191.25,-43.22 220,-47 225.72,-47.75 231.7,-48.56 237.65,-49.39"/>
<polygon fill="#9a32cd" stroke="#9a32cd" points="132.72,-32.55 122.38,-34.85 131.9,-39.5 132.72,-32.55"/>
</a>
</g>
<text text-anchor="middle" x="179.5" y="-49.5" font-family="Helvetica,sans-Serif" font-size="10.00" fill="grey"> _clients</text>
</g>
<!-- Node11&#45;&gt;Node8 -->
<g id="edge11_Node000008_Node000011" class="edge">
<title>Node11&#45;&gt;Node8</title>
<g id="a_edge11_Node000008_Node000011"><a xlink:title=" ">
<path fill="none" stroke="orange" stroke-dasharray="5,2" d="M355.09,-65.88C392.41,-71.13 439.1,-77.7 474.33,-82.66"/>
<polygon fill="orange" stroke="orange" points="355.72,-62.29 345.33,-64.36 354.75,-69.22 355.72,-62.29"/>
</a>
</g>
<text text-anchor="middle" x="409.25" y="-81.5" font-family="Helvetica,sans-Serif" font-size="10.00" fill="grey"> &lt; detail::tcp::Client &gt;</text>
</g>
</g>
</svg>

<g id="navigator" transform="translate(0 0)" fill="#404254">
  <rect fill="#f2f5e9" fill-opacity="0.5" stroke="#606060" stroke-width=".5" x="0" y="0" width="60" height="60"/>
  <use id="zoomplus" xlink:href="#zoomPlus" x="17" y="9" onmousedown="handleZoom(evt,'in')"/>
  <use id="zoomminus" xlink:href="#zoomMin" x="42" y="9" onmousedown="handleZoom(evt,'out')"/>
  <use id="reset" xlink:href="#resetDef" x="30" y="36" onmousedown="handleReset()"/>
   <use id="arrowup" xlink:href="#arrowUp" x="0" y="0" onmousedown="handlePan(0,-1)"/>
  <use id="arrowright" xlink:href="#arrowRight" x="0" y="0" onmousedown="handlePan(1,0)"/>
  <use id="arrowdown" xlink:href="#arrowDown" x="0" y="0" onmousedown="handlePan(0,1)"/>
  <use id="arrowleft" xlink:href="#arrowLeft" x="0" y="0" onmousedown="handlePan(-1,0)"/>
</g>
<svg viewBox="0 0 15 15" width="100%" height="30px" preserveAspectRatio="xMaxYMin meet">
 <g id="arrow_out" transform="scale(0.3 0.3)">
  <a xlink:href="classcarla_1_1streaming_1_1Client__coll__graph_org.svg" target="_base">
   <rect id="button" ry="5" rx="5" y="6" x="6" height="38" width="38"
        fill="#f2f5e9" fill-opacity="0.5" stroke="#606060" stroke-width="1.0"/>
   <path id="arrow"
     d="M 11.500037,31.436501 C 11.940474,20.09759 22.043105,11.32322 32.158766,21.979434 L 37.068811,17.246167 C 37.068811,17.246167 37.088388,32 37.088388,32 L 22.160133,31.978069 C 22.160133,31.978069 26.997745,27.140456 26.997745,27.140456 C 18.528582,18.264221 13.291696,25.230495 11.500037,31.436501 z"
     style="fill:#404040;"/>
  </a>
 </g>
</svg>

<style type='text/css'>
<![CDATA[
[data-mouse-over-selected='false'] { opacity: 0.7; }
[data-mouse-over-selected='true']  { opacity: 1.0; }
]]>
</style>
<script type="application/ecmascript"><![CDATA[
document.addEventListener('DOMContentLoaded', (event) => {
  highlightEdges();
  highlightAdjacentNodes();
});
]]></script>
</svg>
