<?xml version="1.0" encoding="UTF-8" standalone="no"?>
<!DOCTYPE svg PUBLIC "-//W3C//DTD SVG 1.1//EN"
 "http://www.w3.org/Graphics/SVG/1.1/DTD/svg11.dtd">
<!-- Generated by graphviz version 8.1.0 (20230707.0739)
 -->
<!-- Title: UTrafficLightController::GetCurrentState Pages: 1 -->
<svg width="1107pt" height="234pt"
 viewBox="0.00 0.00 1107.00 234.00" xmlns="http://www.w3.org/2000/svg" xmlns:xlink="http://www.w3.org/1999/xlink">
<g id="graph0" class="graph" transform="scale(1 1) rotate(0) translate(4 230)">
<title>UTrafficLightController::GetCurrentState</title>
<!-- Node1 -->
<g id="Node000001" class="node">
<title>Node1</title>
<g id="a_Node000001"><a xlink:title=" ">
<polygon fill="#999999" stroke="#666666" points="1099,-132 988.5,-132 988.5,-100 1099,-100 1099,-132"/>
<text text-anchor="start" x="996.5" y="-118.5" font-family="Helvetica,sans-Serif" font-size="10.00">UTrafficLightController</text>
<text text-anchor="middle" x="1043.75" y="-106.5" font-family="Helvetica,sans-Serif" font-size="10.00">::GetCurrentState</text>
</a>
</g>
</g>
<!-- Node2 -->
<g id="Node000002" class="node">
<title>Node2</title>
<g id="a_Node000002"><a xlink:href="../../d3/d08/classUTrafficLightController.html#a43912ddddab9e9512b179b584a37a21d" target="_top" xlink:title=" ">
<polygon fill="white" stroke="#666666" points="806,-226 647.5,-226 647.5,-194 806,-194 806,-226"/>
<text text-anchor="start" x="655.5" y="-212.5" font-family="Helvetica,sans-Serif" font-size="10.00">UTrafficLightController</text>
<text text-anchor="middle" x="726.75" y="-200.5" font-family="Helvetica,sans-Serif" font-size="10.00">::AdvanceTimeAndCycleFinished</text>
</a>
</g>
</g>
<!-- Node1&#45;&gt;Node2 -->
<g id="edge1_Node000001_Node000002" class="edge">
<title>Node1&#45;&gt;Node2</title>
<g id="a_edge1_Node000001_Node000002"><a xlink:title=" ">
<path fill="none" stroke="#63b8ff" d="M1021.92,-139.82C1005.1,-157.28 979.8,-179.81 952.5,-191 906.48,-209.85 850.81,-214.68 806.39,-214.75"/>
<polygon fill="#63b8ff" stroke="#63b8ff" points="1023.75,-142.91 1028.03,-133.21 1018.64,-138.13 1023.75,-142.91"/>
</a>
</g>
</g>
<!-- Node4 -->
<g id="Node000004" class="node">
<title>Node4</title>
<g id="a_Node000004"><a xlink:href="../../d3/d08/classUTrafficLightController.html#a2d83a8d193284ecce0cb08507e4c01ae" target="_top" xlink:title=" ">
<polygon fill="white" stroke="#666666" points="952.5,-182 842,-182 842,-150 952.5,-150 952.5,-182"/>
<text text-anchor="start" x="850" y="-168.5" font-family="Helvetica,sans-Serif" font-size="10.00">UTrafficLightController</text>
<text text-anchor="middle" x="897.25" y="-156.5" font-family="Helvetica,sans-Serif" font-size="10.00">::NextState</text>
</a>
</g>
</g>
<!-- Node1&#45;&gt;Node4 -->
<g id="edge4_Node000001_Node000004" class="edge">
<title>Node1&#45;&gt;Node4</title>
<g id="a_edge4_Node000001_Node000004"><a xlink:title=" ">
<path fill="none" stroke="#63b8ff" d="M985.12,-135.94C972.03,-140.47 958.28,-145.23 945.67,-149.59"/>
<polygon fill="#63b8ff" stroke="#63b8ff" points="986.13,-138.95 994.44,-132.37 983.84,-132.33 986.13,-138.95"/>
</a>
</g>
</g>
<!-- Node5 -->
<g id="Node000005" class="node">
<title>Node5</title>
<g id="a_Node000005"><a xlink:href="../../d3/d08/classUTrafficLightController.html#af0b760acc56572446cbcc07b48701776" target="_top" xlink:title=" ">
<polygon fill="white" stroke="#666666" points="952.5,-82 842,-82 842,-50 952.5,-50 952.5,-82"/>
<text text-anchor="start" x="850" y="-68.5" font-family="Helvetica,sans-Serif" font-size="10.00">UTrafficLightController</text>
<text text-anchor="middle" x="897.25" y="-56.5" font-family="Helvetica,sans-Serif" font-size="10.00">::ResetState</text>
</a>
</g>
</g>
<!-- Node1&#45;&gt;Node5 -->
<g id="edge6_Node000001_Node000005" class="edge">
<title>Node1&#45;&gt;Node5</title>
<g id="a_edge6_Node000001_Node000005"><a xlink:title=" ">
<path fill="none" stroke="#63b8ff" d="M985.12,-96.06C972.03,-91.53 958.28,-86.77 945.67,-82.41"/>
<polygon fill="#63b8ff" stroke="#63b8ff" points="983.84,-99.67 994.44,-99.63 986.13,-93.05 983.84,-99.67"/>
</a>
</g>
</g>
<!-- Node11 -->
<g id="Node000011" class="node">
<title>Node11</title>
<g id="a_Node000011"><a xlink:href="../../d5/d59/classFTrafficLightData.html#a33b6bfb7f3080da9b6b47f89c3ffaf99" target="_top" xlink:title=" ">
<polygon fill="white" stroke="#666666" points="944.62,-32 849.88,-32 849.88,0 944.62,0 944.62,-32"/>
<text text-anchor="start" x="857.88" y="-18.5" font-family="Helvetica,sans-Serif" font-size="10.00">FTrafficLightData::</text>
<text text-anchor="middle" x="897.25" y="-6.5" font-family="Helvetica,sans-Serif" font-size="10.00">RestoreActorData</text>
</a>
</g>
</g>
<!-- Node1&#45;&gt;Node11 -->
<g id="edge12_Node000001_Node000011" class="edge">
<title>Node1&#45;&gt;Node11</title>
<g id="a_edge12_Node000001_Node000011"><a xlink:title=" ">
<path fill="none" stroke="#63b8ff" d="M1017.87,-92.27C1000.47,-76.47 976.19,-55.94 952.5,-41 947.68,-37.96 942.42,-35.07 937.14,-32.41"/>
<polygon fill="#63b8ff" stroke="#63b8ff" points="1015.1,-94.4 1024.83,-98.6 1019.85,-89.25 1015.1,-94.4"/>
</a>
</g>
</g>
<!-- Node12 -->
<g id="Node000012" class="node">
<title>Node12</title>
<g id="a_Node000012"><a xlink:href="../../d3/d08/classUTrafficLightController.html#abccad600709c8fdae5100e6e976f80f3" target="_top" xlink:title=" ">
<polygon fill="white" stroke="#666666" points="952.5,-132 842,-132 842,-100 952.5,-100 952.5,-132"/>
<text text-anchor="start" x="850" y="-118.5" font-family="Helvetica,sans-Serif" font-size="10.00">UTrafficLightController</text>
<text text-anchor="middle" x="897.25" y="-106.5" font-family="Helvetica,sans-Serif" font-size="10.00">::StartCycle</text>
</a>
</g>
</g>
<!-- Node1&#45;&gt;Node12 -->
<g id="edge13_Node000001_Node000012" class="edge">
<title>Node1&#45;&gt;Node12</title>
<g id="a_edge13_Node000001_Node000012"><a xlink:title=" ">
<path fill="none" stroke="#63b8ff" d="M977.18,-116C969.08,-116 960.87,-116 952.96,-116"/>
<polygon fill="#63b8ff" stroke="#63b8ff" points="977.12,-119.5 987.12,-116 977.12,-112.5 977.12,-119.5"/>
</a>
</g>
</g>
<!-- Node3 -->
<g id="Node000003" class="node">
<title>Node3</title>
<g id="a_Node000003"><a xlink:href="../../dd/d12/classATrafficLightGroup.html#a7e7e94e36f48f340dad08a7b16d7ab3d" target="_top" xlink:title=" ">
<polygon fill="white" stroke="#666666" points="583.75,-188 488.25,-188 488.25,-156 583.75,-156 583.75,-188"/>
<text text-anchor="start" x="496.25" y="-174.5" font-family="Helvetica,sans-Serif" font-size="10.00">ATrafficLightGroup</text>
<text text-anchor="middle" x="536" y="-162.5" font-family="Helvetica,sans-Serif" font-size="10.00">::Tick</text>
</a>
</g>
</g>
<!-- Node2&#45;&gt;Node3 -->
<g id="edge2_Node000002_Node000003" class="edge">
<title>Node2&#45;&gt;Node3</title>
<g id="a_edge2_Node000002_Node000003"><a xlink:title=" ">
<path fill="none" stroke="#63b8ff" d="M636.45,-192.02C618.32,-188.37 599.94,-184.67 584,-181.46"/>
<polygon fill="#63b8ff" stroke="#63b8ff" points="635.58,-195.62 646.07,-194.16 636.96,-188.75 635.58,-195.62"/>
</a>
</g>
</g>
<!-- Node3&#45;&gt;Node3 -->
<g id="edge3_Node000003_Node000003" class="edge">
<title>Node3&#45;&gt;Node3</title>
<g id="a_edge3_Node000003_Node000003"><a xlink:title=" ">
<path fill="none" stroke="#63b8ff" d="M564.22,-199.05C559.93,-203.19 550.52,-206 536,-206 510.88,-206 501.07,-197.58 506.57,-188.44"/>
<polygon fill="#63b8ff" stroke="#63b8ff" points="567.77,-199.78 565.43,-189.44 560.82,-198.98 567.77,-199.78"/>
</a>
</g>
</g>
<!-- Node4&#45;&gt;Node2 -->
<g id="edge5_Node000004_Node000002" class="edge">
<title>Node4&#45;&gt;Node2</title>
<g id="a_edge5_Node000004_Node000002"><a xlink:title=" ">
<path fill="none" stroke="#63b8ff" d="M831.07,-183.02C817.8,-186.49 803.86,-190.13 790.67,-193.57"/>
<polygon fill="#63b8ff" stroke="#63b8ff" points="831.75,-186.2 840.54,-180.29 829.98,-179.43 831.75,-186.2"/>
</a>
</g>
</g>
<!-- Node6 -->
<g id="Node000006" class="node">
<title>Node6</title>
<g id="a_Node000006"><a xlink:href="../../df/da5/classATrafficLightManager.html#a32e1423d001b738bddbe695a983789ae" target="_top" xlink:title=" ">
<polygon fill="white" stroke="#666666" points="611.5,-119 460.5,-119 460.5,-75 611.5,-75 611.5,-119"/>
<text text-anchor="start" x="468.5" y="-105.5" font-family="Helvetica,sans-Serif" font-size="10.00">ATrafficLightManager</text>
<text text-anchor="start" x="468.5" y="-93.5" font-family="Helvetica,sans-Serif" font-size="10.00">::RegisterLightComponentFrom</text>
<text text-anchor="middle" x="536" y="-81.5" font-family="Helvetica,sans-Serif" font-size="10.00">OpenDRIVE</text>
</a>
</g>
</g>
<!-- Node5&#45;&gt;Node6 -->
<g id="edge7_Node000005_Node000006" class="edge">
<title>Node5&#45;&gt;Node6</title>
<g id="a_edge7_Node000005_Node000006"><a xlink:title=" ">
<path fill="none" stroke="#63b8ff" d="M831.16,-70.4C780.95,-73.93 709.78,-79.24 647.5,-85 635.97,-86.07 623.78,-87.29 611.86,-88.54"/>
<polygon fill="#63b8ff" stroke="#63b8ff" points="831.13,-73.84 840.86,-69.65 830.64,-66.86 831.13,-73.84"/>
</a>
</g>
</g>
<!-- Node10 -->
<g id="Node000010" class="node">
<title>Node10</title>
<g id="a_Node000010"><a xlink:href="../../d3/d08/classUTrafficLightController.html#ae51d994fdb17c3199e673af64297d7c0" target="_top" xlink:title=" ">
<polygon fill="white" stroke="#666666" points="782,-38 671.5,-38 671.5,-6 782,-6 782,-38"/>
<text text-anchor="start" x="679.5" y="-24.5" font-family="Helvetica,sans-Serif" font-size="10.00">UTrafficLightController</text>
<text text-anchor="middle" x="726.75" y="-12.5" font-family="Helvetica,sans-Serif" font-size="10.00">::SetStates</text>
</a>
</g>
</g>
<!-- Node5&#45;&gt;Node10 -->
<g id="edge11_Node000005_Node000010" class="edge">
<title>Node5&#45;&gt;Node10</title>
<g id="a_edge11_Node000005_Node000010"><a xlink:title=" ">
<path fill="none" stroke="#63b8ff" d="M831.14,-49C815.06,-44.8 798,-40.34 782.47,-36.29"/>
<polygon fill="#63b8ff" stroke="#63b8ff" points="829.98,-52.57 840.54,-51.71 831.75,-45.8 829.98,-52.57"/>
</a>
</g>
</g>
<!-- Node7 -->
<g id="Node000007" class="node">
<title>Node7</title>
<g id="a_Node000007"><a xlink:href="../../df/da5/classATrafficLightManager.html#a86d8da5023cf7523924fa33e0feb2e0f" target="_top" xlink:title=" ">
<polygon fill="white" stroke="#666666" points="424.5,-113 317.75,-113 317.75,-81 424.5,-81 424.5,-113"/>
<text text-anchor="start" x="325.75" y="-99.5" font-family="Helvetica,sans-Serif" font-size="10.00">ATrafficLightManager</text>
<text text-anchor="middle" x="371.12" y="-87.5" font-family="Helvetica,sans-Serif" font-size="10.00">::SpawnTrafficLights</text>
</a>
</g>
</g>
<!-- Node6&#45;&gt;Node7 -->
<g id="edge8_Node000006_Node000007" class="edge">
<title>Node6&#45;&gt;Node7</title>
<g id="a_edge8_Node000006_Node000007"><a xlink:title=" ">
<path fill="none" stroke="#63b8ff" d="M449.49,-97C441,-97 432.58,-97 424.58,-97"/>
<polygon fill="#63b8ff" stroke="#63b8ff" points="449.24,-100.5 459.24,-97 449.24,-93.5 449.24,-100.5"/>
</a>
</g>
</g>
<!-- Node8 -->
<g id="Node000008" class="node">
<title>Node8</title>
<g id="a_Node000008"><a xlink:href="../../df/da5/classATrafficLightManager.html#ae473e1bb0e60e5c2db5684efc72a1e89" target="_top" xlink:title=" ">
<polygon fill="white" stroke="#666666" points="281.75,-119 145,-119 145,-75 281.75,-75 281.75,-119"/>
<text text-anchor="start" x="153" y="-105.5" font-family="Helvetica,sans-Serif" font-size="10.00">ATrafficLightManager</text>
<text text-anchor="start" x="153" y="-93.5" font-family="Helvetica,sans-Serif" font-size="10.00">::GenerateSignalsAndTraffic</text>
<text text-anchor="middle" x="213.38" y="-81.5" font-family="Helvetica,sans-Serif" font-size="10.00">Lights</text>
</a>
</g>
</g>
<!-- Node7&#45;&gt;Node8 -->
<g id="edge9_Node000007_Node000008" class="edge">
<title>Node7&#45;&gt;Node8</title>
<g id="a_edge9_Node000007_Node000008"><a xlink:title=" ">
<path fill="none" stroke="#63b8ff" d="M306.61,-97C298.58,-97 290.33,-97 282.24,-97"/>
<polygon fill="#63b8ff" stroke="#63b8ff" points="306.4,-100.5 316.4,-97 306.4,-93.5 306.4,-100.5"/>
</a>
</g>
</g>
<!-- Node9 -->
<g id="Node000009" class="node">
<title>Node9</title>
<g id="a_Node000009"><a xlink:href="../../df/da5/classATrafficLightManager.html#a597d552d266a41c4f45c1740d1ce7c40" target="_top" xlink:title=" ">
<polygon fill="white" stroke="#666666" points="109,-113 0,-113 0,-81 109,-81 109,-113"/>
<text text-anchor="start" x="8" y="-99.5" font-family="Helvetica,sans-Serif" font-size="10.00">ATrafficLightManager</text>
<text text-anchor="middle" x="54.5" y="-87.5" font-family="Helvetica,sans-Serif" font-size="10.00">::InitializeTrafficLights</text>
</a>
</g>
</g>
<!-- Node8&#45;&gt;Node9 -->
<g id="edge10_Node000008_Node000009" class="edge">
<title>Node8&#45;&gt;Node9</title>
<g id="a_edge10_Node000008_Node000009"><a xlink:title=" ">
<path fill="none" stroke="#63b8ff" d="M133.94,-97C125.55,-97 117.16,-97 109.16,-97"/>
<polygon fill="#63b8ff" stroke="#63b8ff" points="133.94,-100.5 143.94,-97 133.94,-93.5 133.94,-100.5"/>
</a>
</g>
</g>
<!-- Node13 -->
<g id="Node000013" class="node">
<title>Node13</title>
<g id="a_Node000013"><a xlink:href="../../dd/d12/classATrafficLightGroup.html#aa120ed6d23965c93f901c194dee41a83" target="_top" xlink:title=" ">
<polygon fill="white" stroke="#666666" points="774.5,-176 679,-176 679,-144 774.5,-144 774.5,-176"/>
<text text-anchor="start" x="687" y="-162.5" font-family="Helvetica,sans-Serif" font-size="10.00">ATrafficLightGroup</text>
<text text-anchor="middle" x="726.75" y="-150.5" font-family="Helvetica,sans-Serif" font-size="10.00">::NextController</text>
</a>
</g>
</g>
<!-- Node12&#45;&gt;Node13 -->
<g id="edge14_Node000012_Node000013" class="edge">
<title>Node12&#45;&gt;Node13</title>
<g id="a_edge14_Node000012_Node000013"><a xlink:title=" ">
<path fill="none" stroke="#63b8ff" d="M831,-133.04C812.28,-137.93 792.23,-143.16 774.83,-147.71"/>
<polygon fill="#63b8ff" stroke="#63b8ff" points="831.75,-136.2 840.54,-130.29 829.98,-129.43 831.75,-136.2"/>
</a>
</g>
</g>
<!-- Node14 -->
<g id="Node000014" class="node">
<title>Node14</title>
<g id="a_Node000014"><a xlink:href="../../dd/d12/classATrafficLightGroup.html#a610a6e9c2616a616f0b4774c93210120" target="_top" xlink:title=" ">
<polygon fill="white" stroke="#666666" points="774.5,-126 679,-126 679,-94 774.5,-94 774.5,-126"/>
<text text-anchor="start" x="687" y="-112.5" font-family="Helvetica,sans-Serif" font-size="10.00">ATrafficLightGroup</text>
<text text-anchor="middle" x="726.75" y="-100.5" font-family="Helvetica,sans-Serif" font-size="10.00">::ResetGroup</text>
</a>
</g>
</g>
<!-- Node12&#45;&gt;Node14 -->
<g id="edge16_Node000012_Node000014" class="edge">
<title>Node12&#45;&gt;Node14</title>
<g id="a_edge16_Node000012_Node000014"><a xlink:title=" ">
<path fill="none" stroke="#63b8ff" d="M830.74,-113.67C812.09,-113 792.15,-112.29 774.83,-111.68"/>
<polygon fill="#63b8ff" stroke="#63b8ff" points="830.42,-117.19 840.54,-114.05 830.67,-110.2 830.42,-117.19"/>
</a>
</g>
</g>
<!-- Node13&#45;&gt;Node3 -->
<g id="edge15_Node000013_Node000003" class="edge">
<title>Node13&#45;&gt;Node3</title>
<g id="a_edge15_Node000013_Node000003"><a xlink:title=" ">
<path fill="none" stroke="#63b8ff" d="M667.81,-163.68C641,-165.39 609.54,-167.39 584.2,-169"/>
<polygon fill="#63b8ff" stroke="#63b8ff" points="667.85,-167.12 677.61,-163 667.41,-160.14 667.85,-167.12"/>
</a>
</g>
</g>
<!-- Node14&#45;&gt;Node6 -->
<g id="edge17_Node000014_Node000006" class="edge">
<title>Node14&#45;&gt;Node6</title>
<g id="a_edge17_Node000014_Node000006"><a xlink:title=" ">
<path fill="none" stroke="#63b8ff" d="M667.87,-106.01C650.17,-104.79 630.44,-103.44 611.78,-102.15"/>
<polygon fill="#63b8ff" stroke="#63b8ff" points="667.39,-109.56 677.61,-106.75 667.87,-102.57 667.39,-109.56"/>
</a>
</g>
</g>
</g>
</svg>
