<?xml version="1.0" encoding="UTF-8" standalone="no"?>
<!DOCTYPE svg PUBLIC "-//W3C//DTD SVG 1.1//EN"
 "http://www.w3.org/Graphics/SVG/1.1/DTD/svg11.dtd">
<!-- Generated by graphviz version 8.1.0 (20230707.0739)
 -->
<!-- Title: UTrafficLightController::GetStateTime Pages: 1 -->
<svg width="1157pt" height="140pt"
 viewBox="0.00 0.00 1156.50 140.00" xmlns="http://www.w3.org/2000/svg" xmlns:xlink="http://www.w3.org/1999/xlink">
<g id="graph0" class="graph" transform="scale(1 1) rotate(0) translate(4 136)">
<title>UTrafficLightController::GetStateTime</title>
<!-- Node1 -->
<g id="Node000001" class="node">
<title>Node1</title>
<g id="a_Node000001"><a xlink:title=" ">
<polygon fill="#999999" stroke="#666666" points="1148.5,-82 1038,-82 1038,-50 1148.5,-50 1148.5,-82"/>
<text text-anchor="start" x="1046" y="-68.5" font-family="Helvetica,sans-Serif" font-size="10.00">UTrafficLightController</text>
<text text-anchor="middle" x="1093.25" y="-56.5" font-family="Helvetica,sans-Serif" font-size="10.00">::GetStateTime</text>
</a>
</g>
</g>
<!-- Node2 -->
<g id="Node000002" class="node">
<title>Node2</title>
<g id="a_Node000002"><a xlink:href="../../d3/d08/classUTrafficLightController.html#a557f05a6465e3d1c51735f7087cf38d2" target="_top" xlink:title=" ">
<polygon fill="white" stroke="#666666" points="1002,-132 891.5,-132 891.5,-100 1002,-100 1002,-132"/>
<text text-anchor="start" x="899.5" y="-118.5" font-family="Helvetica,sans-Serif" font-size="10.00">UTrafficLightController</text>
<text text-anchor="middle" x="946.75" y="-106.5" font-family="Helvetica,sans-Serif" font-size="10.00">::GetGreenTime</text>
</a>
</g>
</g>
<!-- Node1&#45;&gt;Node2 -->
<g id="edge1_Node000001_Node000002" class="edge">
<title>Node1&#45;&gt;Node2</title>
<g id="a_edge1_Node000001_Node000002"><a xlink:title=" ">
<path fill="none" stroke="#63b8ff" d="M1034.62,-85.94C1021.53,-90.47 1007.78,-95.23 995.17,-99.59"/>
<polygon fill="#63b8ff" stroke="#63b8ff" points="1035.63,-88.95 1043.94,-82.37 1033.34,-82.33 1035.63,-88.95"/>
</a>
</g>
</g>
<!-- Node8 -->
<g id="Node000008" class="node">
<title>Node8</title>
<g id="a_Node000008"><a xlink:href="../../d3/d08/classUTrafficLightController.html#a04c683d92fa5345f3890bd0932219ef2" target="_top" xlink:title=" ">
<polygon fill="white" stroke="#666666" points="1002,-82 891.5,-82 891.5,-50 1002,-50 1002,-82"/>
<text text-anchor="start" x="899.5" y="-68.5" font-family="Helvetica,sans-Serif" font-size="10.00">UTrafficLightController</text>
<text text-anchor="middle" x="946.75" y="-56.5" font-family="Helvetica,sans-Serif" font-size="10.00">::GetRedTime</text>
</a>
</g>
</g>
<!-- Node1&#45;&gt;Node8 -->
<g id="edge7_Node000001_Node000008" class="edge">
<title>Node1&#45;&gt;Node8</title>
<g id="a_edge7_Node000001_Node000008"><a xlink:title=" ">
<path fill="none" stroke="#63b8ff" d="M1026.68,-66C1018.58,-66 1010.37,-66 1002.46,-66"/>
<polygon fill="#63b8ff" stroke="#63b8ff" points="1026.62,-69.5 1036.62,-66 1026.62,-62.5 1026.62,-69.5"/>
</a>
</g>
</g>
<!-- Node9 -->
<g id="Node000009" class="node">
<title>Node9</title>
<g id="a_Node000009"><a xlink:href="../../d3/d08/classUTrafficLightController.html#a36f51e398a22f815cf90186947fdc1ab" target="_top" xlink:title=" ">
<polygon fill="white" stroke="#666666" points="1002,-32 891.5,-32 891.5,0 1002,0 1002,-32"/>
<text text-anchor="start" x="899.5" y="-18.5" font-family="Helvetica,sans-Serif" font-size="10.00">UTrafficLightController</text>
<text text-anchor="middle" x="946.75" y="-6.5" font-family="Helvetica,sans-Serif" font-size="10.00">::GetYellowTime</text>
</a>
</g>
</g>
<!-- Node1&#45;&gt;Node9 -->
<g id="edge9_Node000001_Node000009" class="edge">
<title>Node1&#45;&gt;Node9</title>
<g id="a_edge9_Node000001_Node000009"><a xlink:title=" ">
<path fill="none" stroke="#63b8ff" d="M1034.62,-46.06C1021.53,-41.53 1007.78,-36.77 995.17,-32.41"/>
<polygon fill="#63b8ff" stroke="#63b8ff" points="1033.34,-49.67 1043.94,-49.63 1035.63,-43.05 1033.34,-49.67"/>
</a>
</g>
</g>
<!-- Node3 -->
<g id="Node000003" class="node">
<title>Node3</title>
<g id="a_Node000003"><a xlink:href="../../d9/de7/WorldObserver_8cpp.html#a101723de0d64fc2d5570dfab556edc7f" target="_top" xlink:title=" ">
<polygon fill="white" stroke="#666666" points="855.5,-76 702.25,-76 702.25,-56 855.5,-56 855.5,-76"/>
<text text-anchor="middle" x="778.88" y="-62.5" font-family="Helvetica,sans-Serif" font-size="10.00">FWorldObserver_GetActorState</text>
</a>
</g>
</g>
<!-- Node2&#45;&gt;Node3 -->
<g id="edge2_Node000002_Node000003" class="edge">
<title>Node2&#45;&gt;Node3</title>
<g id="a_edge2_Node000002_Node000003"><a xlink:title=" ">
<path fill="none" stroke="#63b8ff" d="M881.16,-96.53C858.44,-89.68 833.78,-82.25 814.48,-76.43"/>
<polygon fill="#63b8ff" stroke="#63b8ff" points="879.85,-100.09 890.44,-99.63 881.87,-93.39 879.85,-100.09"/>
</a>
</g>
</g>
<!-- Node4 -->
<g id="Node000004" class="node">
<title>Node4</title>
<g id="a_Node000004"><a xlink:href="../../d9/de7/WorldObserver_8cpp.html#a55e677eb5bd393082eef8383920b2fde" target="_top" xlink:title=" ">
<polygon fill="white" stroke="#666666" points="666.25,-76 537.75,-76 537.75,-56 666.25,-56 666.25,-76"/>
<text text-anchor="middle" x="602" y="-62.5" font-family="Helvetica,sans-Serif" font-size="10.00">FWorldObserver_Serialize</text>
</a>
</g>
</g>
<!-- Node3&#45;&gt;Node4 -->
<g id="edge3_Node000003_Node000004" class="edge">
<title>Node3&#45;&gt;Node4</title>
<g id="a_edge3_Node000003_Node000004"><a xlink:title=" ">
<path fill="none" stroke="#63b8ff" d="M691.1,-66C682.83,-66 674.55,-66 666.57,-66"/>
<polygon fill="#63b8ff" stroke="#63b8ff" points="690.94,-69.5 700.94,-66 690.94,-62.5 690.94,-69.5"/>
</a>
</g>
</g>
<!-- Node5 -->
<g id="Node000005" class="node">
<title>Node5</title>
<g id="a_Node000005"><a xlink:href="../../da/d9b/classFWorldObserver.html#ad866b204499b7d2252661e39bcff1811" target="_top" xlink:title="Send a message to every connected client with the info about the given Episode.">
<polygon fill="white" stroke="#666666" points="501.75,-76 347.75,-76 347.75,-56 501.75,-56 501.75,-76"/>
<text text-anchor="middle" x="424.75" y="-62.5" font-family="Helvetica,sans-Serif" font-size="10.00">FWorldObserver::BroadcastTick</text>
</a>
</g>
</g>
<!-- Node4&#45;&gt;Node5 -->
<g id="edge4_Node000004_Node000005" class="edge">
<title>Node4&#45;&gt;Node5</title>
<g id="a_edge4_Node000004_Node000005"><a xlink:title=" ">
<path fill="none" stroke="#63b8ff" d="M526.73,-66C518.57,-66 510.26,-66 502.08,-66"/>
<polygon fill="#63b8ff" stroke="#63b8ff" points="526.73,-69.5 536.73,-66 526.73,-62.5 526.73,-69.5"/>
</a>
</g>
</g>
<!-- Node6 -->
<g id="Node000006" class="node">
<title>Node6</title>
<g id="a_Node000006"><a xlink:href="../../dc/d49/classFCarlaEngine.html#aff440c7ba9d004e4c5b60125cc4d709b" target="_top" xlink:title=" ">
<polygon fill="white" stroke="#666666" points="311.75,-76 180.25,-76 180.25,-56 311.75,-56 311.75,-76"/>
<text text-anchor="middle" x="246" y="-62.5" font-family="Helvetica,sans-Serif" font-size="10.00">FCarlaEngine::OnPostTick</text>
</a>
</g>
</g>
<!-- Node5&#45;&gt;Node6 -->
<g id="edge5_Node000005_Node000006" class="edge">
<title>Node5&#45;&gt;Node6</title>
<g id="a_edge5_Node000005_Node000006"><a xlink:title=" ">
<path fill="none" stroke="#63b8ff" d="M336.45,-66C328.21,-66 319.96,-66 311.98,-66"/>
<polygon fill="#63b8ff" stroke="#63b8ff" points="336.25,-69.5 346.25,-66 336.25,-62.5 336.25,-69.5"/>
</a>
</g>
</g>
<!-- Node7 -->
<g id="Node000007" class="node">
<title>Node7</title>
<g id="a_Node000007"><a xlink:href="../../dc/d49/classFCarlaEngine.html#ab8d13063cde985781237dd7da308227e" target="_top" xlink:title=" ">
<polygon fill="white" stroke="#666666" points="144.25,-76 0,-76 0,-56 144.25,-56 144.25,-76"/>
<text text-anchor="middle" x="72.12" y="-62.5" font-family="Helvetica,sans-Serif" font-size="10.00">FCarlaEngine::NotifyInitGame</text>
</a>
</g>
</g>
<!-- Node6&#45;&gt;Node7 -->
<g id="edge6_Node000006_Node000007" class="edge">
<title>Node6&#45;&gt;Node7</title>
<g id="a_edge6_Node000006_Node000007"><a xlink:title=" ">
<path fill="none" stroke="#63b8ff" d="M169.3,-66C161.06,-66 152.7,-66 144.52,-66"/>
<polygon fill="#63b8ff" stroke="#63b8ff" points="169.02,-69.5 179.02,-66 169.02,-62.5 169.02,-69.5"/>
</a>
</g>
</g>
<!-- Node8&#45;&gt;Node3 -->
<g id="edge8_Node000008_Node000003" class="edge">
<title>Node8&#45;&gt;Node3</title>
<g id="a_edge8_Node000008_Node000003"><a xlink:title=" ">
<path fill="none" stroke="#63b8ff" d="M880.6,-66C872.52,-66 864.21,-66 855.99,-66"/>
<polygon fill="#63b8ff" stroke="#63b8ff" points="880.44,-69.5 890.44,-66 880.44,-62.5 880.44,-69.5"/>
</a>
</g>
</g>
<!-- Node9&#45;&gt;Node3 -->
<g id="edge10_Node000009_Node000003" class="edge">
<title>Node9&#45;&gt;Node3</title>
<g id="a_edge10_Node000009_Node000003"><a xlink:title=" ">
<path fill="none" stroke="#63b8ff" d="M881.16,-35.47C858.44,-42.32 833.78,-49.75 814.48,-55.57"/>
<polygon fill="#63b8ff" stroke="#63b8ff" points="881.87,-38.61 890.44,-32.37 879.85,-31.91 881.87,-38.61"/>
</a>
</g>
</g>
</g>
</svg>
