<?xml version="1.0" encoding="UTF-8" standalone="no"?>
<!DOCTYPE svg PUBLIC "-//W3C//DTD SVG 1.1//EN"
 "http://www.w3.org/Graphics/SVG/1.1/DTD/svg11.dtd">
<!-- Generated by graphviz version 8.1.0 (20230707.0739)
 -->
<!-- Title: carla::client::detail::Simulator::IsEnabledForROS Pages: 1 -->
<!--zoomable 140 -->

<svg id="main" version="1.1" xmlns="http://www.w3.org/2000/svg" xmlns:xlink="http://www.w3.org/1999/xlink" xml:space="preserve" onload="init(evt)">
<style type="text/css"><![CDATA[
.node, .edge {opacity: 0.7;}
.node.selected, .edge.selected {opacity: 1;}
.edge:hover path { stroke: red; }
.edge:hover polygon { stroke: red; fill: red; }
]]></style>

<defs>
  <circle id="rim" cx="0" cy="0" r="7"/>
  <circle id="rim2" cx="0" cy="0" r="3.5"/>
  <g id="zoomPlus">
    <use xlink:href="#rim" fill="#404040"><set attributeName="fill" to="#808080" begin="zoomplus.mouseover" end="zoomplus.mouseout"/></use>
    <path d="M-4,0h8M0,-4v8" fill="none" stroke="white" stroke-width="1.5" pointer-events="none"/>
  </g>
  <g id="zoomMin">
    <use xlink:href="#rim" fill="#404040"><set attributeName="fill" to="#808080" begin="zoomminus.mouseover" end="zoomminus.mouseout"/></use>
    <path d="M-4,0h8" fill="none" stroke="white" stroke-width="1.5" pointer-events="none"/>
  </g>
  <g id="arrowUp" transform="translate(30 24)">
    <use xlink:href="#rim"/>
    <path pointer-events="none" fill="none" stroke="white" stroke-width="1.5" d="M0,-3.0v7 M-2.5,-0.5L0,-3.0L2.5,-0.5"/>
  </g>
  <g id="arrowRight" transform="rotate(90) translate(36 -43)">
    <use xlink:href="#rim"/>
    <path pointer-events="none" fill="none" stroke="white" stroke-width="1.5" d="M0,-3.0v7 M-2.5,-0.5L0,-3.0L2.5,-0.5"/>
  </g>
  <g id="arrowDown" transform="rotate(180) translate(-30 -48)">
    <use xlink:href="#rim"/>
    <path pointer-events="none" fill="none" stroke="white" stroke-width="1.5" d="M0,-3.0v7 M-2.5,-0.5L0,-3.0L2.5,-0.5"/>
  </g>
  <g id="arrowLeft" transform="rotate(270) translate(-36 17)">
    <use xlink:href="#rim"/>
    <path pointer-events="none" fill="none" stroke="white" stroke-width="1.5" d="M0,-3.0v7 M-2.5,-0.5L0,-3.0L2.5,-0.5"/>
  </g>
  <g id="resetDef">
    <use xlink:href="#rim2" fill="#404040"><set attributeName="fill" to="#808080" begin="reset.mouseover" end="reset.mouseout"/></use>
  </g>
</defs>
<script type="application/ecmascript">
var viewWidth = 527;
var viewHeight = 140;
var sectionId = 'dynsection-84';
</script>
<script type="application/ecmascript" xlink:href="../../svg.min.js"/>
<svg id="graph" class="graph">
<g id="viewport">
<title>carla::client::detail::Simulator::IsEnabledForROS</title>
<!-- Node1 -->
<g id="Node000001" class="node">
<title>Node1</title>
<g id="a_Node000001"><a xlink:title=" ">
<polygon fill="#999999" stroke="#666666" points="147.25,-82 0,-82 0,-50 147.25,-50 147.25,-82"/>
<text text-anchor="start" x="8" y="-68.5" font-family="Helvetica,sans-Serif" font-size="10.00">carla::client::detail</text>
<text text-anchor="middle" x="73.62" y="-56.5" font-family="Helvetica,sans-Serif" font-size="10.00">::Simulator::IsEnabledForROS</text>
</a>
</g>
</g>
<!-- Node2 -->
<g id="Node000002" class="node">
<title>Node2</title>
<g id="a_Node000002"><a xlink:href="../../d2/d06/classcarla_1_1client_1_1detail_1_1ActorState.html#a90f08c22df7ff985404f5ed89199391c" target="_top" xlink:title=" ">
<polygon fill="white" stroke="#666666" points="345.5,-132 183.25,-132 183.25,-100 345.5,-100 345.5,-132"/>
<text text-anchor="start" x="191.25" y="-118.5" font-family="Helvetica,sans-Serif" font-size="10.00">carla::client::detail</text>
<text text-anchor="middle" x="264.38" y="-106.5" font-family="Helvetica,sans-Serif" font-size="10.00">::ActorState::GetActorDescription</text>
</a>
</g>
</g>
<!-- Node1&#45;&gt;Node2 -->
<g id="edge1_Node000001_Node000002" class="edge">
<title>Node1&#45;&gt;Node2</title>
<g id="a_edge1_Node000001_Node000002"><a xlink:title=" ">
<path fill="none" stroke="#63b8ff" d="M136.69,-82.44C153.94,-87.01 172.84,-92.02 190.64,-96.73"/>
<polygon fill="#63b8ff" stroke="#63b8ff" points="189.71,-100.37 200.27,-99.55 191.5,-93.6 189.71,-100.37"/>
</a>
</g>
</g>
<!-- Node3 -->
<g id="Node000003" class="node">
<title>Node3</title>
<g id="a_Node000003"><a xlink:href="../../db/dfd/classcarla_1_1rpc_1_1Actor.html#a3d76c1c72f6f45601a8d6c564c5d68d2" target="_top" xlink:title=" ">
<polygon fill="white" stroke="#666666" points="310.25,-82 218.5,-82 218.5,-50 310.25,-50 310.25,-82"/>
<text text-anchor="start" x="226.5" y="-68.5" font-family="Helvetica,sans-Serif" font-size="10.00">carla::rpc::Actor::</text>
<text text-anchor="middle" x="264.38" y="-56.5" font-family="Helvetica,sans-Serif" font-size="10.00">GetStreamToken</text>
</a>
</g>
</g>
<!-- Node1&#45;&gt;Node3 -->
<g id="edge2_Node000001_Node000003" class="edge">
<title>Node1&#45;&gt;Node3</title>
<g id="a_edge2_Node000001_Node000003"><a xlink:title=" ">
<path fill="none" stroke="#63b8ff" d="M147.6,-66C167.37,-66 188.45,-66 207.14,-66"/>
<polygon fill="#63b8ff" stroke="#63b8ff" points="207.14,-69.5 217.14,-66 207.14,-62.5 207.14,-69.5"/>
</a>
</g>
</g>
<!-- Node5 -->
<g id="Node000005" class="node">
<title>Node5</title>
<g id="a_Node000005"><a xlink:href="../../dd/ddd/classcarla_1_1client_1_1detail_1_1Client.html#a2041d7ea00beaaf66e5e16a81288a890" target="_top" xlink:title=" ">
<polygon fill="white" stroke="#666666" points="329.75,-32 199,-32 199,0 329.75,0 329.75,-32"/>
<text text-anchor="start" x="207" y="-18.5" font-family="Helvetica,sans-Serif" font-size="10.00">carla::client::detail</text>
<text text-anchor="middle" x="264.38" y="-6.5" font-family="Helvetica,sans-Serif" font-size="10.00">::Client::IsEnabledForROS</text>
</a>
</g>
</g>
<!-- Node1&#45;&gt;Node5 -->
<g id="edge4_Node000001_Node000005" class="edge">
<title>Node1&#45;&gt;Node5</title>
<g id="a_edge4_Node000001_Node000005"><a xlink:title=" ">
<path fill="none" stroke="#63b8ff" d="M136.69,-49.56C153.94,-44.99 172.84,-39.98 190.64,-35.27"/>
<polygon fill="#63b8ff" stroke="#63b8ff" points="191.5,-38.4 200.27,-32.45 189.71,-31.63 191.5,-38.4"/>
</a>
</g>
</g>
<!-- Node4 -->
<g id="Node000004" class="node">
<title>Node4</title>
<g id="a_Node000004"><a xlink:href="../../db/dfd/classcarla_1_1rpc_1_1Actor.html#a427ab77ca916ac215a38a6e984356326" target="_top" xlink:title=" ">
<polygon fill="white" stroke="#666666" points="496.12,-82 404.38,-82 404.38,-50 496.12,-50 496.12,-82"/>
<text text-anchor="start" x="412.38" y="-68.5" font-family="Helvetica,sans-Serif" font-size="10.00">carla::rpc::Actor::</text>
<text text-anchor="middle" x="450.25" y="-56.5" font-family="Helvetica,sans-Serif" font-size="10.00">HasAStream</text>
</a>
</g>
</g>
<!-- Node3&#45;&gt;Node4 -->
<g id="edge3_Node000003_Node000004" class="edge">
<title>Node3&#45;&gt;Node4</title>
<g id="a_edge3_Node000003_Node000004"><a xlink:title=" ">
<path fill="none" stroke="#63b8ff" d="M310.36,-66C335.4,-66 366.8,-66 393.4,-66"/>
<polygon fill="#63b8ff" stroke="#63b8ff" points="393.1,-69.5 403.1,-66 393.1,-62.5 393.1,-69.5"/>
</a>
</g>
</g>
<!-- Node6 -->
<g id="Node000006" class="node">
<title>Node6</title>
<g id="a_Node000006"><a xlink:href="../../df/de1/classcarla_1_1streaming_1_1detail_1_1token__type.html#a2edd9e9111f8f91b47791baec38c5829" target="_top" xlink:title=" ">
<polygon fill="white" stroke="#666666" points="519,-32 381.5,-32 381.5,0 519,0 519,-32"/>
<text text-anchor="start" x="389.5" y="-18.5" font-family="Helvetica,sans-Serif" font-size="10.00">carla::streaming::detail</text>
<text text-anchor="middle" x="450.25" y="-6.5" font-family="Helvetica,sans-Serif" font-size="10.00">::token_type::get_stream_id</text>
</a>
</g>
</g>
<!-- Node5&#45;&gt;Node6 -->
<g id="edge5_Node000005_Node000006" class="edge">
<title>Node5&#45;&gt;Node6</title>
<g id="a_edge5_Node000005_Node000006"><a xlink:title=" ">
<path fill="none" stroke="#63b8ff" d="M330.2,-16C343.26,-16 357.11,-16 370.58,-16"/>
<polygon fill="#63b8ff" stroke="#63b8ff" points="370.27,-19.5 380.27,-16 370.27,-12.5 370.27,-19.5"/>
</a>
</g>
</g>
</g>
</svg>

<g id="navigator" transform="translate(0 0)" fill="#404254">
  <rect fill="#f2f5e9" fill-opacity="0.5" stroke="#606060" stroke-width=".5" x="0" y="0" width="60" height="60"/>
  <use id="zoomplus" xlink:href="#zoomPlus" x="17" y="9" onmousedown="handleZoom(evt,'in')"/>
  <use id="zoomminus" xlink:href="#zoomMin" x="42" y="9" onmousedown="handleZoom(evt,'out')"/>
  <use id="reset" xlink:href="#resetDef" x="30" y="36" onmousedown="handleReset()"/>
   <use id="arrowup" xlink:href="#arrowUp" x="0" y="0" onmousedown="handlePan(0,-1)"/>
  <use id="arrowright" xlink:href="#arrowRight" x="0" y="0" onmousedown="handlePan(1,0)"/>
  <use id="arrowdown" xlink:href="#arrowDown" x="0" y="0" onmousedown="handlePan(0,1)"/>
  <use id="arrowleft" xlink:href="#arrowLeft" x="0" y="0" onmousedown="handlePan(-1,0)"/>
</g>
<svg viewBox="0 0 15 15" width="100%" height="30px" preserveAspectRatio="xMaxYMin meet">
 <g id="arrow_out" transform="scale(0.3 0.3)">
  <a xlink:href="classcarla_1_1client_1_1detail_1_1Simulator_a532e49fd50fee92dbda277450d67711c_cgraph_org.svg" target="_base">
   <rect id="button" ry="5" rx="5" y="6" x="6" height="38" width="38"
        fill="#f2f5e9" fill-opacity="0.5" stroke="#606060" stroke-width="1.0"/>
   <path id="arrow"
     d="M 11.500037,31.436501 C 11.940474,20.09759 22.043105,11.32322 32.158766,21.979434 L 37.068811,17.246167 C 37.068811,17.246167 37.088388,32 37.088388,32 L 22.160133,31.978069 C 22.160133,31.978069 26.997745,27.140456 26.997745,27.140456 C 18.528582,18.264221 13.291696,25.230495 11.500037,31.436501 z"
     style="fill:#404040;"/>
  </a>
 </g>
</svg>

<style type='text/css'>
<![CDATA[
[data-mouse-over-selected='false'] { opacity: 0.7; }
[data-mouse-over-selected='true']  { opacity: 1.0; }
]]>
</style>
<script type="application/ecmascript"><![CDATA[
document.addEventListener('DOMContentLoaded', (event) => {
  highlightEdges();
  highlightAdjacentNodes();
});
]]></script>
</svg>
