<?xml version="1.0" encoding="UTF-8" standalone="no"?>
<!DOCTYPE svg PUBLIC "-//W3C//DTD SVG 1.1//EN"
 "http://www.w3.org/Graphics/SVG/1.1/DTD/svg11.dtd">
<!-- Generated by graphviz version 8.1.0 (20230707.0739)
 -->
<!-- Title: carla::client::detail::Simulator::DestroyActor Pages: 1 -->
<svg width="560pt" height="264pt"
 viewBox="0.00 0.00 559.50 264.50" xmlns="http://www.w3.org/2000/svg" xmlns:xlink="http://www.w3.org/1999/xlink">
<g id="graph0" class="graph" transform="scale(1 1) rotate(0) translate(4 260.5)">
<title>carla::client::detail::Simulator::DestroyActor</title>
<!-- Node1 -->
<g id="Node000001" class="node">
<title>Node1</title>
<g id="a_Node000001"><a xlink:title=" ">
<polygon fill="#999999" stroke="#666666" points="126.25,-131.5 0,-131.5 0,-99.5 126.25,-99.5 126.25,-131.5"/>
<text text-anchor="start" x="8" y="-118" font-family="Helvetica,sans-Serif" font-size="10.00">carla::client::detail</text>
<text text-anchor="middle" x="63.12" y="-106" font-family="Helvetica,sans-Serif" font-size="10.00">::Simulator::DestroyActor</text>
</a>
</g>
</g>
<!-- Node2 -->
<g id="Node000002" class="node">
<title>Node2</title>
<g id="a_Node000002"><a xlink:href="../../d1/dd3/classcarla_1_1client_1_1detail_1_1EpisodeProxyImpl.html#ab87d7c63aa528d5cb2b3f8014bfa415d" target="_top" xlink:title=" ">
<polygon fill="white" stroke="#666666" points="291.88,-256.5 162.62,-256.5 162.62,-224.5 291.88,-224.5 291.88,-256.5"/>
<text text-anchor="start" x="170.62" y="-243" font-family="Helvetica,sans-Serif" font-size="10.00">carla::client::detail</text>
<text text-anchor="middle" x="227.25" y="-231" font-family="Helvetica,sans-Serif" font-size="10.00">::EpisodeProxyImpl::Clear</text>
</a>
</g>
</g>
<!-- Node1&#45;&gt;Node2 -->
<g id="edge1_Node000001_Node000002" class="edge">
<title>Node1&#45;&gt;Node2</title>
<g id="a_edge1_Node000001_Node000002"><a xlink:title=" ">
<path fill="none" stroke="#63b8ff" d="M76.42,-131.78C93.54,-153.49 126.53,-191.91 162.25,-215.5 164.19,-216.78 166.21,-218.01 168.28,-219.19"/>
<polygon fill="#63b8ff" stroke="#63b8ff" points="166.13,-222.54 176.62,-224.05 169.36,-216.33 166.13,-222.54"/>
</a>
</g>
</g>
<!-- Node3 -->
<g id="Node000003" class="node">
<title>Node3</title>
<g id="a_Node000003"><a xlink:href="../../dd/ddd/classcarla_1_1client_1_1detail_1_1Client.html#a767bce329455d4018180177676345a47" target="_top" xlink:title=" ">
<polygon fill="white" stroke="#666666" points="282.12,-206.5 172.38,-206.5 172.38,-174.5 282.12,-174.5 282.12,-206.5"/>
<text text-anchor="start" x="180.38" y="-193" font-family="Helvetica,sans-Serif" font-size="10.00">carla::client::detail</text>
<text text-anchor="middle" x="227.25" y="-181" font-family="Helvetica,sans-Serif" font-size="10.00">::Client::DestroyActor</text>
</a>
</g>
</g>
<!-- Node1&#45;&gt;Node3 -->
<g id="edge2_Node000001_Node000003" class="edge">
<title>Node1&#45;&gt;Node3</title>
<g id="a_edge2_Node000001_Node000003"><a xlink:title=" ">
<path fill="none" stroke="#63b8ff" d="M94.25,-131.82C113.47,-142 139.05,-155.08 162.25,-165.5 165.62,-167.01 169.1,-168.52 172.64,-170.01"/>
<polygon fill="#63b8ff" stroke="#63b8ff" points="171.05,-173.55 181.63,-174.13 173.72,-167.08 171.05,-173.55"/>
</a>
</g>
</g>
<!-- Node6 -->
<g id="Node000006" class="node">
<title>Node6</title>
<g id="a_Node000006"><a xlink:href="../../d2/d06/classcarla_1_1client_1_1detail_1_1ActorState.html#aa98c1565c9edcf133148109c52023819" target="_top" xlink:title=" ">
<polygon fill="white" stroke="#666666" points="292.25,-156.5 162.25,-156.5 162.25,-124.5 292.25,-124.5 292.25,-156.5"/>
<text text-anchor="start" x="170.25" y="-143" font-family="Helvetica,sans-Serif" font-size="10.00">carla::client::detail</text>
<text text-anchor="middle" x="227.25" y="-131" font-family="Helvetica,sans-Serif" font-size="10.00">::ActorState::GetDisplayId</text>
</a>
</g>
</g>
<!-- Node1&#45;&gt;Node6 -->
<g id="edge5_Node000001_Node000006" class="edge">
<title>Node1&#45;&gt;Node6</title>
<g id="a_edge5_Node000001_Node000006"><a xlink:title=" ">
<path fill="none" stroke="#63b8ff" d="M126.34,-125.09C134.41,-126.33 142.75,-127.62 151,-128.89"/>
<polygon fill="#63b8ff" stroke="#63b8ff" points="150.36,-132.49 160.78,-130.55 151.43,-125.57 150.36,-132.49"/>
</a>
</g>
</g>
<!-- Node7 -->
<g id="Node000007" class="node">
<title>Node7</title>
<g id="a_Node000007"><a xlink:href="../../d2/d06/classcarla_1_1client_1_1detail_1_1ActorState.html#a520d5ef7284ded86a1d96a346f3516aa" target="_top" xlink:title=" ">
<polygon fill="white" stroke="#666666" points="290,-106.5 164.5,-106.5 164.5,-74.5 290,-74.5 290,-106.5"/>
<text text-anchor="start" x="172.5" y="-93" font-family="Helvetica,sans-Serif" font-size="10.00">carla::client::detail</text>
<text text-anchor="middle" x="227.25" y="-81" font-family="Helvetica,sans-Serif" font-size="10.00">::ActorState::GetEpisode</text>
</a>
</g>
</g>
<!-- Node1&#45;&gt;Node7 -->
<g id="edge6_Node000001_Node000007" class="edge">
<title>Node1&#45;&gt;Node7</title>
<g id="a_edge6_Node000001_Node000007"><a xlink:title=" ">
<path fill="none" stroke="#63b8ff" d="M126.34,-105.9C135.26,-104.53 144.51,-103.1 153.61,-101.7"/>
<polygon fill="#63b8ff" stroke="#63b8ff" points="153.85,-105.05 163.2,-100.06 152.78,-98.13 153.85,-105.05"/>
</a>
</g>
</g>
<!-- Node8 -->
<g id="Node000008" class="node">
<title>Node8</title>
<g id="a_Node000008"><a xlink:href="../../d2/d06/classcarla_1_1client_1_1detail_1_1ActorState.html#a1affb3c32be5ebbacff4200f46cd38ec" target="_top" xlink:title=" ">
<polygon fill="white" stroke="#666666" points="276.12,-56.5 178.38,-56.5 178.38,-24.5 276.12,-24.5 276.12,-56.5"/>
<text text-anchor="start" x="186.38" y="-43" font-family="Helvetica,sans-Serif" font-size="10.00">carla::client::detail</text>
<text text-anchor="middle" x="227.25" y="-31" font-family="Helvetica,sans-Serif" font-size="10.00">::ActorState::GetId</text>
</a>
</g>
</g>
<!-- Node1&#45;&gt;Node8 -->
<g id="edge7_Node000001_Node000008" class="edge">
<title>Node1&#45;&gt;Node8</title>
<g id="a_edge7_Node000001_Node000008"><a xlink:title=" ">
<path fill="none" stroke="#63b8ff" d="M94.25,-99.17C113.47,-89 139.05,-75.91 162.25,-65.5 165.62,-63.98 169.1,-62.47 172.64,-60.98"/>
<polygon fill="#63b8ff" stroke="#63b8ff" points="173.72,-63.91 181.63,-56.87 171.05,-57.44 173.72,-63.91"/>
</a>
</g>
</g>
<!-- Node9 -->
<g id="Node000009" class="node">
<title>Node9</title>
<g id="a_Node000009"><a xlink:href="../../d9/d36/namespacecarla.html#afb6ca911605d1ec35bdf563de2814dba" target="_top" xlink:title=" ">
<polygon fill="white" stroke="#666666" points="415.5,-84.5 328.25,-84.5 328.25,-64.5 415.5,-64.5 415.5,-84.5"/>
<text text-anchor="middle" x="371.88" y="-71" font-family="Helvetica,sans-Serif" font-size="10.00">carla::log_debug</text>
</a>
</g>
</g>
<!-- Node1&#45;&gt;Node9 -->
<g id="edge8_Node000001_Node000009" class="edge">
<title>Node1&#45;&gt;Node9</title>
<g id="a_edge8_Node000001_Node000009"><a xlink:title=" ">
<path fill="none" stroke="#63b8ff" d="M74,-99.16C89.41,-75.47 121.66,-32.54 162.25,-15.5 215.52,6.87 237.44,2.78 292.25,-15.5 316.34,-23.53 338.99,-42.16 353.73,-56.35"/>
<polygon fill="#63b8ff" stroke="#63b8ff" points="350.91,-58.48 360.45,-63.08 355.86,-53.53 350.91,-58.48"/>
</a>
</g>
</g>
<!-- Node4 -->
<g id="Node000004" class="node">
<title>Node4</title>
<g id="a_Node000004"><a xlink:href="../../d9/d36/namespacecarla.html#a7673dfc76e17f5856b798de6d0384b56" target="_top" xlink:title=" ">
<polygon fill="white" stroke="#666666" points="412.12,-161.5 331.62,-161.5 331.62,-141.5 412.12,-141.5 412.12,-161.5"/>
<text text-anchor="middle" x="371.88" y="-148" font-family="Helvetica,sans-Serif" font-size="10.00">carla::log_error</text>
</a>
</g>
</g>
<!-- Node3&#45;&gt;Node4 -->
<g id="edge3_Node000003_Node000004" class="edge">
<title>Node3&#45;&gt;Node4</title>
<g id="a_edge3_Node000003_Node000004"><a xlink:title=" ">
<path fill="none" stroke="#63b8ff" d="M282.58,-175.64C295.62,-172.07 309.46,-168.29 322.22,-164.8"/>
<polygon fill="#63b8ff" stroke="#63b8ff" points="322.92,-167.96 331.65,-161.95 321.08,-161.21 322.92,-167.96"/>
</a>
</g>
</g>
<!-- Node5 -->
<g id="Node000005" class="node">
<title>Node5</title>
<g id="a_Node000005"><a xlink:href="../../d2/d8c/namespacecarla_1_1logging.html#a4193666236852fb6a6977299a31445d8" target="_top" xlink:title=" ">
<polygon fill="white" stroke="#666666" points="551.5,-109.5 451.5,-109.5 451.5,-77.5 551.5,-77.5 551.5,-109.5"/>
<text text-anchor="start" x="459.5" y="-96" font-family="Helvetica,sans-Serif" font-size="10.00">carla::logging::write</text>
<text text-anchor="middle" x="501.5" y="-84" font-family="Helvetica,sans-Serif" font-size="10.00">_to_stream</text>
</a>
</g>
</g>
<!-- Node4&#45;&gt;Node5 -->
<g id="edge4_Node000004_Node000005" class="edge">
<title>Node4&#45;&gt;Node5</title>
<g id="a_edge4_Node000004_Node000005"><a xlink:title=" ">
<path fill="none" stroke="#63b8ff" d="M395.69,-141.13C412.01,-133.71 434.52,-123.48 454.5,-114.4"/>
<polygon fill="#63b8ff" stroke="#63b8ff" points="455.72,-117.24 463.37,-109.91 452.82,-110.86 455.72,-117.24"/>
</a>
</g>
</g>
<!-- Node9&#45;&gt;Node5 -->
<g id="edge9_Node000009_Node000005" class="edge">
<title>Node9&#45;&gt;Node5</title>
<g id="a_edge9_Node000009_Node000005"><a xlink:title=" ">
<path fill="none" stroke="#63b8ff" d="M415.73,-80.88C423.77,-82.07 432.32,-83.34 440.77,-84.6"/>
<polygon fill="#63b8ff" stroke="#63b8ff" points="439.97,-88.17 450.37,-86.18 441,-81.25 439.97,-88.17"/>
</a>
</g>
</g>
</g>
</svg>
