<?xml version="1.0" encoding="UTF-8" standalone="no"?>
<!DOCTYPE svg PUBLIC "-//W3C//DTD SVG 1.1//EN"
 "http://www.w3.org/Graphics/SVG/1.1/DTD/svg11.dtd">
<!-- Generated by graphviz version 8.1.0 (20230707.0739)
 -->
<!-- Title: FFrameData::SetCameraPosition Pages: 1 -->
<!--zoomable 232 -->

<svg id="main" version="1.1" xmlns="http://www.w3.org/2000/svg" xmlns:xlink="http://www.w3.org/1999/xlink" xml:space="preserve" onload="init(evt)">
<style type="text/css"><![CDATA[
.node, .edge {opacity: 0.7;}
.node.selected, .edge.selected {opacity: 1;}
.edge:hover path { stroke: red; }
.edge:hover polygon { stroke: red; fill: red; }
]]></style>

<defs>
  <circle id="rim" cx="0" cy="0" r="7"/>
  <circle id="rim2" cx="0" cy="0" r="3.5"/>
  <g id="zoomPlus">
    <use xlink:href="#rim" fill="#404040"><set attributeName="fill" to="#808080" begin="zoomplus.mouseover" end="zoomplus.mouseout"/></use>
    <path d="M-4,0h8M0,-4v8" fill="none" stroke="white" stroke-width="1.5" pointer-events="none"/>
  </g>
  <g id="zoomMin">
    <use xlink:href="#rim" fill="#404040"><set attributeName="fill" to="#808080" begin="zoomminus.mouseover" end="zoomminus.mouseout"/></use>
    <path d="M-4,0h8" fill="none" stroke="white" stroke-width="1.5" pointer-events="none"/>
  </g>
  <g id="arrowUp" transform="translate(30 24)">
    <use xlink:href="#rim"/>
    <path pointer-events="none" fill="none" stroke="white" stroke-width="1.5" d="M0,-3.0v7 M-2.5,-0.5L0,-3.0L2.5,-0.5"/>
  </g>
  <g id="arrowRight" transform="rotate(90) translate(36 -43)">
    <use xlink:href="#rim"/>
    <path pointer-events="none" fill="none" stroke="white" stroke-width="1.5" d="M0,-3.0v7 M-2.5,-0.5L0,-3.0L2.5,-0.5"/>
  </g>
  <g id="arrowDown" transform="rotate(180) translate(-30 -48)">
    <use xlink:href="#rim"/>
    <path pointer-events="none" fill="none" stroke="white" stroke-width="1.5" d="M0,-3.0v7 M-2.5,-0.5L0,-3.0L2.5,-0.5"/>
  </g>
  <g id="arrowLeft" transform="rotate(270) translate(-36 17)">
    <use xlink:href="#rim"/>
    <path pointer-events="none" fill="none" stroke="white" stroke-width="1.5" d="M0,-3.0v7 M-2.5,-0.5L0,-3.0L2.5,-0.5"/>
  </g>
  <g id="resetDef">
    <use xlink:href="#rim2" fill="#404040"><set attributeName="fill" to="#808080" begin="reset.mouseover" end="reset.mouseout"/></use>
  </g>
</defs>
<script type="application/ecmascript">
var viewWidth = 735;
var viewHeight = 232;
var sectionId = 'dynsection-90';
</script>
<script type="application/ecmascript" xlink:href="../../svg.min.js"/>
<svg id="graph" class="graph">
<g id="viewport">
<title>FFrameData::SetCameraPosition</title>
<!-- Node1 -->
<g id="Node000001" class="node">
<title>Node1</title>
<g id="a_Node000001"><a xlink:title=" ">
<polygon fill="#999999" stroke="#666666" points="160,-133 0,-133 0,-113 160,-113 160,-133"/>
<text text-anchor="middle" x="80" y="-119.5" font-family="Helvetica,sans-Serif" font-size="10.00">FFrameData::SetCameraPosition</text>
</a>
</g>
</g>
<!-- Node2 -->
<g id="Node000002" class="node">
<title>Node2</title>
<g id="a_Node000002"><a xlink:href="../../dc/d84/classUCarlaEpisode.html#a4d0c7a09f4d9de8110605e10125a93aa" target="_top" xlink:title="Find a Carla actor by id.">
<polygon fill="white" stroke="#666666" points="344,-214 216.25,-214 216.25,-182 344,-182 344,-214"/>
<text text-anchor="start" x="224.25" y="-200.5" font-family="Helvetica,sans-Serif" font-size="10.00">UCarlaEpisode::FindCarla</text>
<text text-anchor="middle" x="280.12" y="-188.5" font-family="Helvetica,sans-Serif" font-size="10.00">Actor</text>
</a>
</g>
</g>
<!-- Node1&#45;&gt;Node2 -->
<g id="edge1_Node000001_Node000002" class="edge">
<title>Node1&#45;&gt;Node2</title>
<g id="a_edge1_Node000001_Node000002"><a xlink:title=" ">
<path fill="none" stroke="#63b8ff" d="M102.73,-133.37C125.63,-144.07 162.88,-160.87 196,-173 200.79,-174.75 205.76,-176.48 210.79,-178.16"/>
<polygon fill="#63b8ff" stroke="#63b8ff" points="209.56,-181.76 220.15,-181.52 211.72,-175.1 209.56,-181.76"/>
</a>
</g>
</g>
<!-- Node3 -->
<g id="Node000003" class="node">
<title>Node3</title>
<g id="a_Node000003"><a xlink:href="../../dc/dde/classFCarlaActor.html#a850736f8ac70a32c1b5a1332783a7e9d" target="_top" xlink:title=" ">
<polygon fill="white" stroke="#666666" points="350.38,-114 209.88,-114 209.88,-82 350.38,-82 350.38,-114"/>
<text text-anchor="start" x="217.88" y="-100.5" font-family="Helvetica,sans-Serif" font-size="10.00">FCarlaActor::GetActorGlobal</text>
<text text-anchor="middle" x="280.12" y="-88.5" font-family="Helvetica,sans-Serif" font-size="10.00">Transform</text>
</a>
</g>
</g>
<!-- Node1&#45;&gt;Node3 -->
<g id="edge2_Node000001_Node000003" class="edge">
<title>Node1&#45;&gt;Node3</title>
<g id="a_edge2_Node000001_Node000003"><a xlink:title=" ">
<path fill="none" stroke="#63b8ff" d="M160.44,-112.98C173.14,-111.37 186.29,-109.71 199.01,-108.11"/>
<polygon fill="#63b8ff" stroke="#63b8ff" points="199.08,-111.5 208.57,-106.78 198.21,-104.56 199.08,-111.5"/>
</a>
</g>
</g>
<!-- Node11 -->
<g id="Node000011" class="node">
<title>Node11</title>
<g id="a_Node000011"><a xlink:href="../../dc/d84/classUCarlaEpisode.html#ac7aaeae03684cdfdfcf9ca02e5d4cb15" target="_top" xlink:title=" ">
<polygon fill="white" stroke="#666666" points="364.25,-64 196,-64 196,-44 364.25,-44 364.25,-64"/>
<text text-anchor="middle" x="280.12" y="-50.5" font-family="Helvetica,sans-Serif" font-size="10.00">UCarlaEpisode::GetSpectatorPawn</text>
</a>
</g>
</g>
<!-- Node1&#45;&gt;Node11 -->
<g id="edge10_Node000001_Node000011" class="edge">
<title>Node1&#45;&gt;Node11</title>
<g id="a_edge10_Node000001_Node000011"><a xlink:title=" ">
<path fill="none" stroke="#63b8ff" d="M101.74,-112.59C124.42,-101.53 162.08,-84.14 196,-73 202.37,-70.91 209.08,-68.96 215.83,-67.17"/>
<polygon fill="#63b8ff" stroke="#63b8ff" points="216.56,-70.35 225.4,-64.5 214.84,-63.56 216.56,-70.35"/>
</a>
</g>
</g>
<!-- Node12 -->
<g id="Node000012" class="node">
<title>Node12</title>
<g id="a_Node000012"><a xlink:href="../../dc/dde/classFCarlaActor.html#a8d28fe1cdf66fc6328cdecab9b5a1fbc" target="_top" xlink:title=" ">
<polygon fill="white" stroke="#666666" points="350,-164 210.25,-164 210.25,-132 350,-132 350,-164"/>
<text text-anchor="start" x="218.25" y="-150.5" font-family="Helvetica,sans-Serif" font-size="10.00">FCarlaActor::SetActorGlobal</text>
<text text-anchor="middle" x="280.12" y="-138.5" font-family="Helvetica,sans-Serif" font-size="10.00">Transform</text>
</a>
</g>
</g>
<!-- Node1&#45;&gt;Node12 -->
<g id="edge11_Node000001_Node000012" class="edge">
<title>Node1&#45;&gt;Node12</title>
<g id="a_edge11_Node000001_Node000012"><a xlink:title=" ">
<path fill="none" stroke="#63b8ff" d="M160.44,-133.02C173.23,-134.64 186.47,-136.31 199.26,-137.92"/>
<polygon fill="#63b8ff" stroke="#63b8ff" points="198.52,-141.48 208.88,-139.26 199.4,-134.54 198.52,-141.48"/>
</a>
</g>
</g>
<!-- Node4 -->
<g id="Node000004" class="node">
<title>Node4</title>
<g id="a_Node000004"><a xlink:href="../../dc/dde/classFCarlaActor.html#a4d2752987e47827efd488b90053ad415" target="_top" xlink:title=" ">
<polygon fill="white" stroke="#666666" points="528,-174 415.25,-174 415.25,-154 528,-154 528,-174"/>
<text text-anchor="middle" x="471.62" y="-160.5" font-family="Helvetica,sans-Serif" font-size="10.00">FCarlaActor::GetActor</text>
</a>
</g>
</g>
<!-- Node3&#45;&gt;Node4 -->
<g id="edge3_Node000003_Node000004" class="edge">
<title>Node3&#45;&gt;Node4</title>
<g id="a_edge3_Node000003_Node000004"><a xlink:title=" ">
<path fill="none" stroke="#63b8ff" d="M342.17,-114.39C349.71,-116.98 357.23,-119.86 364.25,-123 381.37,-130.65 383.02,-137.59 400.25,-145 404.69,-146.91 409.36,-148.67 414.11,-150.28"/>
<polygon fill="#63b8ff" stroke="#63b8ff" points="412.96,-153.91 423.55,-153.59 415.07,-147.23 412.96,-153.91"/>
</a>
</g>
</g>
<!-- Node5 -->
<g id="Node000005" class="node">
<title>Node5</title>
<g id="a_Node000005"><a xlink:href="../../d7/d1e/classUCarlaStatics.html#a8137f56360aa59de44591fce99608dc4" target="_top" xlink:title=" ">
<polygon fill="white" stroke="#666666" points="541.88,-48 401.38,-48 401.38,-16 541.88,-16 541.88,-48"/>
<text text-anchor="start" x="409.38" y="-34.5" font-family="Helvetica,sans-Serif" font-size="10.00">UCarlaStatics::GetLargeMap</text>
<text text-anchor="middle" x="471.62" y="-22.5" font-family="Helvetica,sans-Serif" font-size="10.00">Manager</text>
</a>
</g>
</g>
<!-- Node3&#45;&gt;Node5 -->
<g id="edge4_Node000003_Node000005" class="edge">
<title>Node3&#45;&gt;Node5</title>
<g id="a_edge4_Node000003_Node000005"><a xlink:title=" ">
<path fill="none" stroke="#63b8ff" d="M339.12,-81.58C347.61,-78.88 356.2,-75.99 364.25,-73 380.67,-66.91 383.99,-63.49 400.25,-57 404.2,-55.42 408.3,-53.84 412.43,-52.28"/>
<polygon fill="#63b8ff" stroke="#63b8ff" points="413.58,-55.21 421.74,-48.45 411.15,-48.65 413.58,-55.21"/>
</a>
</g>
</g>
<!-- Node8 -->
<g id="Node000008" class="node">
<title>Node8</title>
<g id="a_Node000008"><a xlink:href="../../dc/dde/classFCarlaActor.html#a49f76353c69e02542858ed2cf6eeb000" target="_top" xlink:title=" ">
<polygon fill="white" stroke="#666666" points="530.62,-136 412.62,-136 412.62,-116 530.62,-116 530.62,-136"/>
<text text-anchor="middle" x="471.62" y="-122.5" font-family="Helvetica,sans-Serif" font-size="10.00">FCarlaActor::IsDormant</text>
</a>
</g>
</g>
<!-- Node3&#45;&gt;Node8 -->
<g id="edge7_Node000003_Node000008" class="edge">
<title>Node3&#45;&gt;Node8</title>
<g id="a_edge7_Node000003_Node000008"><a xlink:title=" ">
<path fill="none" stroke="#63b8ff" d="M350.61,-108.27C367.25,-110.73 385.01,-113.35 401.62,-115.8"/>
<polygon fill="#63b8ff" stroke="#63b8ff" points="400.95,-119.39 411.35,-117.39 401.97,-112.47 400.95,-119.39"/>
</a>
</g>
</g>
<!-- Node9 -->
<g id="Node000009" class="node">
<title>Node9</title>
<g id="a_Node000009"><a xlink:href="../../d9/d4b/classALargeMapManager.html#a6b89f53b4415151abe996440e008475d" target="_top" xlink:title=" ">
<polygon fill="white" stroke="#666666" points="543,-98 400.25,-98 400.25,-66 543,-66 543,-98"/>
<text text-anchor="start" x="408.25" y="-84.5" font-family="Helvetica,sans-Serif" font-size="10.00">ALargeMapManager::LocalTo</text>
<text text-anchor="middle" x="471.62" y="-72.5" font-family="Helvetica,sans-Serif" font-size="10.00">GlobalTransform</text>
</a>
</g>
</g>
<!-- Node3&#45;&gt;Node9 -->
<g id="edge8_Node000003_Node000009" class="edge">
<title>Node3&#45;&gt;Node9</title>
<g id="a_edge8_Node000003_Node000009"><a xlink:title=" ">
<path fill="none" stroke="#63b8ff" d="M350.61,-92.13C363.16,-91.07 376.34,-89.96 389.18,-88.88"/>
<polygon fill="#63b8ff" stroke="#63b8ff" points="389.21,-92.3 398.88,-87.97 388.62,-85.33 389.21,-92.3"/>
</a>
</g>
</g>
<!-- Node6 -->
<g id="Node000006" class="node">
<title>Node6</title>
<g id="a_Node000006"><a xlink:href="../../d7/d1e/classUCarlaStatics.html#acf94832c60579b6d161b66447719efbc" target="_top" xlink:title=" ">
<polygon fill="white" stroke="#666666" points="727,-70 579,-70 579,-50 727,-50 727,-70"/>
<text text-anchor="middle" x="653" y="-56.5" font-family="Helvetica,sans-Serif" font-size="10.00">UCarlaStatics::GetGameMode</text>
</a>
</g>
</g>
<!-- Node5&#45;&gt;Node6 -->
<g id="edge5_Node000005_Node000006" class="edge">
<title>Node5&#45;&gt;Node6</title>
<g id="a_edge5_Node000005_Node000006"><a xlink:title=" ">
<path fill="none" stroke="#63b8ff" d="M542.23,-42.87C552.72,-44.5 563.59,-46.2 574.24,-47.86"/>
<polygon fill="#63b8ff" stroke="#63b8ff" points="573.37,-51.42 583.79,-49.51 574.45,-44.51 573.37,-51.42"/>
</a>
</g>
</g>
<!-- Node7 -->
<g id="Node000007" class="node">
<title>Node7</title>
<g id="a_Node000007"><a xlink:href="../../db/de5/classACarlaGameModeBase.html#a6a66e9a979a5dfbdb292f8eb3f89149c" target="_top" xlink:title=" ">
<polygon fill="white" stroke="#666666" points="712,-32 594,-32 594,0 712,0 712,-32"/>
<text text-anchor="start" x="602" y="-18.5" font-family="Helvetica,sans-Serif" font-size="10.00">ACarlaGameModeBase</text>
<text text-anchor="middle" x="653" y="-6.5" font-family="Helvetica,sans-Serif" font-size="10.00">::GetLMManager</text>
</a>
</g>
</g>
<!-- Node5&#45;&gt;Node7 -->
<g id="edge6_Node000005_Node000007" class="edge">
<title>Node5&#45;&gt;Node7</title>
<g id="a_edge6_Node000005_Node000007"><a xlink:title=" ">
<path fill="none" stroke="#63b8ff" d="M542.23,-25.79C555.68,-24.59 569.75,-23.34 583.17,-22.14"/>
<polygon fill="#63b8ff" stroke="#63b8ff" points="583.12,-25.57 592.77,-21.19 582.49,-18.6 583.12,-25.57"/>
</a>
</g>
</g>
<!-- Node10 -->
<g id="Node000010" class="node">
<title>Node10</title>
<g id="a_Node000010"><a xlink:href="../../de/d7a/structFDVector.html#afcef01413fad4ebae06ee468bee88a9c" target="_top" xlink:title=" ">
<polygon fill="white" stroke="#666666" points="707.12,-163 598.88,-163 598.88,-143 707.12,-143 707.12,-163"/>
<text text-anchor="middle" x="653" y="-149.5" font-family="Helvetica,sans-Serif" font-size="10.00">FDVector::ToFVector</text>
</a>
</g>
</g>
<!-- Node9&#45;&gt;Node10 -->
<g id="edge9_Node000009_Node000010" class="edge">
<title>Node9&#45;&gt;Node10</title>
<g id="a_edge9_Node000009_Node000010"><a xlink:title=" ">
<path fill="none" stroke="#63b8ff" d="M520.08,-98.44C527.77,-101.22 535.63,-104.14 543,-107 568.5,-116.9 596.98,-128.95 618.43,-138.24"/>
<polygon fill="#63b8ff" stroke="#63b8ff" points="616.78,-141.77 627.35,-142.55 619.57,-135.35 616.78,-141.77"/>
</a>
</g>
</g>
<!-- Node12&#45;&gt;Node4 -->
<g id="edge12_Node000012_Node000004" class="edge">
<title>Node12&#45;&gt;Node4</title>
<g id="a_edge12_Node000012_Node000004"><a xlink:title=" ">
<path fill="none" stroke="#63b8ff" d="M350.34,-153.84C367.94,-155.33 386.81,-156.92 404.26,-158.4"/>
<polygon fill="#63b8ff" stroke="#63b8ff" points="403.66,-161.94 413.92,-159.3 404.25,-154.97 403.66,-161.94"/>
</a>
</g>
</g>
<!-- Node12&#45;&gt;Node5 -->
<g id="edge13_Node000012_Node000005" class="edge">
<title>Node12&#45;&gt;Node5</title>
<g id="a_edge13_Node000012_Node000005"><a xlink:title=" ">
<path fill="none" stroke="#63b8ff" d="M350.45,-131.92C355.37,-129.37 360.04,-126.42 364.25,-123 390.19,-101.94 374.83,-78.69 400.25,-57 401.45,-55.97 402.7,-54.99 403.98,-54.04"/>
<polygon fill="#63b8ff" stroke="#63b8ff" points="405.37,-56.67 411.94,-48.36 401.62,-50.76 405.37,-56.67"/>
</a>
</g>
</g>
<!-- Node12&#45;&gt;Node8 -->
<g id="edge16_Node000012_Node000008" class="edge">
<title>Node12&#45;&gt;Node8</title>
<g id="a_edge16_Node000012_Node000008"><a xlink:title=" ">
<path fill="none" stroke="#63b8ff" d="M350.34,-139.96C367,-138.03 384.78,-135.97 401.44,-134.03"/>
<polygon fill="#63b8ff" stroke="#63b8ff" points="401.66,-137.41 411.19,-132.78 400.85,-130.46 401.66,-137.41"/>
</a>
</g>
</g>
<!-- Node13 -->
<g id="Node000013" class="node">
<title>Node13</title>
<g id="a_Node000013"><a xlink:href="../../d9/d4b/classALargeMapManager.html#a1ae1da254e1f3c66b74e99c60321975a" target="_top" xlink:title=" ">
<polygon fill="white" stroke="#666666" points="540,-224 403.25,-224 403.25,-192 540,-192 540,-224"/>
<text text-anchor="start" x="411.25" y="-210.5" font-family="Helvetica,sans-Serif" font-size="10.00">ALargeMapManager::Global</text>
<text text-anchor="middle" x="471.62" y="-198.5" font-family="Helvetica,sans-Serif" font-size="10.00">ToLocalTransform</text>
</a>
</g>
</g>
<!-- Node12&#45;&gt;Node13 -->
<g id="edge14_Node000012_Node000013" class="edge">
<title>Node12&#45;&gt;Node13</title>
<g id="a_edge14_Node000012_Node000013"><a xlink:title=" ">
<path fill="none" stroke="#63b8ff" d="M336.63,-164.48C345.87,-167.28 355.34,-170.19 364.25,-173 379.47,-177.79 395.86,-183.11 411.11,-188.12"/>
<polygon fill="#63b8ff" stroke="#63b8ff" points="409.86,-191.72 420.46,-191.53 412.06,-185.08 409.86,-191.72"/>
</a>
</g>
</g>
<!-- Node13&#45;&gt;Node10 -->
<g id="edge15_Node000013_Node000010" class="edge">
<title>Node13&#45;&gt;Node10</title>
<g id="a_edge15_Node000013_Node000010"><a xlink:title=" ">
<path fill="none" stroke="#63b8ff" d="M525.96,-191.65C551.87,-183.7 582.65,-174.27 607.3,-166.7"/>
<polygon fill="#63b8ff" stroke="#63b8ff" points="608.28,-169.76 616.81,-163.48 606.23,-163.07 608.28,-169.76"/>
</a>
</g>
</g>
</g>
</svg>

<g id="navigator" transform="translate(0 0)" fill="#404254">
  <rect fill="#f2f5e9" fill-opacity="0.5" stroke="#606060" stroke-width=".5" x="0" y="0" width="60" height="60"/>
  <use id="zoomplus" xlink:href="#zoomPlus" x="17" y="9" onmousedown="handleZoom(evt,'in')"/>
  <use id="zoomminus" xlink:href="#zoomMin" x="42" y="9" onmousedown="handleZoom(evt,'out')"/>
  <use id="reset" xlink:href="#resetDef" x="30" y="36" onmousedown="handleReset()"/>
   <use id="arrowup" xlink:href="#arrowUp" x="0" y="0" onmousedown="handlePan(0,-1)"/>
  <use id="arrowright" xlink:href="#arrowRight" x="0" y="0" onmousedown="handlePan(1,0)"/>
  <use id="arrowdown" xlink:href="#arrowDown" x="0" y="0" onmousedown="handlePan(0,1)"/>
  <use id="arrowleft" xlink:href="#arrowLeft" x="0" y="0" onmousedown="handlePan(-1,0)"/>
</g>
<svg viewBox="0 0 15 15" width="100%" height="30px" preserveAspectRatio="xMaxYMin meet">
 <g id="arrow_out" transform="scale(0.3 0.3)">
  <a xlink:href="classFFrameData_a92c77c96fab62bab915a7419b491d72a_cgraph_org.svg" target="_base">
   <rect id="button" ry="5" rx="5" y="6" x="6" height="38" width="38"
        fill="#f2f5e9" fill-opacity="0.5" stroke="#606060" stroke-width="1.0"/>
   <path id="arrow"
     d="M 11.500037,31.436501 C 11.940474,20.09759 22.043105,11.32322 32.158766,21.979434 L 37.068811,17.246167 C 37.068811,17.246167 37.088388,32 37.088388,32 L 22.160133,31.978069 C 22.160133,31.978069 26.997745,27.140456 26.997745,27.140456 C 18.528582,18.264221 13.291696,25.230495 11.500037,31.436501 z"
     style="fill:#404040;"/>
  </a>
 </g>
</svg>

<style type='text/css'>
<![CDATA[
[data-mouse-over-selected='false'] { opacity: 0.7; }
[data-mouse-over-selected='true']  { opacity: 1.0; }
]]>
</style>
<script type="application/ecmascript"><![CDATA[
document.addEventListener('DOMContentLoaded', (event) => {
  highlightEdges();
  highlightAdjacentNodes();
});
]]></script>
</svg>
