<?xml version="1.0" encoding="UTF-8" standalone="no"?>
<!DOCTYPE svg PUBLIC "-//W3C//DTD SVG 1.1//EN"
 "http://www.w3.org/Graphics/SVG/1.1/DTD/svg11.dtd">
<!-- Generated by graphviz version 8.1.0 (20230707.0739)
 -->
<!-- Title: FFrameData::Clear Pages: 1 -->
<svg width="454pt" height="66pt"
 viewBox="0.00 0.00 454.25 66.00" xmlns="http://www.w3.org/2000/svg" xmlns:xlink="http://www.w3.org/1999/xlink">
<g id="graph0" class="graph" transform="scale(1 1) rotate(0) translate(4 62)">
<title>FFrameData::Clear</title>
<!-- Node1 -->
<g id="Node000001" class="node">
<title>Node1</title>
<g id="a_Node000001"><a xlink:title=" ">
<polygon fill="#999999" stroke="#666666" points="446.25,-39 347.75,-39 347.75,-19 446.25,-19 446.25,-39"/>
<text text-anchor="middle" x="397" y="-25.5" font-family="Helvetica,sans-Serif" font-size="10.00">FFrameData::Clear</text>
</a>
</g>
</g>
<!-- Node2 -->
<g id="Node000002" class="node">
<title>Node2</title>
<g id="a_Node000002"><a xlink:href="../../dc/d49/classFCarlaEngine.html#aff440c7ba9d004e4c5b60125cc4d709b" target="_top" xlink:title=" ">
<polygon fill="white" stroke="#666666" points="311.75,-58 180.25,-58 180.25,-38 311.75,-38 311.75,-58"/>
<text text-anchor="middle" x="246" y="-44.5" font-family="Helvetica,sans-Serif" font-size="10.00">FCarlaEngine::OnPostTick</text>
</a>
</g>
</g>
<!-- Node1&#45;&gt;Node2 -->
<g id="edge1_Node000001_Node000002" class="edge">
<title>Node1&#45;&gt;Node2</title>
<g id="a_edge1_Node000001_Node000002"><a xlink:title=" ">
<path fill="none" stroke="#63b8ff" d="M336.8,-36.55C328.72,-37.58 320.38,-38.64 312.2,-39.69"/>
<polygon fill="#63b8ff" stroke="#63b8ff" points="337.15,-39.91 346.62,-35.17 336.26,-32.96 337.15,-39.91"/>
</a>
</g>
</g>
<!-- Node4 -->
<g id="Node000004" class="node">
<title>Node4</title>
<g id="a_Node000004"><a xlink:href="../../de/db4/classFFrameData.html#a1d60d134d0c4ed720a5dbfc8688559ce" target="_top" xlink:title=" ">
<polygon fill="white" stroke="#666666" points="295.25,-20 196.75,-20 196.75,0 295.25,0 295.25,-20"/>
<text text-anchor="middle" x="246" y="-6.5" font-family="Helvetica,sans-Serif" font-size="10.00">FFrameData::Read</text>
</a>
</g>
</g>
<!-- Node1&#45;&gt;Node4 -->
<g id="edge3_Node000001_Node000004" class="edge">
<title>Node1&#45;&gt;Node4</title>
<g id="a_edge3_Node000001_Node000004"><a xlink:title=" ">
<path fill="none" stroke="#63b8ff" d="M336.86,-21.46C323.19,-19.72 308.8,-17.88 295.64,-16.2"/>
<polygon fill="#63b8ff" stroke="#63b8ff" points="336.26,-25.04 346.62,-22.83 337.15,-18.09 336.26,-25.04"/>
</a>
</g>
</g>
<!-- Node3 -->
<g id="Node000003" class="node">
<title>Node3</title>
<g id="a_Node000003"><a xlink:href="../../dc/d49/classFCarlaEngine.html#ab8d13063cde985781237dd7da308227e" target="_top" xlink:title=" ">
<polygon fill="white" stroke="#666666" points="144.25,-39 0,-39 0,-19 144.25,-19 144.25,-39"/>
<text text-anchor="middle" x="72.12" y="-25.5" font-family="Helvetica,sans-Serif" font-size="10.00">FCarlaEngine::NotifyInitGame</text>
</a>
</g>
</g>
<!-- Node2&#45;&gt;Node3 -->
<g id="edge2_Node000002_Node000003" class="edge">
<title>Node2&#45;&gt;Node3</title>
<g id="a_edge2_Node000002_Node000003"><a xlink:title=" ">
<path fill="none" stroke="#63b8ff" d="M169.3,-39.63C161.06,-38.72 152.7,-37.8 144.52,-36.89"/>
<polygon fill="#63b8ff" stroke="#63b8ff" points="168.7,-43.2 179.02,-40.82 169.47,-36.24 168.7,-43.2"/>
</a>
</g>
</g>
<!-- Node4&#45;&gt;Node3 -->
<g id="edge4_Node000004_Node000003" class="edge">
<title>Node4&#45;&gt;Node3</title>
<g id="a_edge4_Node000004_Node000003"><a xlink:title=" ">
<path fill="none" stroke="#63b8ff" d="M185.76,-16.55C172.47,-18.02 158.24,-19.59 144.52,-21.11"/>
<polygon fill="#63b8ff" stroke="#63b8ff" points="186.11,-19.92 195.67,-15.34 185.34,-12.96 186.11,-19.92"/>
</a>
</g>
</g>
</g>
</svg>
