<?xml version="1.0" encoding="UTF-8" standalone="no"?>
<!DOCTYPE svg PUBLIC "-//W3C//DTD SVG 1.1//EN"
 "http://www.w3.org/Graphics/SVG/1.1/DTD/svg11.dtd">
<!-- Generated by graphviz version 8.1.0 (20230707.0739)
 -->
<!-- Title: FFrameData::Write Pages: 1 -->
<!--zoomable 694 -->

<svg id="main" version="1.1" xmlns="http://www.w3.org/2000/svg" xmlns:xlink="http://www.w3.org/1999/xlink" xml:space="preserve" onload="init(evt)">
<style type="text/css"><![CDATA[
.node, .edge {opacity: 0.7;}
.node.selected, .edge.selected {opacity: 1;}
.edge:hover path { stroke: red; }
.edge:hover polygon { stroke: red; fill: red; }
]]></style>

<defs>
  <circle id="rim" cx="0" cy="0" r="7"/>
  <circle id="rim2" cx="0" cy="0" r="3.5"/>
  <g id="zoomPlus">
    <use xlink:href="#rim" fill="#404040"><set attributeName="fill" to="#808080" begin="zoomplus.mouseover" end="zoomplus.mouseout"/></use>
    <path d="M-4,0h8M0,-4v8" fill="none" stroke="white" stroke-width="1.5" pointer-events="none"/>
  </g>
  <g id="zoomMin">
    <use xlink:href="#rim" fill="#404040"><set attributeName="fill" to="#808080" begin="zoomminus.mouseover" end="zoomminus.mouseout"/></use>
    <path d="M-4,0h8" fill="none" stroke="white" stroke-width="1.5" pointer-events="none"/>
  </g>
  <g id="arrowUp" transform="translate(30 24)">
    <use xlink:href="#rim"/>
    <path pointer-events="none" fill="none" stroke="white" stroke-width="1.5" d="M0,-3.0v7 M-2.5,-0.5L0,-3.0L2.5,-0.5"/>
  </g>
  <g id="arrowRight" transform="rotate(90) translate(36 -43)">
    <use xlink:href="#rim"/>
    <path pointer-events="none" fill="none" stroke="white" stroke-width="1.5" d="M0,-3.0v7 M-2.5,-0.5L0,-3.0L2.5,-0.5"/>
  </g>
  <g id="arrowDown" transform="rotate(180) translate(-30 -48)">
    <use xlink:href="#rim"/>
    <path pointer-events="none" fill="none" stroke="white" stroke-width="1.5" d="M0,-3.0v7 M-2.5,-0.5L0,-3.0L2.5,-0.5"/>
  </g>
  <g id="arrowLeft" transform="rotate(270) translate(-36 17)">
    <use xlink:href="#rim"/>
    <path pointer-events="none" fill="none" stroke="white" stroke-width="1.5" d="M0,-3.0v7 M-2.5,-0.5L0,-3.0L2.5,-0.5"/>
  </g>
  <g id="resetDef">
    <use xlink:href="#rim2" fill="#404040"><set attributeName="fill" to="#808080" begin="reset.mouseover" end="reset.mouseout"/></use>
  </g>
</defs>
<script type="application/ecmascript">
var viewWidth = 282;
var viewHeight = 694;
var sectionId = 'dynsection-96';
</script>
<script type="application/ecmascript" xlink:href="../../svg.min.js"/>
<svg id="graph" class="graph">
<g id="viewport">
<title>FFrameData::Write</title>
<!-- Node1 -->
<g id="Node000001" class="node">
<title>Node1</title>
<g id="a_Node000001"><a xlink:title=" ">
<polygon fill="#999999" stroke="#666666" points="99.25,-326 0,-326 0,-306 99.25,-306 99.25,-326"/>
<text text-anchor="middle" x="49.62" y="-312.5" font-family="Helvetica,sans-Serif" font-size="10.00">FFrameData::Write</text>
</a>
</g>
</g>
<!-- Node2 -->
<g id="Node000002" class="node">
<title>Node2</title>
<g id="a_Node000002"><a xlink:href="../../da/dd4/classCarlaRecorderAnimVehicles.html#a9918bd2be19ab4beb70f5b68d122152f" target="_top" xlink:title=" ">
<polygon fill="white" stroke="#666666" points="273.5,-668 136,-668 136,-636 273.5,-636 273.5,-668"/>
<text text-anchor="start" x="144" y="-654.5" font-family="Helvetica,sans-Serif" font-size="10.00">CarlaRecorderAnimVehicles</text>
<text text-anchor="middle" x="204.75" y="-642.5" font-family="Helvetica,sans-Serif" font-size="10.00">::Write</text>
</a>
</g>
</g>
<!-- Node1&#45;&gt;Node2 -->
<g id="edge1_Node000001_Node000002" class="edge">
<title>Node1&#45;&gt;Node2</title>
<g id="a_edge1_Node000001_Node000002"><a xlink:title=" ">
<path fill="none" stroke="#63b8ff" d="M50.25,-326.45C49.29,-369.58 51.38,-535.75 135.25,-627 135.81,-627.61 136.39,-628.21 136.98,-628.79"/>
<polygon fill="#63b8ff" stroke="#63b8ff" points="134.45,-632.05 144.44,-635.57 138.83,-626.58 134.45,-632.05"/>
</a>
</g>
</g>
<!-- Node3 -->
<g id="Node000003" class="node">
<title>Node3</title>
<g id="a_Node000003"><a xlink:href="../../d6/dd8/classCarlaRecorderAnimVehicleWheels.html#a3eb8c693416312b5cd09e818e05ece70" target="_top" xlink:title=" ">
<polygon fill="white" stroke="#666666" points="270.88,-600 138.62,-600 138.62,-568 270.88,-568 270.88,-600"/>
<text text-anchor="start" x="146.62" y="-586.5" font-family="Helvetica,sans-Serif" font-size="10.00">CarlaRecorderAnimVehicle</text>
<text text-anchor="middle" x="204.75" y="-574.5" font-family="Helvetica,sans-Serif" font-size="10.00">Wheels::Write</text>
</a>
</g>
</g>
<!-- Node1&#45;&gt;Node3 -->
<g id="edge3_Node000001_Node000003" class="edge">
<title>Node1&#45;&gt;Node3</title>
<g id="a_edge3_Node000001_Node000003"><a xlink:title=" ">
<path fill="none" stroke="#63b8ff" d="M51.18,-326.39C53.72,-363.36 67.21,-489.95 135.25,-559 135.95,-559.71 136.67,-560.4 137.41,-561.07"/>
<polygon fill="#63b8ff" stroke="#63b8ff" points="134.92,-564.33 145.02,-567.54 139.13,-558.73 134.92,-564.33"/>
</a>
</g>
</g>
<!-- Node4 -->
<g id="Node000004" class="node">
<title>Node4</title>
<g id="a_Node000004"><a xlink:href="../../de/d09/classCarlaRecorderAnimWalkers.html#a5ac7c98741e7b889cb9b8c26bd78c40a" target="_top" xlink:title=" ">
<polygon fill="white" stroke="#666666" points="272.75,-550 136.75,-550 136.75,-518 272.75,-518 272.75,-550"/>
<text text-anchor="start" x="144.75" y="-536.5" font-family="Helvetica,sans-Serif" font-size="10.00">CarlaRecorderAnimWalkers</text>
<text text-anchor="middle" x="204.75" y="-524.5" font-family="Helvetica,sans-Serif" font-size="10.00">::Write</text>
</a>
</g>
</g>
<!-- Node1&#45;&gt;Node4 -->
<g id="edge5_Node000001_Node000004" class="edge">
<title>Node1&#45;&gt;Node4</title>
<g id="a_edge5_Node000001_Node000004"><a xlink:title=" ">
<path fill="none" stroke="#63b8ff" d="M52.25,-326.44C57.77,-358.4 78.7,-455.92 135.25,-509 136.13,-509.82 137.03,-510.62 137.97,-511.39"/>
<polygon fill="#63b8ff" stroke="#63b8ff" points="135.75,-514.81 145.96,-517.65 139.75,-509.07 135.75,-514.81"/>
</a>
</g>
</g>
<!-- Node5 -->
<g id="Node000005" class="node">
<title>Node5</title>
<g id="a_Node000005"><a xlink:href="../../dd/dd4/classCarlaRecorderEventsAdd.html#ae2448c74640cfed9e30cd7cc2e46a92d" target="_top" xlink:title=" ">
<polygon fill="white" stroke="#666666" points="266.75,-482 142.75,-482 142.75,-450 266.75,-450 266.75,-482"/>
<text text-anchor="start" x="150.75" y="-468.5" font-family="Helvetica,sans-Serif" font-size="10.00">CarlaRecorderEventsAdd</text>
<text text-anchor="middle" x="204.75" y="-456.5" font-family="Helvetica,sans-Serif" font-size="10.00">::Write</text>
</a>
</g>
</g>
<!-- Node1&#45;&gt;Node5 -->
<g id="edge6_Node000001_Node000005" class="edge">
<title>Node1&#45;&gt;Node5</title>
<g id="a_edge6_Node000001_Node000005"><a xlink:title=" ">
<path fill="none" stroke="#63b8ff" d="M54.92,-326.34C65.24,-350.01 93.73,-408.59 135.25,-441 136.69,-442.12 138.19,-443.2 139.73,-444.23"/>
<polygon fill="#63b8ff" stroke="#63b8ff" points="137.57,-447.61 147.96,-449.66 141.11,-441.57 137.57,-447.61"/>
</a>
</g>
</g>
<!-- Node6 -->
<g id="Node000006" class="node">
<title>Node6</title>
<g id="a_Node000006"><a xlink:href="../../dd/d8e/classCarlaRecorderEventsDel.html#a6e5199cbcd05e57de4139f0791fcaf4d" target="_top" xlink:title=" ">
<polygon fill="white" stroke="#666666" points="265.25,-432 144.25,-432 144.25,-400 265.25,-400 265.25,-432"/>
<text text-anchor="start" x="152.25" y="-418.5" font-family="Helvetica,sans-Serif" font-size="10.00">CarlaRecorderEventsDel</text>
<text text-anchor="middle" x="204.75" y="-406.5" font-family="Helvetica,sans-Serif" font-size="10.00">::Write</text>
</a>
</g>
</g>
<!-- Node1&#45;&gt;Node6 -->
<g id="edge8_Node000001_Node000006" class="edge">
<title>Node1&#45;&gt;Node6</title>
<g id="a_edge8_Node000001_Node000006"><a xlink:title=" ">
<path fill="none" stroke="#63b8ff" d="M59.82,-326.33C74.41,-342.18 104.39,-372.6 135.25,-391 137.58,-392.39 140,-393.72 142.48,-395"/>
<polygon fill="#63b8ff" stroke="#63b8ff" points="140.73,-398.51 151.27,-399.63 143.73,-392.19 140.73,-398.51"/>
</a>
</g>
</g>
<!-- Node7 -->
<g id="Node000007" class="node">
<title>Node7</title>
<g id="a_Node000007"><a xlink:href="../../dd/d35/classCarlaRecorderEventsParent.html#a19fd02676cec820034c8420dce569115" target="_top" xlink:title=" ">
<polygon fill="white" stroke="#666666" points="272.38,-382 137.12,-382 137.12,-350 272.38,-350 272.38,-382"/>
<text text-anchor="start" x="145.12" y="-368.5" font-family="Helvetica,sans-Serif" font-size="10.00">CarlaRecorderEventsParent</text>
<text text-anchor="middle" x="204.75" y="-356.5" font-family="Helvetica,sans-Serif" font-size="10.00">::Write</text>
</a>
</g>
</g>
<!-- Node1&#45;&gt;Node7 -->
<g id="edge9_Node000001_Node000007" class="edge">
<title>Node1&#45;&gt;Node7</title>
<g id="a_edge9_Node000001_Node000007"><a xlink:title=" ">
<path fill="none" stroke="#63b8ff" d="M82.73,-326.48C100.21,-332.19 122.42,-339.44 143.03,-346.17"/>
<polygon fill="#63b8ff" stroke="#63b8ff" points="141.71,-349.75 152.31,-349.53 143.89,-343.1 141.71,-349.75"/>
</a>
</g>
</g>
<!-- Node8 -->
<g id="Node000008" class="node">
<title>Node8</title>
<g id="a_Node000008"><a xlink:href="../../dc/ddd/structCarlaRecorderFrameCounter.html#a44d14c8499ec70e20d6a4945bd1e93f6" target="_top" xlink:title=" ">
<polygon fill="white" stroke="#666666" points="274.25,-332 135.25,-332 135.25,-300 274.25,-300 274.25,-332"/>
<text text-anchor="start" x="143.25" y="-318.5" font-family="Helvetica,sans-Serif" font-size="10.00">CarlaRecorderFrameCounter</text>
<text text-anchor="middle" x="204.75" y="-306.5" font-family="Helvetica,sans-Serif" font-size="10.00">::Write</text>
</a>
</g>
</g>
<!-- Node1&#45;&gt;Node8 -->
<g id="edge10_Node000001_Node000008" class="edge">
<title>Node1&#45;&gt;Node8</title>
<g id="a_edge10_Node000001_Node000008"><a xlink:title=" ">
<path fill="none" stroke="#63b8ff" d="M99.5,-316C107.35,-316 115.65,-316 124,-316"/>
<polygon fill="#63b8ff" stroke="#63b8ff" points="123.97,-319.5 133.97,-316 123.97,-312.5 123.97,-319.5"/>
</a>
</g>
</g>
<!-- Node9 -->
<g id="Node000009" class="node">
<title>Node9</title>
<g id="a_Node000009"><a xlink:href="../../d0/d93/structCarlaRecorderLightScenes.html#a7e03d2290221513ede15da084fcbb144" target="_top" xlink:title=" ">
<polygon fill="white" stroke="#666666" points="270.5,-282 139,-282 139,-250 270.5,-250 270.5,-282"/>
<text text-anchor="start" x="147" y="-268.5" font-family="Helvetica,sans-Serif" font-size="10.00">CarlaRecorderLightScenes</text>
<text text-anchor="middle" x="204.75" y="-256.5" font-family="Helvetica,sans-Serif" font-size="10.00">::Write</text>
</a>
</g>
</g>
<!-- Node1&#45;&gt;Node9 -->
<g id="edge11_Node000001_Node000009" class="edge">
<title>Node1&#45;&gt;Node9</title>
<g id="a_edge11_Node000001_Node000009"><a xlink:title=" ">
<path fill="none" stroke="#63b8ff" d="M82.73,-305.52C100.21,-299.81 122.42,-292.56 143.03,-285.83"/>
<polygon fill="#63b8ff" stroke="#63b8ff" points="143.89,-288.9 152.31,-282.47 141.71,-282.25 143.89,-288.9"/>
</a>
</g>
</g>
<!-- Node10 -->
<g id="Node000010" class="node">
<title>Node10</title>
<g id="a_Node000010"><a xlink:href="../../df/d7b/structCarlaRecorderLightVehicles.html#adcd7c204298d09fe1439e16abc0227cf" target="_top" xlink:title=" ">
<polygon fill="white" stroke="#666666" points="272.75,-232 136.75,-232 136.75,-200 272.75,-200 272.75,-232"/>
<text text-anchor="start" x="144.75" y="-218.5" font-family="Helvetica,sans-Serif" font-size="10.00">CarlaRecorderLightVehicles</text>
<text text-anchor="middle" x="204.75" y="-206.5" font-family="Helvetica,sans-Serif" font-size="10.00">::Write</text>
</a>
</g>
</g>
<!-- Node1&#45;&gt;Node10 -->
<g id="edge12_Node000001_Node000010" class="edge">
<title>Node1&#45;&gt;Node10</title>
<g id="a_edge12_Node000001_Node000010"><a xlink:title=" ">
<path fill="none" stroke="#63b8ff" d="M59.82,-305.67C74.41,-289.82 104.39,-259.4 135.25,-241 137.58,-239.61 140,-238.28 142.48,-237"/>
<polygon fill="#63b8ff" stroke="#63b8ff" points="143.73,-239.81 151.27,-232.37 140.73,-233.49 143.73,-239.81"/>
</a>
</g>
</g>
<!-- Node11 -->
<g id="Node000011" class="node">
<title>Node11</title>
<g id="a_Node000011"><a xlink:href="../../da/df1/classCarlaRecorderPositions.html#aeb51205f7bf9a7b11aa8c9513dd116c9" target="_top" xlink:title=" ">
<polygon fill="white" stroke="#666666" points="263.75,-182 145.75,-182 145.75,-150 263.75,-150 263.75,-182"/>
<text text-anchor="start" x="153.75" y="-168.5" font-family="Helvetica,sans-Serif" font-size="10.00">CarlaRecorderPositions</text>
<text text-anchor="middle" x="204.75" y="-156.5" font-family="Helvetica,sans-Serif" font-size="10.00">::Write</text>
</a>
</g>
</g>
<!-- Node1&#45;&gt;Node11 -->
<g id="edge13_Node000001_Node000011" class="edge">
<title>Node1&#45;&gt;Node11</title>
<g id="a_edge13_Node000001_Node000011"><a xlink:title=" ">
<path fill="none" stroke="#63b8ff" d="M54.92,-305.66C65.24,-281.99 93.73,-223.41 135.25,-191 136.69,-189.88 138.19,-188.8 139.73,-187.77"/>
<polygon fill="#63b8ff" stroke="#63b8ff" points="141.11,-190.43 147.96,-182.34 137.57,-184.39 141.11,-190.43"/>
</a>
</g>
</g>
<!-- Node12 -->
<g id="Node000012" class="node">
<title>Node12</title>
<g id="a_Node000012"><a xlink:href="../../d2/da3/classCarlaRecorderStates.html#a0d452c27a5df6a961addc4ecb3e1eb76" target="_top" xlink:title=" ">
<polygon fill="white" stroke="#666666" points="257.75,-132 151.75,-132 151.75,-100 257.75,-100 257.75,-132"/>
<text text-anchor="start" x="159.75" y="-118.5" font-family="Helvetica,sans-Serif" font-size="10.00">CarlaRecorderStates</text>
<text text-anchor="middle" x="204.75" y="-106.5" font-family="Helvetica,sans-Serif" font-size="10.00">::Write</text>
</a>
</g>
</g>
<!-- Node1&#45;&gt;Node12 -->
<g id="edge14_Node000001_Node000012" class="edge">
<title>Node1&#45;&gt;Node12</title>
<g id="a_edge14_Node000001_Node000012"><a xlink:title=" ">
<path fill="none" stroke="#63b8ff" d="M52.75,-305.68C59.41,-275.84 82.68,-188.53 135.25,-141 137.42,-139.04 139.76,-137.23 142.21,-135.55"/>
<polygon fill="#63b8ff" stroke="#63b8ff" points="143.68,-138.16 150.54,-130.09 140.14,-132.13 143.68,-138.16"/>
</a>
</g>
</g>
<!-- Node13 -->
<g id="Node000013" class="node">
<title>Node13</title>
<g id="a_Node000013"><a xlink:href="../../dc/d3e/classCarlaRecorderTrafficLightTimes.html#a3d543ce4a4687c5dc655ed742abe20e0" target="_top" xlink:title=" ">
<polygon fill="white" stroke="#666666" points="266.75,-82 142.75,-82 142.75,-50 266.75,-50 266.75,-82"/>
<text text-anchor="start" x="150.75" y="-68.5" font-family="Helvetica,sans-Serif" font-size="10.00">CarlaRecorderTrafficLight</text>
<text text-anchor="middle" x="204.75" y="-56.5" font-family="Helvetica,sans-Serif" font-size="10.00">Times::Write</text>
</a>
</g>
</g>
<!-- Node1&#45;&gt;Node13 -->
<g id="edge15_Node000001_Node000013" class="edge">
<title>Node1&#45;&gt;Node13</title>
<g id="a_edge15_Node000001_Node000013"><a xlink:title=" ">
<path fill="none" stroke="#63b8ff" d="M51.51,-305.64C55.06,-270.46 71.34,-154.28 135.25,-91 136.08,-90.18 136.94,-89.38 137.83,-88.61"/>
<polygon fill="#63b8ff" stroke="#63b8ff" points="139.41,-91.06 145.44,-82.35 135.29,-85.4 139.41,-91.06"/>
</a>
</g>
</g>
<!-- Node14 -->
<g id="Node000014" class="node">
<title>Node14</title>
<g id="a_Node000014"><a xlink:href="../../da/d46/classCarlaRecorderAnimBikers.html#a0e7d84693e5fc1848d23fab59d12549e" target="_top" xlink:title=" ">
<polygon fill="white" stroke="#666666" points="268.62,-32 140.88,-32 140.88,0 268.62,0 268.62,-32"/>
<text text-anchor="start" x="148.88" y="-18.5" font-family="Helvetica,sans-Serif" font-size="10.00">CarlaRecorderAnimBikers</text>
<text text-anchor="middle" x="204.75" y="-6.5" font-family="Helvetica,sans-Serif" font-size="10.00">::Write</text>
</a>
</g>
</g>
<!-- Node1&#45;&gt;Node14 -->
<g id="edge16_Node000001_Node000014" class="edge">
<title>Node1&#45;&gt;Node14</title>
<g id="a_edge16_Node000001_Node000014"><a xlink:title=" ">
<path fill="none" stroke="#63b8ff" d="M50.69,-305.67C51.5,-265.84 59.74,-120.5 135.25,-41 135.94,-40.28 136.65,-39.58 137.38,-38.89"/>
<polygon fill="#63b8ff" stroke="#63b8ff" points="139.1,-41.21 144.89,-32.33 134.83,-35.67 139.1,-41.21"/>
</a>
</g>
</g>
<!-- Node2&#45;&gt;Node2 -->
<g id="edge2_Node000002_Node000002" class="edge">
<title>Node2&#45;&gt;Node2</title>
<g id="a_edge2_Node000002_Node000002"><a xlink:title=" ">
<path fill="none" stroke="#63b8ff" d="M177.06,-668.44C171.89,-677.58 181.12,-686 204.75,-686 218.41,-686 227.26,-683.19 231.3,-679.05"/>
<polygon fill="#63b8ff" stroke="#63b8ff" points="234.85,-679.76 232.44,-669.44 227.89,-679.01 234.85,-679.76"/>
</a>
</g>
</g>
<!-- Node3&#45;&gt;Node3 -->
<g id="edge4_Node000003_Node000003" class="edge">
<title>Node3&#45;&gt;Node3</title>
<g id="a_edge4_Node000003_Node000003"><a xlink:title=" ">
<path fill="none" stroke="#63b8ff" d="M177.06,-600.44C171.89,-609.58 181.12,-618 204.75,-618 218.41,-618 227.26,-615.19 231.3,-611.05"/>
<polygon fill="#63b8ff" stroke="#63b8ff" points="234.85,-611.76 232.44,-601.44 227.89,-611.01 234.85,-611.76"/>
</a>
</g>
</g>
<!-- Node5&#45;&gt;Node5 -->
<g id="edge7_Node000005_Node000005" class="edge">
<title>Node5&#45;&gt;Node5</title>
<g id="a_edge7_Node000005_Node000005"><a xlink:title=" ">
<path fill="none" stroke="#63b8ff" d="M177.06,-482.44C171.89,-491.58 181.12,-500 204.75,-500 218.41,-500 227.26,-497.19 231.3,-493.05"/>
<polygon fill="#63b8ff" stroke="#63b8ff" points="234.85,-493.76 232.44,-483.44 227.89,-493.01 234.85,-493.76"/>
</a>
</g>
</g>
</g>
</svg>

<g id="navigator" transform="translate(0 0)" fill="#404254">
  <rect fill="#f2f5e9" fill-opacity="0.5" stroke="#606060" stroke-width=".5" x="0" y="0" width="60" height="60"/>
  <use id="zoomplus" xlink:href="#zoomPlus" x="17" y="9" onmousedown="handleZoom(evt,'in')"/>
  <use id="zoomminus" xlink:href="#zoomMin" x="42" y="9" onmousedown="handleZoom(evt,'out')"/>
  <use id="reset" xlink:href="#resetDef" x="30" y="36" onmousedown="handleReset()"/>
   <use id="arrowup" xlink:href="#arrowUp" x="0" y="0" onmousedown="handlePan(0,-1)"/>
  <use id="arrowright" xlink:href="#arrowRight" x="0" y="0" onmousedown="handlePan(1,0)"/>
  <use id="arrowdown" xlink:href="#arrowDown" x="0" y="0" onmousedown="handlePan(0,1)"/>
  <use id="arrowleft" xlink:href="#arrowLeft" x="0" y="0" onmousedown="handlePan(-1,0)"/>
</g>
<svg viewBox="0 0 15 15" width="100%" height="30px" preserveAspectRatio="xMaxYMin meet">
 <g id="arrow_out" transform="scale(0.3 0.3)">
  <a xlink:href="classFFrameData_a2dcc2eba9b975813bef54b3bb464220e_cgraph_org.svg" target="_base">
   <rect id="button" ry="5" rx="5" y="6" x="6" height="38" width="38"
        fill="#f2f5e9" fill-opacity="0.5" stroke="#606060" stroke-width="1.0"/>
   <path id="arrow"
     d="M 11.500037,31.436501 C 11.940474,20.09759 22.043105,11.32322 32.158766,21.979434 L 37.068811,17.246167 C 37.068811,17.246167 37.088388,32 37.088388,32 L 22.160133,31.978069 C 22.160133,31.978069 26.997745,27.140456 26.997745,27.140456 C 18.528582,18.264221 13.291696,25.230495 11.500037,31.436501 z"
     style="fill:#404040;"/>
  </a>
 </g>
</svg>

<style type='text/css'>
<![CDATA[
[data-mouse-over-selected='false'] { opacity: 0.7; }
[data-mouse-over-selected='true']  { opacity: 1.0; }
]]>
</style>
<script type="application/ecmascript"><![CDATA[
document.addEventListener('DOMContentLoaded', (event) => {
  highlightEdges();
  highlightAdjacentNodes();
});
]]></script>
</svg>
