<?xml version="1.0" encoding="UTF-8" standalone="no"?>
<!DOCTYPE svg PUBLIC "-//W3C//DTD SVG 1.1//EN"
 "http://www.w3.org/Graphics/SVG/1.1/DTD/svg11.dtd">
<!-- Generated by graphviz version 8.1.0 (20230707.0739)
 -->
<!-- Title: carla::geom::MeshFactory::GenerateSidewalk Pages: 1 -->
<svg width="620pt" height="156pt"
 viewBox="0.00 0.00 619.50 156.00" xmlns="http://www.w3.org/2000/svg" xmlns:xlink="http://www.w3.org/1999/xlink">
<g id="graph0" class="graph" transform="scale(1 1) rotate(0) translate(4 152)">
<title>carla::geom::MeshFactory::GenerateSidewalk</title>
<!-- Node1 -->
<g id="Node000001" class="node">
<title>Node1</title>
<g id="a_Node000001"><a xlink:title=" ">
<polygon fill="#999999" stroke="#666666" points="130,-85 0,-85 0,-53 130,-53 130,-85"/>
<text text-anchor="start" x="8" y="-71.5" font-family="Helvetica,sans-Serif" font-size="10.00">carla::geom::MeshFactory</text>
<text text-anchor="middle" x="65" y="-59.5" font-family="Helvetica,sans-Serif" font-size="10.00">::GenerateSidewalk</text>
</a>
</g>
</g>
<!-- Node2 -->
<g id="Node000002" class="node">
<title>Node2</title>
<g id="a_Node000002"><a xlink:href="../../d6/d3d/classcarla_1_1geom_1_1MeshFactory.html#a15a67316be6174f196580a188edb847b" target="_top" xlink:title=" ">
<polygon fill="white" stroke="#666666" points="296,-130 166,-130 166,-98 296,-98 296,-130"/>
<text text-anchor="start" x="174" y="-116.5" font-family="Helvetica,sans-Serif" font-size="10.00">carla::geom::MeshFactory</text>
<text text-anchor="middle" x="231" y="-104.5" font-family="Helvetica,sans-Serif" font-size="10.00">::GenerateSidewalk</text>
</a>
</g>
</g>
<!-- Node1&#45;&gt;Node2 -->
<g id="edge1_Node000001_Node000002" class="edge">
<title>Node1&#45;&gt;Node2</title>
<g id="a_edge1_Node000001_Node000002"><a xlink:title=" ">
<path fill="none" stroke="#63b8ff" d="M125.67,-85.37C136.75,-88.41 148.42,-91.61 159.78,-94.73"/>
<polygon fill="#63b8ff" stroke="#63b8ff" points="158.53,-98.29 169.1,-97.56 160.38,-91.54 158.53,-98.29"/>
</a>
</g>
</g>
<!-- Node4 -->
<g id="Node000004" class="node">
<title>Node4</title>
<g id="a_Node000004"><a xlink:href="../../df/d85/classcarla_1_1road_1_1Lane.html#ae02c9441872377fc865c85339df51cbd" target="_top" xlink:title=" ">
<polygon fill="white" stroke="#666666" points="440.25,-82 345.5,-82 345.5,-50 440.25,-50 440.25,-82"/>
<text text-anchor="start" x="353.5" y="-68.5" font-family="Helvetica,sans-Serif" font-size="10.00">carla::road::Lane::</text>
<text text-anchor="middle" x="392.88" y="-56.5" font-family="Helvetica,sans-Serif" font-size="10.00">GetDistance</text>
</a>
</g>
</g>
<!-- Node1&#45;&gt;Node4 -->
<g id="edge4_Node000001_Node000004" class="edge">
<title>Node1&#45;&gt;Node4</title>
<g id="a_edge4_Node000001_Node000004"><a xlink:title=" ">
<path fill="none" stroke="#63b8ff" d="M130.38,-68.41C189.8,-67.86 277.24,-67.06 334.37,-66.53"/>
<polygon fill="#63b8ff" stroke="#63b8ff" points="334.05,-70.02 344.02,-66.43 333.99,-63.02 334.05,-70.02"/>
</a>
</g>
</g>
<!-- Node6 -->
<g id="Node000006" class="node">
<title>Node6</title>
<g id="a_Node000006"><a xlink:href="../../df/d85/classcarla_1_1road_1_1Lane.html#af158921fdf12a061967943ee2d645481" target="_top" xlink:title=" ">
<polygon fill="white" stroke="#666666" points="278.38,-41 183.62,-41 183.62,-9 278.38,-9 278.38,-41"/>
<text text-anchor="start" x="191.62" y="-27.5" font-family="Helvetica,sans-Serif" font-size="10.00">carla::road::Lane::</text>
<text text-anchor="middle" x="231" y="-15.5" font-family="Helvetica,sans-Serif" font-size="10.00">GetLength</text>
</a>
</g>
</g>
<!-- Node1&#45;&gt;Node6 -->
<g id="edge6_Node000001_Node000006" class="edge">
<title>Node1&#45;&gt;Node6</title>
<g id="a_edge6_Node000001_Node000006"><a xlink:title=" ">
<path fill="none" stroke="#63b8ff" d="M127.07,-52.62C142.02,-48.61 157.96,-44.33 172.73,-40.37"/>
<polygon fill="#63b8ff" stroke="#63b8ff" points="173.49,-43.52 182.24,-37.55 171.67,-36.76 173.49,-43.52"/>
</a>
</g>
</g>
<!-- Node2&#45;&gt;Node2 -->
<g id="edge2_Node000002_Node000002" class="edge">
<title>Node2&#45;&gt;Node2</title>
<g id="a_edge2_Node000002_Node000002"><a xlink:title=" ">
<path fill="none" stroke="#63b8ff" d="M202.1,-130.44C196.71,-139.58 206.34,-148 231,-148 245.26,-148 254.49,-145.19 258.7,-141.05"/>
<polygon fill="#63b8ff" stroke="#63b8ff" points="262.26,-141.77 259.9,-131.44 255.3,-140.99 262.26,-141.77"/>
</a>
</g>
</g>
<!-- Node3 -->
<g id="Node000003" class="node">
<title>Node3</title>
<g id="a_Node000003"><a xlink:href="../../dd/d80/classcarla_1_1road_1_1LaneSection.html#afb698c17b4d62c0df02cf8dae16b8f50" target="_top" xlink:title=" ">
<polygon fill="white" stroke="#666666" points="453.75,-132 332,-132 332,-100 453.75,-100 453.75,-132"/>
<text text-anchor="start" x="340" y="-118.5" font-family="Helvetica,sans-Serif" font-size="10.00">carla::road::LaneSection</text>
<text text-anchor="middle" x="392.88" y="-106.5" font-family="Helvetica,sans-Serif" font-size="10.00">::GetLanes</text>
</a>
</g>
</g>
<!-- Node2&#45;&gt;Node3 -->
<g id="edge3_Node000002_Node000003" class="edge">
<title>Node2&#45;&gt;Node3</title>
<g id="a_edge3_Node000002_Node000003"><a xlink:title=" ">
<path fill="none" stroke="#63b8ff" d="M296.11,-114.8C304.26,-114.9 312.64,-115.01 320.9,-115.11"/>
<polygon fill="#63b8ff" stroke="#63b8ff" points="320.6,-118.62 330.64,-115.25 320.69,-111.62 320.6,-118.62"/>
</a>
</g>
</g>
<!-- Node5 -->
<g id="Node000005" class="node">
<title>Node5</title>
<g id="a_Node000005"><a xlink:href="../../dd/d80/classcarla_1_1road_1_1LaneSection.html#a2a83bca663a2b7b6388daebed95704a9" target="_top" xlink:title=" ">
<polygon fill="white" stroke="#666666" points="611.5,-82 489.75,-82 489.75,-50 611.5,-50 611.5,-82"/>
<text text-anchor="start" x="497.75" y="-68.5" font-family="Helvetica,sans-Serif" font-size="10.00">carla::road::LaneSection</text>
<text text-anchor="middle" x="550.62" y="-56.5" font-family="Helvetica,sans-Serif" font-size="10.00">::GetDistance</text>
</a>
</g>
</g>
<!-- Node4&#45;&gt;Node5 -->
<g id="edge5_Node000004_Node000005" class="edge">
<title>Node4&#45;&gt;Node5</title>
<g id="a_edge5_Node000004_Node000005"><a xlink:title=" ">
<path fill="none" stroke="#63b8ff" d="M440.61,-66C452.58,-66 465.72,-66 478.61,-66"/>
<polygon fill="#63b8ff" stroke="#63b8ff" points="478.35,-69.5 488.35,-66 478.35,-62.5 478.35,-69.5"/>
</a>
</g>
</g>
<!-- Node6&#45;&gt;Node4 -->
<g id="edge7_Node000006_Node000004" class="edge">
<title>Node6&#45;&gt;Node4</title>
<g id="a_edge7_Node000006_Node000004"><a xlink:title=" ">
<path fill="none" stroke="#63b8ff" d="M278.67,-36.97C296.16,-41.45 316.24,-46.6 334.58,-51.31"/>
<polygon fill="#63b8ff" stroke="#63b8ff" points="333.59,-54.92 344.14,-54.02 335.33,-48.14 333.59,-54.92"/>
</a>
</g>
</g>
<!-- Node7 -->
<g id="Node000007" class="node">
<title>Node7</title>
<g id="a_Node000007"><a xlink:href="../../df/d85/classcarla_1_1road_1_1Lane.html#a04f454d98f499a700749b8aacc31cfc9" target="_top" xlink:title=" ">
<polygon fill="white" stroke="#666666" points="440.25,-32 345.5,-32 345.5,0 440.25,0 440.25,-32"/>
<text text-anchor="start" x="353.5" y="-18.5" font-family="Helvetica,sans-Serif" font-size="10.00">carla::road::Lane::</text>
<text text-anchor="middle" x="392.88" y="-6.5" font-family="Helvetica,sans-Serif" font-size="10.00">GetRoad</text>
</a>
</g>
</g>
<!-- Node6&#45;&gt;Node7 -->
<g id="edge8_Node000006_Node000007" class="edge">
<title>Node6&#45;&gt;Node7</title>
<g id="a_edge8_Node000006_Node000007"><a xlink:title=" ">
<path fill="none" stroke="#63b8ff" d="M278.67,-22.37C296.08,-21.39 316.05,-20.27 334.32,-19.24"/>
<polygon fill="#63b8ff" stroke="#63b8ff" points="334.36,-22.69 344.14,-18.63 333.96,-15.7 334.36,-22.69"/>
</a>
</g>
</g>
<!-- Node8 -->
<g id="Node000008" class="node">
<title>Node8</title>
<g id="a_Node000008"><a xlink:href="../../dd/d80/classcarla_1_1road_1_1LaneSection.html#a20f42f8a9aa46a316e50c2defaac1d55" target="_top" xlink:title=" ">
<polygon fill="white" stroke="#666666" points="611.5,-32 489.75,-32 489.75,0 611.5,0 611.5,-32"/>
<text text-anchor="start" x="497.75" y="-18.5" font-family="Helvetica,sans-Serif" font-size="10.00">carla::road::LaneSection</text>
<text text-anchor="middle" x="550.62" y="-6.5" font-family="Helvetica,sans-Serif" font-size="10.00">::GetRoad</text>
</a>
</g>
</g>
<!-- Node7&#45;&gt;Node8 -->
<g id="edge9_Node000007_Node000008" class="edge">
<title>Node7&#45;&gt;Node8</title>
<g id="a_edge9_Node000007_Node000008"><a xlink:title=" ">
<path fill="none" stroke="#63b8ff" d="M440.61,-16C452.58,-16 465.72,-16 478.61,-16"/>
<polygon fill="#63b8ff" stroke="#63b8ff" points="478.35,-19.5 488.35,-16 478.35,-12.5 478.35,-19.5"/>
</a>
</g>
</g>
</g>
</svg>
