<?xml version="1.0" encoding="UTF-8" standalone="no"?>
<!DOCTYPE svg PUBLIC "-//W3C//DTD SVG 1.1//EN"
 "http://www.w3.org/Graphics/SVG/1.1/DTD/svg11.dtd">
<!-- Generated by graphviz version 8.1.0 (20230707.0739)
 -->
<!-- Title: carla::geom::MeshFactory::GenerateAllWithMaxLen Pages: 1 -->
<svg width="620pt" height="176pt"
 viewBox="0.00 0.00 620.25 176.00" xmlns="http://www.w3.org/2000/svg" xmlns:xlink="http://www.w3.org/1999/xlink">
<g id="graph0" class="graph" transform="scale(1 1) rotate(0) translate(4 172)">
<title>carla::geom::MeshFactory::GenerateAllWithMaxLen</title>
<!-- Node1 -->
<g id="Node000001" class="node">
<title>Node1</title>
<g id="a_Node000001"><a xlink:title="Generates a chunked road with all the features needed for simulation.">
<polygon fill="#999999" stroke="#666666" points="130,-82 0,-82 0,-50 130,-50 130,-82"/>
<text text-anchor="start" x="8" y="-68.5" font-family="Helvetica,sans-Serif" font-size="10.00">carla::geom::MeshFactory</text>
<text text-anchor="middle" x="65" y="-56.5" font-family="Helvetica,sans-Serif" font-size="10.00">::GenerateAllWithMaxLen</text>
</a>
</g>
</g>
<!-- Node2 -->
<g id="Node000002" class="node">
<title>Node2</title>
<g id="a_Node000002"><a xlink:href="../../d6/d3d/classcarla_1_1geom_1_1MeshFactory.html#a5bb7825a0c5633404a348ccddcce20f7" target="_top" xlink:title="Generates a list of meshes that defines a road safety wall with a maximum length.">
<polygon fill="white" stroke="#666666" points="307.25,-150 166,-150 166,-118 307.25,-118 307.25,-150"/>
<text text-anchor="start" x="174" y="-136.5" font-family="Helvetica,sans-Serif" font-size="10.00">carla::geom::MeshFactory</text>
<text text-anchor="middle" x="236.62" y="-124.5" font-family="Helvetica,sans-Serif" font-size="10.00">::GenerateWallsWithMaxLen</text>
</a>
</g>
</g>
<!-- Node1&#45;&gt;Node2 -->
<g id="edge1_Node000001_Node000002" class="edge">
<title>Node1&#45;&gt;Node2</title>
<g id="a_edge1_Node000001_Node000002"><a xlink:title=" ">
<path fill="none" stroke="#63b8ff" d="M102.82,-82.47C121.61,-90.72 144.9,-100.69 166,-109 170.1,-110.62 174.35,-112.25 178.64,-113.86"/>
<polygon fill="#63b8ff" stroke="#63b8ff" points="177.07,-117.38 187.66,-117.58 179.51,-110.82 177.07,-117.38"/>
</a>
</g>
</g>
<!-- Node6 -->
<g id="Node000006" class="node">
<title>Node6</title>
<g id="a_Node000006"><a xlink:href="../../d6/d3d/classcarla_1_1geom_1_1MeshFactory.html#ae4ed344f3d9ed1020d78d720400bbc3a" target="_top" xlink:title="Generates a list of meshes that defines a road with a maximum length.">
<polygon fill="white" stroke="#666666" points="301.62,-82 171.62,-82 171.62,-50 301.62,-50 301.62,-82"/>
<text text-anchor="start" x="179.62" y="-68.5" font-family="Helvetica,sans-Serif" font-size="10.00">carla::geom::MeshFactory</text>
<text text-anchor="middle" x="236.62" y="-56.5" font-family="Helvetica,sans-Serif" font-size="10.00">::GenerateWithMaxLen</text>
</a>
</g>
</g>
<!-- Node1&#45;&gt;Node6 -->
<g id="edge6_Node000001_Node000006" class="edge">
<title>Node1&#45;&gt;Node6</title>
<g id="a_edge6_Node000001_Node000006"><a xlink:title=" ">
<path fill="none" stroke="#63b8ff" d="M130.13,-66C140.05,-66 150.37,-66 160.51,-66"/>
<polygon fill="#63b8ff" stroke="#63b8ff" points="160.41,-69.5 170.41,-66 160.41,-62.5 160.41,-69.5"/>
</a>
</g>
</g>
<!-- Node7 -->
<g id="Node000007" class="node">
<title>Node7</title>
<g id="a_Node000007"><a xlink:href="../../dd/de6/classcarla_1_1road_1_1Road.html#af59728d624635d195db846b08c1f32c7" target="_top" xlink:title=" ">
<polygon fill="white" stroke="#666666" points="284.75,-32 188.5,-32 188.5,0 284.75,0 284.75,-32"/>
<text text-anchor="start" x="196.5" y="-18.5" font-family="Helvetica,sans-Serif" font-size="10.00">carla::road::Road::</text>
<text text-anchor="middle" x="236.62" y="-6.5" font-family="Helvetica,sans-Serif" font-size="10.00">IsJunction</text>
</a>
</g>
</g>
<!-- Node1&#45;&gt;Node7 -->
<g id="edge9_Node000001_Node000007" class="edge">
<title>Node1&#45;&gt;Node7</title>
<g id="a_edge9_Node000001_Node000007"><a xlink:title=" ">
<path fill="none" stroke="#63b8ff" d="M121.54,-49.63C139.55,-44.32 159.57,-38.42 177.75,-33.06"/>
<polygon fill="#63b8ff" stroke="#63b8ff" points="178.61,-36.16 187.21,-29.98 176.63,-29.45 178.61,-36.16"/>
</a>
</g>
</g>
<!-- Node2&#45;&gt;Node2 -->
<g id="edge2_Node000002_Node000002" class="edge">
<title>Node2&#45;&gt;Node2</title>
<g id="a_edge2_Node000002_Node000002"><a xlink:title=" ">
<path fill="none" stroke="#63b8ff" d="M209,-150.44C203.84,-159.58 213.05,-168 236.62,-168 250.25,-168 259.08,-165.19 263.11,-161.05"/>
<polygon fill="#63b8ff" stroke="#63b8ff" points="266.66,-161.76 264.25,-151.44 259.7,-161.01 266.66,-161.76"/>
</a>
</g>
</g>
<!-- Node3 -->
<g id="Node000003" class="node">
<title>Node3</title>
<g id="a_Node000003"><a xlink:href="../../dd/de6/classcarla_1_1road_1_1Road.html#a80c9aa97b820970de38f168c1a7c5a02" target="_top" xlink:title=" ">
<polygon fill="white" stroke="#666666" points="439.5,-116 343.25,-116 343.25,-84 439.5,-84 439.5,-116"/>
<text text-anchor="start" x="351.25" y="-102.5" font-family="Helvetica,sans-Serif" font-size="10.00">carla::road::Road::</text>
<text text-anchor="middle" x="391.38" y="-90.5" font-family="Helvetica,sans-Serif" font-size="10.00">GetLaneSections</text>
</a>
</g>
</g>
<!-- Node2&#45;&gt;Node3 -->
<g id="edge3_Node000002_Node000003" class="edge">
<title>Node2&#45;&gt;Node3</title>
<g id="a_edge3_Node000002_Node000003"><a xlink:title=" ">
<path fill="none" stroke="#63b8ff" d="M307.74,-118.39C315.94,-116.57 324.23,-114.72 332.24,-112.94"/>
<polygon fill="#63b8ff" stroke="#63b8ff" points="332.95,-116.15 341.95,-110.56 331.42,-109.31 332.95,-116.15"/>
</a>
</g>
</g>
<!-- Node4 -->
<g id="Node000004" class="node">
<title>Node4</title>
<g id="a_Node000004"><a xlink:href="../../de/d22/namespacecarla_1_1iterator.html#ae092052881aef479e69ba5491dd147ec" target="_top" xlink:title="Creates an iterator over const references to the values of a map.">
<polygon fill="white" stroke="#666666" points="612.25,-138 475.5,-138 475.5,-106 612.25,-106 612.25,-138"/>
<text text-anchor="start" x="483.5" y="-124.5" font-family="Helvetica,sans-Serif" font-size="10.00">carla::iterator::make</text>
<text text-anchor="middle" x="543.88" y="-112.5" font-family="Helvetica,sans-Serif" font-size="10.00">_map_values_const_iterator</text>
</a>
</g>
</g>
<!-- Node3&#45;&gt;Node4 -->
<g id="edge4_Node000003_Node000004" class="edge">
<title>Node3&#45;&gt;Node4</title>
<g id="a_edge4_Node000003_Node000004"><a xlink:title=" ">
<path fill="none" stroke="#63b8ff" d="M439.99,-106.96C447.87,-108.11 456.21,-109.33 464.6,-110.56"/>
<polygon fill="#63b8ff" stroke="#63b8ff" points="463.82,-114.13 474.22,-112.11 464.83,-107.2 463.82,-114.13"/>
</a>
</g>
</g>
<!-- Node5 -->
<g id="Node000005" class="node">
<title>Node5</title>
<g id="a_Node000005"><a xlink:href="../../d9/d36/namespacecarla.html#a2dc539ffbcff452958f707dc7b0db4d6" target="_top" xlink:title=" ">
<polygon fill="white" stroke="#666666" points="595.75,-88 492,-88 492,-68 595.75,-68 595.75,-88"/>
<text text-anchor="middle" x="543.88" y="-74.5" font-family="Helvetica,sans-Serif" font-size="10.00">carla::MakeListView</text>
</a>
</g>
</g>
<!-- Node3&#45;&gt;Node5 -->
<g id="edge5_Node000003_Node000005" class="edge">
<title>Node3&#45;&gt;Node5</title>
<g id="a_edge5_Node000003_Node000005"><a xlink:title=" ">
<path fill="none" stroke="#63b8ff" d="M439.99,-93.04C452.97,-91.14 467.23,-89.06 480.88,-87.06"/>
<polygon fill="#63b8ff" stroke="#63b8ff" points="481.27,-90.4 490.66,-85.49 480.26,-83.47 481.27,-90.4"/>
</a>
</g>
</g>
<!-- Node6&#45;&gt;Node3 -->
<g id="edge8_Node000006_Node000003" class="edge">
<title>Node6&#45;&gt;Node3</title>
<g id="a_edge8_Node000006_Node000003"><a xlink:title=" ">
<path fill="none" stroke="#63b8ff" d="M301.96,-80.32C312.02,-82.56 322.37,-84.86 332.28,-87.07"/>
<polygon fill="#63b8ff" stroke="#63b8ff" points="331.3,-90.66 341.82,-89.42 332.82,-83.83 331.3,-90.66"/>
</a>
</g>
</g>
<!-- Node6&#45;&gt;Node6 -->
<g id="edge7_Node000006_Node000006" class="edge">
<title>Node6&#45;&gt;Node6</title>
<g id="a_edge7_Node000006_Node000006"><a xlink:title=" ">
<path fill="none" stroke="#63b8ff" d="M209,-82.44C203.84,-91.58 213.05,-100 236.62,-100 250.25,-100 259.08,-97.19 263.11,-93.05"/>
<polygon fill="#63b8ff" stroke="#63b8ff" points="266.66,-93.76 264.25,-83.44 259.7,-93.01 266.66,-93.76"/>
</a>
</g>
</g>
</g>
</svg>
