<?xml version="1.0" encoding="UTF-8" standalone="no"?>
<!DOCTYPE svg PUBLIC "-//W3C//DTD SVG 1.1//EN"
 "http://www.w3.org/Graphics/SVG/1.1/DTD/svg11.dtd">
<!-- Generated by graphviz version 8.1.0 (20230707.0739)
 -->
<!-- Title: carla::geom::MeshFactory::GenerateLaneMarksForNotCenterLine Pages: 1 -->
<svg width="1181pt" height="723pt"
 viewBox="0.00 0.00 1180.50 722.66" xmlns="http://www.w3.org/2000/svg" xmlns:xlink="http://www.w3.org/1999/xlink">
<g id="graph0" class="graph" transform="scale(1 1) rotate(0) translate(4 718.66)">
<title>carla::geom::MeshFactory::GenerateLaneMarksForNotCenterLine</title>
<!-- Node1 -->
<g id="Node000001" class="node">
<title>Node1</title>
<g id="a_Node000001"><a xlink:title=" ">
<polygon fill="#999999" stroke="#666666" points="185.5,-378.66 0,-378.66 0,-346.66 185.5,-346.66 185.5,-378.66"/>
<text text-anchor="start" x="8" y="-365.16" font-family="Helvetica,sans-Serif" font-size="10.00">carla::geom::MeshFactory</text>
<text text-anchor="middle" x="92.75" y="-353.16" font-family="Helvetica,sans-Serif" font-size="10.00">::GenerateLaneMarksForNotCenterLine</text>
</a>
</g>
</g>
<!-- Node2 -->
<g id="Node000002" class="node">
<title>Node2</title>
<g id="a_Node000002"><a xlink:href="../../d0/d02/classcarla_1_1geom_1_1Mesh.html#a07814867b5e1b31a7af31d0c8f91b90b" target="_top" xlink:title="Appends a index to the indexes list.">
<polygon fill="white" stroke="#666666" points="345.88,-714.66 242.88,-714.66 242.88,-682.66 345.88,-682.66 345.88,-714.66"/>
<text text-anchor="start" x="250.88" y="-701.16" font-family="Helvetica,sans-Serif" font-size="10.00">carla::geom::Mesh::</text>
<text text-anchor="middle" x="294.38" y="-689.16" font-family="Helvetica,sans-Serif" font-size="10.00">AddIndex</text>
</a>
</g>
</g>
<!-- Node1&#45;&gt;Node2 -->
<g id="edge1_Node000001_Node000002" class="edge">
<title>Node1&#45;&gt;Node2</title>
<g id="a_edge1_Node000001_Node000002"><a xlink:title=" ">
<path fill="none" stroke="#63b8ff" d="M95.71,-378.8C102.73,-429.65 131.2,-588.2 221.5,-673.66 224.99,-676.97 228.95,-679.84 233.16,-682.34"/>
<polygon fill="#63b8ff" stroke="#63b8ff" points="231.23,-685.79 241.72,-687.21 234.41,-679.55 231.23,-685.79"/>
</a>
</g>
</g>
<!-- Node3 -->
<g id="Node000003" class="node">
<title>Node3</title>
<g id="a_Node000003"><a xlink:href="../../d0/d02/classcarla_1_1geom_1_1Mesh.html#a10cbc49c3739b84c368b761ab29770f0" target="_top" xlink:title="Appends a vertex to the vertices list.">
<polygon fill="white" stroke="#666666" points="345.88,-664.66 242.88,-664.66 242.88,-632.66 345.88,-632.66 345.88,-664.66"/>
<text text-anchor="start" x="250.88" y="-651.16" font-family="Helvetica,sans-Serif" font-size="10.00">carla::geom::Mesh::</text>
<text text-anchor="middle" x="294.38" y="-639.16" font-family="Helvetica,sans-Serif" font-size="10.00">AddVertex</text>
</a>
</g>
</g>
<!-- Node1&#45;&gt;Node3 -->
<g id="edge2_Node000001_Node000003" class="edge">
<title>Node1&#45;&gt;Node3</title>
<g id="a_edge2_Node000001_Node000003"><a xlink:title=" ">
<path fill="none" stroke="#63b8ff" d="M97.58,-378.85C108.86,-423.21 146.02,-548.11 221.5,-618.66 225.04,-621.97 229,-624.94 233.19,-627.6"/>
<polygon fill="#63b8ff" stroke="#63b8ff" points="231.23,-631.08 241.66,-632.95 234.67,-624.99 231.23,-631.08"/>
</a>
</g>
</g>
<!-- Node4 -->
<g id="Node000004" class="node">
<title>Node4</title>
<g id="a_Node000004"><a xlink:href="../../d6/d3d/classcarla_1_1geom_1_1MeshFactory.html#a512234aafe71530fd0cff32d9a27a4e4" target="_top" xlink:title=" ">
<polygon fill="white" stroke="#666666" points="367.25,-400.66 221.5,-400.66 221.5,-368.66 367.25,-368.66 367.25,-400.66"/>
<text text-anchor="start" x="229.5" y="-387.16" font-family="Helvetica,sans-Serif" font-size="10.00">carla::geom::MeshFactory</text>
<text text-anchor="middle" x="294.38" y="-375.16" font-family="Helvetica,sans-Serif" font-size="10.00">::ComputeEdgesForLanemark</text>
</a>
</g>
</g>
<!-- Node1&#45;&gt;Node4 -->
<g id="edge3_Node000001_Node000004" class="edge">
<title>Node1&#45;&gt;Node4</title>
<g id="a_edge3_Node000001_Node000004"><a xlink:title=" ">
<path fill="none" stroke="#63b8ff" d="M185.97,-372.82C194.11,-373.72 202.33,-374.63 210.39,-375.52"/>
<polygon fill="#63b8ff" stroke="#63b8ff" points="209.95,-379.1 220.27,-376.72 210.72,-372.14 209.95,-379.1"/>
</a>
</g>
</g>
<!-- Node22 -->
<g id="Node000022" class="node">
<title>Node22</title>
<g id="a_Node000022"><a xlink:href="../../dd/d80/classcarla_1_1road_1_1LaneSection.html#a2a83bca663a2b7b6388daebed95704a9" target="_top" xlink:title=" ">
<polygon fill="white" stroke="#666666" points="1172.5,-578.66 1050.75,-578.66 1050.75,-546.66 1172.5,-546.66 1172.5,-578.66"/>
<text text-anchor="start" x="1058.75" y="-565.16" font-family="Helvetica,sans-Serif" font-size="10.00">carla::road::LaneSection</text>
<text text-anchor="middle" x="1111.62" y="-553.16" font-family="Helvetica,sans-Serif" font-size="10.00">::GetDistance</text>
</a>
</g>
</g>
<!-- Node1&#45;&gt;Node22 -->
<g id="edge30_Node000001_Node000022" class="edge">
<title>Node1&#45;&gt;Node22</title>
<g id="a_edge30_Node000001_Node000022"><a xlink:title=" ">
<path fill="none" stroke="#63b8ff" d="M106.15,-378.92C149.1,-433.17 297.91,-604.66 463.12,-604.66 463.12,-604.66 463.12,-604.66 796,-604.66 880.26,-604.66 976.11,-589.68 1039.64,-577.61"/>
<polygon fill="#63b8ff" stroke="#63b8ff" points="1040.18,-580.88 1049.33,-575.55 1038.85,-574 1040.18,-580.88"/>
</a>
</g>
</g>
<!-- Node28 -->
<g id="Node000028" class="node">
<title>Node28</title>
<g id="a_Node000028"><a xlink:href="../../df/d85/classcarla_1_1road_1_1Lane.html#a68ed9c59953314ff9437cb820c8e7db8" target="_top" xlink:title=" ">
<polygon fill="white" stroke="#666666" points="511.5,-197.66 416.75,-197.66 416.75,-165.66 511.5,-165.66 511.5,-197.66"/>
<text text-anchor="start" x="424.75" y="-184.16" font-family="Helvetica,sans-Serif" font-size="10.00">carla::road::Lane::</text>
<text text-anchor="middle" x="464.12" y="-172.16" font-family="Helvetica,sans-Serif" font-size="10.00">GetInfo</text>
</a>
</g>
</g>
<!-- Node1&#45;&gt;Node28 -->
<g id="edge31_Node000001_Node000028" class="edge">
<title>Node1&#45;&gt;Node28</title>
<g id="a_edge31_Node000001_Node000028"><a xlink:title=" ">
<path fill="none" stroke="#63b8ff" d="M185.68,-355.33C253.21,-348.45 338.06,-336.25 367.25,-316.66 392.44,-299.76 385.91,-283.56 403.25,-258.66 415.79,-240.65 430.97,-221.15 442.91,-206.28"/>
<polygon fill="#63b8ff" stroke="#63b8ff" points="445.96,-209.08 449.52,-199.1 440.51,-204.68 445.96,-209.08"/>
</a>
</g>
</g>
<!-- Node29 -->
<g id="Node000029" class="node">
<title>Node29</title>
<g id="a_Node000029"><a xlink:href="../../dd/d80/classcarla_1_1road_1_1LaneSection.html#a059dcb478641cd498e3d213feb7e000d" target="_top" xlink:title=" ">
<polygon fill="white" stroke="#666666" points="525,-43.66 403.25,-43.66 403.25,-11.66 525,-11.66 525,-43.66"/>
<text text-anchor="start" x="411.25" y="-30.16" font-family="Helvetica,sans-Serif" font-size="10.00">carla::road::LaneSection</text>
<text text-anchor="middle" x="464.12" y="-18.16" font-family="Helvetica,sans-Serif" font-size="10.00">::GetLength</text>
</a>
</g>
</g>
<!-- Node1&#45;&gt;Node29 -->
<g id="edge33_Node000001_Node000029" class="edge">
<title>Node1&#45;&gt;Node29</title>
<g id="a_edge33_Node000001_Node000029"><a xlink:title=" ">
<path fill="none" stroke="#63b8ff" d="M135.33,-346.22C160.1,-336.8 192.31,-325.19 221.5,-316.66 285.25,-298.04 319.05,-329.35 367.25,-283.66 409.83,-243.3 382.84,-211.66 403.25,-156.66 416.84,-120.04 436.5,-79.42 449.54,-53.72"/>
<polygon fill="#63b8ff" stroke="#63b8ff" points="453.07,-55.5 454.52,-45 446.84,-52.31 453.07,-55.5"/>
</a>
</g>
</g>
<!-- Node30 -->
<g id="Node000030" class="node">
<title>Node30</title>
<g id="a_Node000030"><a xlink:href="../../d0/d02/classcarla_1_1geom_1_1Mesh.html#afc91cfec4029e092f008404f366aaa45" target="_top" xlink:title=" ">
<polygon fill="white" stroke="#666666" points="345.88,-274.66 242.88,-274.66 242.88,-242.66 345.88,-242.66 345.88,-274.66"/>
<text text-anchor="start" x="250.88" y="-261.16" font-family="Helvetica,sans-Serif" font-size="10.00">carla::geom::Mesh::</text>
<text text-anchor="middle" x="294.38" y="-249.16" font-family="Helvetica,sans-Serif" font-size="10.00">GetVertices</text>
</a>
</g>
</g>
<!-- Node1&#45;&gt;Node30 -->
<g id="edge35_Node000001_Node000030" class="edge">
<title>Node1&#45;&gt;Node30</title>
<g id="a_edge35_Node000001_Node000030"><a xlink:title=" ">
<path fill="none" stroke="#63b8ff" d="M119.63,-346.34C145.06,-330.62 185.22,-306.65 221.5,-288.66 227.93,-285.47 234.78,-282.32 241.61,-279.32"/>
<polygon fill="#63b8ff" stroke="#63b8ff" points="242.73,-282.22 250.54,-275.05 239.97,-275.79 242.73,-282.22"/>
</a>
</g>
</g>
<!-- Node31 -->
<g id="Node000031" class="node">
<title>Node31</title>
<g id="a_Node000031"><a xlink:href="../../d0/d02/classcarla_1_1geom_1_1Mesh.html#a4aa083b7a417ca5e2fb8dc70796a19a5" target="_top" xlink:title="Check if the mesh can be valid or not.">
<polygon fill="white" stroke="#666666" points="345.88,-224.66 242.88,-224.66 242.88,-192.66 345.88,-192.66 345.88,-224.66"/>
<text text-anchor="start" x="250.88" y="-211.16" font-family="Helvetica,sans-Serif" font-size="10.00">carla::geom::Mesh::</text>
<text text-anchor="middle" x="294.38" y="-199.16" font-family="Helvetica,sans-Serif" font-size="10.00">IsValid</text>
</a>
</g>
</g>
<!-- Node1&#45;&gt;Node31 -->
<g id="edge36_Node000001_Node000031" class="edge">
<title>Node1&#45;&gt;Node31</title>
<g id="a_edge36_Node000001_Node000031"><a xlink:title=" ">
<path fill="none" stroke="#63b8ff" d="M105.72,-346.45C126.46,-319.44 171.64,-265.1 221.5,-233.66 225.04,-231.43 228.81,-229.36 232.7,-227.46"/>
<polygon fill="#63b8ff" stroke="#63b8ff" points="233.83,-230.34 241.53,-223.06 230.97,-223.95 233.83,-230.34"/>
</a>
</g>
</g>
<!-- Node5 -->
<g id="Node000005" class="node">
<title>Node5</title>
<g id="a_Node000005"><a xlink:href="../../df/d85/classcarla_1_1road_1_1Lane.html#ae0d376fa422b14e54af3a702e1b8385a" target="_top" xlink:title="Computes the location of the edges given a s.">
<polygon fill="white" stroke="#666666" points="514.5,-375.66 413.75,-375.66 413.75,-343.66 514.5,-343.66 514.5,-375.66"/>
<text text-anchor="start" x="421.75" y="-362.16" font-family="Helvetica,sans-Serif" font-size="10.00">carla::road::Lane::</text>
<text text-anchor="middle" x="464.12" y="-350.16" font-family="Helvetica,sans-Serif" font-size="10.00">GetCornerPositions</text>
</a>
</g>
</g>
<!-- Node4&#45;&gt;Node5 -->
<g id="edge4_Node000004_Node000005" class="edge">
<title>Node4&#45;&gt;Node5</title>
<g id="a_edge4_Node000004_Node000005"><a xlink:title=" ">
<path fill="none" stroke="#63b8ff" d="M367.49,-373.91C379.2,-372.17 391.22,-370.38 402.62,-368.68"/>
<polygon fill="#63b8ff" stroke="#63b8ff" points="402.94,-372.02 412.32,-367.08 401.91,-365.1 402.94,-372.02"/>
</a>
</g>
</g>
<!-- Node25 -->
<g id="Node000025" class="node">
<title>Node25</title>
<g id="a_Node000025"><a xlink:href="../../dd/d80/classcarla_1_1road_1_1LaneSection.html#afb698c17b4d62c0df02cf8dae16b8f50" target="_top" xlink:title=" ">
<polygon fill="white" stroke="#666666" points="525,-425.66 403.25,-425.66 403.25,-393.66 525,-393.66 525,-425.66"/>
<text text-anchor="start" x="411.25" y="-412.16" font-family="Helvetica,sans-Serif" font-size="10.00">carla::road::LaneSection</text>
<text text-anchor="middle" x="464.12" y="-400.16" font-family="Helvetica,sans-Serif" font-size="10.00">::GetLanes</text>
</a>
</g>
</g>
<!-- Node4&#45;&gt;Node25 -->
<g id="edge27_Node000004_Node000025" class="edge">
<title>Node4&#45;&gt;Node25</title>
<g id="a_edge27_Node000004_Node000025"><a xlink:title=" ">
<path fill="none" stroke="#63b8ff" d="M367.49,-395.41C375.7,-396.63 384.07,-397.88 392.26,-399.1"/>
<polygon fill="#63b8ff" stroke="#63b8ff" points="391.5,-402.68 401.91,-400.69 392.54,-395.75 391.5,-402.68"/>
</a>
</g>
</g>
<!-- Node26 -->
<g id="Node000026" class="node">
<title>Node26</title>
<g id="a_Node000026"><a xlink:href="../../d9/dfe/classcarla_1_1geom_1_1Vector3D.html#aaa4bec48ae0734cca2c027df30ea6b34" target="_top" xlink:title=" ">
<polygon fill="white" stroke="#666666" points="520.88,-299.66 407.38,-299.66 407.38,-267.66 520.88,-267.66 520.88,-299.66"/>
<text text-anchor="start" x="415.38" y="-286.16" font-family="Helvetica,sans-Serif" font-size="10.00">carla::geom::Vector3D</text>
<text text-anchor="middle" x="464.12" y="-274.16" font-family="Helvetica,sans-Serif" font-size="10.00">::Length</text>
</a>
</g>
</g>
<!-- Node4&#45;&gt;Node26 -->
<g id="edge28_Node000004_Node000026" class="edge">
<title>Node4&#45;&gt;Node26</title>
<g id="a_edge28_Node000004_Node000026"><a xlink:title=" ">
<path fill="none" stroke="#63b8ff" d="M339.51,-368.22C348.87,-364.19 358.55,-359.6 367.25,-354.66 391.55,-340.86 416.87,-321.89 435.38,-307.02"/>
<polygon fill="#63b8ff" stroke="#63b8ff" points="437.34,-309.13 442.89,-300.1 432.92,-303.7 437.34,-309.13"/>
</a>
</g>
</g>
<!-- Node6 -->
<g id="Node000006" class="node">
<title>Node6</title>
<g id="a_Node000006"><a xlink:href="../../df/d65/structcarla_1_1road_1_1element_1_1DirectedPoint.html#a058ad3be7f22229ea802e569ab0e8b7e" target="_top" xlink:title=" ">
<polygon fill="white" stroke="#666666" points="865.25,-249.66 724.75,-249.66 724.75,-205.66 865.25,-205.66 865.25,-249.66"/>
<text text-anchor="start" x="732.75" y="-236.16" font-family="Helvetica,sans-Serif" font-size="10.00">carla::road::element</text>
<text text-anchor="start" x="732.75" y="-224.16" font-family="Helvetica,sans-Serif" font-size="10.00">::DirectedPoint::ApplyLateral</text>
<text text-anchor="middle" x="795" y="-212.16" font-family="Helvetica,sans-Serif" font-size="10.00">Offset</text>
</a>
</g>
</g>
<!-- Node5&#45;&gt;Node6 -->
<g id="edge5_Node000005_Node000006" class="edge">
<title>Node5&#45;&gt;Node6</title>
<g id="a_edge5_Node000005_Node000006"><a xlink:title=" ">
<path fill="none" stroke="#63b8ff" d="M486.7,-343.31C498.59,-333.81 513.28,-321.26 525,-308.66 543.41,-288.88 537.78,-273.48 561,-259.66 606.65,-232.49 666.09,-224.67 713.51,-223.56"/>
<polygon fill="#63b8ff" stroke="#63b8ff" points="713.4,-227.04 723.35,-223.41 713.31,-220.04 713.4,-227.04"/>
</a>
</g>
</g>
<!-- Node7 -->
<g id="Node000007" class="node">
<title>Node7</title>
<g id="a_Node000007"><a xlink:href="../../de/d26/namespacecarla_1_1road.html#abbc121e611f4730037ce6edf6bd5f3ee" target="_top" xlink:title="Returns a pair containing first = width, second = tangent, for an specific Lane given an s and a iter...">
<polygon fill="white" stroke="#666666" points="688.75,-212.66 561,-212.66 561,-180.66 688.75,-180.66 688.75,-212.66"/>
<text text-anchor="start" x="569" y="-199.16" font-family="Helvetica,sans-Serif" font-size="10.00">carla::road::ComputeTotal</text>
<text text-anchor="middle" x="624.88" y="-187.16" font-family="Helvetica,sans-Serif" font-size="10.00">LaneWidth</text>
</a>
</g>
</g>
<!-- Node5&#45;&gt;Node7 -->
<g id="edge6_Node000005_Node000007" class="edge">
<title>Node5&#45;&gt;Node7</title>
<g id="a_edge6_Node000005_Node000007"><a xlink:title=" ">
<path fill="none" stroke="#63b8ff" d="M488.99,-343.36C500.99,-334.24 515.06,-322.03 525,-308.66 548.75,-276.72 533.3,-255.25 561,-226.66 563.65,-223.93 566.59,-221.42 569.72,-219.11"/>
<polygon fill="#63b8ff" stroke="#63b8ff" points="571.45,-221.51 577.95,-213.14 567.65,-215.64 571.45,-221.51"/>
</a>
</g>
</g>
<!-- Node8 -->
<g id="Node000008" class="node">
<title>Node8</title>
<g id="a_Node000008"><a xlink:href="../../dd/de6/classcarla_1_1road_1_1Road.html#abe77139bd9cba13e5c068c6f78b5196c" target="_top" xlink:title="Returns a directed point on the center of the road (lane 0), with the corresponding laneOffset and el...">
<polygon fill="white" stroke="#666666" points="673.75,-162.66 576,-162.66 576,-130.66 673.75,-130.66 673.75,-162.66"/>
<text text-anchor="start" x="584" y="-149.16" font-family="Helvetica,sans-Serif" font-size="10.00">carla::road::Road::</text>
<text text-anchor="middle" x="624.88" y="-137.16" font-family="Helvetica,sans-Serif" font-size="10.00">GetDirectedPointIn</text>
</a>
</g>
</g>
<!-- Node5&#45;&gt;Node8 -->
<g id="edge7_Node000005_Node000008" class="edge">
<title>Node5&#45;&gt;Node8</title>
<g id="a_edge7_Node000005_Node000008"><a xlink:title=" ">
<path fill="none" stroke="#63b8ff" d="M490.79,-343.3C502.81,-334.41 516.35,-322.42 525,-308.66 558.5,-255.36 519.27,-218.8 561,-171.66 562.81,-169.62 564.8,-167.75 566.93,-166.02"/>
<polygon fill="#63b8ff" stroke="#63b8ff" points="568.41,-168.58 574.75,-160.1 564.5,-162.77 568.41,-168.58"/>
</a>
</g>
</g>
<!-- Node14 -->
<g id="Node000014" class="node">
<title>Node14</title>
<g id="a_Node000014"><a xlink:href="../../df/d85/classcarla_1_1road_1_1Lane.html#ae1a5f15925f91fca2b5d759fb53901f3" target="_top" xlink:title=" ">
<polygon fill="white" stroke="#666666" points="672.25,-576.66 577.5,-576.66 577.5,-544.66 672.25,-544.66 672.25,-576.66"/>
<text text-anchor="start" x="585.5" y="-563.16" font-family="Helvetica,sans-Serif" font-size="10.00">carla::road::Lane::</text>
<text text-anchor="middle" x="624.88" y="-551.16" font-family="Helvetica,sans-Serif" font-size="10.00">GetId</text>
</a>
</g>
</g>
<!-- Node5&#45;&gt;Node14 -->
<g id="edge14_Node000005_Node000014" class="edge">
<title>Node5&#45;&gt;Node14</title>
<g id="a_edge14_Node000005_Node000014"><a xlink:title=" ">
<path fill="none" stroke="#63b8ff" d="M514.84,-375.69C518.61,-378.26 522.08,-381.23 525,-384.66 569.69,-437.22 515.86,-483.48 561,-535.66 563.09,-538.08 565.44,-540.26 567.98,-542.24"/>
<polygon fill="#63b8ff" stroke="#63b8ff" points="565.92,-545.71 576.22,-548.18 569.7,-539.82 565.92,-545.71"/>
</a>
</g>
</g>
<!-- Node15 -->
<g id="Node000015" class="node">
<title>Node15</title>
<g id="a_Node000015"><a xlink:href="../../df/d85/classcarla_1_1road_1_1Lane.html#a7670417c038fe0adc0b2df2cbc25e9e2" target="_top" xlink:title=" ">
<polygon fill="white" stroke="#666666" points="672.25,-526.66 577.5,-526.66 577.5,-494.66 672.25,-494.66 672.25,-526.66"/>
<text text-anchor="start" x="585.5" y="-513.16" font-family="Helvetica,sans-Serif" font-size="10.00">carla::road::Lane::</text>
<text text-anchor="middle" x="624.88" y="-501.16" font-family="Helvetica,sans-Serif" font-size="10.00">GetLaneSection</text>
</a>
</g>
</g>
<!-- Node5&#45;&gt;Node15 -->
<g id="edge15_Node000005_Node000015" class="edge">
<title>Node5&#45;&gt;Node15</title>
<g id="a_edge15_Node000005_Node000015"><a xlink:title=" ">
<path fill="none" stroke="#63b8ff" d="M514.45,-376.04C518.31,-378.53 521.9,-381.39 525,-384.66 557.79,-419.24 527.92,-451.36 561,-485.66 563.07,-487.81 565.35,-489.77 567.77,-491.57"/>
<polygon fill="#63b8ff" stroke="#63b8ff" points="565.74,-495.06 576.07,-497.4 569.45,-489.12 565.74,-495.06"/>
</a>
</g>
</g>
<!-- Node16 -->
<g id="Node000016" class="node">
<title>Node16</title>
<g id="a_Node000016"><a xlink:href="../../df/d85/classcarla_1_1road_1_1Lane.html#a04f454d98f499a700749b8aacc31cfc9" target="_top" xlink:title=" ">
<polygon fill="white" stroke="#666666" points="1005.38,-459.66 910.62,-459.66 910.62,-427.66 1005.38,-427.66 1005.38,-459.66"/>
<text text-anchor="start" x="918.62" y="-446.16" font-family="Helvetica,sans-Serif" font-size="10.00">carla::road::Lane::</text>
<text text-anchor="middle" x="958" y="-434.16" font-family="Helvetica,sans-Serif" font-size="10.00">GetRoad</text>
</a>
</g>
</g>
<!-- Node5&#45;&gt;Node16 -->
<g id="edge16_Node000005_Node000016" class="edge">
<title>Node5&#45;&gt;Node16</title>
<g id="a_edge16_Node000005_Node000016"><a xlink:title=" ">
<path fill="none" stroke="#63b8ff" d="M505.21,-376.12C528.8,-385.7 555.14,-396.19 561,-397.66 679.11,-427.38 821.96,-437.98 899.73,-441.7"/>
<polygon fill="#63b8ff" stroke="#63b8ff" points="899.11,-445.22 909.26,-442.18 899.43,-438.23 899.11,-445.22"/>
</a>
</g>
</g>
<!-- Node18 -->
<g id="Node000018" class="node">
<title>Node18</title>
<g id="a_Node000018"><a xlink:href="../../df/d85/classcarla_1_1road_1_1Lane.html#a2e63094ab14fe9b4ce21e3e08f8d5d24" target="_top" xlink:title=" ">
<polygon fill="white" stroke="#666666" points="672.25,-388.66 577.5,-388.66 577.5,-356.66 672.25,-356.66 672.25,-388.66"/>
<text text-anchor="start" x="585.5" y="-375.16" font-family="Helvetica,sans-Serif" font-size="10.00">carla::road::Lane::</text>
<text text-anchor="middle" x="624.88" y="-363.16" font-family="Helvetica,sans-Serif" font-size="10.00">GetType</text>
</a>
</g>
</g>
<!-- Node5&#45;&gt;Node18 -->
<g id="edge18_Node000005_Node000018" class="edge">
<title>Node5&#45;&gt;Node18</title>
<g id="a_edge18_Node000005_Node000018"><a xlink:title=" ">
<path fill="none" stroke="#63b8ff" d="M514.92,-363.74C531.25,-365.08 549.54,-366.57 566.4,-367.95"/>
<polygon fill="#63b8ff" stroke="#63b8ff" points="565.98,-371.51 576.23,-368.84 566.55,-364.54 565.98,-371.51"/>
</a>
</g>
</g>
<!-- Node19 -->
<g id="Node000019" class="node">
<title>Node19</title>
<g id="a_Node000019"><a xlink:href="../../df/d85/classcarla_1_1road_1_1Lane.html#a34da073c1da719b3455c4dd8f7b441c9" target="_top" xlink:title="Returns the total lane width given a s.">
<polygon fill="white" stroke="#666666" points="672.25,-476.66 577.5,-476.66 577.5,-444.66 672.25,-444.66 672.25,-476.66"/>
<text text-anchor="start" x="585.5" y="-463.16" font-family="Helvetica,sans-Serif" font-size="10.00">carla::road::Lane::</text>
<text text-anchor="middle" x="624.88" y="-451.16" font-family="Helvetica,sans-Serif" font-size="10.00">GetWidth</text>
</a>
</g>
</g>
<!-- Node5&#45;&gt;Node19 -->
<g id="edge19_Node000005_Node000019" class="edge">
<title>Node5&#45;&gt;Node19</title>
<g id="a_edge19_Node000005_Node000019"><a xlink:title=" ">
<path fill="none" stroke="#63b8ff" d="M511.27,-376.03C516.11,-378.58 520.79,-381.45 525,-384.66 545.65,-400.4 540.75,-414.42 561,-430.66 564.71,-433.64 568.76,-436.4 572.97,-438.96"/>
<polygon fill="#63b8ff" stroke="#63b8ff" points="570.9,-442.37 581.33,-444.21 574.32,-436.27 570.9,-442.37"/>
</a>
</g>
</g>
<!-- Node23 -->
<g id="Node000023" class="node">
<title>Node23</title>
<g id="a_Node000023"><a xlink:href="../../dd/de6/classcarla_1_1road_1_1Road.html#af59728d624635d195db846b08c1f32c7" target="_top" xlink:title=" ">
<polygon fill="white" stroke="#666666" points="673,-338.66 576.75,-338.66 576.75,-306.66 673,-306.66 673,-338.66"/>
<text text-anchor="start" x="584.75" y="-325.16" font-family="Helvetica,sans-Serif" font-size="10.00">carla::road::Road::</text>
<text text-anchor="middle" x="624.88" y="-313.16" font-family="Helvetica,sans-Serif" font-size="10.00">IsJunction</text>
</a>
</g>
</g>
<!-- Node5&#45;&gt;Node23 -->
<g id="edge25_Node000005_Node000023" class="edge">
<title>Node5&#45;&gt;Node23</title>
<g id="a_edge25_Node000005_Node000023"><a xlink:title=" ">
<path fill="none" stroke="#63b8ff" d="M514.92,-348.06C531.18,-344.26 549.38,-340.02 566.18,-336.11"/>
<polygon fill="#63b8ff" stroke="#63b8ff" points="566.48,-339.4 575.43,-333.72 564.89,-332.58 566.48,-339.4"/>
</a>
</g>
</g>
<!-- Node24 -->
<g id="Node000024" class="node">
<title>Node24</title>
<g id="a_Node000024"><a xlink:href="../../d9/d36/namespacecarla.html#a2dc539ffbcff452958f707dc7b0db4d6" target="_top" xlink:title=" ">
<polygon fill="white" stroke="#666666" points="676.75,-288.66 573,-288.66 573,-268.66 676.75,-268.66 676.75,-288.66"/>
<text text-anchor="middle" x="624.88" y="-275.16" font-family="Helvetica,sans-Serif" font-size="10.00">carla::MakeListView</text>
</a>
</g>
</g>
<!-- Node5&#45;&gt;Node24 -->
<g id="edge26_Node000005_Node000024" class="edge">
<title>Node5&#45;&gt;Node24</title>
<g id="a_edge26_Node000005_Node000024"><a xlink:title=" ">
<path fill="none" stroke="#63b8ff" d="M486.57,-343.28C505.36,-329.55 533.84,-310.24 561,-297.66 564.85,-295.88 568.9,-294.21 573.03,-292.67"/>
<polygon fill="#63b8ff" stroke="#63b8ff" points="574.04,-295.67 582.34,-289.08 571.74,-289.06 574.04,-295.67"/>
</a>
</g>
</g>
<!-- Node8&#45;&gt;Node6 -->
<g id="edge8_Node000008_Node000006" class="edge">
<title>Node8&#45;&gt;Node6</title>
<g id="a_edge8_Node000008_Node000006"><a xlink:title=" ">
<path fill="none" stroke="#63b8ff" d="M669.93,-163.07C676.32,-165.77 682.76,-168.67 688.75,-171.66 705.52,-180.04 708.32,-184.63 724.75,-193.66 728.71,-195.84 732.83,-198.03 737,-200.2"/>
<polygon fill="#63b8ff" stroke="#63b8ff" points="735.27,-203.76 745.76,-205.19 738.46,-197.52 735.27,-203.76"/>
</a>
</g>
</g>
<!-- Node9 -->
<g id="Node000009" class="node">
<title>Node9</title>
<g id="a_Node000009"><a xlink:href="../../d0/dea/classcarla_1_1geom_1_1Math.html#a8f8eccc1a2bcc711250f2b47a21eb31f" target="_top" xlink:title=" ">
<polygon fill="white" stroke="#666666" points="845.38,-134.66 744.62,-134.66 744.62,-102.66 845.38,-102.66 845.38,-134.66"/>
<text text-anchor="start" x="752.62" y="-121.16" font-family="Helvetica,sans-Serif" font-size="10.00">carla::geom::Math::</text>
<text text-anchor="middle" x="795" y="-109.16" font-family="Helvetica,sans-Serif" font-size="10.00">Clamp</text>
</a>
</g>
</g>
<!-- Node8&#45;&gt;Node9 -->
<g id="edge9_Node000008_Node000009" class="edge">
<title>Node8&#45;&gt;Node9</title>
<g id="a_edge9_Node000008_Node000009"><a xlink:title=" ">
<path fill="none" stroke="#63b8ff" d="M674.05,-138.64C692.64,-135.54 714.1,-131.97 733.69,-128.71"/>
<polygon fill="#63b8ff" stroke="#63b8ff" points="734.06,-132.02 743.35,-126.93 732.91,-125.12 734.06,-132.02"/>
</a>
</g>
</g>
<!-- Node11 -->
<g id="Node000011" class="node">
<title>Node11</title>
<g id="a_Node000011"><a xlink:href="../../dd/de6/classcarla_1_1road_1_1Road.html#a9e0bba29f5bc845d314126c30c46743e" target="_top" xlink:title=" ">
<polygon fill="white" stroke="#666666" points="843.12,-184.66 746.88,-184.66 746.88,-152.66 843.12,-152.66 843.12,-184.66"/>
<text text-anchor="start" x="754.88" y="-171.16" font-family="Helvetica,sans-Serif" font-size="10.00">carla::road::Road::</text>
<text text-anchor="middle" x="795" y="-159.16" font-family="Helvetica,sans-Serif" font-size="10.00">GetElevationOn</text>
</a>
</g>
</g>
<!-- Node8&#45;&gt;Node11 -->
<g id="edge11_Node000008_Node000011" class="edge">
<title>Node8&#45;&gt;Node11</title>
<g id="a_edge11_Node000008_Node000011"><a xlink:title=" ">
<path fill="none" stroke="#63b8ff" d="M674.05,-152.97C693.21,-155.47 715.43,-158.38 735.5,-161.01"/>
<polygon fill="#63b8ff" stroke="#63b8ff" points="735.03,-164.61 745.4,-162.43 735.94,-157.66 735.03,-164.61"/>
</a>
</g>
</g>
<!-- Node13 -->
<g id="Node000013" class="node">
<title>Node13</title>
<g id="a_Node000013"><a xlink:href="../../d4/d28/classcarla_1_1road_1_1InformationSet.html#a2c183586f8f7bfebf89339f1a3845e49" target="_top" xlink:title="Returns single info given a type and a distance (s) from the start of the road.">
<polygon fill="white" stroke="#666666" points="852.5,-78.66 737.5,-78.66 737.5,-46.66 852.5,-46.66 852.5,-78.66"/>
<text text-anchor="start" x="745.5" y="-65.16" font-family="Helvetica,sans-Serif" font-size="10.00">carla::road::Information</text>
<text text-anchor="middle" x="795" y="-53.16" font-family="Helvetica,sans-Serif" font-size="10.00">Set::GetInfo</text>
</a>
</g>
</g>
<!-- Node8&#45;&gt;Node13 -->
<g id="edge13_Node000008_Node000013" class="edge">
<title>Node8&#45;&gt;Node13</title>
<g id="a_edge13_Node000008_Node000013"><a xlink:title=" ">
<path fill="none" stroke="#63b8ff" d="M671.59,-130.27C677.49,-127.64 683.35,-124.75 688.75,-121.66 706.34,-111.59 707.37,-104.1 724.75,-93.66 730.53,-90.19 736.77,-86.87 743.05,-83.77"/>
<polygon fill="#63b8ff" stroke="#63b8ff" points="744.35,-86.55 751.89,-79.11 741.36,-80.23 744.35,-86.55"/>
</a>
</g>
</g>
<!-- Node10 -->
<g id="Node000010" class="node">
<title>Node10</title>
<g id="a_Node000010"><a xlink:href="../../d3/d33/Simplify_8h.html#a50798148e5016c5b85087d4009824f27" target="_top" xlink:title=" ">
<polygon fill="white" stroke="#666666" points="973.88,-128.66 942.12,-128.66 942.12,-108.66 973.88,-108.66 973.88,-128.66"/>
<text text-anchor="middle" x="958" y="-115.16" font-family="Helvetica,sans-Serif" font-size="10.00">min</text>
</a>
</g>
</g>
<!-- Node9&#45;&gt;Node10 -->
<g id="edge10_Node000009_Node000010" class="edge">
<title>Node9&#45;&gt;Node10</title>
<g id="a_edge10_Node000009_Node000010"><a xlink:title=" ">
<path fill="none" stroke="#63b8ff" d="M845.62,-118.66C873.79,-118.66 907.9,-118.66 930.89,-118.66"/>
<polygon fill="#63b8ff" stroke="#63b8ff" points="930.81,-122.16 940.81,-118.66 930.81,-115.16 930.81,-122.16"/>
</a>
</g>
</g>
<!-- Node12 -->
<g id="Node000012" class="node">
<title>Node12</title>
<g id="a_Node000012"><a xlink:href="../../d9/d36/namespacecarla.html#a23602ab663165210a7757d6108f6b3cd" target="_top" xlink:title=" ">
<polygon fill="white" stroke="#666666" points="1014.75,-178.66 901.25,-178.66 901.25,-158.66 1014.75,-158.66 1014.75,-178.66"/>
<text text-anchor="middle" x="958" y="-165.16" font-family="Helvetica,sans-Serif" font-size="10.00">carla::throw_exception</text>
</a>
</g>
</g>
<!-- Node11&#45;&gt;Node12 -->
<g id="edge12_Node000011_Node000012" class="edge">
<title>Node11&#45;&gt;Node12</title>
<g id="a_edge12_Node000011_Node000012"><a xlink:title=" ">
<path fill="none" stroke="#63b8ff" d="M843.43,-168.66C858.06,-168.66 874.44,-168.66 890.11,-168.66"/>
<polygon fill="#63b8ff" stroke="#63b8ff" points="889.82,-172.16 899.82,-168.66 889.82,-165.16 889.82,-172.16"/>
</a>
</g>
</g>
<!-- Node17 -->
<g id="Node000017" class="node">
<title>Node17</title>
<g id="a_Node000017"><a xlink:href="../../dd/d80/classcarla_1_1road_1_1LaneSection.html#a20f42f8a9aa46a316e50c2defaac1d55" target="_top" xlink:title=" ">
<polygon fill="white" stroke="#666666" points="1172.5,-311.66 1050.75,-311.66 1050.75,-279.66 1172.5,-279.66 1172.5,-311.66"/>
<text text-anchor="start" x="1058.75" y="-298.16" font-family="Helvetica,sans-Serif" font-size="10.00">carla::road::LaneSection</text>
<text text-anchor="middle" x="1111.62" y="-286.16" font-family="Helvetica,sans-Serif" font-size="10.00">::GetRoad</text>
</a>
</g>
</g>
<!-- Node16&#45;&gt;Node17 -->
<g id="edge17_Node000016_Node000017" class="edge">
<title>Node16&#45;&gt;Node17</title>
<g id="a_edge17_Node000016_Node000017"><a xlink:title=" ">
<path fill="none" stroke="#63b8ff" d="M975.81,-427.26C1002.56,-401.14 1054.97,-349.98 1085.98,-319.72"/>
<polygon fill="#63b8ff" stroke="#63b8ff" points="1088.03,-322.63 1092.74,-313.14 1083.14,-317.62 1088.03,-322.63"/>
</a>
</g>
</g>
<!-- Node19&#45;&gt;Node16 -->
<g id="edge24_Node000019_Node000016" class="edge">
<title>Node19&#45;&gt;Node16</title>
<g id="a_edge24_Node000019_Node000016"><a xlink:title=" ">
<path fill="none" stroke="#63b8ff" d="M672.61,-458.26C732.19,-455.2 835.14,-449.92 899.47,-446.62"/>
<polygon fill="#63b8ff" stroke="#63b8ff" points="899.42,-450.07 909.23,-446.06 899.06,-443.08 899.42,-450.07"/>
</a>
</g>
</g>
<!-- Node20 -->
<g id="Node000020" class="node">
<title>Node20</title>
<g id="a_Node000020"><a xlink:href="../../df/d85/classcarla_1_1road_1_1Lane.html#af158921fdf12a061967943ee2d645481" target="_top" xlink:title=" ">
<polygon fill="white" stroke="#666666" points="842.38,-514.66 747.62,-514.66 747.62,-482.66 842.38,-482.66 842.38,-514.66"/>
<text text-anchor="start" x="755.62" y="-501.16" font-family="Helvetica,sans-Serif" font-size="10.00">carla::road::Lane::</text>
<text text-anchor="middle" x="795" y="-489.16" font-family="Helvetica,sans-Serif" font-size="10.00">GetLength</text>
</a>
</g>
</g>
<!-- Node19&#45;&gt;Node20 -->
<g id="edge20_Node000019_Node000020" class="edge">
<title>Node19&#45;&gt;Node20</title>
<g id="a_edge20_Node000019_Node000020"><a xlink:title=" ">
<path fill="none" stroke="#63b8ff" d="M672.71,-471.25C692.48,-475.72 715.7,-480.96 736.5,-485.67"/>
<polygon fill="#63b8ff" stroke="#63b8ff" points="735.6,-489.28 746.13,-488.07 737.15,-482.45 735.6,-489.28"/>
</a>
</g>
</g>
<!-- Node20&#45;&gt;Node16 -->
<g id="edge23_Node000020_Node000016" class="edge">
<title>Node20&#45;&gt;Node16</title>
<g id="a_edge23_Node000020_Node000016"><a xlink:title=" ">
<path fill="none" stroke="#63b8ff" d="M842.57,-482.75C860.51,-476.62 881.21,-469.55 900.03,-463.12"/>
<polygon fill="#63b8ff" stroke="#63b8ff" points="900.93,-466.17 909.26,-459.63 898.66,-459.55 900.93,-466.17"/>
</a>
</g>
</g>
<!-- Node21 -->
<g id="Node000021" class="node">
<title>Node21</title>
<g id="a_Node000021"><a xlink:href="../../df/d85/classcarla_1_1road_1_1Lane.html#ae02c9441872377fc865c85339df51cbd" target="_top" xlink:title=" ">
<polygon fill="white" stroke="#666666" points="1005.38,-525.66 910.62,-525.66 910.62,-493.66 1005.38,-493.66 1005.38,-525.66"/>
<text text-anchor="start" x="918.62" y="-512.16" font-family="Helvetica,sans-Serif" font-size="10.00">carla::road::Lane::</text>
<text text-anchor="middle" x="958" y="-500.16" font-family="Helvetica,sans-Serif" font-size="10.00">GetDistance</text>
</a>
</g>
</g>
<!-- Node20&#45;&gt;Node21 -->
<g id="edge21_Node000020_Node000021" class="edge">
<title>Node20&#45;&gt;Node21</title>
<g id="a_edge21_Node000020_Node000021"><a xlink:title=" ">
<path fill="none" stroke="#63b8ff" d="M842.57,-501.84C860.35,-503.06 880.83,-504.46 899.5,-505.73"/>
<polygon fill="#63b8ff" stroke="#63b8ff" points="899.04,-509.28 909.26,-506.47 899.52,-502.29 899.04,-509.28"/>
</a>
</g>
</g>
<!-- Node21&#45;&gt;Node22 -->
<g id="edge22_Node000021_Node000022" class="edge">
<title>Node21&#45;&gt;Node22</title>
<g id="a_edge22_Node000021_Node000022"><a xlink:title=" ">
<path fill="none" stroke="#63b8ff" d="M1005.73,-526C1020.79,-531.26 1037.66,-537.16 1053.39,-542.65"/>
<polygon fill="#63b8ff" stroke="#63b8ff" points="1051.93,-546.2 1062.53,-546.2 1054.24,-539.59 1051.93,-546.2"/>
</a>
</g>
</g>
<!-- Node27 -->
<g id="Node000027" class="node">
<title>Node27</title>
<g id="a_Node000027"><a xlink:href="../../d9/dfe/classcarla_1_1geom_1_1Vector3D.html#a0bd1ef6e24532e950b455838ecd4f8cf" target="_top" xlink:title=" ">
<polygon fill="white" stroke="#666666" points="681.62,-112.66 568.12,-112.66 568.12,-80.66 681.62,-80.66 681.62,-112.66"/>
<text text-anchor="start" x="576.12" y="-99.16" font-family="Helvetica,sans-Serif" font-size="10.00">carla::geom::Vector3D</text>
<text text-anchor="middle" x="624.88" y="-87.16" font-family="Helvetica,sans-Serif" font-size="10.00">::SquaredLength</text>
</a>
</g>
</g>
<!-- Node26&#45;&gt;Node27 -->
<g id="edge29_Node000026_Node000027" class="edge">
<title>Node26&#45;&gt;Node27</title>
<g id="a_edge29_Node000026_Node000027"><a xlink:title=" ">
<path fill="none" stroke="#63b8ff" d="M479.78,-267.44C492.81,-252.45 511.8,-229.15 525,-206.66 545.77,-171.28 531.67,-150.35 561,-121.66 561.84,-120.84 562.71,-120.04 563.61,-119.27"/>
<polygon fill="#63b8ff" stroke="#63b8ff" points="565.24,-121.69 571.3,-113 561.14,-116.02 565.24,-121.69"/>
</a>
</g>
</g>
<!-- Node28&#45;&gt;Node13 -->
<g id="edge32_Node000028_Node000013" class="edge">
<title>Node28&#45;&gt;Node13</title>
<g id="a_edge32_Node000028_Node000013"><a xlink:title=" ">
<path fill="none" stroke="#63b8ff" d="M473.63,-165.23C487.82,-139.8 518.95,-91.78 561,-71.66 612.6,-46.97 678.23,-46.8 726.68,-51.6"/>
<polygon fill="#63b8ff" stroke="#63b8ff" points="726.04,-55.16 736.36,-52.76 726.8,-48.2 726.04,-55.16"/>
</a>
</g>
</g>
<!-- Node29&#45;&gt;Node17 -->
<g id="edge34_Node000029_Node000017" class="edge">
<title>Node29&#45;&gt;Node17</title>
<g id="a_edge34_Node000029_Node000017"><a xlink:title=" ">
<path fill="none" stroke="#63b8ff" d="M525.32,-15.26C637.64,4.06 879.95,27.06 1014.75,-99.66 1065.44,-147.31 1092.75,-227.47 1104.13,-268.97"/>
<polygon fill="#63b8ff" stroke="#63b8ff" points="1100.93,-269.58 1106.86,-278.35 1107.7,-267.79 1100.93,-269.58"/>
</a>
</g>
</g>
</g>
</svg>
