<?xml version="1.0" encoding="UTF-8" standalone="no"?>
<!DOCTYPE svg PUBLIC "-//W3C//DTD SVG 1.1//EN"
 "http://www.w3.org/Graphics/SVG/1.1/DTD/svg11.dtd">
<!-- Generated by graphviz version 8.1.0 (20230707.0739)
 -->
<!-- Title: carla::client::DebugHelper::DrawHUDArrow Pages: 1 -->
<svg width="760pt" height="78pt"
 viewBox="0.00 0.00 760.00 78.00" xmlns="http://www.w3.org/2000/svg" xmlns:xlink="http://www.w3.org/1999/xlink">
<g id="graph0" class="graph" transform="scale(1 1) rotate(0) translate(4 74)">
<title>carla::client::DebugHelper::DrawHUDArrow</title>
<!-- Node1 -->
<g id="Node000001" class="node">
<title>Node1</title>
<g id="a_Node000001"><a xlink:title=" ">
<polygon fill="#999999" stroke="#666666" points="127.75,-48 0,-48 0,-16 127.75,-16 127.75,-48"/>
<text text-anchor="start" x="8" y="-34.5" font-family="Helvetica,sans-Serif" font-size="10.00">carla::client::DebugHelper</text>
<text text-anchor="middle" x="63.88" y="-22.5" font-family="Helvetica,sans-Serif" font-size="10.00">::DrawHUDArrow</text>
</a>
</g>
</g>
<!-- Node2 -->
<g id="Node000002" class="node">
<title>Node2</title>
<g id="a_Node000002"><a xlink:href="../../d2/daf/namespacecarla_1_1client.html#ad6a9ef8264bd149ac81f419941ed3ffe" target="_top" xlink:title=" ">
<polygon fill="white" stroke="#666666" points="285.5,-42 163.75,-42 163.75,-22 285.5,-22 285.5,-42"/>
<text text-anchor="middle" x="224.62" y="-28.5" font-family="Helvetica,sans-Serif" font-size="10.00">carla::client::DrawShape</text>
</a>
</g>
</g>
<!-- Node1&#45;&gt;Node2 -->
<g id="edge1_Node000001_Node000002" class="edge">
<title>Node1&#45;&gt;Node2</title>
<g id="a_edge1_Node000001_Node000002"><a xlink:title=" ">
<path fill="none" stroke="#63b8ff" d="M128.07,-32C136.1,-32 144.35,-32 152.49,-32"/>
<polygon fill="#63b8ff" stroke="#63b8ff" points="152.49,-35.5 162.49,-32 152.49,-28.5 152.49,-35.5"/>
</a>
</g>
</g>
<!-- Node3 -->
<g id="Node000003" class="node">
<title>Node3</title>
<g id="a_Node000003"><a xlink:href="../../d1/dd3/classcarla_1_1client_1_1detail_1_1EpisodeProxyImpl.html#aaca857645fbeb6546b4a03a663bb65af" target="_top" xlink:title="Same as TryLock but never return nullptr.">
<polygon fill="white" stroke="#666666" points="449.25,-48 321.5,-48 321.5,-16 449.25,-16 449.25,-48"/>
<text text-anchor="start" x="329.5" y="-34.5" font-family="Helvetica,sans-Serif" font-size="10.00">carla::client::detail</text>
<text text-anchor="middle" x="385.38" y="-22.5" font-family="Helvetica,sans-Serif" font-size="10.00">::EpisodeProxyImpl::Lock</text>
</a>
</g>
</g>
<!-- Node2&#45;&gt;Node3 -->
<g id="edge2_Node000002_Node000003" class="edge">
<title>Node2&#45;&gt;Node3</title>
<g id="a_edge2_Node000002_Node000003"><a xlink:title=" ">
<path fill="none" stroke="#63b8ff" d="M285.64,-32C293.7,-32 302.04,-32 310.31,-32"/>
<polygon fill="#63b8ff" stroke="#63b8ff" points="310.1,-35.5 320.1,-32 310.1,-28.5 310.1,-35.5"/>
</a>
</g>
</g>
<!-- Node4 -->
<g id="Node000004" class="node">
<title>Node4</title>
<g id="a_Node000004"><a xlink:href="../../d8/dcd/namespacecarla_1_1client_1_1detail.html#aa47f72a521d97fe3574a56e808b509d8" target="_top" xlink:title=" ">
<polygon fill="white" stroke="#666666" points="589.75,-70 494.25,-70 494.25,-38 589.75,-38 589.75,-70"/>
<text text-anchor="start" x="502.25" y="-56.5" font-family="Helvetica,sans-Serif" font-size="10.00">carla::client::detail</text>
<text text-anchor="middle" x="542" y="-44.5" font-family="Helvetica,sans-Serif" font-size="10.00">::Load</text>
</a>
</g>
</g>
<!-- Node3&#45;&gt;Node4 -->
<g id="edge3_Node000003_Node000004" class="edge">
<title>Node3&#45;&gt;Node4</title>
<g id="a_edge3_Node000003_Node000004"><a xlink:title=" ">
<path fill="none" stroke="#63b8ff" d="M449.71,-41.01C460.85,-42.6 472.38,-44.24 483.35,-45.8"/>
<polygon fill="#63b8ff" stroke="#63b8ff" points="482.7,-49.38 493.09,-47.33 483.69,-42.45 482.7,-49.38"/>
</a>
</g>
</g>
<!-- Node6 -->
<g id="Node000006" class="node">
<title>Node6</title>
<g id="a_Node000006"><a xlink:href="../../d9/d36/namespacecarla.html#a23602ab663165210a7757d6108f6b3cd" target="_top" xlink:title=" ">
<polygon fill="white" stroke="#666666" points="598.75,-20 485.25,-20 485.25,0 598.75,0 598.75,-20"/>
<text text-anchor="middle" x="542" y="-6.5" font-family="Helvetica,sans-Serif" font-size="10.00">carla::throw_exception</text>
</a>
</g>
</g>
<!-- Node3&#45;&gt;Node6 -->
<g id="edge5_Node000003_Node000006" class="edge">
<title>Node3&#45;&gt;Node6</title>
<g id="a_edge5_Node000003_Node000006"><a xlink:title=" ">
<path fill="none" stroke="#63b8ff" d="M449.71,-22.99C457.83,-21.83 466.16,-20.65 474.33,-19.49"/>
<polygon fill="#63b8ff" stroke="#63b8ff" points="474.54,-22.85 483.95,-17.98 473.55,-15.92 474.54,-22.85"/>
</a>
</g>
</g>
<!-- Node5 -->
<g id="Node000005" class="node">
<title>Node5</title>
<g id="a_Node000005"><a xlink:href="../../d2/dcf/classcarla_1_1AtomicSharedPtr.html#a7bb0b8af178b36c923fedac384b3aad4" target="_top" xlink:title=" ">
<polygon fill="white" stroke="#666666" points="752,-70 634.75,-70 634.75,-38 752,-38 752,-70"/>
<text text-anchor="start" x="642.75" y="-56.5" font-family="Helvetica,sans-Serif" font-size="10.00">carla::AtomicSharedPtr</text>
<text text-anchor="middle" x="693.38" y="-44.5" font-family="Helvetica,sans-Serif" font-size="10.00">::load</text>
</a>
</g>
</g>
<!-- Node4&#45;&gt;Node5 -->
<g id="edge4_Node000004_Node000005" class="edge">
<title>Node4&#45;&gt;Node5</title>
<g id="a_edge4_Node000004_Node000005"><a xlink:title=" ">
<path fill="none" stroke="#63b8ff" d="M589.85,-54C600.55,-54 612.14,-54 623.54,-54"/>
<polygon fill="#63b8ff" stroke="#63b8ff" points="623.39,-57.5 633.39,-54 623.39,-50.5 623.39,-57.5"/>
</a>
</g>
</g>
</g>
</svg>
