<?xml version="1.0" encoding="UTF-8" standalone="no"?>
<!DOCTYPE svg PUBLIC "-//W3C//DTD SVG 1.1//EN"
 "http://www.w3.org/Graphics/SVG/1.1/DTD/svg11.dtd">
<!-- Generated by graphviz version 8.1.0 (20230707.0739)
 -->
<!-- Title: PrepareAssetsForCookingCommandlet.h Pages: 1 -->
<svg width="400pt" height="140pt"
 viewBox="0.00 0.00 399.62 140.00" xmlns="http://www.w3.org/2000/svg" xmlns:xlink="http://www.w3.org/1999/xlink">
<g id="graph0" class="graph" transform="scale(1 1) rotate(0) translate(4 136)">
<title>PrepareAssetsForCookingCommandlet.h</title>
<!-- Node1 -->
<g id="Node000001" class="node">
<title>Node1</title>
<g id="a_Node000001"><a xlink:title=" ">
<polygon fill="#999999" stroke="#666666" points="285.38,-132 92.38,-132 92.38,-112 285.38,-112 285.38,-132"/>
<text text-anchor="middle" x="188.88" y="-118.5" font-family="Helvetica,sans-Serif" font-size="10.00">PrepareAssetsForCookingCommandlet.h</text>
</a>
</g>
</g>
<!-- Node2 -->
<g id="Node000002" class="node">
<title>Node2</title>
<g id="a_Node000002"><a xlink:href="../../d9/d9c/LoadAssetMaterialsCommandlet_8h.html" target="_top" xlink:title=" ">
<polygon fill="white" stroke="#666666" points="170.5,-76 5.25,-76 5.25,-56 170.5,-56 170.5,-76"/>
<text text-anchor="middle" x="87.88" y="-62.5" font-family="Helvetica,sans-Serif" font-size="10.00">LoadAssetMaterialsCommandlet.h</text>
</a>
</g>
</g>
<!-- Node1&#45;&gt;Node2 -->
<g id="edge1_Node000001_Node000002" class="edge">
<title>Node1&#45;&gt;Node2</title>
<g id="a_edge1_Node000001_Node000002"><a xlink:title=" ">
<path fill="none" stroke="#63b8ff" d="M161.97,-106.61C144.12,-97.07 121.19,-84.81 105.61,-76.48"/>
<polygon fill="#63b8ff" stroke="#63b8ff" points="159.81,-109.97 170.28,-111.59 163.11,-103.79 159.81,-109.97"/>
</a>
</g>
</g>
<!-- Node4 -->
<g id="Node000004" class="node">
<title>Node4</title>
<g id="a_Node000004"><a xlink:href="../../d2/dee/PrepareAssetsForCookingCommandlet_8cpp.html" target="_top" xlink:title=" ">
<polygon fill="white" stroke="#666666" points="391.62,-76 188.12,-76 188.12,-56 391.62,-56 391.62,-76"/>
<text text-anchor="middle" x="289.88" y="-62.5" font-family="Helvetica,sans-Serif" font-size="10.00">PrepareAssetsForCookingCommandlet.cpp</text>
</a>
</g>
</g>
<!-- Node1&#45;&gt;Node4 -->
<g id="edge3_Node000001_Node000004" class="edge">
<title>Node1&#45;&gt;Node4</title>
<g id="a_edge3_Node000001_Node000004"><a xlink:title=" ">
<path fill="none" stroke="#63b8ff" d="M215.78,-106.61C233.63,-97.07 256.56,-84.81 272.14,-76.48"/>
<polygon fill="#63b8ff" stroke="#63b8ff" points="214.64,-103.79 207.47,-111.59 217.94,-109.97 214.64,-103.79"/>
</a>
</g>
</g>
<!-- Node3 -->
<g id="Node000003" class="node">
<title>Node3</title>
<g id="a_Node000003"><a xlink:href="../../d6/d17/LoadAssetMaterialsCommandlet_8cpp.html" target="_top" xlink:title=" ">
<polygon fill="white" stroke="#666666" points="175.75,-20 0,-20 0,0 175.75,0 175.75,-20"/>
<text text-anchor="middle" x="87.88" y="-6.5" font-family="Helvetica,sans-Serif" font-size="10.00">LoadAssetMaterialsCommandlet.cpp</text>
</a>
</g>
</g>
<!-- Node2&#45;&gt;Node3 -->
<g id="edge2_Node000002_Node000003" class="edge">
<title>Node2&#45;&gt;Node3</title>
<g id="a_edge2_Node000002_Node000003"><a xlink:title=" ">
<path fill="none" stroke="#63b8ff" d="M87.88,-44.71C87.88,-36.32 87.88,-27.01 87.88,-20.3"/>
<polygon fill="#63b8ff" stroke="#63b8ff" points="84.38,-44.59 87.88,-54.59 91.38,-44.59 84.38,-44.59"/>
</a>
</g>
</g>
</g>
</svg>
