<?xml version="1.0" encoding="UTF-8" standalone="no"?>
<!DOCTYPE svg PUBLIC "-//W3C//DTD SVG 1.1//EN"
 "http://www.w3.org/Graphics/SVG/1.1/DTD/svg11.dtd">
<!-- Generated by graphviz version 8.1.0 (20230707.0739)
 -->
<!-- Title: RoadInfoLaneOffset.h Pages: 1 -->
<svg width="313pt" height="84pt"
 viewBox="0.00 0.00 312.50 84.00" xmlns="http://www.w3.org/2000/svg" xmlns:xlink="http://www.w3.org/1999/xlink">
<g id="graph0" class="graph" transform="scale(1 1) rotate(0) translate(4 80)">
<title>RoadInfoLaneOffset.h</title>
<!-- Node1 -->
<g id="Node000001" class="node">
<title>Node1</title>
<g id="a_Node000001"><a xlink:title=" ">
<polygon fill="#999999" stroke="#666666" points="198,-76 89.75,-76 89.75,-56 198,-56 198,-76"/>
<text text-anchor="middle" x="143.88" y="-62.5" font-family="Helvetica,sans-Serif" font-size="10.00">RoadInfoLaneOffset.h</text>
</a>
</g>
</g>
<!-- Node2 -->
<g id="Node000002" class="node">
<title>Node2</title>
<g id="a_Node000002"><a xlink:href="../../dc/d13/Lane_8cpp.html" target="_top" xlink:title=" ">
<polygon fill="white" stroke="#666666" points="55.75,-20 0,-20 0,0 55.75,0 55.75,-20"/>
<text text-anchor="middle" x="27.88" y="-6.5" font-family="Helvetica,sans-Serif" font-size="10.00">Lane.cpp</text>
</a>
</g>
</g>
<!-- Node1&#45;&gt;Node2 -->
<g id="edge1_Node000001_Node000002" class="edge">
<title>Node1&#45;&gt;Node2</title>
<g id="a_edge1_Node000001_Node000002"><a xlink:title=" ">
<path fill="none" stroke="#63b8ff" d="M113.82,-51.01C93.2,-41.41 66.39,-28.93 48.24,-20.48"/>
<polygon fill="#63b8ff" stroke="#63b8ff" points="112.13,-54.55 122.67,-55.59 115.08,-48.2 112.13,-54.55"/>
</a>
</g>
</g>
<!-- Node3 -->
<g id="Node000003" class="node">
<title>Node3</title>
<g id="a_Node000003"><a xlink:href="../../d9/d5a/road_2Map_8cpp.html" target="_top" xlink:title=" ">
<polygon fill="white" stroke="#666666" points="127.62,-20 74.12,-20 74.12,0 127.62,0 127.62,-20"/>
<text text-anchor="middle" x="100.88" y="-6.5" font-family="Helvetica,sans-Serif" font-size="10.00">Map.cpp</text>
</a>
</g>
</g>
<!-- Node1&#45;&gt;Node3 -->
<g id="edge2_Node000001_Node000003" class="edge">
<title>Node1&#45;&gt;Node3</title>
<g id="a_edge2_Node000001_Node000003"><a xlink:title=" ">
<path fill="none" stroke="#63b8ff" d="M129.54,-47C122.42,-38.06 114.11,-27.62 108.28,-20.3"/>
<polygon fill="#63b8ff" stroke="#63b8ff" points="127.42,-48.95 136.38,-54.59 132.89,-44.59 127.42,-48.95"/>
</a>
</g>
</g>
<!-- Node4 -->
<g id="Node000004" class="node">
<title>Node4</title>
<g id="a_Node000004"><a xlink:href="../../df/da9/MapBuilder_8cpp.html" target="_top" xlink:title=" ">
<polygon fill="white" stroke="#666666" points="229.62,-20 146.12,-20 146.12,0 229.62,0 229.62,-20"/>
<text text-anchor="middle" x="187.88" y="-6.5" font-family="Helvetica,sans-Serif" font-size="10.00">MapBuilder.cpp</text>
</a>
</g>
</g>
<!-- Node1&#45;&gt;Node4 -->
<g id="edge3_Node000001_Node000004" class="edge">
<title>Node1&#45;&gt;Node4</title>
<g id="a_edge3_Node000001_Node000004"><a xlink:title=" ">
<path fill="none" stroke="#63b8ff" d="M158.31,-47.29C165.65,-38.28 174.27,-27.7 180.3,-20.3"/>
<polygon fill="#63b8ff" stroke="#63b8ff" points="155.14,-44.63 151.54,-54.59 160.57,-49.05 155.14,-44.63"/>
</a>
</g>
</g>
<!-- Node5 -->
<g id="Node000005" class="node">
<title>Node5</title>
<g id="a_Node000005"><a xlink:href="../../dc/d2f/Road_8cpp.html" target="_top" xlink:title=" ">
<polygon fill="white" stroke="#666666" points="304.5,-20 247.25,-20 247.25,0 304.5,0 304.5,-20"/>
<text text-anchor="middle" x="275.88" y="-6.5" font-family="Helvetica,sans-Serif" font-size="10.00">Road.cpp</text>
</a>
</g>
</g>
<!-- Node1&#45;&gt;Node5 -->
<g id="edge4_Node000001_Node000005" class="edge">
<title>Node1&#45;&gt;Node5</title>
<g id="a_edge4_Node000001_Node000005"><a xlink:title=" ">
<path fill="none" stroke="#63b8ff" d="M176.8,-51.53C200.42,-41.87 231.67,-29.08 252.7,-20.48"/>
<polygon fill="#63b8ff" stroke="#63b8ff" points="175.8,-48.57 167.87,-55.59 178.45,-55.05 175.8,-48.57"/>
</a>
</g>
</g>
</g>
</svg>
