<?xml version="1.0" encoding="UTF-8" standalone="no"?>
<!DOCTYPE svg PUBLIC "-//W3C//DTD SVG 1.1//EN"
 "http://www.w3.org/Graphics/SVG/1.1/DTD/svg11.dtd">
<!-- Generated by graphviz version 8.1.0 (20230707.0739)
 -->
<!-- Title: VehiclePhysicsControl.h Pages: 1 -->
<svg width="1267pt" height="432pt"
 viewBox="0.00 0.00 1267.25 432.00" xmlns="http://www.w3.org/2000/svg" xmlns:xlink="http://www.w3.org/1999/xlink">
<g id="graph0" class="graph" transform="scale(1 1) rotate(0) translate(4 428)">
<title>VehiclePhysicsControl.h</title>
<!-- Node1 -->
<g id="Node000001" class="node">
<title>Node1</title>
<g id="a_Node000001"><a xlink:title=" ">
<polygon fill="#999999" stroke="#666666" points="855.62,-424 733.12,-424 733.12,-404 855.62,-404 855.62,-424"/>
<text text-anchor="middle" x="794.38" y="-410.5" font-family="Helvetica,sans-Serif" font-size="10.00">VehiclePhysicsControl.h</text>
</a>
</g>
</g>
<!-- Node2 -->
<g id="Node000002" class="node">
<title>Node2</title>
<g id="a_Node000002"><a xlink:href="../../d9/d6f/MsgPack_8h.html" target="_top" xlink:title=" ">
<polygon fill="white" stroke="#666666" points="517.12,-188 427.62,-188 427.62,-168 517.12,-168 517.12,-188"/>
<text text-anchor="middle" x="472.38" y="-174.5" font-family="Helvetica,sans-Serif" font-size="10.00">carla/MsgPack.h</text>
</a>
</g>
</g>
<!-- Node1&#45;&gt;Node2 -->
<g id="edge1_Node000001_Node000002" class="edge">
<title>Node1&#45;&gt;Node2</title>
<g id="a_edge1_Node000001_Node000002"><a xlink:title=" ">
<path fill="none" stroke="#63b8ff" d="M732.79,-413.32C584.57,-412.63 214.64,-401.77 139.38,-312 112.92,-280.44 134.86,-247.93 168.38,-224 207.12,-196.34 339.6,-185.37 416.28,-181.27"/>
<polygon fill="#63b8ff" stroke="#63b8ff" points="416.36,-184.72 426.17,-180.71 416.01,-177.73 416.36,-184.72"/>
</a>
</g>
</g>
<!-- Node17 -->
<g id="Node000017" class="node">
<title>Node17</title>
<g id="a_Node000017"><a xlink:href="../../d9/d8b/geom_2Location_8h.html" target="_top" xlink:title=" ">
<polygon fill="white" stroke="#666666" points="640.38,-368 528.38,-368 528.38,-348 640.38,-348 640.38,-368"/>
<text text-anchor="middle" x="584.38" y="-354.5" font-family="Helvetica,sans-Serif" font-size="10.00">carla/geom/Location.h</text>
</a>
</g>
</g>
<!-- Node1&#45;&gt;Node17 -->
<g id="edge17_Node000001_Node000017" class="edge">
<title>Node1&#45;&gt;Node17</title>
<g id="a_edge17_Node000001_Node000017"><a xlink:title=" ">
<path fill="none" stroke="#63b8ff" d="M757.8,-403.59C722.78,-394.59 669.78,-380.96 631.59,-371.14"/>
<polygon fill="#63b8ff" stroke="#63b8ff" points="632.8,-367.58 622.24,-368.48 631.05,-374.36 632.8,-367.58"/>
</a>
</g>
</g>
<!-- Node30 -->
<g id="Node000030" class="node">
<title>Node30</title>
<g id="a_Node000030"><a xlink:href="../../d7/d26/geom_2Vector2D_8h.html" target="_top" xlink:title=" ">
<polygon fill="white" stroke="#666666" points="803.25,-244 687.5,-244 687.5,-224 803.25,-224 803.25,-244"/>
<text text-anchor="middle" x="745.38" y="-230.5" font-family="Helvetica,sans-Serif" font-size="10.00">carla/geom/Vector2D.h</text>
</a>
</g>
</g>
<!-- Node1&#45;&gt;Node30 -->
<g id="edge39_Node000001_Node000030" class="edge">
<title>Node1&#45;&gt;Node30</title>
<g id="a_edge39_Node000001_Node000030"><a xlink:title=" ">
<path fill="none" stroke="#63b8ff" d="M829.66,-403.6C847.77,-396.83 868.29,-385.69 879.38,-368 900.15,-334.85 904.28,-311.71 881.38,-280 865.83,-258.48 839.6,-247.08 814.3,-241.11"/>
<polygon fill="#63b8ff" stroke="#63b8ff" points="815.05,-237.48 804.55,-238.87 813.62,-244.33 815.05,-237.48"/>
</a>
</g>
</g>
<!-- Node31 -->
<g id="Node000031" class="node">
<title>Node31</title>
<g id="a_Node000031"><a xlink:href="../../d1/d8e/GearPhysicsControl_8h.html" target="_top" xlink:title=" ">
<polygon fill="white" stroke="#666666" points="870.25,-368 718.5,-368 718.5,-348 870.25,-348 870.25,-368"/>
<text text-anchor="middle" x="794.38" y="-354.5" font-family="Helvetica,sans-Serif" font-size="10.00">carla/rpc/GearPhysicsControl.h</text>
</a>
</g>
</g>
<!-- Node1&#45;&gt;Node31 -->
<g id="edge43_Node000001_Node000031" class="edge">
<title>Node1&#45;&gt;Node31</title>
<g id="a_edge43_Node000001_Node000031"><a xlink:title=" ">
<path fill="none" stroke="#63b8ff" d="M794.38,-403.59C794.38,-396.86 794.38,-387.53 794.38,-379.15"/>
<polygon fill="#63b8ff" stroke="#63b8ff" points="797.88,-379.3 794.38,-369.3 790.88,-379.3 797.88,-379.3"/>
</a>
</g>
</g>
<!-- Node36 -->
<g id="Node000036" class="node">
<title>Node36</title>
<g id="a_Node000036"><a xlink:href="../../df/d2b/LibCarla_2source_2carla_2rpc_2WheelPhysicsControl_8h.html" target="_top" xlink:title=" ">
<polygon fill="white" stroke="#666666" points="422.62,-306 264.12,-306 264.12,-286 422.62,-286 422.62,-306"/>
<text text-anchor="middle" x="343.38" y="-292.5" font-family="Helvetica,sans-Serif" font-size="10.00">carla/rpc/WheelPhysicsControl.h</text>
</a>
</g>
</g>
<!-- Node1&#45;&gt;Node36 -->
<g id="edge51_Node000001_Node000036" class="edge">
<title>Node1&#45;&gt;Node36</title>
<g id="a_edge51_Node000001_Node000036"><a xlink:title=" ">
<path fill="none" stroke="#63b8ff" d="M732.64,-406.85C676.34,-400.32 591.24,-388.11 519.38,-368 466.03,-353.08 406.85,-327.14 372.5,-311.08"/>
<polygon fill="#63b8ff" stroke="#63b8ff" points="374.21,-307.55 363.68,-306.44 371.22,-313.88 374.21,-307.55"/>
</a>
</g>
</g>
<!-- Node37 -->
<g id="Node000037" class="node">
<title>Node37</title>
<g id="a_Node000037"><a xlink:title=" ">
<polygon fill="#e0e0e0" stroke="#999999" points="973.38,-368 933.38,-368 933.38,-348 973.38,-348 973.38,-368"/>
<text text-anchor="middle" x="953.38" y="-354.5" font-family="Helvetica,sans-Serif" font-size="10.00">string</text>
</a>
</g>
</g>
<!-- Node1&#45;&gt;Node37 -->
<g id="edge54_Node000001_Node000037" class="edge">
<title>Node1&#45;&gt;Node37</title>
<g id="a_edge54_Node000001_Node000037"><a xlink:title=" ">
<path fill="none" stroke="#63b8ff" d="M822.07,-403.59C850.16,-394.06 893.52,-379.33 922.65,-369.43"/>
<polygon fill="#63b8ff" stroke="#63b8ff" points="923.71,-372.43 932.06,-365.9 921.46,-365.8 923.71,-372.43"/>
</a>
</g>
</g>
<!-- Node38 -->
<g id="Node000038" class="node">
<title>Node38</title>
<g id="a_Node000038"><a xlink:title=" ">
<polygon fill="#e0e0e0" stroke="#999999" points="1033.12,-368 991.62,-368 991.62,-348 1033.12,-348 1033.12,-368"/>
<text text-anchor="middle" x="1012.38" y="-354.5" font-family="Helvetica,sans-Serif" font-size="10.00">vector</text>
</a>
</g>
</g>
<!-- Node1&#45;&gt;Node38 -->
<g id="edge55_Node000001_Node000038" class="edge">
<title>Node1&#45;&gt;Node38</title>
<g id="a_edge55_Node000001_Node000038"><a xlink:title=" ">
<path fill="none" stroke="#63b8ff" d="M836.73,-403.58C872.71,-395.42 925.94,-382.97 981.12,-368.23"/>
<polygon fill="#63b8ff" stroke="#63b8ff" points="981.69,-371.43 990.44,-365.45 979.87,-364.67 981.69,-371.43"/>
</a>
</g>
</g>
<!-- Node3 -->
<g id="Node000003" class="node">
<title>Node3</title>
<g id="a_Node000003"><a xlink:href="../../d2/dda/carla_2Buffer_8h.html" target="_top" xlink:title=" ">
<polygon fill="white" stroke="#666666" points="370.88,-132 297.88,-132 297.88,-112 370.88,-112 370.88,-132"/>
<text text-anchor="middle" x="334.38" y="-118.5" font-family="Helvetica,sans-Serif" font-size="10.00">carla/Buffer.h</text>
</a>
</g>
</g>
<!-- Node2&#45;&gt;Node3 -->
<g id="edge2_Node000002_Node000003" class="edge">
<title>Node2&#45;&gt;Node3</title>
<g id="a_edge2_Node000002_Node000003"><a xlink:title=" ">
<path fill="none" stroke="#63b8ff" d="M448.34,-167.59C426.31,-158.97 393.45,-146.12 368.67,-136.42"/>
<polygon fill="#63b8ff" stroke="#63b8ff" points="370.19,-132.86 359.6,-132.48 367.64,-139.38 370.19,-132.86"/>
</a>
</g>
</g>
<!-- Node16 -->
<g id="Node000016" class="node">
<title>Node16</title>
<g id="a_Node000016"><a xlink:title=" ">
<polygon fill="#e0e0e0" stroke="#999999" points="518.88,-132 427.88,-132 427.88,-112 518.88,-112 518.88,-132"/>
<text text-anchor="middle" x="473.38" y="-118.5" font-family="Helvetica,sans-Serif" font-size="10.00">rpc/msgpack.hpp</text>
</a>
</g>
</g>
<!-- Node2&#45;&gt;Node16 -->
<g id="edge16_Node000002_Node000016" class="edge">
<title>Node2&#45;&gt;Node16</title>
<g id="a_edge16_Node000002_Node000016"><a xlink:title=" ">
<path fill="none" stroke="#63b8ff" d="M472.55,-167.59C472.67,-160.86 472.85,-151.53 473,-143.15"/>
<polygon fill="#63b8ff" stroke="#63b8ff" points="476.52,-143.36 473.2,-133.3 469.52,-143.23 476.52,-143.36"/>
</a>
</g>
</g>
<!-- Node4 -->
<g id="Node000004" class="node">
<title>Node4</title>
<g id="a_Node000004"><a xlink:href="../../d4/deb/Debug_8h.html" target="_top" xlink:title=" ">
<polygon fill="white" stroke="#666666" points="170.38,-76 94.38,-76 94.38,-56 170.38,-56 170.38,-76"/>
<text text-anchor="middle" x="132.38" y="-62.5" font-family="Helvetica,sans-Serif" font-size="10.00">carla/Debug.h</text>
</a>
</g>
</g>
<!-- Node3&#45;&gt;Node4 -->
<g id="edge3_Node000003_Node000004" class="edge">
<title>Node3&#45;&gt;Node4</title>
<g id="a_edge3_Node000003_Node000004"><a xlink:title=" ">
<path fill="none" stroke="#63b8ff" d="M299.19,-111.59C265.65,-102.63 214.96,-89.08 178.26,-79.27"/>
<polygon fill="#63b8ff" stroke="#63b8ff" points="179.4,-75.68 168.84,-76.48 177.59,-82.44 179.4,-75.68"/>
</a>
</g>
</g>
<!-- Node5 -->
<g id="Node000005" class="node">
<title>Node5</title>
<g id="a_Node000005"><a xlink:href="../../d8/d8a/Exception_8h.html" target="_top" xlink:title=" ">
<polygon fill="white" stroke="#666666" points="235.25,-20 143.5,-20 143.5,0 235.25,0 235.25,-20"/>
<text text-anchor="middle" x="189.38" y="-6.5" font-family="Helvetica,sans-Serif" font-size="10.00">carla/Exception.h</text>
</a>
</g>
</g>
<!-- Node3&#45;&gt;Node5 -->
<g id="edge7_Node000003_Node000005" class="edge">
<title>Node3&#45;&gt;Node5</title>
<g id="a_edge7_Node000003_Node000005"><a xlink:title=" ">
<path fill="none" stroke="#63b8ff" d="M297.46,-113.83C273.06,-107.46 241.76,-95.96 220.38,-76 207.25,-63.75 199.09,-44.79 194.46,-30.5"/>
<polygon fill="#63b8ff" stroke="#63b8ff" points="197.64,-29.88 191.48,-21.26 190.92,-31.84 197.64,-29.88"/>
</a>
</g>
</g>
<!-- Node8 -->
<g id="Node000008" class="node">
<title>Node8</title>
<g id="a_Node000008"><a xlink:href="../../de/d87/Logging_8h.html" target="_top" xlink:title=" ">
<polygon fill="white" stroke="#666666" points="311.38,-76 229.38,-76 229.38,-56 311.38,-56 311.38,-76"/>
<text text-anchor="middle" x="270.38" y="-62.5" font-family="Helvetica,sans-Serif" font-size="10.00">carla/Logging.h</text>
</a>
</g>
</g>
<!-- Node3&#45;&gt;Node8 -->
<g id="edge8_Node000003_Node000008" class="edge">
<title>Node3&#45;&gt;Node8</title>
<g id="a_edge8_Node000003_Node000008"><a xlink:title=" ">
<path fill="none" stroke="#63b8ff" d="M323.23,-111.59C313.96,-103.77 300.56,-92.46 289.57,-83.19"/>
<polygon fill="#63b8ff" stroke="#63b8ff" points="292.3,-80.07 282.4,-76.3 287.78,-85.42 292.3,-80.07"/>
</a>
</g>
</g>
<!-- Node11 -->
<g id="Node000011" class="node">
<title>Node11</title>
<g id="a_Node000011"><a xlink:title=" ">
<polygon fill="#e0e0e0" stroke="#999999" points="435.38,-76 329.38,-76 329.38,-56 435.38,-56 435.38,-76"/>
<text text-anchor="middle" x="382.38" y="-62.5" font-family="Helvetica,sans-Serif" font-size="10.00">boost/asio/buffer.hpp</text>
</a>
</g>
</g>
<!-- Node3&#45;&gt;Node11 -->
<g id="edge11_Node000003_Node000011" class="edge">
<title>Node3&#45;&gt;Node11</title>
<g id="a_edge11_Node000003_Node000011"><a xlink:title=" ">
<path fill="none" stroke="#63b8ff" d="M342.74,-111.59C349.41,-104.08 358.95,-93.35 366.99,-84.3"/>
<polygon fill="#63b8ff" stroke="#63b8ff" points="369.08,-87.1 373.11,-77.3 363.85,-82.45 369.08,-87.1"/>
</a>
</g>
</g>
<!-- Node12 -->
<g id="Node000012" class="node">
<title>Node12</title>
<g id="a_Node000012"><a xlink:title=" ">
<polygon fill="#e0e0e0" stroke="#999999" points="499,-76 453.75,-76 453.75,-56 499,-56 499,-76"/>
<text text-anchor="middle" x="476.38" y="-62.5" font-family="Helvetica,sans-Serif" font-size="10.00">cstdint</text>
</a>
</g>
</g>
<!-- Node3&#45;&gt;Node12 -->
<g id="edge12_Node000003_Node000012" class="edge">
<title>Node3&#45;&gt;Node12</title>
<g id="a_edge12_Node000003_Node000012"><a xlink:title=" ">
<path fill="none" stroke="#63b8ff" d="M359.11,-111.59C382.44,-102.72 417.56,-89.37 443.29,-79.58"/>
<polygon fill="#63b8ff" stroke="#63b8ff" points="444.23,-82.59 452.33,-75.76 441.74,-76.05 444.23,-82.59"/>
</a>
</g>
</g>
<!-- Node13 -->
<g id="Node000013" class="node">
<title>Node13</title>
<g id="a_Node000013"><a xlink:title=" ">
<polygon fill="#e0e0e0" stroke="#999999" points="626,-76 586.75,-76 586.75,-56 626,-56 626,-76"/>
<text text-anchor="middle" x="606.38" y="-62.5" font-family="Helvetica,sans-Serif" font-size="10.00">limits</text>
</a>
</g>
</g>
<!-- Node3&#45;&gt;Node13 -->
<g id="edge13_Node000003_Node000013" class="edge">
<title>Node3&#45;&gt;Node13</title>
<g id="a_edge13_Node000003_Node000013"><a xlink:title=" ">
<path fill="none" stroke="#63b8ff" d="M371.05,-114.45C428.07,-104.24 534.99,-84.96 576.01,-75.95"/>
<polygon fill="#63b8ff" stroke="#63b8ff" points="576.55,-79.19 585.49,-73.51 574.96,-72.37 576.55,-79.19"/>
</a>
</g>
</g>
<!-- Node14 -->
<g id="Node000014" class="node">
<title>Node14</title>
<g id="a_Node000014"><a xlink:title=" ">
<polygon fill="#e0e0e0" stroke="#999999" points="568,-76 516.75,-76 516.75,-56 568,-56 568,-76"/>
<text text-anchor="middle" x="542.38" y="-62.5" font-family="Helvetica,sans-Serif" font-size="10.00">memory</text>
</a>
</g>
</g>
<!-- Node3&#45;&gt;Node14 -->
<g id="edge14_Node000003_Node000014" class="edge">
<title>Node3&#45;&gt;Node14</title>
<g id="a_edge14_Node000003_Node000014"><a xlink:title=" ">
<path fill="none" stroke="#63b8ff" d="M371.05,-111.58C404.07,-103.08 454.22,-90.15 506.01,-76.61"/>
<polygon fill="#63b8ff" stroke="#63b8ff" points="506.6,-79.81 515.39,-73.89 504.83,-73.04 506.6,-79.81"/>
</a>
</g>
</g>
<!-- Node15 -->
<g id="Node000015" class="node">
<title>Node15</title>
<g id="a_Node000015"><a xlink:title=" ">
<polygon fill="#e0e0e0" stroke="#999999" points="76.25,-76 14.5,-76 14.5,-56 76.25,-56 76.25,-76"/>
<text text-anchor="middle" x="45.38" y="-62.5" font-family="Helvetica,sans-Serif" font-size="10.00">type_traits</text>
</a>
</g>
</g>
<!-- Node3&#45;&gt;Node15 -->
<g id="edge15_Node000003_Node000015" class="edge">
<title>Node3&#45;&gt;Node15</title>
<g id="a_edge15_Node000003_Node000015"><a xlink:title=" ">
<path fill="none" stroke="#63b8ff" d="M297.58,-114.85C250.9,-106.95 167.69,-92.48 86.73,-76.21"/>
<polygon fill="#63b8ff" stroke="#63b8ff" points="87.85,-72.66 77.36,-74.11 86.46,-79.52 87.85,-72.66"/>
</a>
</g>
</g>
<!-- Node4&#45;&gt;Node5 -->
<g id="edge4_Node000004_Node000005" class="edge">
<title>Node4&#45;&gt;Node5</title>
<g id="a_edge4_Node000004_Node000005"><a xlink:title=" ">
<path fill="none" stroke="#63b8ff" d="M142.3,-55.59C150.4,-47.93 162.02,-36.91 171.7,-27.75"/>
<polygon fill="#63b8ff" stroke="#63b8ff" points="173.71,-30.72 178.56,-21.3 168.89,-25.63 173.71,-30.72"/>
</a>
</g>
</g>
<!-- Node6 -->
<g id="Node000006" class="node">
<title>Node6</title>
<g id="a_Node000006"><a xlink:title=" ">
<polygon fill="#e0e0e0" stroke="#999999" points="58.75,-20 0,-20 0,0 58.75,0 58.75,-20"/>
<text text-anchor="middle" x="29.38" y="-6.5" font-family="Helvetica,sans-Serif" font-size="10.00">stdexcept</text>
</a>
</g>
</g>
<!-- Node4&#45;&gt;Node6 -->
<g id="edge5_Node000004_Node000006" class="edge">
<title>Node4&#45;&gt;Node6</title>
<g id="a_edge5_Node000004_Node000006"><a xlink:title=" ">
<path fill="none" stroke="#63b8ff" d="M114.43,-55.59C98.58,-47.28 75.21,-35.03 56.98,-25.47"/>
<polygon fill="#63b8ff" stroke="#63b8ff" points="58.94,-22.02 48.46,-20.48 55.69,-28.22 58.94,-22.02"/>
</a>
</g>
</g>
<!-- Node7 -->
<g id="Node000007" class="node">
<title>Node7</title>
<g id="a_Node000007"><a xlink:title=" ">
<polygon fill="#e0e0e0" stroke="#999999" points="125.5,-20 77.25,-20 77.25,0 125.5,0 125.5,-20"/>
<text text-anchor="middle" x="101.38" y="-6.5" font-family="Helvetica,sans-Serif" font-size="10.00">cassert</text>
</a>
</g>
</g>
<!-- Node4&#45;&gt;Node7 -->
<g id="edge6_Node000004_Node000007" class="edge">
<title>Node4&#45;&gt;Node7</title>
<g id="a_edge6_Node000004_Node000007"><a xlink:title=" ">
<path fill="none" stroke="#63b8ff" d="M126.98,-55.59C122.89,-48.47 117.13,-38.45 112.12,-29.72"/>
<polygon fill="#63b8ff" stroke="#63b8ff" points="114.73,-28.23 106.71,-21.3 108.66,-31.71 114.73,-28.23"/>
</a>
</g>
</g>
<!-- Node9 -->
<g id="Node000009" class="node">
<title>Node9</title>
<g id="a_Node000009"><a xlink:href="../../d9/dd0/Platform_8h.html" target="_top" xlink:title=" ">
<polygon fill="white" stroke="#666666" points="409.5,-20 325.25,-20 325.25,0 409.5,0 409.5,-20"/>
<text text-anchor="middle" x="367.38" y="-6.5" font-family="Helvetica,sans-Serif" font-size="10.00">carla/Platform.h</text>
</a>
</g>
</g>
<!-- Node8&#45;&gt;Node9 -->
<g id="edge9_Node000008_Node000009" class="edge">
<title>Node8&#45;&gt;Node9</title>
<g id="a_edge9_Node000008_Node000009"><a xlink:title=" ">
<path fill="none" stroke="#63b8ff" d="M287.27,-55.59C302.06,-47.36 323.8,-35.26 340.9,-25.74"/>
<polygon fill="#63b8ff" stroke="#63b8ff" points="342.31,-28.4 349.35,-20.48 338.91,-22.29 342.31,-28.4"/>
</a>
</g>
</g>
<!-- Node10 -->
<g id="Node000010" class="node">
<title>Node10</title>
<g id="a_Node000010"><a xlink:title=" ">
<polygon fill="#e0e0e0" stroke="#999999" points="307.12,-20 253.62,-20 253.62,0 307.12,0 307.12,-20"/>
<text text-anchor="middle" x="280.38" y="-6.5" font-family="Helvetica,sans-Serif" font-size="10.00">iostream</text>
</a>
</g>
</g>
<!-- Node8&#45;&gt;Node10 -->
<g id="edge10_Node000008_Node000010" class="edge">
<title>Node8&#45;&gt;Node10</title>
<g id="a_edge10_Node000008_Node000010"><a xlink:title=" ">
<path fill="none" stroke="#63b8ff" d="M272.12,-55.59C273.38,-48.78 275.13,-39.32 276.7,-30.86"/>
<polygon fill="#63b8ff" stroke="#63b8ff" points="280.27,-31.77 278.65,-21.3 273.39,-30.49 280.27,-31.77"/>
</a>
</g>
</g>
<!-- Node18 -->
<g id="Node000018" class="node">
<title>Node18</title>
<g id="a_Node000018"><a xlink:href="../../de/d70/geom_2Vector3D_8h.html" target="_top" xlink:title=" ">
<polygon fill="white" stroke="#666666" points="487.25,-244 371.5,-244 371.5,-224 487.25,-224 487.25,-244"/>
<text text-anchor="middle" x="429.38" y="-230.5" font-family="Helvetica,sans-Serif" font-size="10.00">carla/geom/Vector3D.h</text>
</a>
</g>
</g>
<!-- Node17&#45;&gt;Node18 -->
<g id="edge18_Node000017_Node000018" class="edge">
<title>Node17&#45;&gt;Node18</title>
<g id="a_edge18_Node000017_Node000018"><a xlink:title=" ">
<path fill="none" stroke="#63b8ff" d="M539.67,-347.54C516.52,-340.8 489.06,-329.7 469.38,-312 452.1,-296.47 441.12,-271.7 435.12,-254.47"/>
<polygon fill="#63b8ff" stroke="#63b8ff" points="438.28,-253.85 431.88,-245.4 431.62,-256 438.28,-253.85"/>
</a>
</g>
</g>
<!-- Node20 -->
<g id="Node000020" class="node">
<title>Node20</title>
<g id="a_Node000020"><a xlink:href="../../d1/da4/Vector3DInt_8h.html" target="_top" xlink:title=" ">
<polygon fill="white" stroke="#666666" points="669.5,-244 543.25,-244 543.25,-224 669.5,-224 669.5,-244"/>
<text text-anchor="middle" x="606.38" y="-230.5" font-family="Helvetica,sans-Serif" font-size="10.00">carla/geom/Vector3DInt.h</text>
</a>
</g>
</g>
<!-- Node17&#45;&gt;Node20 -->
<g id="edge22_Node000017_Node000020" class="edge">
<title>Node17&#45;&gt;Node20</title>
<g id="a_edge22_Node000017_Node000020"><a xlink:title=" ">
<path fill="none" stroke="#63b8ff" d="M586.03,-347.83C589.56,-328.22 597.93,-281.83 602.76,-255.04"/>
<polygon fill="#63b8ff" stroke="#63b8ff" points="606.37,-255.74 604.7,-245.28 599.48,-254.5 606.37,-255.74"/>
</a>
</g>
</g>
<!-- Node21 -->
<g id="Node000021" class="node">
<title>Node21</title>
<g id="a_Node000021"><a xlink:href="../../db/d8a/Math_8h.html" target="_top" xlink:title=" ">
<polygon fill="white" stroke="#666666" points="245.88,-306 148.88,-306 148.88,-286 245.88,-286 245.88,-306"/>
<text text-anchor="middle" x="197.38" y="-292.5" font-family="Helvetica,sans-Serif" font-size="10.00">carla/geom/Math.h</text>
</a>
</g>
</g>
<!-- Node17&#45;&gt;Node21 -->
<g id="edge26_Node000017_Node000021" class="edge">
<title>Node17&#45;&gt;Node21</title>
<g id="a_edge26_Node000017_Node000021"><a xlink:title=" ">
<path fill="none" stroke="#63b8ff" d="M528.16,-351.34C462.39,-344.25 350.4,-330.72 255.38,-312 250.96,-311.13 246.37,-310.12 241.8,-309.05"/>
<polygon fill="#63b8ff" stroke="#63b8ff" points="242.81,-305.45 232.27,-306.47 241.15,-312.25 242.81,-305.45"/>
</a>
</g>
</g>
<!-- Node23 -->
<g id="Node000023" class="node">
<title>Node23</title>
<g id="a_Node000023"><a xlink:href="../../d9/da2/enable-ue4-macros_8h.html" target="_top" xlink:title=" ">
<polygon fill="white" stroke="#666666" points="838.88,-312 735.88,-312 735.88,-280 838.88,-280 838.88,-312"/>
<text text-anchor="start" x="743.88" y="-298.5" font-family="Helvetica,sans-Serif" font-size="10.00">compiler/enable&#45;ue4</text>
<text text-anchor="middle" x="787.38" y="-286.5" font-family="Helvetica,sans-Serif" font-size="10.00">&#45;macros.h</text>
</a>
</g>
</g>
<!-- Node17&#45;&gt;Node23 -->
<g id="edge32_Node000017_Node000023" class="edge">
<title>Node17&#45;&gt;Node23</title>
<g id="a_edge32_Node000017_Node000023"><a xlink:title=" ">
<path fill="none" stroke="#63b8ff" d="M616.09,-347.62C645.22,-339.02 689.21,-326.01 725.32,-315.34"/>
<polygon fill="#63b8ff" stroke="#63b8ff" points="726.16,-318.45 734.76,-312.26 724.17,-311.73 726.16,-318.45"/>
</a>
</g>
</g>
<!-- Node24 -->
<g id="Node000024" class="node">
<title>Node24</title>
<g id="a_Node000024"><a xlink:title=" ">
<polygon fill="#e0e0e0" stroke="#999999" points="556.12,-306 478.62,-306 478.62,-286 556.12,-286 556.12,-306"/>
<text text-anchor="middle" x="517.38" y="-292.5" font-family="Helvetica,sans-Serif" font-size="10.00">Math/Vector.h</text>
</a>
</g>
</g>
<!-- Node17&#45;&gt;Node24 -->
<g id="edge33_Node000017_Node000024" class="edge">
<title>Node17&#45;&gt;Node24</title>
<g id="a_edge33_Node000017_Node000024"><a xlink:title=" ">
<path fill="none" stroke="#63b8ff" d="M573.91,-347.62C563.62,-338.41 547.72,-324.17 535.4,-313.14"/>
<polygon fill="#63b8ff" stroke="#63b8ff" points="538.34,-311.18 528.55,-307.11 533.67,-316.39 538.34,-311.18"/>
</a>
</g>
</g>
<!-- Node25 -->
<g id="Node000025" class="node">
<title>Node25</title>
<g id="a_Node000025"><a xlink:href="../../d2/d02/disable-ue4-macros_8h.html" target="_top" xlink:title=" ">
<polygon fill="white" stroke="#666666" points="718,-312 612.75,-312 612.75,-280 718,-280 718,-312"/>
<text text-anchor="start" x="620.75" y="-298.5" font-family="Helvetica,sans-Serif" font-size="10.00">compiler/disable&#45;ue4</text>
<text text-anchor="middle" x="665.38" y="-286.5" font-family="Helvetica,sans-Serif" font-size="10.00">&#45;macros.h</text>
</a>
</g>
</g>
<!-- Node17&#45;&gt;Node25 -->
<g id="edge34_Node000017_Node000025" class="edge">
<title>Node17&#45;&gt;Node25</title>
<g id="a_edge34_Node000017_Node000025"><a xlink:title=" ">
<path fill="none" stroke="#63b8ff" d="M597.03,-347.62C607.47,-339.89 622.69,-328.62 636.12,-318.67"/>
<polygon fill="#63b8ff" stroke="#63b8ff" points="637.67,-321.14 643.62,-312.37 633.5,-315.51 637.67,-321.14"/>
</a>
</g>
</g>
<!-- Node18&#45;&gt;Node2 -->
<g id="edge19_Node000018_Node000002" class="edge">
<title>Node18&#45;&gt;Node2</title>
<g id="a_edge19_Node000018_Node000002"><a xlink:title=" ">
<path fill="none" stroke="#63b8ff" d="M436.87,-223.59C442.72,-216.24 451.04,-205.8 458.15,-196.87"/>
<polygon fill="#63b8ff" stroke="#63b8ff" points="461.48,-199.3 464.97,-189.3 456,-194.94 461.48,-199.3"/>
</a>
</g>
</g>
<!-- Node18&#45;&gt;Node13 -->
<g id="edge21_Node000018_Node000013" class="edge">
<title>Node18&#45;&gt;Node13</title>
<g id="a_edge21_Node000018_Node000013"><a xlink:title=" ">
<path fill="none" stroke="#63b8ff" d="M424.64,-223.53C414.27,-201.28 392.53,-145.05 419.38,-112 462.75,-58.61 503.95,-91.41 576.08,-75.92"/>
<polygon fill="#63b8ff" stroke="#63b8ff" points="576.57,-79.16 585.47,-73.4 574.92,-72.36 576.57,-79.16"/>
</a>
</g>
</g>
<!-- Node19 -->
<g id="Node000019" class="node">
<title>Node19</title>
<g id="a_Node000019"><a xlink:title=" ">
<polygon fill="#e0e0e0" stroke="#999999" points="577.88,-188 534.88,-188 534.88,-168 577.88,-168 577.88,-188"/>
<text text-anchor="middle" x="556.38" y="-174.5" font-family="Helvetica,sans-Serif" font-size="10.00">cmath</text>
</a>
</g>
</g>
<!-- Node18&#45;&gt;Node19 -->
<g id="edge20_Node000018_Node000019" class="edge">
<title>Node18&#45;&gt;Node19</title>
<g id="a_edge20_Node000018_Node000019"><a xlink:title=" ">
<path fill="none" stroke="#63b8ff" d="M451.5,-223.59C471.71,-215 501.83,-202.19 524.62,-192.5"/>
<polygon fill="#63b8ff" stroke="#63b8ff" points="525.67,-195.43 533.51,-188.3 522.93,-188.99 525.67,-195.43"/>
</a>
</g>
</g>
<!-- Node20&#45;&gt;Node2 -->
<g id="edge23_Node000020_Node000002" class="edge">
<title>Node20&#45;&gt;Node2</title>
<g id="a_edge23_Node000020_Node000002"><a xlink:title=" ">
<path fill="none" stroke="#63b8ff" d="M583.03,-223.59C561.74,-215.01 530.03,-202.23 506,-192.55"/>
<polygon fill="#63b8ff" stroke="#63b8ff" points="507.48,-188.97 496.9,-188.48 504.87,-195.46 507.48,-188.97"/>
</a>
</g>
</g>
<!-- Node20&#45;&gt;Node13 -->
<g id="edge25_Node000020_Node000013" class="edge">
<title>Node20&#45;&gt;Node13</title>
<g id="a_edge25_Node000020_Node000013"><a xlink:title=" ">
<path fill="none" stroke="#63b8ff" d="M606.38,-223.6C606.38,-197.35 606.38,-122.84 606.38,-86.89"/>
<polygon fill="#63b8ff" stroke="#63b8ff" points="609.88,-87.3 606.38,-77.3 602.88,-87.3 609.88,-87.3"/>
</a>
</g>
</g>
<!-- Node20&#45;&gt;Node19 -->
<g id="edge24_Node000020_Node000019" class="edge">
<title>Node20&#45;&gt;Node19</title>
<g id="a_edge24_Node000020_Node000019"><a xlink:title=" ">
<path fill="none" stroke="#63b8ff" d="M597.67,-223.59C590.71,-216.08 580.78,-205.35 572.4,-196.3"/>
<polygon fill="#63b8ff" stroke="#63b8ff" points="575.35,-194.26 565.98,-189.3 570.21,-199.01 575.35,-194.26"/>
</a>
</g>
</g>
<!-- Node21&#45;&gt;Node4 -->
<g id="edge27_Node000021_Node000004" class="edge">
<title>Node21&#45;&gt;Node4</title>
<g id="a_edge27_Node000021_Node000004"><a xlink:title=" ">
<path fill="none" stroke="#63b8ff" d="M190.86,-285.67C184.24,-275.77 174.17,-259.45 168.38,-244 147.78,-189.09 138.06,-119.94 134.32,-86.66"/>
<polygon fill="#63b8ff" stroke="#63b8ff" points="137.74,-86.69 133.2,-77.12 130.78,-87.43 137.74,-86.69"/>
</a>
</g>
</g>
<!-- Node21&#45;&gt;Node15 -->
<g id="edge30_Node000021_Node000015" class="edge">
<title>Node21&#45;&gt;Node15</title>
<g id="a_edge30_Node000021_Node000015"><a xlink:title=" ">
<path fill="none" stroke="#63b8ff" d="M189.95,-285.78C181.91,-275.7 168.85,-258.98 158.38,-244 118.96,-187.67 76.29,-118.27 56.55,-85.64"/>
<polygon fill="#63b8ff" stroke="#63b8ff" points="59.14,-84.15 50.99,-77.39 53.15,-87.77 59.14,-84.15"/>
</a>
</g>
</g>
<!-- Node21&#45;&gt;Node18 -->
<g id="edge28_Node000021_Node000018" class="edge">
<title>Node21&#45;&gt;Node18</title>
<g id="a_edge28_Node000021_Node000018"><a xlink:title=" ">
<path fill="none" stroke="#63b8ff" d="M233.88,-285.56C273.96,-275.19 338.44,-258.52 382.3,-247.18"/>
<polygon fill="#63b8ff" stroke="#63b8ff" points="382.89,-250.38 391.7,-244.48 381.14,-243.6 382.89,-250.38"/>
</a>
</g>
</g>
<!-- Node21&#45;&gt;Node19 -->
<g id="edge29_Node000021_Node000019" class="edge">
<title>Node21&#45;&gt;Node19</title>
<g id="a_edge29_Node000021_Node000019"><a xlink:title=" ">
<path fill="none" stroke="#63b8ff" d="M215.74,-285.72C245.74,-270.88 307.45,-241.67 362.38,-224 430.22,-202.18 452.18,-206.29 524,-188.45"/>
<polygon fill="#63b8ff" stroke="#63b8ff" points="524.65,-191.64 533.47,-185.78 522.92,-184.86 524.65,-191.64"/>
</a>
</g>
</g>
<!-- Node22 -->
<g id="Node000022" class="node">
<title>Node22</title>
<g id="a_Node000022"><a xlink:title=" ">
<polygon fill="#e0e0e0" stroke="#999999" points="217,-244 177.75,-244 177.75,-224 217,-224 217,-244"/>
<text text-anchor="middle" x="197.38" y="-230.5" font-family="Helvetica,sans-Serif" font-size="10.00">utility</text>
</a>
</g>
</g>
<!-- Node21&#45;&gt;Node22 -->
<g id="edge31_Node000021_Node000022" class="edge">
<title>Node21&#45;&gt;Node22</title>
<g id="a_edge31_Node000021_Node000022"><a xlink:title=" ">
<path fill="none" stroke="#63b8ff" d="M197.38,-285.62C197.38,-277.48 197.38,-265.39 197.38,-255.07"/>
<polygon fill="#63b8ff" stroke="#63b8ff" points="200.88,-255.11 197.38,-245.11 193.88,-255.11 200.88,-255.11"/>
</a>
</g>
</g>
<!-- Node26 -->
<g id="Node000026" class="node">
<title>Node26</title>
<g id="a_Node000026"><a xlink:href="../../d7/d7d/Carla_8h.html" target="_top" xlink:title=" ">
<polygon fill="white" stroke="#666666" points="881.75,-244 835,-244 835,-224 881.75,-224 881.75,-244"/>
<text text-anchor="middle" x="858.38" y="-230.5" font-family="Helvetica,sans-Serif" font-size="10.00">Carla.h</text>
</a>
</g>
</g>
<!-- Node25&#45;&gt;Node26 -->
<g id="edge35_Node000025_Node000026" class="edge">
<title>Node25&#45;&gt;Node26</title>
<g id="a_edge35_Node000025_Node000026"><a xlink:title=" ">
<path fill="none" stroke="#63b8ff" d="M715.08,-279.55C749.3,-268.91 793.87,-255.05 824.16,-245.64"/>
<polygon fill="#63b8ff" stroke="#63b8ff" points="825.11,-248.69 833.62,-242.38 823.04,-242.01 825.11,-248.69"/>
</a>
</g>
</g>
<!-- Node27 -->
<g id="Node000027" class="node">
<title>Node27</title>
<g id="a_Node000027"><a xlink:href="../../d4/d57/Unreal_2CarlaUE4_2Plugins_2Carla_2Source_2Carla_2Util_2NonCopyable_8h.html" target="_top" xlink:title=" ">
<polygon fill="white" stroke="#666666" points="922,-188 822.75,-188 822.75,-168 922,-168 922,-188"/>
<text text-anchor="middle" x="872.38" y="-174.5" font-family="Helvetica,sans-Serif" font-size="10.00">Util/NonCopyable.h</text>
</a>
</g>
</g>
<!-- Node26&#45;&gt;Node27 -->
<g id="edge36_Node000026_Node000027" class="edge">
<title>Node26&#45;&gt;Node27</title>
<g id="a_edge36_Node000026_Node000027"><a xlink:title=" ">
<path fill="none" stroke="#63b8ff" d="M860.81,-223.59C862.58,-216.78 865.03,-207.32 867.23,-198.86"/>
<polygon fill="#63b8ff" stroke="#63b8ff" points="870.84,-199.86 869.96,-189.3 864.07,-198.1 870.84,-199.86"/>
</a>
</g>
</g>
<!-- Node28 -->
<g id="Node000028" class="node">
<title>Node28</title>
<g id="a_Node000028"><a xlink:title=" ">
<polygon fill="#e0e0e0" stroke="#999999" points="1048.88,-188 939.88,-188 939.88,-168 1048.88,-168 1048.88,-188"/>
<text text-anchor="middle" x="994.38" y="-174.5" font-family="Helvetica,sans-Serif" font-size="10.00">Logging/LogMacros.h</text>
</a>
</g>
</g>
<!-- Node26&#45;&gt;Node28 -->
<g id="edge37_Node000026_Node000028" class="edge">
<title>Node26&#45;&gt;Node28</title>
<g id="a_edge37_Node000026_Node000028"><a xlink:title=" ">
<path fill="none" stroke="#63b8ff" d="M882.06,-223.59C903.77,-214.97 936.15,-202.12 960.58,-192.42"/>
<polygon fill="#63b8ff" stroke="#63b8ff" points="961.5,-195.42 969.5,-188.48 958.91,-188.92 961.5,-195.42"/>
</a>
</g>
</g>
<!-- Node29 -->
<g id="Node000029" class="node">
<title>Node29</title>
<g id="a_Node000029"><a xlink:title=" ">
<polygon fill="#e0e0e0" stroke="#999999" points="804.5,-188 672.25,-188 672.25,-168 804.5,-168 804.5,-188"/>
<text text-anchor="middle" x="738.38" y="-174.5" font-family="Helvetica,sans-Serif" font-size="10.00">Modules/ModuleInterface.h</text>
</a>
</g>
</g>
<!-- Node26&#45;&gt;Node29 -->
<g id="edge38_Node000026_Node000029" class="edge">
<title>Node26&#45;&gt;Node29</title>
<g id="a_edge38_Node000026_Node000029"><a xlink:title=" ">
<path fill="none" stroke="#63b8ff" d="M837.47,-223.59C818.66,-215.13 790.76,-202.58 769.36,-192.94"/>
<polygon fill="#63b8ff" stroke="#63b8ff" points="771,-189.39 760.44,-188.48 768.12,-195.77 771,-189.39"/>
</a>
</g>
</g>
<!-- Node30&#45;&gt;Node2 -->
<g id="edge40_Node000030_Node000002" class="edge">
<title>Node30&#45;&gt;Node2</title>
<g id="a_edge40_Node000030_Node000002"><a xlink:title=" ">
<path fill="none" stroke="#63b8ff" d="M697.51,-223.53C650.21,-214.18 577.9,-199.87 528.05,-190.01"/>
<polygon fill="#63b8ff" stroke="#63b8ff" points="528.95,-186.43 518.46,-187.92 527.59,-193.29 528.95,-186.43"/>
</a>
</g>
</g>
<!-- Node30&#45;&gt;Node13 -->
<g id="edge42_Node000030_Node000013" class="edge">
<title>Node30&#45;&gt;Node13</title>
<g id="a_edge42_Node000030_Node000013"><a xlink:title=" ">
<path fill="none" stroke="#63b8ff" d="M718.95,-223.54C701.35,-216.13 678.73,-204.33 663.38,-188 648.71,-172.4 625.59,-116.47 613.81,-86.42"/>
<polygon fill="#63b8ff" stroke="#63b8ff" points="616.77,-85.37 609.89,-77.31 610.24,-87.9 616.77,-85.37"/>
</a>
</g>
</g>
<!-- Node30&#45;&gt;Node19 -->
<g id="edge41_Node000030_Node000019" class="edge">
<title>Node30&#45;&gt;Node19</title>
<g id="a_edge41_Node000030_Node000019"><a xlink:title=" ">
<path fill="none" stroke="#63b8ff" d="M712.45,-223.59C677.72,-213.67 623.32,-198.13 588.78,-188.26"/>
<polygon fill="#63b8ff" stroke="#63b8ff" points="589.89,-184.65 579.31,-185.27 587.96,-191.38 589.89,-184.65"/>
</a>
</g>
</g>
<!-- Node31&#45;&gt;Node2 -->
<g id="edge44_Node000031_Node000002" class="edge">
<title>Node31&#45;&gt;Node2</title>
<g id="a_edge44_Node000031_Node000002"><a xlink:title=" ">
<path fill="none" stroke="#63b8ff" d="M812.59,-347.51C825.21,-339.82 841.02,-327.69 848.38,-312 854.41,-299.12 857.84,-290.61 848.38,-280 801.63,-227.58 597.26,-275.28 534.38,-244 513.1,-233.42 495.19,-212.4 484.17,-197.13"/>
<polygon fill="#63b8ff" stroke="#63b8ff" points="486.78,-195.75 478.23,-189.5 481.02,-199.72 486.78,-195.75"/>
</a>
</g>
</g>
<!-- Node31&#45;&gt;Node23 -->
<g id="edge45_Node000031_Node000023" class="edge">
<title>Node31&#45;&gt;Node23</title>
<g id="a_edge45_Node000031_Node000023"><a xlink:title=" ">
<path fill="none" stroke="#63b8ff" d="M793.28,-347.62C792.5,-340.95 791.42,-331.64 790.39,-322.82"/>
<polygon fill="#63b8ff" stroke="#63b8ff" points="793.78,-322.67 789.14,-313.14 786.82,-323.48 793.78,-322.67"/>
</a>
</g>
</g>
<!-- Node31&#45;&gt;Node25 -->
<g id="edge50_Node000031_Node000025" class="edge">
<title>Node31&#45;&gt;Node25</title>
<g id="a_edge50_Node000031_Node000025"><a xlink:title=" ">
<path fill="none" stroke="#63b8ff" d="M774.22,-347.62C756.71,-339.48 730.74,-327.4 708.56,-317.09"/>
<polygon fill="#63b8ff" stroke="#63b8ff" points="710.22,-313.53 699.68,-312.49 707.27,-319.88 710.22,-313.53"/>
</a>
</g>
</g>
<!-- Node32 -->
<g id="Node000032" class="node">
<title>Node32</title>
<g id="a_Node000032"><a xlink:href="../../d3/d90/Unreal_2CarlaUE4_2Plugins_2Carla_2Source_2Carla_2Vehicle_2VehiclePhysicsControl_8h.html" target="_top" xlink:title=" ">
<polygon fill="white" stroke="#666666" points="1091.25,-306 933.5,-306 933.5,-286 1091.25,-286 1091.25,-306"/>
<text text-anchor="middle" x="1012.38" y="-292.5" font-family="Helvetica,sans-Serif" font-size="10.00">Vehicle/VehiclePhysicsControl.h</text>
</a>
</g>
</g>
<!-- Node31&#45;&gt;Node32 -->
<g id="edge46_Node000031_Node000032" class="edge">
<title>Node31&#45;&gt;Node32</title>
<g id="a_edge46_Node000031_Node000032"><a xlink:title=" ">
<path fill="none" stroke="#63b8ff" d="M828.44,-347.62C865.92,-337.31 926.33,-320.68 967.61,-309.32"/>
<polygon fill="#63b8ff" stroke="#63b8ff" points="968.48,-312.44 977.19,-306.41 966.62,-305.69 968.48,-312.44"/>
</a>
</g>
</g>
<!-- Node33 -->
<g id="Node000033" class="node">
<title>Node33</title>
<g id="a_Node000033"><a xlink:href="../../dd/d7d/Unreal_2CarlaUE4_2Plugins_2Carla_2Source_2Carla_2Vehicle_2WheelPhysicsControl_8h.html" target="_top" xlink:title=" ">
<polygon fill="white" stroke="#666666" points="1254,-244 1100.75,-244 1100.75,-224 1254,-224 1254,-244"/>
<text text-anchor="middle" x="1177.38" y="-230.5" font-family="Helvetica,sans-Serif" font-size="10.00">Vehicle/WheelPhysicsControl.h</text>
</a>
</g>
</g>
<!-- Node32&#45;&gt;Node33 -->
<g id="edge47_Node000032_Node000033" class="edge">
<title>Node32&#45;&gt;Node33</title>
<g id="a_edge47_Node000032_Node000033"><a xlink:title=" ">
<path fill="none" stroke="#63b8ff" d="M1038.16,-285.62C1065.92,-275.53 1110.31,-259.39 1141.48,-248.05"/>
<polygon fill="#63b8ff" stroke="#63b8ff" points="1142.3,-251.11 1150.5,-244.41 1139.91,-244.54 1142.3,-251.11"/>
</a>
</g>
</g>
<!-- Node35 -->
<g id="Node000035" class="node">
<title>Node35</title>
<g id="a_Node000035"><a xlink:title=" ">
<polygon fill="#e0e0e0" stroke="#999999" points="1082.5,-244 914.25,-244 914.25,-224 1082.5,-224 1082.5,-244"/>
<text text-anchor="middle" x="998.38" y="-230.5" font-family="Helvetica,sans-Serif" font-size="10.00">VehiclePhysicsControl.generated.h</text>
</a>
</g>
</g>
<!-- Node32&#45;&gt;Node35 -->
<g id="edge49_Node000032_Node000035" class="edge">
<title>Node32&#45;&gt;Node35</title>
<g id="a_edge49_Node000032_Node000035"><a xlink:title=" ">
<path fill="none" stroke="#63b8ff" d="M1010.19,-285.62C1008.27,-277.39 1005.4,-265.13 1002.98,-254.74"/>
<polygon fill="#63b8ff" stroke="#63b8ff" points="1006.18,-254.06 1000.5,-245.11 999.37,-255.65 1006.18,-254.06"/>
</a>
</g>
</g>
<!-- Node34 -->
<g id="Node000034" class="node">
<title>Node34</title>
<g id="a_Node000034"><a xlink:title=" ">
<polygon fill="#e0e0e0" stroke="#999999" points="1259.25,-188 1095.5,-188 1095.5,-168 1259.25,-168 1259.25,-188"/>
<text text-anchor="middle" x="1177.38" y="-174.5" font-family="Helvetica,sans-Serif" font-size="10.00">WheelPhysicsControl.generated.h</text>
</a>
</g>
</g>
<!-- Node33&#45;&gt;Node34 -->
<g id="edge48_Node000033_Node000034" class="edge">
<title>Node33&#45;&gt;Node34</title>
<g id="a_edge48_Node000033_Node000034"><a xlink:title=" ">
<path fill="none" stroke="#63b8ff" d="M1177.38,-223.59C1177.38,-216.86 1177.38,-207.53 1177.38,-199.15"/>
<polygon fill="#63b8ff" stroke="#63b8ff" points="1180.88,-199.3 1177.38,-189.3 1173.88,-199.3 1180.88,-199.3"/>
</a>
</g>
</g>
<!-- Node36&#45;&gt;Node2 -->
<g id="edge53_Node000036_Node000002" class="edge">
<title>Node36&#45;&gt;Node2</title>
<g id="a_edge53_Node000036_Node000002"><a xlink:title=" ">
<path fill="none" stroke="#63b8ff" d="M343.34,-285.97C343.77,-271.22 346.69,-241.81 362.38,-224 376.48,-207.99 397.14,-197.57 416.75,-190.84"/>
<polygon fill="#63b8ff" stroke="#63b8ff" points="417.7,-193.89 426.18,-187.55 415.6,-187.22 417.7,-193.89"/>
</a>
</g>
</g>
<!-- Node36&#45;&gt;Node18 -->
<g id="edge52_Node000036_Node000018" class="edge">
<title>Node36&#45;&gt;Node18</title>
<g id="a_edge52_Node000036_Node000018"><a xlink:title=" ">
<path fill="none" stroke="#63b8ff" d="M356.81,-285.62C370.32,-276.2 391.37,-261.52 407.32,-250.39"/>
<polygon fill="#63b8ff" stroke="#63b8ff" points="408.83,-252.9 415.03,-244.31 404.83,-247.16 408.83,-252.9"/>
</a>
</g>
</g>
</g>
</svg>
