<?xml version="1.0" encoding="UTF-8" standalone="no"?>
<!DOCTYPE svg PUBLIC "-//W3C//DTD SVG 1.1//EN"
 "http://www.w3.org/Graphics/SVG/1.1/DTD/svg11.dtd">
<!-- Generated by graphviz version 8.1.0 (20230707.0739)
 -->
<!-- Title: ServerBinder Pages: 1 -->
<svg width="202pt" height="164pt"
 viewBox="0.00 0.00 202.38 164.00" xmlns="http://www.w3.org/2000/svg" xmlns:xlink="http://www.w3.org/1999/xlink">

<svg id="main" version="1.1" xmlns="http://www.w3.org/2000/svg" xmlns:xlink="http://www.w3.org/1999/xlink" xml:space="preserve" onload="init(evt)">
<style type="text/css"><![CDATA[
.node, .edge {opacity: 0.7;}
.node.selected, .edge.selected {opacity: 1;}
.edge:hover path { stroke: red; }
.edge:hover polygon { stroke: red; fill: red; }
]]></style>
<script type="application/ecmascript" xlink:href="../../svg.min.js"/>
<svg id="graph" class="graph">
<g id="graph0" class="graph" transform="scale(1 1) rotate(0) translate(4 160)">
<title>ServerBinder</title>
<!-- Node1 -->
<g id="Node000001" class="node">
<title>Node1</title>
<g id="a_Node000001"><a xlink:title=" ">
<polygon fill="#999999" stroke="#666666" points="132.75,-20 62,-20 62,0 132.75,0 132.75,-20"/>
<text text-anchor="middle" x="97.38" y="-6.5" font-family="Helvetica,sans-Serif" font-size="10.00">ServerBinder</text>
</a>
</g>
</g>
<!-- Node2 -->
<g id="Node000002" class="node">
<title>Node2</title>
<g id="a_Node000002"><a xlink:title=" ">
<polygon fill="white" stroke="#666666" points="34.75,-88 0,-88 0,-68 34.75,-68 34.75,-88"/>
<text text-anchor="middle" x="17.38" y="-74.5" font-family="Helvetica,sans-Serif" font-size="10.00">char</text>
</a>
</g>
</g>
<!-- Node2&#45;&gt;Node1 -->
<g id="edge1_Node000001_Node000002" class="edge">
<title>Node2&#45;&gt;Node1</title>
<g id="a_edge1_Node000001_Node000002"><a xlink:title=" ">
<path fill="none" stroke="#9a32cd" stroke-dasharray="5,2" d="M35.28,-60.4C43.08,-53.33 52.42,-45.1 61.12,-38 68.54,-31.95 77.12,-25.53 84.07,-20.48"/>
<polygon fill="#9a32cd" stroke="#9a32cd" points="33.25,-57.43 28.24,-66.76 37.98,-62.59 33.25,-57.43"/>
</a>
</g>
<text text-anchor="middle" x="77.5" y="-40.5" font-family="Helvetica,sans-Serif" font-size="10.00" fill="grey"> _name</text>
</g>
<!-- Node3 -->
<g id="Node000003" class="node">
<title>Node3</title>
<g id="a_Node000003"><a xlink:href="../../db/d5f/classcarla_1_1rpc_1_1Server.html" target="_top" xlink:title="An RPC server in which functions can be bind to run synchronously or asynchronously.">
<polygon fill="white" stroke="#666666" points="142.12,-88 52.62,-88 52.62,-68 142.12,-68 142.12,-88"/>
<text text-anchor="middle" x="97.38" y="-74.5" font-family="Helvetica,sans-Serif" font-size="10.00">carla::rpc::Server</text>
</a>
</g>
</g>
<!-- Node3&#45;&gt;Node1 -->
<g id="edge2_Node000001_Node000003" class="edge">
<title>Node3&#45;&gt;Node1</title>
<g id="a_edge2_Node000001_Node000003"><a xlink:title=" ">
<path fill="none" stroke="#9a32cd" stroke-dasharray="5,2" d="M97.38,-56.65C97.38,-44.58 97.38,-29.84 97.38,-20.44"/>
<polygon fill="#9a32cd" stroke="#9a32cd" points="93.88,-56.54 97.38,-66.54 100.88,-56.54 93.88,-56.54"/>
</a>
</g>
<text text-anchor="middle" x="114.25" y="-40.5" font-family="Helvetica,sans-Serif" font-size="10.00" fill="grey"> _server</text>
</g>
<!-- Node4 -->
<g id="Node000004" class="node">
<title>Node4</title>
<g id="a_Node000004"><a xlink:title=" ">
<polygon fill="white" stroke="#666666" points="75.88,-156 14.88,-156 14.88,-136 75.88,-136 75.88,-156"/>
<text text-anchor="middle" x="45.38" y="-142.5" font-family="Helvetica,sans-Serif" font-size="10.00">io_context</text>
</a>
</g>
</g>
<!-- Node4&#45;&gt;Node3 -->
<g id="edge3_Node000003_Node000004" class="edge">
<title>Node4&#45;&gt;Node3</title>
<g id="a_edge3_Node000003_Node000004"><a xlink:title=" ">
<path fill="none" stroke="#9a32cd" stroke-dasharray="5,2" d="M39.65,-124.88C38.93,-118.44 39.43,-111.55 42.88,-106 47.77,-98.1 55.75,-92.45 64.1,-88.42"/>
<polygon fill="#9a32cd" stroke="#9a32cd" points="36.41,-125.51 41.88,-134.59 43.27,-124.08 36.41,-125.51"/>
</a>
</g>
<text text-anchor="middle" x="83.12" y="-108.5" font-family="Helvetica,sans-Serif" font-size="10.00" fill="grey"> _sync_io_context</text>
</g>
<!-- Node5 -->
<g id="Node000005" class="node">
<title>Node5</title>
<g id="a_Node000005"><a xlink:title=" ">
<polygon fill="white" stroke="#666666" points="169.12,-156 127.62,-156 127.62,-136 169.12,-136 169.12,-156"/>
<text text-anchor="middle" x="148.38" y="-142.5" font-family="Helvetica,sans-Serif" font-size="10.00">server</text>
</a>
</g>
</g>
<!-- Node5&#45;&gt;Node3 -->
<g id="edge4_Node000003_Node000005" class="edge">
<title>Node5&#45;&gt;Node3</title>
<g id="a_edge4_Node000003_Node000005"><a xlink:title=" ">
<path fill="none" stroke="#9a32cd" stroke-dasharray="5,2" d="M139.16,-125.96C135.57,-119.36 131.17,-112.09 126.38,-106 121.27,-99.52 114.57,-93.18 108.91,-88.27"/>
<polygon fill="#9a32cd" stroke="#9a32cd" points="136.38,-127.21 144.05,-134.52 142.61,-124.02 136.38,-127.21"/>
</a>
</g>
<text text-anchor="middle" x="150.25" y="-108.5" font-family="Helvetica,sans-Serif" font-size="10.00" fill="grey"> _server</text>
</g>
<!-- Node6 -->
<g id="Node000006" class="node">
<title>Node6</title>
<g id="a_Node000006"><a xlink:title=" ">
<polygon fill="white" stroke="#666666" points="194.38,-88 160.38,-88 160.38,-68 194.38,-68 194.38,-88"/>
<text text-anchor="middle" x="177.38" y="-74.5" font-family="Helvetica,sans-Serif" font-size="10.00">bool</text>
</a>
</g>
</g>
<!-- Node6&#45;&gt;Node1 -->
<g id="edge5_Node000001_Node000006" class="edge">
<title>Node6&#45;&gt;Node1</title>
<g id="a_edge5_Node000001_Node000006"><a xlink:title=" ">
<path fill="none" stroke="#9a32cd" stroke-dasharray="5,2" d="M160.11,-60.01C152.69,-52.97 143.81,-44.86 135.38,-38 127.72,-31.77 118.73,-25.34 111.42,-20.33"/>
<polygon fill="#9a32cd" stroke="#9a32cd" points="157.39,-62.22 167.02,-66.65 162.25,-57.18 157.39,-62.22"/>
</a>
</g>
<text text-anchor="middle" x="163" y="-40.5" font-family="Helvetica,sans-Serif" font-size="10.00" fill="grey"> _sync</text>
</g>
</g>
</svg>
</svg>

<style type='text/css'>
<![CDATA[
[data-mouse-over-selected='false'] { opacity: 0.7; }
[data-mouse-over-selected='true']  { opacity: 1.0; }
]]>
</style>
<script type="application/ecmascript"><![CDATA[
document.addEventListener('DOMContentLoaded', (event) => {
  highlightEdges();
  highlightAdjacentNodes();
});
]]></script>
</svg>
