<?xml version="1.0" encoding="UTF-8" standalone="no"?>
<!DOCTYPE svg PUBLIC "-//W3C//DTD SVG 1.1//EN"
 "http://www.w3.org/Graphics/SVG/1.1/DTD/svg11.dtd">
<!-- Generated by graphviz version 8.1.0 (20230707.0739)
 -->
<!-- Title: carla::sensor::s11n::EpisodeStateSerializer::DeserializeHeader Pages: 1 -->
<svg width="554pt" height="52pt"
 viewBox="0.00 0.00 553.50 52.00" xmlns="http://www.w3.org/2000/svg" xmlns:xlink="http://www.w3.org/1999/xlink">
<g id="graph0" class="graph" transform="scale(1 1) rotate(0) translate(4 48)">
<title>carla::sensor::s11n::EpisodeStateSerializer::DeserializeHeader</title>
<!-- Node1 -->
<g id="Node000001" class="node">
<title>Node1</title>
<g id="a_Node000001"><a xlink:title=" ">
<polygon fill="#999999" stroke="#666666" points="121,-44 0,-44 0,0 121,0 121,-44"/>
<text text-anchor="start" x="8" y="-30.5" font-family="Helvetica,sans-Serif" font-size="10.00">carla::sensor::s11n</text>
<text text-anchor="start" x="8" y="-18.5" font-family="Helvetica,sans-Serif" font-size="10.00">::EpisodeStateSerializer</text>
<text text-anchor="middle" x="60.5" y="-6.5" font-family="Helvetica,sans-Serif" font-size="10.00">::DeserializeHeader</text>
</a>
</g>
</g>
<!-- Node2 -->
<g id="Node000002" class="node">
<title>Node2</title>
<g id="a_Node000002"><a xlink:href="../../d3/da0/classcarla_1_1sensor_1_1RawData.html#ad29c6a9698aa66f593286f5e6fc601ea" target="_top" xlink:title="Begin iterator to the data generated by the sensor.">
<polygon fill="white" stroke="#666666" points="274.25,-38 157,-38 157,-6 274.25,-6 274.25,-38"/>
<text text-anchor="start" x="165" y="-24.5" font-family="Helvetica,sans-Serif" font-size="10.00">carla::sensor::RawData</text>
<text text-anchor="middle" x="215.62" y="-12.5" font-family="Helvetica,sans-Serif" font-size="10.00">::begin</text>
</a>
</g>
</g>
<!-- Node1&#45;&gt;Node2 -->
<g id="edge1_Node000001_Node000002" class="edge">
<title>Node1&#45;&gt;Node2</title>
<g id="a_edge1_Node000001_Node000002"><a xlink:title=" ">
<path fill="none" stroke="#63b8ff" d="M121.14,-22C129.26,-22 137.64,-22 145.9,-22"/>
<polygon fill="#63b8ff" stroke="#63b8ff" points="145.65,-25.5 155.65,-22 145.65,-18.5 145.65,-25.5"/>
</a>
</g>
</g>
<!-- Node3 -->
<g id="Node000003" class="node">
<title>Node3</title>
<g id="a_Node000003"><a xlink:href="../../d0/d0a/classcarla_1_1Buffer.html#a0afeda4355e6196d808ddf25142d5dbd" target="_top" xlink:title=" ">
<polygon fill="white" stroke="#666666" points="407.25,-32 310.25,-32 310.25,-12 407.25,-12 407.25,-32"/>
<text text-anchor="middle" x="358.75" y="-18.5" font-family="Helvetica,sans-Serif" font-size="10.00">carla::Buffer::begin</text>
</a>
</g>
</g>
<!-- Node2&#45;&gt;Node3 -->
<g id="edge2_Node000002_Node000003" class="edge">
<title>Node2&#45;&gt;Node3</title>
<g id="a_edge2_Node000002_Node000003"><a xlink:title=" ">
<path fill="none" stroke="#63b8ff" d="M274.43,-22C282.6,-22 291,-22 299.17,-22"/>
<polygon fill="#63b8ff" stroke="#63b8ff" points="299.15,-25.5 309.15,-22 299.15,-18.5 299.15,-25.5"/>
</a>
</g>
</g>
<!-- Node4 -->
<g id="Node000004" class="node">
<title>Node4</title>
<g id="a_Node000004"><a xlink:href="../../d0/d0a/classcarla_1_1Buffer.html#acbf9f37162db2ddffaf2ae2bfb9fd8a5" target="_top" xlink:title=" ">
<polygon fill="white" stroke="#666666" points="545.5,-32 443.25,-32 443.25,-12 545.5,-12 545.5,-32"/>
<text text-anchor="middle" x="494.38" y="-18.5" font-family="Helvetica,sans-Serif" font-size="10.00">carla::Buffer::cbegin</text>
</a>
</g>
</g>
<!-- Node3&#45;&gt;Node4 -->
<g id="edge3_Node000003_Node000004" class="edge">
<title>Node3&#45;&gt;Node4</title>
<g id="a_edge3_Node000003_Node000004"><a xlink:title=" ">
<path fill="none" stroke="#63b8ff" d="M407.61,-22C415.63,-22 424.05,-22 432.34,-22"/>
<polygon fill="#63b8ff" stroke="#63b8ff" points="432.14,-25.5 442.14,-22 432.14,-18.5 432.14,-25.5"/>
</a>
</g>
</g>
</g>
</svg>
