<?xml version="1.0" encoding="UTF-8" standalone="no"?>
<!DOCTYPE svg PUBLIC "-//W3C//DTD SVG 1.1//EN"
 "http://www.w3.org/Graphics/SVG/1.1/DTD/svg11.dtd">
<!-- Generated by graphviz version 8.1.0 (20230707.0739)
 -->
<!-- Title: UBaseCarlaMovementComponent::GetVehicleForwardSpeed Pages: 1 -->
<svg width="1707pt" height="150pt"
 viewBox="0.00 0.00 1707.00 150.00" xmlns="http://www.w3.org/2000/svg" xmlns:xlink="http://www.w3.org/1999/xlink">
<g id="graph0" class="graph" transform="scale(1 1) rotate(0) translate(4 146)">
<title>UBaseCarlaMovementComponent::GetVehicleForwardSpeed</title>
<!-- Node1 -->
<g id="Node000001" class="node">
<title>Node1</title>
<g id="a_Node000001"><a xlink:title=" ">
<polygon fill="#999999" stroke="#666666" points="1699,-95 1537.5,-95 1537.5,-63 1699,-63 1699,-95"/>
<text text-anchor="start" x="1545.5" y="-81.5" font-family="Helvetica,sans-Serif" font-size="10.00">UBaseCarlaMovementComponent</text>
<text text-anchor="middle" x="1618.25" y="-69.5" font-family="Helvetica,sans-Serif" font-size="10.00">::GetVehicleForwardSpeed</text>
</a>
</g>
</g>
<!-- Node2 -->
<g id="Node000002" class="node">
<title>Node2</title>
<g id="a_Node000002"><a xlink:href="../../d5/d70/classACarlaWheeledVehicle.html#a6edcead801fe7eb5c26131370659b287" target="_top" xlink:title="Forward speed in cm/s. Might be negative if goes backwards.">
<polygon fill="white" stroke="#666666" points="1501.5,-95 1369.25,-95 1369.25,-63 1501.5,-63 1501.5,-95"/>
<text text-anchor="start" x="1377.25" y="-81.5" font-family="Helvetica,sans-Serif" font-size="10.00">ACarlaWheeledVehicle</text>
<text text-anchor="middle" x="1435.38" y="-69.5" font-family="Helvetica,sans-Serif" font-size="10.00">::GetVehicleForwardSpeed</text>
</a>
</g>
</g>
<!-- Node1&#45;&gt;Node2 -->
<g id="edge1_Node000001_Node000002" class="edge">
<title>Node1&#45;&gt;Node2</title>
<g id="a_edge1_Node000001_Node000002"><a xlink:title=" ">
<path fill="none" stroke="#63b8ff" d="M1526.29,-79C1518.03,-79 1509.77,-79 1501.8,-79"/>
<polygon fill="#63b8ff" stroke="#63b8ff" points="1526.13,-82.5 1536.13,-79 1526.13,-75.5 1526.13,-82.5"/>
</a>
</g>
</g>
<!-- Node3 -->
<g id="Node000003" class="node">
<title>Node3</title>
<g id="a_Node000003"><a xlink:href="../../dc/d72/classCaService.html#aada5a11db167140445dd085b2f40a43a" target="_top" xlink:title=" ">
<polygon fill="white" stroke="#666666" points="1162.38,-136 1022.62,-136 1022.62,-104 1162.38,-104 1162.38,-136"/>
<text text-anchor="start" x="1030.62" y="-122.5" font-family="Helvetica,sans-Serif" font-size="10.00">CaService::AddBasicVehicle</text>
<text text-anchor="middle" x="1092.5" y="-110.5" font-family="Helvetica,sans-Serif" font-size="10.00">ContainerHighFrequency</text>
</a>
</g>
</g>
<!-- Node2&#45;&gt;Node3 -->
<g id="edge2_Node000002_Node000003" class="edge">
<title>Node2&#45;&gt;Node3</title>
<g id="a_edge2_Node000002_Node000003"><a xlink:title=" ">
<path fill="none" stroke="#63b8ff" d="M1389.86,-99.54C1372.57,-106.49 1352.36,-113.41 1333.25,-117 1276.59,-127.66 1211.06,-127.66 1162.85,-125.42"/>
<polygon fill="#63b8ff" stroke="#63b8ff" points="1390.78,-102.53 1398.67,-95.46 1388.09,-96.06 1390.78,-102.53"/>
</a>
</g>
</g>
<!-- Node10 -->
<g id="Node000010" class="node">
<title>Node10</title>
<g id="a_Node000010"><a xlink:href="../../dc/d72/classCaService.html#acce07188fbf060cc9fe76d3112e800f1" target="_top" xlink:title=" ">
<polygon fill="white" stroke="#666666" points="1164.25,-70 1020.75,-70 1020.75,-50 1164.25,-50 1164.25,-70"/>
<text text-anchor="middle" x="1092.5" y="-56.5" font-family="Helvetica,sans-Serif" font-size="10.00">CaService::CheckSpeedDelta</text>
</a>
</g>
</g>
<!-- Node2&#45;&gt;Node10 -->
<g id="edge11_Node000002_Node000010" class="edge">
<title>Node2&#45;&gt;Node10</title>
<g id="a_edge11_Node000002_Node000010"><a xlink:title=" ">
<path fill="none" stroke="#63b8ff" d="M1358.13,-74.75C1300.19,-71.52 1221.08,-67.11 1164.48,-63.96"/>
<polygon fill="#63b8ff" stroke="#63b8ff" points="1357.87,-78.3 1368.05,-75.36 1358.26,-71.31 1357.87,-78.3"/>
</a>
</g>
</g>
<!-- Node11 -->
<g id="Node000011" class="node">
<title>Node11</title>
<g id="a_Node000011"><a xlink:href="../../dc/d72/classCaService.html#ad8f9c1690dfe3d09355ef97f337d69f9" target="_top" xlink:title=" ">
<polygon fill="white" stroke="#666666" points="1332.88,-108 1200.62,-108 1200.62,-88 1332.88,-88 1332.88,-108"/>
<text text-anchor="middle" x="1266.75" y="-94.5" font-family="Helvetica,sans-Serif" font-size="10.00">CaService::ComputeSpeed</text>
</a>
</g>
</g>
<!-- Node2&#45;&gt;Node11 -->
<g id="edge13_Node000002_Node000011" class="edge">
<title>Node2&#45;&gt;Node11</title>
<g id="a_edge13_Node000002_Node000011"><a xlink:title=" ">
<path fill="none" stroke="#63b8ff" d="M1358.14,-87.69C1349.81,-88.64 1341.39,-89.6 1333.21,-90.54"/>
<polygon fill="#63b8ff" stroke="#63b8ff" points="1358.46,-91.07 1368,-86.45 1357.67,-84.11 1358.46,-91.07"/>
</a>
</g>
</g>
<!-- Node12 -->
<g id="Node000012" class="node">
<title>Node12</title>
<g id="a_Node000012"><a xlink:href="../../d5/d70/classACarlaWheeledVehicle.html#a46323f3bee453d36b0d483f39771e4b0" target="_top" xlink:title=" ">
<polygon fill="white" stroke="#666666" points="1333.25,-32 1200.25,-32 1200.25,0 1333.25,0 1333.25,-32"/>
<text text-anchor="start" x="1208.25" y="-18.5" font-family="Helvetica,sans-Serif" font-size="10.00">ACarlaWheeledVehicle</text>
<text text-anchor="middle" x="1266.75" y="-6.5" font-family="Helvetica,sans-Serif" font-size="10.00">::GetVehicleTelemetryData</text>
</a>
</g>
</g>
<!-- Node2&#45;&gt;Node12 -->
<g id="edge15_Node000002_Node000012" class="edge">
<title>Node2&#45;&gt;Node12</title>
<g id="a_edge15_Node000002_Node000012"><a xlink:title=" ">
<path fill="none" stroke="#63b8ff" d="M1380.94,-58.8C1358.4,-50.27 1332.5,-40.48 1311.17,-32.42"/>
<polygon fill="#63b8ff" stroke="#63b8ff" points="1379.44,-62.35 1390.03,-62.61 1381.92,-55.8 1379.44,-62.35"/>
</a>
</g>
</g>
<!-- Node4 -->
<g id="Node000004" class="node">
<title>Node4</title>
<g id="a_Node000004"><a xlink:href="../../dc/d72/classCaService.html#af78a02cbfa27133b4682c7f99c3ed09e" target="_top" xlink:title=" ">
<polygon fill="white" stroke="#666666" points="984.75,-136 851.75,-136 851.75,-104 984.75,-104 984.75,-136"/>
<text text-anchor="start" x="859.75" y="-122.5" font-family="Helvetica,sans-Serif" font-size="10.00">CaService::AddCooperative</text>
<text text-anchor="middle" x="918.25" y="-110.5" font-family="Helvetica,sans-Serif" font-size="10.00">AwarenessMessage</text>
</a>
</g>
</g>
<!-- Node3&#45;&gt;Node4 -->
<g id="edge3_Node000003_Node000004" class="edge">
<title>Node3&#45;&gt;Node4</title>
<g id="a_edge3_Node000003_Node000004"><a xlink:title=" ">
<path fill="none" stroke="#63b8ff" d="M1011.62,-120C1002.7,-120 993.69,-120 984.98,-120"/>
<polygon fill="#63b8ff" stroke="#63b8ff" points="1011.43,-123.5 1021.43,-120 1011.43,-116.5 1011.43,-123.5"/>
</a>
</g>
</g>
<!-- Node5 -->
<g id="Node000005" class="node">
<title>Node5</title>
<g id="a_Node000005"><a xlink:href="../../dc/d72/classCaService.html#aeed10735fdfabc90def5dc5459636d57" target="_top" xlink:title=" ">
<polygon fill="white" stroke="#666666" points="815.75,-136 671.5,-136 671.5,-104 815.75,-104 815.75,-136"/>
<text text-anchor="start" x="679.5" y="-122.5" font-family="Helvetica,sans-Serif" font-size="10.00">CaService::CreateCooperative</text>
<text text-anchor="middle" x="743.62" y="-110.5" font-family="Helvetica,sans-Serif" font-size="10.00">AwarenessMessage</text>
</a>
</g>
</g>
<!-- Node4&#45;&gt;Node5 -->
<g id="edge4_Node000004_Node000005" class="edge">
<title>Node4&#45;&gt;Node5</title>
<g id="a_edge4_Node000004_Node000005"><a xlink:title=" ">
<path fill="none" stroke="#63b8ff" d="M840.56,-120C832.47,-120 824.27,-120 816.24,-120"/>
<polygon fill="#63b8ff" stroke="#63b8ff" points="840.5,-123.5 850.5,-120 840.5,-116.5 840.5,-123.5"/>
</a>
</g>
</g>
<!-- Node6 -->
<g id="Node000006" class="node">
<title>Node6</title>
<g id="a_Node000006"><a xlink:href="../../dc/d72/classCaService.html#ac516ff7495bc32f142607fa3c18feb3e" target="_top" xlink:title=" ">
<polygon fill="white" stroke="#666666" points="635.5,-108 470.25,-108 470.25,-88 635.5,-88 635.5,-108"/>
<text text-anchor="middle" x="552.88" y="-94.5" font-family="Helvetica,sans-Serif" font-size="10.00">CaService::GenerateCamMessage</text>
</a>
</g>
</g>
<!-- Node5&#45;&gt;Node6 -->
<g id="edge5_Node000005_Node000006" class="edge">
<title>Node5&#45;&gt;Node6</title>
<g id="a_edge5_Node000005_Node000006"><a xlink:title=" ">
<path fill="none" stroke="#63b8ff" d="M660.56,-110.43C652.34,-109.48 644,-108.5 635.78,-107.55"/>
<polygon fill="#63b8ff" stroke="#63b8ff" points="659.93,-114 670.27,-111.68 660.74,-107.05 659.93,-114"/>
</a>
</g>
</g>
<!-- Node8 -->
<g id="Node000008" class="node">
<title>Node8</title>
<g id="a_Node000008"><a xlink:href="../../dc/d72/classCaService.html#a3abeb3a2b3ed63c68a902475f3909b51" target="_top" xlink:title=" ">
<polygon fill="white" stroke="#666666" points="263,-124 168.25,-124 168.25,-104 263,-104 263,-124"/>
<text text-anchor="middle" x="215.62" y="-110.5" font-family="Helvetica,sans-Serif" font-size="10.00">CaService::Trigger</text>
</a>
</g>
</g>
<!-- Node5&#45;&gt;Node8 -->
<g id="edge10_Node000005_Node000008" class="edge">
<title>Node5&#45;&gt;Node8</title>
<g id="a_edge10_Node000005_Node000008"><a xlink:title=" ">
<path fill="none" stroke="#63b8ff" d="M660.32,-120.17C571.25,-120.19 425.03,-119.72 299,-117 287.41,-116.75 274.91,-116.36 263.23,-115.94"/>
<polygon fill="#63b8ff" stroke="#63b8ff" points="660.16,-123.67 670.16,-120.17 660.16,-116.67 660.16,-123.67"/>
</a>
</g>
</g>
<!-- Node7 -->
<g id="Node000007" class="node">
<title>Node7</title>
<g id="a_Node000007"><a xlink:href="../../dc/d72/classCaService.html#af0c9631cf58c85f850d00d94180432c0" target="_top" xlink:title=" ">
<polygon fill="white" stroke="#666666" points="434.25,-108 299,-108 299,-76 434.25,-76 434.25,-108"/>
<text text-anchor="start" x="307" y="-94.5" font-family="Helvetica,sans-Serif" font-size="10.00">CaService::CheckTriggering</text>
<text text-anchor="middle" x="366.62" y="-82.5" font-family="Helvetica,sans-Serif" font-size="10.00">Conditions</text>
</a>
</g>
</g>
<!-- Node6&#45;&gt;Node7 -->
<g id="edge6_Node000006_Node000007" class="edge">
<title>Node6&#45;&gt;Node7</title>
<g id="a_edge6_Node000006_Node000007"><a xlink:title=" ">
<path fill="none" stroke="#63b8ff" d="M459.14,-94.98C450.88,-94.71 442.62,-94.44 434.63,-94.18"/>
<polygon fill="#63b8ff" stroke="#63b8ff" points="458.88,-98.51 468.99,-95.33 459.11,-91.51 458.88,-98.51"/>
</a>
</g>
</g>
<!-- Node7&#45;&gt;Node8 -->
<g id="edge7_Node000007_Node000008" class="edge">
<title>Node7&#45;&gt;Node8</title>
<g id="a_edge7_Node000007_Node000008"><a xlink:title=" ">
<path fill="none" stroke="#63b8ff" d="M287.91,-103.48C279.51,-104.71 271.17,-105.95 263.31,-107.11"/>
<polygon fill="#63b8ff" stroke="#63b8ff" points="288.15,-106.83 297.53,-101.91 287.13,-99.9 288.15,-106.83"/>
</a>
</g>
</g>
<!-- Node8&#45;&gt;Node8 -->
<g id="edge9_Node000008_Node000008" class="edge">
<title>Node8&#45;&gt;Node8</title>
<g id="a_edge9_Node000008_Node000008"><a xlink:title=" ">
<path fill="none" stroke="#63b8ff" d="M242.58,-134.77C239.63,-138.98 230.65,-142 215.62,-142 189.64,-142 181.72,-132.98 191.87,-124.34"/>
<polygon fill="#63b8ff" stroke="#63b8ff" points="245.66,-133.87 239.38,-125.34 238.97,-135.93 245.66,-133.87"/>
</a>
</g>
</g>
<!-- Node9 -->
<g id="Node000009" class="node">
<title>Node9</title>
<g id="a_Node000009"><a xlink:href="../../d3/dd4/classAV2XSensor.html#a48e67673a93165d20a70c95c44d9bb5b" target="_top" xlink:title=" ">
<polygon fill="white" stroke="#666666" points="132.25,-124 0,-124 0,-104 132.25,-104 132.25,-124"/>
<text text-anchor="middle" x="66.12" y="-110.5" font-family="Helvetica,sans-Serif" font-size="10.00">AV2XSensor::PrePhysTick</text>
</a>
</g>
</g>
<!-- Node8&#45;&gt;Node9 -->
<g id="edge8_Node000008_Node000009" class="edge">
<title>Node8&#45;&gt;Node9</title>
<g id="a_edge8_Node000008_Node000009"><a xlink:title=" ">
<path fill="none" stroke="#63b8ff" d="M157.19,-114C149.13,-114 140.81,-114 132.63,-114"/>
<polygon fill="#63b8ff" stroke="#63b8ff" points="156.96,-117.5 166.96,-114 156.96,-110.5 156.96,-117.5"/>
</a>
</g>
</g>
<!-- Node10&#45;&gt;Node7 -->
<g id="edge12_Node000010_Node000007" class="edge">
<title>Node10&#45;&gt;Node7</title>
<g id="a_edge12_Node000010_Node000007"><a xlink:title=" ">
<path fill="none" stroke="#63b8ff" d="M1009.76,-60.02C890.83,-60.61 663.24,-63.86 470.25,-79 458.7,-79.91 446.46,-81.18 434.6,-82.58"/>
<polygon fill="#63b8ff" stroke="#63b8ff" points="1009.59,-63.52 1019.57,-59.97 1009.56,-56.52 1009.59,-63.52"/>
</a>
</g>
</g>
<!-- Node11&#45;&gt;Node3 -->
<g id="edge14_Node000011_Node000003" class="edge">
<title>Node11&#45;&gt;Node3</title>
<g id="a_edge14_Node000011_Node000003"><a xlink:title=" ">
<path fill="none" stroke="#63b8ff" d="M1189.38,-107.75C1180.48,-108.89 1171.44,-110.04 1162.65,-111.17"/>
<polygon fill="#63b8ff" stroke="#63b8ff" points="1189.66,-111.12 1199.14,-106.38 1188.78,-104.18 1189.66,-111.12"/>
</a>
</g>
</g>
</g>
</svg>
