<?xml version="1.0" encoding="UTF-8" standalone="no"?>
<!DOCTYPE svg PUBLIC "-//W3C//DTD SVG 1.1//EN"
 "http://www.w3.org/Graphics/SVG/1.1/DTD/svg11.dtd">
<!-- Generated by graphviz version 8.1.0 (20230707.0739)
 -->
<!-- Title: carla::sensor::data::SemanticLidarMeasurement::SemanticLidarMeasurement Pages: 1 -->
<svg width="898pt" height="52pt"
 viewBox="0.00 0.00 897.50 52.00" xmlns="http://www.w3.org/2000/svg" xmlns:xlink="http://www.w3.org/1999/xlink">
<g id="graph0" class="graph" transform="scale(1 1) rotate(0) translate(4 48)">
<title>carla::sensor::data::SemanticLidarMeasurement::SemanticLidarMeasurement</title>
<!-- Node1 -->
<g id="Node000001" class="node">
<title>Node1</title>
<g id="a_Node000001"><a xlink:title=" ">
<polygon fill="#999999" stroke="#666666" points="143.5,-44 0,-44 0,0 143.5,0 143.5,-44"/>
<text text-anchor="start" x="8" y="-30.5" font-family="Helvetica,sans-Serif" font-size="10.00">carla::sensor::data</text>
<text text-anchor="start" x="8" y="-18.5" font-family="Helvetica,sans-Serif" font-size="10.00">::SemanticLidarMeasurement</text>
<text text-anchor="middle" x="71.75" y="-6.5" font-family="Helvetica,sans-Serif" font-size="10.00">::SemanticLidarMeasurement</text>
</a>
</g>
</g>
<!-- Node2 -->
<g id="Node000002" class="node">
<title>Node2</title>
<g id="a_Node000002"><a xlink:href="../../d2/ddd/classcarla_1_1sensor_1_1s11n_1_1SemanticLidarSerializer.html#aa62f50268366605137597a22efc437fa" target="_top" xlink:title=" ">
<polygon fill="white" stroke="#666666" points="304.25,-44 179.5,-44 179.5,0 304.25,0 304.25,-44"/>
<text text-anchor="start" x="187.5" y="-30.5" font-family="Helvetica,sans-Serif" font-size="10.00">carla::sensor::s11n</text>
<text text-anchor="start" x="187.5" y="-18.5" font-family="Helvetica,sans-Serif" font-size="10.00">::SemanticLidarSerializer</text>
<text text-anchor="middle" x="241.88" y="-6.5" font-family="Helvetica,sans-Serif" font-size="10.00">::GetHeaderOffset</text>
</a>
</g>
</g>
<!-- Node1&#45;&gt;Node2 -->
<g id="edge1_Node000001_Node000002" class="edge">
<title>Node1&#45;&gt;Node2</title>
<g id="a_edge1_Node000001_Node000002"><a xlink:title=" ">
<path fill="none" stroke="#63b8ff" d="M143.56,-22C151.8,-22 160.21,-22 168.47,-22"/>
<polygon fill="#63b8ff" stroke="#63b8ff" points="168.21,-25.5 178.21,-22 168.21,-18.5 168.21,-25.5"/>
</a>
</g>
</g>
<!-- Node3 -->
<g id="Node000003" class="node">
<title>Node3</title>
<g id="a_Node000003"><a xlink:href="../../d2/ddd/classcarla_1_1sensor_1_1s11n_1_1SemanticLidarSerializer.html#ab68ae9b756e680f15b810a9300b79d74" target="_top" xlink:title=" ">
<polygon fill="white" stroke="#666666" points="465,-44 340.25,-44 340.25,0 465,0 465,-44"/>
<text text-anchor="start" x="348.25" y="-30.5" font-family="Helvetica,sans-Serif" font-size="10.00">carla::sensor::s11n</text>
<text text-anchor="start" x="348.25" y="-18.5" font-family="Helvetica,sans-Serif" font-size="10.00">::SemanticLidarSerializer</text>
<text text-anchor="middle" x="402.62" y="-6.5" font-family="Helvetica,sans-Serif" font-size="10.00">::DeserializeHeader</text>
</a>
</g>
</g>
<!-- Node2&#45;&gt;Node3 -->
<g id="edge2_Node000002_Node000003" class="edge">
<title>Node2&#45;&gt;Node3</title>
<g id="a_edge2_Node000002_Node000003"><a xlink:title=" ">
<path fill="none" stroke="#63b8ff" d="M304.71,-22C312.67,-22 320.88,-22 328.99,-22"/>
<polygon fill="#63b8ff" stroke="#63b8ff" points="328.96,-25.5 338.96,-22 328.96,-18.5 328.96,-25.5"/>
</a>
</g>
</g>
<!-- Node4 -->
<g id="Node000004" class="node">
<title>Node4</title>
<g id="a_Node000004"><a xlink:href="../../d3/da0/classcarla_1_1sensor_1_1RawData.html#ad29c6a9698aa66f593286f5e6fc601ea" target="_top" xlink:title="Begin iterator to the data generated by the sensor.">
<polygon fill="white" stroke="#666666" points="618.25,-38 501,-38 501,-6 618.25,-6 618.25,-38"/>
<text text-anchor="start" x="509" y="-24.5" font-family="Helvetica,sans-Serif" font-size="10.00">carla::sensor::RawData</text>
<text text-anchor="middle" x="559.62" y="-12.5" font-family="Helvetica,sans-Serif" font-size="10.00">::begin</text>
</a>
</g>
</g>
<!-- Node3&#45;&gt;Node4 -->
<g id="edge3_Node000003_Node000004" class="edge">
<title>Node3&#45;&gt;Node4</title>
<g id="a_edge3_Node000003_Node000004"><a xlink:title=" ">
<path fill="none" stroke="#63b8ff" d="M465.33,-22C473.34,-22 481.58,-22 489.7,-22"/>
<polygon fill="#63b8ff" stroke="#63b8ff" points="489.66,-25.5 499.66,-22 489.66,-18.5 489.66,-25.5"/>
</a>
</g>
</g>
<!-- Node5 -->
<g id="Node000005" class="node">
<title>Node5</title>
<g id="a_Node000005"><a xlink:href="../../d0/d0a/classcarla_1_1Buffer.html#a0afeda4355e6196d808ddf25142d5dbd" target="_top" xlink:title=" ">
<polygon fill="white" stroke="#666666" points="751.25,-32 654.25,-32 654.25,-12 751.25,-12 751.25,-32"/>
<text text-anchor="middle" x="702.75" y="-18.5" font-family="Helvetica,sans-Serif" font-size="10.00">carla::Buffer::begin</text>
</a>
</g>
</g>
<!-- Node4&#45;&gt;Node5 -->
<g id="edge4_Node000004_Node000005" class="edge">
<title>Node4&#45;&gt;Node5</title>
<g id="a_edge4_Node000004_Node000005"><a xlink:title=" ">
<path fill="none" stroke="#63b8ff" d="M618.43,-22C626.6,-22 635,-22 643.17,-22"/>
<polygon fill="#63b8ff" stroke="#63b8ff" points="643.15,-25.5 653.15,-22 643.15,-18.5 643.15,-25.5"/>
</a>
</g>
</g>
<!-- Node6 -->
<g id="Node000006" class="node">
<title>Node6</title>
<g id="a_Node000006"><a xlink:href="../../d0/d0a/classcarla_1_1Buffer.html#acbf9f37162db2ddffaf2ae2bfb9fd8a5" target="_top" xlink:title=" ">
<polygon fill="white" stroke="#666666" points="889.5,-32 787.25,-32 787.25,-12 889.5,-12 889.5,-32"/>
<text text-anchor="middle" x="838.38" y="-18.5" font-family="Helvetica,sans-Serif" font-size="10.00">carla::Buffer::cbegin</text>
</a>
</g>
</g>
<!-- Node5&#45;&gt;Node6 -->
<g id="edge5_Node000005_Node000006" class="edge">
<title>Node5&#45;&gt;Node6</title>
<g id="a_edge5_Node000005_Node000006"><a xlink:title=" ">
<path fill="none" stroke="#63b8ff" d="M751.61,-22C759.63,-22 768.05,-22 776.34,-22"/>
<polygon fill="#63b8ff" stroke="#63b8ff" points="776.14,-25.5 786.14,-22 776.14,-18.5 776.14,-25.5"/>
</a>
</g>
</g>
</g>
</svg>
