<?xml version="1.0" encoding="UTF-8" standalone="no"?>
<!DOCTYPE svg PUBLIC "-//W3C//DTD SVG 1.1//EN"
 "http://www.w3.org/Graphics/SVG/1.1/DTD/svg11.dtd">
<!-- Generated by graphviz version 8.1.0 (20230707.0739)
 -->
<!-- Title: FCarlaActor::SetActorAutopilot Pages: 1 -->
<!--zoomable 353 -->

<svg id="main" version="1.1" xmlns="http://www.w3.org/2000/svg" xmlns:xlink="http://www.w3.org/1999/xlink" xml:space="preserve" onload="init(evt)">
<style type="text/css"><![CDATA[
.node, .edge {opacity: 0.7;}
.node.selected, .edge.selected {opacity: 1;}
.edge:hover path { stroke: red; }
.edge:hover polygon { stroke: red; fill: red; }
]]></style>

<defs>
  <circle id="rim" cx="0" cy="0" r="7"/>
  <circle id="rim2" cx="0" cy="0" r="3.5"/>
  <g id="zoomPlus">
    <use xlink:href="#rim" fill="#404040"><set attributeName="fill" to="#808080" begin="zoomplus.mouseover" end="zoomplus.mouseout"/></use>
    <path d="M-4,0h8M0,-4v8" fill="none" stroke="white" stroke-width="1.5" pointer-events="none"/>
  </g>
  <g id="zoomMin">
    <use xlink:href="#rim" fill="#404040"><set attributeName="fill" to="#808080" begin="zoomminus.mouseover" end="zoomminus.mouseout"/></use>
    <path d="M-4,0h8" fill="none" stroke="white" stroke-width="1.5" pointer-events="none"/>
  </g>
  <g id="arrowUp" transform="translate(30 24)">
    <use xlink:href="#rim"/>
    <path pointer-events="none" fill="none" stroke="white" stroke-width="1.5" d="M0,-3.0v7 M-2.5,-0.5L0,-3.0L2.5,-0.5"/>
  </g>
  <g id="arrowRight" transform="rotate(90) translate(36 -43)">
    <use xlink:href="#rim"/>
    <path pointer-events="none" fill="none" stroke="white" stroke-width="1.5" d="M0,-3.0v7 M-2.5,-0.5L0,-3.0L2.5,-0.5"/>
  </g>
  <g id="arrowDown" transform="rotate(180) translate(-30 -48)">
    <use xlink:href="#rim"/>
    <path pointer-events="none" fill="none" stroke="white" stroke-width="1.5" d="M0,-3.0v7 M-2.5,-0.5L0,-3.0L2.5,-0.5"/>
  </g>
  <g id="arrowLeft" transform="rotate(270) translate(-36 17)">
    <use xlink:href="#rim"/>
    <path pointer-events="none" fill="none" stroke="white" stroke-width="1.5" d="M0,-3.0v7 M-2.5,-0.5L0,-3.0L2.5,-0.5"/>
  </g>
  <g id="resetDef">
    <use xlink:href="#rim2" fill="#404040"><set attributeName="fill" to="#808080" begin="reset.mouseover" end="reset.mouseout"/></use>
  </g>
</defs>
<script type="application/ecmascript">
var viewWidth = 1694;
var viewHeight = 353;
var sectionId = 'dynsection-63';
</script>
<script type="application/ecmascript" xlink:href="../../svg.min.js"/>
<svg id="graph" class="graph">
<g id="viewport">
<title>FCarlaActor::SetActorAutopilot</title>
<!-- Node1 -->
<g id="Node000001" class="node">
<title>Node1</title>
<g id="a_Node000001"><a xlink:title=" ">
<polygon fill="#999999" stroke="#666666" points="1685.5,-46.55 1535.25,-46.55 1535.25,-26.55 1685.5,-26.55 1685.5,-46.55"/>
<text text-anchor="middle" x="1610.38" y="-33.05" font-family="Helvetica,sans-Serif" font-size="10.00">FCarlaActor::SetActorAutopilot</text>
</a>
</g>
</g>
<!-- Node2 -->
<g id="Node000002" class="node">
<title>Node2</title>
<g id="a_Node000002"><a xlink:href="../../d7/d97/classFCarlaServer_1_1FPimpl.html#a675a6b572112a21e8bc011dddfd0de86" target="_top" xlink:title=" ">
<polygon fill="white" stroke="#666666" points="270.5,-237.55 162.25,-237.55 162.25,-205.55 270.5,-205.55 270.5,-237.55"/>
<text text-anchor="start" x="170.25" y="-224.05" font-family="Helvetica,sans-Serif" font-size="10.00">FCarlaServer::FPimpl</text>
<text text-anchor="middle" x="216.38" y="-212.05" font-family="Helvetica,sans-Serif" font-size="10.00">::BindActions</text>
</a>
</g>
</g>
<!-- Node1&#45;&gt;Node2 -->
<g id="edge1_Node000001_Node000002" class="edge">
<title>Node1&#45;&gt;Node2</title>
<g id="a_edge1_Node000001_Node000002"><a xlink:title=" ">
<path fill="none" stroke="#63b8ff" d="M1524.01,-27.44C1459.96,-21.39 1370.09,-14.55 1291,-14.55 1291,-14.55 1291,-14.55 583,-14.55 467.8,-14.55 421.91,27.95 324.5,-33.55 260.49,-73.96 230.88,-167.23 221.17,-205.11"/>
<polygon fill="#63b8ff" stroke="#63b8ff" points="1523.57,-31.01 1533.85,-28.48 1524.23,-24.04 1523.57,-31.01"/>
</a>
</g>
</g>
<!-- Node4 -->
<g id="Node000004" class="node">
<title>Node4</title>
<g id="a_Node000004"><a xlink:href="../../d8/d27/classCarlaReplayerHelper.html#abbf199ab4d7cf87c68f642c3b7bc0bfe" target="_top" xlink:title=" ">
<polygon fill="white" stroke="#666666" points="1499.25,-74.55 1394.75,-74.55 1394.75,-42.55 1499.25,-42.55 1499.25,-74.55"/>
<text text-anchor="start" x="1402.75" y="-61.05" font-family="Helvetica,sans-Serif" font-size="10.00">CarlaReplayerHelper</text>
<text text-anchor="middle" x="1447" y="-49.05" font-family="Helvetica,sans-Serif" font-size="10.00">::SetActorAutopilot</text>
</a>
</g>
</g>
<!-- Node1&#45;&gt;Node4 -->
<g id="edge3_Node000001_Node000004" class="edge">
<title>Node1&#45;&gt;Node4</title>
<g id="a_edge3_Node000001_Node000004"><a xlink:title=" ">
<path fill="none" stroke="#63b8ff" d="M1523.94,-48.2C1515.66,-49.33 1507.45,-50.44 1499.66,-51.51"/>
<polygon fill="#63b8ff" stroke="#63b8ff" points="1524.39,-51.53 1533.83,-46.71 1523.45,-44.59 1524.39,-51.53"/>
</a>
</g>
</g>
<!-- Node3 -->
<g id="Node000003" class="node">
<title>Node3</title>
<g id="a_Node000003"><a xlink:href="../../d7/d97/classFCarlaServer_1_1FPimpl.html#ab9ff29fc81bd2f9a14677941c7f7b62d" target="_top" xlink:title=" ">
<polygon fill="white" stroke="#666666" points="108.25,-237.55 0,-237.55 0,-205.55 108.25,-205.55 108.25,-237.55"/>
<text text-anchor="start" x="8" y="-224.05" font-family="Helvetica,sans-Serif" font-size="10.00">FCarlaServer::FPimpl</text>
<text text-anchor="middle" x="54.12" y="-212.05" font-family="Helvetica,sans-Serif" font-size="10.00">::FPimpl</text>
</a>
</g>
</g>
<!-- Node2&#45;&gt;Node3 -->
<g id="edge2_Node000002_Node000003" class="edge">
<title>Node2&#45;&gt;Node3</title>
<g id="a_edge2_Node000002_Node000003"><a xlink:title=" ">
<path fill="none" stroke="#63b8ff" d="M151.33,-221.55C137.14,-221.55 122.24,-221.55 108.53,-221.55"/>
<polygon fill="#63b8ff" stroke="#63b8ff" points="151.01,-225.05 161.01,-221.55 151.01,-218.05 151.01,-225.05"/>
</a>
</g>
</g>
<!-- Node5 -->
<g id="Node000005" class="node">
<title>Node5</title>
<g id="a_Node000005"><a xlink:href="../../d8/d27/classCarlaReplayerHelper.html#ad2578fb20f971e6e27bd1895d8884e6d" target="_top" xlink:title=" ">
<polygon fill="white" stroke="#666666" points="1358.75,-110.55 1221.25,-110.55 1221.25,-78.55 1358.75,-78.55 1358.75,-110.55"/>
<text text-anchor="start" x="1229.25" y="-97.05" font-family="Helvetica,sans-Serif" font-size="10.00">CarlaReplayerHelper</text>
<text text-anchor="middle" x="1290" y="-85.05" font-family="Helvetica,sans-Serif" font-size="10.00">::ProcessReplayerEventAdd</text>
</a>
</g>
</g>
<!-- Node4&#45;&gt;Node5 -->
<g id="edge4_Node000004_Node000005" class="edge">
<title>Node4&#45;&gt;Node5</title>
<g id="a_edge4_Node000004_Node000005"><a xlink:title=" ">
<path fill="none" stroke="#63b8ff" d="M1383.89,-72.98C1375.77,-74.86 1367.42,-76.8 1359.21,-78.71"/>
<polygon fill="#63b8ff" stroke="#63b8ff" points="1384.44,-76.21 1393.39,-70.54 1382.85,-69.39 1384.44,-76.21"/>
</a>
</g>
</g>
<!-- Node6 -->
<g id="Node000006" class="node">
<title>Node6</title>
<g id="a_Node000006"><a xlink:href="../../dc/dc6/classCarlaReplayer.html#a929a7a4c79086339485caba9f6562c8e" target="_top" xlink:title=" ">
<polygon fill="white" stroke="#666666" points="1185.25,-157.55 1020,-157.55 1020,-137.55 1185.25,-137.55 1185.25,-157.55"/>
<text text-anchor="middle" x="1102.62" y="-144.05" font-family="Helvetica,sans-Serif" font-size="10.00">CarlaReplayer::ProcessEventsAdd</text>
</a>
</g>
</g>
<!-- Node5&#45;&gt;Node6 -->
<g id="edge5_Node000005_Node000006" class="edge">
<title>Node5&#45;&gt;Node6</title>
<g id="a_edge5_Node000005_Node000006"><a xlink:title=" ">
<path fill="none" stroke="#63b8ff" d="M1221.05,-113.98C1193.7,-121.8 1163.25,-130.5 1140.21,-137.09"/>
<polygon fill="#63b8ff" stroke="#63b8ff" points="1221.71,-117.14 1230.36,-111.03 1219.79,-110.41 1221.71,-117.14"/>
</a>
</g>
</g>
<!-- Node7 -->
<g id="Node000007" class="node">
<title>Node7</title>
<g id="a_Node000007"><a xlink:href="../../dc/dc6/classCarlaReplayer.html#ae0a5643d88257bdceb9e12d5c33194cb" target="_top" xlink:title=" ">
<polygon fill="white" stroke="#666666" points="984,-193.55 833.75,-193.55 833.75,-173.55 984,-173.55 984,-193.55"/>
<text text-anchor="middle" x="908.88" y="-180.05" font-family="Helvetica,sans-Serif" font-size="10.00">CarlaReplayer::ProcessToTime</text>
</a>
</g>
</g>
<!-- Node6&#45;&gt;Node7 -->
<g id="edge6_Node000006_Node000007" class="edge">
<title>Node6&#45;&gt;Node7</title>
<g id="a_edge6_Node000006_Node000007"><a xlink:title=" ">
<path fill="none" stroke="#63b8ff" d="M1035.33,-159.99C1012.65,-164.25 987.51,-168.97 965.73,-173.06"/>
<polygon fill="#63b8ff" stroke="#63b8ff" points="1035.72,-163.3 1044.91,-158.01 1034.43,-156.42 1035.72,-163.3"/>
</a>
</g>
</g>
<!-- Node8 -->
<g id="Node000008" class="node">
<title>Node8</title>
<g id="a_Node000008"><a xlink:href="../../dc/dc6/classCarlaReplayer.html#ac70d3dbe1f79ffd25a695ec3bd2485e6" target="_top" xlink:title=" ">
<polygon fill="white" stroke="#666666" points="649,-98.55 519,-98.55 519,-66.55 649,-66.55 649,-98.55"/>
<text text-anchor="start" x="527" y="-85.05" font-family="Helvetica,sans-Serif" font-size="10.00">CarlaReplayer::CheckPlay</text>
<text text-anchor="middle" x="584" y="-73.05" font-family="Helvetica,sans-Serif" font-size="10.00">AfterMapLoaded</text>
</a>
</g>
</g>
<!-- Node7&#45;&gt;Node8 -->
<g id="edge7_Node000007_Node000008" class="edge">
<title>Node7&#45;&gt;Node8</title>
<g id="a_edge7_Node000007_Node000008"><a xlink:title=" ">
<path fill="none" stroke="#63b8ff" d="M864.09,-169.85C805.21,-151.43 700.61,-118.71 637.54,-98.99"/>
<polygon fill="#63b8ff" stroke="#63b8ff" points="862.95,-173.48 873.54,-173.12 865.04,-166.79 862.95,-173.48"/>
</a>
</g>
</g>
<!-- Node11 -->
<g id="Node000011" class="node">
<title>Node11</title>
<g id="a_Node000011"><a xlink:href="../../dc/dc6/classCarlaReplayer.html#a480fd94fedc2367d7f7f58f17f3cd5a4" target="_top" xlink:title=" ">
<polygon fill="white" stroke="#666666" points="648.25,-288.55 519.75,-288.55 519.75,-268.55 648.25,-268.55 648.25,-288.55"/>
<text text-anchor="middle" x="584" y="-275.05" font-family="Helvetica,sans-Serif" font-size="10.00">CarlaReplayer::ReplayFile</text>
</a>
</g>
</g>
<!-- Node7&#45;&gt;Node11 -->
<g id="edge10_Node000007_Node000011" class="edge">
<title>Node7&#45;&gt;Node11</title>
<g id="a_edge10_Node000007_Node000011"><a xlink:title=" ">
<path fill="none" stroke="#63b8ff" d="M865.04,-197.24C815.54,-212.92 731.55,-239.08 658.75,-259.55 648.44,-262.45 637.27,-265.41 626.82,-268.12"/>
<polygon fill="#63b8ff" stroke="#63b8ff" points="865.89,-200.33 874.36,-193.97 863.77,-193.66 865.89,-200.33"/>
</a>
</g>
</g>
<!-- Node13 -->
<g id="Node000013" class="node">
<title>Node13</title>
<g id="a_Node000013"><a xlink:href="../../dc/dc6/classCarlaReplayer.html#af627917f2c95135fb11b59af4f65dbf7" target="_top" xlink:title=" ">
<polygon fill="white" stroke="#666666" points="797.75,-193.55 694.75,-193.55 694.75,-173.55 797.75,-173.55 797.75,-193.55"/>
<text text-anchor="middle" x="746.25" y="-180.05" font-family="Helvetica,sans-Serif" font-size="10.00">CarlaReplayer::Stop</text>
</a>
</g>
</g>
<!-- Node7&#45;&gt;Node13 -->
<g id="edge13_Node000007_Node000013" class="edge">
<title>Node7&#45;&gt;Node13</title>
<g id="a_edge13_Node000007_Node000013"><a xlink:title=" ">
<path fill="none" stroke="#63b8ff" d="M822.68,-176.81C814.33,-176.85 806.05,-176.98 798.2,-177.22"/>
<polygon fill="#63b8ff" stroke="#63b8ff" points="822.67,-180.31 832.67,-176.82 822.68,-173.31 822.67,-180.31"/>
</a>
</g>
</g>
<!-- Node20 -->
<g id="Node000020" class="node">
<title>Node20</title>
<g id="a_Node000020"><a xlink:href="../../dc/dc6/classCarlaReplayer.html#a4aeceb13aaa5dfcbf3ee42d7582262a4" target="_top" xlink:title=" ">
<polygon fill="white" stroke="#666666" points="796.62,-311.55 695.88,-311.55 695.88,-291.55 796.62,-291.55 796.62,-311.55"/>
<text text-anchor="middle" x="746.25" y="-298.05" font-family="Helvetica,sans-Serif" font-size="10.00">CarlaReplayer::Tick</text>
</a>
</g>
</g>
<!-- Node7&#45;&gt;Node20 -->
<g id="edge25_Node000007_Node000020" class="edge">
<title>Node7&#45;&gt;Node20</title>
<g id="a_edge25_Node000007_Node000020"><a xlink:title=" ">
<path fill="none" stroke="#63b8ff" d="M884.89,-200.44C851.08,-225.27 788.96,-270.91 761.24,-291.27"/>
<polygon fill="#63b8ff" stroke="#63b8ff" points="886.63,-202.76 892.62,-194.02 882.49,-197.12 886.63,-202.76"/>
</a>
</g>
</g>
<!-- Node9 -->
<g id="Node000009" class="node">
<title>Node9</title>
<g id="a_Node000009"><a xlink:href="../../db/de5/classACarlaGameModeBase.html#a3909b055b351f69d7ad1e39a42e72e3d" target="_top" xlink:title=" ">
<polygon fill="white" stroke="#666666" points="457.88,-124.55 339.88,-124.55 339.88,-92.55 457.88,-92.55 457.88,-124.55"/>
<text text-anchor="start" x="347.88" y="-111.05" font-family="Helvetica,sans-Serif" font-size="10.00">ACarlaGameModeBase</text>
<text text-anchor="middle" x="398.88" y="-99.05" font-family="Helvetica,sans-Serif" font-size="10.00">::BeginPlay</text>
</a>
</g>
</g>
<!-- Node8&#45;&gt;Node9 -->
<g id="edge8_Node000008_Node000009" class="edge">
<title>Node8&#45;&gt;Node9</title>
<g id="a_edge8_Node000008_Node000009"><a xlink:title=" ">
<path fill="none" stroke="#63b8ff" d="M507.93,-93.21C491.35,-95.56 474.02,-98.02 458.21,-100.27"/>
<polygon fill="#63b8ff" stroke="#63b8ff" points="508.29,-96.55 517.69,-91.68 507.3,-89.62 508.29,-96.55"/>
</a>
</g>
</g>
<!-- Node10 -->
<g id="Node000010" class="node">
<title>Node10</title>
<g id="a_Node000010"><a xlink:href="../../dc/d49/classFCarlaEngine.html#ab4c918e4d4855a26ab57c4bb79ad4645" target="_top" xlink:title=" ">
<polygon fill="white" stroke="#666666" points="463.88,-74.55 333.88,-74.55 333.88,-42.55 463.88,-42.55 463.88,-74.55"/>
<text text-anchor="start" x="341.88" y="-61.05" font-family="Helvetica,sans-Serif" font-size="10.00">FCarlaEngine::NotifyBegin</text>
<text text-anchor="middle" x="398.88" y="-49.05" font-family="Helvetica,sans-Serif" font-size="10.00">Episode</text>
</a>
</g>
</g>
<!-- Node8&#45;&gt;Node10 -->
<g id="edge9_Node000008_Node000010" class="edge">
<title>Node8&#45;&gt;Node10</title>
<g id="a_edge9_Node000008_Node000010"><a xlink:title=" ">
<path fill="none" stroke="#63b8ff" d="M507.8,-72.69C493.37,-70.8 478.39,-68.84 464.33,-67"/>
<polygon fill="#63b8ff" stroke="#63b8ff" points="507.32,-76.29 517.69,-74.12 508.23,-69.35 507.32,-76.29"/>
</a>
</g>
</g>
<!-- Node12 -->
<g id="Node000012" class="node">
<title>Node12</title>
<g id="a_Node000012"><a xlink:href="../../dd/db9/classACarlaRecorder.html#a5dc891241c275eedcf6b1f189751520b" target="_top" xlink:title=" ">
<polygon fill="white" stroke="#666666" points="466.88,-288.55 330.88,-288.55 330.88,-268.55 466.88,-268.55 466.88,-288.55"/>
<text text-anchor="middle" x="398.88" y="-275.05" font-family="Helvetica,sans-Serif" font-size="10.00">ACarlaRecorder::ReplayFile</text>
</a>
</g>
</g>
<!-- Node11&#45;&gt;Node12 -->
<g id="edge11_Node000011_Node000012" class="edge">
<title>Node11&#45;&gt;Node12</title>
<g id="a_edge11_Node000011_Node000012"><a xlink:title=" ">
<path fill="none" stroke="#63b8ff" d="M508.65,-278.55C494.99,-278.55 480.8,-278.55 467.35,-278.55"/>
<polygon fill="#63b8ff" stroke="#63b8ff" points="508.47,-282.05 518.47,-278.55 508.47,-275.05 508.47,-282.05"/>
</a>
</g>
</g>
<!-- Node12&#45;&gt;Node2 -->
<g id="edge12_Node000012_Node000002" class="edge">
<title>Node12&#45;&gt;Node2</title>
<g id="a_edge12_Node000012_Node000002"><a xlink:title=" ">
<path fill="none" stroke="#63b8ff" d="M344.49,-265.31C337.74,-263.46 330.94,-261.52 324.5,-259.55 303.46,-253.11 280.43,-245.07 261.13,-238.05"/>
<polygon fill="#63b8ff" stroke="#63b8ff" points="343.45,-268.92 354.02,-268.12 345.26,-262.16 343.45,-268.92"/>
</a>
</g>
</g>
<!-- Node13&#45;&gt;Node7 -->
<g id="edge17_Node000013_Node000007" class="edge">
<title>Node13&#45;&gt;Node7</title>
<g id="a_edge17_Node000013_Node000007"><a xlink:title=" ">
<path fill="none" stroke="#63b8ff" d="M809.01,-190.14C817.09,-190.28 825.42,-190.33 833.67,-190.28"/>
<polygon fill="#63b8ff" stroke="#63b8ff" points="809.28,-186.62 799.2,-189.88 809.12,-193.62 809.28,-186.62"/>
</a>
</g>
</g>
<!-- Node13&#45;&gt;Node8 -->
<g id="edge14_Node000013_Node000008" class="edge">
<title>Node13&#45;&gt;Node8</title>
<g id="a_edge14_Node000013_Node000008"><a xlink:title=" ">
<path fill="none" stroke="#63b8ff" d="M726.14,-166.05C703.01,-144.98 666.23,-111.87 658.75,-107.55 653.25,-104.37 647.28,-101.52 641.2,-98.98"/>
<polygon fill="#63b8ff" stroke="#63b8ff" points="723.22,-168.03 732.96,-172.19 727.94,-162.86 723.22,-168.03"/>
</a>
</g>
</g>
<!-- Node13&#45;&gt;Node11 -->
<g id="edge18_Node000013_Node000011" class="edge">
<title>Node13&#45;&gt;Node11</title>
<g id="a_edge18_Node000013_Node000011"><a xlink:title=" ">
<path fill="none" stroke="#63b8ff" d="M729.5,-201.62C713.4,-218.97 686.84,-244.69 658.75,-259.55 652.32,-262.95 645.25,-265.77 638.11,-268.09"/>
<polygon fill="#63b8ff" stroke="#63b8ff" points="731.41,-204.62 735.52,-194.85 726.22,-199.92 731.41,-204.62"/>
</a>
</g>
</g>
<!-- Node14 -->
<g id="Node000014" class="node">
<title>Node14</title>
<g id="a_Node000014"><a xlink:href="../../dc/d84/classUCarlaEpisode.html#a04380aa760fc6891f1c51cdbe7ddb856" target="_top" xlink:title=" ">
<polygon fill="white" stroke="#666666" points="645.62,-174.55 522.38,-174.55 522.38,-154.55 645.62,-154.55 645.62,-174.55"/>
<text text-anchor="middle" x="584" y="-161.05" font-family="Helvetica,sans-Serif" font-size="10.00">UCarlaEpisode::EndPlay</text>
</a>
</g>
</g>
<!-- Node13&#45;&gt;Node14 -->
<g id="edge15_Node000013_Node000014" class="edge">
<title>Node13&#45;&gt;Node14</title>
<g id="a_edge15_Node000013_Node000014"><a xlink:title=" ">
<path fill="none" stroke="#63b8ff" d="M683.85,-176.27C671.45,-174.8 658.42,-173.25 646.04,-171.79"/>
<polygon fill="#63b8ff" stroke="#63b8ff" points="683.2,-179.84 693.55,-177.54 684.03,-172.88 683.2,-179.84"/>
</a>
</g>
</g>
<!-- Node16 -->
<g id="Node000016" class="node">
<title>Node16</title>
<g id="a_Node000016"><a xlink:href="../../dd/db9/classACarlaRecorder.html#aba719596bd56c72a39f902f6e9a5d290" target="_top" xlink:title=" ">
<polygon fill="white" stroke="#666666" points="639.62,-250.55 528.38,-250.55 528.38,-230.55 639.62,-230.55 639.62,-250.55"/>
<text text-anchor="middle" x="584" y="-237.05" font-family="Helvetica,sans-Serif" font-size="10.00">ACarlaRecorder::Start</text>
</a>
</g>
</g>
<!-- Node13&#45;&gt;Node16 -->
<g id="edge19_Node000013_Node000016" class="edge">
<title>Node13&#45;&gt;Node16</title>
<g id="a_edge19_Node000013_Node000016"><a xlink:title=" ">
<path fill="none" stroke="#63b8ff" d="M708.73,-197.94C693.36,-203.88 675.25,-210.72 658.75,-216.55 645.55,-221.21 630.9,-226.05 618.16,-230.15"/>
<polygon fill="#63b8ff" stroke="#63b8ff" points="709.82,-200.89 717.88,-194 707.29,-194.36 709.82,-200.89"/>
</a>
</g>
</g>
<!-- Node18 -->
<g id="Node000018" class="node">
<title>Node18</title>
<g id="a_Node000018"><a xlink:href="../../dd/db9/classACarlaRecorder.html#a33fb5180defd8c9c1d3063eff52c7a37" target="_top" xlink:title=" ">
<polygon fill="white" stroke="#666666" points="473.25,-212.55 324.5,-212.55 324.5,-192.55 473.25,-192.55 473.25,-212.55"/>
<text text-anchor="middle" x="398.88" y="-199.05" font-family="Helvetica,sans-Serif" font-size="10.00">ACarlaRecorder::StopReplayer</text>
</a>
</g>
</g>
<!-- Node13&#45;&gt;Node18 -->
<g id="edge22_Node000013_Node000018" class="edge">
<title>Node13&#45;&gt;Node18</title>
<g id="a_edge22_Node000013_Node000018"><a xlink:title=" ">
<path fill="none" stroke="#63b8ff" d="M683.31,-186.96C624.52,-190.19 536.13,-195.05 473.71,-198.49"/>
<polygon fill="#63b8ff" stroke="#63b8ff" points="683.5,-190.4 693.29,-186.35 683.11,-183.41 683.5,-190.4"/>
</a>
</g>
</g>
<!-- Node19 -->
<g id="Node000019" class="node">
<title>Node19</title>
<g id="a_Node000019"><a xlink:href="../../dc/dc6/classCarlaReplayer.html#a6dadadd7719c5e660d2e3d99b22f5961" target="_top" xlink:title=" ">
<polygon fill="white" stroke="#666666" points="658.75,-136.55 509.25,-136.55 509.25,-116.55 658.75,-116.55 658.75,-136.55"/>
<text text-anchor="middle" x="584" y="-123.05" font-family="Helvetica,sans-Serif" font-size="10.00">CarlaReplayer::~CarlaReplayer</text>
</a>
</g>
</g>
<!-- Node13&#45;&gt;Node19 -->
<g id="edge24_Node000013_Node000019" class="edge">
<title>Node13&#45;&gt;Node19</title>
<g id="a_edge24_Node000013_Node000019"><a xlink:title=" ">
<path fill="none" stroke="#63b8ff" d="M714.73,-168.7C698.38,-161.11 677.75,-152.12 658.75,-145.55 649.63,-142.39 639.71,-139.49 630.2,-136.96"/>
<polygon fill="#63b8ff" stroke="#63b8ff" points="712.77,-172.11 723.3,-173.2 715.75,-165.78 712.77,-172.11"/>
</a>
</g>
</g>
<!-- Node15 -->
<g id="Node000015" class="node">
<title>Node15</title>
<g id="a_Node000015"><a xlink:href="../../db/de5/classACarlaGameModeBase.html#a8e61df047eac428453a627a6de9ace75" target="_top" xlink:title=" ">
<polygon fill="white" stroke="#666666" points="457.88,-174.55 339.88,-174.55 339.88,-142.55 457.88,-142.55 457.88,-174.55"/>
<text text-anchor="start" x="347.88" y="-161.05" font-family="Helvetica,sans-Serif" font-size="10.00">ACarlaGameModeBase</text>
<text text-anchor="middle" x="398.88" y="-149.05" font-family="Helvetica,sans-Serif" font-size="10.00">::EndPlay</text>
</a>
</g>
</g>
<!-- Node14&#45;&gt;Node15 -->
<g id="edge16_Node000014_Node000015" class="edge">
<title>Node14&#45;&gt;Node15</title>
<g id="a_edge16_Node000014_Node000015"><a xlink:title=" ">
<path fill="none" stroke="#63b8ff" d="M511.22,-162.2C493.61,-161.62 474.98,-161.01 458.1,-160.46"/>
<polygon fill="#63b8ff" stroke="#63b8ff" points="510.91,-165.72 521.02,-162.55 511.14,-158.73 510.91,-165.72"/>
</a>
</g>
</g>
<!-- Node17 -->
<g id="Node000017" class="node">
<title>Node17</title>
<g id="a_Node000017"><a xlink:href="../../dc/d84/classUCarlaEpisode.html#a1059ce6d102804115b3243de46d46bec" target="_top" xlink:title=" ">
<polygon fill="white" stroke="#666666" points="472.12,-250.55 325.62,-250.55 325.62,-230.55 472.12,-230.55 472.12,-250.55"/>
<text text-anchor="middle" x="398.88" y="-237.05" font-family="Helvetica,sans-Serif" font-size="10.00">UCarlaEpisode::StartRecorder</text>
</a>
</g>
</g>
<!-- Node16&#45;&gt;Node17 -->
<g id="edge20_Node000016_Node000017" class="edge">
<title>Node16&#45;&gt;Node17</title>
<g id="a_edge20_Node000016_Node000017"><a xlink:title=" ">
<path fill="none" stroke="#63b8ff" d="M517.16,-240.55C502.64,-240.55 487.18,-240.55 472.41,-240.55"/>
<polygon fill="#63b8ff" stroke="#63b8ff" points="517.06,-244.05 527.06,-240.55 517.06,-237.05 517.06,-244.05"/>
</a>
</g>
</g>
<!-- Node17&#45;&gt;Node2 -->
<g id="edge21_Node000017_Node000002" class="edge">
<title>Node17&#45;&gt;Node2</title>
<g id="a_edge21_Node000017_Node000002"><a xlink:title=" ">
<path fill="none" stroke="#63b8ff" d="M314.53,-231.78C299.73,-230.22 284.68,-228.63 270.99,-227.19"/>
<polygon fill="#63b8ff" stroke="#63b8ff" points="313.93,-235.34 324.24,-232.9 314.66,-228.38 313.93,-235.34"/>
</a>
</g>
</g>
<!-- Node18&#45;&gt;Node2 -->
<g id="edge23_Node000018_Node000002" class="edge">
<title>Node18&#45;&gt;Node2</title>
<g id="a_edge23_Node000018_Node000002"><a xlink:title=" ">
<path fill="none" stroke="#63b8ff" d="M313.67,-211.41C299.12,-212.94 284.36,-214.5 270.92,-215.91"/>
<polygon fill="#63b8ff" stroke="#63b8ff" points="313.62,-214.83 323.2,-210.3 312.89,-207.87 313.62,-214.83"/>
</a>
</g>
</g>
<!-- Node20&#45;&gt;Node20 -->
<g id="edge26_Node000020_Node000020" class="edge">
<title>Node20&#45;&gt;Node20</title>
<g id="a_edge26_Node000020_Node000020"><a xlink:title=" ">
<path fill="none" stroke="#63b8ff" d="M775.5,-322.32C772.31,-326.53 762.56,-329.55 746.25,-329.55 718.05,-329.55 709.45,-320.52 720.47,-311.89"/>
<polygon fill="#63b8ff" stroke="#63b8ff" points="778.51,-321.27 772.03,-312.89 771.87,-323.48 778.51,-321.27"/>
</a>
</g>
</g>
<!-- Node21 -->
<g id="Node000021" class="node">
<title>Node21</title>
<g id="a_Node000021"><a xlink:href="../../dd/db9/classACarlaRecorder.html#a1074f19dfe5b16a9e10b24ef35b26abc" target="_top" xlink:title=" ">
<polygon fill="white" stroke="#666666" points="644.5,-326.55 523.5,-326.55 523.5,-306.55 644.5,-306.55 644.5,-326.55"/>
<text text-anchor="middle" x="584" y="-313.05" font-family="Helvetica,sans-Serif" font-size="10.00">ACarlaRecorder::Ticking</text>
</a>
</g>
</g>
<!-- Node20&#45;&gt;Node21 -->
<g id="edge27_Node000020_Node000021" class="edge">
<title>Node20&#45;&gt;Node21</title>
<g id="a_edge27_Node000020_Node000021"><a xlink:title=" ">
<path fill="none" stroke="#63b8ff" d="M684.69,-307.22C671.68,-308.44 657.93,-309.72 644.93,-310.94"/>
<polygon fill="#63b8ff" stroke="#63b8ff" points="684.79,-310.63 694.42,-306.21 684.14,-303.66 684.79,-310.63"/>
</a>
</g>
</g>
<!-- Node21&#45;&gt;Node21 -->
<g id="edge30_Node000021_Node000021" class="edge">
<title>Node21&#45;&gt;Node21</title>
<g id="a_edge30_Node000021_Node000021"><a xlink:title=" ">
<path fill="none" stroke="#63b8ff" d="M613.25,-337.32C610.06,-341.53 600.31,-344.55 584,-344.55 555.8,-344.55 547.2,-335.52 558.22,-326.89"/>
<polygon fill="#63b8ff" stroke="#63b8ff" points="616.26,-336.27 609.78,-327.89 609.62,-338.48 616.26,-336.27"/>
</a>
</g>
</g>
<!-- Node22 -->
<g id="Node000022" class="node">
<title>Node22</title>
<g id="a_Node000022"><a xlink:href="../../dc/d49/classFCarlaEngine.html#aff440c7ba9d004e4c5b60125cc4d709b" target="_top" xlink:title=" ">
<polygon fill="white" stroke="#666666" points="464.62,-326.55 333.12,-326.55 333.12,-306.55 464.62,-306.55 464.62,-326.55"/>
<text text-anchor="middle" x="398.88" y="-313.05" font-family="Helvetica,sans-Serif" font-size="10.00">FCarlaEngine::OnPostTick</text>
</a>
</g>
</g>
<!-- Node21&#45;&gt;Node22 -->
<g id="edge28_Node000021_Node000022" class="edge">
<title>Node21&#45;&gt;Node22</title>
<g id="a_edge28_Node000021_Node000022"><a xlink:title=" ">
<path fill="none" stroke="#63b8ff" d="M512.41,-316.55C496.82,-316.55 480.38,-316.55 465.03,-316.55"/>
<polygon fill="#63b8ff" stroke="#63b8ff" points="512.04,-320.05 522.04,-316.55 512.04,-313.05 512.04,-320.05"/>
</a>
</g>
</g>
<!-- Node23 -->
<g id="Node000023" class="node">
<title>Node23</title>
<g id="a_Node000023"><a xlink:href="../../dc/d49/classFCarlaEngine.html#ab8d13063cde985781237dd7da308227e" target="_top" xlink:title=" ">
<polygon fill="white" stroke="#666666" points="288.5,-326.55 144.25,-326.55 144.25,-306.55 288.5,-306.55 288.5,-326.55"/>
<text text-anchor="middle" x="216.38" y="-313.05" font-family="Helvetica,sans-Serif" font-size="10.00">FCarlaEngine::NotifyInitGame</text>
</a>
</g>
</g>
<!-- Node22&#45;&gt;Node23 -->
<g id="edge29_Node000022_Node000023" class="edge">
<title>Node22&#45;&gt;Node23</title>
<g id="a_edge29_Node000022_Node000023"><a xlink:title=" ">
<path fill="none" stroke="#63b8ff" d="M321.89,-316.55C310.94,-316.55 299.71,-316.55 288.86,-316.55"/>
<polygon fill="#63b8ff" stroke="#63b8ff" points="321.71,-320.05 331.71,-316.55 321.71,-313.05 321.71,-320.05"/>
</a>
</g>
</g>
</g>
</svg>

<g id="navigator" transform="translate(0 0)" fill="#404254">
  <rect fill="#f2f5e9" fill-opacity="0.5" stroke="#606060" stroke-width=".5" x="0" y="0" width="60" height="60"/>
  <use id="zoomplus" xlink:href="#zoomPlus" x="17" y="9" onmousedown="handleZoom(evt,'in')"/>
  <use id="zoomminus" xlink:href="#zoomMin" x="42" y="9" onmousedown="handleZoom(evt,'out')"/>
  <use id="reset" xlink:href="#resetDef" x="30" y="36" onmousedown="handleReset()"/>
   <use id="arrowup" xlink:href="#arrowUp" x="0" y="0" onmousedown="handlePan(0,-1)"/>
  <use id="arrowright" xlink:href="#arrowRight" x="0" y="0" onmousedown="handlePan(1,0)"/>
  <use id="arrowdown" xlink:href="#arrowDown" x="0" y="0" onmousedown="handlePan(0,1)"/>
  <use id="arrowleft" xlink:href="#arrowLeft" x="0" y="0" onmousedown="handlePan(-1,0)"/>
</g>
<svg viewBox="0 0 15 15" width="100%" height="30px" preserveAspectRatio="xMaxYMin meet">
 <g id="arrow_out" transform="scale(0.3 0.3)">
  <a xlink:href="classFCarlaActor_a3e4569904ca2768a52f295c4bff629da_icgraph_org.svg" target="_base">
   <rect id="button" ry="5" rx="5" y="6" x="6" height="38" width="38"
        fill="#f2f5e9" fill-opacity="0.5" stroke="#606060" stroke-width="1.0"/>
   <path id="arrow"
     d="M 11.500037,31.436501 C 11.940474,20.09759 22.043105,11.32322 32.158766,21.979434 L 37.068811,17.246167 C 37.068811,17.246167 37.088388,32 37.088388,32 L 22.160133,31.978069 C 22.160133,31.978069 26.997745,27.140456 26.997745,27.140456 C 18.528582,18.264221 13.291696,25.230495 11.500037,31.436501 z"
     style="fill:#404040;"/>
  </a>
 </g>
</svg>

<style type='text/css'>
<![CDATA[
[data-mouse-over-selected='false'] { opacity: 0.7; }
[data-mouse-over-selected='true']  { opacity: 1.0; }
]]>
</style>
<script type="application/ecmascript"><![CDATA[
document.addEventListener('DOMContentLoaded', (event) => {
  highlightEdges();
  highlightAdjacentNodes();
});
]]></script>
</svg>
