<?xml version="1.0" encoding="UTF-8" standalone="no"?>
<!DOCTYPE svg PUBLIC "-//W3C//DTD SVG 1.1//EN"
 "http://www.w3.org/Graphics/SVG/1.1/DTD/svg11.dtd">
<!-- Generated by graphviz version 8.1.0 (20230707.0739)
 -->
<!-- Title: carla::client::Map Pages: 1 -->
<!--zoomable 584 -->

<svg id="main" version="1.1" xmlns="http://www.w3.org/2000/svg" xmlns:xlink="http://www.w3.org/1999/xlink" xml:space="preserve" onload="init(evt)">
<style type="text/css"><![CDATA[
.node, .edge {opacity: 0.7;}
.node.selected, .edge.selected {opacity: 1;}
.edge:hover path { stroke: red; }
.edge:hover polygon { stroke: red; fill: red; }
]]></style>

<defs>
  <circle id="rim" cx="0" cy="0" r="7"/>
  <circle id="rim2" cx="0" cy="0" r="3.5"/>
  <g id="zoomPlus">
    <use xlink:href="#rim" fill="#404040"><set attributeName="fill" to="#808080" begin="zoomplus.mouseover" end="zoomplus.mouseout"/></use>
    <path d="M-4,0h8M0,-4v8" fill="none" stroke="white" stroke-width="1.5" pointer-events="none"/>
  </g>
  <g id="zoomMin">
    <use xlink:href="#rim" fill="#404040"><set attributeName="fill" to="#808080" begin="zoomminus.mouseover" end="zoomminus.mouseout"/></use>
    <path d="M-4,0h8" fill="none" stroke="white" stroke-width="1.5" pointer-events="none"/>
  </g>
  <g id="arrowUp" transform="translate(30 24)">
    <use xlink:href="#rim"/>
    <path pointer-events="none" fill="none" stroke="white" stroke-width="1.5" d="M0,-3.0v7 M-2.5,-0.5L0,-3.0L2.5,-0.5"/>
  </g>
  <g id="arrowRight" transform="rotate(90) translate(36 -43)">
    <use xlink:href="#rim"/>
    <path pointer-events="none" fill="none" stroke="white" stroke-width="1.5" d="M0,-3.0v7 M-2.5,-0.5L0,-3.0L2.5,-0.5"/>
  </g>
  <g id="arrowDown" transform="rotate(180) translate(-30 -48)">
    <use xlink:href="#rim"/>
    <path pointer-events="none" fill="none" stroke="white" stroke-width="1.5" d="M0,-3.0v7 M-2.5,-0.5L0,-3.0L2.5,-0.5"/>
  </g>
  <g id="arrowLeft" transform="rotate(270) translate(-36 17)">
    <use xlink:href="#rim"/>
    <path pointer-events="none" fill="none" stroke="white" stroke-width="1.5" d="M0,-3.0v7 M-2.5,-0.5L0,-3.0L2.5,-0.5"/>
  </g>
  <g id="resetDef">
    <use xlink:href="#rim2" fill="#404040"><set attributeName="fill" to="#808080" begin="reset.mouseover" end="reset.mouseout"/></use>
  </g>
</defs>
<script type="application/ecmascript">
var viewWidth = 1045;
var viewHeight = 584;
var sectionId = 'dynsection-1';
</script>
<script type="application/ecmascript" xlink:href="../../svg.min.js"/>
<svg id="graph" class="graph">
<g id="viewport">
<title>carla::client::Map</title>
<!-- Node1 -->
<g id="Node000001" class="node">
<title>Node1</title>
<g id="a_Node000001"><a xlink:title=" ">
<polygon fill="#999999" stroke="#666666" points="1037,-486 946,-486 946,-466 1037,-466 1037,-486"/>
<text text-anchor="middle" x="991.5" y="-472.5" font-family="Helvetica,sans-Serif" font-size="10.00">carla::client::Map</text>
</a>
</g>
</g>
<!-- Node2 -->
<g id="Node000002" class="node">
<title>Node2</title>
<g id="a_Node000002"><a xlink:href="../../da/d05/classEnableSharedFromThis.html" target="_top" xlink:title=" ">
<polygon fill="white" stroke="#666666" points="854.5,-576 737.25,-576 737.25,-544 854.5,-544 854.5,-576"/>
<text text-anchor="start" x="745.25" y="-562.5" font-family="Helvetica,sans-Serif" font-size="10.00">EnableSharedFromThis</text>
<text text-anchor="middle" x="795.88" y="-550.5" font-family="Helvetica,sans-Serif" font-size="10.00">&lt; Map &gt;</text>
</a>
</g>
</g>
<!-- Node2&#45;&gt;Node1 -->
<g id="edge1_Node000001_Node000002" class="edge">
<title>Node2&#45;&gt;Node1</title>
<g id="a_edge1_Node000001_Node000002"><a xlink:title=" ">
<path fill="none" stroke="#63b8ff" d="M853.04,-539.78C876.47,-530.92 903.81,-520.05 928,-509 943.18,-502.07 959.87,-493.19 972.18,-486.39"/>
<polygon fill="#63b8ff" stroke="#63b8ff" points="852.06,-536.78 843.92,-543.57 854.52,-543.34 852.06,-536.78"/>
</a>
</g>
</g>
<!-- Node3 -->
<g id="Node000003" class="node">
<title>Node3</title>
<g id="a_Node000003"><a xlink:href="../../d4/d8b/classcarla_1_1NonCopyable.html" target="_top" xlink:title="Inherit (privately) to suppress copy/move construction and assignment.">
<polygon fill="white" stroke="#666666" points="846.25,-526 745.5,-526 745.5,-506 846.25,-506 846.25,-526"/>
<text text-anchor="middle" x="795.88" y="-512.5" font-family="Helvetica,sans-Serif" font-size="10.00">carla::NonCopyable</text>
</a>
</g>
</g>
<!-- Node3&#45;&gt;Node1 -->
<g id="edge2_Node000001_Node000003" class="edge">
<title>Node3&#45;&gt;Node1</title>
<g id="a_edge2_Node000001_Node000003"><a xlink:title=" ">
<path fill="none" stroke="#8b1a1a" d="M857.38,-504.33C879.61,-499.95 904.97,-494.86 928,-490 933.77,-488.78 939.82,-487.47 945.8,-486.15"/>
<polygon fill="#8b1a1a" stroke="#8b1a1a" points="856.89,-501.05 847.75,-506.41 858.23,-507.92 856.89,-501.05"/>
</a>
</g>
</g>
<!-- Node4 -->
<g id="Node000004" class="node">
<title>Node4</title>
<g id="a_Node000004"><a xlink:title=" ">
<polygon fill="white" stroke="#666666" points="523.88,-477 483.88,-477 483.88,-457 523.88,-457 523.88,-477"/>
<text text-anchor="middle" x="503.88" y="-463.5" font-family="Helvetica,sans-Serif" font-size="10.00">string</text>
</a>
</g>
</g>
<!-- Node4&#45;&gt;Node1 -->
<g id="edge3_Node000001_Node000004" class="edge">
<title>Node4&#45;&gt;Node1</title>
<g id="a_edge3_Node000001_Node000004"><a xlink:title=" ">
<path fill="none" stroke="#9a32cd" stroke-dasharray="5,2" d="M535.09,-467.56C617.77,-469.09 848.07,-473.36 945.76,-475.17"/>
<polygon fill="#9a32cd" stroke="#9a32cd" points="535.27,-464.04 525.21,-467.36 535.15,-471.04 535.27,-464.04"/>
</a>
</g>
<text text-anchor="middle" x="795.88" y="-475.5" font-family="Helvetica,sans-Serif" font-size="10.00" fill="grey"> open_drive_file</text>
</g>
<!-- Node5 -->
<g id="Node000005" class="node">
<title>Node5</title>
<g id="a_Node000005"><a xlink:href="../../d1/d07/classcarla_1_1rpc_1_1MapInfo.html" target="_top" xlink:title=" ">
<polygon fill="white" stroke="#666666" points="844,-440 747.75,-440 747.75,-420 844,-420 844,-440"/>
<text text-anchor="middle" x="795.88" y="-426.5" font-family="Helvetica,sans-Serif" font-size="10.00">carla::rpc::MapInfo</text>
</a>
</g>
</g>
<!-- Node4&#45;&gt;Node5 -->
<g id="edge5_Node000005_Node000004" class="edge">
<title>Node4&#45;&gt;Node5</title>
<g id="a_edge5_Node000005_Node000004"><a xlink:title=" ">
<path fill="none" stroke="#9a32cd" stroke-dasharray="5,2" d="M534.65,-460.32C551,-456.84 571.67,-452.75 590.25,-450 643.92,-442.05 706,-436.49 747.57,-433.29"/>
<polygon fill="#9a32cd" stroke="#9a32cd" points="534.14,-457.06 525.11,-462.6 535.62,-463.91 534.14,-457.06"/>
</a>
</g>
<text text-anchor="middle" x="654.75" y="-452.5" font-family="Helvetica,sans-Serif" font-size="10.00" fill="grey"> name</text>
</g>
<!-- Node5&#45;&gt;Node1 -->
<g id="edge4_Node000001_Node000005" class="edge">
<title>Node5&#45;&gt;Node1</title>
<g id="a_edge4_Node000001_Node000005"><a xlink:title=" ">
<path fill="none" stroke="#9a32cd" stroke-dasharray="5,2" d="M855.12,-435.8C878.1,-438.89 904.55,-443.44 928,-450 942.03,-453.93 957.14,-460.15 968.98,-465.52"/>
<polygon fill="#9a32cd" stroke="#9a32cd" points="855.86,-432.24 845.5,-434.44 854.97,-439.18 855.86,-432.24"/>
</a>
</g>
<text text-anchor="middle" x="900.25" y="-452.5" font-family="Helvetica,sans-Serif" font-size="10.00" fill="grey"> _description</text>
</g>
<!-- Node6 -->
<g id="Node000006" class="node">
<title>Node6</title>
<g id="a_Node000006"><a xlink:title=" ">
<polygon fill="white" stroke="#666666" points="554.62,-430 453.12,-430 453.12,-398 554.62,-398 554.62,-430"/>
<text text-anchor="start" x="461.12" y="-416.5" font-family="Helvetica,sans-Serif" font-size="10.00">vector&lt; carla::geom</text>
<text text-anchor="middle" x="503.88" y="-404.5" font-family="Helvetica,sans-Serif" font-size="10.00">::Transform &gt;</text>
</a>
</g>
</g>
<!-- Node6&#45;&gt;Node5 -->
<g id="edge6_Node000005_Node000006" class="edge">
<title>Node6&#45;&gt;Node5</title>
<g id="a_edge6_Node000005_Node000006"><a xlink:title=" ">
<path fill="none" stroke="#9a32cd" stroke-dasharray="5,2" d="M565.68,-411.2C608.69,-409.97 667.64,-409.81 719.25,-415 729.11,-415.99 739.58,-417.66 749.5,-419.54"/>
<polygon fill="#9a32cd" stroke="#9a32cd" points="565.72,-407.73 555.83,-411.54 565.94,-414.73 565.72,-407.73"/>
</a>
</g>
<text text-anchor="middle" x="654.75" y="-417.5" font-family="Helvetica,sans-Serif" font-size="10.00" fill="grey"> recommended_spawn_points</text>
</g>
<!-- Node7 -->
<g id="Node000007" class="node">
<title>Node7</title>
<g id="a_Node000007"><a xlink:href="../../d0/d34/classcarla_1_1road_1_1Map.html" target="_top" xlink:title=" ">
<polygon fill="white" stroke="#666666" points="839.12,-293 752.62,-293 752.62,-273 839.12,-273 839.12,-293"/>
<text text-anchor="middle" x="795.88" y="-279.5" font-family="Helvetica,sans-Serif" font-size="10.00">carla::road::Map</text>
</a>
</g>
</g>
<!-- Node7&#45;&gt;Node1 -->
<g id="edge7_Node000001_Node000007" class="edge">
<title>Node7&#45;&gt;Node1</title>
<g id="a_edge7_Node000001_Node000007"><a xlink:title=" ">
<path fill="none" stroke="#9a32cd" stroke-dasharray="5,2" d="M814.89,-300.96C854.59,-340.53 948.58,-434.22 980.04,-465.57"/>
<polygon fill="#9a32cd" stroke="#9a32cd" points="817.84,-298.96 808.29,-294.38 812.9,-303.92 817.84,-298.96"/>
</a>
</g>
<text text-anchor="middle" x="900.25" y="-415.5" font-family="Helvetica,sans-Serif" font-size="10.00" fill="grey"> _map</text>
</g>
<!-- Node8 -->
<g id="Node000008" class="node">
<title>Node8</title>
<g id="a_Node000008"><a xlink:href="../../d7/d55/classcarla_1_1MovableNonCopyable.html" target="_top" xlink:title="Inherit (privately) to suppress copy construction and assignment.">
<polygon fill="white" stroke="#666666" points="330.12,-380 194.12,-380 194.12,-360 330.12,-360 330.12,-380"/>
<text text-anchor="middle" x="262.12" y="-366.5" font-family="Helvetica,sans-Serif" font-size="10.00">carla::MovableNonCopyable</text>
</a>
</g>
</g>
<!-- Node8&#45;&gt;Node7 -->
<g id="edge8_Node000007_Node000008" class="edge">
<title>Node8&#45;&gt;Node7</title>
<g id="a_edge8_Node000007_Node000008"><a xlink:title=" ">
<path fill="none" stroke="#8b1a1a" d="M341.18,-362.44C365.66,-359.79 392.74,-356.57 417.5,-353 552.34,-333.53 585.53,-325.1 719.25,-299 729.92,-296.92 741.41,-294.55 752.13,-292.29"/>
<polygon fill="#8b1a1a" stroke="#8b1a1a" points="341.07,-359.04 331.5,-363.58 341.81,-366 341.07,-359.04"/>
</a>
</g>
</g>
<!-- Node10 -->
<g id="Node000010" class="node">
<title>Node10</title>
<g id="a_Node000010"><a xlink:href="../../da/d3b/classcarla_1_1road_1_1MapData.html" target="_top" xlink:title=" ">
<polygon fill="white" stroke="#666666" points="557.25,-293 450.5,-293 450.5,-273 557.25,-273 557.25,-293"/>
<text text-anchor="middle" x="503.88" y="-279.5" font-family="Helvetica,sans-Serif" font-size="10.00">carla::road::MapData</text>
</a>
</g>
</g>
<!-- Node8&#45;&gt;Node10 -->
<g id="edge11_Node000010_Node000008" class="edge">
<title>Node8&#45;&gt;Node10</title>
<g id="a_edge11_Node000010_Node000008"><a xlink:title=" ">
<path fill="none" stroke="#8b1a1a" d="M325.17,-357.04C353.79,-350.17 387.89,-340.72 417.5,-329 442.55,-319.09 469.64,-303.6 486.43,-293.37"/>
<polygon fill="#8b1a1a" stroke="#8b1a1a" points="324.43,-353.85 315.5,-359.54 326.03,-360.67 324.43,-353.85"/>
</a>
</g>
</g>
<!-- Node9 -->
<g id="Node000009" class="node">
<title>Node9</title>
<g id="a_Node000009"><a xlink:title=" ">
<polygon fill="white" stroke="#666666" points="523.5,-255 484.25,-255 484.25,-235 523.5,-235 523.5,-255"/>
<text text-anchor="middle" x="503.88" y="-241.5" font-family="Helvetica,sans-Serif" font-size="10.00">friend</text>
</a>
</g>
</g>
<!-- Node9&#45;&gt;Node7 -->
<g id="edge9_Node000007_Node000009" class="edge">
<title>Node9&#45;&gt;Node7</title>
<g id="a_edge9_Node000007_Node000009"><a xlink:title=" ">
<path fill="none" stroke="#9a32cd" stroke-dasharray="5,2" d="M534.6,-247.05C576.1,-250.13 653.7,-256.73 719.25,-267 729.99,-268.68 741.5,-270.9 752.23,-273.15"/>
<polygon fill="#9a32cd" stroke="#9a32cd" points="535.12,-243.5 524.89,-246.27 534.61,-250.48 535.12,-243.5"/>
</a>
</g>
<text text-anchor="middle" x="654.75" y="-269.5" font-family="Helvetica,sans-Serif" font-size="10.00" fill="grey"> MapBuilder</text>
</g>
<!-- Node10&#45;&gt;Node7 -->
<g id="edge10_Node000007_Node000010" class="edge">
<title>Node10&#45;&gt;Node7</title>
<g id="a_edge10_Node000007_Node000010"><a xlink:title=" ">
<path fill="none" stroke="#9a32cd" stroke-dasharray="5,2" d="M568.55,-283C624.34,-283 703.87,-283 752.28,-283"/>
<polygon fill="#9a32cd" stroke="#9a32cd" points="568.73,-279.5 558.73,-283 568.73,-286.5 568.73,-279.5"/>
</a>
</g>
<text text-anchor="middle" x="654.75" y="-285.5" font-family="Helvetica,sans-Serif" font-size="10.00" fill="grey"> _data</text>
</g>
<!-- Node11 -->
<g id="Node000011" class="node">
<title>Node11</title>
<g id="a_Node000011"><a xlink:href="../../d3/df4/classcarla_1_1geom_1_1GeoLocation.html" target="_top" xlink:title=" ">
<polygon fill="white" stroke="#666666" points="326,-342 198.25,-342 198.25,-322 326,-322 326,-342"/>
<text text-anchor="middle" x="262.12" y="-328.5" font-family="Helvetica,sans-Serif" font-size="10.00">carla::geom::GeoLocation</text>
</a>
</g>
</g>
<!-- Node11&#45;&gt;Node10 -->
<g id="edge12_Node000010_Node000011" class="edge">
<title>Node11&#45;&gt;Node10</title>
<g id="a_edge12_Node000010_Node000011"><a xlink:title=" ">
<path fill="none" stroke="#9a32cd" stroke-dasharray="5,2" d="M324.8,-319.39C364.2,-311.34 414.67,-301.03 451.82,-293.44"/>
<polygon fill="#9a32cd" stroke="#9a32cd" points="324.36,-316.12 315.26,-321.55 325.76,-322.98 324.36,-316.12"/>
</a>
</g>
<text text-anchor="middle" x="383" y="-315.5" font-family="Helvetica,sans-Serif" font-size="10.00" fill="grey"> _geo_reference</text>
</g>
<!-- Node12 -->
<g id="Node000012" class="node">
<title>Node12</title>
<g id="a_Node000012"><a xlink:title=" ">
<polygon fill="white" stroke="#666666" points="81.62,-342 37.12,-342 37.12,-322 81.62,-322 81.62,-342"/>
<text text-anchor="middle" x="59.38" y="-328.5" font-family="Helvetica,sans-Serif" font-size="10.00">double</text>
</a>
</g>
</g>
<!-- Node12&#45;&gt;Node11 -->
<g id="edge13_Node000011_Node000012" class="edge">
<title>Node12&#45;&gt;Node11</title>
<g id="a_edge13_Node000011_Node000012"><a xlink:title=" ">
<path fill="none" stroke="#9a32cd" stroke-dasharray="5,2" d="M92.74,-332C121.07,-332 163.06,-332 198.02,-332"/>
<polygon fill="#9a32cd" stroke="#9a32cd" points="92.86,-328.5 82.86,-332 92.86,-335.5 92.86,-328.5"/>
</a>
</g>
<text text-anchor="middle" x="156.25" y="-358.5" font-family="Helvetica,sans-Serif" font-size="10.00" fill="grey"> altitude</text>
<text text-anchor="middle" x="156.25" y="-346.5" font-family="Helvetica,sans-Serif" font-size="10.00" fill="grey">latitude</text>
<text text-anchor="middle" x="156.25" y="-334.5" font-family="Helvetica,sans-Serif" font-size="10.00" fill="grey">longitude</text>
</g>
<!-- Node13 -->
<g id="Node000013" class="node">
<title>Node13</title>
<g id="a_Node000013"><a xlink:title=" ">
<polygon fill="white" stroke="#666666" points="324.5,-304 199.75,-304 199.75,-272 324.5,-272 324.5,-304"/>
<text text-anchor="start" x="207.75" y="-290.5" font-family="Helvetica,sans-Serif" font-size="10.00">unordered_map&lt; RoadId,</text>
<text text-anchor="middle" x="262.12" y="-278.5" font-family="Helvetica,sans-Serif" font-size="10.00"> carla::road::Road &gt;</text>
</a>
</g>
</g>
<!-- Node13&#45;&gt;Node10 -->
<g id="edge14_Node000010_Node000013" class="edge">
<title>Node13&#45;&gt;Node10</title>
<g id="a_edge14_Node000010_Node000013"><a xlink:title=" ">
<path fill="none" stroke="#9a32cd" stroke-dasharray="5,2" d="M335.57,-284.4C339.95,-284.25 344.28,-284.11 348.5,-284 382.39,-283.1 420.48,-282.84 450.35,-282.82"/>
<polygon fill="#9a32cd" stroke="#9a32cd" points="335.53,-280.94 325.67,-284.82 335.8,-287.94 335.53,-280.94"/>
</a>
</g>
<text text-anchor="middle" x="383" y="-286.5" font-family="Helvetica,sans-Serif" font-size="10.00" fill="grey"> _roads</text>
</g>
<!-- Node14 -->
<g id="Node000014" class="node">
<title>Node14</title>
<g id="a_Node000014"><a xlink:title=" ">
<polygon fill="white" stroke="#666666" points="323.38,-254 200.88,-254 200.88,-222 323.38,-222 323.38,-254"/>
<text text-anchor="start" x="208.88" y="-240.5" font-family="Helvetica,sans-Serif" font-size="10.00">unordered_map&lt; JuncId,</text>
<text text-anchor="middle" x="262.12" y="-228.5" font-family="Helvetica,sans-Serif" font-size="10.00"> carla::road::Junction &gt;</text>
</a>
</g>
</g>
<!-- Node14&#45;&gt;Node10 -->
<g id="edge15_Node000010_Node000014" class="edge">
<title>Node14&#45;&gt;Node10</title>
<g id="a_edge15_Node000010_Node000014"><a xlink:title=" ">
<path fill="none" stroke="#9a32cd" stroke-dasharray="5,2" d="M334.25,-250.64C360.44,-255.36 390.34,-260.83 417.5,-266 428.34,-268.06 439.94,-270.33 450.98,-272.52"/>
<polygon fill="#9a32cd" stroke="#9a32cd" points="335.12,-247.06 324.66,-248.73 333.88,-253.95 335.12,-247.06"/>
</a>
</g>
<text text-anchor="middle" x="383" y="-268.5" font-family="Helvetica,sans-Serif" font-size="10.00" fill="grey"> _junctions</text>
</g>
<!-- Node15 -->
<g id="Node000015" class="node">
<title>Node15</title>
<g id="a_Node000015"><a xlink:title=" ">
<polygon fill="white" stroke="#666666" points="323,-204 201.25,-204 201.25,-160 323,-160 323,-204"/>
<text text-anchor="start" x="209.25" y="-190.5" font-family="Helvetica,sans-Serif" font-size="10.00">unordered_map&lt; SignId,</text>
<text text-anchor="start" x="209.25" y="-178.5" font-family="Helvetica,sans-Serif" font-size="10.00"> std::unique_ptr&lt; carla</text>
<text text-anchor="middle" x="262.12" y="-166.5" font-family="Helvetica,sans-Serif" font-size="10.00">::road::Signal &gt; &gt;</text>
</a>
</g>
</g>
<!-- Node15&#45;&gt;Node10 -->
<g id="edge16_Node000010_Node000015" class="edge">
<title>Node15&#45;&gt;Node10</title>
<g id="a_edge16_Node000010_Node000015"><a xlink:title=" ">
<path fill="none" stroke="#9a32cd" stroke-dasharray="5,2" d="M333.45,-196.79C361.63,-205.2 393.13,-217.98 417.5,-237 428.87,-245.87 423.84,-255.52 435.5,-264 440.22,-267.43 445.53,-270.24 451.06,-272.55"/>
<polygon fill="#9a32cd" stroke="#9a32cd" points="334.82,-193.25 324.24,-193.88 332.9,-199.99 334.82,-193.25"/>
</a>
</g>
<text text-anchor="middle" x="383" y="-239.5" font-family="Helvetica,sans-Serif" font-size="10.00" fill="grey"> _signals</text>
</g>
<!-- Node16 -->
<g id="Node000016" class="node">
<title>Node16</title>
<g id="a_Node000016"><a xlink:title=" ">
<polygon fill="white" stroke="#666666" points="323.38,-142 200.88,-142 200.88,-98 323.38,-98 323.38,-142"/>
<text text-anchor="start" x="208.88" y="-128.5" font-family="Helvetica,sans-Serif" font-size="10.00">unordered_map&lt; ContId,</text>
<text text-anchor="start" x="208.88" y="-116.5" font-family="Helvetica,sans-Serif" font-size="10.00"> std::unique_ptr&lt; carla</text>
<text text-anchor="middle" x="262.12" y="-104.5" font-family="Helvetica,sans-Serif" font-size="10.00">::road::Controller &gt; &gt;</text>
</a>
</g>
</g>
<!-- Node16&#45;&gt;Node10 -->
<g id="edge17_Node000010_Node000016" class="edge">
<title>Node16&#45;&gt;Node10</title>
<g id="a_edge17_Node000010_Node000016"><a xlink:title=" ">
<path fill="none" stroke="#9a32cd" stroke-dasharray="5,2" d="M333.91,-135.09C363.72,-144.88 396.33,-160.71 417.5,-186 440.33,-213.28 410.95,-238.25 435.5,-264 439.61,-268.31 444.61,-271.67 450.02,-274.28"/>
<polygon fill="#9a32cd" stroke="#9a32cd" points="335.09,-131.48 324.5,-131.87 333.02,-138.17 335.09,-131.48"/>
</a>
</g>
<text text-anchor="middle" x="383" y="-188.5" font-family="Helvetica,sans-Serif" font-size="10.00" fill="grey"> _controllers</text>
</g>
<!-- Node17 -->
<g id="Node000017" class="node">
<title>Node17</title>
<g id="a_Node000017"><a xlink:href="../../d0/d6f/classcarla_1_1geom_1_1SegmentCloudRtree.html" target="_top" xlink:title=" ">
<polygon fill="white" stroke="#666666" points="572.25,-84 435.5,-84 435.5,-52 572.25,-52 572.25,-84"/>
<text text-anchor="start" x="443.5" y="-70.5" font-family="Helvetica,sans-Serif" font-size="10.00">carla::geom::SegmentCloud</text>
<text text-anchor="middle" x="503.88" y="-58.5" font-family="Helvetica,sans-Serif" font-size="10.00">Rtree&lt; Waypoint &gt;</text>
</a>
</g>
</g>
<!-- Node17&#45;&gt;Node7 -->
<g id="edge18_Node000007_Node000017" class="edge">
<title>Node17&#45;&gt;Node7</title>
<g id="a_edge18_Node000007_Node000017"><a xlink:title=" ">
<path fill="none" stroke="#9a32cd" stroke-dasharray="5,2" d="M535.24,-90.51C597.21,-136.46 736.18,-239.49 780.8,-272.56"/>
<polygon fill="#9a32cd" stroke="#9a32cd" points="537.79,-87.3 527.67,-84.16 533.62,-92.93 537.79,-87.3"/>
</a>
</g>
<text text-anchor="middle" x="654.75" y="-227.5" font-family="Helvetica,sans-Serif" font-size="10.00" fill="grey"> _rtree</text>
</g>
<!-- Node18 -->
<g id="Node000018" class="node">
<title>Node18</title>
<g id="a_Node000018"><a xlink:title=" ">
<polygon fill="white" stroke="#666666" points="118.75,-71 0,-71 0,-27 118.75,-27 118.75,-71"/>
<text text-anchor="start" x="8" y="-57.5" font-family="Helvetica,sans-Serif" font-size="10.00">rtree&lt; TreeElement,</text>
<text text-anchor="start" x="8" y="-45.5" font-family="Helvetica,sans-Serif" font-size="10.00"> boost::geometry::index</text>
<text text-anchor="middle" x="59.38" y="-33.5" font-family="Helvetica,sans-Serif" font-size="10.00">::linear&lt; 16 &gt; &gt;</text>
</a>
</g>
</g>
<!-- Node18&#45;&gt;Node17 -->
<g id="edge19_Node000017_Node000018" class="edge">
<title>Node18&#45;&gt;Node17</title>
<g id="a_edge19_Node000017_Node000018"><a xlink:title=" ">
<path fill="none" stroke="#9a32cd" stroke-dasharray="5,2" d="M130.04,-51.99C213.54,-55.58 352.54,-61.54 435.16,-65.09"/>
<polygon fill="#9a32cd" stroke="#9a32cd" points="130.28,-48.46 120.14,-51.52 129.98,-55.45 130.28,-48.46"/>
</a>
</g>
<text text-anchor="middle" x="262.12" y="-62.5" font-family="Helvetica,sans-Serif" font-size="10.00" fill="grey"> _rtree</text>
</g>
<!-- Node19 -->
<g id="Node000019" class="node">
<title>Node19</title>
<g id="a_Node000019"><a xlink:href="../../d0/d6f/classcarla_1_1geom_1_1SegmentCloudRtree.html" target="_top" xlink:title="Rtree class working with 3D segment clouds.">
<polygon fill="white" stroke="#666666" points="330.5,-32 193.75,-32 193.75,0 330.5,0 330.5,-32"/>
<text text-anchor="start" x="201.75" y="-18.5" font-family="Helvetica,sans-Serif" font-size="10.00">carla::geom::SegmentCloud</text>
<text text-anchor="middle" x="262.12" y="-6.5" font-family="Helvetica,sans-Serif" font-size="10.00">Rtree&lt; T, Dimension &gt;</text>
</a>
</g>
</g>
<!-- Node18&#45;&gt;Node19 -->
<g id="edge21_Node000019_Node000018" class="edge">
<title>Node18&#45;&gt;Node19</title>
<g id="a_edge21_Node000019_Node000018"><a xlink:title=" ">
<path fill="none" stroke="#9a32cd" stroke-dasharray="5,2" d="M129.61,-37.62C150.33,-34.21 173.01,-30.49 193.61,-27.1"/>
<polygon fill="#9a32cd" stroke="#9a32cd" points="129.28,-34.29 119.98,-39.37 130.42,-41.2 129.28,-34.29"/>
</a>
</g>
<text text-anchor="middle" x="156.25" y="-38.5" font-family="Helvetica,sans-Serif" font-size="10.00" fill="grey"> _rtree</text>
</g>
<!-- Node19&#45;&gt;Node17 -->
<g id="edge20_Node000017_Node000019" class="edge">
<title>Node19&#45;&gt;Node17</title>
<g id="a_edge20_Node000017_Node000019"><a xlink:title=" ">
<path fill="none" stroke="orange" stroke-dasharray="5,2" d="M341.44,-27.18C365.93,-31.22 392.96,-36.22 417.5,-42 428.96,-44.7 441.14,-48.09 452.61,-51.52"/>
<polygon fill="orange" stroke="orange" points="342.18,-23.6 331.75,-25.46 341.07,-30.51 342.18,-23.6"/>
</a>
</g>
<text text-anchor="middle" x="383" y="-44.5" font-family="Helvetica,sans-Serif" font-size="10.00" fill="grey"> &lt; Waypoint &gt;</text>
</g>
</g>
</svg>

<g id="navigator" transform="translate(0 0)" fill="#404254">
  <rect fill="#f2f5e9" fill-opacity="0.5" stroke="#606060" stroke-width=".5" x="0" y="0" width="60" height="60"/>
  <use id="zoomplus" xlink:href="#zoomPlus" x="17" y="9" onmousedown="handleZoom(evt,'in')"/>
  <use id="zoomminus" xlink:href="#zoomMin" x="42" y="9" onmousedown="handleZoom(evt,'out')"/>
  <use id="reset" xlink:href="#resetDef" x="30" y="36" onmousedown="handleReset()"/>
   <use id="arrowup" xlink:href="#arrowUp" x="0" y="0" onmousedown="handlePan(0,-1)"/>
  <use id="arrowright" xlink:href="#arrowRight" x="0" y="0" onmousedown="handlePan(1,0)"/>
  <use id="arrowdown" xlink:href="#arrowDown" x="0" y="0" onmousedown="handlePan(0,1)"/>
  <use id="arrowleft" xlink:href="#arrowLeft" x="0" y="0" onmousedown="handlePan(-1,0)"/>
</g>
<svg viewBox="0 0 15 15" width="100%" height="30px" preserveAspectRatio="xMaxYMin meet">
 <g id="arrow_out" transform="scale(0.3 0.3)">
  <a xlink:href="classcarla_1_1client_1_1Map__coll__graph_org.svg" target="_base">
   <rect id="button" ry="5" rx="5" y="6" x="6" height="38" width="38"
        fill="#f2f5e9" fill-opacity="0.5" stroke="#606060" stroke-width="1.0"/>
   <path id="arrow"
     d="M 11.500037,31.436501 C 11.940474,20.09759 22.043105,11.32322 32.158766,21.979434 L 37.068811,17.246167 C 37.068811,17.246167 37.088388,32 37.088388,32 L 22.160133,31.978069 C 22.160133,31.978069 26.997745,27.140456 26.997745,27.140456 C 18.528582,18.264221 13.291696,25.230495 11.500037,31.436501 z"
     style="fill:#404040;"/>
  </a>
 </g>
</svg>

<style type='text/css'>
<![CDATA[
[data-mouse-over-selected='false'] { opacity: 0.7; }
[data-mouse-over-selected='true']  { opacity: 1.0; }
]]>
</style>
<script type="application/ecmascript"><![CDATA[
document.addEventListener('DOMContentLoaded', (event) => {
  highlightEdges();
  highlightAdjacentNodes();
});
]]></script>
</svg>
