<?xml version="1.0" encoding="UTF-8" standalone="no"?>
<!DOCTYPE svg PUBLIC "-//W3C//DTD SVG 1.1//EN"
 "http://www.w3.org/Graphics/SVG/1.1/DTD/svg11.dtd">
<!-- Generated by graphviz version 8.1.0 (20230707.0739)
 -->
<!-- Title: FCarlaActor::GetTrafficLightState Pages: 1 -->
<svg width="843pt" height="91pt"
 viewBox="0.00 0.00 843.25 91.00" xmlns="http://www.w3.org/2000/svg" xmlns:xlink="http://www.w3.org/1999/xlink">
<g id="graph0" class="graph" transform="scale(1 1) rotate(0) translate(4 87)">
<title>FCarlaActor::GetTrafficLightState</title>
<!-- Node1 -->
<g id="Node000001" class="node">
<title>Node1</title>
<g id="a_Node000001"><a xlink:title=" ">
<polygon fill="#999999" stroke="#666666" points="835.25,-57 699.25,-57 699.25,-25 835.25,-25 835.25,-57"/>
<text text-anchor="start" x="707.25" y="-43.5" font-family="Helvetica,sans-Serif" font-size="10.00">FCarlaActor::GetTrafficLight</text>
<text text-anchor="middle" x="767.25" y="-31.5" font-family="Helvetica,sans-Serif" font-size="10.00">State</text>
</a>
</g>
</g>
<!-- Node2 -->
<g id="Node000002" class="node">
<title>Node2</title>
<g id="a_Node000002"><a xlink:href="../../de/db4/classFFrameData.html#af1cb1a1751af8708255aeecfa9918045" target="_top" xlink:title=" ">
<polygon fill="white" stroke="#666666" points="663.25,-83 523.5,-83 523.5,-51 663.25,-51 663.25,-83"/>
<text text-anchor="start" x="531.5" y="-69.5" font-family="Helvetica,sans-Serif" font-size="10.00">FFrameData::AddTrafficLight</text>
<text text-anchor="middle" x="593.38" y="-57.5" font-family="Helvetica,sans-Serif" font-size="10.00">State</text>
</a>
</g>
</g>
<!-- Node1&#45;&gt;Node2 -->
<g id="edge1_Node000001_Node000002" class="edge">
<title>Node1&#45;&gt;Node2</title>
<g id="a_edge1_Node000001_Node000002"><a xlink:title=" ">
<path fill="none" stroke="#63b8ff" d="M688.13,-52.82C679.95,-54.05 671.67,-55.31 663.6,-56.53"/>
<polygon fill="#63b8ff" stroke="#63b8ff" points="688.45,-56.16 697.81,-51.2 687.4,-49.24 688.45,-56.16"/>
</a>
</g>
</g>
<!-- Node6 -->
<g id="Node000006" class="node">
<title>Node6</title>
<g id="a_Node000006"><a xlink:href="../../dd/db9/classACarlaRecorder.html#aaf01c02f79e7335c224dcab7f2c18bb1" target="_top" xlink:title=" ">
<polygon fill="white" stroke="#666666" points="659.88,-32 526.88,-32 526.88,0 659.88,0 659.88,-32"/>
<text text-anchor="start" x="534.88" y="-18.5" font-family="Helvetica,sans-Serif" font-size="10.00">ACarlaRecorder::AddTraffic</text>
<text text-anchor="middle" x="593.38" y="-6.5" font-family="Helvetica,sans-Serif" font-size="10.00">LightState</text>
</a>
</g>
</g>
<!-- Node1&#45;&gt;Node6 -->
<g id="edge5_Node000001_Node000006" class="edge">
<title>Node1&#45;&gt;Node6</title>
<g id="a_edge5_Node000001_Node000006"><a xlink:title=" ">
<path fill="none" stroke="#63b8ff" d="M687.99,-29.62C678.71,-28.27 669.3,-26.9 660.21,-25.58"/>
<polygon fill="#63b8ff" stroke="#63b8ff" points="687.41,-33.22 697.81,-31.19 688.42,-26.29 687.41,-33.22"/>
</a>
</g>
</g>
<!-- Node3 -->
<g id="Node000003" class="node">
<title>Node3</title>
<g id="a_Node000003"><a xlink:href="../../de/db4/classFFrameData.html#a13396099d7e1c32df563893f7d0b35be" target="_top" xlink:title=" ">
<polygon fill="white" stroke="#666666" points="487.5,-79 347.75,-79 347.75,-59 487.5,-59 487.5,-79"/>
<text text-anchor="middle" x="417.62" y="-65.5" font-family="Helvetica,sans-Serif" font-size="10.00">FFrameData::GetFrameData</text>
</a>
</g>
</g>
<!-- Node2&#45;&gt;Node3 -->
<g id="edge2_Node000002_Node000003" class="edge">
<title>Node2&#45;&gt;Node3</title>
<g id="a_edge2_Node000002_Node000003"><a xlink:title=" ">
<path fill="none" stroke="#63b8ff" d="M512.47,-67.92C504.24,-68.01 495.94,-68.11 487.84,-68.2"/>
<polygon fill="#63b8ff" stroke="#63b8ff" points="512.25,-71.41 522.21,-67.8 512.17,-64.41 512.25,-71.41"/>
</a>
</g>
</g>
<!-- Node4 -->
<g id="Node000004" class="node">
<title>Node4</title>
<g id="a_Node000004"><a xlink:href="../../dc/d49/classFCarlaEngine.html#aff440c7ba9d004e4c5b60125cc4d709b" target="_top" xlink:title=" ">
<polygon fill="white" stroke="#666666" points="311.75,-51 180.25,-51 180.25,-31 311.75,-31 311.75,-51"/>
<text text-anchor="middle" x="246" y="-37.5" font-family="Helvetica,sans-Serif" font-size="10.00">FCarlaEngine::OnPostTick</text>
</a>
</g>
</g>
<!-- Node3&#45;&gt;Node4 -->
<g id="edge3_Node000003_Node000004" class="edge">
<title>Node3&#45;&gt;Node4</title>
<g id="a_edge3_Node000003_Node000004"><a xlink:title=" ">
<path fill="none" stroke="#63b8ff" d="M342.8,-56.81C332.04,-55.04 321.03,-53.22 310.5,-51.48"/>
<polygon fill="#63b8ff" stroke="#63b8ff" points="342.03,-60.4 352.46,-58.57 343.17,-53.49 342.03,-60.4"/>
</a>
</g>
</g>
<!-- Node5 -->
<g id="Node000005" class="node">
<title>Node5</title>
<g id="a_Node000005"><a xlink:href="../../dc/d49/classFCarlaEngine.html#ab8d13063cde985781237dd7da308227e" target="_top" xlink:title=" ">
<polygon fill="white" stroke="#666666" points="144.25,-51 0,-51 0,-31 144.25,-31 144.25,-51"/>
<text text-anchor="middle" x="72.12" y="-37.5" font-family="Helvetica,sans-Serif" font-size="10.00">FCarlaEngine::NotifyInitGame</text>
</a>
</g>
</g>
<!-- Node4&#45;&gt;Node5 -->
<g id="edge4_Node000004_Node000005" class="edge">
<title>Node4&#45;&gt;Node5</title>
<g id="a_edge4_Node000004_Node000005"><a xlink:title=" ">
<path fill="none" stroke="#63b8ff" d="M169.3,-41C161.06,-41 152.7,-41 144.52,-41"/>
<polygon fill="#63b8ff" stroke="#63b8ff" points="169.02,-44.5 179.02,-41 169.02,-37.5 169.02,-44.5"/>
</a>
</g>
</g>
<!-- Node7 -->
<g id="Node000007" class="node">
<title>Node7</title>
<g id="a_Node000007"><a xlink:href="../../dd/db9/classACarlaRecorder.html#a1074f19dfe5b16a9e10b24ef35b26abc" target="_top" xlink:title=" ">
<polygon fill="white" stroke="#666666" points="478.12,-23 357.12,-23 357.12,-3 478.12,-3 478.12,-23"/>
<text text-anchor="middle" x="417.62" y="-9.5" font-family="Helvetica,sans-Serif" font-size="10.00">ACarlaRecorder::Ticking</text>
</a>
</g>
</g>
<!-- Node6&#45;&gt;Node7 -->
<g id="edge6_Node000006_Node000007" class="edge">
<title>Node6&#45;&gt;Node7</title>
<g id="a_edge6_Node000006_Node000007"><a xlink:title=" ">
<path fill="none" stroke="#63b8ff" d="M515.78,-14.68C503.26,-14.46 490.44,-14.24 478.4,-14.03"/>
<polygon fill="#63b8ff" stroke="#63b8ff" points="515.63,-18.19 525.69,-14.87 515.75,-11.19 515.63,-18.19"/>
</a>
</g>
</g>
<!-- Node7&#45;&gt;Node4 -->
<g id="edge7_Node000007_Node000004" class="edge">
<title>Node7&#45;&gt;Node4</title>
<g id="a_edge7_Node000007_Node000004"><a xlink:title=" ">
<path fill="none" stroke="#63b8ff" d="M346.13,-24.64C334.34,-26.58 322.18,-28.59 310.58,-30.51"/>
<polygon fill="#63b8ff" stroke="#63b8ff" points="346.53,-27.95 355.82,-22.87 345.39,-21.05 346.53,-27.95"/>
</a>
</g>
</g>
<!-- Node7&#45;&gt;Node7 -->
<g id="edge8_Node000007_Node000007" class="edge">
<title>Node7&#45;&gt;Node7</title>
<g id="a_edge8_Node000007_Node000007"><a xlink:title=" ">
<path fill="none" stroke="#63b8ff" d="M448.83,-33.43C445.74,-37.82 435.34,-41 417.62,-41 387.79,-41 378.7,-31.98 390.36,-23.34"/>
<polygon fill="#63b8ff" stroke="#63b8ff" points="451.79,-32.38 444.89,-24.34 445.27,-34.93 451.79,-32.38"/>
</a>
</g>
</g>
</g>
</svg>
