<?xml version="1.0" encoding="UTF-8" standalone="no"?>
<!DOCTYPE svg PUBLIC "-//W3C//DTD SVG 1.1//EN"
 "http://www.w3.org/Graphics/SVG/1.1/DTD/svg11.dtd">
<!-- Generated by graphviz version 8.1.0 (20230707.0739)
 -->
<!-- Title: FCarlaActor::SetActorGlobalTransform Pages: 1 -->
<!--zoomable 474 -->

<svg id="main" version="1.1" xmlns="http://www.w3.org/2000/svg" xmlns:xlink="http://www.w3.org/1999/xlink" xml:space="preserve" onload="init(evt)">
<style type="text/css"><![CDATA[
.node, .edge {opacity: 0.7;}
.node.selected, .edge.selected {opacity: 1;}
.edge:hover path { stroke: red; }
.edge:hover polygon { stroke: red; fill: red; }
]]></style>

<defs>
  <circle id="rim" cx="0" cy="0" r="7"/>
  <circle id="rim2" cx="0" cy="0" r="3.5"/>
  <g id="zoomPlus">
    <use xlink:href="#rim" fill="#404040"><set attributeName="fill" to="#808080" begin="zoomplus.mouseover" end="zoomplus.mouseout"/></use>
    <path d="M-4,0h8M0,-4v8" fill="none" stroke="white" stroke-width="1.5" pointer-events="none"/>
  </g>
  <g id="zoomMin">
    <use xlink:href="#rim" fill="#404040"><set attributeName="fill" to="#808080" begin="zoomminus.mouseover" end="zoomminus.mouseout"/></use>
    <path d="M-4,0h8" fill="none" stroke="white" stroke-width="1.5" pointer-events="none"/>
  </g>
  <g id="arrowUp" transform="translate(30 24)">
    <use xlink:href="#rim"/>
    <path pointer-events="none" fill="none" stroke="white" stroke-width="1.5" d="M0,-3.0v7 M-2.5,-0.5L0,-3.0L2.5,-0.5"/>
  </g>
  <g id="arrowRight" transform="rotate(90) translate(36 -43)">
    <use xlink:href="#rim"/>
    <path pointer-events="none" fill="none" stroke="white" stroke-width="1.5" d="M0,-3.0v7 M-2.5,-0.5L0,-3.0L2.5,-0.5"/>
  </g>
  <g id="arrowDown" transform="rotate(180) translate(-30 -48)">
    <use xlink:href="#rim"/>
    <path pointer-events="none" fill="none" stroke="white" stroke-width="1.5" d="M0,-3.0v7 M-2.5,-0.5L0,-3.0L2.5,-0.5"/>
  </g>
  <g id="arrowLeft" transform="rotate(270) translate(-36 17)">
    <use xlink:href="#rim"/>
    <path pointer-events="none" fill="none" stroke="white" stroke-width="1.5" d="M0,-3.0v7 M-2.5,-0.5L0,-3.0L2.5,-0.5"/>
  </g>
  <g id="resetDef">
    <use xlink:href="#rim2" fill="#404040"><set attributeName="fill" to="#808080" begin="reset.mouseover" end="reset.mouseout"/></use>
  </g>
</defs>
<script type="application/ecmascript">
var viewWidth = 1733;
var viewHeight = 474;
var sectionId = 'dynsection-71';
</script>
<script type="application/ecmascript" xlink:href="../../svg.min.js"/>
<svg id="graph" class="graph">
<g id="viewport">
<title>FCarlaActor::SetActorGlobalTransform</title>
<!-- Node1 -->
<g id="Node000001" class="node">
<title>Node1</title>
<g id="a_Node000001"><a xlink:title=" ">
<polygon fill="#999999" stroke="#666666" points="1725.25,-130 1585.5,-130 1585.5,-98 1725.25,-98 1725.25,-130"/>
<text text-anchor="start" x="1593.5" y="-116.5" font-family="Helvetica,sans-Serif" font-size="10.00">FCarlaActor::SetActorGlobal</text>
<text text-anchor="middle" x="1655.38" y="-104.5" font-family="Helvetica,sans-Serif" font-size="10.00">Transform</text>
</a>
</g>
</g>
<!-- Node2 -->
<g id="Node000002" class="node">
<title>Node2</title>
<g id="a_Node000002"><a xlink:href="../../d7/d97/classFCarlaServer_1_1FPimpl.html#a675a6b572112a21e8bc011dddfd0de86" target="_top" xlink:title=" ">
<polygon fill="white" stroke="#666666" points="270.5,-359 162.25,-359 162.25,-327 270.5,-327 270.5,-359"/>
<text text-anchor="start" x="170.25" y="-345.5" font-family="Helvetica,sans-Serif" font-size="10.00">FCarlaServer::FPimpl</text>
<text text-anchor="middle" x="216.38" y="-333.5" font-family="Helvetica,sans-Serif" font-size="10.00">::BindActions</text>
</a>
</g>
</g>
<!-- Node1&#45;&gt;Node2 -->
<g id="edge1_Node000001_Node000002" class="edge">
<title>Node1&#45;&gt;Node2</title>
<g id="a_edge1_Node000001_Node000002"><a xlink:title=" ">
<path fill="none" stroke="#63b8ff" d="M1574.48,-121.47C1499.27,-127.85 1383.47,-136 1282.75,-136 1282.75,-136 1282.75,-136 583,-136 467.8,-136 421.91,-93.5 324.5,-155 260.49,-195.41 230.88,-288.68 221.17,-326.56"/>
<polygon fill="#63b8ff" stroke="#63b8ff" points="1574.61,-124.88 1584.27,-120.54 1574.01,-117.91 1574.61,-124.88"/>
</a>
</g>
</g>
<!-- Node4 -->
<g id="Node000004" class="node">
<title>Node4</title>
<g id="a_Node000004"><a xlink:href="../../de/db4/classFFrameData.html#a224d896be06d6bbf9d2936f3963e4843" target="_top" xlink:title=" ">
<polygon fill="white" stroke="#666666" points="1544.62,-108 1394.38,-108 1394.38,-76 1544.62,-76 1544.62,-108"/>
<text text-anchor="start" x="1402.38" y="-94.5" font-family="Helvetica,sans-Serif" font-size="10.00">FFrameData::ProcessReplayer</text>
<text text-anchor="middle" x="1469.5" y="-82.5" font-family="Helvetica,sans-Serif" font-size="10.00">Position</text>
</a>
</g>
</g>
<!-- Node1&#45;&gt;Node4 -->
<g id="edge3_Node000001_Node000004" class="edge">
<title>Node1&#45;&gt;Node4</title>
<g id="a_edge3_Node000001_Node000004"><a xlink:title=" ">
<path fill="none" stroke="#63b8ff" d="M1574.23,-104.41C1564.49,-103.24 1554.57,-102.06 1544.91,-100.9"/>
<polygon fill="#63b8ff" stroke="#63b8ff" points="1573.78,-108 1584.12,-105.71 1574.61,-101.05 1573.78,-108"/>
</a>
</g>
</g>
<!-- Node6 -->
<g id="Node000006" class="node">
<title>Node6</title>
<g id="a_Node000006"><a xlink:href="../../d8/d27/classCarlaReplayerHelper.html#ae25c1f0a7d03b705ac18908e46af2c69" target="_top" xlink:title=" ">
<polygon fill="white" stroke="#666666" points="1535.25,-241 1403.75,-241 1403.75,-209 1535.25,-209 1535.25,-241"/>
<text text-anchor="start" x="1411.75" y="-227.5" font-family="Helvetica,sans-Serif" font-size="10.00">CarlaReplayerHelper</text>
<text text-anchor="middle" x="1469.5" y="-215.5" font-family="Helvetica,sans-Serif" font-size="10.00">::ProcessReplayerPosition</text>
</a>
</g>
</g>
<!-- Node1&#45;&gt;Node6 -->
<g id="edge5_Node000001_Node000006" class="edge">
<title>Node1&#45;&gt;Node6</title>
<g id="a_edge5_Node000001_Node000006"><a xlink:title=" ">
<path fill="none" stroke="#63b8ff" d="M1626.3,-137.34C1605.84,-153.66 1576.99,-175.26 1549.5,-191 1538.23,-197.45 1525.49,-203.45 1513.59,-208.55"/>
<polygon fill="#63b8ff" stroke="#63b8ff" points="1628.22,-139.48 1633.81,-130.48 1623.83,-134.03 1628.22,-139.48"/>
</a>
</g>
</g>
<!-- Node26 -->
<g id="Node000026" class="node">
<title>Node26</title>
<g id="a_Node000026"><a xlink:href="../../de/db4/classFFrameData.html#a92c77c96fab62bab915a7419b491d72a" target="_top" xlink:title=" ">
<polygon fill="white" stroke="#666666" points="1549.5,-58 1389.5,-58 1389.5,-38 1549.5,-38 1549.5,-58"/>
<text text-anchor="middle" x="1469.5" y="-44.5" font-family="Helvetica,sans-Serif" font-size="10.00">FFrameData::SetCameraPosition</text>
</a>
</g>
</g>
<!-- Node1&#45;&gt;Node26 -->
<g id="edge33_Node000001_Node000026" class="edge">
<title>Node1&#45;&gt;Node26</title>
<g id="a_edge33_Node000001_Node000026"><a xlink:title=" ">
<path fill="none" stroke="#63b8ff" d="M1612.18,-92.94C1593.32,-84.09 1570.63,-74.21 1549.5,-67 1540.15,-63.81 1530.01,-60.95 1520.21,-58.47"/>
<polygon fill="#63b8ff" stroke="#63b8ff" points="1610.41,-96.45 1620.94,-97.58 1613.42,-90.13 1610.41,-96.45"/>
</a>
</g>
</g>
<!-- Node27 -->
<g id="Node000027" class="node">
<title>Node27</title>
<g id="a_Node000027"><a xlink:href="../../d8/d27/classCarlaReplayerHelper.html#aee66c1ec57db9bff60d6d22c9c08a09d" target="_top" xlink:title=" ">
<polygon fill="white" stroke="#666666" points="1334.75,-196 1228.75,-196 1228.75,-164 1334.75,-164 1334.75,-196"/>
<text text-anchor="start" x="1236.75" y="-182.5" font-family="Helvetica,sans-Serif" font-size="10.00">CarlaReplayerHelper</text>
<text text-anchor="middle" x="1281.75" y="-170.5" font-family="Helvetica,sans-Serif" font-size="10.00">::SetCameraPosition</text>
</a>
</g>
</g>
<!-- Node1&#45;&gt;Node27 -->
<g id="edge34_Node000001_Node000027" class="edge">
<title>Node1&#45;&gt;Node27</title>
<g id="a_edge34_Node000001_Node000027"><a xlink:title=" ">
<path fill="none" stroke="#63b8ff" d="M1602.96,-134.15C1586.15,-140.07 1567.23,-146.01 1549.5,-150 1476.19,-166.5 1389.4,-174.11 1335.2,-177.49"/>
<polygon fill="#63b8ff" stroke="#63b8ff" points="1603.91,-137.17 1612.13,-130.49 1601.54,-130.59 1603.91,-137.17"/>
</a>
</g>
</g>
<!-- Node28 -->
<g id="Node000028" class="node">
<title>Node28</title>
<g id="a_Node000028"><a xlink:href="../../df/dbd/classFWalkerActor.html#a9e8cc958f7bdbf3e30d8752da1566eb8" target="_top" xlink:title=" ">
<polygon fill="white" stroke="#666666" points="1545,-20 1394,-20 1394,0 1545,0 1545,-20"/>
<text text-anchor="middle" x="1469.5" y="-6.5" font-family="Helvetica,sans-Serif" font-size="10.00">FWalkerActor::SetWalkerState</text>
</a>
</g>
</g>
<!-- Node1&#45;&gt;Node28 -->
<g id="edge36_Node000001_Node000028" class="edge">
<title>Node1&#45;&gt;Node28</title>
<g id="a_edge36_Node000001_Node000028"><a xlink:title=" ">
<path fill="none" stroke="#63b8ff" d="M1631.3,-90.13C1611.37,-70.86 1580.9,-44.5 1549.5,-29 1542.54,-25.57 1534.93,-22.73 1527.26,-20.39"/>
<polygon fill="#63b8ff" stroke="#63b8ff" points="1628.34,-92.11 1637.92,-96.64 1633.26,-87.12 1628.34,-92.11"/>
</a>
</g>
</g>
<!-- Node3 -->
<g id="Node000003" class="node">
<title>Node3</title>
<g id="a_Node000003"><a xlink:href="../../d7/d97/classFCarlaServer_1_1FPimpl.html#ab9ff29fc81bd2f9a14677941c7f7b62d" target="_top" xlink:title=" ">
<polygon fill="white" stroke="#666666" points="108.25,-359 0,-359 0,-327 108.25,-327 108.25,-359"/>
<text text-anchor="start" x="8" y="-345.5" font-family="Helvetica,sans-Serif" font-size="10.00">FCarlaServer::FPimpl</text>
<text text-anchor="middle" x="54.12" y="-333.5" font-family="Helvetica,sans-Serif" font-size="10.00">::FPimpl</text>
</a>
</g>
</g>
<!-- Node2&#45;&gt;Node3 -->
<g id="edge2_Node000002_Node000003" class="edge">
<title>Node2&#45;&gt;Node3</title>
<g id="a_edge2_Node000002_Node000003"><a xlink:title=" ">
<path fill="none" stroke="#63b8ff" d="M151.33,-343C137.14,-343 122.24,-343 108.53,-343"/>
<polygon fill="#63b8ff" stroke="#63b8ff" points="151.01,-346.5 161.01,-343 151.01,-339.5 151.01,-346.5"/>
</a>
</g>
</g>
<!-- Node5 -->
<g id="Node000005" class="node">
<title>Node5</title>
<g id="a_Node000005"><a xlink:href="../../de/db4/classFFrameData.html#aa23cccda1659af6f10264e73a73c1e27" target="_top" xlink:title=" ">
<polygon fill="white" stroke="#666666" points="1353.5,-102 1210,-102 1210,-82 1353.5,-82 1353.5,-102"/>
<text text-anchor="middle" x="1281.75" y="-88.5" font-family="Helvetica,sans-Serif" font-size="10.00">FFrameData::PlayFrameData</text>
</a>
</g>
</g>
<!-- Node4&#45;&gt;Node5 -->
<g id="edge4_Node000004_Node000005" class="edge">
<title>Node4&#45;&gt;Node5</title>
<g id="a_edge4_Node000004_Node000005"><a xlink:title=" ">
<path fill="none" stroke="#63b8ff" d="M1383.08,-92C1373.33,-92 1363.47,-92 1353.93,-92"/>
<polygon fill="#63b8ff" stroke="#63b8ff" points="1383.02,-95.5 1393.02,-92 1383.02,-88.5 1383.02,-95.5"/>
</a>
</g>
</g>
<!-- Node7 -->
<g id="Node000007" class="node">
<title>Node7</title>
<g id="a_Node000007"><a xlink:href="../../dc/dc6/classCarlaReplayer.html#a38b36d848f1ae6b12ab802b3788a734b" target="_top" xlink:title=" ">
<polygon fill="white" stroke="#666666" points="1345.62,-246 1217.88,-246 1217.88,-214 1345.62,-214 1345.62,-246"/>
<text text-anchor="start" x="1225.88" y="-232.5" font-family="Helvetica,sans-Serif" font-size="10.00">CarlaReplayer::Interpolate</text>
<text text-anchor="middle" x="1281.75" y="-220.5" font-family="Helvetica,sans-Serif" font-size="10.00">Position</text>
</a>
</g>
</g>
<!-- Node6&#45;&gt;Node7 -->
<g id="edge6_Node000006_Node000007" class="edge">
<title>Node6&#45;&gt;Node7</title>
<g id="a_edge6_Node000006_Node000007"><a xlink:title=" ">
<path fill="none" stroke="#63b8ff" d="M1392.66,-227.04C1377.14,-227.46 1360.96,-227.89 1345.95,-228.3"/>
<polygon fill="#63b8ff" stroke="#63b8ff" points="1392.37,-230.52 1402.27,-226.76 1392.18,-223.53 1392.37,-230.52"/>
</a>
</g>
</g>
<!-- Node8 -->
<g id="Node000008" class="node">
<title>Node8</title>
<g id="a_Node000008"><a xlink:href="../../dc/dc6/classCarlaReplayer.html#a90bb49a890e2a2cd8b85152f17ca8fed" target="_top" xlink:title=" ">
<polygon fill="white" stroke="#666666" points="1174,-240 1020,-240 1020,-220 1174,-220 1174,-240"/>
<text text-anchor="middle" x="1097" y="-226.5" font-family="Helvetica,sans-Serif" font-size="10.00">CarlaReplayer::UpdatePositions</text>
</a>
</g>
</g>
<!-- Node7&#45;&gt;Node8 -->
<g id="edge7_Node000007_Node000008" class="edge">
<title>Node7&#45;&gt;Node8</title>
<g id="a_edge7_Node000007_Node000008"><a xlink:title=" ">
<path fill="none" stroke="#63b8ff" d="M1206.66,-230C1196.03,-230 1185.07,-230 1174.39,-230"/>
<polygon fill="#63b8ff" stroke="#63b8ff" points="1206.6,-233.5 1216.6,-230 1206.6,-226.5 1206.6,-233.5"/>
</a>
</g>
</g>
<!-- Node9 -->
<g id="Node000009" class="node">
<title>Node9</title>
<g id="a_Node000009"><a xlink:href="../../dc/dc6/classCarlaReplayer.html#ae0a5643d88257bdceb9e12d5c33194cb" target="_top" xlink:title=" ">
<polygon fill="white" stroke="#666666" points="984,-315 833.75,-315 833.75,-295 984,-295 984,-315"/>
<text text-anchor="middle" x="908.88" y="-301.5" font-family="Helvetica,sans-Serif" font-size="10.00">CarlaReplayer::ProcessToTime</text>
</a>
</g>
</g>
<!-- Node8&#45;&gt;Node9 -->
<g id="edge8_Node000008_Node000009" class="edge">
<title>Node8&#45;&gt;Node9</title>
<g id="a_edge8_Node000008_Node000009"><a xlink:title=" ">
<path fill="none" stroke="#63b8ff" d="M1059.93,-244.54C1023.51,-259.21 968.15,-281.52 935.83,-294.54"/>
<polygon fill="#63b8ff" stroke="#63b8ff" points="1061.15,-247.41 1069.12,-240.43 1058.54,-240.92 1061.15,-247.41"/>
</a>
</g>
</g>
<!-- Node10 -->
<g id="Node000010" class="node">
<title>Node10</title>
<g id="a_Node000010"><a xlink:href="../../dc/dc6/classCarlaReplayer.html#ac70d3dbe1f79ffd25a695ec3bd2485e6" target="_top" xlink:title=" ">
<polygon fill="white" stroke="#666666" points="649,-220 519,-220 519,-188 649,-188 649,-220"/>
<text text-anchor="start" x="527" y="-206.5" font-family="Helvetica,sans-Serif" font-size="10.00">CarlaReplayer::CheckPlay</text>
<text text-anchor="middle" x="584" y="-194.5" font-family="Helvetica,sans-Serif" font-size="10.00">AfterMapLoaded</text>
</a>
</g>
</g>
<!-- Node9&#45;&gt;Node10 -->
<g id="edge9_Node000009_Node000010" class="edge">
<title>Node9&#45;&gt;Node10</title>
<g id="a_edge9_Node000009_Node000010"><a xlink:title=" ">
<path fill="none" stroke="#63b8ff" d="M864.09,-291.3C805.21,-272.88 700.61,-240.16 637.54,-220.44"/>
<polygon fill="#63b8ff" stroke="#63b8ff" points="862.95,-294.93 873.54,-294.57 865.04,-288.25 862.95,-294.93"/>
</a>
</g>
</g>
<!-- Node13 -->
<g id="Node000013" class="node">
<title>Node13</title>
<g id="a_Node000013"><a xlink:href="../../dc/dc6/classCarlaReplayer.html#a480fd94fedc2367d7f7f58f17f3cd5a4" target="_top" xlink:title=" ">
<polygon fill="white" stroke="#666666" points="648.25,-410 519.75,-410 519.75,-390 648.25,-390 648.25,-410"/>
<text text-anchor="middle" x="584" y="-396.5" font-family="Helvetica,sans-Serif" font-size="10.00">CarlaReplayer::ReplayFile</text>
</a>
</g>
</g>
<!-- Node9&#45;&gt;Node13 -->
<g id="edge12_Node000009_Node000013" class="edge">
<title>Node9&#45;&gt;Node13</title>
<g id="a_edge12_Node000009_Node000013"><a xlink:title=" ">
<path fill="none" stroke="#63b8ff" d="M865.04,-318.69C815.54,-334.37 731.55,-360.53 658.75,-381 648.44,-383.9 637.27,-386.87 626.82,-389.57"/>
<polygon fill="#63b8ff" stroke="#63b8ff" points="865.89,-321.78 874.36,-315.42 863.77,-315.11 865.89,-321.78"/>
</a>
</g>
</g>
<!-- Node15 -->
<g id="Node000015" class="node">
<title>Node15</title>
<g id="a_Node000015"><a xlink:href="../../dc/dc6/classCarlaReplayer.html#af627917f2c95135fb11b59af4f65dbf7" target="_top" xlink:title=" ">
<polygon fill="white" stroke="#666666" points="797.75,-315 694.75,-315 694.75,-295 797.75,-295 797.75,-315"/>
<text text-anchor="middle" x="746.25" y="-301.5" font-family="Helvetica,sans-Serif" font-size="10.00">CarlaReplayer::Stop</text>
</a>
</g>
</g>
<!-- Node9&#45;&gt;Node15 -->
<g id="edge15_Node000009_Node000015" class="edge">
<title>Node9&#45;&gt;Node15</title>
<g id="a_edge15_Node000009_Node000015"><a xlink:title=" ">
<path fill="none" stroke="#63b8ff" d="M822.68,-298.26C814.33,-298.3 806.05,-298.43 798.2,-298.67"/>
<polygon fill="#63b8ff" stroke="#63b8ff" points="822.67,-301.76 832.67,-298.27 822.68,-294.76 822.67,-301.76"/>
</a>
</g>
</g>
<!-- Node22 -->
<g id="Node000022" class="node">
<title>Node22</title>
<g id="a_Node000022"><a xlink:href="../../dc/dc6/classCarlaReplayer.html#a4aeceb13aaa5dfcbf3ee42d7582262a4" target="_top" xlink:title=" ">
<polygon fill="white" stroke="#666666" points="796.62,-433 695.88,-433 695.88,-413 796.62,-413 796.62,-433"/>
<text text-anchor="middle" x="746.25" y="-419.5" font-family="Helvetica,sans-Serif" font-size="10.00">CarlaReplayer::Tick</text>
</a>
</g>
</g>
<!-- Node9&#45;&gt;Node22 -->
<g id="edge27_Node000009_Node000022" class="edge">
<title>Node9&#45;&gt;Node22</title>
<g id="a_edge27_Node000009_Node000022"><a xlink:title=" ">
<path fill="none" stroke="#63b8ff" d="M884.89,-321.89C851.08,-346.72 788.96,-392.36 761.24,-412.72"/>
<polygon fill="#63b8ff" stroke="#63b8ff" points="886.63,-324.21 892.62,-315.47 882.49,-318.57 886.63,-324.21"/>
</a>
</g>
</g>
<!-- Node11 -->
<g id="Node000011" class="node">
<title>Node11</title>
<g id="a_Node000011"><a xlink:href="../../db/de5/classACarlaGameModeBase.html#a3909b055b351f69d7ad1e39a42e72e3d" target="_top" xlink:title=" ">
<polygon fill="white" stroke="#666666" points="457.88,-246 339.88,-246 339.88,-214 457.88,-214 457.88,-246"/>
<text text-anchor="start" x="347.88" y="-232.5" font-family="Helvetica,sans-Serif" font-size="10.00">ACarlaGameModeBase</text>
<text text-anchor="middle" x="398.88" y="-220.5" font-family="Helvetica,sans-Serif" font-size="10.00">::BeginPlay</text>
</a>
</g>
</g>
<!-- Node10&#45;&gt;Node11 -->
<g id="edge10_Node000010_Node000011" class="edge">
<title>Node10&#45;&gt;Node11</title>
<g id="a_edge10_Node000010_Node000011"><a xlink:title=" ">
<path fill="none" stroke="#63b8ff" d="M507.93,-214.66C491.35,-217.01 474.02,-219.47 458.21,-221.72"/>
<polygon fill="#63b8ff" stroke="#63b8ff" points="508.29,-218 517.69,-213.13 507.3,-211.07 508.29,-218"/>
</a>
</g>
</g>
<!-- Node12 -->
<g id="Node000012" class="node">
<title>Node12</title>
<g id="a_Node000012"><a xlink:href="../../dc/d49/classFCarlaEngine.html#ab4c918e4d4855a26ab57c4bb79ad4645" target="_top" xlink:title=" ">
<polygon fill="white" stroke="#666666" points="463.88,-196 333.88,-196 333.88,-164 463.88,-164 463.88,-196"/>
<text text-anchor="start" x="341.88" y="-182.5" font-family="Helvetica,sans-Serif" font-size="10.00">FCarlaEngine::NotifyBegin</text>
<text text-anchor="middle" x="398.88" y="-170.5" font-family="Helvetica,sans-Serif" font-size="10.00">Episode</text>
</a>
</g>
</g>
<!-- Node10&#45;&gt;Node12 -->
<g id="edge11_Node000010_Node000012" class="edge">
<title>Node10&#45;&gt;Node12</title>
<g id="a_edge11_Node000010_Node000012"><a xlink:title=" ">
<path fill="none" stroke="#63b8ff" d="M507.8,-194.14C493.37,-192.25 478.39,-190.29 464.33,-188.45"/>
<polygon fill="#63b8ff" stroke="#63b8ff" points="507.32,-197.74 517.69,-195.57 508.23,-190.8 507.32,-197.74"/>
</a>
</g>
</g>
<!-- Node14 -->
<g id="Node000014" class="node">
<title>Node14</title>
<g id="a_Node000014"><a xlink:href="../../dd/db9/classACarlaRecorder.html#a5dc891241c275eedcf6b1f189751520b" target="_top" xlink:title=" ">
<polygon fill="white" stroke="#666666" points="466.88,-410 330.88,-410 330.88,-390 466.88,-390 466.88,-410"/>
<text text-anchor="middle" x="398.88" y="-396.5" font-family="Helvetica,sans-Serif" font-size="10.00">ACarlaRecorder::ReplayFile</text>
</a>
</g>
</g>
<!-- Node13&#45;&gt;Node14 -->
<g id="edge13_Node000013_Node000014" class="edge">
<title>Node13&#45;&gt;Node14</title>
<g id="a_edge13_Node000013_Node000014"><a xlink:title=" ">
<path fill="none" stroke="#63b8ff" d="M508.65,-400C494.99,-400 480.8,-400 467.35,-400"/>
<polygon fill="#63b8ff" stroke="#63b8ff" points="508.47,-403.5 518.47,-400 508.47,-396.5 508.47,-403.5"/>
</a>
</g>
</g>
<!-- Node14&#45;&gt;Node2 -->
<g id="edge14_Node000014_Node000002" class="edge">
<title>Node14&#45;&gt;Node2</title>
<g id="a_edge14_Node000014_Node000002"><a xlink:title=" ">
<path fill="none" stroke="#63b8ff" d="M344.49,-386.76C337.74,-384.92 330.94,-382.97 324.5,-381 303.46,-374.56 280.43,-366.52 261.13,-359.5"/>
<polygon fill="#63b8ff" stroke="#63b8ff" points="343.45,-390.37 354.02,-389.58 345.26,-383.61 343.45,-390.37"/>
</a>
</g>
</g>
<!-- Node15&#45;&gt;Node9 -->
<g id="edge19_Node000015_Node000009" class="edge">
<title>Node15&#45;&gt;Node9</title>
<g id="a_edge19_Node000015_Node000009"><a xlink:title=" ">
<path fill="none" stroke="#63b8ff" d="M809.01,-311.59C817.09,-311.73 825.42,-311.78 833.67,-311.73"/>
<polygon fill="#63b8ff" stroke="#63b8ff" points="809.28,-308.07 799.2,-311.33 809.12,-315.07 809.28,-308.07"/>
</a>
</g>
</g>
<!-- Node15&#45;&gt;Node10 -->
<g id="edge16_Node000015_Node000010" class="edge">
<title>Node15&#45;&gt;Node10</title>
<g id="a_edge16_Node000015_Node000010"><a xlink:title=" ">
<path fill="none" stroke="#63b8ff" d="M726.14,-287.5C703.01,-266.43 666.23,-233.32 658.75,-229 653.25,-225.82 647.28,-222.97 641.2,-220.43"/>
<polygon fill="#63b8ff" stroke="#63b8ff" points="723.22,-289.48 732.96,-293.64 727.94,-284.31 723.22,-289.48"/>
</a>
</g>
</g>
<!-- Node15&#45;&gt;Node13 -->
<g id="edge20_Node000015_Node000013" class="edge">
<title>Node15&#45;&gt;Node13</title>
<g id="a_edge20_Node000015_Node000013"><a xlink:title=" ">
<path fill="none" stroke="#63b8ff" d="M729.5,-323.07C713.4,-340.43 686.84,-366.14 658.75,-381 652.32,-384.4 645.25,-387.22 638.11,-389.54"/>
<polygon fill="#63b8ff" stroke="#63b8ff" points="731.41,-326.07 735.52,-316.31 726.22,-321.37 731.41,-326.07"/>
</a>
</g>
</g>
<!-- Node16 -->
<g id="Node000016" class="node">
<title>Node16</title>
<g id="a_Node000016"><a xlink:href="../../dc/d84/classUCarlaEpisode.html#a04380aa760fc6891f1c51cdbe7ddb856" target="_top" xlink:title=" ">
<polygon fill="white" stroke="#666666" points="645.62,-296 522.38,-296 522.38,-276 645.62,-276 645.62,-296"/>
<text text-anchor="middle" x="584" y="-282.5" font-family="Helvetica,sans-Serif" font-size="10.00">UCarlaEpisode::EndPlay</text>
</a>
</g>
</g>
<!-- Node15&#45;&gt;Node16 -->
<g id="edge17_Node000015_Node000016" class="edge">
<title>Node15&#45;&gt;Node16</title>
<g id="a_edge17_Node000015_Node000016"><a xlink:title=" ">
<path fill="none" stroke="#63b8ff" d="M683.85,-297.72C671.45,-296.25 658.42,-294.71 646.04,-293.24"/>
<polygon fill="#63b8ff" stroke="#63b8ff" points="683.2,-301.29 693.55,-298.99 684.03,-294.34 683.2,-301.29"/>
</a>
</g>
</g>
<!-- Node18 -->
<g id="Node000018" class="node">
<title>Node18</title>
<g id="a_Node000018"><a xlink:href="../../dd/db9/classACarlaRecorder.html#aba719596bd56c72a39f902f6e9a5d290" target="_top" xlink:title=" ">
<polygon fill="white" stroke="#666666" points="639.62,-372 528.38,-372 528.38,-352 639.62,-352 639.62,-372"/>
<text text-anchor="middle" x="584" y="-358.5" font-family="Helvetica,sans-Serif" font-size="10.00">ACarlaRecorder::Start</text>
</a>
</g>
</g>
<!-- Node15&#45;&gt;Node18 -->
<g id="edge21_Node000015_Node000018" class="edge">
<title>Node15&#45;&gt;Node18</title>
<g id="a_edge21_Node000015_Node000018"><a xlink:title=" ">
<path fill="none" stroke="#63b8ff" d="M708.73,-319.4C693.36,-325.33 675.25,-332.17 658.75,-338 645.55,-342.66 630.9,-347.5 618.16,-351.6"/>
<polygon fill="#63b8ff" stroke="#63b8ff" points="709.82,-322.34 717.88,-315.45 707.29,-315.81 709.82,-322.34"/>
</a>
</g>
</g>
<!-- Node20 -->
<g id="Node000020" class="node">
<title>Node20</title>
<g id="a_Node000020"><a xlink:href="../../dd/db9/classACarlaRecorder.html#a33fb5180defd8c9c1d3063eff52c7a37" target="_top" xlink:title=" ">
<polygon fill="white" stroke="#666666" points="473.25,-334 324.5,-334 324.5,-314 473.25,-314 473.25,-334"/>
<text text-anchor="middle" x="398.88" y="-320.5" font-family="Helvetica,sans-Serif" font-size="10.00">ACarlaRecorder::StopReplayer</text>
</a>
</g>
</g>
<!-- Node15&#45;&gt;Node20 -->
<g id="edge24_Node000015_Node000020" class="edge">
<title>Node15&#45;&gt;Node20</title>
<g id="a_edge24_Node000015_Node000020"><a xlink:title=" ">
<path fill="none" stroke="#63b8ff" d="M683.31,-308.41C624.52,-311.64 536.13,-316.5 473.71,-319.94"/>
<polygon fill="#63b8ff" stroke="#63b8ff" points="683.5,-311.85 693.29,-307.8 683.11,-304.86 683.5,-311.85"/>
</a>
</g>
</g>
<!-- Node21 -->
<g id="Node000021" class="node">
<title>Node21</title>
<g id="a_Node000021"><a xlink:href="../../dc/dc6/classCarlaReplayer.html#a6dadadd7719c5e660d2e3d99b22f5961" target="_top" xlink:title=" ">
<polygon fill="white" stroke="#666666" points="658.75,-258 509.25,-258 509.25,-238 658.75,-238 658.75,-258"/>
<text text-anchor="middle" x="584" y="-244.5" font-family="Helvetica,sans-Serif" font-size="10.00">CarlaReplayer::~CarlaReplayer</text>
</a>
</g>
</g>
<!-- Node15&#45;&gt;Node21 -->
<g id="edge26_Node000015_Node000021" class="edge">
<title>Node15&#45;&gt;Node21</title>
<g id="a_edge26_Node000015_Node000021"><a xlink:title=" ">
<path fill="none" stroke="#63b8ff" d="M714.73,-290.15C698.38,-282.56 677.75,-273.57 658.75,-267 649.63,-263.84 639.71,-260.94 630.2,-258.41"/>
<polygon fill="#63b8ff" stroke="#63b8ff" points="712.77,-293.56 723.3,-294.65 715.75,-287.23 712.77,-293.56"/>
</a>
</g>
</g>
<!-- Node17 -->
<g id="Node000017" class="node">
<title>Node17</title>
<g id="a_Node000017"><a xlink:href="../../db/de5/classACarlaGameModeBase.html#a8e61df047eac428453a627a6de9ace75" target="_top" xlink:title=" ">
<polygon fill="white" stroke="#666666" points="457.88,-296 339.88,-296 339.88,-264 457.88,-264 457.88,-296"/>
<text text-anchor="start" x="347.88" y="-282.5" font-family="Helvetica,sans-Serif" font-size="10.00">ACarlaGameModeBase</text>
<text text-anchor="middle" x="398.88" y="-270.5" font-family="Helvetica,sans-Serif" font-size="10.00">::EndPlay</text>
</a>
</g>
</g>
<!-- Node16&#45;&gt;Node17 -->
<g id="edge18_Node000016_Node000017" class="edge">
<title>Node16&#45;&gt;Node17</title>
<g id="a_edge18_Node000016_Node000017"><a xlink:title=" ">
<path fill="none" stroke="#63b8ff" d="M511.22,-283.65C493.61,-283.07 474.98,-282.46 458.1,-281.91"/>
<polygon fill="#63b8ff" stroke="#63b8ff" points="510.91,-287.17 521.02,-284 511.14,-280.18 510.91,-287.17"/>
</a>
</g>
</g>
<!-- Node19 -->
<g id="Node000019" class="node">
<title>Node19</title>
<g id="a_Node000019"><a xlink:href="../../dc/d84/classUCarlaEpisode.html#a1059ce6d102804115b3243de46d46bec" target="_top" xlink:title=" ">
<polygon fill="white" stroke="#666666" points="472.12,-372 325.62,-372 325.62,-352 472.12,-352 472.12,-372"/>
<text text-anchor="middle" x="398.88" y="-358.5" font-family="Helvetica,sans-Serif" font-size="10.00">UCarlaEpisode::StartRecorder</text>
</a>
</g>
</g>
<!-- Node18&#45;&gt;Node19 -->
<g id="edge22_Node000018_Node000019" class="edge">
<title>Node18&#45;&gt;Node19</title>
<g id="a_edge22_Node000018_Node000019"><a xlink:title=" ">
<path fill="none" stroke="#63b8ff" d="M517.16,-362C502.64,-362 487.18,-362 472.41,-362"/>
<polygon fill="#63b8ff" stroke="#63b8ff" points="517.06,-365.5 527.06,-362 517.06,-358.5 517.06,-365.5"/>
</a>
</g>
</g>
<!-- Node19&#45;&gt;Node2 -->
<g id="edge23_Node000019_Node000002" class="edge">
<title>Node19&#45;&gt;Node2</title>
<g id="a_edge23_Node000019_Node000002"><a xlink:title=" ">
<path fill="none" stroke="#63b8ff" d="M314.53,-353.23C299.73,-351.67 284.68,-350.09 270.99,-348.64"/>
<polygon fill="#63b8ff" stroke="#63b8ff" points="313.93,-356.79 324.24,-354.35 314.66,-349.83 313.93,-356.79"/>
</a>
</g>
</g>
<!-- Node20&#45;&gt;Node2 -->
<g id="edge25_Node000020_Node000002" class="edge">
<title>Node20&#45;&gt;Node2</title>
<g id="a_edge25_Node000020_Node000002"><a xlink:title=" ">
<path fill="none" stroke="#63b8ff" d="M313.67,-332.86C299.12,-334.4 284.36,-335.95 270.92,-337.36"/>
<polygon fill="#63b8ff" stroke="#63b8ff" points="313.62,-336.28 323.2,-331.76 312.89,-329.32 313.62,-336.28"/>
</a>
</g>
</g>
<!-- Node22&#45;&gt;Node22 -->
<g id="edge28_Node000022_Node000022" class="edge">
<title>Node22&#45;&gt;Node22</title>
<g id="a_edge28_Node000022_Node000022"><a xlink:title=" ">
<path fill="none" stroke="#63b8ff" d="M775.5,-443.77C772.31,-447.98 762.56,-451 746.25,-451 718.05,-451 709.45,-441.98 720.47,-433.34"/>
<polygon fill="#63b8ff" stroke="#63b8ff" points="778.51,-442.72 772.03,-434.34 771.87,-444.93 778.51,-442.72"/>
</a>
</g>
</g>
<!-- Node23 -->
<g id="Node000023" class="node">
<title>Node23</title>
<g id="a_Node000023"><a xlink:href="../../dd/db9/classACarlaRecorder.html#a1074f19dfe5b16a9e10b24ef35b26abc" target="_top" xlink:title=" ">
<polygon fill="white" stroke="#666666" points="644.5,-448 523.5,-448 523.5,-428 644.5,-428 644.5,-448"/>
<text text-anchor="middle" x="584" y="-434.5" font-family="Helvetica,sans-Serif" font-size="10.00">ACarlaRecorder::Ticking</text>
</a>
</g>
</g>
<!-- Node22&#45;&gt;Node23 -->
<g id="edge29_Node000022_Node000023" class="edge">
<title>Node22&#45;&gt;Node23</title>
<g id="a_edge29_Node000022_Node000023"><a xlink:title=" ">
<path fill="none" stroke="#63b8ff" d="M684.69,-428.67C671.68,-429.89 657.93,-431.17 644.93,-432.39"/>
<polygon fill="#63b8ff" stroke="#63b8ff" points="684.79,-432.08 694.42,-427.66 684.14,-425.11 684.79,-432.08"/>
</a>
</g>
</g>
<!-- Node23&#45;&gt;Node23 -->
<g id="edge32_Node000023_Node000023" class="edge">
<title>Node23&#45;&gt;Node23</title>
<g id="a_edge32_Node000023_Node000023"><a xlink:title=" ">
<path fill="none" stroke="#63b8ff" d="M613.25,-458.77C610.06,-462.98 600.31,-466 584,-466 555.8,-466 547.2,-456.98 558.22,-448.34"/>
<polygon fill="#63b8ff" stroke="#63b8ff" points="616.26,-457.72 609.78,-449.34 609.62,-459.93 616.26,-457.72"/>
</a>
</g>
</g>
<!-- Node24 -->
<g id="Node000024" class="node">
<title>Node24</title>
<g id="a_Node000024"><a xlink:href="../../dc/d49/classFCarlaEngine.html#aff440c7ba9d004e4c5b60125cc4d709b" target="_top" xlink:title=" ">
<polygon fill="white" stroke="#666666" points="464.62,-448 333.12,-448 333.12,-428 464.62,-428 464.62,-448"/>
<text text-anchor="middle" x="398.88" y="-434.5" font-family="Helvetica,sans-Serif" font-size="10.00">FCarlaEngine::OnPostTick</text>
</a>
</g>
</g>
<!-- Node23&#45;&gt;Node24 -->
<g id="edge30_Node000023_Node000024" class="edge">
<title>Node23&#45;&gt;Node24</title>
<g id="a_edge30_Node000023_Node000024"><a xlink:title=" ">
<path fill="none" stroke="#63b8ff" d="M512.41,-438C496.82,-438 480.38,-438 465.03,-438"/>
<polygon fill="#63b8ff" stroke="#63b8ff" points="512.04,-441.5 522.04,-438 512.04,-434.5 512.04,-441.5"/>
</a>
</g>
</g>
<!-- Node25 -->
<g id="Node000025" class="node">
<title>Node25</title>
<g id="a_Node000025"><a xlink:href="../../dc/d49/classFCarlaEngine.html#ab8d13063cde985781237dd7da308227e" target="_top" xlink:title=" ">
<polygon fill="white" stroke="#666666" points="288.5,-448 144.25,-448 144.25,-428 288.5,-428 288.5,-448"/>
<text text-anchor="middle" x="216.38" y="-434.5" font-family="Helvetica,sans-Serif" font-size="10.00">FCarlaEngine::NotifyInitGame</text>
</a>
</g>
</g>
<!-- Node24&#45;&gt;Node25 -->
<g id="edge31_Node000024_Node000025" class="edge">
<title>Node24&#45;&gt;Node25</title>
<g id="a_edge31_Node000024_Node000025"><a xlink:title=" ">
<path fill="none" stroke="#63b8ff" d="M321.89,-438C310.94,-438 299.71,-438 288.86,-438"/>
<polygon fill="#63b8ff" stroke="#63b8ff" points="321.71,-441.5 331.71,-438 321.71,-434.5 321.71,-441.5"/>
</a>
</g>
</g>
<!-- Node27&#45;&gt;Node8 -->
<g id="edge35_Node000027_Node000008" class="edge">
<title>Node27&#45;&gt;Node8</title>
<g id="a_edge35_Node000027_Node000008"><a xlink:title=" ">
<path fill="none" stroke="#63b8ff" d="M1217.79,-197.23C1190.63,-204.66 1159.75,-213.11 1136.15,-219.56"/>
<polygon fill="#63b8ff" stroke="#63b8ff" points="1218.66,-200.34 1227.38,-194.33 1216.81,-193.59 1218.66,-200.34"/>
</a>
</g>
</g>
</g>
</svg>

<g id="navigator" transform="translate(0 0)" fill="#404254">
  <rect fill="#f2f5e9" fill-opacity="0.5" stroke="#606060" stroke-width=".5" x="0" y="0" width="60" height="60"/>
  <use id="zoomplus" xlink:href="#zoomPlus" x="17" y="9" onmousedown="handleZoom(evt,'in')"/>
  <use id="zoomminus" xlink:href="#zoomMin" x="42" y="9" onmousedown="handleZoom(evt,'out')"/>
  <use id="reset" xlink:href="#resetDef" x="30" y="36" onmousedown="handleReset()"/>
   <use id="arrowup" xlink:href="#arrowUp" x="0" y="0" onmousedown="handlePan(0,-1)"/>
  <use id="arrowright" xlink:href="#arrowRight" x="0" y="0" onmousedown="handlePan(1,0)"/>
  <use id="arrowdown" xlink:href="#arrowDown" x="0" y="0" onmousedown="handlePan(0,1)"/>
  <use id="arrowleft" xlink:href="#arrowLeft" x="0" y="0" onmousedown="handlePan(-1,0)"/>
</g>
<svg viewBox="0 0 15 15" width="100%" height="30px" preserveAspectRatio="xMaxYMin meet">
 <g id="arrow_out" transform="scale(0.3 0.3)">
  <a xlink:href="classFCarlaActor_a8d28fe1cdf66fc6328cdecab9b5a1fbc_icgraph_org.svg" target="_base">
   <rect id="button" ry="5" rx="5" y="6" x="6" height="38" width="38"
        fill="#f2f5e9" fill-opacity="0.5" stroke="#606060" stroke-width="1.0"/>
   <path id="arrow"
     d="M 11.500037,31.436501 C 11.940474,20.09759 22.043105,11.32322 32.158766,21.979434 L 37.068811,17.246167 C 37.068811,17.246167 37.088388,32 37.088388,32 L 22.160133,31.978069 C 22.160133,31.978069 26.997745,27.140456 26.997745,27.140456 C 18.528582,18.264221 13.291696,25.230495 11.500037,31.436501 z"
     style="fill:#404040;"/>
  </a>
 </g>
</svg>

<style type='text/css'>
<![CDATA[
[data-mouse-over-selected='false'] { opacity: 0.7; }
[data-mouse-over-selected='true']  { opacity: 1.0; }
]]>
</style>
<script type="application/ecmascript"><![CDATA[
document.addEventListener('DOMContentLoaded', (event) => {
  highlightEdges();
  highlightAdjacentNodes();
});
]]></script>
</svg>
