<?xml version="1.0" encoding="UTF-8" standalone="no"?>
<!DOCTYPE svg PUBLIC "-//W3C//DTD SVG 1.1//EN"
 "http://www.w3.org/Graphics/SVG/1.1/DTD/svg11.dtd">
<!-- Generated by graphviz version 8.1.0 (20230707.0739)
 -->
<!-- Title: CarlaGNSSPublisher.h Pages: 1 -->
<svg width="164pt" height="140pt"
 viewBox="0.00 0.00 164.25 140.00" xmlns="http://www.w3.org/2000/svg" xmlns:xlink="http://www.w3.org/1999/xlink">
<g id="graph0" class="graph" transform="scale(1 1) rotate(0) translate(4 136)">
<title>CarlaGNSSPublisher.h</title>
<!-- Node1 -->
<g id="Node000001" class="node">
<title>Node1</title>
<g id="a_Node000001"><a xlink:title=" ">
<polygon fill="#999999" stroke="#666666" points="126.12,-132 11.12,-132 11.12,-112 126.12,-112 126.12,-132"/>
<text text-anchor="middle" x="68.62" y="-118.5" font-family="Helvetica,sans-Serif" font-size="10.00">CarlaGNSSPublisher.h</text>
</a>
</g>
</g>
<!-- Node2 -->
<g id="Node000002" class="node">
<title>Node2</title>
<g id="a_Node000002"><a xlink:title=" ">
<polygon fill="#e0e0e0" stroke="#999999" points="51.25,-76 0,-76 0,-56 51.25,-56 51.25,-76"/>
<text text-anchor="middle" x="25.62" y="-62.5" font-family="Helvetica,sans-Serif" font-size="10.00">memory</text>
</a>
</g>
</g>
<!-- Node1&#45;&gt;Node2 -->
<g id="edge1_Node000001_Node000002" class="edge">
<title>Node1&#45;&gt;Node2</title>
<g id="a_edge1_Node000001_Node000002"><a xlink:title=" ">
<path fill="none" stroke="#63b8ff" d="M61.13,-111.59C55.28,-104.24 46.96,-93.8 39.85,-84.87"/>
<polygon fill="#63b8ff" stroke="#63b8ff" points="42,-82.94 33.03,-77.3 36.52,-87.3 42,-82.94"/>
</a>
</g>
</g>
<!-- Node3 -->
<g id="Node000003" class="node">
<title>Node3</title>
<g id="a_Node000003"><a xlink:href="../../de/d7a/CarlaPublisher_8h.html" target="_top" xlink:title=" ">
<polygon fill="white" stroke="#666666" points="156.25,-76 69,-76 69,-56 156.25,-56 156.25,-76"/>
<text text-anchor="middle" x="112.62" y="-62.5" font-family="Helvetica,sans-Serif" font-size="10.00">CarlaPublisher.h</text>
</a>
</g>
</g>
<!-- Node1&#45;&gt;Node3 -->
<g id="edge2_Node000001_Node000003" class="edge">
<title>Node1&#45;&gt;Node3</title>
<g id="a_edge2_Node000001_Node000003"><a xlink:title=" ">
<path fill="none" stroke="#63b8ff" d="M76.29,-111.59C82.35,-104.16 90.97,-93.58 98.3,-84.58"/>
<polygon fill="#63b8ff" stroke="#63b8ff" points="101.45,-87.26 105.05,-77.3 96.02,-82.84 101.45,-87.26"/>
</a>
</g>
</g>
<!-- Node4 -->
<g id="Node000004" class="node">
<title>Node4</title>
<g id="a_Node000004"><a xlink:title=" ">
<polygon fill="#e0e0e0" stroke="#999999" points="132.62,-20 92.62,-20 92.62,0 132.62,0 132.62,-20"/>
<text text-anchor="middle" x="112.62" y="-6.5" font-family="Helvetica,sans-Serif" font-size="10.00">string</text>
</a>
</g>
</g>
<!-- Node3&#45;&gt;Node4 -->
<g id="edge3_Node000003_Node000004" class="edge">
<title>Node3&#45;&gt;Node4</title>
<g id="a_edge3_Node000003_Node000004"><a xlink:title=" ">
<path fill="none" stroke="#63b8ff" d="M112.62,-55.59C112.62,-48.86 112.62,-39.53 112.62,-31.15"/>
<polygon fill="#63b8ff" stroke="#63b8ff" points="116.13,-31.3 112.62,-21.3 109.13,-31.3 116.13,-31.3"/>
</a>
</g>
</g>
</g>
</svg>
