<?xml version="1.0" encoding="UTF-8" standalone="no"?>
<!DOCTYPE svg PUBLIC "-//W3C//DTD SVG 1.1//EN"
 "http://www.w3.org/Graphics/SVG/1.1/DTD/svg11.dtd">
<!-- Generated by graphviz version 8.1.0 (20230707.0739)
 -->
<!-- Title: ATrafficLightManager::ATrafficLightManager Pages: 1 -->
<svg width="273pt" height="90pt"
 viewBox="0.00 0.00 272.50 90.00" xmlns="http://www.w3.org/2000/svg" xmlns:xlink="http://www.w3.org/1999/xlink">
<g id="graph0" class="graph" transform="scale(1 1) rotate(0) translate(4 86)">
<title>ATrafficLightManager::ATrafficLightManager</title>
<!-- Node1 -->
<g id="Node000001" class="node">
<title>Node1</title>
<g id="a_Node000001"><a xlink:title=" ">
<polygon fill="#999999" stroke="#666666" points="112.75,-57 0,-57 0,-25 112.75,-25 112.75,-57"/>
<text text-anchor="start" x="8" y="-43.5" font-family="Helvetica,sans-Serif" font-size="10.00">ATrafficLightManager</text>
<text text-anchor="middle" x="56.38" y="-31.5" font-family="Helvetica,sans-Serif" font-size="10.00">::ATrafficLightManager</text>
</a>
</g>
</g>
<!-- Node2 -->
<g id="Node000002" class="node">
<title>Node2</title>
<g id="a_Node000002"><a xlink:href="../../db/d47/classcarla_1_1road_1_1SignalType.html#aec0e1abf2d86574ac77eb0289f5ff419" target="_top" xlink:title=" ">
<polygon fill="white" stroke="#666666" points="264.5,-82 148.75,-82 148.75,-50 264.5,-50 264.5,-82"/>
<text text-anchor="start" x="156.75" y="-68.5" font-family="Helvetica,sans-Serif" font-size="10.00">carla::road::SignalType</text>
<text text-anchor="middle" x="206.62" y="-56.5" font-family="Helvetica,sans-Serif" font-size="10.00">::StopSign</text>
</a>
</g>
</g>
<!-- Node1&#45;&gt;Node2 -->
<g id="edge1_Node000001_Node000002" class="edge">
<title>Node1&#45;&gt;Node2</title>
<g id="a_edge1_Node000001_Node000002"><a xlink:title=" ">
<path fill="none" stroke="#63b8ff" d="M113,-50.38C121.11,-51.75 129.54,-53.17 137.86,-54.57"/>
<polygon fill="#63b8ff" stroke="#63b8ff" points="137.26,-58.19 147.7,-56.4 138.42,-51.29 137.26,-58.19"/>
</a>
</g>
</g>
<!-- Node3 -->
<g id="Node000003" class="node">
<title>Node3</title>
<g id="a_Node000003"><a xlink:href="../../db/d47/classcarla_1_1road_1_1SignalType.html#a6cc1ce7a236875fb4f6dc1d4fcf37bc1" target="_top" xlink:title=" ">
<polygon fill="white" stroke="#666666" points="264.5,-32 148.75,-32 148.75,0 264.5,0 264.5,-32"/>
<text text-anchor="start" x="156.75" y="-18.5" font-family="Helvetica,sans-Serif" font-size="10.00">carla::road::SignalType</text>
<text text-anchor="middle" x="206.62" y="-6.5" font-family="Helvetica,sans-Serif" font-size="10.00">::YieldSign</text>
</a>
</g>
</g>
<!-- Node1&#45;&gt;Node3 -->
<g id="edge2_Node000001_Node000003" class="edge">
<title>Node1&#45;&gt;Node3</title>
<g id="a_edge2_Node000001_Node000003"><a xlink:title=" ">
<path fill="none" stroke="#63b8ff" d="M113,-31.62C121.11,-30.25 129.54,-28.83 137.86,-27.43"/>
<polygon fill="#63b8ff" stroke="#63b8ff" points="138.42,-30.71 147.7,-25.6 137.26,-23.81 138.42,-30.71"/>
</a>
</g>
</g>
</g>
</svg>
