<?xml version="1.0" encoding="UTF-8" standalone="no"?>
<!DOCTYPE svg PUBLIC "-//W3C//DTD SVG 1.1//EN"
 "http://www.w3.org/Graphics/SVG/1.1/DTD/svg11.dtd">
<!-- Generated by graphviz version 8.1.0 (20230707.0739)
 -->
<!-- Title: carla::road::Lane::GetInfo Pages: 1 -->
<svg width="1042pt" height="313pt"
 viewBox="0.00 0.00 1042.25 313.00" xmlns="http://www.w3.org/2000/svg" xmlns:xlink="http://www.w3.org/1999/xlink">
<g id="graph0" class="graph" transform="scale(1 1) rotate(0) translate(4 309)">
<title>carla::road::Lane::GetInfo</title>
<!-- Node1 -->
<g id="Node000001" class="node">
<title>Node1</title>
<g id="a_Node000001"><a xlink:title=" ">
<polygon fill="#999999" stroke="#666666" points="1034.25,-211 939.5,-211 939.5,-179 1034.25,-179 1034.25,-211"/>
<text text-anchor="start" x="947.5" y="-197.5" font-family="Helvetica,sans-Serif" font-size="10.00">carla::road::Lane::</text>
<text text-anchor="middle" x="986.88" y="-185.5" font-family="Helvetica,sans-Serif" font-size="10.00">GetInfo</text>
</a>
</g>
</g>
<!-- Node2 -->
<g id="Node000002" class="node">
<title>Node2</title>
<g id="a_Node000002"><a xlink:href="../../d6/d3d/classcarla_1_1geom_1_1MeshFactory.html#a5744e75d34e0a3514892d4a9b7906652" target="_top" xlink:title=" ">
<polygon fill="white" stroke="#666666" points="896,-305 725.5,-305 725.5,-273 896,-273 896,-305"/>
<text text-anchor="start" x="733.5" y="-291.5" font-family="Helvetica,sans-Serif" font-size="10.00">carla::geom::MeshFactory</text>
<text text-anchor="middle" x="810.75" y="-279.5" font-family="Helvetica,sans-Serif" font-size="10.00">::GenerateLaneMarksForCenterLine</text>
</a>
</g>
</g>
<!-- Node1&#45;&gt;Node2 -->
<g id="edge1_Node000001_Node000002" class="edge">
<title>Node1&#45;&gt;Node2</title>
<g id="a_edge1_Node000001_Node000002"><a xlink:title=" ">
<path fill="none" stroke="#63b8ff" d="M963.16,-218.72C947.63,-233.67 925.89,-252.3 903.5,-264 897.35,-267.21 890.76,-270.04 884.02,-272.53"/>
<polygon fill="#63b8ff" stroke="#63b8ff" points="965.02,-221.81 969.68,-212.29 960.11,-216.83 965.02,-221.81"/>
</a>
</g>
</g>
<!-- Node5 -->
<g id="Node000005" class="node">
<title>Node5</title>
<g id="a_Node000005"><a xlink:href="../../d6/d3d/classcarla_1_1geom_1_1MeshFactory.html#aad2ea408b3032e959e384431becd860b" target="_top" xlink:title=" ">
<polygon fill="white" stroke="#666666" points="903.5,-255 718,-255 718,-223 903.5,-223 903.5,-255"/>
<text text-anchor="start" x="726" y="-241.5" font-family="Helvetica,sans-Serif" font-size="10.00">carla::geom::MeshFactory</text>
<text text-anchor="middle" x="810.75" y="-229.5" font-family="Helvetica,sans-Serif" font-size="10.00">::GenerateLaneMarksForNotCenterLine</text>
</a>
</g>
</g>
<!-- Node1&#45;&gt;Node5 -->
<g id="edge4_Node000001_Node000005" class="edge">
<title>Node1&#45;&gt;Node5</title>
<g id="a_edge4_Node000001_Node000005"><a xlink:title=" ">
<path fill="none" stroke="#63b8ff" d="M928.6,-209.47C912.05,-213.66 893.86,-218.25 876.87,-222.54"/>
<polygon fill="#63b8ff" stroke="#63b8ff" points="929.37,-212.63 938.21,-206.79 927.66,-205.85 929.37,-212.63"/>
</a>
</g>
</g>
<!-- Node6 -->
<g id="Node000006" class="node">
<title>Node6</title>
<g id="a_Node000006"><a xlink:href="../../d1/dc0/test__opendrive_8cpp.html#abf3b27156775448afb3a631bf7351e4d" target="_top" xlink:title=" ">
<polygon fill="white" stroke="#666666" points="865.62,-205 755.88,-205 755.88,-185 865.62,-185 865.62,-205"/>
<text text-anchor="middle" x="810.75" y="-191.5" font-family="Helvetica,sans-Serif" font-size="10.00">get_total_road_marks</text>
</a>
</g>
</g>
<!-- Node1&#45;&gt;Node6 -->
<g id="edge6_Node000001_Node000006" class="edge">
<title>Node1&#45;&gt;Node6</title>
<g id="a_edge6_Node000001_Node000006"><a xlink:title=" ">
<path fill="none" stroke="#63b8ff" d="M928.33,-195C908.23,-195 885.76,-195 865.95,-195"/>
<polygon fill="#63b8ff" stroke="#63b8ff" points="928.21,-198.5 938.21,-195 928.21,-191.5 928.21,-198.5"/>
</a>
</g>
</g>
<!-- Node9 -->
<g id="Node000009" class="node">
<title>Node9</title>
<g id="a_Node000009"><a xlink:href="../../d0/d34/classcarla_1_1road_1_1Map.html#a17e65cd8e5fb3d61bf5a732bf225710d" target="_top" xlink:title=" ">
<polygon fill="white" stroke="#666666" points="876.88,-167 744.62,-167 744.62,-135 876.88,-135 876.88,-167"/>
<text text-anchor="start" x="752.62" y="-153.5" font-family="Helvetica,sans-Serif" font-size="10.00">carla::road::Map::GetTrees</text>
<text text-anchor="middle" x="810.75" y="-141.5" font-family="Helvetica,sans-Serif" font-size="10.00">Transform</text>
</a>
</g>
</g>
<!-- Node1&#45;&gt;Node9 -->
<g id="edge9_Node000001_Node000009" class="edge">
<title>Node1&#45;&gt;Node9</title>
<g id="a_edge9_Node000001_Node000009"><a xlink:title=" ">
<path fill="none" stroke="#63b8ff" d="M928.6,-180.53C912.05,-176.34 893.86,-171.75 876.87,-167.46"/>
<polygon fill="#63b8ff" stroke="#63b8ff" points="927.66,-184.15 938.21,-183.21 929.37,-177.37 927.66,-184.15"/>
</a>
</g>
</g>
<!-- Node10 -->
<g id="Node000010" class="node">
<title>Node10</title>
<g id="a_Node000010"><a xlink:href="../../d0/d34/classcarla_1_1road_1_1Map.html#a39f0ccacb98f62b339de96c69621543b" target="_top" xlink:title=" ">
<polygon fill="white" stroke="#666666" points="885.5,-117 736,-117 736,-97 885.5,-97 885.5,-117"/>
<text text-anchor="middle" x="810.75" y="-103.5" font-family="Helvetica,sans-Serif" font-size="10.00">carla::road::Map::GetWaypoint</text>
</a>
</g>
</g>
<!-- Node1&#45;&gt;Node10 -->
<g id="edge10_Node000001_Node000010" class="edge">
<title>Node1&#45;&gt;Node10</title>
<g id="a_edge10_Node000001_Node000010"><a xlink:title=" ">
<path fill="none" stroke="#63b8ff" d="M963.68,-171.1C948.24,-155.9 926.38,-137.07 903.5,-126 896.33,-122.53 888.54,-119.69 880.63,-117.37"/>
<polygon fill="#63b8ff" stroke="#63b8ff" points="960.63,-173 970.15,-177.65 965.61,-168.08 960.63,-173"/>
</a>
</g>
</g>
<!-- Node3 -->
<g id="Node000003" class="node">
<title>Node3</title>
<g id="a_Node000003"><a xlink:href="../../d6/d3d/classcarla_1_1geom_1_1MeshFactory.html#a6228f1a0673c73589a0816085fbc2900" target="_top" xlink:title=" ">
<polygon fill="white" stroke="#666666" points="679.38,-280 538.12,-280 538.12,-248 679.38,-248 679.38,-280"/>
<text text-anchor="start" x="546.12" y="-266.5" font-family="Helvetica,sans-Serif" font-size="10.00">carla::geom::MeshFactory</text>
<text text-anchor="middle" x="608.75" y="-254.5" font-family="Helvetica,sans-Serif" font-size="10.00">::GenerateLaneMarkForRoad</text>
</a>
</g>
</g>
<!-- Node2&#45;&gt;Node3 -->
<g id="edge2_Node000002_Node000003" class="edge">
<title>Node2&#45;&gt;Node3</title>
<g id="a_edge2_Node000002_Node000003"><a xlink:title=" ">
<path fill="none" stroke="#63b8ff" d="M714.52,-277.1C702.81,-275.63 691.02,-274.16 679.78,-272.75"/>
<polygon fill="#63b8ff" stroke="#63b8ff" points="713.86,-280.67 724.22,-278.43 714.73,-273.72 713.86,-280.67"/>
</a>
</g>
</g>
<!-- Node4 -->
<g id="Node000004" class="node">
<title>Node4</title>
<g id="a_Node000004"><a xlink:href="../../d0/d34/classcarla_1_1road_1_1Map.html#ad84d5990ccd301600bdf6863ed04dcdd" target="_top" xlink:title="Buids a list of meshes related with LineMarkings.">
<polygon fill="white" stroke="#666666" points="499.5,-280 367.25,-280 367.25,-248 499.5,-248 499.5,-280"/>
<text text-anchor="start" x="375.25" y="-266.5" font-family="Helvetica,sans-Serif" font-size="10.00">carla::road::Map::Generate</text>
<text text-anchor="middle" x="433.38" y="-254.5" font-family="Helvetica,sans-Serif" font-size="10.00">LineMarkings</text>
</a>
</g>
</g>
<!-- Node3&#45;&gt;Node4 -->
<g id="edge3_Node000003_Node000004" class="edge">
<title>Node3&#45;&gt;Node4</title>
<g id="a_edge3_Node000003_Node000004"><a xlink:title=" ">
<path fill="none" stroke="#63b8ff" d="M526.8,-264C517.78,-264 508.68,-264 499.88,-264"/>
<polygon fill="#63b8ff" stroke="#63b8ff" points="526.73,-267.5 536.73,-264 526.73,-260.5 526.73,-267.5"/>
</a>
</g>
</g>
<!-- Node5&#45;&gt;Node3 -->
<g id="edge5_Node000005_Node000003" class="edge">
<title>Node5&#45;&gt;Node3</title>
<g id="a_edge5_Node000005_Node000003"><a xlink:title=" ">
<path fill="none" stroke="#63b8ff" d="M706.9,-251.86C697.75,-253 688.62,-254.14 679.83,-255.24"/>
<polygon fill="#63b8ff" stroke="#63b8ff" points="707.16,-255.23 716.65,-250.51 706.3,-248.28 707.16,-255.23"/>
</a>
</g>
</g>
<!-- Node7 -->
<g id="Node000007" class="node">
<title>Node7</title>
<g id="a_Node000007"><a xlink:href="../../d1/dc0/test__opendrive_8cpp.html#a150bee03ecfb9362ac5a63f334562723" target="_top" xlink:title=" ">
<polygon fill="white" stroke="#666666" points="639.62,-205 577.88,-205 577.88,-185 639.62,-185 639.62,-205"/>
<text text-anchor="middle" x="608.75" y="-191.5" font-family="Helvetica,sans-Serif" font-size="10.00">test_roads</text>
</a>
</g>
</g>
<!-- Node6&#45;&gt;Node7 -->
<g id="edge7_Node000006_Node000007" class="edge">
<title>Node6&#45;&gt;Node7</title>
<g id="a_edge7_Node000006_Node000007"><a xlink:title=" ">
<path fill="none" stroke="#63b8ff" d="M744.92,-195C709.66,-195 667.71,-195 640,-195"/>
<polygon fill="#63b8ff" stroke="#63b8ff" points="744.63,-198.5 754.63,-195 744.63,-191.5 744.63,-198.5"/>
</a>
</g>
</g>
<!-- Node8 -->
<g id="Node000008" class="node">
<title>Node8</title>
<g id="a_Node000008"><a xlink:href="../../d1/dc0/test__opendrive_8cpp.html#aa6244d8f18c32ca7e6f0b3de79354dda" target="_top" xlink:title=" ">
<polygon fill="white" stroke="#666666" points="453.38,-205 413.38,-205 413.38,-185 453.38,-185 453.38,-205"/>
<text text-anchor="middle" x="433.38" y="-191.5" font-family="Helvetica,sans-Serif" font-size="10.00">TEST</text>
</a>
</g>
</g>
<!-- Node7&#45;&gt;Node8 -->
<g id="edge8_Node000007_Node000008" class="edge">
<title>Node7&#45;&gt;Node8</title>
<g id="a_edge8_Node000007_Node000008"><a xlink:title=" ">
<path fill="none" stroke="#63b8ff" d="M566.95,-195C531.16,-195 480.69,-195 453.51,-195"/>
<polygon fill="#63b8ff" stroke="#63b8ff" points="566.55,-198.5 576.55,-195 566.55,-191.5 566.55,-198.5"/>
</a>
</g>
</g>
<!-- Node11 -->
<g id="Node000011" class="node">
<title>Node11</title>
<g id="a_Node000011"><a xlink:href="../../d0/d34/classcarla_1_1road_1_1Map.html#accf4f345bb9db4bcd6cdd9e6fec322cc" target="_top" xlink:title=" ">
<polygon fill="white" stroke="#666666" points="499.5,-130 367.25,-130 367.25,-98 499.5,-98 499.5,-130"/>
<text text-anchor="start" x="375.25" y="-116.5" font-family="Helvetica,sans-Serif" font-size="10.00">carla::road::Map::Generate</text>
<text text-anchor="middle" x="433.38" y="-104.5" font-family="Helvetica,sans-Serif" font-size="10.00">SingleJunction</text>
</a>
</g>
</g>
<!-- Node10&#45;&gt;Node11 -->
<g id="edge11_Node000010_Node000011" class="edge">
<title>Node10&#45;&gt;Node11</title>
<g id="a_edge11_Node000010_Node000011"><a xlink:title=" ">
<path fill="none" stroke="#63b8ff" d="M746.56,-119.73C736.98,-121.77 727.22,-123.89 718,-126 701.92,-129.67 698.37,-132.98 682,-135 617.38,-142.96 600.27,-141.65 535.5,-135 523.91,-133.81 511.68,-131.87 499.89,-129.64"/>
<polygon fill="#63b8ff" stroke="#63b8ff" points="747.2,-122.96 756.27,-117.48 745.76,-116.11 747.2,-122.96"/>
</a>
</g>
</g>
<!-- Node14 -->
<g id="Node000014" class="node">
<title>Node14</title>
<g id="a_Node000014"><a xlink:href="../../d0/d34/classcarla_1_1road_1_1Map.html#a047f3fd871248ef6cea3d7057e38830b" target="_top" xlink:title="Generate the minimum set of waypoints that define the topology of map.">
<polygon fill="white" stroke="#666666" points="674.88,-126 542.62,-126 542.62,-94 674.88,-94 674.88,-126"/>
<text text-anchor="start" x="550.62" y="-112.5" font-family="Helvetica,sans-Serif" font-size="10.00">carla::road::Map::Generate</text>
<text text-anchor="middle" x="608.75" y="-100.5" font-family="Helvetica,sans-Serif" font-size="10.00">Topology</text>
</a>
</g>
</g>
<!-- Node10&#45;&gt;Node14 -->
<g id="edge14_Node000010_Node000014" class="edge">
<title>Node10&#45;&gt;Node14</title>
<g id="a_edge14_Node000010_Node000014"><a xlink:title=" ">
<path fill="none" stroke="#63b8ff" d="M724.77,-108.27C708.21,-108.52 691.07,-108.78 675.25,-109.02"/>
<polygon fill="#63b8ff" stroke="#63b8ff" points="724.62,-111.76 734.56,-108.11 724.51,-104.76 724.62,-111.76"/>
</a>
</g>
</g>
<!-- Node15 -->
<g id="Node000015" class="node">
<title>Node15</title>
<g id="a_Node000015"><a xlink:href="../../df/dc1/namespacecarla_1_1road_1_1element.html#ad4397b3938f0a721ad5208f14912b744" target="_top" xlink:title=" ">
<polygon fill="white" stroke="#666666" points="659.88,-38 557.62,-38 557.62,-6 659.88,-6 659.88,-38"/>
<text text-anchor="start" x="565.62" y="-24.5" font-family="Helvetica,sans-Serif" font-size="10.00">carla::road::element</text>
<text text-anchor="middle" x="608.75" y="-12.5" font-family="Helvetica,sans-Serif" font-size="10.00">::IsOffRoad</text>
</a>
</g>
</g>
<!-- Node10&#45;&gt;Node15 -->
<g id="edge15_Node000010_Node000015" class="edge">
<title>Node10&#45;&gt;Node15</title>
<g id="a_edge15_Node000010_Node000015"><a xlink:title=" ">
<path fill="none" stroke="#63b8ff" d="M779.73,-91.8C754.1,-79.08 716.07,-60.85 682,-47 674.75,-44.05 667,-41.13 659.37,-38.39"/>
<polygon fill="#63b8ff" stroke="#63b8ff" points="777.74,-95.21 788.25,-96.55 780.87,-88.95 777.74,-95.21"/>
</a>
</g>
</g>
<!-- Node18 -->
<g id="Node000018" class="node">
<title>Node18</title>
<g id="a_Node000018"><a xlink:href="../../d0/d34/classcarla_1_1road_1_1Map.html#a1653a470bdf6e93b0471773b2e079847" target="_top" xlink:title=" ">
<polygon fill="white" stroke="#666666" points="682,-76 535.5,-76 535.5,-56 682,-56 682,-76"/>
<text text-anchor="middle" x="608.75" y="-62.5" font-family="Helvetica,sans-Serif" font-size="10.00">carla::road::Map::SDFToMesh</text>
</a>
</g>
</g>
<!-- Node10&#45;&gt;Node18 -->
<g id="edge18_Node000010_Node000018" class="edge">
<title>Node10&#45;&gt;Node18</title>
<g id="a_edge18_Node000010_Node000018"><a xlink:title=" ">
<path fill="none" stroke="#63b8ff" d="M748.26,-94.39C720.18,-88.64 687.31,-81.9 660.64,-76.43"/>
<polygon fill="#63b8ff" stroke="#63b8ff" points="747.26,-97.97 757.76,-96.55 748.67,-91.11 747.26,-97.97"/>
</a>
</g>
</g>
<!-- Node12 -->
<g id="Node000012" class="node">
<title>Node12</title>
<g id="a_Node000012"><a xlink:href="../../d0/d34/classcarla_1_1road_1_1Map.html#aa51550af7f6efc7df8691eb41225beec" target="_top" xlink:title=" ">
<polygon fill="white" stroke="#666666" points="330.88,-130 198.62,-130 198.62,-98 330.88,-98 330.88,-130"/>
<text text-anchor="start" x="206.62" y="-116.5" font-family="Helvetica,sans-Serif" font-size="10.00">carla::road::Map::Generate</text>
<text text-anchor="middle" x="264.75" y="-104.5" font-family="Helvetica,sans-Serif" font-size="10.00">Junctions</text>
</a>
</g>
</g>
<!-- Node11&#45;&gt;Node12 -->
<g id="edge12_Node000011_Node000012" class="edge">
<title>Node11&#45;&gt;Node12</title>
<g id="a_edge12_Node000011_Node000012"><a xlink:title=" ">
<path fill="none" stroke="#63b8ff" d="M356.14,-114C347.81,-114 339.39,-114 331.21,-114"/>
<polygon fill="#63b8ff" stroke="#63b8ff" points="356,-117.5 366,-114 356,-110.5 356,-117.5"/>
</a>
</g>
</g>
<!-- Node13 -->
<g id="Node000013" class="node">
<title>Node13</title>
<g id="a_Node000013"><a xlink:href="../../d0/d34/classcarla_1_1road_1_1Map.html#ac77235567699cc2853177c441390fd14" target="_top" xlink:title=" ">
<polygon fill="white" stroke="#666666" points="162.25,-130 0,-130 0,-98 162.25,-98 162.25,-130"/>
<text text-anchor="start" x="8" y="-116.5" font-family="Helvetica,sans-Serif" font-size="10.00">carla::road::Map::Generate</text>
<text text-anchor="middle" x="81.12" y="-104.5" font-family="Helvetica,sans-Serif" font-size="10.00">OrderedChunkedMeshInLocations</text>
</a>
</g>
</g>
<!-- Node12&#45;&gt;Node13 -->
<g id="edge13_Node000012_Node000013" class="edge">
<title>Node12&#45;&gt;Node13</title>
<g id="a_edge13_Node000012_Node000013"><a xlink:title=" ">
<path fill="none" stroke="#63b8ff" d="M187.45,-114C179.2,-114 170.78,-114 162.48,-114"/>
<polygon fill="#63b8ff" stroke="#63b8ff" points="187.18,-117.5 197.18,-114 187.18,-110.5 187.18,-117.5"/>
</a>
</g>
</g>
<!-- Node16 -->
<g id="Node000016" class="node">
<title>Node16</title>
<g id="a_Node000016"><a xlink:href="../../d2/d60/classcarla_1_1road_1_1element_1_1LaneCrossingCalculator.html#a589511f573df9e9c46c55a7a46c02cd6" target="_top" xlink:title=" ">
<polygon fill="white" stroke="#666666" points="495.75,-44 371,-44 371,0 495.75,0 495.75,-44"/>
<text text-anchor="start" x="379" y="-30.5" font-family="Helvetica,sans-Serif" font-size="10.00">carla::road::element</text>
<text text-anchor="start" x="379" y="-18.5" font-family="Helvetica,sans-Serif" font-size="10.00">::LaneCrossingCalculator</text>
<text text-anchor="middle" x="433.38" y="-6.5" font-family="Helvetica,sans-Serif" font-size="10.00">::Calculate</text>
</a>
</g>
</g>
<!-- Node15&#45;&gt;Node16 -->
<g id="edge16_Node000015_Node000016" class="edge">
<title>Node15&#45;&gt;Node16</title>
<g id="a_edge16_Node000015_Node000016"><a xlink:title=" ">
<path fill="none" stroke="#63b8ff" d="M546.6,-22C530.23,-22 512.52,-22 496.12,-22"/>
<polygon fill="#63b8ff" stroke="#63b8ff" points="546.14,-25.5 556.14,-22 546.14,-18.5 546.14,-25.5"/>
</a>
</g>
</g>
<!-- Node17 -->
<g id="Node000017" class="node">
<title>Node17</title>
<g id="a_Node000017"><a xlink:href="../../d0/d34/classcarla_1_1road_1_1Map.html#a4d3427dc449d9555dc1a02865d110e76" target="_top" xlink:title=" ">
<polygon fill="white" stroke="#666666" points="331.25,-38 198.25,-38 198.25,-6 331.25,-6 331.25,-38"/>
<text text-anchor="start" x="206.25" y="-24.5" font-family="Helvetica,sans-Serif" font-size="10.00">carla::road::Map::Calculate</text>
<text text-anchor="middle" x="264.75" y="-12.5" font-family="Helvetica,sans-Serif" font-size="10.00">CrossedLanes</text>
</a>
</g>
</g>
<!-- Node16&#45;&gt;Node17 -->
<g id="edge17_Node000016_Node000017" class="edge">
<title>Node16&#45;&gt;Node17</title>
<g id="a_edge17_Node000016_Node000017"><a xlink:title=" ">
<path fill="none" stroke="#63b8ff" d="M359.86,-22C350.45,-22 340.84,-22 331.54,-22"/>
<polygon fill="#63b8ff" stroke="#63b8ff" points="359.8,-25.5 369.8,-22 359.8,-18.5 359.8,-25.5"/>
</a>
</g>
</g>
<!-- Node18&#45;&gt;Node11 -->
<g id="edge19_Node000018_Node000011" class="edge">
<title>Node18&#45;&gt;Node11</title>
<g id="a_edge19_Node000018_Node000011"><a xlink:title=" ">
<path fill="none" stroke="#63b8ff" d="M556.58,-79.31C549.49,-81.19 542.31,-83.13 535.5,-85 521.06,-88.97 505.49,-93.37 491.01,-97.52"/>
<polygon fill="#63b8ff" stroke="#63b8ff" points="557.43,-82.44 566.2,-76.49 555.64,-75.67 557.43,-82.44"/>
</a>
</g>
</g>
</g>
</svg>
