<?xml version="1.0" encoding="UTF-8" standalone="no"?>
<!DOCTYPE svg PUBLIC "-//W3C//DTD SVG 1.1//EN"
 "http://www.w3.org/Graphics/SVG/1.1/DTD/svg11.dtd">
<!-- Generated by graphviz version 8.1.0 (20230707.0739)
 -->
<!-- Title: AV2XSensor::GetSensorDefinition Pages: 1 -->
<svg width="358pt" height="58pt"
 viewBox="0.00 0.00 358.00 58.00" xmlns="http://www.w3.org/2000/svg" xmlns:xlink="http://www.w3.org/1999/xlink">
<g id="graph0" class="graph" transform="scale(1 1) rotate(0) translate(4 54)">
<title>AV2XSensor::GetSensorDefinition</title>
<!-- Node1 -->
<g id="Node000001" class="node">
<title>Node1</title>
<g id="a_Node000001"><a xlink:title=" ">
<polygon fill="#999999" stroke="#666666" points="163,-26 0,-26 0,-6 163,-6 163,-26"/>
<text text-anchor="middle" x="81.5" y="-12.5" font-family="Helvetica,sans-Serif" font-size="10.00">AV2XSensor::GetSensorDefinition</text>
</a>
</g>
</g>
<!-- Node2 -->
<g id="Node000002" class="node">
<title>Node2</title>
<g id="a_Node000002"><a xlink:href="../../dd/da3/classUActorBlueprintFunctionLibrary.html#ad8b6e7f68d88556a2db3305b4d80cab2" target="_top" xlink:title=" ">
<polygon fill="white" stroke="#666666" points="350,-32 199,-32 199,0 350,0 350,-32"/>
<text text-anchor="start" x="207" y="-18.5" font-family="Helvetica,sans-Serif" font-size="10.00">UActorBlueprintFunctionLibrary</text>
<text text-anchor="middle" x="274.5" y="-6.5" font-family="Helvetica,sans-Serif" font-size="10.00">::MakeV2XDefinition</text>
</a>
</g>
</g>
<!-- Node1&#45;&gt;Node2 -->
<g id="edge1_Node000001_Node000002" class="edge">
<title>Node1&#45;&gt;Node2</title>
<g id="a_edge1_Node000001_Node000002"><a xlink:title=" ">
<path fill="none" stroke="#63b8ff" d="M163.22,-16C171.27,-16 179.47,-16 187.57,-16"/>
<polygon fill="#63b8ff" stroke="#63b8ff" points="187.53,-19.5 197.53,-16 187.53,-12.5 187.53,-19.5"/>
</a>
</g>
</g>
<!-- Node2&#45;&gt;Node2 -->
<g id="edge2_Node000002_Node000002" class="edge">
<title>Node2&#45;&gt;Node2</title>
<g id="a_edge2_Node000002_Node000002"><a xlink:title=" ">
<path fill="none" stroke="#63b8ff" d="M240.04,-32.44C233.61,-41.58 245.1,-50 274.5,-50 291.5,-50 302.51,-47.19 307.53,-43.05"/>
<polygon fill="#63b8ff" stroke="#63b8ff" points="311.09,-43.82 308.96,-33.44 304.15,-42.89 311.09,-43.82"/>
</a>
</g>
</g>
</g>
</svg>
