<?xml version="1.0" encoding="UTF-8" standalone="no"?>
<!DOCTYPE svg PUBLIC "-//W3C//DTD SVG 1.1//EN"
 "http://www.w3.org/Graphics/SVG/1.1/DTD/svg11.dtd">
<!-- Generated by graphviz version 8.1.0 (20230707.0739)
 -->
<!-- Title: moodycamel::ConcurrentQueue::ImplicitProducer::enqueue_bulk Pages: 1 -->
<!--zoomable 214 -->

<svg id="main" version="1.1" xmlns="http://www.w3.org/2000/svg" xmlns:xlink="http://www.w3.org/1999/xlink" xml:space="preserve" onload="init(evt)">
<style type="text/css"><![CDATA[
.node, .edge {opacity: 0.7;}
.node.selected, .edge.selected {opacity: 1;}
.edge:hover path { stroke: red; }
.edge:hover polygon { stroke: red; fill: red; }
]]></style>

<defs>
  <circle id="rim" cx="0" cy="0" r="7"/>
  <circle id="rim2" cx="0" cy="0" r="3.5"/>
  <g id="zoomPlus">
    <use xlink:href="#rim" fill="#404040"><set attributeName="fill" to="#808080" begin="zoomplus.mouseover" end="zoomplus.mouseout"/></use>
    <path d="M-4,0h8M0,-4v8" fill="none" stroke="white" stroke-width="1.5" pointer-events="none"/>
  </g>
  <g id="zoomMin">
    <use xlink:href="#rim" fill="#404040"><set attributeName="fill" to="#808080" begin="zoomminus.mouseover" end="zoomminus.mouseout"/></use>
    <path d="M-4,0h8" fill="none" stroke="white" stroke-width="1.5" pointer-events="none"/>
  </g>
  <g id="arrowUp" transform="translate(30 24)">
    <use xlink:href="#rim"/>
    <path pointer-events="none" fill="none" stroke="white" stroke-width="1.5" d="M0,-3.0v7 M-2.5,-0.5L0,-3.0L2.5,-0.5"/>
  </g>
  <g id="arrowRight" transform="rotate(90) translate(36 -43)">
    <use xlink:href="#rim"/>
    <path pointer-events="none" fill="none" stroke="white" stroke-width="1.5" d="M0,-3.0v7 M-2.5,-0.5L0,-3.0L2.5,-0.5"/>
  </g>
  <g id="arrowDown" transform="rotate(180) translate(-30 -48)">
    <use xlink:href="#rim"/>
    <path pointer-events="none" fill="none" stroke="white" stroke-width="1.5" d="M0,-3.0v7 M-2.5,-0.5L0,-3.0L2.5,-0.5"/>
  </g>
  <g id="arrowLeft" transform="rotate(270) translate(-36 17)">
    <use xlink:href="#rim"/>
    <path pointer-events="none" fill="none" stroke="white" stroke-width="1.5" d="M0,-3.0v7 M-2.5,-0.5L0,-3.0L2.5,-0.5"/>
  </g>
  <g id="resetDef">
    <use xlink:href="#rim2" fill="#404040"><set attributeName="fill" to="#808080" begin="reset.mouseover" end="reset.mouseout"/></use>
  </g>
</defs>
<script type="application/ecmascript">
var viewWidth = 544;
var viewHeight = 214;
var sectionId = 'dynsection-7';
</script>
<script type="application/ecmascript" xlink:href="../../svg.min.js"/>
<svg id="graph" class="graph">
<g id="viewport">
<title>moodycamel::ConcurrentQueue::ImplicitProducer::enqueue_bulk</title>
<!-- Node1 -->
<g id="Node000001" class="node">
<title>Node1</title>
<g id="a_Node000001"><a xlink:title=" ">
<polygon fill="#999999" stroke="#666666" points="157.75,-128 0,-128 0,-96 157.75,-96 157.75,-128"/>
<text text-anchor="start" x="8" y="-114.5" font-family="Helvetica,sans-Serif" font-size="10.00">moodycamel::ConcurrentQueue</text>
<text text-anchor="middle" x="78.88" y="-102.5" font-family="Helvetica,sans-Serif" font-size="10.00">::ImplicitProducer::enqueue_bulk</text>
</a>
</g>
</g>
<!-- Node2 -->
<g id="Node000002" class="node">
<title>Node2</title>
<g id="a_Node000002"><a xlink:href="../../d8/dc8/classmoodycamel_1_1ConcurrentQueue.html#a619e82afd7acedbb2fb4fc26420cc1e1" target="_top" xlink:title=" ">
<polygon fill="white" stroke="#666666" points="347,-206 193.75,-206 193.75,-174 347,-174 347,-206"/>
<text text-anchor="start" x="201.75" y="-192.5" font-family="Helvetica,sans-Serif" font-size="10.00">moodycamel::ConcurrentQueue</text>
<text text-anchor="middle" x="270.38" y="-180.5" font-family="Helvetica,sans-Serif" font-size="10.00">::add_blocks_to_free_list</text>
</a>
</g>
</g>
<!-- Node1&#45;&gt;Node2 -->
<g id="edge1_Node000001_Node000002" class="edge">
<title>Node1&#45;&gt;Node2</title>
<g id="a_edge1_Node000001_Node000002"><a xlink:title=" ">
<path fill="none" stroke="#63b8ff" d="M112.32,-128.33C134.87,-139.37 165.78,-153.91 193.75,-165 197.94,-166.66 202.3,-168.31 206.7,-169.91"/>
<polygon fill="#63b8ff" stroke="#63b8ff" points="205.42,-173.53 216.02,-173.57 207.76,-166.93 205.42,-173.53"/>
</a>
</g>
</g>
<!-- Node4 -->
<g id="Node000004" class="node">
<title>Node4</title>
<g id="a_Node000004"><a xlink:href="../../d6/d0f/namespacemoodycamel_1_1details.html#a6b9ee0505690e9c90b5279e46c733391" target="_top" xlink:title=" ">
<polygon fill="white" stroke="#666666" points="323.38,-156 217.38,-156 217.38,-124 323.38,-124 323.38,-156"/>
<text text-anchor="start" x="225.38" y="-142.5" font-family="Helvetica,sans-Serif" font-size="10.00">moodycamel::details</text>
<text text-anchor="middle" x="270.38" y="-130.5" font-family="Helvetica,sans-Serif" font-size="10.00">::deref_noexcept</text>
</a>
</g>
</g>
<!-- Node1&#45;&gt;Node4 -->
<g id="edge3_Node000001_Node000004" class="edge">
<title>Node1&#45;&gt;Node4</title>
<g id="a_edge3_Node000001_Node000004"><a xlink:title=" ">
<path fill="none" stroke="#63b8ff" d="M158.05,-123.55C174.2,-125.94 191.02,-128.42 206.54,-130.72"/>
<polygon fill="#63b8ff" stroke="#63b8ff" points="205.65,-134.27 216.05,-132.27 206.67,-127.35 205.65,-134.27"/>
</a>
</g>
</g>
<!-- Node5 -->
<g id="Node000005" class="node">
<title>Node5</title>
<g id="a_Node000005"><a xlink:href="../../d4/d1f/structmoodycamel_1_1ConcurrentQueue_1_1ImplicitProducer.html#ac93f8bee615dc7b467bb079757ad64ba" target="_top" xlink:title=" ">
<polygon fill="white" stroke="#666666" points="347,-106 193.75,-106 193.75,-62 347,-62 347,-106"/>
<text text-anchor="start" x="201.75" y="-92.5" font-family="Helvetica,sans-Serif" font-size="10.00">moodycamel::ConcurrentQueue</text>
<text text-anchor="start" x="201.75" y="-80.5" font-family="Helvetica,sans-Serif" font-size="10.00">::ImplicitProducer::get</text>
<text text-anchor="middle" x="270.38" y="-68.5" font-family="Helvetica,sans-Serif" font-size="10.00">_block_index_entry_for_index</text>
</a>
</g>
</g>
<!-- Node1&#45;&gt;Node5 -->
<g id="edge4_Node000001_Node000005" class="edge">
<title>Node1&#45;&gt;Node5</title>
<g id="a_edge4_Node000001_Node000005"><a xlink:title=" ">
<path fill="none" stroke="#63b8ff" d="M158.05,-100.45C166.2,-99.25 174.52,-98.02 182.76,-96.8"/>
<polygon fill="#63b8ff" stroke="#63b8ff" points="183.14,-100.13 192.52,-95.21 182.12,-93.21 183.14,-100.13"/>
</a>
</g>
</g>
<!-- Node7 -->
<g id="Node000007" class="node">
<title>Node7</title>
<g id="a_Node000007"><a xlink:href="../../d4/d1f/structmoodycamel_1_1ConcurrentQueue_1_1ImplicitProducer.html#ac5e3152c1585fc55870f369953def5d3" target="_top" xlink:title=" ">
<polygon fill="white" stroke="#666666" points="347,-44 193.75,-44 193.75,0 347,0 347,-44"/>
<text text-anchor="start" x="201.75" y="-30.5" font-family="Helvetica,sans-Serif" font-size="10.00">moodycamel::ConcurrentQueue</text>
<text text-anchor="start" x="201.75" y="-18.5" font-family="Helvetica,sans-Serif" font-size="10.00">::ImplicitProducer::rewind</text>
<text text-anchor="middle" x="270.38" y="-6.5" font-family="Helvetica,sans-Serif" font-size="10.00">_block_index_tail</text>
</a>
</g>
</g>
<!-- Node1&#45;&gt;Node7 -->
<g id="edge6_Node000001_Node000007" class="edge">
<title>Node1&#45;&gt;Node7</title>
<g id="a_edge6_Node000001_Node000007"><a xlink:title=" ">
<path fill="none" stroke="#63b8ff" d="M109.48,-95.74C132.26,-83.45 164.65,-66.47 193.75,-53 196.74,-51.61 199.82,-50.22 202.93,-48.84"/>
<polygon fill="#63b8ff" stroke="#63b8ff" points="204.2,-51.67 211.97,-44.47 201.4,-45.26 204.2,-51.67"/>
</a>
</g>
</g>
<!-- Node3 -->
<g id="Node000003" class="node">
<title>Node3</title>
<g id="a_Node000003"><a xlink:href="../../d8/dc8/classmoodycamel_1_1ConcurrentQueue.html#a6c7ea19979bdc48733f942f6dba1512f" target="_top" xlink:title=" ">
<polygon fill="white" stroke="#666666" points="536.25,-206 383,-206 383,-174 536.25,-174 536.25,-206"/>
<text text-anchor="start" x="391" y="-192.5" font-family="Helvetica,sans-Serif" font-size="10.00">moodycamel::ConcurrentQueue</text>
<text text-anchor="middle" x="459.62" y="-180.5" font-family="Helvetica,sans-Serif" font-size="10.00">::add_block_to_free_list</text>
</a>
</g>
</g>
<!-- Node2&#45;&gt;Node3 -->
<g id="edge2_Node000002_Node000003" class="edge">
<title>Node2&#45;&gt;Node3</title>
<g id="a_edge2_Node000002_Node000003"><a xlink:title=" ">
<path fill="none" stroke="#63b8ff" d="M347.27,-190C355.37,-190 363.66,-190 371.88,-190"/>
<polygon fill="#63b8ff" stroke="#63b8ff" points="371.63,-193.5 381.63,-190 371.63,-186.5 371.63,-193.5"/>
</a>
</g>
</g>
<!-- Node6 -->
<g id="Node000006" class="node">
<title>Node6</title>
<g id="a_Node000006"><a xlink:href="../../d4/d1f/structmoodycamel_1_1ConcurrentQueue_1_1ImplicitProducer.html#ad1ccbb67d675d29732e99ced35d27012" target="_top" xlink:title=" ">
<polygon fill="white" stroke="#666666" points="536.25,-106 383,-106 383,-62 536.25,-62 536.25,-106"/>
<text text-anchor="start" x="391" y="-92.5" font-family="Helvetica,sans-Serif" font-size="10.00">moodycamel::ConcurrentQueue</text>
<text text-anchor="start" x="391" y="-80.5" font-family="Helvetica,sans-Serif" font-size="10.00">::ImplicitProducer::get</text>
<text text-anchor="middle" x="459.62" y="-68.5" font-family="Helvetica,sans-Serif" font-size="10.00">_block_index_index_for_index</text>
</a>
</g>
</g>
<!-- Node5&#45;&gt;Node6 -->
<g id="edge5_Node000005_Node000006" class="edge">
<title>Node5&#45;&gt;Node6</title>
<g id="a_edge5_Node000005_Node000006"><a xlink:title=" ">
<path fill="none" stroke="#63b8ff" d="M347.27,-84C355.37,-84 363.66,-84 371.88,-84"/>
<polygon fill="#63b8ff" stroke="#63b8ff" points="371.63,-87.5 381.63,-84 371.63,-80.5 371.63,-87.5"/>
</a>
</g>
</g>
</g>
</svg>

<g id="navigator" transform="translate(0 0)" fill="#404254">
  <rect fill="#f2f5e9" fill-opacity="0.5" stroke="#606060" stroke-width=".5" x="0" y="0" width="60" height="60"/>
  <use id="zoomplus" xlink:href="#zoomPlus" x="17" y="9" onmousedown="handleZoom(evt,'in')"/>
  <use id="zoomminus" xlink:href="#zoomMin" x="42" y="9" onmousedown="handleZoom(evt,'out')"/>
  <use id="reset" xlink:href="#resetDef" x="30" y="36" onmousedown="handleReset()"/>
   <use id="arrowup" xlink:href="#arrowUp" x="0" y="0" onmousedown="handlePan(0,-1)"/>
  <use id="arrowright" xlink:href="#arrowRight" x="0" y="0" onmousedown="handlePan(1,0)"/>
  <use id="arrowdown" xlink:href="#arrowDown" x="0" y="0" onmousedown="handlePan(0,1)"/>
  <use id="arrowleft" xlink:href="#arrowLeft" x="0" y="0" onmousedown="handlePan(-1,0)"/>
</g>
<svg viewBox="0 0 15 15" width="100%" height="30px" preserveAspectRatio="xMaxYMin meet">
 <g id="arrow_out" transform="scale(0.3 0.3)">
  <a xlink:href="structmoodycamel_1_1ConcurrentQueue_1_1ImplicitProducer_a6b32bec6e776a10946ed78f0b8281f23_cgraph_org.svg" target="_base">
   <rect id="button" ry="5" rx="5" y="6" x="6" height="38" width="38"
        fill="#f2f5e9" fill-opacity="0.5" stroke="#606060" stroke-width="1.0"/>
   <path id="arrow"
     d="M 11.500037,31.436501 C 11.940474,20.09759 22.043105,11.32322 32.158766,21.979434 L 37.068811,17.246167 C 37.068811,17.246167 37.088388,32 37.088388,32 L 22.160133,31.978069 C 22.160133,31.978069 26.997745,27.140456 26.997745,27.140456 C 18.528582,18.264221 13.291696,25.230495 11.500037,31.436501 z"
     style="fill:#404040;"/>
  </a>
 </g>
</svg>

<style type='text/css'>
<![CDATA[
[data-mouse-over-selected='false'] { opacity: 0.7; }
[data-mouse-over-selected='true']  { opacity: 1.0; }
]]>
</style>
<script type="application/ecmascript"><![CDATA[
document.addEventListener('DOMContentLoaded', (event) => {
  highlightEdges();
  highlightAdjacentNodes();
});
]]></script>
</svg>
