<?xml version="1.0" encoding="UTF-8" standalone="no"?>
<!DOCTYPE svg PUBLIC "-//W3C//DTD SVG 1.1//EN"
 "http://www.w3.org/Graphics/SVG/1.1/DTD/svg11.dtd">
<!-- Generated by graphviz version 8.1.0 (20230707.0739)
 -->
<!-- Title: moodycamel::ConcurrentQueue::ImplicitProducer::new_block_index Pages: 1 -->
<svg width="365pt" height="102pt"
 viewBox="0.00 0.00 364.75 102.00" xmlns="http://www.w3.org/2000/svg" xmlns:xlink="http://www.w3.org/1999/xlink">
<g id="graph0" class="graph" transform="scale(1 1) rotate(0) translate(4 98)">
<title>moodycamel::ConcurrentQueue::ImplicitProducer::new_block_index</title>
<!-- Node1 -->
<g id="Node000001" class="node">
<title>Node1</title>
<g id="a_Node000001"><a xlink:title=" ">
<polygon fill="#999999" stroke="#666666" points="356.75,-72 203.5,-72 203.5,-28 356.75,-28 356.75,-72"/>
<text text-anchor="start" x="211.5" y="-58.5" font-family="Helvetica,sans-Serif" font-size="10.00">moodycamel::ConcurrentQueue</text>
<text text-anchor="start" x="211.5" y="-46.5" font-family="Helvetica,sans-Serif" font-size="10.00">::ImplicitProducer::new</text>
<text text-anchor="middle" x="280.12" y="-34.5" font-family="Helvetica,sans-Serif" font-size="10.00">_block_index</text>
</a>
</g>
</g>
<!-- Node2 -->
<g id="Node000002" class="node">
<title>Node2</title>
<g id="a_Node000002"><a xlink:href="../../d4/d1f/structmoodycamel_1_1ConcurrentQueue_1_1ImplicitProducer.html#aa5a917edfe3a045654b20e14a0a9fd8a" target="_top" xlink:title=" ">
<polygon fill="white" stroke="#666666" points="167.5,-94 0,-94 0,-62 167.5,-62 167.5,-94"/>
<text text-anchor="start" x="8" y="-80.5" font-family="Helvetica,sans-Serif" font-size="10.00">moodycamel::ConcurrentQueue</text>
<text text-anchor="middle" x="83.75" y="-68.5" font-family="Helvetica,sans-Serif" font-size="10.00">::ImplicitProducer::ImplicitProducer</text>
</a>
</g>
</g>
<!-- Node1&#45;&gt;Node2 -->
<g id="edge1_Node000001_Node000002" class="edge">
<title>Node1&#45;&gt;Node2</title>
<g id="a_edge1_Node000001_Node000002"><a xlink:title=" ">
<path fill="none" stroke="#63b8ff" d="M192.43,-62.49C184.23,-63.67 175.92,-64.87 167.76,-66.04"/>
<polygon fill="#63b8ff" stroke="#63b8ff" points="192.74,-65.84 202.14,-60.95 191.74,-58.91 192.74,-65.84"/>
</a>
</g>
</g>
<!-- Node3 -->
<g id="Node000003" class="node">
<title>Node3</title>
<g id="a_Node000003"><a xlink:href="../../d4/d1f/structmoodycamel_1_1ConcurrentQueue_1_1ImplicitProducer.html#aa6d3e5e6b4316468ae9516dddddcb1bc" target="_top" xlink:title=" ">
<polygon fill="white" stroke="#666666" points="160.38,-44 7.12,-44 7.12,0 160.38,0 160.38,-44"/>
<text text-anchor="start" x="15.12" y="-30.5" font-family="Helvetica,sans-Serif" font-size="10.00">moodycamel::ConcurrentQueue</text>
<text text-anchor="start" x="15.12" y="-18.5" font-family="Helvetica,sans-Serif" font-size="10.00">::ImplicitProducer::insert</text>
<text text-anchor="middle" x="83.75" y="-6.5" font-family="Helvetica,sans-Serif" font-size="10.00">_block_index_entry</text>
</a>
</g>
</g>
<!-- Node1&#45;&gt;Node3 -->
<g id="edge2_Node000001_Node000003" class="edge">
<title>Node1&#45;&gt;Node3</title>
<g id="a_edge2_Node000001_Node000003"><a xlink:title=" ">
<path fill="none" stroke="#63b8ff" d="M192.58,-37.53C181.95,-36 171.14,-34.45 160.68,-32.94"/>
<polygon fill="#63b8ff" stroke="#63b8ff" points="191.74,-41.09 202.14,-39.05 192.74,-34.16 191.74,-41.09"/>
</a>
</g>
</g>
</g>
</svg>
