<?xml version="1.0" encoding="UTF-8" standalone="no"?>
<!DOCTYPE svg PUBLIC "-//W3C//DTD SVG 1.1//EN"
 "http://www.w3.org/Graphics/SVG/1.1/DTD/svg11.dtd">
<!-- Generated by graphviz version 8.1.0 (20230707.0739)
 -->
<!-- Title: moodycamel::ConcurrentQueue::ImplicitProducer::dequeue_bulk Pages: 1 -->
<svg width="355pt" height="152pt"
 viewBox="0.00 0.00 355.00 152.00" xmlns="http://www.w3.org/2000/svg" xmlns:xlink="http://www.w3.org/1999/xlink">
<g id="graph0" class="graph" transform="scale(1 1) rotate(0) translate(4 148)">
<title>moodycamel::ConcurrentQueue::ImplicitProducer::dequeue_bulk</title>
<!-- Node1 -->
<g id="Node000001" class="node">
<title>Node1</title>
<g id="a_Node000001"><a xlink:title=" ">
<polygon fill="#999999" stroke="#666666" points="157.75,-94 0,-94 0,-62 157.75,-62 157.75,-94"/>
<text text-anchor="start" x="8" y="-80.5" font-family="Helvetica,sans-Serif" font-size="10.00">moodycamel::ConcurrentQueue</text>
<text text-anchor="middle" x="78.88" y="-68.5" font-family="Helvetica,sans-Serif" font-size="10.00">::ImplicitProducer::dequeue_bulk</text>
</a>
</g>
</g>
<!-- Node2 -->
<g id="Node000002" class="node">
<title>Node2</title>
<g id="a_Node000002"><a xlink:href="../../d8/dc8/classmoodycamel_1_1ConcurrentQueue.html#a6c7ea19979bdc48733f942f6dba1512f" target="_top" xlink:title=" ">
<polygon fill="white" stroke="#666666" points="347,-144 193.75,-144 193.75,-112 347,-112 347,-144"/>
<text text-anchor="start" x="201.75" y="-130.5" font-family="Helvetica,sans-Serif" font-size="10.00">moodycamel::ConcurrentQueue</text>
<text text-anchor="middle" x="270.38" y="-118.5" font-family="Helvetica,sans-Serif" font-size="10.00">::add_block_to_free_list</text>
</a>
</g>
</g>
<!-- Node1&#45;&gt;Node2 -->
<g id="edge1_Node000001_Node000002" class="edge">
<title>Node1&#45;&gt;Node2</title>
<g id="a_edge1_Node000001_Node000002"><a xlink:title=" ">
<path fill="none" stroke="#63b8ff" d="M142.19,-94.44C159.59,-99.03 178.66,-104.06 196.61,-108.8"/>
<polygon fill="#63b8ff" stroke="#63b8ff" points="195.46,-112.38 206.03,-111.55 197.25,-105.61 195.46,-112.38"/>
</a>
</g>
</g>
<!-- Node3 -->
<g id="Node000003" class="node">
<title>Node3</title>
<g id="a_Node000003"><a xlink:href="../../d6/d0f/namespacemoodycamel_1_1details.html#a6b9ee0505690e9c90b5279e46c733391" target="_top" xlink:title=" ">
<polygon fill="white" stroke="#666666" points="323.38,-94 217.38,-94 217.38,-62 323.38,-62 323.38,-94"/>
<text text-anchor="start" x="225.38" y="-80.5" font-family="Helvetica,sans-Serif" font-size="10.00">moodycamel::details</text>
<text text-anchor="middle" x="270.38" y="-68.5" font-family="Helvetica,sans-Serif" font-size="10.00">::deref_noexcept</text>
</a>
</g>
</g>
<!-- Node1&#45;&gt;Node3 -->
<g id="edge2_Node000001_Node000003" class="edge">
<title>Node1&#45;&gt;Node3</title>
<g id="a_edge2_Node000001_Node000003"><a xlink:title=" ">
<path fill="none" stroke="#63b8ff" d="M158.05,-78C174.04,-78 190.69,-78 206.09,-78"/>
<polygon fill="#63b8ff" stroke="#63b8ff" points="206.05,-81.5 216.05,-78 206.05,-74.5 206.05,-81.5"/>
</a>
</g>
</g>
<!-- Node4 -->
<g id="Node000004" class="node">
<title>Node4</title>
<g id="a_Node000004"><a xlink:href="../../d4/d1f/structmoodycamel_1_1ConcurrentQueue_1_1ImplicitProducer.html#ad1ccbb67d675d29732e99ced35d27012" target="_top" xlink:title=" ">
<polygon fill="white" stroke="#666666" points="347,-44 193.75,-44 193.75,0 347,0 347,-44"/>
<text text-anchor="start" x="201.75" y="-30.5" font-family="Helvetica,sans-Serif" font-size="10.00">moodycamel::ConcurrentQueue</text>
<text text-anchor="start" x="201.75" y="-18.5" font-family="Helvetica,sans-Serif" font-size="10.00">::ImplicitProducer::get</text>
<text text-anchor="middle" x="270.38" y="-6.5" font-family="Helvetica,sans-Serif" font-size="10.00">_block_index_index_for_index</text>
</a>
</g>
</g>
<!-- Node1&#45;&gt;Node4 -->
<g id="edge3_Node000001_Node000004" class="edge">
<title>Node1&#45;&gt;Node4</title>
<g id="a_edge3_Node000001_Node000004"><a xlink:title=" ">
<path fill="none" stroke="#63b8ff" d="M135.71,-61.5C150.57,-57.11 166.99,-52.26 183.07,-47.5"/>
<polygon fill="#63b8ff" stroke="#63b8ff" points="183.98,-50.59 192.58,-44.4 182,-43.88 183.98,-50.59"/>
</a>
</g>
</g>
</g>
</svg>
