<?xml version="1.0" encoding="UTF-8" standalone="no"?>
<!DOCTYPE svg PUBLIC "-//W3C//DTD SVG 1.1//EN"
 "http://www.w3.org/Graphics/SVG/1.1/DTD/svg11.dtd">
<!-- Generated by graphviz version 8.1.0 (20230707.0739)
 -->
<!-- Title: Float32PubSubTypes.h Pages: 1 -->
<svg width="300pt" height="84pt"
 viewBox="0.00 0.00 299.75 84.00" xmlns="http://www.w3.org/2000/svg" xmlns:xlink="http://www.w3.org/1999/xlink">
<g id="graph0" class="graph" transform="scale(1 1) rotate(0) translate(4 80)">
<title>Float32PubSubTypes.h</title>
<!-- Node1 -->
<g id="Node000001" class="node">
<title>Node1</title>
<g id="a_Node000001"><a xlink:title=" ">
<polygon fill="#999999" stroke="#666666" points="208.5,-76 91.25,-76 91.25,-56 208.5,-56 208.5,-76"/>
<text text-anchor="middle" x="149.88" y="-62.5" font-family="Helvetica,sans-Serif" font-size="10.00">Float32PubSubTypes.h</text>
</a>
</g>
</g>
<!-- Node2 -->
<g id="Node000002" class="node">
<title>Node2</title>
<g id="a_Node000002"><a xlink:href="../../da/d03/CarlaSpeedometerSensor_8cpp.html" target="_top" xlink:title=" ">
<polygon fill="white" stroke="#666666" points="145.75,-20 0,-20 0,0 145.75,0 145.75,-20"/>
<text text-anchor="middle" x="72.88" y="-6.5" font-family="Helvetica,sans-Serif" font-size="10.00">CarlaSpeedometerSensor.cpp</text>
</a>
</g>
</g>
<!-- Node1&#45;&gt;Node2 -->
<g id="edge1_Node000001_Node000002" class="edge">
<title>Node1&#45;&gt;Node2</title>
<g id="a_edge1_Node000001_Node000002"><a xlink:title=" ">
<path fill="none" stroke="#63b8ff" d="M127.83,-49.54C114.47,-40.17 97.84,-28.51 86.39,-20.48"/>
<polygon fill="#63b8ff" stroke="#63b8ff" points="125.27,-52.72 135.46,-55.59 129.28,-46.99 125.27,-52.72"/>
</a>
</g>
</g>
<!-- Node3 -->
<g id="Node000003" class="node">
<title>Node3</title>
<g id="a_Node000003"><a xlink:href="../../de/d9f/Float32PubSubTypes_8cpp.html" target="_top" xlink:title=" ">
<polygon fill="white" stroke="#666666" points="291.75,-20 164,-20 164,0 291.75,0 291.75,-20"/>
<text text-anchor="middle" x="227.88" y="-6.5" font-family="Helvetica,sans-Serif" font-size="10.00">Float32PubSubTypes.cpp</text>
</a>
</g>
</g>
<!-- Node1&#45;&gt;Node3 -->
<g id="edge2_Node000001_Node000003" class="edge">
<title>Node1&#45;&gt;Node3</title>
<g id="a_edge2_Node000001_Node000003"><a xlink:title=" ">
<path fill="none" stroke="#63b8ff" d="M172.2,-49.54C185.74,-40.17 202.59,-28.51 214.18,-20.48"/>
<polygon fill="#63b8ff" stroke="#63b8ff" points="170.69,-47.02 164.46,-55.59 174.68,-52.78 170.69,-47.02"/>
</a>
</g>
</g>
</g>
</svg>
