<?xml version="1.0" encoding="UTF-8" standalone="no"?>
<!DOCTYPE svg PUBLIC "-//W3C//DTD SVG 1.1//EN"
 "http://www.w3.org/Graphics/SVG/1.1/DTD/svg11.dtd">
<!-- Generated by graphviz version 8.1.0 (20230707.0739)
 -->
<!-- Title: TrafficManagerServer.h Pages: 1 -->
<svg width="244pt" height="140pt"
 viewBox="0.00 0.00 244.38 140.00" xmlns="http://www.w3.org/2000/svg" xmlns:xlink="http://www.w3.org/1999/xlink">

<svg id="main" version="1.1" xmlns="http://www.w3.org/2000/svg" xmlns:xlink="http://www.w3.org/1999/xlink" xml:space="preserve" onload="init(evt)">
<style type="text/css"><![CDATA[
.node, .edge {opacity: 0.7;}
.node.selected, .edge.selected {opacity: 1;}
.edge:hover path { stroke: red; }
.edge:hover polygon { stroke: red; fill: red; }
]]></style>
<script type="application/ecmascript" xlink:href="../../svg.min.js"/>
<svg id="graph" class="graph">
<g id="graph0" class="graph" transform="scale(1 1) rotate(0) translate(4 136)">
<title>TrafficManagerServer.h</title>
<!-- Node1 -->
<g id="Node000001" class="node">
<title>Node1</title>
<g id="a_Node000001"><a xlink:title=" ">
<polygon fill="#999999" stroke="#666666" points="169,-132 54.75,-132 54.75,-112 169,-112 169,-132"/>
<text text-anchor="middle" x="111.88" y="-118.5" font-family="Helvetica,sans-Serif" font-size="10.00">TrafficManagerServer.h</text>
</a>
</g>
</g>
<!-- Node2 -->
<g id="Node000002" class="node">
<title>Node2</title>
<g id="a_Node000002"><a xlink:href="../../db/ddf/TrafficManagerLocal_8h.html" target="_top" xlink:title=" ">
<polygon fill="white" stroke="#666666" points="167.12,-76 56.62,-76 56.62,-56 167.12,-56 167.12,-76"/>
<text text-anchor="middle" x="111.88" y="-62.5" font-family="Helvetica,sans-Serif" font-size="10.00">TrafficManagerLocal.h</text>
</a>
</g>
</g>
<!-- Node1&#45;&gt;Node2 -->
<g id="edge1_Node000001_Node000002" class="edge">
<title>Node1&#45;&gt;Node2</title>
<g id="a_edge1_Node000001_Node000002"><a xlink:title=" ">
<path fill="none" stroke="#63b8ff" d="M111.88,-100.71C111.88,-92.32 111.88,-83.01 111.88,-76.3"/>
<polygon fill="#63b8ff" stroke="#63b8ff" points="108.38,-100.59 111.88,-110.59 115.38,-100.59 108.38,-100.59"/>
</a>
</g>
</g>
<!-- Node3 -->
<g id="Node000003" class="node">
<title>Node3</title>
<g id="a_Node000003"><a xlink:href="../../db/d04/TrafficManager_8cpp.html" target="_top" xlink:title=" ">
<polygon fill="white" stroke="#666666" points="97.75,-20 0,-20 0,0 97.75,0 97.75,-20"/>
<text text-anchor="middle" x="48.88" y="-6.5" font-family="Helvetica,sans-Serif" font-size="10.00">TrafficManager.cpp</text>
</a>
</g>
</g>
<!-- Node2&#45;&gt;Node3 -->
<g id="edge2_Node000002_Node000003" class="edge">
<title>Node2&#45;&gt;Node3</title>
<g id="a_edge2_Node000002_Node000003"><a xlink:title=" ">
<path fill="none" stroke="#63b8ff" d="M92.83,-48.68C82,-39.39 68.81,-28.09 59.72,-20.3"/>
<polygon fill="#63b8ff" stroke="#63b8ff" points="90.03,-51.74 99.9,-55.59 94.59,-46.43 90.03,-51.74"/>
</a>
</g>
</g>
<!-- Node4 -->
<g id="Node000004" class="node">
<title>Node4</title>
<g id="a_Node000004"><a xlink:href="../../da/d53/TrafficManagerLocal_8cpp.html" target="_top" xlink:title=" ">
<polygon fill="white" stroke="#666666" points="236.38,-20 115.38,-20 115.38,0 236.38,0 236.38,-20"/>
<text text-anchor="middle" x="175.88" y="-6.5" font-family="Helvetica,sans-Serif" font-size="10.00">TrafficManagerLocal.cpp</text>
</a>
</g>
</g>
<!-- Node2&#45;&gt;Node4 -->
<g id="edge3_Node000002_Node000004" class="edge">
<title>Node2&#45;&gt;Node4</title>
<g id="a_edge3_Node000002_Node000004"><a xlink:title=" ">
<path fill="none" stroke="#63b8ff" d="M131.22,-48.68C142.23,-39.39 155.62,-28.09 164.85,-20.3"/>
<polygon fill="#63b8ff" stroke="#63b8ff" points="129.41,-46.47 124.02,-55.59 133.92,-51.82 129.41,-46.47"/>
</a>
</g>
</g>
</g>
</svg>
</svg>

<style type='text/css'>
<![CDATA[
[data-mouse-over-selected='false'] { opacity: 0.7; }
[data-mouse-over-selected='true']  { opacity: 1.0; }
]]>
</style>
<script type="application/ecmascript"><![CDATA[
document.addEventListener('DOMContentLoaded', (event) => {
  highlightEdges();
  highlightAdjacentNodes();
});
]]></script>
</svg>
