<?xml version="1.0" encoding="UTF-8" standalone="no"?>
<!DOCTYPE svg PUBLIC "-//W3C//DTD SVG 1.1//EN"
 "http://www.w3.org/Graphics/SVG/1.1/DTD/svg11.dtd">
<!-- Generated by graphviz version 8.1.0 (20230707.0739)
 -->
<!-- Title: CarlaReplayer::CheckPlayAfterMapLoaded Pages: 1 -->
<svg width="822pt" height="869pt"
 viewBox="0.00 0.00 822.25 869.03" xmlns="http://www.w3.org/2000/svg" xmlns:xlink="http://www.w3.org/1999/xlink">
<g id="graph0" class="graph" transform="scale(1 1) rotate(0) translate(4 865.03)">
<title>CarlaReplayer::CheckPlayAfterMapLoaded</title>
<!-- Node1 -->
<g id="Node000001" class="node">
<title>Node1</title>
<g id="a_Node000001"><a xlink:title=" ">
<polygon fill="#999999" stroke="#666666" points="130,-366.03 0,-366.03 0,-334.03 130,-334.03 130,-366.03"/>
<text text-anchor="start" x="8" y="-352.53" font-family="Helvetica,sans-Serif" font-size="10.00">CarlaReplayer::CheckPlay</text>
<text text-anchor="middle" x="65" y="-340.53" font-family="Helvetica,sans-Serif" font-size="10.00">AfterMapLoaded</text>
</a>
</g>
</g>
<!-- Node2 -->
<g id="Node000002" class="node">
<title>Node2</title>
<g id="a_Node000002"><a xlink:href="../../dc/dc6/classCarlaReplayer.html#a324267de6b4818acf1d577d4e62f7a0e" target="_top" xlink:title=" ">
<polygon fill="white" stroke="#666666" points="311.38,-801.03 170.88,-801.03 170.88,-781.03 311.38,-781.03 311.38,-801.03"/>
<text text-anchor="middle" x="241.12" y="-787.53" font-family="Helvetica,sans-Serif" font-size="10.00">CarlaReplayer::GetTotalTime</text>
</a>
</g>
</g>
<!-- Node1&#45;&gt;Node2 -->
<g id="edge1_Node000001_Node000002" class="edge">
<title>Node1&#45;&gt;Node2</title>
<g id="a_edge1_Node000001_Node000002"><a xlink:title=" ">
<path fill="none" stroke="#63b8ff" d="M72.51,-366.51C99.46,-434.78 202.33,-695.29 232.04,-770.55"/>
<polygon fill="#63b8ff" stroke="#63b8ff" points="229.09,-771.61 236.02,-779.63 235.6,-769.04 229.09,-771.61"/>
</a>
</g>
</g>
<!-- Node6 -->
<g id="Node000006" class="node">
<title>Node6</title>
<g id="a_Node000006"><a xlink:href="../../dc/dc6/classCarlaReplayer.html#ae0a5643d88257bdceb9e12d5c33194cb" target="_top" xlink:title=" ">
<polygon fill="white" stroke="#666666" points="316.25,-409.03 166,-409.03 166,-389.03 316.25,-389.03 316.25,-409.03"/>
<text text-anchor="middle" x="241.12" y="-395.53" font-family="Helvetica,sans-Serif" font-size="10.00">CarlaReplayer::ProcessToTime</text>
</a>
</g>
</g>
<!-- Node1&#45;&gt;Node6 -->
<g id="edge5_Node000001_Node000006" class="edge">
<title>Node1&#45;&gt;Node6</title>
<g id="a_edge5_Node000001_Node000006"><a xlink:title=" ">
<path fill="none" stroke="#63b8ff" d="M124.47,-366.48C146.51,-372.68 171.3,-379.66 192.26,-385.56"/>
<polygon fill="#63b8ff" stroke="#63b8ff" points="191.27,-389.19 201.84,-388.53 193.16,-382.46 191.27,-389.19"/>
</a>
</g>
</g>
<!-- Node35 -->
<g id="Node000035" class="node">
<title>Node35</title>
<g id="a_Node000035"><a xlink:href="../../dc/dc6/classCarlaReplayer.html#af627917f2c95135fb11b59af4f65dbf7" target="_top" xlink:title=" ">
<polygon fill="white" stroke="#666666" points="487.12,-57.03 384.12,-57.03 384.12,-37.03 487.12,-37.03 487.12,-57.03"/>
<text text-anchor="middle" x="435.62" y="-43.53" font-family="Helvetica,sans-Serif" font-size="10.00">CarlaReplayer::Stop</text>
</a>
</g>
</g>
<!-- Node1&#45;&gt;Node35 -->
<g id="edge47_Node000001_Node000035" class="edge">
<title>Node1&#45;&gt;Node35</title>
<g id="a_edge47_Node000001_Node000035"><a xlink:title=" ">
<path fill="none" stroke="#63b8ff" d="M107.05,-333.68C162.63,-309.47 261.18,-258.86 316.25,-185.03 349.29,-140.73 311.89,-103.76 352.25,-66.03 358.29,-60.38 365.66,-56.3 373.48,-53.37"/>
<polygon fill="#63b8ff" stroke="#63b8ff" points="374.42,-56.43 382.94,-50.14 372.36,-49.74 374.42,-56.43"/>
</a>
</g>
</g>
<!-- Node38 -->
<g id="Node000038" class="node">
<title>Node38</title>
<g id="a_Node000038"><a xlink:href="../../dc/dc6/classCarlaReplayer.html#a0db4e34019631504494ef277f9a54402" target="_top" xlink:title=" ">
<polygon fill="white" stroke="#666666" points="298.25,-176.03 184,-176.03 184,-156.03 298.25,-156.03 298.25,-176.03"/>
<text text-anchor="middle" x="241.12" y="-162.53" font-family="Helvetica,sans-Serif" font-size="10.00">CarlaReplayer::Rewind</text>
</a>
</g>
</g>
<!-- Node1&#45;&gt;Node38 -->
<g id="edge44_Node000001_Node000038" class="edge">
<title>Node1&#45;&gt;Node38</title>
<g id="a_edge44_Node000001_Node000038"><a xlink:title=" ">
<path fill="none" stroke="#63b8ff" d="M80.28,-333.57C99.42,-311.65 134.62,-271.83 166,-239.03 184.43,-219.75 206.26,-198.43 221.44,-183.83"/>
<polygon fill="#63b8ff" stroke="#63b8ff" points="223.32,-186.91 228.12,-177.47 218.48,-181.86 223.32,-186.91"/>
</a>
</g>
</g>
<!-- Node3 -->
<g id="Node000003" class="node">
<title>Node3</title>
<g id="a_Node000003"><a xlink:href="../../d9/df8/structCarlaRecorderFrame.html#afd74875fdf10b396fc36c56ae1f89f0d" target="_top" xlink:title=" ">
<polygon fill="white" stroke="#666666" points="488.25,-785.03 383,-785.03 383,-753.03 488.25,-753.03 488.25,-785.03"/>
<text text-anchor="start" x="391" y="-771.53" font-family="Helvetica,sans-Serif" font-size="10.00">CarlaRecorderFrame</text>
<text text-anchor="middle" x="435.62" y="-759.53" font-family="Helvetica,sans-Serif" font-size="10.00">::Read</text>
</a>
</g>
</g>
<!-- Node2&#45;&gt;Node3 -->
<g id="edge2_Node000002_Node000003" class="edge">
<title>Node2&#45;&gt;Node3</title>
<g id="a_edge2_Node000002_Node000003"><a xlink:title=" ">
<path fill="none" stroke="#63b8ff" d="M311.62,-783.08C331.34,-780.83 352.68,-778.39 371.97,-776.19"/>
<polygon fill="#63b8ff" stroke="#63b8ff" points="372.22,-779.57 381.75,-774.95 371.42,-772.61 372.22,-779.57"/>
</a>
</g>
</g>
<!-- Node4 -->
<g id="Node000004" class="node">
<title>Node4</title>
<g id="a_Node000004"><a xlink:href="../../dc/dc6/classCarlaReplayer.html#a6aff6b42446e61dd5ea2efcd7fa93fb1" target="_top" xlink:title=" ">
<polygon fill="white" stroke="#666666" points="503.62,-861.03 367.62,-861.03 367.62,-841.03 503.62,-841.03 503.62,-861.03"/>
<text text-anchor="middle" x="435.62" y="-847.53" font-family="Helvetica,sans-Serif" font-size="10.00">CarlaReplayer::ReadHeader</text>
</a>
</g>
</g>
<!-- Node2&#45;&gt;Node4 -->
<g id="edge3_Node000002_Node000004" class="edge">
<title>Node2&#45;&gt;Node4</title>
<g id="a_edge3_Node000002_Node000004"><a xlink:title=" ">
<path fill="none" stroke="#63b8ff" d="M267.18,-801.41C289.29,-810.33 322.55,-823.11 352.25,-832.03 359.32,-834.15 366.79,-836.17 374.24,-838.05"/>
<polygon fill="#63b8ff" stroke="#63b8ff" points="373.15,-841.63 383.69,-840.6 374.81,-834.83 373.15,-841.63"/>
</a>
</g>
</g>
<!-- Node5 -->
<g id="Node000005" class="node">
<title>Node5</title>
<g id="a_Node000005"><a xlink:href="../../dc/dc6/classCarlaReplayer.html#a02e158d388f249b418bf4935bfd831b4" target="_top" xlink:title=" ">
<polygon fill="white" stroke="#666666" points="502.12,-823.03 369.12,-823.03 369.12,-803.03 502.12,-803.03 502.12,-823.03"/>
<text text-anchor="middle" x="435.62" y="-809.53" font-family="Helvetica,sans-Serif" font-size="10.00">CarlaReplayer::SkipPacket</text>
</a>
</g>
</g>
<!-- Node2&#45;&gt;Node5 -->
<g id="edge4_Node000002_Node000005" class="edge">
<title>Node2&#45;&gt;Node5</title>
<g id="a_edge4_Node000002_Node000005"><a xlink:title=" ">
<path fill="none" stroke="#63b8ff" d="M311.62,-798.97C326.76,-800.7 342.86,-802.54 358.24,-804.3"/>
<polygon fill="#63b8ff" stroke="#63b8ff" points="357.43,-807.84 367.76,-805.5 358.23,-800.89 357.43,-807.84"/>
</a>
</g>
</g>
<!-- Node6&#45;&gt;Node3 -->
<g id="edge37_Node000006_Node000003" class="edge">
<title>Node6&#45;&gt;Node3</title>
<g id="a_edge37_Node000006_Node000003"><a xlink:title=" ">
<path fill="none" stroke="#63b8ff" d="M242.16,-409.52C242.9,-456.01 252.18,-645.38 352.25,-744.03 358.02,-749.72 365.05,-754.12 372.53,-757.52"/>
<polygon fill="#63b8ff" stroke="#63b8ff" points="370.98,-761.06 381.57,-761.44 373.53,-754.54 370.98,-761.06"/>
</a>
</g>
</g>
<!-- Node6&#45;&gt;Node4 -->
<g id="edge38_Node000006_Node000004" class="edge">
<title>Node6&#45;&gt;Node4</title>
<g id="a_edge38_Node000006_Node000004"><a xlink:title=" ">
<path fill="none" stroke="#63b8ff" d="M243.28,-409.2C250.24,-468.54 288.33,-769.52 352.25,-832.03 354.04,-833.78 355.96,-835.38 357.98,-836.84"/>
<polygon fill="#63b8ff" stroke="#63b8ff" points="356.02,-840.35 366.41,-842.43 359.59,-834.32 356.02,-840.35"/>
</a>
</g>
</g>
<!-- Node6&#45;&gt;Node5 -->
<g id="edge39_Node000006_Node000005" class="edge">
<title>Node6&#45;&gt;Node5</title>
<g id="a_edge39_Node000006_Node000005"><a xlink:title=" ">
<path fill="none" stroke="#63b8ff" d="M243.58,-409.4C251.7,-466.07 293.32,-737.7 352.25,-794.03 354.41,-796.09 356.75,-797.95 359.23,-799.62"/>
<polygon fill="#63b8ff" stroke="#63b8ff" points="357.28,-803.09 367.72,-804.88 360.67,-796.97 357.28,-803.09"/>
</a>
</g>
</g>
<!-- Node7 -->
<g id="Node000007" class="node">
<title>Node7</title>
<g id="a_Node000007"><a xlink:href="../../dc/dc6/classCarlaReplayer.html#ab8f3012d1c7810dedfaaedacd0e1e601" target="_top" xlink:title=" ">
<polygon fill="white" stroke="#666666" points="506.25,-735.03 365,-735.03 365,-703.03 506.25,-703.03 506.25,-735.03"/>
<text text-anchor="start" x="373" y="-721.53" font-family="Helvetica,sans-Serif" font-size="10.00">CarlaReplayer::ProcessAnim</text>
<text text-anchor="middle" x="435.62" y="-709.53" font-family="Helvetica,sans-Serif" font-size="10.00">Biker</text>
</a>
</g>
</g>
<!-- Node6&#45;&gt;Node7 -->
<g id="edge6_Node000006_Node000007" class="edge">
<title>Node6&#45;&gt;Node7</title>
<g id="a_edge6_Node000006_Node000007"><a xlink:title=" ">
<path fill="none" stroke="#63b8ff" d="M242.8,-409.42C246.1,-451.56 264.19,-611.31 352.25,-694.03 353.41,-695.11 354.61,-696.15 355.85,-697.15"/>
<polygon fill="#63b8ff" stroke="#63b8ff" points="353.34,-700.35 363.58,-703.08 357.28,-694.56 353.34,-700.35"/>
</a>
</g>
</g>
<!-- Node9 -->
<g id="Node000009" class="node">
<title>Node9</title>
<g id="a_Node000009"><a xlink:href="../../dc/dc6/classCarlaReplayer.html#a3e7f6d573e365e8286fff2d364508898" target="_top" xlink:title=" ">
<polygon fill="white" stroke="#666666" points="506.25,-685.03 365,-685.03 365,-653.03 506.25,-653.03 506.25,-685.03"/>
<text text-anchor="start" x="373" y="-671.53" font-family="Helvetica,sans-Serif" font-size="10.00">CarlaReplayer::ProcessAnim</text>
<text text-anchor="middle" x="435.62" y="-659.53" font-family="Helvetica,sans-Serif" font-size="10.00">Vehicle</text>
</a>
</g>
</g>
<!-- Node6&#45;&gt;Node9 -->
<g id="edge8_Node000006_Node000009" class="edge">
<title>Node6&#45;&gt;Node9</title>
<g id="a_edge8_Node000006_Node000009"><a xlink:title=" ">
<path fill="none" stroke="#63b8ff" d="M243.68,-409.44C249.85,-447.02 276.1,-577.03 352.25,-644.03 353.44,-645.07 354.68,-646.08 355.95,-647.04"/>
<polygon fill="#63b8ff" stroke="#63b8ff" points="353.54,-650.3 363.83,-652.8 357.35,-644.42 353.54,-650.3"/>
</a>
</g>
</g>
<!-- Node10 -->
<g id="Node000010" class="node">
<title>Node10</title>
<g id="a_Node000010"><a xlink:href="../../dc/dc6/classCarlaReplayer.html#a36173bcde3a636cea162c3570c66b849" target="_top" xlink:title=" ">
<polygon fill="white" stroke="#666666" points="506.25,-535.03 365,-535.03 365,-503.03 506.25,-503.03 506.25,-535.03"/>
<text text-anchor="start" x="373" y="-521.53" font-family="Helvetica,sans-Serif" font-size="10.00">CarlaReplayer::ProcessAnim</text>
<text text-anchor="middle" x="435.62" y="-509.53" font-family="Helvetica,sans-Serif" font-size="10.00">VehicleWheels</text>
</a>
</g>
</g>
<!-- Node6&#45;&gt;Node10 -->
<g id="edge9_Node000006_Node000010" class="edge">
<title>Node6&#45;&gt;Node10</title>
<g id="a_edge9_Node000006_Node000010"><a xlink:title=" ">
<path fill="none" stroke="#63b8ff" d="M251.37,-409.49C269.07,-428.9 309.78,-470.65 352.25,-494.03 355.1,-495.6 358.07,-497.08 361.11,-498.48"/>
<polygon fill="#63b8ff" stroke="#63b8ff" points="359.43,-502 370,-502.68 362.16,-495.55 359.43,-502"/>
</a>
</g>
</g>
<!-- Node13 -->
<g id="Node000013" class="node">
<title>Node13</title>
<g id="a_Node000013"><a xlink:href="../../dc/dc6/classCarlaReplayer.html#aaea1d59cb968cbf79045a141601195d5" target="_top" xlink:title=" ">
<polygon fill="white" stroke="#666666" points="506.25,-635.03 365,-635.03 365,-603.03 506.25,-603.03 506.25,-635.03"/>
<text text-anchor="start" x="373" y="-621.53" font-family="Helvetica,sans-Serif" font-size="10.00">CarlaReplayer::ProcessAnim</text>
<text text-anchor="middle" x="435.62" y="-609.53" font-family="Helvetica,sans-Serif" font-size="10.00">Walker</text>
</a>
</g>
</g>
<!-- Node6&#45;&gt;Node13 -->
<g id="edge12_Node000006_Node000013" class="edge">
<title>Node6&#45;&gt;Node13</title>
<g id="a_edge12_Node000006_Node000013"><a xlink:title=" ">
<path fill="none" stroke="#63b8ff" d="M244.93,-409.3C254.31,-441.63 287.63,-542.23 352.25,-594.03 353.53,-595.05 354.84,-596.03 356.19,-596.97"/>
<polygon fill="#63b8ff" stroke="#63b8ff" points="354.2,-600.46 364.57,-602.61 357.81,-594.46 354.2,-600.46"/>
</a>
</g>
</g>
<!-- Node15 -->
<g id="Node000015" class="node">
<title>Node15</title>
<g id="a_Node000015"><a xlink:href="../../dc/dc6/classCarlaReplayer.html#a071af99588aa50267f1dffb275811397" target="_top" xlink:title=" ">
<polygon fill="white" stroke="#666666" points="505.12,-585.03 366.12,-585.03 366.12,-553.03 505.12,-553.03 505.12,-585.03"/>
<text text-anchor="start" x="374.12" y="-571.53" font-family="Helvetica,sans-Serif" font-size="10.00">CarlaReplayer::ProcessDoor</text>
<text text-anchor="middle" x="435.62" y="-559.53" font-family="Helvetica,sans-Serif" font-size="10.00">Vehicle</text>
</a>
</g>
</g>
<!-- Node6&#45;&gt;Node15 -->
<g id="edge14_Node000006_Node000015" class="edge">
<title>Node6&#45;&gt;Node15</title>
<g id="a_edge14_Node000006_Node000015"><a xlink:title=" ">
<path fill="none" stroke="#63b8ff" d="M246.97,-409.2C260.06,-435.61 298.8,-506.83 352.25,-544.03 354,-545.24 355.81,-546.4 357.66,-547.5"/>
<polygon fill="#63b8ff" stroke="#63b8ff" points="355.82,-551.01 366.3,-552.57 359.08,-544.82 355.82,-551.01"/>
</a>
</g>
</g>
<!-- Node17 -->
<g id="Node000017" class="node">
<title>Node17</title>
<g id="a_Node000017"><a xlink:href="../../dc/dc6/classCarlaReplayer.html#a929a7a4c79086339485caba9f6562c8e" target="_top" xlink:title=" ">
<polygon fill="white" stroke="#666666" points="518.25,-447.03 353,-447.03 353,-427.03 518.25,-427.03 518.25,-447.03"/>
<text text-anchor="middle" x="435.62" y="-433.53" font-family="Helvetica,sans-Serif" font-size="10.00">CarlaReplayer::ProcessEventsAdd</text>
</a>
</g>
</g>
<!-- Node6&#45;&gt;Node17 -->
<g id="edge16_Node000006_Node000017" class="edge">
<title>Node6&#45;&gt;Node17</title>
<g id="a_edge16_Node000006_Node000017"><a xlink:title=" ">
<path fill="none" stroke="#63b8ff" d="M295.24,-409.51C318.7,-414.14 346.47,-419.62 371.02,-424.47"/>
<polygon fill="#63b8ff" stroke="#63b8ff" points="370.2,-428.07 380.69,-426.58 371.55,-421.2 370.2,-428.07"/>
</a>
</g>
</g>
<!-- Node19 -->
<g id="Node000019" class="node">
<title>Node19</title>
<g id="a_Node000019"><a xlink:href="../../dc/dc6/classCarlaReplayer.html#a0281a0aff5b8977886de1709482309f9" target="_top" xlink:title=" ">
<polygon fill="white" stroke="#666666" points="516.75,-321.03 354.5,-321.03 354.5,-301.03 516.75,-301.03 516.75,-321.03"/>
<text text-anchor="middle" x="435.62" y="-307.53" font-family="Helvetica,sans-Serif" font-size="10.00">CarlaReplayer::ProcessEventsDel</text>
</a>
</g>
</g>
<!-- Node6&#45;&gt;Node19 -->
<g id="edge18_Node000006_Node000019" class="edge">
<title>Node6&#45;&gt;Node19</title>
<g id="a_edge18_Node000006_Node000019"><a xlink:title=" ">
<path fill="none" stroke="#63b8ff" d="M255.23,-388.76C275.1,-373.69 314.53,-345.67 352.25,-330.03 357.21,-327.97 362.43,-326.11 367.74,-324.44"/>
<polygon fill="#63b8ff" stroke="#63b8ff" points="368.39,-327.61 377.01,-321.45 366.43,-320.89 368.39,-327.61"/>
</a>
</g>
</g>
<!-- Node20 -->
<g id="Node000020" class="node">
<title>Node20</title>
<g id="a_Node000020"><a xlink:href="../../dc/dc6/classCarlaReplayer.html#a5ed2b19174f18dd9bcd55c289f106719" target="_top" xlink:title=" ">
<polygon fill="white" stroke="#666666" points="509.62,-283.03 361.62,-283.03 361.62,-251.03 509.62,-251.03 509.62,-283.03"/>
<text text-anchor="start" x="369.62" y="-269.53" font-family="Helvetica,sans-Serif" font-size="10.00">CarlaReplayer::ProcessEvents</text>
<text text-anchor="middle" x="435.62" y="-257.53" font-family="Helvetica,sans-Serif" font-size="10.00">Parent</text>
</a>
</g>
</g>
<!-- Node6&#45;&gt;Node20 -->
<g id="edge19_Node000006_Node000020" class="edge">
<title>Node6&#45;&gt;Node20</title>
<g id="a_edge19_Node000006_Node000020"><a xlink:title=" ">
<path fill="none" stroke="#63b8ff" d="M249.77,-388.85C266.19,-367.68 307.02,-318.7 352.25,-292.03 354.76,-290.55 357.36,-289.15 360.03,-287.82"/>
<polygon fill="#63b8ff" stroke="#63b8ff" points="361.26,-290.66 368.94,-283.37 358.38,-284.28 361.26,-290.66"/>
</a>
</g>
</g>
<!-- Node21 -->
<g id="Node000021" class="node">
<title>Node21</title>
<g id="a_Node000021"><a xlink:href="../../dc/dc6/classCarlaReplayer.html#ac49243de822059c6b5560d438882a171" target="_top" xlink:title=" ">
<polygon fill="white" stroke="#666666" points="505.5,-233.03 365.75,-233.03 365.75,-201.03 505.5,-201.03 505.5,-233.03"/>
<text text-anchor="start" x="373.75" y="-219.53" font-family="Helvetica,sans-Serif" font-size="10.00">CarlaReplayer::ProcessLight</text>
<text text-anchor="middle" x="435.62" y="-207.53" font-family="Helvetica,sans-Serif" font-size="10.00">Scene</text>
</a>
</g>
</g>
<!-- Node6&#45;&gt;Node21 -->
<g id="edge20_Node000006_Node000021" class="edge">
<title>Node6&#45;&gt;Node21</title>
<g id="a_edge20_Node000006_Node000021"><a xlink:title=" ">
<path fill="none" stroke="#63b8ff" d="M246.37,-388.82C258.52,-360.9 296.17,-282.65 352.25,-242.03 353.93,-240.81 355.67,-239.65 357.46,-238.55"/>
<polygon fill="#63b8ff" stroke="#63b8ff" points="358.64,-241.34 365.75,-233.49 355.29,-235.2 358.64,-241.34"/>
</a>
</g>
</g>
<!-- Node23 -->
<g id="Node000023" class="node">
<title>Node23</title>
<g id="a_Node000023"><a xlink:href="../../dc/dc6/classCarlaReplayer.html#a2c4b8d27ebb7bbb0b5e9582182868f71" target="_top" xlink:title=" ">
<polygon fill="white" stroke="#666666" points="505.5,-183.03 365.75,-183.03 365.75,-151.03 505.5,-151.03 505.5,-183.03"/>
<text text-anchor="start" x="373.75" y="-169.53" font-family="Helvetica,sans-Serif" font-size="10.00">CarlaReplayer::ProcessLight</text>
<text text-anchor="middle" x="435.62" y="-157.53" font-family="Helvetica,sans-Serif" font-size="10.00">Vehicle</text>
</a>
</g>
</g>
<!-- Node6&#45;&gt;Node23 -->
<g id="edge22_Node000006_Node000023" class="edge">
<title>Node6&#45;&gt;Node23</title>
<g id="a_edge22_Node000006_Node000023"><a xlink:title=" ">
<path fill="none" stroke="#63b8ff" d="M248.31,-388.54C261.34,-366.37 292.36,-312.96 316.25,-267.03 333.31,-234.22 324.19,-216.1 352.25,-192.03 353.49,-190.96 354.78,-189.94 356.1,-188.97"/>
<polygon fill="#63b8ff" stroke="#63b8ff" points="357.74,-191.44 364.33,-183.14 354,-185.52 357.74,-191.44"/>
</a>
</g>
</g>
<!-- Node25 -->
<g id="Node000025" class="node">
<title>Node25</title>
<g id="a_Node000025"><a xlink:href="../../dc/dc6/classCarlaReplayer.html#a5541e07e46c1aa34571834f7bcceb243" target="_top" xlink:title=" ">
<polygon fill="white" stroke="#666666" points="515.25,-485.03 356,-485.03 356,-465.03 515.25,-465.03 515.25,-485.03"/>
<text text-anchor="middle" x="435.62" y="-471.53" font-family="Helvetica,sans-Serif" font-size="10.00">CarlaReplayer::ProcessPositions</text>
</a>
</g>
</g>
<!-- Node6&#45;&gt;Node25 -->
<g id="edge24_Node000006_Node000025" class="edge">
<title>Node6&#45;&gt;Node25</title>
<g id="a_edge24_Node000006_Node000025"><a xlink:title=" ">
<path fill="none" stroke="#63b8ff" d="M259.06,-409.5C280.17,-422.16 317.7,-443.33 352.25,-456.03 357.99,-458.13 364.04,-460.06 370.15,-461.8"/>
<polygon fill="#63b8ff" stroke="#63b8ff" points="368.87,-465.35 379.44,-464.57 370.69,-458.6 368.87,-465.35"/>
</a>
</g>
</g>
<!-- Node28 -->
<g id="Node000028" class="node">
<title>Node28</title>
<g id="a_Node000028"><a xlink:href="../../dc/dc6/classCarlaReplayer.html#ab08c55b108e85bf05346d2154bc0d0f2" target="_top" xlink:title=" ">
<polygon fill="white" stroke="#666666" points="509.25,-409.03 362,-409.03 362,-389.03 509.25,-389.03 509.25,-409.03"/>
<text text-anchor="middle" x="435.62" y="-395.53" font-family="Helvetica,sans-Serif" font-size="10.00">CarlaReplayer::ProcessStates</text>
</a>
</g>
</g>
<!-- Node6&#45;&gt;Node28 -->
<g id="edge28_Node000006_Node000028" class="edge">
<title>Node6&#45;&gt;Node28</title>
<g id="a_edge28_Node000006_Node000028"><a xlink:title=" ">
<path fill="none" stroke="#63b8ff" d="M316.55,-399.03C327.78,-399.03 339.42,-399.03 350.82,-399.03"/>
<polygon fill="#63b8ff" stroke="#63b8ff" points="350.66,-402.53 360.66,-399.03 350.66,-395.53 350.66,-402.53"/>
</a>
</g>
</g>
<!-- Node30 -->
<g id="Node000030" class="node">
<title>Node30</title>
<g id="a_Node000030"><a xlink:href="../../dc/dc6/classCarlaReplayer.html#a1fb8c12c1bfb107498e893b9ed61de29" target="_top" xlink:title=" ">
<polygon fill="white" stroke="#666666" points="519,-133.03 352.25,-133.03 352.25,-113.03 519,-113.03 519,-133.03"/>
<text text-anchor="middle" x="435.62" y="-119.53" font-family="Helvetica,sans-Serif" font-size="10.00">CarlaReplayer::ProcessVisualTime</text>
</a>
</g>
</g>
<!-- Node6&#45;&gt;Node30 -->
<g id="edge31_Node000006_Node000030" class="edge">
<title>Node6&#45;&gt;Node30</title>
<g id="a_edge31_Node000006_Node000030"><a xlink:title=" ">
<path fill="none" stroke="#63b8ff" d="M248.94,-388.84C263.15,-367.21 296.28,-314.79 316.25,-267.03 338.55,-213.69 310.29,-181.79 352.25,-142.03 353.27,-141.06 354.33,-140.14 355.42,-139.26"/>
<polygon fill="#63b8ff" stroke="#63b8ff" points="356.96,-141.78 363.39,-133.36 353.12,-135.93 356.96,-141.78"/>
</a>
</g>
</g>
<!-- Node32 -->
<g id="Node000032" class="node">
<title>Node32</title>
<g id="a_Node000032"><a xlink:href="../../dc/dc6/classCarlaReplayer.html#a48bd30916caba300077a56841523ac9c" target="_top" xlink:title=" ">
<polygon fill="white" stroke="#666666" points="510.38,-371.03 360.88,-371.03 360.88,-339.03 510.38,-339.03 510.38,-371.03"/>
<text text-anchor="start" x="368.88" y="-357.53" font-family="Helvetica,sans-Serif" font-size="10.00">CarlaReplayer::ProcessWalker</text>
<text text-anchor="middle" x="435.62" y="-345.53" font-family="Helvetica,sans-Serif" font-size="10.00">Bones</text>
</a>
</g>
</g>
<!-- Node6&#45;&gt;Node32 -->
<g id="edge33_Node000006_Node000032" class="edge">
<title>Node6&#45;&gt;Node32</title>
<g id="a_edge33_Node000006_Node000032"><a xlink:title=" ">
<path fill="none" stroke="#63b8ff" d="M287.74,-388.6C306.95,-384.21 329.91,-378.96 351.92,-373.93"/>
<polygon fill="#63b8ff" stroke="#63b8ff" points="352.65,-377.12 361.62,-371.48 351.09,-370.3 352.65,-377.12"/>
</a>
</g>
</g>
<!-- Node6&#45;&gt;Node35 -->
<g id="edge40_Node000006_Node000035" class="edge">
<title>Node6&#45;&gt;Node35</title>
<g id="a_edge40_Node000006_Node000035"><a xlink:title=" ">
<path fill="none" stroke="#63b8ff" d="M246.64,-388.77C259.67,-365.52 297.61,-309.98 316.25,-258.03 346.9,-172.6 289.68,-122.77 352.25,-57.03 358.02,-50.96 365.3,-46.66 373.14,-43.73"/>
<polygon fill="#63b8ff" stroke="#63b8ff" points="374.08,-46.81 382.69,-40.64 372.11,-40.09 374.08,-46.81"/>
</a>
</g>
</g>
<!-- Node36 -->
<g id="Node000036" class="node">
<title>Node36</title>
<g id="a_Node000036"><a xlink:href="../../dc/dc6/classCarlaReplayer.html#a90bb49a890e2a2cd8b85152f17ca8fed" target="_top" xlink:title=" ">
<polygon fill="white" stroke="#666666" points="512.62,-95.03 358.62,-95.03 358.62,-75.03 512.62,-75.03 512.62,-95.03"/>
<text text-anchor="middle" x="435.62" y="-81.53" font-family="Helvetica,sans-Serif" font-size="10.00">CarlaReplayer::UpdatePositions</text>
</a>
</g>
</g>
<!-- Node6&#45;&gt;Node36 -->
<g id="edge42_Node000006_Node000036" class="edge">
<title>Node6&#45;&gt;Node36</title>
<g id="a_edge42_Node000006_Node000036"><a xlink:title=" ">
<path fill="none" stroke="#63b8ff" d="M249.41,-388.6C264.19,-366.96 297.89,-315.15 316.25,-267.03 342.7,-197.71 300.03,-156.73 352.25,-104.03 353.1,-103.17 353.98,-102.34 354.9,-101.55"/>
<polygon fill="#63b8ff" stroke="#63b8ff" points="356.59,-103.94 362.76,-95.33 352.57,-98.21 356.59,-103.94"/>
</a>
</g>
</g>
<!-- Node8 -->
<g id="Node000008" class="node">
<title>Node8</title>
<g id="a_Node000008"><a xlink:href="../../db/d9f/structCarlaRecorderAnimBiker.html#a53a0fca1da840cad5c7301943a0fc6b3" target="_top" xlink:title=" ">
<polygon fill="white" stroke="#666666" points="684.25,-735.03 561.75,-735.03 561.75,-703.03 684.25,-703.03 684.25,-735.03"/>
<text text-anchor="start" x="569.75" y="-721.53" font-family="Helvetica,sans-Serif" font-size="10.00">CarlaRecorderAnimBiker</text>
<text text-anchor="middle" x="623" y="-709.53" font-family="Helvetica,sans-Serif" font-size="10.00">::Read</text>
</a>
</g>
</g>
<!-- Node7&#45;&gt;Node8 -->
<g id="edge7_Node000007_Node000008" class="edge">
<title>Node7&#45;&gt;Node8</title>
<g id="a_edge7_Node000007_Node000008"><a xlink:title=" ">
<path fill="none" stroke="#63b8ff" d="M506.71,-719.03C521.09,-719.03 536.24,-719.03 550.66,-719.03"/>
<polygon fill="#63b8ff" stroke="#63b8ff" points="550.53,-722.53 560.53,-719.03 550.53,-715.53 550.53,-722.53"/>
</a>
</g>
</g>
<!-- Node11 -->
<g id="Node000011" class="node">
<title>Node11</title>
<g id="a_Node000011"><a xlink:href="../../d0/de7/structCarlaRecorderAnimWheels.html#a7793613d2c258bbc41ba55a91224d7ec" target="_top" xlink:title=" ">
<polygon fill="white" stroke="#666666" points="689.5,-538.03 556.5,-538.03 556.5,-506.03 689.5,-506.03 689.5,-538.03"/>
<text text-anchor="start" x="564.5" y="-524.53" font-family="Helvetica,sans-Serif" font-size="10.00">CarlaRecorderAnimWheels</text>
<text text-anchor="middle" x="623" y="-512.53" font-family="Helvetica,sans-Serif" font-size="10.00">::Read</text>
</a>
</g>
</g>
<!-- Node10&#45;&gt;Node11 -->
<g id="edge10_Node000010_Node000011" class="edge">
<title>Node10&#45;&gt;Node11</title>
<g id="a_edge10_Node000010_Node000011"><a xlink:title=" ">
<path fill="none" stroke="#63b8ff" d="M506.71,-520.16C519.36,-520.36 532.62,-520.58 545.45,-520.79"/>
<polygon fill="#63b8ff" stroke="#63b8ff" points="545.05,-524.3 555.1,-520.96 545.16,-517.3 545.05,-524.3"/>
</a>
</g>
</g>
<!-- Node12 -->
<g id="Node000012" class="node">
<title>Node12</title>
<g id="a_Node000012"><a xlink:href="../../d0/d48/structWheelInfo.html#a20ad133bd4904baff1db06d898ce363c" target="_top" xlink:title=" ">
<polygon fill="white" stroke="#666666" points="814.25,-532.03 727,-532.03 727,-512.03 814.25,-512.03 814.25,-532.03"/>
<text text-anchor="middle" x="770.62" y="-518.53" font-family="Helvetica,sans-Serif" font-size="10.00">WheelInfo::Read</text>
</a>
</g>
</g>
<!-- Node11&#45;&gt;Node12 -->
<g id="edge11_Node000011_Node000012" class="edge">
<title>Node11&#45;&gt;Node12</title>
<g id="a_edge11_Node000011_Node000012"><a xlink:title=" ">
<path fill="none" stroke="#63b8ff" d="M690,-522.03C698.68,-522.03 707.5,-522.03 715.94,-522.03"/>
<polygon fill="#63b8ff" stroke="#63b8ff" points="715.79,-525.53 725.79,-522.03 715.79,-518.53 715.79,-525.53"/>
</a>
</g>
</g>
<!-- Node14 -->
<g id="Node000014" class="node">
<title>Node14</title>
<g id="a_Node000014"><a xlink:href="../../dc/dc8/structCarlaRecorderAnimWalker.html#ada7cbd06da99ac72a8c43ee523f74659" target="_top" xlink:title=" ">
<polygon fill="white" stroke="#666666" points="688.38,-638.03 557.62,-638.03 557.62,-606.03 688.38,-606.03 688.38,-638.03"/>
<text text-anchor="start" x="565.62" y="-624.53" font-family="Helvetica,sans-Serif" font-size="10.00">CarlaRecorderAnimWalker</text>
<text text-anchor="middle" x="623" y="-612.53" font-family="Helvetica,sans-Serif" font-size="10.00">::Read</text>
</a>
</g>
</g>
<!-- Node13&#45;&gt;Node14 -->
<g id="edge13_Node000013_Node000014" class="edge">
<title>Node13&#45;&gt;Node14</title>
<g id="a_edge13_Node000013_Node000014"><a xlink:title=" ">
<path fill="none" stroke="#63b8ff" d="M506.71,-620.16C519.68,-620.37 533.29,-620.59 546.42,-620.8"/>
<polygon fill="#63b8ff" stroke="#63b8ff" points="546.26,-624.32 556.32,-620.98 546.37,-617.32 546.26,-624.32"/>
</a>
</g>
</g>
<!-- Node16 -->
<g id="Node000016" class="node">
<title>Node16</title>
<g id="a_Node000016"><a xlink:href="../../dd/d8d/structCarlaRecorderDoorVehicle.html#aa9392010b8d18ea30dbfd97dd6359f64" target="_top" xlink:title=" ">
<polygon fill="white" stroke="#666666" points="688,-588.03 558,-588.03 558,-556.03 688,-556.03 688,-588.03"/>
<text text-anchor="start" x="566" y="-574.53" font-family="Helvetica,sans-Serif" font-size="10.00">CarlaRecorderDoorVehicle</text>
<text text-anchor="middle" x="623" y="-562.53" font-family="Helvetica,sans-Serif" font-size="10.00">::Read</text>
</a>
</g>
</g>
<!-- Node15&#45;&gt;Node16 -->
<g id="edge15_Node000015_Node000016" class="edge">
<title>Node15&#45;&gt;Node16</title>
<g id="a_edge15_Node000015_Node000016"><a xlink:title=" ">
<path fill="none" stroke="#63b8ff" d="M505.39,-570.14C518.88,-570.36 533.11,-570.59 546.8,-570.81"/>
<polygon fill="#63b8ff" stroke="#63b8ff" points="546.59,-574.32 556.65,-570.98 546.71,-567.32 546.59,-574.32"/>
</a>
</g>
</g>
<!-- Node18 -->
<g id="Node000018" class="node">
<title>Node18</title>
<g id="a_Node000018"><a xlink:href="../../d0/d6a/ActorDispatcher_8cpp.html#a69d0a7232310b5ebaa51abb2b9945184" target="_top" xlink:title=" ">
<polygon fill="white" stroke="#666666" points="650.5,-438.03 595.5,-438.03 595.5,-418.03 650.5,-418.03 650.5,-438.03"/>
<text text-anchor="middle" x="623" y="-424.53" font-family="Helvetica,sans-Serif" font-size="10.00">UE_LOG</text>
</a>
</g>
</g>
<!-- Node17&#45;&gt;Node18 -->
<g id="edge17_Node000017_Node000018" class="edge">
<title>Node17&#45;&gt;Node18</title>
<g id="a_edge17_Node000017_Node000018"><a xlink:title=" ">
<path fill="none" stroke="#63b8ff" d="M518.74,-433.04C541.63,-431.93 565.38,-430.77 584.33,-429.85"/>
<polygon fill="#63b8ff" stroke="#63b8ff" points="584.35,-433.31 594.17,-429.33 584.01,-426.32 584.35,-433.31"/>
</a>
</g>
</g>
<!-- Node22 -->
<g id="Node000022" class="node">
<title>Node22</title>
<g id="a_Node000022"><a xlink:href="../../d0/db0/structCarlaRecorderLightScene.html#a72374de78e6f5eb1ad6046fdd036fbbb" target="_top" xlink:title=" ">
<polygon fill="white" stroke="#666666" points="686.12,-236.03 559.88,-236.03 559.88,-204.03 686.12,-204.03 686.12,-236.03"/>
<text text-anchor="start" x="567.88" y="-222.53" font-family="Helvetica,sans-Serif" font-size="10.00">CarlaRecorderLightScene</text>
<text text-anchor="middle" x="623" y="-210.53" font-family="Helvetica,sans-Serif" font-size="10.00">::Read</text>
</a>
</g>
</g>
<!-- Node21&#45;&gt;Node22 -->
<g id="edge21_Node000021_Node000022" class="edge">
<title>Node21&#45;&gt;Node22</title>
<g id="a_edge21_Node000021_Node000022"><a xlink:title=" ">
<path fill="none" stroke="#63b8ff" d="M505.92,-218.15C519.93,-218.37 534.71,-218.61 548.85,-218.84"/>
<polygon fill="#63b8ff" stroke="#63b8ff" points="548.46,-222.35 558.51,-219.01 548.57,-215.35 548.46,-222.35"/>
</a>
</g>
</g>
<!-- Node24 -->
<g id="Node000024" class="node">
<title>Node24</title>
<g id="a_Node000024"><a xlink:href="../../d8/d3b/structCarlaRecorderLightVehicle.html#a996c803972043adbac25d4a54b2de1c6" target="_top" xlink:title=" ">
<polygon fill="white" stroke="#666666" points="688.38,-186.03 557.62,-186.03 557.62,-154.03 688.38,-154.03 688.38,-186.03"/>
<text text-anchor="start" x="565.62" y="-172.53" font-family="Helvetica,sans-Serif" font-size="10.00">CarlaRecorderLightVehicle</text>
<text text-anchor="middle" x="623" y="-160.53" font-family="Helvetica,sans-Serif" font-size="10.00">::Read</text>
</a>
</g>
</g>
<!-- Node23&#45;&gt;Node24 -->
<g id="edge23_Node000023_Node000024" class="edge">
<title>Node23&#45;&gt;Node24</title>
<g id="a_edge23_Node000023_Node000024"><a xlink:title=" ">
<path fill="none" stroke="#63b8ff" d="M505.92,-168.15C519.22,-168.36 533.22,-168.59 546.71,-168.81"/>
<polygon fill="#63b8ff" stroke="#63b8ff" points="546.34,-172.32 556.39,-168.98 546.45,-165.32 546.34,-172.32"/>
</a>
</g>
</g>
<!-- Node25&#45;&gt;Node18 -->
<g id="edge27_Node000025_Node000018" class="edge">
<title>Node25&#45;&gt;Node18</title>
<g id="a_edge27_Node000025_Node000018"><a xlink:title=" ">
<path fill="none" stroke="#63b8ff" d="M483.31,-464.59C494.99,-461.89 507.47,-458.92 519,-456.03 540.99,-450.5 565.48,-443.86 585.07,-438.44"/>
<polygon fill="#63b8ff" stroke="#63b8ff" points="585.7,-441.62 594.4,-435.56 583.83,-434.87 585.7,-441.62"/>
</a>
</g>
</g>
<!-- Node26 -->
<g id="Node000026" class="node">
<title>Node26</title>
<g id="a_Node000026"><a xlink:href="../../d3/d16/structCarlaRecorderPosition.html#a6c79bda342359f98692c9127e6153408" target="_top" xlink:title=" ">
<polygon fill="white" stroke="#666666" points="679.38,-488.03 566.62,-488.03 566.62,-456.03 679.38,-456.03 679.38,-488.03"/>
<text text-anchor="start" x="574.62" y="-474.53" font-family="Helvetica,sans-Serif" font-size="10.00">CarlaRecorderPosition</text>
<text text-anchor="middle" x="623" y="-462.53" font-family="Helvetica,sans-Serif" font-size="10.00">::Read</text>
</a>
</g>
</g>
<!-- Node25&#45;&gt;Node26 -->
<g id="edge25_Node000025_Node000026" class="edge">
<title>Node25&#45;&gt;Node26</title>
<g id="a_edge25_Node000025_Node000026"><a xlink:title=" ">
<path fill="none" stroke="#63b8ff" d="M515.51,-473.75C528.83,-473.53 542.54,-473.31 555.5,-473.1"/>
<polygon fill="#63b8ff" stroke="#63b8ff" points="555.25,-476.59 565.19,-472.93 555.13,-469.59 555.25,-476.59"/>
</a>
</g>
</g>
<!-- Node27 -->
<g id="Node000027" class="node">
<title>Node27</title>
<g id="a_Node000027"><a xlink:href="../../d6/d51/CarlaRecorderHelpers_8cpp.html#ae08e4aad382a9626efef6d44e45905d2" target="_top" xlink:title=" ">
<polygon fill="white" stroke="#666666" points="807.12,-432.03 734.12,-432.03 734.12,-412.03 807.12,-412.03 807.12,-432.03"/>
<text text-anchor="middle" x="770.62" y="-418.53" font-family="Helvetica,sans-Serif" font-size="10.00">ReadFVector</text>
</a>
</g>
</g>
<!-- Node26&#45;&gt;Node27 -->
<g id="edge26_Node000026_Node000027" class="edge">
<title>Node26&#45;&gt;Node27</title>
<g id="a_edge26_Node000026_Node000027"><a xlink:title=" ">
<path fill="none" stroke="#63b8ff" d="M671.68,-455.65C690.18,-449.3 711.14,-442.11 728.91,-436"/>
<polygon fill="#63b8ff" stroke="#63b8ff" points="729.92,-439.02 738.24,-432.46 727.65,-432.39 729.92,-439.02"/>
</a>
</g>
</g>
<!-- Node28&#45;&gt;Node18 -->
<g id="edge30_Node000028_Node000018" class="edge">
<title>Node28&#45;&gt;Node18</title>
<g id="a_edge30_Node000028_Node000018"><a xlink:title=" ">
<path fill="none" stroke="#63b8ff" d="M503.55,-409.49C530.82,-413.76 561.33,-418.53 584.55,-422.17"/>
<polygon fill="#63b8ff" stroke="#63b8ff" points="583.9,-425.76 594.32,-423.85 584.98,-418.85 583.9,-425.76"/>
</a>
</g>
</g>
<!-- Node29 -->
<g id="Node000029" class="node">
<title>Node29</title>
<g id="a_Node000029"><a xlink:href="../../d1/dc9/structCarlaRecorderStateTrafficLight.html#a7e9c98ee0b0c433eab79e33dd4ad8391" target="_top" xlink:title=" ">
<polygon fill="white" stroke="#666666" points="686.12,-400.03 559.88,-400.03 559.88,-368.03 686.12,-368.03 686.12,-400.03"/>
<text text-anchor="start" x="567.88" y="-386.53" font-family="Helvetica,sans-Serif" font-size="10.00">CarlaRecorderStateTraffic</text>
<text text-anchor="middle" x="623" y="-374.53" font-family="Helvetica,sans-Serif" font-size="10.00">Light::Read</text>
</a>
</g>
</g>
<!-- Node28&#45;&gt;Node29 -->
<g id="edge29_Node000028_Node000029" class="edge">
<title>Node28&#45;&gt;Node29</title>
<g id="a_edge29_Node000028_Node000029"><a xlink:title=" ">
<path fill="none" stroke="#63b8ff" d="M509.62,-393.12C522.53,-392.07 535.96,-390.99 548.87,-389.94"/>
<polygon fill="#63b8ff" stroke="#63b8ff" points="548.88,-393.37 558.56,-389.08 548.31,-386.4 548.88,-393.37"/>
</a>
</g>
</g>
<!-- Node31 -->
<g id="Node000031" class="node">
<title>Node31</title>
<g id="a_Node000031"><a xlink:href="../../d0/d56/structCarlaRecorderVisualTime.html#a23bbe58c25474f390ecd28f8fcbd151d" target="_top" xlink:title=" ">
<polygon fill="white" stroke="#666666" points="685.75,-136.03 560.25,-136.03 560.25,-104.03 685.75,-104.03 685.75,-136.03"/>
<text text-anchor="start" x="568.25" y="-122.53" font-family="Helvetica,sans-Serif" font-size="10.00">CarlaRecorderVisualTime</text>
<text text-anchor="middle" x="623" y="-110.53" font-family="Helvetica,sans-Serif" font-size="10.00">::Read</text>
</a>
</g>
</g>
<!-- Node30&#45;&gt;Node31 -->
<g id="edge32_Node000030_Node000031" class="edge">
<title>Node30&#45;&gt;Node31</title>
<g id="a_edge32_Node000030_Node000031"><a xlink:title=" ">
<path fill="none" stroke="#63b8ff" d="M519.28,-121.69C529.17,-121.53 539.22,-121.36 548.96,-121.21"/>
<polygon fill="#63b8ff" stroke="#63b8ff" points="548.86,-124.69 558.81,-121.03 548.75,-117.69 548.86,-124.69"/>
</a>
</g>
</g>
<!-- Node33 -->
<g id="Node000033" class="node">
<title>Node33</title>
<g id="a_Node000033"><a xlink:href="../../dd/dfc/structCarlaRecorderWalkerBones.html#a1bea3e3cd0a4e2c6fe76bcbbc1af77cb" target="_top" xlink:title=" ">
<polygon fill="white" stroke="#666666" points="691,-350.03 555,-350.03 555,-318.03 691,-318.03 691,-350.03"/>
<text text-anchor="start" x="563" y="-336.53" font-family="Helvetica,sans-Serif" font-size="10.00">CarlaRecorderWalkerBones</text>
<text text-anchor="middle" x="623" y="-324.53" font-family="Helvetica,sans-Serif" font-size="10.00">::Read</text>
</a>
</g>
</g>
<!-- Node32&#45;&gt;Node33 -->
<g id="edge34_Node000032_Node000033" class="edge">
<title>Node32&#45;&gt;Node33</title>
<g id="a_edge34_Node000032_Node000033"><a xlink:title=" ">
<path fill="none" stroke="#63b8ff" d="M510.69,-346.63C521.58,-345.4 532.83,-344.13 543.8,-342.88"/>
<polygon fill="#63b8ff" stroke="#63b8ff" points="544.12,-346.26 553.66,-341.65 543.33,-339.3 544.12,-346.26"/>
</a>
</g>
</g>
<!-- Node33&#45;&gt;Node27 -->
<g id="edge36_Node000033_Node000027" class="edge">
<title>Node33&#45;&gt;Node27</title>
<g id="a_edge36_Node000033_Node000027"><a xlink:title=" ">
<path fill="none" stroke="#63b8ff" d="M673.49,-350.43C679.52,-353.03 685.49,-355.9 691,-359.03 713.25,-371.66 735.75,-390.43 750.94,-404.19"/>
<polygon fill="#63b8ff" stroke="#63b8ff" points="748.27,-406.41 757.99,-410.63 753.02,-401.27 748.27,-406.41"/>
</a>
</g>
</g>
<!-- Node34 -->
<g id="Node000034" class="node">
<title>Node34</title>
<g id="a_Node000034"><a xlink:href="../../d6/d51/CarlaRecorderHelpers_8cpp.html#a4ed8dab34258bd6b98574ab6e4485d42" target="_top" xlink:title=" ">
<polygon fill="white" stroke="#666666" points="805.62,-185.03 735.62,-185.03 735.62,-165.03 805.62,-165.03 805.62,-185.03"/>
<text text-anchor="middle" x="770.62" y="-171.53" font-family="Helvetica,sans-Serif" font-size="10.00">ReadFString</text>
</a>
</g>
</g>
<!-- Node33&#45;&gt;Node34 -->
<g id="edge35_Node000033_Node000034" class="edge">
<title>Node33&#45;&gt;Node34</title>
<g id="a_edge35_Node000033_Node000034"><a xlink:title=" ">
<path fill="none" stroke="#63b8ff" d="M639.04,-317.61C666.4,-287.73 724.16,-224.66 752.8,-193.4"/>
<polygon fill="#63b8ff" stroke="#63b8ff" points="754.88,-196.22 759.05,-186.48 749.72,-191.49 754.88,-196.22"/>
</a>
</g>
</g>
<!-- Node35&#45;&gt;Node6 -->
<g id="edge41_Node000035_Node000006" class="edge">
<title>Node35&#45;&gt;Node6</title>
<g id="a_edge41_Node000035_Node000006"><a xlink:title=" ">
<path fill="none" stroke="#63b8ff" d="M385.83,-57.49C373.39,-60.62 361.05,-65.78 352.25,-75.03 289.68,-140.77 346.9,-190.6 316.25,-276.03 302.21,-315.16 277.21,-356.34 260.17,-379.96"/>
<polygon fill="#63b8ff" stroke="#63b8ff" points="256.83,-377.58 253.62,-387.68 262.43,-381.78 256.83,-377.58"/>
</a>
</g>
</g>
<!-- Node37 -->
<g id="Node000037" class="node">
<title>Node37</title>
<g id="a_Node000037"><a xlink:href="../../dc/dc6/classCarlaReplayer.html#a38b36d848f1ae6b12ab802b3788a734b" target="_top" xlink:title=" ">
<polygon fill="white" stroke="#666666" points="686.88,-86.03 559.12,-86.03 559.12,-54.03 686.88,-54.03 686.88,-86.03"/>
<text text-anchor="start" x="567.12" y="-72.53" font-family="Helvetica,sans-Serif" font-size="10.00">CarlaReplayer::Interpolate</text>
<text text-anchor="middle" x="623" y="-60.53" font-family="Helvetica,sans-Serif" font-size="10.00">Position</text>
</a>
</g>
</g>
<!-- Node36&#45;&gt;Node37 -->
<g id="edge43_Node000036_Node000037" class="edge">
<title>Node36&#45;&gt;Node37</title>
<g id="a_edge43_Node000036_Node000037"><a xlink:title=" ">
<path fill="none" stroke="#63b8ff" d="M513.09,-78.84C524.58,-77.91 536.41,-76.95 547.85,-76.03"/>
<polygon fill="#63b8ff" stroke="#63b8ff" points="547.99,-79.44 557.67,-75.15 547.42,-72.47 547.99,-79.44"/>
</a>
</g>
</g>
<!-- Node39 -->
<g id="Node000039" class="node">
<title>Node39</title>
<g id="a_Node000039"><a xlink:href="../../da/dab/structCarlaRecorderInfo.html#a920b33fd6e14cda4d08e0f68987fb80b" target="_top" xlink:title=" ">
<polygon fill="white" stroke="#666666" points="683.5,-26.03 562.5,-26.03 562.5,-6.03 683.5,-6.03 683.5,-26.03"/>
<text text-anchor="middle" x="623" y="-12.53" font-family="Helvetica,sans-Serif" font-size="10.00">CarlaRecorderInfo::Read</text>
</a>
</g>
</g>
<!-- Node38&#45;&gt;Node39 -->
<g id="edge45_Node000038_Node000039" class="edge">
<title>Node38&#45;&gt;Node39</title>
<g id="a_edge45_Node000038_Node000039"><a xlink:title=" ">
<path fill="none" stroke="#63b8ff" d="M246.65,-155.57C258.96,-128.57 295.98,-56.67 352.25,-28.03 415.24,4.04 497.61,2.5 554.68,-4.19"/>
<polygon fill="#63b8ff" stroke="#63b8ff" points="554.02,-7.76 564.38,-5.54 554.9,-0.82 554.02,-7.76"/>
</a>
</g>
</g>
<!-- Node39&#45;&gt;Node34 -->
<g id="edge46_Node000039_Node000034" class="edge">
<title>Node39&#45;&gt;Node34</title>
<g id="a_edge46_Node000039_Node000034"><a xlink:title=" ">
<path fill="none" stroke="#63b8ff" d="M659.06,-26.47C670.12,-30.94 681.83,-37.02 691,-45.03 726.28,-75.82 750.44,-126.43 761.94,-154.55"/>
<polygon fill="#63b8ff" stroke="#63b8ff" points="759.05,-155.77 765.96,-163.79 765.56,-153.2 759.05,-155.77"/>
</a>
</g>
</g>
</g>
</svg>
