<?xml version="1.0" encoding="UTF-8" standalone="no"?>
<!DOCTYPE svg PUBLIC "-//W3C//DTD SVG 1.1//EN"
 "http://www.w3.org/Graphics/SVG/1.1/DTD/svg11.dtd">
<!-- Generated by graphviz version 8.1.0 (20230707.0739)
 -->
<!-- Title: CarlaReplayer::ProcessAnimVehicleWheels Pages: 1 -->
<svg width="442pt" height="40pt"
 viewBox="0.00 0.00 441.50 40.00" xmlns="http://www.w3.org/2000/svg" xmlns:xlink="http://www.w3.org/1999/xlink">
<g id="graph0" class="graph" transform="scale(1 1) rotate(0) translate(4 36)">
<title>CarlaReplayer::ProcessAnimVehicleWheels</title>
<!-- Node1 -->
<g id="Node000001" class="node">
<title>Node1</title>
<g id="a_Node000001"><a xlink:title=" ">
<polygon fill="#999999" stroke="#666666" points="141.25,-32 0,-32 0,0 141.25,0 141.25,-32"/>
<text text-anchor="start" x="8" y="-18.5" font-family="Helvetica,sans-Serif" font-size="10.00">CarlaReplayer::ProcessAnim</text>
<text text-anchor="middle" x="70.62" y="-6.5" font-family="Helvetica,sans-Serif" font-size="10.00">VehicleWheels</text>
</a>
</g>
</g>
<!-- Node2 -->
<g id="Node000002" class="node">
<title>Node2</title>
<g id="a_Node000002"><a xlink:href="../../d0/de7/structCarlaRecorderAnimWheels.html#a7793613d2c258bbc41ba55a91224d7ec" target="_top" xlink:title=" ">
<polygon fill="white" stroke="#666666" points="310.25,-32 177.25,-32 177.25,0 310.25,0 310.25,-32"/>
<text text-anchor="start" x="185.25" y="-18.5" font-family="Helvetica,sans-Serif" font-size="10.00">CarlaRecorderAnimWheels</text>
<text text-anchor="middle" x="243.75" y="-6.5" font-family="Helvetica,sans-Serif" font-size="10.00">::Read</text>
</a>
</g>
</g>
<!-- Node1&#45;&gt;Node2 -->
<g id="edge1_Node000001_Node000002" class="edge">
<title>Node1&#45;&gt;Node2</title>
<g id="a_edge1_Node000001_Node000002"><a xlink:title=" ">
<path fill="none" stroke="#63b8ff" d="M141.72,-16C149.72,-16 157.9,-16 165.98,-16"/>
<polygon fill="#63b8ff" stroke="#63b8ff" points="165.9,-19.5 175.9,-16 165.9,-12.5 165.9,-19.5"/>
</a>
</g>
</g>
<!-- Node3 -->
<g id="Node000003" class="node">
<title>Node3</title>
<g id="a_Node000003"><a xlink:href="../../d0/d48/structWheelInfo.html#a20ad133bd4904baff1db06d898ce363c" target="_top" xlink:title=" ">
<polygon fill="white" stroke="#666666" points="433.5,-26 346.25,-26 346.25,-6 433.5,-6 433.5,-26"/>
<text text-anchor="middle" x="389.88" y="-12.5" font-family="Helvetica,sans-Serif" font-size="10.00">WheelInfo::Read</text>
</a>
</g>
</g>
<!-- Node2&#45;&gt;Node3 -->
<g id="edge2_Node000002_Node000003" class="edge">
<title>Node2&#45;&gt;Node3</title>
<g id="a_edge2_Node000002_Node000003"><a xlink:title=" ">
<path fill="none" stroke="#63b8ff" d="M310.49,-16C318.75,-16 327.14,-16 335.19,-16"/>
<polygon fill="#63b8ff" stroke="#63b8ff" points="334.92,-19.5 344.92,-16 334.92,-12.5 334.92,-19.5"/>
</a>
</g>
</g>
</g>
</svg>
