<?xml version="1.0" encoding="UTF-8" standalone="no"?>
<!DOCTYPE svg PUBLIC "-//W3C//DTD SVG 1.1//EN"
 "http://www.w3.org/Graphics/SVG/1.1/DTD/svg11.dtd">
<!-- Generated by graphviz version 8.1.0 (20230707.0739)
 -->
<!-- Title: CarlaReplayer::Stop Pages: 1 -->
<svg width="635pt" height="273pt"
 viewBox="0.00 0.00 635.25 273.00" xmlns="http://www.w3.org/2000/svg" xmlns:xlink="http://www.w3.org/1999/xlink">
<g id="graph0" class="graph" transform="scale(1 1) rotate(0) translate(4 269)">
<title>CarlaReplayer::Stop</title>
<!-- Node1 -->
<g id="Node000001" class="node">
<title>Node1</title>
<g id="a_Node000001"><a xlink:title=" ">
<polygon fill="#999999" stroke="#666666" points="627.25,-134 524.25,-134 524.25,-114 627.25,-114 627.25,-134"/>
<text text-anchor="middle" x="575.75" y="-120.5" font-family="Helvetica,sans-Serif" font-size="10.00">CarlaReplayer::Stop</text>
</a>
</g>
</g>
<!-- Node2 -->
<g id="Node000002" class="node">
<title>Node2</title>
<g id="a_Node000002"><a xlink:href="../../dc/dc6/classCarlaReplayer.html#ac70d3dbe1f79ffd25a695ec3bd2485e6" target="_top" xlink:title=" ">
<polygon fill="white" stroke="#666666" points="302,-240 172,-240 172,-208 302,-208 302,-240"/>
<text text-anchor="start" x="180" y="-226.5" font-family="Helvetica,sans-Serif" font-size="10.00">CarlaReplayer::CheckPlay</text>
<text text-anchor="middle" x="237" y="-214.5" font-family="Helvetica,sans-Serif" font-size="10.00">AfterMapLoaded</text>
</a>
</g>
</g>
<!-- Node1&#45;&gt;Node2 -->
<g id="edge1_Node000001_Node000002" class="edge">
<title>Node1&#45;&gt;Node2</title>
<g id="a_edge1_Node000001_Node000002"><a xlink:title=" ">
<path fill="none" stroke="#63b8ff" d="M554.08,-141.19C537.36,-154.17 512.66,-171.35 488.25,-181 427.88,-204.86 354.17,-215.5 302.43,-220.23"/>
<polygon fill="#63b8ff" stroke="#63b8ff" points="555.85,-143.45 561.49,-134.48 551.49,-137.98 555.85,-143.45"/>
</a>
</g>
</g>
<!-- Node5 -->
<g id="Node000005" class="node">
<title>Node5</title>
<g id="a_Node000005"><a xlink:href="../../dc/dc6/classCarlaReplayer.html#ae0a5643d88257bdceb9e12d5c33194cb" target="_top" xlink:title=" ">
<polygon fill="white" stroke="#666666" points="488.25,-172 338,-172 338,-152 488.25,-152 488.25,-172"/>
<text text-anchor="middle" x="413.12" y="-158.5" font-family="Helvetica,sans-Serif" font-size="10.00">CarlaReplayer::ProcessToTime</text>
</a>
</g>
</g>
<!-- Node1&#45;&gt;Node5 -->
<g id="edge4_Node000001_Node000005" class="edge">
<title>Node1&#45;&gt;Node5</title>
<g id="a_edge4_Node000001_Node000005"><a xlink:title=" ">
<path fill="none" stroke="#63b8ff" d="M513.5,-131.91C486.85,-137.73 457.22,-145.29 437.31,-151.6"/>
<polygon fill="#63b8ff" stroke="#63b8ff" points="513.87,-135.2 522.93,-129.7 512.42,-128.35 513.87,-135.2"/>
</a>
</g>
</g>
<!-- Node6 -->
<g id="Node000006" class="node">
<title>Node6</title>
<g id="a_Node000006"><a xlink:href="../../dc/dc6/classCarlaReplayer.html#a480fd94fedc2367d7f7f58f17f3cd5a4" target="_top" xlink:title=" ">
<polygon fill="white" stroke="#666666" points="301.25,-134 172.75,-134 172.75,-114 301.25,-114 301.25,-134"/>
<text text-anchor="middle" x="237" y="-120.5" font-family="Helvetica,sans-Serif" font-size="10.00">CarlaReplayer::ReplayFile</text>
</a>
</g>
</g>
<!-- Node1&#45;&gt;Node6 -->
<g id="edge11_Node000001_Node000006" class="edge">
<title>Node1&#45;&gt;Node6</title>
<g id="a_edge11_Node000001_Node000006"><a xlink:title=" ">
<path fill="none" stroke="#63b8ff" d="M513.13,-124C453.11,-124 362.26,-124 301.57,-124"/>
<polygon fill="#63b8ff" stroke="#63b8ff" points="512.97,-127.5 522.97,-124 512.97,-120.5 512.97,-127.5"/>
</a>
</g>
</g>
<!-- Node9 -->
<g id="Node000009" class="node">
<title>Node9</title>
<g id="a_Node000009"><a xlink:href="../../dd/db9/classACarlaRecorder.html#aba719596bd56c72a39f902f6e9a5d290" target="_top" xlink:title=" ">
<polygon fill="white" stroke="#666666" points="468.75,-96 357.5,-96 357.5,-76 468.75,-76 468.75,-96"/>
<text text-anchor="middle" x="413.12" y="-82.5" font-family="Helvetica,sans-Serif" font-size="10.00">ACarlaRecorder::Start</text>
</a>
</g>
</g>
<!-- Node1&#45;&gt;Node9 -->
<g id="edge12_Node000001_Node000009" class="edge">
<title>Node1&#45;&gt;Node9</title>
<g id="a_edge12_Node000001_Node000009"><a xlink:title=" ">
<path fill="none" stroke="#63b8ff" d="M519.87,-111.02C499.78,-106.26 477.33,-100.95 458.3,-96.45"/>
<polygon fill="#63b8ff" stroke="#63b8ff" points="518.9,-114.62 529.43,-113.52 520.51,-107.81 518.9,-114.62"/>
</a>
</g>
</g>
<!-- Node10 -->
<g id="Node000010" class="node">
<title>Node10</title>
<g id="a_Node000010"><a xlink:href="../../dd/db9/classACarlaRecorder.html#a33fb5180defd8c9c1d3063eff52c7a37" target="_top" xlink:title=" ">
<polygon fill="white" stroke="#666666" points="487.5,-58 338.75,-58 338.75,-38 487.5,-38 487.5,-58"/>
<text text-anchor="middle" x="413.12" y="-44.5" font-family="Helvetica,sans-Serif" font-size="10.00">ACarlaRecorder::StopReplayer</text>
</a>
</g>
</g>
<!-- Node1&#45;&gt;Node10 -->
<g id="edge13_Node000001_Node000010" class="edge">
<title>Node1&#45;&gt;Node10</title>
<g id="a_edge13_Node000001_Node000010"><a xlink:title=" ">
<path fill="none" stroke="#63b8ff" d="M553.56,-107.13C536.72,-94.47 512.12,-77.57 488.25,-67 480.72,-63.67 472.49,-60.83 464.34,-58.45"/>
<polygon fill="#63b8ff" stroke="#63b8ff" points="551,-110.34 561.06,-113.66 555.26,-104.79 551,-110.34"/>
</a>
</g>
</g>
<!-- Node11 -->
<g id="Node000011" class="node">
<title>Node11</title>
<g id="a_Node000011"><a xlink:href="../../dc/dc6/classCarlaReplayer.html#a6dadadd7719c5e660d2e3d99b22f5961" target="_top" xlink:title=" ">
<polygon fill="white" stroke="#666666" points="487.88,-20 338.38,-20 338.38,0 487.88,0 487.88,-20"/>
<text text-anchor="middle" x="413.12" y="-6.5" font-family="Helvetica,sans-Serif" font-size="10.00">CarlaReplayer::~CarlaReplayer</text>
</a>
</g>
</g>
<!-- Node1&#45;&gt;Node11 -->
<g id="edge14_Node000001_Node000011" class="edge">
<title>Node1&#45;&gt;Node11</title>
<g id="a_edge14_Node000001_Node000011"><a xlink:title=" ">
<path fill="none" stroke="#63b8ff" d="M562.33,-104.64C547.37,-82.93 520.24,-48.24 488.25,-29 482.56,-25.58 476.26,-22.76 469.81,-20.46"/>
<polygon fill="#63b8ff" stroke="#63b8ff" points="559.85,-106.23 568.31,-112.6 565.67,-102.34 559.85,-106.23"/>
</a>
</g>
</g>
<!-- Node3 -->
<g id="Node000003" class="node">
<title>Node3</title>
<g id="a_Node000003"><a xlink:href="../../db/de5/classACarlaGameModeBase.html#a3909b055b351f69d7ad1e39a42e72e3d" target="_top" xlink:title=" ">
<polygon fill="white" stroke="#666666" points="127,-265 9,-265 9,-233 127,-233 127,-265"/>
<text text-anchor="start" x="17" y="-251.5" font-family="Helvetica,sans-Serif" font-size="10.00">ACarlaGameModeBase</text>
<text text-anchor="middle" x="68" y="-239.5" font-family="Helvetica,sans-Serif" font-size="10.00">::BeginPlay</text>
</a>
</g>
</g>
<!-- Node2&#45;&gt;Node3 -->
<g id="edge2_Node000002_Node000003" class="edge">
<title>Node2&#45;&gt;Node3</title>
<g id="a_edge2_Node000002_Node000003"><a xlink:title=" ">
<path fill="none" stroke="#63b8ff" d="M161.16,-235.2C149.86,-236.9 138.34,-238.62 127.45,-240.25"/>
<polygon fill="#63b8ff" stroke="#63b8ff" points="161.54,-238.54 170.91,-233.59 160.5,-231.61 161.54,-238.54"/>
</a>
</g>
</g>
<!-- Node4 -->
<g id="Node000004" class="node">
<title>Node4</title>
<g id="a_Node000004"><a xlink:href="../../dc/d49/classFCarlaEngine.html#ab4c918e4d4855a26ab57c4bb79ad4645" target="_top" xlink:title=" ">
<polygon fill="white" stroke="#666666" points="133,-215 3,-215 3,-183 133,-183 133,-215"/>
<text text-anchor="start" x="11" y="-201.5" font-family="Helvetica,sans-Serif" font-size="10.00">FCarlaEngine::NotifyBegin</text>
<text text-anchor="middle" x="68" y="-189.5" font-family="Helvetica,sans-Serif" font-size="10.00">Episode</text>
</a>
</g>
</g>
<!-- Node2&#45;&gt;Node4 -->
<g id="edge3_Node000002_Node000004" class="edge">
<title>Node2&#45;&gt;Node4</title>
<g id="a_edge3_Node000002_Node000004"><a xlink:title=" ">
<path fill="none" stroke="#63b8ff" d="M161.16,-212.8C151.92,-211.41 142.54,-210.01 133.47,-208.65"/>
<polygon fill="#63b8ff" stroke="#63b8ff" points="160.5,-216.39 170.91,-214.41 161.54,-209.46 160.5,-216.39"/>
</a>
</g>
</g>
<!-- Node5&#45;&gt;Node1 -->
<g id="edge8_Node000005_Node000001" class="edge">
<title>Node5&#45;&gt;Node1</title>
<g id="a_edge8_Node000005_Node000001"><a xlink:title=" ">
<path fill="none" stroke="#63b8ff" d="M497.05,-149.13C517.03,-144.35 536.8,-139.07 551.39,-134.45"/>
<polygon fill="#63b8ff" stroke="#63b8ff" points="496.54,-145.89 487.6,-151.58 498.14,-152.7 496.54,-145.89"/>
</a>
</g>
</g>
<!-- Node5&#45;&gt;Node2 -->
<g id="edge5_Node000005_Node000002" class="edge">
<title>Node5&#45;&gt;Node2</title>
<g id="a_edge5_Node000005_Node000002"><a xlink:title=" ">
<path fill="none" stroke="#63b8ff" d="M372.65,-176.06C346.41,-185.4 311.84,-197.71 284.3,-207.51"/>
<polygon fill="#63b8ff" stroke="#63b8ff" points="373.73,-179.03 381.98,-172.38 371.39,-172.43 373.73,-179.03"/>
</a>
</g>
</g>
<!-- Node5&#45;&gt;Node6 -->
<g id="edge6_Node000005_Node000006" class="edge">
<title>Node5&#45;&gt;Node6</title>
<g id="a_edge6_Node000005_Node000006"><a xlink:title=" ">
<path fill="none" stroke="#63b8ff" d="M353.53,-149.21C331.53,-144.41 306.8,-139.01 285.88,-134.45"/>
<polygon fill="#63b8ff" stroke="#63b8ff" points="352.57,-152.8 363.08,-151.52 354.06,-145.96 352.57,-152.8"/>
</a>
</g>
</g>
<!-- Node8 -->
<g id="Node000008" class="node">
<title>Node8</title>
<g id="a_Node000008"><a xlink:href="../../dc/dc6/classCarlaReplayer.html#a4aeceb13aaa5dfcbf3ee42d7582262a4" target="_top" xlink:title=" ">
<polygon fill="white" stroke="#666666" points="287.38,-172 186.62,-172 186.62,-152 287.38,-152 287.38,-172"/>
<text text-anchor="middle" x="237" y="-158.5" font-family="Helvetica,sans-Serif" font-size="10.00">CarlaReplayer::Tick</text>
</a>
</g>
</g>
<!-- Node5&#45;&gt;Node8 -->
<g id="edge9_Node000005_Node000008" class="edge">
<title>Node5&#45;&gt;Node8</title>
<g id="a_edge9_Node000005_Node000008"><a xlink:title=" ">
<path fill="none" stroke="#63b8ff" d="M326.83,-162C313.46,-162 300.02,-162 287.8,-162"/>
<polygon fill="#63b8ff" stroke="#63b8ff" points="326.52,-165.5 336.52,-162 326.52,-158.5 326.52,-165.5"/>
</a>
</g>
</g>
<!-- Node7 -->
<g id="Node000007" class="node">
<title>Node7</title>
<g id="a_Node000007"><a xlink:href="../../dd/db9/classACarlaRecorder.html#a5dc891241c275eedcf6b1f189751520b" target="_top" xlink:title=" ">
<polygon fill="white" stroke="#666666" points="136,-134 0,-134 0,-114 136,-114 136,-134"/>
<text text-anchor="middle" x="68" y="-120.5" font-family="Helvetica,sans-Serif" font-size="10.00">ACarlaRecorder::ReplayFile</text>
</a>
</g>
</g>
<!-- Node6&#45;&gt;Node7 -->
<g id="edge7_Node000006_Node000007" class="edge">
<title>Node6&#45;&gt;Node7</title>
<g id="a_edge7_Node000006_Node000007"><a xlink:title=" ">
<path fill="none" stroke="#63b8ff" d="M161.48,-124C153.1,-124 144.6,-124 136.32,-124"/>
<polygon fill="#63b8ff" stroke="#63b8ff" points="161.39,-127.5 171.39,-124 161.39,-120.5 161.39,-127.5"/>
</a>
</g>
</g>
<!-- Node8&#45;&gt;Node8 -->
<g id="edge10_Node000008_Node000008" class="edge">
<title>Node8&#45;&gt;Node8</title>
<g id="a_edge10_Node000008_Node000008"><a xlink:title=" ">
<path fill="none" stroke="#63b8ff" d="M267.72,-182.43C264.68,-186.82 254.44,-190 237,-190 207.62,-190 198.67,-180.98 210.15,-172.34"/>
<polygon fill="#63b8ff" stroke="#63b8ff" points="270.7,-181.42 263.85,-173.34 264.17,-183.93 270.7,-181.42"/>
</a>
</g>
</g>
</g>
</svg>
