<?xml version="1.0" encoding="UTF-8" standalone="no"?>
<!DOCTYPE svg PUBLIC "-//W3C//DTD SVG 1.1//EN"
 "http://www.w3.org/Graphics/SVG/1.1/DTD/svg11.dtd">
<!-- Generated by graphviz version 8.1.0 (20230707.0739)
 -->
<!-- Title: CarlaReplayer::ProcessWalkerBones Pages: 1 -->
<svg width="439pt" height="66pt"
 viewBox="0.00 0.00 438.50 66.00" xmlns="http://www.w3.org/2000/svg" xmlns:xlink="http://www.w3.org/1999/xlink">
<g id="graph0" class="graph" transform="scale(1 1) rotate(0) translate(4 62)">
<title>CarlaReplayer::ProcessWalkerBones</title>
<!-- Node1 -->
<g id="Node000001" class="node">
<title>Node1</title>
<g id="a_Node000001"><a xlink:title=" ">
<polygon fill="#999999" stroke="#666666" points="149.5,-45 0,-45 0,-13 149.5,-13 149.5,-45"/>
<text text-anchor="start" x="8" y="-31.5" font-family="Helvetica,sans-Serif" font-size="10.00">CarlaReplayer::ProcessWalker</text>
<text text-anchor="middle" x="74.75" y="-19.5" font-family="Helvetica,sans-Serif" font-size="10.00">Bones</text>
</a>
</g>
</g>
<!-- Node2 -->
<g id="Node000002" class="node">
<title>Node2</title>
<g id="a_Node000002"><a xlink:href="../../dd/dfc/structCarlaRecorderWalkerBones.html#a1bea3e3cd0a4e2c6fe76bcbbc1af77cb" target="_top" xlink:title=" ">
<polygon fill="white" stroke="#666666" points="321.5,-45 185.5,-45 185.5,-13 321.5,-13 321.5,-45"/>
<text text-anchor="start" x="193.5" y="-31.5" font-family="Helvetica,sans-Serif" font-size="10.00">CarlaRecorderWalkerBones</text>
<text text-anchor="middle" x="253.5" y="-19.5" font-family="Helvetica,sans-Serif" font-size="10.00">::Read</text>
</a>
</g>
</g>
<!-- Node1&#45;&gt;Node2 -->
<g id="edge1_Node000001_Node000002" class="edge">
<title>Node1&#45;&gt;Node2</title>
<g id="a_edge1_Node000001_Node000002"><a xlink:title=" ">
<path fill="none" stroke="#63b8ff" d="M149.94,-29C157.99,-29 166.21,-29 174.31,-29"/>
<polygon fill="#63b8ff" stroke="#63b8ff" points="174.26,-32.5 184.25,-29 174.25,-25.5 174.26,-32.5"/>
</a>
</g>
</g>
<!-- Node3 -->
<g id="Node000003" class="node">
<title>Node3</title>
<g id="a_Node000003"><a xlink:href="../../d6/d51/CarlaRecorderHelpers_8cpp.html#a4ed8dab34258bd6b98574ab6e4485d42" target="_top" xlink:title=" ">
<polygon fill="white" stroke="#666666" points="429,-58 359,-58 359,-38 429,-38 429,-58"/>
<text text-anchor="middle" x="394" y="-44.5" font-family="Helvetica,sans-Serif" font-size="10.00">ReadFString</text>
</a>
</g>
</g>
<!-- Node2&#45;&gt;Node3 -->
<g id="edge2_Node000002_Node000003" class="edge">
<title>Node2&#45;&gt;Node3</title>
<g id="a_edge2_Node000002_Node000003"><a xlink:title=" ">
<path fill="none" stroke="#63b8ff" d="M321.72,-38.22C330.63,-39.44 339.59,-40.67 348.01,-41.83"/>
<polygon fill="#63b8ff" stroke="#63b8ff" points="347.32,-45.4 357.7,-43.29 348.27,-38.47 347.32,-45.4"/>
</a>
</g>
</g>
<!-- Node4 -->
<g id="Node000004" class="node">
<title>Node4</title>
<g id="a_Node000004"><a xlink:href="../../d6/d51/CarlaRecorderHelpers_8cpp.html#ae08e4aad382a9626efef6d44e45905d2" target="_top" xlink:title=" ">
<polygon fill="white" stroke="#666666" points="430.5,-20 357.5,-20 357.5,0 430.5,0 430.5,-20"/>
<text text-anchor="middle" x="394" y="-6.5" font-family="Helvetica,sans-Serif" font-size="10.00">ReadFVector</text>
</a>
</g>
</g>
<!-- Node2&#45;&gt;Node4 -->
<g id="edge3_Node000002_Node000004" class="edge">
<title>Node2&#45;&gt;Node4</title>
<g id="a_edge3_Node000002_Node000004"><a xlink:title=" ">
<path fill="none" stroke="#63b8ff" d="M321.72,-19.78C330.06,-18.63 338.44,-17.49 346.37,-16.4"/>
<polygon fill="#63b8ff" stroke="#63b8ff" points="346.81,-19.73 356.24,-14.91 345.86,-12.8 346.81,-19.73"/>
</a>
</g>
</g>
</g>
</svg>
