<?xml version="1.0" encoding="UTF-8" standalone="no"?>
<!DOCTYPE svg PUBLIC "-//W3C//DTD SVG 1.1//EN"
 "http://www.w3.org/Graphics/SVG/1.1/DTD/svg11.dtd">
<!-- Generated by graphviz version 8.1.0 (20230707.0739)
 -->
<!-- Title: carla::geom::Math::GetRightVector Pages: 1 -->
<!--zoomable 121 -->

<svg id="main" version="1.1" xmlns="http://www.w3.org/2000/svg" xmlns:xlink="http://www.w3.org/1999/xlink" xml:space="preserve" onload="init(evt)">
<style type="text/css"><![CDATA[
.node, .edge {opacity: 0.7;}
.node.selected, .edge.selected {opacity: 1;}
.edge:hover path { stroke: red; }
.edge:hover polygon { stroke: red; fill: red; }
]]></style>

<defs>
  <circle id="rim" cx="0" cy="0" r="7"/>
  <circle id="rim2" cx="0" cy="0" r="3.5"/>
  <g id="zoomPlus">
    <use xlink:href="#rim" fill="#404040"><set attributeName="fill" to="#808080" begin="zoomplus.mouseover" end="zoomplus.mouseout"/></use>
    <path d="M-4,0h8M0,-4v8" fill="none" stroke="white" stroke-width="1.5" pointer-events="none"/>
  </g>
  <g id="zoomMin">
    <use xlink:href="#rim" fill="#404040"><set attributeName="fill" to="#808080" begin="zoomminus.mouseover" end="zoomminus.mouseout"/></use>
    <path d="M-4,0h8" fill="none" stroke="white" stroke-width="1.5" pointer-events="none"/>
  </g>
  <g id="arrowUp" transform="translate(30 24)">
    <use xlink:href="#rim"/>
    <path pointer-events="none" fill="none" stroke="white" stroke-width="1.5" d="M0,-3.0v7 M-2.5,-0.5L0,-3.0L2.5,-0.5"/>
  </g>
  <g id="arrowRight" transform="rotate(90) translate(36 -43)">
    <use xlink:href="#rim"/>
    <path pointer-events="none" fill="none" stroke="white" stroke-width="1.5" d="M0,-3.0v7 M-2.5,-0.5L0,-3.0L2.5,-0.5"/>
  </g>
  <g id="arrowDown" transform="rotate(180) translate(-30 -48)">
    <use xlink:href="#rim"/>
    <path pointer-events="none" fill="none" stroke="white" stroke-width="1.5" d="M0,-3.0v7 M-2.5,-0.5L0,-3.0L2.5,-0.5"/>
  </g>
  <g id="arrowLeft" transform="rotate(270) translate(-36 17)">
    <use xlink:href="#rim"/>
    <path pointer-events="none" fill="none" stroke="white" stroke-width="1.5" d="M0,-3.0v7 M-2.5,-0.5L0,-3.0L2.5,-0.5"/>
  </g>
  <g id="resetDef">
    <use xlink:href="#rim2" fill="#404040"><set attributeName="fill" to="#808080" begin="reset.mouseover" end="reset.mouseout"/></use>
  </g>
</defs>
<script type="application/ecmascript">
var viewWidth = 850;
var viewHeight = 121;
var sectionId = 'dynsection-20';
</script>
<script type="application/ecmascript" xlink:href="../../svg.min.js"/>
<svg id="graph" class="graph">
<g id="viewport">
<title>carla::geom::Math::GetRightVector</title>
<!-- Node1 -->
<g id="Node000001" class="node">
<title>Node1</title>
<g id="a_Node000001"><a xlink:title="Compute the unit vector pointing towards the Y&#45;axis of rotation.">
<polygon fill="#999999" stroke="#666666" points="842.25,-85 741.5,-85 741.5,-53 842.25,-53 842.25,-85"/>
<text text-anchor="start" x="749.5" y="-71.5" font-family="Helvetica,sans-Serif" font-size="10.00">carla::geom::Math::</text>
<text text-anchor="middle" x="791.88" y="-59.5" font-family="Helvetica,sans-Serif" font-size="10.00">GetRightVector</text>
</a>
</g>
</g>
<!-- Node2 -->
<g id="Node000002" class="node">
<title>Node2</title>
<g id="a_Node000002"><a xlink:href="../../d8/dba/classcarla_1_1geom_1_1Rotation.html#ac37b627825f8a17af21bb0e1bcb3da68" target="_top" xlink:title=" ">
<polygon fill="white" stroke="#666666" points="705.5,-85 596.5,-85 596.5,-53 705.5,-53 705.5,-85"/>
<text text-anchor="start" x="604.5" y="-71.5" font-family="Helvetica,sans-Serif" font-size="10.00">carla::geom::Rotation</text>
<text text-anchor="middle" x="651" y="-59.5" font-family="Helvetica,sans-Serif" font-size="10.00">::GetRightVector</text>
</a>
</g>
</g>
<!-- Node1&#45;&gt;Node2 -->
<g id="edge1_Node000001_Node000002" class="edge">
<title>Node1&#45;&gt;Node2</title>
<g id="a_edge1_Node000001_Node000002"><a xlink:title=" ">
<path fill="none" stroke="#63b8ff" d="M730.14,-69C721.98,-69 713.66,-69 705.63,-69"/>
<polygon fill="#63b8ff" stroke="#63b8ff" points="730.13,-72.5 740.13,-69 730.13,-65.5 730.13,-72.5"/>
</a>
</g>
</g>
<!-- Node3 -->
<g id="Node000003" class="node">
<title>Node3</title>
<g id="a_Node000003"><a xlink:href="../../de/da4/classcarla_1_1geom_1_1Transform.html#aca3bcd71d6b843f5cd0f387b5400cb40" target="_top" xlink:title=" ">
<polygon fill="white" stroke="#666666" points="547.75,-113 432,-113 432,-81 547.75,-81 547.75,-113"/>
<text text-anchor="start" x="440" y="-99.5" font-family="Helvetica,sans-Serif" font-size="10.00">carla::geom::Transform</text>
<text text-anchor="middle" x="489.88" y="-87.5" font-family="Helvetica,sans-Serif" font-size="10.00">::GetRightVector</text>
</a>
</g>
</g>
<!-- Node2&#45;&gt;Node3 -->
<g id="edge2_Node000002_Node000003" class="edge">
<title>Node2&#45;&gt;Node3</title>
<g id="a_edge2_Node000002_Node000003"><a xlink:title=" ">
<path fill="none" stroke="#63b8ff" d="M585.46,-80.36C573.13,-82.53 560.31,-84.78 548.23,-86.91"/>
<polygon fill="#63b8ff" stroke="#63b8ff" points="585.89,-83.66 595.13,-78.48 584.67,-76.77 585.89,-83.66"/>
</a>
</g>
</g>
<!-- Node4 -->
<g id="Node000004" class="node">
<title>Node4</title>
<g id="a_Node000004"><a xlink:href="../../de/d3c/classAProceduralBuilding.html#a94c54e7cdae5a74bf3d4df152c0daa19" target="_top" xlink:title=" ">
<polygon fill="white" stroke="#666666" points="560.5,-63 419.25,-63 419.25,-19 560.5,-19 560.5,-63"/>
<text text-anchor="start" x="427.25" y="-49.5" font-family="Helvetica,sans-Serif" font-size="10.00">AProceduralBuilding</text>
<text text-anchor="start" x="427.25" y="-37.5" font-family="Helvetica,sans-Serif" font-size="10.00">::UpdateTransformPositionTo</text>
<text text-anchor="middle" x="489.88" y="-25.5" font-family="Helvetica,sans-Serif" font-size="10.00">NextSide</text>
</a>
</g>
</g>
<!-- Node2&#45;&gt;Node4 -->
<g id="edge3_Node000002_Node000004" class="edge">
<title>Node2&#45;&gt;Node4</title>
<g id="a_edge3_Node000002_Node000004"><a xlink:title=" ">
<path fill="none" stroke="#63b8ff" d="M585.56,-57.66C577.39,-56.22 569.01,-54.75 560.77,-53.3"/>
<polygon fill="#63b8ff" stroke="#63b8ff" points="584.67,-61.23 595.13,-59.52 585.89,-54.34 584.67,-61.23"/>
</a>
</g>
</g>
<!-- Node5 -->
<g id="Node000005" class="node">
<title>Node5</title>
<g id="a_Node000005"><a xlink:href="../../de/d3c/classAProceduralBuilding.html#afe1ca72e692c8cdb5c6e3dc168f39575" target="_top" xlink:title=" ">
<polygon fill="white" stroke="#666666" points="243.5,-82 139.75,-82 139.75,-50 243.5,-50 243.5,-82"/>
<text text-anchor="start" x="147.75" y="-68.5" font-family="Helvetica,sans-Serif" font-size="10.00">AProceduralBuilding</text>
<text text-anchor="middle" x="191.62" y="-56.5" font-family="Helvetica,sans-Serif" font-size="10.00">::CreateRoof</text>
</a>
</g>
</g>
<!-- Node4&#45;&gt;Node5 -->
<g id="edge4_Node000004_Node000005" class="edge">
<title>Node4&#45;&gt;Node5</title>
<g id="a_edge4_Node000004_Node000005"><a xlink:title=" ">
<path fill="none" stroke="#63b8ff" d="M408.1,-47.82C355.74,-52.23 289.12,-57.86 243.92,-61.67"/>
<polygon fill="#63b8ff" stroke="#63b8ff" points="408.37,-51.22 418.04,-46.89 407.78,-44.25 408.37,-51.22"/>
</a>
</g>
</g>
<!-- Node7 -->
<g id="Node000007" class="node">
<title>Node7</title>
<g id="a_Node000007"><a xlink:href="../../de/d3c/classAProceduralBuilding.html#a2bbf1af9300a3857d1ebb056b545007e" target="_top" xlink:title=" ">
<polygon fill="white" stroke="#666666" points="383.25,-35 279.5,-35 279.5,-3 383.25,-3 383.25,-35"/>
<text text-anchor="start" x="287.5" y="-21.5" font-family="Helvetica,sans-Serif" font-size="10.00">AProceduralBuilding</text>
<text text-anchor="middle" x="331.38" y="-9.5" font-family="Helvetica,sans-Serif" font-size="10.00">::CreateSide</text>
</a>
</g>
</g>
<!-- Node4&#45;&gt;Node7 -->
<g id="edge6_Node000004_Node000007" class="edge">
<title>Node4&#45;&gt;Node7</title>
<g id="a_edge6_Node000004_Node000007"><a xlink:title=" ">
<path fill="none" stroke="#63b8ff" d="M408.24,-29.67C399.85,-28.49 391.49,-27.31 383.56,-26.2"/>
<polygon fill="#63b8ff" stroke="#63b8ff" points="407.47,-33.23 417.86,-31.16 408.45,-26.3 407.47,-33.23"/>
</a>
</g>
</g>
<!-- Node6 -->
<g id="Node000006" class="node">
<title>Node6</title>
<g id="a_Node000006"><a xlink:href="../../de/d3c/classAProceduralBuilding.html#a309c9e716c51a91b3977c1e4c1da4263" target="_top" xlink:title=" ">
<polygon fill="white" stroke="#666666" points="103.75,-57 0,-57 0,-25 103.75,-25 103.75,-57"/>
<text text-anchor="start" x="8" y="-43.5" font-family="Helvetica,sans-Serif" font-size="10.00">AProceduralBuilding</text>
<text text-anchor="middle" x="51.88" y="-31.5" font-family="Helvetica,sans-Serif" font-size="10.00">::CreateBuilding</text>
</a>
</g>
</g>
<!-- Node5&#45;&gt;Node6 -->
<g id="edge5_Node000005_Node000006" class="edge">
<title>Node5&#45;&gt;Node6</title>
<g id="a_edge5_Node000005_Node000006"><a xlink:title=" ">
<path fill="none" stroke="#63b8ff" d="M128.69,-54.76C120.51,-53.27 112.19,-51.76 104.21,-50.32"/>
<polygon fill="#63b8ff" stroke="#63b8ff" points="127.87,-58.35 138.33,-56.69 129.12,-51.46 127.87,-58.35"/>
</a>
</g>
</g>
<!-- Node8 -->
<g id="Node000008" class="node">
<title>Node8</title>
<g id="a_Node000008"><a xlink:href="../../de/d3c/classAProceduralBuilding.html#a1c578e1e80fd5cc6911850c833494d45" target="_top" xlink:title=" ">
<polygon fill="white" stroke="#666666" points="243.5,-32 139.75,-32 139.75,0 243.5,0 243.5,-32"/>
<text text-anchor="start" x="147.75" y="-18.5" font-family="Helvetica,sans-Serif" font-size="10.00">AProceduralBuilding</text>
<text text-anchor="middle" x="191.62" y="-6.5" font-family="Helvetica,sans-Serif" font-size="10.00">::CreateFloor</text>
</a>
</g>
</g>
<!-- Node7&#45;&gt;Node8 -->
<g id="edge7_Node000007_Node000008" class="edge">
<title>Node7&#45;&gt;Node8</title>
<g id="a_edge7_Node000007_Node000008"><a xlink:title=" ">
<path fill="none" stroke="#63b8ff" d="M268.16,-17.65C260.07,-17.47 251.85,-17.29 243.96,-17.12"/>
<polygon fill="#63b8ff" stroke="#63b8ff" points="268.01,-21.16 278.08,-17.88 268.16,-14.17 268.01,-21.16"/>
</a>
</g>
</g>
<!-- Node8&#45;&gt;Node6 -->
<g id="edge8_Node000008_Node000006" class="edge">
<title>Node8&#45;&gt;Node6</title>
<g id="a_edge8_Node000008_Node000006"><a xlink:title=" ">
<path fill="none" stroke="#63b8ff" d="M128.69,-27.24C120.51,-28.73 112.19,-30.24 104.21,-31.68"/>
<polygon fill="#63b8ff" stroke="#63b8ff" points="129.12,-30.54 138.33,-25.31 127.87,-23.65 129.12,-30.54"/>
</a>
</g>
</g>
</g>
</svg>

<g id="navigator" transform="translate(0 0)" fill="#404254">
  <rect fill="#f2f5e9" fill-opacity="0.5" stroke="#606060" stroke-width=".5" x="0" y="0" width="60" height="60"/>
  <use id="zoomplus" xlink:href="#zoomPlus" x="17" y="9" onmousedown="handleZoom(evt,'in')"/>
  <use id="zoomminus" xlink:href="#zoomMin" x="42" y="9" onmousedown="handleZoom(evt,'out')"/>
  <use id="reset" xlink:href="#resetDef" x="30" y="36" onmousedown="handleReset()"/>
   <use id="arrowup" xlink:href="#arrowUp" x="0" y="0" onmousedown="handlePan(0,-1)"/>
  <use id="arrowright" xlink:href="#arrowRight" x="0" y="0" onmousedown="handlePan(1,0)"/>
  <use id="arrowdown" xlink:href="#arrowDown" x="0" y="0" onmousedown="handlePan(0,1)"/>
  <use id="arrowleft" xlink:href="#arrowLeft" x="0" y="0" onmousedown="handlePan(-1,0)"/>
</g>
<svg viewBox="0 0 15 15" width="100%" height="30px" preserveAspectRatio="xMaxYMin meet">
 <g id="arrow_out" transform="scale(0.3 0.3)">
  <a xlink:href="classcarla_1_1geom_1_1Math_a1de27b6ea1464e3fcd560992c27c008d_icgraph_org.svg" target="_base">
   <rect id="button" ry="5" rx="5" y="6" x="6" height="38" width="38"
        fill="#f2f5e9" fill-opacity="0.5" stroke="#606060" stroke-width="1.0"/>
   <path id="arrow"
     d="M 11.500037,31.436501 C 11.940474,20.09759 22.043105,11.32322 32.158766,21.979434 L 37.068811,17.246167 C 37.068811,17.246167 37.088388,32 37.088388,32 L 22.160133,31.978069 C 22.160133,31.978069 26.997745,27.140456 26.997745,27.140456 C 18.528582,18.264221 13.291696,25.230495 11.500037,31.436501 z"
     style="fill:#404040;"/>
  </a>
 </g>
</svg>

<style type='text/css'>
<![CDATA[
[data-mouse-over-selected='false'] { opacity: 0.7; }
[data-mouse-over-selected='true']  { opacity: 1.0; }
]]>
</style>
<script type="application/ecmascript"><![CDATA[
document.addEventListener('DOMContentLoaded', (event) => {
  highlightEdges();
  highlightAdjacentNodes();
});
]]></script>
</svg>
