<?xml version="1.0" encoding="UTF-8" standalone="no"?>
<!DOCTYPE svg PUBLIC "-//W3C//DTD SVG 1.1//EN"
 "http://www.w3.org/Graphics/SVG/1.1/DTD/svg11.dtd">
<!-- Generated by graphviz version 8.1.0 (20230707.0739)
 -->
<!-- Title: carla::geom::Math::DistanceSquared Pages: 1 -->
<!--zoomable 281 -->

<svg id="main" version="1.1" xmlns="http://www.w3.org/2000/svg" xmlns:xlink="http://www.w3.org/1999/xlink" xml:space="preserve" onload="init(evt)">
<style type="text/css"><![CDATA[
.node, .edge {opacity: 0.7;}
.node.selected, .edge.selected {opacity: 1;}
.edge:hover path { stroke: red; }
.edge:hover polygon { stroke: red; fill: red; }
]]></style>

<defs>
  <circle id="rim" cx="0" cy="0" r="7"/>
  <circle id="rim2" cx="0" cy="0" r="3.5"/>
  <g id="zoomPlus">
    <use xlink:href="#rim" fill="#404040"><set attributeName="fill" to="#808080" begin="zoomplus.mouseover" end="zoomplus.mouseout"/></use>
    <path d="M-4,0h8M0,-4v8" fill="none" stroke="white" stroke-width="1.5" pointer-events="none"/>
  </g>
  <g id="zoomMin">
    <use xlink:href="#rim" fill="#404040"><set attributeName="fill" to="#808080" begin="zoomminus.mouseover" end="zoomminus.mouseout"/></use>
    <path d="M-4,0h8" fill="none" stroke="white" stroke-width="1.5" pointer-events="none"/>
  </g>
  <g id="arrowUp" transform="translate(30 24)">
    <use xlink:href="#rim"/>
    <path pointer-events="none" fill="none" stroke="white" stroke-width="1.5" d="M0,-3.0v7 M-2.5,-0.5L0,-3.0L2.5,-0.5"/>
  </g>
  <g id="arrowRight" transform="rotate(90) translate(36 -43)">
    <use xlink:href="#rim"/>
    <path pointer-events="none" fill="none" stroke="white" stroke-width="1.5" d="M0,-3.0v7 M-2.5,-0.5L0,-3.0L2.5,-0.5"/>
  </g>
  <g id="arrowDown" transform="rotate(180) translate(-30 -48)">
    <use xlink:href="#rim"/>
    <path pointer-events="none" fill="none" stroke="white" stroke-width="1.5" d="M0,-3.0v7 M-2.5,-0.5L0,-3.0L2.5,-0.5"/>
  </g>
  <g id="arrowLeft" transform="rotate(270) translate(-36 17)">
    <use xlink:href="#rim"/>
    <path pointer-events="none" fill="none" stroke="white" stroke-width="1.5" d="M0,-3.0v7 M-2.5,-0.5L0,-3.0L2.5,-0.5"/>
  </g>
  <g id="resetDef">
    <use xlink:href="#rim2" fill="#404040"><set attributeName="fill" to="#808080" begin="reset.mouseover" end="reset.mouseout"/></use>
  </g>
</defs>
<script type="application/ecmascript">
var viewWidth = 1148;
var viewHeight = 281;
var sectionId = 'dynsection-11';
</script>
<script type="application/ecmascript" xlink:href="../../svg.min.js"/>
<svg id="graph" class="graph">
<g id="viewport">
<title>carla::geom::Math::DistanceSquared</title>
<!-- Node1 -->
<g id="Node000001" class="node">
<title>Node1</title>
<g id="a_Node000001"><a xlink:title=" ">
<polygon fill="#999999" stroke="#666666" points="1140.25,-76 1039.5,-76 1039.5,-44 1140.25,-44 1140.25,-76"/>
<text text-anchor="start" x="1047.5" y="-62.5" font-family="Helvetica,sans-Serif" font-size="10.00">carla::geom::Math::</text>
<text text-anchor="middle" x="1089.88" y="-50.5" font-family="Helvetica,sans-Serif" font-size="10.00">DistanceSquared</text>
</a>
</g>
</g>
<!-- Node2 -->
<g id="Node000002" class="node">
<title>Node2</title>
<g id="a_Node000002"><a xlink:href="../../d0/dea/classcarla_1_1geom_1_1Math.html#adc0c40d67bed1ab82405838c7981aff1" target="_top" xlink:title=" ">
<polygon fill="white" stroke="#666666" points="999,-120 898.25,-120 898.25,-88 999,-88 999,-120"/>
<text text-anchor="start" x="906.25" y="-106.5" font-family="Helvetica,sans-Serif" font-size="10.00">carla::geom::Math::</text>
<text text-anchor="middle" x="948.62" y="-94.5" font-family="Helvetica,sans-Serif" font-size="10.00">Distance</text>
</a>
</g>
</g>
<!-- Node1&#45;&gt;Node2 -->
<g id="edge1_Node000001_Node000002" class="edge">
<title>Node1&#45;&gt;Node2</title>
<g id="a_edge1_Node000001_Node000002"><a xlink:title=" ">
<path fill="none" stroke="#63b8ff" d="M1029.18,-78.86C1019.26,-82 1009.06,-85.22 999.42,-88.27"/>
<polygon fill="#63b8ff" stroke="#63b8ff" points="1029.91,-81.99 1038.39,-75.64 1027.8,-75.31 1029.91,-81.99"/>
</a>
</g>
</g>
<!-- Node18 -->
<g id="Node000018" class="node">
<title>Node18</title>
<g id="a_Node000018"><a xlink:href="../../de/d23/classcarla_1_1geom_1_1Location.html#ac06b9a6659a134b7acd91eb488c25248" target="_top" xlink:title=" ">
<polygon fill="white" stroke="#666666" points="1003.5,-51 893.75,-51 893.75,-19 1003.5,-19 1003.5,-51"/>
<text text-anchor="start" x="901.75" y="-37.5" font-family="Helvetica,sans-Serif" font-size="10.00">carla::geom::Location</text>
<text text-anchor="middle" x="948.62" y="-25.5" font-family="Helvetica,sans-Serif" font-size="10.00">::DistanceSquared</text>
</a>
</g>
</g>
<!-- Node1&#45;&gt;Node18 -->
<g id="edge17_Node000001_Node000018" class="edge">
<title>Node1&#45;&gt;Node18</title>
<g id="a_edge17_Node000001_Node000018"><a xlink:title=" ">
<path fill="none" stroke="#63b8ff" d="M1028.63,-49.18C1020.33,-47.69 1011.86,-46.17 1003.68,-44.7"/>
<polygon fill="#63b8ff" stroke="#63b8ff" points="1027.93,-52.79 1038.39,-51.12 1029.16,-45.9 1027.93,-52.79"/>
</a>
</g>
</g>
<!-- Node3 -->
<g id="Node000003" class="node">
<title>Node3</title>
<g id="a_Node000003"><a xlink:href="../../dc/dda/namespacecarla_1_1geom.html#a43ac23a0344278fa3a045fc4b486a3ec" target="_top" xlink:title=" ">
<polygon fill="white" stroke="#666666" points="857.75,-226 717.25,-226 717.25,-194 857.75,-194 857.75,-226"/>
<text text-anchor="start" x="725.25" y="-212.5" font-family="Helvetica,sans-Serif" font-size="10.00">carla::geom::ComputeVertex</text>
<text text-anchor="middle" x="787.5" y="-200.5" font-family="Helvetica,sans-Serif" font-size="10.00">Weight</text>
</a>
</g>
</g>
<!-- Node2&#45;&gt;Node3 -->
<g id="edge2_Node000002_Node000003" class="edge">
<title>Node2&#45;&gt;Node3</title>
<g id="a_edge2_Node000002_Node000003"><a xlink:title=" ">
<path fill="none" stroke="#63b8ff" d="M922.92,-127.82C905.62,-143.66 881.45,-164.2 857.75,-179 849.15,-184.37 839.45,-189.32 830.11,-193.61"/>
<polygon fill="#63b8ff" stroke="#63b8ff" points="924.89,-130.84 929.82,-121.47 920.12,-125.71 924.89,-130.84"/>
</a>
</g>
</g>
<!-- Node8 -->
<g id="Node000008" class="node">
<title>Node8</title>
<g id="a_Node000008"><a xlink:href="../../de/d23/classcarla_1_1geom_1_1Location.html#a9b52bea810e3f0551d87126fc6840045" target="_top" xlink:title=" ">
<polygon fill="white" stroke="#666666" points="842.38,-170 732.62,-170 732.62,-138 842.38,-138 842.38,-170"/>
<text text-anchor="start" x="740.62" y="-156.5" font-family="Helvetica,sans-Serif" font-size="10.00">carla::geom::Location</text>
<text text-anchor="middle" x="787.5" y="-144.5" font-family="Helvetica,sans-Serif" font-size="10.00">::Distance</text>
</a>
</g>
</g>
<!-- Node2&#45;&gt;Node8 -->
<g id="edge7_Node000002_Node000008" class="edge">
<title>Node2&#45;&gt;Node8</title>
<g id="a_edge7_Node000002_Node000008"><a xlink:title=" ">
<path fill="none" stroke="#63b8ff" d="M887.71,-122.83C872.34,-127.65 855.94,-132.81 840.98,-137.51"/>
<polygon fill="#63b8ff" stroke="#63b8ff" points="888.66,-125.88 897.15,-119.55 886.56,-119.2 888.66,-125.88"/>
</a>
</g>
</g>
<!-- Node16 -->
<g id="Node000016" class="node">
<title>Node16</title>
<g id="a_Node000016"><a xlink:href="../../dd/de6/classcarla_1_1road_1_1Road.html#ab2b49cb7ce0697c34d49e20dfa40692b" target="_top" xlink:title="Returns a pointer to the nearest lane, given s relative to Road and a location">
<polygon fill="white" stroke="#666666" points="835.62,-120 739.38,-120 739.38,-88 835.62,-88 835.62,-120"/>
<text text-anchor="start" x="747.38" y="-106.5" font-family="Helvetica,sans-Serif" font-size="10.00">carla::road::Road::</text>
<text text-anchor="middle" x="787.5" y="-94.5" font-family="Helvetica,sans-Serif" font-size="10.00">GetNearestLane</text>
</a>
</g>
</g>
<!-- Node2&#45;&gt;Node16 -->
<g id="edge15_Node000002_Node000016" class="edge">
<title>Node2&#45;&gt;Node16</title>
<g id="a_edge15_Node000002_Node000016"><a xlink:title=" ">
<path fill="none" stroke="#63b8ff" d="M887.23,-104C870.29,-104 852.12,-104 836.04,-104"/>
<polygon fill="#63b8ff" stroke="#63b8ff" points="887.15,-107.5 897.15,-104 887.15,-100.5 887.15,-107.5"/>
</a>
</g>
</g>
<!-- Node17 -->
<g id="Node000017" class="node">
<title>Node17</title>
<g id="a_Node000017"><a xlink:href="../../d6/dd9/test__geom_8cpp.html#a44cd75a38bbced6dfd1c0f48d59f505e" target="_top" xlink:title=" ">
<polygon fill="white" stroke="#666666" points="807.5,-70 767.5,-70 767.5,-50 807.5,-50 807.5,-70"/>
<text text-anchor="middle" x="787.5" y="-56.5" font-family="Helvetica,sans-Serif" font-size="10.00">TEST</text>
</a>
</g>
</g>
<!-- Node2&#45;&gt;Node17 -->
<g id="edge16_Node000002_Node000017" class="edge">
<title>Node2&#45;&gt;Node17</title>
<g id="a_edge16_Node000002_Node000017"><a xlink:title=" ">
<path fill="none" stroke="#63b8ff" d="M887.85,-87.34C877.8,-84.55 867.48,-81.69 857.75,-79 840.93,-74.35 821.79,-69.11 807.91,-65.31"/>
<polygon fill="#63b8ff" stroke="#63b8ff" points="886.62,-90.91 897.19,-90.21 888.49,-84.16 886.62,-90.91"/>
</a>
</g>
</g>
<!-- Node4 -->
<g id="Node000004" class="node">
<title>Node4</title>
<g id="a_Node000004"><a xlink:href="../../dc/dda/namespacecarla_1_1geom.html#ae6035db55f0c02c510bfb23ddb37c4f3" target="_top" xlink:title=" ">
<polygon fill="white" stroke="#666666" points="681.25,-251 504.75,-251 504.75,-219 681.25,-219 681.25,-251"/>
<text text-anchor="start" x="512.75" y="-237.5" font-family="Helvetica,sans-Serif" font-size="10.00">carla::geom::GetVertexNeighborhood</text>
<text text-anchor="middle" x="593" y="-225.5" font-family="Helvetica,sans-Serif" font-size="10.00">AndWeights</text>
</a>
</g>
</g>
<!-- Node3&#45;&gt;Node4 -->
<g id="edge3_Node000003_Node000004" class="edge">
<title>Node3&#45;&gt;Node4</title>
<g id="a_edge3_Node000003_Node000004"><a xlink:title=" ">
<path fill="none" stroke="#63b8ff" d="M706.34,-220.41C698.14,-221.48 689.78,-222.56 681.5,-223.64"/>
<polygon fill="#63b8ff" stroke="#63b8ff" points="706.54,-223.78 716,-219.03 705.64,-216.84 706.54,-223.78"/>
</a>
</g>
</g>
<!-- Node5 -->
<g id="Node000005" class="node">
<title>Node5</title>
<g id="a_Node000005"><a xlink:href="../../d6/d3d/classcarla_1_1geom_1_1MeshFactory.html#a4460bce35a9b41600577c057264db969" target="_top" xlink:title=" ">
<polygon fill="white" stroke="#666666" points="468,-251 338,-251 338,-219 468,-219 468,-251"/>
<text text-anchor="start" x="346" y="-237.5" font-family="Helvetica,sans-Serif" font-size="10.00">carla::geom::MeshFactory</text>
<text text-anchor="middle" x="403" y="-225.5" font-family="Helvetica,sans-Serif" font-size="10.00">::MergeAndSmooth</text>
</a>
</g>
</g>
<!-- Node4&#45;&gt;Node5 -->
<g id="edge4_Node000004_Node000005" class="edge">
<title>Node4&#45;&gt;Node5</title>
<g id="a_edge4_Node000004_Node000005"><a xlink:title=" ">
<path fill="none" stroke="#63b8ff" d="M493.49,-235C484.93,-235 476.42,-235 468.25,-235"/>
<polygon fill="#63b8ff" stroke="#63b8ff" points="493.33,-238.5 503.33,-235 493.33,-231.5 493.33,-238.5"/>
</a>
</g>
</g>
<!-- Node6 -->
<g id="Node000006" class="node">
<title>Node6</title>
<g id="a_Node000006"><a xlink:href="../../d0/d34/classcarla_1_1road_1_1Map.html#ab62e74383d9f1ef5a2b38951ba1d1c94" target="_top" xlink:title=" ">
<polygon fill="white" stroke="#666666" points="289.25,-273 157,-273 157,-241 289.25,-241 289.25,-273"/>
<text text-anchor="start" x="165" y="-259.5" font-family="Helvetica,sans-Serif" font-size="10.00">carla::road::Map::Generate</text>
<text text-anchor="middle" x="223.12" y="-247.5" font-family="Helvetica,sans-Serif" font-size="10.00">ChunkedMesh</text>
</a>
</g>
</g>
<!-- Node5&#45;&gt;Node6 -->
<g id="edge5_Node000005_Node000006" class="edge">
<title>Node5&#45;&gt;Node6</title>
<g id="a_edge5_Node000005_Node000006"><a xlink:title=" ">
<path fill="none" stroke="#63b8ff" d="M326.78,-244.3C314.41,-245.83 301.68,-247.41 289.57,-248.91"/>
<polygon fill="#63b8ff" stroke="#63b8ff" points="327.04,-247.67 336.53,-242.97 326.18,-240.73 327.04,-247.67"/>
</a>
</g>
</g>
<!-- Node7 -->
<g id="Node000007" class="node">
<title>Node7</title>
<g id="a_Node000007"><a xlink:href="../../d0/d34/classcarla_1_1road_1_1Map.html#af8d495dd39272f46df76884d237409e8" target="_top" xlink:title="Buids a mesh based on the OpenDRIVE">
<polygon fill="white" stroke="#666666" points="301.25,-223 145,-223 145,-203 301.25,-203 301.25,-223"/>
<text text-anchor="middle" x="223.12" y="-209.5" font-family="Helvetica,sans-Serif" font-size="10.00">carla::road::Map::GenerateMesh</text>
</a>
</g>
</g>
<!-- Node5&#45;&gt;Node7 -->
<g id="edge6_Node000005_Node000007" class="edge">
<title>Node5&#45;&gt;Node7</title>
<g id="a_edge6_Node000005_Node000007"><a xlink:title=" ">
<path fill="none" stroke="#63b8ff" d="M326.76,-225.69C318.47,-224.67 310.02,-223.62 301.7,-222.59"/>
<polygon fill="#63b8ff" stroke="#63b8ff" points="326.18,-229.27 336.53,-227.03 327.04,-222.33 326.18,-229.27"/>
</a>
</g>
</g>
<!-- Node9 -->
<g id="Node000009" class="node">
<title>Node9</title>
<g id="a_Node000009"><a xlink:href="../../dc/d04/classcarla_1_1traffic__manager_1_1SimpleWaypoint.html#a9e9a225875409c967b7bf3842aebc259" target="_top" xlink:title="Calculates the distance from the object&#39;s waypoint to the passed location.">
<polygon fill="white" stroke="#666666" points="661.75,-201 524.25,-201 524.25,-169 661.75,-169 661.75,-201"/>
<text text-anchor="start" x="532.25" y="-187.5" font-family="Helvetica,sans-Serif" font-size="10.00">carla::traffic_manager</text>
<text text-anchor="middle" x="593" y="-175.5" font-family="Helvetica,sans-Serif" font-size="10.00">::SimpleWaypoint::Distance</text>
</a>
</g>
</g>
<!-- Node8&#45;&gt;Node9 -->
<g id="edge8_Node000008_Node000009" class="edge">
<title>Node8&#45;&gt;Node9</title>
<g id="a_edge8_Node000008_Node000009"><a xlink:title=" ">
<path fill="none" stroke="#63b8ff" d="M721.64,-164.44C702.5,-167.53 681.5,-170.91 662.15,-174.02"/>
<polygon fill="#63b8ff" stroke="#63b8ff" points="722.05,-167.76 731.37,-162.72 720.94,-160.85 722.05,-167.76"/>
</a>
</g>
</g>
<!-- Node10 -->
<g id="Node000010" class="node">
<title>Node10</title>
<g id="a_Node000010"><a xlink:href="../../dc/d04/classcarla_1_1traffic__manager_1_1SimpleWaypoint.html#a4375a209041eb4ea7a952dced3d4b664" target="_top" xlink:title="Calculates the distance the other SimpleWaypoint object.">
<polygon fill="white" stroke="#666666" points="661.75,-151 524.25,-151 524.25,-119 661.75,-119 661.75,-151"/>
<text text-anchor="start" x="532.25" y="-137.5" font-family="Helvetica,sans-Serif" font-size="10.00">carla::traffic_manager</text>
<text text-anchor="middle" x="593" y="-125.5" font-family="Helvetica,sans-Serif" font-size="10.00">::SimpleWaypoint::Distance</text>
</a>
</g>
</g>
<!-- Node8&#45;&gt;Node10 -->
<g id="edge9_Node000008_Node000010" class="edge">
<title>Node8&#45;&gt;Node10</title>
<g id="a_edge9_Node000008_Node000010"><a xlink:title=" ">
<path fill="none" stroke="#63b8ff" d="M721.64,-147.6C702.5,-145.71 681.5,-143.64 662.15,-141.73"/>
<polygon fill="#63b8ff" stroke="#63b8ff" points="721.07,-151.16 731.37,-148.66 721.76,-144.19 721.07,-151.16"/>
</a>
</g>
</g>
<!-- Node11 -->
<g id="Node000011" class="node">
<title>Node11</title>
<g id="a_Node000011"><a xlink:href="../../dd/df9/classcarla_1_1traffic__manager_1_1MotionPlanStage.html#a7a57d649d96daccb2e2ee9780f24c4ec" target="_top" xlink:title=" ">
<polygon fill="white" stroke="#666666" points="659.5,-101 526.5,-101 526.5,-69 659.5,-69 659.5,-101"/>
<text text-anchor="start" x="534.5" y="-87.5" font-family="Helvetica,sans-Serif" font-size="10.00">carla::traffic_manager</text>
<text text-anchor="middle" x="593" y="-75.5" font-family="Helvetica,sans-Serif" font-size="10.00">::MotionPlanStage::Update</text>
</a>
</g>
</g>
<!-- Node8&#45;&gt;Node11 -->
<g id="edge10_Node000008_Node000011" class="edge">
<title>Node8&#45;&gt;Node11</title>
<g id="a_edge10_Node000008_Node000011"><a xlink:title=" ">
<path fill="none" stroke="#63b8ff" d="M728.18,-133.61C724.46,-132.11 720.79,-130.56 717.25,-129 700.7,-121.69 698.04,-116.75 681.25,-110 673.5,-106.88 665.22,-103.99 656.96,-101.35"/>
<polygon fill="#63b8ff" stroke="#63b8ff" points="726.51,-137.11 737.1,-137.5 729.07,-130.59 726.51,-137.11"/>
</a>
</g>
</g>
<!-- Node12 -->
<g id="Node000012" class="node">
<title>Node12</title>
<g id="a_Node000012"><a xlink:href="../../da/d0f/classcarla_1_1traffic__manager_1_1TrafficManagerLocal.html#a6d67cce3d0e5a48056645270364fe637" target="_top" xlink:title="Initiates thread to run the TrafficManager sequentially.">
<polygon fill="white" stroke="#666666" points="468.75,-101 337.25,-101 337.25,-69 468.75,-69 468.75,-101"/>
<text text-anchor="start" x="345.25" y="-87.5" font-family="Helvetica,sans-Serif" font-size="10.00">carla::traffic_manager</text>
<text text-anchor="middle" x="403" y="-75.5" font-family="Helvetica,sans-Serif" font-size="10.00">::TrafficManagerLocal::Run</text>
</a>
</g>
</g>
<!-- Node11&#45;&gt;Node12 -->
<g id="edge11_Node000011_Node000012" class="edge">
<title>Node11&#45;&gt;Node12</title>
<g id="a_edge11_Node000011_Node000012"><a xlink:title=" ">
<path fill="none" stroke="#63b8ff" d="M515.67,-85C500.22,-85 484.11,-85 469.08,-85"/>
<polygon fill="#63b8ff" stroke="#63b8ff" points="515.25,-88.5 525.25,-85 515.25,-81.5 515.25,-88.5"/>
</a>
</g>
</g>
<!-- Node13 -->
<g id="Node000013" class="node">
<title>Node13</title>
<g id="a_Node000013"><a xlink:href="../../da/d0f/classcarla_1_1traffic__manager_1_1TrafficManagerLocal.html#a1ffbdb0bed64f385437d2820a90286d0" target="_top" xlink:title="To start the TrafficManager.">
<polygon fill="white" stroke="#666666" points="277.62,-107 168.62,-107 168.62,-63 277.62,-63 277.62,-107"/>
<text text-anchor="start" x="176.62" y="-93.5" font-family="Helvetica,sans-Serif" font-size="10.00">carla::traffic_manager</text>
<text text-anchor="start" x="176.62" y="-81.5" font-family="Helvetica,sans-Serif" font-size="10.00">::TrafficManagerLocal</text>
<text text-anchor="middle" x="223.12" y="-69.5" font-family="Helvetica,sans-Serif" font-size="10.00">::Start</text>
</a>
</g>
</g>
<!-- Node12&#45;&gt;Node13 -->
<g id="edge12_Node000012_Node000013" class="edge">
<title>Node12&#45;&gt;Node13</title>
<g id="a_edge12_Node000012_Node000013"><a xlink:title=" ">
<path fill="none" stroke="#63b8ff" d="M326.22,-85C309.99,-85 293.16,-85 277.97,-85"/>
<polygon fill="#63b8ff" stroke="#63b8ff" points="325.78,-88.5 335.78,-85 325.78,-81.5 325.78,-88.5"/>
</a>
</g>
</g>
<!-- Node14 -->
<g id="Node000014" class="node">
<title>Node14</title>
<g id="a_Node000014"><a xlink:href="../../da/d0f/classcarla_1_1traffic__manager_1_1TrafficManagerLocal.html#a1639db97ccf27a801b92fadabd611755" target="_top" xlink:title="To reset the traffic manager.">
<polygon fill="white" stroke="#666666" points="109,-138 0,-138 0,-94 109,-94 109,-138"/>
<text text-anchor="start" x="8" y="-124.5" font-family="Helvetica,sans-Serif" font-size="10.00">carla::traffic_manager</text>
<text text-anchor="start" x="8" y="-112.5" font-family="Helvetica,sans-Serif" font-size="10.00">::TrafficManagerLocal</text>
<text text-anchor="middle" x="54.5" y="-100.5" font-family="Helvetica,sans-Serif" font-size="10.00">::Reset</text>
</a>
</g>
</g>
<!-- Node13&#45;&gt;Node14 -->
<g id="edge13_Node000013_Node000014" class="edge">
<title>Node13&#45;&gt;Node14</title>
<g id="a_edge13_Node000013_Node000014"><a xlink:title=" ">
<path fill="none" stroke="#63b8ff" d="M158.08,-96.92C141.98,-99.91 124.87,-103.09 109.32,-105.99"/>
<polygon fill="#63b8ff" stroke="#63b8ff" points="158.3,-100.25 167.49,-94.98 157.02,-93.37 158.3,-100.25"/>
</a>
</g>
</g>
<!-- Node15 -->
<g id="Node000015" class="node">
<title>Node15</title>
<g id="a_Node000015"><a xlink:href="../../da/d0f/classcarla_1_1traffic__manager_1_1TrafficManagerLocal.html#a75976d36f4213ab24e79e3ea2dcd280a" target="_top" xlink:title="Private constructor for singleton lifecycle management.">
<polygon fill="white" stroke="#666666" points="109,-76 0,-76 0,-32 109,-32 109,-76"/>
<text text-anchor="start" x="8" y="-62.5" font-family="Helvetica,sans-Serif" font-size="10.00">carla::traffic_manager</text>
<text text-anchor="start" x="8" y="-50.5" font-family="Helvetica,sans-Serif" font-size="10.00">::TrafficManagerLocal</text>
<text text-anchor="middle" x="54.5" y="-38.5" font-family="Helvetica,sans-Serif" font-size="10.00">::TrafficManagerLocal</text>
</a>
</g>
</g>
<!-- Node13&#45;&gt;Node15 -->
<g id="edge14_Node000013_Node000015" class="edge">
<title>Node13&#45;&gt;Node15</title>
<g id="a_edge14_Node000013_Node000015"><a xlink:title=" ">
<path fill="none" stroke="#63b8ff" d="M158.08,-73.08C141.98,-70.09 124.87,-66.91 109.32,-64.01"/>
<polygon fill="#63b8ff" stroke="#63b8ff" points="157.02,-76.63 167.49,-75.02 158.3,-69.75 157.02,-76.63"/>
</a>
</g>
</g>
<!-- Node19 -->
<g id="Node000019" class="node">
<title>Node19</title>
<g id="a_Node000019"><a xlink:href="../../dd/d5b/classcarla_1_1nav_1_1WalkerManager.html#aa7e5aca74ef87c717532ef2099da6da2" target="_top" xlink:title="return the trafficlight affecting that position">
<polygon fill="white" stroke="#666666" points="853.25,-32 721.75,-32 721.75,0 853.25,0 853.25,-32"/>
<text text-anchor="start" x="729.75" y="-18.5" font-family="Helvetica,sans-Serif" font-size="10.00">carla::nav::WalkerManager</text>
<text text-anchor="middle" x="787.5" y="-6.5" font-family="Helvetica,sans-Serif" font-size="10.00">::GetTrafficLightAffecting</text>
</a>
</g>
</g>
<!-- Node18&#45;&gt;Node19 -->
<g id="edge18_Node000018_Node000019" class="edge">
<title>Node18&#45;&gt;Node19</title>
<g id="a_edge18_Node000018_Node000019"><a xlink:title=" ">
<path fill="none" stroke="#63b8ff" d="M882.63,-27.24C873.04,-26.09 863.16,-24.91 853.56,-23.77"/>
<polygon fill="#63b8ff" stroke="#63b8ff" points="881.96,-30.8 892.31,-28.51 882.79,-23.85 881.96,-30.8"/>
</a>
</g>
</g>
<!-- Node20 -->
<g id="Node000020" class="node">
<title>Node20</title>
<g id="a_Node000020"><a xlink:href="../../d6/d38/classcarla_1_1nav_1_1WalkerEventVisitor.html#a0df9ddaf3a46f74775cf7ad544684811" target="_top" xlink:title=" ">
<polygon fill="white" stroke="#666666" points="665.88,-32 520.12,-32 520.12,0 665.88,0 665.88,-32"/>
<text text-anchor="start" x="528.12" y="-18.5" font-family="Helvetica,sans-Serif" font-size="10.00">carla::nav::WalkerEventVisitor</text>
<text text-anchor="middle" x="593" y="-6.5" font-family="Helvetica,sans-Serif" font-size="10.00">::operator()</text>
</a>
</g>
</g>
<!-- Node19&#45;&gt;Node20 -->
<g id="edge19_Node000019_Node000020" class="edge">
<title>Node19&#45;&gt;Node20</title>
<g id="a_edge19_Node000019_Node000020"><a xlink:title=" ">
<path fill="none" stroke="#63b8ff" d="M710.75,-16C696.03,-16 680.64,-16 666.05,-16"/>
<polygon fill="#63b8ff" stroke="#63b8ff" points="710.33,-19.5 720.33,-16 710.33,-12.5 710.33,-19.5"/>
</a>
</g>
</g>
</g>
</svg>

<g id="navigator" transform="translate(0 0)" fill="#404254">
  <rect fill="#f2f5e9" fill-opacity="0.5" stroke="#606060" stroke-width=".5" x="0" y="0" width="60" height="60"/>
  <use id="zoomplus" xlink:href="#zoomPlus" x="17" y="9" onmousedown="handleZoom(evt,'in')"/>
  <use id="zoomminus" xlink:href="#zoomMin" x="42" y="9" onmousedown="handleZoom(evt,'out')"/>
  <use id="reset" xlink:href="#resetDef" x="30" y="36" onmousedown="handleReset()"/>
   <use id="arrowup" xlink:href="#arrowUp" x="0" y="0" onmousedown="handlePan(0,-1)"/>
  <use id="arrowright" xlink:href="#arrowRight" x="0" y="0" onmousedown="handlePan(1,0)"/>
  <use id="arrowdown" xlink:href="#arrowDown" x="0" y="0" onmousedown="handlePan(0,1)"/>
  <use id="arrowleft" xlink:href="#arrowLeft" x="0" y="0" onmousedown="handlePan(-1,0)"/>
</g>
<svg viewBox="0 0 15 15" width="100%" height="30px" preserveAspectRatio="xMaxYMin meet">
 <g id="arrow_out" transform="scale(0.3 0.3)">
  <a xlink:href="classcarla_1_1geom_1_1Math_a8bd4b72e239a23e9eb0bca4604dfa63e_icgraph_org.svg" target="_base">
   <rect id="button" ry="5" rx="5" y="6" x="6" height="38" width="38"
        fill="#f2f5e9" fill-opacity="0.5" stroke="#606060" stroke-width="1.0"/>
   <path id="arrow"
     d="M 11.500037,31.436501 C 11.940474,20.09759 22.043105,11.32322 32.158766,21.979434 L 37.068811,17.246167 C 37.068811,17.246167 37.088388,32 37.088388,32 L 22.160133,31.978069 C 22.160133,31.978069 26.997745,27.140456 26.997745,27.140456 C 18.528582,18.264221 13.291696,25.230495 11.500037,31.436501 z"
     style="fill:#404040;"/>
  </a>
 </g>
</svg>

<style type='text/css'>
<![CDATA[
[data-mouse-over-selected='false'] { opacity: 0.7; }
[data-mouse-over-selected='true']  { opacity: 1.0; }
]]>
</style>
<script type="application/ecmascript"><![CDATA[
document.addEventListener('DOMContentLoaded', (event) => {
  highlightEdges();
  highlightAdjacentNodes();
});
]]></script>
</svg>
