<?xml version="1.0" encoding="UTF-8" standalone="no"?>
<!DOCTYPE svg PUBLIC "-//W3C//DTD SVG 1.1//EN"
 "http://www.w3.org/Graphics/SVG/1.1/DTD/svg11.dtd">
<!-- Generated by graphviz version 8.1.0 (20230707.0739)
 -->
<!-- Title: carla::geom::Math::Distance Pages: 1 -->
<!--zoomable 249 -->

<svg id="main" version="1.1" xmlns="http://www.w3.org/2000/svg" xmlns:xlink="http://www.w3.org/1999/xlink" xml:space="preserve" onload="init(evt)">
<style type="text/css"><![CDATA[
.node, .edge {opacity: 0.7;}
.node.selected, .edge.selected {opacity: 1;}
.edge:hover path { stroke: red; }
.edge:hover polygon { stroke: red; fill: red; }
]]></style>

<defs>
  <circle id="rim" cx="0" cy="0" r="7"/>
  <circle id="rim2" cx="0" cy="0" r="3.5"/>
  <g id="zoomPlus">
    <use xlink:href="#rim" fill="#404040"><set attributeName="fill" to="#808080" begin="zoomplus.mouseover" end="zoomplus.mouseout"/></use>
    <path d="M-4,0h8M0,-4v8" fill="none" stroke="white" stroke-width="1.5" pointer-events="none"/>
  </g>
  <g id="zoomMin">
    <use xlink:href="#rim" fill="#404040"><set attributeName="fill" to="#808080" begin="zoomminus.mouseover" end="zoomminus.mouseout"/></use>
    <path d="M-4,0h8" fill="none" stroke="white" stroke-width="1.5" pointer-events="none"/>
  </g>
  <g id="arrowUp" transform="translate(30 24)">
    <use xlink:href="#rim"/>
    <path pointer-events="none" fill="none" stroke="white" stroke-width="1.5" d="M0,-3.0v7 M-2.5,-0.5L0,-3.0L2.5,-0.5"/>
  </g>
  <g id="arrowRight" transform="rotate(90) translate(36 -43)">
    <use xlink:href="#rim"/>
    <path pointer-events="none" fill="none" stroke="white" stroke-width="1.5" d="M0,-3.0v7 M-2.5,-0.5L0,-3.0L2.5,-0.5"/>
  </g>
  <g id="arrowDown" transform="rotate(180) translate(-30 -48)">
    <use xlink:href="#rim"/>
    <path pointer-events="none" fill="none" stroke="white" stroke-width="1.5" d="M0,-3.0v7 M-2.5,-0.5L0,-3.0L2.5,-0.5"/>
  </g>
  <g id="arrowLeft" transform="rotate(270) translate(-36 17)">
    <use xlink:href="#rim"/>
    <path pointer-events="none" fill="none" stroke="white" stroke-width="1.5" d="M0,-3.0v7 M-2.5,-0.5L0,-3.0L2.5,-0.5"/>
  </g>
  <g id="resetDef">
    <use xlink:href="#rim2" fill="#404040"><set attributeName="fill" to="#808080" begin="reset.mouseover" end="reset.mouseout"/></use>
  </g>
</defs>
<script type="application/ecmascript">
var viewWidth = 1003;
var viewHeight = 249;
var sectionId = 'dynsection-3';
</script>
<script type="application/ecmascript" xlink:href="../../svg.min.js"/>
<svg id="graph" class="graph">
<g id="viewport">
<title>carla::geom::Math::Distance</title>
<!-- Node1 -->
<g id="Node000001" class="node">
<title>Node1</title>
<g id="a_Node000001"><a xlink:title=" ">
<polygon fill="#999999" stroke="#666666" points="994.5,-107 893.75,-107 893.75,-75 994.5,-75 994.5,-107"/>
<text text-anchor="start" x="901.75" y="-93.5" font-family="Helvetica,sans-Serif" font-size="10.00">carla::geom::Math::</text>
<text text-anchor="middle" x="944.12" y="-81.5" font-family="Helvetica,sans-Serif" font-size="10.00">Distance</text>
</a>
</g>
</g>
<!-- Node2 -->
<g id="Node000002" class="node">
<title>Node2</title>
<g id="a_Node000002"><a xlink:href="../../dc/dda/namespacecarla_1_1geom.html#a43ac23a0344278fa3a045fc4b486a3ec" target="_top" xlink:title=" ">
<polygon fill="white" stroke="#666666" points="857.75,-207 717.25,-207 717.25,-175 857.75,-175 857.75,-207"/>
<text text-anchor="start" x="725.25" y="-193.5" font-family="Helvetica,sans-Serif" font-size="10.00">carla::geom::ComputeVertex</text>
<text text-anchor="middle" x="787.5" y="-181.5" font-family="Helvetica,sans-Serif" font-size="10.00">Weight</text>
</a>
</g>
</g>
<!-- Node1&#45;&gt;Node2 -->
<g id="edge1_Node000001_Node000002" class="edge">
<title>Node1&#45;&gt;Node2</title>
<g id="a_edge1_Node000001_Node000002"><a xlink:title=" ">
<path fill="none" stroke="#63b8ff" d="M909.06,-113.03C880.34,-131.6 839.89,-157.76 813.93,-174.55"/>
<polygon fill="#63b8ff" stroke="#63b8ff" points="910.44,-115.66 916.94,-107.29 906.64,-109.78 910.44,-115.66"/>
</a>
</g>
</g>
<!-- Node7 -->
<g id="Node000007" class="node">
<title>Node7</title>
<g id="a_Node000007"><a xlink:href="../../de/d23/classcarla_1_1geom_1_1Location.html#a9b52bea810e3f0551d87126fc6840045" target="_top" xlink:title=" ">
<polygon fill="white" stroke="#666666" points="842.38,-132 732.62,-132 732.62,-100 842.38,-100 842.38,-132"/>
<text text-anchor="start" x="740.62" y="-118.5" font-family="Helvetica,sans-Serif" font-size="10.00">carla::geom::Location</text>
<text text-anchor="middle" x="787.5" y="-106.5" font-family="Helvetica,sans-Serif" font-size="10.00">::Distance</text>
</a>
</g>
</g>
<!-- Node1&#45;&gt;Node7 -->
<g id="edge6_Node000001_Node000007" class="edge">
<title>Node1&#45;&gt;Node7</title>
<g id="a_edge6_Node000001_Node000007"><a xlink:title=" ">
<path fill="none" stroke="#63b8ff" d="M882.52,-100.8C869.39,-102.92 855.59,-105.15 842.73,-107.23"/>
<polygon fill="#63b8ff" stroke="#63b8ff" points="883.04,-104.1 892.35,-99.05 881.92,-97.19 883.04,-104.1"/>
</a>
</g>
</g>
<!-- Node15 -->
<g id="Node000015" class="node">
<title>Node15</title>
<g id="a_Node000015"><a xlink:href="../../dd/de6/classcarla_1_1road_1_1Road.html#ab2b49cb7ce0697c34d49e20dfa40692b" target="_top" xlink:title="Returns a pointer to the nearest lane, given s relative to Road and a location.">
<polygon fill="white" stroke="#666666" points="835.62,-82 739.38,-82 739.38,-50 835.62,-50 835.62,-82"/>
<text text-anchor="start" x="747.38" y="-68.5" font-family="Helvetica,sans-Serif" font-size="10.00">carla::road::Road::</text>
<text text-anchor="middle" x="787.5" y="-56.5" font-family="Helvetica,sans-Serif" font-size="10.00">GetNearestLane</text>
</a>
</g>
</g>
<!-- Node1&#45;&gt;Node15 -->
<g id="edge14_Node000001_Node000015" class="edge">
<title>Node1&#45;&gt;Node15</title>
<g id="a_edge14_Node000001_Node000015"><a xlink:title=" ">
<path fill="none" stroke="#63b8ff" d="M882.8,-81.25C867.3,-78.74 850.83,-76.08 836.08,-73.69"/>
<polygon fill="#63b8ff" stroke="#63b8ff" points="881.92,-84.81 892.35,-82.95 883.04,-77.9 881.92,-84.81"/>
</a>
</g>
</g>
<!-- Node16 -->
<g id="Node000016" class="node">
<title>Node16</title>
<g id="a_Node000016"><a xlink:href="../../d6/dd9/test__geom_8cpp.html#a44cd75a38bbced6dfd1c0f48d59f505e" target="_top" xlink:title=" ">
<polygon fill="white" stroke="#666666" points="807.5,-32 767.5,-32 767.5,-12 807.5,-12 807.5,-32"/>
<text text-anchor="middle" x="787.5" y="-18.5" font-family="Helvetica,sans-Serif" font-size="10.00">TEST</text>
</a>
</g>
</g>
<!-- Node1&#45;&gt;Node16 -->
<g id="edge15_Node000001_Node000016" class="edge">
<title>Node1&#45;&gt;Node16</title>
<g id="a_edge15_Node000001_Node000016"><a xlink:title=" ">
<path fill="none" stroke="#63b8ff" d="M909.9,-68.8C894.52,-59.25 875.71,-48.57 857.75,-41 841.44,-34.13 821.91,-29.03 807.76,-25.86"/>
<polygon fill="#63b8ff" stroke="#63b8ff" points="907.67,-72.16 917.99,-74.56 911.42,-66.25 907.67,-72.16"/>
</a>
</g>
</g>
<!-- Node3 -->
<g id="Node000003" class="node">
<title>Node3</title>
<g id="a_Node000003"><a xlink:href="../../dc/dda/namespacecarla_1_1geom.html#ae6035db55f0c02c510bfb23ddb37c4f3" target="_top" xlink:title=" ">
<polygon fill="white" stroke="#666666" points="681.25,-219 504.75,-219 504.75,-187 681.25,-187 681.25,-219"/>
<text text-anchor="start" x="512.75" y="-205.5" font-family="Helvetica,sans-Serif" font-size="10.00">carla::geom::GetVertexNeighborhood</text>
<text text-anchor="middle" x="593" y="-193.5" font-family="Helvetica,sans-Serif" font-size="10.00">AndWeights</text>
</a>
</g>
</g>
<!-- Node2&#45;&gt;Node3 -->
<g id="edge2_Node000002_Node000003" class="edge">
<title>Node2&#45;&gt;Node3</title>
<g id="a_edge2_Node000002_Node000003"><a xlink:title=" ">
<path fill="none" stroke="#63b8ff" d="M706.06,-196.01C697.95,-196.52 689.68,-197.04 681.5,-197.55"/>
<polygon fill="#63b8ff" stroke="#63b8ff" points="706.24,-199.45 716,-195.33 705.8,-192.46 706.24,-199.45"/>
</a>
</g>
</g>
<!-- Node4 -->
<g id="Node000004" class="node">
<title>Node4</title>
<g id="a_Node000004"><a xlink:href="../../d6/d3d/classcarla_1_1geom_1_1MeshFactory.html#a4460bce35a9b41600577c057264db969" target="_top" xlink:title=" ">
<polygon fill="white" stroke="#666666" points="468,-219 338,-219 338,-187 468,-187 468,-219"/>
<text text-anchor="start" x="346" y="-205.5" font-family="Helvetica,sans-Serif" font-size="10.00">carla::geom::MeshFactory</text>
<text text-anchor="middle" x="403" y="-193.5" font-family="Helvetica,sans-Serif" font-size="10.00">::MergeAndSmooth</text>
</a>
</g>
</g>
<!-- Node3&#45;&gt;Node4 -->
<g id="edge3_Node000003_Node000004" class="edge">
<title>Node3&#45;&gt;Node4</title>
<g id="a_edge3_Node000003_Node000004"><a xlink:title=" ">
<path fill="none" stroke="#63b8ff" d="M493.49,-203C484.93,-203 476.42,-203 468.25,-203"/>
<polygon fill="#63b8ff" stroke="#63b8ff" points="493.33,-206.5 503.33,-203 493.33,-199.5 493.33,-206.5"/>
</a>
</g>
</g>
<!-- Node5 -->
<g id="Node000005" class="node">
<title>Node5</title>
<g id="a_Node000005"><a xlink:href="../../d0/d34/classcarla_1_1road_1_1Map.html#ab62e74383d9f1ef5a2b38951ba1d1c94" target="_top" xlink:title=" ">
<polygon fill="white" stroke="#666666" points="289.25,-241 157,-241 157,-209 289.25,-209 289.25,-241"/>
<text text-anchor="start" x="165" y="-227.5" font-family="Helvetica,sans-Serif" font-size="10.00">carla::road::Map::Generate</text>
<text text-anchor="middle" x="223.12" y="-215.5" font-family="Helvetica,sans-Serif" font-size="10.00">ChunkedMesh</text>
</a>
</g>
</g>
<!-- Node4&#45;&gt;Node5 -->
<g id="edge4_Node000004_Node000005" class="edge">
<title>Node4&#45;&gt;Node5</title>
<g id="a_edge4_Node000004_Node000005"><a xlink:title=" ">
<path fill="none" stroke="#63b8ff" d="M326.78,-212.3C314.41,-213.83 301.68,-215.41 289.57,-216.91"/>
<polygon fill="#63b8ff" stroke="#63b8ff" points="327.04,-215.67 336.53,-210.97 326.18,-208.73 327.04,-215.67"/>
</a>
</g>
</g>
<!-- Node6 -->
<g id="Node000006" class="node">
<title>Node6</title>
<g id="a_Node000006"><a xlink:href="../../d0/d34/classcarla_1_1road_1_1Map.html#af8d495dd39272f46df76884d237409e8" target="_top" xlink:title="Buids a mesh based on the OpenDRIVE.">
<polygon fill="white" stroke="#666666" points="301.25,-191 145,-191 145,-171 301.25,-171 301.25,-191"/>
<text text-anchor="middle" x="223.12" y="-177.5" font-family="Helvetica,sans-Serif" font-size="10.00">carla::road::Map::GenerateMesh</text>
</a>
</g>
</g>
<!-- Node4&#45;&gt;Node6 -->
<g id="edge5_Node000004_Node000006" class="edge">
<title>Node4&#45;&gt;Node6</title>
<g id="a_edge5_Node000004_Node000006"><a xlink:title=" ">
<path fill="none" stroke="#63b8ff" d="M326.76,-193.69C318.47,-192.67 310.02,-191.62 301.7,-190.59"/>
<polygon fill="#63b8ff" stroke="#63b8ff" points="326.18,-197.27 336.53,-195.03 327.04,-190.33 326.18,-197.27"/>
</a>
</g>
</g>
<!-- Node8 -->
<g id="Node000008" class="node">
<title>Node8</title>
<g id="a_Node000008"><a xlink:href="../../dc/d04/classcarla_1_1traffic__manager_1_1SimpleWaypoint.html#a9e9a225875409c967b7bf3842aebc259" target="_top" xlink:title="Calculates the distance from the object&#39;s waypoint to the passed location.">
<polygon fill="white" stroke="#666666" points="661.75,-169 524.25,-169 524.25,-137 661.75,-137 661.75,-169"/>
<text text-anchor="start" x="532.25" y="-155.5" font-family="Helvetica,sans-Serif" font-size="10.00">carla::traffic_manager</text>
<text text-anchor="middle" x="593" y="-143.5" font-family="Helvetica,sans-Serif" font-size="10.00">::SimpleWaypoint::Distance</text>
</a>
</g>
</g>
<!-- Node7&#45;&gt;Node8 -->
<g id="edge7_Node000007_Node000008" class="edge">
<title>Node7&#45;&gt;Node8</title>
<g id="a_edge7_Node000007_Node000008"><a xlink:title=" ">
<path fill="none" stroke="#63b8ff" d="M721.64,-128.47C702.5,-132.15 681.5,-136.18 662.15,-139.9"/>
<polygon fill="#63b8ff" stroke="#63b8ff" points="722.21,-131.73 731.37,-126.41 720.88,-124.86 722.21,-131.73"/>
</a>
</g>
</g>
<!-- Node9 -->
<g id="Node000009" class="node">
<title>Node9</title>
<g id="a_Node000009"><a xlink:href="../../dc/d04/classcarla_1_1traffic__manager_1_1SimpleWaypoint.html#a4375a209041eb4ea7a952dced3d4b664" target="_top" xlink:title="Calculates the distance the other SimpleWaypoint object.">
<polygon fill="white" stroke="#666666" points="661.75,-119 524.25,-119 524.25,-87 661.75,-87 661.75,-119"/>
<text text-anchor="start" x="532.25" y="-105.5" font-family="Helvetica,sans-Serif" font-size="10.00">carla::traffic_manager</text>
<text text-anchor="middle" x="593" y="-93.5" font-family="Helvetica,sans-Serif" font-size="10.00">::SimpleWaypoint::Distance</text>
</a>
</g>
</g>
<!-- Node7&#45;&gt;Node9 -->
<g id="edge8_Node000007_Node000009" class="edge">
<title>Node7&#45;&gt;Node9</title>
<g id="a_edge8_Node000007_Node000009"><a xlink:title=" ">
<path fill="none" stroke="#63b8ff" d="M721.64,-111.62C702.5,-110.33 681.5,-108.91 662.15,-107.6"/>
<polygon fill="#63b8ff" stroke="#63b8ff" points="721.15,-115.16 731.37,-112.34 721.62,-108.18 721.15,-115.16"/>
</a>
</g>
</g>
<!-- Node10 -->
<g id="Node000010" class="node">
<title>Node10</title>
<g id="a_Node000010"><a xlink:href="../../dd/df9/classcarla_1_1traffic__manager_1_1MotionPlanStage.html#a7a57d649d96daccb2e2ee9780f24c4ec" target="_top" xlink:title=" ">
<polygon fill="white" stroke="#666666" points="659.5,-69 526.5,-69 526.5,-37 659.5,-37 659.5,-69"/>
<text text-anchor="start" x="534.5" y="-55.5" font-family="Helvetica,sans-Serif" font-size="10.00">carla::traffic_manager</text>
<text text-anchor="middle" x="593" y="-43.5" font-family="Helvetica,sans-Serif" font-size="10.00">::MotionPlanStage::Update</text>
</a>
</g>
</g>
<!-- Node7&#45;&gt;Node10 -->
<g id="edge9_Node000007_Node000010" class="edge">
<title>Node7&#45;&gt;Node10</title>
<g id="a_edge9_Node000007_Node000010"><a xlink:title=" ">
<path fill="none" stroke="#63b8ff" d="M730.94,-95.94C726.31,-94.27 721.7,-92.61 717.25,-91 701.25,-85.22 697.44,-83.23 681.25,-78 672.25,-75.09 662.68,-72.17 653.3,-69.41"/>
<polygon fill="#63b8ff" stroke="#63b8ff" points="729.46,-99.49 740.05,-99.59 731.84,-92.91 729.46,-99.49"/>
</a>
</g>
</g>
<!-- Node11 -->
<g id="Node000011" class="node">
<title>Node11</title>
<g id="a_Node000011"><a xlink:href="../../da/d0f/classcarla_1_1traffic__manager_1_1TrafficManagerLocal.html#a6d67cce3d0e5a48056645270364fe637" target="_top" xlink:title="Initiates thread to run the TrafficManager sequentially.">
<polygon fill="white" stroke="#666666" points="468.75,-69 337.25,-69 337.25,-37 468.75,-37 468.75,-69"/>
<text text-anchor="start" x="345.25" y="-55.5" font-family="Helvetica,sans-Serif" font-size="10.00">carla::traffic_manager</text>
<text text-anchor="middle" x="403" y="-43.5" font-family="Helvetica,sans-Serif" font-size="10.00">::TrafficManagerLocal::Run</text>
</a>
</g>
</g>
<!-- Node10&#45;&gt;Node11 -->
<g id="edge10_Node000010_Node000011" class="edge">
<title>Node10&#45;&gt;Node11</title>
<g id="a_edge10_Node000010_Node000011"><a xlink:title=" ">
<path fill="none" stroke="#63b8ff" d="M515.67,-53C500.22,-53 484.11,-53 469.08,-53"/>
<polygon fill="#63b8ff" stroke="#63b8ff" points="515.25,-56.5 525.25,-53 515.25,-49.5 515.25,-56.5"/>
</a>
</g>
</g>
<!-- Node12 -->
<g id="Node000012" class="node">
<title>Node12</title>
<g id="a_Node000012"><a xlink:href="../../da/d0f/classcarla_1_1traffic__manager_1_1TrafficManagerLocal.html#a1ffbdb0bed64f385437d2820a90286d0" target="_top" xlink:title="To start the TrafficManager.">
<polygon fill="white" stroke="#666666" points="277.62,-75 168.62,-75 168.62,-31 277.62,-31 277.62,-75"/>
<text text-anchor="start" x="176.62" y="-61.5" font-family="Helvetica,sans-Serif" font-size="10.00">carla::traffic_manager</text>
<text text-anchor="start" x="176.62" y="-49.5" font-family="Helvetica,sans-Serif" font-size="10.00">::TrafficManagerLocal</text>
<text text-anchor="middle" x="223.12" y="-37.5" font-family="Helvetica,sans-Serif" font-size="10.00">::Start</text>
</a>
</g>
</g>
<!-- Node11&#45;&gt;Node12 -->
<g id="edge11_Node000011_Node000012" class="edge">
<title>Node11&#45;&gt;Node12</title>
<g id="a_edge11_Node000011_Node000012"><a xlink:title=" ">
<path fill="none" stroke="#63b8ff" d="M326.22,-53C309.99,-53 293.16,-53 277.97,-53"/>
<polygon fill="#63b8ff" stroke="#63b8ff" points="325.78,-56.5 335.78,-53 325.78,-49.5 325.78,-56.5"/>
</a>
</g>
</g>
<!-- Node13 -->
<g id="Node000013" class="node">
<title>Node13</title>
<g id="a_Node000013"><a xlink:href="../../da/d0f/classcarla_1_1traffic__manager_1_1TrafficManagerLocal.html#a1639db97ccf27a801b92fadabd611755" target="_top" xlink:title="To reset the traffic manager.">
<polygon fill="white" stroke="#666666" points="109,-106 0,-106 0,-62 109,-62 109,-106"/>
<text text-anchor="start" x="8" y="-92.5" font-family="Helvetica,sans-Serif" font-size="10.00">carla::traffic_manager</text>
<text text-anchor="start" x="8" y="-80.5" font-family="Helvetica,sans-Serif" font-size="10.00">::TrafficManagerLocal</text>
<text text-anchor="middle" x="54.5" y="-68.5" font-family="Helvetica,sans-Serif" font-size="10.00">::Reset</text>
</a>
</g>
</g>
<!-- Node12&#45;&gt;Node13 -->
<g id="edge12_Node000012_Node000013" class="edge">
<title>Node12&#45;&gt;Node13</title>
<g id="a_edge12_Node000012_Node000013"><a xlink:title=" ">
<path fill="none" stroke="#63b8ff" d="M158.08,-64.92C141.98,-67.91 124.87,-71.09 109.32,-73.99"/>
<polygon fill="#63b8ff" stroke="#63b8ff" points="158.3,-68.25 167.49,-62.98 157.02,-61.37 158.3,-68.25"/>
</a>
</g>
</g>
<!-- Node14 -->
<g id="Node000014" class="node">
<title>Node14</title>
<g id="a_Node000014"><a xlink:href="../../da/d0f/classcarla_1_1traffic__manager_1_1TrafficManagerLocal.html#a75976d36f4213ab24e79e3ea2dcd280a" target="_top" xlink:title="Private constructor for singleton lifecycle management.">
<polygon fill="white" stroke="#666666" points="109,-44 0,-44 0,0 109,0 109,-44"/>
<text text-anchor="start" x="8" y="-30.5" font-family="Helvetica,sans-Serif" font-size="10.00">carla::traffic_manager</text>
<text text-anchor="start" x="8" y="-18.5" font-family="Helvetica,sans-Serif" font-size="10.00">::TrafficManagerLocal</text>
<text text-anchor="middle" x="54.5" y="-6.5" font-family="Helvetica,sans-Serif" font-size="10.00">::TrafficManagerLocal</text>
</a>
</g>
</g>
<!-- Node12&#45;&gt;Node14 -->
<g id="edge13_Node000012_Node000014" class="edge">
<title>Node12&#45;&gt;Node14</title>
<g id="a_edge13_Node000012_Node000014"><a xlink:title=" ">
<path fill="none" stroke="#63b8ff" d="M158.08,-41.08C141.98,-38.09 124.87,-34.91 109.32,-32.01"/>
<polygon fill="#63b8ff" stroke="#63b8ff" points="157.02,-44.63 167.49,-43.02 158.3,-37.75 157.02,-44.63"/>
</a>
</g>
</g>
</g>
</svg>

<g id="navigator" transform="translate(0 0)" fill="#404254">
  <rect fill="#f2f5e9" fill-opacity="0.5" stroke="#606060" stroke-width=".5" x="0" y="0" width="60" height="60"/>
  <use id="zoomplus" xlink:href="#zoomPlus" x="17" y="9" onmousedown="handleZoom(evt,'in')"/>
  <use id="zoomminus" xlink:href="#zoomMin" x="42" y="9" onmousedown="handleZoom(evt,'out')"/>
  <use id="reset" xlink:href="#resetDef" x="30" y="36" onmousedown="handleReset()"/>
   <use id="arrowup" xlink:href="#arrowUp" x="0" y="0" onmousedown="handlePan(0,-1)"/>
  <use id="arrowright" xlink:href="#arrowRight" x="0" y="0" onmousedown="handlePan(1,0)"/>
  <use id="arrowdown" xlink:href="#arrowDown" x="0" y="0" onmousedown="handlePan(0,1)"/>
  <use id="arrowleft" xlink:href="#arrowLeft" x="0" y="0" onmousedown="handlePan(-1,0)"/>
</g>
<svg viewBox="0 0 15 15" width="100%" height="30px" preserveAspectRatio="xMaxYMin meet">
 <g id="arrow_out" transform="scale(0.3 0.3)">
  <a xlink:href="classcarla_1_1geom_1_1Math_adc0c40d67bed1ab82405838c7981aff1_icgraph_org.svg" target="_base">
   <rect id="button" ry="5" rx="5" y="6" x="6" height="38" width="38"
        fill="#f2f5e9" fill-opacity="0.5" stroke="#606060" stroke-width="1.0"/>
   <path id="arrow"
     d="M 11.500037,31.436501 C 11.940474,20.09759 22.043105,11.32322 32.158766,21.979434 L 37.068811,17.246167 C 37.068811,17.246167 37.088388,32 37.088388,32 L 22.160133,31.978069 C 22.160133,31.978069 26.997745,27.140456 26.997745,27.140456 C 18.528582,18.264221 13.291696,25.230495 11.500037,31.436501 z"
     style="fill:#404040;"/>
  </a>
 </g>
</svg>

<style type='text/css'>
<![CDATA[
[data-mouse-over-selected='false'] { opacity: 0.7; }
[data-mouse-over-selected='true']  { opacity: 1.0; }
]]>
</style>
<script type="application/ecmascript"><![CDATA[
document.addEventListener('DOMContentLoaded', (event) => {
  highlightEdges();
  highlightAdjacentNodes();
});
]]></script>
</svg>
