<?xml version="1.0" encoding="UTF-8" standalone="no"?>
<!DOCTYPE svg PUBLIC "-//W3C//DTD SVG 1.1//EN"
 "http://www.w3.org/Graphics/SVG/1.1/DTD/svg11.dtd">
<!-- Generated by graphviz version 8.1.0 (20230707.0739)
 -->
<!-- Title: carla::client::Vehicle::GetWheelSteerAngle Pages: 1 -->
<svg width="588pt" height="106pt"
 viewBox="0.00 0.00 588.00 106.00" xmlns="http://www.w3.org/2000/svg" xmlns:xlink="http://www.w3.org/1999/xlink">
<g id="graph0" class="graph" transform="scale(1 1) rotate(0) translate(4 102)">
<title>carla::client::Vehicle::GetWheelSteerAngle</title>
<!-- Node1 -->
<g id="Node000001" class="node">
<title>Node1</title>
<g id="a_Node000001"><a xlink:title="Return a Rotation from a wheel of the vehicle.">
<polygon fill="#999999" stroke="#666666" points="113.5,-73 0,-73 0,-41 113.5,-41 113.5,-73"/>
<text text-anchor="start" x="8" y="-59.5" font-family="Helvetica,sans-Serif" font-size="10.00">carla::client::Vehicle</text>
<text text-anchor="middle" x="56.75" y="-47.5" font-family="Helvetica,sans-Serif" font-size="10.00">::GetWheelSteerAngle</text>
</a>
</g>
</g>
<!-- Node2 -->
<g id="Node000002" class="node">
<title>Node2</title>
<g id="a_Node000002"><a xlink:href="../../d2/d06/classcarla_1_1client_1_1detail_1_1ActorState.html#a520d5ef7284ded86a1d96a346f3516aa" target="_top" xlink:title=" ">
<polygon fill="white" stroke="#666666" points="276.12,-98 150.62,-98 150.62,-66 276.12,-66 276.12,-98"/>
<text text-anchor="start" x="158.62" y="-84.5" font-family="Helvetica,sans-Serif" font-size="10.00">carla::client::detail</text>
<text text-anchor="middle" x="213.38" y="-72.5" font-family="Helvetica,sans-Serif" font-size="10.00">::ActorState::GetEpisode</text>
</a>
</g>
</g>
<!-- Node1&#45;&gt;Node2 -->
<g id="edge1_Node000001_Node000002" class="edge">
<title>Node1&#45;&gt;Node2</title>
<g id="a_edge1_Node000001_Node000002"><a xlink:title=" ">
<path fill="none" stroke="#63b8ff" d="M113.57,-66.03C122.06,-67.4 130.92,-68.83 139.7,-70.25"/>
<polygon fill="#63b8ff" stroke="#63b8ff" points="138.92,-73.83 149.35,-71.97 140.03,-66.92 138.92,-73.83"/>
</a>
</g>
</g>
<!-- Node3 -->
<g id="Node000003" class="node">
<title>Node3</title>
<g id="a_Node000003"><a xlink:href="../../d1/dd3/classcarla_1_1client_1_1detail_1_1EpisodeProxyImpl.html#aaca857645fbeb6546b4a03a663bb65af" target="_top" xlink:title="Same as TryLock but never return nullptr.">
<polygon fill="white" stroke="#666666" points="277.25,-48 149.5,-48 149.5,-16 277.25,-16 277.25,-48"/>
<text text-anchor="start" x="157.5" y="-34.5" font-family="Helvetica,sans-Serif" font-size="10.00">carla::client::detail</text>
<text text-anchor="middle" x="213.38" y="-22.5" font-family="Helvetica,sans-Serif" font-size="10.00">::EpisodeProxyImpl::Lock</text>
</a>
</g>
</g>
<!-- Node1&#45;&gt;Node3 -->
<g id="edge2_Node000001_Node000003" class="edge">
<title>Node1&#45;&gt;Node3</title>
<g id="a_edge2_Node000001_Node000003"><a xlink:title=" ">
<path fill="none" stroke="#63b8ff" d="M113.57,-47.97C121.57,-46.68 129.91,-45.33 138.19,-43.99"/>
<polygon fill="#63b8ff" stroke="#63b8ff" points="138.71,-47.29 148.02,-42.24 137.59,-40.38 138.71,-47.29"/>
</a>
</g>
</g>
<!-- Node4 -->
<g id="Node000004" class="node">
<title>Node4</title>
<g id="a_Node000004"><a xlink:href="../../d8/dcd/namespacecarla_1_1client_1_1detail.html#aa47f72a521d97fe3574a56e808b509d8" target="_top" xlink:title=" ">
<polygon fill="white" stroke="#666666" points="417.75,-70 322.25,-70 322.25,-38 417.75,-38 417.75,-70"/>
<text text-anchor="start" x="330.25" y="-56.5" font-family="Helvetica,sans-Serif" font-size="10.00">carla::client::detail</text>
<text text-anchor="middle" x="370" y="-44.5" font-family="Helvetica,sans-Serif" font-size="10.00">::Load</text>
</a>
</g>
</g>
<!-- Node3&#45;&gt;Node4 -->
<g id="edge3_Node000003_Node000004" class="edge">
<title>Node3&#45;&gt;Node4</title>
<g id="a_edge3_Node000003_Node000004"><a xlink:title=" ">
<path fill="none" stroke="#63b8ff" d="M277.71,-41.01C288.85,-42.6 300.38,-44.24 311.35,-45.8"/>
<polygon fill="#63b8ff" stroke="#63b8ff" points="310.7,-49.38 321.09,-47.33 311.69,-42.45 310.7,-49.38"/>
</a>
</g>
</g>
<!-- Node6 -->
<g id="Node000006" class="node">
<title>Node6</title>
<g id="a_Node000006"><a xlink:href="../../d9/d36/namespacecarla.html#a23602ab663165210a7757d6108f6b3cd" target="_top" xlink:title=" ">
<polygon fill="white" stroke="#666666" points="426.75,-20 313.25,-20 313.25,0 426.75,0 426.75,-20"/>
<text text-anchor="middle" x="370" y="-6.5" font-family="Helvetica,sans-Serif" font-size="10.00">carla::throw_exception</text>
</a>
</g>
</g>
<!-- Node3&#45;&gt;Node6 -->
<g id="edge5_Node000003_Node000006" class="edge">
<title>Node3&#45;&gt;Node6</title>
<g id="a_edge5_Node000003_Node000006"><a xlink:title=" ">
<path fill="none" stroke="#63b8ff" d="M277.71,-22.99C285.83,-21.83 294.16,-20.65 302.33,-19.49"/>
<polygon fill="#63b8ff" stroke="#63b8ff" points="302.54,-22.85 311.95,-17.98 301.55,-15.92 302.54,-22.85"/>
</a>
</g>
</g>
<!-- Node5 -->
<g id="Node000005" class="node">
<title>Node5</title>
<g id="a_Node000005"><a xlink:href="../../d2/dcf/classcarla_1_1AtomicSharedPtr.html#a7bb0b8af178b36c923fedac384b3aad4" target="_top" xlink:title=" ">
<polygon fill="white" stroke="#666666" points="580,-70 462.75,-70 462.75,-38 580,-38 580,-70"/>
<text text-anchor="start" x="470.75" y="-56.5" font-family="Helvetica,sans-Serif" font-size="10.00">carla::AtomicSharedPtr</text>
<text text-anchor="middle" x="521.38" y="-44.5" font-family="Helvetica,sans-Serif" font-size="10.00">::load</text>
</a>
</g>
</g>
<!-- Node4&#45;&gt;Node5 -->
<g id="edge4_Node000004_Node000005" class="edge">
<title>Node4&#45;&gt;Node5</title>
<g id="a_edge4_Node000004_Node000005"><a xlink:title=" ">
<path fill="none" stroke="#63b8ff" d="M417.85,-54C428.55,-54 440.14,-54 451.54,-54"/>
<polygon fill="#63b8ff" stroke="#63b8ff" points="451.39,-57.5 461.39,-54 451.39,-50.5 451.39,-57.5"/>
</a>
</g>
</g>
</g>
</svg>
