<?xml version="1.0" encoding="UTF-8" standalone="no"?>
<!DOCTYPE svg PUBLIC "-//W3C//DTD SVG 1.1//EN"
 "http://www.w3.org/Graphics/SVG/1.1/DTD/svg11.dtd">
<!-- Generated by graphviz version 8.1.0 (20230707.0739)
 -->
<!-- Title: carla::road::LaneSection::GetLength Pages: 1 -->
<!--zoomable 240 -->

<svg id="main" version="1.1" xmlns="http://www.w3.org/2000/svg" xmlns:xlink="http://www.w3.org/1999/xlink" xml:space="preserve" onload="init(evt)">
<style type="text/css"><![CDATA[
.node, .edge {opacity: 0.7;}
.node.selected, .edge.selected {opacity: 1;}
.edge:hover path { stroke: red; }
.edge:hover polygon { stroke: red; fill: red; }
]]></style>

<defs>
  <circle id="rim" cx="0" cy="0" r="7"/>
  <circle id="rim2" cx="0" cy="0" r="3.5"/>
  <g id="zoomPlus">
    <use xlink:href="#rim" fill="#404040"><set attributeName="fill" to="#808080" begin="zoomplus.mouseover" end="zoomplus.mouseout"/></use>
    <path d="M-4,0h8M0,-4v8" fill="none" stroke="white" stroke-width="1.5" pointer-events="none"/>
  </g>
  <g id="zoomMin">
    <use xlink:href="#rim" fill="#404040"><set attributeName="fill" to="#808080" begin="zoomminus.mouseover" end="zoomminus.mouseout"/></use>
    <path d="M-4,0h8" fill="none" stroke="white" stroke-width="1.5" pointer-events="none"/>
  </g>
  <g id="arrowUp" transform="translate(30 24)">
    <use xlink:href="#rim"/>
    <path pointer-events="none" fill="none" stroke="white" stroke-width="1.5" d="M0,-3.0v7 M-2.5,-0.5L0,-3.0L2.5,-0.5"/>
  </g>
  <g id="arrowRight" transform="rotate(90) translate(36 -43)">
    <use xlink:href="#rim"/>
    <path pointer-events="none" fill="none" stroke="white" stroke-width="1.5" d="M0,-3.0v7 M-2.5,-0.5L0,-3.0L2.5,-0.5"/>
  </g>
  <g id="arrowDown" transform="rotate(180) translate(-30 -48)">
    <use xlink:href="#rim"/>
    <path pointer-events="none" fill="none" stroke="white" stroke-width="1.5" d="M0,-3.0v7 M-2.5,-0.5L0,-3.0L2.5,-0.5"/>
  </g>
  <g id="arrowLeft" transform="rotate(270) translate(-36 17)">
    <use xlink:href="#rim"/>
    <path pointer-events="none" fill="none" stroke="white" stroke-width="1.5" d="M0,-3.0v7 M-2.5,-0.5L0,-3.0L2.5,-0.5"/>
  </g>
  <g id="resetDef">
    <use xlink:href="#rim2" fill="#404040"><set attributeName="fill" to="#808080" begin="reset.mouseover" end="reset.mouseout"/></use>
  </g>
</defs>
<script type="application/ecmascript">
var viewWidth = 697;
var viewHeight = 240;
var sectionId = 'dynsection-8';
</script>
<script type="application/ecmascript" xlink:href="../../svg.min.js"/>
<svg id="graph" class="graph">
<g id="viewport">
<title>carla::road::LaneSection::GetLength</title>
<!-- Node1 -->
<g id="Node000001" class="node">
<title>Node1</title>
<g id="a_Node000001"><a xlink:title=" ">
<polygon fill="#999999" stroke="#666666" points="688.75,-132 567,-132 567,-100 688.75,-100 688.75,-132"/>
<text text-anchor="start" x="575" y="-118.5" font-family="Helvetica,sans-Serif" font-size="10.00">carla::road::LaneSection</text>
<text text-anchor="middle" x="627.88" y="-106.5" font-family="Helvetica,sans-Serif" font-size="10.00">::GetLength</text>
</a>
</g>
</g>
<!-- Node2 -->
<g id="Node000002" class="node">
<title>Node2</title>
<g id="a_Node000002"><a xlink:href="../../d6/d3d/classcarla_1_1geom_1_1MeshFactory.html#a5744e75d34e0a3514892d4a9b7906652" target="_top" xlink:title=" ">
<polygon fill="white" stroke="#666666" points="523.5,-232 353,-232 353,-200 523.5,-200 523.5,-232"/>
<text text-anchor="start" x="361" y="-218.5" font-family="Helvetica,sans-Serif" font-size="10.00">carla::geom::MeshFactory</text>
<text text-anchor="middle" x="438.25" y="-206.5" font-family="Helvetica,sans-Serif" font-size="10.00">::GenerateLaneMarksForCenterLine</text>
</a>
</g>
</g>
<!-- Node1&#45;&gt;Node2 -->
<g id="edge1_Node000001_Node000002" class="edge">
<title>Node1&#45;&gt;Node2</title>
<g id="a_edge1_Node000001_Node000002"><a xlink:title=" ">
<path fill="none" stroke="#63b8ff" d="M602.48,-139.6C584.15,-156.14 557.7,-177.61 531,-191 524.51,-194.26 517.54,-197.13 510.44,-199.66"/>
<polygon fill="#63b8ff" stroke="#63b8ff" points="604.32,-142.74 609.3,-133.39 599.57,-137.59 604.32,-142.74"/>
</a>
</g>
</g>
<!-- Node5 -->
<g id="Node000005" class="node">
<title>Node5</title>
<g id="a_Node000005"><a xlink:href="../../d6/d3d/classcarla_1_1geom_1_1MeshFactory.html#aad2ea408b3032e959e384431becd860b" target="_top" xlink:title=" ">
<polygon fill="white" stroke="#666666" points="531,-182 345.5,-182 345.5,-150 531,-150 531,-182"/>
<text text-anchor="start" x="353.5" y="-168.5" font-family="Helvetica,sans-Serif" font-size="10.00">carla::geom::MeshFactory</text>
<text text-anchor="middle" x="438.25" y="-156.5" font-family="Helvetica,sans-Serif" font-size="10.00">::GenerateLaneMarksForNotCenterLine</text>
</a>
</g>
</g>
<!-- Node1&#45;&gt;Node5 -->
<g id="edge4_Node000001_Node000005" class="edge">
<title>Node1&#45;&gt;Node5</title>
<g id="a_edge4_Node000001_Node000005"><a xlink:title=" ">
<path fill="none" stroke="#63b8ff" d="M556.21,-134.83C538.05,-139.67 518.65,-144.84 500.98,-149.55"/>
<polygon fill="#63b8ff" stroke="#63b8ff" points="556.97,-137.98 565.74,-132.03 555.17,-131.22 556.97,-137.98"/>
</a>
</g>
</g>
<!-- Node6 -->
<g id="Node000006" class="node">
<title>Node6</title>
<g id="a_Node000006"><a xlink:href="../../d6/d3d/classcarla_1_1geom_1_1MeshFactory.html#acce620f6e7432999236d4dd2c7900e24" target="_top" xlink:title="Generates a list of meshes that defines a lane_section with a maximum length">
<polygon fill="white" stroke="#666666" points="513.75,-132 362.75,-132 362.75,-100 513.75,-100 513.75,-132"/>
<text text-anchor="start" x="370.75" y="-118.5" font-family="Helvetica,sans-Serif" font-size="10.00">carla::geom::MeshFactory</text>
<text text-anchor="middle" x="438.25" y="-106.5" font-family="Helvetica,sans-Serif" font-size="10.00">::GenerateOrderedWithMaxLen</text>
</a>
</g>
</g>
<!-- Node1&#45;&gt;Node6 -->
<g id="edge6_Node000001_Node000006" class="edge">
<title>Node1&#45;&gt;Node6</title>
<g id="a_edge6_Node000001_Node000006"><a xlink:title=" ">
<path fill="none" stroke="#63b8ff" d="M555.96,-116C542.31,-116 527.96,-116 514.19,-116"/>
<polygon fill="#63b8ff" stroke="#63b8ff" points="555.74,-119.5 565.74,-116 555.74,-112.5 555.74,-119.5"/>
</a>
</g>
</g>
<!-- Node7 -->
<g id="Node000007" class="node">
<title>Node7</title>
<g id="a_Node000007"><a xlink:href="../../d6/d3d/classcarla_1_1geom_1_1MeshFactory.html#a5588f2f98ea42ade1082db0ef1c8ce7b" target="_top" xlink:title="Generates a list of meshes that defines a lane_section safety wall with a maximum length">
<polygon fill="white" stroke="#666666" points="508.88,-82 367.62,-82 367.62,-50 508.88,-50 508.88,-82"/>
<text text-anchor="start" x="375.62" y="-68.5" font-family="Helvetica,sans-Serif" font-size="10.00">carla::geom::MeshFactory</text>
<text text-anchor="middle" x="438.25" y="-56.5" font-family="Helvetica,sans-Serif" font-size="10.00">::GenerateWallsWithMaxLen</text>
</a>
</g>
</g>
<!-- Node1&#45;&gt;Node7 -->
<g id="edge7_Node000001_Node000007" class="edge">
<title>Node1&#45;&gt;Node7</title>
<g id="a_edge7_Node000001_Node000007"><a xlink:title=" ">
<path fill="none" stroke="#63b8ff" d="M556.21,-97.17C538.05,-92.33 518.65,-87.16 500.98,-82.45"/>
<polygon fill="#63b8ff" stroke="#63b8ff" points="555.17,-100.78 565.74,-99.97 556.97,-94.02 555.17,-100.78"/>
</a>
</g>
</g>
<!-- Node8 -->
<g id="Node000008" class="node">
<title>Node8</title>
<g id="a_Node000008"><a xlink:href="../../d6/d3d/classcarla_1_1geom_1_1MeshFactory.html#a4f08d64f46acd0e8a4e0ff9f2c20dde2" target="_top" xlink:title="Generates a list of meshes that defines a lane_section with a maximum length">
<polygon fill="white" stroke="#666666" points="503.25,-32 373.25,-32 373.25,0 503.25,0 503.25,-32"/>
<text text-anchor="start" x="381.25" y="-18.5" font-family="Helvetica,sans-Serif" font-size="10.00">carla::geom::MeshFactory</text>
<text text-anchor="middle" x="438.25" y="-6.5" font-family="Helvetica,sans-Serif" font-size="10.00">::GenerateWithMaxLen</text>
</a>
</g>
</g>
<!-- Node1&#45;&gt;Node8 -->
<g id="edge8_Node000001_Node000008" class="edge">
<title>Node1&#45;&gt;Node8</title>
<g id="a_edge8_Node000001_Node000008"><a xlink:title=" ">
<path fill="none" stroke="#63b8ff" d="M602.48,-92.4C584.15,-75.86 557.7,-54.39 531,-41 522.44,-36.71 513.05,-33.08 503.64,-30.03"/>
<polygon fill="#63b8ff" stroke="#63b8ff" points="599.57,-94.41 609.3,-98.61 604.32,-89.26 599.57,-94.41"/>
</a>
</g>
</g>
<!-- Node3 -->
<g id="Node000003" class="node">
<title>Node3</title>
<g id="a_Node000003"><a xlink:href="../../d6/d3d/classcarla_1_1geom_1_1MeshFactory.html#a6228f1a0673c73589a0816085fbc2900" target="_top" xlink:title=" ">
<polygon fill="white" stroke="#666666" points="309.5,-207 168.25,-207 168.25,-175 309.5,-175 309.5,-207"/>
<text text-anchor="start" x="176.25" y="-193.5" font-family="Helvetica,sans-Serif" font-size="10.00">carla::geom::MeshFactory</text>
<text text-anchor="middle" x="238.88" y="-181.5" font-family="Helvetica,sans-Serif" font-size="10.00">::GenerateLaneMarkForRoad</text>
</a>
</g>
</g>
<!-- Node2&#45;&gt;Node3 -->
<g id="edge2_Node000002_Node000003" class="edge">
<title>Node2&#45;&gt;Node3</title>
<g id="a_edge2_Node000002_Node000003"><a xlink:title=" ">
<path fill="none" stroke="#63b8ff" d="M341.88,-203.92C331.03,-202.55 320.14,-201.17 309.71,-199.85"/>
<polygon fill="#63b8ff" stroke="#63b8ff" points="341.33,-207.5 351.69,-205.29 342.21,-200.56 341.33,-207.5"/>
</a>
</g>
</g>
<!-- Node4 -->
<g id="Node000004" class="node">
<title>Node4</title>
<g id="a_Node000004"><a xlink:href="../../d0/d34/classcarla_1_1road_1_1Map.html#ad84d5990ccd301600bdf6863ed04dcdd" target="_top" xlink:title="Buids a list of meshes related with LineMarkings">
<polygon fill="white" stroke="#666666" points="132.25,-207 0,-207 0,-175 132.25,-175 132.25,-207"/>
<text text-anchor="start" x="8" y="-193.5" font-family="Helvetica,sans-Serif" font-size="10.00">carla::road::Map::Generate</text>
<text text-anchor="middle" x="66.12" y="-181.5" font-family="Helvetica,sans-Serif" font-size="10.00">LineMarkings</text>
</a>
</g>
</g>
<!-- Node3&#45;&gt;Node4 -->
<g id="edge3_Node000003_Node000004" class="edge">
<title>Node3&#45;&gt;Node4</title>
<g id="a_edge3_Node000003_Node000004"><a xlink:title=" ">
<path fill="none" stroke="#63b8ff" d="M157.15,-191C148.91,-191 140.61,-191 132.56,-191"/>
<polygon fill="#63b8ff" stroke="#63b8ff" points="156.93,-194.5 166.93,-191 156.93,-187.5 156.93,-194.5"/>
</a>
</g>
</g>
<!-- Node5&#45;&gt;Node3 -->
<g id="edge5_Node000005_Node000003" class="edge">
<title>Node5&#45;&gt;Node3</title>
<g id="a_edge5_Node000005_Node000003"><a xlink:title=" ">
<path fill="none" stroke="#63b8ff" d="M334.35,-179.03C326.1,-180.08 317.88,-181.12 309.93,-182.13"/>
<polygon fill="#63b8ff" stroke="#63b8ff" points="334.73,-182.39 344.21,-177.66 333.85,-175.44 334.73,-182.39"/>
</a>
</g>
</g>
</g>
</svg>

<g id="navigator" transform="translate(0 0)" fill="#404254">
  <rect fill="#f2f5e9" fill-opacity="0.5" stroke="#606060" stroke-width=".5" x="0" y="0" width="60" height="60"/>
  <use id="zoomplus" xlink:href="#zoomPlus" x="17" y="9" onmousedown="handleZoom(evt,'in')"/>
  <use id="zoomminus" xlink:href="#zoomMin" x="42" y="9" onmousedown="handleZoom(evt,'out')"/>
  <use id="reset" xlink:href="#resetDef" x="30" y="36" onmousedown="handleReset()"/>
   <use id="arrowup" xlink:href="#arrowUp" x="0" y="0" onmousedown="handlePan(0,-1)"/>
  <use id="arrowright" xlink:href="#arrowRight" x="0" y="0" onmousedown="handlePan(1,0)"/>
  <use id="arrowdown" xlink:href="#arrowDown" x="0" y="0" onmousedown="handlePan(0,1)"/>
  <use id="arrowleft" xlink:href="#arrowLeft" x="0" y="0" onmousedown="handlePan(-1,0)"/>
</g>
<svg viewBox="0 0 15 15" width="100%" height="30px" preserveAspectRatio="xMaxYMin meet">
 <g id="arrow_out" transform="scale(0.3 0.3)">
  <a xlink:href="classcarla_1_1road_1_1LaneSection_a059dcb478641cd498e3d213feb7e000d_icgraph_org.svg" target="_base">
   <rect id="button" ry="5" rx="5" y="6" x="6" height="38" width="38"
        fill="#f2f5e9" fill-opacity="0.5" stroke="#606060" stroke-width="1.0"/>
   <path id="arrow"
     d="M 11.500037,31.436501 C 11.940474,20.09759 22.043105,11.32322 32.158766,21.979434 L 37.068811,17.246167 C 37.068811,17.246167 37.088388,32 37.088388,32 L 22.160133,31.978069 C 22.160133,31.978069 26.997745,27.140456 26.997745,27.140456 C 18.528582,18.264221 13.291696,25.230495 11.500037,31.436501 z"
     style="fill:#404040;"/>
  </a>
 </g>
</svg>

<style type='text/css'>
<![CDATA[
[data-mouse-over-selected='false'] { opacity: 0.7; }
[data-mouse-over-selected='true']  { opacity: 1.0; }
]]>
</style>
<script type="application/ecmascript"><![CDATA[
document.addEventListener('DOMContentLoaded', (event) => {
  highlightEdges();
  highlightAdjacentNodes();
});
]]></script>
</svg>
