<?xml version="1.0" encoding="UTF-8" standalone="no"?>
<!DOCTYPE svg PUBLIC "-//W3C//DTD SVG 1.1//EN"
 "http://www.w3.org/Graphics/SVG/1.1/DTD/svg11.dtd">
<!-- Generated by graphviz version 8.1.0 (20230707.0739)
 -->
<!-- Title: geometry_msgs::msg::TransformStamped::getCdrSerializedSize Pages: 1 -->
<svg width="518pt" height="364pt"
 viewBox="0.00 0.00 518.00 364.00" xmlns="http://www.w3.org/2000/svg" xmlns:xlink="http://www.w3.org/1999/xlink">
<g id="graph0" class="graph" transform="scale(1 1) rotate(0) translate(4 360)">
<title>geometry_msgs::msg::TransformStamped::getCdrSerializedSize</title>
<!-- Node1 -->
<g id="Node000001" class="node">
<title>Node1</title>
<g id="a_Node000001"><a xlink:title="This function returns the serialized size of a data depending on the buffer alignment.">
<polygon fill="#999999" stroke="#666666" points="110.5,-162 0,-162 0,-118 110.5,-118 110.5,-162"/>
<text text-anchor="start" x="8" y="-148.5" font-family="Helvetica,sans-Serif" font-size="10.00">geometry_msgs::msg</text>
<text text-anchor="start" x="8" y="-136.5" font-family="Helvetica,sans-Serif" font-size="10.00">::TransformStamped::</text>
<text text-anchor="middle" x="55.25" y="-124.5" font-family="Helvetica,sans-Serif" font-size="10.00">getCdrSerializedSize</text>
</a>
</g>
</g>
<!-- Node2 -->
<g id="Node000002" class="node">
<title>Node2</title>
<g id="a_Node000002"><a xlink:href="../../dc/d01/classgeometry__msgs_1_1msg_1_1TransformStamped.html#aaabafeeb5083f4525db1dc6d37e6c065" target="_top" xlink:title="This function copies the value in member child_frame_id.">
<polygon fill="white" stroke="#666666" points="282.5,-293 172,-293 172,-249 282.5,-249 282.5,-293"/>
<text text-anchor="start" x="180" y="-279.5" font-family="Helvetica,sans-Serif" font-size="10.00">geometry_msgs::msg</text>
<text text-anchor="start" x="180" y="-267.5" font-family="Helvetica,sans-Serif" font-size="10.00">::TransformStamped::</text>
<text text-anchor="middle" x="227.25" y="-255.5" font-family="Helvetica,sans-Serif" font-size="10.00">child_frame_id</text>
</a>
</g>
</g>
<!-- Node1&#45;&gt;Node2 -->
<g id="edge1_Node000001_Node000002" class="edge">
<title>Node1&#45;&gt;Node2</title>
<g id="a_edge1_Node000001_Node000002"><a xlink:title=" ">
<path fill="none" stroke="#63b8ff" d="M71.51,-162.26C87.8,-184.58 115.5,-218.63 146.5,-240 151.32,-243.32 156.54,-246.35 161.92,-249.11"/>
<polygon fill="#63b8ff" stroke="#63b8ff" points="160.21,-252.64 170.75,-253.77 163.21,-246.32 160.21,-252.64"/>
</a>
</g>
</g>
<!-- Node3 -->
<g id="Node000003" class="node">
<title>Node3</title>
<g id="a_Node000003"><a xlink:href="../../d6/d5a/classgeometry__msgs_1_1msg_1_1Transform.html#a2c265f59d89d3b05d617dc948d9c19b9" target="_top" xlink:title="This function returns the serialized size of a data depending on the buffer alignment.">
<polygon fill="white" stroke="#666666" points="308,-231 146.5,-231 146.5,-199 308,-199 308,-231"/>
<text text-anchor="start" x="154.5" y="-217.5" font-family="Helvetica,sans-Serif" font-size="10.00">geometry_msgs::msg</text>
<text text-anchor="middle" x="227.25" y="-205.5" font-family="Helvetica,sans-Serif" font-size="10.00">::Transform::getCdrSerializedSize</text>
</a>
</g>
</g>
<!-- Node1&#45;&gt;Node3 -->
<g id="edge2_Node000001_Node000003" class="edge">
<title>Node1&#45;&gt;Node3</title>
<g id="a_edge2_Node000001_Node000003"><a xlink:title=" ">
<path fill="none" stroke="#63b8ff" d="M106.8,-162.3C129.63,-172.37 156.45,-184.21 178.89,-194.11"/>
<polygon fill="#63b8ff" stroke="#63b8ff" points="177.3,-197.67 187.86,-198.5 180.12,-191.27 177.3,-197.67"/>
</a>
</g>
</g>
<!-- Node8 -->
<g id="Node000008" class="node">
<title>Node8</title>
<g id="a_Node000008"><a xlink:href="../../d8/d15/classstd__msgs_1_1msg_1_1Header.html#ae439639025ac66880a861f521fd84016" target="_top" xlink:title="This function returns the serialized size of a data depending on the buffer alignment.">
<polygon fill="white" stroke="#666666" points="287.38,-156 167.12,-156 167.12,-124 287.38,-124 287.38,-156"/>
<text text-anchor="start" x="175.12" y="-142.5" font-family="Helvetica,sans-Serif" font-size="10.00">std_msgs::msg::Header</text>
<text text-anchor="middle" x="227.25" y="-130.5" font-family="Helvetica,sans-Serif" font-size="10.00">::getCdrSerializedSize</text>
</a>
</g>
</g>
<!-- Node1&#45;&gt;Node8 -->
<g id="edge7_Node000001_Node000008" class="edge">
<title>Node1&#45;&gt;Node8</title>
<g id="a_edge7_Node000001_Node000008"><a xlink:title=" ">
<path fill="none" stroke="#63b8ff" d="M110.97,-140C125.27,-140 140.88,-140 155.86,-140"/>
<polygon fill="#63b8ff" stroke="#63b8ff" points="155.63,-143.5 165.63,-140 155.63,-136.5 155.63,-143.5"/>
</a>
</g>
</g>
<!-- Node12 -->
<g id="Node000012" class="node">
<title>Node12</title>
<g id="a_Node000012"><a xlink:href="../../dc/d01/classgeometry__msgs_1_1msg_1_1TransformStamped.html#abf590cca246791b55267967051efc7a4" target="_top" xlink:title="This function copies the value in member header.">
<polygon fill="white" stroke="#666666" points="282.5,-106 172,-106 172,-62 282.5,-62 282.5,-106"/>
<text text-anchor="start" x="180" y="-92.5" font-family="Helvetica,sans-Serif" font-size="10.00">geometry_msgs::msg</text>
<text text-anchor="start" x="180" y="-80.5" font-family="Helvetica,sans-Serif" font-size="10.00">::TransformStamped::</text>
<text text-anchor="middle" x="227.25" y="-68.5" font-family="Helvetica,sans-Serif" font-size="10.00">header</text>
</a>
</g>
</g>
<!-- Node1&#45;&gt;Node12 -->
<g id="edge11_Node000001_Node000012" class="edge">
<title>Node1&#45;&gt;Node12</title>
<g id="a_edge11_Node000001_Node000012"><a xlink:title=" ">
<path fill="none" stroke="#63b8ff" d="M110.97,-121.97C127.05,-116.68 144.79,-110.83 161.43,-105.35"/>
<polygon fill="#63b8ff" stroke="#63b8ff" points="162.22,-108.45 170.63,-101.99 160.03,-101.8 162.22,-108.45"/>
</a>
</g>
</g>
<!-- Node13 -->
<g id="Node000013" class="node">
<title>Node13</title>
<g id="a_Node000013"><a xlink:href="../../dc/d01/classgeometry__msgs_1_1msg_1_1TransformStamped.html#a79a685ff268b47b2a1a8f04b4dfc8da2" target="_top" xlink:title="This function copies the value in member transform.">
<polygon fill="white" stroke="#666666" points="282.5,-44 172,-44 172,0 282.5,0 282.5,-44"/>
<text text-anchor="start" x="180" y="-30.5" font-family="Helvetica,sans-Serif" font-size="10.00">geometry_msgs::msg</text>
<text text-anchor="start" x="180" y="-18.5" font-family="Helvetica,sans-Serif" font-size="10.00">::TransformStamped::</text>
<text text-anchor="middle" x="227.25" y="-6.5" font-family="Helvetica,sans-Serif" font-size="10.00">transform</text>
</a>
</g>
</g>
<!-- Node1&#45;&gt;Node13 -->
<g id="edge12_Node000001_Node000013" class="edge">
<title>Node1&#45;&gt;Node13</title>
<g id="a_edge12_Node000001_Node000013"><a xlink:title=" ">
<path fill="none" stroke="#63b8ff" d="M74.7,-117.79C91.69,-98.51 118.45,-70.94 146.5,-53 151.35,-49.9 156.56,-47.03 161.91,-44.38"/>
<polygon fill="#63b8ff" stroke="#63b8ff" points="163.03,-47.26 170.64,-39.88 160.09,-40.91 163.03,-47.26"/>
</a>
</g>
</g>
<!-- Node4 -->
<g id="Node000004" class="node">
<title>Node4</title>
<g id="a_Node000004"><a xlink:href="../../d5/de9/classgeometry__msgs_1_1msg_1_1Quaternion.html#a42b051b07b2e83df416c8ebfc76a306c" target="_top" xlink:title="This function returns the serialized size of a data depending on the buffer alignment.">
<polygon fill="white" stroke="#666666" points="510,-356 344,-356 344,-324 510,-324 510,-356"/>
<text text-anchor="start" x="352" y="-342.5" font-family="Helvetica,sans-Serif" font-size="10.00">geometry_msgs::msg</text>
<text text-anchor="middle" x="427" y="-330.5" font-family="Helvetica,sans-Serif" font-size="10.00">::Quaternion::getCdrSerializedSize</text>
</a>
</g>
</g>
<!-- Node3&#45;&gt;Node4 -->
<g id="edge3_Node000003_Node000004" class="edge">
<title>Node3&#45;&gt;Node4</title>
<g id="a_edge3_Node000003_Node000004"><a xlink:title=" ">
<path fill="none" stroke="#63b8ff" d="M295.35,-231.29C299.88,-233.79 304.16,-236.68 308,-240 335.95,-264.2 315.95,-290.91 344,-315 345.2,-316.03 346.44,-317.02 347.72,-317.97"/>
<polygon fill="#63b8ff" stroke="#63b8ff" points="345.3,-321.21 355.62,-323.64 349.07,-315.31 345.3,-321.21"/>
</a>
</g>
</g>
<!-- Node5 -->
<g id="Node000005" class="node">
<title>Node5</title>
<g id="a_Node000005"><a xlink:href="../../df/d66/classgeometry__msgs_1_1msg_1_1Vector3.html#a3f4f6b078e23dd8bbd3a400a1c8a6209" target="_top" xlink:title="This function returns the serialized size of a data depending on the buffer alignment.">
<polygon fill="white" stroke="#666666" points="503.25,-306 350.75,-306 350.75,-274 503.25,-274 503.25,-306"/>
<text text-anchor="start" x="358.75" y="-292.5" font-family="Helvetica,sans-Serif" font-size="10.00">geometry_msgs::msg</text>
<text text-anchor="middle" x="427" y="-280.5" font-family="Helvetica,sans-Serif" font-size="10.00">::Vector3::getCdrSerializedSize</text>
</a>
</g>
</g>
<!-- Node3&#45;&gt;Node5 -->
<g id="edge4_Node000003_Node000005" class="edge">
<title>Node3&#45;&gt;Node5</title>
<g id="a_edge4_Node000003_Node000005"><a xlink:title=" ">
<path fill="none" stroke="#63b8ff" d="M287.83,-231.47C294.75,-234.03 301.61,-236.87 308,-240 325.49,-248.57 326.47,-256.5 344,-265 347.38,-266.64 350.9,-268.2 354.48,-269.68"/>
<polygon fill="#63b8ff" stroke="#63b8ff" points="353.14,-273.3 363.73,-273.64 355.67,-266.77 353.14,-273.3"/>
</a>
</g>
</g>
<!-- Node6 -->
<g id="Node000006" class="node">
<title>Node6</title>
<g id="a_Node000006"><a xlink:href="../../d6/d5a/classgeometry__msgs_1_1msg_1_1Transform.html#a9a1459664ad7860be84baf60265516bc" target="_top" xlink:title="This function copies the value in member rotation.">
<polygon fill="white" stroke="#666666" points="482.25,-256 371.75,-256 371.75,-224 482.25,-224 482.25,-256"/>
<text text-anchor="start" x="379.75" y="-242.5" font-family="Helvetica,sans-Serif" font-size="10.00">geometry_msgs::msg</text>
<text text-anchor="middle" x="427" y="-230.5" font-family="Helvetica,sans-Serif" font-size="10.00">::Transform::rotation</text>
</a>
</g>
</g>
<!-- Node3&#45;&gt;Node6 -->
<g id="edge5_Node000003_Node000006" class="edge">
<title>Node3&#45;&gt;Node6</title>
<g id="a_edge5_Node000003_Node000006"><a xlink:title=" ">
<path fill="none" stroke="#63b8ff" d="M308.4,-225.13C325.79,-227.33 343.98,-229.63 360.71,-231.75"/>
<polygon fill="#63b8ff" stroke="#63b8ff" points="360.12,-235.33 370.48,-233.11 360.99,-228.38 360.12,-235.33"/>
</a>
</g>
</g>
<!-- Node7 -->
<g id="Node000007" class="node">
<title>Node7</title>
<g id="a_Node000007"><a xlink:href="../../d6/d5a/classgeometry__msgs_1_1msg_1_1Transform.html#a6edb54feae3a094afdb701e1fd3c1fd1" target="_top" xlink:title="This function copies the value in member translation.">
<polygon fill="white" stroke="#666666" points="484.88,-206 369.12,-206 369.12,-174 484.88,-174 484.88,-206"/>
<text text-anchor="start" x="377.12" y="-192.5" font-family="Helvetica,sans-Serif" font-size="10.00">geometry_msgs::msg</text>
<text text-anchor="middle" x="427" y="-180.5" font-family="Helvetica,sans-Serif" font-size="10.00">::Transform::translation</text>
</a>
</g>
</g>
<!-- Node3&#45;&gt;Node7 -->
<g id="edge6_Node000003_Node000007" class="edge">
<title>Node3&#45;&gt;Node7</title>
<g id="a_edge6_Node000003_Node000007"><a xlink:title=" ">
<path fill="none" stroke="#63b8ff" d="M308.4,-204.87C324.84,-202.79 342,-200.62 357.96,-198.6"/>
<polygon fill="#63b8ff" stroke="#63b8ff" points="358.32,-201.96 367.8,-197.23 357.44,-195.01 358.32,-201.96"/>
</a>
</g>
</g>
<!-- Node9 -->
<g id="Node000009" class="node">
<title>Node9</title>
<g id="a_Node000009"><a xlink:href="../../d8/d15/classstd__msgs_1_1msg_1_1Header.html#a9bd973b4690fefb807fb231f496831d4" target="_top" xlink:title="This function copies the value in member frame_id.">
<polygon fill="white" stroke="#666666" points="487.12,-156 366.88,-156 366.88,-124 487.12,-124 487.12,-156"/>
<text text-anchor="start" x="374.88" y="-142.5" font-family="Helvetica,sans-Serif" font-size="10.00">std_msgs::msg::Header</text>
<text text-anchor="middle" x="427" y="-130.5" font-family="Helvetica,sans-Serif" font-size="10.00">::frame_id</text>
</a>
</g>
</g>
<!-- Node8&#45;&gt;Node9 -->
<g id="edge8_Node000008_Node000009" class="edge">
<title>Node8&#45;&gt;Node9</title>
<g id="a_edge8_Node000008_Node000009"><a xlink:title=" ">
<path fill="none" stroke="#63b8ff" d="M287.85,-140C309.25,-140 333.59,-140 355.81,-140"/>
<polygon fill="#63b8ff" stroke="#63b8ff" points="355.52,-143.5 365.52,-140 355.52,-136.5 355.52,-143.5"/>
</a>
</g>
</g>
<!-- Node10 -->
<g id="Node000010" class="node">
<title>Node10</title>
<g id="a_Node000010"><a xlink:href="../../da/d39/classbuiltin__interfaces_1_1msg_1_1Time.html#abdf1cc0285c53ceeb6c4eae36acd3c0f" target="_top" xlink:title="This function returns the serialized size of a data depending on the buffer alignment.">
<polygon fill="white" stroke="#666666" points="509.25,-106 344.75,-106 344.75,-74 509.25,-74 509.25,-106"/>
<text text-anchor="start" x="352.75" y="-92.5" font-family="Helvetica,sans-Serif" font-size="10.00">builtin_interfaces</text>
<text text-anchor="middle" x="427" y="-80.5" font-family="Helvetica,sans-Serif" font-size="10.00">::msg::Time::getCdrSerializedSize</text>
</a>
</g>
</g>
<!-- Node8&#45;&gt;Node10 -->
<g id="edge9_Node000008_Node000010" class="edge">
<title>Node8&#45;&gt;Node10</title>
<g id="a_edge9_Node000008_Node000010"><a xlink:title=" ">
<path fill="none" stroke="#63b8ff" d="M287.85,-124.93C307.6,-119.94 329.84,-114.31 350.62,-109.06"/>
<polygon fill="#63b8ff" stroke="#63b8ff" points="351.17,-112.28 360.01,-106.43 349.45,-105.49 351.17,-112.28"/>
</a>
</g>
</g>
<!-- Node11 -->
<g id="Node000011" class="node">
<title>Node11</title>
<g id="a_Node000011"><a xlink:href="../../d8/d15/classstd__msgs_1_1msg_1_1Header.html#a2ac0c277be6d5edc09d17126767290c9" target="_top" xlink:title="This function copies the value in member stamp.">
<polygon fill="white" stroke="#666666" points="487.12,-56 366.88,-56 366.88,-24 487.12,-24 487.12,-56"/>
<text text-anchor="start" x="374.88" y="-42.5" font-family="Helvetica,sans-Serif" font-size="10.00">std_msgs::msg::Header</text>
<text text-anchor="middle" x="427" y="-30.5" font-family="Helvetica,sans-Serif" font-size="10.00">::stamp</text>
</a>
</g>
</g>
<!-- Node8&#45;&gt;Node11 -->
<g id="edge10_Node000008_Node000011" class="edge">
<title>Node8&#45;&gt;Node11</title>
<g id="a_edge10_Node000008_Node000011"><a xlink:title=" ">
<path fill="none" stroke="#63b8ff" d="M287.81,-126.09C294.96,-123.07 301.88,-119.42 308,-115 330.2,-98.97 321.74,-80.94 344,-65 347.92,-62.2 352.16,-59.7 356.57,-57.48"/>
<polygon fill="#63b8ff" stroke="#63b8ff" points="357.77,-60.33 365.46,-53.05 354.91,-53.94 357.77,-60.33"/>
</a>
</g>
</g>
</g>
</svg>
