<?xml version="1.0" encoding="UTF-8" standalone="no"?>
<!DOCTYPE svg PUBLIC "-//W3C//DTD SVG 1.1//EN"
 "http://www.w3.org/Graphics/SVG/1.1/DTD/svg11.dtd">
<!-- Generated by graphviz version 8.1.0 (20230707.0739)
 -->
<!-- Title: sensor_msgs::msg::CameraInfoPubSubType::getSerializedSizeProvider Pages: 1 -->
<svg width="523pt" height="390pt"
 viewBox="0.00 0.00 522.50 390.00" xmlns="http://www.w3.org/2000/svg" xmlns:xlink="http://www.w3.org/1999/xlink">
<g id="graph0" class="graph" transform="scale(1 1) rotate(0) translate(4 386)">
<title>sensor_msgs::msg::CameraInfoPubSubType::getSerializedSizeProvider</title>
<!-- Node1 -->
<g id="Node000001" class="node">
<title>Node1</title>
<g id="a_Node000001"><a xlink:title=" ">
<polygon fill="#999999" stroke="#666666" points="148.75,-213 0,-213 0,-169 148.75,-169 148.75,-213"/>
<text text-anchor="start" x="8" y="-199.5" font-family="Helvetica,sans-Serif" font-size="10.00">sensor_msgs::msg::Camera</text>
<text text-anchor="start" x="8" y="-187.5" font-family="Helvetica,sans-Serif" font-size="10.00">InfoPubSubType::getSerialized</text>
<text text-anchor="middle" x="74.38" y="-175.5" font-family="Helvetica,sans-Serif" font-size="10.00">SizeProvider</text>
</a>
</g>
</g>
<!-- Node2 -->
<g id="Node000002" class="node">
<title>Node2</title>
<g id="a_Node000002"><a xlink:href="../../d7/d52/classsensor__msgs_1_1msg_1_1CameraInfo.html#af13edf9e037b3b75d3ceaac9e4f844b5" target="_top" xlink:title="This function returns the serialized size of a data depending on the buffer alignment....">
<polygon fill="white" stroke="#666666" points="323.75,-207 184.75,-207 184.75,-175 323.75,-175 323.75,-207"/>
<text text-anchor="start" x="192.75" y="-193.5" font-family="Helvetica,sans-Serif" font-size="10.00">sensor_msgs::msg::Camera</text>
<text text-anchor="middle" x="254.25" y="-181.5" font-family="Helvetica,sans-Serif" font-size="10.00">Info::getCdrSerializedSize</text>
</a>
</g>
</g>
<!-- Node1&#45;&gt;Node2 -->
<g id="edge1_Node000001_Node000002" class="edge">
<title>Node1&#45;&gt;Node2</title>
<g id="a_edge1_Node000001_Node000002"><a xlink:title=" ">
<path fill="none" stroke="#63b8ff" d="M149.01,-191C157.18,-191 165.53,-191 173.78,-191"/>
<polygon fill="#63b8ff" stroke="#63b8ff" points="173.52,-194.5 183.52,-191 173.52,-187.5 173.52,-194.5"/>
</a>
</g>
</g>
<!-- Node3 -->
<g id="Node000003" class="node">
<title>Node3</title>
<g id="a_Node000003"><a xlink:href="../../d7/d52/classsensor__msgs_1_1msg_1_1CameraInfo.html#a3a3ea40907930625e12ea0d1eb4d9429" target="_top" xlink:title="This function copies the value in member D（设置畸变参数 D（Distortion Coefficients）">
<polygon fill="white" stroke="#666666" points="506.62,-382 367.62,-382 367.62,-350 506.62,-350 506.62,-382"/>
<text text-anchor="start" x="375.62" y="-368.5" font-family="Helvetica,sans-Serif" font-size="10.00">sensor_msgs::msg::Camera</text>
<text text-anchor="middle" x="437.12" y="-356.5" font-family="Helvetica,sans-Serif" font-size="10.00">Info::D</text>
</a>
</g>
</g>
<!-- Node2&#45;&gt;Node3 -->
<g id="edge2_Node000002_Node000003" class="edge">
<title>Node2&#45;&gt;Node3</title>
<g id="a_edge2_Node000002_Node000003"><a xlink:title=" ">
<path fill="none" stroke="#63b8ff" d="M262.19,-207.14C276.16,-237.76 310.59,-304.45 359.75,-341 361.25,-342.12 362.8,-343.18 364.4,-344.21"/>
<polygon fill="#63b8ff" stroke="#63b8ff" points="362.51,-347.72 372.94,-349.56 365.93,-341.61 362.51,-347.72"/>
</a>
</g>
</g>
<!-- Node4 -->
<g id="Node000004" class="node">
<title>Node4</title>
<g id="a_Node000004"><a xlink:href="../../d7/d52/classsensor__msgs_1_1msg_1_1CameraInfo.html#a9931319ddb9d5230719a6b413e078adf" target="_top" xlink:title="This function copies the value in member distortion_model（设置畸变模型（distortion_model））">
<polygon fill="white" stroke="#666666" points="506.62,-332 367.62,-332 367.62,-300 506.62,-300 506.62,-332"/>
<text text-anchor="start" x="375.62" y="-318.5" font-family="Helvetica,sans-Serif" font-size="10.00">sensor_msgs::msg::Camera</text>
<text text-anchor="middle" x="437.12" y="-306.5" font-family="Helvetica,sans-Serif" font-size="10.00">Info::distortion_model</text>
</a>
</g>
</g>
<!-- Node2&#45;&gt;Node4 -->
<g id="edge3_Node000002_Node000004" class="edge">
<title>Node2&#45;&gt;Node4</title>
<g id="a_edge3_Node000002_Node000004"><a xlink:title=" ">
<path fill="none" stroke="#63b8ff" d="M268.07,-207.16C286.26,-229.1 321.63,-268.15 359.75,-291 362.11,-292.41 364.55,-293.75 367.06,-295.03"/>
<polygon fill="#63b8ff" stroke="#63b8ff" points="365.43,-298.6 375.98,-299.62 368.37,-292.24 365.43,-298.6"/>
</a>
</g>
</g>
<!-- Node5 -->
<g id="Node000005" class="node">
<title>Node5</title>
<g id="a_Node000005"><a xlink:href="../../d7/de7/classsensor__msgs_1_1msg_1_1RegionOfInterest.html#a400852dcf9880a96d51df7ce08cc5f83" target="_top" xlink:title="This function returns the serialized size of a data depending on the buffer alignment.">
<polygon fill="white" stroke="#666666" points="514.5,-282 359.75,-282 359.75,-250 514.5,-250 514.5,-282"/>
<text text-anchor="start" x="367.75" y="-268.5" font-family="Helvetica,sans-Serif" font-size="10.00">sensor_msgs::msg::Region</text>
<text text-anchor="middle" x="437.12" y="-256.5" font-family="Helvetica,sans-Serif" font-size="10.00">OfInterest::getCdrSerializedSize</text>
</a>
</g>
</g>
<!-- Node2&#45;&gt;Node5 -->
<g id="edge4_Node000002_Node000005" class="edge">
<title>Node2&#45;&gt;Node5</title>
<g id="a_edge4_Node000002_Node000005"><a xlink:title=" ">
<path fill="none" stroke="#63b8ff" d="M286.79,-207.41C307.28,-217.74 334.74,-230.97 359.75,-241 363.9,-242.66 368.21,-244.3 372.58,-245.9"/>
<polygon fill="#63b8ff" stroke="#63b8ff" points="371.21,-249.48 381.8,-249.53 373.55,-242.89 371.21,-249.48"/>
</a>
</g>
</g>
<!-- Node6 -->
<g id="Node000006" class="node">
<title>Node6</title>
<g id="a_Node000006"><a xlink:href="../../d7/d52/classsensor__msgs_1_1msg_1_1CameraInfo.html#a91a306bd4ad2c889a014bcea83c8b45b" target="_top" xlink:title="This function copies the value in member header（）（设置 header 成员变量的值）">
<polygon fill="white" stroke="#666666" points="506.62,-232 367.62,-232 367.62,-200 506.62,-200 506.62,-232"/>
<text text-anchor="start" x="375.62" y="-218.5" font-family="Helvetica,sans-Serif" font-size="10.00">sensor_msgs::msg::Camera</text>
<text text-anchor="middle" x="437.12" y="-206.5" font-family="Helvetica,sans-Serif" font-size="10.00">Info::header</text>
</a>
</g>
</g>
<!-- Node2&#45;&gt;Node6 -->
<g id="edge5_Node000002_Node000006" class="edge">
<title>Node2&#45;&gt;Node6</title>
<g id="a_edge5_Node000002_Node000006"><a xlink:title=" ">
<path fill="none" stroke="#63b8ff" d="M324.15,-200.52C334.78,-201.99 345.83,-203.52 356.67,-205.02"/>
<polygon fill="#63b8ff" stroke="#63b8ff" points="356.03,-208.6 366.42,-206.5 356.99,-201.67 356.03,-208.6"/>
</a>
</g>
</g>
<!-- Node7 -->
<g id="Node000007" class="node">
<title>Node7</title>
<g id="a_Node000007"><a xlink:href="../../d7/d52/classsensor__msgs_1_1msg_1_1CameraInfo.html#a26cf59c7495081f634a1dd3ae0058673" target="_top" xlink:title="This function copies the value in member K（将新值拷贝到成员变量 K 中）">
<polygon fill="white" stroke="#666666" points="506.62,-182 367.62,-182 367.62,-150 506.62,-150 506.62,-182"/>
<text text-anchor="start" x="375.62" y="-168.5" font-family="Helvetica,sans-Serif" font-size="10.00">sensor_msgs::msg::Camera</text>
<text text-anchor="middle" x="437.12" y="-156.5" font-family="Helvetica,sans-Serif" font-size="10.00">Info::k</text>
</a>
</g>
</g>
<!-- Node2&#45;&gt;Node7 -->
<g id="edge6_Node000002_Node000007" class="edge">
<title>Node2&#45;&gt;Node7</title>
<g id="a_edge6_Node000002_Node000007"><a xlink:title=" ">
<path fill="none" stroke="#63b8ff" d="M324.15,-181.48C334.78,-180.01 345.83,-178.48 356.67,-176.98"/>
<polygon fill="#63b8ff" stroke="#63b8ff" points="356.99,-180.33 366.42,-175.5 356.03,-173.4 356.99,-180.33"/>
</a>
</g>
</g>
<!-- Node8 -->
<g id="Node000008" class="node">
<title>Node8</title>
<g id="a_Node000008"><a xlink:href="../../d7/d52/classsensor__msgs_1_1msg_1_1CameraInfo.html#a1433ff7a599ff9212e98f1a81f48d7de" target="_top" xlink:title="This function copies the value in member p">
<polygon fill="white" stroke="#666666" points="506.62,-132 367.62,-132 367.62,-100 506.62,-100 506.62,-132"/>
<text text-anchor="start" x="375.62" y="-118.5" font-family="Helvetica,sans-Serif" font-size="10.00">sensor_msgs::msg::Camera</text>
<text text-anchor="middle" x="437.12" y="-106.5" font-family="Helvetica,sans-Serif" font-size="10.00">Info::p</text>
</a>
</g>
</g>
<!-- Node2&#45;&gt;Node8 -->
<g id="edge7_Node000002_Node000008" class="edge">
<title>Node2&#45;&gt;Node8</title>
<g id="a_edge7_Node000002_Node000008"><a xlink:title=" ">
<path fill="none" stroke="#63b8ff" d="M286.79,-174.59C307.28,-164.26 334.74,-151.03 359.75,-141 363.9,-139.34 368.21,-137.7 372.58,-136.1"/>
<polygon fill="#63b8ff" stroke="#63b8ff" points="373.55,-139.11 381.8,-132.47 371.21,-132.52 373.55,-139.11"/>
</a>
</g>
</g>
<!-- Node9 -->
<g id="Node000009" class="node">
<title>Node9</title>
<g id="a_Node000009"><a xlink:href="../../d7/d52/classsensor__msgs_1_1msg_1_1CameraInfo.html#aa151d5fb2ae08fa45c61bf948f205d4b" target="_top" xlink:title="This function copies the value in member r（将新值拷贝到成员变量 R 中）">
<polygon fill="white" stroke="#666666" points="506.62,-82 367.62,-82 367.62,-50 506.62,-50 506.62,-82"/>
<text text-anchor="start" x="375.62" y="-68.5" font-family="Helvetica,sans-Serif" font-size="10.00">sensor_msgs::msg::Camera</text>
<text text-anchor="middle" x="437.12" y="-56.5" font-family="Helvetica,sans-Serif" font-size="10.00">Info::r</text>
</a>
</g>
</g>
<!-- Node2&#45;&gt;Node9 -->
<g id="edge8_Node000002_Node000009" class="edge">
<title>Node2&#45;&gt;Node9</title>
<g id="a_edge8_Node000002_Node000009"><a xlink:title=" ">
<path fill="none" stroke="#63b8ff" d="M268.07,-174.84C286.26,-152.9 321.63,-113.85 359.75,-91 362.11,-89.59 364.55,-88.25 367.06,-86.97"/>
<polygon fill="#63b8ff" stroke="#63b8ff" points="368.37,-89.76 375.98,-82.38 365.43,-83.4 368.37,-89.76"/>
</a>
</g>
</g>
<!-- Node10 -->
<g id="Node000010" class="node">
<title>Node10</title>
<g id="a_Node000010"><a xlink:href="../../d7/d52/classsensor__msgs_1_1msg_1_1CameraInfo.html#a6ce3b3d026fec91701f6b606ea585ce7" target="_top" xlink:title="This function copies the value in member roi（将新值拷贝到成员变量 roi 中）">
<polygon fill="white" stroke="#666666" points="506.62,-32 367.62,-32 367.62,0 506.62,0 506.62,-32"/>
<text text-anchor="start" x="375.62" y="-18.5" font-family="Helvetica,sans-Serif" font-size="10.00">sensor_msgs::msg::Camera</text>
<text text-anchor="middle" x="437.12" y="-6.5" font-family="Helvetica,sans-Serif" font-size="10.00">Info::roi</text>
</a>
</g>
</g>
<!-- Node2&#45;&gt;Node10 -->
<g id="edge9_Node000002_Node000010" class="edge">
<title>Node2&#45;&gt;Node10</title>
<g id="a_edge9_Node000002_Node000010"><a xlink:title=" ">
<path fill="none" stroke="#63b8ff" d="M262.19,-174.86C276.16,-144.24 310.59,-77.55 359.75,-41 361.25,-39.88 362.8,-38.82 364.4,-37.79"/>
<polygon fill="#63b8ff" stroke="#63b8ff" points="365.93,-40.39 372.94,-32.44 362.51,-34.28 365.93,-40.39"/>
</a>
</g>
</g>
</g>
</svg>
