<?xml version="1.0" encoding="UTF-8" standalone="no"?>
<!DOCTYPE svg PUBLIC "-//W3C//DTD SVG 1.1//EN"
 "http://www.w3.org/Graphics/SVG/1.1/DTD/svg11.dtd">
<!-- Generated by graphviz version 8.1.0 (20230707.0739)
 -->
<!-- Title: Math.cpp Pages: 1 -->
<!--zoomable 432 -->

<svg id="main" version="1.1" xmlns="http://www.w3.org/2000/svg" xmlns:xlink="http://www.w3.org/1999/xlink" xml:space="preserve" onload="init(evt)">
<style type="text/css"><![CDATA[
.node, .edge {opacity: 0.7;}
.node.selected, .edge.selected {opacity: 1;}
.edge:hover path { stroke: red; }
.edge:hover polygon { stroke: red; fill: red; }
]]></style>

<defs>
  <circle id="rim" cx="0" cy="0" r="7"/>
  <circle id="rim2" cx="0" cy="0" r="3.5"/>
  <g id="zoomPlus">
    <use xlink:href="#rim" fill="#404040"><set attributeName="fill" to="#808080" begin="zoomplus.mouseover" end="zoomplus.mouseout"/></use>
    <path d="M-4,0h8M0,-4v8" fill="none" stroke="white" stroke-width="1.5" pointer-events="none"/>
  </g>
  <g id="zoomMin">
    <use xlink:href="#rim" fill="#404040"><set attributeName="fill" to="#808080" begin="zoomminus.mouseover" end="zoomminus.mouseout"/></use>
    <path d="M-4,0h8" fill="none" stroke="white" stroke-width="1.5" pointer-events="none"/>
  </g>
  <g id="arrowUp" transform="translate(30 24)">
    <use xlink:href="#rim"/>
    <path pointer-events="none" fill="none" stroke="white" stroke-width="1.5" d="M0,-3.0v7 M-2.5,-0.5L0,-3.0L2.5,-0.5"/>
  </g>
  <g id="arrowRight" transform="rotate(90) translate(36 -43)">
    <use xlink:href="#rim"/>
    <path pointer-events="none" fill="none" stroke="white" stroke-width="1.5" d="M0,-3.0v7 M-2.5,-0.5L0,-3.0L2.5,-0.5"/>
  </g>
  <g id="arrowDown" transform="rotate(180) translate(-30 -48)">
    <use xlink:href="#rim"/>
    <path pointer-events="none" fill="none" stroke="white" stroke-width="1.5" d="M0,-3.0v7 M-2.5,-0.5L0,-3.0L2.5,-0.5"/>
  </g>
  <g id="arrowLeft" transform="rotate(270) translate(-36 17)">
    <use xlink:href="#rim"/>
    <path pointer-events="none" fill="none" stroke="white" stroke-width="1.5" d="M0,-3.0v7 M-2.5,-0.5L0,-3.0L2.5,-0.5"/>
  </g>
  <g id="resetDef">
    <use xlink:href="#rim2" fill="#404040"><set attributeName="fill" to="#808080" begin="reset.mouseover" end="reset.mouseout"/></use>
  </g>
</defs>
<script type="application/ecmascript">
var viewWidth = 877;
var viewHeight = 432;
var sectionId = 'dynsection-0';
</script>
<script type="application/ecmascript" xlink:href="../../svg.min.js"/>
<svg id="graph" class="graph">
<g id="viewport">
<title>Math.cpp</title>
<!-- Node1 -->
<g id="Node000001" class="node">
<title>Node1</title>
<g id="a_Node000001"><a xlink:title=" ">
<polygon fill="#999999" stroke="#666666" points="353.62,-424 297.12,-424 297.12,-404 353.62,-404 353.62,-424"/>
<text text-anchor="middle" x="325.38" y="-410.5" font-family="Helvetica,sans-Serif" font-size="10.00">Math.cpp</text>
</a>
</g>
</g>
<!-- Node2 -->
<g id="Node000002" class="node">
<title>Node2</title>
<g id="a_Node000002"><a xlink:href="../../db/d8a/Math_8h.html" target="_top" xlink:title=" ">
<polygon fill="white" stroke="#666666" points="294.88,-306 197.88,-306 197.88,-286 294.88,-286 294.88,-306"/>
<text text-anchor="middle" x="246.38" y="-292.5" font-family="Helvetica,sans-Serif" font-size="10.00">carla/geom/Math.h</text>
</a>
</g>
</g>
<!-- Node1&#45;&gt;Node2 -->
<g id="edge1_Node000001_Node000002" class="edge">
<title>Node1&#45;&gt;Node2</title>
<g id="a_edge1_Node000001_Node000002"><a xlink:title=" ">
<path fill="none" stroke="#63b8ff" d="M318.91,-403.51C305.77,-384.21 275.74,-340.11 258.73,-315.13"/>
<polygon fill="#63b8ff" stroke="#63b8ff" points="261.23,-313.59 252.71,-307.3 255.44,-317.54 261.23,-313.59"/>
</a>
</g>
</g>
<!-- Node21 -->
<g id="Node000021" class="node">
<title>Node21</title>
<g id="a_Node000021"><a xlink:href="../../d0/d8f/Rotation_8h.html" target="_top" xlink:title=" ">
<polygon fill="white" stroke="#666666" points="459,-368 347.75,-368 347.75,-348 459,-348 459,-368"/>
<text text-anchor="middle" x="403.38" y="-354.5" font-family="Helvetica,sans-Serif" font-size="10.00">carla/geom/Rotation.h</text>
</a>
</g>
</g>
<!-- Node1&#45;&gt;Node21 -->
<g id="edge25_Node000001_Node000021" class="edge">
<title>Node1&#45;&gt;Node21</title>
<g id="a_edge25_Node000001_Node000021"><a xlink:title=" ">
<path fill="none" stroke="#63b8ff" d="M338.96,-403.59C350.52,-395.59 367.36,-383.93 380.92,-374.54"/>
<polygon fill="#63b8ff" stroke="#63b8ff" points="382.45,-377.05 388.68,-368.48 378.47,-371.29 382.45,-377.05"/>
</a>
</g>
</g>
<!-- Node3 -->
<g id="Node000003" class="node">
<title>Node3</title>
<g id="a_Node000003"><a xlink:href="../../d4/deb/Debug_8h.html" target="_top" xlink:title=" ">
<polygon fill="white" stroke="#666666" points="103.38,-76 27.38,-76 27.38,-56 103.38,-56 103.38,-76"/>
<text text-anchor="middle" x="65.38" y="-62.5" font-family="Helvetica,sans-Serif" font-size="10.00">carla/Debug.h</text>
</a>
</g>
</g>
<!-- Node2&#45;&gt;Node3 -->
<g id="edge2_Node000002_Node000003" class="edge">
<title>Node2&#45;&gt;Node3</title>
<g id="a_edge2_Node000002_Node000003"><a xlink:title=" ">
<path fill="none" stroke="#63b8ff" d="M239.06,-285.78C211.76,-251.4 115.65,-130.33 79.37,-84.63"/>
<polygon fill="#63b8ff" stroke="#63b8ff" points="81.55,-82.74 72.59,-77.09 76.06,-87.09 81.55,-82.74"/>
</a>
</g>
</g>
<!-- Node7 -->
<g id="Node000007" class="node">
<title>Node7</title>
<g id="a_Node000007"><a xlink:href="../../de/d70/geom_2Vector3D_8h.html" target="_top" xlink:title=" ">
<polygon fill="white" stroke="#666666" points="424.25,-244 308.5,-244 308.5,-224 424.25,-224 424.25,-244"/>
<text text-anchor="middle" x="366.38" y="-230.5" font-family="Helvetica,sans-Serif" font-size="10.00">carla/geom/Vector3D.h</text>
</a>
</g>
</g>
<!-- Node2&#45;&gt;Node7 -->
<g id="edge6_Node000002_Node000007" class="edge">
<title>Node2&#45;&gt;Node7</title>
<g id="a_edge6_Node000002_Node000007"><a xlink:title=" ">
<path fill="none" stroke="#63b8ff" d="M265.12,-285.62C284.67,-275.85 315.55,-260.41 338.07,-249.15"/>
<polygon fill="#63b8ff" stroke="#63b8ff" points="339.38,-251.91 346.76,-244.31 336.25,-245.65 339.38,-251.91"/>
</a>
</g>
</g>
<!-- Node17 -->
<g id="Node000017" class="node">
<title>Node17</title>
<g id="a_Node000017"><a xlink:title=" ">
<polygon fill="#e0e0e0" stroke="#999999" points="183.25,-76 121.5,-76 121.5,-56 183.25,-56 183.25,-76"/>
<text text-anchor="middle" x="152.38" y="-62.5" font-family="Helvetica,sans-Serif" font-size="10.00">type_traits</text>
</a>
</g>
</g>
<!-- Node2&#45;&gt;Node17 -->
<g id="edge23_Node000002_Node000017" class="edge">
<title>Node2&#45;&gt;Node17</title>
<g id="a_edge23_Node000002_Node000017"><a xlink:title=" ">
<path fill="none" stroke="#63b8ff" d="M242.57,-285.78C228.55,-251.76 179.52,-132.85 160.25,-86.09"/>
<polygon fill="#63b8ff" stroke="#63b8ff" points="163.17,-85 156.12,-77.09 156.7,-87.66 163.17,-85"/>
</a>
</g>
</g>
<!-- Node19 -->
<g id="Node000019" class="node">
<title>Node19</title>
<g id="a_Node000019"><a xlink:title=" ">
<polygon fill="#e0e0e0" stroke="#999999" points="293.88,-188 250.88,-188 250.88,-168 293.88,-168 293.88,-188"/>
<text text-anchor="middle" x="272.38" y="-174.5" font-family="Helvetica,sans-Serif" font-size="10.00">cmath</text>
</a>
</g>
</g>
<!-- Node2&#45;&gt;Node19 -->
<g id="edge22_Node000002_Node000019" class="edge">
<title>Node2&#45;&gt;Node19</title>
<g id="a_edge22_Node000002_Node000019"><a xlink:title=" ">
<path fill="none" stroke="#63b8ff" d="M243.57,-285.56C239.92,-271.71 234.77,-245.24 241.38,-224 244.42,-214.21 250.42,-204.67 256.33,-196.91"/>
<polygon fill="#63b8ff" stroke="#63b8ff" points="259.66,-199.38 263.3,-189.43 254.25,-194.93 259.66,-199.38"/>
</a>
</g>
</g>
<!-- Node20 -->
<g id="Node000020" class="node">
<title>Node20</title>
<g id="a_Node000020"><a xlink:title=" ">
<polygon fill="#e0e0e0" stroke="#999999" points="290,-244 250.75,-244 250.75,-224 290,-224 290,-244"/>
<text text-anchor="middle" x="270.38" y="-230.5" font-family="Helvetica,sans-Serif" font-size="10.00">utility</text>
</a>
</g>
</g>
<!-- Node2&#45;&gt;Node20 -->
<g id="edge24_Node000002_Node000020" class="edge">
<title>Node2&#45;&gt;Node20</title>
<g id="a_edge24_Node000002_Node000020"><a xlink:title=" ">
<path fill="none" stroke="#63b8ff" d="M250.12,-285.62C253.49,-277.21 258.54,-264.6 262.75,-254.07"/>
<polygon fill="#63b8ff" stroke="#63b8ff" points="266.27,-255.7 266.73,-245.11 259.77,-253.1 266.27,-255.7"/>
</a>
</g>
</g>
<!-- Node4 -->
<g id="Node000004" class="node">
<title>Node4</title>
<g id="a_Node000004"><a xlink:href="../../d8/d8a/Exception_8h.html" target="_top" xlink:title=" ">
<polygon fill="white" stroke="#666666" points="301.25,-20 209.5,-20 209.5,0 301.25,0 301.25,-20"/>
<text text-anchor="middle" x="255.38" y="-6.5" font-family="Helvetica,sans-Serif" font-size="10.00">carla/Exception.h</text>
</a>
</g>
</g>
<!-- Node3&#45;&gt;Node4 -->
<g id="edge3_Node000003_Node000004" class="edge">
<title>Node3&#45;&gt;Node4</title>
<g id="a_edge3_Node000003_Node000004"><a xlink:title=" ">
<path fill="none" stroke="#63b8ff" d="M98.47,-55.59C129.88,-46.67 177.29,-33.19 211.77,-23.39"/>
<polygon fill="#63b8ff" stroke="#63b8ff" points="212.36,-26.58 221.02,-20.48 210.45,-19.85 212.36,-26.58"/>
</a>
</g>
</g>
<!-- Node5 -->
<g id="Node000005" class="node">
<title>Node5</title>
<g id="a_Node000005"><a xlink:title=" ">
<polygon fill="#e0e0e0" stroke="#999999" points="58.75,-20 0,-20 0,0 58.75,0 58.75,-20"/>
<text text-anchor="middle" x="29.38" y="-6.5" font-family="Helvetica,sans-Serif" font-size="10.00">stdexcept</text>
</a>
</g>
</g>
<!-- Node3&#45;&gt;Node5 -->
<g id="edge4_Node000003_Node000005" class="edge">
<title>Node3&#45;&gt;Node5</title>
<g id="a_edge4_Node000003_Node000005"><a xlink:title=" ">
<path fill="none" stroke="#63b8ff" d="M59.1,-55.59C54.3,-48.39 47.53,-38.23 41.66,-29.43"/>
<polygon fill="#63b8ff" stroke="#63b8ff" points="44.03,-27.68 35.57,-21.3 38.21,-31.56 44.03,-27.68"/>
</a>
</g>
</g>
<!-- Node6 -->
<g id="Node000006" class="node">
<title>Node6</title>
<g id="a_Node000006"><a xlink:title=" ">
<polygon fill="#e0e0e0" stroke="#999999" points="125.5,-20 77.25,-20 77.25,0 125.5,0 125.5,-20"/>
<text text-anchor="middle" x="101.38" y="-6.5" font-family="Helvetica,sans-Serif" font-size="10.00">cassert</text>
</a>
</g>
</g>
<!-- Node3&#45;&gt;Node6 -->
<g id="edge5_Node000003_Node000006" class="edge">
<title>Node3&#45;&gt;Node6</title>
<g id="a_edge5_Node000003_Node000006"><a xlink:title=" ">
<path fill="none" stroke="#63b8ff" d="M71.65,-55.59C76.45,-48.39 83.22,-38.23 89.09,-29.43"/>
<polygon fill="#63b8ff" stroke="#63b8ff" points="92.54,-31.56 95.18,-21.3 86.72,-27.68 92.54,-31.56"/>
</a>
</g>
</g>
<!-- Node8 -->
<g id="Node000008" class="node">
<title>Node8</title>
<g id="a_Node000008"><a xlink:href="../../d9/d6f/MsgPack_8h.html" target="_top" xlink:title=" ">
<polygon fill="white" stroke="#666666" points="425.12,-188 335.62,-188 335.62,-168 425.12,-168 425.12,-188"/>
<text text-anchor="middle" x="380.38" y="-174.5" font-family="Helvetica,sans-Serif" font-size="10.00">carla/MsgPack.h</text>
</a>
</g>
</g>
<!-- Node7&#45;&gt;Node8 -->
<g id="edge7_Node000007_Node000008" class="edge">
<title>Node7&#45;&gt;Node8</title>
<g id="a_edge7_Node000007_Node000008"><a xlink:title=" ">
<path fill="none" stroke="#63b8ff" d="M368.81,-223.59C370.58,-216.78 373.03,-207.32 375.23,-198.86"/>
<polygon fill="#63b8ff" stroke="#63b8ff" points="378.84,-199.86 377.96,-189.3 372.07,-198.1 378.84,-199.86"/>
</a>
</g>
</g>
<!-- Node15 -->
<g id="Node000015" class="node">
<title>Node15</title>
<g id="a_Node000015"><a xlink:title=" ">
<polygon fill="#e0e0e0" stroke="#999999" points="636,-76 596.75,-76 596.75,-56 636,-56 636,-76"/>
<text text-anchor="middle" x="616.38" y="-62.5" font-family="Helvetica,sans-Serif" font-size="10.00">limits</text>
</a>
</g>
</g>
<!-- Node7&#45;&gt;Node15 -->
<g id="edge21_Node000007_Node000015" class="edge">
<title>Node7&#45;&gt;Node15</title>
<g id="a_edge21_Node000007_Node000015"><a xlink:title=" ">
<path fill="none" stroke="#63b8ff" d="M380.71,-223.53C394.47,-214.43 415.85,-200.29 434.38,-188 491.6,-150.04 558.88,-105.28 593.39,-82.3"/>
<polygon fill="#63b8ff" stroke="#63b8ff" points="594.84,-84.88 601.22,-76.42 590.96,-79.05 594.84,-84.88"/>
</a>
</g>
</g>
<!-- Node7&#45;&gt;Node19 -->
<g id="edge20_Node000007_Node000019" class="edge">
<title>Node7&#45;&gt;Node19</title>
<g id="a_edge20_Node000007_Node000019"><a xlink:title=" ">
<path fill="none" stroke="#63b8ff" d="M350,-223.59C335.67,-215.36 314.6,-203.26 298.03,-193.74"/>
<polygon fill="#63b8ff" stroke="#63b8ff" points="300.29,-190.43 289.88,-188.48 296.8,-196.5 300.29,-190.43"/>
</a>
</g>
</g>
<!-- Node9 -->
<g id="Node000009" class="node">
<title>Node9</title>
<g id="a_Node000009"><a xlink:href="../../d2/dda/carla_2Buffer_8h.html" target="_top" xlink:title=" ">
<polygon fill="white" stroke="#666666" points="326.88,-132 253.88,-132 253.88,-112 326.88,-112 326.88,-132"/>
<text text-anchor="middle" x="290.38" y="-118.5" font-family="Helvetica,sans-Serif" font-size="10.00">carla/Buffer.h</text>
</a>
</g>
</g>
<!-- Node8&#45;&gt;Node9 -->
<g id="edge8_Node000008_Node000009" class="edge">
<title>Node8&#45;&gt;Node9</title>
<g id="a_edge8_Node000008_Node000009"><a xlink:title=" ">
<path fill="none" stroke="#63b8ff" d="M364.7,-167.59C351.1,-159.44 331.18,-147.48 315.38,-138"/>
<polygon fill="#63b8ff" stroke="#63b8ff" points="317.55,-134.62 307.17,-132.48 313.95,-140.63 317.55,-134.62"/>
</a>
</g>
</g>
<!-- Node18 -->
<g id="Node000018" class="node">
<title>Node18</title>
<g id="a_Node000018"><a xlink:title=" ">
<polygon fill="#e0e0e0" stroke="#999999" points="435.88,-132 344.88,-132 344.88,-112 435.88,-112 435.88,-132"/>
<text text-anchor="middle" x="390.38" y="-118.5" font-family="Helvetica,sans-Serif" font-size="10.00">rpc/msgpack.hpp</text>
</a>
</g>
</g>
<!-- Node8&#45;&gt;Node18 -->
<g id="edge19_Node000008_Node000018" class="edge">
<title>Node8&#45;&gt;Node18</title>
<g id="a_edge19_Node000008_Node000018"><a xlink:title=" ">
<path fill="none" stroke="#63b8ff" d="M382.12,-167.59C383.38,-160.78 385.13,-151.32 386.7,-142.86"/>
<polygon fill="#63b8ff" stroke="#63b8ff" points="390.27,-143.77 388.65,-133.3 383.39,-142.49 390.27,-143.77"/>
</a>
</g>
</g>
<!-- Node9&#45;&gt;Node3 -->
<g id="edge9_Node000009_Node000003" class="edge">
<title>Node9&#45;&gt;Node3</title>
<g id="a_edge9_Node000009_Node000003"><a xlink:title=" ">
<path fill="none" stroke="#63b8ff" d="M253.47,-112.14C215.51,-103.03 156.17,-88.79 114.31,-78.75"/>
<polygon fill="#63b8ff" stroke="#63b8ff" points="115.35,-75.15 104.8,-76.22 113.71,-81.96 115.35,-75.15"/>
</a>
</g>
</g>
<!-- Node9&#45;&gt;Node4 -->
<g id="edge10_Node000009_Node000004" class="edge">
<title>Node9&#45;&gt;Node4</title>
<g id="a_edge10_Node000009_Node000004"><a xlink:title=" ">
<path fill="none" stroke="#63b8ff" d="M301.66,-111.72C315.59,-99.1 336.18,-75.8 325.38,-56 317.91,-42.33 304.31,-32.19 291.08,-25.03"/>
<polygon fill="#63b8ff" stroke="#63b8ff" points="293.11,-21.64 282.6,-20.34 290.01,-27.91 293.11,-21.64"/>
</a>
</g>
</g>
<!-- Node10 -->
<g id="Node000010" class="node">
<title>Node10</title>
<g id="a_Node000010"><a xlink:href="../../de/d87/Logging_8h.html" target="_top" xlink:title=" ">
<polygon fill="white" stroke="#666666" points="454.38,-76 372.38,-76 372.38,-56 454.38,-56 454.38,-76"/>
<text text-anchor="middle" x="413.38" y="-62.5" font-family="Helvetica,sans-Serif" font-size="10.00">carla/Logging.h</text>
</a>
</g>
</g>
<!-- Node9&#45;&gt;Node10 -->
<g id="edge11_Node000009_Node000010" class="edge">
<title>Node9&#45;&gt;Node10</title>
<g id="a_edge11_Node000009_Node000010"><a xlink:title=" ">
<path fill="none" stroke="#63b8ff" d="M311.8,-111.59C331.17,-103.09 359.94,-90.46 381.91,-80.81"/>
<polygon fill="#63b8ff" stroke="#63b8ff" points="383.03,-83.7 390.78,-76.48 380.22,-77.29 383.03,-83.7"/>
</a>
</g>
</g>
<!-- Node13 -->
<g id="Node000013" class="node">
<title>Node13</title>
<g id="a_Node000013"><a xlink:title=" ">
<polygon fill="#e0e0e0" stroke="#999999" points="578.38,-76 472.38,-76 472.38,-56 578.38,-56 578.38,-76"/>
<text text-anchor="middle" x="525.38" y="-62.5" font-family="Helvetica,sans-Serif" font-size="10.00">boost/asio/buffer.hpp</text>
</a>
</g>
</g>
<!-- Node9&#45;&gt;Node13 -->
<g id="edge14_Node000009_Node000013" class="edge">
<title>Node9&#45;&gt;Node13</title>
<g id="a_edge14_Node000009_Node000013"><a xlink:title=" ">
<path fill="none" stroke="#63b8ff" d="M327.35,-112.5C366.76,-103.45 429.44,-89.04 473.72,-78.87"/>
<polygon fill="#63b8ff" stroke="#63b8ff" points="474.31,-82.1 483.27,-76.45 472.74,-75.27 474.31,-82.1"/>
</a>
</g>
</g>
<!-- Node14 -->
<g id="Node000014" class="node">
<title>Node14</title>
<g id="a_Node000014"><a xlink:title=" ">
<polygon fill="#e0e0e0" stroke="#999999" points="247,-76 201.75,-76 201.75,-56 247,-56 247,-76"/>
<text text-anchor="middle" x="224.38" y="-62.5" font-family="Helvetica,sans-Serif" font-size="10.00">cstdint</text>
</a>
</g>
</g>
<!-- Node9&#45;&gt;Node14 -->
<g id="edge15_Node000009_Node000014" class="edge">
<title>Node9&#45;&gt;Node14</title>
<g id="a_edge15_Node000009_Node000014"><a xlink:title=" ">
<path fill="none" stroke="#63b8ff" d="M278.88,-111.59C269.32,-103.77 255.5,-92.46 244.17,-83.19"/>
<polygon fill="#63b8ff" stroke="#63b8ff" points="246.7,-79.92 236.74,-76.3 242.26,-85.34 246.7,-79.92"/>
</a>
</g>
</g>
<!-- Node9&#45;&gt;Node15 -->
<g id="edge16_Node000009_Node000015" class="edge">
<title>Node9&#45;&gt;Node15</title>
<g id="a_edge16_Node000009_Node000015"><a xlink:title=" ">
<path fill="none" stroke="#63b8ff" d="M327,-113.66C330.17,-113.08 333.33,-112.52 336.38,-112 444.12,-93.74 475.55,-100.34 585.94,-75.99"/>
<polygon fill="#63b8ff" stroke="#63b8ff" points="586.53,-79.22 595.52,-73.62 585,-72.39 586.53,-79.22"/>
</a>
</g>
</g>
<!-- Node16 -->
<g id="Node000016" class="node">
<title>Node16</title>
<g id="a_Node000016"><a xlink:title=" ">
<polygon fill="#e0e0e0" stroke="#999999" points="316,-76 264.75,-76 264.75,-56 316,-56 316,-76"/>
<text text-anchor="middle" x="290.38" y="-62.5" font-family="Helvetica,sans-Serif" font-size="10.00">memory</text>
</a>
</g>
</g>
<!-- Node9&#45;&gt;Node16 -->
<g id="edge17_Node000009_Node000016" class="edge">
<title>Node9&#45;&gt;Node16</title>
<g id="a_edge17_Node000009_Node000016"><a xlink:title=" ">
<path fill="none" stroke="#63b8ff" d="M290.38,-111.59C290.38,-104.86 290.38,-95.53 290.38,-87.15"/>
<polygon fill="#63b8ff" stroke="#63b8ff" points="293.88,-87.3 290.38,-77.3 286.88,-87.3 293.88,-87.3"/>
</a>
</g>
</g>
<!-- Node9&#45;&gt;Node17 -->
<g id="edge18_Node000009_Node000017" class="edge">
<title>Node9&#45;&gt;Node17</title>
<g id="a_edge18_Node000009_Node000017"><a xlink:title=" ">
<path fill="none" stroke="#63b8ff" d="M266.34,-111.59C244.31,-102.97 211.45,-90.12 186.67,-80.42"/>
<polygon fill="#63b8ff" stroke="#63b8ff" points="188.19,-76.86 177.6,-76.48 185.64,-83.38 188.19,-76.86"/>
</a>
</g>
</g>
<!-- Node11 -->
<g id="Node000011" class="node">
<title>Node11</title>
<g id="a_Node000011"><a xlink:href="../../d9/dd0/Platform_8h.html" target="_top" xlink:title=" ">
<polygon fill="white" stroke="#666666" points="498.5,-20 414.25,-20 414.25,0 498.5,0 498.5,-20"/>
<text text-anchor="middle" x="456.38" y="-6.5" font-family="Helvetica,sans-Serif" font-size="10.00">carla/Platform.h</text>
</a>
</g>
</g>
<!-- Node10&#45;&gt;Node11 -->
<g id="edge12_Node000010_Node000011" class="edge">
<title>Node10&#45;&gt;Node11</title>
<g id="a_edge12_Node000010_Node000011"><a xlink:title=" ">
<path fill="none" stroke="#63b8ff" d="M420.87,-55.59C426.72,-48.24 435.04,-37.8 442.15,-28.87"/>
<polygon fill="#63b8ff" stroke="#63b8ff" points="445.48,-31.3 448.97,-21.3 440,-26.94 445.48,-31.3"/>
</a>
</g>
</g>
<!-- Node12 -->
<g id="Node000012" class="node">
<title>Node12</title>
<g id="a_Node000012"><a xlink:title=" ">
<polygon fill="#e0e0e0" stroke="#999999" points="396.12,-20 342.62,-20 342.62,0 396.12,0 396.12,-20"/>
<text text-anchor="middle" x="369.38" y="-6.5" font-family="Helvetica,sans-Serif" font-size="10.00">iostream</text>
</a>
</g>
</g>
<!-- Node10&#45;&gt;Node12 -->
<g id="edge13_Node000010_Node000012" class="edge">
<title>Node10&#45;&gt;Node12</title>
<g id="a_edge13_Node000010_Node000012"><a xlink:title=" ">
<path fill="none" stroke="#63b8ff" d="M405.71,-55.59C399.65,-48.16 391.03,-37.58 383.7,-28.58"/>
<polygon fill="#63b8ff" stroke="#63b8ff" points="385.98,-26.84 376.95,-21.3 380.55,-31.26 385.98,-26.84"/>
</a>
</g>
</g>
<!-- Node21&#45;&gt;Node2 -->
<g id="edge27_Node000021_Node000002" class="edge">
<title>Node21&#45;&gt;Node2</title>
<g id="a_edge27_Node000021_Node000002"><a xlink:title=" ">
<path fill="none" stroke="#63b8ff" d="M378.84,-347.62C352.54,-337.57 310.56,-321.53 280.92,-310.2"/>
<polygon fill="#63b8ff" stroke="#63b8ff" points="282.58,-306.71 271.99,-306.41 280.08,-313.25 282.58,-306.71"/>
</a>
</g>
</g>
<!-- Node21&#45;&gt;Node7 -->
<g id="edge28_Node000021_Node000007" class="edge">
<title>Node21&#45;&gt;Node7</title>
<g id="a_edge28_Node000021_Node000007"><a xlink:title=" ">
<path fill="none" stroke="#63b8ff" d="M382.3,-347.54C368.46,-340.06 351.47,-328.19 343.38,-312 333.87,-292.99 343.83,-269.33 353.45,-253.29"/>
<polygon fill="#63b8ff" stroke="#63b8ff" points="356.71,-255.69 359.22,-245.4 350.84,-251.88 356.71,-255.69"/>
</a>
</g>
</g>
<!-- Node21&#45;&gt;Node8 -->
<g id="edge26_Node000021_Node000008" class="edge">
<title>Node21&#45;&gt;Node8</title>
<g id="a_edge26_Node000021_Node000008"><a xlink:title=" ">
<path fill="none" stroke="#63b8ff" d="M459.35,-351.22C514.8,-342.93 588.01,-323.54 562.38,-280 534.18,-232.1 474.16,-205.3 430.74,-191.53"/>
<polygon fill="#63b8ff" stroke="#63b8ff" points="431.95,-187.94 421.36,-188.39 429.92,-194.64 431.95,-187.94"/>
</a>
</g>
</g>
<!-- Node22 -->
<g id="Node000022" class="node">
<title>Node22</title>
<g id="a_Node000022"><a xlink:href="../../d9/da2/enable-ue4-macros_8h.html" target="_top" xlink:title=" ">
<polygon fill="white" stroke="#666666" points="454.88,-312 351.88,-312 351.88,-280 454.88,-280 454.88,-312"/>
<text text-anchor="start" x="359.88" y="-298.5" font-family="Helvetica,sans-Serif" font-size="10.00">compiler/enable&#45;ue4</text>
<text text-anchor="middle" x="403.38" y="-286.5" font-family="Helvetica,sans-Serif" font-size="10.00">&#45;macros.h</text>
</a>
</g>
</g>
<!-- Node21&#45;&gt;Node22 -->
<g id="edge29_Node000021_Node000022" class="edge">
<title>Node21&#45;&gt;Node22</title>
<g id="a_edge29_Node000021_Node000022"><a xlink:title=" ">
<path fill="none" stroke="#63b8ff" d="M403.38,-347.62C403.38,-341.02 403.38,-331.84 403.38,-323.11"/>
<polygon fill="#63b8ff" stroke="#63b8ff" points="406.88,-323.14 403.38,-313.14 399.88,-323.14 406.88,-323.14"/>
</a>
</g>
</g>
<!-- Node23 -->
<g id="Node000023" class="node">
<title>Node23</title>
<g id="a_Node000023"><a xlink:title=" ">
<polygon fill="#e0e0e0" stroke="#999999" points="553.62,-306 473.12,-306 473.12,-286 553.62,-286 553.62,-306"/>
<text text-anchor="middle" x="513.38" y="-292.5" font-family="Helvetica,sans-Serif" font-size="10.00">Math/Rotator.h</text>
</a>
</g>
</g>
<!-- Node21&#45;&gt;Node23 -->
<g id="edge30_Node000021_Node000023" class="edge">
<title>Node21&#45;&gt;Node23</title>
<g id="a_edge30_Node000021_Node000023"><a xlink:title=" ">
<path fill="none" stroke="#63b8ff" d="M420.56,-347.62C438.32,-337.94 466.28,-322.69 486.87,-311.46"/>
<polygon fill="#63b8ff" stroke="#63b8ff" points="488.21,-314.17 495.31,-306.31 484.85,-308.03 488.21,-314.17"/>
</a>
</g>
</g>
<!-- Node24 -->
<g id="Node000024" class="node">
<title>Node24</title>
<g id="a_Node000024"><a xlink:href="../../d2/d02/disable-ue4-macros_8h.html" target="_top" xlink:title=" ">
<polygon fill="white" stroke="#666666" points="732,-312 626.75,-312 626.75,-280 732,-280 732,-312"/>
<text text-anchor="start" x="634.75" y="-298.5" font-family="Helvetica,sans-Serif" font-size="10.00">compiler/disable&#45;ue4</text>
<text text-anchor="middle" x="679.38" y="-286.5" font-family="Helvetica,sans-Serif" font-size="10.00">&#45;macros.h</text>
</a>
</g>
</g>
<!-- Node21&#45;&gt;Node24 -->
<g id="edge31_Node000021_Node000024" class="edge">
<title>Node21&#45;&gt;Node24</title>
<g id="a_edge31_Node000021_Node000024"><a xlink:title=" ">
<path fill="none" stroke="#63b8ff" d="M446.8,-347.56C492.16,-337.7 563.77,-322.13 615.55,-310.88"/>
<polygon fill="#63b8ff" stroke="#63b8ff" points="616.25,-314.09 625.28,-308.54 614.77,-307.25 616.25,-314.09"/>
</a>
</g>
</g>
<!-- Node25 -->
<g id="Node000025" class="node">
<title>Node25</title>
<g id="a_Node000025"><a xlink:href="../../d7/d7d/Carla_8h.html" target="_top" xlink:title=" ">
<polygon fill="white" stroke="#666666" points="710.75,-244 664,-244 664,-224 710.75,-224 710.75,-244"/>
<text text-anchor="middle" x="687.38" y="-230.5" font-family="Helvetica,sans-Serif" font-size="10.00">Carla.h</text>
</a>
</g>
</g>
<!-- Node24&#45;&gt;Node25 -->
<g id="edge32_Node000024_Node000025" class="edge">
<title>Node24&#45;&gt;Node25</title>
<g id="a_edge32_Node000024_Node000025"><a xlink:title=" ">
<path fill="none" stroke="#63b8ff" d="M681.44,-279.55C682.43,-272.08 683.64,-263.03 684.7,-255.04"/>
<polygon fill="#63b8ff" stroke="#63b8ff" points="688.27,-255.78 686.12,-245.41 681.33,-254.86 688.27,-255.78"/>
</a>
</g>
</g>
<!-- Node26 -->
<g id="Node000026" class="node">
<title>Node26</title>
<g id="a_Node000026"><a xlink:href="../../d4/d57/Unreal_2CarlaUE4_2Plugins_2Carla_2Source_2Carla_2Util_2NonCopyable_8h.html" target="_top" xlink:title=" ">
<polygon fill="white" stroke="#666666" points="742,-188 642.75,-188 642.75,-168 742,-168 742,-188"/>
<text text-anchor="middle" x="692.38" y="-174.5" font-family="Helvetica,sans-Serif" font-size="10.00">Util/NonCopyable.h</text>
</a>
</g>
</g>
<!-- Node25&#45;&gt;Node26 -->
<g id="edge33_Node000025_Node000026" class="edge">
<title>Node25&#45;&gt;Node26</title>
<g id="a_edge33_Node000025_Node000026"><a xlink:title=" ">
<path fill="none" stroke="#63b8ff" d="M688.25,-223.59C688.87,-216.86 689.73,-207.53 690.51,-199.15"/>
<polygon fill="#63b8ff" stroke="#63b8ff" points="694.08,-199.58 691.51,-189.3 687.11,-198.93 694.08,-199.58"/>
</a>
</g>
</g>
<!-- Node27 -->
<g id="Node000027" class="node">
<title>Node27</title>
<g id="a_Node000027"><a xlink:title=" ">
<polygon fill="#e0e0e0" stroke="#999999" points="868.88,-188 759.88,-188 759.88,-168 868.88,-168 868.88,-188"/>
<text text-anchor="middle" x="814.38" y="-174.5" font-family="Helvetica,sans-Serif" font-size="10.00">Logging/LogMacros.h</text>
</a>
</g>
</g>
<!-- Node25&#45;&gt;Node27 -->
<g id="edge34_Node000025_Node000027" class="edge">
<title>Node25&#45;&gt;Node27</title>
<g id="a_edge34_Node000025_Node000027"><a xlink:title=" ">
<path fill="none" stroke="#63b8ff" d="M709.5,-223.59C729.59,-215.05 759.47,-202.35 782.2,-192.68"/>
<polygon fill="#63b8ff" stroke="#63b8ff" points="783.25,-195.61 791.08,-188.48 780.51,-189.17 783.25,-195.61"/>
</a>
</g>
</g>
<!-- Node28 -->
<g id="Node000028" class="node">
<title>Node28</title>
<g id="a_Node000028"><a xlink:title=" ">
<polygon fill="#e0e0e0" stroke="#999999" points="624.5,-188 492.25,-188 492.25,-168 624.5,-168 624.5,-188"/>
<text text-anchor="middle" x="558.38" y="-174.5" font-family="Helvetica,sans-Serif" font-size="10.00">Modules/ModuleInterface.h</text>
</a>
</g>
</g>
<!-- Node25&#45;&gt;Node28 -->
<g id="edge35_Node000025_Node000028" class="edge">
<title>Node25&#45;&gt;Node28</title>
<g id="a_edge35_Node000025_Node000028"><a xlink:title=" ">
<path fill="none" stroke="#63b8ff" d="M664.9,-223.59C644.5,-215.05 614.15,-202.35 591.06,-192.68"/>
<polygon fill="#63b8ff" stroke="#63b8ff" points="592.6,-189.11 582.02,-188.48 589.89,-195.57 592.6,-189.11"/>
</a>
</g>
</g>
</g>
</svg>

<g id="navigator" transform="translate(0 0)" fill="#404254">
  <rect fill="#f2f5e9" fill-opacity="0.5" stroke="#606060" stroke-width=".5" x="0" y="0" width="60" height="60"/>
  <use id="zoomplus" xlink:href="#zoomPlus" x="17" y="9" onmousedown="handleZoom(evt,'in')"/>
  <use id="zoomminus" xlink:href="#zoomMin" x="42" y="9" onmousedown="handleZoom(evt,'out')"/>
  <use id="reset" xlink:href="#resetDef" x="30" y="36" onmousedown="handleReset()"/>
   <use id="arrowup" xlink:href="#arrowUp" x="0" y="0" onmousedown="handlePan(0,-1)"/>
  <use id="arrowright" xlink:href="#arrowRight" x="0" y="0" onmousedown="handlePan(1,0)"/>
  <use id="arrowdown" xlink:href="#arrowDown" x="0" y="0" onmousedown="handlePan(0,1)"/>
  <use id="arrowleft" xlink:href="#arrowLeft" x="0" y="0" onmousedown="handlePan(-1,0)"/>
</g>
<svg viewBox="0 0 15 15" width="100%" height="30px" preserveAspectRatio="xMaxYMin meet">
 <g id="arrow_out" transform="scale(0.3 0.3)">
  <a xlink:href="Math_8cpp__incl_org.svg" target="_base">
   <rect id="button" ry="5" rx="5" y="6" x="6" height="38" width="38"
        fill="#f2f5e9" fill-opacity="0.5" stroke="#606060" stroke-width="1.0"/>
   <path id="arrow"
     d="M 11.500037,31.436501 C 11.940474,20.09759 22.043105,11.32322 32.158766,21.979434 L 37.068811,17.246167 C 37.068811,17.246167 37.088388,32 37.088388,32 L 22.160133,31.978069 C 22.160133,31.978069 26.997745,27.140456 26.997745,27.140456 C 18.528582,18.264221 13.291696,25.230495 11.500037,31.436501 z"
     style="fill:#404040;"/>
  </a>
 </g>
</svg>

<style type='text/css'>
<![CDATA[
[data-mouse-over-selected='false'] { opacity: 0.7; }
[data-mouse-over-selected='true']  { opacity: 1.0; }
]]>
</style>
<script type="application/ecmascript"><![CDATA[
document.addEventListener('DOMContentLoaded', (event) => {
  highlightEdges();
  highlightAdjacentNodes();
});
]]></script>
</svg>
