<?xml version="1.0" encoding="UTF-8" standalone="no"?>
<!DOCTYPE svg PUBLIC "-//W3C//DTD SVG 1.1//EN"
 "http://www.w3.org/Graphics/SVG/1.1/DTD/svg11.dtd">
<!-- Generated by graphviz version 8.1.0 (20230707.0739)
 -->
<!-- Title: carla::traffic_manager::SimulationState::GetDimensions Pages: 1 -->
<!--zoomable 156 -->

<svg id="main" version="1.1" xmlns="http://www.w3.org/2000/svg" xmlns:xlink="http://www.w3.org/1999/xlink" xml:space="preserve" onload="init(evt)">
<style type="text/css"><![CDATA[
.node, .edge {opacity: 0.7;}
.node.selected, .edge.selected {opacity: 1;}
.edge:hover path { stroke: red; }
.edge:hover polygon { stroke: red; fill: red; }
]]></style>

<defs>
  <circle id="rim" cx="0" cy="0" r="7"/>
  <circle id="rim2" cx="0" cy="0" r="3.5"/>
  <g id="zoomPlus">
    <use xlink:href="#rim" fill="#404040"><set attributeName="fill" to="#808080" begin="zoomplus.mouseover" end="zoomplus.mouseout"/></use>
    <path d="M-4,0h8M0,-4v8" fill="none" stroke="white" stroke-width="1.5" pointer-events="none"/>
  </g>
  <g id="zoomMin">
    <use xlink:href="#rim" fill="#404040"><set attributeName="fill" to="#808080" begin="zoomminus.mouseover" end="zoomminus.mouseout"/></use>
    <path d="M-4,0h8" fill="none" stroke="white" stroke-width="1.5" pointer-events="none"/>
  </g>
  <g id="arrowUp" transform="translate(30 24)">
    <use xlink:href="#rim"/>
    <path pointer-events="none" fill="none" stroke="white" stroke-width="1.5" d="M0,-3.0v7 M-2.5,-0.5L0,-3.0L2.5,-0.5"/>
  </g>
  <g id="arrowRight" transform="rotate(90) translate(36 -43)">
    <use xlink:href="#rim"/>
    <path pointer-events="none" fill="none" stroke="white" stroke-width="1.5" d="M0,-3.0v7 M-2.5,-0.5L0,-3.0L2.5,-0.5"/>
  </g>
  <g id="arrowDown" transform="rotate(180) translate(-30 -48)">
    <use xlink:href="#rim"/>
    <path pointer-events="none" fill="none" stroke="white" stroke-width="1.5" d="M0,-3.0v7 M-2.5,-0.5L0,-3.0L2.5,-0.5"/>
  </g>
  <g id="arrowLeft" transform="rotate(270) translate(-36 17)">
    <use xlink:href="#rim"/>
    <path pointer-events="none" fill="none" stroke="white" stroke-width="1.5" d="M0,-3.0v7 M-2.5,-0.5L0,-3.0L2.5,-0.5"/>
  </g>
  <g id="resetDef">
    <use xlink:href="#rim2" fill="#404040"><set attributeName="fill" to="#808080" begin="reset.mouseover" end="reset.mouseout"/></use>
  </g>
</defs>
<script type="application/ecmascript">
var viewWidth = 1542;
var viewHeight = 156;
var sectionId = 'dynsection-2';
</script>
<script type="application/ecmascript" xlink:href="../../svg.min.js"/>
<svg id="graph" class="graph">
<g id="viewport">
<title>carla::traffic_manager::SimulationState::GetDimensions</title>
<!-- Node1 -->
<g id="Node000001" class="node">
<title>Node1</title>
<g id="a_Node000001"><a xlink:title=" ">
<polygon fill="#999999" stroke="#666666" points="1533.75,-76 1370,-76 1370,-44 1533.75,-44 1533.75,-76"/>
<text text-anchor="start" x="1378" y="-62.5" font-family="Helvetica,sans-Serif" font-size="10.00">carla::traffic_manager</text>
<text text-anchor="middle" x="1451.88" y="-50.5" font-family="Helvetica,sans-Serif" font-size="10.00">::SimulationState::GetDimensions</text>
</a>
</g>
</g>
<!-- Node2 -->
<g id="Node000002" class="node">
<title>Node2</title>
<g id="a_Node000002"><a xlink:href="../../d1/d26/classcarla_1_1traffic__manager_1_1CollisionStage.html#a868ceb22e38362b0c6d01bf0d5ea36cc" target="_top" xlink:title=" ">
<polygon fill="white" stroke="#666666" points="1334,-98 1186.75,-98 1186.75,-66 1334,-66 1334,-98"/>
<text text-anchor="start" x="1194.75" y="-84.5" font-family="Helvetica,sans-Serif" font-size="10.00">carla::traffic_manager</text>
<text text-anchor="middle" x="1260.38" y="-72.5" font-family="Helvetica,sans-Serif" font-size="10.00">::CollisionStage::GetBoundary</text>
</a>
</g>
</g>
<!-- Node1&#45;&gt;Node2 -->
<g id="edge1_Node000001_Node000002" class="edge">
<title>Node1&#45;&gt;Node2</title>
<g id="a_edge1_Node000001_Node000002"><a xlink:title=" ">
<path fill="none" stroke="#63b8ff" d="M1358.88,-70.68C1350.64,-71.64 1342.37,-72.6 1334.32,-73.53"/>
<polygon fill="#63b8ff" stroke="#63b8ff" points="1359.16,-74.06 1368.69,-69.43 1358.35,-67.1 1359.16,-74.06"/>
</a>
</g>
</g>
<!-- Node3 -->
<g id="Node000003" class="node">
<title>Node3</title>
<g id="a_Node000003"><a xlink:href="../../d1/d26/classcarla_1_1traffic__manager_1_1CollisionStage.html#a45e850204e542a9c51cf202fc0bc5854" target="_top" xlink:title=" ">
<polygon fill="white" stroke="#666666" points="1150.75,-148 1003.5,-148 1003.5,-104 1150.75,-104 1150.75,-148"/>
<text text-anchor="start" x="1011.5" y="-134.5" font-family="Helvetica,sans-Serif" font-size="10.00">carla::traffic_manager</text>
<text text-anchor="start" x="1011.5" y="-122.5" font-family="Helvetica,sans-Serif" font-size="10.00">::CollisionStage::GetGeodesic</text>
<text text-anchor="middle" x="1077.12" y="-110.5" font-family="Helvetica,sans-Serif" font-size="10.00">Boundary</text>
</a>
</g>
</g>
<!-- Node1&#45;&gt;Node3 -->
<g id="edge10_Node000001_Node000003" class="edge">
<title>Node1&#45;&gt;Node3</title>
<g id="a_edge10_Node000001_Node000003"><a xlink:title=" ">
<path fill="none" stroke="#63b8ff" d="M1408.14,-80.88C1386.45,-90.52 1359.38,-101.11 1334,-107 1273.36,-121.08 1202.68,-125.45 1150.98,-126.52"/>
<polygon fill="#63b8ff" stroke="#63b8ff" points="1409.35,-83.72 1417.01,-76.4 1406.46,-77.35 1409.35,-83.72"/>
</a>
</g>
</g>
<!-- Node5 -->
<g id="Node000005" class="node">
<title>Node5</title>
<g id="a_Node000005"><a xlink:href="../../d1/d26/classcarla_1_1traffic__manager_1_1CollisionStage.html#af9c0740908fbcb2f077fb513224b2b4e" target="_top" xlink:title=" ">
<polygon fill="white" stroke="#666666" points="782.75,-60 614.5,-60 614.5,-28 782.75,-28 782.75,-60"/>
<text text-anchor="start" x="622.5" y="-46.5" font-family="Helvetica,sans-Serif" font-size="10.00">carla::traffic_manager</text>
<text text-anchor="middle" x="698.62" y="-34.5" font-family="Helvetica,sans-Serif" font-size="10.00">::CollisionStage::NegotiateCollision</text>
</a>
</g>
</g>
<!-- Node1&#45;&gt;Node5 -->
<g id="edge11_Node000001_Node000005" class="edge">
<title>Node1&#45;&gt;Node5</title>
<g id="a_edge11_Node000001_Node000005"><a xlink:title=" ">
<path fill="none" stroke="#63b8ff" d="M1359.05,-57.6C1350.58,-57.39 1342.13,-57.19 1334,-57 1136.46,-52.44 904.29,-47.89 783.01,-45.57"/>
<polygon fill="#63b8ff" stroke="#63b8ff" points="1358.69,-61.11 1368.77,-57.86 1358.86,-54.12 1358.69,-61.11"/>
</a>
</g>
</g>
<!-- Node6 -->
<g id="Node000006" class="node">
<title>Node6</title>
<g id="a_Node000006"><a xlink:href="../../d1/d26/classcarla_1_1traffic__manager_1_1CollisionStage.html#ac446efd585519bce8de5740158758158" target="_top" xlink:title="更新方法。">
<polygon fill="white" stroke="#666666" points="578.5,-38 457.5,-38 457.5,-6 578.5,-6 578.5,-38"/>
<text text-anchor="start" x="465.5" y="-24.5" font-family="Helvetica,sans-Serif" font-size="10.00">carla::traffic_manager</text>
<text text-anchor="middle" x="518" y="-12.5" font-family="Helvetica,sans-Serif" font-size="10.00">::CollisionStage::Update</text>
</a>
</g>
</g>
<!-- Node1&#45;&gt;Node6 -->
<g id="edge12_Node000001_Node000006" class="edge">
<title>Node1&#45;&gt;Node6</title>
<g id="a_edge12_Node000001_Node000006"><a xlink:title=" ">
<path fill="none" stroke="#63b8ff" d="M1377.48,-41.09C1302.71,-23.5 1183.14,0 1078.12,0 1078.12,0 1078.12,0 892.12,0 781.32,0 652.33,-9.79 578.71,-16.31"/>
<polygon fill="#63b8ff" stroke="#63b8ff" points="1376.19,-44.61 1386.73,-43.53 1377.81,-37.8 1376.19,-44.61"/>
</a>
</g>
</g>
<!-- Node2&#45;&gt;Node3 -->
<g id="edge2_Node000002_Node000003" class="edge">
<title>Node2&#45;&gt;Node3</title>
<g id="a_edge2_Node000002_Node000003"><a xlink:title=" ">
<path fill="none" stroke="#63b8ff" d="M1181.24,-100.97C1171.19,-103.41 1160.92,-105.9 1150.95,-108.32"/>
<polygon fill="#63b8ff" stroke="#63b8ff" points="1181.73,-104.21 1190.63,-98.45 1180.08,-97.4 1181.73,-104.21"/>
</a>
</g>
</g>
<!-- Node4 -->
<g id="Node000004" class="node">
<title>Node4</title>
<g id="a_Node000004"><a xlink:href="../../d1/d26/classcarla_1_1traffic__manager_1_1CollisionStage.html#a383f31bbf925c84040ef66592dd6e56e" target="_top" xlink:title=" ">
<polygon fill="white" stroke="#666666" points="967.5,-110 818.75,-110 818.75,-66 967.5,-66 967.5,-110"/>
<text text-anchor="start" x="826.75" y="-96.5" font-family="Helvetica,sans-Serif" font-size="10.00">carla::traffic_manager</text>
<text text-anchor="start" x="826.75" y="-84.5" font-family="Helvetica,sans-Serif" font-size="10.00">::CollisionStage::GetGeometry</text>
<text text-anchor="middle" x="893.12" y="-72.5" font-family="Helvetica,sans-Serif" font-size="10.00">BetweenActors</text>
</a>
</g>
</g>
<!-- Node2&#45;&gt;Node4 -->
<g id="edge9_Node000002_Node000004" class="edge">
<title>Node2&#45;&gt;Node4</title>
<g id="a_edge9_Node000002_Node000004"><a xlink:title=" ">
<path fill="none" stroke="#63b8ff" d="M1175.7,-83.37C1113.04,-84.4 1028.12,-85.8 967.97,-86.79"/>
<polygon fill="#63b8ff" stroke="#63b8ff" points="1175.4,-86.86 1185.34,-83.2 1175.28,-79.86 1175.4,-86.86"/>
</a>
</g>
</g>
<!-- Node3&#45;&gt;Node4 -->
<g id="edge3_Node000003_Node000004" class="edge">
<title>Node3&#45;&gt;Node4</title>
<g id="a_edge3_Node000003_Node000004"><a xlink:title=" ">
<path fill="none" stroke="#63b8ff" d="M992.39,-108.52C984.15,-106.8 975.84,-105.06 967.71,-103.36"/>
<polygon fill="#63b8ff" stroke="#63b8ff" points="991.64,-112.15 1002.15,-110.76 993.07,-105.29 991.64,-112.15"/>
</a>
</g>
</g>
<!-- Node4&#45;&gt;Node5 -->
<g id="edge4_Node000004_Node000005" class="edge">
<title>Node4&#45;&gt;Node5</title>
<g id="a_edge4_Node000004_Node000005"><a xlink:title=" ">
<path fill="none" stroke="#63b8ff" d="M807.77,-68.72C795.75,-65.97 783.47,-63.17 771.72,-60.48"/>
<polygon fill="#63b8ff" stroke="#63b8ff" points="806.72,-72.3 817.25,-71.11 808.28,-65.47 806.72,-72.3"/>
</a>
</g>
</g>
<!-- Node5&#45;&gt;Node6 -->
<g id="edge5_Node000005_Node000006" class="edge">
<title>Node5&#45;&gt;Node6</title>
<g id="a_edge5_Node000005_Node000006"><a xlink:title=" ">
<path fill="none" stroke="#63b8ff" d="M603.18,-32.37C594.91,-31.35 586.69,-30.34 578.82,-29.37"/>
<polygon fill="#63b8ff" stroke="#63b8ff" points="602.71,-35.96 613.07,-33.71 603.57,-29.01 602.71,-35.96"/>
</a>
</g>
</g>
<!-- Node7 -->
<g id="Node000007" class="node">
<title>Node7</title>
<g id="a_Node000007"><a xlink:href="../../da/d0f/classcarla_1_1traffic__manager_1_1TrafficManagerLocal.html#a6d67cce3d0e5a48056645270364fe637" target="_top" xlink:title="启动线程以顺序运行交通管理器 &#160;&#160;此方法将创建一个新线程（如果尚未创建），并在该线程中顺序运行交通管理器的逻辑">
<polygon fill="white" stroke="#666666" points="421.5,-38 290,-38 290,-6 421.5,-6 421.5,-38"/>
<text text-anchor="start" x="298" y="-24.5" font-family="Helvetica,sans-Serif" font-size="10.00">carla::traffic_manager</text>
<text text-anchor="middle" x="355.75" y="-12.5" font-family="Helvetica,sans-Serif" font-size="10.00">::TrafficManagerLocal::Run</text>
</a>
</g>
</g>
<!-- Node6&#45;&gt;Node7 -->
<g id="edge6_Node000006_Node000007" class="edge">
<title>Node6&#45;&gt;Node7</title>
<g id="a_edge6_Node000006_Node000007"><a xlink:title=" ">
<path fill="none" stroke="#63b8ff" d="M446.34,-22C438.19,-22 429.92,-22 421.85,-22"/>
<polygon fill="#63b8ff" stroke="#63b8ff" points="446.33,-25.5 456.33,-22 446.33,-18.5 446.33,-25.5"/>
</a>
</g>
</g>
<!-- Node8 -->
<g id="Node000008" class="node">
<title>Node8</title>
<g id="a_Node000008"><a xlink:href="../../da/d0f/classcarla_1_1traffic__manager_1_1TrafficManagerLocal.html#a1ffbdb0bed64f385437d2820a90286d0" target="_top" xlink:title="启动交通管理器 &#160;&#160;此方法用于启动TrafficManagerLocal，开始其管理交通的功能">
<polygon fill="white" stroke="#666666" points="254,-44 145,-44 145,0 254,0 254,-44"/>
<text text-anchor="start" x="153" y="-30.5" font-family="Helvetica,sans-Serif" font-size="10.00">carla::traffic_manager</text>
<text text-anchor="start" x="153" y="-18.5" font-family="Helvetica,sans-Serif" font-size="10.00">::TrafficManagerLocal</text>
<text text-anchor="middle" x="199.5" y="-6.5" font-family="Helvetica,sans-Serif" font-size="10.00">::Start</text>
</a>
</g>
</g>
<!-- Node7&#45;&gt;Node8 -->
<g id="edge7_Node000007_Node000008" class="edge">
<title>Node7&#45;&gt;Node8</title>
<g id="a_edge7_Node000007_Node000008"><a xlink:title=" ">
<path fill="none" stroke="#63b8ff" d="M278.87,-22C270.53,-22 262.18,-22 254.19,-22"/>
<polygon fill="#63b8ff" stroke="#63b8ff" points="278.78,-25.5 288.78,-22 278.78,-18.5 278.78,-25.5"/>
</a>
</g>
</g>
<!-- Node9 -->
<g id="Node000009" class="node">
<title>Node9</title>
<g id="a_Node000009"><a xlink:href="../../da/d0f/classcarla_1_1traffic__manager_1_1TrafficManagerLocal.html#a75976d36f4213ab24e79e3ea2dcd280a" target="_top" xlink:title="私有构造函数，用于单例生命周期管理">
<polygon fill="white" stroke="#666666" points="109,-44 0,-44 0,0 109,0 109,-44"/>
<text text-anchor="start" x="8" y="-30.5" font-family="Helvetica,sans-Serif" font-size="10.00">carla::traffic_manager</text>
<text text-anchor="start" x="8" y="-18.5" font-family="Helvetica,sans-Serif" font-size="10.00">::TrafficManagerLocal</text>
<text text-anchor="middle" x="54.5" y="-6.5" font-family="Helvetica,sans-Serif" font-size="10.00">::TrafficManagerLocal</text>
</a>
</g>
</g>
<!-- Node8&#45;&gt;Node9 -->
<g id="edge8_Node000008_Node000009" class="edge">
<title>Node8&#45;&gt;Node9</title>
<g id="a_edge8_Node000008_Node000009"><a xlink:title=" ">
<path fill="none" stroke="#63b8ff" d="M134.12,-22C125.88,-22 117.51,-22 109.46,-22"/>
<polygon fill="#63b8ff" stroke="#63b8ff" points="133.85,-25.5 143.85,-22 133.85,-18.5 133.85,-25.5"/>
</a>
</g>
</g>
</g>
</svg>

<g id="navigator" transform="translate(0 0)" fill="#404254">
  <rect fill="#f2f5e9" fill-opacity="0.5" stroke="#606060" stroke-width=".5" x="0" y="0" width="60" height="60"/>
  <use id="zoomplus" xlink:href="#zoomPlus" x="17" y="9" onmousedown="handleZoom(evt,'in')"/>
  <use id="zoomminus" xlink:href="#zoomMin" x="42" y="9" onmousedown="handleZoom(evt,'out')"/>
  <use id="reset" xlink:href="#resetDef" x="30" y="36" onmousedown="handleReset()"/>
   <use id="arrowup" xlink:href="#arrowUp" x="0" y="0" onmousedown="handlePan(0,-1)"/>
  <use id="arrowright" xlink:href="#arrowRight" x="0" y="0" onmousedown="handlePan(1,0)"/>
  <use id="arrowdown" xlink:href="#arrowDown" x="0" y="0" onmousedown="handlePan(0,1)"/>
  <use id="arrowleft" xlink:href="#arrowLeft" x="0" y="0" onmousedown="handlePan(-1,0)"/>
</g>
<svg viewBox="0 0 15 15" width="100%" height="30px" preserveAspectRatio="xMaxYMin meet">
 <g id="arrow_out" transform="scale(0.3 0.3)">
  <a xlink:href="classcarla_1_1traffic__manager_1_1SimulationState_ad6ddbe9d9c32c09b56ca9ac2a0476c4f_icgraph_org.svg" target="_base">
   <rect id="button" ry="5" rx="5" y="6" x="6" height="38" width="38"
        fill="#f2f5e9" fill-opacity="0.5" stroke="#606060" stroke-width="1.0"/>
   <path id="arrow"
     d="M 11.500037,31.436501 C 11.940474,20.09759 22.043105,11.32322 32.158766,21.979434 L 37.068811,17.246167 C 37.068811,17.246167 37.088388,32 37.088388,32 L 22.160133,31.978069 C 22.160133,31.978069 26.997745,27.140456 26.997745,27.140456 C 18.528582,18.264221 13.291696,25.230495 11.500037,31.436501 z"
     style="fill:#404040;"/>
  </a>
 </g>
</svg>

<style type='text/css'>
<![CDATA[
[data-mouse-over-selected='false'] { opacity: 0.7; }
[data-mouse-over-selected='true']  { opacity: 1.0; }
]]>
</style>
<script type="application/ecmascript"><![CDATA[
document.addEventListener('DOMContentLoaded', (event) => {
  highlightEdges();
  highlightAdjacentNodes();
});
]]></script>
</svg>
