<?xml version="1.0" encoding="UTF-8" standalone="no"?>
<!DOCTYPE svg PUBLIC "-//W3C//DTD SVG 1.1//EN"
 "http://www.w3.org/Graphics/SVG/1.1/DTD/svg11.dtd">
<!-- Generated by graphviz version 8.1.0 (20230707.0739)
 -->
<!-- Title: carla::traffic_manager::SimulationState::GetHeading Pages: 1 -->
<!--zoomable 378 -->

<svg id="main" version="1.1" xmlns="http://www.w3.org/2000/svg" xmlns:xlink="http://www.w3.org/1999/xlink" xml:space="preserve" onload="init(evt)">
<style type="text/css"><![CDATA[
.node, .edge {opacity: 0.7;}
.node.selected, .edge.selected {opacity: 1;}
.edge:hover path { stroke: red; }
.edge:hover polygon { stroke: red; fill: red; }
]]></style>

<defs>
  <circle id="rim" cx="0" cy="0" r="7"/>
  <circle id="rim2" cx="0" cy="0" r="3.5"/>
  <g id="zoomPlus">
    <use xlink:href="#rim" fill="#404040"><set attributeName="fill" to="#808080" begin="zoomplus.mouseover" end="zoomplus.mouseout"/></use>
    <path d="M-4,0h8M0,-4v8" fill="none" stroke="white" stroke-width="1.5" pointer-events="none"/>
  </g>
  <g id="zoomMin">
    <use xlink:href="#rim" fill="#404040"><set attributeName="fill" to="#808080" begin="zoomminus.mouseover" end="zoomminus.mouseout"/></use>
    <path d="M-4,0h8" fill="none" stroke="white" stroke-width="1.5" pointer-events="none"/>
  </g>
  <g id="arrowUp" transform="translate(30 24)">
    <use xlink:href="#rim"/>
    <path pointer-events="none" fill="none" stroke="white" stroke-width="1.5" d="M0,-3.0v7 M-2.5,-0.5L0,-3.0L2.5,-0.5"/>
  </g>
  <g id="arrowRight" transform="rotate(90) translate(36 -43)">
    <use xlink:href="#rim"/>
    <path pointer-events="none" fill="none" stroke="white" stroke-width="1.5" d="M0,-3.0v7 M-2.5,-0.5L0,-3.0L2.5,-0.5"/>
  </g>
  <g id="arrowDown" transform="rotate(180) translate(-30 -48)">
    <use xlink:href="#rim"/>
    <path pointer-events="none" fill="none" stroke="white" stroke-width="1.5" d="M0,-3.0v7 M-2.5,-0.5L0,-3.0L2.5,-0.5"/>
  </g>
  <g id="arrowLeft" transform="rotate(270) translate(-36 17)">
    <use xlink:href="#rim"/>
    <path pointer-events="none" fill="none" stroke="white" stroke-width="1.5" d="M0,-3.0v7 M-2.5,-0.5L0,-3.0L2.5,-0.5"/>
  </g>
  <g id="resetDef">
    <use xlink:href="#rim2" fill="#404040"><set attributeName="fill" to="#808080" begin="reset.mouseover" end="reset.mouseout"/></use>
  </g>
</defs>
<script type="application/ecmascript">
var viewWidth = 1526;
var viewHeight = 378;
var sectionId = 'dynsection-3';
</script>
<script type="application/ecmascript" xlink:href="../../svg.min.js"/>
<svg id="graph" class="graph">
<g id="viewport">
<title>carla::traffic_manager::SimulationState::GetHeading</title>
<!-- Node1 -->
<g id="Node000001" class="node">
<title>Node1</title>
<g id="a_Node000001"><a xlink:title=" ">
<polygon fill="#999999" stroke="#666666" points="1518,-202 1370,-202 1370,-170 1518,-170 1518,-202"/>
<text text-anchor="start" x="1378" y="-188.5" font-family="Helvetica,sans-Serif" font-size="10.00">carla::traffic_manager</text>
<text text-anchor="middle" x="1444" y="-176.5" font-family="Helvetica,sans-Serif" font-size="10.00">::SimulationState::GetHeading</text>
</a>
</g>
</g>
<!-- Node2 -->
<g id="Node000002" class="node">
<title>Node2</title>
<g id="a_Node000002"><a xlink:href="../../d6/da2/classcarla_1_1traffic__manager_1_1LocalizationStage.html#a1a835123f13a99787a4a15704073f762" target="_top" xlink:title=" ">
<polygon fill="white" stroke="#666666" points="1332.5,-370 1188.25,-370 1188.25,-326 1332.5,-326 1332.5,-370"/>
<text text-anchor="start" x="1196.25" y="-356.5" font-family="Helvetica,sans-Serif" font-size="10.00">carla::traffic_manager</text>
<text text-anchor="start" x="1196.25" y="-344.5" font-family="Helvetica,sans-Serif" font-size="10.00">::LocalizationStage::Compute</text>
<text text-anchor="middle" x="1260.38" y="-332.5" font-family="Helvetica,sans-Serif" font-size="10.00">ActionBuffer</text>
</a>
</g>
</g>
<!-- Node1&#45;&gt;Node2 -->
<g id="edge1_Node000001_Node000002" class="edge">
<title>Node1&#45;&gt;Node2</title>
<g id="a_edge1_Node000001_Node000002"><a xlink:title=" ">
<path fill="none" stroke="#63b8ff" d="M1427.35,-211.27C1408.35,-240.17 1373.87,-287.31 1334,-317 1329.82,-320.11 1325.28,-322.98 1320.59,-325.62"/>
<polygon fill="#63b8ff" stroke="#63b8ff" points="1430.71,-213.52 1433.18,-203.22 1424.82,-209.73 1430.71,-213.52"/>
</a>
</g>
</g>
<!-- Node3 -->
<g id="Node000003" class="node">
<title>Node3</title>
<g id="a_Node000003"><a xlink:href="../../d6/da2/classcarla_1_1traffic__manager_1_1LocalizationStage.html#a6310665dc1f4d6d28f5f3047478ee994" target="_top" xlink:title=" ">
<polygon fill="white" stroke="#666666" points="1332.5,-308 1188.25,-308 1188.25,-264 1332.5,-264 1332.5,-308"/>
<text text-anchor="start" x="1196.25" y="-294.5" font-family="Helvetica,sans-Serif" font-size="10.00">carla::traffic_manager</text>
<text text-anchor="start" x="1196.25" y="-282.5" font-family="Helvetica,sans-Serif" font-size="10.00">::LocalizationStage::Compute</text>
<text text-anchor="middle" x="1260.38" y="-270.5" font-family="Helvetica,sans-Serif" font-size="10.00">NextAction</text>
</a>
</g>
</g>
<!-- Node1&#45;&gt;Node3 -->
<g id="edge2_Node000001_Node000003" class="edge">
<title>Node1&#45;&gt;Node3</title>
<g id="a_edge2_Node000001_Node000003"><a xlink:title=" ">
<path fill="none" stroke="#63b8ff" d="M1407.2,-207.88C1386.11,-220.56 1358.78,-236.61 1334,-250 1325.58,-254.55 1316.51,-259.22 1307.73,-263.63"/>
<polygon fill="#63b8ff" stroke="#63b8ff" points="1408.67,-210.48 1415.42,-202.31 1405.05,-204.49 1408.67,-210.48"/>
</a>
</g>
</g>
<!-- Node4 -->
<g id="Node000004" class="node">
<title>Node4</title>
<g id="a_Node000004"><a xlink:href="../../d1/d26/classcarla_1_1traffic__manager_1_1CollisionStage.html#a868ceb22e38362b0c6d01bf0d5ea36cc" target="_top" xlink:title=" ">
<polygon fill="white" stroke="#666666" points="1334,-146 1186.75,-146 1186.75,-114 1334,-114 1334,-146"/>
<text text-anchor="start" x="1194.75" y="-132.5" font-family="Helvetica,sans-Serif" font-size="10.00">carla::traffic_manager</text>
<text text-anchor="middle" x="1260.38" y="-120.5" font-family="Helvetica,sans-Serif" font-size="10.00">::CollisionStage::GetBoundary</text>
</a>
</g>
</g>
<!-- Node1&#45;&gt;Node4 -->
<g id="edge3_Node000001_Node000004" class="edge">
<title>Node1&#45;&gt;Node4</title>
<g id="a_edge3_Node000001_Node000004"><a xlink:title=" ">
<path fill="none" stroke="#63b8ff" d="M1379.05,-166.28C1358.05,-159.81 1334.95,-152.69 1314.82,-146.48"/>
<polygon fill="#63b8ff" stroke="#63b8ff" points="1377.9,-169.9 1388.49,-169.5 1379.96,-163.21 1377.9,-169.9"/>
</a>
</g>
</g>
<!-- Node7 -->
<g id="Node000007" class="node">
<title>Node7</title>
<g id="a_Node000007"><a xlink:href="../../d1/d26/classcarla_1_1traffic__manager_1_1CollisionStage.html#af9c0740908fbcb2f077fb513224b2b4e" target="_top" xlink:title=" ">
<polygon fill="white" stroke="#666666" points="782.75,-189 614.5,-189 614.5,-157 782.75,-157 782.75,-189"/>
<text text-anchor="start" x="622.5" y="-175.5" font-family="Helvetica,sans-Serif" font-size="10.00">carla::traffic_manager</text>
<text text-anchor="middle" x="698.62" y="-163.5" font-family="Helvetica,sans-Serif" font-size="10.00">::CollisionStage::NegotiateCollision</text>
</a>
</g>
</g>
<!-- Node1&#45;&gt;Node7 -->
<g id="edge15_Node000001_Node000007" class="edge">
<title>Node1&#45;&gt;Node7</title>
<g id="a_edge15_Node000001_Node000007"><a xlink:title=" ">
<path fill="none" stroke="#63b8ff" d="M1385.35,-205.61C1368.95,-210.3 1350.94,-214.64 1334,-217 1136.91,-244.48 902.87,-211.45 781.62,-189.5"/>
<polygon fill="#63b8ff" stroke="#63b8ff" points="1386.27,-208.69 1394.86,-202.49 1384.28,-201.98 1386.27,-208.69"/>
</a>
</g>
</g>
<!-- Node12 -->
<g id="Node000012" class="node">
<title>Node12</title>
<g id="a_Node000012"><a xlink:href="../../d1/d26/classcarla_1_1traffic__manager_1_1CollisionStage.html#a890933fec8a10a86d9eb67c91b21abe1" target="_top" xlink:title=" ">
<polygon fill="white" stroke="#666666" points="1333.62,-208 1187.12,-208 1187.12,-164 1333.62,-164 1333.62,-208"/>
<text text-anchor="start" x="1195.12" y="-194.5" font-family="Helvetica,sans-Serif" font-size="10.00">carla::traffic_manager</text>
<text text-anchor="start" x="1195.12" y="-182.5" font-family="Helvetica,sans-Serif" font-size="10.00">::CollisionStage::GetBounding</text>
<text text-anchor="middle" x="1260.38" y="-170.5" font-family="Helvetica,sans-Serif" font-size="10.00">BoxExtention</text>
</a>
</g>
</g>
<!-- Node1&#45;&gt;Node12 -->
<g id="edge12_Node000001_Node000012" class="edge">
<title>Node1&#45;&gt;Node12</title>
<g id="a_edge12_Node000001_Node000012"><a xlink:title=" ">
<path fill="none" stroke="#63b8ff" d="M1358.85,-186C1350.59,-186 1342.25,-186 1334.11,-186"/>
<polygon fill="#63b8ff" stroke="#63b8ff" points="1358.65,-189.5 1368.65,-186 1358.65,-182.5 1358.65,-189.5"/>
</a>
</g>
</g>
<!-- Node13 -->
<g id="Node000013" class="node">
<title>Node13</title>
<g id="a_Node000013"><a xlink:href="../../dd/df9/classcarla_1_1traffic__manager_1_1MotionPlanStage.html#a7a57d649d96daccb2e2ee9780f24c4ec" target="_top" xlink:title="更新方法。">
<polygon fill="white" stroke="#666666" points="959.62,-76 826.62,-76 826.62,-44 959.62,-44 959.62,-76"/>
<text text-anchor="start" x="834.62" y="-62.5" font-family="Helvetica,sans-Serif" font-size="10.00">carla::traffic_manager</text>
<text text-anchor="middle" x="893.12" y="-50.5" font-family="Helvetica,sans-Serif" font-size="10.00">::MotionPlanStage::Update</text>
</a>
</g>
</g>
<!-- Node1&#45;&gt;Node13 -->
<g id="edge16_Node000001_Node000013" class="edge">
<title>Node1&#45;&gt;Node13</title>
<g id="a_edge16_Node000001_Node000013"><a xlink:title=" ">
<path fill="none" stroke="#63b8ff" d="M1419.13,-162.2C1398.47,-143.21 1366.84,-117.76 1334,-105 1208.42,-56.22 1048.29,-53.17 960,-56.08"/>
<polygon fill="#63b8ff" stroke="#63b8ff" points="1416.33,-164.32 1426.01,-168.63 1421.13,-159.23 1416.33,-164.32"/>
</a>
</g>
</g>
<!-- Node14 -->
<g id="Node000014" class="node">
<title>Node14</title>
<g id="a_Node000014"><a xlink:href="../../d6/da2/classcarla_1_1traffic__manager_1_1LocalizationStage.html#acf066b922ba5c21c6b6ee23d35731d91" target="_top" xlink:title="更新方法。">
<polygon fill="white" stroke="#666666" points="1145.12,-32 1009.12,-32 1009.12,0 1145.12,0 1145.12,-32"/>
<text text-anchor="start" x="1017.12" y="-18.5" font-family="Helvetica,sans-Serif" font-size="10.00">carla::traffic_manager</text>
<text text-anchor="middle" x="1077.12" y="-6.5" font-family="Helvetica,sans-Serif" font-size="10.00">::LocalizationStage::Update</text>
</a>
</g>
</g>
<!-- Node1&#45;&gt;Node14 -->
<g id="edge18_Node000001_Node000014" class="edge">
<title>Node1&#45;&gt;Node14</title>
<g id="a_edge18_Node000001_Node000014"><a xlink:title=" ">
<path fill="none" stroke="#63b8ff" d="M1430.77,-159.78C1413.98,-127.05 1380.5,-72.19 1334,-46 1276.32,-13.51 1199.82,-8.56 1145.53,-10.17"/>
<polygon fill="#63b8ff" stroke="#63b8ff" points="1428.05,-161.17 1435.63,-168.57 1434.32,-158.05 1428.05,-161.17"/>
</a>
</g>
</g>
<!-- Node5 -->
<g id="Node000005" class="node">
<title>Node5</title>
<g id="a_Node000005"><a xlink:href="../../d1/d26/classcarla_1_1traffic__manager_1_1CollisionStage.html#a45e850204e542a9c51cf202fc0bc5854" target="_top" xlink:title=" ">
<polygon fill="white" stroke="#666666" points="1150.75,-170 1003.5,-170 1003.5,-126 1150.75,-126 1150.75,-170"/>
<text text-anchor="start" x="1011.5" y="-156.5" font-family="Helvetica,sans-Serif" font-size="10.00">carla::traffic_manager</text>
<text text-anchor="start" x="1011.5" y="-144.5" font-family="Helvetica,sans-Serif" font-size="10.00">::CollisionStage::GetGeodesic</text>
<text text-anchor="middle" x="1077.12" y="-132.5" font-family="Helvetica,sans-Serif" font-size="10.00">Boundary</text>
</a>
</g>
</g>
<!-- Node4&#45;&gt;Node5 -->
<g id="edge4_Node000004_Node000005" class="edge">
<title>Node4&#45;&gt;Node5</title>
<g id="a_edge4_Node000004_Node000005"><a xlink:title=" ">
<path fill="none" stroke="#63b8ff" d="M1175.74,-138.31C1167.55,-139.12 1159.28,-139.94 1151.21,-140.74"/>
<polygon fill="#63b8ff" stroke="#63b8ff" points="1175.83,-141.71 1185.44,-137.24 1175.14,-134.75 1175.83,-141.71"/>
</a>
</g>
</g>
<!-- Node6 -->
<g id="Node000006" class="node">
<title>Node6</title>
<g id="a_Node000006"><a xlink:href="../../d1/d26/classcarla_1_1traffic__manager_1_1CollisionStage.html#a383f31bbf925c84040ef66592dd6e56e" target="_top" xlink:title=" ">
<polygon fill="white" stroke="#666666" points="967.5,-170 818.75,-170 818.75,-126 967.5,-126 967.5,-170"/>
<text text-anchor="start" x="826.75" y="-156.5" font-family="Helvetica,sans-Serif" font-size="10.00">carla::traffic_manager</text>
<text text-anchor="start" x="826.75" y="-144.5" font-family="Helvetica,sans-Serif" font-size="10.00">::CollisionStage::GetGeometry</text>
<text text-anchor="middle" x="893.12" y="-132.5" font-family="Helvetica,sans-Serif" font-size="10.00">BetweenActors</text>
</a>
</g>
</g>
<!-- Node4&#45;&gt;Node6 -->
<g id="edge11_Node000004_Node000006" class="edge">
<title>Node4&#45;&gt;Node6</title>
<g id="a_edge11_Node000004_Node000006"><a xlink:title=" ">
<path fill="none" stroke="#63b8ff" d="M1175.48,-117.81C1125.36,-112.49 1060.55,-109.07 1003.5,-117 990.01,-118.87 975.85,-121.99 962.35,-125.54"/>
<polygon fill="#63b8ff" stroke="#63b8ff" points="1174.94,-121.38 1185.26,-119 1175.71,-114.42 1174.94,-121.38"/>
</a>
</g>
</g>
<!-- Node5&#45;&gt;Node6 -->
<g id="edge5_Node000005_Node000006" class="edge">
<title>Node5&#45;&gt;Node6</title>
<g id="a_edge5_Node000005_Node000006"><a xlink:title=" ">
<path fill="none" stroke="#63b8ff" d="M992.39,-148C984.15,-148 975.84,-148 967.71,-148"/>
<polygon fill="#63b8ff" stroke="#63b8ff" points="992.15,-151.5 1002.15,-148 992.15,-144.5 992.15,-151.5"/>
</a>
</g>
</g>
<!-- Node6&#45;&gt;Node7 -->
<g id="edge6_Node000006_Node000007" class="edge">
<title>Node6&#45;&gt;Node7</title>
<g id="a_edge6_Node000006_Node000007"><a xlink:title=" ">
<path fill="none" stroke="#63b8ff" d="M807.58,-158.98C799.4,-160.04 791.1,-161.12 782.93,-162.18"/>
<polygon fill="#63b8ff" stroke="#63b8ff" points="807.78,-162.35 817.25,-157.59 806.88,-155.41 807.78,-162.35"/>
</a>
</g>
</g>
<!-- Node8 -->
<g id="Node000008" class="node">
<title>Node8</title>
<g id="a_Node000008"><a xlink:href="../../d1/d26/classcarla_1_1traffic__manager_1_1CollisionStage.html#ac446efd585519bce8de5740158758158" target="_top" xlink:title="更新方法。">
<polygon fill="white" stroke="#666666" points="578.5,-155 457.5,-155 457.5,-123 578.5,-123 578.5,-155"/>
<text text-anchor="start" x="465.5" y="-141.5" font-family="Helvetica,sans-Serif" font-size="10.00">carla::traffic_manager</text>
<text text-anchor="middle" x="518" y="-129.5" font-family="Helvetica,sans-Serif" font-size="10.00">::CollisionStage::Update</text>
</a>
</g>
</g>
<!-- Node7&#45;&gt;Node8 -->
<g id="edge7_Node000007_Node000008" class="edge">
<title>Node7&#45;&gt;Node8</title>
<g id="a_edge7_Node000007_Node000008"><a xlink:title=" ">
<path fill="none" stroke="#63b8ff" d="M603.46,-155.08C595.09,-153.48 586.78,-151.9 578.82,-150.39"/>
<polygon fill="#63b8ff" stroke="#63b8ff" points="602.59,-158.66 613.07,-157.1 603.9,-151.79 602.59,-158.66"/>
</a>
</g>
</g>
<!-- Node9 -->
<g id="Node000009" class="node">
<title>Node9</title>
<g id="a_Node000009"><a xlink:href="../../da/d0f/classcarla_1_1traffic__manager_1_1TrafficManagerLocal.html#a6d67cce3d0e5a48056645270364fe637" target="_top" xlink:title="启动线程以顺序运行交通管理器 &#160;&#160;此方法将创建一个新线程（如果尚未创建），并在该线程中顺序运行交通管理器的逻辑">
<polygon fill="white" stroke="#666666" points="421.5,-76 290,-76 290,-44 421.5,-44 421.5,-76"/>
<text text-anchor="start" x="298" y="-62.5" font-family="Helvetica,sans-Serif" font-size="10.00">carla::traffic_manager</text>
<text text-anchor="middle" x="355.75" y="-50.5" font-family="Helvetica,sans-Serif" font-size="10.00">::TrafficManagerLocal::Run</text>
</a>
</g>
</g>
<!-- Node8&#45;&gt;Node9 -->
<g id="edge8_Node000008_Node000009" class="edge">
<title>Node8&#45;&gt;Node9</title>
<g id="a_edge8_Node000008_Node000009"><a xlink:title=" ">
<path fill="none" stroke="#63b8ff" d="M474.08,-117.84C447.76,-104.86 414.55,-88.49 390.19,-76.48"/>
<polygon fill="#63b8ff" stroke="#63b8ff" points="472.28,-121.35 482.8,-122.63 475.37,-115.07 472.28,-121.35"/>
</a>
</g>
</g>
<!-- Node10 -->
<g id="Node000010" class="node">
<title>Node10</title>
<g id="a_Node000010"><a xlink:href="../../da/d0f/classcarla_1_1traffic__manager_1_1TrafficManagerLocal.html#a1ffbdb0bed64f385437d2820a90286d0" target="_top" xlink:title="启动交通管理器 &#160;&#160;此方法用于启动TrafficManagerLocal，开始其管理交通的功能">
<polygon fill="white" stroke="#666666" points="254,-82 145,-82 145,-38 254,-38 254,-82"/>
<text text-anchor="start" x="153" y="-68.5" font-family="Helvetica,sans-Serif" font-size="10.00">carla::traffic_manager</text>
<text text-anchor="start" x="153" y="-56.5" font-family="Helvetica,sans-Serif" font-size="10.00">::TrafficManagerLocal</text>
<text text-anchor="middle" x="199.5" y="-44.5" font-family="Helvetica,sans-Serif" font-size="10.00">::Start</text>
</a>
</g>
</g>
<!-- Node9&#45;&gt;Node10 -->
<g id="edge9_Node000009_Node000010" class="edge">
<title>Node9&#45;&gt;Node10</title>
<g id="a_edge9_Node000009_Node000010"><a xlink:title=" ">
<path fill="none" stroke="#63b8ff" d="M278.87,-60C270.53,-60 262.18,-60 254.19,-60"/>
<polygon fill="#63b8ff" stroke="#63b8ff" points="278.78,-63.5 288.78,-60 278.78,-56.5 278.78,-63.5"/>
</a>
</g>
</g>
<!-- Node11 -->
<g id="Node000011" class="node">
<title>Node11</title>
<g id="a_Node000011"><a xlink:href="../../da/d0f/classcarla_1_1traffic__manager_1_1TrafficManagerLocal.html#a75976d36f4213ab24e79e3ea2dcd280a" target="_top" xlink:title="私有构造函数，用于单例生命周期管理">
<polygon fill="white" stroke="#666666" points="109,-82 0,-82 0,-38 109,-38 109,-82"/>
<text text-anchor="start" x="8" y="-68.5" font-family="Helvetica,sans-Serif" font-size="10.00">carla::traffic_manager</text>
<text text-anchor="start" x="8" y="-56.5" font-family="Helvetica,sans-Serif" font-size="10.00">::TrafficManagerLocal</text>
<text text-anchor="middle" x="54.5" y="-44.5" font-family="Helvetica,sans-Serif" font-size="10.00">::TrafficManagerLocal</text>
</a>
</g>
</g>
<!-- Node10&#45;&gt;Node11 -->
<g id="edge10_Node000010_Node000011" class="edge">
<title>Node10&#45;&gt;Node11</title>
<g id="a_edge10_Node000010_Node000011"><a xlink:title=" ">
<path fill="none" stroke="#63b8ff" d="M134.12,-60C125.88,-60 117.51,-60 109.46,-60"/>
<polygon fill="#63b8ff" stroke="#63b8ff" points="133.85,-63.5 143.85,-60 133.85,-56.5 133.85,-63.5"/>
</a>
</g>
</g>
<!-- Node12&#45;&gt;Node5 -->
<g id="edge13_Node000012_Node000005" class="edge">
<title>Node12&#45;&gt;Node5</title>
<g id="a_edge13_Node000012_Node000005"><a xlink:title=" ">
<path fill="none" stroke="#63b8ff" d="M1176.17,-168.56C1167.81,-166.8 1159.36,-165.03 1151.11,-163.3"/>
<polygon fill="#63b8ff" stroke="#63b8ff" points="1175.19,-172.14 1185.7,-170.76 1176.63,-165.29 1175.19,-172.14"/>
</a>
</g>
</g>
<!-- Node12&#45;&gt;Node7 -->
<g id="edge14_Node000012_Node000007" class="edge">
<title>Node12&#45;&gt;Node7</title>
<g id="a_edge14_Node000012_Node000007"><a xlink:title=" ">
<path fill="none" stroke="#63b8ff" d="M1176.05,-185.53C1087.43,-184.83 943.17,-183.12 818.75,-179 807.26,-178.62 795.16,-178.12 783.24,-177.58"/>
<polygon fill="#63b8ff" stroke="#63b8ff" points="1175.82,-189.04 1185.84,-185.61 1175.87,-182.04 1175.82,-189.04"/>
</a>
</g>
</g>
<!-- Node13&#45;&gt;Node9 -->
<g id="edge17_Node000013_Node000009" class="edge">
<title>Node13&#45;&gt;Node9</title>
<g id="a_edge17_Node000013_Node000009"><a xlink:title=" ">
<path fill="none" stroke="#63b8ff" d="M815.29,-60C709.46,-60 520.71,-60 421.6,-60"/>
<polygon fill="#63b8ff" stroke="#63b8ff" points="815.21,-63.5 825.21,-60 815.21,-56.5 815.21,-63.5"/>
</a>
</g>
</g>
<!-- Node14&#45;&gt;Node9 -->
<g id="edge19_Node000014_Node000009" class="edge">
<title>Node14&#45;&gt;Node9</title>
<g id="a_edge19_Node000014_Node000009"><a xlink:title=" ">
<path fill="none" stroke="#63b8ff" d="M997.94,-20.78C855.12,-29.52 554.58,-47.9 421.98,-56.01"/>
<polygon fill="#63b8ff" stroke="#63b8ff" points="998,-24.22 1007.77,-20.12 997.58,-17.24 998,-24.22"/>
</a>
</g>
</g>
</g>
</svg>

<g id="navigator" transform="translate(0 0)" fill="#404254">
  <rect fill="#f2f5e9" fill-opacity="0.5" stroke="#606060" stroke-width=".5" x="0" y="0" width="60" height="60"/>
  <use id="zoomplus" xlink:href="#zoomPlus" x="17" y="9" onmousedown="handleZoom(evt,'in')"/>
  <use id="zoomminus" xlink:href="#zoomMin" x="42" y="9" onmousedown="handleZoom(evt,'out')"/>
  <use id="reset" xlink:href="#resetDef" x="30" y="36" onmousedown="handleReset()"/>
   <use id="arrowup" xlink:href="#arrowUp" x="0" y="0" onmousedown="handlePan(0,-1)"/>
  <use id="arrowright" xlink:href="#arrowRight" x="0" y="0" onmousedown="handlePan(1,0)"/>
  <use id="arrowdown" xlink:href="#arrowDown" x="0" y="0" onmousedown="handlePan(0,1)"/>
  <use id="arrowleft" xlink:href="#arrowLeft" x="0" y="0" onmousedown="handlePan(-1,0)"/>
</g>
<svg viewBox="0 0 15 15" width="100%" height="30px" preserveAspectRatio="xMaxYMin meet">
 <g id="arrow_out" transform="scale(0.3 0.3)">
  <a xlink:href="classcarla_1_1traffic__manager_1_1SimulationState_a81f26b51d085034ab1319004cada6468_icgraph_org.svg" target="_base">
   <rect id="button" ry="5" rx="5" y="6" x="6" height="38" width="38"
        fill="#f2f5e9" fill-opacity="0.5" stroke="#606060" stroke-width="1.0"/>
   <path id="arrow"
     d="M 11.500037,31.436501 C 11.940474,20.09759 22.043105,11.32322 32.158766,21.979434 L 37.068811,17.246167 C 37.068811,17.246167 37.088388,32 37.088388,32 L 22.160133,31.978069 C 22.160133,31.978069 26.997745,27.140456 26.997745,27.140456 C 18.528582,18.264221 13.291696,25.230495 11.500037,31.436501 z"
     style="fill:#404040;"/>
  </a>
 </g>
</svg>

<style type='text/css'>
<![CDATA[
[data-mouse-over-selected='false'] { opacity: 0.7; }
[data-mouse-over-selected='true']  { opacity: 1.0; }
]]>
</style>
<script type="application/ecmascript"><![CDATA[
document.addEventListener('DOMContentLoaded', (event) => {
  highlightEdges();
  highlightAdjacentNodes();
});
]]></script>
</svg>
