<?xml version="1.0" encoding="UTF-8" standalone="no"?>
<!DOCTYPE svg PUBLIC "-//W3C//DTD SVG 1.1//EN"
 "http://www.w3.org/Graphics/SVG/1.1/DTD/svg11.dtd">
<!-- Generated by graphviz version 8.1.0 (20230707.0739)
 -->
<!-- Title: xpath_ast_node::is_posinv_expr Pages: 1 -->
<svg width="454pt" height="58pt"
 viewBox="0.00 0.00 454.25 58.00" xmlns="http://www.w3.org/2000/svg" xmlns:xlink="http://www.w3.org/1999/xlink">

<svg id="main" version="1.1" xmlns="http://www.w3.org/2000/svg" xmlns:xlink="http://www.w3.org/1999/xlink" xml:space="preserve" onload="init(evt)">
<style type="text/css"><![CDATA[
.node, .edge {opacity: 0.7;}
.node.selected, .edge.selected {opacity: 1;}
.edge:hover path { stroke: red; }
.edge:hover polygon { stroke: red; fill: red; }
]]></style>
<script type="application/ecmascript" xlink:href="../../svg.min.js"/>
<svg id="graph" class="graph">
<g id="graph0" class="graph" transform="scale(1 1) rotate(0) translate(4 54)">
<title>xpath_ast_node::is_posinv_expr</title>
<!-- Node1 -->
<g id="Node000001" class="node">
<title>Node1</title>
<g id="a_Node000001"><a xlink:title=" ">
<polygon fill="#999999" stroke="#666666" points="446.25,-32 347.75,-32 347.75,0 446.25,0 446.25,-32"/>
<text text-anchor="start" x="355.75" y="-18.5" font-family="Helvetica,sans-Serif" font-size="10.00">xpath_ast_node::is</text>
<text text-anchor="middle" x="397" y="-6.5" font-family="Helvetica,sans-Serif" font-size="10.00">_posinv_expr</text>
</a>
</g>
</g>
<!-- Node1&#45;&gt;Node1 -->
<g id="edge1_Node000001_Node000001" class="edge">
<title>Node1&#45;&gt;Node1</title>
<g id="a_edge1_Node000001_Node000001"><a xlink:title=" ">
<path fill="none" stroke="#63b8ff" d="M424.25,-43.05C420.11,-47.19 411.03,-50 397,-50 372.74,-50 363.26,-41.58 368.57,-32.44"/>
<polygon fill="#63b8ff" stroke="#63b8ff" points="427.81,-43.77 425.43,-33.44 420.85,-43 427.81,-43.77"/>
</a>
</g>
</g>
<!-- Node2 -->
<g id="Node000002" class="node">
<title>Node2</title>
<g id="a_Node000002"><a xlink:href="../../d3/dc5/classxpath__ast__node.html#a3eb089927cabd867a3a9d1b723aece0d" target="_top" xlink:title=" ">
<polygon fill="white" stroke="#666666" points="311.75,-26 163.75,-26 163.75,-6 311.75,-6 311.75,-26"/>
<text text-anchor="middle" x="237.75" y="-12.5" font-family="Helvetica,sans-Serif" font-size="10.00">xpath_ast_node::optimize_self</text>
</a>
</g>
</g>
<!-- Node1&#45;&gt;Node2 -->
<g id="edge2_Node000001_Node000002" class="edge">
<title>Node1&#45;&gt;Node2</title>
<g id="a_edge2_Node000001_Node000002"><a xlink:title=" ">
<path fill="none" stroke="#63b8ff" d="M336.8,-16C328.77,-16 320.45,-16 312.21,-16"/>
<polygon fill="#63b8ff" stroke="#63b8ff" points="336.54,-19.5 346.54,-16 336.54,-12.5 336.54,-19.5"/>
</a>
</g>
</g>
<!-- Node3 -->
<g id="Node000003" class="node">
<title>Node3</title>
<g id="a_Node000003"><a xlink:href="../../d3/dc5/classxpath__ast__node.html#a950534fc7de08fe40d897ebea84c1d6d" target="_top" xlink:title=" ">
<polygon fill="white" stroke="#666666" points="127.75,-26 0,-26 0,-6 127.75,-6 127.75,-26"/>
<text text-anchor="middle" x="63.88" y="-12.5" font-family="Helvetica,sans-Serif" font-size="10.00">xpath_ast_node::optimize</text>
</a>
</g>
</g>
<!-- Node2&#45;&gt;Node3 -->
<g id="edge3_Node000002_Node000003" class="edge">
<title>Node2&#45;&gt;Node3</title>
<g id="a_edge3_Node000002_Node000003"><a xlink:title=" ">
<path fill="none" stroke="#63b8ff" d="M152.54,-16C144.28,-16 136,-16 128,-16"/>
<polygon fill="#63b8ff" stroke="#63b8ff" points="152.36,-19.5 162.36,-16 152.36,-12.5 152.36,-19.5"/>
</a>
</g>
</g>
<!-- Node3&#45;&gt;Node3 -->
<g id="edge4_Node000003_Node000003" class="edge">
<title>Node3&#45;&gt;Node3</title>
<g id="a_edge4_Node000003_Node000003"><a xlink:title=" ">
<path fill="none" stroke="#63b8ff" d="M95.49,-36.43C92.36,-40.82 81.82,-44 63.88,-44 33.65,-44 24.44,-34.98 36.25,-26.34"/>
<polygon fill="#63b8ff" stroke="#63b8ff" points="98.43,-35.35 91.5,-27.34 91.92,-37.93 98.43,-35.35"/>
</a>
</g>
</g>
</g>
</svg>
</svg>

<style type='text/css'>
<![CDATA[
[data-mouse-over-selected='false'] { opacity: 0.7; }
[data-mouse-over-selected='true']  { opacity: 1.0; }
]]>
</style>
<script type="application/ecmascript"><![CDATA[
document.addEventListener('DOMContentLoaded', (event) => {
  highlightEdges();
  highlightAdjacentNodes();
});
]]></script>
</svg>
