<?xml version="1.0" encoding="UTF-8" standalone="no"?>
<!DOCTYPE svg PUBLIC "-//W3C//DTD SVG 1.1//EN"
 "http://www.w3.org/Graphics/SVG/1.1/DTD/svg11.dtd">
<!-- Generated by graphviz version 8.1.0 (20230707.0739)
 -->
<!-- Title: xpath_ast_node::apply_predicate_boolean Pages: 1 -->
<svg width="1207pt" height="350pt"
 viewBox="0.00 0.00 1207.00 350.00" xmlns="http://www.w3.org/2000/svg" xmlns:xlink="http://www.w3.org/1999/xlink">
<g id="graph0" class="graph" transform="scale(1 1) rotate(0) translate(4 346)">
<title>xpath_ast_node::apply_predicate_boolean</title>
<!-- Node1 -->
<g id="Node000001" class="node">
<title>Node1</title>
<g id="a_Node000001"><a xlink:title=" ">
<polygon fill="#999999" stroke="#666666" points="1199,-253 1084.75,-253 1084.75,-221 1199,-221 1199,-253"/>
<text text-anchor="start" x="1092.75" y="-239.5" font-family="Helvetica,sans-Serif" font-size="10.00">xpath_ast_node::apply</text>
<text text-anchor="middle" x="1141.88" y="-227.5" font-family="Helvetica,sans-Serif" font-size="10.00">_predicate_boolean</text>
</a>
</g>
</g>
<!-- Node2 -->
<g id="Node000002" class="node">
<title>Node2</title>
<g id="a_Node000002"><a xlink:href="../../d3/dc5/classxpath__ast__node.html#a7e35f265c9e0712a16e1d8a9db4c7672" target="_top" xlink:title=" ">
<polygon fill="white" stroke="#666666" points="1048.75,-120 934.5,-120 934.5,-88 1048.75,-88 1048.75,-120"/>
<text text-anchor="start" x="942.5" y="-106.5" font-family="Helvetica,sans-Serif" font-size="10.00">xpath_ast_node::apply</text>
<text text-anchor="middle" x="991.62" y="-94.5" font-family="Helvetica,sans-Serif" font-size="10.00">_predicate</text>
</a>
</g>
</g>
<!-- Node1&#45;&gt;Node2 -->
<g id="edge1_Node000001_Node000002" class="edge">
<title>Node1&#45;&gt;Node2</title>
<g id="a_edge1_Node000001_Node000002"><a xlink:title=" ">
<path fill="none" stroke="#63b8ff" d="M1114.81,-213.62C1085.03,-186.9 1037.04,-143.85 1010.95,-120.44"/>
<polygon fill="#63b8ff" stroke="#63b8ff" points="1111.92,-215.62 1121.7,-219.69 1116.59,-210.41 1111.92,-215.62"/>
</a>
</g>
</g>
<!-- Node3 -->
<g id="Node000003" class="node">
<title>Node3</title>
<g id="a_Node000003"><a xlink:href="../../d3/dc5/classxpath__ast__node.html#a68cace396dd4eeae67ecfcd34a3a8285" target="_top" xlink:title=" ">
<polygon fill="white" stroke="#666666" points="898.5,-225 791,-225 791,-193 898.5,-193 898.5,-225"/>
<text text-anchor="start" x="799" y="-211.5" font-family="Helvetica,sans-Serif" font-size="10.00">xpath_ast_node::eval</text>
<text text-anchor="middle" x="844.75" y="-199.5" font-family="Helvetica,sans-Serif" font-size="10.00">_node_set</text>
</a>
</g>
</g>
<!-- Node2&#45;&gt;Node3 -->
<g id="edge2_Node000002_Node000003" class="edge">
<title>Node2&#45;&gt;Node3</title>
<g id="a_edge2_Node000002_Node000003"><a xlink:title=" ">
<path fill="none" stroke="#63b8ff" d="M959.17,-126.8C931.74,-146.68 892.62,-175.03 868.23,-192.71"/>
<polygon fill="#63b8ff" stroke="#63b8ff" points="960.95,-129.11 966.99,-120.41 956.84,-123.44 960.95,-129.11"/>
</a>
</g>
</g>
<!-- Node3&#45;&gt;Node3 -->
<g id="edge28_Node000003_Node000003" class="edge">
<title>Node3&#45;&gt;Node3</title>
<g id="a_edge28_Node000003_Node000003"><a xlink:title=" ">
<path fill="none" stroke="#63b8ff" d="M869.89,-236.05C866.06,-240.19 857.69,-243 844.75,-243 822.37,-243 813.63,-234.58 818.53,-225.44"/>
<polygon fill="#63b8ff" stroke="#63b8ff" points="873.43,-236.75 870.97,-226.44 866.47,-236.03 873.43,-236.75"/>
</a>
</g>
</g>
<!-- Node4 -->
<g id="Node000004" class="node">
<title>Node4</title>
<g id="a_Node000004"><a xlink:href="../../d3/dc5/classxpath__ast__node.html#a98dd7f6e67fe2c56c63056eed835d6a4" target="_top" xlink:title=" ">
<polygon fill="white" stroke="#666666" points="755,-200 610.75,-200 610.75,-180 755,-180 755,-200"/>
<text text-anchor="middle" x="682.88" y="-186.5" font-family="Helvetica,sans-Serif" font-size="10.00">xpath_ast_node::compare_eq</text>
</a>
</g>
</g>
<!-- Node3&#45;&gt;Node4 -->
<g id="edge3_Node000003_Node000004" class="edge">
<title>Node3&#45;&gt;Node4</title>
<g id="a_edge3_Node000003_Node000004"><a xlink:title=" ">
<path fill="none" stroke="#63b8ff" d="M779.75,-201.39C771.74,-200.44 763.5,-199.46 755.37,-198.5"/>
<polygon fill="#63b8ff" stroke="#63b8ff" points="779.17,-204.97 789.51,-202.67 780,-198.02 779.17,-204.97"/>
</a>
</g>
</g>
<!-- Node5 -->
<g id="Node000005" class="node">
<title>Node5</title>
<g id="a_Node000005"><a xlink:href="../../d3/dc5/classxpath__ast__node.html#ab7f965a92023bc2704b8e6fd9f3d7c14" target="_top" xlink:title=" ">
<polygon fill="white" stroke="#666666" points="574.75,-250 467.25,-250 467.25,-218 574.75,-218 574.75,-250"/>
<text text-anchor="start" x="475.25" y="-236.5" font-family="Helvetica,sans-Serif" font-size="10.00">xpath_ast_node::eval</text>
<text text-anchor="middle" x="521" y="-224.5" font-family="Helvetica,sans-Serif" font-size="10.00">_boolean</text>
</a>
</g>
</g>
<!-- Node3&#45;&gt;Node5 -->
<g id="edge27_Node000003_Node000005" class="edge">
<title>Node3&#45;&gt;Node5</title>
<g id="a_edge27_Node000003_Node000005"><a xlink:title=" ">
<path fill="none" stroke="#63b8ff" d="M779.78,-213.97C719.86,-218.63 631.36,-225.5 575.21,-229.87"/>
<polygon fill="#63b8ff" stroke="#63b8ff" points="779.92,-217.39 789.62,-213.13 779.38,-210.41 779.92,-217.39"/>
</a>
</g>
</g>
<!-- Node6 -->
<g id="Node000006" class="node">
<title>Node6</title>
<g id="a_Node000006"><a xlink:href="../../d3/dc5/classxpath__ast__node.html#a92dd7048e28d486bc7f382d1fc6f1de6" target="_top" xlink:title=" ">
<polygon fill="white" stroke="#666666" points="287.75,-130 180.25,-130 180.25,-98 287.75,-98 287.75,-130"/>
<text text-anchor="start" x="188.25" y="-116.5" font-family="Helvetica,sans-Serif" font-size="10.00">xpath_ast_node::eval</text>
<text text-anchor="middle" x="234" y="-104.5" font-family="Helvetica,sans-Serif" font-size="10.00">_number</text>
</a>
</g>
</g>
<!-- Node3&#45;&gt;Node6 -->
<g id="edge29_Node000003_Node000006" class="edge">
<title>Node3&#45;&gt;Node6</title>
<g id="a_edge29_Node000003_Node000006"><a xlink:title=" ">
<path fill="none" stroke="#63b8ff" d="M816.15,-185.92C799.51,-173.35 777.28,-158.81 755,-151 592.51,-94.04 384.34,-101.31 288.13,-108.8"/>
<polygon fill="#63b8ff" stroke="#63b8ff" points="813.74,-189.26 823.78,-192.64 818.04,-183.74 813.74,-189.26"/>
</a>
</g>
</g>
<!-- Node9 -->
<g id="Node000009" class="node">
<title>Node9</title>
<g id="a_Node000009"><a xlink:href="../../d3/dc5/classxpath__ast__node.html#abb6e4c529276eaf882233dbb6e04e111" target="_top" xlink:title=" ">
<polygon fill="white" stroke="#666666" points="144.25,-291 0,-291 0,-271 144.25,-271 144.25,-291"/>
<text text-anchor="middle" x="72.12" y="-277.5" font-family="Helvetica,sans-Serif" font-size="10.00">xpath_ast_node::compare_rel</text>
</a>
</g>
</g>
<!-- Node3&#45;&gt;Node9 -->
<g id="edge26_Node000003_Node000009" class="edge">
<title>Node3&#45;&gt;Node9</title>
<g id="a_edge26_Node000003_Node000009"><a xlink:title=" ">
<path fill="none" stroke="#63b8ff" d="M821.8,-233.04C805.06,-249.97 780.59,-271.87 755,-285 660.15,-333.67 628.61,-342 522,-342 522,-342 522,-342 376.5,-342 275.23,-342 158.61,-308.93 104.16,-291.49"/>
<polygon fill="#63b8ff" stroke="#63b8ff" points="823.95,-235.82 828.37,-226.19 818.91,-230.96 823.95,-235.82"/>
</a>
</g>
</g>
<!-- Node10 -->
<g id="Node000010" class="node">
<title>Node10</title>
<g id="a_Node000010"><a xlink:href="../../d3/dc5/classxpath__ast__node.html#a6b675237a590548b68d0e0b97518b6df" target="_top" xlink:title=" ">
<polygon fill="white" stroke="#666666" points="431.25,-179 323.75,-179 323.75,-147 431.25,-147 431.25,-179"/>
<text text-anchor="start" x="331.75" y="-165.5" font-family="Helvetica,sans-Serif" font-size="10.00">xpath_ast_node::eval</text>
<text text-anchor="middle" x="377.5" y="-153.5" font-family="Helvetica,sans-Serif" font-size="10.00">_string</text>
</a>
</g>
</g>
<!-- Node3&#45;&gt;Node10 -->
<g id="edge30_Node000003_Node000010" class="edge">
<title>Node3&#45;&gt;Node10</title>
<g id="a_edge30_Node000003_Node000010"><a xlink:title=" ">
<path fill="none" stroke="#63b8ff" d="M803.63,-187.97C788.76,-181.22 771.5,-174.58 755,-171 641.9,-146.5 505.21,-152.05 431.62,-157.81"/>
<polygon fill="#63b8ff" stroke="#63b8ff" points="801.96,-191.52 812.5,-192.62 804.94,-185.19 801.96,-191.52"/>
</a>
</g>
</g>
<!-- Node12 -->
<g id="Node000012" class="node">
<title>Node12</title>
<g id="a_Node000012"><a xlink:href="../../d3/dc5/classxpath__ast__node.html#a3258c05ab9aaa78e154d2ff63fe56906" target="_top" xlink:title=" ">
<polygon fill="white" stroke="#666666" points="745.62,-276 620.12,-276 620.12,-256 745.62,-256 745.62,-276"/>
<text text-anchor="middle" x="682.88" y="-262.5" font-family="Helvetica,sans-Serif" font-size="10.00">xpath_ast_node::step_do</text>
</a>
</g>
</g>
<!-- Node3&#45;&gt;Node12 -->
<g id="edge31_Node000003_Node000012" class="edge">
<title>Node3&#45;&gt;Node12</title>
<g id="a_edge31_Node000003_Node000012"><a xlink:title=" ">
<path fill="none" stroke="#63b8ff" d="M780.48,-223.88C771.93,-226.93 763.26,-230.07 755,-233 734.36,-240.32 710.18,-248.37 696,-255.58"/>
<polygon fill="#63b8ff" stroke="#63b8ff" points="781.56,-226.85 789.82,-220.21 779.22,-220.25 781.56,-226.85"/>
</a>
</g>
</g>
<!-- Node4&#45;&gt;Node5 -->
<g id="edge4_Node000004_Node000005" class="edge">
<title>Node4&#45;&gt;Node5</title>
<g id="a_edge4_Node000004_Node000005"><a xlink:title=" ">
<path fill="none" stroke="#63b8ff" d="M609.62,-203.16C592.7,-207.7 575.33,-212.76 560.55,-217.52"/>
<polygon fill="#63b8ff" stroke="#63b8ff" points="610.28,-206.35 619.06,-200.42 608.5,-199.58 610.28,-206.35"/>
</a>
</g>
</g>
<!-- Node5&#45;&gt;Node1 -->
<g id="edge5_Node000005_Node000001" class="edge">
<title>Node5&#45;&gt;Node1</title>
<g id="a_edge5_Node000005_Node000001"><a xlink:title=" ">
<path fill="none" stroke="#63b8ff" d="M551.8,-256.38C568.25,-267.33 589.6,-279.36 610.75,-285 781.51,-330.57 993,-281.26 1089.06,-253.4"/>
<polygon fill="#63b8ff" stroke="#63b8ff" points="554.41,-253.24 544.19,-250.45 550.44,-259.01 554.41,-253.24"/>
</a>
</g>
</g>
<!-- Node5&#45;&gt;Node4 -->
<g id="edge6_Node000005_Node000004" class="edge">
<title>Node5&#45;&gt;Node4</title>
<g id="a_edge6_Node000005_Node000004"><a xlink:title=" ">
<path fill="none" stroke="#63b8ff" d="M585.74,-223.08C612.53,-216.13 641.85,-207.43 660.97,-200.48"/>
<polygon fill="#63b8ff" stroke="#63b8ff" points="585.07,-219.9 576.24,-225.75 586.79,-226.68 585.07,-219.9"/>
</a>
</g>
</g>
<!-- Node5&#45;&gt;Node5 -->
<g id="edge7_Node000005_Node000005" class="edge">
<title>Node5&#45;&gt;Node5</title>
<g id="a_edge7_Node000005_Node000005"><a xlink:title=" ">
<path fill="none" stroke="#63b8ff" d="M545.56,-261.05C541.82,-265.19 533.64,-268 521,-268 499.14,-268 490.6,-259.58 495.38,-250.44"/>
<polygon fill="#63b8ff" stroke="#63b8ff" points="549.11,-261.74 546.62,-251.44 542.14,-261.04 549.11,-261.74"/>
</a>
</g>
</g>
<!-- Node5&#45;&gt;Node6 -->
<g id="edge8_Node000005_Node000006" class="edge">
<title>Node5&#45;&gt;Node6</title>
<g id="a_edge8_Node000005_Node000006"><a xlink:title=" ">
<path fill="none" stroke="#63b8ff" d="M456.32,-229.45C415.74,-227.31 363.51,-220.8 323.75,-197 300.56,-183.12 306.37,-167.58 287.75,-148 281.89,-141.84 275.15,-135.74 268.49,-130.36"/>
<polygon fill="#63b8ff" stroke="#63b8ff" points="456.02,-232.98 466.17,-229.93 456.34,-225.99 456.02,-232.98"/>
</a>
</g>
</g>
<!-- Node5&#45;&gt;Node10 -->
<g id="edge25_Node000005_Node000010" class="edge">
<title>Node5&#45;&gt;Node10</title>
<g id="a_edge25_Node000005_Node000010"><a xlink:title=" ">
<path fill="none" stroke="#63b8ff" d="M488.21,-212.31C469.27,-201.71 444.9,-189.28 423.95,-179.45"/>
<polygon fill="#63b8ff" stroke="#63b8ff" points="486.16,-215.74 496.58,-217.66 489.63,-209.66 486.16,-215.74"/>
</a>
</g>
</g>
<!-- Node6&#45;&gt;Node4 -->
<g id="edge13_Node000006_Node000004" class="edge">
<title>Node6&#45;&gt;Node4</title>
<g id="a_edge13_Node000006_Node000004"><a xlink:title=" ">
<path fill="none" stroke="#63b8ff" d="M298.59,-120.51C337.09,-124.77 387.12,-130.85 431.25,-138 495.48,-148.4 511.05,-153.73 574.75,-167 594.02,-171.02 615.22,-175.54 633.64,-179.51"/>
<polygon fill="#63b8ff" stroke="#63b8ff" points="299.37,-116.97 289.05,-119.36 298.61,-123.92 299.37,-116.97"/>
</a>
</g>
</g>
<!-- Node6&#45;&gt;Node5 -->
<g id="edge16_Node000006_Node000005" class="edge">
<title>Node6&#45;&gt;Node5</title>
<g id="a_edge16_Node000006_Node000005"><a xlink:title=" ">
<path fill="none" stroke="#63b8ff" d="M256.2,-137.42C266.27,-146.05 278.18,-155.93 287.75,-166 306.37,-185.58 300.56,-201.12 323.75,-215 367.16,-240.99 425.42,-246.36 467.17,-244.52"/>
<polygon fill="#63b8ff" stroke="#63b8ff" points="258.75,-134.13 248.92,-130.2 254.15,-139.41 258.75,-134.13"/>
</a>
</g>
</g>
<!-- Node6&#45;&gt;Node6 -->
<g id="edge17_Node000006_Node000006" class="edge">
<title>Node6&#45;&gt;Node6</title>
<g id="a_edge17_Node000006_Node000006"><a xlink:title=" ">
<path fill="none" stroke="#63b8ff" d="M258.56,-141.05C254.82,-145.19 246.64,-148 234,-148 212.14,-148 203.6,-139.58 208.38,-130.44"/>
<polygon fill="#63b8ff" stroke="#63b8ff" points="262.11,-141.74 259.62,-131.44 255.14,-141.04 262.11,-141.74"/>
</a>
</g>
</g>
<!-- Node7 -->
<g id="Node000007" class="node">
<title>Node7</title>
<g id="a_Node000007"><a xlink:href="../../d3/dc5/classxpath__ast__node.html#abf2d4b745493f63aebc1c89d9fde8eed" target="_top" xlink:title=" ">
<polygon fill="white" stroke="#666666" points="129.25,-114 15,-114 15,-82 129.25,-82 129.25,-114"/>
<text text-anchor="start" x="23" y="-100.5" font-family="Helvetica,sans-Serif" font-size="10.00">xpath_ast_node::apply</text>
<text text-anchor="middle" x="72.12" y="-88.5" font-family="Helvetica,sans-Serif" font-size="10.00">_predicate_number</text>
</a>
</g>
</g>
<!-- Node6&#45;&gt;Node7 -->
<g id="edge9_Node000006_Node000007" class="edge">
<title>Node6&#45;&gt;Node7</title>
<g id="a_edge9_Node000006_Node000007"><a xlink:title=" ">
<path fill="none" stroke="#63b8ff" d="M169.01,-107.6C156.01,-106.29 142.42,-104.93 129.69,-103.66"/>
<polygon fill="#63b8ff" stroke="#63b8ff" points="168.47,-111.16 178.76,-108.67 169.16,-104.19 168.47,-111.16"/>
</a>
</g>
</g>
<!-- Node8 -->
<g id="Node000008" class="node">
<title>Node8</title>
<g id="a_Node000008"><a xlink:href="../../d3/dc5/classxpath__ast__node.html#a8cedd7e15623b9fa431788b8843f1463" target="_top" xlink:title=" ">
<polygon fill="white" stroke="#666666" points="136,-32 8.25,-32 8.25,0 136,0 136,-32"/>
<text text-anchor="start" x="16.25" y="-18.5" font-family="Helvetica,sans-Serif" font-size="10.00">xpath_ast_node::apply</text>
<text text-anchor="middle" x="72.12" y="-6.5" font-family="Helvetica,sans-Serif" font-size="10.00">_predicate_number_const</text>
</a>
</g>
</g>
<!-- Node6&#45;&gt;Node8 -->
<g id="edge11_Node000006_Node000008" class="edge">
<title>Node6&#45;&gt;Node8</title>
<g id="a_edge11_Node000006_Node000008"><a xlink:title=" ">
<path fill="none" stroke="#63b8ff" d="M197.12,-92.01C167.68,-73.96 126.63,-48.8 99.97,-32.46"/>
<polygon fill="#63b8ff" stroke="#63b8ff" points="194.89,-95.35 205.24,-97.6 198.54,-89.39 194.89,-95.35"/>
</a>
</g>
</g>
<!-- Node6&#45;&gt;Node9 -->
<g id="edge14_Node000006_Node000009" class="edge">
<title>Node6&#45;&gt;Node9</title>
<g id="a_edge14_Node000006_Node000009"><a xlink:title=" ">
<path fill="none" stroke="#63b8ff" d="M203.12,-136.85C195.44,-143.12 187.34,-150.11 180.25,-157 140.06,-196.06 98.29,-248.43 81.17,-270.5"/>
<polygon fill="#63b8ff" stroke="#63b8ff" points="204.62,-139.33 210.23,-130.35 200.24,-133.87 204.62,-139.33"/>
</a>
</g>
</g>
<!-- Node6&#45;&gt;Node10 -->
<g id="edge18_Node000006_Node000010" class="edge">
<title>Node6&#45;&gt;Node10</title>
<g id="a_edge18_Node000006_Node000010"><a xlink:title=" ">
<path fill="none" stroke="#63b8ff" d="M275.67,-134.26C290.55,-140.02 307.61,-146.05 323.41,-151.17"/>
<polygon fill="#63b8ff" stroke="#63b8ff" points="277.35,-130.76 266.76,-130.34 274.77,-137.27 277.35,-130.76"/>
</a>
</g>
</g>
<!-- Node7&#45;&gt;Node2 -->
<g id="edge10_Node000007_Node000002" class="edge">
<title>Node7&#45;&gt;Node2</title>
<g id="a_edge10_Node000007_Node000002"><a xlink:title=" ">
<path fill="none" stroke="#63b8ff" d="M134.5,-78.54C195.29,-61.02 291.36,-38 376.5,-38 683.88,-38 683.88,-38 683.88,-38 777.84,-38 884.45,-67.97 944,-87.52"/>
<polygon fill="#63b8ff" stroke="#63b8ff" points="133.93,-75.36 125.32,-81.53 135.9,-82.08 133.93,-75.36"/>
</a>
</g>
</g>
<!-- Node8&#45;&gt;Node2 -->
<g id="edge12_Node000008_Node000002" class="edge">
<title>Node8&#45;&gt;Node2</title>
<g id="a_edge12_Node000008_Node000002"><a xlink:title=" ">
<path fill="none" stroke="#63b8ff" d="M147.15,-9.91C208.54,-5.39 298.14,0 376.5,0 683.88,0 683.88,0 683.88,0 781.43,0 808.14,-9.23 898.5,-46 924.58,-56.62 951.51,-74.52 969.47,-87.64"/>
<polygon fill="#63b8ff" stroke="#63b8ff" points="147.12,-6.48 137.41,-10.72 147.64,-13.46 147.12,-6.48"/>
</a>
</g>
</g>
<!-- Node9&#45;&gt;Node5 -->
<g id="edge15_Node000009_Node000005" class="edge">
<title>Node9&#45;&gt;Node5</title>
<g id="a_edge15_Node000009_Node000005"><a xlink:title=" ">
<path fill="none" stroke="#63b8ff" d="M155.38,-272.72C227.98,-265.36 336.67,-254.21 431.25,-244 442.81,-242.75 455.22,-241.38 466.98,-240.06"/>
<polygon fill="#63b8ff" stroke="#63b8ff" points="155.09,-269.33 145.49,-273.82 155.79,-276.3 155.09,-269.33"/>
</a>
</g>
</g>
<!-- Node10&#45;&gt;Node4 -->
<g id="edge19_Node000010_Node000004" class="edge">
<title>Node10&#45;&gt;Node4</title>
<g id="a_edge19_Node000010_Node000004"><a xlink:title=" ">
<path fill="none" stroke="#63b8ff" d="M442.32,-168.68C491.46,-173.05 559.39,-179.1 610.36,-183.64"/>
<polygon fill="#63b8ff" stroke="#63b8ff" points="442.77,-165.12 432.5,-167.72 442.15,-172.09 442.77,-165.12"/>
</a>
</g>
</g>
<!-- Node10&#45;&gt;Node5 -->
<g id="edge20_Node000010_Node000005" class="edge">
<title>Node10&#45;&gt;Node5</title>
<g id="a_edge20_Node000010_Node000005"><a xlink:title=" ">
<path fill="none" stroke="#63b8ff" d="M410.51,-184.81C429.51,-195.44 453.9,-207.87 474.84,-217.68"/>
<polygon fill="#63b8ff" stroke="#63b8ff" points="412.53,-181.37 402.11,-179.45 409.06,-187.45 412.53,-181.37"/>
</a>
</g>
</g>
<!-- Node10&#45;&gt;Node6 -->
<g id="edge21_Node000010_Node000006" class="edge">
<title>Node10&#45;&gt;Node6</title>
<g id="a_edge21_Node000010_Node000006"><a xlink:title=" ">
<path fill="none" stroke="#63b8ff" d="M335.6,-142.65C320.82,-136.94 303.92,-130.96 288.24,-125.87"/>
<polygon fill="#63b8ff" stroke="#63b8ff" points="333.86,-146.12 344.45,-146.55 336.44,-139.61 333.86,-146.12"/>
</a>
</g>
</g>
<!-- Node10&#45;&gt;Node10 -->
<g id="edge22_Node000010_Node000010" class="edge">
<title>Node10&#45;&gt;Node10</title>
<g id="a_edge22_Node000010_Node000010"><a xlink:title=" ">
<path fill="none" stroke="#63b8ff" d="M402.06,-190.05C398.32,-194.19 390.14,-197 377.5,-197 355.64,-197 347.1,-188.58 351.88,-179.44"/>
<polygon fill="#63b8ff" stroke="#63b8ff" points="405.61,-190.74 403.12,-180.44 398.64,-190.04 405.61,-190.74"/>
</a>
</g>
</g>
<!-- Node11 -->
<g id="Node000011" class="node">
<title>Node11</title>
<g id="a_Node000011"><a xlink:href="../../d3/dc5/classxpath__ast__node.html#aaf931a091af0fb91c25e90b205363b4e" target="_top" xlink:title=" ">
<polygon fill="white" stroke="#666666" points="287.75,-198 180.25,-198 180.25,-166 287.75,-166 287.75,-198"/>
<text text-anchor="start" x="188.25" y="-184.5" font-family="Helvetica,sans-Serif" font-size="10.00">xpath_ast_node::eval</text>
<text text-anchor="middle" x="234" y="-172.5" font-family="Helvetica,sans-Serif" font-size="10.00">_string_concat</text>
</a>
</g>
</g>
<!-- Node10&#45;&gt;Node11 -->
<g id="edge23_Node000010_Node000011" class="edge">
<title>Node10&#45;&gt;Node11</title>
<g id="a_edge23_Node000010_Node000011"><a xlink:title=" ">
<path fill="none" stroke="#63b8ff" d="M312.65,-164.85C304.38,-165.89 295.98,-167.08 287.92,-168.34"/>
<polygon fill="#63b8ff" stroke="#63b8ff" points="312.89,-168.23 322.41,-163.57 312.06,-161.28 312.89,-168.23"/>
</a>
</g>
</g>
<!-- Node11&#45;&gt;Node10 -->
<g id="edge24_Node000011_Node000010" class="edge">
<title>Node11&#45;&gt;Node10</title>
<g id="a_edge24_Node000011_Node000010"><a xlink:title=" ">
<path fill="none" stroke="#63b8ff" d="M298.67,-180.17C306.94,-179.13 315.34,-177.95 323.41,-176.69"/>
<polygon fill="#63b8ff" stroke="#63b8ff" points="298.44,-176.79 288.92,-181.45 299.26,-183.74 298.44,-176.79"/>
</a>
</g>
</g>
<!-- Node12&#45;&gt;Node3 -->
<g id="edge32_Node000012_Node000003" class="edge">
<title>Node12&#45;&gt;Node3</title>
<g id="a_edge32_Node000012_Node000003"><a xlink:title=" ">
<path fill="none" stroke="#63b8ff" d="M751.75,-252.15C752.84,-251.76 753.93,-251.38 755,-251 777.16,-243.14 802.25,-233.77 820.09,-225.45"/>
<polygon fill="#63b8ff" stroke="#63b8ff" points="751.07,-249.03 742.76,-255.61 753.36,-255.64 751.07,-249.03"/>
</a>
</g>
</g>
</g>
</svg>
