<?xml version="1.0" encoding="UTF-8" standalone="no"?>
<!DOCTYPE svg PUBLIC "-//W3C//DTD SVG 1.1//EN"
 "http://www.w3.org/Graphics/SVG/1.1/DTD/svg11.dtd">
<!-- Generated by graphviz version 8.1.0 (20230707.0739)
 -->
<!-- Title: ABaseVegetationActor::UpdateSkeletonAndParameters Pages: 1 -->
<svg width="454pt" height="128pt"
 viewBox="0.00 0.00 453.50 128.00" xmlns="http://www.w3.org/2000/svg" xmlns:xlink="http://www.w3.org/1999/xlink">
<g id="graph0" class="graph" transform="scale(1 1) rotate(0) translate(4 124)">
<title>ABaseVegetationActor::UpdateSkeletonAndParameters</title>
<!-- Node1 -->
<g id="Node000001" class="node">
<title>Node1</title>
<g id="a_Node000001"><a xlink:title=" ">
<polygon fill="#999999" stroke="#666666" points="158.5,-76 0,-76 0,-44 158.5,-44 158.5,-76"/>
<text text-anchor="start" x="8" y="-62.5" font-family="Helvetica,sans-Serif" font-size="10.00">ABaseVegetationActor</text>
<text text-anchor="middle" x="79.25" y="-50.5" font-family="Helvetica,sans-Serif" font-size="10.00">::UpdateSkeletonAndParameters</text>
</a>
</g>
</g>
<!-- Node2 -->
<g id="Node000002" class="node">
<title>Node2</title>
<g id="a_Node000002"><a xlink:href="../../d6/de2/classABaseVegetationActor.html#a88f7c2873f9b6fe0d51f3042e1d902be" target="_top" xlink:title=" ">
<polygon fill="white" stroke="#666666" points="354.5,-120 194.5,-120 194.5,-88 354.5,-88 354.5,-120"/>
<text text-anchor="start" x="202.5" y="-106.5" font-family="Helvetica,sans-Serif" font-size="10.00">ABaseVegetationActor</text>
<text text-anchor="middle" x="274.5" y="-94.5" font-family="Helvetica,sans-Serif" font-size="10.00">::GetParametersFromComponent</text>
</a>
</g>
</g>
<!-- Node1&#45;&gt;Node2 -->
<g id="edge1_Node000001_Node000002" class="edge">
<title>Node1&#45;&gt;Node2</title>
<g id="a_edge1_Node000001_Node000002"><a xlink:title=" ">
<path fill="none" stroke="#63b8ff" d="M152.48,-76.45C164.88,-79.27 177.85,-82.22 190.5,-85.1"/>
<polygon fill="#63b8ff" stroke="#63b8ff" points="189.5,-88.69 200.03,-87.5 191.06,-81.87 189.5,-88.69"/>
</a>
</g>
</g>
<!-- Node3 -->
<g id="Node000003" class="node">
<title>Node3</title>
<g id="a_Node000003"><a xlink:href="../../d0/d6a/ActorDispatcher_8cpp.html#a69d0a7232310b5ebaa51abb2b9945184" target="_top" xlink:title=" ">
<polygon fill="white" stroke="#666666" points="445.5,-70 390.5,-70 390.5,-50 445.5,-50 445.5,-70"/>
<text text-anchor="middle" x="418" y="-56.5" font-family="Helvetica,sans-Serif" font-size="10.00">UE_LOG</text>
</a>
</g>
</g>
<!-- Node1&#45;&gt;Node3 -->
<g id="edge5_Node000001_Node000003" class="edge">
<title>Node1&#45;&gt;Node3</title>
<g id="a_edge5_Node000001_Node000003"><a xlink:title=" ">
<path fill="none" stroke="#63b8ff" d="M158.78,-60C228.13,-60 326.23,-60 379.33,-60"/>
<polygon fill="#63b8ff" stroke="#63b8ff" points="379.26,-63.5 389.26,-60 379.26,-56.5 379.26,-63.5"/>
</a>
</g>
</g>
<!-- Node4 -->
<g id="Node000004" class="node">
<title>Node4</title>
<g id="a_Node000004"><a xlink:href="../../d6/de2/classABaseVegetationActor.html#adfe092852e6d31e18dd5691f21377418" target="_top" xlink:title=" ">
<polygon fill="white" stroke="#666666" points="348.12,-32 200.88,-32 200.88,0 348.12,0 348.12,-32"/>
<text text-anchor="start" x="208.88" y="-18.5" font-family="Helvetica,sans-Serif" font-size="10.00">ABaseVegetationActor</text>
<text text-anchor="middle" x="274.5" y="-6.5" font-family="Helvetica,sans-Serif" font-size="10.00">::SetParametersToComponent</text>
</a>
</g>
</g>
<!-- Node1&#45;&gt;Node4 -->
<g id="edge3_Node000001_Node000004" class="edge">
<title>Node1&#45;&gt;Node4</title>
<g id="a_edge3_Node000001_Node000004"><a xlink:title=" ">
<path fill="none" stroke="#63b8ff" d="M152.48,-43.55C164.88,-40.73 177.85,-37.78 190.5,-34.9"/>
<polygon fill="#63b8ff" stroke="#63b8ff" points="191.06,-38.13 200.03,-32.5 189.5,-31.31 191.06,-38.13"/>
</a>
</g>
</g>
<!-- Node2&#45;&gt;Node3 -->
<g id="edge2_Node000002_Node000003" class="edge">
<title>Node2&#45;&gt;Node3</title>
<g id="a_edge2_Node000002_Node000003"><a xlink:title=" ">
<path fill="none" stroke="#63b8ff" d="M328.19,-87.62C345.3,-82.3 363.92,-76.51 379.67,-71.61"/>
<polygon fill="#63b8ff" stroke="#63b8ff" points="380.55,-74.69 389.06,-68.38 378.47,-68 380.55,-74.69"/>
</a>
</g>
</g>
<!-- Node4&#45;&gt;Node3 -->
<g id="edge4_Node000004_Node000003" class="edge">
<title>Node4&#45;&gt;Node3</title>
<g id="a_edge4_Node000004_Node000003"><a xlink:title=" ">
<path fill="none" stroke="#63b8ff" d="M328.19,-32.38C345.3,-37.7 363.92,-43.49 379.67,-48.39"/>
<polygon fill="#63b8ff" stroke="#63b8ff" points="378.47,-52 389.06,-51.62 380.55,-45.31 378.47,-52"/>
</a>
</g>
</g>
</g>
</svg>
