<?xml version="1.0" encoding="UTF-8" standalone="no"?>
<!DOCTYPE svg PUBLIC "-//W3C//DTD SVG 1.1//EN"
 "http://www.w3.org/Graphics/SVG/1.1/DTD/svg11.dtd">
<!-- Generated by graphviz version 8.1.0 (20230707.0739)
 -->
<!-- Title: carla::traffic_manager::GetTargetWaypoint Pages: 1 -->
<!--zoomable 244 -->

<svg id="main" version="1.1" xmlns="http://www.w3.org/2000/svg" xmlns:xlink="http://www.w3.org/1999/xlink" xml:space="preserve" onload="init(evt)">
<style type="text/css"><![CDATA[
.node, .edge {opacity: 0.7;}
.node.selected, .edge.selected {opacity: 1;}
.edge:hover path { stroke: red; }
.edge:hover polygon { stroke: red; fill: red; }
]]></style>

<defs>
  <circle id="rim" cx="0" cy="0" r="7"/>
  <circle id="rim2" cx="0" cy="0" r="3.5"/>
  <g id="zoomPlus">
    <use xlink:href="#rim" fill="#404040"><set attributeName="fill" to="#808080" begin="zoomplus.mouseover" end="zoomplus.mouseout"/></use>
    <path d="M-4,0h8M0,-4v8" fill="none" stroke="white" stroke-width="1.5" pointer-events="none"/>
  </g>
  <g id="zoomMin">
    <use xlink:href="#rim" fill="#404040"><set attributeName="fill" to="#808080" begin="zoomminus.mouseover" end="zoomminus.mouseout"/></use>
    <path d="M-4,0h8" fill="none" stroke="white" stroke-width="1.5" pointer-events="none"/>
  </g>
  <g id="arrowUp" transform="translate(30 24)">
    <use xlink:href="#rim"/>
    <path pointer-events="none" fill="none" stroke="white" stroke-width="1.5" d="M0,-3.0v7 M-2.5,-0.5L0,-3.0L2.5,-0.5"/>
  </g>
  <g id="arrowRight" transform="rotate(90) translate(36 -43)">
    <use xlink:href="#rim"/>
    <path pointer-events="none" fill="none" stroke="white" stroke-width="1.5" d="M0,-3.0v7 M-2.5,-0.5L0,-3.0L2.5,-0.5"/>
  </g>
  <g id="arrowDown" transform="rotate(180) translate(-30 -48)">
    <use xlink:href="#rim"/>
    <path pointer-events="none" fill="none" stroke="white" stroke-width="1.5" d="M0,-3.0v7 M-2.5,-0.5L0,-3.0L2.5,-0.5"/>
  </g>
  <g id="arrowLeft" transform="rotate(270) translate(-36 17)">
    <use xlink:href="#rim"/>
    <path pointer-events="none" fill="none" stroke="white" stroke-width="1.5" d="M0,-3.0v7 M-2.5,-0.5L0,-3.0L2.5,-0.5"/>
  </g>
  <g id="resetDef">
    <use xlink:href="#rim2" fill="#404040"><set attributeName="fill" to="#808080" begin="reset.mouseover" end="reset.mouseout"/></use>
  </g>
</defs>
<script type="application/ecmascript">
var viewWidth = 1323;
var viewHeight = 244;
var sectionId = 'dynsection-4';
</script>
<script type="application/ecmascript" xlink:href="../../svg.min.js"/>
<svg id="graph" class="graph">
<g id="viewport">
<title>carla::traffic_manager::GetTargetWaypoint</title>
<!-- Node1 -->
<g id="Node000001" class="node">
<title>Node1</title>
<g id="a_Node000001"><a xlink:title=" ">
<polygon fill="#999999" stroke="#666666" points="1314.5,-118 1205.5,-118 1205.5,-86 1314.5,-86 1314.5,-118"/>
<text text-anchor="start" x="1213.5" y="-104.5" font-family="Helvetica,sans-Serif" font-size="10.00">carla::traffic_manager</text>
<text text-anchor="middle" x="1260" y="-92.5" font-family="Helvetica,sans-Serif" font-size="10.00">::GetTargetWaypoint</text>
</a>
</g>
</g>
<!-- Node2 -->
<g id="Node000002" class="node">
<title>Node2</title>
<g id="a_Node000002"><a xlink:href="../../d5/db3/classcarla_1_1traffic__manager_1_1TrafficLightStage.html#a37a6a79824b142455961afc88b45ec63" target="_top" xlink:title="Get current affected junction id for the vehicle">
<polygon fill="white" stroke="#666666" points="1169.5,-236 1018.5,-236 1018.5,-192 1169.5,-192 1169.5,-236"/>
<text text-anchor="start" x="1026.5" y="-222.5" font-family="Helvetica,sans-Serif" font-size="10.00">carla::traffic_manager</text>
<text text-anchor="start" x="1026.5" y="-210.5" font-family="Helvetica,sans-Serif" font-size="10.00">::TrafficLightStage::GetAffected</text>
<text text-anchor="middle" x="1094" y="-198.5" font-family="Helvetica,sans-Serif" font-size="10.00">JunctionId</text>
</a>
</g>
</g>
<!-- Node1&#45;&gt;Node2 -->
<g id="edge1_Node000001_Node000002" class="edge">
<title>Node1&#45;&gt;Node2</title>
<g id="a_edge1_Node000001_Node000002"><a xlink:title=" ">
<path fill="none" stroke="#63b8ff" d="M1236.91,-126C1219.8,-143.53 1194.83,-166.95 1169.5,-183 1164.65,-186.08 1159.44,-188.96 1154.11,-191.64"/>
<polygon fill="#63b8ff" stroke="#63b8ff" points="1238.79,-129.05 1243.18,-119.41 1233.74,-124.21 1238.79,-129.05"/>
</a>
</g>
</g>
<!-- Node8 -->
<g id="Node000008" class="node">
<title>Node8</title>
<g id="a_Node000008"><a xlink:href="../../d1/d26/classcarla_1_1traffic__manager_1_1CollisionStage.html#a45e850204e542a9c51cf202fc0bc5854" target="_top" xlink:title=" ">
<polygon fill="white" stroke="#666666" points="1167.62,-174 1020.38,-174 1020.38,-130 1167.62,-130 1167.62,-174"/>
<text text-anchor="start" x="1028.38" y="-160.5" font-family="Helvetica,sans-Serif" font-size="10.00">carla::traffic_manager</text>
<text text-anchor="start" x="1028.38" y="-148.5" font-family="Helvetica,sans-Serif" font-size="10.00">::CollisionStage::GetGeodesic</text>
<text text-anchor="middle" x="1094" y="-136.5" font-family="Helvetica,sans-Serif" font-size="10.00">Boundary</text>
</a>
</g>
</g>
<!-- Node1&#45;&gt;Node8 -->
<g id="edge7_Node000001_Node000008" class="edge">
<title>Node1&#45;&gt;Node8</title>
<g id="a_edge7_Node000001_Node000008"><a xlink:title=" ">
<path fill="none" stroke="#63b8ff" d="M1195.02,-121.51C1186.13,-124.22 1176.93,-127.02 1167.89,-129.78"/>
<polygon fill="#63b8ff" stroke="#63b8ff" points="1195.76,-124.64 1204.3,-118.37 1193.71,-117.94 1195.76,-124.64"/>
</a>
</g>
</g>
<!-- Node11 -->
<g id="Node000011" class="node">
<title>Node11</title>
<g id="a_Node000011"><a xlink:href="../../d1/d26/classcarla_1_1traffic__manager_1_1CollisionStage.html#ac446efd585519bce8de5740158758158" target="_top" xlink:title=" ">
<polygon fill="white" stroke="#666666" points="586,-120 465,-120 465,-88 586,-88 586,-120"/>
<text text-anchor="start" x="473" y="-106.5" font-family="Helvetica,sans-Serif" font-size="10.00">carla::traffic_manager</text>
<text text-anchor="middle" x="525.5" y="-94.5" font-family="Helvetica,sans-Serif" font-size="10.00">::CollisionStage::Update</text>
</a>
</g>
</g>
<!-- Node1&#45;&gt;Node11 -->
<g id="edge14_Node000001_Node000011" class="edge">
<title>Node1&#45;&gt;Node11</title>
<g id="a_edge14_Node000001_Node000011"><a xlink:title=" ">
<path fill="none" stroke="#63b8ff" d="M1194.14,-102.18C1053.49,-102.56 722.18,-103.47 586.27,-103.84"/>
<polygon fill="#63b8ff" stroke="#63b8ff" points="1194.15,-105.67 1204.14,-102.15 1194.13,-98.67 1194.15,-105.67"/>
</a>
</g>
</g>
<!-- Node12 -->
<g id="Node000012" class="node">
<title>Node12</title>
<g id="a_Node000012"><a xlink:href="../../dd/df9/classcarla_1_1traffic__manager_1_1MotionPlanStage.html#a7a57d649d96daccb2e2ee9780f24c4ec" target="_top" xlink:title=" ">
<polygon fill="white" stroke="#666666" points="780.12,-76 647.12,-76 647.12,-44 780.12,-44 780.12,-76"/>
<text text-anchor="start" x="655.12" y="-62.5" font-family="Helvetica,sans-Serif" font-size="10.00">carla::traffic_manager</text>
<text text-anchor="middle" x="713.62" y="-50.5" font-family="Helvetica,sans-Serif" font-size="10.00">::MotionPlanStage::Update</text>
</a>
</g>
</g>
<!-- Node1&#45;&gt;Node12 -->
<g id="edge12_Node000001_Node000012" class="edge">
<title>Node1&#45;&gt;Node12</title>
<g id="a_edge12_Node000001_Node000012"><a xlink:title=" ">
<path fill="none" stroke="#63b8ff" d="M1194.3,-91.14C1185.97,-89.96 1177.54,-88.87 1169.5,-88 1031.46,-72.99 868.9,-65.4 780.32,-62.11"/>
<polygon fill="#63b8ff" stroke="#63b8ff" points="1193.75,-94.75 1204.16,-92.74 1194.77,-87.82 1193.75,-94.75"/>
</a>
</g>
</g>
<!-- Node13 -->
<g id="Node000013" class="node">
<title>Node13</title>
<g id="a_Node000013"><a xlink:href="../../d6/da2/classcarla_1_1traffic__manager_1_1LocalizationStage.html#acf066b922ba5c21c6b6ee23d35731d91" target="_top" xlink:title=" ">
<polygon fill="white" stroke="#666666" points="593.5,-32 457.5,-32 457.5,0 593.5,0 593.5,-32"/>
<text text-anchor="start" x="465.5" y="-18.5" font-family="Helvetica,sans-Serif" font-size="10.00">carla::traffic_manager</text>
<text text-anchor="middle" x="525.5" y="-6.5" font-family="Helvetica,sans-Serif" font-size="10.00">::LocalizationStage::Update</text>
</a>
</g>
</g>
<!-- Node1&#45;&gt;Node13 -->
<g id="edge15_Node000001_Node000013" class="edge">
<title>Node1&#45;&gt;Node13</title>
<g id="a_edge15_Node000001_Node000013"><a xlink:title=" ">
<path fill="none" stroke="#63b8ff" d="M1207.97,-81.99C1195.54,-77.77 1182.18,-73.77 1169.5,-71 962.89,-25.89 711.4,-17.4 593.53,-16.05"/>
<polygon fill="#63b8ff" stroke="#63b8ff" points="1206.55,-85.56 1217.15,-85.57 1208.87,-78.95 1206.55,-85.56"/>
</a>
</g>
</g>
<!-- Node3 -->
<g id="Node000003" class="node">
<title>Node3</title>
<g id="a_Node000003"><a xlink:href="../../d5/db3/classcarla_1_1traffic__manager_1_1TrafficLightStage.html#a3566443b6d621479786b1906f76094d4" target="_top" xlink:title=" ">
<polygon fill="white" stroke="#666666" points="973.5,-227 842.75,-227 842.75,-195 973.5,-195 973.5,-227"/>
<text text-anchor="start" x="850.75" y="-213.5" font-family="Helvetica,sans-Serif" font-size="10.00">carla::traffic_manager</text>
<text text-anchor="middle" x="908.12" y="-201.5" font-family="Helvetica,sans-Serif" font-size="10.00">::TrafficLightStage::Update</text>
</a>
</g>
</g>
<!-- Node2&#45;&gt;Node3 -->
<g id="edge2_Node000002_Node000003" class="edge">
<title>Node2&#45;&gt;Node3</title>
<g id="a_edge2_Node000002_Node000003"><a xlink:title=" ">
<path fill="none" stroke="#63b8ff" d="M1007.43,-212.6C996.13,-212.42 984.7,-212.23 973.82,-212.06"/>
<polygon fill="#63b8ff" stroke="#63b8ff" points="1007.16,-216.12 1017.21,-212.78 1007.27,-209.12 1007.16,-216.12"/>
</a>
</g>
</g>
<!-- Node4 -->
<g id="Node000004" class="node">
<title>Node4</title>
<g id="a_Node000004"><a xlink:href="../../da/d0f/classcarla_1_1traffic__manager_1_1TrafficManagerLocal.html#a6d67cce3d0e5a48056645270364fe637" target="_top" xlink:title="Initiates thread to run the TrafficManager sequentially.">
<polygon fill="white" stroke="#666666" points="421.5,-98 290,-98 290,-66 421.5,-66 421.5,-98"/>
<text text-anchor="start" x="298" y="-84.5" font-family="Helvetica,sans-Serif" font-size="10.00">carla::traffic_manager</text>
<text text-anchor="middle" x="355.75" y="-72.5" font-family="Helvetica,sans-Serif" font-size="10.00">::TrafficManagerLocal::Run</text>
</a>
</g>
</g>
<!-- Node3&#45;&gt;Node4 -->
<g id="edge3_Node000003_Node000004" class="edge">
<title>Node3&#45;&gt;Node4</title>
<g id="a_edge3_Node000003_Node000004"><a xlink:title=" ">
<path fill="none" stroke="#63b8ff" d="M831.66,-205.04C740.66,-196.11 584.15,-175.07 457.5,-129 433.74,-120.36 407.91,-108.25 388.36,-98.49"/>
<polygon fill="#63b8ff" stroke="#63b8ff" points="831.14,-208.61 841.43,-206.07 831.81,-201.64 831.14,-208.61"/>
</a>
</g>
</g>
<!-- Node5 -->
<g id="Node000005" class="node">
<title>Node5</title>
<g id="a_Node000005"><a xlink:href="../../da/d0f/classcarla_1_1traffic__manager_1_1TrafficManagerLocal.html#a1ffbdb0bed64f385437d2820a90286d0" target="_top" xlink:title="To start the TrafficManager.">
<polygon fill="white" stroke="#666666" points="254,-104 145,-104 145,-60 254,-60 254,-104"/>
<text text-anchor="start" x="153" y="-90.5" font-family="Helvetica,sans-Serif" font-size="10.00">carla::traffic_manager</text>
<text text-anchor="start" x="153" y="-78.5" font-family="Helvetica,sans-Serif" font-size="10.00">::TrafficManagerLocal</text>
<text text-anchor="middle" x="199.5" y="-66.5" font-family="Helvetica,sans-Serif" font-size="10.00">::Start</text>
</a>
</g>
</g>
<!-- Node4&#45;&gt;Node5 -->
<g id="edge4_Node000004_Node000005" class="edge">
<title>Node4&#45;&gt;Node5</title>
<g id="a_edge4_Node000004_Node000005"><a xlink:title=" ">
<path fill="none" stroke="#63b8ff" d="M278.87,-82C270.53,-82 262.18,-82 254.19,-82"/>
<polygon fill="#63b8ff" stroke="#63b8ff" points="278.78,-85.5 288.78,-82 278.78,-78.5 278.78,-85.5"/>
</a>
</g>
</g>
<!-- Node6 -->
<g id="Node000006" class="node">
<title>Node6</title>
<g id="a_Node000006"><a xlink:href="../../da/d0f/classcarla_1_1traffic__manager_1_1TrafficManagerLocal.html#a1639db97ccf27a801b92fadabd611755" target="_top" xlink:title="To reset the traffic manager.">
<polygon fill="white" stroke="#666666" points="109,-135 0,-135 0,-91 109,-91 109,-135"/>
<text text-anchor="start" x="8" y="-121.5" font-family="Helvetica,sans-Serif" font-size="10.00">carla::traffic_manager</text>
<text text-anchor="start" x="8" y="-109.5" font-family="Helvetica,sans-Serif" font-size="10.00">::TrafficManagerLocal</text>
<text text-anchor="middle" x="54.5" y="-97.5" font-family="Helvetica,sans-Serif" font-size="10.00">::Reset</text>
</a>
</g>
</g>
<!-- Node5&#45;&gt;Node6 -->
<g id="edge5_Node000005_Node000006" class="edge">
<title>Node5&#45;&gt;Node6</title>
<g id="a_edge5_Node000005_Node000006"><a xlink:title=" ">
<path fill="none" stroke="#63b8ff" d="M134.12,-95.96C125.88,-97.74 117.51,-99.56 109.46,-101.3"/>
<polygon fill="#63b8ff" stroke="#63b8ff" points="134.81,-99.17 143.85,-93.63 133.33,-92.33 134.81,-99.17"/>
</a>
</g>
</g>
<!-- Node7 -->
<g id="Node000007" class="node">
<title>Node7</title>
<g id="a_Node000007"><a xlink:href="../../da/d0f/classcarla_1_1traffic__manager_1_1TrafficManagerLocal.html#a75976d36f4213ab24e79e3ea2dcd280a" target="_top" xlink:title="Private constructor for singleton lifecycle management.">
<polygon fill="white" stroke="#666666" points="109,-73 0,-73 0,-29 109,-29 109,-73"/>
<text text-anchor="start" x="8" y="-59.5" font-family="Helvetica,sans-Serif" font-size="10.00">carla::traffic_manager</text>
<text text-anchor="start" x="8" y="-47.5" font-family="Helvetica,sans-Serif" font-size="10.00">::TrafficManagerLocal</text>
<text text-anchor="middle" x="54.5" y="-35.5" font-family="Helvetica,sans-Serif" font-size="10.00">::TrafficManagerLocal</text>
</a>
</g>
</g>
<!-- Node5&#45;&gt;Node7 -->
<g id="edge6_Node000005_Node000007" class="edge">
<title>Node5&#45;&gt;Node7</title>
<g id="a_edge6_Node000005_Node000007"><a xlink:title=" ">
<path fill="none" stroke="#63b8ff" d="M134.12,-68.04C125.88,-66.26 117.51,-64.44 109.46,-62.7"/>
<polygon fill="#63b8ff" stroke="#63b8ff" points="133.33,-71.67 143.85,-70.37 134.81,-64.83 133.33,-71.67"/>
</a>
</g>
</g>
<!-- Node9 -->
<g id="Node000009" class="node">
<title>Node9</title>
<g id="a_Node000009"><a xlink:href="../../d1/d26/classcarla_1_1traffic__manager_1_1CollisionStage.html#a383f31bbf925c84040ef66592dd6e56e" target="_top" xlink:title=" ">
<polygon fill="white" stroke="#666666" points="982.5,-174 833.75,-174 833.75,-130 982.5,-130 982.5,-174"/>
<text text-anchor="start" x="841.75" y="-160.5" font-family="Helvetica,sans-Serif" font-size="10.00">carla::traffic_manager</text>
<text text-anchor="start" x="841.75" y="-148.5" font-family="Helvetica,sans-Serif" font-size="10.00">::CollisionStage::GetGeometry</text>
<text text-anchor="middle" x="908.12" y="-136.5" font-family="Helvetica,sans-Serif" font-size="10.00">BetweenActors</text>
</a>
</g>
</g>
<!-- Node8&#45;&gt;Node9 -->
<g id="edge8_Node000008_Node000009" class="edge">
<title>Node8&#45;&gt;Node9</title>
<g id="a_edge8_Node000008_Node000009"><a xlink:title=" ">
<path fill="none" stroke="#63b8ff" d="M1009.07,-152C1000.33,-152 991.49,-152 982.88,-152"/>
<polygon fill="#63b8ff" stroke="#63b8ff" points="1009.06,-155.5 1019.06,-152 1009.06,-148.5 1009.06,-155.5"/>
</a>
</g>
</g>
<!-- Node10 -->
<g id="Node000010" class="node">
<title>Node10</title>
<g id="a_Node000010"><a xlink:href="../../d1/d26/classcarla_1_1traffic__manager_1_1CollisionStage.html#af9c0740908fbcb2f077fb513224b2b4e" target="_top" xlink:title=" ">
<polygon fill="white" stroke="#666666" points="797.75,-166 629.5,-166 629.5,-134 797.75,-134 797.75,-166"/>
<text text-anchor="start" x="637.5" y="-152.5" font-family="Helvetica,sans-Serif" font-size="10.00">carla::traffic_manager</text>
<text text-anchor="middle" x="713.62" y="-140.5" font-family="Helvetica,sans-Serif" font-size="10.00">::CollisionStage::NegotiateCollision</text>
</a>
</g>
</g>
<!-- Node9&#45;&gt;Node10 -->
<g id="edge9_Node000009_Node000010" class="edge">
<title>Node9&#45;&gt;Node10</title>
<g id="a_edge9_Node000009_Node000010"><a xlink:title=" ">
<path fill="none" stroke="#63b8ff" d="M822.3,-151.12C814.21,-151.03 806.01,-150.95 797.93,-150.87"/>
<polygon fill="#63b8ff" stroke="#63b8ff" points="822.21,-154.63 832.25,-151.23 822.29,-147.63 822.21,-154.63"/>
</a>
</g>
</g>
<!-- Node10&#45;&gt;Node11 -->
<g id="edge10_Node000010_Node000011" class="edge">
<title>Node10&#45;&gt;Node11</title>
<g id="a_edge10_Node000010_Node000011"><a xlink:title=" ">
<path fill="none" stroke="#63b8ff" d="M635.3,-130.89C618.9,-126.84 601.83,-122.62 586.21,-118.76"/>
<polygon fill="#63b8ff" stroke="#63b8ff" points="634.41,-134.52 644.96,-133.52 636.09,-127.73 634.41,-134.52"/>
</a>
</g>
</g>
<!-- Node11&#45;&gt;Node4 -->
<g id="edge11_Node000011_Node000004" class="edge">
<title>Node11&#45;&gt;Node4</title>
<g id="a_edge11_Node000011_Node000004"><a xlink:title=" ">
<path fill="none" stroke="#63b8ff" d="M454.28,-94.79C443.54,-93.38 432.49,-91.93 421.87,-90.54"/>
<polygon fill="#63b8ff" stroke="#63b8ff" points="453.52,-98.35 463.89,-96.18 454.43,-91.41 453.52,-98.35"/>
</a>
</g>
</g>
<!-- Node12&#45;&gt;Node4 -->
<g id="edge13_Node000012_Node000004" class="edge">
<title>Node12&#45;&gt;Node4</title>
<g id="a_edge13_Node000012_Node000004"><a xlink:title=" ">
<path fill="none" stroke="#63b8ff" d="M636.13,-64.73C572.25,-68.68 482.19,-74.25 421.75,-77.98"/>
<polygon fill="#63b8ff" stroke="#63b8ff" points="636.17,-68.17 645.94,-64.06 635.74,-61.18 636.17,-68.17"/>
</a>
</g>
</g>
<!-- Node13&#45;&gt;Node4 -->
<g id="edge16_Node000013_Node000004" class="edge">
<title>Node13&#45;&gt;Node4</title>
<g id="a_edge16_Node000013_Node000004"><a xlink:title=" ">
<path fill="none" stroke="#63b8ff" d="M472.65,-36.4C448.79,-45.79 420.87,-56.77 398.4,-65.61"/>
<polygon fill="#63b8ff" stroke="#63b8ff" points="473.58,-39.4 481.6,-32.48 471.02,-32.89 473.58,-39.4"/>
</a>
</g>
</g>
</g>
</svg>

<g id="navigator" transform="translate(0 0)" fill="#404254">
  <rect fill="#f2f5e9" fill-opacity="0.5" stroke="#606060" stroke-width=".5" x="0" y="0" width="60" height="60"/>
  <use id="zoomplus" xlink:href="#zoomPlus" x="17" y="9" onmousedown="handleZoom(evt,'in')"/>
  <use id="zoomminus" xlink:href="#zoomMin" x="42" y="9" onmousedown="handleZoom(evt,'out')"/>
  <use id="reset" xlink:href="#resetDef" x="30" y="36" onmousedown="handleReset()"/>
   <use id="arrowup" xlink:href="#arrowUp" x="0" y="0" onmousedown="handlePan(0,-1)"/>
  <use id="arrowright" xlink:href="#arrowRight" x="0" y="0" onmousedown="handlePan(1,0)"/>
  <use id="arrowdown" xlink:href="#arrowDown" x="0" y="0" onmousedown="handlePan(0,1)"/>
  <use id="arrowleft" xlink:href="#arrowLeft" x="0" y="0" onmousedown="handlePan(-1,0)"/>
</g>
<svg viewBox="0 0 15 15" width="100%" height="30px" preserveAspectRatio="xMaxYMin meet">
 <g id="arrow_out" transform="scale(0.3 0.3)">
  <a xlink:href="namespacecarla_1_1traffic__manager_aa6a228c96ec5c8ff54d8f49f4bb294d8_icgraph_org.svg" target="_base">
   <rect id="button" ry="5" rx="5" y="6" x="6" height="38" width="38"
        fill="#f2f5e9" fill-opacity="0.5" stroke="#606060" stroke-width="1.0"/>
   <path id="arrow"
     d="M 11.500037,31.436501 C 11.940474,20.09759 22.043105,11.32322 32.158766,21.979434 L 37.068811,17.246167 C 37.068811,17.246167 37.088388,32 37.088388,32 L 22.160133,31.978069 C 22.160133,31.978069 26.997745,27.140456 26.997745,27.140456 C 18.528582,18.264221 13.291696,25.230495 11.500037,31.436501 z"
     style="fill:#404040;"/>
  </a>
 </g>
</svg>

<style type='text/css'>
<![CDATA[
[data-mouse-over-selected='false'] { opacity: 0.7; }
[data-mouse-over-selected='true']  { opacity: 1.0; }
]]>
</style>
<script type="application/ecmascript"><![CDATA[
document.addEventListener('DOMContentLoaded', (event) => {
  highlightEdges();
  highlightAdjacentNodes();
});
]]></script>
</svg>
