<?xml version="1.0" encoding="UTF-8" standalone="no"?>
<!DOCTYPE svg PUBLIC "-//W3C//DTD SVG 1.1//EN"
 "http://www.w3.org/Graphics/SVG/1.1/DTD/svg11.dtd">
<!-- Generated by graphviz version 8.1.0 (20230707.0739)
 -->
<!-- Title: carla::traffic_manager::DeviationCrossProduct Pages: 1 -->
<svg width="577pt" height="90pt"
 viewBox="0.00 0.00 576.75 90.00" xmlns="http://www.w3.org/2000/svg" xmlns:xlink="http://www.w3.org/1999/xlink">
<g id="graph0" class="graph" transform="scale(1 1) rotate(0) translate(4 86)">
<title>carla::traffic_manager::DeviationCrossProduct</title>
<!-- Node1 -->
<g id="Node000001" class="node">
<title>Node1</title>
<g id="a_Node000001"><a xlink:title="Returns the cross product (z component value) between the vehicle&#39;s heading vector and the vector alo...">
<polygon fill="#999999" stroke="#666666" points="120.25,-57 0,-57 0,-25 120.25,-25 120.25,-57"/>
<text text-anchor="start" x="8" y="-43.5" font-family="Helvetica,sans-Serif" font-size="10.00">carla::traffic_manager</text>
<text text-anchor="middle" x="60.12" y="-31.5" font-family="Helvetica,sans-Serif" font-size="10.00">::DeviationCrossProduct</text>
</a>
</g>
</g>
<!-- Node2 -->
<g id="Node000002" class="node">
<title>Node2</title>
<g id="a_Node000002"><a xlink:href="../../d9/dfe/classcarla_1_1geom_1_1Vector3D.html#a21f9cb00ea207d0f5304fad1c40b20e7" target="_top" xlink:title=" ">
<polygon fill="white" stroke="#666666" points="269.75,-57 156.25,-57 156.25,-25 269.75,-25 269.75,-57"/>
<text text-anchor="start" x="164.25" y="-43.5" font-family="Helvetica,sans-Serif" font-size="10.00">carla::geom::Vector3D</text>
<text text-anchor="middle" x="213" y="-31.5" font-family="Helvetica,sans-Serif" font-size="10.00">::MakeSafeUnitVector</text>
</a>
</g>
</g>
<!-- Node1&#45;&gt;Node2 -->
<g id="edge1_Node000001_Node000002" class="edge">
<title>Node1&#45;&gt;Node2</title>
<g id="a_edge1_Node000001_Node000002"><a xlink:title=" ">
<path fill="none" stroke="#63b8ff" d="M120.32,-41C128.47,-41 136.89,-41 145.17,-41"/>
<polygon fill="#63b8ff" stroke="#63b8ff" points="144.93,-44.5 154.93,-41 144.93,-37.5 144.93,-44.5"/>
</a>
</g>
</g>
<!-- Node3 -->
<g id="Node000003" class="node">
<title>Node3</title>
<g id="a_Node000003"><a xlink:href="../../d9/dfe/classcarla_1_1geom_1_1Vector3D.html#aaa4bec48ae0734cca2c027df30ea6b34" target="_top" xlink:title=" ">
<polygon fill="white" stroke="#666666" points="419.25,-82 305.75,-82 305.75,-50 419.25,-50 419.25,-82"/>
<text text-anchor="start" x="313.75" y="-68.5" font-family="Helvetica,sans-Serif" font-size="10.00">carla::geom::Vector3D</text>
<text text-anchor="middle" x="362.5" y="-56.5" font-family="Helvetica,sans-Serif" font-size="10.00">::Length</text>
</a>
</g>
</g>
<!-- Node2&#45;&gt;Node3 -->
<g id="edge2_Node000002_Node000003" class="edge">
<title>Node2&#45;&gt;Node3</title>
<g id="a_edge2_Node000002_Node000003"><a xlink:title=" ">
<path fill="none" stroke="#63b8ff" d="M270.18,-50.52C278.22,-51.89 286.56,-53.3 294.77,-54.69"/>
<polygon fill="#63b8ff" stroke="#63b8ff" points="294.03,-58.28 304.47,-56.5 295.2,-51.38 294.03,-58.28"/>
</a>
</g>
</g>
<!-- Node5 -->
<g id="Node000005" class="node">
<title>Node5</title>
<g id="a_Node000005"><a xlink:href="../../d9/dfe/classcarla_1_1geom_1_1Vector3D.html#ae8900b561fa2d9e6667f36038aea7657" target="_top" xlink:title=" ">
<polygon fill="white" stroke="#666666" points="419.25,-32 305.75,-32 305.75,0 419.25,0 419.25,-32"/>
<text text-anchor="start" x="313.75" y="-18.5" font-family="Helvetica,sans-Serif" font-size="10.00">carla::geom::Vector3D</text>
<text text-anchor="middle" x="362.5" y="-6.5" font-family="Helvetica,sans-Serif" font-size="10.00">::Vector3D</text>
</a>
</g>
</g>
<!-- Node2&#45;&gt;Node5 -->
<g id="edge4_Node000002_Node000005" class="edge">
<title>Node2&#45;&gt;Node5</title>
<g id="a_edge4_Node000002_Node000005"><a xlink:title=" ">
<path fill="none" stroke="#63b8ff" d="M270.18,-31.48C278.22,-30.11 286.56,-28.7 294.77,-27.31"/>
<polygon fill="#63b8ff" stroke="#63b8ff" points="295.2,-30.62 304.47,-25.5 294.03,-23.72 295.2,-30.62"/>
</a>
</g>
</g>
<!-- Node4 -->
<g id="Node000004" class="node">
<title>Node4</title>
<g id="a_Node000004"><a xlink:href="../../d9/dfe/classcarla_1_1geom_1_1Vector3D.html#a0bd1ef6e24532e950b455838ecd4f8cf" target="_top" xlink:title=" ">
<polygon fill="white" stroke="#666666" points="568.75,-82 455.25,-82 455.25,-50 568.75,-50 568.75,-82"/>
<text text-anchor="start" x="463.25" y="-68.5" font-family="Helvetica,sans-Serif" font-size="10.00">carla::geom::Vector3D</text>
<text text-anchor="middle" x="512" y="-56.5" font-family="Helvetica,sans-Serif" font-size="10.00">::SquaredLength</text>
</a>
</g>
</g>
<!-- Node3&#45;&gt;Node4 -->
<g id="edge3_Node000003_Node000004" class="edge">
<title>Node3&#45;&gt;Node4</title>
<g id="a_edge3_Node000003_Node000004"><a xlink:title=" ">
<path fill="none" stroke="#63b8ff" d="M419.68,-66C427.63,-66 435.87,-66 444,-66"/>
<polygon fill="#63b8ff" stroke="#63b8ff" points="443.97,-69.5 453.97,-66 443.97,-62.5 443.97,-69.5"/>
</a>
</g>
</g>
</g>
</svg>
