<?xml version="1.0" encoding="UTF-8" standalone="no"?>
<!DOCTYPE svg PUBLIC "-//W3C//DTD SVG 1.1//EN"
 "http://www.w3.org/Graphics/SVG/1.1/DTD/svg11.dtd">
<!-- Generated by graphviz version 8.1.0 (20230707.0739)
 -->
<!-- Title: carla::client::LaneInvasionSensor::~LaneInvasionSensor Pages: 1 -->
<svg width="779pt" height="90pt"
 viewBox="0.00 0.00 778.75 90.00" xmlns="http://www.w3.org/2000/svg" xmlns:xlink="http://www.w3.org/1999/xlink">
<g id="graph0" class="graph" transform="scale(1 1) rotate(0) translate(4 86)">
<title>carla::client::LaneInvasionSensor::~LaneInvasionSensor</title>
<!-- Node1 -->
<g id="Node000001" class="node">
<title>Node1</title>
<g id="a_Node000001"><a xlink:title=" ">
<polygon fill="#999999" stroke="#666666" points="145,-57 0,-57 0,-25 145,-25 145,-57"/>
<text text-anchor="start" x="8" y="-43.5" font-family="Helvetica,sans-Serif" font-size="10.00">carla::client::LaneInvasion</text>
<text text-anchor="middle" x="72.5" y="-31.5" font-family="Helvetica,sans-Serif" font-size="10.00">Sensor::~LaneInvasionSensor</text>
</a>
</g>
</g>
<!-- Node2 -->
<g id="Node000002" class="node">
<title>Node2</title>
<g id="a_Node000002"><a xlink:href="../../dc/d47/classcarla_1_1client_1_1LaneInvasionSensor.html#a61711d1bf545b1c4ae91a8ebd0a2587f" target="_top" xlink:title="Stop listening for new measurements.">
<polygon fill="white" stroke="#666666" points="308.75,-57 181,-57 181,-25 308.75,-25 308.75,-57"/>
<text text-anchor="start" x="189" y="-43.5" font-family="Helvetica,sans-Serif" font-size="10.00">carla::client::LaneInvasion</text>
<text text-anchor="middle" x="244.88" y="-31.5" font-family="Helvetica,sans-Serif" font-size="10.00">Sensor::Stop</text>
</a>
</g>
</g>
<!-- Node1&#45;&gt;Node2 -->
<g id="edge1_Node000001_Node000002" class="edge">
<title>Node1&#45;&gt;Node2</title>
<g id="a_edge1_Node000001_Node000002"><a xlink:title=" ">
<path fill="none" stroke="#63b8ff" d="M145.26,-41C153.33,-41 161.56,-41 169.65,-41"/>
<polygon fill="#63b8ff" stroke="#63b8ff" points="169.58,-44.5 179.58,-41 169.58,-37.5 169.58,-44.5"/>
</a>
</g>
</g>
<!-- Node3 -->
<g id="Node000003" class="node">
<title>Node3</title>
<g id="a_Node000003"><a xlink:href="../../d2/d06/classcarla_1_1client_1_1detail_1_1ActorState.html#a520d5ef7284ded86a1d96a346f3516aa" target="_top" xlink:title=" ">
<polygon fill="white" stroke="#666666" points="478.12,-82 352.62,-82 352.62,-50 478.12,-50 478.12,-82"/>
<text text-anchor="start" x="360.62" y="-68.5" font-family="Helvetica,sans-Serif" font-size="10.00">carla::client::detail</text>
<text text-anchor="middle" x="415.38" y="-56.5" font-family="Helvetica,sans-Serif" font-size="10.00">::ActorState::GetEpisode</text>
</a>
</g>
</g>
<!-- Node2&#45;&gt;Node3 -->
<g id="edge2_Node000002_Node000003" class="edge">
<title>Node2&#45;&gt;Node3</title>
<g id="a_edge2_Node000002_Node000003"><a xlink:title=" ">
<path fill="none" stroke="#63b8ff" d="M309.1,-50.38C319.67,-51.95 330.72,-53.59 341.52,-55.19"/>
<polygon fill="#63b8ff" stroke="#63b8ff" points="340.79,-58.77 351.2,-56.77 341.82,-51.85 340.79,-58.77"/>
</a>
</g>
</g>
<!-- Node4 -->
<g id="Node000004" class="node">
<title>Node4</title>
<g id="a_Node000004"><a xlink:href="../../d1/dd3/classcarla_1_1client_1_1detail_1_1EpisodeProxyImpl.html#a57d267dc4db643c6293a21570e838506" target="_top" xlink:title=" ">
<polygon fill="white" stroke="#666666" points="486,-32 344.75,-32 344.75,0 486,0 486,-32"/>
<text text-anchor="start" x="352.75" y="-18.5" font-family="Helvetica,sans-Serif" font-size="10.00">carla::client::detail</text>
<text text-anchor="middle" x="415.38" y="-6.5" font-family="Helvetica,sans-Serif" font-size="10.00">::EpisodeProxyImpl::TryLock</text>
</a>
</g>
</g>
<!-- Node2&#45;&gt;Node4 -->
<g id="edge3_Node000002_Node000004" class="edge">
<title>Node2&#45;&gt;Node4</title>
<g id="a_edge3_Node000002_Node000004"><a xlink:title=" ">
<path fill="none" stroke="#63b8ff" d="M309.1,-31.62C317.08,-30.43 325.34,-29.21 333.55,-27.99"/>
<polygon fill="#63b8ff" stroke="#63b8ff" points="333.92,-31.33 343.3,-26.4 332.89,-24.4 333.92,-31.33"/>
</a>
</g>
</g>
<!-- Node5 -->
<g id="Node000005" class="node">
<title>Node5</title>
<g id="a_Node000005"><a xlink:href="../../d8/dcd/namespacecarla_1_1client_1_1detail.html#aa47f72a521d97fe3574a56e808b509d8" target="_top" xlink:title=" ">
<polygon fill="white" stroke="#666666" points="617.5,-32 522,-32 522,0 617.5,0 617.5,-32"/>
<text text-anchor="start" x="530" y="-18.5" font-family="Helvetica,sans-Serif" font-size="10.00">carla::client::detail</text>
<text text-anchor="middle" x="569.75" y="-6.5" font-family="Helvetica,sans-Serif" font-size="10.00">::Load</text>
</a>
</g>
</g>
<!-- Node4&#45;&gt;Node5 -->
<g id="edge4_Node000004_Node000005" class="edge">
<title>Node4&#45;&gt;Node5</title>
<g id="a_edge4_Node000004_Node000005"><a xlink:title=" ">
<path fill="none" stroke="#63b8ff" d="M486.32,-16C494.6,-16 502.98,-16 511.07,-16"/>
<polygon fill="#63b8ff" stroke="#63b8ff" points="510.88,-19.5 520.88,-16 510.88,-12.5 510.88,-19.5"/>
</a>
</g>
</g>
<!-- Node6 -->
<g id="Node000006" class="node">
<title>Node6</title>
<g id="a_Node000006"><a xlink:href="../../d2/dcf/classcarla_1_1AtomicSharedPtr.html#a7bb0b8af178b36c923fedac384b3aad4" target="_top" xlink:title=" ">
<polygon fill="white" stroke="#666666" points="770.75,-32 653.5,-32 653.5,0 770.75,0 770.75,-32"/>
<text text-anchor="start" x="661.5" y="-18.5" font-family="Helvetica,sans-Serif" font-size="10.00">carla::AtomicSharedPtr</text>
<text text-anchor="middle" x="712.12" y="-6.5" font-family="Helvetica,sans-Serif" font-size="10.00">::load</text>
</a>
</g>
</g>
<!-- Node5&#45;&gt;Node6 -->
<g id="edge5_Node000005_Node000006" class="edge">
<title>Node5&#45;&gt;Node6</title>
<g id="a_edge5_Node000005_Node000006"><a xlink:title=" ">
<path fill="none" stroke="#63b8ff" d="M617.88,-16C625.75,-16 634.05,-16 642.32,-16"/>
<polygon fill="#63b8ff" stroke="#63b8ff" points="642.14,-19.5 652.14,-16 642.14,-12.5 642.14,-19.5"/>
</a>
</g>
</g>
</g>
</svg>
