<?xml version="1.0" encoding="UTF-8" standalone="no"?>
<!DOCTYPE svg PUBLIC "-//W3C//DTD SVG 1.1//EN"
 "http://www.w3.org/Graphics/SVG/1.1/DTD/svg11.dtd">
<!-- Generated by graphviz version 8.1.0 (20230707.0739)
 -->
<!-- Title: carla::client::TrafficLight::GetStopWaypoints Pages: 1 -->
<!--zoomable 290 -->

<svg id="main" version="1.1" xmlns="http://www.w3.org/2000/svg" xmlns:xlink="http://www.w3.org/1999/xlink" xml:space="preserve" onload="init(evt)">
<style type="text/css"><![CDATA[
.node, .edge {opacity: 0.7;}
.node.selected, .edge.selected {opacity: 1;}
.edge:hover path { stroke: red; }
.edge:hover polygon { stroke: red; fill: red; }
]]></style>

<defs>
  <circle id="rim" cx="0" cy="0" r="7"/>
  <circle id="rim2" cx="0" cy="0" r="3.5"/>
  <g id="zoomPlus">
    <use xlink:href="#rim" fill="#404040"><set attributeName="fill" to="#808080" begin="zoomplus.mouseover" end="zoomplus.mouseout"/></use>
    <path d="M-4,0h8M0,-4v8" fill="none" stroke="white" stroke-width="1.5" pointer-events="none"/>
  </g>
  <g id="zoomMin">
    <use xlink:href="#rim" fill="#404040"><set attributeName="fill" to="#808080" begin="zoomminus.mouseover" end="zoomminus.mouseout"/></use>
    <path d="M-4,0h8" fill="none" stroke="white" stroke-width="1.5" pointer-events="none"/>
  </g>
  <g id="arrowUp" transform="translate(30 24)">
    <use xlink:href="#rim"/>
    <path pointer-events="none" fill="none" stroke="white" stroke-width="1.5" d="M0,-3.0v7 M-2.5,-0.5L0,-3.0L2.5,-0.5"/>
  </g>
  <g id="arrowRight" transform="rotate(90) translate(36 -43)">
    <use xlink:href="#rim"/>
    <path pointer-events="none" fill="none" stroke="white" stroke-width="1.5" d="M0,-3.0v7 M-2.5,-0.5L0,-3.0L2.5,-0.5"/>
  </g>
  <g id="arrowDown" transform="rotate(180) translate(-30 -48)">
    <use xlink:href="#rim"/>
    <path pointer-events="none" fill="none" stroke="white" stroke-width="1.5" d="M0,-3.0v7 M-2.5,-0.5L0,-3.0L2.5,-0.5"/>
  </g>
  <g id="arrowLeft" transform="rotate(270) translate(-36 17)">
    <use xlink:href="#rim"/>
    <path pointer-events="none" fill="none" stroke="white" stroke-width="1.5" d="M0,-3.0v7 M-2.5,-0.5L0,-3.0L2.5,-0.5"/>
  </g>
  <g id="resetDef">
    <use xlink:href="#rim2" fill="#404040"><set attributeName="fill" to="#808080" begin="reset.mouseover" end="reset.mouseout"/></use>
  </g>
</defs>
<script type="application/ecmascript">
var viewWidth = 717;
var viewHeight = 290;
var sectionId = 'dynsection-13';
</script>
<script type="application/ecmascript" xlink:href="../../svg.min.js"/>
<svg id="graph" class="graph">
<g id="viewport">
<title>carla::client::TrafficLight::GetStopWaypoints</title>
<!-- Node1 -->
<g id="Node000001" class="node">
<title>Node1</title>
<g id="a_Node000001"><a xlink:title=" ">
<polygon fill="#999999" stroke="#666666" points="118.75,-157 0,-157 0,-125 118.75,-125 118.75,-157"/>
<text text-anchor="start" x="8" y="-143.5" font-family="Helvetica,sans-Serif" font-size="10.00">carla::client::TrafficLight</text>
<text text-anchor="middle" x="59.38" y="-131.5" font-family="Helvetica,sans-Serif" font-size="10.00">::GetStopWaypoints</text>
</a>
</g>
</g>
<!-- Node2 -->
<g id="Node000002" class="node">
<title>Node2</title>
<g id="a_Node000002"><a xlink:href="../../d2/d06/classcarla_1_1client_1_1detail_1_1ActorState.html#a520d5ef7284ded86a1d96a346f3516aa" target="_top" xlink:title=" ">
<polygon fill="white" stroke="#666666" points="281.38,-282 155.88,-282 155.88,-250 281.38,-250 281.38,-282"/>
<text text-anchor="start" x="163.88" y="-268.5" font-family="Helvetica,sans-Serif" font-size="10.00">carla::client::detail</text>
<text text-anchor="middle" x="218.62" y="-256.5" font-family="Helvetica,sans-Serif" font-size="10.00">::ActorState::GetEpisode</text>
</a>
</g>
</g>
<!-- Node1&#45;&gt;Node2 -->
<g id="edge1_Node000001_Node000002" class="edge">
<title>Node1&#45;&gt;Node2</title>
<g id="a_edge1_Node000001_Node000002"><a xlink:title=" ">
<path fill="none" stroke="#63b8ff" d="M72.08,-157.28C88.42,-178.99 119.99,-217.4 154.75,-241 156.5,-242.19 158.31,-243.33 160.18,-244.43"/>
<polygon fill="#63b8ff" stroke="#63b8ff" points="158.32,-247.95 168.79,-249.58 161.63,-241.77 158.32,-247.95"/>
</a>
</g>
</g>
<!-- Node3 -->
<g id="Node000003" class="node">
<title>Node3</title>
<g id="a_Node000003"><a xlink:href="../../de/da4/classcarla_1_1geom_1_1Transform.html#ae2780e95b1c8b53205fb222a314f6773" target="_top" xlink:title=" ">
<polygon fill="white" stroke="#666666" points="276.5,-232 160.75,-232 160.75,-200 276.5,-200 276.5,-232"/>
<text text-anchor="start" x="168.75" y="-218.5" font-family="Helvetica,sans-Serif" font-size="10.00">carla::geom::Transform</text>
<text text-anchor="middle" x="218.62" y="-206.5" font-family="Helvetica,sans-Serif" font-size="10.00">::GetForwardVector</text>
</a>
</g>
</g>
<!-- Node1&#45;&gt;Node3 -->
<g id="edge2_Node000001_Node000003" class="edge">
<title>Node1&#45;&gt;Node3</title>
<g id="a_edge2_Node000001_Node000003"><a xlink:title=" ">
<path fill="none" stroke="#63b8ff" d="M89.3,-157.37C107.76,-167.56 132.36,-180.66 154.75,-191 157.9,-192.45 161.15,-193.9 164.45,-195.33"/>
<polygon fill="#63b8ff" stroke="#63b8ff" points="162.83,-198.87 173.41,-199.54 165.56,-192.42 162.83,-198.87"/>
</a>
</g>
</g>
<!-- Node7 -->
<g id="Node000007" class="node">
<title>Node7</title>
<g id="a_Node000007"><a xlink:href="../../d6/da5/classcarla_1_1client_1_1Actor.html#ab5c7de9cefbe7d189c97a429ab052115" target="_top" xlink:title="返回行为体的当前变换（位置和方向）。">
<polygon fill="white" stroke="#666666" points="266.38,-182 170.88,-182 170.88,-150 266.38,-150 266.38,-182"/>
<text text-anchor="start" x="178.88" y="-168.5" font-family="Helvetica,sans-Serif" font-size="10.00">carla::client::Actor</text>
<text text-anchor="middle" x="218.62" y="-156.5" font-family="Helvetica,sans-Serif" font-size="10.00">::GetTransform</text>
</a>
</g>
</g>
<!-- Node1&#45;&gt;Node7 -->
<g id="edge6_Node000001_Node000007" class="edge">
<title>Node1&#45;&gt;Node7</title>
<g id="a_edge6_Node000001_Node000007"><a xlink:title=" ">
<path fill="none" stroke="#63b8ff" d="M118.93,-150.31C132.43,-152.46 146.79,-154.74 160.24,-156.88"/>
<polygon fill="#63b8ff" stroke="#63b8ff" points="159.38,-160.44 169.8,-158.56 160.48,-153.53 159.38,-160.44"/>
</a>
</g>
</g>
<!-- Node8 -->
<g id="Node000008" class="node">
<title>Node8</title>
<g id="a_Node000008"><a xlink:href="../../dc/d5c/classcarla_1_1client_1_1TrafficSign.html#a0f8c0a7718094908267c293f2ff7e0ce" target="_top" xlink:title=" ">
<polygon fill="white" stroke="#666666" points="277.25,-132 160,-132 160,-100 277.25,-100 277.25,-132"/>
<text text-anchor="start" x="168" y="-118.5" font-family="Helvetica,sans-Serif" font-size="10.00">carla::client::TrafficSign</text>
<text text-anchor="middle" x="218.62" y="-106.5" font-family="Helvetica,sans-Serif" font-size="10.00">::GetTriggerVolume</text>
</a>
</g>
</g>
<!-- Node1&#45;&gt;Node8 -->
<g id="edge7_Node000001_Node000008" class="edge">
<title>Node1&#45;&gt;Node8</title>
<g id="a_edge7_Node000001_Node000008"><a xlink:title=" ">
<path fill="none" stroke="#63b8ff" d="M118.93,-131.69C128.68,-130.14 138.86,-128.52 148.84,-126.94"/>
<polygon fill="#63b8ff" stroke="#63b8ff" points="149.22,-130.26 158.55,-125.23 148.12,-123.35 149.22,-130.26"/>
</a>
</g>
</g>
<!-- Node9 -->
<g id="Node000009" class="node">
<title>Node9</title>
<g id="a_Node000009"><a xlink:href="../../d1/dd3/classcarla_1_1client_1_1detail_1_1EpisodeProxyImpl.html#aaca857645fbeb6546b4a03a663bb65af" target="_top" xlink:title="与 TryLock 相同，但永远不会返回 nullptr。">
<polygon fill="white" stroke="#666666" points="282.5,-82 154.75,-82 154.75,-50 282.5,-50 282.5,-82"/>
<text text-anchor="start" x="162.75" y="-68.5" font-family="Helvetica,sans-Serif" font-size="10.00">carla::client::detail</text>
<text text-anchor="middle" x="218.62" y="-56.5" font-family="Helvetica,sans-Serif" font-size="10.00">::EpisodeProxyImpl::Lock</text>
</a>
</g>
</g>
<!-- Node1&#45;&gt;Node9 -->
<g id="edge8_Node000001_Node000009" class="edge">
<title>Node1&#45;&gt;Node9</title>
<g id="a_edge8_Node000001_Node000009"><a xlink:title=" ">
<path fill="none" stroke="#63b8ff" d="M89.3,-124.63C107.76,-114.44 132.36,-101.34 154.75,-91 157.9,-89.55 161.15,-88.1 164.45,-86.67"/>
<polygon fill="#63b8ff" stroke="#63b8ff" points="165.56,-89.58 173.41,-82.46 162.83,-83.13 165.56,-89.58"/>
</a>
</g>
</g>
<!-- Node10 -->
<g id="Node000010" class="node">
<title>Node10</title>
<g id="a_Node000010"><a xlink:href="../../de/da4/classcarla_1_1geom_1_1Transform.html#a3cc49b5e9c8293dec0c89a1cac2ceae8" target="_top" xlink:title="将此变换应用于 in_point（先平移然后旋转）。 具体操作是先根据当前的旋转信息对输入点进行旋转操作，然后再根据当前的位置信息进行平移操作，最终将结果赋值回输入点">
<polygon fill="white" stroke="#666666" points="276.5,-32 160.75,-32 160.75,0 276.5,0 276.5,-32"/>
<text text-anchor="start" x="168.75" y="-18.5" font-family="Helvetica,sans-Serif" font-size="10.00">carla::geom::Transform</text>
<text text-anchor="middle" x="218.62" y="-6.5" font-family="Helvetica,sans-Serif" font-size="10.00">::TransformPoint</text>
</a>
</g>
</g>
<!-- Node1&#45;&gt;Node10 -->
<g id="edge9_Node000001_Node000010" class="edge">
<title>Node1&#45;&gt;Node10</title>
<g id="a_edge9_Node000001_Node000010"><a xlink:title=" ">
<path fill="none" stroke="#63b8ff" d="M72.08,-124.72C88.42,-103.01 119.99,-64.6 154.75,-41 156.5,-39.81 158.31,-38.67 160.18,-37.57"/>
<polygon fill="#63b8ff" stroke="#63b8ff" points="161.63,-40.23 168.79,-32.42 158.32,-34.05 161.63,-40.23"/>
</a>
</g>
</g>
<!-- Node4 -->
<g id="Node000004" class="node">
<title>Node4</title>
<g id="a_Node000004"><a xlink:href="../../d8/dba/classcarla_1_1geom_1_1Rotation.html#af3b9aeecb1d8a5a29aac264ea2b780dc" target="_top" xlink:title=" ">
<polygon fill="white" stroke="#666666" points="427.5,-222 318.5,-222 318.5,-190 427.5,-190 427.5,-222"/>
<text text-anchor="start" x="326.5" y="-208.5" font-family="Helvetica,sans-Serif" font-size="10.00">carla::geom::Rotation</text>
<text text-anchor="middle" x="373" y="-196.5" font-family="Helvetica,sans-Serif" font-size="10.00">::GetForwardVector</text>
</a>
</g>
</g>
<!-- Node3&#45;&gt;Node4 -->
<g id="edge3_Node000003_Node000004" class="edge">
<title>Node3&#45;&gt;Node4</title>
<g id="a_edge3_Node000003_Node000004"><a xlink:title=" ">
<path fill="none" stroke="#63b8ff" d="M276.8,-212.25C286.72,-211.6 297.1,-210.92 307.21,-210.25"/>
<polygon fill="#63b8ff" stroke="#63b8ff" points="307.29,-213.69 317.04,-209.54 306.83,-206.7 307.29,-213.69"/>
</a>
</g>
</g>
<!-- Node5 -->
<g id="Node000005" class="node">
<title>Node5</title>
<g id="a_Node000005"><a xlink:href="../../d0/dea/classcarla_1_1geom_1_1Math.html#aafbb2dc8a60aa6e86cc7fe1ad2872beb" target="_top" xlink:title="计算指向 rotation 的 X 轴的单位向量">
<polygon fill="white" stroke="#666666" points="568.38,-213 467.62,-213 467.62,-181 568.38,-181 568.38,-213"/>
<text text-anchor="start" x="475.62" y="-199.5" font-family="Helvetica,sans-Serif" font-size="10.00">carla::geom::Math::</text>
<text text-anchor="middle" x="518" y="-187.5" font-family="Helvetica,sans-Serif" font-size="10.00">GetForwardVector</text>
</a>
</g>
</g>
<!-- Node4&#45;&gt;Node5 -->
<g id="edge4_Node000004_Node000005" class="edge">
<title>Node4&#45;&gt;Node5</title>
<g id="a_edge4_Node000004_Node000005"><a xlink:title=" ">
<path fill="none" stroke="#63b8ff" d="M427.65,-202.62C437.1,-202.03 446.99,-201.41 456.6,-200.8"/>
<polygon fill="#63b8ff" stroke="#63b8ff" points="456.54,-204.25 466.3,-200.13 456.1,-197.26 456.54,-204.25"/>
</a>
</g>
</g>
<!-- Node6 -->
<g id="Node000006" class="node">
<title>Node6</title>
<g id="a_Node000006"><a xlink:href="../../d0/dea/classcarla_1_1geom_1_1Math.html#a2bd79912876dfbab9354c0bb841320e4" target="_top" xlink:title=" ">
<polygon fill="white" stroke="#666666" points="709.25,-169 608.5,-169 608.5,-137 709.25,-137 709.25,-169"/>
<text text-anchor="start" x="616.5" y="-155.5" font-family="Helvetica,sans-Serif" font-size="10.00">carla::geom::Math::</text>
<text text-anchor="middle" x="658.88" y="-143.5" font-family="Helvetica,sans-Serif" font-size="10.00">ToRadians</text>
</a>
</g>
</g>
<!-- Node5&#45;&gt;Node6 -->
<g id="edge5_Node000005_Node000006" class="edge">
<title>Node5&#45;&gt;Node6</title>
<g id="a_edge5_Node000005_Node000006"><a xlink:title=" ">
<path fill="none" stroke="#63b8ff" d="M568.74,-181.24C578.12,-178.27 588.01,-175.13 597.67,-172.08"/>
<polygon fill="#63b8ff" stroke="#63b8ff" points="598.53,-175.16 607.01,-168.8 596.42,-168.48 598.53,-175.16"/>
</a>
</g>
</g>
<!-- Node11 -->
<g id="Node000011" class="node">
<title>Node11</title>
<g id="a_Node000011"><a xlink:href="../../d8/dba/classcarla_1_1geom_1_1Rotation.html#ae5c4c69bc07cfb7fb46758ed2c8cb56e" target="_top" xlink:title=" ">
<polygon fill="white" stroke="#666666" points="572.5,-144 463.5,-144 463.5,-112 572.5,-112 572.5,-144"/>
<text text-anchor="start" x="471.5" y="-130.5" font-family="Helvetica,sans-Serif" font-size="10.00">carla::geom::Rotation</text>
<text text-anchor="middle" x="518" y="-118.5" font-family="Helvetica,sans-Serif" font-size="10.00">::RotateVector</text>
</a>
</g>
</g>
<!-- Node10&#45;&gt;Node11 -->
<g id="edge10_Node000010_Node000011" class="edge">
<title>Node10&#45;&gt;Node11</title>
<g id="a_edge10_Node000010_Node000011"><a xlink:title=" ">
<path fill="none" stroke="#63b8ff" d="M263.18,-32.41C316.3,-52.41 406.05,-86.21 463.37,-107.8"/>
<polygon fill="#63b8ff" stroke="#63b8ff" points="461.73,-111.3 472.32,-111.55 464.2,-104.75 461.73,-111.3"/>
</a>
</g>
</g>
<!-- Node11&#45;&gt;Node6 -->
<g id="edge11_Node000011_Node000006" class="edge">
<title>Node11&#45;&gt;Node6</title>
<g id="a_edge11_Node000011_Node000006"><a xlink:title=" ">
<path fill="none" stroke="#63b8ff" d="M572.69,-137.67C580.87,-139.14 589.35,-140.66 597.65,-142.16"/>
<polygon fill="#63b8ff" stroke="#63b8ff" points="596.95,-145.77 607.42,-144.1 598.19,-138.88 596.95,-145.77"/>
</a>
</g>
</g>
</g>
</svg>

<g id="navigator" transform="translate(0 0)" fill="#404254">
  <rect fill="#f2f5e9" fill-opacity="0.5" stroke="#606060" stroke-width=".5" x="0" y="0" width="60" height="60"/>
  <use id="zoomplus" xlink:href="#zoomPlus" x="17" y="9" onmousedown="handleZoom(evt,'in')"/>
  <use id="zoomminus" xlink:href="#zoomMin" x="42" y="9" onmousedown="handleZoom(evt,'out')"/>
  <use id="reset" xlink:href="#resetDef" x="30" y="36" onmousedown="handleReset()"/>
   <use id="arrowup" xlink:href="#arrowUp" x="0" y="0" onmousedown="handlePan(0,-1)"/>
  <use id="arrowright" xlink:href="#arrowRight" x="0" y="0" onmousedown="handlePan(1,0)"/>
  <use id="arrowdown" xlink:href="#arrowDown" x="0" y="0" onmousedown="handlePan(0,1)"/>
  <use id="arrowleft" xlink:href="#arrowLeft" x="0" y="0" onmousedown="handlePan(-1,0)"/>
</g>
<svg viewBox="0 0 15 15" width="100%" height="30px" preserveAspectRatio="xMaxYMin meet">
 <g id="arrow_out" transform="scale(0.3 0.3)">
  <a xlink:href="classcarla_1_1client_1_1TrafficLight_ae658ff882df9b877a9730c879c028ba9_cgraph_org.svg" target="_base">
   <rect id="button" ry="5" rx="5" y="6" x="6" height="38" width="38"
        fill="#f2f5e9" fill-opacity="0.5" stroke="#606060" stroke-width="1.0"/>
   <path id="arrow"
     d="M 11.500037,31.436501 C 11.940474,20.09759 22.043105,11.32322 32.158766,21.979434 L 37.068811,17.246167 C 37.068811,17.246167 37.088388,32 37.088388,32 L 22.160133,31.978069 C 22.160133,31.978069 26.997745,27.140456 26.997745,27.140456 C 18.528582,18.264221 13.291696,25.230495 11.500037,31.436501 z"
     style="fill:#404040;"/>
  </a>
 </g>
</svg>

<style type='text/css'>
<![CDATA[
[data-mouse-over-selected='false'] { opacity: 0.7; }
[data-mouse-over-selected='true']  { opacity: 1.0; }
]]>
</style>
<script type="application/ecmascript"><![CDATA[
document.addEventListener('DOMContentLoaded', (event) => {
  highlightEdges();
  highlightAdjacentNodes();
});
]]></script>
</svg>
