<?xml version="1.0" encoding="UTF-8" standalone="no"?>
<!DOCTYPE svg PUBLIC "-//W3C//DTD SVG 1.1//EN"
 "http://www.w3.org/Graphics/SVG/1.1/DTD/svg11.dtd">
<!-- Generated by graphviz version 8.1.0 (20230707.0739)
 -->
<!-- Title: carla::sensor::data::RssResponse Pages: 1 -->
<svg width="244pt" height="164pt"
 viewBox="0.00 0.00 244.00 164.00" xmlns="http://www.w3.org/2000/svg" xmlns:xlink="http://www.w3.org/1999/xlink">
<g id="graph0" class="graph" transform="scale(1 1) rotate(0) translate(4 160)">
<title>carla::sensor::data::RssResponse</title>
<!-- Node1 -->
<g id="Node000001" class="node">
<title>Node1</title>
<g id="a_Node000001"><a xlink:title="A RSS Response">
<polygon fill="#999999" stroke="#666666" points="170.12,-32 73.12,-32 73.12,0 170.12,0 170.12,-32"/>
<text text-anchor="start" x="81.12" y="-18.5" font-family="Helvetica,sans-Serif" font-size="10.00">carla::sensor::data</text>
<text text-anchor="middle" x="121.62" y="-6.5" font-family="Helvetica,sans-Serif" font-size="10.00">::RssResponse</text>
</a>
</g>
</g>
<!-- Node2 -->
<g id="Node000002" class="node">
<title>Node2</title>
<g id="a_Node000002"><a xlink:href="../../df/d8c/classcarla_1_1sensor_1_1SensorData.html" target="_top" xlink:title="Base class for all the objects containing data generated by a sensor.">
<polygon fill="white" stroke="#666666" points="186.25,-88 57,-88 57,-68 186.25,-68 186.25,-88"/>
<text text-anchor="middle" x="121.62" y="-74.5" font-family="Helvetica,sans-Serif" font-size="10.00">carla::sensor::SensorData</text>
</a>
</g>
</g>
<!-- Node2&#45;&gt;Node1 -->
<g id="edge1_Node000001_Node000002" class="edge">
<title>Node2&#45;&gt;Node1</title>
<g id="a_edge1_Node000001_Node000002"><a xlink:title=" ">
<path fill="none" stroke="#63b8ff" d="M121.62,-56.87C121.62,-48.79 121.62,-39.64 121.62,-32.14"/>
<polygon fill="#63b8ff" stroke="#63b8ff" points="118.13,-56.62 121.62,-66.62 125.13,-56.63 118.13,-56.62"/>
</a>
</g>
</g>
<!-- Node3 -->
<g id="Node000003" class="node">
<title>Node3</title>
<g id="a_Node000003"><a xlink:href="../../da/d05/classEnableSharedFromThis.html" target="_top" xlink:title=" ">
<polygon fill="white" stroke="#666666" points="117.25,-156 0,-156 0,-124 117.25,-124 117.25,-156"/>
<text text-anchor="start" x="8" y="-142.5" font-family="Helvetica,sans-Serif" font-size="10.00">EnableSharedFromThis</text>
<text text-anchor="middle" x="58.62" y="-130.5" font-family="Helvetica,sans-Serif" font-size="10.00">&lt; SensorData &gt;</text>
</a>
</g>
</g>
<!-- Node3&#45;&gt;Node2 -->
<g id="edge2_Node000002_Node000003" class="edge">
<title>Node3&#45;&gt;Node2</title>
<g id="a_edge2_Node000002_Node000003"><a xlink:title=" ">
<path fill="none" stroke="#63b8ff" d="M82.64,-116.13C92.75,-106.5 103.95,-95.83 111.75,-88.41"/>
<polygon fill="#63b8ff" stroke="#63b8ff" points="80.68,-113.12 75.85,-122.55 85.5,-118.19 80.68,-113.12"/>
</a>
</g>
</g>
<!-- Node4 -->
<g id="Node000004" class="node">
<title>Node4</title>
<g id="a_Node000004"><a xlink:href="../../d4/d8b/classcarla_1_1NonCopyable.html" target="_top" xlink:title="Inherit (privately) to suppress copy/move construction and assignment.">
<polygon fill="white" stroke="#666666" points="236,-150 135.25,-150 135.25,-130 236,-130 236,-150"/>
<text text-anchor="middle" x="185.62" y="-136.5" font-family="Helvetica,sans-Serif" font-size="10.00">carla::NonCopyable</text>
</a>
</g>
</g>
<!-- Node4&#45;&gt;Node2 -->
<g id="edge3_Node000002_Node000004" class="edge">
<title>Node4&#45;&gt;Node2</title>
<g id="a_edge3_Node000002_Node000004"><a xlink:title=" ">
<path fill="none" stroke="#8b1a1a" d="M167.73,-122.22C155.95,-111.18 140.97,-97.14 131.35,-88.11"/>
<polygon fill="#8b1a1a" stroke="#8b1a1a" points="164.94,-124.34 174.62,-128.62 169.72,-119.23 164.94,-124.34"/>
</a>
</g>
</g>
</g>
</svg>
