<?xml version="1.0" encoding="UTF-8" standalone="no"?>
<!DOCTYPE svg PUBLIC "-//W3C//DTD SVG 1.1//EN"
 "http://www.w3.org/Graphics/SVG/1.1/DTD/svg11.dtd">
<!-- Generated by graphviz version 8.1.0 (20230707.0739)
 -->
<!-- Title: ARadar::SendLineTraces Pages: 1 -->
<svg width="312pt" height="190pt"
 viewBox="0.00 0.00 311.50 190.00" xmlns="http://www.w3.org/2000/svg" xmlns:xlink="http://www.w3.org/1999/xlink">
<g id="graph0" class="graph" transform="scale(1 1) rotate(0) translate(4 186)">
<title>ARadar::SendLineTraces</title>
<!-- Node1 -->
<g id="Node000001" class="node">
<title>Node1</title>
<g id="a_Node000001"><a xlink:title=" ">
<polygon fill="#999999" stroke="#666666" points="124,-101 0,-101 0,-81 124,-81 124,-101"/>
<text text-anchor="middle" x="62" y="-87.5" font-family="Helvetica,sans-Serif" font-size="10.00">ARadar::SendLineTraces</text>
</a>
</g>
</g>
<!-- Node1&#45;&gt;Node1 -->
<g id="edge4_Node000001_Node000001" class="edge">
<title>Node1&#45;&gt;Node1</title>
<g id="a_edge4_Node000001_Node000001"><a xlink:title=" ">
<path fill="none" stroke="#63b8ff" d="M35.03,-101.34C23.5,-109.98 32.49,-119 62,-119 79.52,-119 89.81,-115.82 92.86,-111.43"/>
<polygon fill="#63b8ff" stroke="#63b8ff" points="95.83,-110.41 88.97,-102.34 89.3,-112.93 95.83,-110.41"/>
</a>
</g>
</g>
<!-- Node2 -->
<g id="Node000002" class="node">
<title>Node2</title>
<g id="a_Node000002"><a xlink:href="../../d9/d27/classARadar.html#a333216a4a3a3948da61c65ac8be47ed8" target="_top" xlink:title=" ">
<polygon fill="white" stroke="#666666" points="296,-182 167.5,-182 167.5,-150 296,-150 296,-182"/>
<text text-anchor="start" x="175.5" y="-168.5" font-family="Helvetica,sans-Serif" font-size="10.00">ARadar::CalculateRelative</text>
<text text-anchor="middle" x="231.75" y="-156.5" font-family="Helvetica,sans-Serif" font-size="10.00">Velocity</text>
</a>
</g>
</g>
<!-- Node1&#45;&gt;Node2 -->
<g id="edge1_Node000001_Node000002" class="edge">
<title>Node1&#45;&gt;Node2</title>
<g id="a_edge1_Node000001_Node000002"><a xlink:title=" ">
<path fill="none" stroke="#63b8ff" d="M81.23,-101.35C100.46,-112.04 131.82,-128.83 160,-141 163.62,-142.56 167.38,-144.11 171.18,-145.62"/>
<polygon fill="#63b8ff" stroke="#63b8ff" points="169.73,-149.19 180.32,-149.5 172.24,-142.65 169.73,-149.19"/>
</a>
</g>
</g>
<!-- Node3 -->
<g id="Node000003" class="node">
<title>Node3</title>
<g id="a_Node000003"><a xlink:href="../../d2/d4b/classURandomEngine.html#a7619cfcce2fd1e172a4210e0c5645e8d" target="_top" xlink:title=" ">
<polygon fill="white" stroke="#666666" points="303.5,-132 160,-132 160,-100 303.5,-100 303.5,-132"/>
<text text-anchor="start" x="168" y="-118.5" font-family="Helvetica,sans-Serif" font-size="10.00">URandomEngine::GetUniform</text>
<text text-anchor="middle" x="231.75" y="-106.5" font-family="Helvetica,sans-Serif" font-size="10.00">Float</text>
</a>
</g>
</g>
<!-- Node1&#45;&gt;Node3 -->
<g id="edge2_Node000001_Node000003" class="edge">
<title>Node1&#45;&gt;Node3</title>
<g id="a_edge2_Node000001_Node000003"><a xlink:title=" ">
<path fill="none" stroke="#63b8ff" d="M124.04,-100.1C132.05,-101.29 140.36,-102.53 148.65,-103.76"/>
<polygon fill="#63b8ff" stroke="#63b8ff" points="148.1,-107.37 158.51,-105.38 149.13,-100.45 148.1,-107.37"/>
</a>
</g>
</g>
<!-- Node4 -->
<g id="Node000004" class="node">
<title>Node4</title>
<g id="a_Node000004"><a xlink:href="../../d2/d4b/classURandomEngine.html#a80b759d343ee9888162591063d5715e1" target="_top" xlink:title=" ">
<polygon fill="white" stroke="#666666" points="303.5,-82 160,-82 160,-50 303.5,-50 303.5,-82"/>
<text text-anchor="start" x="168" y="-68.5" font-family="Helvetica,sans-Serif" font-size="10.00">URandomEngine::GetUniform</text>
<text text-anchor="middle" x="231.75" y="-56.5" font-family="Helvetica,sans-Serif" font-size="10.00">FloatInRange</text>
</a>
</g>
</g>
<!-- Node1&#45;&gt;Node4 -->
<g id="edge3_Node000001_Node000004" class="edge">
<title>Node1&#45;&gt;Node4</title>
<g id="a_edge3_Node000001_Node000004"><a xlink:title=" ">
<path fill="none" stroke="#63b8ff" d="M124.04,-81.9C132.05,-80.71 140.36,-79.47 148.65,-78.24"/>
<polygon fill="#63b8ff" stroke="#63b8ff" points="149.13,-81.55 158.51,-76.62 148.1,-74.63 149.13,-81.55"/>
</a>
</g>
</g>
<!-- Node5 -->
<g id="Node000005" class="node">
<title>Node5</title>
<g id="a_Node000005"><a xlink:href="../../d5/d13/classcarla_1_1sensor_1_1data_1_1RadarData.html#aeb50962ae01e24ac427a24f516d21b0c" target="_top" xlink:title="Adds a new detection.">
<polygon fill="white" stroke="#666666" points="300.88,-32 162.62,-32 162.62,0 300.88,0 300.88,-32"/>
<text text-anchor="start" x="170.62" y="-18.5" font-family="Helvetica,sans-Serif" font-size="10.00">carla::sensor::data</text>
<text text-anchor="middle" x="231.75" y="-6.5" font-family="Helvetica,sans-Serif" font-size="10.00">::RadarData::WriteDetection</text>
</a>
</g>
</g>
<!-- Node1&#45;&gt;Node5 -->
<g id="edge5_Node000001_Node000005" class="edge">
<title>Node1&#45;&gt;Node5</title>
<g id="a_edge5_Node000001_Node000005"><a xlink:title=" ">
<path fill="none" stroke="#63b8ff" d="M81.23,-80.65C100.46,-69.96 131.82,-53.17 160,-41 163.62,-39.44 167.38,-37.89 171.18,-36.38"/>
<polygon fill="#63b8ff" stroke="#63b8ff" points="172.24,-39.35 180.32,-32.5 169.73,-32.81 172.24,-39.35"/>
</a>
</g>
</g>
</g>
</svg>
