<?xml version="1.0" encoding="UTF-8" standalone="no"?>
<!DOCTYPE svg PUBLIC "-//W3C//DTD SVG 1.1//EN"
 "http://www.w3.org/Graphics/SVG/1.1/DTD/svg11.dtd">
<!-- Generated by graphviz version 8.1.0 (20230707.0739)
 -->
<!-- Title: ObjectParser.h Pages: 1 -->
<svg width="226pt" height="84pt"
 viewBox="0.00 0.00 225.62 84.00" xmlns="http://www.w3.org/2000/svg" xmlns:xlink="http://www.w3.org/1999/xlink">
<g id="graph0" class="graph" transform="scale(1 1) rotate(0) translate(4 80)">
<title>ObjectParser.h</title>
<!-- Node1 -->
<g id="Node000001" class="node">
<title>Node1</title>
<g id="a_Node000001"><a xlink:title=" ">
<polygon fill="#999999" stroke="#666666" points="145.5,-76 64.25,-76 64.25,-56 145.5,-56 145.5,-76"/>
<text text-anchor="middle" x="104.88" y="-62.5" font-family="Helvetica,sans-Serif" font-size="10.00">ObjectParser.h</text>
</a>
</g>
</g>
<!-- Node2 -->
<g id="Node000002" class="node">
<title>Node2</title>
<g id="a_Node000002"><a xlink:href="../../d9/df7/ObjectParser_8cpp.html" target="_top" xlink:title=" ">
<polygon fill="white" stroke="#666666" points="91.75,-20 0,-20 0,0 91.75,0 91.75,-20"/>
<text text-anchor="middle" x="45.88" y="-6.5" font-family="Helvetica,sans-Serif" font-size="10.00">ObjectParser.cpp</text>
</a>
</g>
</g>
<!-- Node1&#45;&gt;Node2 -->
<g id="edge1_Node000001_Node000002" class="edge">
<title>Node1&#45;&gt;Node2</title>
<g id="a_edge1_Node000001_Node000002"><a xlink:title=" ">
<path fill="none" stroke="#63b8ff" d="M86.74,-48.4C76.65,-39.17 64.46,-28.01 56.03,-20.3"/>
<polygon fill="#63b8ff" stroke="#63b8ff" points="83.86,-50.42 93.6,-54.59 88.58,-45.26 83.86,-50.42"/>
</a>
</g>
</g>
<!-- Node3 -->
<g id="Node000003" class="node">
<title>Node3</title>
<g id="a_Node000003"><a xlink:href="../../da/d5a/OpenDriveParser_8cpp.html" target="_top" xlink:title=" ">
<polygon fill="white" stroke="#666666" points="217.62,-20 110.12,-20 110.12,0 217.62,0 217.62,-20"/>
<text text-anchor="middle" x="163.88" y="-6.5" font-family="Helvetica,sans-Serif" font-size="10.00">OpenDriveParser.cpp</text>
</a>
</g>
</g>
<!-- Node1&#45;&gt;Node3 -->
<g id="edge2_Node000001_Node000003" class="edge">
<title>Node1&#45;&gt;Node3</title>
<g id="a_edge2_Node000001_Node000003"><a xlink:title=" ">
<path fill="none" stroke="#63b8ff" d="M123.01,-48.4C133.1,-39.17 145.29,-28.01 153.72,-20.3"/>
<polygon fill="#63b8ff" stroke="#63b8ff" points="121.17,-45.26 116.15,-54.59 125.89,-50.42 121.17,-45.26"/>
</a>
</g>
</g>
</g>
</svg>
