<?xml version="1.0" encoding="UTF-8" standalone="no"?>
<!DOCTYPE svg PUBLIC "-//W3C//DTD SVG 1.1//EN"
 "http://www.w3.org/Graphics/SVG/1.1/DTD/svg11.dtd">
<!-- Generated by graphviz version 8.1.0 (20230707.0739)
 -->
<!-- Title: UActorBlueprintFunctionLibrary::MakeCustomV2XDefinition Pages: 1 -->
<!--zoomable 116 -->

<svg id="main" version="1.1" xmlns="http://www.w3.org/2000/svg" xmlns:xlink="http://www.w3.org/1999/xlink" xml:space="preserve" onload="init(evt)">
<style type="text/css"><![CDATA[
.node, .edge {opacity: 0.7;}
.node.selected, .edge.selected {opacity: 1;}
.edge:hover path { stroke: red; }
.edge:hover polygon { stroke: red; fill: red; }
]]></style>

<defs>
  <circle id="rim" cx="0" cy="0" r="7"/>
  <circle id="rim2" cx="0" cy="0" r="3.5"/>
  <g id="zoomPlus">
    <use xlink:href="#rim" fill="#404040"><set attributeName="fill" to="#808080" begin="zoomplus.mouseover" end="zoomplus.mouseout"/></use>
    <path d="M-4,0h8M0,-4v8" fill="none" stroke="white" stroke-width="1.5" pointer-events="none"/>
  </g>
  <g id="zoomMin">
    <use xlink:href="#rim" fill="#404040"><set attributeName="fill" to="#808080" begin="zoomminus.mouseover" end="zoomminus.mouseout"/></use>
    <path d="M-4,0h8" fill="none" stroke="white" stroke-width="1.5" pointer-events="none"/>
  </g>
  <g id="arrowUp" transform="translate(30 24)">
    <use xlink:href="#rim"/>
    <path pointer-events="none" fill="none" stroke="white" stroke-width="1.5" d="M0,-3.0v7 M-2.5,-0.5L0,-3.0L2.5,-0.5"/>
  </g>
  <g id="arrowRight" transform="rotate(90) translate(36 -43)">
    <use xlink:href="#rim"/>
    <path pointer-events="none" fill="none" stroke="white" stroke-width="1.5" d="M0,-3.0v7 M-2.5,-0.5L0,-3.0L2.5,-0.5"/>
  </g>
  <g id="arrowDown" transform="rotate(180) translate(-30 -48)">
    <use xlink:href="#rim"/>
    <path pointer-events="none" fill="none" stroke="white" stroke-width="1.5" d="M0,-3.0v7 M-2.5,-0.5L0,-3.0L2.5,-0.5"/>
  </g>
  <g id="arrowLeft" transform="rotate(270) translate(-36 17)">
    <use xlink:href="#rim"/>
    <path pointer-events="none" fill="none" stroke="white" stroke-width="1.5" d="M0,-3.0v7 M-2.5,-0.5L0,-3.0L2.5,-0.5"/>
  </g>
  <g id="resetDef">
    <use xlink:href="#rim2" fill="#404040"><set attributeName="fill" to="#808080" begin="reset.mouseover" end="reset.mouseout"/></use>
  </g>
</defs>
<script type="application/ecmascript">
var viewWidth = 837;
var viewHeight = 116;
var sectionId = 'dynsection-15';
</script>
<script type="application/ecmascript" xlink:href="../../svg.min.js"/>
<svg id="graph" class="graph">
<g id="viewport">
<title>UActorBlueprintFunctionLibrary::MakeCustomV2XDefinition</title>
<!-- Node1 -->
<g id="Node000001" class="node">
<title>Node1</title>
<g id="a_Node000001"><a xlink:title=" ">
<polygon fill="#999999" stroke="#666666" points="151,-70 0,-70 0,-38 151,-38 151,-70"/>
<text text-anchor="start" x="8" y="-56.5" font-family="Helvetica,sans-Serif" font-size="10.00">UActorBlueprintFunctionLibrary</text>
<text text-anchor="middle" x="75.5" y="-44.5" font-family="Helvetica,sans-Serif" font-size="10.00">::MakeCustomV2XDefinition</text>
</a>
</g>
</g>
<!-- Node2 -->
<g id="Node000002" class="node">
<title>Node2</title>
<g id="a_Node000002"><a xlink:href="../../dd/d08/ActorBlueprintFunctionLibrary_8cpp.html#ab63cdd1c0da771aef517d53a2d73eae2" target="_top" xlink:title=" ">
<polygon fill="white" stroke="#666666" points="323.38,-108 201.62,-108 201.62,-88 323.38,-88 323.38,-108"/>
<text text-anchor="middle" x="262.5" y="-94.5" font-family="Helvetica,sans-Serif" font-size="10.00">AddVariationsForSensor</text>
</a>
</g>
</g>
<!-- Node1&#45;&gt;Node2 -->
<g id="edge1_Node000001_Node000002" class="edge">
<title>Node1&#45;&gt;Node2</title>
<g id="a_edge1_Node000001_Node000002"><a xlink:title=" ">
<path fill="none" stroke="#63b8ff" d="M145.65,-70.45C165.82,-75.24 187.57,-80.42 206.72,-84.97"/>
<polygon fill="#63b8ff" stroke="#63b8ff" points="205.83,-88.59 216.37,-87.5 207.45,-81.78 205.83,-88.59"/>
</a>
</g>
</g>
<!-- Node3 -->
<g id="Node000003" class="node">
<title>Node3</title>
<g id="a_Node000003"><a xlink:href="../../dd/da3/classUActorBlueprintFunctionLibrary.html#afa4aba6393bb016000f71bd60d2e2f12" target="_top" xlink:title="Return whether the actor definition is valid. Prints all the errors found.">
<polygon fill="white" stroke="#666666" points="338,-70 187,-70 187,-38 338,-38 338,-70"/>
<text text-anchor="start" x="195" y="-56.5" font-family="Helvetica,sans-Serif" font-size="10.00">UActorBlueprintFunctionLibrary</text>
<text text-anchor="middle" x="262.5" y="-44.5" font-family="Helvetica,sans-Serif" font-size="10.00">::CheckActorDefinition</text>
</a>
</g>
</g>
<!-- Node1&#45;&gt;Node3 -->
<g id="edge2_Node000001_Node000003" class="edge">
<title>Node1&#45;&gt;Node3</title>
<g id="a_edge2_Node000001_Node000003"><a xlink:title=" ">
<path fill="none" stroke="#63b8ff" d="M151.48,-54C159.47,-54 167.64,-54 175.74,-54"/>
<polygon fill="#63b8ff" stroke="#63b8ff" points="175.71,-57.5 185.71,-54 175.71,-50.5 175.71,-57.5"/>
</a>
</g>
</g>
<!-- Node8 -->
<g id="Node000008" class="node">
<title>Node8</title>
<g id="a_Node000008"><a xlink:href="../../dd/d08/ActorBlueprintFunctionLibrary_8cpp.html#ac988c3d668858d9fd2b0c5b5459a18bb" target="_top" xlink:title="============================================================================">
<polygon fill="white" stroke="#666666" points="299.75,-20 225.25,-20 225.25,0 299.75,0 299.75,-20"/>
<text text-anchor="middle" x="262.5" y="-6.5" font-family="Helvetica,sans-Serif" font-size="10.00">FillIdAndTags</text>
</a>
</g>
</g>
<!-- Node1&#45;&gt;Node8 -->
<g id="edge7_Node000001_Node000008" class="edge">
<title>Node1&#45;&gt;Node8</title>
<g id="a_edge7_Node000001_Node000008"><a xlink:title=" ">
<path fill="none" stroke="#63b8ff" d="M145.65,-37.55C168.55,-32.11 193.49,-26.18 214.34,-21.22"/>
<polygon fill="#63b8ff" stroke="#63b8ff" points="214.92,-24.44 223.84,-18.72 213.31,-17.63 214.92,-24.44"/>
</a>
</g>
</g>
<!-- Node4 -->
<g id="Node000004" class="node">
<title>Node4</title>
<g id="a_Node000004"><a xlink:href="../../dd/d10/classFActorDefinitionValidator.html#a2dbfbc4af402b42b6c351adf8f9e4ebd" target="_top" xlink:title="Validate ActorDefinition and display messages on error.">
<polygon fill="white" stroke="#666666" points="497.25,-70 374,-70 374,-38 497.25,-38 497.25,-70"/>
<text text-anchor="start" x="382" y="-56.5" font-family="Helvetica,sans-Serif" font-size="10.00">FActorDefinitionValidator</text>
<text text-anchor="middle" x="435.62" y="-44.5" font-family="Helvetica,sans-Serif" font-size="10.00">::SingleIsValid</text>
</a>
</g>
</g>
<!-- Node3&#45;&gt;Node4 -->
<g id="edge3_Node000003_Node000004" class="edge">
<title>Node3&#45;&gt;Node4</title>
<g id="a_edge3_Node000003_Node000004"><a xlink:title=" ">
<path fill="none" stroke="#63b8ff" d="M338.06,-54C346.23,-54 354.54,-54 362.68,-54"/>
<polygon fill="#63b8ff" stroke="#63b8ff" points="362.65,-57.5 372.65,-54 362.65,-50.5 362.65,-57.5"/>
</a>
</g>
</g>
<!-- Node5 -->
<g id="Node000005" class="node">
<title>Node5</title>
<g id="a_Node000005"><a xlink:href="../../dd/d10/classFActorDefinitionValidator.html#a4079e0ecc2f4724dac9ec84d39c14e0b" target="_top" xlink:title=" ">
<polygon fill="white" stroke="#666666" points="663.25,-92 540,-92 540,-60 663.25,-60 663.25,-92"/>
<text text-anchor="start" x="548" y="-78.5" font-family="Helvetica,sans-Serif" font-size="10.00">FActorDefinitionValidator</text>
<text text-anchor="middle" x="601.62" y="-66.5" font-family="Helvetica,sans-Serif" font-size="10.00">::IsValid</text>
</a>
</g>
</g>
<!-- Node4&#45;&gt;Node5 -->
<g id="edge4_Node000004_Node000005" class="edge">
<title>Node4&#45;&gt;Node5</title>
<g id="a_edge4_Node000004_Node000005"><a xlink:title=" ">
<path fill="none" stroke="#63b8ff" d="M497.69,-62.19C507.83,-63.55 518.43,-64.97 528.8,-66.37"/>
<polygon fill="#63b8ff" stroke="#63b8ff" points="528.13,-69.94 538.51,-67.8 529.06,-63 528.13,-69.94"/>
</a>
</g>
</g>
<!-- Node7 -->
<g id="Node000007" class="node">
<title>Node7</title>
<g id="a_Node000007"><a xlink:href="../../d0/d93/classFScopedStack.html#a13ceb40b7471d2694408ddcbc55073f1" target="_top" xlink:title="Push this scope into the stack.">
<polygon fill="white" stroke="#666666" points="670,-42 533.25,-42 533.25,-22 670,-22 670,-42"/>
<text text-anchor="middle" x="601.62" y="-28.5" font-family="Helvetica,sans-Serif" font-size="10.00">FScopedStack::PushScope</text>
</a>
</g>
</g>
<!-- Node4&#45;&gt;Node7 -->
<g id="edge6_Node000004_Node000007" class="edge">
<title>Node4&#45;&gt;Node7</title>
<g id="a_edge6_Node000004_Node000007"><a xlink:title=" ">
<path fill="none" stroke="#63b8ff" d="M497.69,-45.81C505.67,-44.74 513.93,-43.63 522.15,-42.53"/>
<polygon fill="#63b8ff" stroke="#63b8ff" points="522.45,-45.88 531.89,-41.09 521.52,-38.95 522.45,-45.88"/>
</a>
</g>
</g>
<!-- Node6 -->
<g id="Node000006" class="node">
<title>Node6</title>
<g id="a_Node000006"><a xlink:href="../../dd/d10/classFActorDefinitionValidator.html#a1a9cb1a9ebc0fe33d2e1afa9ba070b42" target="_top" xlink:title="If Predicate is false, print an error message.">
<polygon fill="white" stroke="#666666" points="829.25,-92 706,-92 706,-60 829.25,-60 829.25,-92"/>
<text text-anchor="start" x="714" y="-78.5" font-family="Helvetica,sans-Serif" font-size="10.00">FActorDefinitionValidator</text>
<text text-anchor="middle" x="767.62" y="-66.5" font-family="Helvetica,sans-Serif" font-size="10.00">::OnScreenAssert</text>
</a>
</g>
</g>
<!-- Node5&#45;&gt;Node6 -->
<g id="edge5_Node000005_Node000006" class="edge">
<title>Node5&#45;&gt;Node6</title>
<g id="a_edge5_Node000005_Node000006"><a xlink:title=" ">
<path fill="none" stroke="#63b8ff" d="M663.69,-76C673.83,-76 684.43,-76 694.8,-76"/>
<polygon fill="#63b8ff" stroke="#63b8ff" points="694.51,-79.5 704.51,-76 694.51,-72.5 694.51,-79.5"/>
</a>
</g>
</g>
<!-- Node9 -->
<g id="Node000009" class="node">
<title>Node9</title>
<g id="a_Node000009"><a xlink:href="../../dd/d08/ActorBlueprintFunctionLibrary_8cpp.html#a020aba9c95ef055f7da8709737ef5640" target="_top" xlink:title=" ">
<polygon fill="white" stroke="#666666" points="467.62,-20 403.62,-20 403.62,0 467.62,0 467.62,-20"/>
<text text-anchor="middle" x="435.62" y="-6.5" font-family="Helvetica,sans-Serif" font-size="10.00">JoinStrings</text>
</a>
</g>
</g>
<!-- Node8&#45;&gt;Node9 -->
<g id="edge8_Node000008_Node000009" class="edge">
<title>Node8&#45;&gt;Node9</title>
<g id="a_edge8_Node000008_Node000009"><a xlink:title=" ">
<path fill="none" stroke="#63b8ff" d="M300.21,-10C327.26,-10 364.11,-10 392.38,-10"/>
<polygon fill="#63b8ff" stroke="#63b8ff" points="392.14,-13.5 402.14,-10 392.14,-6.5 392.14,-13.5"/>
</a>
</g>
</g>
</g>
</svg>

<g id="navigator" transform="translate(0 0)" fill="#404254">
  <rect fill="#f2f5e9" fill-opacity="0.5" stroke="#606060" stroke-width=".5" x="0" y="0" width="60" height="60"/>
  <use id="zoomplus" xlink:href="#zoomPlus" x="17" y="9" onmousedown="handleZoom(evt,'in')"/>
  <use id="zoomminus" xlink:href="#zoomMin" x="42" y="9" onmousedown="handleZoom(evt,'out')"/>
  <use id="reset" xlink:href="#resetDef" x="30" y="36" onmousedown="handleReset()"/>
   <use id="arrowup" xlink:href="#arrowUp" x="0" y="0" onmousedown="handlePan(0,-1)"/>
  <use id="arrowright" xlink:href="#arrowRight" x="0" y="0" onmousedown="handlePan(1,0)"/>
  <use id="arrowdown" xlink:href="#arrowDown" x="0" y="0" onmousedown="handlePan(0,1)"/>
  <use id="arrowleft" xlink:href="#arrowLeft" x="0" y="0" onmousedown="handlePan(-1,0)"/>
</g>
<svg viewBox="0 0 15 15" width="100%" height="30px" preserveAspectRatio="xMaxYMin meet">
 <g id="arrow_out" transform="scale(0.3 0.3)">
  <a xlink:href="classUActorBlueprintFunctionLibrary_a6a975ca515c0b9d64bf8600dc1eeb699_cgraph_org.svg" target="_base">
   <rect id="button" ry="5" rx="5" y="6" x="6" height="38" width="38"
        fill="#f2f5e9" fill-opacity="0.5" stroke="#606060" stroke-width="1.0"/>
   <path id="arrow"
     d="M 11.500037,31.436501 C 11.940474,20.09759 22.043105,11.32322 32.158766,21.979434 L 37.068811,17.246167 C 37.068811,17.246167 37.088388,32 37.088388,32 L 22.160133,31.978069 C 22.160133,31.978069 26.997745,27.140456 26.997745,27.140456 C 18.528582,18.264221 13.291696,25.230495 11.500037,31.436501 z"
     style="fill:#404040;"/>
  </a>
 </g>
</svg>

<style type='text/css'>
<![CDATA[
[data-mouse-over-selected='false'] { opacity: 0.7; }
[data-mouse-over-selected='true']  { opacity: 1.0; }
]]>
</style>
<script type="application/ecmascript"><![CDATA[
document.addEventListener('DOMContentLoaded', (event) => {
  highlightEdges();
  highlightAdjacentNodes();
});
]]></script>
</svg>
