<?xml version="1.0" encoding="UTF-8" standalone="no"?>
<!DOCTYPE svg PUBLIC "-//W3C//DTD SVG 1.1//EN"
 "http://www.w3.org/Graphics/SVG/1.1/DTD/svg11.dtd">
<!-- Generated by graphviz version 8.1.0 (20230707.0739)
 -->
<!-- Title: UActorBlueprintFunctionLibrary::ActorAttributeToInt Pages: 1 -->
<svg width="718pt" height="392pt"
 viewBox="0.00 0.00 717.75 392.00" xmlns="http://www.w3.org/2000/svg" xmlns:xlink="http://www.w3.org/1999/xlink">
<g id="graph0" class="graph" transform="scale(1 1) rotate(0) translate(4 388)">
<title>UActorBlueprintFunctionLibrary::ActorAttributeToInt</title>
<!-- Node1 -->
<g id="Node000001" class="node">
<title>Node1</title>
<g id="a_Node000001"><a xlink:title=" ">
<polygon fill="#999999" stroke="#666666" points="709.75,-221 558.75,-221 558.75,-189 709.75,-189 709.75,-221"/>
<text text-anchor="start" x="566.75" y="-207.5" font-family="Helvetica,sans-Serif" font-size="10.00">UActorBlueprintFunctionLibrary</text>
<text text-anchor="middle" x="634.25" y="-195.5" font-family="Helvetica,sans-Serif" font-size="10.00">::ActorAttributeToInt</text>
</a>
</g>
</g>
<!-- Node2 -->
<g id="Node000002" class="node">
<title>Node2</title>
<g id="a_Node000002"><a xlink:href="../../dd/da3/classUActorBlueprintFunctionLibrary.html#a133abaff7dac1fe73845d942c9305427" target="_top" xlink:title=" ">
<polygon fill="white" stroke="#666666" points="522.75,-221 371.75,-221 371.75,-189 522.75,-189 522.75,-221"/>
<text text-anchor="start" x="379.75" y="-207.5" font-family="Helvetica,sans-Serif" font-size="10.00">UActorBlueprintFunctionLibrary</text>
<text text-anchor="middle" x="447.25" y="-195.5" font-family="Helvetica,sans-Serif" font-size="10.00">::RetrieveActorAttributeToInt</text>
</a>
</g>
</g>
<!-- Node1&#45;&gt;Node2 -->
<g id="edge1_Node000001_Node000002" class="edge">
<title>Node1&#45;&gt;Node2</title>
<g id="a_edge1_Node000001_Node000002"><a xlink:title=" ">
<path fill="none" stroke="#63b8ff" d="M547.29,-205C539.19,-205 531.02,-205 523.04,-205"/>
<polygon fill="#63b8ff" stroke="#63b8ff" points="547.27,-208.5 557.27,-205 547.27,-201.5 547.27,-208.5"/>
</a>
</g>
</g>
<!-- Node3 -->
<g id="Node000003" class="node">
<title>Node3</title>
<g id="a_Node000003"><a xlink:href="../../d2/daf/classADVSCamera.html#a595b6617e1dfee7c19cc4532eb906df5" target="_top" xlink:title=" ">
<polygon fill="white" stroke="#666666" points="309.12,-384 211.38,-384 211.38,-364 309.12,-364 309.12,-384"/>
<text text-anchor="middle" x="260.25" y="-370.5" font-family="Helvetica,sans-Serif" font-size="10.00">ADVSCamera::Set</text>
</a>
</g>
</g>
<!-- Node2&#45;&gt;Node3 -->
<g id="edge2_Node000002_Node000003" class="edge">
<title>Node2&#45;&gt;Node3</title>
<g id="a_edge2_Node000002_Node000003"><a xlink:title=" ">
<path fill="none" stroke="#63b8ff" d="M434.14,-231.1C417.06,-264.96 382.67,-323.39 335.75,-355 327.89,-360.29 318.66,-364.11 309.42,-366.87"/>
<polygon fill="#63b8ff" stroke="#63b8ff" points="437.61,-232.96 438.87,-222.45 431.33,-229.88 437.61,-232.96"/>
</a>
</g>
</g>
<!-- Node4 -->
<g id="Node000004" class="node">
<title>Node4</title>
<g id="a_Node000004"><a xlink:href="../../dd/da3/classUActorBlueprintFunctionLibrary.html#a6a1fcb0b47cb61691281c6ca5693908f" target="_top" xlink:title=" ">
<polygon fill="white" stroke="#666666" points="335.75,-346 184.75,-346 184.75,-314 335.75,-314 335.75,-346"/>
<text text-anchor="start" x="192.75" y="-332.5" font-family="Helvetica,sans-Serif" font-size="10.00">UActorBlueprintFunctionLibrary</text>
<text text-anchor="middle" x="260.25" y="-320.5" font-family="Helvetica,sans-Serif" font-size="10.00">::SetCamera</text>
</a>
</g>
</g>
<!-- Node2&#45;&gt;Node4 -->
<g id="edge3_Node000002_Node000004" class="edge">
<title>Node2&#45;&gt;Node4</title>
<g id="a_edge3_Node000002_Node000004"><a xlink:title=" ">
<path fill="none" stroke="#63b8ff" d="M424.81,-229.49C404.02,-251.91 370.6,-284.6 335.75,-305 330.33,-308.17 324.46,-311.01 318.47,-313.53"/>
<polygon fill="#63b8ff" stroke="#63b8ff" points="426.99,-232.2 431.13,-222.45 421.81,-227.49 426.99,-232.2"/>
</a>
</g>
</g>
<!-- Node7 -->
<g id="Node000007" class="node">
<title>Node7</title>
<g id="a_Node000007"><a xlink:href="../../dd/da3/classUActorBlueprintFunctionLibrary.html#ac5ef7e7573d6e6798475a6e497458a11" target="_top" xlink:title=" ">
<polygon fill="white" stroke="#666666" points="335.75,-296 184.75,-296 184.75,-264 335.75,-264 335.75,-296"/>
<text text-anchor="start" x="192.75" y="-282.5" font-family="Helvetica,sans-Serif" font-size="10.00">UActorBlueprintFunctionLibrary</text>
<text text-anchor="middle" x="260.25" y="-270.5" font-family="Helvetica,sans-Serif" font-size="10.00">::SetCustomV2X</text>
</a>
</g>
</g>
<!-- Node2&#45;&gt;Node7 -->
<g id="edge6_Node000002_Node000007" class="edge">
<title>Node2&#45;&gt;Node7</title>
<g id="a_edge6_Node000002_Node000007"><a xlink:title=" ">
<path fill="none" stroke="#63b8ff" d="M402.48,-226.04C382.35,-235.39 358.05,-246.24 335.75,-255 328.26,-257.94 320.26,-260.86 312.39,-263.6"/>
<polygon fill="#63b8ff" stroke="#63b8ff" points="403.72,-228.85 411.29,-221.44 400.75,-222.51 403.72,-228.85"/>
</a>
</g>
</g>
<!-- Node9 -->
<g id="Node000009" class="node">
<title>Node9</title>
<g id="a_Node000009"><a xlink:href="../../dd/da3/classUActorBlueprintFunctionLibrary.html#a064afaa3154f81c475048ff14f699486" target="_top" xlink:title=" ">
<polygon fill="white" stroke="#666666" points="335.75,-246 184.75,-246 184.75,-214 335.75,-214 335.75,-246"/>
<text text-anchor="start" x="192.75" y="-232.5" font-family="Helvetica,sans-Serif" font-size="10.00">UActorBlueprintFunctionLibrary</text>
<text text-anchor="middle" x="260.25" y="-220.5" font-family="Helvetica,sans-Serif" font-size="10.00">::SetGnss</text>
</a>
</g>
</g>
<!-- Node2&#45;&gt;Node9 -->
<g id="edge8_Node000002_Node000009" class="edge">
<title>Node2&#45;&gt;Node9</title>
<g id="a_edge8_Node000002_Node000009"><a xlink:title=" ">
<path fill="none" stroke="#63b8ff" d="M360.57,-216.58C352.37,-217.69 344.11,-218.8 336.04,-219.89"/>
<polygon fill="#63b8ff" stroke="#63b8ff" points="360.83,-219.94 370.27,-215.13 359.89,-213 360.83,-219.94"/>
</a>
</g>
</g>
<!-- Node11 -->
<g id="Node000011" class="node">
<title>Node11</title>
<g id="a_Node000011"><a xlink:href="../../dd/da3/classUActorBlueprintFunctionLibrary.html#affa8a0128f536d34d052c54c93ff3629" target="_top" xlink:title=" ">
<polygon fill="white" stroke="#666666" points="335.75,-196 184.75,-196 184.75,-164 335.75,-164 335.75,-196"/>
<text text-anchor="start" x="192.75" y="-182.5" font-family="Helvetica,sans-Serif" font-size="10.00">UActorBlueprintFunctionLibrary</text>
<text text-anchor="middle" x="260.25" y="-170.5" font-family="Helvetica,sans-Serif" font-size="10.00">::SetIMU</text>
</a>
</g>
</g>
<!-- Node2&#45;&gt;Node11 -->
<g id="edge10_Node000002_Node000011" class="edge">
<title>Node2&#45;&gt;Node11</title>
<g id="a_edge10_Node000002_Node000011"><a xlink:title=" ">
<path fill="none" stroke="#63b8ff" d="M360.57,-193.42C352.37,-192.31 344.11,-191.2 336.04,-190.11"/>
<polygon fill="#63b8ff" stroke="#63b8ff" points="359.89,-197 370.27,-194.87 360.83,-190.06 359.89,-197"/>
</a>
</g>
</g>
<!-- Node13 -->
<g id="Node000013" class="node">
<title>Node13</title>
<g id="a_Node000013"><a xlink:href="../../dd/da3/classUActorBlueprintFunctionLibrary.html#a0ac14016bd271f575f9eb78ea3dc8cd3" target="_top" xlink:title=" ">
<polygon fill="white" stroke="#666666" points="335.75,-146 184.75,-146 184.75,-114 335.75,-114 335.75,-146"/>
<text text-anchor="start" x="192.75" y="-132.5" font-family="Helvetica,sans-Serif" font-size="10.00">UActorBlueprintFunctionLibrary</text>
<text text-anchor="middle" x="260.25" y="-120.5" font-family="Helvetica,sans-Serif" font-size="10.00">::SetLidar</text>
</a>
</g>
</g>
<!-- Node2&#45;&gt;Node13 -->
<g id="edge12_Node000002_Node000013" class="edge">
<title>Node2&#45;&gt;Node13</title>
<g id="a_edge12_Node000002_Node000013"><a xlink:title=" ">
<path fill="none" stroke="#63b8ff" d="M402.48,-183.96C382.35,-174.61 358.05,-163.76 335.75,-155 328.26,-152.06 320.26,-149.14 312.39,-146.4"/>
<polygon fill="#63b8ff" stroke="#63b8ff" points="400.75,-187.49 411.29,-188.56 403.72,-181.15 400.75,-187.49"/>
</a>
</g>
</g>
<!-- Node16 -->
<g id="Node000016" class="node">
<title>Node16</title>
<g id="a_Node000016"><a xlink:href="../../dd/da3/classUActorBlueprintFunctionLibrary.html#a0e5fb47e9351d11a1f9da3b9af8512af" target="_top" xlink:title=" ">
<polygon fill="white" stroke="#666666" points="335.75,-93 184.75,-93 184.75,-61 335.75,-61 335.75,-93"/>
<text text-anchor="start" x="192.75" y="-79.5" font-family="Helvetica,sans-Serif" font-size="10.00">UActorBlueprintFunctionLibrary</text>
<text text-anchor="middle" x="260.25" y="-67.5" font-family="Helvetica,sans-Serif" font-size="10.00">::SetRadar</text>
</a>
</g>
</g>
<!-- Node2&#45;&gt;Node16 -->
<g id="edge17_Node000002_Node000016" class="edge">
<title>Node2&#45;&gt;Node16</title>
<g id="a_edge17_Node000002_Node000016"><a xlink:title=" ">
<path fill="none" stroke="#63b8ff" d="M424.64,-180.79C403.73,-158.58 370.23,-126.02 335.75,-105 328.55,-100.61 320.56,-96.73 312.55,-93.35"/>
<polygon fill="#63b8ff" stroke="#63b8ff" points="421.65,-182.79 431.01,-187.75 426.79,-178.04 421.65,-182.79"/>
</a>
</g>
</g>
<!-- Node18 -->
<g id="Node000018" class="node">
<title>Node18</title>
<g id="a_Node000018"><a xlink:href="../../dd/da3/classUActorBlueprintFunctionLibrary.html#a664347ac38a83e63948914b13cdabd78" target="_top" xlink:title=" ">
<polygon fill="white" stroke="#666666" points="335.75,-36 184.75,-36 184.75,-4 335.75,-4 335.75,-36"/>
<text text-anchor="start" x="192.75" y="-22.5" font-family="Helvetica,sans-Serif" font-size="10.00">UActorBlueprintFunctionLibrary</text>
<text text-anchor="middle" x="260.25" y="-10.5" font-family="Helvetica,sans-Serif" font-size="10.00">::SetV2X</text>
</a>
</g>
</g>
<!-- Node2&#45;&gt;Node18 -->
<g id="edge19_Node000002_Node000018" class="edge">
<title>Node2&#45;&gt;Node18</title>
<g id="a_edge19_Node000002_Node000018"><a xlink:title=" ">
<path fill="none" stroke="#63b8ff" d="M433.47,-179.46C415.67,-146.12 380.47,-87.84 335.75,-52 328.06,-45.84 319.01,-40.65 309.91,-36.37"/>
<polygon fill="#63b8ff" stroke="#63b8ff" points="430.7,-180.71 438.43,-187.95 436.9,-177.46 430.7,-180.71"/>
</a>
</g>
</g>
<!-- Node5 -->
<g id="Node000005" class="node">
<title>Node5</title>
<g id="a_Node000005"><a xlink:href="../../d4/d60/classASceneCaptureSensor.html#a1a574afa79fb5ecf6425b0f8f48aa9d0" target="_top" xlink:title=" ">
<polygon fill="white" stroke="#666666" points="142.38,-372 6.38,-372 6.38,-352 142.38,-352 142.38,-372"/>
<text text-anchor="middle" x="74.38" y="-358.5" font-family="Helvetica,sans-Serif" font-size="10.00">ASceneCaptureSensor::Set</text>
</a>
</g>
</g>
<!-- Node4&#45;&gt;Node5 -->
<g id="edge4_Node000004_Node000005" class="edge">
<title>Node4&#45;&gt;Node5</title>
<g id="a_edge4_Node000004_Node000005"><a xlink:title=" ">
<path fill="none" stroke="#63b8ff" d="M173.68,-344.89C160.76,-347.14 147.68,-349.42 135.46,-351.54"/>
<polygon fill="#63b8ff" stroke="#63b8ff" points="174.21,-348.18 183.46,-343.02 173.01,-341.28 174.21,-348.18"/>
</a>
</g>
</g>
<!-- Node6 -->
<g id="Node000006" class="node">
<title>Node6</title>
<g id="a_Node000006"><a xlink:href="../../da/dd3/classAShaderBasedSensor.html#a35a622b1b796b8e91569888c649c43d1" target="_top" xlink:title=" ">
<polygon fill="white" stroke="#666666" points="140.88,-334 7.88,-334 7.88,-314 140.88,-314 140.88,-334"/>
<text text-anchor="middle" x="74.38" y="-320.5" font-family="Helvetica,sans-Serif" font-size="10.00">AShaderBasedSensor::Set</text>
</a>
</g>
</g>
<!-- Node4&#45;&gt;Node6 -->
<g id="edge5_Node000004_Node000006" class="edge">
<title>Node4&#45;&gt;Node6</title>
<g id="a_edge5_Node000004_Node000006"><a xlink:title=" ">
<path fill="none" stroke="#63b8ff" d="M173.64,-327.21C162.75,-326.85 151.75,-326.49 141.24,-326.15"/>
<polygon fill="#63b8ff" stroke="#63b8ff" points="173.35,-330.73 183.46,-327.56 173.58,-323.74 173.35,-330.73"/>
</a>
</g>
</g>
<!-- Node8 -->
<g id="Node000008" class="node">
<title>Node8</title>
<g id="a_Node000008"><a xlink:href="../../de/d1f/classACustomV2XSensor.html#a25f8b7efbc83406e7f7de0450d883302" target="_top" xlink:title=" ">
<polygon fill="white" stroke="#666666" points="137.12,-290 11.62,-290 11.62,-270 137.12,-270 137.12,-290"/>
<text text-anchor="middle" x="74.38" y="-276.5" font-family="Helvetica,sans-Serif" font-size="10.00">ACustomV2XSensor::Set</text>
</a>
</g>
</g>
<!-- Node7&#45;&gt;Node8 -->
<g id="edge7_Node000007_Node000008" class="edge">
<title>Node7&#45;&gt;Node8</title>
<g id="a_edge7_Node000007_Node000008"><a xlink:title=" ">
<path fill="none" stroke="#63b8ff" d="M173.77,-280C161.53,-280 149.14,-280 137.47,-280"/>
<polygon fill="#63b8ff" stroke="#63b8ff" points="173.46,-283.5 183.46,-280 173.46,-276.5 173.46,-283.5"/>
</a>
</g>
</g>
<!-- Node10 -->
<g id="Node000010" class="node">
<title>Node10</title>
<g id="a_Node000010"><a xlink:href="../../d0/dc3/classAGnssSensor.html#a9670365d4f5626a4ea8ae5617556e8ef" target="_top" xlink:title=" ">
<polygon fill="white" stroke="#666666" points="123.25,-246 25.5,-246 25.5,-226 123.25,-226 123.25,-246"/>
<text text-anchor="middle" x="74.38" y="-232.5" font-family="Helvetica,sans-Serif" font-size="10.00">AGnssSensor::Set</text>
</a>
</g>
</g>
<!-- Node9&#45;&gt;Node10 -->
<g id="edge9_Node000009_Node000010" class="edge">
<title>Node9&#45;&gt;Node10</title>
<g id="a_edge9_Node000009_Node000010"><a xlink:title=" ">
<path fill="none" stroke="#63b8ff" d="M173.82,-232.79C156.62,-233.35 139.13,-233.92 123.75,-234.42"/>
<polygon fill="#63b8ff" stroke="#63b8ff" points="173.58,-236.26 183.46,-232.44 173.35,-229.27 173.58,-236.26"/>
</a>
</g>
</g>
<!-- Node12 -->
<g id="Node000012" class="node">
<title>Node12</title>
<g id="a_Node000012"><a xlink:href="../../d5/de0/classAInertialMeasurementUnit.html#ac0fd1f47876962647b54b8607a5c4414" target="_top" xlink:title=" ">
<polygon fill="white" stroke="#666666" points="148.75,-208 0,-208 0,-188 148.75,-188 148.75,-208"/>
<text text-anchor="middle" x="74.38" y="-194.5" font-family="Helvetica,sans-Serif" font-size="10.00">AInertialMeasurementUnit::Set</text>
</a>
</g>
</g>
<!-- Node11&#45;&gt;Node12 -->
<g id="edge11_Node000011_Node000012" class="edge">
<title>Node11&#45;&gt;Node12</title>
<g id="a_edge11_Node000011_Node000012"><a xlink:title=" ">
<path fill="none" stroke="#63b8ff" d="M173.74,-188.37C165.54,-189.17 157.28,-189.98 149.2,-190.77"/>
<polygon fill="#63b8ff" stroke="#63b8ff" points="173.85,-191.78 183.46,-187.32 173.17,-184.81 173.85,-191.78"/>
</a>
</g>
</g>
<!-- Node14 -->
<g id="Node000014" class="node">
<title>Node14</title>
<g id="a_Node000014"><a xlink:href="../../d5/de4/classARayCastLidar.html#aa12e8acaeea8ccc3910be9970417d5a2" target="_top" xlink:title=" ">
<polygon fill="white" stroke="#666666" points="125.5,-152 23.25,-152 23.25,-132 125.5,-132 125.5,-152"/>
<text text-anchor="middle" x="74.38" y="-138.5" font-family="Helvetica,sans-Serif" font-size="10.00">ARayCastLidar::Set</text>
</a>
</g>
</g>
<!-- Node13&#45;&gt;Node14 -->
<g id="edge13_Node000013_Node000014" class="edge">
<title>Node13&#45;&gt;Node14</title>
<g id="a_edge13_Node000013_Node000014"><a xlink:title=" ">
<path fill="none" stroke="#63b8ff" d="M173.77,-135.58C157.4,-136.65 140.75,-137.73 125.92,-138.7"/>
<polygon fill="#63b8ff" stroke="#63b8ff" points="173.71,-139.02 183.46,-134.88 173.25,-132.04 173.71,-139.02"/>
</a>
</g>
</g>
<!-- Node15 -->
<g id="Node000015" class="node">
<title>Node15</title>
<g id="a_Node000015"><a xlink:href="../../d8/d15/classARayCastSemanticLidar.html#aa37e8413089732c8918aeabd9ed3dbe2" target="_top" xlink:title=" ">
<polygon fill="white" stroke="#666666" points="146.12,-96 2.62,-96 2.62,-76 146.12,-76 146.12,-96"/>
<text text-anchor="middle" x="74.38" y="-82.5" font-family="Helvetica,sans-Serif" font-size="10.00">ARayCastSemanticLidar::Set</text>
</a>
</g>
</g>
<!-- Node13&#45;&gt;Node15 -->
<g id="edge15_Node000013_Node000015" class="edge">
<title>Node13&#45;&gt;Node15</title>
<g id="a_edge15_Node000013_Node000015"><a xlink:title=" ">
<path fill="none" stroke="#63b8ff" d="M180.05,-111.05C159.21,-106.06 137.47,-100.86 119.24,-96.5"/>
<polygon fill="#63b8ff" stroke="#63b8ff" points="178.98,-114.63 189.52,-113.55 180.61,-107.82 178.98,-114.63"/>
</a>
</g>
</g>
<!-- Node14&#45;&gt;Node14 -->
<g id="edge14_Node000014_Node000014" class="edge">
<title>Node14&#45;&gt;Node14</title>
<g id="a_edge14_Node000014_Node000014"><a xlink:title=" ">
<path fill="none" stroke="#63b8ff" d="M108.17,-162.43C104.82,-166.82 93.56,-170 74.38,-170 42.06,-170 32.22,-160.98 44.84,-152.34"/>
<polygon fill="#63b8ff" stroke="#63b8ff" points="111.02,-161.19 103.91,-153.34 104.57,-163.91 111.02,-161.19"/>
</a>
</g>
</g>
<!-- Node15&#45;&gt;Node15 -->
<g id="edge16_Node000015_Node000015" class="edge">
<title>Node15&#45;&gt;Node15</title>
<g id="a_edge16_Node000015_Node000015"><a xlink:title=" ">
<path fill="none" stroke="#63b8ff" d="M108.17,-106.43C104.82,-110.82 93.56,-114 74.38,-114 42.06,-114 32.22,-104.98 44.84,-96.34"/>
<polygon fill="#63b8ff" stroke="#63b8ff" points="111.02,-105.19 103.91,-97.34 104.57,-107.91 111.02,-105.19"/>
</a>
</g>
</g>
<!-- Node17 -->
<g id="Node000017" class="node">
<title>Node17</title>
<g id="a_Node000017"><a xlink:href="../../d9/d27/classARadar.html#ab481dcee48113f4a456479745bdc2616" target="_top" xlink:title=" ">
<polygon fill="white" stroke="#666666" points="109,-58 39.75,-58 39.75,-38 109,-38 109,-58"/>
<text text-anchor="middle" x="74.38" y="-44.5" font-family="Helvetica,sans-Serif" font-size="10.00">ARadar::Set</text>
</a>
</g>
</g>
<!-- Node16&#45;&gt;Node17 -->
<g id="edge18_Node000016_Node000017" class="edge">
<title>Node16&#45;&gt;Node17</title>
<g id="a_edge18_Node000016_Node000017"><a xlink:title=" ">
<path fill="none" stroke="#63b8ff" d="M173.69,-63.51C150.9,-59.91 127.57,-56.23 109.37,-53.36"/>
<polygon fill="#63b8ff" stroke="#63b8ff" points="173.04,-67.1 183.46,-65.2 174.13,-60.19 173.04,-67.1"/>
</a>
</g>
</g>
<!-- Node19 -->
<g id="Node000019" class="node">
<title>Node19</title>
<g id="a_Node000019"><a xlink:href="../../d3/dd4/classAV2XSensor.html#a1c79ddecf44f18a7be76735974910946" target="_top" xlink:title=" ">
<polygon fill="white" stroke="#666666" points="120.25,-20 28.5,-20 28.5,0 120.25,0 120.25,-20"/>
<text text-anchor="middle" x="74.38" y="-6.5" font-family="Helvetica,sans-Serif" font-size="10.00">AV2XSensor::Set</text>
</a>
</g>
</g>
<!-- Node18&#45;&gt;Node19 -->
<g id="edge20_Node000018_Node000019" class="edge">
<title>Node18&#45;&gt;Node19</title>
<g id="a_edge20_Node000018_Node000019"><a xlink:title=" ">
<path fill="none" stroke="#63b8ff" d="M173.71,-15.35C155.34,-14.35 136.63,-13.33 120.53,-12.46"/>
<polygon fill="#63b8ff" stroke="#63b8ff" points="173.29,-18.88 183.46,-15.93 173.67,-11.89 173.29,-18.88"/>
</a>
</g>
</g>
</g>
</svg>
