<?xml version="1.0" encoding="UTF-8" standalone="no"?>
<!DOCTYPE svg PUBLIC "-//W3C//DTD SVG 1.1//EN"
 "http://www.w3.org/Graphics/SVG/1.1/DTD/svg11.dtd">
<!-- Generated by graphviz version 8.1.0 (20230707.0739)
 -->
<!-- Title: UActorBlueprintFunctionLibrary::MakeIMUDefinition Pages: 1 -->
<svg width="323pt" height="58pt"
 viewBox="0.00 0.00 322.75 58.00" xmlns="http://www.w3.org/2000/svg" xmlns:xlink="http://www.w3.org/1999/xlink">
<g id="graph0" class="graph" transform="scale(1 1) rotate(0) translate(4 54)">
<title>UActorBlueprintFunctionLibrary::MakeIMUDefinition</title>
<!-- Node1 -->
<g id="Node000001" class="node">
<title>Node1</title>
<g id="a_Node000001"><a xlink:title=" ">
<polygon fill="#999999" stroke="#666666" points="314.75,-32 163.75,-32 163.75,0 314.75,0 314.75,-32"/>
<text text-anchor="start" x="171.75" y="-18.5" font-family="Helvetica,sans-Serif" font-size="10.00">UActorBlueprintFunctionLibrary</text>
<text text-anchor="middle" x="239.25" y="-6.5" font-family="Helvetica,sans-Serif" font-size="10.00">::MakeIMUDefinition</text>
</a>
</g>
</g>
<!-- Node1&#45;&gt;Node1 -->
<g id="edge2_Node000001_Node000001" class="edge">
<title>Node1&#45;&gt;Node1</title>
<g id="a_edge2_Node000001_Node000001"><a xlink:title=" ">
<path fill="none" stroke="#63b8ff" d="M269.26,-43.05C264.7,-47.19 254.7,-50 239.25,-50 212.53,-50 202.1,-41.58 207.94,-32.44"/>
<polygon fill="#63b8ff" stroke="#63b8ff" points="272.82,-43.79 270.56,-33.44 265.87,-42.94 272.82,-43.79"/>
</a>
</g>
</g>
<!-- Node2 -->
<g id="Node000002" class="node">
<title>Node2</title>
<g id="a_Node000002"><a xlink:href="../../d5/de0/classAInertialMeasurementUnit.html#ab86c890fb98d46aada0e50ca7fcce4e1" target="_top" xlink:title=" ">
<polygon fill="white" stroke="#666666" points="127.75,-32 0,-32 0,0 127.75,0 127.75,-32"/>
<text text-anchor="start" x="8" y="-18.5" font-family="Helvetica,sans-Serif" font-size="10.00">AInertialMeasurementUnit</text>
<text text-anchor="middle" x="63.88" y="-6.5" font-family="Helvetica,sans-Serif" font-size="10.00">::GetSensorDefinition</text>
</a>
</g>
</g>
<!-- Node1&#45;&gt;Node2 -->
<g id="edge1_Node000001_Node000002" class="edge">
<title>Node1&#45;&gt;Node2</title>
<g id="a_edge1_Node000001_Node000002"><a xlink:title=" ">
<path fill="none" stroke="#63b8ff" d="M152.6,-16C144.31,-16 136.01,-16 128,-16"/>
<polygon fill="#63b8ff" stroke="#63b8ff" points="152.47,-19.5 162.47,-16 152.47,-12.5 152.47,-19.5"/>
</a>
</g>
</g>
</g>
</svg>
