<?xml version="1.0" encoding="UTF-8" standalone="no"?>
<!DOCTYPE svg PUBLIC "-//W3C//DTD SVG 1.1//EN"
 "http://www.w3.org/Graphics/SVG/1.1/DTD/svg11.dtd">
<!-- Generated by graphviz version 8.1.0 (20230707.0739)
 -->
<!-- Title: UActorBlueprintFunctionLibrary::SetIMU Pages: 1 -->
<!--zoomable 354 -->

<svg id="main" version="1.1" xmlns="http://www.w3.org/2000/svg" xmlns:xlink="http://www.w3.org/1999/xlink" xml:space="preserve" onload="init(evt)">
<style type="text/css"><![CDATA[
.node, .edge {opacity: 0.7;}
.node.selected, .edge.selected {opacity: 1;}
.edge:hover path { stroke: red; }
.edge:hover polygon { stroke: red; fill: red; }
]]></style>

<defs>
  <circle id="rim" cx="0" cy="0" r="7"/>
  <circle id="rim2" cx="0" cy="0" r="3.5"/>
  <g id="zoomPlus">
    <use xlink:href="#rim" fill="#404040"><set attributeName="fill" to="#808080" begin="zoomplus.mouseover" end="zoomplus.mouseout"/></use>
    <path d="M-4,0h8M0,-4v8" fill="none" stroke="white" stroke-width="1.5" pointer-events="none"/>
  </g>
  <g id="zoomMin">
    <use xlink:href="#rim" fill="#404040"><set attributeName="fill" to="#808080" begin="zoomminus.mouseover" end="zoomminus.mouseout"/></use>
    <path d="M-4,0h8" fill="none" stroke="white" stroke-width="1.5" pointer-events="none"/>
  </g>
  <g id="arrowUp" transform="translate(30 24)">
    <use xlink:href="#rim"/>
    <path pointer-events="none" fill="none" stroke="white" stroke-width="1.5" d="M0,-3.0v7 M-2.5,-0.5L0,-3.0L2.5,-0.5"/>
  </g>
  <g id="arrowRight" transform="rotate(90) translate(36 -43)">
    <use xlink:href="#rim"/>
    <path pointer-events="none" fill="none" stroke="white" stroke-width="1.5" d="M0,-3.0v7 M-2.5,-0.5L0,-3.0L2.5,-0.5"/>
  </g>
  <g id="arrowDown" transform="rotate(180) translate(-30 -48)">
    <use xlink:href="#rim"/>
    <path pointer-events="none" fill="none" stroke="white" stroke-width="1.5" d="M0,-3.0v7 M-2.5,-0.5L0,-3.0L2.5,-0.5"/>
  </g>
  <g id="arrowLeft" transform="rotate(270) translate(-36 17)">
    <use xlink:href="#rim"/>
    <path pointer-events="none" fill="none" stroke="white" stroke-width="1.5" d="M0,-3.0v7 M-2.5,-0.5L0,-3.0L2.5,-0.5"/>
  </g>
  <g id="resetDef">
    <use xlink:href="#rim2" fill="#404040"><set attributeName="fill" to="#808080" begin="reset.mouseover" end="reset.mouseout"/></use>
  </g>
</defs>
<script type="application/ecmascript">
var viewWidth = 575;
var viewHeight = 354;
var sectionId = 'dynsection-68';
</script>
<script type="application/ecmascript" xlink:href="../../svg.min.js"/>
<svg id="graph" class="graph">
<g id="viewport">
<title>UActorBlueprintFunctionLibrary::SetIMU</title>
<!-- Node1 -->
<g id="Node000001" class="node">
<title>Node1</title>
<g id="a_Node000001"><a xlink:title=" ">
<polygon fill="#999999" stroke="#666666" points="151,-195 0,-195 0,-163 151,-163 151,-195"/>
<text text-anchor="start" x="8" y="-181.5" font-family="Helvetica,sans-Serif" font-size="10.00">UActorBlueprintFunctionLibrary</text>
<text text-anchor="middle" x="75.5" y="-169.5" font-family="Helvetica,sans-Serif" font-size="10.00">::SetIMU</text>
</a>
</g>
</g>
<!-- Node2 -->
<g id="Node000002" class="node">
<title>Node2</title>
<g id="a_Node000002"><a xlink:href="../../d2/d4b/classURandomEngine.html#ab2bf91a8e68643308ee2c4fbd638c4ce" target="_top" xlink:title="Generate a non&#45;deterministic random seed.">
<polygon fill="white" stroke="#666666" points="380,-346 187,-346 187,-326 380,-326 380,-346"/>
<text text-anchor="middle" x="283.5" y="-332.5" font-family="Helvetica,sans-Serif" font-size="10.00">URandomEngine::GenerateRandomSeed</text>
</a>
</g>
</g>
<!-- Node1&#45;&gt;Node2 -->
<g id="edge1_Node000001_Node000002" class="edge">
<title>Node1&#45;&gt;Node2</title>
<g id="a_edge1_Node000001_Node000002"><a xlink:title=" ">
<path fill="none" stroke="#63b8ff" d="M84.56,-195.28C100.05,-224.72 136.9,-286.56 187,-317 189.64,-318.6 192.39,-320.08 195.22,-321.43"/>
<polygon fill="#63b8ff" stroke="#63b8ff" points="193.54,-324.94 204.12,-325.57 196.24,-318.48 193.54,-324.94"/>
</a>
</g>
</g>
<!-- Node3 -->
<g id="Node000003" class="node">
<title>Node3</title>
<g id="a_Node000003"><a xlink:href="../../d3/d01/classASensor.html#abcb906d38dd041714fa0181fa8a65e58" target="_top" xlink:title=" ">
<polygon fill="white" stroke="#666666" points="354.12,-308 212.88,-308 212.88,-288 354.12,-288 354.12,-308"/>
<text text-anchor="middle" x="283.5" y="-294.5" font-family="Helvetica,sans-Serif" font-size="10.00">ASensor::GetRandomEngine</text>
</a>
</g>
</g>
<!-- Node1&#45;&gt;Node3 -->
<g id="edge2_Node000001_Node000003" class="edge">
<title>Node1&#45;&gt;Node3</title>
<g id="a_edge2_Node000001_Node000003"><a xlink:title=" ">
<path fill="none" stroke="#63b8ff" d="M89.56,-195.43C108.51,-218.04 145.86,-258.31 187,-279 191.83,-281.43 196.95,-283.55 202.2,-285.4"/>
<polygon fill="#63b8ff" stroke="#63b8ff" points="200.84,-288.96 211.43,-288.63 202.95,-282.28 200.84,-288.96"/>
</a>
</g>
</g>
<!-- Node4 -->
<g id="Node000004" class="node">
<title>Node4</title>
<g id="a_Node000004"><a xlink:href="../../dd/da3/classUActorBlueprintFunctionLibrary.html#a9df033f51ecd7f941548826451bddb74" target="_top" xlink:title=" ">
<polygon fill="white" stroke="#666666" points="359,-270 208,-270 208,-238 359,-238 359,-270"/>
<text text-anchor="start" x="216" y="-256.5" font-family="Helvetica,sans-Serif" font-size="10.00">UActorBlueprintFunctionLibrary</text>
<text text-anchor="middle" x="283.5" y="-244.5" font-family="Helvetica,sans-Serif" font-size="10.00">::RetrieveActorAttributeToFloat</text>
</a>
</g>
</g>
<!-- Node1&#45;&gt;Node4 -->
<g id="edge3_Node000001_Node000004" class="edge">
<title>Node1&#45;&gt;Node4</title>
<g id="a_edge3_Node000001_Node000004"><a xlink:title=" ">
<path fill="none" stroke="#63b8ff" d="M108.78,-195.36C130.51,-205.92 160.01,-219.44 187,-229 192.4,-230.91 198.02,-232.75 203.71,-234.51"/>
<polygon fill="#63b8ff" stroke="#63b8ff" points="202.41,-238.07 212.99,-237.57 204.41,-231.36 202.41,-238.07"/>
</a>
</g>
</g>
<!-- Node6 -->
<g id="Node000006" class="node">
<title>Node6</title>
<g id="a_Node000006"><a xlink:href="../../dd/da3/classUActorBlueprintFunctionLibrary.html#a133abaff7dac1fe73845d942c9305427" target="_top" xlink:title=" ">
<polygon fill="white" stroke="#666666" points="359,-220 208,-220 208,-188 359,-188 359,-220"/>
<text text-anchor="start" x="216" y="-206.5" font-family="Helvetica,sans-Serif" font-size="10.00">UActorBlueprintFunctionLibrary</text>
<text text-anchor="middle" x="283.5" y="-194.5" font-family="Helvetica,sans-Serif" font-size="10.00">::RetrieveActorAttributeToInt</text>
</a>
</g>
</g>
<!-- Node1&#45;&gt;Node6 -->
<g id="edge5_Node000001_Node000006" class="edge">
<title>Node1&#45;&gt;Node6</title>
<g id="a_edge5_Node000001_Node000006"><a xlink:title=" ">
<path fill="none" stroke="#63b8ff" d="M151.45,-188.1C166.17,-189.88 181.72,-191.77 196.76,-193.59"/>
<polygon fill="#63b8ff" stroke="#63b8ff" points="196.25,-197.18 206.6,-194.91 197.1,-190.23 196.25,-197.18"/>
</a>
</g>
</g>
<!-- Node8 -->
<g id="Node000008" class="node">
<title>Node8</title>
<g id="a_Node000008"><a xlink:href="../../d5/de0/classAInertialMeasurementUnit.html#ac93f533d604e59cd79d504b69e59c57d" target="_top" xlink:title=" ">
<polygon fill="white" stroke="#666666" points="368,-170 199,-170 199,-138 368,-138 368,-170"/>
<text text-anchor="start" x="207" y="-156.5" font-family="Helvetica,sans-Serif" font-size="10.00">AInertialMeasurementUnit</text>
<text text-anchor="middle" x="283.5" y="-144.5" font-family="Helvetica,sans-Serif" font-size="10.00">::SetAccelerationStandardDeviation</text>
</a>
</g>
</g>
<!-- Node1&#45;&gt;Node8 -->
<g id="edge7_Node000001_Node000008" class="edge">
<title>Node1&#45;&gt;Node8</title>
<g id="a_edge7_Node000001_Node000008"><a xlink:title=" ">
<path fill="none" stroke="#63b8ff" d="M151.45,-169.9C163.29,-168.47 175.66,-166.97 187.87,-165.48"/>
<polygon fill="#63b8ff" stroke="#63b8ff" points="188.03,-168.87 197.54,-164.19 187.19,-161.92 188.03,-168.87"/>
</a>
</g>
</g>
<!-- Node9 -->
<g id="Node000009" class="node">
<title>Node9</title>
<g id="a_Node000009"><a xlink:href="../../d5/de0/classAInertialMeasurementUnit.html#a6cdd622f0394de0d71f64a340ccdb2d3" target="_top" xlink:title=" ">
<polygon fill="white" stroke="#666666" points="347.38,-120 219.62,-120 219.62,-88 347.38,-88 347.38,-120"/>
<text text-anchor="start" x="227.62" y="-106.5" font-family="Helvetica,sans-Serif" font-size="10.00">AInertialMeasurementUnit</text>
<text text-anchor="middle" x="283.5" y="-94.5" font-family="Helvetica,sans-Serif" font-size="10.00">::SetGyroscopeBias</text>
</a>
</g>
</g>
<!-- Node1&#45;&gt;Node9 -->
<g id="edge8_Node000001_Node000009" class="edge">
<title>Node1&#45;&gt;Node9</title>
<g id="a_edge8_Node000001_Node000009"><a xlink:title=" ">
<path fill="none" stroke="#63b8ff" d="M108.78,-162.64C130.51,-152.08 160.01,-138.56 187,-129 194.03,-126.51 201.42,-124.15 208.86,-121.93"/>
<polygon fill="#63b8ff" stroke="#63b8ff" points="209.73,-125.04 218.37,-118.91 207.79,-118.31 209.73,-125.04"/>
</a>
</g>
</g>
<!-- Node10 -->
<g id="Node000010" class="node">
<title>Node10</title>
<g id="a_Node000010"><a xlink:href="../../d5/de0/classAInertialMeasurementUnit.html#ad80f1281490d73ef7ca93e999b4f75f5" target="_top" xlink:title=" ">
<polygon fill="white" stroke="#666666" points="364.62,-70 202.38,-70 202.38,-38 364.62,-38 364.62,-70"/>
<text text-anchor="start" x="210.38" y="-56.5" font-family="Helvetica,sans-Serif" font-size="10.00">AInertialMeasurementUnit</text>
<text text-anchor="middle" x="283.5" y="-44.5" font-family="Helvetica,sans-Serif" font-size="10.00">::SetGyroscopeStandardDeviation</text>
</a>
</g>
</g>
<!-- Node1&#45;&gt;Node10 -->
<g id="edge9_Node000001_Node000010" class="edge">
<title>Node1&#45;&gt;Node10</title>
<g id="a_edge9_Node000001_Node000010"><a xlink:title=" ">
<path fill="none" stroke="#63b8ff" d="M90.07,-162.53C109.31,-140.25 146.72,-100.79 187,-79 189.92,-77.42 192.95,-75.94 196.04,-74.54"/>
<polygon fill="#63b8ff" stroke="#63b8ff" points="197.22,-77.43 205.14,-70.39 194.56,-70.96 197.22,-77.43"/>
</a>
</g>
</g>
<!-- Node11 -->
<g id="Node000011" class="node">
<title>Node11</title>
<g id="a_Node000011"><a xlink:href="../../d3/d01/classASensor.html#afced2ac412dc1ef1a5c99e65e14f7340" target="_top" xlink:title=" ">
<polygon fill="white" stroke="#666666" points="332,-20 235,-20 235,0 332,0 332,-20"/>
<text text-anchor="middle" x="283.5" y="-6.5" font-family="Helvetica,sans-Serif" font-size="10.00">ASensor::SetSeed</text>
</a>
</g>
</g>
<!-- Node1&#45;&gt;Node11 -->
<g id="edge10_Node000001_Node000011" class="edge">
<title>Node1&#45;&gt;Node11</title>
<g id="a_edge10_Node000001_Node000011"><a xlink:title=" ">
<path fill="none" stroke="#63b8ff" d="M83.49,-162.79C97.89,-131.44 134.04,-62.66 187,-29 198.03,-21.99 211.12,-17.48 224.01,-14.6"/>
<polygon fill="#63b8ff" stroke="#63b8ff" points="224.57,-17.86 233.74,-12.54 223.26,-10.99 224.57,-17.86"/>
</a>
</g>
</g>
<!-- Node5 -->
<g id="Node000005" class="node">
<title>Node5</title>
<g id="a_Node000005"><a xlink:href="../../dd/da3/classUActorBlueprintFunctionLibrary.html#a2705e7880e0aaf440b869e95732c841a" target="_top" xlink:title=" ">
<polygon fill="white" stroke="#666666" points="567,-270 416,-270 416,-238 567,-238 567,-270"/>
<text text-anchor="start" x="424" y="-256.5" font-family="Helvetica,sans-Serif" font-size="10.00">UActorBlueprintFunctionLibrary</text>
<text text-anchor="middle" x="491.5" y="-244.5" font-family="Helvetica,sans-Serif" font-size="10.00">::ActorAttributeToFloat</text>
</a>
</g>
</g>
<!-- Node4&#45;&gt;Node5 -->
<g id="edge4_Node000004_Node000005" class="edge">
<title>Node4&#45;&gt;Node5</title>
<g id="a_edge4_Node000004_Node000005"><a xlink:title=" ">
<path fill="none" stroke="#63b8ff" d="M359.45,-254C374.17,-254 389.72,-254 404.76,-254"/>
<polygon fill="#63b8ff" stroke="#63b8ff" points="404.6,-257.5 414.6,-254 404.6,-250.5 404.6,-257.5"/>
</a>
</g>
</g>
<!-- Node7 -->
<g id="Node000007" class="node">
<title>Node7</title>
<g id="a_Node000007"><a xlink:href="../../dd/da3/classUActorBlueprintFunctionLibrary.html#ac6896b87d5fb6381abeec9b2ce40b868" target="_top" xlink:title=" ">
<polygon fill="white" stroke="#666666" points="567,-220 416,-220 416,-188 567,-188 567,-220"/>
<text text-anchor="start" x="424" y="-206.5" font-family="Helvetica,sans-Serif" font-size="10.00">UActorBlueprintFunctionLibrary</text>
<text text-anchor="middle" x="491.5" y="-194.5" font-family="Helvetica,sans-Serif" font-size="10.00">::ActorAttributeToInt</text>
</a>
</g>
</g>
<!-- Node6&#45;&gt;Node7 -->
<g id="edge6_Node000006_Node000007" class="edge">
<title>Node6&#45;&gt;Node7</title>
<g id="a_edge6_Node000006_Node000007"><a xlink:title=" ">
<path fill="none" stroke="#63b8ff" d="M359.45,-204C374.17,-204 389.72,-204 404.76,-204"/>
<polygon fill="#63b8ff" stroke="#63b8ff" points="404.6,-207.5 414.6,-204 404.6,-200.5 404.6,-207.5"/>
</a>
</g>
</g>
<!-- Node12 -->
<g id="Node000012" class="node">
<title>Node12</title>
<g id="a_Node000012"><a xlink:href="../../d2/d4b/classURandomEngine.html#a0f8656d0f169c26c5b2f3b685d25e0eb" target="_top" xlink:title="Seed the random engine.">
<polygon fill="white" stroke="#666666" points="550.12,-20 432.88,-20 432.88,0 550.12,0 550.12,-20"/>
<text text-anchor="middle" x="491.5" y="-6.5" font-family="Helvetica,sans-Serif" font-size="10.00">URandomEngine::Seed</text>
</a>
</g>
</g>
<!-- Node11&#45;&gt;Node12 -->
<g id="edge11_Node000011_Node000012" class="edge">
<title>Node11&#45;&gt;Node12</title>
<g id="a_edge11_Node000011_Node000012"><a xlink:title=" ">
<path fill="none" stroke="#63b8ff" d="M332.28,-10C358.95,-10 392.65,-10 422.08,-10"/>
<polygon fill="#63b8ff" stroke="#63b8ff" points="421.71,-13.5 431.71,-10 421.71,-6.5 421.71,-13.5"/>
</a>
</g>
</g>
</g>
</svg>

<g id="navigator" transform="translate(0 0)" fill="#404254">
  <rect fill="#f2f5e9" fill-opacity="0.5" stroke="#606060" stroke-width=".5" x="0" y="0" width="60" height="60"/>
  <use id="zoomplus" xlink:href="#zoomPlus" x="17" y="9" onmousedown="handleZoom(evt,'in')"/>
  <use id="zoomminus" xlink:href="#zoomMin" x="42" y="9" onmousedown="handleZoom(evt,'out')"/>
  <use id="reset" xlink:href="#resetDef" x="30" y="36" onmousedown="handleReset()"/>
   <use id="arrowup" xlink:href="#arrowUp" x="0" y="0" onmousedown="handlePan(0,-1)"/>
  <use id="arrowright" xlink:href="#arrowRight" x="0" y="0" onmousedown="handlePan(1,0)"/>
  <use id="arrowdown" xlink:href="#arrowDown" x="0" y="0" onmousedown="handlePan(0,1)"/>
  <use id="arrowleft" xlink:href="#arrowLeft" x="0" y="0" onmousedown="handlePan(-1,0)"/>
</g>
<svg viewBox="0 0 15 15" width="100%" height="30px" preserveAspectRatio="xMaxYMin meet">
 <g id="arrow_out" transform="scale(0.3 0.3)">
  <a xlink:href="classUActorBlueprintFunctionLibrary_affa8a0128f536d34d052c54c93ff3629_cgraph_org.svg" target="_base">
   <rect id="button" ry="5" rx="5" y="6" x="6" height="38" width="38"
        fill="#f2f5e9" fill-opacity="0.5" stroke="#606060" stroke-width="1.0"/>
   <path id="arrow"
     d="M 11.500037,31.436501 C 11.940474,20.09759 22.043105,11.32322 32.158766,21.979434 L 37.068811,17.246167 C 37.068811,17.246167 37.088388,32 37.088388,32 L 22.160133,31.978069 C 22.160133,31.978069 26.997745,27.140456 26.997745,27.140456 C 18.528582,18.264221 13.291696,25.230495 11.500037,31.436501 z"
     style="fill:#404040;"/>
  </a>
 </g>
</svg>

<style type='text/css'>
<![CDATA[
[data-mouse-over-selected='false'] { opacity: 0.7; }
[data-mouse-over-selected='true']  { opacity: 1.0; }
]]>
</style>
<script type="application/ecmascript"><![CDATA[
document.addEventListener('DOMContentLoaded', (event) => {
  highlightEdges();
  highlightAdjacentNodes();
});
]]></script>
</svg>
