<?xml version="1.0" encoding="UTF-8" standalone="no"?>
<!DOCTYPE svg PUBLIC "-//W3C//DTD SVG 1.1//EN"
 "http://www.w3.org/Graphics/SVG/1.1/DTD/svg11.dtd">
<!-- Generated by graphviz version 8.1.0 (20230707.0739)
 -->
<!-- Title: incomingMessage.h Pages: 1 -->
<svg width="1279pt" height="276pt"
 viewBox="0.00 0.00 1279.14 276.00" xmlns="http://www.w3.org/2000/svg" xmlns:xlink="http://www.w3.org/1999/xlink">
<g id="graph0" class="graph" transform="scale(1 1) rotate(0) translate(4 272)">
<title>incomingMessage.h</title>
<!-- Node1 -->
<g id="Node000001" class="node">
<title>Node1</title>
<g id="a_Node000001"><a xlink:title=" ">
<polygon fill="#999999" stroke="#666666" points="977.89,-268 874.89,-268 874.89,-248 977.89,-248 977.89,-268"/>
<text text-anchor="middle" x="926.39" y="-254.5" font-family="Helvetica,sans-Serif" font-size="10.00">incomingMessage.h</text>
</a>
</g>
</g>
<!-- Node2 -->
<g id="Node000002" class="node">
<title>Node2</title>
<g id="a_Node000002"><a xlink:href="../../de/d1a/BufferPool_8h.html" target="_top" xlink:title=" ">
<polygon fill="white" stroke="#666666" points="863.64,-206 771.14,-206 771.14,-186 863.64,-186 863.64,-206"/>
<text text-anchor="middle" x="817.39" y="-192.5" font-family="Helvetica,sans-Serif" font-size="10.00">carla/BufferPool.h</text>
</a>
</g>
</g>
<!-- Node1&#45;&gt;Node2 -->
<g id="edge1_Node000001_Node000002" class="edge">
<title>Node1&#45;&gt;Node2</title>
<g id="a_edge1_Node000001_Node000002"><a xlink:title=" ">
<path fill="none" stroke="#63b8ff" d="M909.36,-247.62C891.84,-237.98 864.31,-222.83 843.94,-211.61"/>
<polygon fill="#63b8ff" stroke="#63b8ff" points="845.75,-208.07 835.3,-206.31 842.38,-214.2 845.75,-208.07"/>
</a>
</g>
</g>
<!-- Node4 -->
<g id="Node000004" class="node">
<title>Node4</title>
<g id="a_Node000004"><a xlink:href="../../d4/deb/Debug_8h.html" target="_top" xlink:title=" ">
<polygon fill="white" stroke="#666666" points="1102.39,-76 1026.39,-76 1026.39,-56 1102.39,-56 1102.39,-76"/>
<text text-anchor="middle" x="1064.39" y="-62.5" font-family="Helvetica,sans-Serif" font-size="10.00">carla/Debug.h</text>
</a>
</g>
</g>
<!-- Node1&#45;&gt;Node4 -->
<g id="edge31_Node000001_Node000004" class="edge">
<title>Node1&#45;&gt;Node4</title>
<g id="a_edge31_Node000001_Node000004"><a xlink:title=" ">
<path fill="none" stroke="#63b8ff" d="M957,-247.54C998.43,-232.9 1070.69,-200.37 1101.39,-144 1108.19,-131.51 1106.19,-125.39 1101.39,-112 1097.63,-101.51 1090.26,-91.72 1083.07,-83.96"/>
<polygon fill="#63b8ff" stroke="#63b8ff" points="1086.08,-82.01 1076.54,-77.41 1081.12,-86.96 1086.08,-82.01"/>
</a>
</g>
</g>
<!-- Node5 -->
<g id="Node000005" class="node">
<title>Node5</title>
<g id="a_Node000005"><a xlink:href="../../d8/d8a/Exception_8h.html" target="_top" xlink:title=" ">
<polygon fill="white" stroke="#666666" points="541.27,-20 449.52,-20 449.52,0 541.27,0 541.27,-20"/>
<text text-anchor="middle" x="495.39" y="-6.5" font-family="Helvetica,sans-Serif" font-size="10.00">carla/Exception.h</text>
</a>
</g>
</g>
<!-- Node1&#45;&gt;Node5 -->
<g id="edge32_Node000001_Node000005" class="edge">
<title>Node1&#45;&gt;Node5</title>
<g id="a_edge32_Node000001_Node000005"><a xlink:title=" ">
<path fill="none" stroke="#63b8ff" d="M874.61,-255.19C696.68,-247.79 115.1,-213.3 4.39,-76 -1.19,-69.08 -1.6,-62.57 4.39,-56 33.17,-24.47 315.22,-14.75 438.37,-12"/>
<polygon fill="#63b8ff" stroke="#63b8ff" points="438.15,-15.48 448.07,-11.77 438,-8.49 438.15,-15.48"/>
</a>
</g>
</g>
<!-- Node8 -->
<g id="Node000008" class="node">
<title>Node8</title>
<g id="a_Node000008"><a xlink:href="../../de/d87/Logging_8h.html" target="_top" xlink:title=" ">
<polygon fill="white" stroke="#666666" points="1202.39,-76 1120.39,-76 1120.39,-56 1202.39,-56 1202.39,-76"/>
<text text-anchor="middle" x="1161.39" y="-62.5" font-family="Helvetica,sans-Serif" font-size="10.00">carla/Logging.h</text>
</a>
</g>
</g>
<!-- Node1&#45;&gt;Node8 -->
<g id="edge33_Node000001_Node000008" class="edge">
<title>Node1&#45;&gt;Node8</title>
<g id="a_edge33_Node000001_Node000008"><a xlink:title=" ">
<path fill="none" stroke="#63b8ff" d="M978.1,-248.34C1006.14,-241.77 1040.3,-230.59 1066.39,-212 1112.01,-179.49 1141.52,-117.6 1154.22,-86.24"/>
<polygon fill="#63b8ff" stroke="#63b8ff" points="1157.77,-87.77 1158.14,-77.18 1151.25,-85.22 1157.77,-87.77"/>
</a>
</g>
</g>
<!-- Node25 -->
<g id="Node000025" class="node">
<title>Node25</title>
<g id="a_Node000025"><a xlink:href="../../d7/df8/Types_8h.html" target="_top" xlink:title=" ">
<polygon fill="white" stroke="#666666" points="749.89,-212 640.89,-212 640.89,-180 749.89,-180 749.89,-212"/>
<text text-anchor="start" x="648.89" y="-198.5" font-family="Helvetica,sans-Serif" font-size="10.00">carla/streaming/detail</text>
<text text-anchor="middle" x="695.39" y="-186.5" font-family="Helvetica,sans-Serif" font-size="10.00">/Types.h</text>
</a>
</g>
</g>
<!-- Node1&#45;&gt;Node25 -->
<g id="edge34_Node000001_Node000025" class="edge">
<title>Node1&#45;&gt;Node25</title>
<g id="a_edge34_Node000001_Node000025"><a xlink:title=" ">
<path fill="none" stroke="#63b8ff" d="M890.04,-247.56C855.37,-238.55 802.37,-224.79 760.42,-213.89"/>
<polygon fill="#63b8ff" stroke="#63b8ff" points="761.57,-210.31 751.01,-211.19 759.81,-217.09 761.57,-210.31"/>
</a>
</g>
</g>
<!-- Node26 -->
<g id="Node000026" class="node">
<title>Node26</title>
<g id="a_Node000026"><a xlink:href="../../d2/d33/Time_8h.html" target="_top" xlink:title=" ">
<polygon fill="white" stroke="#666666" points="961.02,-206 891.77,-206 891.77,-186 961.02,-186 961.02,-206"/>
<text text-anchor="middle" x="926.39" y="-192.5" font-family="Helvetica,sans-Serif" font-size="10.00">carla/Time.h</text>
</a>
</g>
</g>
<!-- Node1&#45;&gt;Node26 -->
<g id="edge38_Node000001_Node000026" class="edge">
<title>Node1&#45;&gt;Node26</title>
<g id="a_edge38_Node000001_Node000026"><a xlink:title=" ">
<path fill="none" stroke="#63b8ff" d="M926.39,-247.62C926.39,-239.48 926.39,-227.39 926.39,-217.07"/>
<polygon fill="#63b8ff" stroke="#63b8ff" points="929.89,-217.11 926.39,-207.11 922.89,-217.11 929.89,-217.11"/>
</a>
</g>
</g>
<!-- Node29 -->
<g id="Node000029" class="node">
<title>Node29</title>
<g id="a_Node000029"><a xlink:title=" ">
<polygon fill="#e0e0e0" stroke="#999999" points="1244.39,-206 1186.39,-206 1186.39,-186 1244.39,-186 1244.39,-206"/>
<text text-anchor="middle" x="1215.39" y="-192.5" font-family="Helvetica,sans-Serif" font-size="10.00">exception</text>
</a>
</g>
</g>
<!-- Node1&#45;&gt;Node29 -->
<g id="edge42_Node000001_Node000029" class="edge">
<title>Node1&#45;&gt;Node29</title>
<g id="a_edge42_Node000001_Node000029"><a xlink:title=" ">
<path fill="none" stroke="#63b8ff" d="M978.26,-249.9C1028.4,-242.47 1106.28,-229.47 1172.39,-212 1175,-211.31 1177.68,-210.54 1180.36,-209.72"/>
<polygon fill="#63b8ff" stroke="#63b8ff" points="1181.16,-212.81 1189.58,-206.39 1178.99,-206.16 1181.16,-212.81"/>
</a>
</g>
</g>
<!-- Node3 -->
<g id="Node000003" class="node">
<title>Node3</title>
<g id="a_Node000003"><a xlink:href="../../d2/dda/carla_2Buffer_8h.html" target="_top" xlink:title=" ">
<polygon fill="white" stroke="#666666" points="795.89,-138 722.89,-138 722.89,-118 795.89,-118 795.89,-138"/>
<text text-anchor="middle" x="759.39" y="-124.5" font-family="Helvetica,sans-Serif" font-size="10.00">carla/Buffer.h</text>
</a>
</g>
</g>
<!-- Node2&#45;&gt;Node3 -->
<g id="edge2_Node000002_Node000003" class="edge">
<title>Node2&#45;&gt;Node3</title>
<g id="a_edge2_Node000002_Node000003"><a xlink:title=" ">
<path fill="none" stroke="#63b8ff" d="M809.08,-185.54C800.12,-175.35 785.67,-158.9 774.65,-146.37"/>
<polygon fill="#63b8ff" stroke="#63b8ff" points="776.92,-144.64 767.69,-139.44 771.66,-149.26 776.92,-144.64"/>
</a>
</g>
</g>
<!-- Node14 -->
<g id="Node000014" class="node">
<title>Node14</title>
<g id="a_Node000014"><a xlink:title=" ">
<polygon fill="#e0e0e0" stroke="#999999" points="1008.02,-76 956.77,-76 956.77,-56 1008.02,-56 1008.02,-76"/>
<text text-anchor="middle" x="982.39" y="-62.5" font-family="Helvetica,sans-Serif" font-size="10.00">memory</text>
</a>
</g>
</g>
<!-- Node2&#45;&gt;Node14 -->
<g id="edge30_Node000002_Node000014" class="edge">
<title>Node2&#45;&gt;Node14</title>
<g id="a_edge30_Node000002_Node000014"><a xlink:title=" ">
<path fill="none" stroke="#63b8ff" d="M817.64,-185.63C818.61,-168.61 823.09,-132.49 843.39,-112 850.81,-104.51 907.29,-87.75 945.93,-76.93"/>
<polygon fill="#63b8ff" stroke="#63b8ff" points="946.6,-80.1 955.3,-74.05 944.73,-73.36 946.6,-80.1"/>
</a>
</g>
</g>
<!-- Node16 -->
<g id="Node000016" class="node">
<title>Node16</title>
<g id="a_Node000016"><a xlink:href="../../de/dad/ConcurrentQueue_8h.html" target="_top" xlink:title=" ">
<polygon fill="white" stroke="#666666" points="507.64,-138 349.14,-138 349.14,-118 507.64,-118 507.64,-138"/>
<text text-anchor="middle" x="428.39" y="-124.5" font-family="Helvetica,sans-Serif" font-size="10.00">moodycamel/ConcurrentQueue.h</text>
</a>
</g>
</g>
<!-- Node2&#45;&gt;Node16 -->
<g id="edge16_Node000002_Node000016" class="edge">
<title>Node2&#45;&gt;Node16</title>
<g id="a_edge16_Node000002_Node000016"><a xlink:title=" ">
<path fill="none" stroke="#63b8ff" d="M782.58,-185.56C774.66,-183.58 766.26,-181.6 758.39,-180 675.93,-163.19 580.88,-149.04 514.03,-139.95"/>
<polygon fill="#63b8ff" stroke="#63b8ff" points="514.51,-136.34 504.13,-138.47 513.57,-143.28 514.51,-136.34"/>
</a>
</g>
</g>
<!-- Node3&#45;&gt;Node4 -->
<g id="edge3_Node000003_Node000004" class="edge">
<title>Node3&#45;&gt;Node4</title>
<g id="a_edge3_Node000003_Node000004"><a xlink:title=" ">
<path fill="none" stroke="#63b8ff" d="M796.18,-119.76C851.03,-108.97 954.34,-88.65 1015.49,-76.62"/>
<polygon fill="#63b8ff" stroke="#63b8ff" points="1015.9,-79.91 1025.03,-74.55 1014.54,-73.04 1015.9,-79.91"/>
</a>
</g>
</g>
<!-- Node3&#45;&gt;Node5 -->
<g id="edge7_Node000003_Node000005" class="edge">
<title>Node3&#45;&gt;Node5</title>
<g id="a_edge7_Node000003_Node000005"><a xlink:title=" ">
<path fill="none" stroke="#63b8ff" d="M768.13,-117.66C780.8,-103 801.11,-74.34 785.39,-56 756.01,-21.7 628.25,-13.33 552.45,-11.42"/>
<polygon fill="#63b8ff" stroke="#63b8ff" points="552.74,-7.9 542.67,-11.18 552.59,-14.9 552.74,-7.9"/>
</a>
</g>
</g>
<!-- Node3&#45;&gt;Node8 -->
<g id="edge8_Node000003_Node000008" class="edge">
<title>Node3&#45;&gt;Node8</title>
<g id="a_edge8_Node000003_Node000008"><a xlink:title=" ">
<path fill="none" stroke="#63b8ff" d="M796.13,-120.08C810.81,-117.41 827.88,-114.43 843.39,-112 958.77,-93.96 990.87,-94.6 1109.36,-76.26"/>
<polygon fill="#63b8ff" stroke="#63b8ff" points="1109.6,-79.61 1118.94,-74.61 1108.52,-72.69 1109.6,-79.61"/>
</a>
</g>
</g>
<!-- Node11 -->
<g id="Node000011" class="node">
<title>Node11</title>
<g id="a_Node000011"><a xlink:title=" ">
<polygon fill="#e0e0e0" stroke="#999999" points="938.39,-76 832.39,-76 832.39,-56 938.39,-56 938.39,-76"/>
<text text-anchor="middle" x="885.39" y="-62.5" font-family="Helvetica,sans-Serif" font-size="10.00">boost/asio/buffer.hpp</text>
</a>
</g>
</g>
<!-- Node3&#45;&gt;Node11 -->
<g id="edge11_Node000003_Node000011" class="edge">
<title>Node3&#45;&gt;Node11</title>
<g id="a_edge11_Node000003_Node000011"><a xlink:title=" ">
<path fill="none" stroke="#63b8ff" d="M779.08,-117.62C799.7,-107.81 832.32,-92.27 855.99,-81"/>
<polygon fill="#63b8ff" stroke="#63b8ff" points="857.32,-83.77 864.84,-76.31 854.31,-77.45 857.32,-83.77"/>
</a>
</g>
</g>
<!-- Node12 -->
<g id="Node000012" class="node">
<title>Node12</title>
<g id="a_Node000012"><a xlink:title=" ">
<polygon fill="#e0e0e0" stroke="#999999" points="638.02,-76 592.77,-76 592.77,-56 638.02,-56 638.02,-76"/>
<text text-anchor="middle" x="615.39" y="-62.5" font-family="Helvetica,sans-Serif" font-size="10.00">cstdint</text>
</a>
</g>
</g>
<!-- Node3&#45;&gt;Node12 -->
<g id="edge12_Node000003_Node000012" class="edge">
<title>Node3&#45;&gt;Node12</title>
<g id="a_edge12_Node000003_Node000012"><a xlink:title=" ">
<path fill="none" stroke="#63b8ff" d="M736.89,-117.62C712.9,-107.63 674.71,-91.71 647.55,-80.4"/>
<polygon fill="#63b8ff" stroke="#63b8ff" points="649.31,-76.92 638.73,-76.31 646.62,-83.39 649.31,-76.92"/>
</a>
</g>
</g>
<!-- Node13 -->
<g id="Node000013" class="node">
<title>Node13</title>
<g id="a_Node000013"><a xlink:title=" ">
<polygon fill="#e0e0e0" stroke="#999999" points="776.02,-76 736.77,-76 736.77,-56 776.02,-56 776.02,-76"/>
<text text-anchor="middle" x="756.39" y="-62.5" font-family="Helvetica,sans-Serif" font-size="10.00">limits</text>
</a>
</g>
</g>
<!-- Node3&#45;&gt;Node13 -->
<g id="edge13_Node000003_Node000013" class="edge">
<title>Node3&#45;&gt;Node13</title>
<g id="a_edge13_Node000003_Node000013"><a xlink:title=" ">
<path fill="none" stroke="#63b8ff" d="M758.92,-117.62C758.51,-109.48 757.91,-97.39 757.39,-87.07"/>
<polygon fill="#63b8ff" stroke="#63b8ff" points="760.84,-86.93 756.85,-77.11 753.85,-87.28 760.84,-86.93"/>
</a>
</g>
</g>
<!-- Node3&#45;&gt;Node14 -->
<g id="edge14_Node000003_Node000014" class="edge">
<title>Node3&#45;&gt;Node14</title>
<g id="a_edge14_Node000003_Node000014"><a xlink:title=" ">
<path fill="none" stroke="#63b8ff" d="M790.91,-117.57C797.34,-115.69 804.08,-113.75 810.39,-112 835.7,-104.97 903.37,-87.4 945.9,-76.41"/>
<polygon fill="#63b8ff" stroke="#63b8ff" points="946.58,-79.59 955.39,-73.7 944.83,-72.81 946.58,-79.59"/>
</a>
</g>
</g>
<!-- Node15 -->
<g id="Node000015" class="node">
<title>Node15</title>
<g id="a_Node000015"><a xlink:title=" ">
<polygon fill="#e0e0e0" stroke="#999999" points="718.27,-76 656.52,-76 656.52,-56 718.27,-56 718.27,-76"/>
<text text-anchor="middle" x="687.39" y="-62.5" font-family="Helvetica,sans-Serif" font-size="10.00">type_traits</text>
</a>
</g>
</g>
<!-- Node3&#45;&gt;Node15 -->
<g id="edge15_Node000003_Node000015" class="edge">
<title>Node3&#45;&gt;Node15</title>
<g id="a_edge15_Node000003_Node000015"><a xlink:title=" ">
<path fill="none" stroke="#63b8ff" d="M748.14,-117.62C737.09,-108.41 720,-94.17 706.76,-83.14"/>
<polygon fill="#63b8ff" stroke="#63b8ff" points="709.25,-79.83 699.33,-76.11 704.77,-85.2 709.25,-79.83"/>
</a>
</g>
</g>
<!-- Node4&#45;&gt;Node5 -->
<g id="edge4_Node000004_Node000005" class="edge">
<title>Node4&#45;&gt;Node5</title>
<g id="a_edge4_Node000004_Node000005"><a xlink:title=" ">
<path fill="none" stroke="#63b8ff" d="M1025.97,-57.31C1023.07,-56.83 1020.19,-56.39 1017.39,-56 849.25,-32.72 648.87,-19.47 552.59,-13.99"/>
<polygon fill="#63b8ff" stroke="#63b8ff" points="552.84,-10.45 542.66,-13.38 552.44,-17.44 552.84,-10.45"/>
</a>
</g>
</g>
<!-- Node6 -->
<g id="Node000006" class="node">
<title>Node6</title>
<g id="a_Node000006"><a xlink:title=" ">
<polygon fill="#e0e0e0" stroke="#999999" points="1093.77,-20 1035.02,-20 1035.02,0 1093.77,0 1093.77,-20"/>
<text text-anchor="middle" x="1064.39" y="-6.5" font-family="Helvetica,sans-Serif" font-size="10.00">stdexcept</text>
</a>
</g>
</g>
<!-- Node4&#45;&gt;Node6 -->
<g id="edge5_Node000004_Node000006" class="edge">
<title>Node4&#45;&gt;Node6</title>
<g id="a_edge5_Node000004_Node000006"><a xlink:title=" ">
<path fill="none" stroke="#63b8ff" d="M1064.39,-55.59C1064.39,-48.86 1064.39,-39.53 1064.39,-31.15"/>
<polygon fill="#63b8ff" stroke="#63b8ff" points="1067.89,-31.3 1064.39,-21.3 1060.89,-31.3 1067.89,-31.3"/>
</a>
</g>
</g>
<!-- Node7 -->
<g id="Node000007" class="node">
<title>Node7</title>
<g id="a_Node000007"><a xlink:title=" ">
<polygon fill="#e0e0e0" stroke="#999999" points="802.52,-20 754.27,-20 754.27,0 802.52,0 802.52,-20"/>
<text text-anchor="middle" x="778.39" y="-6.5" font-family="Helvetica,sans-Serif" font-size="10.00">cassert</text>
</a>
</g>
</g>
<!-- Node4&#45;&gt;Node7 -->
<g id="edge6_Node000004_Node000007" class="edge">
<title>Node4&#45;&gt;Node7</title>
<g id="a_edge6_Node000004_Node000007"><a xlink:title=" ">
<path fill="none" stroke="#63b8ff" d="M1025.92,-57.62C1023.03,-57.07 1020.17,-56.53 1017.39,-56 944.96,-42.25 860.15,-26.32 813.55,-17.58"/>
<polygon fill="#63b8ff" stroke="#63b8ff" points="814.3,-13.98 803.82,-15.57 813.01,-20.86 814.3,-13.98"/>
</a>
</g>
</g>
<!-- Node9 -->
<g id="Node000009" class="node">
<title>Node9</title>
<g id="a_Node000009"><a xlink:href="../../d9/dd0/Platform_8h.html" target="_top" xlink:title=" ">
<polygon fill="white" stroke="#666666" points="1199.52,-20 1115.27,-20 1115.27,0 1199.52,0 1199.52,-20"/>
<text text-anchor="middle" x="1157.39" y="-6.5" font-family="Helvetica,sans-Serif" font-size="10.00">carla/Platform.h</text>
</a>
</g>
</g>
<!-- Node8&#45;&gt;Node9 -->
<g id="edge9_Node000008_Node000009" class="edge">
<title>Node8&#45;&gt;Node9</title>
<g id="a_edge9_Node000008_Node000009"><a xlink:title=" ">
<path fill="none" stroke="#63b8ff" d="M1160.69,-55.59C1160.19,-48.86 1159.5,-39.53 1158.88,-31.15"/>
<polygon fill="#63b8ff" stroke="#63b8ff" points="1162.31,-31.01 1158.08,-21.3 1155.33,-31.53 1162.31,-31.01"/>
</a>
</g>
</g>
<!-- Node10 -->
<g id="Node000010" class="node">
<title>Node10</title>
<g id="a_Node000010"><a xlink:title=" ">
<polygon fill="#e0e0e0" stroke="#999999" points="1271.14,-20 1217.64,-20 1217.64,0 1271.14,0 1271.14,-20"/>
<text text-anchor="middle" x="1244.39" y="-6.5" font-family="Helvetica,sans-Serif" font-size="10.00">iostream</text>
</a>
</g>
</g>
<!-- Node8&#45;&gt;Node10 -->
<g id="edge10_Node000008_Node000010" class="edge">
<title>Node8&#45;&gt;Node10</title>
<g id="a_edge10_Node000008_Node000010"><a xlink:title=" ">
<path fill="none" stroke="#63b8ff" d="M1175.85,-55.59C1188.27,-47.51 1206.41,-35.71 1220.91,-26.27"/>
<polygon fill="#63b8ff" stroke="#63b8ff" points="1222.35,-28.87 1228.82,-20.48 1218.53,-23 1222.35,-28.87"/>
</a>
</g>
</g>
<!-- Node16&#45;&gt;Node5 -->
<g id="edge29_Node000016_Node000005" class="edge">
<title>Node16&#45;&gt;Node5</title>
<g id="a_edge29_Node000016_Node000005"><a xlink:title=" ">
<path fill="none" stroke="#63b8ff" d="M348.96,-125.88C263.37,-122.8 135.24,-112.09 104.39,-76 98.61,-69.24 98.48,-62.63 104.39,-56 126.22,-31.52 335.25,-18.45 438.4,-13.44"/>
<polygon fill="#63b8ff" stroke="#63b8ff" points="438.41,-16.9 448.23,-12.93 438.08,-9.9 438.41,-16.9"/>
</a>
</g>
</g>
<!-- Node16&#45;&gt;Node7 -->
<g id="edge18_Node000016_Node000007" class="edge">
<title>Node16&#45;&gt;Node7</title>
<g id="a_edge18_Node000016_Node000007"><a xlink:title=" ">
<path fill="none" stroke="#63b8ff" d="M451.48,-117.52C475.25,-107.64 513.23,-91.45 545.39,-76 562.59,-67.74 565.5,-62.65 583.39,-56 637.46,-35.92 703.4,-22.96 743.08,-16.33"/>
<polygon fill="#63b8ff" stroke="#63b8ff" points="743.48,-19.65 752.79,-14.59 742.36,-12.74 743.48,-19.65"/>
</a>
</g>
</g>
<!-- Node16&#45;&gt;Node12 -->
<g id="edge20_Node000016_Node000012" class="edge">
<title>Node16&#45;&gt;Node12</title>
<g id="a_edge20_Node000016_Node000012"><a xlink:title=" ">
<path fill="none" stroke="#63b8ff" d="M457.61,-117.62C491.31,-106.81 546.6,-89.07 581.98,-77.72"/>
<polygon fill="#63b8ff" stroke="#63b8ff" points="582.82,-80.81 591.27,-74.42 580.68,-74.14 582.82,-80.81"/>
</a>
</g>
</g>
<!-- Node16&#45;&gt;Node13 -->
<g id="edge25_Node000016_Node000013" class="edge">
<title>Node16&#45;&gt;Node13</title>
<g id="a_edge25_Node000016_Node000013"><a xlink:title=" ">
<path fill="none" stroke="#63b8ff" d="M499.91,-117.51C558.32,-109.14 643.14,-95.59 725.91,-76.08"/>
<polygon fill="#63b8ff" stroke="#63b8ff" points="726.61,-79.28 735.52,-73.55 724.98,-72.47 726.61,-79.28"/>
</a>
</g>
</g>
<!-- Node16&#45;&gt;Node15 -->
<g id="edge22_Node000016_Node000015" class="edge">
<title>Node16&#45;&gt;Node15</title>
<g id="a_edge22_Node000016_Node000015"><a xlink:title=" ">
<path fill="none" stroke="#63b8ff" d="M469.14,-117.56C517.35,-106.39 597.18,-87.9 645.76,-76.64"/>
<polygon fill="#63b8ff" stroke="#63b8ff" points="646.27,-79.89 655.22,-74.22 644.69,-73.07 646.27,-79.89"/>
</a>
</g>
</g>
<!-- Node17 -->
<g id="Node000017" class="node">
<title>Node17</title>
<g id="a_Node000017"><a xlink:title=" ">
<polygon fill="#e0e0e0" stroke="#999999" points="159.02,-76 113.77,-76 113.77,-56 159.02,-56 159.02,-76"/>
<text text-anchor="middle" x="136.39" y="-62.5" font-family="Helvetica,sans-Serif" font-size="10.00">atomic</text>
</a>
</g>
</g>
<!-- Node16&#45;&gt;Node17 -->
<g id="edge17_Node000016_Node000017" class="edge">
<title>Node16&#45;&gt;Node17</title>
<g id="a_edge17_Node000016_Node000017"><a xlink:title=" ">
<path fill="none" stroke="#63b8ff" d="M372.33,-117.54C321.64,-108.66 244.79,-94.35 169.9,-76.46"/>
<polygon fill="#63b8ff" stroke="#63b8ff" points="170.89,-72.86 160.35,-73.91 169.25,-79.66 170.89,-72.86"/>
</a>
</g>
</g>
<!-- Node18 -->
<g id="Node000018" class="node">
<title>Node18</title>
<g id="a_Node000018"><a xlink:title=" ">
<polygon fill="#e0e0e0" stroke="#999999" points="224.14,-76 176.64,-76 176.64,-56 224.14,-56 224.14,-76"/>
<text text-anchor="middle" x="200.39" y="-62.5" font-family="Helvetica,sans-Serif" font-size="10.00">cstddef</text>
</a>
</g>
</g>
<!-- Node16&#45;&gt;Node18 -->
<g id="edge19_Node000016_Node000018" class="edge">
<title>Node16&#45;&gt;Node18</title>
<g id="a_edge19_Node000016_Node000018"><a xlink:title=" ">
<path fill="none" stroke="#63b8ff" d="M391.7,-117.53C354.63,-107.93 295.42,-92.52 235.02,-76.42"/>
<polygon fill="#63b8ff" stroke="#63b8ff" points="236.1,-72.81 225.53,-73.62 234.29,-79.58 236.1,-72.81"/>
</a>
</g>
</g>
<!-- Node19 -->
<g id="Node000019" class="node">
<title>Node19</title>
<g id="a_Node000019"><a xlink:title=" ">
<polygon fill="#e0e0e0" stroke="#999999" points="286.64,-76 242.14,-76 242.14,-56 286.64,-56 286.64,-76"/>
<text text-anchor="middle" x="264.39" y="-62.5" font-family="Helvetica,sans-Serif" font-size="10.00">cstdlib</text>
</a>
</g>
</g>
<!-- Node16&#45;&gt;Node19 -->
<g id="edge21_Node000016_Node000019" class="edge">
<title>Node16&#45;&gt;Node19</title>
<g id="a_edge21_Node000016_Node000019"><a xlink:title=" ">
<path fill="none" stroke="#63b8ff" d="M402.77,-117.62C374.32,-107.22 328.33,-90.39 297.25,-79.02"/>
<polygon fill="#63b8ff" stroke="#63b8ff" points="298.53,-75.4 287.94,-75.25 296.12,-81.97 298.53,-75.4"/>
</a>
</g>
</g>
<!-- Node20 -->
<g id="Node000020" class="node">
<title>Node20</title>
<g id="a_Node000020"><a xlink:title=" ">
<polygon fill="#e0e0e0" stroke="#999999" points="360.27,-76 304.52,-76 304.52,-56 360.27,-56 360.27,-76"/>
<text text-anchor="middle" x="332.39" y="-62.5" font-family="Helvetica,sans-Serif" font-size="10.00">algorithm</text>
</a>
</g>
</g>
<!-- Node16&#45;&gt;Node20 -->
<g id="edge23_Node000016_Node000020" class="edge">
<title>Node16&#45;&gt;Node20</title>
<g id="a_edge23_Node000016_Node000020"><a xlink:title=" ">
<path fill="none" stroke="#63b8ff" d="M413.39,-117.62C398.17,-108.11 374.38,-93.24 356.51,-82.08"/>
<polygon fill="#63b8ff" stroke="#63b8ff" points="358.62,-78.64 348.29,-76.31 354.91,-84.58 358.62,-78.64"/>
</a>
</g>
</g>
<!-- Node21 -->
<g id="Node000021" class="node">
<title>Node21</title>
<g id="a_Node000021"><a xlink:title=" ">
<polygon fill="#e0e0e0" stroke="#999999" points="418.02,-76 378.77,-76 378.77,-56 418.02,-56 418.02,-76"/>
<text text-anchor="middle" x="398.39" y="-62.5" font-family="Helvetica,sans-Serif" font-size="10.00">utility</text>
</a>
</g>
</g>
<!-- Node16&#45;&gt;Node21 -->
<g id="edge24_Node000016_Node000021" class="edge">
<title>Node16&#45;&gt;Node21</title>
<g id="a_edge24_Node000016_Node000021"><a xlink:title=" ">
<path fill="none" stroke="#63b8ff" d="M423.7,-117.62C419.45,-109.12 413.06,-96.33 407.76,-85.74"/>
<polygon fill="#63b8ff" stroke="#63b8ff" points="410.55,-84.49 402.95,-77.11 404.29,-87.62 410.55,-84.49"/>
</a>
</g>
</g>
<!-- Node22 -->
<g id="Node000022" class="node">
<title>Node22</title>
<g id="a_Node000022"><a xlink:title=" ">
<polygon fill="#e0e0e0" stroke="#999999" points="480.64,-76 436.14,-76 436.14,-56 480.64,-56 480.64,-76"/>
<text text-anchor="middle" x="458.39" y="-62.5" font-family="Helvetica,sans-Serif" font-size="10.00">climits</text>
</a>
</g>
</g>
<!-- Node16&#45;&gt;Node22 -->
<g id="edge26_Node000016_Node000022" class="edge">
<title>Node16&#45;&gt;Node22</title>
<g id="a_edge26_Node000016_Node000022"><a xlink:title=" ">
<path fill="none" stroke="#63b8ff" d="M433.08,-117.62C437.33,-109.12 443.72,-96.33 449.02,-85.74"/>
<polygon fill="#63b8ff" stroke="#63b8ff" points="452.49,-87.62 453.83,-77.11 446.23,-84.49 452.49,-87.62"/>
</a>
</g>
</g>
<!-- Node23 -->
<g id="Node000023" class="node">
<title>Node23</title>
<g id="a_Node000023"><a xlink:title=" ">
<polygon fill="#e0e0e0" stroke="#999999" points="536.27,-76 498.52,-76 498.52,-56 536.27,-56 536.27,-76"/>
<text text-anchor="middle" x="517.39" y="-62.5" font-family="Helvetica,sans-Serif" font-size="10.00">array</text>
</a>
</g>
</g>
<!-- Node16&#45;&gt;Node23 -->
<g id="edge27_Node000016_Node000023" class="edge">
<title>Node16&#45;&gt;Node23</title>
<g id="a_edge27_Node000016_Node000023"><a xlink:title=" ">
<path fill="none" stroke="#63b8ff" d="M442.3,-117.62C456.27,-108.2 478.06,-93.52 494.57,-82.39"/>
<polygon fill="#63b8ff" stroke="#63b8ff" points="496.25,-84.8 502.58,-76.31 492.33,-79 496.25,-84.8"/>
</a>
</g>
</g>
<!-- Node24 -->
<g id="Node000024" class="node">
<title>Node24</title>
<g id="a_Node000024"><a xlink:title=" ">
<polygon fill="#e0e0e0" stroke="#999999" points="56.89,-76 13.89,-76 13.89,-56 56.89,-56 56.89,-76"/>
<text text-anchor="middle" x="35.39" y="-62.5" font-family="Helvetica,sans-Serif" font-size="10.00">thread</text>
</a>
</g>
</g>
<!-- Node16&#45;&gt;Node24 -->
<g id="edge28_Node000016_Node000024" class="edge">
<title>Node16&#45;&gt;Node24</title>
<g id="a_edge28_Node000016_Node000024"><a xlink:title=" ">
<path fill="none" stroke="#63b8ff" d="M348.95,-118.03C276.34,-109.27 166.16,-94.56 71.39,-76 70.07,-75.74 68.74,-75.47 67.38,-75.18"/>
<polygon fill="#63b8ff" stroke="#63b8ff" points="68.54,-71.62 58.01,-72.79 66.97,-78.44 68.54,-71.62"/>
</a>
</g>
</g>
<!-- Node25&#45;&gt;Node3 -->
<g id="edge35_Node000025_Node000003" class="edge">
<title>Node25&#45;&gt;Node3</title>
<g id="a_edge35_Node000025_Node000003"><a xlink:title=" ">
<path fill="none" stroke="#63b8ff" d="M710.23,-179.69C720.02,-169.6 732.86,-156.36 742.95,-145.95"/>
<polygon fill="#63b8ff" stroke="#63b8ff" points="744.91,-148.93 749.36,-139.32 739.88,-144.06 744.91,-148.93"/>
</a>
</g>
</g>
<!-- Node25&#45;&gt;Node12 -->
<g id="edge36_Node000025_Node000012" class="edge">
<title>Node25&#45;&gt;Node12</title>
<g id="a_edge36_Node000025_Node000012"><a xlink:title=" ">
<path fill="none" stroke="#63b8ff" d="M685.74,-179.56C670.98,-155.95 642.86,-110.95 627.01,-85.59"/>
<polygon fill="#63b8ff" stroke="#63b8ff" points="629.49,-83.95 621.22,-77.33 623.55,-87.66 629.49,-83.95"/>
</a>
</g>
</g>
<!-- Node25&#45;&gt;Node15 -->
<g id="edge37_Node000025_Node000015" class="edge">
<title>Node25&#45;&gt;Node15</title>
<g id="a_edge37_Node000025_Node000015"><a xlink:title=" ">
<path fill="none" stroke="#63b8ff" d="M694.43,-179.56C692.98,-156.37 690.24,-112.54 688.64,-86.96"/>
<polygon fill="#63b8ff" stroke="#63b8ff" points="692.09,-87.09 687.97,-77.33 685.1,-87.53 692.09,-87.09"/>
</a>
</g>
</g>
<!-- Node26&#45;&gt;Node4 -->
<g id="edge39_Node000026_Node000004" class="edge">
<title>Node26&#45;&gt;Node4</title>
<g id="a_edge39_Node000026_Node000004"><a xlink:title=" ">
<path fill="none" stroke="#63b8ff" d="M925.85,-185.52C925.41,-168.63 926.93,-133.17 945.39,-112 955.41,-100.51 989.23,-88.33 1018.26,-79.54"/>
<polygon fill="#63b8ff" stroke="#63b8ff" points="1019.09,-82.65 1027.69,-76.46 1017.11,-75.93 1019.09,-82.65"/>
</a>
</g>
</g>
<!-- Node27 -->
<g id="Node000027" class="node">
<title>Node27</title>
<g id="a_Node000027"><a xlink:title=" ">
<polygon fill="#e0e0e0" stroke="#999999" points="1092.52,-144 954.27,-144 954.27,-112 1092.52,-112 1092.52,-144"/>
<text text-anchor="start" x="962.27" y="-130.5" font-family="Helvetica,sans-Serif" font-size="10.00">boost/date_time/posix</text>
<text text-anchor="middle" x="1023.39" y="-118.5" font-family="Helvetica,sans-Serif" font-size="10.00">_time/posix_time_types.hpp</text>
</a>
</g>
</g>
<!-- Node26&#45;&gt;Node27 -->
<g id="edge40_Node000026_Node000027" class="edge">
<title>Node26&#45;&gt;Node27</title>
<g id="a_edge40_Node000026_Node000027"><a xlink:title=" ">
<path fill="none" stroke="#63b8ff" d="M940.29,-185.54C953.76,-176.38 974.67,-162.15 992.14,-150.27"/>
<polygon fill="#63b8ff" stroke="#63b8ff" points="993.6,-152.82 999.9,-144.3 989.67,-147.03 993.6,-152.82"/>
</a>
</g>
</g>
<!-- Node28 -->
<g id="Node000028" class="node">
<title>Node28</title>
<g id="a_Node000028"><a xlink:title=" ">
<polygon fill="#e0e0e0" stroke="#999999" points="898.02,-138 852.77,-138 852.77,-118 898.02,-118 898.02,-138"/>
<text text-anchor="middle" x="875.39" y="-124.5" font-family="Helvetica,sans-Serif" font-size="10.00">chrono</text>
</a>
</g>
</g>
<!-- Node26&#45;&gt;Node28 -->
<g id="edge41_Node000026_Node000028" class="edge">
<title>Node26&#45;&gt;Node28</title>
<g id="a_edge41_Node000026_Node000028"><a xlink:title=" ">
<path fill="none" stroke="#63b8ff" d="M919.08,-185.54C911.36,-175.55 898.98,-159.53 889.37,-147.09"/>
<polygon fill="#63b8ff" stroke="#63b8ff" points="891.57,-145.21 882.68,-139.44 886.03,-149.49 891.57,-145.21"/>
</a>
</g>
</g>
</g>
</svg>
