<?xml version="1.0" encoding="UTF-8" standalone="no"?>
<!DOCTYPE svg PUBLIC "-//W3C//DTD SVG 1.1//EN"
 "http://www.w3.org/Graphics/SVG/1.1/DTD/svg11.dtd">
<!-- Generated by graphviz version 8.1.0 (20230707.0739)
 -->
<!-- Title: NavSatStatus.h Pages: 1 -->
<svg width="407pt" height="196pt"
 viewBox="0.00 0.00 406.88 196.00" xmlns="http://www.w3.org/2000/svg" xmlns:xlink="http://www.w3.org/1999/xlink">
<g id="graph0" class="graph" transform="scale(1 1) rotate(0) translate(4 192)">
<title>NavSatStatus.h</title>
<!-- Node1 -->
<g id="Node000001" class="node">
<title>Node1</title>
<g id="a_Node000001"><a xlink:title=" ">
<polygon fill="#999999" stroke="#666666" points="203.25,-188 119.75,-188 119.75,-168 203.25,-168 203.25,-188"/>
<text text-anchor="middle" x="161.5" y="-174.5" font-family="Helvetica,sans-Serif" font-size="10.00">NavSatStatus.h</text>
</a>
</g>
</g>
<!-- Node2 -->
<g id="Node000002" class="node">
<title>Node2</title>
<g id="a_Node000002"><a xlink:href="../../dc/d04/NavSatFix_8h.html" target="_top" xlink:title=" ">
<polygon fill="white" stroke="#666666" points="96.75,-132 28.25,-132 28.25,-112 96.75,-112 96.75,-132"/>
<text text-anchor="middle" x="62.5" y="-118.5" font-family="Helvetica,sans-Serif" font-size="10.00">NavSatFix.h</text>
</a>
</g>
</g>
<!-- Node1&#45;&gt;Node2 -->
<g id="edge1_Node000001_Node000002" class="edge">
<title>Node1&#45;&gt;Node2</title>
<g id="a_edge1_Node000001_Node000002"><a xlink:title=" ">
<path fill="none" stroke="#63b8ff" d="M134.64,-162.35C117.21,-152.84 95.02,-140.74 79.88,-132.48"/>
<polygon fill="#63b8ff" stroke="#63b8ff" points="132.8,-165.88 143.26,-167.59 136.15,-159.73 132.8,-165.88"/>
</a>
</g>
</g>
<!-- Node7 -->
<g id="Node000007" class="node">
<title>Node7</title>
<g id="a_Node000007"><a xlink:href="../../df/db8/NavSatStatus_8cpp.html" target="_top" xlink:title=" ">
<polygon fill="white" stroke="#666666" points="208.5,-132 114.5,-132 114.5,-112 208.5,-112 208.5,-132"/>
<text text-anchor="middle" x="161.5" y="-118.5" font-family="Helvetica,sans-Serif" font-size="10.00">NavSatStatus.cpp</text>
</a>
</g>
</g>
<!-- Node1&#45;&gt;Node7 -->
<g id="edge6_Node000001_Node000007" class="edge">
<title>Node1&#45;&gt;Node7</title>
<g id="a_edge6_Node000001_Node000007"><a xlink:title=" ">
<path fill="none" stroke="#63b8ff" d="M161.5,-156.71C161.5,-148.32 161.5,-139.01 161.5,-132.3"/>
<polygon fill="#63b8ff" stroke="#63b8ff" points="158,-156.59 161.5,-166.59 165,-156.59 158,-156.59"/>
</a>
</g>
</g>
<!-- Node8 -->
<g id="Node000008" class="node">
<title>Node8</title>
<g id="a_Node000008"><a xlink:href="../../d9/d1b/NavSatStatusPubSubTypes_8h.html" target="_top" xlink:title=" ">
<polygon fill="white" stroke="#666666" points="370.62,-132 226.38,-132 226.38,-112 370.62,-112 370.62,-132"/>
<text text-anchor="middle" x="298.5" y="-118.5" font-family="Helvetica,sans-Serif" font-size="10.00">NavSatStatusPubSubTypes.h</text>
</a>
</g>
</g>
<!-- Node1&#45;&gt;Node8 -->
<g id="edge7_Node000001_Node000008" class="edge">
<title>Node1&#45;&gt;Node8</title>
<g id="a_edge7_Node000001_Node000008"><a xlink:title=" ">
<path fill="none" stroke="#63b8ff" d="M195.34,-163.66C219.9,-153.98 252.52,-141.12 274.45,-132.48"/>
<polygon fill="#63b8ff" stroke="#63b8ff" points="194.38,-160.67 186.36,-167.59 196.95,-167.18 194.38,-160.67"/>
</a>
</g>
</g>
<!-- Node3 -->
<g id="Node000003" class="node">
<title>Node3</title>
<g id="a_Node000003"><a xlink:href="../../d6/de8/NavSatFix_8cpp.html" target="_top" xlink:title=" ">
<polygon fill="white" stroke="#666666" points="79,-76 0,-76 0,-56 79,-56 79,-76"/>
<text text-anchor="middle" x="39.5" y="-62.5" font-family="Helvetica,sans-Serif" font-size="10.00">NavSatFix.cpp</text>
</a>
</g>
</g>
<!-- Node2&#45;&gt;Node3 -->
<g id="edge2_Node000002_Node000003" class="edge">
<title>Node2&#45;&gt;Node3</title>
<g id="a_edge2_Node000002_Node000003"><a xlink:title=" ">
<path fill="none" stroke="#63b8ff" d="M54.23,-101.58C50.56,-92.97 46.42,-83.24 43.46,-76.3"/>
<polygon fill="#63b8ff" stroke="#63b8ff" points="51.35,-102.77 58.49,-110.59 57.8,-100.02 51.35,-102.77"/>
</a>
</g>
</g>
<!-- Node4 -->
<g id="Node000004" class="node">
<title>Node4</title>
<g id="a_Node000004"><a xlink:href="../../d4/d34/NavSatFixPubSubTypes_8h.html" target="_top" xlink:title=" ">
<polygon fill="white" stroke="#666666" points="226.12,-76 96.88,-76 96.88,-56 226.12,-56 226.12,-76"/>
<text text-anchor="middle" x="161.5" y="-62.5" font-family="Helvetica,sans-Serif" font-size="10.00">NavSatFixPubSubTypes.h</text>
</a>
</g>
</g>
<!-- Node2&#45;&gt;Node4 -->
<g id="edge3_Node000002_Node000004" class="edge">
<title>Node2&#45;&gt;Node4</title>
<g id="a_edge3_Node000002_Node000004"><a xlink:title=" ">
<path fill="none" stroke="#63b8ff" d="M89.36,-106.35C106.79,-96.84 128.98,-84.74 144.12,-76.48"/>
<polygon fill="#63b8ff" stroke="#63b8ff" points="87.85,-103.73 80.74,-111.59 91.2,-109.88 87.85,-103.73"/>
</a>
</g>
</g>
<!-- Node5 -->
<g id="Node000005" class="node">
<title>Node5</title>
<g id="a_Node000005"><a xlink:href="../../d6/d5f/CarlaGNSSPublisher_8cpp.html" target="_top" xlink:title=" ">
<polygon fill="white" stroke="#666666" points="149.25,-20 23.75,-20 23.75,0 149.25,0 149.25,-20"/>
<text text-anchor="middle" x="86.5" y="-6.5" font-family="Helvetica,sans-Serif" font-size="10.00">CarlaGNSSPublisher.cpp</text>
</a>
</g>
</g>
<!-- Node4&#45;&gt;Node5 -->
<g id="edge4_Node000004_Node000005" class="edge">
<title>Node4&#45;&gt;Node5</title>
<g id="a_edge4_Node000004_Node000005"><a xlink:title=" ">
<path fill="none" stroke="#63b8ff" d="M139.65,-49.27C126.7,-39.94 110.71,-28.43 99.67,-20.48"/>
<polygon fill="#63b8ff" stroke="#63b8ff" points="137.28,-52.59 147.44,-55.59 141.37,-46.91 137.28,-52.59"/>
</a>
</g>
</g>
<!-- Node6 -->
<g id="Node000006" class="node">
<title>Node6</title>
<g id="a_Node000006"><a xlink:href="../../d4/de5/NavSatFixPubSubTypes_8cpp.html" target="_top" xlink:title=" ">
<polygon fill="white" stroke="#666666" points="307.38,-20 167.62,-20 167.62,0 307.38,0 307.38,-20"/>
<text text-anchor="middle" x="237.5" y="-6.5" font-family="Helvetica,sans-Serif" font-size="10.00">NavSatFixPubSubTypes.cpp</text>
</a>
</g>
</g>
<!-- Node4&#45;&gt;Node6 -->
<g id="edge5_Node000004_Node000006" class="edge">
<title>Node4&#45;&gt;Node6</title>
<g id="a_edge5_Node000004_Node000006"><a xlink:title=" ">
<path fill="none" stroke="#63b8ff" d="M183.64,-49.27C196.77,-39.94 212.97,-28.43 224.16,-20.48"/>
<polygon fill="#63b8ff" stroke="#63b8ff" points="181.86,-46.95 175.74,-55.59 185.92,-52.65 181.86,-46.95"/>
</a>
</g>
</g>
<!-- Node8&#45;&gt;Node4 -->
<g id="edge8_Node000008_Node000004" class="edge">
<title>Node8&#45;&gt;Node4</title>
<g id="a_edge8_Node000008_Node000004"><a xlink:title=" ">
<path fill="none" stroke="#63b8ff" d="M264.66,-107.66C240.1,-97.98 207.48,-85.12 185.55,-76.48"/>
<polygon fill="#63b8ff" stroke="#63b8ff" points="263.05,-111.18 273.64,-111.59 265.62,-104.67 263.05,-111.18"/>
</a>
</g>
</g>
<!-- Node9 -->
<g id="Node000009" class="node">
<title>Node9</title>
<g id="a_Node000009"><a xlink:href="../../db/df8/NavSatStatusPubSubTypes_8cpp.html" target="_top" xlink:title=" ">
<polygon fill="white" stroke="#666666" points="398.88,-76 244.12,-76 244.12,-56 398.88,-56 398.88,-76"/>
<text text-anchor="middle" x="321.5" y="-62.5" font-family="Helvetica,sans-Serif" font-size="10.00">NavSatStatusPubSubTypes.cpp</text>
</a>
</g>
</g>
<!-- Node8&#45;&gt;Node9 -->
<g id="edge9_Node000008_Node000009" class="edge">
<title>Node8&#45;&gt;Node9</title>
<g id="a_edge9_Node000008_Node000009"><a xlink:title=" ">
<path fill="none" stroke="#63b8ff" d="M306.77,-101.58C310.44,-92.97 314.58,-83.24 317.54,-76.3"/>
<polygon fill="#63b8ff" stroke="#63b8ff" points="303.2,-100.02 302.51,-110.59 309.65,-102.77 303.2,-100.02"/>
</a>
</g>
</g>
</g>
</svg>
