<?xml version="1.0" encoding="UTF-8" standalone="no"?>
<!DOCTYPE svg PUBLIC "-//W3C//DTD SVG 1.1//EN"
 "http://www.w3.org/Graphics/SVG/1.1/DTD/svg11.dtd">
<!-- Generated by graphviz version 8.1.0 (20230707.0739)
 -->
<!-- Title: pugi::xpath_variable_set::_swap Pages: 1 -->
<svg width="404pt" height="90pt"
 viewBox="0.00 0.00 404.00 90.00" xmlns="http://www.w3.org/2000/svg" xmlns:xlink="http://www.w3.org/1999/xlink">
<g id="graph0" class="graph" transform="scale(1 1) rotate(0) translate(4 86)">
<title>pugi::xpath_variable_set::_swap</title>
<!-- Node1 -->
<g id="Node000001" class="node">
<title>Node1</title>
<g id="a_Node000001"><a xlink:title=" ">
<polygon fill="#999999" stroke="#666666" points="396,-57 294.5,-57 294.5,-25 396,-25 396,-57"/>
<text text-anchor="start" x="302.5" y="-43.5" font-family="Helvetica,sans-Serif" font-size="10.00">pugi::xpath_variable</text>
<text text-anchor="middle" x="345.25" y="-31.5" font-family="Helvetica,sans-Serif" font-size="10.00">_set::_swap</text>
</a>
</g>
</g>
<!-- Node2 -->
<g id="Node000002" class="node">
<title>Node2</title>
<g id="a_Node000002"><a xlink:href="../../de/dfa/classpugi_1_1xpath__variable__set.html#a7313c2c7296f265361e13b86190338f4" target="_top" xlink:title=" ">
<polygon fill="white" stroke="#666666" points="258.5,-57 157,-57 157,-25 258.5,-25 258.5,-57"/>
<text text-anchor="start" x="165" y="-43.5" font-family="Helvetica,sans-Serif" font-size="10.00">pugi::xpath_variable</text>
<text text-anchor="middle" x="207.75" y="-31.5" font-family="Helvetica,sans-Serif" font-size="10.00">_set::_assign</text>
</a>
</g>
</g>
<!-- Node1&#45;&gt;Node2 -->
<g id="edge1_Node000001_Node000002" class="edge">
<title>Node1&#45;&gt;Node2</title>
<g id="a_edge1_Node000001_Node000002"><a xlink:title=" ">
<path fill="none" stroke="#63b8ff" d="M283.4,-41C275.11,-41 266.68,-41 258.61,-41"/>
<polygon fill="#63b8ff" stroke="#63b8ff" points="283.18,-44.5 293.18,-41 283.18,-37.5 283.18,-44.5"/>
</a>
</g>
</g>
<!-- Node3 -->
<g id="Node000003" class="node">
<title>Node3</title>
<g id="a_Node000003"><a xlink:href="../../de/dfa/classpugi_1_1xpath__variable__set.html#aee3129249af627510bbee5c0b07dc677" target="_top" xlink:title=" ">
<polygon fill="white" stroke="#666666" points="111.25,-82 9.75,-82 9.75,-50 111.25,-50 111.25,-82"/>
<text text-anchor="start" x="17.75" y="-68.5" font-family="Helvetica,sans-Serif" font-size="10.00">pugi::xpath_variable</text>
<text text-anchor="middle" x="60.5" y="-56.5" font-family="Helvetica,sans-Serif" font-size="10.00">_set::operator=</text>
</a>
</g>
</g>
<!-- Node2&#45;&gt;Node3 -->
<g id="edge2_Node000002_Node000003" class="edge">
<title>Node2&#45;&gt;Node3</title>
<g id="a_edge2_Node000002_Node000003"><a xlink:title=" ">
<path fill="none" stroke="#63b8ff" d="M145.95,-51.46C134.5,-53.43 122.65,-55.47 111.58,-57.38"/>
<polygon fill="#63b8ff" stroke="#63b8ff" points="146.5,-54.75 155.76,-49.6 145.31,-47.85 146.5,-54.75"/>
</a>
</g>
</g>
<!-- Node4 -->
<g id="Node000004" class="node">
<title>Node4</title>
<g id="a_Node000004"><a xlink:href="../../de/dfa/classpugi_1_1xpath__variable__set.html#a7d565f9a16cab4a304d9daf93f04f9c5" target="_top" xlink:title=" ">
<polygon fill="white" stroke="#666666" points="121,-32 0,-32 0,0 121,0 121,-32"/>
<text text-anchor="start" x="8" y="-18.5" font-family="Helvetica,sans-Serif" font-size="10.00">pugi::xpath_variable</text>
<text text-anchor="middle" x="60.5" y="-6.5" font-family="Helvetica,sans-Serif" font-size="10.00">_set::xpath_variable_set</text>
</a>
</g>
</g>
<!-- Node2&#45;&gt;Node4 -->
<g id="edge3_Node000002_Node000004" class="edge">
<title>Node2&#45;&gt;Node4</title>
<g id="a_edge3_Node000002_Node000004"><a xlink:title=" ">
<path fill="none" stroke="#63b8ff" d="M146.14,-30.57C137.94,-29.16 129.54,-27.71 121.35,-26.3"/>
<polygon fill="#63b8ff" stroke="#63b8ff" points="145.31,-34.15 155.76,-32.4 146.5,-27.25 145.31,-34.15"/>
</a>
</g>
</g>
</g>
</svg>
