<?xml version="1.0" encoding="UTF-8" standalone="no"?>
<!DOCTYPE svg PUBLIC "-//W3C//DTD SVG 1.1//EN"
 "http://www.w3.org/Graphics/SVG/1.1/DTD/svg11.dtd">
<!-- Generated by graphviz version 8.1.0 (20230707.0739)
 -->
<!-- Title: FShapeVisitor Pages: 1 -->
<svg width="469pt" height="96pt"
 viewBox="0.00 0.00 469.00 96.00" xmlns="http://www.w3.org/2000/svg" xmlns:xlink="http://www.w3.org/1999/xlink">

<svg id="main" version="1.1" xmlns="http://www.w3.org/2000/svg" xmlns:xlink="http://www.w3.org/1999/xlink" xml:space="preserve" onload="init(evt)">
<style type="text/css"><![CDATA[
.node, .edge {opacity: 0.7;}
.node.selected, .edge.selected {opacity: 1;}
.edge:hover path { stroke: red; }
.edge:hover polygon { stroke: red; fill: red; }
]]></style>
<script type="application/ecmascript" xlink:href="../../svg.min.js"/>
<svg id="graph" class="graph">
<g id="graph0" class="graph" transform="scale(1 1) rotate(0) translate(4 92)">
<title>FShapeVisitor</title>
<!-- Node1 -->
<g id="Node000001" class="node">
<title>Node1</title>
<g id="a_Node000001"><a xlink:title=" ">
<polygon fill="#999999" stroke="#666666" points="243.25,-20 165.75,-20 165.75,0 243.25,0 243.25,-20"/>
<text text-anchor="middle" x="204.5" y="-6.5" font-family="Helvetica,sans-Serif" font-size="10.00">FShapeVisitor</text>
</a>
</g>
</g>
<!-- Node2 -->
<g id="Node000002" class="node">
<title>Node2</title>
<g id="a_Node000002"><a xlink:title=" ">
<polygon fill="white" stroke="#666666" points="55,-88 0,-88 0,-68 55,-68 55,-88"/>
<text text-anchor="middle" x="27.5" y="-74.5" font-family="Helvetica,sans-Serif" font-size="10.00">UWorld *</text>
</a>
</g>
</g>
<!-- Node2&#45;&gt;Node1 -->
<g id="edge1_Node000001_Node000002" class="edge">
<title>Node2&#45;&gt;Node1</title>
<g id="a_edge1_Node000001_Node000002"><a xlink:title=" ">
<path fill="none" stroke="#9a32cd" stroke-dasharray="5,2" d="M50.44,-61.83C63.39,-53.82 80.11,-44.36 96,-38 118.26,-29.09 144.29,-22.49 165.28,-18.05"/>
<polygon fill="#9a32cd" stroke="#9a32cd" points="48.93,-59.28 42.36,-67.6 52.68,-65.19 48.93,-59.28"/>
</a>
</g>
<text text-anchor="middle" x="110.75" y="-40.5" font-family="Helvetica,sans-Serif" font-size="10.00" fill="grey"> World</text>
</g>
<!-- Node3 -->
<g id="Node000003" class="node">
<title>Node3</title>
<g id="a_Node000003"><a xlink:title=" ">
<polygon fill="white" stroke="#666666" points="143.88,-88 73.12,-88 73.12,-68 143.88,-68 143.88,-88"/>
<text text-anchor="middle" x="108.5" y="-74.5" font-family="Helvetica,sans-Serif" font-size="10.00">FLinearColor</text>
</a>
</g>
</g>
<!-- Node3&#45;&gt;Node1 -->
<g id="edge2_Node000001_Node000003" class="edge">
<title>Node3&#45;&gt;Node1</title>
<g id="a_edge2_Node000001_Node000003"><a xlink:title=" ">
<path fill="none" stroke="#9a32cd" stroke-dasharray="5,2" d="M121.09,-59.03C126.84,-51.79 134.11,-43.8 142,-38 152,-30.64 164.31,-24.78 175.35,-20.42"/>
<polygon fill="#9a32cd" stroke="#9a32cd" points="117.89,-56.47 114.71,-66.57 123.5,-60.66 117.89,-56.47"/>
</a>
</g>
<text text-anchor="middle" x="154.25" y="-40.5" font-family="Helvetica,sans-Serif" font-size="10.00" fill="grey"> Color</text>
</g>
<!-- Node4 -->
<g id="Node000004" class="node">
<title>Node4</title>
<g id="a_Node000004"><a xlink:title=" ">
<polygon fill="white" stroke="#666666" points="195.5,-88 161.5,-88 161.5,-68 195.5,-68 195.5,-88"/>
<text text-anchor="middle" x="178.5" y="-74.5" font-family="Helvetica,sans-Serif" font-size="10.00">float</text>
</a>
</g>
</g>
<!-- Node4&#45;&gt;Node1 -->
<g id="edge3_Node000001_Node000004" class="edge">
<title>Node4&#45;&gt;Node1</title>
<g id="a_edge3_Node000001_Node000004"><a xlink:title=" ">
<path fill="none" stroke="#9a32cd" stroke-dasharray="5,2" d="M172.62,-57.13C171.74,-50.8 171.87,-43.91 174.5,-38 177.64,-30.96 183.62,-24.98 189.42,-20.46"/>
<polygon fill="#9a32cd" stroke="#9a32cd" points="169.37,-57.61 174.97,-66.6 176.2,-56.08 169.37,-57.61"/>
</a>
</g>
<text text-anchor="middle" x="194" y="-40.5" font-family="Helvetica,sans-Serif" font-size="10.00" fill="grey"> LifeTime</text>
</g>
<!-- Node5 -->
<g id="Node000005" class="node">
<title>Node5</title>
<g id="a_Node000005"><a xlink:title=" ">
<polygon fill="white" stroke="#666666" points="252.5,-88 218.5,-88 218.5,-68 252.5,-68 252.5,-88"/>
<text text-anchor="middle" x="235.5" y="-74.5" font-family="Helvetica,sans-Serif" font-size="10.00">bool</text>
</a>
</g>
</g>
<!-- Node5&#45;&gt;Node1 -->
<g id="edge4_Node000001_Node000005" class="edge">
<title>Node5&#45;&gt;Node1</title>
<g id="a_edge4_Node000001_Node000005"><a xlink:title=" ">
<path fill="none" stroke="#9a32cd" stroke-dasharray="5,2" d="M226.47,-57.78C220.71,-45.51 213.49,-30.14 208.93,-20.44"/>
<polygon fill="#9a32cd" stroke="#9a32cd" points="223.64,-58.98 231.06,-66.54 229.97,-56 223.64,-58.98"/>
</a>
</g>
<text text-anchor="middle" x="260.38" y="-40.5" font-family="Helvetica,sans-Serif" font-size="10.00" fill="grey"> bPersistentLines</text>
</g>
<!-- Node6 -->
<g id="Node000006" class="node">
<title>Node6</title>
<g id="a_Node000006"><a xlink:title=" ">
<polygon fill="white" stroke="#666666" points="353,-88 316,-88 316,-68 353,-68 353,-88"/>
<text text-anchor="middle" x="334.5" y="-74.5" font-family="Helvetica,sans-Serif" font-size="10.00">uint8</text>
</a>
</g>
</g>
<!-- Node6&#45;&gt;Node1 -->
<g id="edge5_Node000001_Node000006" class="edge">
<title>Node6&#45;&gt;Node1</title>
<g id="a_edge5_Node000001_Node000006"><a xlink:title=" ">
<path fill="none" stroke="#9a32cd" stroke-dasharray="5,2" d="M323.19,-58.76C317.76,-51.35 310.66,-43.3 302.5,-38 284.89,-26.56 262.48,-19.92 243.53,-16.09"/>
<polygon fill="#9a32cd" stroke="#9a32cd" points="320.63,-60.21 329.12,-66.54 326.43,-56.3 320.63,-60.21"/>
</a>
</g>
<text text-anchor="middle" x="345.12" y="-40.5" font-family="Helvetica,sans-Serif" font-size="10.00" fill="grey"> DepthPriority</text>
</g>
<!-- Node7 -->
<g id="Node000007" class="node">
<title>Node7</title>
<g id="a_Node000007"><a xlink:title=" ">
<polygon fill="white" stroke="#666666" points="438.75,-88 394.25,-88 394.25,-68 438.75,-68 438.75,-88"/>
<text text-anchor="middle" x="416.5" y="-74.5" font-family="Helvetica,sans-Serif" font-size="10.00">double</text>
</a>
</g>
</g>
<!-- Node7&#45;&gt;Node1 -->
<g id="edge6_Node000001_Node000007" class="edge">
<title>Node7&#45;&gt;Node1</title>
<g id="a_edge6_Node000001_Node000007"><a xlink:title=" ">
<path fill="none" stroke="#9a32cd" stroke-dasharray="5,2" d="M403.41,-59.07C396.81,-51.36 388.16,-42.98 378.5,-38 335.98,-16.07 280.42,-10.86 243.65,-10.13"/>
<polygon fill="#9a32cd" stroke="#9a32cd" points="401.2,-60.92 410.15,-66.59 406.68,-56.57 401.2,-60.92"/>
</a>
</g>
<text text-anchor="middle" x="427.25" y="-40.5" font-family="Helvetica,sans-Serif" font-size="10.00" fill="grey"> BrightMultiplier</text>
</g>
</g>
</svg>
</svg>

<style type='text/css'>
<![CDATA[
[data-mouse-over-selected='false'] { opacity: 0.7; }
[data-mouse-over-selected='true']  { opacity: 1.0; }
]]>
</style>
<script type="application/ecmascript"><![CDATA[
document.addEventListener('DOMContentLoaded', (event) => {
  highlightEdges();
  highlightAdjacentNodes();
});
]]></script>
</svg>
