<?xml version="1.0" encoding="UTF-8" standalone="no"?>
<!DOCTYPE svg PUBLIC "-//W3C//DTD SVG 1.1//EN"
 "http://www.w3.org/Graphics/SVG/1.1/DTD/svg11.dtd">
<!-- Generated by graphviz version 8.1.0 (20230707.0739)
 -->
<!-- Title: carla::traffic_manager::TrafficManagerBase::RegisterVehicles Pages: 1 -->
<svg width="463pt" height="102pt"
 viewBox="0.00 0.00 462.50 102.00" xmlns="http://www.w3.org/2000/svg" xmlns:xlink="http://www.w3.org/1999/xlink">
<g id="graph0" class="graph" transform="scale(1 1) rotate(0) translate(4 98)">
<title>carla::traffic_manager::TrafficManagerBase::RegisterVehicles</title>
<!-- Node1 -->
<g id="Node000001" class="node">
<title>Node1</title>
<g id="a_Node000001"><a xlink:title="This method registers a vehicle with the traffic manager.">
<polygon fill="#999999" stroke="#666666" points="454.5,-72 341,-72 341,-28 454.5,-28 454.5,-72"/>
<text text-anchor="start" x="349" y="-58.5" font-family="Helvetica,sans-Serif" font-size="10.00">carla::traffic_manager</text>
<text text-anchor="start" x="349" y="-46.5" font-family="Helvetica,sans-Serif" font-size="10.00">::TrafficManagerBase::</text>
<text text-anchor="middle" x="397.75" y="-34.5" font-family="Helvetica,sans-Serif" font-size="10.00">RegisterVehicles</text>
</a>
</g>
</g>
<!-- Node2 -->
<g id="Node000002" class="node">
<title>Node2</title>
<g id="a_Node000002"><a xlink:href="../../df/d5a/classcarla_1_1traffic__manager_1_1TrafficManager.html#ad51d67c1ba30bd5feeb315f11bcdd84c" target="_top" xlink:title="This method registers a vehicle with the traffic manager.">
<polygon fill="white" stroke="#666666" points="305,-94 140.5,-94 140.5,-62 305,-62 305,-94"/>
<text text-anchor="start" x="148.5" y="-80.5" font-family="Helvetica,sans-Serif" font-size="10.00">carla::traffic_manager</text>
<text text-anchor="middle" x="222.75" y="-68.5" font-family="Helvetica,sans-Serif" font-size="10.00">::TrafficManager::RegisterVehicles</text>
</a>
</g>
</g>
<!-- Node1&#45;&gt;Node2 -->
<g id="edge1_Node000001_Node000002" class="edge">
<title>Node1&#45;&gt;Node2</title>
<g id="a_edge1_Node000001_Node000002"><a xlink:title=" ">
<path fill="none" stroke="#63b8ff" d="M329.84,-60.83C321.83,-62.13 313.58,-63.46 305.4,-64.79"/>
<polygon fill="#63b8ff" stroke="#63b8ff" points="330.27,-64.14 339.58,-59.09 329.15,-57.23 330.27,-64.14"/>
</a>
</g>
</g>
<!-- Node4 -->
<g id="Node000004" class="node">
<title>Node4</title>
<g id="a_Node000004"><a xlink:href="../../db/d80/classcarla_1_1traffic__manager_1_1TrafficManagerServer.html#ab33d2169176015f73a380153c05dad9b" target="_top" xlink:title="Here RPCPort is the traffic manager local instance RPC server port where it can listen to remote traf...">
<polygon fill="white" stroke="#666666" points="278.75,-44 166.75,-44 166.75,0 278.75,0 278.75,-44"/>
<text text-anchor="start" x="174.75" y="-30.5" font-family="Helvetica,sans-Serif" font-size="10.00">carla::traffic_manager</text>
<text text-anchor="start" x="174.75" y="-18.5" font-family="Helvetica,sans-Serif" font-size="10.00">::TrafficManagerServer</text>
<text text-anchor="middle" x="222.75" y="-6.5" font-family="Helvetica,sans-Serif" font-size="10.00">::TrafficManagerServer</text>
</a>
</g>
</g>
<!-- Node1&#45;&gt;Node4 -->
<g id="edge3_Node000001_Node000004" class="edge">
<title>Node1&#45;&gt;Node4</title>
<g id="a_edge3_Node000001_Node000004"><a xlink:title=" ">
<path fill="none" stroke="#63b8ff" d="M329.74,-39.15C312.97,-36.44 295.17,-33.56 279.05,-30.95"/>
<polygon fill="#63b8ff" stroke="#63b8ff" points="329.15,-42.77 339.58,-40.91 330.27,-35.86 329.15,-42.77"/>
</a>
</g>
</g>
<!-- Node3 -->
<g id="Node000003" class="node">
<title>Node3</title>
<g id="a_Node000003"><a xlink:href="../../d9/dc6/classcarla_1_1client_1_1Vehicle.html#afd51d896d2a994101fadaf3e23e5636e" target="_top" xlink:title="Switch on/off this vehicle&#39;s autopilot.">
<polygon fill="white" stroke="#666666" points="104.5,-94 0,-94 0,-62 104.5,-62 104.5,-94"/>
<text text-anchor="start" x="8" y="-80.5" font-family="Helvetica,sans-Serif" font-size="10.00">carla::client::Vehicle</text>
<text text-anchor="middle" x="52.25" y="-68.5" font-family="Helvetica,sans-Serif" font-size="10.00">::SetAutopilot</text>
</a>
</g>
</g>
<!-- Node2&#45;&gt;Node3 -->
<g id="edge2_Node000002_Node000003" class="edge">
<title>Node2&#45;&gt;Node3</title>
<g id="a_edge2_Node000002_Node000003"><a xlink:title=" ">
<path fill="none" stroke="#63b8ff" d="M129.67,-78C121.18,-78 112.79,-78 104.86,-78"/>
<polygon fill="#63b8ff" stroke="#63b8ff" points="129.46,-81.5 139.46,-78 129.46,-74.5 129.46,-81.5"/>
</a>
</g>
</g>
</g>
</svg>
