<?xml version="1.0" encoding="UTF-8" standalone="no"?>
<!DOCTYPE svg PUBLIC "-//W3C//DTD SVG 1.1//EN"
 "http://www.w3.org/Graphics/SVG/1.1/DTD/svg11.dtd">
<!-- Generated by graphviz version 8.1.0 (20230707.0739)
 -->
<!-- Title: CarlaRecorderActorBoundingBoxes::Add Pages: 1 -->
<svg width="2534pt" height="362pt"
 viewBox="0.00 0.00 2533.75 362.00" xmlns="http://www.w3.org/2000/svg" xmlns:xlink="http://www.w3.org/1999/xlink">
<g id="graph0" class="graph" transform="scale(1 1) rotate(0) translate(4 358)">
<title>CarlaRecorderActorBoundingBoxes::Add</title>
<!-- Node1 -->
<g id="Node000001" class="node">
<title>Node1</title>
<g id="a_Node000001"><a xlink:title=" ">
<polygon fill="#999999" stroke="#666666" points="2525.75,-97 2384.5,-97 2384.5,-65 2525.75,-65 2525.75,-97"/>
<text text-anchor="start" x="2392.5" y="-83.5" font-family="Helvetica,sans-Serif" font-size="10.00">CarlaRecorderActorBounding</text>
<text text-anchor="middle" x="2455.12" y="-71.5" font-family="Helvetica,sans-Serif" font-size="10.00">Boxes::Add</text>
</a>
</g>
</g>
<!-- Node2 -->
<g id="Node000002" class="node">
<title>Node2</title>
<g id="a_Node000002"><a xlink:href="../../de/db4/classFFrameData.html#afdab20a7d06762b388db7ae7e862ca36" target="_top" xlink:title=" ">
<polygon fill="white" stroke="#666666" points="2341.38,-72 2190.38,-72 2190.38,-52 2341.38,-52 2341.38,-72"/>
<text text-anchor="middle" x="2265.88" y="-58.5" font-family="Helvetica,sans-Serif" font-size="10.00">FFrameData::AddBoundingBox</text>
</a>
</g>
</g>
<!-- Node1&#45;&gt;Node2 -->
<g id="edge1_Node000001_Node000002" class="edge">
<title>Node1&#45;&gt;Node2</title>
<g id="a_edge1_Node000001_Node000002"><a xlink:title=" ">
<path fill="none" stroke="#63b8ff" d="M2373.32,-72.8C2362.85,-71.74 2352.17,-70.65 2341.8,-69.6"/>
<polygon fill="#63b8ff" stroke="#63b8ff" points="2372.83,-76.37 2383.13,-73.9 2373.54,-69.41 2372.83,-76.37"/>
</a>
</g>
</g>
<!-- Node33 -->
<g id="Node000033" class="node">
<title>Node33</title>
<g id="a_Node000033"><a xlink:href="../../dd/db9/classACarlaRecorder.html#ad5038981aedd911c87ed0110dedebf1f" target="_top" xlink:title=" ">
<polygon fill="white" stroke="#666666" points="2348.5,-111 2183.25,-111 2183.25,-91 2348.5,-91 2348.5,-111"/>
<text text-anchor="middle" x="2265.88" y="-97.5" font-family="Helvetica,sans-Serif" font-size="10.00">ACarlaRecorder::AddBoundingBox</text>
</a>
</g>
</g>
<!-- Node1&#45;&gt;Node33 -->
<g id="edge41_Node000001_Node000033" class="edge">
<title>Node1&#45;&gt;Node33</title>
<g id="a_edge41_Node000001_Node000033"><a xlink:title=" ">
<path fill="none" stroke="#63b8ff" d="M2373.2,-89.64C2365.1,-90.51 2356.88,-91.39 2348.77,-92.25"/>
<polygon fill="#63b8ff" stroke="#63b8ff" points="2373.56,-93.02 2383.13,-88.48 2372.82,-86.06 2373.56,-93.02"/>
</a>
</g>
</g>
<!-- Node3 -->
<g id="Node000003" class="node">
<title>Node3</title>
<g id="a_Node000003"><a xlink:href="../../de/db4/classFFrameData.html#a2371ea81faf755f9ae6a34dcbc967e1a" target="_top" xlink:title=" ">
<polygon fill="white" stroke="#666666" points="2147.25,-69 1973,-69 1973,-49 2147.25,-49 2147.25,-69"/>
<text text-anchor="middle" x="2060.12" y="-55.5" font-family="Helvetica,sans-Serif" font-size="10.00">FFrameData::AddActorBoundingBox</text>
</a>
</g>
</g>
<!-- Node2&#45;&gt;Node3 -->
<g id="edge2_Node000002_Node000003" class="edge">
<title>Node2&#45;&gt;Node3</title>
<g id="a_edge2_Node000002_Node000003"><a xlink:title=" ">
<path fill="none" stroke="#63b8ff" d="M2179.32,-60.74C2168.82,-60.59 2158.07,-60.43 2147.56,-60.27"/>
<polygon fill="#63b8ff" stroke="#63b8ff" points="2179.11,-64.25 2189.16,-60.9 2179.22,-57.25 2179.11,-64.25"/>
</a>
</g>
</g>
<!-- Node4 -->
<g id="Node000004" class="node">
<title>Node4</title>
<g id="a_Node000004"><a xlink:href="../../de/db4/classFFrameData.html#ac9ea347eb7ec4a3ff72a346849ecd0ba" target="_top" xlink:title=" ">
<polygon fill="white" stroke="#666666" points="1929.88,-72 1786.38,-72 1786.38,-40 1929.88,-40 1929.88,-72"/>
<text text-anchor="start" x="1794.38" y="-58.5" font-family="Helvetica,sans-Serif" font-size="10.00">FFrameData::CreateRecorder</text>
<text text-anchor="middle" x="1858.12" y="-46.5" font-family="Helvetica,sans-Serif" font-size="10.00">EventAdd</text>
</a>
</g>
</g>
<!-- Node3&#45;&gt;Node4 -->
<g id="edge3_Node000003_Node000004" class="edge">
<title>Node3&#45;&gt;Node4</title>
<g id="a_edge3_Node000003_Node000004"><a xlink:title=" ">
<path fill="none" stroke="#63b8ff" d="M1961.57,-57.54C1950.99,-57.38 1940.37,-57.22 1930.19,-57.07"/>
<polygon fill="#63b8ff" stroke="#63b8ff" points="1961.51,-61.05 1971.57,-57.7 1961.62,-54.05 1961.51,-61.05"/>
</a>
</g>
</g>
<!-- Node5 -->
<g id="Node000005" class="node">
<title>Node5</title>
<g id="a_Node000005"><a xlink:href="../../de/db4/classFFrameData.html#a2f68334284edda61421273395e9bb325" target="_top" xlink:title=" ">
<polygon fill="white" stroke="#666666" points="1743.25,-44 1586.25,-44 1586.25,-24 1743.25,-24 1743.25,-44"/>
<text text-anchor="middle" x="1664.75" y="-30.5" font-family="Helvetica,sans-Serif" font-size="10.00">FFrameData::AddExistingActors</text>
</a>
</g>
</g>
<!-- Node4&#45;&gt;Node5 -->
<g id="edge4_Node000004_Node000005" class="edge">
<title>Node4&#45;&gt;Node5</title>
<g id="a_edge4_Node000004_Node000005"><a xlink:title=" ">
<path fill="none" stroke="#63b8ff" d="M1775.31,-46.6C1764.83,-45.39 1754.12,-44.16 1743.7,-42.96"/>
<polygon fill="#63b8ff" stroke="#63b8ff" points="1774.8,-50.17 1785.14,-47.84 1775.6,-43.22 1774.8,-50.17"/>
</a>
</g>
</g>
<!-- Node9 -->
<g id="Node000009" class="node">
<title>Node9</title>
<g id="a_Node000009"><a xlink:href="../../dc/d84/classUCarlaEpisode.html#a84b234957cb3f3f24d3780d420410068" target="_top" xlink:title="Spawns an actor based on ActorDescription at Transform.">
<polygon fill="white" stroke="#666666" points="1734.25,-108 1595.25,-108 1595.25,-76 1734.25,-76 1734.25,-108"/>
<text text-anchor="start" x="1603.25" y="-94.5" font-family="Helvetica,sans-Serif" font-size="10.00">UCarlaEpisode::SpawnActor</text>
<text text-anchor="middle" x="1664.75" y="-82.5" font-family="Helvetica,sans-Serif" font-size="10.00">WithInfo</text>
</a>
</g>
</g>
<!-- Node4&#45;&gt;Node9 -->
<g id="edge8_Node000004_Node000009" class="edge">
<title>Node4&#45;&gt;Node9</title>
<g id="a_edge8_Node000004_Node000009"><a xlink:title=" ">
<path fill="none" stroke="#63b8ff" d="M1775.38,-71.38C1761.83,-73.93 1747.9,-76.55 1734.72,-79.03"/>
<polygon fill="#63b8ff" stroke="#63b8ff" points="1775.96,-74.64 1785.14,-69.35 1774.66,-67.76 1775.96,-74.64"/>
</a>
</g>
</g>
<!-- Node6 -->
<g id="Node000006" class="node">
<title>Node6</title>
<g id="a_Node000006"><a xlink:href="../../de/db4/classFFrameData.html#a13396099d7e1c32df563893f7d0b35be" target="_top" xlink:title=" ">
<polygon fill="white" stroke="#666666" points="1366.25,-20 1226.5,-20 1226.5,0 1366.25,0 1366.25,-20"/>
<text text-anchor="middle" x="1296.38" y="-6.5" font-family="Helvetica,sans-Serif" font-size="10.00">FFrameData::GetFrameData</text>
</a>
</g>
</g>
<!-- Node5&#45;&gt;Node6 -->
<g id="edge5_Node000005_Node000006" class="edge">
<title>Node5&#45;&gt;Node6</title>
<g id="a_edge5_Node000005_Node000006"><a xlink:title=" ">
<path fill="none" stroke="#63b8ff" d="M1575.15,-28.2C1511.08,-24 1425.72,-18.41 1366.62,-14.54"/>
<polygon fill="#63b8ff" stroke="#63b8ff" points="1574.84,-31.75 1585.05,-28.91 1575.3,-24.76 1574.84,-31.75"/>
</a>
</g>
</g>
<!-- Node7 -->
<g id="Node000007" class="node">
<title>Node7</title>
<g id="a_Node000007"><a xlink:href="../../dc/d49/classFCarlaEngine.html#aff440c7ba9d004e4c5b60125cc4d709b" target="_top" xlink:title=" ">
<polygon fill="white" stroke="#666666" points="464.62,-20 333.12,-20 333.12,0 464.62,0 464.62,-20"/>
<text text-anchor="middle" x="398.88" y="-6.5" font-family="Helvetica,sans-Serif" font-size="10.00">FCarlaEngine::OnPostTick</text>
</a>
</g>
</g>
<!-- Node6&#45;&gt;Node7 -->
<g id="edge6_Node000006_Node000007" class="edge">
<title>Node6&#45;&gt;Node7</title>
<g id="a_edge6_Node000006_Node000007"><a xlink:title=" ">
<path fill="none" stroke="#63b8ff" d="M1215.38,-10C1137.41,-10 1015.5,-10 909.88,-10 909.88,-10 909.88,-10 745.25,-10 647.66,-10 534.57,-10 465.12,-10"/>
<polygon fill="#63b8ff" stroke="#63b8ff" points="1215.08,-13.5 1225.08,-10 1215.08,-6.5 1215.08,-13.5"/>
</a>
</g>
</g>
<!-- Node8 -->
<g id="Node000008" class="node">
<title>Node8</title>
<g id="a_Node000008"><a xlink:href="../../dc/d49/classFCarlaEngine.html#ab8d13063cde985781237dd7da308227e" target="_top" xlink:title=" ">
<polygon fill="white" stroke="#666666" points="288.5,-20 144.25,-20 144.25,0 288.5,0 288.5,-20"/>
<text text-anchor="middle" x="216.38" y="-6.5" font-family="Helvetica,sans-Serif" font-size="10.00">FCarlaEngine::NotifyInitGame</text>
</a>
</g>
</g>
<!-- Node7&#45;&gt;Node8 -->
<g id="edge7_Node000007_Node000008" class="edge">
<title>Node7&#45;&gt;Node8</title>
<g id="a_edge7_Node000007_Node000008"><a xlink:title=" ">
<path fill="none" stroke="#63b8ff" d="M321.89,-10C310.94,-10 299.71,-10 288.86,-10"/>
<polygon fill="#63b8ff" stroke="#63b8ff" points="321.71,-13.5 331.71,-10 321.71,-6.5 321.71,-13.5"/>
</a>
</g>
</g>
<!-- Node10 -->
<g id="Node000010" class="node">
<title>Node10</title>
<g id="a_Node000010"><a xlink:href="../../d7/d97/classFCarlaServer_1_1FPimpl.html#a675a6b572112a21e8bc011dddfd0de86" target="_top" xlink:title=" ">
<polygon fill="white" stroke="#666666" points="270.5,-228 162.25,-228 162.25,-196 270.5,-196 270.5,-228"/>
<text text-anchor="start" x="170.25" y="-214.5" font-family="Helvetica,sans-Serif" font-size="10.00">FCarlaServer::FPimpl</text>
<text text-anchor="middle" x="216.38" y="-202.5" font-family="Helvetica,sans-Serif" font-size="10.00">::BindActions</text>
</a>
</g>
</g>
<!-- Node9&#45;&gt;Node10 -->
<g id="edge9_Node000009_Node000010" class="edge">
<title>Node9&#45;&gt;Node10</title>
<g id="a_edge9_Node000009_Node000010"><a xlink:title=" ">
<path fill="none" stroke="#63b8ff" d="M1586.11,-73.37C1574.15,-70.95 1561.91,-68.71 1550.25,-67 1438.74,-50.61 1410.08,-48 1297.38,-48 1297.38,-48 1297.38,-48 583,-48 465.9,-48 427.07,-42.5 324.5,-99 280.93,-123 244.65,-170.87 227.69,-195.91"/>
<polygon fill="#63b8ff" stroke="#63b8ff" points="1585.02,-76.93 1595.52,-75.54 1586.45,-70.07 1585.02,-76.93"/>
</a>
</g>
</g>
<!-- Node12 -->
<g id="Node000012" class="node">
<title>Node12</title>
<g id="a_Node000012"><a xlink:href="../../de/db4/classFFrameData.html#a1a36eaa480c6a680c42ad3a4af5452e9" target="_top" xlink:title=" ">
<polygon fill="white" stroke="#666666" points="1550.25,-108 1407.5,-108 1407.5,-76 1550.25,-76 1550.25,-108"/>
<text text-anchor="start" x="1415.5" y="-94.5" font-family="Helvetica,sans-Serif" font-size="10.00">FFrameData::CreateOrReuse</text>
<text text-anchor="middle" x="1478.88" y="-82.5" font-family="Helvetica,sans-Serif" font-size="10.00">Actor</text>
</a>
</g>
</g>
<!-- Node9&#45;&gt;Node12 -->
<g id="edge11_Node000009_Node000012" class="edge">
<title>Node9&#45;&gt;Node12</title>
<g id="a_edge11_Node000009_Node000012"><a xlink:title=" ">
<path fill="none" stroke="#63b8ff" d="M1583.78,-92C1572.69,-92 1561.38,-92 1550.48,-92"/>
<polygon fill="#63b8ff" stroke="#63b8ff" points="1583.76,-95.5 1593.76,-92 1583.76,-88.5 1583.76,-95.5"/>
</a>
</g>
</g>
<!-- Node15 -->
<g id="Node000015" class="node">
<title>Node15</title>
<g id="a_Node000015"><a xlink:href="../../d8/d27/classCarlaReplayerHelper.html#a12b09e8ccf752714a3114f9858c274e7" target="_top" xlink:title=" ">
<polygon fill="white" stroke="#666666" points="1546.88,-158 1410.88,-158 1410.88,-126 1546.88,-126 1546.88,-158"/>
<text text-anchor="start" x="1418.88" y="-144.5" font-family="Helvetica,sans-Serif" font-size="10.00">CarlaReplayerHelper</text>
<text text-anchor="middle" x="1478.88" y="-132.5" font-family="Helvetica,sans-Serif" font-size="10.00">::TryToCreateReplayerActor</text>
</a>
</g>
</g>
<!-- Node9&#45;&gt;Node15 -->
<g id="edge14_Node000009_Node000015" class="edge">
<title>Node9&#45;&gt;Node15</title>
<g id="a_edge14_Node000009_Node000015"><a xlink:title=" ">
<path fill="none" stroke="#63b8ff" d="M1592.69,-111.32C1575.42,-116.02 1557.11,-121 1540.37,-125.55"/>
<polygon fill="#63b8ff" stroke="#63b8ff" points="1593.56,-114.44 1602.29,-108.44 1591.72,-107.69 1593.56,-114.44"/>
</a>
</g>
</g>
<!-- Node11 -->
<g id="Node000011" class="node">
<title>Node11</title>
<g id="a_Node000011"><a xlink:href="../../d7/d97/classFCarlaServer_1_1FPimpl.html#ab9ff29fc81bd2f9a14677941c7f7b62d" target="_top" xlink:title=" ">
<polygon fill="white" stroke="#666666" points="108.25,-228 0,-228 0,-196 108.25,-196 108.25,-228"/>
<text text-anchor="start" x="8" y="-214.5" font-family="Helvetica,sans-Serif" font-size="10.00">FCarlaServer::FPimpl</text>
<text text-anchor="middle" x="54.12" y="-202.5" font-family="Helvetica,sans-Serif" font-size="10.00">::FPimpl</text>
</a>
</g>
</g>
<!-- Node10&#45;&gt;Node11 -->
<g id="edge10_Node000010_Node000011" class="edge">
<title>Node10&#45;&gt;Node11</title>
<g id="a_edge10_Node000010_Node000011"><a xlink:title=" ">
<path fill="none" stroke="#63b8ff" d="M151.33,-212C137.14,-212 122.24,-212 108.53,-212"/>
<polygon fill="#63b8ff" stroke="#63b8ff" points="151.01,-215.5 161.01,-212 151.01,-208.5 151.01,-215.5"/>
</a>
</g>
</g>
<!-- Node13 -->
<g id="Node000013" class="node">
<title>Node13</title>
<g id="a_Node000013"><a xlink:href="../../de/db4/classFFrameData.html#acb9dd2fef7b2779243ef04116465155d" target="_top" xlink:title=" ">
<polygon fill="white" stroke="#666666" points="1371.5,-108 1221.25,-108 1221.25,-76 1371.5,-76 1371.5,-108"/>
<text text-anchor="start" x="1229.25" y="-94.5" font-family="Helvetica,sans-Serif" font-size="10.00">FFrameData::ProcessReplayer</text>
<text text-anchor="middle" x="1296.38" y="-82.5" font-family="Helvetica,sans-Serif" font-size="10.00">EventAdd</text>
</a>
</g>
</g>
<!-- Node12&#45;&gt;Node13 -->
<g id="edge12_Node000012_Node000013" class="edge">
<title>Node12&#45;&gt;Node13</title>
<g id="a_edge12_Node000012_Node000013"><a xlink:title=" ">
<path fill="none" stroke="#63b8ff" d="M1396.12,-92C1388.03,-92 1379.86,-92 1371.86,-92"/>
<polygon fill="#63b8ff" stroke="#63b8ff" points="1396.05,-95.5 1406.05,-92 1396.05,-88.5 1396.05,-95.5"/>
</a>
</g>
</g>
<!-- Node14 -->
<g id="Node000014" class="node">
<title>Node14</title>
<g id="a_Node000014"><a xlink:href="../../de/db4/classFFrameData.html#aa23cccda1659af6f10264e73a73c1e27" target="_top" xlink:title=" ">
<polygon fill="white" stroke="#666666" points="1174.38,-102 1030.88,-102 1030.88,-82 1174.38,-82 1174.38,-102"/>
<text text-anchor="middle" x="1102.62" y="-88.5" font-family="Helvetica,sans-Serif" font-size="10.00">FFrameData::PlayFrameData</text>
</a>
</g>
</g>
<!-- Node13&#45;&gt;Node14 -->
<g id="edge13_Node000013_Node000014" class="edge">
<title>Node13&#45;&gt;Node14</title>
<g id="a_edge13_Node000013_Node000014"><a xlink:title=" ">
<path fill="none" stroke="#63b8ff" d="M1210.2,-92C1198.39,-92 1186.37,-92 1174.85,-92"/>
<polygon fill="#63b8ff" stroke="#63b8ff" points="1209.97,-95.5 1219.96,-92 1209.96,-88.5 1209.97,-95.5"/>
</a>
</g>
</g>
<!-- Node16 -->
<g id="Node000016" class="node">
<title>Node16</title>
<g id="a_Node000016"><a xlink:href="../../d8/d27/classCarlaReplayerHelper.html#ad2578fb20f971e6e27bd1895d8884e6d" target="_top" xlink:title=" ">
<polygon fill="white" stroke="#666666" points="1365.12,-158 1227.62,-158 1227.62,-126 1365.12,-126 1365.12,-158"/>
<text text-anchor="start" x="1235.62" y="-144.5" font-family="Helvetica,sans-Serif" font-size="10.00">CarlaReplayerHelper</text>
<text text-anchor="middle" x="1296.38" y="-132.5" font-family="Helvetica,sans-Serif" font-size="10.00">::ProcessReplayerEventAdd</text>
</a>
</g>
</g>
<!-- Node15&#45;&gt;Node16 -->
<g id="edge15_Node000015_Node000016" class="edge">
<title>Node15&#45;&gt;Node16</title>
<g id="a_edge15_Node000015_Node000016"><a xlink:title=" ">
<path fill="none" stroke="#63b8ff" d="M1399.58,-142C1388.19,-142 1376.53,-142 1365.36,-142"/>
<polygon fill="#63b8ff" stroke="#63b8ff" points="1399.41,-145.5 1409.41,-142 1399.41,-138.5 1399.41,-145.5"/>
</a>
</g>
</g>
<!-- Node17 -->
<g id="Node000017" class="node">
<title>Node17</title>
<g id="a_Node000017"><a xlink:href="../../dc/dc6/classCarlaReplayer.html#a929a7a4c79086339485caba9f6562c8e" target="_top" xlink:title=" ">
<polygon fill="white" stroke="#666666" points="1185.25,-153 1020,-153 1020,-133 1185.25,-133 1185.25,-153"/>
<text text-anchor="middle" x="1102.62" y="-139.5" font-family="Helvetica,sans-Serif" font-size="10.00">CarlaReplayer::ProcessEventsAdd</text>
</a>
</g>
</g>
<!-- Node16&#45;&gt;Node17 -->
<g id="edge16_Node000016_Node000017" class="edge">
<title>Node16&#45;&gt;Node17</title>
<g id="a_edge16_Node000016_Node000017"><a xlink:title=" ">
<path fill="none" stroke="#63b8ff" d="M1216.36,-142.41C1206.23,-142.46 1195.84,-142.52 1185.66,-142.57"/>
<polygon fill="#63b8ff" stroke="#63b8ff" points="1216.25,-145.91 1226.23,-142.36 1216.21,-138.91 1216.25,-145.91"/>
</a>
</g>
</g>
<!-- Node18 -->
<g id="Node000018" class="node">
<title>Node18</title>
<g id="a_Node000018"><a xlink:href="../../dc/dc6/classCarlaReplayer.html#ae0a5643d88257bdceb9e12d5c33194cb" target="_top" xlink:title=" ">
<polygon fill="white" stroke="#666666" points="984,-156 833.75,-156 833.75,-136 984,-136 984,-156"/>
<text text-anchor="middle" x="908.88" y="-142.5" font-family="Helvetica,sans-Serif" font-size="10.00">CarlaReplayer::ProcessToTime</text>
</a>
</g>
</g>
<!-- Node17&#45;&gt;Node18 -->
<g id="edge17_Node000017_Node000018" class="edge">
<title>Node17&#45;&gt;Node18</title>
<g id="a_edge17_Node000017_Node000018"><a xlink:title=" ">
<path fill="none" stroke="#63b8ff" d="M1008.99,-144.45C1000.78,-144.58 992.53,-144.71 984.5,-144.83"/>
<polygon fill="#63b8ff" stroke="#63b8ff" points="1008.81,-147.94 1018.75,-144.28 1008.7,-140.94 1008.81,-147.94"/>
</a>
</g>
</g>
<!-- Node19 -->
<g id="Node000019" class="node">
<title>Node19</title>
<g id="a_Node000019"><a xlink:href="../../dc/dc6/classCarlaReplayer.html#ac70d3dbe1f79ffd25a695ec3bd2485e6" target="_top" xlink:title=" ">
<polygon fill="white" stroke="#666666" points="649,-202 519,-202 519,-170 649,-170 649,-202"/>
<text text-anchor="start" x="527" y="-188.5" font-family="Helvetica,sans-Serif" font-size="10.00">CarlaReplayer::CheckPlay</text>
<text text-anchor="middle" x="584" y="-176.5" font-family="Helvetica,sans-Serif" font-size="10.00">AfterMapLoaded</text>
</a>
</g>
</g>
<!-- Node18&#45;&gt;Node19 -->
<g id="edge18_Node000018_Node000019" class="edge">
<title>Node18&#45;&gt;Node19</title>
<g id="a_edge18_Node000018_Node000019"><a xlink:title=" ">
<path fill="none" stroke="#63b8ff" d="M822.73,-156.55C768.38,-163.28 699.04,-171.87 649.29,-178.04"/>
<polygon fill="#63b8ff" stroke="#63b8ff" points="822.9,-159.93 832.4,-155.23 822.04,-152.98 822.9,-159.93"/>
</a>
</g>
</g>
<!-- Node22 -->
<g id="Node000022" class="node">
<title>Node22</title>
<g id="a_Node000022"><a xlink:href="../../dc/dc6/classCarlaReplayer.html#a480fd94fedc2367d7f7f58f17f3cd5a4" target="_top" xlink:title=" ">
<polygon fill="white" stroke="#666666" points="648.25,-152 519.75,-152 519.75,-132 648.25,-132 648.25,-152"/>
<text text-anchor="middle" x="584" y="-138.5" font-family="Helvetica,sans-Serif" font-size="10.00">CarlaReplayer::ReplayFile</text>
</a>
</g>
</g>
<!-- Node18&#45;&gt;Node22 -->
<g id="edge21_Node000018_Node000022" class="edge">
<title>Node18&#45;&gt;Node22</title>
<g id="a_edge21_Node000018_Node000022"><a xlink:title=" ">
<path fill="none" stroke="#63b8ff" d="M822.68,-144.94C768.04,-144.27 698.28,-143.4 648.49,-142.79"/>
<polygon fill="#63b8ff" stroke="#63b8ff" points="822.35,-148.45 832.4,-145.08 822.44,-141.45 822.35,-148.45"/>
</a>
</g>
</g>
<!-- Node24 -->
<g id="Node000024" class="node">
<title>Node24</title>
<g id="a_Node000024"><a xlink:href="../../dc/dc6/classCarlaReplayer.html#af627917f2c95135fb11b59af4f65dbf7" target="_top" xlink:title=" ">
<polygon fill="white" stroke="#666666" points="797.75,-237 694.75,-237 694.75,-217 797.75,-217 797.75,-237"/>
<text text-anchor="middle" x="746.25" y="-223.5" font-family="Helvetica,sans-Serif" font-size="10.00">CarlaReplayer::Stop</text>
</a>
</g>
</g>
<!-- Node18&#45;&gt;Node24 -->
<g id="edge24_Node000018_Node000024" class="edge">
<title>Node18&#45;&gt;Node24</title>
<g id="a_edge24_Node000018_Node000024"><a xlink:title=" ">
<path fill="none" stroke="#63b8ff" d="M866.13,-161.05C830.9,-177.34 782.7,-202.36 760.03,-216.69"/>
<polygon fill="#63b8ff" stroke="#63b8ff" points="867.48,-163.82 875.14,-156.5 864.59,-157.45 867.48,-163.82"/>
</a>
</g>
</g>
<!-- Node31 -->
<g id="Node000031" class="node">
<title>Node31</title>
<g id="a_Node000031"><a xlink:href="../../dc/dc6/classCarlaReplayer.html#a4aeceb13aaa5dfcbf3ee42d7582262a4" target="_top" xlink:title=" ">
<polygon fill="white" stroke="#666666" points="796.62,-99 695.88,-99 695.88,-79 796.62,-79 796.62,-99"/>
<text text-anchor="middle" x="746.25" y="-85.5" font-family="Helvetica,sans-Serif" font-size="10.00">CarlaReplayer::Tick</text>
</a>
</g>
</g>
<!-- Node18&#45;&gt;Node31 -->
<g id="edge36_Node000018_Node000031" class="edge">
<title>Node18&#45;&gt;Node31</title>
<g id="a_edge36_Node000018_Node000031"><a xlink:title=" ">
<path fill="none" stroke="#63b8ff" d="M868.06,-131.87C839.79,-121.84 802.44,-108.59 776.8,-99.48"/>
<polygon fill="#63b8ff" stroke="#63b8ff" points="866.82,-135.5 877.41,-135.55 869.16,-128.9 866.82,-135.5"/>
</a>
</g>
</g>
<!-- Node20 -->
<g id="Node000020" class="node">
<title>Node20</title>
<g id="a_Node000020"><a xlink:href="../../db/de5/classACarlaGameModeBase.html#a3909b055b351f69d7ad1e39a42e72e3d" target="_top" xlink:title=" ">
<polygon fill="white" stroke="#666666" points="457.88,-228 339.88,-228 339.88,-196 457.88,-196 457.88,-228"/>
<text text-anchor="start" x="347.88" y="-214.5" font-family="Helvetica,sans-Serif" font-size="10.00">ACarlaGameModeBase</text>
<text text-anchor="middle" x="398.88" y="-202.5" font-family="Helvetica,sans-Serif" font-size="10.00">::BeginPlay</text>
</a>
</g>
</g>
<!-- Node19&#45;&gt;Node20 -->
<g id="edge19_Node000019_Node000020" class="edge">
<title>Node19&#45;&gt;Node20</title>
<g id="a_edge19_Node000019_Node000020"><a xlink:title=" ">
<path fill="none" stroke="#63b8ff" d="M507.93,-196.66C491.35,-199.01 474.02,-201.47 458.21,-203.72"/>
<polygon fill="#63b8ff" stroke="#63b8ff" points="508.29,-200 517.69,-195.13 507.3,-193.07 508.29,-200"/>
</a>
</g>
</g>
<!-- Node21 -->
<g id="Node000021" class="node">
<title>Node21</title>
<g id="a_Node000021"><a xlink:href="../../dc/d49/classFCarlaEngine.html#ab4c918e4d4855a26ab57c4bb79ad4645" target="_top" xlink:title=" ">
<polygon fill="white" stroke="#666666" points="463.88,-178 333.88,-178 333.88,-146 463.88,-146 463.88,-178"/>
<text text-anchor="start" x="341.88" y="-164.5" font-family="Helvetica,sans-Serif" font-size="10.00">FCarlaEngine::NotifyBegin</text>
<text text-anchor="middle" x="398.88" y="-152.5" font-family="Helvetica,sans-Serif" font-size="10.00">Episode</text>
</a>
</g>
</g>
<!-- Node19&#45;&gt;Node21 -->
<g id="edge20_Node000019_Node000021" class="edge">
<title>Node19&#45;&gt;Node21</title>
<g id="a_edge20_Node000019_Node000021"><a xlink:title=" ">
<path fill="none" stroke="#63b8ff" d="M507.8,-176.14C493.37,-174.25 478.39,-172.29 464.33,-170.45"/>
<polygon fill="#63b8ff" stroke="#63b8ff" points="507.32,-179.74 517.69,-177.57 508.23,-172.8 507.32,-179.74"/>
</a>
</g>
</g>
<!-- Node23 -->
<g id="Node000023" class="node">
<title>Node23</title>
<g id="a_Node000023"><a xlink:href="../../dd/db9/classACarlaRecorder.html#a5dc891241c275eedcf6b1f189751520b" target="_top" xlink:title=" ">
<polygon fill="white" stroke="#666666" points="466.88,-128 330.88,-128 330.88,-108 466.88,-108 466.88,-128"/>
<text text-anchor="middle" x="398.88" y="-114.5" font-family="Helvetica,sans-Serif" font-size="10.00">ACarlaRecorder::ReplayFile</text>
</a>
</g>
</g>
<!-- Node22&#45;&gt;Node23 -->
<g id="edge22_Node000022_Node000023" class="edge">
<title>Node22&#45;&gt;Node23</title>
<g id="a_edge22_Node000022_Node000023"><a xlink:title=" ">
<path fill="none" stroke="#63b8ff" d="M508.65,-132.26C494.99,-130.47 480.8,-128.61 467.35,-126.84"/>
<polygon fill="#63b8ff" stroke="#63b8ff" points="508.1,-135.84 518.47,-133.67 509.01,-128.9 508.1,-135.84"/>
</a>
</g>
</g>
<!-- Node23&#45;&gt;Node10 -->
<g id="edge23_Node000023_Node000010" class="edge">
<title>Node23&#45;&gt;Node10</title>
<g id="a_edge23_Node000023_Node000010"><a xlink:title=" ">
<path fill="none" stroke="#63b8ff" d="M337.33,-131.81C332.92,-133.38 328.6,-135.11 324.5,-137 290.9,-152.5 256.65,-178.67 236.21,-195.63"/>
<polygon fill="#63b8ff" stroke="#63b8ff" points="338.28,-134.86 346.7,-128.43 336.11,-128.2 338.28,-134.86"/>
</a>
</g>
</g>
<!-- Node24&#45;&gt;Node18 -->
<g id="edge28_Node000024_Node000018" class="edge">
<title>Node24&#45;&gt;Node18</title>
<g id="a_edge28_Node000024_Node000018"><a xlink:title=" ">
<path fill="none" stroke="#63b8ff" d="M788.76,-212.06C823.95,-195.8 872.24,-170.75 895,-156.37"/>
<polygon fill="#63b8ff" stroke="#63b8ff" points="787.42,-209.28 779.76,-216.6 790.31,-215.66 787.42,-209.28"/>
</a>
</g>
</g>
<!-- Node24&#45;&gt;Node19 -->
<g id="edge25_Node000024_Node000019" class="edge">
<title>Node24&#45;&gt;Node19</title>
<g id="a_edge25_Node000024_Node000019"><a xlink:title=" ">
<path fill="none" stroke="#63b8ff" d="M693.89,-213.86C679.75,-210.24 664.23,-206.27 649.45,-202.49"/>
<polygon fill="#63b8ff" stroke="#63b8ff" points="692.84,-217.46 703.4,-216.55 694.58,-210.68 692.84,-217.46"/>
</a>
</g>
</g>
<!-- Node24&#45;&gt;Node22 -->
<g id="edge29_Node000024_Node000022" class="edge">
<title>Node24&#45;&gt;Node22</title>
<g id="a_edge29_Node000024_Node000022"><a xlink:title=" ">
<path fill="none" stroke="#63b8ff" d="M726.95,-209.51C710.38,-194.57 684.65,-173.57 658.75,-161 651.73,-157.59 644.03,-154.75 636.34,-152.39"/>
<polygon fill="#63b8ff" stroke="#63b8ff" points="724.01,-211.48 733.74,-215.69 728.76,-206.33 724.01,-211.48"/>
</a>
</g>
</g>
<!-- Node25 -->
<g id="Node000025" class="node">
<title>Node25</title>
<g id="a_Node000025"><a xlink:href="../../dc/d84/classUCarlaEpisode.html#a04380aa760fc6891f1c51cdbe7ddb856" target="_top" xlink:title=" ">
<polygon fill="white" stroke="#666666" points="645.62,-278 522.38,-278 522.38,-258 645.62,-258 645.62,-278"/>
<text text-anchor="middle" x="584" y="-264.5" font-family="Helvetica,sans-Serif" font-size="10.00">UCarlaEpisode::EndPlay</text>
</a>
</g>
</g>
<!-- Node24&#45;&gt;Node25 -->
<g id="edge26_Node000024_Node000025" class="edge">
<title>Node24&#45;&gt;Node25</title>
<g id="a_edge26_Node000024_Node000025"><a xlink:title=" ">
<path fill="none" stroke="#63b8ff" d="M693.89,-240.14C671.86,-245.78 646.49,-252.27 625.78,-257.57"/>
<polygon fill="#63b8ff" stroke="#63b8ff" points="694.58,-243.32 703.4,-237.45 692.84,-236.54 694.58,-243.32"/>
</a>
</g>
</g>
<!-- Node27 -->
<g id="Node000027" class="node">
<title>Node27</title>
<g id="a_Node000027"><a xlink:href="../../dd/db9/classACarlaRecorder.html#aba719596bd56c72a39f902f6e9a5d290" target="_top" xlink:title=" ">
<polygon fill="white" stroke="#666666" points="639.62,-354 528.38,-354 528.38,-334 639.62,-334 639.62,-354"/>
<text text-anchor="middle" x="584" y="-340.5" font-family="Helvetica,sans-Serif" font-size="10.00">ACarlaRecorder::Start</text>
</a>
</g>
</g>
<!-- Node24&#45;&gt;Node27 -->
<g id="edge30_Node000024_Node000027" class="edge">
<title>Node24&#45;&gt;Node27</title>
<g id="a_edge30_Node000024_Node000027"><a xlink:title=" ">
<path fill="none" stroke="#63b8ff" d="M732.06,-246.19C716.73,-267.15 689.56,-300.34 658.75,-320 649.9,-325.65 639.59,-330.09 629.54,-333.52"/>
<polygon fill="#63b8ff" stroke="#63b8ff" points="735.48,-248.44 738.43,-238.26 729.77,-244.38 735.48,-248.44"/>
</a>
</g>
</g>
<!-- Node29 -->
<g id="Node000029" class="node">
<title>Node29</title>
<g id="a_Node000029"><a xlink:href="../../dd/db9/classACarlaRecorder.html#a33fb5180defd8c9c1d3063eff52c7a37" target="_top" xlink:title=" ">
<polygon fill="white" stroke="#666666" points="473.25,-316 324.5,-316 324.5,-296 473.25,-296 473.25,-316"/>
<text text-anchor="middle" x="398.88" y="-302.5" font-family="Helvetica,sans-Serif" font-size="10.00">ACarlaRecorder::StopReplayer</text>
</a>
</g>
</g>
<!-- Node24&#45;&gt;Node29 -->
<g id="edge33_Node000024_Node000029" class="edge">
<title>Node24&#45;&gt;Node29</title>
<g id="a_edge33_Node000024_Node000029"><a xlink:title=" ">
<path fill="none" stroke="#63b8ff" d="M726.4,-244.59C709.91,-258.79 684.63,-277.85 658.75,-287 598.95,-308.14 526.65,-311.78 473.68,-310.77"/>
<polygon fill="#63b8ff" stroke="#63b8ff" points="728.45,-247.56 733.59,-238.3 723.8,-242.33 728.45,-247.56"/>
</a>
</g>
</g>
<!-- Node30 -->
<g id="Node000030" class="node">
<title>Node30</title>
<g id="a_Node000030"><a xlink:href="../../dc/dc6/classCarlaReplayer.html#a6dadadd7719c5e660d2e3d99b22f5961" target="_top" xlink:title=" ">
<polygon fill="white" stroke="#666666" points="658.75,-240 509.25,-240 509.25,-220 658.75,-220 658.75,-240"/>
<text text-anchor="middle" x="584" y="-226.5" font-family="Helvetica,sans-Serif" font-size="10.00">CarlaReplayer::~CarlaReplayer</text>
</a>
</g>
</g>
<!-- Node24&#45;&gt;Node30 -->
<g id="edge35_Node000024_Node000030" class="edge">
<title>Node24&#45;&gt;Node30</title>
<g id="a_edge35_Node000024_Node000030"><a xlink:title=" ">
<path fill="none" stroke="#63b8ff" d="M683.74,-228.15C675.67,-228.3 667.34,-228.46 659.09,-228.61"/>
<polygon fill="#63b8ff" stroke="#63b8ff" points="683.61,-231.64 693.55,-227.95 683.48,-224.64 683.61,-231.64"/>
</a>
</g>
</g>
<!-- Node26 -->
<g id="Node000026" class="node">
<title>Node26</title>
<g id="a_Node000026"><a xlink:href="../../db/de5/classACarlaGameModeBase.html#a8e61df047eac428453a627a6de9ace75" target="_top" xlink:title=" ">
<polygon fill="white" stroke="#666666" points="457.88,-278 339.88,-278 339.88,-246 457.88,-246 457.88,-278"/>
<text text-anchor="start" x="347.88" y="-264.5" font-family="Helvetica,sans-Serif" font-size="10.00">ACarlaGameModeBase</text>
<text text-anchor="middle" x="398.88" y="-252.5" font-family="Helvetica,sans-Serif" font-size="10.00">::EndPlay</text>
</a>
</g>
</g>
<!-- Node25&#45;&gt;Node26 -->
<g id="edge27_Node000025_Node000026" class="edge">
<title>Node25&#45;&gt;Node26</title>
<g id="a_edge27_Node000025_Node000026"><a xlink:title=" ">
<path fill="none" stroke="#63b8ff" d="M511.22,-265.65C493.61,-265.07 474.98,-264.46 458.1,-263.91"/>
<polygon fill="#63b8ff" stroke="#63b8ff" points="510.91,-269.17 521.02,-266 511.14,-262.18 510.91,-269.17"/>
</a>
</g>
</g>
<!-- Node28 -->
<g id="Node000028" class="node">
<title>Node28</title>
<g id="a_Node000028"><a xlink:href="../../dc/d84/classUCarlaEpisode.html#a1059ce6d102804115b3243de46d46bec" target="_top" xlink:title=" ">
<polygon fill="white" stroke="#666666" points="472.12,-354 325.62,-354 325.62,-334 472.12,-334 472.12,-354"/>
<text text-anchor="middle" x="398.88" y="-340.5" font-family="Helvetica,sans-Serif" font-size="10.00">UCarlaEpisode::StartRecorder</text>
</a>
</g>
</g>
<!-- Node27&#45;&gt;Node28 -->
<g id="edge31_Node000027_Node000028" class="edge">
<title>Node27&#45;&gt;Node28</title>
<g id="a_edge31_Node000027_Node000028"><a xlink:title=" ">
<path fill="none" stroke="#63b8ff" d="M517.16,-344C502.64,-344 487.18,-344 472.41,-344"/>
<polygon fill="#63b8ff" stroke="#63b8ff" points="517.06,-347.5 527.06,-344 517.06,-340.5 517.06,-347.5"/>
</a>
</g>
</g>
<!-- Node28&#45;&gt;Node10 -->
<g id="edge32_Node000028_Node000010" class="edge">
<title>Node28&#45;&gt;Node10</title>
<g id="a_edge32_Node000028_Node000010"><a xlink:title=" ">
<path fill="none" stroke="#63b8ff" d="M333.28,-329.54C330.24,-328.16 327.3,-326.65 324.5,-325 281.89,-299.88 245.46,-252.93 228.14,-228.2"/>
<polygon fill="#63b8ff" stroke="#63b8ff" points="331.61,-333.05 342.2,-333.52 334.22,-326.55 331.61,-333.05"/>
</a>
</g>
</g>
<!-- Node29&#45;&gt;Node10 -->
<g id="edge34_Node000029_Node000010" class="edge">
<title>Node29&#45;&gt;Node10</title>
<g id="a_edge34_Node000029_Node000010"><a xlink:title=" ">
<path fill="none" stroke="#63b8ff" d="M337.33,-292.19C332.92,-290.62 328.6,-288.89 324.5,-287 290.9,-271.5 256.65,-245.33 236.21,-228.37"/>
<polygon fill="#63b8ff" stroke="#63b8ff" points="336.11,-295.8 346.7,-295.57 338.28,-289.14 336.11,-295.8"/>
</a>
</g>
</g>
<!-- Node31&#45;&gt;Node31 -->
<g id="edge37_Node000031_Node000031" class="edge">
<title>Node31&#45;&gt;Node31</title>
<g id="a_edge37_Node000031_Node000031"><a xlink:title=" ">
<path fill="none" stroke="#63b8ff" d="M775.5,-109.77C772.31,-113.98 762.56,-117 746.25,-117 718.05,-117 709.45,-107.98 720.47,-99.34"/>
<polygon fill="#63b8ff" stroke="#63b8ff" points="778.51,-108.72 772.03,-100.34 771.87,-110.93 778.51,-108.72"/>
</a>
</g>
</g>
<!-- Node32 -->
<g id="Node000032" class="node">
<title>Node32</title>
<g id="a_Node000032"><a xlink:href="../../dd/db9/classACarlaRecorder.html#a1074f19dfe5b16a9e10b24ef35b26abc" target="_top" xlink:title=" ">
<polygon fill="white" stroke="#666666" points="644.5,-96 523.5,-96 523.5,-76 644.5,-76 644.5,-96"/>
<text text-anchor="middle" x="584" y="-82.5" font-family="Helvetica,sans-Serif" font-size="10.00">ACarlaRecorder::Ticking</text>
</a>
</g>
</g>
<!-- Node31&#45;&gt;Node32 -->
<g id="edge38_Node000031_Node000032" class="edge">
<title>Node31&#45;&gt;Node32</title>
<g id="a_edge38_Node000031_Node000032"><a xlink:title=" ">
<path fill="none" stroke="#63b8ff" d="M684.69,-87.87C671.68,-87.62 657.93,-87.37 644.93,-87.12"/>
<polygon fill="#63b8ff" stroke="#63b8ff" points="684.36,-91.38 694.42,-88.07 684.49,-84.38 684.36,-91.38"/>
</a>
</g>
</g>
<!-- Node32&#45;&gt;Node7 -->
<g id="edge39_Node000032_Node000007" class="edge">
<title>Node32&#45;&gt;Node7</title>
<g id="a_edge39_Node000032_Node000007"><a xlink:title=" ">
<path fill="none" stroke="#63b8ff" d="M547.86,-71.41C511.85,-56.47 456.77,-33.61 424.94,-20.4"/>
<polygon fill="#63b8ff" stroke="#63b8ff" points="546.34,-74.99 556.92,-75.59 549.03,-68.53 546.34,-74.99"/>
</a>
</g>
</g>
<!-- Node32&#45;&gt;Node32 -->
<g id="edge40_Node000032_Node000032" class="edge">
<title>Node32&#45;&gt;Node32</title>
<g id="a_edge40_Node000032_Node000032"><a xlink:title=" ">
<path fill="none" stroke="#63b8ff" d="M613.25,-106.77C610.06,-110.98 600.31,-114 584,-114 555.8,-114 547.2,-104.98 558.22,-96.34"/>
<polygon fill="#63b8ff" stroke="#63b8ff" points="616.26,-105.72 609.78,-97.34 609.62,-107.93 616.26,-105.72"/>
</a>
</g>
</g>
<!-- Node34 -->
<g id="Node000034" class="node">
<title>Node34</title>
<g id="a_Node000034"><a xlink:href="../../dd/db9/classACarlaRecorder.html#a3cd13249c0427d5c5e0c93cedf4bbf02" target="_top" xlink:title=" ">
<polygon fill="white" stroke="#666666" points="2125.5,-120 1994.75,-120 1994.75,-88 2125.5,-88 2125.5,-120"/>
<text text-anchor="start" x="2002.75" y="-106.5" font-family="Helvetica,sans-Serif" font-size="10.00">ACarlaRecorder::AddActor</text>
<text text-anchor="middle" x="2060.12" y="-94.5" font-family="Helvetica,sans-Serif" font-size="10.00">BoundingBox</text>
</a>
</g>
</g>
<!-- Node33&#45;&gt;Node34 -->
<g id="edge42_Node000033_Node000034" class="edge">
<title>Node33&#45;&gt;Node34</title>
<g id="a_edge42_Node000033_Node000034"><a xlink:title=" ">
<path fill="none" stroke="#63b8ff" d="M2172.1,-102.37C2156.43,-102.6 2140.48,-102.83 2125.73,-103.05"/>
<polygon fill="#63b8ff" stroke="#63b8ff" points="2171.94,-105.85 2181.88,-102.21 2171.83,-98.85 2171.94,-105.85"/>
</a>
</g>
</g>
<!-- Node35 -->
<g id="Node000035" class="node">
<title>Node35</title>
<g id="a_Node000035"><a xlink:href="../../dd/db9/classACarlaRecorder.html#acdf4f82056d66973371c281304a3a154" target="_top" xlink:title=" ">
<polygon fill="white" stroke="#666666" points="1937,-122 1779.25,-122 1779.25,-90 1937,-90 1937,-122"/>
<text text-anchor="start" x="1787.25" y="-108.5" font-family="Helvetica,sans-Serif" font-size="10.00">ACarlaRecorder::CreateRecorder</text>
<text text-anchor="middle" x="1858.12" y="-96.5" font-family="Helvetica,sans-Serif" font-size="10.00">EventAdd</text>
</a>
</g>
</g>
<!-- Node34&#45;&gt;Node35 -->
<g id="edge43_Node000034_Node000035" class="edge">
<title>Node34&#45;&gt;Node35</title>
<g id="a_edge43_Node000034_Node000035"><a xlink:title=" ">
<path fill="none" stroke="#63b8ff" d="M1983.58,-104.76C1968.41,-104.91 1952.44,-105.07 1937.18,-105.22"/>
<polygon fill="#63b8ff" stroke="#63b8ff" points="1983.5,-108.25 1993.47,-104.65 1983.43,-101.25 1983.5,-108.25"/>
</a>
</g>
</g>
<!-- Node35&#45;&gt;Node9 -->
<g id="edge46_Node000035_Node000009" class="edge">
<title>Node35&#45;&gt;Node9</title>
<g id="a_edge46_Node000035_Node000009"><a xlink:title=" ">
<path fill="none" stroke="#63b8ff" d="M1768.27,-99.5C1757,-98.68 1745.6,-97.84 1734.71,-97.04"/>
<polygon fill="#63b8ff" stroke="#63b8ff" points="1767.78,-103.05 1778.01,-100.29 1768.29,-96.07 1767.78,-103.05"/>
</a>
</g>
</g>
<!-- Node36 -->
<g id="Node000036" class="node">
<title>Node36</title>
<g id="a_Node000036"><a xlink:href="../../dd/db9/classACarlaRecorder.html#a820569404a522e28f6c4d3d638712214" target="_top" xlink:title=" ">
<polygon fill="white" stroke="#666666" points="980.25,-241 837.5,-241 837.5,-209 980.25,-209 980.25,-241"/>
<text text-anchor="start" x="845.5" y="-227.5" font-family="Helvetica,sans-Serif" font-size="10.00">ACarlaRecorder::AddExisting</text>
<text text-anchor="middle" x="908.88" y="-215.5" font-family="Helvetica,sans-Serif" font-size="10.00">Actors</text>
</a>
</g>
</g>
<!-- Node35&#45;&gt;Node36 -->
<g id="edge44_Node000035_Node000036" class="edge">
<title>Node35&#45;&gt;Node36</title>
<g id="a_edge44_Node000035_Node000036"><a xlink:title=" ">
<path fill="none" stroke="#63b8ff" d="M1810.35,-126.58C1740.05,-155.59 1602.34,-205 1479.88,-205 1479.88,-205 1479.88,-205 1295.38,-205 1185.3,-205 1057.78,-213.23 980.52,-219.13"/>
<polygon fill="#63b8ff" stroke="#63b8ff" points="1811.34,-129.54 1819.22,-122.46 1808.64,-123.08 1811.34,-129.54"/>
</a>
</g>
</g>
<!-- Node36&#45;&gt;Node27 -->
<g id="edge45_Node000036_Node000027" class="edge">
<title>Node36&#45;&gt;Node27</title>
<g id="a_edge45_Node000036_Node000027"><a xlink:title=" ">
<path fill="none" stroke="#63b8ff" d="M853.03,-245.21C783.7,-270.77 666.93,-313.8 613.38,-333.54"/>
<polygon fill="#63b8ff" stroke="#63b8ff" points="854.15,-248.16 862.32,-241.42 851.73,-241.6 854.15,-248.16"/>
</a>
</g>
</g>
</g>
</svg>
