<?xml version="1.0" encoding="UTF-8" standalone="no"?>
<!DOCTYPE svg PUBLIC "-//W3C//DTD SVG 1.1//EN"
 "http://www.w3.org/Graphics/SVG/1.1/DTD/svg11.dtd">
<!-- Generated by graphviz version 8.1.0 (20230707.0739)
 -->
<!-- Title: CarlaRecorderAnimBikers::Add Pages: 1 -->
<svg width="718pt" height="137pt"
 viewBox="0.00 0.00 717.75 137.00" xmlns="http://www.w3.org/2000/svg" xmlns:xlink="http://www.w3.org/1999/xlink">
<g id="graph0" class="graph" transform="scale(1 1) rotate(0) translate(4 133)">
<title>CarlaRecorderAnimBikers::Add</title>
<!-- Node1 -->
<g id="Node000001" class="node">
<title>Node1</title>
<g id="a_Node000001"><a xlink:title=" ">
<polygon fill="#999999" stroke="#666666" points="709.75,-70 558.75,-70 558.75,-50 709.75,-50 709.75,-70"/>
<text text-anchor="middle" x="634.25" y="-56.5" font-family="Helvetica,sans-Serif" font-size="10.00">CarlaRecorderAnimBikers::Add</text>
</a>
</g>
</g>
<!-- Node2 -->
<g id="Node000002" class="node">
<title>Node2</title>
<g id="a_Node000002"><a xlink:href="../../de/db4/classFFrameData.html#a3298f337e68ddd4be6a2e9a38263230c" target="_top" xlink:title=" ">
<polygon fill="white" stroke="#666666" points="515.62,-115 377.38,-115 377.38,-95 515.62,-95 515.62,-115"/>
<text text-anchor="middle" x="446.5" y="-101.5" font-family="Helvetica,sans-Serif" font-size="10.00">FFrameData::AddAnimBiker</text>
</a>
</g>
</g>
<!-- Node1&#45;&gt;Node2 -->
<g id="edge1_Node000001_Node000002" class="edge">
<title>Node1&#45;&gt;Node2</title>
<g id="a_edge1_Node000001_Node000002"><a xlink:title=" ">
<path fill="none" stroke="#63b8ff" d="M579.66,-72.98C551.4,-79.83 517.2,-88.11 490.67,-94.54"/>
<polygon fill="#63b8ff" stroke="#63b8ff" points="580.27,-76.19 589.17,-70.44 578.63,-69.39 580.27,-76.19"/>
</a>
</g>
</g>
<!-- Node5 -->
<g id="Node000005" class="node">
<title>Node5</title>
<g id="a_Node000005"><a xlink:href="../../dd/db9/classACarlaRecorder.html#aa931707cf25383858ed41c56764c7e5d" target="_top" xlink:title=" ">
<polygon fill="white" stroke="#666666" points="522.75,-70 370.25,-70 370.25,-50 522.75,-50 522.75,-70"/>
<text text-anchor="middle" x="446.5" y="-56.5" font-family="Helvetica,sans-Serif" font-size="10.00">ACarlaRecorder::AddAnimBiker</text>
</a>
</g>
</g>
<!-- Node1&#45;&gt;Node5 -->
<g id="edge4_Node000001_Node000005" class="edge">
<title>Node1&#45;&gt;Node5</title>
<g id="a_edge4_Node000001_Node000005"><a xlink:title=" ">
<path fill="none" stroke="#63b8ff" d="M547.72,-60C539.47,-60 531.15,-60 523,-60"/>
<polygon fill="#63b8ff" stroke="#63b8ff" points="547.5,-63.5 557.5,-60 547.5,-56.5 547.5,-63.5"/>
</a>
</g>
</g>
<!-- Node8 -->
<g id="Node000008" class="node">
<title>Node8</title>
<g id="a_Node000008"><a xlink:href="../../da/d46/classCarlaRecorderAnimBikers.html#acfc22c11c50432f5c647248954460b37" target="_top" xlink:title=" ">
<polygon fill="white" stroke="#666666" points="510.38,-32 382.62,-32 382.62,0 510.38,0 510.38,-32"/>
<text text-anchor="start" x="390.62" y="-18.5" font-family="Helvetica,sans-Serif" font-size="10.00">CarlaRecorderAnimBikers</text>
<text text-anchor="middle" x="446.5" y="-6.5" font-family="Helvetica,sans-Serif" font-size="10.00">::Read</text>
</a>
</g>
</g>
<!-- Node1&#45;&gt;Node8 -->
<g id="edge8_Node000001_Node000008" class="edge">
<title>Node1&#45;&gt;Node8</title>
<g id="a_edge8_Node000001_Node000008"><a xlink:title=" ">
<path fill="none" stroke="#63b8ff" d="M578.71,-47.08C557.33,-42.02 532.67,-36.17 510.54,-30.93"/>
<polygon fill="#63b8ff" stroke="#63b8ff" points="577.69,-50.67 588.23,-49.57 579.31,-43.86 577.69,-50.67"/>
</a>
</g>
</g>
<!-- Node3 -->
<g id="Node000003" class="node">
<title>Node3</title>
<g id="a_Node000003"><a xlink:href="../../de/db4/classFFrameData.html#a4b746433bc48707916f2dd4424fa5adb" target="_top" xlink:title=" ">
<polygon fill="white" stroke="#666666" points="334.25,-129 175.75,-129 175.75,-97 334.25,-97 334.25,-129"/>
<text text-anchor="start" x="183.75" y="-115.5" font-family="Helvetica,sans-Serif" font-size="10.00">FFrameData::AddVehicleWheels</text>
<text text-anchor="middle" x="255" y="-103.5" font-family="Helvetica,sans-Serif" font-size="10.00">Animation</text>
</a>
</g>
</g>
<!-- Node2&#45;&gt;Node3 -->
<g id="edge2_Node000002_Node000003" class="edge">
<title>Node2&#45;&gt;Node3</title>
<g id="a_edge2_Node000002_Node000003"><a xlink:title=" ">
<path fill="none" stroke="#63b8ff" d="M366.29,-108.34C355.81,-108.79 345.08,-109.24 334.62,-109.68"/>
<polygon fill="#63b8ff" stroke="#63b8ff" points="366.24,-111.81 376.09,-107.89 365.95,-104.81 366.24,-111.81"/>
</a>
</g>
</g>
<!-- Node4 -->
<g id="Node000004" class="node">
<title>Node4</title>
<g id="a_Node000004"><a xlink:href="../../de/db4/classFFrameData.html#a13396099d7e1c32df563893f7d0b35be" target="_top" xlink:title=" ">
<polygon fill="white" stroke="#666666" points="139.75,-124 0,-124 0,-104 139.75,-104 139.75,-124"/>
<text text-anchor="middle" x="69.88" y="-110.5" font-family="Helvetica,sans-Serif" font-size="10.00">FFrameData::GetFrameData</text>
</a>
</g>
</g>
<!-- Node3&#45;&gt;Node4 -->
<g id="edge3_Node000003_Node000004" class="edge">
<title>Node3&#45;&gt;Node4</title>
<g id="a_edge3_Node000003_Node000004"><a xlink:title=" ">
<path fill="none" stroke="#63b8ff" d="M164.5,-113.49C156.27,-113.53 148.02,-113.58 140.02,-113.62"/>
<polygon fill="#63b8ff" stroke="#63b8ff" points="164.3,-116.98 174.28,-113.43 164.26,-109.98 164.3,-116.98"/>
</a>
</g>
</g>
<!-- Node6 -->
<g id="Node000006" class="node">
<title>Node6</title>
<g id="a_Node000006"><a xlink:href="../../dd/db9/classACarlaRecorder.html#a1addd4df329443d82bf3e1f9e2dbcc07" target="_top" xlink:title=" ">
<polygon fill="white" stroke="#666666" points="324.88,-76 185.12,-76 185.12,-44 324.88,-44 324.88,-76"/>
<text text-anchor="start" x="193.12" y="-62.5" font-family="Helvetica,sans-Serif" font-size="10.00">ACarlaRecorder::AddVehicle</text>
<text text-anchor="middle" x="255" y="-50.5" font-family="Helvetica,sans-Serif" font-size="10.00">WheelsAnimation</text>
</a>
</g>
</g>
<!-- Node5&#45;&gt;Node6 -->
<g id="edge5_Node000005_Node000006" class="edge">
<title>Node5&#45;&gt;Node6</title>
<g id="a_edge5_Node000005_Node000006"><a xlink:title=" ">
<path fill="none" stroke="#63b8ff" d="M358.99,-60C347.64,-60 336.15,-60 325.15,-60"/>
<polygon fill="#63b8ff" stroke="#63b8ff" points="358.79,-63.5 368.79,-60 358.79,-56.5 358.79,-63.5"/>
</a>
</g>
</g>
<!-- Node7 -->
<g id="Node000007" class="node">
<title>Node7</title>
<g id="a_Node000007"><a xlink:href="../../dd/db9/classACarlaRecorder.html#a1074f19dfe5b16a9e10b24ef35b26abc" target="_top" xlink:title=" ">
<polygon fill="white" stroke="#666666" points="130.38,-68 9.38,-68 9.38,-48 130.38,-48 130.38,-68"/>
<text text-anchor="middle" x="69.88" y="-54.5" font-family="Helvetica,sans-Serif" font-size="10.00">ACarlaRecorder::Ticking</text>
</a>
</g>
</g>
<!-- Node6&#45;&gt;Node7 -->
<g id="edge6_Node000006_Node000007" class="edge">
<title>Node6&#45;&gt;Node7</title>
<g id="a_edge6_Node000006_Node000007"><a xlink:title=" ">
<path fill="none" stroke="#63b8ff" d="M173.78,-59.12C159.28,-58.97 144.4,-58.8 130.62,-58.65"/>
<polygon fill="#63b8ff" stroke="#63b8ff" points="173.73,-62.63 183.77,-59.24 173.81,-55.63 173.73,-62.63"/>
</a>
</g>
</g>
<!-- Node7&#45;&gt;Node7 -->
<g id="edge7_Node000007_Node000007" class="edge">
<title>Node7&#45;&gt;Node7</title>
<g id="a_edge7_Node000007_Node000007"><a xlink:title=" ">
<path fill="none" stroke="#63b8ff" d="M103.53,-78.43C100.2,-82.82 88.98,-86 69.88,-86 37.7,-86 27.89,-76.98 40.46,-68.34"/>
<polygon fill="#63b8ff" stroke="#63b8ff" points="106.39,-77.2 99.29,-69.34 99.94,-79.91 106.39,-77.2"/>
</a>
</g>
</g>
<!-- Node9 -->
<g id="Node000009" class="node">
<title>Node9</title>
<g id="a_Node000009"><a xlink:href="../../de/db4/classFFrameData.html#a1d60d134d0c4ed720a5dbfc8688559ce" target="_top" xlink:title=" ">
<polygon fill="white" stroke="#666666" points="304.25,-26 205.75,-26 205.75,-6 304.25,-6 304.25,-26"/>
<text text-anchor="middle" x="255" y="-12.5" font-family="Helvetica,sans-Serif" font-size="10.00">FFrameData::Read</text>
</a>
</g>
</g>
<!-- Node8&#45;&gt;Node9 -->
<g id="edge9_Node000008_Node000009" class="edge">
<title>Node8&#45;&gt;Node9</title>
<g id="a_edge9_Node000008_Node000009"><a xlink:title=" ">
<path fill="none" stroke="#63b8ff" d="M371.29,-16C348.89,-16 324.89,-16 304.61,-16"/>
<polygon fill="#63b8ff" stroke="#63b8ff" points="371.14,-19.5 381.14,-16 371.14,-12.5 371.14,-19.5"/>
</a>
</g>
</g>
</g>
</svg>
