<?xml version="1.0" encoding="UTF-8" standalone="no"?>
<!DOCTYPE svg PUBLIC "-//W3C//DTD SVG 1.1//EN"
 "http://www.w3.org/Graphics/SVG/1.1/DTD/svg11.dtd">
<!-- Generated by graphviz version 8.1.0 (20230707.0739)
 -->
<!-- Title: moodycamel::ConcurrentQueue::ConcurrentQueue Pages: 1 -->
<svg width="346pt" height="90pt"
 viewBox="0.00 0.00 346.00 90.00" xmlns="http://www.w3.org/2000/svg" xmlns:xlink="http://www.w3.org/1999/xlink">
<g id="graph0" class="graph" transform="scale(1 1) rotate(0) translate(4 86)">
<title>moodycamel::ConcurrentQueue::ConcurrentQueue</title>
<!-- Node1 -->
<g id="Node000001" class="node">
<title>Node1</title>
<g id="a_Node000001"><a xlink:title=" ">
<polygon fill="#999999" stroke="#666666" points="153.25,-57 0,-57 0,-25 153.25,-25 153.25,-57"/>
<text text-anchor="start" x="8" y="-43.5" font-family="Helvetica,sans-Serif" font-size="10.00">moodycamel::ConcurrentQueue</text>
<text text-anchor="middle" x="76.62" y="-31.5" font-family="Helvetica,sans-Serif" font-size="10.00">::ConcurrentQueue</text>
</a>
</g>
</g>
<!-- Node2 -->
<g id="Node000002" class="node">
<title>Node2</title>
<g id="a_Node000002"><a xlink:href="../../db/dc8/namespacemoodycamel.html#aaaa5915d6bfbbce598ca9dc10f4339a8" target="_top" xlink:title=" ">
<polygon fill="white" stroke="#666666" points="320.75,-82 206.5,-82 206.5,-50 320.75,-50 320.75,-82"/>
<text text-anchor="start" x="214.5" y="-68.5" font-family="Helvetica,sans-Serif" font-size="10.00">moodycamel::populate</text>
<text text-anchor="middle" x="263.62" y="-56.5" font-family="Helvetica,sans-Serif" font-size="10.00">_initial_block_list</text>
</a>
</g>
</g>
<!-- Node1&#45;&gt;Node2 -->
<g id="edge1_Node000001_Node000002" class="edge">
<title>Node1&#45;&gt;Node2</title>
<g id="a_edge1_Node000001_Node000002"><a xlink:title=" ">
<path fill="none" stroke="#63b8ff" d="M153.67,-51.28C167.51,-53.15 181.86,-55.09 195.42,-56.92"/>
<polygon fill="#63b8ff" stroke="#63b8ff" points="194.73,-60.49 205.11,-58.36 195.66,-53.55 194.73,-60.49"/>
</a>
</g>
</g>
<!-- Node3 -->
<g id="Node000003" class="node">
<title>Node3</title>
<g id="a_Node000003"><a xlink:href="../../db/dc8/namespacemoodycamel.html#a93c85ac0e076c0423ed567a7407bf48d" target="_top" xlink:title=" ">
<polygon fill="white" stroke="#666666" points="338,-32 189.25,-32 189.25,0 338,0 338,-32"/>
<text text-anchor="start" x="197.25" y="-18.5" font-family="Helvetica,sans-Serif" font-size="10.00">moodycamel::populate</text>
<text text-anchor="middle" x="263.62" y="-6.5" font-family="Helvetica,sans-Serif" font-size="10.00">_initial_implicit_producer_hash</text>
</a>
</g>
</g>
<!-- Node1&#45;&gt;Node3 -->
<g id="edge2_Node000001_Node000003" class="edge">
<title>Node1&#45;&gt;Node3</title>
<g id="a_edge2_Node000001_Node000003"><a xlink:title=" ">
<path fill="none" stroke="#63b8ff" d="M153.67,-30.72C161.78,-29.63 170.06,-28.51 178.26,-27.4"/>
<polygon fill="#63b8ff" stroke="#63b8ff" points="178.52,-30.76 187.96,-25.95 177.58,-23.83 178.52,-30.76"/>
</a>
</g>
</g>
</g>
</svg>
