<?xml version="1.0" encoding="UTF-8" standalone="no"?>
<!DOCTYPE svg PUBLIC "-//W3C//DTD SVG 1.1//EN"
 "http://www.w3.org/Graphics/SVG/1.1/DTD/svg11.dtd">
<!-- Generated by graphviz version 8.1.0 (20230707.0739)
 -->
<!-- Title: carla::client::Vehicle::GetTrafficLightState Pages: 1 -->
<svg width="279pt" height="90pt"
 viewBox="0.00 0.00 279.25 90.00" xmlns="http://www.w3.org/2000/svg" xmlns:xlink="http://www.w3.org/1999/xlink">
<g id="graph0" class="graph" transform="scale(1 1) rotate(0) translate(4 86)">
<title>carla::client::Vehicle::GetTrafficLightState</title>
<!-- Node1 -->
<g id="Node000001" class="node">
<title>Node1</title>
<g id="a_Node000001"><a xlink:title="返回当前影响该车辆的交通灯的状态.">
<polygon fill="#999999" stroke="#666666" points="107.5,-57 0,-57 0,-25 107.5,-25 107.5,-57"/>
<text text-anchor="start" x="8" y="-43.5" font-family="Helvetica,sans-Serif" font-size="10.00">carla::client::Vehicle</text>
<text text-anchor="middle" x="53.75" y="-31.5" font-family="Helvetica,sans-Serif" font-size="10.00">::GetTrafficLightState</text>
</a>
</g>
</g>
<!-- Node2 -->
<g id="Node000002" class="node">
<title>Node2</title>
<g id="a_Node000002"><a xlink:href="../../d2/d06/classcarla_1_1client_1_1detail_1_1ActorState.html#a520d5ef7284ded86a1d96a346f3516aa" target="_top" xlink:title=" ">
<polygon fill="white" stroke="#666666" points="270.12,-82 144.62,-82 144.62,-50 270.12,-50 270.12,-82"/>
<text text-anchor="start" x="152.62" y="-68.5" font-family="Helvetica,sans-Serif" font-size="10.00">carla::client::detail</text>
<text text-anchor="middle" x="207.38" y="-56.5" font-family="Helvetica,sans-Serif" font-size="10.00">::ActorState::GetEpisode</text>
</a>
</g>
</g>
<!-- Node1&#45;&gt;Node2 -->
<g id="edge1_Node000001_Node000002" class="edge">
<title>Node1&#45;&gt;Node2</title>
<g id="a_edge1_Node000001_Node000002"><a xlink:title=" ">
<path fill="none" stroke="#63b8ff" d="M107.78,-49.74C116.16,-51.13 124.95,-52.57 133.68,-54.01"/>
<polygon fill="#63b8ff" stroke="#63b8ff" points="132.84,-57.59 143.27,-55.76 133.98,-50.68 132.84,-57.59"/>
</a>
</g>
</g>
<!-- Node3 -->
<g id="Node000003" class="node">
<title>Node3</title>
<g id="a_Node000003"><a xlink:href="../../d1/dd3/classcarla_1_1client_1_1detail_1_1EpisodeProxyImpl.html#aaca857645fbeb6546b4a03a663bb65af" target="_top" xlink:title="与 TryLock 相同，但永远不会返回 nullptr。">
<polygon fill="white" stroke="#666666" points="271.25,-32 143.5,-32 143.5,0 271.25,0 271.25,-32"/>
<text text-anchor="start" x="151.5" y="-18.5" font-family="Helvetica,sans-Serif" font-size="10.00">carla::client::detail</text>
<text text-anchor="middle" x="207.38" y="-6.5" font-family="Helvetica,sans-Serif" font-size="10.00">::EpisodeProxyImpl::Lock</text>
</a>
</g>
</g>
<!-- Node1&#45;&gt;Node3 -->
<g id="edge2_Node000001_Node000003" class="edge">
<title>Node1&#45;&gt;Node3</title>
<g id="a_edge2_Node000001_Node000003"><a xlink:title=" ">
<path fill="none" stroke="#63b8ff" d="M107.78,-32.26C115.83,-30.93 124.25,-29.54 132.64,-28.16"/>
<polygon fill="#63b8ff" stroke="#63b8ff" points="132.92,-31.49 142.22,-26.41 131.78,-24.59 132.92,-31.49"/>
</a>
</g>
</g>
</g>
</svg>
