<?xml version="1.0" encoding="UTF-8" standalone="no"?>
<!DOCTYPE svg PUBLIC "-//W3C//DTD SVG 1.1//EN"
 "http://www.w3.org/Graphics/SVG/1.1/DTD/svg11.dtd">
<!-- Generated by graphviz version 8.1.0 (20230707.0739)
 -->
<!-- Title: carla_msgs::msg::LaneInvasionEventPubSubType::getSerializedSizeProvider Pages: 1 -->
<svg width="763pt" height="140pt"
 viewBox="0.00 0.00 762.75 140.00" xmlns="http://www.w3.org/2000/svg" xmlns:xlink="http://www.w3.org/1999/xlink">
<g id="graph0" class="graph" transform="scale(1 1) rotate(0) translate(4 136)">
<title>carla_msgs::msg::LaneInvasionEventPubSubType::getSerializedSizeProvider</title>
<!-- Node1 -->
<g id="Node000001" class="node">
<title>Node1</title>
<g id="a_Node000001"><a xlink:title=" ">
<polygon fill="#999999" stroke="#666666" points="177.25,-88 0,-88 0,-44 177.25,-44 177.25,-88"/>
<text text-anchor="start" x="8" y="-74.5" font-family="Helvetica,sans-Serif" font-size="10.00">carla_msgs::msg::LaneInvasion</text>
<text text-anchor="start" x="8" y="-62.5" font-family="Helvetica,sans-Serif" font-size="10.00">EventPubSubType::getSerializedSize</text>
<text text-anchor="middle" x="88.62" y="-50.5" font-family="Helvetica,sans-Serif" font-size="10.00">Provider</text>
</a>
</g>
</g>
<!-- Node2 -->
<g id="Node000002" class="node">
<title>Node2</title>
<g id="a_Node000002"><a xlink:href="../../d0/de1/classcarla__msgs_1_1msg_1_1LaneInvasionEvent.html#a6bdfb92f9fba44d0deb3f2419c8463a8" target="_top" xlink:title="This function returns the serialized size of a data depending on the buffer alignment.">
<polygon fill="white" stroke="#666666" points="365.75,-82 213.25,-82 213.25,-50 365.75,-50 365.75,-82"/>
<text text-anchor="start" x="221.25" y="-68.5" font-family="Helvetica,sans-Serif" font-size="10.00">carla_msgs::msg::LaneInvasion</text>
<text text-anchor="middle" x="289.5" y="-56.5" font-family="Helvetica,sans-Serif" font-size="10.00">Event::getCdrSerializedSize</text>
</a>
</g>
</g>
<!-- Node1&#45;&gt;Node2 -->
<g id="edge1_Node000001_Node000002" class="edge">
<title>Node1&#45;&gt;Node2</title>
<g id="a_edge1_Node000001_Node000002"><a xlink:title=" ">
<path fill="none" stroke="#63b8ff" d="M177.72,-66C185.79,-66 193.97,-66 202.02,-66"/>
<polygon fill="#63b8ff" stroke="#63b8ff" points="201.92,-69.5 211.92,-66 201.92,-62.5 201.92,-69.5"/>
</a>
</g>
</g>
<!-- Node3 -->
<g id="Node000003" class="node">
<title>Node3</title>
<g id="a_Node000003"><a xlink:href="../../d0/de1/classcarla__msgs_1_1msg_1_1LaneInvasionEvent.html#a33a941e9ee7c472df9388e1833db255b" target="_top" xlink:title="This function copies the value in member crossed_lane_markings">
<polygon fill="white" stroke="#666666" points="554.25,-132 401.75,-132 401.75,-100 554.25,-100 554.25,-132"/>
<text text-anchor="start" x="409.75" y="-118.5" font-family="Helvetica,sans-Serif" font-size="10.00">carla_msgs::msg::LaneInvasion</text>
<text text-anchor="middle" x="478" y="-106.5" font-family="Helvetica,sans-Serif" font-size="10.00">Event::crossed_lane_markings</text>
</a>
</g>
</g>
<!-- Node2&#45;&gt;Node3 -->
<g id="edge2_Node000002_Node000003" class="edge">
<title>Node2&#45;&gt;Node3</title>
<g id="a_edge2_Node000002_Node000003"><a xlink:title=" ">
<path fill="none" stroke="#63b8ff" d="M351.83,-82.44C368.95,-87.03 387.72,-92.06 405.38,-96.8"/>
<polygon fill="#63b8ff" stroke="#63b8ff" points="404.07,-100.34 414.64,-99.55 405.89,-93.58 404.07,-100.34"/>
</a>
</g>
</g>
<!-- Node4 -->
<g id="Node000004" class="node">
<title>Node4</title>
<g id="a_Node000004"><a xlink:href="../../d8/d15/classstd__msgs_1_1msg_1_1Header.html#ae439639025ac66880a861f521fd84016" target="_top" xlink:title="This function returns the serialized size of a data depending on the buffer alignment.">
<polygon fill="white" stroke="#666666" points="538.12,-82 417.88,-82 417.88,-50 538.12,-50 538.12,-82"/>
<text text-anchor="start" x="425.88" y="-68.5" font-family="Helvetica,sans-Serif" font-size="10.00">std_msgs::msg::Header</text>
<text text-anchor="middle" x="478" y="-56.5" font-family="Helvetica,sans-Serif" font-size="10.00">::getCdrSerializedSize</text>
</a>
</g>
</g>
<!-- Node2&#45;&gt;Node4 -->
<g id="edge3_Node000002_Node000004" class="edge">
<title>Node2&#45;&gt;Node4</title>
<g id="a_edge3_Node000002_Node000004"><a xlink:title=" ">
<path fill="none" stroke="#63b8ff" d="M366.09,-66C379.5,-66 393.41,-66 406.67,-66"/>
<polygon fill="#63b8ff" stroke="#63b8ff" points="406.63,-69.5 416.63,-66 406.63,-62.5 406.63,-69.5"/>
</a>
</g>
</g>
<!-- Node8 -->
<g id="Node000008" class="node">
<title>Node8</title>
<g id="a_Node000008"><a xlink:href="../../d0/de1/classcarla__msgs_1_1msg_1_1LaneInvasionEvent.html#adcf4451e0dc59f0d0ff34fb71df314b9" target="_top" xlink:title="This function copies the value in member header">
<polygon fill="white" stroke="#666666" points="554.25,-32 401.75,-32 401.75,0 554.25,0 554.25,-32"/>
<text text-anchor="start" x="409.75" y="-18.5" font-family="Helvetica,sans-Serif" font-size="10.00">carla_msgs::msg::LaneInvasion</text>
<text text-anchor="middle" x="478" y="-6.5" font-family="Helvetica,sans-Serif" font-size="10.00">Event::header</text>
</a>
</g>
</g>
<!-- Node2&#45;&gt;Node8 -->
<g id="edge7_Node000002_Node000008" class="edge">
<title>Node2&#45;&gt;Node8</title>
<g id="a_edge7_Node000002_Node000008"><a xlink:title=" ">
<path fill="none" stroke="#63b8ff" d="M351.83,-49.56C368.95,-44.97 387.72,-39.94 405.38,-35.2"/>
<polygon fill="#63b8ff" stroke="#63b8ff" points="405.89,-38.42 414.64,-32.45 404.07,-31.66 405.89,-38.42"/>
</a>
</g>
</g>
<!-- Node5 -->
<g id="Node000005" class="node">
<title>Node5</title>
<g id="a_Node000005"><a xlink:href="../../d8/d15/classstd__msgs_1_1msg_1_1Header.html#a9bd973b4690fefb807fb231f496831d4" target="_top" xlink:title="This function copies the value in member frame_id">
<polygon fill="white" stroke="#666666" points="732.62,-132 612.38,-132 612.38,-100 732.62,-100 732.62,-132"/>
<text text-anchor="start" x="620.38" y="-118.5" font-family="Helvetica,sans-Serif" font-size="10.00">std_msgs::msg::Header</text>
<text text-anchor="middle" x="672.5" y="-106.5" font-family="Helvetica,sans-Serif" font-size="10.00">::frame_id</text>
</a>
</g>
</g>
<!-- Node4&#45;&gt;Node5 -->
<g id="edge4_Node000004_Node000005" class="edge">
<title>Node4&#45;&gt;Node5</title>
<g id="a_edge4_Node000004_Node000005"><a xlink:title=" ">
<path fill="none" stroke="#63b8ff" d="M538.59,-81.48C558.52,-86.66 580.93,-92.47 601.57,-97.84"/>
<polygon fill="#63b8ff" stroke="#63b8ff" points="600.63,-101.47 611.19,-100.6 602.39,-94.69 600.63,-101.47"/>
</a>
</g>
</g>
<!-- Node6 -->
<g id="Node000006" class="node">
<title>Node6</title>
<g id="a_Node000006"><a xlink:href="../../da/d39/classbuiltin__interfaces_1_1msg_1_1Time.html#abdf1cc0285c53ceeb6c4eae36acd3c0f" target="_top" xlink:title="This function returns the serialized size of a data depending on the buffer alignment.">
<polygon fill="white" stroke="#666666" points="754.75,-82 590.25,-82 590.25,-50 754.75,-50 754.75,-82"/>
<text text-anchor="start" x="598.25" y="-68.5" font-family="Helvetica,sans-Serif" font-size="10.00">builtin_interfaces</text>
<text text-anchor="middle" x="672.5" y="-56.5" font-family="Helvetica,sans-Serif" font-size="10.00">::msg::Time::getCdrSerializedSize</text>
</a>
</g>
</g>
<!-- Node4&#45;&gt;Node6 -->
<g id="edge5_Node000004_Node000006" class="edge">
<title>Node4&#45;&gt;Node6</title>
<g id="a_edge5_Node000004_Node000006"><a xlink:title=" ">
<path fill="none" stroke="#63b8ff" d="M538.59,-66C551.4,-66 565.22,-66 578.95,-66"/>
<polygon fill="#63b8ff" stroke="#63b8ff" points="578.91,-69.5 588.91,-66 578.91,-62.5 578.91,-69.5"/>
</a>
</g>
</g>
<!-- Node7 -->
<g id="Node000007" class="node">
<title>Node7</title>
<g id="a_Node000007"><a xlink:href="../../d8/d15/classstd__msgs_1_1msg_1_1Header.html#a2ac0c277be6d5edc09d17126767290c9" target="_top" xlink:title="This function copies the value in member stamp">
<polygon fill="white" stroke="#666666" points="732.62,-32 612.38,-32 612.38,0 732.62,0 732.62,-32"/>
<text text-anchor="start" x="620.38" y="-18.5" font-family="Helvetica,sans-Serif" font-size="10.00">std_msgs::msg::Header</text>
<text text-anchor="middle" x="672.5" y="-6.5" font-family="Helvetica,sans-Serif" font-size="10.00">::stamp</text>
</a>
</g>
</g>
<!-- Node4&#45;&gt;Node7 -->
<g id="edge6_Node000004_Node000007" class="edge">
<title>Node4&#45;&gt;Node7</title>
<g id="a_edge6_Node000004_Node000007"><a xlink:title=" ">
<path fill="none" stroke="#63b8ff" d="M538.59,-50.52C558.52,-45.34 580.93,-39.53 601.57,-34.16"/>
<polygon fill="#63b8ff" stroke="#63b8ff" points="602.39,-37.31 611.19,-31.4 600.63,-30.53 602.39,-37.31"/>
</a>
</g>
</g>
</g>
</svg>
