<?xml version="1.0" encoding="UTF-8" standalone="no"?>
<!DOCTYPE svg PUBLIC "-//W3C//DTD SVG 1.1//EN"
 "http://www.w3.org/Graphics/SVG/1.1/DTD/svg11.dtd">
<!-- Generated by graphviz version 8.1.0 (20230707.0739)
 -->
<!-- Title: BufferPool.h Pages: 1 -->
<!--zoomable 196 -->

<svg id="main" version="1.1" xmlns="http://www.w3.org/2000/svg" xmlns:xlink="http://www.w3.org/1999/xlink" xml:space="preserve" onload="init(evt)">
<style type="text/css"><![CDATA[
.node, .edge {opacity: 0.7;}
.node.selected, .edge.selected {opacity: 1;}
.edge:hover path { stroke: red; }
.edge:hover polygon { stroke: red; fill: red; }
]]></style>

<defs>
  <circle id="rim" cx="0" cy="0" r="7"/>
  <circle id="rim2" cx="0" cy="0" r="3.5"/>
  <g id="zoomPlus">
    <use xlink:href="#rim" fill="#404040"><set attributeName="fill" to="#808080" begin="zoomplus.mouseover" end="zoomplus.mouseout"/></use>
    <path d="M-4,0h8M0,-4v8" fill="none" stroke="white" stroke-width="1.5" pointer-events="none"/>
  </g>
  <g id="zoomMin">
    <use xlink:href="#rim" fill="#404040"><set attributeName="fill" to="#808080" begin="zoomminus.mouseover" end="zoomminus.mouseout"/></use>
    <path d="M-4,0h8" fill="none" stroke="white" stroke-width="1.5" pointer-events="none"/>
  </g>
  <g id="arrowUp" transform="translate(30 24)">
    <use xlink:href="#rim"/>
    <path pointer-events="none" fill="none" stroke="white" stroke-width="1.5" d="M0,-3.0v7 M-2.5,-0.5L0,-3.0L2.5,-0.5"/>
  </g>
  <g id="arrowRight" transform="rotate(90) translate(36 -43)">
    <use xlink:href="#rim"/>
    <path pointer-events="none" fill="none" stroke="white" stroke-width="1.5" d="M0,-3.0v7 M-2.5,-0.5L0,-3.0L2.5,-0.5"/>
  </g>
  <g id="arrowDown" transform="rotate(180) translate(-30 -48)">
    <use xlink:href="#rim"/>
    <path pointer-events="none" fill="none" stroke="white" stroke-width="1.5" d="M0,-3.0v7 M-2.5,-0.5L0,-3.0L2.5,-0.5"/>
  </g>
  <g id="arrowLeft" transform="rotate(270) translate(-36 17)">
    <use xlink:href="#rim"/>
    <path pointer-events="none" fill="none" stroke="white" stroke-width="1.5" d="M0,-3.0v7 M-2.5,-0.5L0,-3.0L2.5,-0.5"/>
  </g>
  <g id="resetDef">
    <use xlink:href="#rim2" fill="#404040"><set attributeName="fill" to="#808080" begin="reset.mouseover" end="reset.mouseout"/></use>
  </g>
</defs>
<script type="application/ecmascript">
var viewWidth = 1195;
var viewHeight = 196;
var sectionId = 'dynsection-0';
</script>
<script type="application/ecmascript" xlink:href="../../svg.min.js"/>
<svg id="graph" class="graph">
<g id="viewport">
<title>BufferPool.h</title>
<!-- Node1 -->
<g id="Node000001" class="node">
<title>Node1</title>
<g id="a_Node000001"><a xlink:title=" ">
<polygon fill="#999999" stroke="#666666" points="398.88,-188 330.38,-188 330.38,-168 398.88,-168 398.88,-188"/>
<text text-anchor="middle" x="364.62" y="-174.5" font-family="Helvetica,sans-Serif" font-size="10.00">BufferPool.h</text>
</a>
</g>
</g>
<!-- Node2 -->
<g id="Node000002" class="node">
<title>Node2</title>
<g id="a_Node000002"><a xlink:href="../../d2/dda/carla_2Buffer_8h.html" target="_top" xlink:title=" ">
<polygon fill="white" stroke="#666666" points="401.12,-132 328.12,-132 328.12,-112 401.12,-112 401.12,-132"/>
<text text-anchor="middle" x="364.62" y="-118.5" font-family="Helvetica,sans-Serif" font-size="10.00">carla/Buffer.h</text>
</a>
</g>
</g>
<!-- Node1&#45;&gt;Node2 -->
<g id="edge1_Node000001_Node000002" class="edge">
<title>Node1&#45;&gt;Node2</title>
<g id="a_edge1_Node000001_Node000002"><a xlink:title=" ">
<path fill="none" stroke="#63b8ff" d="M364.62,-167.59C364.62,-160.86 364.62,-151.53 364.62,-143.15"/>
<polygon fill="#63b8ff" stroke="#63b8ff" points="368.13,-143.3 364.62,-133.3 361.13,-143.3 368.13,-143.3"/>
</a>
</g>
</g>
<!-- Node13 -->
<g id="Node000013" class="node">
<title>Node13</title>
<g id="a_Node000013"><a xlink:title=" ">
<polygon fill="#e0e0e0" stroke="#999999" points="51.25,-76 0,-76 0,-56 51.25,-56 51.25,-76"/>
<text text-anchor="middle" x="25.62" y="-62.5" font-family="Helvetica,sans-Serif" font-size="10.00">memory</text>
</a>
</g>
</g>
<!-- Node1&#45;&gt;Node13 -->
<g id="edge29_Node000001_Node000013" class="edge">
<title>Node1&#45;&gt;Node13</title>
<g id="a_edge29_Node000001_Node000013"><a xlink:title=" ">
<path fill="none" stroke="#63b8ff" d="M335.43,-167.53C273.53,-147.44 129.29,-100.64 61.74,-78.72"/>
<polygon fill="#63b8ff" stroke="#63b8ff" points="63.17,-75.18 52.58,-75.42 61.01,-81.84 63.17,-75.18"/>
</a>
</g>
</g>
<!-- Node15 -->
<g id="Node000015" class="node">
<title>Node15</title>
<g id="a_Node000015"><a xlink:href="../../de/dad/ConcurrentQueue_8h.html" target="_top" xlink:title=" ">
<polygon fill="white" stroke="#666666" points="867.88,-132 709.38,-132 709.38,-112 867.88,-112 867.88,-132"/>
<text text-anchor="middle" x="788.62" y="-118.5" font-family="Helvetica,sans-Serif" font-size="10.00">moodycamel/ConcurrentQueue.h</text>
</a>
</g>
</g>
<!-- Node1&#45;&gt;Node15 -->
<g id="edge15_Node000001_Node000015" class="edge">
<title>Node1&#45;&gt;Node15</title>
<g id="a_edge15_Node000001_Node000015"><a xlink:title=" ">
<path fill="none" stroke="#63b8ff" d="M399.32,-172.58C465.24,-164.19 610.32,-145.71 703.55,-133.83"/>
<polygon fill="#63b8ff" stroke="#63b8ff" points="703.9,-137.19 713.37,-132.46 703.01,-130.25 703.9,-137.19"/>
</a>
</g>
</g>
<!-- Node3 -->
<g id="Node000003" class="node">
<title>Node3</title>
<g id="a_Node000003"><a xlink:href="../../d4/deb/Debug_8h.html" target="_top" xlink:title=" ">
<polygon fill="white" stroke="#666666" points="369.62,-76 293.62,-76 293.62,-56 369.62,-56 369.62,-76"/>
<text text-anchor="middle" x="331.62" y="-62.5" font-family="Helvetica,sans-Serif" font-size="10.00">carla/Debug.h</text>
</a>
</g>
</g>
<!-- Node2&#45;&gt;Node3 -->
<g id="edge2_Node000002_Node000003" class="edge">
<title>Node2&#45;&gt;Node3</title>
<g id="a_edge2_Node000002_Node000003"><a xlink:title=" ">
<path fill="none" stroke="#63b8ff" d="M358.88,-111.59C354.48,-104.39 348.27,-94.23 342.89,-85.43"/>
<polygon fill="#63b8ff" stroke="#63b8ff" points="345.51,-84.01 337.31,-77.3 339.54,-87.66 345.51,-84.01"/>
</a>
</g>
</g>
<!-- Node4 -->
<g id="Node000004" class="node">
<title>Node4</title>
<g id="a_Node000004"><a xlink:href="../../d8/d8a/Exception_8h.html" target="_top" xlink:title=" ">
<polygon fill="white" stroke="#666666" points="464.5,-20 372.75,-20 372.75,0 464.5,0 464.5,-20"/>
<text text-anchor="middle" x="418.62" y="-6.5" font-family="Helvetica,sans-Serif" font-size="10.00">carla/Exception.h</text>
</a>
</g>
</g>
<!-- Node2&#45;&gt;Node4 -->
<g id="edge6_Node000002_Node000004" class="edge">
<title>Node2&#45;&gt;Node4</title>
<g id="a_edge6_Node000002_Node000004"><a xlink:title=" ">
<path fill="none" stroke="#63b8ff" d="M369.23,-111.62C378.08,-93.6 397.61,-53.81 409.29,-30.02"/>
<polygon fill="#63b8ff" stroke="#63b8ff" points="412.77,-31.87 414.03,-21.35 406.48,-28.79 412.77,-31.87"/>
</a>
</g>
</g>
<!-- Node7 -->
<g id="Node000007" class="node">
<title>Node7</title>
<g id="a_Node000007"><a xlink:href="../../de/d87/Logging_8h.html" target="_top" xlink:title=" ">
<polygon fill="white" stroke="#666666" points="275.62,-76 193.62,-76 193.62,-56 275.62,-56 275.62,-76"/>
<text text-anchor="middle" x="234.62" y="-62.5" font-family="Helvetica,sans-Serif" font-size="10.00">carla/Logging.h</text>
</a>
</g>
</g>
<!-- Node2&#45;&gt;Node7 -->
<g id="edge7_Node000002_Node000007" class="edge">
<title>Node2&#45;&gt;Node7</title>
<g id="a_edge7_Node000002_Node000007"><a xlink:title=" ">
<path fill="none" stroke="#63b8ff" d="M341.98,-111.59C321.42,-103.05 290.83,-90.35 267.56,-80.68"/>
<polygon fill="#63b8ff" stroke="#63b8ff" points="269.02,-77.08 258.45,-76.48 266.34,-83.55 269.02,-77.08"/>
</a>
</g>
</g>
<!-- Node10 -->
<g id="Node000010" class="node">
<title>Node10</title>
<g id="a_Node000010"><a xlink:title=" ">
<polygon fill="#e0e0e0" stroke="#999999" points="175.62,-76 69.62,-76 69.62,-56 175.62,-56 175.62,-76"/>
<text text-anchor="middle" x="122.62" y="-62.5" font-family="Helvetica,sans-Serif" font-size="10.00">boost/asio/buffer.hpp</text>
</a>
</g>
</g>
<!-- Node2&#45;&gt;Node10 -->
<g id="edge10_Node000002_Node000010" class="edge">
<title>Node2&#45;&gt;Node10</title>
<g id="a_edge10_Node000002_Node000010"><a xlink:title=" ">
<path fill="none" stroke="#63b8ff" d="M327.87,-112.8C287.35,-103.76 221.81,-89.13 175.72,-78.85"/>
<polygon fill="#63b8ff" stroke="#63b8ff" points="176.55,-75.22 166.03,-76.46 175.03,-82.06 176.55,-75.22"/>
</a>
</g>
</g>
<!-- Node11 -->
<g id="Node000011" class="node">
<title>Node11</title>
<g id="a_Node000011"><a xlink:title=" ">
<polygon fill="#e0e0e0" stroke="#999999" points="471.25,-76 426,-76 426,-56 471.25,-56 471.25,-76"/>
<text text-anchor="middle" x="448.62" y="-62.5" font-family="Helvetica,sans-Serif" font-size="10.00">cstdint</text>
</a>
</g>
</g>
<!-- Node2&#45;&gt;Node11 -->
<g id="edge11_Node000002_Node000011" class="edge">
<title>Node2&#45;&gt;Node11</title>
<g id="a_edge11_Node000002_Node000011"><a xlink:title=" ">
<path fill="none" stroke="#63b8ff" d="M379.26,-111.59C391.83,-103.51 410.19,-91.71 424.87,-82.27"/>
<polygon fill="#63b8ff" stroke="#63b8ff" points="426.36,-84.83 432.88,-76.48 422.57,-78.94 426.36,-84.83"/>
</a>
</g>
</g>
<!-- Node12 -->
<g id="Node000012" class="node">
<title>Node12</title>
<g id="a_Node000012"><a xlink:title=" ">
<polygon fill="#e0e0e0" stroke="#999999" points="528.25,-76 489,-76 489,-56 528.25,-56 528.25,-76"/>
<text text-anchor="middle" x="508.62" y="-62.5" font-family="Helvetica,sans-Serif" font-size="10.00">limits</text>
</a>
</g>
</g>
<!-- Node2&#45;&gt;Node12 -->
<g id="edge12_Node000002_Node000012" class="edge">
<title>Node2&#45;&gt;Node12</title>
<g id="a_edge12_Node000002_Node000012"><a xlink:title=" ">
<path fill="none" stroke="#63b8ff" d="M389.71,-111.59C414.5,-102.3 452.42,-88.08 478.76,-78.2"/>
<polygon fill="#63b8ff" stroke="#63b8ff" points="479.78,-81.18 487.91,-74.39 477.32,-74.63 479.78,-81.18"/>
</a>
</g>
</g>
<!-- Node2&#45;&gt;Node13 -->
<g id="edge13_Node000002_Node000013" class="edge">
<title>Node2&#45;&gt;Node13</title>
<g id="a_edge13_Node000002_Node000013"><a xlink:title=" ">
<path fill="none" stroke="#63b8ff" d="M327.91,-116.83C272.51,-110.25 164.07,-96.33 62.32,-76.15"/>
<polygon fill="#63b8ff" stroke="#63b8ff" points="63.04,-72.53 52.55,-73.99 61.66,-79.39 63.04,-72.53"/>
</a>
</g>
</g>
<!-- Node14 -->
<g id="Node000014" class="node">
<title>Node14</title>
<g id="a_Node000014"><a xlink:title=" ">
<polygon fill="#e0e0e0" stroke="#999999" points="608.5,-76 546.75,-76 546.75,-56 608.5,-56 608.5,-76"/>
<text text-anchor="middle" x="577.62" y="-62.5" font-family="Helvetica,sans-Serif" font-size="10.00">type_traits</text>
</a>
</g>
</g>
<!-- Node2&#45;&gt;Node14 -->
<g id="edge14_Node000002_Node000014" class="edge">
<title>Node2&#45;&gt;Node14</title>
<g id="a_edge14_Node000002_Node000014"><a xlink:title=" ">
<path fill="none" stroke="#63b8ff" d="M401.24,-111.72C438.64,-102.24 496.63,-87.53 535.81,-77.6"/>
<polygon fill="#63b8ff" stroke="#63b8ff" points="536.5,-80.78 545.33,-74.93 534.78,-74 536.5,-80.78"/>
</a>
</g>
</g>
<!-- Node3&#45;&gt;Node4 -->
<g id="edge3_Node000003_Node000004" class="edge">
<title>Node3&#45;&gt;Node4</title>
<g id="a_edge3_Node000003_Node000004"><a xlink:title=" ">
<path fill="none" stroke="#63b8ff" d="M346.78,-55.59C359.8,-47.51 378.82,-35.71 394.02,-26.27"/>
<polygon fill="#63b8ff" stroke="#63b8ff" points="395.7,-28.73 402.35,-20.48 392.01,-22.78 395.7,-28.73"/>
</a>
</g>
</g>
<!-- Node5 -->
<g id="Node000005" class="node">
<title>Node5</title>
<g id="a_Node000005"><a xlink:title=" ">
<polygon fill="#e0e0e0" stroke="#999999" points="355,-20 296.25,-20 296.25,0 355,0 355,-20"/>
<text text-anchor="middle" x="325.62" y="-6.5" font-family="Helvetica,sans-Serif" font-size="10.00">stdexcept</text>
</a>
</g>
</g>
<!-- Node3&#45;&gt;Node5 -->
<g id="edge4_Node000003_Node000005" class="edge">
<title>Node3&#45;&gt;Node5</title>
<g id="a_edge4_Node000003_Node000005"><a xlink:title=" ">
<path fill="none" stroke="#63b8ff" d="M330.58,-55.59C329.83,-48.86 328.8,-39.53 327.86,-31.15"/>
<polygon fill="#63b8ff" stroke="#63b8ff" points="331.24,-30.85 326.66,-21.3 324.28,-31.62 331.24,-30.85"/>
</a>
</g>
</g>
<!-- Node6 -->
<g id="Node000006" class="node">
<title>Node6</title>
<g id="a_Node000006"><a xlink:title=" ">
<polygon fill="#e0e0e0" stroke="#999999" points="766.75,-20 718.5,-20 718.5,0 766.75,0 766.75,-20"/>
<text text-anchor="middle" x="742.62" y="-6.5" font-family="Helvetica,sans-Serif" font-size="10.00">cassert</text>
</a>
</g>
</g>
<!-- Node3&#45;&gt;Node6 -->
<g id="edge5_Node000003_Node000006" class="edge">
<title>Node3&#45;&gt;Node6</title>
<g id="a_edge5_Node000003_Node000006"><a xlink:title=" ">
<path fill="none" stroke="#63b8ff" d="M369.92,-59.97C449.51,-49.51 631.69,-25.58 708,-15.55"/>
<polygon fill="#63b8ff" stroke="#63b8ff" points="708.01,-18.95 717.47,-14.17 707.1,-12.01 708.01,-18.95"/>
</a>
</g>
</g>
<!-- Node8 -->
<g id="Node000008" class="node">
<title>Node8</title>
<g id="a_Node000008"><a xlink:href="../../d9/dd0/Platform_8h.html" target="_top" xlink:title=" ">
<polygon fill="white" stroke="#666666" points="195.75,-20 111.5,-20 111.5,0 195.75,0 195.75,-20"/>
<text text-anchor="middle" x="153.62" y="-6.5" font-family="Helvetica,sans-Serif" font-size="10.00">carla/Platform.h</text>
</a>
</g>
</g>
<!-- Node7&#45;&gt;Node8 -->
<g id="edge8_Node000007_Node000008" class="edge">
<title>Node7&#45;&gt;Node8</title>
<g id="a_edge8_Node000007_Node000008"><a xlink:title=" ">
<path fill="none" stroke="#63b8ff" d="M220.52,-55.59C208.51,-47.59 191.02,-35.93 176.94,-26.54"/>
<polygon fill="#63b8ff" stroke="#63b8ff" points="179.11,-23.11 168.84,-20.48 175.22,-28.94 179.11,-23.11"/>
</a>
</g>
</g>
<!-- Node9 -->
<g id="Node000009" class="node">
<title>Node9</title>
<g id="a_Node000009"><a xlink:title=" ">
<polygon fill="#e0e0e0" stroke="#999999" points="267.38,-20 213.88,-20 213.88,0 267.38,0 267.38,-20"/>
<text text-anchor="middle" x="240.62" y="-6.5" font-family="Helvetica,sans-Serif" font-size="10.00">iostream</text>
</a>
</g>
</g>
<!-- Node7&#45;&gt;Node9 -->
<g id="edge9_Node000007_Node000009" class="edge">
<title>Node7&#45;&gt;Node9</title>
<g id="a_edge9_Node000007_Node000009"><a xlink:title=" ">
<path fill="none" stroke="#63b8ff" d="M235.67,-55.59C236.42,-48.86 237.45,-39.53 238.39,-31.15"/>
<polygon fill="#63b8ff" stroke="#63b8ff" points="241.97,-31.62 239.59,-21.3 235.01,-30.85 241.97,-31.62"/>
</a>
</g>
</g>
<!-- Node15&#45;&gt;Node4 -->
<g id="edge28_Node000015_Node000004" class="edge">
<title>Node15&#45;&gt;Node4</title>
<g id="a_edge28_Node000015_Node000004"><a xlink:title=" ">
<path fill="none" stroke="#63b8ff" d="M756.11,-111.58C728.85,-103.3 689.11,-90.37 655.62,-76 638.09,-68.47 635.53,-62.61 617.62,-56 571.05,-38.82 515.83,-26.96 475.39,-19.75"/>
<polygon fill="#63b8ff" stroke="#63b8ff" points="476.11,-16.15 465.65,-17.88 474.91,-23.04 476.11,-16.15"/>
</a>
</g>
</g>
<!-- Node15&#45;&gt;Node6 -->
<g id="edge17_Node000015_Node000006" class="edge">
<title>Node15&#45;&gt;Node6</title>
<g id="a_edge17_Node000015_Node000006"><a xlink:title=" ">
<path fill="none" stroke="#63b8ff" d="M868.27,-116.72C929.39,-110.4 998.36,-94.75 966.62,-56 943.12,-27.3 834.4,-16.52 777.52,-12.79"/>
<polygon fill="#63b8ff" stroke="#63b8ff" points="778.07,-9.26 767.88,-12.14 777.64,-16.24 778.07,-9.26"/>
</a>
</g>
</g>
<!-- Node15&#45;&gt;Node11 -->
<g id="edge19_Node000015_Node000011" class="edge">
<title>Node15&#45;&gt;Node11</title>
<g id="a_edge19_Node000015_Node000011"><a xlink:title=" ">
<path fill="none" stroke="#63b8ff" d="M709.02,-112.47C648.87,-105.32 564.14,-93.75 482.07,-76.31"/>
<polygon fill="#63b8ff" stroke="#63b8ff" points="483.07,-72.73 472.56,-74.04 481.59,-79.57 483.07,-72.73"/>
</a>
</g>
</g>
<!-- Node15&#45;&gt;Node12 -->
<g id="edge24_Node000015_Node000012" class="edge">
<title>Node15&#45;&gt;Node12</title>
<g id="a_edge24_Node000015_Node000012"><a xlink:title=" ">
<path fill="none" stroke="#63b8ff" d="M723.16,-111.53C674.72,-104.01 607,-92.41 538.98,-76.08"/>
<polygon fill="#63b8ff" stroke="#63b8ff" points="540.05,-72.49 529.5,-73.52 538.39,-79.29 540.05,-72.49"/>
</a>
</g>
</g>
<!-- Node15&#45;&gt;Node14 -->
<g id="edge21_Node000015_Node000014" class="edge">
<title>Node15&#45;&gt;Node14</title>
<g id="a_edge21_Node000015_Node000014"><a xlink:title=" ">
<path fill="none" stroke="#63b8ff" d="M751.87,-111.59C714.85,-102.12 657.83,-87.53 619.19,-77.64"/>
<polygon fill="#63b8ff" stroke="#63b8ff" points="620.36,-74.07 609.81,-74.98 618.63,-80.85 620.36,-74.07"/>
</a>
</g>
</g>
<!-- Node16 -->
<g id="Node000016" class="node">
<title>Node16</title>
<g id="a_Node000016"><a xlink:title=" ">
<polygon fill="#e0e0e0" stroke="#999999" points="1059.25,-76 1014,-76 1014,-56 1059.25,-56 1059.25,-76"/>
<text text-anchor="middle" x="1036.62" y="-62.5" font-family="Helvetica,sans-Serif" font-size="10.00">atomic</text>
</a>
</g>
</g>
<!-- Node15&#45;&gt;Node16 -->
<g id="edge16_Node000015_Node000016" class="edge">
<title>Node15&#45;&gt;Node16</title>
<g id="a_edge16_Node000015_Node000016"><a xlink:title=" ">
<path fill="none" stroke="#63b8ff" d="M834.81,-111.55C877.61,-102.69 943.02,-88.92 999.62,-76 1000.75,-75.74 1001.9,-75.48 1003.06,-75.21"/>
<polygon fill="#63b8ff" stroke="#63b8ff" points="1003.63,-78.43 1012.56,-72.72 1002.02,-71.62 1003.63,-78.43"/>
</a>
</g>
</g>
<!-- Node17 -->
<g id="Node000017" class="node">
<title>Node17</title>
<g id="a_Node000017"><a xlink:title=" ">
<polygon fill="#e0e0e0" stroke="#999999" points="1124.38,-76 1076.88,-76 1076.88,-56 1124.38,-56 1124.38,-76"/>
<text text-anchor="middle" x="1100.62" y="-62.5" font-family="Helvetica,sans-Serif" font-size="10.00">cstddef</text>
</a>
</g>
</g>
<!-- Node15&#45;&gt;Node17 -->
<g id="edge18_Node000015_Node000017" class="edge">
<title>Node15&#45;&gt;Node17</title>
<g id="a_edge18_Node000015_Node000017"><a xlink:title=" ">
<path fill="none" stroke="#63b8ff" d="M862.16,-111.53C916.34,-104.02 991.98,-92.4 1066.14,-76.37"/>
<polygon fill="#63b8ff" stroke="#63b8ff" points="1066.57,-79.64 1075.59,-74.08 1065.07,-72.8 1066.57,-79.64"/>
</a>
</g>
</g>
<!-- Node18 -->
<g id="Node000018" class="node">
<title>Node18</title>
<g id="a_Node000018"><a xlink:title=" ">
<polygon fill="#e0e0e0" stroke="#999999" points="1186.88,-76 1142.38,-76 1142.38,-56 1186.88,-56 1186.88,-76"/>
<text text-anchor="middle" x="1164.62" y="-62.5" font-family="Helvetica,sans-Serif" font-size="10.00">cstdlib</text>
</a>
</g>
</g>
<!-- Node15&#45;&gt;Node18 -->
<g id="edge20_Node000015_Node000018" class="edge">
<title>Node15&#45;&gt;Node18</title>
<g id="a_edge20_Node000015_Node000018"><a xlink:title=" ">
<path fill="none" stroke="#63b8ff" d="M868.34,-114.09C936.1,-107.42 1036.07,-95.71 1131.35,-76.22"/>
<polygon fill="#63b8ff" stroke="#63b8ff" points="1131.96,-79.45 1141.04,-73.99 1130.54,-72.6 1131.96,-79.45"/>
</a>
</g>
</g>
<!-- Node19 -->
<g id="Node000019" class="node">
<title>Node19</title>
<g id="a_Node000019"><a xlink:title=" ">
<polygon fill="#e0e0e0" stroke="#999999" points="720.5,-76 664.75,-76 664.75,-56 720.5,-56 720.5,-76"/>
<text text-anchor="middle" x="692.62" y="-62.5" font-family="Helvetica,sans-Serif" font-size="10.00">algorithm</text>
</a>
</g>
</g>
<!-- Node15&#45;&gt;Node19 -->
<g id="edge22_Node000015_Node000019" class="edge">
<title>Node15&#45;&gt;Node19</title>
<g id="a_edge22_Node000015_Node000019"><a xlink:title=" ">
<path fill="none" stroke="#63b8ff" d="M771.9,-111.59C757.26,-103.36 735.75,-91.26 718.82,-81.74"/>
<polygon fill="#63b8ff" stroke="#63b8ff" points="720.91,-78.33 710.48,-76.48 717.48,-84.43 720.91,-78.33"/>
</a>
</g>
</g>
<!-- Node20 -->
<g id="Node000020" class="node">
<title>Node20</title>
<g id="a_Node000020"><a xlink:title=" ">
<polygon fill="#e0e0e0" stroke="#999999" points="778.25,-76 739,-76 739,-56 778.25,-56 778.25,-76"/>
<text text-anchor="middle" x="758.62" y="-62.5" font-family="Helvetica,sans-Serif" font-size="10.00">utility</text>
</a>
</g>
</g>
<!-- Node15&#45;&gt;Node20 -->
<g id="edge23_Node000015_Node000020" class="edge">
<title>Node15&#45;&gt;Node20</title>
<g id="a_edge23_Node000015_Node000020"><a xlink:title=" ">
<path fill="none" stroke="#63b8ff" d="M783.4,-111.59C779.44,-104.47 773.88,-94.45 769.02,-85.72"/>
<polygon fill="#63b8ff" stroke="#63b8ff" points="771.71,-84.34 763.79,-77.3 765.59,-87.74 771.71,-84.34"/>
</a>
</g>
</g>
<!-- Node21 -->
<g id="Node000021" class="node">
<title>Node21</title>
<g id="a_Node000021"><a xlink:title=" ">
<polygon fill="#e0e0e0" stroke="#999999" points="840.88,-76 796.38,-76 796.38,-56 840.88,-56 840.88,-76"/>
<text text-anchor="middle" x="818.62" y="-62.5" font-family="Helvetica,sans-Serif" font-size="10.00">climits</text>
</a>
</g>
</g>
<!-- Node15&#45;&gt;Node21 -->
<g id="edge25_Node000015_Node000021" class="edge">
<title>Node15&#45;&gt;Node21</title>
<g id="a_edge25_Node000015_Node000021"><a xlink:title=" ">
<path fill="none" stroke="#63b8ff" d="M793.85,-111.59C797.81,-104.47 803.37,-94.45 808.23,-85.72"/>
<polygon fill="#63b8ff" stroke="#63b8ff" points="811.66,-87.74 813.46,-77.3 805.54,-84.34 811.66,-87.74"/>
</a>
</g>
</g>
<!-- Node22 -->
<g id="Node000022" class="node">
<title>Node22</title>
<g id="a_Node000022"><a xlink:title=" ">
<polygon fill="#e0e0e0" stroke="#999999" points="896.5,-76 858.75,-76 858.75,-56 896.5,-56 896.5,-76"/>
<text text-anchor="middle" x="877.62" y="-62.5" font-family="Helvetica,sans-Serif" font-size="10.00">array</text>
</a>
</g>
</g>
<!-- Node15&#45;&gt;Node22 -->
<g id="edge26_Node000015_Node000022" class="edge">
<title>Node15&#45;&gt;Node22</title>
<g id="a_edge26_Node000015_Node000022"><a xlink:title=" ">
<path fill="none" stroke="#63b8ff" d="M804.13,-111.59C817.57,-103.44 837.27,-91.48 852.89,-82"/>
<polygon fill="#63b8ff" stroke="#63b8ff" points="854.27,-84.66 861,-76.48 850.64,-78.67 854.27,-84.66"/>
</a>
</g>
</g>
<!-- Node23 -->
<g id="Node000023" class="node">
<title>Node23</title>
<g id="a_Node000023"><a xlink:title=" ">
<polygon fill="#e0e0e0" stroke="#999999" points="957.12,-76 914.12,-76 914.12,-56 957.12,-56 957.12,-76"/>
<text text-anchor="middle" x="935.62" y="-62.5" font-family="Helvetica,sans-Serif" font-size="10.00">thread</text>
</a>
</g>
</g>
<!-- Node15&#45;&gt;Node23 -->
<g id="edge27_Node000015_Node000023" class="edge">
<title>Node15&#45;&gt;Node23</title>
<g id="a_edge27_Node000015_Node000023"><a xlink:title=" ">
<path fill="none" stroke="#63b8ff" d="M814.23,-111.59C839.07,-102.47 876.82,-88.6 903.63,-78.75"/>
<polygon fill="#63b8ff" stroke="#63b8ff" points="904.49,-81.8 912.67,-75.07 902.07,-75.23 904.49,-81.8"/>
</a>
</g>
</g>
</g>
</svg>

<g id="navigator" transform="translate(0 0)" fill="#404254">
  <rect fill="#f2f5e9" fill-opacity="0.5" stroke="#606060" stroke-width=".5" x="0" y="0" width="60" height="60"/>
  <use id="zoomplus" xlink:href="#zoomPlus" x="17" y="9" onmousedown="handleZoom(evt,'in')"/>
  <use id="zoomminus" xlink:href="#zoomMin" x="42" y="9" onmousedown="handleZoom(evt,'out')"/>
  <use id="reset" xlink:href="#resetDef" x="30" y="36" onmousedown="handleReset()"/>
   <use id="arrowup" xlink:href="#arrowUp" x="0" y="0" onmousedown="handlePan(0,-1)"/>
  <use id="arrowright" xlink:href="#arrowRight" x="0" y="0" onmousedown="handlePan(1,0)"/>
  <use id="arrowdown" xlink:href="#arrowDown" x="0" y="0" onmousedown="handlePan(0,1)"/>
  <use id="arrowleft" xlink:href="#arrowLeft" x="0" y="0" onmousedown="handlePan(-1,0)"/>
</g>
<svg viewBox="0 0 15 15" width="100%" height="30px" preserveAspectRatio="xMaxYMin meet">
 <g id="arrow_out" transform="scale(0.3 0.3)">
  <a xlink:href="BufferPool_8h__incl_org.svg" target="_base">
   <rect id="button" ry="5" rx="5" y="6" x="6" height="38" width="38"
        fill="#f2f5e9" fill-opacity="0.5" stroke="#606060" stroke-width="1.0"/>
   <path id="arrow"
     d="M 11.500037,31.436501 C 11.940474,20.09759 22.043105,11.32322 32.158766,21.979434 L 37.068811,17.246167 C 37.068811,17.246167 37.088388,32 37.088388,32 L 22.160133,31.978069 C 22.160133,31.978069 26.997745,27.140456 26.997745,27.140456 C 18.528582,18.264221 13.291696,25.230495 11.500037,31.436501 z"
     style="fill:#404040;"/>
  </a>
 </g>
</svg>

<style type='text/css'>
<![CDATA[
[data-mouse-over-selected='false'] { opacity: 0.7; }
[data-mouse-over-selected='true']  { opacity: 1.0; }
]]>
</style>
<script type="application/ecmascript"><![CDATA[
document.addEventListener('DOMContentLoaded', (event) => {
  highlightEdges();
  highlightAdjacentNodes();
});
]]></script>
</svg>
