<?xml version="1.0" encoding="UTF-8" standalone="no"?>
<!DOCTYPE svg PUBLIC "-//W3C//DTD SVG 1.1//EN"
 "http://www.w3.org/Graphics/SVG/1.1/DTD/svg11.dtd">
<!-- Generated by graphviz version 8.1.0 (20230707.0739)
 -->
<!-- Title: carla::ThreadPool::Run Pages: 1 -->
<svg width="600pt" height="216pt"
 viewBox="0.00 0.00 600.00 216.00" xmlns="http://www.w3.org/2000/svg" xmlns:xlink="http://www.w3.org/1999/xlink">
<g id="graph0" class="graph" transform="scale(1 1) rotate(0) translate(4 212)">
<title>carla::ThreadPool::Run</title>
<!-- Node1 -->
<g id="Node000001" class="node">
<title>Node1</title>
<g id="a_Node000001"><a xlink:title="Run tasks in this thread.">
<polygon fill="#999999" stroke="#666666" points="592,-58 477,-58 477,-38 592,-38 592,-58"/>
<text text-anchor="middle" x="534.5" y="-44.5" font-family="Helvetica,sans-Serif" font-size="10.00">carla::ThreadPool::Run</text>
</a>
</g>
</g>
<!-- Node2 -->
<g id="Node000002" class="node">
<title>Node2</title>
<g id="a_Node000002"><a xlink:href="../../da/d72/classcarla_1_1ThreadPool.html#a44af52924b5a2dbd0699808a4394f30f" target="_top" xlink:title="Launch threads to run tasks asynchronously.">
<polygon fill="white" stroke="#666666" points="418.88,-108 321.12,-108 321.12,-76 418.88,-76 418.88,-108"/>
<text text-anchor="start" x="329.12" y="-94.5" font-family="Helvetica,sans-Serif" font-size="10.00">carla::ThreadPool::</text>
<text text-anchor="middle" x="370" y="-82.5" font-family="Helvetica,sans-Serif" font-size="10.00">AsyncRun</text>
</a>
</g>
</g>
<!-- Node1&#45;&gt;Node2 -->
<g id="edge1_Node000001_Node000002" class="edge">
<title>Node1&#45;&gt;Node2</title>
<g id="a_edge1_Node000001_Node000002"><a xlink:title=" ">
<path fill="none" stroke="#63b8ff" d="M484.5,-61.27C463.79,-66.88 439.74,-73.39 419.13,-78.97"/>
<polygon fill="#63b8ff" stroke="#63b8ff" points="485.25,-64.42 493.99,-58.43 483.42,-57.66 485.25,-64.42"/>
</a>
</g>
</g>
<!-- Node11 -->
<g id="Node000011" class="node">
<title>Node11</title>
<g id="a_Node000011"><a xlink:href="../../d0/daa/classcarla_1_1streaming_1_1Client.html#acb81e95fff8a46bd6beebfd037270cb9" target="_top" xlink:title=" ">
<polygon fill="white" stroke="#666666" points="439.88,-58 300.12,-58 300.12,-38 439.88,-38 439.88,-58"/>
<text text-anchor="middle" x="370" y="-44.5" font-family="Helvetica,sans-Serif" font-size="10.00">carla::streaming::Client::Run</text>
</a>
</g>
</g>
<!-- Node1&#45;&gt;Node11 -->
<g id="edge11_Node000001_Node000011" class="edge">
<title>Node1&#45;&gt;Node11</title>
<g id="a_edge11_Node000001_Node000011"><a xlink:title=" ">
<path fill="none" stroke="#63b8ff" d="M465.69,-48C457.24,-48 448.58,-48 440.1,-48"/>
<polygon fill="#63b8ff" stroke="#63b8ff" points="465.67,-51.5 475.67,-48 465.67,-44.5 465.67,-51.5"/>
</a>
</g>
</g>
<!-- Node12 -->
<g id="Node000012" class="node">
<title>Node12</title>
<g id="a_Node000012"><a xlink:href="../../d5/de5/classcarla_1_1streaming_1_1Server.html#ac5323504fc55606b942a4063263be643" target="_top" xlink:title=" ">
<polygon fill="white" stroke="#666666" points="441,-20 299,-20 299,0 441,0 441,-20"/>
<text text-anchor="middle" x="370" y="-6.5" font-family="Helvetica,sans-Serif" font-size="10.00">carla::streaming::Server::Run</text>
</a>
</g>
</g>
<!-- Node1&#45;&gt;Node12 -->
<g id="edge12_Node000001_Node000012" class="edge">
<title>Node1&#45;&gt;Node12</title>
<g id="a_edge12_Node000001_Node000012"><a xlink:title=" ">
<path fill="none" stroke="#63b8ff" d="M477.98,-35.02C457.66,-30.26 434.94,-24.95 415.69,-20.45"/>
<polygon fill="#63b8ff" stroke="#63b8ff" points="477.13,-38.65 487.67,-37.52 478.73,-31.83 477.13,-38.65"/>
</a>
</g>
</g>
<!-- Node3 -->
<g id="Node000003" class="node">
<title>Node3</title>
<g id="a_Node000003"><a xlink:href="../../d6/d60/classcarla_1_1multigpu_1_1Router.html#abe1ade54e888793b32a75088e9c1c99b" target="_top" xlink:title=" ">
<polygon fill="white" stroke="#666666" points="260.75,-208 146.5,-208 146.5,-176 260.75,-176 260.75,-208"/>
<text text-anchor="start" x="154.5" y="-194.5" font-family="Helvetica,sans-Serif" font-size="10.00">carla::multigpu::Router</text>
<text text-anchor="middle" x="203.62" y="-182.5" font-family="Helvetica,sans-Serif" font-size="10.00">::AsyncRun</text>
</a>
</g>
</g>
<!-- Node2&#45;&gt;Node3 -->
<g id="edge2_Node000002_Node000003" class="edge">
<title>Node2&#45;&gt;Node3</title>
<g id="a_edge2_Node000002_Node000003"><a xlink:title=" ">
<path fill="none" stroke="#63b8ff" d="M340.12,-114.96C319.4,-130.79 290.42,-151.66 263,-167 257.61,-170.02 251.79,-172.91 245.98,-175.59"/>
<polygon fill="#63b8ff" stroke="#63b8ff" points="341.97,-117.18 347.74,-108.3 337.69,-111.64 341.97,-117.18"/>
</a>
</g>
</g>
<!-- Node4 -->
<g id="Node000004" class="node">
<title>Node4</title>
<g id="a_Node000004"><a xlink:href="../../d0/daa/classcarla_1_1streaming_1_1Client.html#a772814b9cf096a9259bcffbaa162f5db" target="_top" xlink:title=" ">
<polygon fill="white" stroke="#666666" points="261.88,-158 145.38,-158 145.38,-126 261.88,-126 261.88,-158"/>
<text text-anchor="start" x="153.38" y="-144.5" font-family="Helvetica,sans-Serif" font-size="10.00">carla::streaming::Client</text>
<text text-anchor="middle" x="203.62" y="-132.5" font-family="Helvetica,sans-Serif" font-size="10.00">::AsyncRun</text>
</a>
</g>
</g>
<!-- Node2&#45;&gt;Node4 -->
<g id="edge3_Node000002_Node000004" class="edge">
<title>Node2&#45;&gt;Node4</title>
<g id="a_edge3_Node000002_Node000004"><a xlink:title=" ">
<path fill="none" stroke="#63b8ff" d="M310.7,-109.73C293.78,-114.88 275.38,-120.48 258.73,-125.54"/>
<polygon fill="#63b8ff" stroke="#63b8ff" points="311.47,-112.86 320.01,-106.6 309.43,-106.16 311.47,-112.86"/>
</a>
</g>
</g>
<!-- Node7 -->
<g id="Node000007" class="node">
<title>Node7</title>
<g id="a_Node000007"><a xlink:href="../../d5/de5/classcarla_1_1streaming_1_1Server.html#a8ab3de2fc12d54792b7b4fca4e4d73b9" target="_top" xlink:title=" ">
<polygon fill="white" stroke="#666666" points="263,-108 144.25,-108 144.25,-76 263,-76 263,-108"/>
<text text-anchor="start" x="152.25" y="-94.5" font-family="Helvetica,sans-Serif" font-size="10.00">carla::streaming::Server</text>
<text text-anchor="middle" x="203.62" y="-82.5" font-family="Helvetica,sans-Serif" font-size="10.00">::AsyncRun</text>
</a>
</g>
</g>
<!-- Node2&#45;&gt;Node7 -->
<g id="edge6_Node000002_Node000007" class="edge">
<title>Node2&#45;&gt;Node7</title>
<g id="a_edge6_Node000002_Node000007"><a xlink:title=" ">
<path fill="none" stroke="#63b8ff" d="M310.19,-92C295,-92 278.65,-92 263.46,-92"/>
<polygon fill="#63b8ff" stroke="#63b8ff" points="310.01,-95.5 320.01,-92 310.01,-88.5 310.01,-95.5"/>
</a>
</g>
</g>
<!-- Node9 -->
<g id="Node000009" class="node">
<title>Node9</title>
<g id="a_Node000009"><a xlink:href="../../d1/dc0/test__opendrive_8cpp.html#a8b1b093eaba141da41c7241ef0fe622b" target="_top" xlink:title=" ">
<polygon fill="white" stroke="#666666" points="223.62,-58 183.62,-58 183.62,-38 223.62,-38 223.62,-58"/>
<text text-anchor="middle" x="203.62" y="-44.5" font-family="Helvetica,sans-Serif" font-size="10.00">TEST</text>
</a>
</g>
</g>
<!-- Node2&#45;&gt;Node9 -->
<g id="edge9_Node000002_Node000009" class="edge">
<title>Node2&#45;&gt;Node9</title>
<g id="a_edge9_Node000002_Node000009"><a xlink:title=" ">
<path fill="none" stroke="#63b8ff" d="M310.5,-76.34C280.14,-68.21 245.06,-58.82 223.88,-53.15"/>
<polygon fill="#63b8ff" stroke="#63b8ff" points="309.45,-79.95 320.01,-79.16 311.26,-73.19 309.45,-79.95"/>
</a>
</g>
</g>
<!-- Node10 -->
<g id="Node000010" class="node">
<title>Node10</title>
<g id="a_Node000010"><a xlink:href="../../d1/dc0/test__opendrive_8cpp.html#a817f26804b97dd07cbf8e8e78415feda" target="_top" xlink:title=" ">
<polygon fill="white" stroke="#666666" points="223.62,-20 183.62,-20 183.62,0 223.62,0 223.62,-20"/>
<text text-anchor="middle" x="203.62" y="-6.5" font-family="Helvetica,sans-Serif" font-size="10.00">TEST</text>
</a>
</g>
</g>
<!-- Node2&#45;&gt;Node10 -->
<g id="edge10_Node000002_Node000010" class="edge">
<title>Node2&#45;&gt;Node10</title>
<g id="a_edge10_Node000002_Node000010"><a xlink:title=" ">
<path fill="none" stroke="#63b8ff" d="M310.98,-73.77C306.81,-71.71 302.77,-69.46 299,-67 279.51,-54.29 282.67,-41.43 263,-29 251.11,-21.48 235.96,-16.67 224.07,-13.77"/>
<polygon fill="#63b8ff" stroke="#63b8ff" points="309.32,-77.31 319.88,-78.22 312.19,-70.92 309.32,-77.31"/>
</a>
</g>
</g>
<!-- Node5 -->
<g id="Node000005" class="node">
<title>Node5</title>
<g id="a_Node000005"><a xlink:href="../../dc/de1/classcarla_1_1client_1_1detail_1_1Client_1_1Pimpl.html#a51a8345c2d2c577200f3e7dfdfa7f4ad" target="_top" xlink:title=" ">
<polygon fill="white" stroke="#666666" points="108.25,-174 0,-174 0,-142 108.25,-142 108.25,-174"/>
<text text-anchor="start" x="8" y="-160.5" font-family="Helvetica,sans-Serif" font-size="10.00">carla::client::detail</text>
<text text-anchor="middle" x="54.12" y="-148.5" font-family="Helvetica,sans-Serif" font-size="10.00">::Client::Pimpl::Pimpl</text>
</a>
</g>
</g>
<!-- Node4&#45;&gt;Node5 -->
<g id="edge4_Node000004_Node000005" class="edge">
<title>Node4&#45;&gt;Node5</title>
<g id="a_edge4_Node000004_Node000005"><a xlink:title=" ">
<path fill="none" stroke="#63b8ff" d="M134.24,-149.42C125.54,-150.36 116.74,-151.32 108.32,-152.23"/>
<polygon fill="#63b8ff" stroke="#63b8ff" points="134.61,-152.79 144.18,-148.23 133.86,-145.83 134.61,-152.79"/>
</a>
</g>
</g>
<!-- Node6 -->
<g id="Node000006" class="node">
<title>Node6</title>
<g id="a_Node000006"><a xlink:href="../../d3/d36/test__streaming_8cpp.html#a911dfcbbbcdc77dca7bdfd904a2220c2" target="_top" xlink:title=" ">
<polygon fill="white" stroke="#666666" points="74.12,-124 34.12,-124 34.12,-104 74.12,-104 74.12,-124"/>
<text text-anchor="middle" x="54.12" y="-110.5" font-family="Helvetica,sans-Serif" font-size="10.00">TEST</text>
</a>
</g>
</g>
<!-- Node4&#45;&gt;Node6 -->
<g id="edge5_Node000004_Node000006" class="edge">
<title>Node4&#45;&gt;Node6</title>
<g id="a_edge5_Node000004_Node000006"><a xlink:title=" ">
<path fill="none" stroke="#63b8ff" d="M134.47,-129.06C112.5,-124.89 89.85,-120.59 74.41,-117.66"/>
<polygon fill="#63b8ff" stroke="#63b8ff" points="133.7,-132.67 144.18,-131.09 135,-125.79 133.7,-132.67"/>
</a>
</g>
</g>
<!-- Node7&#45;&gt;Node6 -->
<g id="edge8_Node000007_Node000006" class="edge">
<title>Node7&#45;&gt;Node6</title>
<g id="a_edge8_Node000007_Node000006"><a xlink:title=" ">
<path fill="none" stroke="#63b8ff" d="M133.06,-102.38C111.52,-105.59 89.51,-108.87 74.39,-111.13"/>
<polygon fill="#63b8ff" stroke="#63b8ff" points="133.53,-105.7 142.91,-100.76 132.5,-98.77 133.53,-105.7"/>
</a>
</g>
</g>
<!-- Node8 -->
<g id="Node000008" class="node">
<title>Node8</title>
<g id="a_Node000008"><a xlink:href="../../d3/d36/test__streaming_8cpp.html#a341eb9a6a5e2f135f5b302f965b44550" target="_top" xlink:title=" ">
<polygon fill="white" stroke="#666666" points="74.12,-86 34.12,-86 34.12,-66 74.12,-66 74.12,-86"/>
<text text-anchor="middle" x="54.12" y="-72.5" font-family="Helvetica,sans-Serif" font-size="10.00">TEST</text>
</a>
</g>
</g>
<!-- Node7&#45;&gt;Node8 -->
<g id="edge7_Node000007_Node000008" class="edge">
<title>Node7&#45;&gt;Node8</title>
<g id="a_edge7_Node000007_Node000008"><a xlink:title=" ">
<path fill="none" stroke="#63b8ff" d="M133.06,-84.45C111.52,-82.12 89.51,-79.73 74.39,-78.09"/>
<polygon fill="#63b8ff" stroke="#63b8ff" points="132.59,-88.03 142.91,-85.63 133.34,-81.07 132.59,-88.03"/>
</a>
</g>
</g>
</g>
</svg>
