<?xml version="1.0" encoding="UTF-8" standalone="no"?>
<!DOCTYPE svg PUBLIC "-//W3C//DTD SVG 1.1//EN"
 "http://www.w3.org/Graphics/SVG/1.1/DTD/svg11.dtd">
<!-- Generated by graphviz version 8.1.0 (20230707.0739)
 -->
<!-- Title: carla::rpc::ActorAttribute Pages: 1 -->
<svg width="437pt" height="108pt"
 viewBox="0.00 0.00 437.25 108.00" xmlns="http://www.w3.org/2000/svg" xmlns:xlink="http://www.w3.org/1999/xlink">

<svg id="main" version="1.1" xmlns="http://www.w3.org/2000/svg" xmlns:xlink="http://www.w3.org/1999/xlink" xml:space="preserve" onload="init(evt)">
<style type="text/css"><![CDATA[
.node, .edge {opacity: 0.7;}
.node.selected, .edge.selected {opacity: 1;}
.edge:hover path { stroke: red; }
.edge:hover polygon { stroke: red; fill: red; }
]]></style>
<script type="application/ecmascript" xlink:href="../../svg.min.js"/>
<svg id="graph" class="graph">
<g id="graph0" class="graph" transform="scale(1 1) rotate(0) translate(4 104)">
<title>carla::rpc::ActorAttribute</title>
<!-- Node1 -->
<g id="Node000001" class="node">
<title>Node1</title>
<g id="a_Node000001"><a xlink:title=" ">
<polygon fill="#999999" stroke="#666666" points="218.25,-20 95.75,-20 95.75,0 218.25,0 218.25,-20"/>
<text text-anchor="middle" x="157" y="-6.5" font-family="Helvetica,sans-Serif" font-size="10.00">carla::rpc::ActorAttribute</text>
</a>
</g>
</g>
<!-- Node2 -->
<g id="Node000002" class="node">
<title>Node2</title>
<g id="a_Node000002"><a xlink:title=" ">
<polygon fill="white" stroke="#666666" points="40,-100 0,-100 0,-80 40,-80 40,-100"/>
<text text-anchor="middle" x="20" y="-86.5" font-family="Helvetica,sans-Serif" font-size="10.00">string</text>
</a>
</g>
</g>
<!-- Node2&#45;&gt;Node1 -->
<g id="edge1_Node000001_Node000002" class="edge">
<title>Node2&#45;&gt;Node1</title>
<g id="a_edge1_Node000001_Node000002"><a xlink:title=" ">
<path fill="none" stroke="#9a32cd" stroke-dasharray="5,2" d="M41.96,-73.44C57.36,-62.85 78.61,-48.83 98.25,-38 109.95,-31.55 123.46,-25.26 134.58,-20.38"/>
<polygon fill="#9a32cd" stroke="#9a32cd" points="40.41,-70.95 34.2,-79.54 44.41,-76.7 40.41,-70.95"/>
</a>
</g>
<text text-anchor="middle" x="109.88" y="-52.5" font-family="Helvetica,sans-Serif" font-size="10.00" fill="grey"> id</text>
<text text-anchor="middle" x="109.88" y="-40.5" font-family="Helvetica,sans-Serif" font-size="10.00" fill="grey">value</text>
</g>
<!-- Node3 -->
<g id="Node000003" class="node">
<title>Node3</title>
<g id="a_Node000003"><a xlink:title=" ">
<polygon fill="white" stroke="#666666" points="155.5,-100 58.5,-100 58.5,-80 155.5,-80 155.5,-100"/>
<text text-anchor="middle" x="107" y="-86.5" font-family="Helvetica,sans-Serif" font-size="10.00">ActorAttributeType</text>
</a>
</g>
</g>
<!-- Node3&#45;&gt;Node1 -->
<g id="edge2_Node000001_Node000003" class="edge">
<title>Node3&#45;&gt;Node1</title>
<g id="a_edge2_Node000001_Node000003"><a xlink:title=" ">
<path fill="none" stroke="#9a32cd" stroke-dasharray="5,2" d="M118.62,-70.87C128.78,-55.03 143.11,-32.67 151.08,-20.24"/>
<polygon fill="#9a32cd" stroke="#9a32cd" points="115.38,-68.44 112.93,-78.75 121.28,-72.22 115.38,-68.44"/>
</a>
</g>
<text text-anchor="middle" x="149.88" y="-46.5" font-family="Helvetica,sans-Serif" font-size="10.00" fill="grey"> type</text>
</g>
<!-- Node4 -->
<g id="Node000004" class="node">
<title>Node4</title>
<g id="a_Node000004"><a xlink:title=" ">
<polygon fill="white" stroke="#666666" points="276.5,-100 173.5,-100 173.5,-80 276.5,-80 276.5,-100"/>
<text text-anchor="middle" x="225" y="-86.5" font-family="Helvetica,sans-Serif" font-size="10.00">vector&lt; std::string &gt;</text>
</a>
</g>
</g>
<!-- Node4&#45;&gt;Node1 -->
<g id="edge3_Node000001_Node000004" class="edge">
<title>Node4&#45;&gt;Node1</title>
<g id="a_edge3_Node000001_Node000004"><a xlink:title=" ">
<path fill="none" stroke="#9a32cd" stroke-dasharray="5,2" d="M209.97,-71.76C196.12,-55.87 176.09,-32.9 165.06,-20.24"/>
<polygon fill="#9a32cd" stroke="#9a32cd" points="207.72,-73.51 216.93,-78.75 213,-68.91 207.72,-73.51"/>
</a>
</g>
<text text-anchor="middle" x="249.38" y="-46.5" font-family="Helvetica,sans-Serif" font-size="10.00" fill="grey"> recommended_values</text>
</g>
<!-- Node5 -->
<g id="Node000005" class="node">
<title>Node5</title>
<g id="a_Node000005"><a xlink:title=" ">
<polygon fill="white" stroke="#666666" points="345,-100 311,-100 311,-80 345,-80 345,-100"/>
<text text-anchor="middle" x="328" y="-86.5" font-family="Helvetica,sans-Serif" font-size="10.00">bool</text>
</a>
</g>
</g>
<!-- Node5&#45;&gt;Node1 -->
<g id="edge4_Node000001_Node000005" class="edge">
<title>Node5&#45;&gt;Node1</title>
<g id="a_edge4_Node000001_Node000005"><a xlink:title=" ">
<path fill="none" stroke="#9a32cd" stroke-dasharray="5,2" d="M322.75,-69.5C318.81,-58.59 312.28,-45.68 302,-38 288.72,-28.08 251.77,-21.28 218.5,-16.99"/>
<polygon fill="#9a32cd" stroke="#9a32cd" points="319.65,-70.33 325.97,-78.84 326.34,-68.25 319.65,-70.33"/>
</a>
</g>
<text text-anchor="middle" x="374.12" y="-52.5" font-family="Helvetica,sans-Serif" font-size="10.00" fill="grey"> is_modifiable</text>
<text text-anchor="middle" x="374.12" y="-40.5" font-family="Helvetica,sans-Serif" font-size="10.00" fill="grey">restrict_to_recommended</text>
</g>
</g>
</svg>
</svg>

<style type='text/css'>
<![CDATA[
[data-mouse-over-selected='false'] { opacity: 0.7; }
[data-mouse-over-selected='true']  { opacity: 1.0; }
]]>
</style>
<script type="application/ecmascript"><![CDATA[
document.addEventListener('DOMContentLoaded', (event) => {
  highlightEdges();
  highlightAdjacentNodes();
});
]]></script>
</svg>
