<?xml version="1.0" encoding="UTF-8" standalone="no"?>
<!DOCTYPE svg PUBLIC "-//W3C//DTD SVG 1.1//EN"
 "http://www.w3.org/Graphics/SVG/1.1/DTD/svg11.dtd">
<!-- Generated by graphviz version 8.1.0 (20230707.0739)
 -->
<!-- Title: FCarlaEngine::GetFrameCounter Pages: 1 -->
<!--zoomable 352 -->

<svg id="main" version="1.1" xmlns="http://www.w3.org/2000/svg" xmlns:xlink="http://www.w3.org/1999/xlink" xml:space="preserve" onload="init(evt)">
<style type="text/css"><![CDATA[
.node, .edge {opacity: 0.7;}
.node.selected, .edge.selected {opacity: 1;}
.edge:hover path { stroke: red; }
.edge:hover polygon { stroke: red; fill: red; }
]]></style>

<defs>
  <circle id="rim" cx="0" cy="0" r="7"/>
  <circle id="rim2" cx="0" cy="0" r="3.5"/>
  <g id="zoomPlus">
    <use xlink:href="#rim" fill="#404040"><set attributeName="fill" to="#808080" begin="zoomplus.mouseover" end="zoomplus.mouseout"/></use>
    <path d="M-4,0h8M0,-4v8" fill="none" stroke="white" stroke-width="1.5" pointer-events="none"/>
  </g>
  <g id="zoomMin">
    <use xlink:href="#rim" fill="#404040"><set attributeName="fill" to="#808080" begin="zoomminus.mouseover" end="zoomminus.mouseout"/></use>
    <path d="M-4,0h8" fill="none" stroke="white" stroke-width="1.5" pointer-events="none"/>
  </g>
  <g id="arrowUp" transform="translate(30 24)">
    <use xlink:href="#rim"/>
    <path pointer-events="none" fill="none" stroke="white" stroke-width="1.5" d="M0,-3.0v7 M-2.5,-0.5L0,-3.0L2.5,-0.5"/>
  </g>
  <g id="arrowRight" transform="rotate(90) translate(36 -43)">
    <use xlink:href="#rim"/>
    <path pointer-events="none" fill="none" stroke="white" stroke-width="1.5" d="M0,-3.0v7 M-2.5,-0.5L0,-3.0L2.5,-0.5"/>
  </g>
  <g id="arrowDown" transform="rotate(180) translate(-30 -48)">
    <use xlink:href="#rim"/>
    <path pointer-events="none" fill="none" stroke="white" stroke-width="1.5" d="M0,-3.0v7 M-2.5,-0.5L0,-3.0L2.5,-0.5"/>
  </g>
  <g id="arrowLeft" transform="rotate(270) translate(-36 17)">
    <use xlink:href="#rim"/>
    <path pointer-events="none" fill="none" stroke="white" stroke-width="1.5" d="M0,-3.0v7 M-2.5,-0.5L0,-3.0L2.5,-0.5"/>
  </g>
  <g id="resetDef">
    <use xlink:href="#rim2" fill="#404040"><set attributeName="fill" to="#808080" begin="reset.mouseover" end="reset.mouseout"/></use>
  </g>
</defs>
<script type="application/ecmascript">
var viewWidth = 725;
var viewHeight = 352;
var sectionId = 'dynsection-3';
</script>
<script type="application/ecmascript" xlink:href="../../svg.min.js"/>
<svg id="graph" class="graph">
<g id="viewport">
<title>FCarlaEngine::GetFrameCounter</title>
<!-- Node1 -->
<g id="Node000001" class="node">
<title>Node1</title>
<g id="a_Node000001"><a xlink:title=" ">
<polygon fill="#999999" stroke="#666666" points="716.5,-200 558.75,-200 558.75,-180 716.5,-180 716.5,-200"/>
<text text-anchor="middle" x="637.62" y="-186.5" font-family="Helvetica,sans-Serif" font-size="10.00">FCarlaEngine::GetFrameCounter</text>
</a>
</g>
</g>
<!-- Node2 -->
<g id="Node000002" class="node">
<title>Node2</title>
<g id="a_Node000002"><a xlink:href="../../d7/d97/classFCarlaServer_1_1FPimpl.html#a675a6b572112a21e8bc011dddfd0de86" target="_top" xlink:title=" ">
<polygon fill="white" stroke="#666666" points="500.25,-344 392,-344 392,-312 500.25,-312 500.25,-344"/>
<text text-anchor="start" x="400" y="-330.5" font-family="Helvetica,sans-Serif" font-size="10.00">FCarlaServer::FPimpl</text>
<text text-anchor="middle" x="446.12" y="-318.5" font-family="Helvetica,sans-Serif" font-size="10.00">::BindActions</text>
</a>
</g>
</g>
<!-- Node1&#45;&gt;Node2 -->
<g id="edge1_Node000001_Node000002" class="edge">
<title>Node1&#45;&gt;Node2</title>
<g id="a_edge1_Node000001_Node000002"><a xlink:title=" ">
<path fill="none" stroke="#63b8ff" d="M622.31,-208.88C602.5,-233.78 564.43,-277.42 522.75,-303 515.91,-307.19 508.29,-310.77 500.6,-313.8"/>
<polygon fill="#63b8ff" stroke="#63b8ff" points="625.59,-211.37 628.98,-201.33 620.07,-207.06 625.59,-211.37"/>
</a>
</g>
</g>
<!-- Node4 -->
<g id="Node000004" class="node">
<title>Node4</title>
<g id="a_Node000004"><a xlink:href="../../dc/db5/classFAsyncDataStreamTmpl.html#ade60da30290df8247b33c48a12e29e0e" target="_top" xlink:title="@这个函数需要在游戏线程中调用。">
<polygon fill="white" stroke="#666666" points="510.38,-294 381.88,-294 381.88,-262 510.38,-262 510.38,-294"/>
<text text-anchor="start" x="389.88" y="-280.5" font-family="Helvetica,sans-Serif" font-size="10.00">FAsyncDataStreamTmpl</text>
<text text-anchor="middle" x="446.12" y="-268.5" font-family="Helvetica,sans-Serif" font-size="10.00">::FAsyncDataStreamTmpl</text>
</a>
</g>
</g>
<!-- Node1&#45;&gt;Node4 -->
<g id="edge3_Node000001_Node000004" class="edge">
<title>Node1&#45;&gt;Node4</title>
<g id="a_edge3_Node000001_Node000004"><a xlink:title=" ">
<path fill="none" stroke="#63b8ff" d="M610.9,-206.05C588.27,-219.72 554.13,-239.28 522.75,-253 515.78,-256.05 508.32,-258.94 500.89,-261.6"/>
<polygon fill="#63b8ff" stroke="#63b8ff" points="612.43,-208.6 619.15,-200.4 608.79,-202.63 612.43,-208.6"/>
</a>
</g>
</g>
<!-- Node5 -->
<g id="Node000005" class="node">
<title>Node5</title>
<g id="a_Node000005"><a xlink:href="../../de/db4/classFFrameData.html#ac87d62116370ca1902d6b5f89aae2694" target="_top" xlink:title=" ">
<polygon fill="white" stroke="#666666" points="522.75,-244 369.5,-244 369.5,-224 522.75,-224 522.75,-244"/>
<text text-anchor="middle" x="446.12" y="-230.5" font-family="Helvetica,sans-Serif" font-size="10.00">FFrameData::GetFrameCounter</text>
</a>
</g>
</g>
<!-- Node1&#45;&gt;Node5 -->
<g id="edge4_Node000001_Node000005" class="edge">
<title>Node1&#45;&gt;Node5</title>
<g id="a_edge4_Node000001_Node000005"><a xlink:title=" ">
<path fill="none" stroke="#63b8ff" d="M581.15,-202.88C552.79,-209.46 518.73,-217.37 492.04,-223.57"/>
<polygon fill="#63b8ff" stroke="#63b8ff" points="581.77,-206.1 590.72,-200.43 580.18,-199.28 581.77,-206.1"/>
</a>
</g>
</g>
<!-- Node7 -->
<g id="Node000007" class="node">
<title>Node7</title>
<g id="a_Node000007"><a xlink:href="../../d8/de9/classACollisionSensor.html#ab4fa46f2abc1fbc290f967bb18e7e13e" target="_top" xlink:title=" ">
<polygon fill="white" stroke="#666666" points="519,-206 373.25,-206 373.25,-174 519,-174 519,-206"/>
<text text-anchor="start" x="381.25" y="-192.5" font-family="Helvetica,sans-Serif" font-size="10.00">ACollisionSensor::OnCollision</text>
<text text-anchor="middle" x="446.12" y="-180.5" font-family="Helvetica,sans-Serif" font-size="10.00">Event</text>
</a>
</g>
</g>
<!-- Node1&#45;&gt;Node7 -->
<g id="edge6_Node000001_Node000007" class="edge">
<title>Node1&#45;&gt;Node7</title>
<g id="a_edge6_Node000001_Node000007"><a xlink:title=" ">
<path fill="none" stroke="#63b8ff" d="M547.76,-190C538.24,-190 528.63,-190 519.34,-190"/>
<polygon fill="#63b8ff" stroke="#63b8ff" points="547.45,-193.5 557.45,-190 547.45,-186.5 547.45,-193.5"/>
</a>
</g>
</g>
<!-- Node11 -->
<g id="Node000011" class="node">
<title>Node11</title>
<g id="a_Node000011"><a xlink:href="../../d8/d68/classASceneCaptureCamera.html#a36b0678ac00948cd83033804022123c4" target="_top" xlink:title=" ">
<polygon fill="white" stroke="#666666" points="505.12,-138 387.12,-138 387.12,-106 505.12,-106 505.12,-138"/>
<text text-anchor="start" x="395.12" y="-124.5" font-family="Helvetica,sans-Serif" font-size="10.00">ASceneCaptureCamera</text>
<text text-anchor="middle" x="446.12" y="-112.5" font-family="Helvetica,sans-Serif" font-size="10.00">::PostPhysTick</text>
</a>
</g>
</g>
<!-- Node1&#45;&gt;Node11 -->
<g id="edge11_Node000001_Node000011" class="edge">
<title>Node1&#45;&gt;Node11</title>
<g id="a_edge11_Node000001_Node000011"><a xlink:title=" ">
<path fill="none" stroke="#63b8ff" d="M597.21,-175.86C566.86,-164.96 524.82,-149.88 492.96,-138.45"/>
<polygon fill="#63b8ff" stroke="#63b8ff" points="595.84,-179.44 606.43,-179.52 598.2,-172.85 595.84,-179.44"/>
</a>
</g>
</g>
<!-- Node12 -->
<g id="Node000012" class="node">
<title>Node12</title>
<g id="a_Node000012"><a xlink:href="../../d8/de9/classACollisionSensor.html#a1b4bd62f56b5e055e820d3096d02d866" target="_top" xlink:title=" ">
<polygon fill="white" stroke="#666666" points="522,-88 370.25,-88 370.25,-68 522,-68 522,-88"/>
<text text-anchor="middle" x="446.12" y="-74.5" font-family="Helvetica,sans-Serif" font-size="10.00">ACollisionSensor::PrePhysTick</text>
</a>
</g>
</g>
<!-- Node1&#45;&gt;Node12 -->
<g id="edge13_Node000001_Node000012" class="edge">
<title>Node1&#45;&gt;Node12</title>
<g id="a_edge13_Node000001_Node000012"><a xlink:title=" ">
<path fill="none" stroke="#63b8ff" d="M619.65,-171.97C598.8,-150.89 561.41,-116.42 522.75,-97 515.98,-93.6 508.55,-90.77 501.07,-88.44"/>
<polygon fill="#63b8ff" stroke="#63b8ff" points="616.57,-173.85 626.04,-178.59 621.59,-168.98 616.57,-173.85"/>
</a>
</g>
</g>
<!-- Node13 -->
<g id="Node000013" class="node">
<title>Node13</title>
<g id="a_Node000013"><a xlink:href="../../dd/d11/classFPixelReader.html#a9fcf29f1ab3802a4d7364b4435e3f498" target="_top" xlink:title="方便函数，将渲染命令加入队列以通过 Sensor 的数据流发送像素。 它需要一个继承自 ASceneCaptureSensor 或兼容的传感器。">
<polygon fill="white" stroke="#666666" points="511.12,-32 381.12,-32 381.12,0 511.12,0 511.12,-32"/>
<text text-anchor="start" x="389.12" y="-18.5" font-family="Helvetica,sans-Serif" font-size="10.00">FPixelReader::SendPixels</text>
<text text-anchor="middle" x="446.12" y="-6.5" font-family="Helvetica,sans-Serif" font-size="10.00">InRenderThread</text>
</a>
</g>
</g>
<!-- Node1&#45;&gt;Node13 -->
<g id="edge14_Node000001_Node000013" class="edge">
<title>Node1&#45;&gt;Node13</title>
<g id="a_edge14_Node000001_Node000013"><a xlink:title=" ">
<path fill="none" stroke="#63b8ff" d="M623.25,-170.86C603.54,-143.61 564.49,-93.18 522.75,-59 510.25,-48.76 494.98,-39.57 481.45,-32.34"/>
<polygon fill="#63b8ff" stroke="#63b8ff" points="620.95,-172.66 629.6,-178.77 626.65,-168.6 620.95,-172.66"/>
</a>
</g>
</g>
<!-- Node3 -->
<g id="Node000003" class="node">
<title>Node3</title>
<g id="a_Node000003"><a xlink:href="../../d7/d97/classFCarlaServer_1_1FPimpl.html#ab9ff29fc81bd2f9a14677941c7f7b62d" target="_top" xlink:title=" ">
<polygon fill="white" stroke="#666666" points="308.38,-344 200.12,-344 200.12,-312 308.38,-312 308.38,-344"/>
<text text-anchor="start" x="208.12" y="-330.5" font-family="Helvetica,sans-Serif" font-size="10.00">FCarlaServer::FPimpl</text>
<text text-anchor="middle" x="254.25" y="-318.5" font-family="Helvetica,sans-Serif" font-size="10.00">::FPimpl</text>
</a>
</g>
</g>
<!-- Node2&#45;&gt;Node3 -->
<g id="edge2_Node000002_Node000003" class="edge">
<title>Node2&#45;&gt;Node3</title>
<g id="a_edge2_Node000002_Node000003"><a xlink:title=" ">
<path fill="none" stroke="#63b8ff" d="M380.8,-328C357.31,-328 331.01,-328 308.57,-328"/>
<polygon fill="#63b8ff" stroke="#63b8ff" points="380.73,-331.5 390.73,-328 380.73,-324.5 380.73,-331.5"/>
</a>
</g>
</g>
<!-- Node6 -->
<g id="Node000006" class="node">
<title>Node6</title>
<g id="a_Node000006"><a xlink:href="../../de/db4/classFFrameData.html#a13396099d7e1c32df563893f7d0b35be" target="_top" xlink:title=" ">
<polygon fill="white" stroke="#666666" points="324.12,-244 184.38,-244 184.38,-224 324.12,-224 324.12,-244"/>
<text text-anchor="middle" x="254.25" y="-230.5" font-family="Helvetica,sans-Serif" font-size="10.00">FFrameData::GetFrameData</text>
</a>
</g>
</g>
<!-- Node5&#45;&gt;Node6 -->
<g id="edge5_Node000005_Node000006" class="edge">
<title>Node5&#45;&gt;Node6</title>
<g id="a_edge5_Node000005_Node000006"><a xlink:title=" ">
<path fill="none" stroke="#63b8ff" d="M358.44,-234C347.08,-234 335.55,-234 324.53,-234"/>
<polygon fill="#63b8ff" stroke="#63b8ff" points="358.26,-237.5 368.26,-234 358.26,-230.5 358.26,-237.5"/>
</a>
</g>
</g>
<!-- Node8 -->
<g id="Node000008" class="node">
<title>Node8</title>
<g id="a_Node000008"><a xlink:href="../../d8/de9/classACollisionSensor.html#af104d12b73c8fcefbc54027162b6463c" target="_top" xlink:title=" ">
<polygon fill="white" stroke="#666666" points="320.38,-206 188.12,-206 188.12,-174 320.38,-174 320.38,-206"/>
<text text-anchor="start" x="196.12" y="-192.5" font-family="Helvetica,sans-Serif" font-size="10.00">ACollisionSensor::OnActor</text>
<text text-anchor="middle" x="254.25" y="-180.5" font-family="Helvetica,sans-Serif" font-size="10.00">CollisionEvent</text>
</a>
</g>
</g>
<!-- Node7&#45;&gt;Node8 -->
<g id="edge7_Node000007_Node000008" class="edge">
<title>Node7&#45;&gt;Node8</title>
<g id="a_edge7_Node000007_Node000008"><a xlink:title=" ">
<path fill="none" stroke="#63b8ff" d="M361.87,-190C348.13,-190 334.06,-190 320.83,-190"/>
<polygon fill="#63b8ff" stroke="#63b8ff" points="361.8,-193.5 371.8,-190 361.8,-186.5 361.8,-193.5"/>
</a>
</g>
</g>
<!-- Node10 -->
<g id="Node000010" class="node">
<title>Node10</title>
<g id="a_Node000010"><a xlink:href="../../d8/de9/classACollisionSensor.html#ad65100bbaf7d2c09ec3e5970c10be88b" target="_top" xlink:title=" ">
<polygon fill="white" stroke="#666666" points="333.5,-156 175,-156 175,-124 333.5,-124 333.5,-156"/>
<text text-anchor="start" x="183" y="-142.5" font-family="Helvetica,sans-Serif" font-size="10.00">ACollisionSensor::OnComponent</text>
<text text-anchor="middle" x="254.25" y="-130.5" font-family="Helvetica,sans-Serif" font-size="10.00">CollisionEvent</text>
</a>
</g>
</g>
<!-- Node7&#45;&gt;Node10 -->
<g id="edge9_Node000007_Node000010" class="edge">
<title>Node7&#45;&gt;Node10</title>
<g id="a_edge9_Node000007_Node000010"><a xlink:title=" ">
<path fill="none" stroke="#63b8ff" d="M372.25,-170.81C354.27,-166.07 335.16,-161.04 317.72,-156.45"/>
<polygon fill="#63b8ff" stroke="#63b8ff" points="371.13,-174.4 381.69,-173.56 372.91,-167.63 371.13,-174.4"/>
</a>
</g>
</g>
<!-- Node9 -->
<g id="Node000009" class="node">
<title>Node9</title>
<g id="a_Node000009"><a xlink:href="../../d8/de9/classACollisionSensor.html#a182d28935eb0b680bf28bf2a85e21355" target="_top" xlink:title=" ">
<polygon fill="white" stroke="#666666" points="139,-175 0,-175 0,-155 139,-155 139,-175"/>
<text text-anchor="middle" x="69.5" y="-161.5" font-family="Helvetica,sans-Serif" font-size="10.00">ACollisionSensor::SetOwner</text>
</a>
</g>
</g>
<!-- Node8&#45;&gt;Node9 -->
<g id="edge8_Node000008_Node000009" class="edge">
<title>Node8&#45;&gt;Node9</title>
<g id="a_edge8_Node000008_Node000009"><a xlink:title=" ">
<path fill="none" stroke="#63b8ff" d="M176.92,-179.56C164.41,-177.85 151.52,-176.08 139.21,-174.4"/>
<polygon fill="#63b8ff" stroke="#63b8ff" points="176.41,-183.16 186.79,-181.05 177.36,-176.22 176.41,-183.16"/>
</a>
</g>
</g>
<!-- Node10&#45;&gt;Node9 -->
<g id="edge10_Node000010_Node000009" class="edge">
<title>Node10&#45;&gt;Node9</title>
<g id="a_edge10_Node000010_Node000009"><a xlink:title=" ">
<path fill="none" stroke="#63b8ff" d="M163.84,-152.23C155.56,-153.36 147.26,-154.5 139.22,-155.6"/>
<polygon fill="#63b8ff" stroke="#63b8ff" points="164.25,-155.57 173.69,-150.75 163.3,-148.64 164.25,-155.57"/>
</a>
</g>
</g>
<!-- Node11&#45;&gt;Node11 -->
<g id="edge12_Node000011_Node000011" class="edge">
<title>Node11&#45;&gt;Node11</title>
<g id="a_edge12_Node000011_Node000011"><a xlink:title=" ">
<path fill="none" stroke="#63b8ff" d="M478.9,-149.05C473.92,-153.19 462.99,-156 446.12,-156 416.95,-156 405.56,-147.58 411.94,-138.44"/>
<polygon fill="#63b8ff" stroke="#63b8ff" points="482.46,-149.82 480.31,-139.44 475.52,-148.89 482.46,-149.82"/>
</a>
</g>
</g>
<!-- Node13&#45;&gt;Node13 -->
<g id="edge15_Node000013_Node000013" class="edge">
<title>Node13&#45;&gt;Node13</title>
<g id="a_edge15_Node000013_Node000013"><a xlink:title=" ">
<path fill="none" stroke="#63b8ff" d="M478.9,-43.05C473.92,-47.19 462.99,-50 446.12,-50 416.95,-50 405.56,-41.58 411.94,-32.44"/>
<polygon fill="#63b8ff" stroke="#63b8ff" points="482.46,-43.82 480.31,-33.44 475.52,-42.89 482.46,-43.82"/>
</a>
</g>
</g>
</g>
</svg>

<g id="navigator" transform="translate(0 0)" fill="#404254">
  <rect fill="#f2f5e9" fill-opacity="0.5" stroke="#606060" stroke-width=".5" x="0" y="0" width="60" height="60"/>
  <use id="zoomplus" xlink:href="#zoomPlus" x="17" y="9" onmousedown="handleZoom(evt,'in')"/>
  <use id="zoomminus" xlink:href="#zoomMin" x="42" y="9" onmousedown="handleZoom(evt,'out')"/>
  <use id="reset" xlink:href="#resetDef" x="30" y="36" onmousedown="handleReset()"/>
   <use id="arrowup" xlink:href="#arrowUp" x="0" y="0" onmousedown="handlePan(0,-1)"/>
  <use id="arrowright" xlink:href="#arrowRight" x="0" y="0" onmousedown="handlePan(1,0)"/>
  <use id="arrowdown" xlink:href="#arrowDown" x="0" y="0" onmousedown="handlePan(0,1)"/>
  <use id="arrowleft" xlink:href="#arrowLeft" x="0" y="0" onmousedown="handlePan(-1,0)"/>
</g>
<svg viewBox="0 0 15 15" width="100%" height="30px" preserveAspectRatio="xMaxYMin meet">
 <g id="arrow_out" transform="scale(0.3 0.3)">
  <a xlink:href="classFCarlaEngine_a2b0720522df3521eb48575585568dfe1_icgraph_org.svg" target="_base">
   <rect id="button" ry="5" rx="5" y="6" x="6" height="38" width="38"
        fill="#f2f5e9" fill-opacity="0.5" stroke="#606060" stroke-width="1.0"/>
   <path id="arrow"
     d="M 11.500037,31.436501 C 11.940474,20.09759 22.043105,11.32322 32.158766,21.979434 L 37.068811,17.246167 C 37.068811,17.246167 37.088388,32 37.088388,32 L 22.160133,31.978069 C 22.160133,31.978069 26.997745,27.140456 26.997745,27.140456 C 18.528582,18.264221 13.291696,25.230495 11.500037,31.436501 z"
     style="fill:#404040;"/>
  </a>
 </g>
</svg>

<style type='text/css'>
<![CDATA[
[data-mouse-over-selected='false'] { opacity: 0.7; }
[data-mouse-over-selected='true']  { opacity: 1.0; }
]]>
</style>
<script type="application/ecmascript"><![CDATA[
document.addEventListener('DOMContentLoaded', (event) => {
  highlightEdges();
  highlightAdjacentNodes();
});
]]></script>
</svg>
