<?xml version="1.0" encoding="UTF-8" standalone="no"?>
<!DOCTYPE svg PUBLIC "-//W3C//DTD SVG 1.1//EN"
 "http://www.w3.org/Graphics/SVG/1.1/DTD/svg11.dtd">
<!-- Generated by graphviz version 8.1.0 (20230707.0739)
 -->
<!-- Title: moodycamel::inner_enqueue_bulk Pages: 1 -->
<svg width="469pt" height="158pt"
 viewBox="0.00 0.00 468.50 158.00" xmlns="http://www.w3.org/2000/svg" xmlns:xlink="http://www.w3.org/1999/xlink">
<g id="graph0" class="graph" transform="scale(1 1) rotate(0) translate(4 154)">
<title>moodycamel::inner_enqueue_bulk</title>
<!-- Node1 -->
<g id="Node000001" class="node">
<title>Node1</title>
<g id="a_Node000001"><a xlink:title=" ">
<polygon fill="#999999" stroke="#666666" points="163.75,-76 0,-76 0,-56 163.75,-56 163.75,-76"/>
<text text-anchor="middle" x="81.88" y="-62.5" font-family="Helvetica,sans-Serif" font-size="10.00">moodycamel::inner_enqueue_bulk</text>
</a>
</g>
</g>
<!-- Node2 -->
<g id="Node000002" class="node">
<title>Node2</title>
<g id="a_Node000002"><a xlink:href="../../db/dc8/namespacemoodycamel.html#a01bc08e224e9038100e4d5b92b47388f" target="_top" xlink:title=" ">
<polygon fill="white" stroke="#666666" points="315.5,-82 199.75,-82 199.75,-50 315.5,-50 315.5,-82"/>
<text text-anchor="start" x="207.75" y="-68.5" font-family="Helvetica,sans-Serif" font-size="10.00">moodycamel::get_or</text>
<text text-anchor="middle" x="257.62" y="-56.5" font-family="Helvetica,sans-Serif" font-size="10.00">_add_implicit_producer</text>
</a>
</g>
</g>
<!-- Node1&#45;&gt;Node2 -->
<g id="edge1_Node000001_Node000002" class="edge">
<title>Node1&#45;&gt;Node2</title>
<g id="a_edge1_Node000001_Node000002"><a xlink:title=" ">
<path fill="none" stroke="#63b8ff" d="M164.15,-66C172.35,-66 180.62,-66 188.65,-66"/>
<polygon fill="#63b8ff" stroke="#63b8ff" points="188.44,-69.5 198.44,-66 188.44,-62.5 188.44,-69.5"/>
</a>
</g>
</g>
<!-- Node3 -->
<g id="Node000003" class="node">
<title>Node3</title>
<g id="a_Node000003"><a xlink:href="../../d6/d0f/namespacemoodycamel_1_1details.html#a89c17c65fd022267103d6fcaa350bfbf" target="_top" xlink:title=" ">
<polygon fill="white" stroke="#666666" points="459,-150 353,-150 353,-118 459,-118 459,-150"/>
<text text-anchor="start" x="361" y="-136.5" font-family="Helvetica,sans-Serif" font-size="10.00">moodycamel::details</text>
<text text-anchor="middle" x="406" y="-124.5" font-family="Helvetica,sans-Serif" font-size="10.00">::hash_thread_id</text>
</a>
</g>
</g>
<!-- Node2&#45;&gt;Node3 -->
<g id="edge2_Node000002_Node000003" class="edge">
<title>Node2&#45;&gt;Node3</title>
<g id="a_edge2_Node000002_Node000003"><a xlink:title=" ">
<path fill="none" stroke="#63b8ff" d="M294.06,-82.46C313.85,-91.66 338.72,-103.21 359.89,-113.05"/>
<polygon fill="#63b8ff" stroke="#63b8ff" points="358.1,-116.53 368.64,-117.57 361.05,-110.19 358.1,-116.53"/>
</a>
</g>
</g>
<!-- Node4 -->
<g id="Node000004" class="node">
<title>Node4</title>
<g id="a_Node000004"><a xlink:href="../../db/dc8/namespacemoodycamel.html#a2e206fbc9341cb3af91dcf1baa901a5c" target="_top" xlink:title=" ">
<polygon fill="white" stroke="#666666" points="460.5,-82 351.5,-82 351.5,-50 460.5,-50 460.5,-82"/>
<text text-anchor="start" x="359.5" y="-68.5" font-family="Helvetica,sans-Serif" font-size="10.00">moodycamel::recycle</text>
<text text-anchor="middle" x="406" y="-56.5" font-family="Helvetica,sans-Serif" font-size="10.00">_or_create_producer</text>
</a>
</g>
</g>
<!-- Node2&#45;&gt;Node4 -->
<g id="edge3_Node000002_Node000004" class="edge">
<title>Node2&#45;&gt;Node4</title>
<g id="a_edge3_Node000002_Node000004"><a xlink:title=" ">
<path fill="none" stroke="#63b8ff" d="M315.64,-66C323.79,-66 332.22,-66 340.5,-66"/>
<polygon fill="#63b8ff" stroke="#63b8ff" points="340.26,-69.5 350.26,-66 340.26,-62.5 340.26,-69.5"/>
</a>
</g>
</g>
<!-- Node5 -->
<g id="Node000005" class="node">
<title>Node5</title>
<g id="a_Node000005"><a xlink:href="../../d6/d0f/namespacemoodycamel_1_1details.html#a9d5514e68f4f0f2d4295a0ac62386822" target="_top" xlink:title=" ">
<polygon fill="white" stroke="#666666" points="459,-32 353,-32 353,0 459,0 459,-32"/>
<text text-anchor="start" x="361" y="-18.5" font-family="Helvetica,sans-Serif" font-size="10.00">moodycamel::details</text>
<text text-anchor="middle" x="406" y="-6.5" font-family="Helvetica,sans-Serif" font-size="10.00">::thread_id</text>
</a>
</g>
</g>
<!-- Node2&#45;&gt;Node5 -->
<g id="edge5_Node000002_Node000005" class="edge">
<title>Node2&#45;&gt;Node5</title>
<g id="a_edge5_Node000002_Node000005"><a xlink:title=" ">
<path fill="none" stroke="#63b8ff" d="M306.55,-49.63C319.44,-45.23 333.52,-40.42 346.9,-35.85"/>
<polygon fill="#63b8ff" stroke="#63b8ff" points="347.63,-38.95 355.96,-32.41 345.37,-32.33 347.63,-38.95"/>
</a>
</g>
</g>
<!-- Node4&#45;&gt;Node4 -->
<g id="edge4_Node000004_Node000004" class="edge">
<title>Node4&#45;&gt;Node4</title>
<g id="a_edge4_Node000004_Node000004"><a xlink:title=" ">
<path fill="none" stroke="#63b8ff" d="M379.51,-82.44C374.57,-91.58 383.4,-100 406,-100 419.07,-100 427.53,-97.19 431.39,-93.05"/>
<polygon fill="#63b8ff" stroke="#63b8ff" points="434.94,-93.75 432.49,-83.44 427.98,-93.03 434.94,-93.75"/>
</a>
</g>
</g>
</g>
</svg>
