<?xml version="1.0" encoding="UTF-8" standalone="no"?>
<!DOCTYPE svg PUBLIC "-//W3C//DTD SVG 1.1//EN"
 "http://www.w3.org/Graphics/SVG/1.1/DTD/svg11.dtd">
<!-- Generated by graphviz version 8.1.0 (20230707.0739)
 -->
<!-- Title: moodycamel::recycle_or_create_producer Pages: 1 -->
<svg width="469pt" height="71pt"
 viewBox="0.00 0.00 468.50 71.00" xmlns="http://www.w3.org/2000/svg" xmlns:xlink="http://www.w3.org/1999/xlink">
<g id="graph0" class="graph" transform="scale(1 1) rotate(0) translate(4 67)">
<title>moodycamel::recycle_or_create_producer</title>
<!-- Node1 -->
<g id="Node000001" class="node">
<title>Node1</title>
<g id="a_Node000001"><a xlink:title=" ">
<polygon fill="#999999" stroke="#666666" points="460.5,-45 351.5,-45 351.5,-13 460.5,-13 460.5,-45"/>
<text text-anchor="start" x="359.5" y="-31.5" font-family="Helvetica,sans-Serif" font-size="10.00">moodycamel::recycle</text>
<text text-anchor="middle" x="406" y="-19.5" font-family="Helvetica,sans-Serif" font-size="10.00">_or_create_producer</text>
</a>
</g>
</g>
<!-- Node1&#45;&gt;Node1 -->
<g id="edge4_Node000001_Node000001" class="edge">
<title>Node1&#45;&gt;Node1</title>
<g id="a_edge4_Node000001_Node000001"><a xlink:title=" ">
<path fill="none" stroke="#63b8ff" d="M431.39,-56.05C427.53,-60.19 419.07,-63 406,-63 383.4,-63 374.57,-54.58 379.51,-45.44"/>
<polygon fill="#63b8ff" stroke="#63b8ff" points="434.94,-56.75 432.49,-46.44 427.98,-56.03 434.94,-56.75"/>
</a>
</g>
</g>
<!-- Node2 -->
<g id="Node000002" class="node">
<title>Node2</title>
<g id="a_Node000002"><a xlink:href="../../db/dc8/namespacemoodycamel.html#a01bc08e224e9038100e4d5b92b47388f" target="_top" xlink:title=" ">
<polygon fill="white" stroke="#666666" points="315.5,-45 199.75,-45 199.75,-13 315.5,-13 315.5,-45"/>
<text text-anchor="start" x="207.75" y="-31.5" font-family="Helvetica,sans-Serif" font-size="10.00">moodycamel::get_or</text>
<text text-anchor="middle" x="257.62" y="-19.5" font-family="Helvetica,sans-Serif" font-size="10.00">_add_implicit_producer</text>
</a>
</g>
</g>
<!-- Node1&#45;&gt;Node2 -->
<g id="edge1_Node000001_Node000002" class="edge">
<title>Node1&#45;&gt;Node2</title>
<g id="a_edge1_Node000001_Node000002"><a xlink:title=" ">
<path fill="none" stroke="#63b8ff" d="M340.58,-29C332.3,-29 323.88,-29 315.74,-29"/>
<polygon fill="#63b8ff" stroke="#63b8ff" points="340.33,-32.5 350.33,-29 340.33,-25.5 340.33,-32.5"/>
</a>
</g>
</g>
<!-- Node3 -->
<g id="Node000003" class="node">
<title>Node3</title>
<g id="a_Node000003"><a xlink:href="../../db/dc8/namespacemoodycamel.html#ac6048a7f04008f9be0db8e16c9c71a36" target="_top" xlink:title=" ">
<polygon fill="white" stroke="#666666" points="152.12,-58 11.62,-58 11.62,-38 152.12,-38 152.12,-58"/>
<text text-anchor="middle" x="81.88" y="-44.5" font-family="Helvetica,sans-Serif" font-size="10.00">moodycamel::inner_enqueue</text>
</a>
</g>
</g>
<!-- Node2&#45;&gt;Node3 -->
<g id="edge2_Node000002_Node000003" class="edge">
<title>Node2&#45;&gt;Node3</title>
<g id="a_edge2_Node000002_Node000003"><a xlink:title=" ">
<path fill="none" stroke="#63b8ff" d="M188.57,-36.44C176.75,-37.73 164.45,-39.08 152.59,-40.38"/>
<polygon fill="#63b8ff" stroke="#63b8ff" points="188.69,-39.84 198.25,-35.27 187.93,-32.88 188.69,-39.84"/>
</a>
</g>
</g>
<!-- Node4 -->
<g id="Node000004" class="node">
<title>Node4</title>
<g id="a_Node000004"><a xlink:href="../../db/dc8/namespacemoodycamel.html#a0a5bfa8fe957dd823eccb8616ffbfd19" target="_top" xlink:title=" ">
<polygon fill="white" stroke="#666666" points="163.75,-20 0,-20 0,0 163.75,0 163.75,-20"/>
<text text-anchor="middle" x="81.88" y="-6.5" font-family="Helvetica,sans-Serif" font-size="10.00">moodycamel::inner_enqueue_bulk</text>
</a>
</g>
</g>
<!-- Node2&#45;&gt;Node4 -->
<g id="edge3_Node000002_Node000004" class="edge">
<title>Node2&#45;&gt;Node4</title>
<g id="a_edge3_Node000002_Node000004"><a xlink:title=" ">
<path fill="none" stroke="#63b8ff" d="M188.49,-21.55C180.48,-20.67 172.25,-19.77 164.08,-18.88"/>
<polygon fill="#63b8ff" stroke="#63b8ff" points="187.93,-25.12 198.25,-22.73 188.69,-18.16 187.93,-25.12"/>
</a>
</g>
</g>
</g>
</svg>
