<?xml version="1.0" encoding="UTF-8" standalone="no"?>
<!DOCTYPE svg PUBLIC "-//W3C//DTD SVG 1.1//EN"
 "http://www.w3.org/Graphics/SVG/1.1/DTD/svg11.dtd">
<!-- Generated by graphviz version 8.1.0 (20230707.0739)
 -->
<!-- Title: carla::geom::Rotation::GetForwardVector Pages: 1 -->
<svg width="391pt" height="40pt"
 viewBox="0.00 0.00 390.50 40.00" xmlns="http://www.w3.org/2000/svg" xmlns:xlink="http://www.w3.org/1999/xlink">
<g id="graph0" class="graph" transform="scale(1 1) rotate(0) translate(4 36)">
<title>carla::geom::Rotation::GetForwardVector</title>
<!-- Node1 -->
<g id="Node000001" class="node">
<title>Node1</title>
<g id="a_Node000001"><a xlink:title=" ">
<polygon fill="#999999" stroke="#666666" points="109,-32 0,-32 0,0 109,0 109,-32"/>
<text text-anchor="start" x="8" y="-18.5" font-family="Helvetica,sans-Serif" font-size="10.00">carla::geom::Rotation</text>
<text text-anchor="middle" x="54.5" y="-6.5" font-family="Helvetica,sans-Serif" font-size="10.00">::GetForwardVector</text>
</a>
</g>
</g>
<!-- Node2 -->
<g id="Node000002" class="node">
<title>Node2</title>
<g id="a_Node000002"><a xlink:href="../../d0/dea/classcarla_1_1geom_1_1Math.html#aafbb2dc8a60aa6e86cc7fe1ad2872beb" target="_top" xlink:title="Compute the unit vector pointing towards the X&#45;axis of rotation.">
<polygon fill="white" stroke="#666666" points="245.75,-32 145,-32 145,0 245.75,0 245.75,-32"/>
<text text-anchor="start" x="153" y="-18.5" font-family="Helvetica,sans-Serif" font-size="10.00">carla::geom::Math::</text>
<text text-anchor="middle" x="195.38" y="-6.5" font-family="Helvetica,sans-Serif" font-size="10.00">GetForwardVector</text>
</a>
</g>
</g>
<!-- Node1&#45;&gt;Node2 -->
<g id="edge1_Node000001_Node000002" class="edge">
<title>Node1&#45;&gt;Node2</title>
<g id="a_edge1_Node000001_Node000002"><a xlink:title=" ">
<path fill="none" stroke="#63b8ff" d="M109.19,-16C117.37,-16 125.85,-16 134.15,-16"/>
<polygon fill="#63b8ff" stroke="#63b8ff" points="133.92,-19.5 143.92,-16 133.92,-12.5 133.92,-19.5"/>
</a>
</g>
</g>
<!-- Node3 -->
<g id="Node000003" class="node">
<title>Node3</title>
<g id="a_Node000003"><a xlink:href="../../d0/dea/classcarla_1_1geom_1_1Math.html#a2bd79912876dfbab9354c0bb841320e4" target="_top" xlink:title=" ">
<polygon fill="white" stroke="#666666" points="382.5,-32 281.75,-32 281.75,0 382.5,0 382.5,-32"/>
<text text-anchor="start" x="289.75" y="-18.5" font-family="Helvetica,sans-Serif" font-size="10.00">carla::geom::Math::</text>
<text text-anchor="middle" x="332.12" y="-6.5" font-family="Helvetica,sans-Serif" font-size="10.00">ToRadians</text>
</a>
</g>
</g>
<!-- Node2&#45;&gt;Node3 -->
<g id="edge2_Node000002_Node000003" class="edge">
<title>Node2&#45;&gt;Node3</title>
<g id="a_edge2_Node000002_Node000003"><a xlink:title=" ">
<path fill="none" stroke="#63b8ff" d="M246.17,-16C254.11,-16 262.39,-16 270.55,-16"/>
<polygon fill="#63b8ff" stroke="#63b8ff" points="270.54,-19.5 280.54,-16 270.54,-12.5 270.54,-19.5"/>
</a>
</g>
</g>
</g>
</svg>
