<?xml version="1.0" encoding="UTF-8" standalone="no"?>
<!DOCTYPE svg PUBLIC "-//W3C//DTD SVG 1.1//EN"
 "http://www.w3.org/Graphics/SVG/1.1/DTD/svg11.dtd">
<!-- Generated by graphviz version 8.1.0 (20230707.0739)
 -->
<!-- Title: carla::road::Lane::GetCornerPositions Pages: 1 -->
<!--zoomable 372 -->

<svg id="main" version="1.1" xmlns="http://www.w3.org/2000/svg" xmlns:xlink="http://www.w3.org/1999/xlink" xml:space="preserve" onload="init(evt)">
<style type="text/css"><![CDATA[
.node, .edge {opacity: 0.7;}
.node.selected, .edge.selected {opacity: 1;}
.edge:hover path { stroke: red; }
.edge:hover polygon { stroke: red; fill: red; }
]]></style>

<defs>
  <circle id="rim" cx="0" cy="0" r="7"/>
  <circle id="rim2" cx="0" cy="0" r="3.5"/>
  <g id="zoomPlus">
    <use xlink:href="#rim" fill="#404040"><set attributeName="fill" to="#808080" begin="zoomplus.mouseover" end="zoomplus.mouseout"/></use>
    <path d="M-4,0h8M0,-4v8" fill="none" stroke="white" stroke-width="1.5" pointer-events="none"/>
  </g>
  <g id="zoomMin">
    <use xlink:href="#rim" fill="#404040"><set attributeName="fill" to="#808080" begin="zoomminus.mouseover" end="zoomminus.mouseout"/></use>
    <path d="M-4,0h8" fill="none" stroke="white" stroke-width="1.5" pointer-events="none"/>
  </g>
  <g id="arrowUp" transform="translate(30 24)">
    <use xlink:href="#rim"/>
    <path pointer-events="none" fill="none" stroke="white" stroke-width="1.5" d="M0,-3.0v7 M-2.5,-0.5L0,-3.0L2.5,-0.5"/>
  </g>
  <g id="arrowRight" transform="rotate(90) translate(36 -43)">
    <use xlink:href="#rim"/>
    <path pointer-events="none" fill="none" stroke="white" stroke-width="1.5" d="M0,-3.0v7 M-2.5,-0.5L0,-3.0L2.5,-0.5"/>
  </g>
  <g id="arrowDown" transform="rotate(180) translate(-30 -48)">
    <use xlink:href="#rim"/>
    <path pointer-events="none" fill="none" stroke="white" stroke-width="1.5" d="M0,-3.0v7 M-2.5,-0.5L0,-3.0L2.5,-0.5"/>
  </g>
  <g id="arrowLeft" transform="rotate(270) translate(-36 17)">
    <use xlink:href="#rim"/>
    <path pointer-events="none" fill="none" stroke="white" stroke-width="1.5" d="M0,-3.0v7 M-2.5,-0.5L0,-3.0L2.5,-0.5"/>
  </g>
  <g id="resetDef">
    <use xlink:href="#rim2" fill="#404040"><set attributeName="fill" to="#808080" begin="reset.mouseover" end="reset.mouseout"/></use>
  </g>
</defs>
<script type="application/ecmascript">
var viewWidth = 699;
var viewHeight = 372;
var sectionId = 'dynsection-2';
</script>
<script type="application/ecmascript" xlink:href="../../svg.min.js"/>
<svg id="graph" class="graph">
<g id="viewport">
<title>carla::road::Lane::GetCornerPositions</title>
<!-- Node1 -->
<g id="Node000001" class="node">
<title>Node1</title>
<g id="a_Node000001"><a xlink:title="计算给定位置s的车道边缘位置">
<polygon fill="#999999" stroke="#666666" points="691,-201 590.25,-201 590.25,-169 691,-169 691,-201"/>
<text text-anchor="start" x="598.25" y="-187.5" font-family="Helvetica,sans-Serif" font-size="10.00">carla::road::Lane::</text>
<text text-anchor="middle" x="640.62" y="-175.5" font-family="Helvetica,sans-Serif" font-size="10.00">GetCornerPositions</text>
</a>
</g>
</g>
<!-- Node2 -->
<g id="Node000002" class="node">
<title>Node2</title>
<g id="a_Node000002"><a xlink:href="../../d6/d3d/classcarla_1_1geom_1_1MeshFactory.html#a512234aafe71530fd0cff32d9a27a4e4" target="_top" xlink:title="计算车道标记的当前s位置两侧的点">
<polygon fill="white" stroke="#666666" points="554.25,-326 408.5,-326 408.5,-294 554.25,-294 554.25,-326"/>
<text text-anchor="start" x="416.5" y="-312.5" font-family="Helvetica,sans-Serif" font-size="10.00">carla::geom::MeshFactory</text>
<text text-anchor="middle" x="481.38" y="-300.5" font-family="Helvetica,sans-Serif" font-size="10.00">::ComputeEdgesForLanemark</text>
</a>
</g>
</g>
<!-- Node1&#45;&gt;Node2 -->
<g id="edge1_Node000001_Node000002" class="edge">
<title>Node1&#45;&gt;Node2</title>
<g id="a_edge1_Node000001_Node000002"><a xlink:title=" ">
<path fill="none" stroke="#63b8ff" d="M623.85,-210.15C608.56,-232.64 583.44,-265.05 554.25,-285 549.56,-288.21 544.42,-291.04 539.11,-293.54"/>
<polygon fill="#63b8ff" stroke="#63b8ff" points="627.18,-212.45 629.78,-202.18 621.35,-208.59 627.18,-212.45"/>
</a>
</g>
</g>
<!-- Node5 -->
<g id="Node000005" class="node">
<title>Node5</title>
<g id="a_Node000005"><a xlink:href="../../d6/d3d/classcarla_1_1geom_1_1MeshFactory.html#a1e3c826505f82d1ddffd9f40c39cfa2a" target="_top" xlink:title="从给定的s起始和结束生成车道的网格">
<polygon fill="white" stroke="#666666" points="546.38,-276 416.38,-276 416.38,-244 546.38,-244 546.38,-276"/>
<text text-anchor="start" x="424.38" y="-262.5" font-family="Helvetica,sans-Serif" font-size="10.00">carla::geom::MeshFactory</text>
<text text-anchor="middle" x="481.38" y="-250.5" font-family="Helvetica,sans-Serif" font-size="10.00">::Generate</text>
</a>
</g>
</g>
<!-- Node1&#45;&gt;Node5 -->
<g id="edge4_Node000001_Node000005" class="edge">
<title>Node1&#45;&gt;Node5</title>
<g id="a_edge4_Node000001_Node000005"><a xlink:title=" ">
<path fill="none" stroke="#63b8ff" d="M605.47,-207.06C590.18,-216.4 571.69,-226.96 554.25,-235 547.65,-238.04 540.57,-240.93 533.52,-243.6"/>
<polygon fill="#63b8ff" stroke="#63b8ff" points="606.89,-209.68 613.55,-201.44 603.2,-203.73 606.89,-209.68"/>
</a>
</g>
</g>
<!-- Node6 -->
<g id="Node000006" class="node">
<title>Node6</title>
<g id="a_Node000006"><a xlink:href="../../d6/d3d/classcarla_1_1geom_1_1MeshFactory.html#a202f9750d3be15d0af4b42b3a90f3662" target="_top" xlink:title="在车道的左侧生成一个墙状网格">
<polygon fill="white" stroke="#666666" points="546.38,-226 416.38,-226 416.38,-194 546.38,-194 546.38,-226"/>
<text text-anchor="start" x="424.38" y="-212.5" font-family="Helvetica,sans-Serif" font-size="10.00">carla::geom::MeshFactory</text>
<text text-anchor="middle" x="481.38" y="-200.5" font-family="Helvetica,sans-Serif" font-size="10.00">::GenerateLeftWall</text>
</a>
</g>
</g>
<!-- Node1&#45;&gt;Node6 -->
<g id="edge5_Node000001_Node000006" class="edge">
<title>Node1&#45;&gt;Node6</title>
<g id="a_edge5_Node000001_Node000006"><a xlink:title=" ">
<path fill="none" stroke="#63b8ff" d="M579.06,-194.63C568.49,-196.31 557.46,-198.06 546.79,-199.76"/>
<polygon fill="#63b8ff" stroke="#63b8ff" points="579.54,-197.94 588.87,-192.91 578.44,-191.02 579.54,-197.94"/>
</a>
</g>
</g>
<!-- Node9 -->
<g id="Node000009" class="node">
<title>Node9</title>
<g id="a_Node000009"><a xlink:href="../../d6/d3d/classcarla_1_1geom_1_1MeshFactory.html#a11c673db2f69ad3c21ebba4d068b8c6c" target="_top" xlink:title="在车道的右侧生成一个墙状网格">
<polygon fill="white" stroke="#666666" points="546.38,-176 416.38,-176 416.38,-144 546.38,-144 546.38,-176"/>
<text text-anchor="start" x="424.38" y="-162.5" font-family="Helvetica,sans-Serif" font-size="10.00">carla::geom::MeshFactory</text>
<text text-anchor="middle" x="481.38" y="-150.5" font-family="Helvetica,sans-Serif" font-size="10.00">::GenerateRightWall</text>
</a>
</g>
</g>
<!-- Node1&#45;&gt;Node9 -->
<g id="edge9_Node000001_Node000009" class="edge">
<title>Node1&#45;&gt;Node9</title>
<g id="a_edge9_Node000001_Node000009"><a xlink:title=" ">
<path fill="none" stroke="#63b8ff" d="M579.06,-175.37C568.49,-173.69 557.46,-171.94 546.79,-170.24"/>
<polygon fill="#63b8ff" stroke="#63b8ff" points="578.44,-178.98 588.87,-177.09 579.54,-172.06 578.44,-178.98"/>
</a>
</g>
</g>
<!-- Node10 -->
<g id="Node000010" class="node">
<title>Node10</title>
<g id="a_Node000010"><a xlink:href="../../d6/d3d/classcarla_1_1geom_1_1MeshFactory.html#a307f715a3e409fd5db0ce50f45c40478" target="_top" xlink:title="从给定的s起始和结束生成车道的人行道网格">
<polygon fill="white" stroke="#666666" points="546.38,-126 416.38,-126 416.38,-94 546.38,-94 546.38,-126"/>
<text text-anchor="start" x="424.38" y="-112.5" font-family="Helvetica,sans-Serif" font-size="10.00">carla::geom::MeshFactory</text>
<text text-anchor="middle" x="481.38" y="-100.5" font-family="Helvetica,sans-Serif" font-size="10.00">::GenerateSidewalk</text>
</a>
</g>
</g>
<!-- Node1&#45;&gt;Node10 -->
<g id="edge12_Node000001_Node000010" class="edge">
<title>Node1&#45;&gt;Node10</title>
<g id="a_edge12_Node000001_Node000010"><a xlink:title=" ">
<path fill="none" stroke="#63b8ff" d="M605.47,-162.94C590.18,-153.6 571.69,-143.04 554.25,-135 547.65,-131.96 540.57,-129.07 533.52,-126.4"/>
<polygon fill="#63b8ff" stroke="#63b8ff" points="603.2,-166.27 613.55,-168.56 606.89,-160.32 603.2,-166.27"/>
</a>
</g>
</g>
<!-- Node11 -->
<g id="Node000011" class="node">
<title>Node11</title>
<g id="a_Node000011"><a xlink:href="../../d6/d3d/classcarla_1_1geom_1_1MeshFactory.html#ae26205cfd730254bb1a35302386b497f" target="_top" xlink:title="用更高的细分生成从给定的s起始和结束的车道网格">
<polygon fill="white" stroke="#666666" points="546.38,-76 416.38,-76 416.38,-44 546.38,-44 546.38,-76"/>
<text text-anchor="start" x="424.38" y="-62.5" font-family="Helvetica,sans-Serif" font-size="10.00">carla::geom::MeshFactory</text>
<text text-anchor="middle" x="481.38" y="-50.5" font-family="Helvetica,sans-Serif" font-size="10.00">::GenerateTesselated</text>
</a>
</g>
</g>
<!-- Node1&#45;&gt;Node11 -->
<g id="edge13_Node000001_Node000011" class="edge">
<title>Node1&#45;&gt;Node11</title>
<g id="a_edge13_Node000001_Node000011"><a xlink:title=" ">
<path fill="none" stroke="#63b8ff" d="M623.85,-159.85C608.56,-137.36 583.44,-104.95 554.25,-85 549.56,-81.79 544.42,-78.96 539.11,-76.46"/>
<polygon fill="#63b8ff" stroke="#63b8ff" points="621.35,-161.41 629.78,-167.82 627.18,-157.55 621.35,-161.41"/>
</a>
</g>
</g>
<!-- Node3 -->
<g id="Node000003" class="node">
<title>Node3</title>
<g id="a_Node000003"><a xlink:href="../../d6/d3d/classcarla_1_1geom_1_1MeshFactory.html#a5744e75d34e0a3514892d4a9b7906652" target="_top" xlink:title="仅为中心线（ID为0的线）生成车道标记">
<polygon fill="white" stroke="#666666" points="365,-364 194.5,-364 194.5,-332 365,-332 365,-364"/>
<text text-anchor="start" x="202.5" y="-350.5" font-family="Helvetica,sans-Serif" font-size="10.00">carla::geom::MeshFactory</text>
<text text-anchor="middle" x="279.75" y="-338.5" font-family="Helvetica,sans-Serif" font-size="10.00">::GenerateLaneMarksForCenterLine</text>
</a>
</g>
</g>
<!-- Node2&#45;&gt;Node3 -->
<g id="edge2_Node000002_Node000003" class="edge">
<title>Node2&#45;&gt;Node3</title>
<g id="a_edge2_Node000002_Node000003"><a xlink:title=" ">
<path fill="none" stroke="#63b8ff" d="M397.52,-325.77C386.91,-327.79 376.04,-329.86 365.41,-331.89"/>
<polygon fill="#63b8ff" stroke="#63b8ff" points="397.85,-329.08 407.02,-323.77 396.55,-322.2 397.85,-329.08"/>
</a>
</g>
</g>
<!-- Node4 -->
<g id="Node000004" class="node">
<title>Node4</title>
<g id="a_Node000004"><a xlink:href="../../d6/d3d/classcarla_1_1geom_1_1MeshFactory.html#aad2ea408b3032e959e384431becd860b" target="_top" xlink:title="为非中心线（即ID不为0的所有线）生成车道标记">
<polygon fill="white" stroke="#666666" points="372.5,-314 187,-314 187,-282 372.5,-282 372.5,-314"/>
<text text-anchor="start" x="195" y="-300.5" font-family="Helvetica,sans-Serif" font-size="10.00">carla::geom::MeshFactory</text>
<text text-anchor="middle" x="279.75" y="-288.5" font-family="Helvetica,sans-Serif" font-size="10.00">::GenerateLaneMarksForNotCenterLine</text>
</a>
</g>
</g>
<!-- Node2&#45;&gt;Node4 -->
<g id="edge3_Node000002_Node000004" class="edge">
<title>Node2&#45;&gt;Node4</title>
<g id="a_edge3_Node000002_Node000004"><a xlink:title=" ">
<path fill="none" stroke="#63b8ff" d="M397.22,-305C389.22,-304.52 381.07,-304.03 372.99,-303.54"/>
<polygon fill="#63b8ff" stroke="#63b8ff" points="396.83,-308.54 407.02,-305.65 397.25,-301.56 396.83,-308.54"/>
</a>
</g>
</g>
<!-- Node7 -->
<g id="Node000007" class="node">
<title>Node7</title>
<g id="a_Node000007"><a xlink:href="../../d6/d3d/classcarla_1_1geom_1_1MeshFactory.html#aec242ce8214cea646ba254c0cfc0176a" target="_top" xlink:title="生成一个网格，表示道路角落的墙，以避免车辆掉下去">
<polygon fill="white" stroke="#666666" points="344.75,-214 214.75,-214 214.75,-182 344.75,-182 344.75,-214"/>
<text text-anchor="start" x="222.75" y="-200.5" font-family="Helvetica,sans-Serif" font-size="10.00">carla::geom::MeshFactory</text>
<text text-anchor="middle" x="279.75" y="-188.5" font-family="Helvetica,sans-Serif" font-size="10.00">::GenerateWalls</text>
</a>
</g>
</g>
<!-- Node6&#45;&gt;Node7 -->
<g id="edge6_Node000006_Node000007" class="edge">
<title>Node6&#45;&gt;Node7</title>
<g id="a_edge6_Node000006_Node000007"><a xlink:title=" ">
<path fill="none" stroke="#63b8ff" d="M405.3,-205.49C385.53,-204.3 364.39,-203.03 345.23,-201.88"/>
<polygon fill="#63b8ff" stroke="#63b8ff" points="404.92,-209.03 415.11,-206.14 405.34,-202.04 404.92,-209.03"/>
</a>
</g>
</g>
<!-- Node8 -->
<g id="Node000008" class="node">
<title>Node8</title>
<g id="a_Node000008"><a xlink:href="../../d6/d3d/classcarla_1_1geom_1_1MeshFactory.html#a5588f2f98ea42ade1082db0ef1c8ce7b" target="_top" xlink:title="生成一个定义车道段安全墙的网格列表，限制最大长度">
<polygon fill="white" stroke="#666666" points="146.12,-214 4.88,-214 4.88,-182 146.12,-182 146.12,-214"/>
<text text-anchor="start" x="12.88" y="-200.5" font-family="Helvetica,sans-Serif" font-size="10.00">carla::geom::MeshFactory</text>
<text text-anchor="middle" x="75.5" y="-188.5" font-family="Helvetica,sans-Serif" font-size="10.00">::GenerateWallsWithMaxLen</text>
</a>
</g>
</g>
<!-- Node6&#45;&gt;Node8 -->
<g id="edge8_Node000006_Node000008" class="edge">
<title>Node6&#45;&gt;Node8</title>
<g id="a_edge8_Node000006_Node000008"><a xlink:title=" ">
<path fill="none" stroke="#63b8ff" d="M405.18,-220.23C394.24,-221.38 383.09,-222.36 372.5,-223 290.2,-227.94 268.93,-232.15 187,-223 170.97,-221.21 153.87,-218 138.04,-214.47"/>
<polygon fill="#63b8ff" stroke="#63b8ff" points="405.47,-223.61 415.03,-219.03 404.71,-216.65 405.47,-223.61"/>
</a>
</g>
</g>
<!-- Node7&#45;&gt;Node8 -->
<g id="edge7_Node000007_Node000008" class="edge">
<title>Node7&#45;&gt;Node8</title>
<g id="a_edge7_Node000007_Node000008"><a xlink:title=" ">
<path fill="none" stroke="#63b8ff" d="M203.64,-198C184.96,-198 165,-198 146.56,-198"/>
<polygon fill="#63b8ff" stroke="#63b8ff" points="203.48,-201.5 213.48,-198 203.48,-194.5 203.48,-201.5"/>
</a>
</g>
</g>
<!-- Node9&#45;&gt;Node7 -->
<g id="edge10_Node000009_Node000007" class="edge">
<title>Node9&#45;&gt;Node7</title>
<g id="a_edge10_Node000009_Node000007"><a xlink:title=" ">
<path fill="none" stroke="#63b8ff" d="M405.57,-174.24C385.73,-178.02 364.47,-182.06 345.23,-185.73"/>
<polygon fill="#63b8ff" stroke="#63b8ff" points="405.94,-177.54 415.11,-172.23 404.64,-170.66 405.94,-177.54"/>
</a>
</g>
</g>
<!-- Node9&#45;&gt;Node8 -->
<g id="edge11_Node000009_Node000008" class="edge">
<title>Node9&#45;&gt;Node8</title>
<g id="a_edge11_Node000009_Node000008"><a xlink:title=" ">
<path fill="none" stroke="#63b8ff" d="M405.19,-159.66C345.73,-160.27 260.73,-163.11 187,-173 171.79,-175.04 155.6,-178.16 140.42,-181.51"/>
<polygon fill="#63b8ff" stroke="#63b8ff" points="405.01,-163.15 414.99,-159.57 404.96,-156.15 405.01,-163.15"/>
</a>
</g>
</g>
<!-- Node12 -->
<g id="Node000012" class="node">
<title>Node12</title>
<g id="a_Node000012"><a xlink:href="../../d6/d3d/classcarla_1_1geom_1_1MeshFactory.html#ab98f3e86a2e1abf508c132708c48e414" target="_top" xlink:title="生成按顺序排列的车道段网格">
<polygon fill="white" stroke="#666666" points="354.88,-120 204.62,-120 204.62,-88 354.88,-88 354.88,-120"/>
<text text-anchor="start" x="212.62" y="-106.5" font-family="Helvetica,sans-Serif" font-size="10.00">carla::geom::MeshFactory</text>
<text text-anchor="middle" x="279.75" y="-94.5" font-family="Helvetica,sans-Serif" font-size="10.00">::GenerateLaneSectionOrdered</text>
</a>
</g>
</g>
<!-- Node11&#45;&gt;Node12 -->
<g id="edge14_Node000011_Node000012" class="edge">
<title>Node11&#45;&gt;Node12</title>
<g id="a_edge14_Node000011_Node000012"><a xlink:title=" ">
<path fill="none" stroke="#63b8ff" d="M405.49,-76.51C389.08,-80.12 371.71,-83.95 355.32,-87.56"/>
<polygon fill="#63b8ff" stroke="#63b8ff" points="406.1,-79.73 415.11,-74.16 404.59,-72.9 406.1,-79.73"/>
</a>
</g>
</g>
<!-- Node13 -->
<g id="Node000013" class="node">
<title>Node13</title>
<g id="a_Node000013"><a xlink:href="../../d6/d3d/classcarla_1_1geom_1_1MeshFactory.html#acce620f6e7432999236d4dd2c7900e24" target="_top" xlink:title="生成一个定义车道段的按顺序排列的网格列表，限制最大长度">
<polygon fill="white" stroke="#666666" points="151,-98 0,-98 0,-66 151,-66 151,-98"/>
<text text-anchor="start" x="8" y="-84.5" font-family="Helvetica,sans-Serif" font-size="10.00">carla::geom::MeshFactory</text>
<text text-anchor="middle" x="75.5" y="-72.5" font-family="Helvetica,sans-Serif" font-size="10.00">::GenerateOrderedWithMaxLen</text>
</a>
</g>
</g>
<!-- Node11&#45;&gt;Node13 -->
<g id="edge16_Node000011_Node000013" class="edge">
<title>Node11&#45;&gt;Node13</title>
<g id="a_edge16_Node000011_Node000013"><a xlink:title=" ">
<path fill="none" stroke="#63b8ff" d="M405.07,-64.1C332.61,-68.05 223.66,-73.98 151.35,-77.92"/>
<polygon fill="#63b8ff" stroke="#63b8ff" points="405.14,-67.55 414.93,-63.51 404.76,-60.56 405.14,-67.55"/>
</a>
</g>
</g>
<!-- Node14 -->
<g id="Node000014" class="node">
<title>Node14</title>
<g id="a_Node000014"><a xlink:href="../../d6/d3d/classcarla_1_1geom_1_1MeshFactory.html#a27fb4c904ccf5679a3888a511609495b" target="_top" xlink:title="生成定义整个车道的网格，使用更高的细分">
<polygon fill="white" stroke="#666666" points="344.75,-32 214.75,-32 214.75,0 344.75,0 344.75,-32"/>
<text text-anchor="start" x="222.75" y="-18.5" font-family="Helvetica,sans-Serif" font-size="10.00">carla::geom::MeshFactory</text>
<text text-anchor="middle" x="279.75" y="-6.5" font-family="Helvetica,sans-Serif" font-size="10.00">::GenerateTesselated</text>
</a>
</g>
</g>
<!-- Node11&#45;&gt;Node14 -->
<g id="edge17_Node000011_Node000014" class="edge">
<title>Node11&#45;&gt;Node14</title>
<g id="a_edge17_Node000011_Node000014"><a xlink:title=" ">
<path fill="none" stroke="#63b8ff" d="M405.57,-43.51C385.73,-39.14 364.47,-34.45 345.23,-30.21"/>
<polygon fill="#63b8ff" stroke="#63b8ff" points="404.59,-47.1 415.11,-45.84 406.1,-40.27 404.59,-47.1"/>
</a>
</g>
</g>
<!-- Node12&#45;&gt;Node13 -->
<g id="edge15_Node000012_Node000013" class="edge">
<title>Node12&#45;&gt;Node13</title>
<g id="a_edge15_Node000012_Node000013"><a xlink:title=" ">
<path fill="none" stroke="#63b8ff" d="M193.68,-94.75C179.66,-93.22 165.22,-91.65 151.47,-90.15"/>
<polygon fill="#63b8ff" stroke="#63b8ff" points="192.98,-98.3 203.3,-95.9 193.74,-91.34 192.98,-98.3"/>
</a>
</g>
</g>
</g>
</svg>

<g id="navigator" transform="translate(0 0)" fill="#404254">
  <rect fill="#f2f5e9" fill-opacity="0.5" stroke="#606060" stroke-width=".5" x="0" y="0" width="60" height="60"/>
  <use id="zoomplus" xlink:href="#zoomPlus" x="17" y="9" onmousedown="handleZoom(evt,'in')"/>
  <use id="zoomminus" xlink:href="#zoomMin" x="42" y="9" onmousedown="handleZoom(evt,'out')"/>
  <use id="reset" xlink:href="#resetDef" x="30" y="36" onmousedown="handleReset()"/>
   <use id="arrowup" xlink:href="#arrowUp" x="0" y="0" onmousedown="handlePan(0,-1)"/>
  <use id="arrowright" xlink:href="#arrowRight" x="0" y="0" onmousedown="handlePan(1,0)"/>
  <use id="arrowdown" xlink:href="#arrowDown" x="0" y="0" onmousedown="handlePan(0,1)"/>
  <use id="arrowleft" xlink:href="#arrowLeft" x="0" y="0" onmousedown="handlePan(-1,0)"/>
</g>
<svg viewBox="0 0 15 15" width="100%" height="30px" preserveAspectRatio="xMaxYMin meet">
 <g id="arrow_out" transform="scale(0.3 0.3)">
  <a xlink:href="classcarla_1_1road_1_1Lane_ae0d376fa422b14e54af3a702e1b8385a_icgraph_org.svg" target="_base">
   <rect id="button" ry="5" rx="5" y="6" x="6" height="38" width="38"
        fill="#f2f5e9" fill-opacity="0.5" stroke="#606060" stroke-width="1.0"/>
   <path id="arrow"
     d="M 11.500037,31.436501 C 11.940474,20.09759 22.043105,11.32322 32.158766,21.979434 L 37.068811,17.246167 C 37.068811,17.246167 37.088388,32 37.088388,32 L 22.160133,31.978069 C 22.160133,31.978069 26.997745,27.140456 26.997745,27.140456 C 18.528582,18.264221 13.291696,25.230495 11.500037,31.436501 z"
     style="fill:#404040;"/>
  </a>
 </g>
</svg>

<style type='text/css'>
<![CDATA[
[data-mouse-over-selected='false'] { opacity: 0.7; }
[data-mouse-over-selected='true']  { opacity: 1.0; }
]]>
</style>
<script type="application/ecmascript"><![CDATA[
document.addEventListener('DOMContentLoaded', (event) => {
  highlightEdges();
  highlightAdjacentNodes();
});
]]></script>
</svg>
