<?xml version="1.0" encoding="UTF-8" standalone="no"?>
<!DOCTYPE svg PUBLIC "-//W3C//DTD SVG 1.1//EN"
 "http://www.w3.org/Graphics/SVG/1.1/DTD/svg11.dtd">
<!-- Generated by graphviz version 8.1.0 (20230707.0739)
 -->
<!-- Title: moodycamel::ProducerBase::dequeue Pages: 1 -->
<svg width="336pt" height="90pt"
 viewBox="0.00 0.00 336.25 90.00" xmlns="http://www.w3.org/2000/svg" xmlns:xlink="http://www.w3.org/1999/xlink">
<g id="graph0" class="graph" transform="scale(1 1) rotate(0) translate(4 86)">
<title>moodycamel::ProducerBase::dequeue</title>
<!-- Node1 -->
<g id="Node000001" class="node">
<title>Node1</title>
<g id="a_Node000001"><a xlink:title=" ">
<polygon fill="#999999" stroke="#666666" points="328.25,-57 189.25,-57 189.25,-25 328.25,-25 328.25,-57"/>
<text text-anchor="start" x="197.25" y="-43.5" font-family="Helvetica,sans-Serif" font-size="10.00">moodycamel::ProducerBase</text>
<text text-anchor="middle" x="258.75" y="-31.5" font-family="Helvetica,sans-Serif" font-size="10.00">::dequeue</text>
</a>
</g>
</g>
<!-- Node1&#45;&gt;Node1 -->
<g id="edge1_Node000001_Node000001" class="edge">
<title>Node1&#45;&gt;Node1</title>
<g id="a_edge1_Node000001_Node000001"><a xlink:title=" ">
<path fill="none" stroke="#63b8ff" d="M289.92,-68.05C285.18,-72.19 274.79,-75 258.75,-75 231,-75 220.17,-66.58 226.24,-57.44"/>
<polygon fill="#63b8ff" stroke="#63b8ff" points="293.48,-68.8 291.26,-58.44 286.53,-67.92 293.48,-68.8"/>
</a>
</g>
</g>
<!-- Node2 -->
<g id="Node000002" class="node">
<title>Node2</title>
<g id="a_Node000002"><a xlink:href="../../d8/dc8/classmoodycamel_1_1ConcurrentQueue.html#a67d5a2377539808015044acbb34216d1" target="_top" xlink:title=" ">
<polygon fill="white" stroke="#666666" points="153.25,-82 0,-82 0,-50 153.25,-50 153.25,-82"/>
<text text-anchor="start" x="8" y="-68.5" font-family="Helvetica,sans-Serif" font-size="10.00">moodycamel::ConcurrentQueue</text>
<text text-anchor="middle" x="76.62" y="-56.5" font-family="Helvetica,sans-Serif" font-size="10.00">::try_dequeue</text>
</a>
</g>
</g>
<!-- Node1&#45;&gt;Node2 -->
<g id="edge2_Node000001_Node000002" class="edge">
<title>Node1&#45;&gt;Node2</title>
<g id="a_edge2_Node000001_Node000002"><a xlink:title=" ">
<path fill="none" stroke="#63b8ff" d="M178.24,-52.04C170.07,-53.17 161.79,-54.32 153.66,-55.45"/>
<polygon fill="#63b8ff" stroke="#63b8ff" points="178.46,-55.4 187.88,-50.56 177.5,-48.47 178.46,-55.4"/>
</a>
</g>
</g>
<!-- Node3 -->
<g id="Node000003" class="node">
<title>Node3</title>
<g id="a_Node000003"><a xlink:href="../../d8/dc8/classmoodycamel_1_1ConcurrentQueue.html#a1895c8a6120aef578fe01db53879517b" target="_top" xlink:title=" ">
<polygon fill="white" stroke="#666666" points="153.25,-32 0,-32 0,0 153.25,0 153.25,-32"/>
<text text-anchor="start" x="8" y="-18.5" font-family="Helvetica,sans-Serif" font-size="10.00">moodycamel::ConcurrentQueue</text>
<text text-anchor="middle" x="76.62" y="-6.5" font-family="Helvetica,sans-Serif" font-size="10.00">::try_dequeue</text>
</a>
</g>
</g>
<!-- Node1&#45;&gt;Node3 -->
<g id="edge3_Node000001_Node000003" class="edge">
<title>Node1&#45;&gt;Node3</title>
<g id="a_edge3_Node000001_Node000003"><a xlink:title=" ">
<path fill="none" stroke="#63b8ff" d="M178.24,-29.96C170.07,-28.83 161.79,-27.68 153.66,-26.55"/>
<polygon fill="#63b8ff" stroke="#63b8ff" points="177.5,-33.53 187.88,-31.44 178.46,-26.6 177.5,-33.53"/>
</a>
</g>
</g>
</g>
</svg>
