<?xml version="1.0" encoding="UTF-8" standalone="no"?>
<!DOCTYPE svg PUBLIC "-//W3C//DTD SVG 1.1//EN"
 "http://www.w3.org/Graphics/SVG/1.1/DTD/svg11.dtd">
<!-- Generated by graphviz version 8.1.0 (20230707.0739)
 -->
<!-- Title: FDenseTile::GetParticlesInRadius Pages: 1 -->
<svg width="458pt" height="146pt"
 viewBox="0.00 0.00 458.00 146.00" xmlns="http://www.w3.org/2000/svg" xmlns:xlink="http://www.w3.org/1999/xlink">

<svg id="main" version="1.1" xmlns="http://www.w3.org/2000/svg" xmlns:xlink="http://www.w3.org/1999/xlink" xml:space="preserve" onload="init(evt)">
<style type="text/css"><![CDATA[
.node, .edge {opacity: 0.7;}
.node.selected, .edge.selected {opacity: 1;}
.edge:hover path { stroke: red; }
.edge:hover polygon { stroke: red; fill: red; }
]]></style>
<script type="application/ecmascript" xlink:href="../../svg.min.js"/>
<svg id="graph" class="graph">
<g id="graph0" class="graph" transform="scale(1 1) rotate(0) translate(4 142)">
<title>FDenseTile::GetParticlesInRadius</title>
<!-- Node1 -->
<g id="Node000001" class="node">
<title>Node1</title>
<g id="a_Node000001"><a xlink:title=" ">
<polygon fill="#999999" stroke="#666666" points="450,-76 325.25,-76 325.25,-44 450,-44 450,-76"/>
<text text-anchor="start" x="333.25" y="-62.5" font-family="Helvetica,sans-Serif" font-size="10.00">FDenseTile::GetParticles</text>
<text text-anchor="middle" x="387.62" y="-50.5" font-family="Helvetica,sans-Serif" font-size="10.00">InRadius</text>
</a>
</g>
</g>
<!-- Node1&#45;&gt;Node1 -->
<g id="edge1_Node000001_Node000001" class="edge">
<title>Node1&#45;&gt;Node1</title>
<g id="a_edge1_Node000001_Node000001"><a xlink:title=" ">
<path fill="none" stroke="#63b8ff" d="M415.14,-87.05C410.95,-91.19 401.78,-94 387.62,-94 363.14,-94 353.57,-85.58 358.93,-76.44"/>
<polygon fill="#63b8ff" stroke="#63b8ff" points="418.69,-87.77 416.32,-77.44 411.73,-86.99 418.69,-87.77"/>
</a>
</g>
</g>
<!-- Node2 -->
<g id="Node000002" class="node">
<title>Node2</title>
<g id="a_Node000002"><a xlink:href="../../d1/d85/classFSparseHighDetailMap.html#adf51b5c24afaa4b7bc7a4b474b0a0659" target="_top" xlink:title=" ">
<polygon fill="white" stroke="#666666" points="284.75,-120 169,-120 169,-88 284.75,-88 284.75,-120"/>
<text text-anchor="start" x="177" y="-106.5" font-family="Helvetica,sans-Serif" font-size="10.00">FSparseHighDetailMap</text>
<text text-anchor="middle" x="226.88" y="-94.5" font-family="Helvetica,sans-Serif" font-size="10.00">::GetParticlesInRadius</text>
</a>
</g>
</g>
<!-- Node1&#45;&gt;Node2 -->
<g id="edge2_Node000001_Node000002" class="edge">
<title>Node1&#45;&gt;Node2</title>
<g id="a_edge2_Node000001_Node000002"><a xlink:title=" ">
<path fill="none" stroke="#63b8ff" d="M317,-79.3C306.37,-82.24 295.51,-85.25 285.19,-88.11"/>
<polygon fill="#63b8ff" stroke="#63b8ff" points="317.81,-82.43 326.51,-76.38 315.94,-75.68 317.81,-82.43"/>
</a>
</g>
</g>
<!-- Node3 -->
<g id="Node000003" class="node">
<title>Node3</title>
<g id="a_Node000003"><a xlink:href="../../d1/d85/classFSparseHighDetailMap.html#a44620b84b886b1339c3edc6747e24527" target="_top" xlink:title=" ">
<polygon fill="white" stroke="#666666" points="128.5,-98 0,-98 0,-66 128.5,-66 128.5,-98"/>
<text text-anchor="start" x="8" y="-84.5" font-family="Helvetica,sans-Serif" font-size="10.00">FSparseHighDetailMap</text>
<text text-anchor="middle" x="64.25" y="-72.5" font-family="Helvetica,sans-Serif" font-size="10.00">::GetParticlesInTileRadius</text>
</a>
</g>
</g>
<!-- Node1&#45;&gt;Node3 -->
<g id="edge6_Node000001_Node000003" class="edge">
<title>Node1&#45;&gt;Node3</title>
<g id="a_edge6_Node000001_Node000003"><a xlink:title=" ">
<path fill="none" stroke="#63b8ff" d="M314.18,-64.96C258.45,-68.77 182.2,-73.99 128.82,-77.65"/>
<polygon fill="#63b8ff" stroke="#63b8ff" points="314.3,-68.39 324.04,-64.22 313.83,-61.41 314.3,-68.39"/>
</a>
</g>
</g>
<!-- Node4 -->
<g id="Node000004" class="node">
<title>Node4</title>
<g id="a_Node000004"><a xlink:href="../../d3/de5/structFDenseTile.html#a27b7d94f19f2b0ba25924cb4856ba97a" target="_top" xlink:title=" ">
<polygon fill="white" stroke="#666666" points="289.25,-32 164.5,-32 164.5,0 289.25,0 289.25,-32"/>
<text text-anchor="start" x="172.5" y="-18.5" font-family="Helvetica,sans-Serif" font-size="10.00">FDenseTile::GetParticles</text>
<text text-anchor="middle" x="226.88" y="-6.5" font-family="Helvetica,sans-Serif" font-size="10.00">InRadius</text>
</a>
</g>
</g>
<!-- Node1&#45;&gt;Node4 -->
<g id="edge5_Node000001_Node000004" class="edge">
<title>Node1&#45;&gt;Node4</title>
<g id="a_edge5_Node000001_Node000004"><a xlink:title=" ">
<path fill="none" stroke="#63b8ff" d="M317.22,-40.76C307.25,-38 297.06,-35.18 287.3,-32.47"/>
<polygon fill="#63b8ff" stroke="#63b8ff" points="315.94,-44.32 326.51,-43.62 317.81,-37.57 315.94,-44.32"/>
</a>
</g>
</g>
<!-- Node2&#45;&gt;Node2 -->
<g id="edge3_Node000002_Node000002" class="edge">
<title>Node2&#45;&gt;Node2</title>
<g id="a_edge3_Node000002_Node000002"><a xlink:title=" ">
<path fill="none" stroke="#63b8ff" d="M254.39,-131.05C250.2,-135.19 241.03,-138 226.88,-138 202.39,-138 192.82,-129.58 198.18,-120.44"/>
<polygon fill="#63b8ff" stroke="#63b8ff" points="257.94,-131.77 255.57,-121.44 250.98,-130.99 257.94,-131.77"/>
</a>
</g>
</g>
<!-- Node2&#45;&gt;Node3 -->
<g id="edge4_Node000002_Node000003" class="edge">
<title>Node2&#45;&gt;Node3</title>
<g id="a_edge4_Node000002_Node000003"><a xlink:title=" ">
<path fill="none" stroke="#63b8ff" d="M158.05,-94.71C148.41,-93.39 138.53,-92.04 128.98,-90.73"/>
<polygon fill="#63b8ff" stroke="#63b8ff" points="157.41,-98.29 167.79,-96.18 158.36,-91.36 157.41,-98.29"/>
</a>
</g>
</g>
</g>
</svg>
</svg>

<style type='text/css'>
<![CDATA[
[data-mouse-over-selected='false'] { opacity: 0.7; }
[data-mouse-over-selected='true']  { opacity: 1.0; }
]]>
</style>
<script type="application/ecmascript"><![CDATA[
document.addEventListener('DOMContentLoaded', (event) => {
  highlightEdges();
  highlightAdjacentNodes();
});
]]></script>
</svg>
