<?xml version="1.0" encoding="UTF-8" standalone="no"?>
<!DOCTYPE svg PUBLIC "-//W3C//DTD SVG 1.1//EN"
 "http://www.w3.org/Graphics/SVG/1.1/DTD/svg11.dtd">
<!-- Generated by graphviz version 8.1.0 (20230707.0739)
 -->
<!-- Title: Vector3PubSubTypes.h Pages: 1 -->
<svg width="1310pt" height="288pt"
 viewBox="0.00 0.00 1310.12 288.00" xmlns="http://www.w3.org/2000/svg" xmlns:xlink="http://www.w3.org/1999/xlink">
<g id="graph0" class="graph" transform="scale(1 1) rotate(0) translate(4 284)">
<title>Vector3PubSubTypes.h</title>
<!-- Node1 -->
<g id="Node000001" class="node">
<title>Node1</title>
<g id="a_Node000001"><a xlink:title=" ">
<polygon fill="#999999" stroke="#666666" points="744.25,-280 625.5,-280 625.5,-260 744.25,-260 744.25,-280"/>
<text text-anchor="middle" x="684.88" y="-266.5" font-family="Helvetica,sans-Serif" font-size="10.00">Vector3PubSubTypes.h</text>
</a>
</g>
</g>
<!-- Node2 -->
<g id="Node000002" class="node">
<title>Node2</title>
<g id="a_Node000002"><a xlink:href="../../df/df6/CarlaCollisionEventPubSubTypes_8h.html" target="_top" xlink:title=" ">
<polygon fill="white" stroke="#666666" points="285.75,-224 152,-224 152,-192 285.75,-192 285.75,-224"/>
<text text-anchor="start" x="160" y="-210.5" font-family="Helvetica,sans-Serif" font-size="10.00">CarlaCollisionEventPubSub</text>
<text text-anchor="middle" x="218.88" y="-198.5" font-family="Helvetica,sans-Serif" font-size="10.00">Types.h</text>
</a>
</g>
</g>
<!-- Node1&#45;&gt;Node2 -->
<g id="edge1_Node000001_Node000002" class="edge">
<title>Node1&#45;&gt;Node2</title>
<g id="a_edge1_Node000001_Node000002"><a xlink:title=" ">
<path fill="none" stroke="#63b8ff" d="M614.59,-259.95C525.59,-248.49 373.34,-228.89 285.92,-217.63"/>
<polygon fill="#63b8ff" stroke="#63b8ff" points="614.02,-263.53 624.38,-261.34 614.91,-256.59 614.02,-263.53"/>
</a>
</g>
</g>
<!-- Node5 -->
<g id="Node000005" class="node">
<title>Node5</title>
<g id="a_Node000005"><a xlink:href="../../d6/dd3/ImuPubSubTypes_8h.html" target="_top" xlink:title=" ">
<polygon fill="white" stroke="#666666" points="543.25,-218 442.5,-218 442.5,-198 543.25,-198 543.25,-218"/>
<text text-anchor="middle" x="492.88" y="-204.5" font-family="Helvetica,sans-Serif" font-size="10.00">ImuPubSubTypes.h</text>
</a>
</g>
</g>
<!-- Node1&#45;&gt;Node5 -->
<g id="edge4_Node000001_Node000005" class="edge">
<title>Node1&#45;&gt;Node5</title>
<g id="a_edge4_Node000001_Node000005"><a xlink:title=" ">
<path fill="none" stroke="#63b8ff" d="M644.64,-256.43C608.34,-245.08 555.76,-228.65 522.98,-218.41"/>
<polygon fill="#63b8ff" stroke="#63b8ff" points="643.29,-259.98 653.88,-259.62 645.37,-253.3 643.29,-259.98"/>
</a>
</g>
</g>
<!-- Node8 -->
<g id="Node000008" class="node">
<title>Node8</title>
<g id="a_Node000008"><a xlink:href="../../dc/d9a/TransformPubSubTypes_8h.html" target="_top" xlink:title=" ">
<polygon fill="white" stroke="#666666" points="748.75,-218 621,-218 621,-198 748.75,-198 748.75,-218"/>
<text text-anchor="middle" x="684.88" y="-204.5" font-family="Helvetica,sans-Serif" font-size="10.00">TransformPubSubTypes.h</text>
</a>
</g>
</g>
<!-- Node1&#45;&gt;Node8 -->
<g id="edge7_Node000001_Node000008" class="edge">
<title>Node1&#45;&gt;Node8</title>
<g id="a_edge7_Node000001_Node000008"><a xlink:title=" ">
<path fill="none" stroke="#63b8ff" d="M684.88,-248.93C684.88,-238.5 684.88,-226.26 684.88,-218.11"/>
<polygon fill="#63b8ff" stroke="#63b8ff" points="681.38,-248.62 684.88,-258.62 688.38,-248.63 681.38,-248.62"/>
</a>
</g>
</g>
<!-- Node15 -->
<g id="Node000015" class="node">
<title>Node15</title>
<g id="a_Node000015"><a xlink:href="../../d4/d05/TwistPubSubTypes_8h.html" target="_top" xlink:title=" ">
<polygon fill="white" stroke="#666666" points="971.62,-218 864.12,-218 864.12,-198 971.62,-198 971.62,-218"/>
<text text-anchor="middle" x="917.88" y="-204.5" font-family="Helvetica,sans-Serif" font-size="10.00">TwistPubSubTypes.h</text>
</a>
</g>
</g>
<!-- Node1&#45;&gt;Node15 -->
<g id="edge14_Node000001_Node000015" class="edge">
<title>Node1&#45;&gt;Node15</title>
<g id="a_edge14_Node000001_Node000015"><a xlink:title=" ">
<path fill="none" stroke="#63b8ff" d="M731.97,-256.87C775.96,-245.55 840.72,-228.87 881.04,-218.48"/>
<polygon fill="#63b8ff" stroke="#63b8ff" points="731.35,-253.68 722.54,-259.56 733.09,-260.45 731.35,-253.68"/>
</a>
</g>
</g>
<!-- Node21 -->
<g id="Node000021" class="node">
<title>Node21</title>
<g id="a_Node000021"><a xlink:href="../../d4/db5/Vector3PubSubTypes_8cpp.html" target="_top" xlink:title=" ">
<polygon fill="white" stroke="#666666" points="1118.5,-218 989.25,-218 989.25,-198 1118.5,-198 1118.5,-218"/>
<text text-anchor="middle" x="1053.88" y="-204.5" font-family="Helvetica,sans-Serif" font-size="10.00">Vector3PubSubTypes.cpp</text>
</a>
</g>
</g>
<!-- Node1&#45;&gt;Node21 -->
<g id="edge20_Node000001_Node000021" class="edge">
<title>Node1&#45;&gt;Node21</title>
<g id="a_edge20_Node000001_Node000021"><a xlink:title=" ">
<path fill="none" stroke="#63b8ff" d="M755.43,-259.32C815.51,-250.83 904.04,-237.72 980.88,-224 990.17,-222.34 1000.1,-220.41 1009.55,-218.49"/>
<polygon fill="#63b8ff" stroke="#63b8ff" points="754.97,-255.99 745.55,-260.85 755.94,-262.92 754.97,-255.99"/>
</a>
</g>
</g>
<!-- Node3 -->
<g id="Node000003" class="node">
<title>Node3</title>
<g id="a_Node000003"><a xlink:href="../../db/dcb/CarlaCollisionEventPubSubTypes_8cpp.html" target="_top" xlink:title=" ">
<polygon fill="white" stroke="#666666" points="133.75,-156 0,-156 0,-124 133.75,-124 133.75,-156"/>
<text text-anchor="start" x="8" y="-142.5" font-family="Helvetica,sans-Serif" font-size="10.00">CarlaCollisionEventPubSub</text>
<text text-anchor="middle" x="66.88" y="-130.5" font-family="Helvetica,sans-Serif" font-size="10.00">Types.cpp</text>
</a>
</g>
</g>
<!-- Node2&#45;&gt;Node3 -->
<g id="edge2_Node000002_Node000003" class="edge">
<title>Node2&#45;&gt;Node3</title>
<g id="a_edge2_Node000002_Node000003"><a xlink:title=" ">
<path fill="none" stroke="#63b8ff" d="M173.18,-187.16C150.55,-177.33 123.64,-165.65 102.55,-156.49"/>
<polygon fill="#63b8ff" stroke="#63b8ff" points="171.67,-190.75 182.24,-191.53 174.46,-184.33 171.67,-190.75"/>
</a>
</g>
</g>
<!-- Node4 -->
<g id="Node000004" class="node">
<title>Node4</title>
<g id="a_Node000004"><a xlink:href="../../d4/d22/CarlaCollisionPublisher_8cpp.html" target="_top" xlink:title=" ">
<polygon fill="white" stroke="#666666" points="286.12,-150 151.62,-150 151.62,-130 286.12,-130 286.12,-150"/>
<text text-anchor="middle" x="218.88" y="-136.5" font-family="Helvetica,sans-Serif" font-size="10.00">CarlaCollisionPublisher.cpp</text>
</a>
</g>
</g>
<!-- Node2&#45;&gt;Node4 -->
<g id="edge3_Node000002_Node000004" class="edge">
<title>Node2&#45;&gt;Node4</title>
<g id="a_edge3_Node000002_Node000004"><a xlink:title=" ">
<path fill="none" stroke="#63b8ff" d="M218.88,-181C218.88,-170.17 218.88,-158.29 218.88,-150.32"/>
<polygon fill="#63b8ff" stroke="#63b8ff" points="215.38,-180.69 218.88,-190.69 222.38,-180.69 215.38,-180.69"/>
</a>
</g>
</g>
<!-- Node6 -->
<g id="Node000006" class="node">
<title>Node6</title>
<g id="a_Node000006"><a xlink:href="../../d9/d57/CarlaIMUPublisher_8cpp.html" target="_top" xlink:title=" ">
<polygon fill="white" stroke="#666666" points="419.38,-150 304.38,-150 304.38,-130 419.38,-130 419.38,-150"/>
<text text-anchor="middle" x="361.88" y="-136.5" font-family="Helvetica,sans-Serif" font-size="10.00">CarlaIMUPublisher.cpp</text>
</a>
</g>
</g>
<!-- Node5&#45;&gt;Node6 -->
<g id="edge5_Node000005_Node000006" class="edge">
<title>Node5&#45;&gt;Node6</title>
<g id="a_edge5_Node000005_Node000006"><a xlink:title=" ">
<path fill="none" stroke="#63b8ff" d="M464.3,-192.6C438.89,-179.8 402.48,-161.46 380.61,-150.44"/>
<polygon fill="#63b8ff" stroke="#63b8ff" points="462.6,-196.17 473.11,-197.54 465.75,-189.92 462.6,-196.17"/>
</a>
</g>
</g>
<!-- Node7 -->
<g id="Node000007" class="node">
<title>Node7</title>
<g id="a_Node000007"><a xlink:href="../../d4/de8/ImuPubSubTypes_8cpp.html" target="_top" xlink:title=" ">
<polygon fill="white" stroke="#666666" points="548.5,-150 437.25,-150 437.25,-130 548.5,-130 548.5,-150"/>
<text text-anchor="middle" x="492.88" y="-136.5" font-family="Helvetica,sans-Serif" font-size="10.00">ImuPubSubTypes.cpp</text>
</a>
</g>
</g>
<!-- Node5&#45;&gt;Node7 -->
<g id="edge6_Node000005_Node000007" class="edge">
<title>Node5&#45;&gt;Node7</title>
<g id="a_edge6_Node000005_Node000007"><a xlink:title=" ">
<path fill="none" stroke="#63b8ff" d="M492.88,-186.65C492.88,-174.58 492.88,-159.84 492.88,-150.44"/>
<polygon fill="#63b8ff" stroke="#63b8ff" points="489.38,-186.54 492.88,-196.54 496.38,-186.54 489.38,-186.54"/>
</a>
</g>
</g>
<!-- Node9 -->
<g id="Node000009" class="node">
<title>Node9</title>
<g id="a_Node000009"><a xlink:href="../../dc/d41/TransformPubSubTypes_8cpp.html" target="_top" xlink:title=" ">
<polygon fill="white" stroke="#666666" points="705,-150 566.75,-150 566.75,-130 705,-130 705,-150"/>
<text text-anchor="middle" x="635.88" y="-136.5" font-family="Helvetica,sans-Serif" font-size="10.00">TransformPubSubTypes.cpp</text>
</a>
</g>
</g>
<!-- Node8&#45;&gt;Node9 -->
<g id="edge8_Node000008_Node000009" class="edge">
<title>Node8&#45;&gt;Node9</title>
<g id="a_edge8_Node000008_Node000009"><a xlink:title=" ">
<path fill="none" stroke="#63b8ff" d="M671.43,-188.88C662.19,-176.44 650.3,-160.43 642.88,-150.44"/>
<polygon fill="#63b8ff" stroke="#63b8ff" points="669.08,-190.6 677.85,-196.54 674.7,-186.43 669.08,-190.6"/>
</a>
</g>
</g>
<!-- Node10 -->
<g id="Node000010" class="node">
<title>Node10</title>
<g id="a_Node000010"><a xlink:href="../../de/d17/TransformStampedPubSubTypes_8h.html" target="_top" xlink:title=" ">
<polygon fill="white" stroke="#666666" points="890.25,-150 723.5,-150 723.5,-130 890.25,-130 890.25,-150"/>
<text text-anchor="middle" x="806.88" y="-136.5" font-family="Helvetica,sans-Serif" font-size="10.00">TransformStampedPubSubTypes.h</text>
</a>
</g>
</g>
<!-- Node8&#45;&gt;Node10 -->
<g id="edge9_Node000008_Node000010" class="edge">
<title>Node8&#45;&gt;Node10</title>
<g id="a_edge9_Node000008_Node000010"><a xlink:title=" ">
<path fill="none" stroke="#63b8ff" d="M711.8,-192.43C735.45,-179.64 769.15,-161.41 789.43,-150.44"/>
<polygon fill="#63b8ff" stroke="#63b8ff" points="710.48,-189.71 703.35,-197.54 713.82,-195.86 710.48,-189.71"/>
</a>
</g>
</g>
<!-- Node11 -->
<g id="Node000011" class="node">
<title>Node11</title>
<g id="a_Node000011"><a xlink:href="../../dc/d51/TFMessagePubSubTypes_8h.html" target="_top" xlink:title=" ">
<polygon fill="white" stroke="#666666" points="733.88,-82 597.88,-82 597.88,-62 733.88,-62 733.88,-82"/>
<text text-anchor="middle" x="665.88" y="-68.5" font-family="Helvetica,sans-Serif" font-size="10.00">TFMessagePubSubTypes.h</text>
</a>
</g>
</g>
<!-- Node10&#45;&gt;Node11 -->
<g id="edge10_Node000010_Node000011" class="edge">
<title>Node10&#45;&gt;Node11</title>
<g id="a_edge10_Node000010_Node000011"><a xlink:title=" ">
<path fill="none" stroke="#63b8ff" d="M776.84,-124.94C749.47,-112.13 709.79,-93.56 686.04,-82.44"/>
<polygon fill="#63b8ff" stroke="#63b8ff" points="775.13,-128.47 785.67,-129.54 778.1,-122.13 775.13,-128.47"/>
</a>
</g>
</g>
<!-- Node14 -->
<g id="Node000014" class="node">
<title>Node14</title>
<g id="a_Node000014"><a xlink:href="../../dc/df6/TransformStampedPubSubTypes_8cpp.html" target="_top" xlink:title=" ">
<polygon fill="white" stroke="#666666" points="929.5,-82 752.25,-82 752.25,-62 929.5,-62 929.5,-82"/>
<text text-anchor="middle" x="840.88" y="-68.5" font-family="Helvetica,sans-Serif" font-size="10.00">TransformStampedPubSubTypes.cpp</text>
</a>
</g>
</g>
<!-- Node10&#45;&gt;Node14 -->
<g id="edge13_Node000010_Node000014" class="edge">
<title>Node10&#45;&gt;Node14</title>
<g id="a_edge13_Node000010_Node000014"><a xlink:title=" ">
<path fill="none" stroke="#63b8ff" d="M816.78,-119.78C823.1,-107.51 831.02,-92.14 836.01,-82.44"/>
<polygon fill="#63b8ff" stroke="#63b8ff" points="813.21,-118.05 811.75,-128.54 819.44,-121.26 813.21,-118.05"/>
</a>
</g>
</g>
<!-- Node12 -->
<g id="Node000012" class="node">
<title>Node12</title>
<g id="a_Node000012"><a xlink:href="../../d3/d11/CarlaTransformPublisher_8cpp.html" target="_top" xlink:title=" ">
<polygon fill="white" stroke="#666666" points="655.12,-20 514.62,-20 514.62,0 655.12,0 655.12,-20"/>
<text text-anchor="middle" x="584.88" y="-6.5" font-family="Helvetica,sans-Serif" font-size="10.00">CarlaTransformPublisher.cpp</text>
</a>
</g>
</g>
<!-- Node11&#45;&gt;Node12 -->
<g id="edge11_Node000011_Node000012" class="edge">
<title>Node11&#45;&gt;Node12</title>
<g id="a_edge11_Node000011_Node000012"><a xlink:title=" ">
<path fill="none" stroke="#63b8ff" d="M644.58,-55.22C629.58,-44.11 610.01,-29.62 597.44,-20.31"/>
<polygon fill="#63b8ff" stroke="#63b8ff" points="642.1,-58.49 652.22,-61.62 646.27,-52.86 642.1,-58.49"/>
</a>
</g>
</g>
<!-- Node13 -->
<g id="Node000013" class="node">
<title>Node13</title>
<g id="a_Node000013"><a xlink:href="../../d1/d42/TFMessagePubSubTypes_8cpp.html" target="_top" xlink:title=" ">
<polygon fill="white" stroke="#666666" points="820.12,-20 673.62,-20 673.62,0 820.12,0 820.12,-20"/>
<text text-anchor="middle" x="746.88" y="-6.5" font-family="Helvetica,sans-Serif" font-size="10.00">TFMessagePubSubTypes.cpp</text>
</a>
</g>
</g>
<!-- Node11&#45;&gt;Node13 -->
<g id="edge12_Node000011_Node000013" class="edge">
<title>Node11&#45;&gt;Node13</title>
<g id="a_edge12_Node000011_Node000013"><a xlink:title=" ">
<path fill="none" stroke="#63b8ff" d="M687.17,-55.22C702.17,-44.11 721.74,-29.62 734.31,-20.31"/>
<polygon fill="#63b8ff" stroke="#63b8ff" points="685.48,-52.86 679.53,-61.62 689.65,-58.49 685.48,-52.86"/>
</a>
</g>
</g>
<!-- Node16 -->
<g id="Node000016" class="node">
<title>Node16</title>
<g id="a_Node000016"><a xlink:href="../../d9/d2c/TwistPubSubTypes_8cpp.html" target="_top" xlink:title=" ">
<polygon fill="white" stroke="#666666" points="1025.88,-150 907.88,-150 907.88,-130 1025.88,-130 1025.88,-150"/>
<text text-anchor="middle" x="966.88" y="-136.5" font-family="Helvetica,sans-Serif" font-size="10.00">TwistPubSubTypes.cpp</text>
</a>
</g>
</g>
<!-- Node15&#45;&gt;Node16 -->
<g id="edge15_Node000015_Node000016" class="edge">
<title>Node15&#45;&gt;Node16</title>
<g id="a_edge15_Node000015_Node000016"><a xlink:title=" ">
<path fill="none" stroke="#63b8ff" d="M931.32,-188.88C940.56,-176.44 952.45,-160.43 959.87,-150.44"/>
<polygon fill="#63b8ff" stroke="#63b8ff" points="928.05,-186.43 924.9,-196.54 933.67,-190.6 928.05,-186.43"/>
</a>
</g>
</g>
<!-- Node17 -->
<g id="Node000017" class="node">
<title>Node17</title>
<g id="a_Node000017"><a xlink:href="../../de/d55/TwistWithCovariancePubSubTypes_8h.html" target="_top" xlink:title=" ">
<polygon fill="white" stroke="#666666" points="1184.12,-156 1043.62,-156 1043.62,-124 1184.12,-124 1184.12,-156"/>
<text text-anchor="start" x="1051.62" y="-142.5" font-family="Helvetica,sans-Serif" font-size="10.00">TwistWithCovariancePubSub</text>
<text text-anchor="middle" x="1113.88" y="-130.5" font-family="Helvetica,sans-Serif" font-size="10.00">Types.h</text>
</a>
</g>
</g>
<!-- Node15&#45;&gt;Node17 -->
<g id="edge16_Node000015_Node000017" class="edge">
<title>Node15&#45;&gt;Node17</title>
<g id="a_edge16_Node000015_Node000017"><a xlink:title=" ">
<path fill="none" stroke="#63b8ff" d="M956.26,-194.07C988.32,-183.28 1034.09,-167.87 1068.06,-156.43"/>
<polygon fill="#63b8ff" stroke="#63b8ff" points="955.32,-191.04 946.96,-197.54 957.55,-197.67 955.32,-191.04"/>
</a>
</g>
</g>
<!-- Node18 -->
<g id="Node000018" class="node">
<title>Node18</title>
<g id="a_Node000018"><a xlink:href="../../d9/d03/OdometryPubSubTypes_8h.html" target="_top" xlink:title=" ">
<polygon fill="white" stroke="#666666" points="1143.75,-82 1016,-82 1016,-62 1143.75,-62 1143.75,-82"/>
<text text-anchor="middle" x="1079.88" y="-68.5" font-family="Helvetica,sans-Serif" font-size="10.00">OdometryPubSubTypes.h</text>
</a>
</g>
</g>
<!-- Node17&#45;&gt;Node18 -->
<g id="edge17_Node000017_Node000018" class="edge">
<title>Node17&#45;&gt;Node18</title>
<g id="a_edge17_Node000017_Node000018"><a xlink:title=" ">
<path fill="none" stroke="#63b8ff" d="M1101.01,-114.02C1095.29,-102.93 1088.91,-90.55 1084.67,-82.32"/>
<polygon fill="#63b8ff" stroke="#63b8ff" points="1098.3,-115.41 1105.99,-122.69 1104.52,-112.2 1098.3,-115.41"/>
</a>
</g>
</g>
<!-- Node20 -->
<g id="Node000020" class="node">
<title>Node20</title>
<g id="a_Node000020"><a xlink:href="../../d9/d6b/TwistWithCovariancePubSubTypes_8cpp.html" target="_top" xlink:title=" ">
<polygon fill="white" stroke="#666666" points="1302.12,-88 1161.62,-88 1161.62,-56 1302.12,-56 1302.12,-88"/>
<text text-anchor="start" x="1169.62" y="-74.5" font-family="Helvetica,sans-Serif" font-size="10.00">TwistWithCovariancePubSub</text>
<text text-anchor="middle" x="1231.88" y="-62.5" font-family="Helvetica,sans-Serif" font-size="10.00">Types.cpp</text>
</a>
</g>
</g>
<!-- Node17&#45;&gt;Node20 -->
<g id="edge19_Node000017_Node000020" class="edge">
<title>Node17&#45;&gt;Node20</title>
<g id="a_edge19_Node000017_Node000020"><a xlink:title=" ">
<path fill="none" stroke="#63b8ff" d="M1150.82,-118.34C1168.14,-108.65 1188.44,-97.3 1204.38,-88.38"/>
<polygon fill="#63b8ff" stroke="#63b8ff" points="1149.56,-115.59 1142.54,-123.53 1152.98,-121.7 1149.56,-115.59"/>
</a>
</g>
</g>
<!-- Node19 -->
<g id="Node000019" class="node">
<title>Node19</title>
<g id="a_Node000019"><a xlink:href="../../df/da9/OdometryPubSubTypes_8cpp.html" target="_top" xlink:title=" ">
<polygon fill="white" stroke="#666666" points="1149,-20 1010.75,-20 1010.75,0 1149,0 1149,-20"/>
<text text-anchor="middle" x="1079.88" y="-6.5" font-family="Helvetica,sans-Serif" font-size="10.00">OdometryPubSubTypes.cpp</text>
</a>
</g>
</g>
<!-- Node18&#45;&gt;Node19 -->
<g id="edge18_Node000018_Node000019" class="edge">
<title>Node18&#45;&gt;Node19</title>
<g id="a_edge18_Node000018_Node000019"><a xlink:title=" ">
<path fill="none" stroke="#63b8ff" d="M1079.88,-50.93C1079.88,-40.5 1079.88,-28.26 1079.88,-20.11"/>
<polygon fill="#63b8ff" stroke="#63b8ff" points="1076.38,-50.62 1079.88,-60.62 1083.38,-50.63 1076.38,-50.62"/>
</a>
</g>
</g>
</g>
</svg>
