<?xml version="1.0" encoding="UTF-8" standalone="no"?>
<!DOCTYPE svg PUBLIC "-//W3C//DTD SVG 1.1//EN"
 "http://www.w3.org/Graphics/SVG/1.1/DTD/svg11.dtd">
<!-- Generated by graphviz version 8.1.0 (20230707.0739)
 -->
<!-- Title: CarlaLidarPublisher.cpp Pages: 1 -->
<!--zoomable 344 -->

<svg id="main" version="1.1" xmlns="http://www.w3.org/2000/svg" xmlns:xlink="http://www.w3.org/1999/xlink" xml:space="preserve" onload="init(evt)">
<style type="text/css"><![CDATA[
.node, .edge {opacity: 0.7;}
.node.selected, .edge.selected {opacity: 1;}
.edge:hover path { stroke: red; }
.edge:hover polygon { stroke: red; fill: red; }
]]></style>

<defs>
  <circle id="rim" cx="0" cy="0" r="7"/>
  <circle id="rim2" cx="0" cy="0" r="3.5"/>
  <g id="zoomPlus">
    <use xlink:href="#rim" fill="#404040"><set attributeName="fill" to="#808080" begin="zoomplus.mouseover" end="zoomplus.mouseout"/></use>
    <path d="M-4,0h8M0,-4v8" fill="none" stroke="white" stroke-width="1.5" pointer-events="none"/>
  </g>
  <g id="zoomMin">
    <use xlink:href="#rim" fill="#404040"><set attributeName="fill" to="#808080" begin="zoomminus.mouseover" end="zoomminus.mouseout"/></use>
    <path d="M-4,0h8" fill="none" stroke="white" stroke-width="1.5" pointer-events="none"/>
  </g>
  <g id="arrowUp" transform="translate(30 24)">
    <use xlink:href="#rim"/>
    <path pointer-events="none" fill="none" stroke="white" stroke-width="1.5" d="M0,-3.0v7 M-2.5,-0.5L0,-3.0L2.5,-0.5"/>
  </g>
  <g id="arrowRight" transform="rotate(90) translate(36 -43)">
    <use xlink:href="#rim"/>
    <path pointer-events="none" fill="none" stroke="white" stroke-width="1.5" d="M0,-3.0v7 M-2.5,-0.5L0,-3.0L2.5,-0.5"/>
  </g>
  <g id="arrowDown" transform="rotate(180) translate(-30 -48)">
    <use xlink:href="#rim"/>
    <path pointer-events="none" fill="none" stroke="white" stroke-width="1.5" d="M0,-3.0v7 M-2.5,-0.5L0,-3.0L2.5,-0.5"/>
  </g>
  <g id="arrowLeft" transform="rotate(270) translate(-36 17)">
    <use xlink:href="#rim"/>
    <path pointer-events="none" fill="none" stroke="white" stroke-width="1.5" d="M0,-3.0v7 M-2.5,-0.5L0,-3.0L2.5,-0.5"/>
  </g>
  <g id="resetDef">
    <use xlink:href="#rim2" fill="#404040"><set attributeName="fill" to="#808080" begin="reset.mouseover" end="reset.mouseout"/></use>
  </g>
</defs>
<script type="application/ecmascript">
var viewWidth = 2525;
var viewHeight = 344;
var sectionId = 'dynsection-0';
</script>
<script type="application/ecmascript" xlink:href="../../svg.min.js"/>
<svg id="graph" class="graph">
<g id="viewport">
<title>CarlaLidarPublisher.cpp</title>
<!-- Node1 -->
<g id="Node000001" class="node">
<title>Node1</title>
<g id="a_Node000001"><a xlink:title=" ">
<polygon fill="#999999" stroke="#666666" points="1335.46,-336 1216.71,-336 1216.71,-316 1335.46,-316 1335.46,-336"/>
<text text-anchor="middle" x="1276.09" y="-322.5" font-family="Helvetica,sans-Serif" font-size="10.00">CarlaLidarPublisher.cpp</text>
</a>
</g>
</g>
<!-- Node2 -->
<g id="Node000002" class="node">
<title>Node2</title>
<g id="a_Node000002"><a xlink:href="../../d9/dad/CarlaLidarPublisher_8h.html" target="_top" xlink:title=" ">
<polygon fill="white" stroke="#666666" points="254.21,-274 145.96,-274 145.96,-254 254.21,-254 254.21,-274"/>
<text text-anchor="middle" x="200.09" y="-260.5" font-family="Helvetica,sans-Serif" font-size="10.00">CarlaLidarPublisher.h</text>
</a>
</g>
</g>
<!-- Node1&#45;&gt;Node2 -->
<g id="edge1_Node000001_Node000002" class="edge">
<title>Node1&#45;&gt;Node2</title>
<g id="a_edge1_Node000001_Node000002"><a xlink:title=" ">
<path fill="none" stroke="#63b8ff" d="M1216.32,-321.67C1029.84,-311.27 459.63,-279.47 265.56,-268.65"/>
<polygon fill="#63b8ff" stroke="#63b8ff" points="265.87,-265.11 255.69,-268.04 265.48,-272.1 265.87,-265.11"/>
</a>
</g>
</g>
<!-- Node6 -->
<g id="Node000006" class="node">
<title>Node6</title>
<g id="a_Node000006"><a xlink:title=" ">
<polygon fill="#e0e0e0" stroke="#999999" points="223.09,-26 183.09,-26 183.09,-6 223.09,-6 223.09,-26"/>
<text text-anchor="middle" x="203.09" y="-12.5" font-family="Helvetica,sans-Serif" font-size="10.00">string</text>
</a>
</g>
</g>
<!-- Node1&#45;&gt;Node6 -->
<g id="edge6_Node000001_Node000006" class="edge">
<title>Node1&#45;&gt;Node6</title>
<g id="a_edge6_Node000001_Node000006"><a xlink:title=" ">
<path fill="none" stroke="#63b8ff" d="M1216.41,-324.84C973.25,-323.95 67.94,-318.07 21.09,-280 -6.27,-257.77 2.09,-238.25 2.09,-203 2.09,-203 2.09,-203 2.09,-139 2.09,-106.33 -1.87,-91.23 21.09,-68 61.38,-27.23 131.42,-18.36 171.85,-16.83"/>
<polygon fill="#63b8ff" stroke="#63b8ff" points="171.75,-20.31 181.66,-16.57 171.58,-13.31 171.75,-20.31"/>
</a>
</g>
</g>
<!-- Node7 -->
<g id="Node000007" class="node">
<title>Node7</title>
<g id="a_Node000007"><a xlink:href="../../db/dfd/PointCloud2PubSubTypes_8h.html" target="_top" xlink:title=" ">
<polygon fill="white" stroke="#666666" points="632.71,-280 491.46,-280 491.46,-248 632.71,-248 632.71,-280"/>
<text text-anchor="start" x="499.46" y="-266.5" font-family="Helvetica,sans-Serif" font-size="10.00">carla/ros2/types/PointCloud2</text>
<text text-anchor="middle" x="562.09" y="-254.5" font-family="Helvetica,sans-Serif" font-size="10.00">PubSubTypes.h</text>
</a>
</g>
</g>
<!-- Node1&#45;&gt;Node7 -->
<g id="edge7_Node000001_Node000007" class="edge">
<title>Node1&#45;&gt;Node7</title>
<g id="a_edge7_Node000001_Node000007"><a xlink:title=" ">
<path fill="none" stroke="#63b8ff" d="M1216.33,-323.09C1105.36,-319.05 859.85,-307.72 643.99,-280.29"/>
<polygon fill="#63b8ff" stroke="#63b8ff" points="644.45,-276.69 634.08,-278.89 643.56,-283.63 644.45,-276.69"/>
</a>
</g>
</g>
<!-- Node21 -->
<g id="Node000021" class="node">
<title>Node21</title>
<g id="a_Node000021"><a xlink:href="../../d1/d24/CarlaListener_8h.html" target="_top" xlink:title=" ">
<polygon fill="white" stroke="#666666" points="128.34,-280 29.84,-280 29.84,-248 128.34,-248 128.34,-280"/>
<text text-anchor="start" x="37.84" y="-266.5" font-family="Helvetica,sans-Serif" font-size="10.00">carla/ros2/listeners</text>
<text text-anchor="middle" x="79.09" y="-254.5" font-family="Helvetica,sans-Serif" font-size="10.00">/CarlaListener.h</text>
</a>
</g>
</g>
<!-- Node1&#45;&gt;Node21 -->
<g id="edge50_Node000001_Node000021" class="edge">
<title>Node1&#45;&gt;Node21</title>
<g id="a_edge50_Node000001_Node000021"><a xlink:title=" ">
<path fill="none" stroke="#63b8ff" d="M1216.49,-324.32C1016.44,-321.8 369.08,-311.47 139.25,-280.06"/>
<polygon fill="#63b8ff" stroke="#63b8ff" points="140.01,-276.5 129.62,-278.55 139.03,-283.43 140.01,-276.5"/>
</a>
</g>
</g>
<!-- Node22 -->
<g id="Node000022" class="node">
<title>Node22</title>
<g id="a_Node000022"><a xlink:title=" ">
<polygon fill="#e0e0e0" stroke="#999999" points="767.71,-280 650.46,-280 650.46,-248 767.71,-248 767.71,-280"/>
<text text-anchor="start" x="658.46" y="-266.5" font-family="Helvetica,sans-Serif" font-size="10.00">fastdds/dds/domain</text>
<text text-anchor="middle" x="709.09" y="-254.5" font-family="Helvetica,sans-Serif" font-size="10.00">/DomainParticipant.hpp</text>
</a>
</g>
</g>
<!-- Node1&#45;&gt;Node22 -->
<g id="edge52_Node000001_Node000022" class="edge">
<title>Node1&#45;&gt;Node22</title>
<g id="a_edge52_Node000001_Node000022"><a xlink:title=" ">
<path fill="none" stroke="#63b8ff" d="M1216.26,-322.07C1124.32,-317.02 942.63,-304.91 778.74,-280.12"/>
<polygon fill="#63b8ff" stroke="#63b8ff" points="779.39,-276.53 768.97,-278.47 778.33,-283.45 779.39,-276.53"/>
</a>
</g>
</g>
<!-- Node23 -->
<g id="Node000023" class="node">
<title>Node23</title>
<g id="a_Node000023"><a xlink:title=" ">
<polygon fill="#e0e0e0" stroke="#999999" points="894.21,-280 785.96,-280 785.96,-248 894.21,-248 894.21,-280"/>
<text text-anchor="start" x="793.96" y="-266.5" font-family="Helvetica,sans-Serif" font-size="10.00">fastdds/dds/publisher</text>
<text text-anchor="middle" x="840.09" y="-254.5" font-family="Helvetica,sans-Serif" font-size="10.00">/Publisher.hpp</text>
</a>
</g>
</g>
<!-- Node1&#45;&gt;Node23 -->
<g id="edge53_Node000001_Node000023" class="edge">
<title>Node1&#45;&gt;Node23</title>
<g id="a_edge53_Node000001_Node000023"><a xlink:title=" ">
<path fill="none" stroke="#63b8ff" d="M1216.35,-319.9C1144.66,-313.32 1020.68,-300.44 905.41,-280.3"/>
<polygon fill="#63b8ff" stroke="#63b8ff" points="906.1,-276.69 895.65,-278.39 904.88,-283.58 906.1,-276.69"/>
</a>
</g>
</g>
<!-- Node24 -->
<g id="Node000024" class="node">
<title>Node24</title>
<g id="a_Node000024"><a xlink:title=" ">
<polygon fill="#e0e0e0" stroke="#999999" points="1047.71,-274 912.46,-274 912.46,-254 1047.71,-254 1047.71,-274"/>
<text text-anchor="middle" x="980.09" y="-260.5" font-family="Helvetica,sans-Serif" font-size="10.00">fastdds/dds/topic/Topic.hpp</text>
</a>
</g>
</g>
<!-- Node1&#45;&gt;Node24 -->
<g id="edge54_Node000001_Node000024" class="edge">
<title>Node1&#45;&gt;Node24</title>
<g id="a_edge54_Node000001_Node000024"><a xlink:title=" ">
<path fill="none" stroke="#63b8ff" d="M1229.51,-315.56C1177.51,-305.02 1093.32,-287.95 1037.34,-276.6"/>
<polygon fill="#63b8ff" stroke="#63b8ff" points="1038.38,-273.04 1027.88,-274.48 1036.99,-279.9 1038.38,-273.04"/>
</a>
</g>
</g>
<!-- Node25 -->
<g id="Node000025" class="node">
<title>Node25</title>
<g id="a_Node000025"><a xlink:title=" ">
<polygon fill="#e0e0e0" stroke="#999999" points="1174.21,-280 1065.96,-280 1065.96,-248 1174.21,-248 1174.21,-280"/>
<text text-anchor="start" x="1073.96" y="-266.5" font-family="Helvetica,sans-Serif" font-size="10.00">fastdds/dds/publisher</text>
<text text-anchor="middle" x="1120.09" y="-254.5" font-family="Helvetica,sans-Serif" font-size="10.00">/DataWriter.hpp</text>
</a>
</g>
</g>
<!-- Node1&#45;&gt;Node25 -->
<g id="edge55_Node000001_Node000025" class="edge">
<title>Node1&#45;&gt;Node25</title>
<g id="a_edge55_Node000001_Node000025"><a xlink:title=" ">
<path fill="none" stroke="#63b8ff" d="M1251.71,-315.62C1230.06,-307.3 1197.71,-294.86 1170.51,-284.39"/>
<polygon fill="#63b8ff" stroke="#63b8ff" points="1171.95,-280.81 1161.36,-280.49 1169.44,-287.35 1171.95,-280.81"/>
</a>
</g>
</g>
<!-- Node26 -->
<g id="Node000026" class="node">
<title>Node26</title>
<g id="a_Node000026"><a xlink:title=" ">
<polygon fill="#e0e0e0" stroke="#999999" points="1359.46,-274 1192.71,-274 1192.71,-254 1359.46,-254 1359.46,-274"/>
<text text-anchor="middle" x="1276.09" y="-260.5" font-family="Helvetica,sans-Serif" font-size="10.00">fastdds/dds/topic/TypeSupport.hpp</text>
</a>
</g>
</g>
<!-- Node1&#45;&gt;Node26 -->
<g id="edge56_Node000001_Node000026" class="edge">
<title>Node1&#45;&gt;Node26</title>
<g id="a_edge56_Node000001_Node000026"><a xlink:title=" ">
<path fill="none" stroke="#63b8ff" d="M1276.09,-315.62C1276.09,-307.48 1276.09,-295.39 1276.09,-285.07"/>
<polygon fill="#63b8ff" stroke="#63b8ff" points="1279.59,-285.11 1276.09,-275.11 1272.59,-285.11 1279.59,-285.11"/>
</a>
</g>
</g>
<!-- Node27 -->
<g id="Node000027" class="node">
<title>Node27</title>
<g id="a_Node000027"><a xlink:title=" ">
<polygon fill="#e0e0e0" stroke="#999999" points="1531.09,-280 1377.09,-280 1377.09,-248 1531.09,-248 1531.09,-280"/>
<text text-anchor="start" x="1385.09" y="-266.5" font-family="Helvetica,sans-Serif" font-size="10.00">fastdds/dds/domain</text>
<text text-anchor="middle" x="1454.09" y="-254.5" font-family="Helvetica,sans-Serif" font-size="10.00">/qos/DomainParticipantQos.hpp</text>
</a>
</g>
</g>
<!-- Node1&#45;&gt;Node27 -->
<g id="edge57_Node000001_Node000027" class="edge">
<title>Node1&#45;&gt;Node27</title>
<g id="a_edge57_Node000001_Node000027"><a xlink:title=" ">
<path fill="none" stroke="#63b8ff" d="M1303.9,-315.62C1328.94,-307.19 1366.5,-294.53 1397.79,-283.98"/>
<polygon fill="#63b8ff" stroke="#63b8ff" points="1398.78,-287 1407.13,-280.49 1396.54,-280.37 1398.78,-287"/>
</a>
</g>
</g>
<!-- Node28 -->
<g id="Node000028" class="node">
<title>Node28</title>
<g id="a_Node000028"><a xlink:title=" ">
<polygon fill="#e0e0e0" stroke="#999999" points="1699.21,-280 1548.96,-280 1548.96,-248 1699.21,-248 1699.21,-280"/>
<text text-anchor="start" x="1556.96" y="-266.5" font-family="Helvetica,sans-Serif" font-size="10.00">fastdds/dds/domain</text>
<text text-anchor="middle" x="1624.09" y="-254.5" font-family="Helvetica,sans-Serif" font-size="10.00">/DomainParticipantFactory.hpp</text>
</a>
</g>
</g>
<!-- Node1&#45;&gt;Node28 -->
<g id="edge58_Node000001_Node000028" class="edge">
<title>Node1&#45;&gt;Node28</title>
<g id="a_edge58_Node000001_Node000028"><a xlink:title=" ">
<path fill="none" stroke="#63b8ff" d="M1332.5,-315.52C1383.57,-306.9 1461.16,-293.74 1537.74,-280.4"/>
<polygon fill="#63b8ff" stroke="#63b8ff" points="1538.29,-283.69 1547.54,-278.52 1537.09,-276.79 1538.29,-283.69"/>
</a>
</g>
</g>
<!-- Node29 -->
<g id="Node000029" class="node">
<title>Node29</title>
<g id="a_Node000029"><a xlink:title=" ">
<polygon fill="#e0e0e0" stroke="#999999" points="1832.59,-280 1717.59,-280 1717.59,-248 1832.59,-248 1832.59,-280"/>
<text text-anchor="start" x="1725.59" y="-266.5" font-family="Helvetica,sans-Serif" font-size="10.00">fastdds/dds/publisher</text>
<text text-anchor="middle" x="1775.09" y="-254.5" font-family="Helvetica,sans-Serif" font-size="10.00">/qos/PublisherQos.hpp</text>
</a>
</g>
</g>
<!-- Node1&#45;&gt;Node29 -->
<g id="edge59_Node000001_Node000029" class="edge">
<title>Node1&#45;&gt;Node29</title>
<g id="a_edge59_Node000001_Node000029"><a xlink:title=" ">
<path fill="none" stroke="#63b8ff" d="M1335.78,-320.99C1417.27,-315.03 1568.09,-302.26 1706.63,-280.11"/>
<polygon fill="#63b8ff" stroke="#63b8ff" points="1707.12,-283.41 1716.43,-278.36 1706,-276.5 1707.12,-283.41"/>
</a>
</g>
</g>
<!-- Node30 -->
<g id="Node000030" class="node">
<title>Node30</title>
<g id="a_Node000030"><a xlink:title=" ">
<polygon fill="#e0e0e0" stroke="#999999" points="1959.59,-280 1850.59,-280 1850.59,-248 1959.59,-248 1959.59,-280"/>
<text text-anchor="start" x="1858.59" y="-266.5" font-family="Helvetica,sans-Serif" font-size="10.00">fastdds/dds/topic/qos</text>
<text text-anchor="middle" x="1905.09" y="-254.5" font-family="Helvetica,sans-Serif" font-size="10.00">/TopicQos.hpp</text>
</a>
</g>
</g>
<!-- Node1&#45;&gt;Node30 -->
<g id="edge60_Node000001_Node000030" class="edge">
<title>Node1&#45;&gt;Node30</title>
<g id="a_edge60_Node000001_Node000030"><a xlink:title=" ">
<path fill="none" stroke="#63b8ff" d="M1335.93,-323.28C1437.67,-319.69 1650.93,-309.29 1839.54,-280.26"/>
<polygon fill="#63b8ff" stroke="#63b8ff" points="1839.87,-283.59 1849.21,-278.59 1838.79,-276.68 1839.87,-283.59"/>
</a>
</g>
</g>
<!-- Node31 -->
<g id="Node000031" class="node">
<title>Node31</title>
<g id="a_Node000031"><a xlink:title=" ">
<polygon fill="#e0e0e0" stroke="#999999" points="2092.96,-280 1977.21,-280 1977.21,-248 2092.96,-248 2092.96,-280"/>
<text text-anchor="start" x="1985.21" y="-266.5" font-family="Helvetica,sans-Serif" font-size="10.00">fastrtps/attributes</text>
<text text-anchor="middle" x="2035.09" y="-254.5" font-family="Helvetica,sans-Serif" font-size="10.00">/ParticipantAttributes.h</text>
</a>
</g>
</g>
<!-- Node1&#45;&gt;Node31 -->
<g id="edge61_Node000001_Node000031" class="edge">
<title>Node1&#45;&gt;Node31</title>
<g id="a_edge61_Node000001_Node000031"><a xlink:title=" ">
<path fill="none" stroke="#63b8ff" d="M1335.75,-324.31C1454.36,-322.24 1728.25,-314.02 1966.29,-280.28"/>
<polygon fill="#63b8ff" stroke="#63b8ff" points="1966.48,-283.64 1975.88,-278.76 1965.48,-276.71 1966.48,-283.64"/>
</a>
</g>
</g>
<!-- Node32 -->
<g id="Node000032" class="node">
<title>Node32</title>
<g id="a_Node000032"><a xlink:title=" ">
<polygon fill="#e0e0e0" stroke="#999999" points="2241.46,-274 2110.71,-274 2110.71,-254 2241.46,-254 2241.46,-274"/>
<text text-anchor="middle" x="2176.09" y="-260.5" font-family="Helvetica,sans-Serif" font-size="10.00">fastrtps/qos/QosPolicies.h</text>
</a>
</g>
</g>
<!-- Node1&#45;&gt;Node32 -->
<g id="edge62_Node000001_Node000032" class="edge">
<title>Node1&#45;&gt;Node32</title>
<g id="a_edge62_Node000001_Node000032"><a xlink:title=" ">
<path fill="none" stroke="#63b8ff" d="M1335.96,-324.72C1472.43,-323.43 1816.82,-316.49 2102.09,-280 2109.25,-279.08 2116.76,-277.87 2124.13,-276.52"/>
<polygon fill="#63b8ff" stroke="#63b8ff" points="2124.62,-279.8 2133.78,-274.48 2123.3,-272.93 2124.62,-279.8"/>
</a>
</g>
</g>
<!-- Node33 -->
<g id="Node000033" class="node">
<title>Node33</title>
<g id="a_Node000033"><a xlink:title=" ">
<polygon fill="#e0e0e0" stroke="#999999" points="2380.59,-280 2259.59,-280 2259.59,-248 2380.59,-248 2380.59,-280"/>
<text text-anchor="start" x="2267.59" y="-266.5" font-family="Helvetica,sans-Serif" font-size="10.00">fastdds/dds/publisher</text>
<text text-anchor="middle" x="2320.09" y="-254.5" font-family="Helvetica,sans-Serif" font-size="10.00">/qos/DataWriterQos.hpp</text>
</a>
</g>
</g>
<!-- Node1&#45;&gt;Node33 -->
<g id="edge63_Node000001_Node000033" class="edge">
<title>Node1&#45;&gt;Node33</title>
<g id="a_edge63_Node000001_Node000033"><a xlink:title=" ">
<path fill="none" stroke="#63b8ff" d="M1335.96,-325.66C1487.33,-326.58 1897.62,-324.53 2248.23,-280.08"/>
<polygon fill="#63b8ff" stroke="#63b8ff" points="2248.63,-283.43 2258.11,-278.69 2247.74,-276.49 2248.63,-283.43"/>
</a>
</g>
</g>
<!-- Node34 -->
<g id="Node000034" class="node">
<title>Node34</title>
<g id="a_Node000034"><a xlink:title=" ">
<polygon fill="#e0e0e0" stroke="#999999" points="2517.46,-280 2398.71,-280 2398.71,-248 2517.46,-248 2517.46,-280"/>
<text text-anchor="start" x="2406.71" y="-266.5" font-family="Helvetica,sans-Serif" font-size="10.00">fastdds/dds/publisher</text>
<text text-anchor="middle" x="2458.09" y="-254.5" font-family="Helvetica,sans-Serif" font-size="10.00">/DataWriterListener.hpp</text>
</a>
</g>
</g>
<!-- Node1&#45;&gt;Node34 -->
<g id="edge64_Node000001_Node000034" class="edge">
<title>Node1&#45;&gt;Node34</title>
<g id="a_edge64_Node000001_Node000034"><a xlink:title=" ">
<path fill="none" stroke="#63b8ff" d="M1335.73,-323.98C1532.76,-320.4 2162.63,-307.2 2387.76,-280.11"/>
<polygon fill="#63b8ff" stroke="#63b8ff" points="2388,-283.49 2397.49,-278.77 2387.13,-276.54 2388,-283.49"/>
</a>
</g>
</g>
<!-- Node3 -->
<g id="Node000003" class="node">
<title>Node3</title>
<g id="a_Node000003"><a xlink:title=" ">
<polygon fill="#e0e0e0" stroke="#999999" points="104.71,-212 53.46,-212 53.46,-192 104.71,-192 104.71,-212"/>
<text text-anchor="middle" x="79.09" y="-198.5" font-family="Helvetica,sans-Serif" font-size="10.00">memory</text>
</a>
</g>
</g>
<!-- Node2&#45;&gt;Node3 -->
<g id="edge2_Node000002_Node000003" class="edge">
<title>Node2&#45;&gt;Node3</title>
<g id="a_edge2_Node000002_Node000003"><a xlink:title=" ">
<path fill="none" stroke="#63b8ff" d="M181.18,-253.62C161.47,-243.85 130.34,-228.41 107.63,-217.15"/>
<polygon fill="#63b8ff" stroke="#63b8ff" points="109.38,-213.62 98.86,-212.31 106.27,-219.89 109.38,-213.62"/>
</a>
</g>
</g>
<!-- Node4 -->
<g id="Node000004" class="node">
<title>Node4</title>
<g id="a_Node000004"><a xlink:title=" ">
<polygon fill="#e0e0e0" stroke="#999999" points="356.84,-26 315.34,-26 315.34,-6 356.84,-6 356.84,-26"/>
<text text-anchor="middle" x="336.09" y="-12.5" font-family="Helvetica,sans-Serif" font-size="10.00">vector</text>
</a>
</g>
</g>
<!-- Node2&#45;&gt;Node4 -->
<g id="edge3_Node000002_Node000004" class="edge">
<title>Node2&#45;&gt;Node4</title>
<g id="a_edge3_Node000002_Node000004"><a xlink:title=" ">
<path fill="none" stroke="#63b8ff" d="M205.25,-253.66C225.32,-217.35 298.36,-85.24 325.68,-35.82"/>
<polygon fill="#63b8ff" stroke="#63b8ff" points="329.14,-37.8 330.92,-27.35 323.02,-34.41 329.14,-37.8"/>
</a>
</g>
</g>
<!-- Node5 -->
<g id="Node000005" class="node">
<title>Node5</title>
<g id="a_Node000005"><a xlink:href="../../de/d7a/CarlaPublisher_8h.html" target="_top" xlink:title=" ">
<polygon fill="white" stroke="#666666" points="117.71,-88 30.46,-88 30.46,-68 117.71,-68 117.71,-88"/>
<text text-anchor="middle" x="74.09" y="-74.5" font-family="Helvetica,sans-Serif" font-size="10.00">CarlaPublisher.h</text>
</a>
</g>
</g>
<!-- Node2&#45;&gt;Node5 -->
<g id="edge4_Node000002_Node000005" class="edge">
<title>Node2&#45;&gt;Node5</title>
<g id="a_edge4_Node000002_Node000005"><a xlink:title=" ">
<path fill="none" stroke="#63b8ff" d="M191.42,-253.56C182.42,-243.56 168.13,-227.17 157.09,-212 128.65,-172.93 99.74,-124.08 84.69,-97.81"/>
<polygon fill="#63b8ff" stroke="#63b8ff" points="87.28,-96.29 79.29,-89.32 81.19,-99.75 87.28,-96.29"/>
</a>
</g>
</g>
<!-- Node5&#45;&gt;Node6 -->
<g id="edge5_Node000005_Node000006" class="edge">
<title>Node5&#45;&gt;Node6</title>
<g id="a_edge5_Node000005_Node000006"><a xlink:title=" ">
<path fill="none" stroke="#63b8ff" d="M94.25,-67.62C115.45,-57.76 149.05,-42.13 173.31,-30.85"/>
<polygon fill="#63b8ff" stroke="#63b8ff" points="174.48,-33.7 182.07,-26.31 171.53,-27.35 174.48,-33.7"/>
</a>
</g>
</g>
<!-- Node8 -->
<g id="Node000008" class="node">
<title>Node8</title>
<g id="a_Node000008"><a xlink:title=" ">
<polygon fill="#e0e0e0" stroke="#999999" points="973.46,-156 836.71,-156 836.71,-124 973.46,-124 973.46,-156"/>
<text text-anchor="start" x="844.71" y="-142.5" font-family="Helvetica,sans-Serif" font-size="10.00">fastdds/dds/topic/TopicData</text>
<text text-anchor="middle" x="905.09" y="-130.5" font-family="Helvetica,sans-Serif" font-size="10.00">Type.hpp</text>
</a>
</g>
</g>
<!-- Node7&#45;&gt;Node8 -->
<g id="edge8_Node000007_Node000008" class="edge">
<title>Node7&#45;&gt;Node8</title>
<g id="a_edge8_Node000007_Node000008"><a xlink:title=" ">
<path fill="none" stroke="#63b8ff" d="M619.17,-247.55C652.63,-238.1 695.57,-225.3 733.09,-212 777.15,-196.38 826.36,-175.73 860.82,-160.73"/>
<polygon fill="#63b8ff" stroke="#63b8ff" points="861.81,-163.68 869.57,-156.46 859.01,-157.27 861.81,-163.68"/>
</a>
</g>
</g>
<!-- Node9 -->
<g id="Node000009" class="node">
<title>Node9</title>
<g id="a_Node000009"><a xlink:title=" ">
<polygon fill="#e0e0e0" stroke="#999999" points="1090.71,-150 991.46,-150 991.46,-130 1090.71,-130 1090.71,-150"/>
<text text-anchor="middle" x="1041.09" y="-136.5" font-family="Helvetica,sans-Serif" font-size="10.00">fastrtps/utils/md5.h</text>
</a>
</g>
</g>
<!-- Node7&#45;&gt;Node9 -->
<g id="edge9_Node000007_Node000009" class="edge">
<title>Node7&#45;&gt;Node9</title>
<g id="a_edge9_Node000007_Node000009"><a xlink:title=" ">
<path fill="none" stroke="#63b8ff" d="M633.1,-249.25C635.8,-248.81 638.47,-248.4 641.09,-248 783.05,-226.59 831.12,-270.79 962.09,-212 988.78,-200.02 1012.72,-175.63 1027.08,-158.8"/>
<polygon fill="#63b8ff" stroke="#63b8ff" points="1030.37,-161.31 1034.02,-151.36 1024.97,-156.86 1030.37,-161.31"/>
</a>
</g>
</g>
<!-- Node10 -->
<g id="Node000010" class="node">
<title>Node10</title>
<g id="a_Node000010"><a xlink:href="../../da/d6c/PointCloud2_8h.html" target="_top" xlink:title=" ">
<polygon fill="white" stroke="#666666" points="502.46,-212 425.71,-212 425.71,-192 502.46,-192 502.46,-212"/>
<text text-anchor="middle" x="464.09" y="-198.5" font-family="Helvetica,sans-Serif" font-size="10.00">PointCloud2.h</text>
</a>
</g>
</g>
<!-- Node7&#45;&gt;Node10 -->
<g id="edge10_Node000007_Node000010" class="edge">
<title>Node7&#45;&gt;Node10</title>
<g id="a_edge10_Node000007_Node000010"><a xlink:title=" ">
<path fill="none" stroke="#63b8ff" d="M536.85,-247.55C521.96,-238.43 503.22,-226.96 488.48,-217.93"/>
<polygon fill="#63b8ff" stroke="#63b8ff" points="490.81,-214.64 480.46,-212.41 487.16,-220.61 490.81,-214.64"/>
</a>
</g>
</g>
<!-- Node19 -->
<g id="Node000019" class="node">
<title>Node19</title>
<g id="a_Node000019"><a xlink:href="../../d0/dda/HeaderPubSubTypes_8h.html" target="_top" xlink:title=" ">
<polygon fill="white" stroke="#666666" points="952.96,-212 837.21,-212 837.21,-192 952.96,-192 952.96,-212"/>
<text text-anchor="middle" x="895.09" y="-198.5" font-family="Helvetica,sans-Serif" font-size="10.00">HeaderPubSubTypes.h</text>
</a>
</g>
</g>
<!-- Node7&#45;&gt;Node19 -->
<g id="edge42_Node000007_Node000019" class="edge">
<title>Node7&#45;&gt;Node19</title>
<g id="a_edge42_Node000007_Node000019"><a xlink:title=" ">
<path fill="none" stroke="#63b8ff" d="M633.14,-249.47C635.82,-248.97 638.48,-248.48 641.09,-248 705.24,-236.23 778.61,-223.29 829.94,-214.31"/>
<polygon fill="#63b8ff" stroke="#63b8ff" points="830.3,-217.63 839.55,-212.46 829.1,-210.73 830.3,-217.63"/>
</a>
</g>
</g>
<!-- Node20 -->
<g id="Node000020" class="node">
<title>Node20</title>
<g id="a_Node000020"><a xlink:href="../../db/d35/PointFieldPubSubTypes_8h.html" target="_top" xlink:title=" ">
<polygon fill="white" stroke="#666666" points="724.34,-212 595.84,-212 595.84,-192 724.34,-192 724.34,-212"/>
<text text-anchor="middle" x="660.09" y="-198.5" font-family="Helvetica,sans-Serif" font-size="10.00">PointFieldPubSubTypes.h</text>
</a>
</g>
</g>
<!-- Node7&#45;&gt;Node20 -->
<g id="edge46_Node000007_Node000020" class="edge">
<title>Node7&#45;&gt;Node20</title>
<g id="a_edge46_Node000007_Node000020"><a xlink:title=" ">
<path fill="none" stroke="#63b8ff" d="M587.33,-247.55C602.21,-238.43 620.96,-226.96 635.7,-217.93"/>
<polygon fill="#63b8ff" stroke="#63b8ff" points="637.02,-220.61 643.72,-212.41 633.37,-214.64 637.02,-220.61"/>
</a>
</g>
</g>
<!-- Node10&#45;&gt;Node4 -->
<g id="edge39_Node000010_Node000004" class="edge">
<title>Node10&#45;&gt;Node4</title>
<g id="a_edge39_Node000010_Node000004"><a xlink:title=" ">
<path fill="none" stroke="#63b8ff" d="M425.47,-197.78C397.46,-193.22 361.25,-182.26 342.09,-156 316.31,-120.67 324,-65.79 330.7,-36.68"/>
<polygon fill="#63b8ff" stroke="#63b8ff" points="334.29,-37.79 333.33,-27.24 327.5,-36.08 334.29,-37.79"/>
</a>
</g>
</g>
<!-- Node10&#45;&gt;Node6 -->
<g id="edge38_Node000010_Node000006" class="edge">
<title>Node10&#45;&gt;Node6</title>
<g id="a_edge38_Node000010_Node000006"><a xlink:title=" ">
<path fill="none" stroke="#63b8ff" d="M425.39,-194.45C395.81,-188.1 355,-176.37 324.09,-156 274.62,-123.4 233.41,-65.24 214.39,-35.55"/>
<polygon fill="#63b8ff" stroke="#63b8ff" points="216.89,-33.94 208.61,-27.32 210.96,-37.65 216.89,-33.94"/>
</a>
</g>
</g>
<!-- Node11 -->
<g id="Node000011" class="node">
<title>Node11</title>
<g id="a_Node000011"><a xlink:href="../../d3/d6a/Header_8h.html" target="_top" xlink:title=" ">
<polygon fill="white" stroke="#666666" points="610.59,-150 555.59,-150 555.59,-130 610.59,-130 610.59,-150"/>
<text text-anchor="middle" x="583.09" y="-136.5" font-family="Helvetica,sans-Serif" font-size="10.00">Header.h</text>
</a>
</g>
</g>
<!-- Node10&#45;&gt;Node11 -->
<g id="edge11_Node000010_Node000011" class="edge">
<title>Node10&#45;&gt;Node11</title>
<g id="a_edge11_Node000010_Node000011"><a xlink:title=" ">
<path fill="none" stroke="#63b8ff" d="M482.68,-191.62C502.07,-181.85 532.69,-166.41 555.02,-155.15"/>
<polygon fill="#63b8ff" stroke="#63b8ff" points="556.27,-157.94 563.63,-150.31 553.12,-151.69 556.27,-157.94"/>
</a>
</g>
</g>
<!-- Node13 -->
<g id="Node000013" class="node">
<title>Node13</title>
<g id="a_Node000013"><a xlink:title=" ">
<polygon fill="#e0e0e0" stroke="#999999" points="485.34,-32 392.84,-32 392.84,0 485.34,0 485.34,-32"/>
<text text-anchor="start" x="400.84" y="-18.5" font-family="Helvetica,sans-Serif" font-size="10.00">fastrtps/utils/fixed</text>
<text text-anchor="middle" x="439.09" y="-6.5" font-family="Helvetica,sans-Serif" font-size="10.00">_size_string.hpp</text>
</a>
</g>
</g>
<!-- Node10&#45;&gt;Node13 -->
<g id="edge35_Node000010_Node000013" class="edge">
<title>Node10&#45;&gt;Node13</title>
<g id="a_edge35_Node000010_Node000013"><a xlink:title=" ">
<path fill="none" stroke="#63b8ff" d="M425.34,-195.03C402.17,-189.25 374.51,-177.95 360.09,-156 338.62,-123.31 341.38,-102.35 360.09,-68 366.93,-55.43 378.35,-45.49 390.41,-37.85"/>
<polygon fill="#63b8ff" stroke="#63b8ff" points="391.81,-40.51 398.69,-32.46 388.29,-34.46 391.81,-40.51"/>
</a>
</g>
</g>
<!-- Node14 -->
<g id="Node000014" class="node">
<title>Node14</title>
<g id="a_Node000014"><a xlink:title=" ">
<polygon fill="#e0e0e0" stroke="#999999" points="563.21,-26 514.96,-26 514.96,-6 563.21,-6 563.21,-26"/>
<text text-anchor="middle" x="539.09" y="-12.5" font-family="Helvetica,sans-Serif" font-size="10.00">stdint.h</text>
</a>
</g>
</g>
<!-- Node10&#45;&gt;Node14 -->
<g id="edge36_Node000010_Node000014" class="edge">
<title>Node10&#45;&gt;Node14</title>
<g id="a_edge36_Node000010_Node000014"><a xlink:title=" ">
<path fill="none" stroke="#63b8ff" d="M452.26,-191.83C425,-169.57 362.33,-111.33 393.09,-68 394.78,-65.62 461.8,-42.85 504.44,-28.56"/>
<polygon fill="#63b8ff" stroke="#63b8ff" points="505.33,-31.61 513.7,-25.12 503.11,-24.98 505.33,-31.61"/>
</a>
</g>
</g>
<!-- Node15 -->
<g id="Node000015" class="node">
<title>Node15</title>
<g id="a_Node000015"><a xlink:title=" ">
<polygon fill="#e0e0e0" stroke="#999999" points="690.96,-26 653.21,-26 653.21,-6 690.96,-6 690.96,-26"/>
<text text-anchor="middle" x="672.09" y="-12.5" font-family="Helvetica,sans-Serif" font-size="10.00">array</text>
</a>
</g>
</g>
<!-- Node10&#45;&gt;Node15 -->
<g id="edge37_Node000010_Node000015" class="edge">
<title>Node10&#45;&gt;Node15</title>
<g id="a_edge37_Node000010_Node000015"><a xlink:title=" ">
<path fill="none" stroke="#63b8ff" d="M502.62,-195.96C548.72,-189.15 622.09,-175.56 641.09,-156 672.42,-123.73 674.88,-67.12 673.67,-37.07"/>
<polygon fill="#63b8ff" stroke="#63b8ff" points="677.12,-37.07 673.04,-27.29 670.13,-37.48 677.12,-37.07"/>
</a>
</g>
</g>
<!-- Node16 -->
<g id="Node000016" class="node">
<title>Node16</title>
<g id="a_Node000016"><a xlink:title=" ">
<polygon fill="#e0e0e0" stroke="#999999" points="629.46,-26 594.71,-26 594.71,-6 629.46,-6 629.46,-26"/>
<text text-anchor="middle" x="612.09" y="-12.5" font-family="Helvetica,sans-Serif" font-size="10.00">map</text>
</a>
</g>
</g>
<!-- Node10&#45;&gt;Node16 -->
<g id="edge40_Node000010_Node000016" class="edge">
<title>Node10&#45;&gt;Node16</title>
<g id="a_edge40_Node000010_Node000016"><a xlink:title=" ">
<path fill="none" stroke="#63b8ff" d="M502.62,-200.8C538.25,-198.41 589.94,-188.95 619.09,-156 648.48,-122.78 632.12,-65.74 620.51,-36.12"/>
<polygon fill="#63b8ff" stroke="#63b8ff" points="623.47,-35.1 616.4,-27.21 617,-37.79 623.47,-35.1"/>
</a>
</g>
</g>
<!-- Node17 -->
<g id="Node000017" class="node">
<title>Node17</title>
<g id="a_Node000017"><a xlink:title=" ">
<polygon fill="#e0e0e0" stroke="#999999" points="762.09,-26 722.09,-26 722.09,-6 762.09,-6 762.09,-26"/>
<text text-anchor="middle" x="742.09" y="-12.5" font-family="Helvetica,sans-Serif" font-size="10.00">bitset</text>
</a>
</g>
</g>
<!-- Node10&#45;&gt;Node17 -->
<g id="edge41_Node000010_Node000017" class="edge">
<title>Node10&#45;&gt;Node17</title>
<g id="a_edge41_Node000010_Node000017"><a xlink:title=" ">
<path fill="none" stroke="#63b8ff" d="M502.58,-201.55C546.36,-200.27 617.99,-192.17 666.09,-156 706.45,-125.64 728.01,-67.32 736.98,-36.77"/>
<polygon fill="#63b8ff" stroke="#63b8ff" points="740.61,-37.77 739.9,-27.2 733.86,-35.91 740.61,-37.77"/>
</a>
</g>
</g>
<!-- Node18 -->
<g id="Node000018" class="node">
<title>Node18</title>
<g id="a_Node000018"><a xlink:href="../../dc/d5c/PointField_8h.html" target="_top" xlink:title=" ">
<polygon fill="white" stroke="#666666" points="469.96,-88 402.21,-88 402.21,-68 469.96,-68 469.96,-88"/>
<text text-anchor="middle" x="436.09" y="-74.5" font-family="Helvetica,sans-Serif" font-size="10.00">PointField.h</text>
</a>
</g>
</g>
<!-- Node10&#45;&gt;Node18 -->
<g id="edge27_Node000010_Node000018" class="edge">
<title>Node10&#45;&gt;Node18</title>
<g id="a_edge27_Node000010_Node000018"><a xlink:title=" ">
<path fill="none" stroke="#63b8ff" d="M461.98,-191.83C457.46,-172.14 446.74,-125.42 440.61,-98.68"/>
<polygon fill="#63b8ff" stroke="#63b8ff" points="443.87,-98.24 438.22,-89.28 437.04,-99.81 443.87,-98.24"/>
</a>
</g>
</g>
<!-- Node11&#45;&gt;Node4 -->
<g id="edge24_Node000011_Node000004" class="edge">
<title>Node11&#45;&gt;Node4</title>
<g id="a_edge24_Node000011_Node000004"><a xlink:title=" ">
<path fill="none" stroke="#63b8ff" d="M555.1,-136.94C515.97,-132.91 444,-121.23 393.09,-88 372.7,-74.69 356.21,-51.69 346.31,-35.49"/>
<polygon fill="#63b8ff" stroke="#63b8ff" points="349.08,-34.29 341.02,-27.42 343.04,-37.82 349.08,-34.29"/>
</a>
</g>
</g>
<!-- Node11&#45;&gt;Node6 -->
<g id="edge23_Node000011_Node000006" class="edge">
<title>Node11&#45;&gt;Node6</title>
<g id="a_edge23_Node000011_Node000006"><a xlink:title=" ">
<path fill="none" stroke="#63b8ff" d="M555.38,-134.09C513.85,-126.36 433.29,-109.95 367.09,-88 318.19,-71.79 263.74,-46.74 231.5,-31.14"/>
<polygon fill="#63b8ff" stroke="#63b8ff" points="233.37,-27.67 222.85,-26.43 230.3,-33.96 233.37,-27.67"/>
</a>
</g>
</g>
<!-- Node12 -->
<g id="Node000012" class="node">
<title>Node12</title>
<g id="a_Node000012"><a xlink:href="../../d9/d3d/ros2_2types_2Time_8h.html" target="_top" xlink:title=" ">
<polygon fill="white" stroke="#666666" points="571.71,-88 526.46,-88 526.46,-68 571.71,-68 571.71,-88"/>
<text text-anchor="middle" x="549.09" y="-74.5" font-family="Helvetica,sans-Serif" font-size="10.00">Time.h</text>
</a>
</g>
</g>
<!-- Node11&#45;&gt;Node12 -->
<g id="edge12_Node000011_Node000012" class="edge">
<title>Node11&#45;&gt;Node12</title>
<g id="a_edge12_Node000011_Node000012"><a xlink:title=" ">
<path fill="none" stroke="#63b8ff" d="M577.78,-129.62C572.91,-121.03 565.56,-108.07 559.52,-97.41"/>
<polygon fill="#63b8ff" stroke="#63b8ff" points="562.23,-96.09 554.25,-89.11 556.14,-99.54 562.23,-96.09"/>
</a>
</g>
</g>
<!-- Node11&#45;&gt;Node13 -->
<g id="edge20_Node000011_Node000013" class="edge">
<title>Node11&#45;&gt;Node13</title>
<g id="a_edge20_Node000011_Node000013"><a xlink:title=" ">
<path fill="none" stroke="#63b8ff" d="M570.2,-129.52C556.72,-119.5 535.06,-103.08 517.09,-88 498.51,-72.41 478.27,-53.94 463.07,-39.75"/>
<polygon fill="#63b8ff" stroke="#63b8ff" points="465.87,-37.64 456.18,-33.35 461.08,-42.75 465.87,-37.64"/>
</a>
</g>
</g>
<!-- Node11&#45;&gt;Node14 -->
<g id="edge21_Node000011_Node000014" class="edge">
<title>Node11&#45;&gt;Node14</title>
<g id="a_edge21_Node000011_Node000014"><a xlink:title=" ">
<path fill="none" stroke="#63b8ff" d="M584.66,-129.9C586.65,-116.04 588.96,-89.02 581.09,-68 576.22,-55.01 566.57,-42.91 557.75,-33.75"/>
<polygon fill="#63b8ff" stroke="#63b8ff" points="560.65,-31.71 551.05,-27.24 555.76,-36.73 560.65,-31.71"/>
</a>
</g>
</g>
<!-- Node11&#45;&gt;Node15 -->
<g id="edge22_Node000011_Node000015" class="edge">
<title>Node11&#45;&gt;Node15</title>
<g id="a_edge22_Node000011_Node000015"><a xlink:title=" ">
<path fill="none" stroke="#63b8ff" d="M592.74,-129.75C602.72,-119.92 618.45,-103.65 630.09,-88 642.6,-71.17 654.55,-50.36 662.47,-35.63"/>
<polygon fill="#63b8ff" stroke="#63b8ff" points="665.92,-37.6 667.49,-27.12 659.73,-34.34 665.92,-37.6"/>
</a>
</g>
</g>
<!-- Node11&#45;&gt;Node16 -->
<g id="edge25_Node000011_Node000016" class="edge">
<title>Node11&#45;&gt;Node16</title>
<g id="a_edge25_Node000011_Node000016"><a xlink:title=" ">
<path fill="none" stroke="#63b8ff" d="M591.01,-129.6C598.63,-119.89 609.62,-103.96 614.09,-88 618.77,-71.3 617.7,-51.52 615.79,-37.09"/>
<polygon fill="#63b8ff" stroke="#63b8ff" points="619.12,-36.73 614.1,-27.41 612.21,-37.83 619.12,-36.73"/>
</a>
</g>
</g>
<!-- Node11&#45;&gt;Node17 -->
<g id="edge26_Node000011_Node000017" class="edge">
<title>Node11&#45;&gt;Node17</title>
<g id="a_edge26_Node000011_Node000017"><a xlink:title=" ">
<path fill="none" stroke="#63b8ff" d="M595.68,-129.67C609.37,-119.5 631.87,-102.7 651.09,-88 675.46,-69.36 703.23,-47.61 721.62,-33.15"/>
<polygon fill="#63b8ff" stroke="#63b8ff" points="723.38,-35.43 729.08,-26.49 719.05,-29.93 723.38,-35.43"/>
</a>
</g>
</g>
<!-- Node12&#45;&gt;Node4 -->
<g id="edge17_Node000012_Node000004" class="edge">
<title>Node12&#45;&gt;Node4</title>
<g id="a_edge17_Node000012_Node000004"><a xlink:title=" ">
<path fill="none" stroke="#63b8ff" d="M526.06,-71C494.1,-62.62 434.53,-46.75 384.09,-32 378.68,-30.42 372.94,-28.68 367.39,-26.96"/>
<polygon fill="#63b8ff" stroke="#63b8ff" points="368.66,-23.38 358.07,-23.74 366.57,-30.06 368.66,-23.38"/>
</a>
</g>
</g>
<!-- Node12&#45;&gt;Node6 -->
<g id="edge16_Node000012_Node000006" class="edge">
<title>Node12&#45;&gt;Node6</title>
<g id="a_edge16_Node000012_Node000006"><a xlink:title=" ">
<path fill="none" stroke="#63b8ff" d="M526.12,-73.02C465.64,-62.53 301.98,-34.15 233.68,-22.3"/>
<polygon fill="#63b8ff" stroke="#63b8ff" points="234.64,-18.75 224.19,-20.49 233.45,-25.64 234.64,-18.75"/>
</a>
</g>
</g>
<!-- Node12&#45;&gt;Node13 -->
<g id="edge13_Node000012_Node000013" class="edge">
<title>Node12&#45;&gt;Node13</title>
<g id="a_edge13_Node000012_Node000013"><a xlink:title=" ">
<path fill="none" stroke="#63b8ff" d="M531.9,-67.62C517.19,-59.6 495.47,-47.75 476.74,-37.54"/>
<polygon fill="#63b8ff" stroke="#63b8ff" points="478.73,-34.09 468.27,-32.37 475.38,-40.23 478.73,-34.09"/>
</a>
</g>
</g>
<!-- Node12&#45;&gt;Node14 -->
<g id="edge14_Node000012_Node000014" class="edge">
<title>Node12&#45;&gt;Node14</title>
<g id="a_edge14_Node000012_Node000014"><a xlink:title=" ">
<path fill="none" stroke="#63b8ff" d="M547.53,-67.62C546.15,-59.39 544.11,-47.13 542.38,-36.74"/>
<polygon fill="#63b8ff" stroke="#63b8ff" points="545.7,-36.4 540.61,-27.11 538.8,-37.55 545.7,-36.4"/>
</a>
</g>
</g>
<!-- Node12&#45;&gt;Node15 -->
<g id="edge15_Node000012_Node000015" class="edge">
<title>Node12&#45;&gt;Node15</title>
<g id="a_edge15_Node000012_Node000015"><a xlink:title=" ">
<path fill="none" stroke="#63b8ff" d="M568.31,-67.62C588.44,-57.81 620.28,-42.27 643.39,-31"/>
<polygon fill="#63b8ff" stroke="#63b8ff" points="644.55,-33.84 652.01,-26.31 641.48,-27.55 644.55,-33.84"/>
</a>
</g>
</g>
<!-- Node12&#45;&gt;Node16 -->
<g id="edge18_Node000012_Node000016" class="edge">
<title>Node12&#45;&gt;Node16</title>
<g id="a_edge18_Node000012_Node000016"><a xlink:title=" ">
<path fill="none" stroke="#63b8ff" d="M558.93,-67.62C568.51,-58.5 583.27,-44.45 594.81,-33.46"/>
<polygon fill="#63b8ff" stroke="#63b8ff" points="596.69,-36.54 601.52,-27.11 591.87,-31.47 596.69,-36.54"/>
</a>
</g>
</g>
<!-- Node12&#45;&gt;Node17 -->
<g id="edge19_Node000012_Node000017" class="edge">
<title>Node12&#45;&gt;Node17</title>
<g id="a_edge19_Node000012_Node000017"><a xlink:title=" ">
<path fill="none" stroke="#63b8ff" d="M571.97,-70.59C601.66,-62.19 654.98,-46.76 700.09,-32 703.73,-30.81 707.54,-29.52 711.3,-28.21"/>
<polygon fill="#63b8ff" stroke="#63b8ff" points="712.4,-31.18 720.66,-24.54 710.06,-24.58 712.4,-31.18"/>
</a>
</g>
</g>
<!-- Node18&#45;&gt;Node4 -->
<g id="edge32_Node000018_Node000004" class="edge">
<title>Node18&#45;&gt;Node4</title>
<g id="a_edge32_Node000018_Node000004"><a xlink:title=" ">
<path fill="none" stroke="#63b8ff" d="M420.46,-67.62C404.54,-58.07 379.6,-43.11 360.96,-31.92"/>
<polygon fill="#63b8ff" stroke="#63b8ff" points="362.98,-28.45 352.6,-26.31 359.38,-34.46 362.98,-28.45"/>
</a>
</g>
</g>
<!-- Node18&#45;&gt;Node6 -->
<g id="edge31_Node000018_Node000006" class="edge">
<title>Node18&#45;&gt;Node6</title>
<g id="a_edge31_Node000018_Node000006"><a xlink:title=" ">
<path fill="none" stroke="#63b8ff" d="M402.21,-68.28C357.04,-56.64 277.74,-36.22 234.09,-24.98"/>
<polygon fill="#63b8ff" stroke="#63b8ff" points="235.1,-21.37 224.54,-22.27 233.35,-28.15 235.1,-21.37"/>
</a>
</g>
</g>
<!-- Node18&#45;&gt;Node13 -->
<g id="edge28_Node000018_Node000013" class="edge">
<title>Node18&#45;&gt;Node13</title>
<g id="a_edge28_Node000018_Node000013"><a xlink:title=" ">
<path fill="none" stroke="#63b8ff" d="M436.56,-67.62C436.89,-61.02 437.35,-51.84 437.78,-43.11"/>
<polygon fill="#63b8ff" stroke="#63b8ff" points="441.33,-43.3 438.33,-33.14 434.34,-42.95 441.33,-43.3"/>
</a>
</g>
</g>
<!-- Node18&#45;&gt;Node14 -->
<g id="edge29_Node000018_Node000014" class="edge">
<title>Node18&#45;&gt;Node14</title>
<g id="a_edge29_Node000018_Node000014"><a xlink:title=" ">
<path fill="none" stroke="#63b8ff" d="M452.18,-67.62C468.66,-58.03 494.51,-42.97 513.74,-31.77"/>
<polygon fill="#63b8ff" stroke="#63b8ff" points="515.23,-34.37 522.11,-26.31 511.71,-28.32 515.23,-34.37"/>
</a>
</g>
</g>
<!-- Node18&#45;&gt;Node15 -->
<g id="edge30_Node000018_Node000015" class="edge">
<title>Node18&#45;&gt;Node15</title>
<g id="a_edge30_Node000018_Node000015"><a xlink:title=" ">
<path fill="none" stroke="#63b8ff" d="M470.23,-71.51C510.85,-64.49 580.4,-50.95 638.09,-32 639.62,-31.5 641.18,-30.95 642.74,-30.37"/>
<polygon fill="#63b8ff" stroke="#63b8ff" points="643.98,-33.24 651.93,-26.24 641.35,-26.75 643.98,-33.24"/>
</a>
</g>
</g>
<!-- Node18&#45;&gt;Node16 -->
<g id="edge33_Node000018_Node000016" class="edge">
<title>Node18&#45;&gt;Node16</title>
<g id="a_edge33_Node000018_Node000016"><a xlink:title=" ">
<path fill="none" stroke="#63b8ff" d="M465.92,-67.5C493.55,-58.62 535.74,-44.82 572.09,-32 575.95,-30.64 580.01,-29.16 584,-27.69"/>
<polygon fill="#63b8ff" stroke="#63b8ff" points="585.08,-30.65 593.22,-23.87 582.63,-24.09 585.08,-30.65"/>
</a>
</g>
</g>
<!-- Node18&#45;&gt;Node17 -->
<g id="edge34_Node000018_Node000017" class="edge">
<title>Node18&#45;&gt;Node17</title>
<g id="a_edge34_Node000018_Node000017"><a xlink:title=" ">
<path fill="none" stroke="#63b8ff" d="M470.25,-73.11C520.96,-66.9 618.9,-53.24 700.09,-32 703.8,-31.03 707.64,-29.87 711.43,-28.64"/>
<polygon fill="#63b8ff" stroke="#63b8ff" points="712.5,-31.63 720.8,-25.05 710.21,-25.01 712.5,-31.63"/>
</a>
</g>
</g>
<!-- Node19&#45;&gt;Node8 -->
<g id="edge43_Node000019_Node000008" class="edge">
<title>Node19&#45;&gt;Node8</title>
<g id="a_edge43_Node000019_Node000008"><a xlink:title=" ">
<path fill="none" stroke="#63b8ff" d="M896.65,-191.62C897.76,-184.95 899.32,-175.64 900.79,-166.82"/>
<polygon fill="#63b8ff" stroke="#63b8ff" points="904.37,-167.58 902.57,-157.14 897.47,-166.43 904.37,-167.58"/>
</a>
</g>
</g>
<!-- Node19&#45;&gt;Node9 -->
<g id="edge44_Node000019_Node000009" class="edge">
<title>Node19&#45;&gt;Node9</title>
<g id="a_edge44_Node000019_Node000009"><a xlink:title=" ">
<path fill="none" stroke="#63b8ff" d="M917.9,-191.62C942.22,-181.63 980.95,-165.71 1008.48,-154.4"/>
<polygon fill="#63b8ff" stroke="#63b8ff" points="1009.52,-157.35 1017.44,-150.31 1006.86,-150.87 1009.52,-157.35"/>
</a>
</g>
</g>
<!-- Node19&#45;&gt;Node11 -->
<g id="edge45_Node000019_Node000011" class="edge">
<title>Node19&#45;&gt;Node11</title>
<g id="a_edge45_Node000019_Node000011"><a xlink:title=" ">
<path fill="none" stroke="#63b8ff" d="M846,-191.56C783.89,-179.62 678.24,-159.3 621.63,-148.41"/>
<polygon fill="#63b8ff" stroke="#63b8ff" points="622.46,-144.82 611.98,-146.36 621.14,-151.69 622.46,-144.82"/>
</a>
</g>
</g>
<!-- Node20&#45;&gt;Node8 -->
<g id="edge47_Node000020_Node000008" class="edge">
<title>Node20&#45;&gt;Node8</title>
<g id="a_edge47_Node000020_Node000008"><a xlink:title=" ">
<path fill="none" stroke="#63b8ff" d="M698.64,-191.56C734.12,-182.87 787.7,-169.75 831.39,-159.05"/>
<polygon fill="#63b8ff" stroke="#63b8ff" points="832.1,-162.23 840.98,-156.46 830.43,-155.44 832.1,-162.23"/>
</a>
</g>
</g>
<!-- Node20&#45;&gt;Node9 -->
<g id="edge48_Node000020_Node000009" class="edge">
<title>Node20&#45;&gt;Node9</title>
<g id="a_edge48_Node000020_Node000009"><a xlink:title=" ">
<path fill="none" stroke="#63b8ff" d="M724.58,-194.1C789.84,-186.63 893.47,-173.4 982.09,-156 986.71,-155.09 991.5,-154.05 996.27,-152.94"/>
<polygon fill="#63b8ff" stroke="#63b8ff" points="996.71,-156.2 1005.6,-150.45 995.06,-149.39 996.71,-156.2"/>
</a>
</g>
</g>
<!-- Node20&#45;&gt;Node18 -->
<g id="edge49_Node000020_Node000018" class="edge">
<title>Node20&#45;&gt;Node18</title>
<g id="a_edge49_Node000020_Node000018"><a xlink:title=" ">
<path fill="none" stroke="#63b8ff" d="M630.67,-191.53C607.14,-183.45 573.64,-170.81 546.09,-156 512.64,-138.02 477.22,-111.74 455.88,-95.01"/>
<polygon fill="#63b8ff" stroke="#63b8ff" points="458.4,-91.74 448.39,-88.27 454.04,-97.23 458.4,-91.74"/>
</a>
</g>
</g>
<!-- Node21&#45;&gt;Node3 -->
<g id="edge51_Node000021_Node000003" class="edge">
<title>Node21&#45;&gt;Node3</title>
<g id="a_edge51_Node000021_Node000003"><a xlink:title=" ">
<path fill="none" stroke="#63b8ff" d="M79.09,-247.55C79.09,-240.17 79.09,-231.24 79.09,-223.32"/>
<polygon fill="#63b8ff" stroke="#63b8ff" points="82.59,-223.41 79.09,-213.41 75.59,-223.41 82.59,-223.41"/>
</a>
</g>
</g>
</g>
</svg>

<g id="navigator" transform="translate(0 0)" fill="#404254">
  <rect fill="#f2f5e9" fill-opacity="0.5" stroke="#606060" stroke-width=".5" x="0" y="0" width="60" height="60"/>
  <use id="zoomplus" xlink:href="#zoomPlus" x="17" y="9" onmousedown="handleZoom(evt,'in')"/>
  <use id="zoomminus" xlink:href="#zoomMin" x="42" y="9" onmousedown="handleZoom(evt,'out')"/>
  <use id="reset" xlink:href="#resetDef" x="30" y="36" onmousedown="handleReset()"/>
   <use id="arrowup" xlink:href="#arrowUp" x="0" y="0" onmousedown="handlePan(0,-1)"/>
  <use id="arrowright" xlink:href="#arrowRight" x="0" y="0" onmousedown="handlePan(1,0)"/>
  <use id="arrowdown" xlink:href="#arrowDown" x="0" y="0" onmousedown="handlePan(0,1)"/>
  <use id="arrowleft" xlink:href="#arrowLeft" x="0" y="0" onmousedown="handlePan(-1,0)"/>
</g>
<svg viewBox="0 0 15 15" width="100%" height="30px" preserveAspectRatio="xMaxYMin meet">
 <g id="arrow_out" transform="scale(0.3 0.3)">
  <a xlink:href="CarlaLidarPublisher_8cpp__incl_org.svg" target="_base">
   <rect id="button" ry="5" rx="5" y="6" x="6" height="38" width="38"
        fill="#f2f5e9" fill-opacity="0.5" stroke="#606060" stroke-width="1.0"/>
   <path id="arrow"
     d="M 11.500037,31.436501 C 11.940474,20.09759 22.043105,11.32322 32.158766,21.979434 L 37.068811,17.246167 C 37.068811,17.246167 37.088388,32 37.088388,32 L 22.160133,31.978069 C 22.160133,31.978069 26.997745,27.140456 26.997745,27.140456 C 18.528582,18.264221 13.291696,25.230495 11.500037,31.436501 z"
     style="fill:#404040;"/>
  </a>
 </g>
</svg>

<style type='text/css'>
<![CDATA[
[data-mouse-over-selected='false'] { opacity: 0.7; }
[data-mouse-over-selected='true']  { opacity: 1.0; }
]]>
</style>
<script type="application/ecmascript"><![CDATA[
document.addEventListener('DOMContentLoaded', (event) => {
  highlightEdges();
  highlightAdjacentNodes();
});
]]></script>
</svg>
