<?xml version="1.0" encoding="UTF-8" standalone="no"?>
<!DOCTYPE svg PUBLIC "-//W3C//DTD SVG 1.1//EN"
 "http://www.w3.org/Graphics/SVG/1.1/DTD/svg11.dtd">
<!-- Generated by graphviz version 8.1.0 (20230707.0739)
 -->
<!-- Title: LightState.h Pages: 1 -->
<svg width="1012pt" height="432pt"
 viewBox="0.00 0.00 1011.88 432.00" xmlns="http://www.w3.org/2000/svg" xmlns:xlink="http://www.w3.org/1999/xlink">
<g id="graph0" class="graph" transform="scale(1 1) rotate(0) translate(4 428)">
<title>LightState.h</title>
<!-- Node1 -->
<g id="Node000001" class="node">
<title>Node1</title>
<g id="a_Node000001"><a xlink:title=" ">
<polygon fill="#999999" stroke="#666666" points="520.38,-424 451.88,-424 451.88,-404 520.38,-404 520.38,-424"/>
<text text-anchor="middle" x="486.12" y="-410.5" font-family="Helvetica,sans-Serif" font-size="10.00">LightState.h</text>
</a>
</g>
</g>
<!-- Node2 -->
<g id="Node000002" class="node">
<title>Node2</title>
<g id="a_Node000002"><a xlink:href="../../d9/d8b/geom_2Location_8h.html" target="_top" xlink:title=" ">
<polygon fill="white" stroke="#666666" points="390.12,-368 278.12,-368 278.12,-348 390.12,-348 390.12,-368"/>
<text text-anchor="middle" x="334.12" y="-354.5" font-family="Helvetica,sans-Serif" font-size="10.00">carla/geom/Location.h</text>
</a>
</g>
</g>
<!-- Node1&#45;&gt;Node2 -->
<g id="edge1_Node000001_Node000002" class="edge">
<title>Node1&#45;&gt;Node2</title>
<g id="a_edge1_Node000001_Node000002"><a xlink:title=" ">
<path fill="none" stroke="#63b8ff" d="M459.65,-403.59C435.17,-394.9 398.55,-381.89 371.17,-372.16"/>
<polygon fill="#63b8ff" stroke="#63b8ff" points="372.4,-368.53 361.81,-368.48 370.06,-375.13 372.4,-368.53"/>
</a>
</g>
</g>
<!-- Node30 -->
<g id="Node000030" class="node">
<title>Node30</title>
<g id="a_Node000030"><a xlink:href="../../d0/d8f/Rotation_8h.html" target="_top" xlink:title=" ">
<polygon fill="white" stroke="#666666" points="541.75,-368 430.5,-368 430.5,-348 541.75,-348 541.75,-368"/>
<text text-anchor="middle" x="486.12" y="-354.5" font-family="Helvetica,sans-Serif" font-size="10.00">carla/geom/Rotation.h</text>
</a>
</g>
</g>
<!-- Node1&#45;&gt;Node30 -->
<g id="edge38_Node000001_Node000030" class="edge">
<title>Node1&#45;&gt;Node30</title>
<g id="a_edge38_Node000001_Node000030"><a xlink:title=" ">
<path fill="none" stroke="#63b8ff" d="M486.12,-403.59C486.12,-396.86 486.12,-387.53 486.12,-379.15"/>
<polygon fill="#63b8ff" stroke="#63b8ff" points="489.63,-379.3 486.12,-369.3 482.63,-379.3 489.63,-379.3"/>
</a>
</g>
</g>
<!-- Node32 -->
<g id="Node000032" class="node">
<title>Node32</title>
<g id="a_Node000032"><a xlink:href="../../d6/d74/rpc_2Color_8h.html" target="_top" xlink:title=" ">
<polygon fill="white" stroke="#666666" points="795.75,-368 708.5,-368 708.5,-348 795.75,-348 795.75,-368"/>
<text text-anchor="middle" x="752.12" y="-354.5" font-family="Helvetica,sans-Serif" font-size="10.00">carla/rpc/Color.h</text>
</a>
</g>
</g>
<!-- Node1&#45;&gt;Node32 -->
<g id="edge45_Node000001_Node000032" class="edge">
<title>Node1&#45;&gt;Node32</title>
<g id="a_edge45_Node000001_Node000032"><a xlink:title=" ">
<path fill="none" stroke="#63b8ff" d="M520.63,-406C565.6,-396.87 644.77,-380.79 697.83,-370.02"/>
<polygon fill="#63b8ff" stroke="#63b8ff" points="698.31,-373.29 707.41,-367.87 696.91,-366.43 698.31,-373.29"/>
</a>
</g>
</g>
<!-- Node3 -->
<g id="Node000003" class="node">
<title>Node3</title>
<g id="a_Node000003"><a xlink:href="../../de/d70/geom_2Vector3D_8h.html" target="_top" xlink:title=" ">
<polygon fill="white" stroke="#666666" points="298,-244 182.25,-244 182.25,-224 298,-224 298,-244"/>
<text text-anchor="middle" x="240.12" y="-230.5" font-family="Helvetica,sans-Serif" font-size="10.00">carla/geom/Vector3D.h</text>
</a>
</g>
</g>
<!-- Node2&#45;&gt;Node3 -->
<g id="edge2_Node000002_Node000003" class="edge">
<title>Node2&#45;&gt;Node3</title>
<g id="a_edge2_Node000002_Node000003"><a xlink:title=" ">
<path fill="none" stroke="#63b8ff" d="M294.58,-347.58C275.69,-340.93 254.73,-329.89 243.12,-312 232.23,-295.2 233.05,-271.72 235.61,-255.12"/>
<polygon fill="#63b8ff" stroke="#63b8ff" points="239.21,-255.92 237.64,-245.44 232.33,-254.61 239.21,-255.92"/>
</a>
</g>
</g>
<!-- Node20 -->
<g id="Node000020" class="node">
<title>Node20</title>
<g id="a_Node000020"><a xlink:href="../../d1/da4/Vector3DInt_8h.html" target="_top" xlink:title=" ">
<polygon fill="white" stroke="#666666" points="126.25,-244 0,-244 0,-224 126.25,-224 126.25,-244"/>
<text text-anchor="middle" x="63.12" y="-230.5" font-family="Helvetica,sans-Serif" font-size="10.00">carla/geom/Vector3DInt.h</text>
</a>
</g>
</g>
<!-- Node2&#45;&gt;Node20 -->
<g id="edge21_Node000002_Node000020" class="edge">
<title>Node2&#45;&gt;Node20</title>
<g id="a_edge21_Node000002_Node000020"><a xlink:title=" ">
<path fill="none" stroke="#63b8ff" d="M312.36,-347.66C291.47,-338.65 259.06,-324.58 231.12,-312 200.3,-298.12 192.85,-294.11 162.12,-280 139.29,-269.52 113.44,-257.77 93.89,-248.91"/>
<polygon fill="#63b8ff" stroke="#63b8ff" points="95.56,-245.37 85,-244.44 92.67,-251.75 95.56,-245.37"/>
</a>
</g>
</g>
<!-- Node21 -->
<g id="Node000021" class="node">
<title>Node21</title>
<g id="a_Node000021"><a xlink:href="../../db/d8a/Math_8h.html" target="_top" xlink:title=" ">
<polygon fill="white" stroke="#666666" points="382.62,-306 285.62,-306 285.62,-286 382.62,-286 382.62,-306"/>
<text text-anchor="middle" x="334.12" y="-292.5" font-family="Helvetica,sans-Serif" font-size="10.00">carla/geom/Math.h</text>
</a>
</g>
</g>
<!-- Node2&#45;&gt;Node21 -->
<g id="edge25_Node000002_Node000021" class="edge">
<title>Node2&#45;&gt;Node21</title>
<g id="a_edge25_Node000002_Node000021"><a xlink:title=" ">
<path fill="none" stroke="#63b8ff" d="M334.12,-347.62C334.12,-339.48 334.12,-327.39 334.12,-317.07"/>
<polygon fill="#63b8ff" stroke="#63b8ff" points="337.63,-317.11 334.12,-307.11 330.63,-317.11 337.63,-317.11"/>
</a>
</g>
</g>
<!-- Node23 -->
<g id="Node000023" class="node">
<title>Node23</title>
<g id="a_Node000023"><a xlink:href="../../d9/da2/enable-ue4-macros_8h.html" target="_top" xlink:title=" ">
<polygon fill="white" stroke="#666666" points="763.62,-312 660.62,-312 660.62,-280 763.62,-280 763.62,-312"/>
<text text-anchor="start" x="668.62" y="-298.5" font-family="Helvetica,sans-Serif" font-size="10.00">compiler/enable&#45;ue4</text>
<text text-anchor="middle" x="712.12" y="-286.5" font-family="Helvetica,sans-Serif" font-size="10.00">&#45;macros.h</text>
</a>
</g>
</g>
<!-- Node2&#45;&gt;Node23 -->
<g id="edge31_Node000002_Node000023" class="edge">
<title>Node2&#45;&gt;Node23</title>
<g id="a_edge31_Node000002_Node000023"><a xlink:title=" ">
<path fill="none" stroke="#63b8ff" d="M390.43,-350.83C451.91,-343.7 553.47,-330.74 649.4,-312.42"/>
<polygon fill="#63b8ff" stroke="#63b8ff" points="650.01,-315.68 659.17,-310.34 648.68,-308.81 650.01,-315.68"/>
</a>
</g>
</g>
<!-- Node24 -->
<g id="Node000024" class="node">
<title>Node24</title>
<g id="a_Node000024"><a xlink:title=" ">
<polygon fill="#e0e0e0" stroke="#999999" points="152.88,-306 75.38,-306 75.38,-286 152.88,-286 152.88,-306"/>
<text text-anchor="middle" x="114.12" y="-292.5" font-family="Helvetica,sans-Serif" font-size="10.00">Math/Vector.h</text>
</a>
</g>
</g>
<!-- Node2&#45;&gt;Node24 -->
<g id="edge32_Node000002_Node000024" class="edge">
<title>Node2&#45;&gt;Node24</title>
<g id="a_edge32_Node000002_Node000024"><a xlink:title=" ">
<path fill="none" stroke="#63b8ff" d="M298.58,-347.56C264.75,-338.54 212.42,-324.51 167.12,-312 164,-311.14 160.77,-310.24 157.53,-309.33"/>
<polygon fill="#63b8ff" stroke="#63b8ff" points="158.76,-305.76 148.19,-306.43 156.87,-312.5 158.76,-305.76"/>
</a>
</g>
</g>
<!-- Node25 -->
<g id="Node000025" class="node">
<title>Node25</title>
<g id="a_Node000025"><a xlink:href="../../d2/d02/disable-ue4-macros_8h.html" target="_top" xlink:title=" ">
<polygon fill="white" stroke="#666666" points="642.75,-312 537.5,-312 537.5,-280 642.75,-280 642.75,-312"/>
<text text-anchor="start" x="545.5" y="-298.5" font-family="Helvetica,sans-Serif" font-size="10.00">compiler/disable&#45;ue4</text>
<text text-anchor="middle" x="590.12" y="-286.5" font-family="Helvetica,sans-Serif" font-size="10.00">&#45;macros.h</text>
</a>
</g>
</g>
<!-- Node2&#45;&gt;Node25 -->
<g id="edge33_Node000002_Node000025" class="edge">
<title>Node2&#45;&gt;Node25</title>
<g id="a_edge33_Node000002_Node000025"><a xlink:title=" ">
<path fill="none" stroke="#63b8ff" d="M374.41,-347.56C415.25,-337.99 479.05,-323.03 526.69,-311.87"/>
<polygon fill="#63b8ff" stroke="#63b8ff" points="527.27,-315.09 536.2,-309.4 525.67,-308.28 527.27,-315.09"/>
</a>
</g>
</g>
<!-- Node4 -->
<g id="Node000004" class="node">
<title>Node4</title>
<g id="a_Node000004"><a xlink:href="../../d9/d6f/MsgPack_8h.html" target="_top" xlink:title=" ">
<polygon fill="white" stroke="#666666" points="441.88,-188 352.38,-188 352.38,-168 441.88,-168 441.88,-188"/>
<text text-anchor="middle" x="397.12" y="-174.5" font-family="Helvetica,sans-Serif" font-size="10.00">carla/MsgPack.h</text>
</a>
</g>
</g>
<!-- Node3&#45;&gt;Node4 -->
<g id="edge3_Node000003_Node000004" class="edge">
<title>Node3&#45;&gt;Node4</title>
<g id="a_edge3_Node000003_Node000004"><a xlink:title=" ">
<path fill="none" stroke="#63b8ff" d="M267.47,-223.59C292.87,-214.86 330.92,-201.77 359.23,-192.03"/>
<polygon fill="#63b8ff" stroke="#63b8ff" points="360.25,-195.04 368.56,-188.48 357.97,-188.42 360.25,-195.04"/>
</a>
</g>
</g>
<!-- Node15 -->
<g id="Node000015" class="node">
<title>Node15</title>
<g id="a_Node000015"><a xlink:title=" ">
<polygon fill="#e0e0e0" stroke="#999999" points="259.75,-76 220.5,-76 220.5,-56 259.75,-56 259.75,-76"/>
<text text-anchor="middle" x="240.12" y="-62.5" font-family="Helvetica,sans-Serif" font-size="10.00">limits</text>
</a>
</g>
</g>
<!-- Node3&#45;&gt;Node15 -->
<g id="edge20_Node000003_Node000015" class="edge">
<title>Node3&#45;&gt;Node15</title>
<g id="a_edge20_Node000003_Node000015"><a xlink:title=" ">
<path fill="none" stroke="#63b8ff" d="M240.12,-223.6C240.12,-197.35 240.12,-122.84 240.12,-86.89"/>
<polygon fill="#63b8ff" stroke="#63b8ff" points="243.63,-87.3 240.12,-77.3 236.63,-87.3 243.63,-87.3"/>
</a>
</g>
</g>
<!-- Node19 -->
<g id="Node000019" class="node">
<title>Node19</title>
<g id="a_Node000019"><a xlink:title=" ">
<polygon fill="#e0e0e0" stroke="#999999" points="175.62,-188 132.62,-188 132.62,-168 175.62,-168 175.62,-188"/>
<text text-anchor="middle" x="154.12" y="-174.5" font-family="Helvetica,sans-Serif" font-size="10.00">cmath</text>
</a>
</g>
</g>
<!-- Node3&#45;&gt;Node19 -->
<g id="edge19_Node000003_Node000019" class="edge">
<title>Node3&#45;&gt;Node19</title>
<g id="a_edge19_Node000003_Node000019"><a xlink:title=" ">
<path fill="none" stroke="#63b8ff" d="M225.14,-223.59C212.28,-215.51 193.48,-203.71 178.45,-194.27"/>
<polygon fill="#63b8ff" stroke="#63b8ff" points="180.55,-190.83 170.22,-188.48 176.83,-196.76 180.55,-190.83"/>
</a>
</g>
</g>
<!-- Node5 -->
<g id="Node000005" class="node">
<title>Node5</title>
<g id="a_Node000005"><a xlink:href="../../d2/dda/carla_2Buffer_8h.html" target="_top" xlink:title=" ">
<polygon fill="white" stroke="#666666" points="525.62,-132 452.62,-132 452.62,-112 525.62,-112 525.62,-132"/>
<text text-anchor="middle" x="489.12" y="-118.5" font-family="Helvetica,sans-Serif" font-size="10.00">carla/Buffer.h</text>
</a>
</g>
</g>
<!-- Node4&#45;&gt;Node5 -->
<g id="edge4_Node000004_Node000005" class="edge">
<title>Node4&#45;&gt;Node5</title>
<g id="a_edge4_Node000004_Node000005"><a xlink:title=" ">
<path fill="none" stroke="#63b8ff" d="M413.15,-167.59C427.05,-159.44 447.41,-147.48 463.56,-138"/>
<polygon fill="#63b8ff" stroke="#63b8ff" points="465.12,-140.56 471.97,-132.48 461.58,-134.52 465.12,-140.56"/>
</a>
</g>
</g>
<!-- Node18 -->
<g id="Node000018" class="node">
<title>Node18</title>
<g id="a_Node000018"><a xlink:title=" ">
<polygon fill="#e0e0e0" stroke="#999999" points="434.62,-132 343.62,-132 343.62,-112 434.62,-112 434.62,-132"/>
<text text-anchor="middle" x="389.12" y="-118.5" font-family="Helvetica,sans-Serif" font-size="10.00">rpc/msgpack.hpp</text>
</a>
</g>
</g>
<!-- Node4&#45;&gt;Node18 -->
<g id="edge18_Node000004_Node000018" class="edge">
<title>Node4&#45;&gt;Node18</title>
<g id="a_edge18_Node000004_Node000018"><a xlink:title=" ">
<path fill="none" stroke="#63b8ff" d="M395.73,-167.59C394.73,-160.86 393.35,-151.53 392.11,-143.15"/>
<polygon fill="#63b8ff" stroke="#63b8ff" points="395.43,-142.68 390.5,-133.3 388.51,-143.7 395.43,-142.68"/>
</a>
</g>
</g>
<!-- Node6 -->
<g id="Node000006" class="node">
<title>Node6</title>
<g id="a_Node000006"><a xlink:href="../../d4/deb/Debug_8h.html" target="_top" xlink:title=" ">
<polygon fill="white" stroke="#666666" points="770.12,-76 694.12,-76 694.12,-56 770.12,-56 770.12,-76"/>
<text text-anchor="middle" x="732.12" y="-62.5" font-family="Helvetica,sans-Serif" font-size="10.00">carla/Debug.h</text>
</a>
</g>
</g>
<!-- Node5&#45;&gt;Node6 -->
<g id="edge5_Node000005_Node000006" class="edge">
<title>Node5&#45;&gt;Node6</title>
<g id="a_edge5_Node000005_Node000006"><a xlink:title=" ">
<path fill="none" stroke="#63b8ff" d="M526.03,-112.8C567.95,-103.48 636.52,-88.24 682.95,-77.93"/>
<polygon fill="#63b8ff" stroke="#63b8ff" points="683.66,-81.13 692.66,-75.55 682.14,-74.3 683.66,-81.13"/>
</a>
</g>
</g>
<!-- Node7 -->
<g id="Node000007" class="node">
<title>Node7</title>
<g id="a_Node000007"><a xlink:href="../../d8/d8a/Exception_8h.html" target="_top" xlink:title=" ">
<polygon fill="white" stroke="#666666" points="620,-20 528.25,-20 528.25,0 620,0 620,-20"/>
<text text-anchor="middle" x="574.12" y="-6.5" font-family="Helvetica,sans-Serif" font-size="10.00">carla/Exception.h</text>
</a>
</g>
</g>
<!-- Node5&#45;&gt;Node7 -->
<g id="edge9_Node000005_Node000007" class="edge">
<title>Node5&#45;&gt;Node7</title>
<g id="a_edge9_Node000005_Node000007"><a xlink:title=" ">
<path fill="none" stroke="#63b8ff" d="M486.73,-111.79C483.8,-98.41 480.46,-73.3 491.12,-56 500.01,-41.58 515.26,-31.47 530.27,-24.53"/>
<polygon fill="#63b8ff" stroke="#63b8ff" points="531.18,-27.53 539.04,-20.43 528.46,-21.08 531.18,-27.53"/>
</a>
</g>
</g>
<!-- Node10 -->
<g id="Node000010" class="node">
<title>Node10</title>
<g id="a_Node000010"><a xlink:href="../../de/d87/Logging_8h.html" target="_top" xlink:title=" ">
<polygon fill="white" stroke="#666666" points="444.12,-76 362.12,-76 362.12,-56 444.12,-56 444.12,-76"/>
<text text-anchor="middle" x="403.12" y="-62.5" font-family="Helvetica,sans-Serif" font-size="10.00">carla/Logging.h</text>
</a>
</g>
</g>
<!-- Node5&#45;&gt;Node10 -->
<g id="edge10_Node000005_Node000010" class="edge">
<title>Node5&#45;&gt;Node10</title>
<g id="a_edge10_Node000005_Node000010"><a xlink:title=" ">
<path fill="none" stroke="#63b8ff" d="M474.14,-111.59C461.28,-103.51 442.48,-91.71 427.45,-82.27"/>
<polygon fill="#63b8ff" stroke="#63b8ff" points="429.55,-78.83 419.22,-76.48 425.83,-84.76 429.55,-78.83"/>
</a>
</g>
</g>
<!-- Node13 -->
<g id="Node000013" class="node">
<title>Node13</title>
<g id="a_Node000013"><a xlink:title=" ">
<polygon fill="#e0e0e0" stroke="#999999" points="606.12,-76 500.12,-76 500.12,-56 606.12,-56 606.12,-76"/>
<text text-anchor="middle" x="553.12" y="-62.5" font-family="Helvetica,sans-Serif" font-size="10.00">boost/asio/buffer.hpp</text>
</a>
</g>
</g>
<!-- Node5&#45;&gt;Node13 -->
<g id="edge13_Node000005_Node000013" class="edge">
<title>Node5&#45;&gt;Node13</title>
<g id="a_edge13_Node000005_Node000013"><a xlink:title=" ">
<path fill="none" stroke="#63b8ff" d="M500.27,-111.59C509.54,-103.77 522.94,-92.46 533.93,-83.19"/>
<polygon fill="#63b8ff" stroke="#63b8ff" points="535.72,-85.42 541.1,-76.3 531.2,-80.07 535.72,-85.42"/>
</a>
</g>
</g>
<!-- Node14 -->
<g id="Node000014" class="node">
<title>Node14</title>
<g id="a_Node000014"><a xlink:title=" ">
<polygon fill="#e0e0e0" stroke="#999999" points="880.75,-76 835.5,-76 835.5,-56 880.75,-56 880.75,-76"/>
<text text-anchor="middle" x="858.12" y="-62.5" font-family="Helvetica,sans-Serif" font-size="10.00">cstdint</text>
</a>
</g>
</g>
<!-- Node5&#45;&gt;Node14 -->
<g id="edge14_Node000005_Node000014" class="edge">
<title>Node5&#45;&gt;Node14</title>
<g id="a_edge14_Node000005_Node000014"><a xlink:title=" ">
<path fill="none" stroke="#63b8ff" d="M525.86,-115.62C597.52,-105.14 755.01,-82.09 824.29,-71.95"/>
<polygon fill="#63b8ff" stroke="#63b8ff" points="824.62,-75.29 834.01,-70.38 823.61,-68.37 824.62,-75.29"/>
</a>
</g>
</g>
<!-- Node5&#45;&gt;Node15 -->
<g id="edge15_Node000005_Node000015" class="edge">
<title>Node5&#45;&gt;Node15</title>
<g id="a_edge15_Node000005_Node000015"><a xlink:title=" ">
<path fill="none" stroke="#63b8ff" d="M452.18,-113.59C399.81,-103.03 306.65,-84.05 273.12,-76 272.19,-75.78 271.24,-75.54 270.29,-75.31"/>
<polygon fill="#63b8ff" stroke="#63b8ff" points="271.53,-71.75 260.97,-72.62 269.77,-78.53 271.53,-71.75"/>
</a>
</g>
</g>
<!-- Node16 -->
<g id="Node000016" class="node">
<title>Node16</title>
<g id="a_Node000016"><a xlink:title=" ">
<polygon fill="#e0e0e0" stroke="#999999" points="675.75,-76 624.5,-76 624.5,-56 675.75,-56 675.75,-76"/>
<text text-anchor="middle" x="650.12" y="-62.5" font-family="Helvetica,sans-Serif" font-size="10.00">memory</text>
</a>
</g>
</g>
<!-- Node5&#45;&gt;Node16 -->
<g id="edge16_Node000005_Node000016" class="edge">
<title>Node5&#45;&gt;Node16</title>
<g id="a_edge16_Node000005_Node000016"><a xlink:title=" ">
<path fill="none" stroke="#63b8ff" d="M517.17,-111.59C543.97,-102.61 584.51,-89.01 613.77,-79.19"/>
<polygon fill="#63b8ff" stroke="#63b8ff" points="614.63,-82.26 623,-75.76 612.41,-75.62 614.63,-82.26"/>
</a>
</g>
</g>
<!-- Node17 -->
<g id="Node000017" class="node">
<title>Node17</title>
<g id="a_Node000017"><a xlink:title=" ">
<polygon fill="#e0e0e0" stroke="#999999" points="344,-76 282.25,-76 282.25,-56 344,-56 344,-76"/>
<text text-anchor="middle" x="313.12" y="-62.5" font-family="Helvetica,sans-Serif" font-size="10.00">type_traits</text>
</a>
</g>
</g>
<!-- Node5&#45;&gt;Node17 -->
<g id="edge17_Node000005_Node000017" class="edge">
<title>Node5&#45;&gt;Node17</title>
<g id="a_edge17_Node000005_Node000017"><a xlink:title=" ">
<path fill="none" stroke="#63b8ff" d="M458.47,-111.59C429.62,-102.74 386.22,-89.43 354.35,-79.65"/>
<polygon fill="#63b8ff" stroke="#63b8ff" points="355.61,-76.07 345.02,-76.48 353.55,-82.76 355.61,-76.07"/>
</a>
</g>
</g>
<!-- Node6&#45;&gt;Node7 -->
<g id="edge6_Node000006_Node000007" class="edge">
<title>Node6&#45;&gt;Node7</title>
<g id="a_edge6_Node000006_Node000007"><a xlink:title=" ">
<path fill="none" stroke="#63b8ff" d="M704.6,-55.59C679.05,-46.86 640.76,-33.77 612.26,-24.03"/>
<polygon fill="#63b8ff" stroke="#63b8ff" points="613.46,-20.4 602.86,-20.48 611.19,-27.03 613.46,-20.4"/>
</a>
</g>
</g>
<!-- Node8 -->
<g id="Node000008" class="node">
<title>Node8</title>
<g id="a_Node000008"><a xlink:title=" ">
<polygon fill="#e0e0e0" stroke="#999999" points="725.5,-20 666.75,-20 666.75,0 725.5,0 725.5,-20"/>
<text text-anchor="middle" x="696.12" y="-6.5" font-family="Helvetica,sans-Serif" font-size="10.00">stdexcept</text>
</a>
</g>
</g>
<!-- Node6&#45;&gt;Node8 -->
<g id="edge7_Node000006_Node000008" class="edge">
<title>Node6&#45;&gt;Node8</title>
<g id="a_edge7_Node000006_Node000008"><a xlink:title=" ">
<path fill="none" stroke="#63b8ff" d="M725.85,-55.59C721.05,-48.39 714.28,-38.23 708.41,-29.43"/>
<polygon fill="#63b8ff" stroke="#63b8ff" points="710.78,-27.68 702.32,-21.3 704.96,-31.56 710.78,-27.68"/>
</a>
</g>
</g>
<!-- Node9 -->
<g id="Node000009" class="node">
<title>Node9</title>
<g id="a_Node000009"><a xlink:title=" ">
<polygon fill="#e0e0e0" stroke="#999999" points="792.25,-20 744,-20 744,0 792.25,0 792.25,-20"/>
<text text-anchor="middle" x="768.12" y="-6.5" font-family="Helvetica,sans-Serif" font-size="10.00">cassert</text>
</a>
</g>
</g>
<!-- Node6&#45;&gt;Node9 -->
<g id="edge8_Node000006_Node000009" class="edge">
<title>Node6&#45;&gt;Node9</title>
<g id="a_edge8_Node000006_Node000009"><a xlink:title=" ">
<path fill="none" stroke="#63b8ff" d="M738.4,-55.59C743.2,-48.39 749.97,-38.23 755.84,-29.43"/>
<polygon fill="#63b8ff" stroke="#63b8ff" points="759.29,-31.56 761.93,-21.3 753.47,-27.68 759.29,-31.56"/>
</a>
</g>
</g>
<!-- Node11 -->
<g id="Node000011" class="node">
<title>Node11</title>
<g id="a_Node000011"><a xlink:href="../../d9/dd0/Platform_8h.html" target="_top" xlink:title=" ">
<polygon fill="white" stroke="#666666" points="459.25,-20 375,-20 375,0 459.25,0 459.25,-20"/>
<text text-anchor="middle" x="417.12" y="-6.5" font-family="Helvetica,sans-Serif" font-size="10.00">carla/Platform.h</text>
</a>
</g>
</g>
<!-- Node10&#45;&gt;Node11 -->
<g id="edge11_Node000010_Node000011" class="edge">
<title>Node10&#45;&gt;Node11</title>
<g id="a_edge11_Node000010_Node000011"><a xlink:title=" ">
<path fill="none" stroke="#63b8ff" d="M405.56,-55.59C407.33,-48.78 409.78,-39.32 411.98,-30.86"/>
<polygon fill="#63b8ff" stroke="#63b8ff" points="415.59,-31.86 414.71,-21.3 408.82,-30.1 415.59,-31.86"/>
</a>
</g>
</g>
<!-- Node12 -->
<g id="Node000012" class="node">
<title>Node12</title>
<g id="a_Node000012"><a xlink:title=" ">
<polygon fill="#e0e0e0" stroke="#999999" points="356.88,-20 303.38,-20 303.38,0 356.88,0 356.88,-20"/>
<text text-anchor="middle" x="330.12" y="-6.5" font-family="Helvetica,sans-Serif" font-size="10.00">iostream</text>
</a>
</g>
</g>
<!-- Node10&#45;&gt;Node12 -->
<g id="edge12_Node000010_Node000012" class="edge">
<title>Node10&#45;&gt;Node12</title>
<g id="a_edge12_Node000010_Node000012"><a xlink:title=" ">
<path fill="none" stroke="#63b8ff" d="M390.41,-55.59C379.63,-47.62 363.94,-36.02 351.27,-26.64"/>
<polygon fill="#63b8ff" stroke="#63b8ff" points="353.82,-23.43 343.69,-20.3 349.65,-29.06 353.82,-23.43"/>
</a>
</g>
</g>
<!-- Node20&#45;&gt;Node4 -->
<g id="edge22_Node000020_Node000004" class="edge">
<title>Node20&#45;&gt;Node4</title>
<g id="a_edge22_Node000020_Node000004"><a xlink:title=" ">
<path fill="none" stroke="#63b8ff" d="M121.69,-223.53C183.63,-213.52 280.66,-197.83 341.48,-188"/>
<polygon fill="#63b8ff" stroke="#63b8ff" points="341.71,-191.34 351.03,-186.29 340.6,-184.43 341.71,-191.34"/>
</a>
</g>
</g>
<!-- Node20&#45;&gt;Node15 -->
<g id="edge24_Node000020_Node000015" class="edge">
<title>Node20&#45;&gt;Node15</title>
<g id="a_edge24_Node000020_Node000015"><a xlink:title=" ">
<path fill="none" stroke="#63b8ff" d="M70.97,-223.87C82.14,-211.01 103.48,-187.01 123.12,-168 155.79,-136.4 196.44,-102.41 220.22,-83.02"/>
<polygon fill="#63b8ff" stroke="#63b8ff" points="221.89,-85.35 227.45,-76.34 217.48,-79.92 221.89,-85.35"/>
</a>
</g>
</g>
<!-- Node20&#45;&gt;Node19 -->
<g id="edge23_Node000020_Node000019" class="edge">
<title>Node20&#45;&gt;Node19</title>
<g id="a_edge23_Node000020_Node000019"><a xlink:title=" ">
<path fill="none" stroke="#63b8ff" d="M78.98,-223.59C92.72,-215.44 112.87,-203.48 128.84,-194"/>
<polygon fill="#63b8ff" stroke="#63b8ff" points="130.34,-196.59 137.15,-188.48 126.76,-190.57 130.34,-196.59"/>
</a>
</g>
</g>
<!-- Node21&#45;&gt;Node3 -->
<g id="edge27_Node000021_Node000003" class="edge">
<title>Node21&#45;&gt;Node3</title>
<g id="a_edge27_Node000021_Node000003"><a xlink:title=" ">
<path fill="none" stroke="#63b8ff" d="M319.44,-285.62C304.54,-276.11 281.24,-261.24 263.74,-250.08"/>
<polygon fill="#63b8ff" stroke="#63b8ff" points="266.02,-246.74 255.71,-244.31 262.26,-252.64 266.02,-246.74"/>
</a>
</g>
</g>
<!-- Node21&#45;&gt;Node6 -->
<g id="edge26_Node000021_Node000006" class="edge">
<title>Node21&#45;&gt;Node6</title>
<g id="a_edge26_Node000021_Node000006"><a xlink:title=" ">
<path fill="none" stroke="#63b8ff" d="M343.59,-285.61C366.84,-262.93 429.29,-204.41 490.12,-168 556.91,-128.03 642.42,-96.4 691.86,-79.8"/>
<polygon fill="#63b8ff" stroke="#63b8ff" points="692.75,-82.86 701.14,-76.39 690.54,-76.22 692.75,-82.86"/>
</a>
</g>
</g>
<!-- Node21&#45;&gt;Node17 -->
<g id="edge29_Node000021_Node000017" class="edge">
<title>Node21&#45;&gt;Node17</title>
<g id="a_edge29_Node000021_Node000017"><a xlink:title=" ">
<path fill="none" stroke="#63b8ff" d="M342.81,-285.66C354.09,-272.37 371.61,-247.05 365.12,-224 360.05,-205.95 350.35,-205.3 343.12,-188 328.92,-154 320.34,-111.71 316.19,-87.19"/>
<polygon fill="#63b8ff" stroke="#63b8ff" points="319.5,-86.73 314.45,-77.41 312.59,-87.84 319.5,-86.73"/>
</a>
</g>
</g>
<!-- Node21&#45;&gt;Node19 -->
<g id="edge28_Node000021_Node000019" class="edge">
<title>Node21&#45;&gt;Node19</title>
<g id="a_edge28_Node000021_Node000019"><a xlink:title=" ">
<path fill="none" stroke="#63b8ff" d="M285.22,-291.54C249.57,-286.46 202.54,-274.08 173.12,-244 161.44,-232.05 156.87,-213.32 155.12,-199.03"/>
<polygon fill="#63b8ff" stroke="#63b8ff" points="158.55,-198.99 154.22,-189.32 151.57,-199.58 158.55,-198.99"/>
</a>
</g>
</g>
<!-- Node22 -->
<g id="Node000022" class="node">
<title>Node22</title>
<g id="a_Node000022"><a xlink:title=" ">
<polygon fill="#e0e0e0" stroke="#999999" points="355.75,-244 316.5,-244 316.5,-224 355.75,-224 355.75,-244"/>
<text text-anchor="middle" x="336.12" y="-230.5" font-family="Helvetica,sans-Serif" font-size="10.00">utility</text>
</a>
</g>
</g>
<!-- Node21&#45;&gt;Node22 -->
<g id="edge30_Node000021_Node000022" class="edge">
<title>Node21&#45;&gt;Node22</title>
<g id="a_edge30_Node000021_Node000022"><a xlink:title=" ">
<path fill="none" stroke="#63b8ff" d="M334.44,-285.62C334.71,-277.48 335.11,-265.39 335.46,-255.07"/>
<polygon fill="#63b8ff" stroke="#63b8ff" points="338.99,-255.22 335.82,-245.11 331.99,-254.99 338.99,-255.22"/>
</a>
</g>
</g>
<!-- Node26 -->
<g id="Node000026" class="node">
<title>Node26</title>
<g id="a_Node000026"><a xlink:href="../../d7/d7d/Carla_8h.html" target="_top" xlink:title=" ">
<polygon fill="white" stroke="#666666" points="833.5,-244 786.75,-244 786.75,-224 833.5,-224 833.5,-244"/>
<text text-anchor="middle" x="810.12" y="-230.5" font-family="Helvetica,sans-Serif" font-size="10.00">Carla.h</text>
</a>
</g>
</g>
<!-- Node25&#45;&gt;Node26 -->
<g id="edge34_Node000025_Node000026" class="edge">
<title>Node25&#45;&gt;Node26</title>
<g id="a_edge34_Node000025_Node000026"><a xlink:title=" ">
<path fill="none" stroke="#63b8ff" d="M643.1,-280.55C684.47,-269.27 740.7,-253.93 776.21,-244.25"/>
<polygon fill="#63b8ff" stroke="#63b8ff" points="776.8,-247.45 785.52,-241.44 774.95,-240.69 776.8,-247.45"/>
</a>
</g>
</g>
<!-- Node27 -->
<g id="Node000027" class="node">
<title>Node27</title>
<g id="a_Node000027"><a xlink:href="../../d4/d57/Unreal_2CarlaUE4_2Plugins_2Carla_2Source_2Carla_2Util_2NonCopyable_8h.html" target="_top" xlink:title=" ">
<polygon fill="white" stroke="#666666" points="598.75,-188 499.5,-188 499.5,-168 598.75,-168 598.75,-188"/>
<text text-anchor="middle" x="549.12" y="-174.5" font-family="Helvetica,sans-Serif" font-size="10.00">Util/NonCopyable.h</text>
</a>
</g>
</g>
<!-- Node26&#45;&gt;Node27 -->
<g id="edge35_Node000026_Node000027" class="edge">
<title>Node26&#45;&gt;Node27</title>
<g id="a_edge35_Node000026_Node000027"><a xlink:title=" ">
<path fill="none" stroke="#63b8ff" d="M786.27,-227.05C781.91,-226 777.38,-224.95 773.12,-224 718.03,-211.77 654.99,-199.24 609.85,-190.51"/>
<polygon fill="#63b8ff" stroke="#63b8ff" points="610.55,-186.89 600.07,-188.43 609.23,-193.76 610.55,-186.89"/>
</a>
</g>
</g>
<!-- Node28 -->
<g id="Node000028" class="node">
<title>Node28</title>
<g id="a_Node000028"><a xlink:title=" ">
<polygon fill="#e0e0e0" stroke="#999999" points="725.62,-188 616.62,-188 616.62,-168 725.62,-168 725.62,-188"/>
<text text-anchor="middle" x="671.12" y="-174.5" font-family="Helvetica,sans-Serif" font-size="10.00">Logging/LogMacros.h</text>
</a>
</g>
</g>
<!-- Node26&#45;&gt;Node28 -->
<g id="edge36_Node000026_Node000028" class="edge">
<title>Node26&#45;&gt;Node28</title>
<g id="a_edge36_Node000026_Node000028"><a xlink:title=" ">
<path fill="none" stroke="#63b8ff" d="M786.55,-223.84C764.32,-215.2 730.74,-202.16 705.52,-192.36"/>
<polygon fill="#63b8ff" stroke="#63b8ff" points="706.88,-188.75 696.29,-188.39 704.34,-195.27 706.88,-188.75"/>
</a>
</g>
</g>
<!-- Node29 -->
<g id="Node000029" class="node">
<title>Node29</title>
<g id="a_Node000029"><a xlink:title=" ">
<polygon fill="#e0e0e0" stroke="#999999" points="876.25,-188 744,-188 744,-168 876.25,-168 876.25,-188"/>
<text text-anchor="middle" x="810.12" y="-174.5" font-family="Helvetica,sans-Serif" font-size="10.00">Modules/ModuleInterface.h</text>
</a>
</g>
</g>
<!-- Node26&#45;&gt;Node29 -->
<g id="edge37_Node000026_Node000029" class="edge">
<title>Node26&#45;&gt;Node29</title>
<g id="a_edge37_Node000026_Node000029"><a xlink:title=" ">
<path fill="none" stroke="#63b8ff" d="M810.12,-223.59C810.12,-216.86 810.12,-207.53 810.12,-199.15"/>
<polygon fill="#63b8ff" stroke="#63b8ff" points="813.63,-199.3 810.12,-189.3 806.63,-199.3 813.63,-199.3"/>
</a>
</g>
</g>
<!-- Node30&#45;&gt;Node3 -->
<g id="edge41_Node000030_Node000003" class="edge">
<title>Node30&#45;&gt;Node3</title>
<g id="a_edge41_Node000030_Node000003"><a xlink:title=" ">
<path fill="none" stroke="#63b8ff" d="M430.03,-350.66C376.14,-343.59 299.54,-330.63 276.12,-312 258.31,-297.82 248.89,-272.76 244.22,-255.09"/>
<polygon fill="#63b8ff" stroke="#63b8ff" points="247.43,-254.44 241.75,-245.49 240.61,-256.03 247.43,-254.44"/>
</a>
</g>
</g>
<!-- Node30&#45;&gt;Node4 -->
<g id="edge39_Node000030_Node000004" class="edge">
<title>Node30&#45;&gt;Node4</title>
<g id="a_edge39_Node000030_Node000004"><a xlink:title=" ">
<path fill="none" stroke="#63b8ff" d="M489.02,-347.6C493.1,-332.68 499.08,-302.94 490.12,-280 475.96,-243.7 441.96,-212.57 419.24,-194.82"/>
<polygon fill="#63b8ff" stroke="#63b8ff" points="421.65,-191.5 411.57,-188.26 417.43,-197.08 421.65,-191.5"/>
</a>
</g>
</g>
<!-- Node30&#45;&gt;Node21 -->
<g id="edge40_Node000030_Node000021" class="edge">
<title>Node30&#45;&gt;Node21</title>
<g id="a_edge40_Node000030_Node000021"><a xlink:title=" ">
<path fill="none" stroke="#63b8ff" d="M462.38,-347.62C437.02,-337.62 396.62,-321.67 367.94,-310.35"/>
<polygon fill="#63b8ff" stroke="#63b8ff" points="369.55,-306.82 358.96,-306.41 366.98,-313.34 369.55,-306.82"/>
</a>
</g>
</g>
<!-- Node30&#45;&gt;Node23 -->
<g id="edge42_Node000030_Node000023" class="edge">
<title>Node30&#45;&gt;Node23</title>
<g id="a_edge42_Node000030_Node000023"><a xlink:title=" ">
<path fill="none" stroke="#63b8ff" d="M521.69,-347.56C555.99,-338.45 608.64,-324.47 649.9,-313.52"/>
<polygon fill="#63b8ff" stroke="#63b8ff" points="650.63,-316.68 659.39,-310.73 648.83,-309.92 650.63,-316.68"/>
</a>
</g>
</g>
<!-- Node30&#45;&gt;Node25 -->
<g id="edge44_Node000030_Node000025" class="edge">
<title>Node30&#45;&gt;Node25</title>
<g id="a_edge44_Node000030_Node000025"><a xlink:title=" ">
<path fill="none" stroke="#63b8ff" d="M502.38,-347.62C516.16,-339.67 536.44,-327.97 554.04,-317.82"/>
<polygon fill="#63b8ff" stroke="#63b8ff" points="555.56,-320.4 562.48,-312.37 552.07,-314.34 555.56,-320.4"/>
</a>
</g>
</g>
<!-- Node31 -->
<g id="Node000031" class="node">
<title>Node31</title>
<g id="a_Node000031"><a xlink:title=" ">
<polygon fill="#e0e0e0" stroke="#999999" points="481.38,-306 400.88,-306 400.88,-286 481.38,-286 481.38,-306"/>
<text text-anchor="middle" x="441.12" y="-292.5" font-family="Helvetica,sans-Serif" font-size="10.00">Math/Rotator.h</text>
</a>
</g>
</g>
<!-- Node30&#45;&gt;Node31 -->
<g id="edge43_Node000030_Node000031" class="edge">
<title>Node30&#45;&gt;Node31</title>
<g id="a_edge43_Node000030_Node000031"><a xlink:title=" ">
<path fill="none" stroke="#63b8ff" d="M479.09,-347.62C472.52,-338.86 462.52,-325.53 454.44,-314.75"/>
<polygon fill="#63b8ff" stroke="#63b8ff" points="456.76,-313.01 447.96,-307.11 451.16,-317.21 456.76,-313.01"/>
</a>
</g>
</g>
<!-- Node32&#45;&gt;Node4 -->
<g id="edge46_Node000032_Node000004" class="edge">
<title>Node32&#45;&gt;Node4</title>
<g id="a_edge46_Node000032_Node000004"><a xlink:title=" ">
<path fill="none" stroke="#63b8ff" d="M759.14,-347.96C770.22,-332.51 788.98,-300.67 773.12,-280 734.25,-229.31 547.81,-198.41 452.9,-185.71"/>
<polygon fill="#63b8ff" stroke="#63b8ff" points="453.44,-182.12 443.07,-184.29 452.53,-189.06 453.44,-182.12"/>
</a>
</g>
</g>
<!-- Node32&#45;&gt;Node14 -->
<g id="edge47_Node000032_Node000014" class="edge">
<title>Node32&#45;&gt;Node14</title>
<g id="a_edge47_Node000032_Node000014"><a xlink:title=" ">
<path fill="none" stroke="#63b8ff" d="M783.25,-347.62C827.72,-332.07 904.12,-296.42 904.12,-235 904.12,-235 904.12,-235 904.12,-177 904.12,-142.67 884.82,-106.65 871.22,-85.54"/>
<polygon fill="#63b8ff" stroke="#63b8ff" points="873.59,-83.8 865.11,-77.45 867.78,-87.7 873.59,-83.8"/>
</a>
</g>
</g>
<!-- Node32&#45;&gt;Node23 -->
<g id="edge48_Node000032_Node000023" class="edge">
<title>Node32&#45;&gt;Node23</title>
<g id="a_edge48_Node000032_Node000023"><a xlink:title=" ">
<path fill="none" stroke="#63b8ff" d="M745.88,-347.62C741.13,-340.51 734.38,-330.38 728.16,-321.06"/>
<polygon fill="#63b8ff" stroke="#63b8ff" points="730.68,-319.52 722.22,-313.14 724.85,-323.4 730.68,-319.52"/>
</a>
</g>
</g>
<!-- Node32&#45;&gt;Node25 -->
<g id="edge50_Node000032_Node000025" class="edge">
<title>Node32&#45;&gt;Node25</title>
<g id="a_edge50_Node000032_Node000025"><a xlink:title=" ">
<path fill="none" stroke="#63b8ff" d="M726.81,-347.62C704.22,-339.26 670.44,-326.75 642.11,-316.25"/>
<polygon fill="#63b8ff" stroke="#63b8ff" points="643.54,-312.68 632.95,-312.49 641.11,-319.25 643.54,-312.68"/>
</a>
</g>
</g>
<!-- Node33 -->
<g id="Node000033" class="node">
<title>Node33</title>
<g id="a_Node000033"><a xlink:title=" ">
<polygon fill="#e0e0e0" stroke="#999999" points="1003.88,-306 932.38,-306 932.38,-286 1003.88,-286 1003.88,-306"/>
<text text-anchor="middle" x="968.12" y="-292.5" font-family="Helvetica,sans-Serif" font-size="10.00">Math/Color.h</text>
</a>
</g>
</g>
<!-- Node32&#45;&gt;Node33 -->
<g id="edge49_Node000032_Node000033" class="edge">
<title>Node32&#45;&gt;Node33</title>
<g id="a_edge49_Node000032_Node000033"><a xlink:title=" ">
<path fill="none" stroke="#63b8ff" d="M788.15,-347.53C821.82,-338.61 873.48,-324.75 918.12,-312 920.89,-311.21 923.74,-310.39 926.6,-309.55"/>
<polygon fill="#63b8ff" stroke="#63b8ff" points="927.36,-312.68 935.96,-306.49 925.37,-305.97 927.36,-312.68"/>
</a>
</g>
</g>
</g>
</svg>
