<?xml version="1.0" encoding="UTF-8" standalone="no"?>
<!DOCTYPE svg PUBLIC "-//W3C//DTD SVG 1.1//EN"
 "http://www.w3.org/Graphics/SVG/1.1/DTD/svg11.dtd">
<!-- Generated by graphviz version 8.1.0 (20230707.0739)
 -->
<!-- Title: CarlaLineInvasionPubSubTypes.cpp Pages: 1 -->
<!--zoomable 332 -->

<svg id="main" version="1.1" xmlns="http://www.w3.org/2000/svg" xmlns:xlink="http://www.w3.org/1999/xlink" xml:space="preserve" onload="init(evt)">
<style type="text/css"><![CDATA[
.node, .edge {opacity: 0.7;}
.node.selected, .edge.selected {opacity: 1;}
.edge:hover path { stroke: red; }
.edge:hover polygon { stroke: red; fill: red; }
]]></style>

<defs>
  <circle id="rim" cx="0" cy="0" r="7"/>
  <circle id="rim2" cx="0" cy="0" r="3.5"/>
  <g id="zoomPlus">
    <use xlink:href="#rim" fill="#404040"><set attributeName="fill" to="#808080" begin="zoomplus.mouseover" end="zoomplus.mouseout"/></use>
    <path d="M-4,0h8M0,-4v8" fill="none" stroke="white" stroke-width="1.5" pointer-events="none"/>
  </g>
  <g id="zoomMin">
    <use xlink:href="#rim" fill="#404040"><set attributeName="fill" to="#808080" begin="zoomminus.mouseover" end="zoomminus.mouseout"/></use>
    <path d="M-4,0h8" fill="none" stroke="white" stroke-width="1.5" pointer-events="none"/>
  </g>
  <g id="arrowUp" transform="translate(30 24)">
    <use xlink:href="#rim"/>
    <path pointer-events="none" fill="none" stroke="white" stroke-width="1.5" d="M0,-3.0v7 M-2.5,-0.5L0,-3.0L2.5,-0.5"/>
  </g>
  <g id="arrowRight" transform="rotate(90) translate(36 -43)">
    <use xlink:href="#rim"/>
    <path pointer-events="none" fill="none" stroke="white" stroke-width="1.5" d="M0,-3.0v7 M-2.5,-0.5L0,-3.0L2.5,-0.5"/>
  </g>
  <g id="arrowDown" transform="rotate(180) translate(-30 -48)">
    <use xlink:href="#rim"/>
    <path pointer-events="none" fill="none" stroke="white" stroke-width="1.5" d="M0,-3.0v7 M-2.5,-0.5L0,-3.0L2.5,-0.5"/>
  </g>
  <g id="arrowLeft" transform="rotate(270) translate(-36 17)">
    <use xlink:href="#rim"/>
    <path pointer-events="none" fill="none" stroke="white" stroke-width="1.5" d="M0,-3.0v7 M-2.5,-0.5L0,-3.0L2.5,-0.5"/>
  </g>
  <g id="resetDef">
    <use xlink:href="#rim2" fill="#404040"><set attributeName="fill" to="#808080" begin="reset.mouseover" end="reset.mouseout"/></use>
  </g>
</defs>
<script type="application/ecmascript">
var viewWidth = 912;
var viewHeight = 332;
var sectionId = 'dynsection-0';
</script>
<script type="application/ecmascript" xlink:href="../../svg.min.js"/>
<svg id="graph" class="graph">
<g id="viewport">
<title>CarlaLineInvasionPubSubTypes.cpp</title>
<!-- Node1 -->
<g id="Node000001" class="node">
<title>Node1</title>
<g id="a_Node000001"><a xlink:title=" ">
<polygon fill="#999999" stroke="#666666" points="239.62,-324 69.12,-324 69.12,-304 239.62,-304 239.62,-324"/>
<text text-anchor="middle" x="154.38" y="-310.5" font-family="Helvetica,sans-Serif" font-size="10.00">CarlaLineInvasionPubSubTypes.cpp</text>
</a>
</g>
</g>
<!-- Node2 -->
<g id="Node000002" class="node">
<title>Node2</title>
<g id="a_Node000002"><a xlink:title=" ">
<polygon fill="#e0e0e0" stroke="#999999" points="100.75,-268 0,-268 0,-248 100.75,-248 100.75,-268"/>
<text text-anchor="middle" x="50.38" y="-254.5" font-family="Helvetica,sans-Serif" font-size="10.00">fastcdr/FastBuffer.h</text>
</a>
</g>
</g>
<!-- Node1&#45;&gt;Node2 -->
<g id="edge1_Node000001_Node000002" class="edge">
<title>Node1&#45;&gt;Node2</title>
<g id="a_edge1_Node000001_Node000002"><a xlink:title=" ">
<path fill="none" stroke="#63b8ff" d="M136.26,-303.59C120.25,-295.28 96.66,-283.03 78.25,-273.47"/>
<polygon fill="#63b8ff" stroke="#63b8ff" points="80.12,-269.98 69.63,-268.48 76.89,-276.19 80.12,-269.98"/>
</a>
</g>
</g>
<!-- Node3 -->
<g id="Node000003" class="node">
<title>Node3</title>
<g id="a_Node000003"><a xlink:title=" ">
<polygon fill="#e0e0e0" stroke="#999999" points="190.12,-268 118.62,-268 118.62,-248 190.12,-248 190.12,-268"/>
<text text-anchor="middle" x="154.38" y="-254.5" font-family="Helvetica,sans-Serif" font-size="10.00">fastcdr/Cdr.h</text>
</a>
</g>
</g>
<!-- Node1&#45;&gt;Node3 -->
<g id="edge2_Node000001_Node000003" class="edge">
<title>Node1&#45;&gt;Node3</title>
<g id="a_edge2_Node000001_Node000003"><a xlink:title=" ">
<path fill="none" stroke="#63b8ff" d="M154.38,-303.59C154.38,-296.86 154.38,-287.53 154.38,-279.15"/>
<polygon fill="#63b8ff" stroke="#63b8ff" points="157.88,-279.3 154.38,-269.3 150.88,-279.3 157.88,-279.3"/>
</a>
</g>
</g>
<!-- Node4 -->
<g id="Node000004" class="node">
<title>Node4</title>
<g id="a_Node000004"><a xlink:href="../../d0/d8b/CarlaLineInvasionPubSubTypes_8h.html" target="_top" xlink:title=" ">
<polygon fill="white" stroke="#666666" points="368.38,-268 208.38,-268 208.38,-248 368.38,-248 368.38,-268"/>
<text text-anchor="middle" x="288.38" y="-254.5" font-family="Helvetica,sans-Serif" font-size="10.00">CarlaLineInvasionPubSubTypes.h</text>
</a>
</g>
</g>
<!-- Node1&#45;&gt;Node4 -->
<g id="edge3_Node000001_Node000004" class="edge">
<title>Node1&#45;&gt;Node4</title>
<g id="a_edge3_Node000001_Node000004"><a xlink:title=" ">
<path fill="none" stroke="#63b8ff" d="M177.72,-303.59C199.01,-295.01 230.72,-282.23 254.75,-272.55"/>
<polygon fill="#63b8ff" stroke="#63b8ff" points="255.88,-275.46 263.85,-268.48 253.27,-268.97 255.88,-275.46"/>
</a>
</g>
</g>
<!-- Node5 -->
<g id="Node000005" class="node">
<title>Node5</title>
<g id="a_Node000005"><a xlink:title=" ">
<polygon fill="#e0e0e0" stroke="#999999" points="220.75,-156 84,-156 84,-124 220.75,-124 220.75,-156"/>
<text text-anchor="start" x="92" y="-142.5" font-family="Helvetica,sans-Serif" font-size="10.00">fastdds/dds/topic/TopicData</text>
<text text-anchor="middle" x="152.38" y="-130.5" font-family="Helvetica,sans-Serif" font-size="10.00">Type.hpp</text>
</a>
</g>
</g>
<!-- Node4&#45;&gt;Node5 -->
<g id="edge4_Node000004_Node000005" class="edge">
<title>Node4&#45;&gt;Node5</title>
<g id="a_edge4_Node000004_Node000005"><a xlink:title=" ">
<path fill="none" stroke="#63b8ff" d="M277.25,-247.51C255.88,-229.29 208.6,-188.96 178.74,-163.49"/>
<polygon fill="#63b8ff" stroke="#63b8ff" points="181.33,-160.24 171.45,-156.41 176.78,-165.57 181.33,-160.24"/>
</a>
</g>
</g>
<!-- Node6 -->
<g id="Node000006" class="node">
<title>Node6</title>
<g id="a_Node000006"><a xlink:title=" ">
<polygon fill="#e0e0e0" stroke="#999999" points="338,-150 238.75,-150 238.75,-130 338,-130 338,-150"/>
<text text-anchor="middle" x="288.38" y="-136.5" font-family="Helvetica,sans-Serif" font-size="10.00">fastrtps/utils/md5.h</text>
</a>
</g>
</g>
<!-- Node4&#45;&gt;Node6 -->
<g id="edge5_Node000004_Node000006" class="edge">
<title>Node4&#45;&gt;Node6</title>
<g id="a_edge5_Node000004_Node000006"><a xlink:title=" ">
<path fill="none" stroke="#63b8ff" d="M281.56,-247.56C275.7,-238.83 267.68,-225.23 264.38,-212 259.85,-193.92 267.91,-173.84 275.88,-159.67"/>
<polygon fill="#63b8ff" stroke="#63b8ff" points="279.25,-161.86 281.48,-151.5 273.28,-158.2 279.25,-161.86"/>
</a>
</g>
</g>
<!-- Node7 -->
<g id="Node000007" class="node">
<title>Node7</title>
<g id="a_Node000007"><a xlink:href="../../d9/dfd/CarlaLineInvasion_8h.html" target="_top" xlink:title=" ">
<polygon fill="white" stroke="#666666" points="644,-212 544.75,-212 544.75,-192 644,-192 644,-212"/>
<text text-anchor="middle" x="594.38" y="-198.5" font-family="Helvetica,sans-Serif" font-size="10.00">CarlaLineInvasion.h</text>
</a>
</g>
</g>
<!-- Node4&#45;&gt;Node7 -->
<g id="edge6_Node000004_Node000007" class="edge">
<title>Node4&#45;&gt;Node7</title>
<g id="a_edge6_Node000004_Node000007"><a xlink:title=" ">
<path fill="none" stroke="#63b8ff" d="M342.03,-247.53C395.54,-238.09 477.61,-223.61 533.52,-213.74"/>
<polygon fill="#63b8ff" stroke="#63b8ff" points="534.1,-217.01 543.34,-211.83 532.88,-210.12 534.1,-217.01"/>
</a>
</g>
</g>
<!-- Node17 -->
<g id="Node000017" class="node">
<title>Node17</title>
<g id="a_Node000017"><a xlink:href="../../d0/dda/HeaderPubSubTypes_8h.html" target="_top" xlink:title=" ">
<polygon fill="white" stroke="#666666" points="389.25,-212 273.5,-212 273.5,-192 389.25,-192 389.25,-212"/>
<text text-anchor="middle" x="331.38" y="-198.5" font-family="Helvetica,sans-Serif" font-size="10.00">HeaderPubSubTypes.h</text>
</a>
</g>
</g>
<!-- Node4&#45;&gt;Node17 -->
<g id="edge30_Node000004_Node000017" class="edge">
<title>Node4&#45;&gt;Node17</title>
<g id="a_edge30_Node000004_Node000017"><a xlink:title=" ">
<path fill="none" stroke="#63b8ff" d="M295.87,-247.59C301.72,-240.24 310.04,-229.8 317.15,-220.87"/>
<polygon fill="#63b8ff" stroke="#63b8ff" points="320.48,-223.3 323.97,-213.3 315,-218.94 320.48,-223.3"/>
</a>
</g>
</g>
<!-- Node8 -->
<g id="Node000008" class="node">
<title>Node8</title>
<g id="a_Node000008"><a xlink:href="../../d3/d6a/Header_8h.html" target="_top" xlink:title=" ">
<polygon fill="white" stroke="#666666" points="621.88,-150 566.88,-150 566.88,-130 621.88,-130 621.88,-150"/>
<text text-anchor="middle" x="594.38" y="-136.5" font-family="Helvetica,sans-Serif" font-size="10.00">Header.h</text>
</a>
</g>
</g>
<!-- Node7&#45;&gt;Node8 -->
<g id="edge7_Node000007_Node000008" class="edge">
<title>Node7&#45;&gt;Node8</title>
<g id="a_edge7_Node000007_Node000008"><a xlink:title=" ">
<path fill="none" stroke="#63b8ff" d="M594.38,-191.62C594.38,-183.48 594.38,-171.39 594.38,-161.07"/>
<polygon fill="#63b8ff" stroke="#63b8ff" points="597.88,-161.11 594.38,-151.11 590.88,-161.11 597.88,-161.11"/>
</a>
</g>
</g>
<!-- Node10 -->
<g id="Node000010" class="node">
<title>Node10</title>
<g id="a_Node000010"><a xlink:title=" ">
<polygon fill="#e0e0e0" stroke="#999999" points="480.62,-32 388.12,-32 388.12,0 480.62,0 480.62,-32"/>
<text text-anchor="start" x="396.12" y="-18.5" font-family="Helvetica,sans-Serif" font-size="10.00">fastrtps/utils/fixed</text>
<text text-anchor="middle" x="434.38" y="-6.5" font-family="Helvetica,sans-Serif" font-size="10.00">_size_string.hpp</text>
</a>
</g>
</g>
<!-- Node7&#45;&gt;Node10 -->
<g id="edge23_Node000007_Node000010" class="edge">
<title>Node7&#45;&gt;Node10</title>
<g id="a_edge23_Node000007_Node000010"><a xlink:title=" ">
<path fill="none" stroke="#63b8ff" d="M577.65,-191.52C563.97,-183.26 544.63,-170.37 530.38,-156 495.46,-120.79 464.79,-71.46 447.99,-42.02"/>
<polygon fill="#63b8ff" stroke="#63b8ff" points="450.59,-40.5 442.64,-33.49 444.48,-43.92 450.59,-40.5"/>
</a>
</g>
</g>
<!-- Node11 -->
<g id="Node000011" class="node">
<title>Node11</title>
<g id="a_Node000011"><a xlink:title=" ">
<polygon fill="#e0e0e0" stroke="#999999" points="758.5,-26 710.25,-26 710.25,-6 758.5,-6 758.5,-26"/>
<text text-anchor="middle" x="734.38" y="-12.5" font-family="Helvetica,sans-Serif" font-size="10.00">stdint.h</text>
</a>
</g>
</g>
<!-- Node7&#45;&gt;Node11 -->
<g id="edge24_Node000007_Node000011" class="edge">
<title>Node7&#45;&gt;Node11</title>
<g id="a_edge24_Node000007_Node000011"><a xlink:title=" ">
<path fill="none" stroke="#63b8ff" d="M613.46,-191.61C628.18,-183.66 648.32,-171.15 662.38,-156 695.83,-119.94 717.96,-65.4 728.07,-36.53"/>
<polygon fill="#63b8ff" stroke="#63b8ff" points="731.57,-38.08 731.45,-27.49 724.94,-35.85 731.57,-38.08"/>
</a>
</g>
</g>
<!-- Node12 -->
<g id="Node000012" class="node">
<title>Node12</title>
<g id="a_Node000012"><a xlink:title=" ">
<polygon fill="#e0e0e0" stroke="#999999" points="594.25,-26 556.5,-26 556.5,-6 594.25,-6 594.25,-26"/>
<text text-anchor="middle" x="575.38" y="-12.5" font-family="Helvetica,sans-Serif" font-size="10.00">array</text>
</a>
</g>
</g>
<!-- Node7&#45;&gt;Node12 -->
<g id="edge25_Node000007_Node000012" class="edge">
<title>Node7&#45;&gt;Node12</title>
<g id="a_edge25_Node000007_Node000012"><a xlink:title=" ">
<path fill="none" stroke="#63b8ff" d="M583.23,-191.59C574.32,-183.28 562.49,-170.28 557.38,-156 542.8,-115.31 557.11,-64.17 567.25,-36.67"/>
<polygon fill="#63b8ff" stroke="#63b8ff" points="570.87,-38.02 571.24,-27.43 564.35,-35.47 570.87,-38.02"/>
</a>
</g>
</g>
<!-- Node13 -->
<g id="Node000013" class="node">
<title>Node13</title>
<g id="a_Node000013"><a xlink:title=" ">
<polygon fill="#e0e0e0" stroke="#999999" points="538.38,-26 498.38,-26 498.38,-6 538.38,-6 538.38,-26"/>
<text text-anchor="middle" x="518.38" y="-12.5" font-family="Helvetica,sans-Serif" font-size="10.00">string</text>
</a>
</g>
</g>
<!-- Node7&#45;&gt;Node13 -->
<g id="edge26_Node000007_Node000013" class="edge">
<title>Node7&#45;&gt;Node13</title>
<g id="a_edge26_Node000007_Node000013"><a xlink:title=" ">
<path fill="none" stroke="#63b8ff" d="M580.67,-191.54C569.93,-183.38 555.48,-170.62 547.38,-156 526.13,-117.69 520.4,-65.59 518.89,-37.3"/>
<polygon fill="#63b8ff" stroke="#63b8ff" points="522.35,-37.29 518.46,-27.43 515.36,-37.56 522.35,-37.29"/>
</a>
</g>
</g>
<!-- Node14 -->
<g id="Node000014" class="node">
<title>Node14</title>
<g id="a_Node000014"><a xlink:title=" ">
<polygon fill="#e0e0e0" stroke="#999999" points="831.12,-26 789.62,-26 789.62,-6 831.12,-6 831.12,-26"/>
<text text-anchor="middle" x="810.38" y="-12.5" font-family="Helvetica,sans-Serif" font-size="10.00">vector</text>
</a>
</g>
</g>
<!-- Node7&#45;&gt;Node14 -->
<g id="edge27_Node000007_Node000014" class="edge">
<title>Node7&#45;&gt;Node14</title>
<g id="a_edge27_Node000007_Node000014"><a xlink:title=" ">
<path fill="none" stroke="#63b8ff" d="M621.1,-191.57C640.84,-183.84 667.75,-171.63 688.38,-156 735.53,-120.27 778.01,-63.95 798.12,-35.2"/>
<polygon fill="#63b8ff" stroke="#63b8ff" points="801.48,-37.49 804.26,-27.26 795.71,-33.52 801.48,-37.49"/>
</a>
</g>
</g>
<!-- Node15 -->
<g id="Node000015" class="node">
<title>Node15</title>
<g id="a_Node000015"><a xlink:title=" ">
<polygon fill="#e0e0e0" stroke="#999999" points="903.75,-26 869,-26 869,-6 903.75,-6 903.75,-26"/>
<text text-anchor="middle" x="886.38" y="-12.5" font-family="Helvetica,sans-Serif" font-size="10.00">map</text>
</a>
</g>
</g>
<!-- Node7&#45;&gt;Node15 -->
<g id="edge28_Node000007_Node000015" class="edge">
<title>Node7&#45;&gt;Node15</title>
<g id="a_edge28_Node000007_Node000015"><a xlink:title=" ">
<path fill="none" stroke="#63b8ff" d="M630.85,-191.54C656.59,-183.99 691.35,-172.04 719.38,-156 780.76,-120.87 841.81,-62.64 870.08,-33.99"/>
<polygon fill="#63b8ff" stroke="#63b8ff" points="871.99,-37.02 876.47,-27.42 866.98,-32.13 871.99,-37.02"/>
</a>
</g>
</g>
<!-- Node16 -->
<g id="Node000016" class="node">
<title>Node16</title>
<g id="a_Node000016"><a xlink:title=" ">
<polygon fill="#e0e0e0" stroke="#999999" points="665.38,-26 625.38,-26 625.38,-6 665.38,-6 665.38,-26"/>
<text text-anchor="middle" x="645.38" y="-12.5" font-family="Helvetica,sans-Serif" font-size="10.00">bitset</text>
</a>
</g>
</g>
<!-- Node7&#45;&gt;Node16 -->
<g id="edge29_Node000007_Node000016" class="edge">
<title>Node7&#45;&gt;Node16</title>
<g id="a_edge29_Node000007_Node000016"><a xlink:title=" ">
<path fill="none" stroke="#63b8ff" d="M604.73,-191.71C623.73,-173.87 663.46,-132.62 677.38,-88 683.25,-69.15 672.02,-48.71 661.27,-34.62"/>
<polygon fill="#63b8ff" stroke="#63b8ff" points="663.53,-32.85 654.47,-27.36 658.13,-37.3 663.53,-32.85"/>
</a>
</g>
</g>
<!-- Node9 -->
<g id="Node000009" class="node">
<title>Node9</title>
<g id="a_Node000009"><a xlink:href="../../d9/d3d/ros2_2types_2Time_8h.html" target="_top" xlink:title=" ">
<polygon fill="white" stroke="#666666" points="668,-88 622.75,-88 622.75,-68 668,-68 668,-88"/>
<text text-anchor="middle" x="645.38" y="-74.5" font-family="Helvetica,sans-Serif" font-size="10.00">Time.h</text>
</a>
</g>
</g>
<!-- Node8&#45;&gt;Node9 -->
<g id="edge8_Node000008_Node000009" class="edge">
<title>Node8&#45;&gt;Node9</title>
<g id="a_edge8_Node000008_Node000009"><a xlink:title=" ">
<path fill="none" stroke="#63b8ff" d="M602.34,-129.62C609.87,-120.77 621.35,-107.26 630.56,-96.43"/>
<polygon fill="#63b8ff" stroke="#63b8ff" points="633.82,-99 637.63,-89.11 628.49,-94.47 633.82,-99"/>
</a>
</g>
</g>
<!-- Node8&#45;&gt;Node10 -->
<g id="edge16_Node000008_Node000010" class="edge">
<title>Node8&#45;&gt;Node10</title>
<g id="a_edge16_Node000008_Node000010"><a xlink:title=" ">
<path fill="none" stroke="#63b8ff" d="M582.09,-129.63C556.79,-110.34 498.31,-65.75 462.99,-38.82"/>
<polygon fill="#63b8ff" stroke="#63b8ff" points="465.62,-35.66 455.55,-32.38 461.38,-41.23 465.62,-35.66"/>
</a>
</g>
</g>
<!-- Node8&#45;&gt;Node11 -->
<g id="edge17_Node000008_Node000011" class="edge">
<title>Node8&#45;&gt;Node11</title>
<g id="a_edge17_Node000008_Node000011"><a xlink:title=" ">
<path fill="none" stroke="#63b8ff" d="M613.76,-129.54C631.43,-120.38 657.71,-105.34 677.38,-88 695.27,-72.22 711.88,-50.37 722.5,-35.09"/>
<polygon fill="#63b8ff" stroke="#63b8ff" points="725.86,-37.37 728.56,-27.12 720.06,-33.44 725.86,-37.37"/>
</a>
</g>
</g>
<!-- Node8&#45;&gt;Node12 -->
<g id="edge18_Node000008_Node000012" class="edge">
<title>Node8&#45;&gt;Node12</title>
<g id="a_edge18_Node000008_Node000012"><a xlink:title=" ">
<path fill="none" stroke="#63b8ff" d="M591.23,-129.73C587.94,-119.6 582.91,-102.84 580.38,-88 577.45,-70.87 576.23,-51.14 575.72,-36.83"/>
<polygon fill="#63b8ff" stroke="#63b8ff" points="579.21,-37.16 575.45,-27.26 572.21,-37.35 579.21,-37.16"/>
</a>
</g>
</g>
<!-- Node8&#45;&gt;Node13 -->
<g id="edge19_Node000008_Node000013" class="edge">
<title>Node8&#45;&gt;Node13</title>
<g id="a_edge19_Node000008_Node000013"><a xlink:title=" ">
<path fill="none" stroke="#63b8ff" d="M588.66,-129.83C576.23,-109.87 546.5,-62.15 529.97,-35.61"/>
<polygon fill="#63b8ff" stroke="#63b8ff" points="532.41,-33.91 524.15,-27.28 526.47,-37.61 532.41,-33.91"/>
</a>
</g>
</g>
<!-- Node8&#45;&gt;Node14 -->
<g id="edge20_Node000008_Node000014" class="edge">
<title>Node8&#45;&gt;Node14</title>
<g id="a_edge20_Node000008_Node000014"><a xlink:title=" ">
<path fill="none" stroke="#63b8ff" d="M615.89,-129.6C637.59,-119.9 671.87,-103.97 700.38,-88 731.81,-70.38 766.5,-47.36 788.35,-32.38"/>
<polygon fill="#63b8ff" stroke="#63b8ff" points="789.92,-34.86 796.16,-26.3 785.94,-29.1 789.92,-34.86"/>
</a>
</g>
</g>
<!-- Node8&#45;&gt;Node15 -->
<g id="edge21_Node000008_Node000015" class="edge">
<title>Node8&#45;&gt;Node15</title>
<g id="a_edge21_Node000008_Node000015"><a xlink:title=" ">
<path fill="none" stroke="#63b8ff" d="M620.96,-129.52C648.32,-119.64 692.11,-103.45 729.38,-88 775.31,-68.96 827.78,-44.72 858.93,-30.05"/>
<polygon fill="#63b8ff" stroke="#63b8ff" points="860.09,-32.9 867.64,-25.46 857.1,-26.57 860.09,-32.9"/>
</a>
</g>
</g>
<!-- Node8&#45;&gt;Node16 -->
<g id="edge22_Node000008_Node000016" class="edge">
<title>Node8&#45;&gt;Node16</title>
<g id="a_edge22_Node000008_Node000016"><a xlink:title=" ">
<path fill="none" stroke="#63b8ff" d="M595.98,-129.51C598.53,-115.6 604.2,-89.06 613.38,-68 618.4,-56.48 625.76,-44.53 632.16,-35.1"/>
<polygon fill="#63b8ff" stroke="#63b8ff" points="635.45,-37.49 638.34,-27.3 629.72,-33.47 635.45,-37.49"/>
</a>
</g>
</g>
<!-- Node9&#45;&gt;Node10 -->
<g id="edge9_Node000009_Node000010" class="edge">
<title>Node9&#45;&gt;Node10</title>
<g id="a_edge9_Node000009_Node000010"><a xlink:title=" ">
<path fill="none" stroke="#63b8ff" d="M622.39,-70.46C591.21,-61.6 534.46,-45.46 491.44,-33.23"/>
<polygon fill="#63b8ff" stroke="#63b8ff" points="492.68,-29.66 482.1,-30.29 490.76,-36.39 492.68,-29.66"/>
</a>
</g>
</g>
<!-- Node9&#45;&gt;Node11 -->
<g id="edge10_Node000009_Node000011" class="edge">
<title>Node9&#45;&gt;Node11</title>
<g id="a_edge10_Node000009_Node000011"><a xlink:title=" ">
<path fill="none" stroke="#63b8ff" d="M659.28,-67.62C673.26,-58.2 695.04,-43.52 711.55,-32.39"/>
<polygon fill="#63b8ff" stroke="#63b8ff" points="713.23,-34.8 719.57,-26.31 709.32,-29 713.23,-34.8"/>
</a>
</g>
</g>
<!-- Node9&#45;&gt;Node12 -->
<g id="edge11_Node000009_Node000012" class="edge">
<title>Node9&#45;&gt;Node12</title>
<g id="a_edge11_Node000009_Node000012"><a xlink:title=" ">
<path fill="none" stroke="#63b8ff" d="M634.44,-67.62C623.69,-58.41 607.08,-44.17 594.2,-33.14"/>
<polygon fill="#63b8ff" stroke="#63b8ff" points="596.88,-29.96 587.01,-26.11 592.32,-35.28 596.88,-29.96"/>
</a>
</g>
</g>
<!-- Node9&#45;&gt;Node13 -->
<g id="edge12_Node000009_Node000013" class="edge">
<title>Node9&#45;&gt;Node13</title>
<g id="a_edge12_Node000009_Node000013"><a xlink:title=" ">
<path fill="none" stroke="#63b8ff" d="M624.21,-67.63C604.27,-58.72 573.62,-44.81 547.38,-32 546.93,-31.78 546.48,-31.56 546.03,-31.34"/>
<polygon fill="#63b8ff" stroke="#63b8ff" points="547.91,-27.87 537.41,-26.49 544.76,-34.12 547.91,-27.87"/>
</a>
</g>
</g>
<!-- Node9&#45;&gt;Node14 -->
<g id="edge13_Node000009_Node000014" class="edge">
<title>Node9&#45;&gt;Node14</title>
<g id="a_edge13_Node000009_Node000014"><a xlink:title=" ">
<path fill="none" stroke="#63b8ff" d="M668.32,-68.66C697.12,-58.18 746.65,-40.17 778.95,-28.43"/>
<polygon fill="#63b8ff" stroke="#63b8ff" points="779.99,-31.41 788.19,-24.7 777.6,-24.83 779.99,-31.41"/>
</a>
</g>
</g>
<!-- Node9&#45;&gt;Node15 -->
<g id="edge14_Node000009_Node000015" class="edge">
<title>Node9&#45;&gt;Node15</title>
<g id="a_edge14_Node000009_Node000015"><a xlink:title=" ">
<path fill="none" stroke="#63b8ff" d="M668.36,-72.38C704.99,-64.87 778.78,-49.11 840.38,-32 846.24,-30.37 852.48,-28.46 858.4,-26.56"/>
<polygon fill="#63b8ff" stroke="#63b8ff" points="859.17,-29.66 867.57,-23.21 856.98,-23.01 859.17,-29.66"/>
</a>
</g>
</g>
<!-- Node9&#45;&gt;Node16 -->
<g id="edge15_Node000009_Node000016" class="edge">
<title>Node9&#45;&gt;Node16</title>
<g id="a_edge15_Node000009_Node000016"><a xlink:title=" ">
<path fill="none" stroke="#63b8ff" d="M645.38,-67.62C645.38,-59.48 645.38,-47.39 645.38,-37.07"/>
<polygon fill="#63b8ff" stroke="#63b8ff" points="648.88,-37.11 645.38,-27.11 641.88,-37.11 648.88,-37.11"/>
</a>
</g>
</g>
<!-- Node17&#45;&gt;Node5 -->
<g id="edge31_Node000017_Node000005" class="edge">
<title>Node17&#45;&gt;Node5</title>
<g id="a_edge31_Node000017_Node000005"><a xlink:title=" ">
<path fill="none" stroke="#63b8ff" d="M303.41,-191.62C278.23,-183.19 240.46,-170.53 208.99,-159.98"/>
<polygon fill="#63b8ff" stroke="#63b8ff" points="210.18,-156.35 199.59,-156.49 207.96,-162.99 210.18,-156.35"/>
</a>
</g>
</g>
<!-- Node17&#45;&gt;Node6 -->
<g id="edge32_Node000017_Node000006" class="edge">
<title>Node17&#45;&gt;Node6</title>
<g id="a_edge32_Node000017_Node000006"><a xlink:title=" ">
<path fill="none" stroke="#63b8ff" d="M324.66,-191.62C318.37,-182.86 308.82,-169.53 301.1,-158.75"/>
<polygon fill="#63b8ff" stroke="#63b8ff" points="303.58,-157.2 294.91,-151.11 297.89,-161.28 303.58,-157.2"/>
</a>
</g>
</g>
<!-- Node17&#45;&gt;Node8 -->
<g id="edge33_Node000017_Node000008" class="edge">
<title>Node17&#45;&gt;Node8</title>
<g id="a_edge33_Node000017_Node000008"><a xlink:title=" ">
<path fill="none" stroke="#63b8ff" d="M372.76,-191.56C423.06,-180.08 507.25,-160.88 556.1,-149.73"/>
<polygon fill="#63b8ff" stroke="#63b8ff" points="556.57,-152.99 565.55,-147.35 555.02,-146.16 556.57,-152.99"/>
</a>
</g>
</g>
</g>
</svg>

<g id="navigator" transform="translate(0 0)" fill="#404254">
  <rect fill="#f2f5e9" fill-opacity="0.5" stroke="#606060" stroke-width=".5" x="0" y="0" width="60" height="60"/>
  <use id="zoomplus" xlink:href="#zoomPlus" x="17" y="9" onmousedown="handleZoom(evt,'in')"/>
  <use id="zoomminus" xlink:href="#zoomMin" x="42" y="9" onmousedown="handleZoom(evt,'out')"/>
  <use id="reset" xlink:href="#resetDef" x="30" y="36" onmousedown="handleReset()"/>
   <use id="arrowup" xlink:href="#arrowUp" x="0" y="0" onmousedown="handlePan(0,-1)"/>
  <use id="arrowright" xlink:href="#arrowRight" x="0" y="0" onmousedown="handlePan(1,0)"/>
  <use id="arrowdown" xlink:href="#arrowDown" x="0" y="0" onmousedown="handlePan(0,1)"/>
  <use id="arrowleft" xlink:href="#arrowLeft" x="0" y="0" onmousedown="handlePan(-1,0)"/>
</g>
<svg viewBox="0 0 15 15" width="100%" height="30px" preserveAspectRatio="xMaxYMin meet">
 <g id="arrow_out" transform="scale(0.3 0.3)">
  <a xlink:href="CarlaLineInvasionPubSubTypes_8cpp__incl_org.svg" target="_base">
   <rect id="button" ry="5" rx="5" y="6" x="6" height="38" width="38"
        fill="#f2f5e9" fill-opacity="0.5" stroke="#606060" stroke-width="1.0"/>
   <path id="arrow"
     d="M 11.500037,31.436501 C 11.940474,20.09759 22.043105,11.32322 32.158766,21.979434 L 37.068811,17.246167 C 37.068811,17.246167 37.088388,32 37.088388,32 L 22.160133,31.978069 C 22.160133,31.978069 26.997745,27.140456 26.997745,27.140456 C 18.528582,18.264221 13.291696,25.230495 11.500037,31.436501 z"
     style="fill:#404040;"/>
  </a>
 </g>
</svg>

<style type='text/css'>
<![CDATA[
[data-mouse-over-selected='false'] { opacity: 0.7; }
[data-mouse-over-selected='true']  { opacity: 1.0; }
]]>
</style>
<script type="application/ecmascript"><![CDATA[
document.addEventListener('DOMContentLoaded', (event) => {
  highlightEdges();
  highlightAdjacentNodes();
});
]]></script>
</svg>
