<?xml version="1.0" encoding="UTF-8" standalone="no"?>
<!DOCTYPE svg PUBLIC "-//W3C//DTD SVG 1.1//EN"
 "http://www.w3.org/Graphics/SVG/1.1/DTD/svg11.dtd">
<!-- Generated by graphviz version 8.1.0 (20230707.0739)
 -->
<!-- Title: xpath_parser::parse_node_test_type Pages: 1 -->
<!--zoomable 263 -->

<svg id="main" version="1.1" xmlns="http://www.w3.org/2000/svg" xmlns:xlink="http://www.w3.org/1999/xlink" xml:space="preserve" onload="init(evt)">
<style type="text/css"><![CDATA[
.node, .edge {opacity: 0.7;}
.node.selected, .edge.selected {opacity: 1;}
.edge:hover path { stroke: red; }
.edge:hover polygon { stroke: red; fill: red; }
]]></style>

<defs>
  <circle id="rim" cx="0" cy="0" r="7"/>
  <circle id="rim2" cx="0" cy="0" r="3.5"/>
  <g id="zoomPlus">
    <use xlink:href="#rim" fill="#404040"><set attributeName="fill" to="#808080" begin="zoomplus.mouseover" end="zoomplus.mouseout"/></use>
    <path d="M-4,0h8M0,-4v8" fill="none" stroke="white" stroke-width="1.5" pointer-events="none"/>
  </g>
  <g id="zoomMin">
    <use xlink:href="#rim" fill="#404040"><set attributeName="fill" to="#808080" begin="zoomminus.mouseover" end="zoomminus.mouseout"/></use>
    <path d="M-4,0h8" fill="none" stroke="white" stroke-width="1.5" pointer-events="none"/>
  </g>
  <g id="arrowUp" transform="translate(30 24)">
    <use xlink:href="#rim"/>
    <path pointer-events="none" fill="none" stroke="white" stroke-width="1.5" d="M0,-3.0v7 M-2.5,-0.5L0,-3.0L2.5,-0.5"/>
  </g>
  <g id="arrowRight" transform="rotate(90) translate(36 -43)">
    <use xlink:href="#rim"/>
    <path pointer-events="none" fill="none" stroke="white" stroke-width="1.5" d="M0,-3.0v7 M-2.5,-0.5L0,-3.0L2.5,-0.5"/>
  </g>
  <g id="arrowDown" transform="rotate(180) translate(-30 -48)">
    <use xlink:href="#rim"/>
    <path pointer-events="none" fill="none" stroke="white" stroke-width="1.5" d="M0,-3.0v7 M-2.5,-0.5L0,-3.0L2.5,-0.5"/>
  </g>
  <g id="arrowLeft" transform="rotate(270) translate(-36 17)">
    <use xlink:href="#rim"/>
    <path pointer-events="none" fill="none" stroke="white" stroke-width="1.5" d="M0,-3.0v7 M-2.5,-0.5L0,-3.0L2.5,-0.5"/>
  </g>
  <g id="resetDef">
    <use xlink:href="#rim2" fill="#404040"><set attributeName="fill" to="#808080" begin="reset.mouseover" end="reset.mouseout"/></use>
  </g>
</defs>
<script type="application/ecmascript">
var viewWidth = 1009;
var viewHeight = 263;
var sectionId = 'dynsection-28';
</script>
<script type="application/ecmascript" xlink:href="../../svg.min.js"/>
<svg id="graph" class="graph">
<g id="viewport">
<title>xpath_parser::parse_node_test_type</title>
<!-- Node1 -->
<g id="Node000001" class="node">
<title>Node1</title>
<g id="a_Node000001"><a xlink:title=" ">
<polygon fill="#999999" stroke="#666666" points="1000.75,-86 898.5,-86 898.5,-54 1000.75,-54 1000.75,-86"/>
<text text-anchor="start" x="906.5" y="-72.5" font-family="Helvetica,sans-Serif" font-size="10.00">xpath_parser::parse</text>
<text text-anchor="middle" x="949.62" y="-60.5" font-family="Helvetica,sans-Serif" font-size="10.00">_node_test_type</text>
</a>
</g>
</g>
<!-- Node2 -->
<g id="Node000002" class="node">
<title>Node2</title>
<g id="a_Node000002"><a xlink:href="../../dc/dea/structxpath__parser.html#ab5275305ebaac95fd68a3186b737aaa7" target="_top" xlink:title=" ">
<polygon fill="white" stroke="#666666" points="862.5,-146 727.25,-146 727.25,-114 862.5,-114 862.5,-146"/>
<text text-anchor="start" x="735.25" y="-132.5" font-family="Helvetica,sans-Serif" font-size="10.00">xpath_parser::parse</text>
<text text-anchor="middle" x="794.88" y="-120.5" font-family="Helvetica,sans-Serif" font-size="10.00">_path_or_unary_expression</text>
</a>
</g>
</g>
<!-- Node1&#45;&gt;Node2 -->
<g id="edge1_Node000001_Node000002" class="edge">
<title>Node1&#45;&gt;Node2</title>
<g id="a_edge1_Node000001_Node000002"><a xlink:title=" ">
<path fill="none" stroke="#63b8ff" d="M896.79,-90.36C877.58,-97.91 856.05,-106.36 837.83,-113.52"/>
<polygon fill="#63b8ff" stroke="#63b8ff" points="897.86,-93.31 905.89,-86.4 895.3,-86.79 897.86,-93.31"/>
</a>
</g>
</g>
<!-- Node8 -->
<g id="Node000008" class="node">
<title>Node8</title>
<g id="a_Node000008"><a xlink:href="../../dc/dea/structxpath__parser.html#a0b226e2905970c868ab6a80d76da3a95" target="_top" xlink:title=" ">
<polygon fill="white" stroke="#666666" points="414.75,-20 288.5,-20 288.5,0 414.75,0 414.75,-20"/>
<text text-anchor="middle" x="351.62" y="-6.5" font-family="Helvetica,sans-Serif" font-size="10.00">xpath_parser::parse_step</text>
</a>
</g>
</g>
<!-- Node1&#45;&gt;Node8 -->
<g id="edge18_Node000001_Node000008" class="edge">
<title>Node1&#45;&gt;Node8</title>
<g id="a_edge18_Node000001_Node000008"><a xlink:title=" ">
<path fill="none" stroke="#63b8ff" d="M887.73,-60.29C835.67,-52.27 758.69,-41.1 691.25,-34 595.13,-23.88 483.19,-16.88 415.15,-13.15"/>
<polygon fill="#63b8ff" stroke="#63b8ff" points="887.03,-63.88 897.45,-61.95 888.1,-56.96 887.03,-63.88"/>
</a>
</g>
</g>
<!-- Node3 -->
<g id="Node000003" class="node">
<title>Node3</title>
<g id="a_Node000003"><a xlink:href="../../dc/dea/structxpath__parser.html#a7738e256011ca842dc2a0beba78562ed" target="_top" xlink:title=" ">
<polygon fill="white" stroke="#666666" points="553,-184 450.75,-184 450.75,-152 553,-152 553,-184"/>
<text text-anchor="start" x="458.75" y="-170.5" font-family="Helvetica,sans-Serif" font-size="10.00">xpath_parser::parse</text>
<text text-anchor="middle" x="501.88" y="-158.5" font-family="Helvetica,sans-Serif" font-size="10.00">_expression</text>
</a>
</g>
</g>
<!-- Node2&#45;&gt;Node3 -->
<g id="edge2_Node000002_Node000003" class="edge">
<title>Node2&#45;&gt;Node3</title>
<g id="a_edge2_Node000002_Node000003"><a xlink:title=" ">
<path fill="none" stroke="#63b8ff" d="M735.26,-150.48C721.18,-155.92 705.96,-161.04 691.25,-164 645.22,-173.25 591.61,-170.56 553.37,-167.99"/>
<polygon fill="#63b8ff" stroke="#63b8ff" points="736.29,-153.44 744.29,-146.48 733.7,-146.93 736.29,-153.44"/>
</a>
</g>
</g>
<!-- Node11 -->
<g id="Node000011" class="node">
<title>Node11</title>
<g id="a_Node000011"><a xlink:href="../../dc/dea/structxpath__parser.html#adcd54e9b508acfe1f040ee7a54b88f2a" target="_top" xlink:title=" ">
<polygon fill="white" stroke="#666666" points="691.25,-146 589,-146 589,-114 691.25,-114 691.25,-146"/>
<text text-anchor="start" x="597" y="-132.5" font-family="Helvetica,sans-Serif" font-size="10.00">xpath_parser::parse</text>
<text text-anchor="middle" x="640.12" y="-120.5" font-family="Helvetica,sans-Serif" font-size="10.00">_expression_rec</text>
</a>
</g>
</g>
<!-- Node2&#45;&gt;Node11 -->
<g id="edge15_Node000002_Node000011" class="edge">
<title>Node2&#45;&gt;Node11</title>
<g id="a_edge15_Node000002_Node000011"><a xlink:title=" ">
<path fill="none" stroke="#63b8ff" d="M715.98,-130C707.68,-130 699.4,-130 691.53,-130"/>
<polygon fill="#63b8ff" stroke="#63b8ff" points="715.88,-133.5 725.88,-130 715.88,-126.5 715.88,-133.5"/>
</a>
</g>
</g>
<!-- Node3&#45;&gt;Node2 -->
<g id="edge7_Node000003_Node000002" class="edge">
<title>Node3&#45;&gt;Node2</title>
<g id="a_edge7_Node000003_Node000002"><a xlink:title=" ">
<path fill="none" stroke="#63b8ff" d="M564.03,-184.29C601.18,-188.95 649.36,-190.42 691.25,-182 722.69,-175.68 756.51,-159.48 776.4,-146.41"/>
<polygon fill="#63b8ff" stroke="#63b8ff" points="564.76,-180.72 554.37,-182.82 563.8,-187.65 564.76,-180.72"/>
</a>
</g>
</g>
<!-- Node4 -->
<g id="Node000004" class="node">
<title>Node4</title>
<g id="a_Node000004"><a xlink:href="../../dc/dea/structxpath__parser.html#aa3fe0e7d23131b3943d8248646ecd362" target="_top" xlink:title=" ">
<polygon fill="white" stroke="#666666" points="402.75,-222 300.5,-222 300.5,-202 402.75,-202 402.75,-222"/>
<text text-anchor="middle" x="351.62" y="-208.5" font-family="Helvetica,sans-Serif" font-size="10.00">xpath_parser::parse</text>
</a>
</g>
</g>
<!-- Node3&#45;&gt;Node4 -->
<g id="edge3_Node000003_Node000004" class="edge">
<title>Node3&#45;&gt;Node4</title>
<g id="a_edge3_Node000003_Node000004"><a xlink:title=" ">
<path fill="none" stroke="#63b8ff" d="M439.93,-186.09C422.1,-191.38 403.22,-196.98 387.6,-201.62"/>
<polygon fill="#63b8ff" stroke="#63b8ff" points="440.68,-189.22 449.27,-183.02 438.69,-182.51 440.68,-189.22"/>
</a>
</g>
</g>
<!-- Node6 -->
<g id="Node000006" class="node">
<title>Node6</title>
<g id="a_Node000006"><a xlink:href="../../dc/dea/structxpath__parser.html#a61a425d990a56d5db8cd14405835a5b6" target="_top" xlink:title=" ">
<polygon fill="white" stroke="#666666" points="246.5,-140 144.25,-140 144.25,-108 246.5,-108 246.5,-140"/>
<text text-anchor="start" x="152.25" y="-126.5" font-family="Helvetica,sans-Serif" font-size="10.00">xpath_parser::parse</text>
<text text-anchor="middle" x="195.38" y="-114.5" font-family="Helvetica,sans-Serif" font-size="10.00">_filter_expression</text>
</a>
</g>
</g>
<!-- Node3&#45;&gt;Node6 -->
<g id="edge5_Node000003_Node000006" class="edge">
<title>Node3&#45;&gt;Node6</title>
<g id="a_edge5_Node000003_Node000006"><a xlink:title=" ">
<path fill="none" stroke="#63b8ff" d="M439.8,-148.68C431.45,-146.51 422.93,-144.53 414.75,-143 357.7,-132.34 291.13,-127.64 246.62,-125.58"/>
<polygon fill="#63b8ff" stroke="#63b8ff" points="438.7,-152.28 449.27,-151.52 440.53,-145.53 438.7,-152.28"/>
</a>
</g>
</g>
<!-- Node7 -->
<g id="Node000007" class="node">
<title>Node7</title>
<g id="a_Node000007"><a xlink:href="../../dc/dea/structxpath__parser.html#a49cbc6141508ace22ab4b8bd8ddf965a" target="_top" xlink:title=" ">
<polygon fill="white" stroke="#666666" points="404.62,-184 298.62,-184 298.62,-152 404.62,-152 404.62,-184"/>
<text text-anchor="start" x="306.62" y="-170.5" font-family="Helvetica,sans-Serif" font-size="10.00">xpath_parser::parse</text>
<text text-anchor="middle" x="351.62" y="-158.5" font-family="Helvetica,sans-Serif" font-size="10.00">_primary_expression</text>
</a>
</g>
</g>
<!-- Node3&#45;&gt;Node7 -->
<g id="edge8_Node000003_Node000007" class="edge">
<title>Node3&#45;&gt;Node7</title>
<g id="a_edge8_Node000003_Node000007"><a xlink:title=" ">
<path fill="none" stroke="#63b8ff" d="M439.46,-168C428.02,-168 416.16,-168 405.02,-168"/>
<polygon fill="#63b8ff" stroke="#63b8ff" points="439.27,-171.5 449.27,-168 439.27,-164.5 439.27,-171.5"/>
</a>
</g>
</g>
<!-- Node3&#45;&gt;Node8 -->
<g id="edge10_Node000003_Node000008" class="edge">
<title>Node3&#45;&gt;Node8</title>
<g id="a_edge10_Node000003_Node000008"><a xlink:title=" ">
<path fill="none" stroke="#63b8ff" d="M478.2,-143.84C445.3,-108.77 385.71,-45.26 362.37,-20.39"/>
<polygon fill="#63b8ff" stroke="#63b8ff" points="475.17,-145.79 484.57,-150.69 480.28,-141 475.17,-145.79"/>
</a>
</g>
</g>
<!-- Node5 -->
<g id="Node000005" class="node">
<title>Node5</title>
<g id="a_Node000005"><a xlink:href="../../dc/dea/structxpath__parser.html#aad773be8b591966eb535018fcc2b6a66" target="_top" xlink:title=" ">
<polygon fill="white" stroke="#666666" points="246.5,-222 144.25,-222 144.25,-202 246.5,-202 246.5,-222"/>
<text text-anchor="middle" x="195.38" y="-208.5" font-family="Helvetica,sans-Serif" font-size="10.00">xpath_parser::parse</text>
</a>
</g>
</g>
<!-- Node4&#45;&gt;Node5 -->
<g id="edge4_Node000004_Node000005" class="edge">
<title>Node4&#45;&gt;Node5</title>
<g id="a_edge4_Node000004_Node000005"><a xlink:title=" ">
<path fill="none" stroke="#63b8ff" d="M289.52,-212C275.43,-212 260.59,-212 247,-212"/>
<polygon fill="#63b8ff" stroke="#63b8ff" points="289.12,-215.5 299.12,-212 289.12,-208.5 289.12,-215.5"/>
</a>
</g>
</g>
<!-- Node6&#45;&gt;Node2 -->
<g id="edge6_Node000006_Node000002" class="edge">
<title>Node6&#45;&gt;Node2</title>
<g id="a_edge6_Node000006_Node000002"><a xlink:title=" ">
<path fill="none" stroke="#63b8ff" d="M257.51,-115.49C351.22,-103.83 535.85,-86.34 691.25,-105 706.18,-106.79 722.07,-110 736.78,-113.54"/>
<polygon fill="#63b8ff" stroke="#63b8ff" points="257.29,-112.11 247.81,-116.84 258.17,-119.06 257.29,-112.11"/>
</a>
</g>
</g>
<!-- Node7&#45;&gt;Node6 -->
<g id="edge9_Node000007_Node000006" class="edge">
<title>Node7&#45;&gt;Node6</title>
<g id="a_edge9_Node000007_Node000006"><a xlink:title=" ">
<path fill="none" stroke="#63b8ff" d="M288.1,-150.16C274.43,-146.26 260.12,-142.18 246.98,-138.43"/>
<polygon fill="#63b8ff" stroke="#63b8ff" points="286.83,-153.73 297.4,-153.1 288.75,-146.99 286.83,-153.73"/>
</a>
</g>
</g>
<!-- Node9 -->
<g id="Node000009" class="node">
<title>Node9</title>
<g id="a_Node000009"><a xlink:href="../../dc/dea/structxpath__parser.html#aebea559423376001c89b19216dfc3012" target="_top" xlink:title=" ">
<polygon fill="white" stroke="#666666" points="252.5,-64 138.25,-64 138.25,-32 252.5,-32 252.5,-64"/>
<text text-anchor="start" x="146.25" y="-50.5" font-family="Helvetica,sans-Serif" font-size="10.00">xpath_parser::parse</text>
<text text-anchor="middle" x="195.38" y="-38.5" font-family="Helvetica,sans-Serif" font-size="10.00">_relative_location_path</text>
</a>
</g>
</g>
<!-- Node8&#45;&gt;Node9 -->
<g id="edge11_Node000008_Node000009" class="edge">
<title>Node8&#45;&gt;Node9</title>
<g id="a_edge11_Node000008_Node000009"><a xlink:title=" ">
<path fill="none" stroke="#63b8ff" d="M297.8,-23.01C283.34,-26.58 267.61,-30.45 252.95,-34.06"/>
<polygon fill="#63b8ff" stroke="#63b8ff" points="298.19,-26.27 307.07,-20.48 296.52,-19.48 298.19,-26.27"/>
</a>
</g>
</g>
<!-- Node9&#45;&gt;Node2 -->
<g id="edge14_Node000009_Node000002" class="edge">
<title>Node9&#45;&gt;Node2</title>
<g id="a_edge14_Node000009_Node000002"><a xlink:title=" ">
<path fill="none" stroke="#63b8ff" d="M263.75,-48.71C359.76,-50.93 540.97,-59.65 691.25,-93 713.07,-97.84 736.58,-106.08 755.58,-113.56"/>
<polygon fill="#63b8ff" stroke="#63b8ff" points="263.82,-45.19 253.75,-48.47 263.67,-52.18 263.82,-45.19"/>
</a>
</g>
</g>
<!-- Node10 -->
<g id="Node000010" class="node">
<title>Node10</title>
<g id="a_Node000010"><a xlink:href="../../dc/dea/structxpath__parser.html#af14e396ddb7817998ec221eec6b781ab" target="_top" xlink:title=" ">
<polygon fill="white" stroke="#666666" points="102.25,-165 0,-165 0,-133 102.25,-133 102.25,-165"/>
<text text-anchor="start" x="8" y="-151.5" font-family="Helvetica,sans-Serif" font-size="10.00">xpath_parser::parse</text>
<text text-anchor="middle" x="51.12" y="-139.5" font-family="Helvetica,sans-Serif" font-size="10.00">_location_path</text>
</a>
</g>
</g>
<!-- Node9&#45;&gt;Node10 -->
<g id="edge12_Node000009_Node000010" class="edge">
<title>Node9&#45;&gt;Node10</title>
<g id="a_edge12_Node000009_Node000010"><a xlink:title=" ">
<path fill="none" stroke="#63b8ff" d="M162.32,-70.76C135.86,-89.55 98.95,-115.76 75.29,-132.55"/>
<polygon fill="#63b8ff" stroke="#63b8ff" points="164.08,-73.1 170.2,-64.45 160.02,-67.39 164.08,-73.1"/>
</a>
</g>
</g>
<!-- Node10&#45;&gt;Node2 -->
<g id="edge13_Node000010_Node000002" class="edge">
<title>Node10&#45;&gt;Node2</title>
<g id="a_edge13_Node000010_Node000002"><a xlink:title=" ">
<path fill="none" stroke="#63b8ff" d="M70.43,-173.89C86.1,-193.09 110.48,-218.43 138.25,-231 224.58,-270.08 255.86,-250 350.62,-250 502.88,-250 502.88,-250 502.88,-250 589.61,-250 612.34,-235.01 691.25,-199 722.11,-184.92 753.97,-161.93 773.84,-146.4"/>
<polygon fill="#63b8ff" stroke="#63b8ff" points="72.61,-171.99 63.67,-166.3 67.11,-176.32 72.61,-171.99"/>
</a>
</g>
</g>
<!-- Node11&#45;&gt;Node3 -->
<g id="edge16_Node000011_Node000003" class="edge">
<title>Node11&#45;&gt;Node3</title>
<g id="a_edge16_Node000011_Node000003"><a xlink:title=" ">
<path fill="none" stroke="#63b8ff" d="M578.36,-146.95C570.04,-149.27 561.58,-151.63 553.47,-153.89"/>
<polygon fill="#63b8ff" stroke="#63b8ff" points="579.09,-150.1 587.78,-144.04 577.2,-143.36 579.09,-150.1"/>
</a>
</g>
</g>
<!-- Node11&#45;&gt;Node11 -->
<g id="edge17_Node000011_Node000011" class="edge">
<title>Node11&#45;&gt;Node11</title>
<g id="a_edge17_Node000011_Node000011"><a xlink:title=" ">
<path fill="none" stroke="#63b8ff" d="M663.78,-157.05C660.19,-161.19 652.3,-164 640.12,-164 619.06,-164 610.84,-155.58 615.44,-146.44"/>
<polygon fill="#63b8ff" stroke="#63b8ff" points="667.33,-157.73 664.81,-147.44 660.36,-157.06 667.33,-157.73"/>
</a>
</g>
</g>
</g>
</svg>

<g id="navigator" transform="translate(0 0)" fill="#404254">
  <rect fill="#f2f5e9" fill-opacity="0.5" stroke="#606060" stroke-width=".5" x="0" y="0" width="60" height="60"/>
  <use id="zoomplus" xlink:href="#zoomPlus" x="17" y="9" onmousedown="handleZoom(evt,'in')"/>
  <use id="zoomminus" xlink:href="#zoomMin" x="42" y="9" onmousedown="handleZoom(evt,'out')"/>
  <use id="reset" xlink:href="#resetDef" x="30" y="36" onmousedown="handleReset()"/>
   <use id="arrowup" xlink:href="#arrowUp" x="0" y="0" onmousedown="handlePan(0,-1)"/>
  <use id="arrowright" xlink:href="#arrowRight" x="0" y="0" onmousedown="handlePan(1,0)"/>
  <use id="arrowdown" xlink:href="#arrowDown" x="0" y="0" onmousedown="handlePan(0,1)"/>
  <use id="arrowleft" xlink:href="#arrowLeft" x="0" y="0" onmousedown="handlePan(-1,0)"/>
</g>
<svg viewBox="0 0 15 15" width="100%" height="30px" preserveAspectRatio="xMaxYMin meet">
 <g id="arrow_out" transform="scale(0.3 0.3)">
  <a xlink:href="structxpath__parser_a7b4555d7bfdb90971333c46963d5d791_icgraph_org.svg" target="_base">
   <rect id="button" ry="5" rx="5" y="6" x="6" height="38" width="38"
        fill="#f2f5e9" fill-opacity="0.5" stroke="#606060" stroke-width="1.0"/>
   <path id="arrow"
     d="M 11.500037,31.436501 C 11.940474,20.09759 22.043105,11.32322 32.158766,21.979434 L 37.068811,17.246167 C 37.068811,17.246167 37.088388,32 37.088388,32 L 22.160133,31.978069 C 22.160133,31.978069 26.997745,27.140456 26.997745,27.140456 C 18.528582,18.264221 13.291696,25.230495 11.500037,31.436501 z"
     style="fill:#404040;"/>
  </a>
 </g>
</svg>

<style type='text/css'>
<![CDATA[
[data-mouse-over-selected='false'] { opacity: 0.7; }
[data-mouse-over-selected='true']  { opacity: 1.0; }
]]>
</style>
<script type="application/ecmascript"><![CDATA[
document.addEventListener('DOMContentLoaded', (event) => {
  highlightEdges();
  highlightAdjacentNodes();
});
]]></script>
</svg>
