<?xml version="1.0" encoding="UTF-8" standalone="no"?>
<!DOCTYPE svg PUBLIC "-//W3C//DTD SVG 1.1//EN"
 "http://www.w3.org/Graphics/SVG/1.1/DTD/svg11.dtd">
<!-- Generated by graphviz version 8.1.0 (20230707.0739)
 -->
<!-- Title: xpath_parser::parse_location_path Pages: 1 -->
<!--zoomable 243 -->

<svg id="main" version="1.1" xmlns="http://www.w3.org/2000/svg" xmlns:xlink="http://www.w3.org/1999/xlink" xml:space="preserve" onload="init(evt)">
<style type="text/css"><![CDATA[
.node, .edge {opacity: 0.7;}
.node.selected, .edge.selected {opacity: 1;}
.edge:hover path { stroke: red; }
.edge:hover polygon { stroke: red; fill: red; }
]]></style>

<defs>
  <circle id="rim" cx="0" cy="0" r="7"/>
  <circle id="rim2" cx="0" cy="0" r="3.5"/>
  <g id="zoomPlus">
    <use xlink:href="#rim" fill="#404040"><set attributeName="fill" to="#808080" begin="zoomplus.mouseover" end="zoomplus.mouseout"/></use>
    <path d="M-4,0h8M0,-4v8" fill="none" stroke="white" stroke-width="1.5" pointer-events="none"/>
  </g>
  <g id="zoomMin">
    <use xlink:href="#rim" fill="#404040"><set attributeName="fill" to="#808080" begin="zoomminus.mouseover" end="zoomminus.mouseout"/></use>
    <path d="M-4,0h8" fill="none" stroke="white" stroke-width="1.5" pointer-events="none"/>
  </g>
  <g id="arrowUp" transform="translate(30 24)">
    <use xlink:href="#rim"/>
    <path pointer-events="none" fill="none" stroke="white" stroke-width="1.5" d="M0,-3.0v7 M-2.5,-0.5L0,-3.0L2.5,-0.5"/>
  </g>
  <g id="arrowRight" transform="rotate(90) translate(36 -43)">
    <use xlink:href="#rim"/>
    <path pointer-events="none" fill="none" stroke="white" stroke-width="1.5" d="M0,-3.0v7 M-2.5,-0.5L0,-3.0L2.5,-0.5"/>
  </g>
  <g id="arrowDown" transform="rotate(180) translate(-30 -48)">
    <use xlink:href="#rim"/>
    <path pointer-events="none" fill="none" stroke="white" stroke-width="1.5" d="M0,-3.0v7 M-2.5,-0.5L0,-3.0L2.5,-0.5"/>
  </g>
  <g id="arrowLeft" transform="rotate(270) translate(-36 17)">
    <use xlink:href="#rim"/>
    <path pointer-events="none" fill="none" stroke="white" stroke-width="1.5" d="M0,-3.0v7 M-2.5,-0.5L0,-3.0L2.5,-0.5"/>
  </g>
  <g id="resetDef">
    <use xlink:href="#rim2" fill="#404040"><set attributeName="fill" to="#808080" begin="reset.mouseover" end="reset.mouseout"/></use>
  </g>
</defs>
<script type="application/ecmascript">
var viewWidth = 871;
var viewHeight = 243;
var sectionId = 'dynsection-27';
</script>
<script type="application/ecmascript" xlink:href="../../svg.min.js"/>
<svg id="graph" class="graph">
<g id="viewport">
<title>xpath_parser::parse_location_path</title>
<!-- Node1 -->
<g id="Node000001" class="node">
<title>Node1</title>
<g id="a_Node000001"><a xlink:title=" ">
<polygon fill="#999999" stroke="#666666" points="862.5,-194.34 760.25,-194.34 760.25,-162.34 862.5,-162.34 862.5,-194.34"/>
<text text-anchor="start" x="768.25" y="-180.84" font-family="Helvetica,sans-Serif" font-size="10.00">xpath_parser::parse</text>
<text text-anchor="middle" x="811.38" y="-168.84" font-family="Helvetica,sans-Serif" font-size="10.00">_location_path</text>
</a>
</g>
</g>
<!-- Node2 -->
<g id="Node000002" class="node">
<title>Node2</title>
<g id="a_Node000002"><a xlink:href="../../dc/dea/structxpath__parser.html#ab5275305ebaac95fd68a3186b737aaa7" target="_top" xlink:title=" ">
<polygon fill="white" stroke="#666666" points="724.25,-152.34 589,-152.34 589,-120.34 724.25,-120.34 724.25,-152.34"/>
<text text-anchor="start" x="597" y="-138.84" font-family="Helvetica,sans-Serif" font-size="10.00">xpath_parser::parse</text>
<text text-anchor="middle" x="656.62" y="-126.84" font-family="Helvetica,sans-Serif" font-size="10.00">_path_or_unary_expression</text>
</a>
</g>
</g>
<!-- Node1&#45;&gt;Node2 -->
<g id="edge1_Node000001_Node000002" class="edge">
<title>Node1&#45;&gt;Node2</title>
<g id="a_edge1_Node000001_Node000002"><a xlink:title=" ">
<path fill="none" stroke="#63b8ff" d="M749.57,-161.62C739.03,-158.72 728.08,-155.71 717.57,-152.82"/>
<polygon fill="#63b8ff" stroke="#63b8ff" points="748.37,-165.19 758.94,-164.47 750.22,-158.45 748.37,-165.19"/>
</a>
</g>
</g>
<!-- Node3 -->
<g id="Node000003" class="node">
<title>Node3</title>
<g id="a_Node000003"><a xlink:href="../../dc/dea/structxpath__parser.html#a7738e256011ca842dc2a0beba78562ed" target="_top" xlink:title=" ">
<polygon fill="white" stroke="#666666" points="414.75,-137.34 312.5,-137.34 312.5,-105.34 414.75,-105.34 414.75,-137.34"/>
<text text-anchor="start" x="320.5" y="-123.84" font-family="Helvetica,sans-Serif" font-size="10.00">xpath_parser::parse</text>
<text text-anchor="middle" x="363.62" y="-111.84" font-family="Helvetica,sans-Serif" font-size="10.00">_expression</text>
</a>
</g>
</g>
<!-- Node2&#45;&gt;Node3 -->
<g id="edge2_Node000002_Node000003" class="edge">
<title>Node2&#45;&gt;Node3</title>
<g id="a_edge2_Node000002_Node000003"><a xlink:title=" ">
<path fill="none" stroke="#63b8ff" d="M578.08,-126.3C526.46,-122.48 460.12,-119.33 415.2,-118.68"/>
<polygon fill="#63b8ff" stroke="#63b8ff" points="577.63,-129.85 587.86,-127.12 578.16,-122.87 577.63,-129.85"/>
</a>
</g>
</g>
<!-- Node10 -->
<g id="Node000010" class="node">
<title>Node10</title>
<g id="a_Node000010"><a xlink:href="../../dc/dea/structxpath__parser.html#adcd54e9b508acfe1f040ee7a54b88f2a" target="_top" xlink:title=" ">
<polygon fill="white" stroke="#666666" points="553,-81.34 450.75,-81.34 450.75,-49.34 553,-49.34 553,-81.34"/>
<text text-anchor="start" x="458.75" y="-67.84" font-family="Helvetica,sans-Serif" font-size="10.00">xpath_parser::parse</text>
<text text-anchor="middle" x="501.88" y="-55.84" font-family="Helvetica,sans-Serif" font-size="10.00">_expression_rec</text>
</a>
</g>
</g>
<!-- Node2&#45;&gt;Node10 -->
<g id="edge14_Node000002_Node000010" class="edge">
<title>Node2&#45;&gt;Node10</title>
<g id="a_edge14_Node000002_Node000010"><a xlink:title=" ">
<path fill="none" stroke="#63b8ff" d="M610.29,-115.27C587.21,-104.54 559.57,-91.69 538.11,-81.72"/>
<polygon fill="#63b8ff" stroke="#63b8ff" points="608.65,-118.83 619.2,-119.87 611.6,-112.48 608.65,-118.83"/>
</a>
</g>
</g>
<!-- Node3&#45;&gt;Node2 -->
<g id="edge7_Node000003_Node000002" class="edge">
<title>Node3&#45;&gt;Node2</title>
<g id="a_edge7_Node000003_Node000002"><a xlink:title=" ">
<path fill="none" stroke="#63b8ff" d="M425.99,-130.13C473.71,-134.03 539.83,-137.49 588.86,-138.68"/>
<polygon fill="#63b8ff" stroke="#63b8ff" points="426.46,-126.57 416.2,-129.21 425.86,-133.55 426.46,-126.57"/>
</a>
</g>
</g>
<!-- Node4 -->
<g id="Node000004" class="node">
<title>Node4</title>
<g id="a_Node000004"><a xlink:href="../../dc/dea/structxpath__parser.html#aa3fe0e7d23131b3943d8248646ecd362" target="_top" xlink:title=" ">
<polygon fill="white" stroke="#666666" points="264.5,-131.34 162.25,-131.34 162.25,-111.34 264.5,-111.34 264.5,-131.34"/>
<text text-anchor="middle" x="213.38" y="-117.84" font-family="Helvetica,sans-Serif" font-size="10.00">xpath_parser::parse</text>
</a>
</g>
</g>
<!-- Node3&#45;&gt;Node4 -->
<g id="edge3_Node000003_Node000004" class="edge">
<title>Node3&#45;&gt;Node4</title>
<g id="a_edge3_Node000003_Node000004"><a xlink:title=" ">
<path fill="none" stroke="#63b8ff" d="M301.08,-121.34C288.98,-121.34 276.43,-121.34 264.75,-121.34"/>
<polygon fill="#63b8ff" stroke="#63b8ff" points="301.02,-124.84 311.02,-121.34 301.02,-117.84 301.02,-124.84"/>
</a>
</g>
</g>
<!-- Node6 -->
<g id="Node000006" class="node">
<title>Node6</title>
<g id="a_Node000006"><a xlink:href="../../dc/dea/structxpath__parser.html#a61a425d990a56d5db8cd14405835a5b6" target="_top" xlink:title=" ">
<polygon fill="white" stroke="#666666" points="108.25,-49.34 6,-49.34 6,-17.34 108.25,-17.34 108.25,-49.34"/>
<text text-anchor="start" x="14" y="-35.84" font-family="Helvetica,sans-Serif" font-size="10.00">xpath_parser::parse</text>
<text text-anchor="middle" x="57.13" y="-23.84" font-family="Helvetica,sans-Serif" font-size="10.00">_filter_expression</text>
</a>
</g>
</g>
<!-- Node3&#45;&gt;Node6 -->
<g id="edge5_Node000003_Node000006" class="edge">
<title>Node3&#45;&gt;Node6</title>
<g id="a_edge5_Node000003_Node000006"><a xlink:title=" ">
<path fill="none" stroke="#63b8ff" d="M340.23,-97.13C324.14,-81.44 301.03,-62.17 276.5,-52.34 222.1,-30.54 154.12,-28.09 108.59,-29.6"/>
<polygon fill="#63b8ff" stroke="#63b8ff" points="337.44,-99.3 346.97,-103.93 342.41,-94.37 337.44,-99.3"/>
</a>
</g>
</g>
<!-- Node7 -->
<g id="Node000007" class="node">
<title>Node7</title>
<g id="a_Node000007"><a xlink:href="../../dc/dea/structxpath__parser.html#a49cbc6141508ace22ab4b8bd8ddf965a" target="_top" xlink:title=" ">
<polygon fill="white" stroke="#666666" points="266.38,-93.34 160.38,-93.34 160.38,-61.34 266.38,-61.34 266.38,-93.34"/>
<text text-anchor="start" x="168.38" y="-79.84" font-family="Helvetica,sans-Serif" font-size="10.00">xpath_parser::parse</text>
<text text-anchor="middle" x="213.38" y="-67.84" font-family="Helvetica,sans-Serif" font-size="10.00">_primary_expression</text>
</a>
</g>
</g>
<!-- Node3&#45;&gt;Node7 -->
<g id="edge8_Node000003_Node000007" class="edge">
<title>Node3&#45;&gt;Node7</title>
<g id="a_edge8_Node000003_Node000007"><a xlink:title=" ">
<path fill="none" stroke="#63b8ff" d="M301.57,-103.22C290.02,-99.79 278.03,-96.23 266.77,-92.89"/>
<polygon fill="#63b8ff" stroke="#63b8ff" points="300.44,-106.83 311.02,-106.32 302.43,-100.12 300.44,-106.83"/>
</a>
</g>
</g>
<!-- Node8 -->
<g id="Node000008" class="node">
<title>Node8</title>
<g id="a_Node000008"><a xlink:href="../../dc/dea/structxpath__parser.html#a0b226e2905970c868ab6a80d76da3a95" target="_top" xlink:title=" ">
<polygon fill="white" stroke="#666666" points="276.5,-169.34 150.25,-169.34 150.25,-149.34 276.5,-149.34 276.5,-169.34"/>
<text text-anchor="middle" x="213.38" y="-155.84" font-family="Helvetica,sans-Serif" font-size="10.00">xpath_parser::parse_step</text>
</a>
</g>
</g>
<!-- Node3&#45;&gt;Node8 -->
<g id="edge10_Node000003_Node000008" class="edge">
<title>Node3&#45;&gt;Node8</title>
<g id="a_edge10_Node000003_Node000008"><a xlink:title=" ">
<path fill="none" stroke="#63b8ff" d="M301.8,-136.93C286.02,-140.98 269.4,-145.24 254.94,-148.94"/>
<polygon fill="#63b8ff" stroke="#63b8ff" points="302.2,-140.18 311.02,-134.31 300.46,-133.4 302.2,-140.18"/>
</a>
</g>
</g>
<!-- Node5 -->
<g id="Node000005" class="node">
<title>Node5</title>
<g id="a_Node000005"><a xlink:href="../../dc/dea/structxpath__parser.html#aad773be8b591966eb535018fcc2b6a66" target="_top" xlink:title=" ">
<polygon fill="white" stroke="#666666" points="108.25,-131.34 6,-131.34 6,-111.34 108.25,-111.34 108.25,-131.34"/>
<text text-anchor="middle" x="57.13" y="-117.84" font-family="Helvetica,sans-Serif" font-size="10.00">xpath_parser::parse</text>
</a>
</g>
</g>
<!-- Node4&#45;&gt;Node5 -->
<g id="edge4_Node000004_Node000005" class="edge">
<title>Node4&#45;&gt;Node5</title>
<g id="a_edge4_Node000004_Node000005"><a xlink:title=" ">
<path fill="none" stroke="#63b8ff" d="M151.27,-121.34C137.18,-121.34 122.34,-121.34 108.75,-121.34"/>
<polygon fill="#63b8ff" stroke="#63b8ff" points="150.87,-124.84 160.87,-121.34 150.87,-117.84 150.87,-124.84"/>
</a>
</g>
</g>
<!-- Node6&#45;&gt;Node2 -->
<g id="edge6_Node000006_Node000002" class="edge">
<title>Node6&#45;&gt;Node2</title>
<g id="a_edge6_Node000006_Node000002"><a xlink:title=" ">
<path fill="none" stroke="#63b8ff" d="M119.17,-19.95C215.73,-1.81 407.64,21.65 553,-40.34 593.17,-57.47 627.34,-97.58 644.26,-120.16"/>
<polygon fill="#63b8ff" stroke="#63b8ff" points="118.6,-16.68 109.44,-22.01 119.92,-23.56 118.6,-16.68"/>
</a>
</g>
</g>
<!-- Node7&#45;&gt;Node6 -->
<g id="edge9_Node000007_Node000006" class="edge">
<title>Node7&#45;&gt;Node6</title>
<g id="a_edge9_Node000007_Node000006"><a xlink:title=" ">
<path fill="none" stroke="#63b8ff" d="M149.85,-59.5C136.18,-55.6 121.87,-51.52 108.73,-47.77"/>
<polygon fill="#63b8ff" stroke="#63b8ff" points="148.58,-63.07 159.15,-62.44 150.5,-56.33 148.58,-63.07"/>
</a>
</g>
</g>
<!-- Node9 -->
<g id="Node000009" class="node">
<title>Node9</title>
<g id="a_Node000009"><a xlink:href="../../dc/dea/structxpath__parser.html#aebea559423376001c89b19216dfc3012" target="_top" xlink:title=" ">
<polygon fill="white" stroke="#666666" points="114.25,-213.34 0,-213.34 0,-181.34 114.25,-181.34 114.25,-213.34"/>
<text text-anchor="start" x="8" y="-199.84" font-family="Helvetica,sans-Serif" font-size="10.00">xpath_parser::parse</text>
<text text-anchor="middle" x="57.13" y="-187.84" font-family="Helvetica,sans-Serif" font-size="10.00">_relative_location_path</text>
</a>
</g>
</g>
<!-- Node8&#45;&gt;Node9 -->
<g id="edge11_Node000008_Node000009" class="edge">
<title>Node8&#45;&gt;Node9</title>
<g id="a_edge11_Node000008_Node000009"><a xlink:title=" ">
<path fill="none" stroke="#63b8ff" d="M159.55,-172.35C145.09,-175.92 129.36,-179.79 114.7,-183.4"/>
<polygon fill="#63b8ff" stroke="#63b8ff" points="159.94,-175.61 168.82,-169.82 158.27,-168.82 159.94,-175.61"/>
</a>
</g>
</g>
<!-- Node9&#45;&gt;Node1 -->
<g id="edge12_Node000009_Node000001" class="edge">
<title>Node9&#45;&gt;Node1</title>
<g id="a_edge12_Node000009_Node000001"><a xlink:title=" ">
<path fill="none" stroke="#63b8ff" d="M125.26,-210.58C186.76,-221.55 280.45,-235.34 362.62,-235.34 502.88,-235.34 502.88,-235.34 502.88,-235.34 594.63,-235.34 699.25,-210.5 759.76,-193.61"/>
<polygon fill="#63b8ff" stroke="#63b8ff" points="126.01,-206.98 115.54,-208.64 124.76,-213.86 126.01,-206.98"/>
</a>
</g>
</g>
<!-- Node9&#45;&gt;Node2 -->
<g id="edge13_Node000009_Node000002" class="edge">
<title>Node9&#45;&gt;Node2</title>
<g id="a_edge13_Node000009_Node000002"><a xlink:title=" ">
<path fill="none" stroke="#63b8ff" d="M125.57,-192.3C220.93,-184.89 400.58,-169.91 553,-151.34 564.53,-149.94 576.76,-148.29 588.61,-146.61"/>
<polygon fill="#63b8ff" stroke="#63b8ff" points="125.34,-188.88 115.64,-193.14 125.88,-195.86 125.34,-188.88"/>
</a>
</g>
</g>
<!-- Node10&#45;&gt;Node3 -->
<g id="edge15_Node000010_Node000003" class="edge">
<title>Node10&#45;&gt;Node3</title>
<g id="a_edge15_Node000010_Node000003"><a xlink:title=" ">
<path fill="none" stroke="#63b8ff" d="M450.91,-85.88C435.62,-92.16 419.01,-98.99 404.48,-104.96"/>
<polygon fill="#63b8ff" stroke="#63b8ff" points="451.81,-88.88 459.73,-81.84 449.15,-82.4 451.81,-88.88"/>
</a>
</g>
</g>
<!-- Node10&#45;&gt;Node10 -->
<g id="edge16_Node000010_Node000010" class="edge">
<title>Node10&#45;&gt;Node10</title>
<g id="a_edge16_Node000010_Node000010"><a xlink:title=" ">
<path fill="none" stroke="#63b8ff" d="M525.53,-92.39C521.94,-96.53 514.05,-99.34 501.88,-99.34 480.81,-99.34 472.59,-90.92 477.19,-81.78"/>
<polygon fill="#63b8ff" stroke="#63b8ff" points="529.08,-93.07 526.56,-82.78 522.11,-92.4 529.08,-93.07"/>
</a>
</g>
</g>
</g>
</svg>

<g id="navigator" transform="translate(0 0)" fill="#404254">
  <rect fill="#f2f5e9" fill-opacity="0.5" stroke="#606060" stroke-width=".5" x="0" y="0" width="60" height="60"/>
  <use id="zoomplus" xlink:href="#zoomPlus" x="17" y="9" onmousedown="handleZoom(evt,'in')"/>
  <use id="zoomminus" xlink:href="#zoomMin" x="42" y="9" onmousedown="handleZoom(evt,'out')"/>
  <use id="reset" xlink:href="#resetDef" x="30" y="36" onmousedown="handleReset()"/>
   <use id="arrowup" xlink:href="#arrowUp" x="0" y="0" onmousedown="handlePan(0,-1)"/>
  <use id="arrowright" xlink:href="#arrowRight" x="0" y="0" onmousedown="handlePan(1,0)"/>
  <use id="arrowdown" xlink:href="#arrowDown" x="0" y="0" onmousedown="handlePan(0,1)"/>
  <use id="arrowleft" xlink:href="#arrowLeft" x="0" y="0" onmousedown="handlePan(-1,0)"/>
</g>
<svg viewBox="0 0 15 15" width="100%" height="30px" preserveAspectRatio="xMaxYMin meet">
 <g id="arrow_out" transform="scale(0.3 0.3)">
  <a xlink:href="structxpath__parser_af14e396ddb7817998ec221eec6b781ab_icgraph_org.svg" target="_base">
   <rect id="button" ry="5" rx="5" y="6" x="6" height="38" width="38"
        fill="#f2f5e9" fill-opacity="0.5" stroke="#606060" stroke-width="1.0"/>
   <path id="arrow"
     d="M 11.500037,31.436501 C 11.940474,20.09759 22.043105,11.32322 32.158766,21.979434 L 37.068811,17.246167 C 37.068811,17.246167 37.088388,32 37.088388,32 L 22.160133,31.978069 C 22.160133,31.978069 26.997745,27.140456 26.997745,27.140456 C 18.528582,18.264221 13.291696,25.230495 11.500037,31.436501 z"
     style="fill:#404040;"/>
  </a>
 </g>
</svg>

<style type='text/css'>
<![CDATA[
[data-mouse-over-selected='false'] { opacity: 0.7; }
[data-mouse-over-selected='true']  { opacity: 1.0; }
]]>
</style>
<script type="application/ecmascript"><![CDATA[
document.addEventListener('DOMContentLoaded', (event) => {
  highlightEdges();
  highlightAdjacentNodes();
});
]]></script>
</svg>
