<?xml version="1.0" encoding="UTF-8" standalone="no"?>
<!DOCTYPE svg PUBLIC "-//W3C//DTD SVG 1.1//EN"
 "http://www.w3.org/Graphics/SVG/1.1/DTD/svg11.dtd">
<!-- Generated by graphviz version 8.1.0 (20230707.0739)
 -->
<!-- Title: xpath_parser::parse_expression_rec Pages: 1 -->
<svg width="1057pt" height="1555pt"
 viewBox="0.00 0.00 1056.75 1555.34" xmlns="http://www.w3.org/2000/svg" xmlns:xlink="http://www.w3.org/1999/xlink">
<g id="graph0" class="graph" transform="scale(1 1) rotate(0) translate(4 1551.34)">
<title>xpath_parser::parse_expression_rec</title>
<!-- Node1 -->
<g id="Node000001" class="node">
<title>Node1</title>
<g id="a_Node000001"><a xlink:title=" ">
<polygon fill="#999999" stroke="#666666" points="102.25,-862.31 0,-862.31 0,-830.31 102.25,-830.31 102.25,-862.31"/>
<text text-anchor="start" x="8" y="-848.81" font-family="Helvetica,sans-Serif" font-size="10.00">xpath_parser::parse</text>
<text text-anchor="middle" x="51.12" y="-836.81" font-family="Helvetica,sans-Serif" font-size="10.00">_expression_rec</text>
</a>
</g>
</g>
<!-- Node1&#45;&gt;Node1 -->
<g id="edge10_Node000001_Node000001" class="edge">
<title>Node1&#45;&gt;Node1</title>
<g id="a_edge10_Node000001_Node000001"><a xlink:title=" ">
<path fill="none" stroke="#63b8ff" d="M23.5,-862.76C18.34,-871.9 27.55,-880.31 51.12,-880.31 64.75,-880.31 73.58,-877.5 77.61,-873.36"/>
<polygon fill="#63b8ff" stroke="#63b8ff" points="81.16,-874.07 78.75,-863.76 74.2,-873.32 81.16,-874.07"/>
</a>
</g>
</g>
<!-- Node2 -->
<g id="Node000002" class="node">
<title>Node2</title>
<g id="a_Node000002"><a xlink:href="../../dc/dea/structxpath__parser.html#a8a71f339a0386657a48b59acb3405acc" target="_top" xlink:title=" ">
<polygon fill="white" stroke="#666666" points="887.62,-578.31 762.88,-578.31 762.88,-558.31 887.62,-558.31 887.62,-578.31"/>
<text text-anchor="middle" x="825.25" y="-564.81" font-family="Helvetica,sans-Serif" font-size="10.00">xpath_parser::alloc_node</text>
</a>
</g>
</g>
<!-- Node1&#45;&gt;Node2 -->
<g id="edge1_Node000001_Node000002" class="edge">
<title>Node1&#45;&gt;Node2</title>
<g id="a_edge1_Node000001_Node000002"><a xlink:title=" ">
<path fill="none" stroke="#63b8ff" d="M55.2,-830.13C75.98,-723.01 199.99,-120.31 359.62,-120.31 359.62,-120.31 359.62,-120.31 505.88,-120.31 634.78,-120.31 650.96,-204.8 725,-310.31 739.44,-330.89 796.73,-490.62 817.05,-547.93"/>
<polygon fill="#63b8ff" stroke="#63b8ff" points="813.97,-548.7 820.6,-556.96 820.56,-546.36 813.97,-548.7"/>
</a>
</g>
</g>
<!-- Node4 -->
<g id="Node000004" class="node">
<title>Node4</title>
<g id="a_Node000004"><a xlink:href="../../dc/dea/structxpath__parser.html#a0a96a8f5a16b2171a83b6ae3bb2ccbba" target="_top" xlink:title=" ">
<polygon fill="white" stroke="#666666" points="874.12,-720.31 776.38,-720.31 776.38,-700.31 874.12,-700.31 874.12,-720.31"/>
<text text-anchor="middle" x="825.25" y="-706.81" font-family="Helvetica,sans-Serif" font-size="10.00">xpath_parser::error</text>
</a>
</g>
</g>
<!-- Node1&#45;&gt;Node4 -->
<g id="edge3_Node000001_Node000004" class="edge">
<title>Node1&#45;&gt;Node4</title>
<g id="a_edge3_Node000001_Node000004"><a xlink:title=" ">
<path fill="none" stroke="#63b8ff" d="M99.88,-862.77C112.23,-866.31 125.61,-869.52 138.25,-871.31 197.76,-879.78 213.84,-878.67 273.5,-871.31 478.8,-846.01 530.53,-828.83 725,-758.31 749.82,-749.31 776.71,-736.07 796.24,-725.78"/>
<polygon fill="#63b8ff" stroke="#63b8ff" points="797.56,-728.51 804.72,-720.7 794.25,-722.33 797.56,-728.51"/>
</a>
</g>
</g>
<!-- Node6 -->
<g id="Node000006" class="node">
<title>Node6</title>
<g id="a_Node000006"><a xlink:href="../../d5/d11/classxpath__lexer.html#a32684b3097fccb4d626da620b44b72ad" target="_top" xlink:title=" ">
<polygon fill="white" stroke="#666666" points="870.75,-1312.31 779.75,-1312.31 779.75,-1292.31 870.75,-1292.31 870.75,-1312.31"/>
<text text-anchor="middle" x="825.25" y="-1298.81" font-family="Helvetica,sans-Serif" font-size="10.00">xpath_lexer::next</text>
</a>
</g>
</g>
<!-- Node1&#45;&gt;Node6 -->
<g id="edge5_Node000001_Node000006" class="edge">
<title>Node1&#45;&gt;Node6</title>
<g id="a_edge5_Node000001_Node000006"><a xlink:title=" ">
<path fill="none" stroke="#63b8ff" d="M52.53,-862.58C55.88,-959.27 86.38,-1454.31 359.62,-1454.31 359.62,-1454.31 359.62,-1454.31 505.88,-1454.31 629.59,-1454.31 756.28,-1359.69 804.23,-1319.76"/>
<polygon fill="#63b8ff" stroke="#63b8ff" points="806.13,-1321.89 811.5,-1312.76 801.61,-1316.55 806.13,-1321.89"/>
</a>
</g>
</g>
<!-- Node7 -->
<g id="Node000007" class="node">
<title>Node7</title>
<g id="a_Node000007"><a xlink:href="../../d9/db3/structxpath__parser_1_1binary__op__t.html#a723f5f2b66df47b4ac74455cb39b9544" target="_top" xlink:title=" ">
<polygon fill="white" stroke="#666666" points="713.75,-1514.31 609.25,-1514.31 609.25,-1482.31 713.75,-1482.31 713.75,-1514.31"/>
<text text-anchor="start" x="617.25" y="-1500.81" font-family="Helvetica,sans-Serif" font-size="10.00">xpath_parser::binary</text>
<text text-anchor="middle" x="661.5" y="-1488.81" font-family="Helvetica,sans-Serif" font-size="10.00">_op_t::parse</text>
</a>
</g>
</g>
<!-- Node1&#45;&gt;Node7 -->
<g id="edge6_Node000001_Node000007" class="edge">
<title>Node1&#45;&gt;Node7</title>
<g id="a_edge6_Node000001_Node000007"><a xlink:title=" ">
<path fill="none" stroke="#63b8ff" d="M51.74,-862.79C49.98,-952.74 46.52,-1383.66 138.25,-1468.31 264.69,-1584.99 489.98,-1545.41 598.59,-1516.95"/>
<polygon fill="#63b8ff" stroke="#63b8ff" points="599.29,-1520.11 608.04,-1514.15 597.48,-1513.35 599.29,-1520.11"/>
</a>
</g>
</g>
<!-- Node11 -->
<g id="Node000011" class="node">
<title>Node11</title>
<g id="a_Node000011"><a xlink:href="../../dc/dea/structxpath__parser.html#ab5275305ebaac95fd68a3186b737aaa7" target="_top" xlink:title=" ">
<polygon fill="white" stroke="#666666" points="273.5,-862.31 138.25,-862.31 138.25,-830.31 273.5,-830.31 273.5,-862.31"/>
<text text-anchor="start" x="146.25" y="-848.81" font-family="Helvetica,sans-Serif" font-size="10.00">xpath_parser::parse</text>
<text text-anchor="middle" x="205.88" y="-836.81" font-family="Helvetica,sans-Serif" font-size="10.00">_path_or_unary_expression</text>
</a>
</g>
</g>
<!-- Node1&#45;&gt;Node11 -->
<g id="edge11_Node000001_Node000011" class="edge">
<title>Node1&#45;&gt;Node11</title>
<g id="a_edge11_Node000001_Node000011"><a xlink:title=" ">
<path fill="none" stroke="#63b8ff" d="M102.56,-846.31C110.42,-846.31 118.69,-846.31 126.98,-846.31"/>
<polygon fill="#63b8ff" stroke="#63b8ff" points="126.87,-849.81 136.87,-846.31 126.87,-842.81 126.87,-849.81"/>
</a>
</g>
</g>
<!-- Node24 -->
<g id="Node000024" class="node">
<title>Node24</title>
<g id="a_Node000024"><a xlink:href="../../d3/dc5/classxpath__ast__node.html#a2c12e34a46db2a3d0052f9f38bcf1bb6" target="_top" xlink:title=" ">
<polygon fill="white" stroke="#666666" points="885.75,-130.31 764.75,-130.31 764.75,-110.31 885.75,-110.31 885.75,-130.31"/>
<text text-anchor="middle" x="825.25" y="-116.81" font-family="Helvetica,sans-Serif" font-size="10.00">xpath_ast_node::rettype</text>
</a>
</g>
</g>
<!-- Node1&#45;&gt;Node24 -->
<g id="edge71_Node000001_Node000024" class="edge">
<title>Node1&#45;&gt;Node24</title>
<g id="a_edge71_Node000001_Node000024"><a xlink:title=" ">
<path fill="none" stroke="#63b8ff" d="M52.75,-830.01C57.06,-721.93 83.72,-111.15 138.25,-51.31 205.88,22.89 259.22,-6.31 359.62,-6.31 359.62,-6.31 359.62,-6.31 505.88,-6.31 606.18,-6.31 632.33,-21.93 725,-60.31 752.69,-71.78 781.73,-90.2 801.2,-103.61"/>
<polygon fill="#63b8ff" stroke="#63b8ff" points="798.99,-107.04 809.19,-109.92 803.01,-101.31 798.99,-107.04"/>
</a>
</g>
</g>
<!-- Node3 -->
<g id="Node000003" class="node">
<title>Node3</title>
<g id="a_Node000003"><a xlink:href="../../d3/d89/structxpath__allocator.html#a6c13fefbd7038d78b336987f396c8415" target="_top" xlink:title=" ">
<polygon fill="white" stroke="#666666" points="1048,-638.31 926.25,-638.31 926.25,-618.31 1048,-618.31 1048,-638.31"/>
<text text-anchor="middle" x="987.12" y="-624.81" font-family="Helvetica,sans-Serif" font-size="10.00">xpath_allocator::allocate</text>
</a>
</g>
</g>
<!-- Node2&#45;&gt;Node3 -->
<g id="edge2_Node000002_Node000003" class="edge">
<title>Node2&#45;&gt;Node3</title>
<g id="a_edge2_Node000002_Node000003"><a xlink:title=" ">
<path fill="none" stroke="#63b8ff" d="M854.1,-578.77C880.15,-588.54 919.28,-603.23 948.19,-614.08"/>
<polygon fill="#63b8ff" stroke="#63b8ff" points="946.74,-617.65 957.33,-617.88 949.2,-611.09 946.74,-617.65"/>
</a>
</g>
</g>
<!-- Node5 -->
<g id="Node000005" class="node">
<title>Node5</title>
<g id="a_Node000005"><a xlink:href="../../d5/d11/classxpath__lexer.html#a207d14492de1d19062a81451cdb71ced" target="_top" xlink:title=" ">
<polygon fill="white" stroke="#666666" points="1048.75,-720.31 925.5,-720.31 925.5,-700.31 1048.75,-700.31 1048.75,-720.31"/>
<text text-anchor="middle" x="987.12" y="-706.81" font-family="Helvetica,sans-Serif" font-size="10.00">xpath_lexer::current_pos</text>
</a>
</g>
</g>
<!-- Node4&#45;&gt;Node5 -->
<g id="edge4_Node000004_Node000005" class="edge">
<title>Node4&#45;&gt;Node5</title>
<g id="a_edge4_Node000004_Node000005"><a xlink:title=" ">
<path fill="none" stroke="#63b8ff" d="M874.22,-710.31C886.85,-710.31 900.75,-710.31 914.33,-710.31"/>
<polygon fill="#63b8ff" stroke="#63b8ff" points="914.13,-713.81 924.13,-710.31 914.13,-706.81 914.13,-713.81"/>
</a>
</g>
</g>
<!-- Node8 -->
<g id="Node000008" class="node">
<title>Node8</title>
<g id="a_Node000008"><a xlink:href="../../d9/db3/structxpath__parser_1_1binary__op__t.html#a18cac63911120c27f5ee842b1e6afe35" target="_top" xlink:title=" ">
<polygon fill="white" stroke="#666666" points="877.5,-1514.31 773,-1514.31 773,-1482.31 877.5,-1482.31 877.5,-1514.31"/>
<text text-anchor="start" x="781" y="-1500.81" font-family="Helvetica,sans-Serif" font-size="10.00">xpath_parser::binary</text>
<text text-anchor="middle" x="825.25" y="-1488.81" font-family="Helvetica,sans-Serif" font-size="10.00">_op_t::binary_op_t</text>
</a>
</g>
</g>
<!-- Node7&#45;&gt;Node8 -->
<g id="edge7_Node000007_Node000008" class="edge">
<title>Node7&#45;&gt;Node8</title>
<g id="a_edge7_Node000007_Node000008"><a xlink:title=" ">
<path fill="none" stroke="#63b8ff" d="M714.12,-1498.31C729.3,-1498.31 746.06,-1498.31 761.83,-1498.31"/>
<polygon fill="#63b8ff" stroke="#63b8ff" points="761.56,-1501.81 771.56,-1498.31 761.56,-1494.81 761.56,-1501.81"/>
</a>
</g>
</g>
<!-- Node9 -->
<g id="Node000009" class="node">
<title>Node9</title>
<g id="a_Node000009"><a xlink:href="../../d5/d11/classxpath__lexer.html#a9a398feb578c697be7067f6f8d178fc9" target="_top" xlink:title=" ">
<polygon fill="white" stroke="#666666" points="880.12,-1388.31 770.38,-1388.31 770.38,-1368.31 880.12,-1368.31 880.12,-1388.31"/>
<text text-anchor="middle" x="825.25" y="-1374.81" font-family="Helvetica,sans-Serif" font-size="10.00">xpath_lexer::contents</text>
</a>
</g>
</g>
<!-- Node7&#45;&gt;Node9 -->
<g id="edge8_Node000007_Node000009" class="edge">
<title>Node7&#45;&gt;Node9</title>
<g id="a_edge8_Node000007_Node000009"><a xlink:title=" ">
<path fill="none" stroke="#63b8ff" d="M701.15,-1481.92C709.27,-1477.89 717.61,-1473.28 725,-1468.31 756.78,-1446.94 788.73,-1415.84 807.49,-1396.36"/>
<polygon fill="#63b8ff" stroke="#63b8ff" points="809.56,-1399.2 813.91,-1389.54 804.49,-1394.38 809.56,-1399.2"/>
</a>
</g>
</g>
<!-- Node10 -->
<g id="Node000010" class="node">
<title>Node10</title>
<g id="a_Node000010"><a xlink:href="../../d5/d11/classxpath__lexer.html#a47425d5012741aecfd898306651439d0" target="_top" xlink:title=" ">
<polygon fill="white" stroke="#666666" points="876.38,-1084.31 774.12,-1084.31 774.12,-1064.31 876.38,-1064.31 876.38,-1084.31"/>
<text text-anchor="middle" x="825.25" y="-1070.81" font-family="Helvetica,sans-Serif" font-size="10.00">xpath_lexer::current</text>
</a>
</g>
</g>
<!-- Node7&#45;&gt;Node10 -->
<g id="edge9_Node000007_Node000010" class="edge">
<title>Node7&#45;&gt;Node10</title>
<g id="a_edge9_Node000007_Node000010"><a xlink:title=" ">
<path fill="none" stroke="#63b8ff" d="M668.74,-1481.95C693.98,-1415.79 788.48,-1168.09 816.42,-1094.84"/>
<polygon fill="#63b8ff" stroke="#63b8ff" points="820.02,-1096.23 820.31,-1085.63 813.48,-1093.73 820.02,-1096.23"/>
</a>
</g>
</g>
<!-- Node11&#45;&gt;Node2 -->
<g id="edge12_Node000011_Node000002" class="edge">
<title>Node11&#45;&gt;Node2</title>
<g id="a_edge12_Node000011_Node000002"><a xlink:title=" ">
<path fill="none" stroke="#63b8ff" d="M211.22,-830.18C229.08,-766.96 302.78,-533.52 447.75,-410.31 544.04,-328.48 618.91,-278.66 725,-347.31 761.04,-370.63 802.7,-497.25 818.11,-547.62"/>
<polygon fill="#63b8ff" stroke="#63b8ff" points="814.98,-548.36 821.22,-556.92 821.68,-546.34 814.98,-548.36"/>
</a>
</g>
</g>
<!-- Node11&#45;&gt;Node4 -->
<g id="edge15_Node000011_Node000004" class="edge">
<title>Node11&#45;&gt;Node4</title>
<g id="a_edge15_Node000011_Node000004"><a xlink:title=" ">
<path fill="none" stroke="#63b8ff" d="M273.83,-831.57C395.54,-804.75 651.11,-748.46 766.06,-723.13"/>
<polygon fill="#63b8ff" stroke="#63b8ff" points="766.72,-726.35 775.73,-720.78 765.21,-719.52 766.72,-726.35"/>
</a>
</g>
</g>
<!-- Node11&#45;&gt;Node6 -->
<g id="edge16_Node000011_Node000006" class="edge">
<title>Node11&#45;&gt;Node6</title>
<g id="a_edge16_Node000011_Node000006"><a xlink:title=" ">
<path fill="none" stroke="#63b8ff" d="M209.37,-862.63C217.08,-908.74 244.09,-1042.41 309.5,-1130.31 404.8,-1258.4 446.41,-1294.23 598,-1344.31 651.59,-1362.02 669.68,-1355.54 725,-1344.31 750.18,-1339.21 776.9,-1327.49 796.27,-1317.73"/>
<polygon fill="#63b8ff" stroke="#63b8ff" points="797.69,-1320.42 804.95,-1312.71 794.46,-1314.21 797.69,-1320.42"/>
</a>
</g>
</g>
<!-- Node11&#45;&gt;Node9 -->
<g id="edge13_Node000011_Node000009" class="edge">
<title>Node11&#45;&gt;Node9</title>
<g id="a_edge13_Node000011_Node000009"><a xlink:title=" ">
<path fill="none" stroke="#63b8ff" d="M208.16,-862.66C213.03,-915.93 234.05,-1087.76 309.5,-1203.31 389.66,-1326.08 453.71,-1337.27 598,-1363.31 651.68,-1373.01 713.54,-1376.6 759,-1377.86"/>
<polygon fill="#63b8ff" stroke="#63b8ff" points="758.81,-1381.38 768.89,-1378.12 758.98,-1374.38 758.81,-1381.38"/>
</a>
</g>
</g>
<!-- Node11&#45;&gt;Node10 -->
<g id="edge14_Node000011_Node000010" class="edge">
<title>Node11&#45;&gt;Node10</title>
<g id="a_edge14_Node000011_Node000010"><a xlink:title=" ">
<path fill="none" stroke="#63b8ff" d="M208.2,-862.62C212.82,-907.74 232.41,-1034.75 309.5,-1093.31 456.28,-1204.82 700.4,-1124.45 789.96,-1088.9"/>
<polygon fill="#63b8ff" stroke="#63b8ff" points="791.14,-1091.79 799.1,-1084.8 788.51,-1085.3 791.14,-1091.79"/>
</a>
</g>
</g>
<!-- Node12 -->
<g id="Node000012" class="node">
<title>Node12</title>
<g id="a_Node000012"><a xlink:href="../../dc/dea/structxpath__parser.html#a7738e256011ca842dc2a0beba78562ed" target="_top" xlink:title=" ">
<polygon fill="white" stroke="#666666" points="876.38,-245.31 774.12,-245.31 774.12,-213.31 876.38,-213.31 876.38,-245.31"/>
<text text-anchor="start" x="782.12" y="-231.81" font-family="Helvetica,sans-Serif" font-size="10.00">xpath_parser::parse</text>
<text text-anchor="middle" x="825.25" y="-219.81" font-family="Helvetica,sans-Serif" font-size="10.00">_expression</text>
</a>
</g>
</g>
<!-- Node11&#45;&gt;Node12 -->
<g id="edge17_Node000011_Node000012" class="edge">
<title>Node11&#45;&gt;Node12</title>
<g id="a_edge17_Node000011_Node000012"><a xlink:title=" ">
<path fill="none" stroke="#63b8ff" d="M207.29,-830.06C209.56,-771.17 223.71,-567.73 309.5,-432.31 394.51,-298.12 445.72,-266.56 598,-221.31 652.03,-205.26 716.58,-206.89 762.87,-213.01"/>
<polygon fill="#63b8ff" stroke="#63b8ff" points="762.24,-216.6 772.64,-214.56 763.24,-209.67 762.24,-216.6"/>
</a>
</g>
</g>
<!-- Node13 -->
<g id="Node000013" class="node">
<title>Node13</title>
<g id="a_Node000013"><a xlink:href="../../dc/dea/structxpath__parser.html#a61a425d990a56d5db8cd14405835a5b6" target="_top" xlink:title=" ">
<polygon fill="white" stroke="#666666" points="411.75,-710.31 309.5,-710.31 309.5,-678.31 411.75,-678.31 411.75,-710.31"/>
<text text-anchor="start" x="317.5" y="-696.81" font-family="Helvetica,sans-Serif" font-size="10.00">xpath_parser::parse</text>
<text text-anchor="middle" x="360.62" y="-684.81" font-family="Helvetica,sans-Serif" font-size="10.00">_filter_expression</text>
</a>
</g>
</g>
<!-- Node11&#45;&gt;Node13 -->
<g id="edge20_Node000011_Node000013" class="edge">
<title>Node11&#45;&gt;Node13</title>
<g id="a_edge20_Node000011_Node000013"><a xlink:title=" ">
<path fill="none" stroke="#63b8ff" d="M223.22,-830.05C250.33,-803.08 304.67,-749 335.97,-717.86"/>
<polygon fill="#63b8ff" stroke="#63b8ff" points="337.78,-721 342.4,-711.46 332.84,-716.04 337.78,-721"/>
</a>
</g>
</g>
<!-- Node11&#45;&gt;Node24 -->
<g id="edge69_Node000011_Node000024" class="edge">
<title>Node11&#45;&gt;Node24</title>
<g id="a_edge69_Node000011_Node000024"><a xlink:title=" ">
<path fill="none" stroke="#63b8ff" d="M206.35,-830.23C204.86,-762.45 206.1,-495.18 309.5,-313.31 384.43,-181.52 449.77,-163.12 598,-131.31 649.33,-120.3 708.65,-117.78 753.67,-117.89"/>
<polygon fill="#63b8ff" stroke="#63b8ff" points="753.47,-121.4 763.5,-117.97 753.52,-114.4 753.47,-121.4"/>
</a>
</g>
</g>
<!-- Node25 -->
<g id="Node000025" class="node">
<title>Node25</title>
<g id="a_Node000025"><a xlink:href="../../dc/dea/structxpath__parser.html#af14e396ddb7817998ec221eec6b781ab" target="_top" xlink:title=" ">
<polygon fill="white" stroke="#666666" points="411.75,-1084.31 309.5,-1084.31 309.5,-1052.31 411.75,-1052.31 411.75,-1084.31"/>
<text text-anchor="start" x="317.5" y="-1070.81" font-family="Helvetica,sans-Serif" font-size="10.00">xpath_parser::parse</text>
<text text-anchor="middle" x="360.62" y="-1058.81" font-family="Helvetica,sans-Serif" font-size="10.00">_location_path</text>
</a>
</g>
</g>
<!-- Node11&#45;&gt;Node25 -->
<g id="edge46_Node000011_Node000025" class="edge">
<title>Node11&#45;&gt;Node25</title>
<g id="a_edge46_Node000011_Node000025"><a xlink:title=" ">
<path fill="none" stroke="#63b8ff" d="M216.51,-862.6C234.05,-891.96 272.81,-955.47 309.5,-1006.31 318.58,-1018.89 329.31,-1032.34 338.51,-1043.48"/>
<polygon fill="#63b8ff" stroke="#63b8ff" points="336.41,-1045.42 345.5,-1050.86 341.78,-1040.94 336.41,-1045.42"/>
</a>
</g>
</g>
<!-- Node26 -->
<g id="Node000026" class="node">
<title>Node26</title>
<g id="a_Node000026"><a xlink:href="../../dc/dea/structxpath__parser.html#aebea559423376001c89b19216dfc3012" target="_top" xlink:title=" ">
<polygon fill="white" stroke="#666666" points="562,-1084.31 447.75,-1084.31 447.75,-1052.31 562,-1052.31 562,-1084.31"/>
<text text-anchor="start" x="455.75" y="-1070.81" font-family="Helvetica,sans-Serif" font-size="10.00">xpath_parser::parse</text>
<text text-anchor="middle" x="504.88" y="-1058.81" font-family="Helvetica,sans-Serif" font-size="10.00">_relative_location_path</text>
</a>
</g>
</g>
<!-- Node11&#45;&gt;Node26 -->
<g id="edge68_Node000011_Node000026" class="edge">
<title>Node11&#45;&gt;Node26</title>
<g id="a_edge68_Node000011_Node000026"><a xlink:title=" ">
<path fill="none" stroke="#63b8ff" d="M225.04,-862.72C264.06,-897.51 359.52,-980.26 447.75,-1038.31 452.02,-1041.13 456.59,-1043.9 461.2,-1046.56"/>
<polygon fill="#63b8ff" stroke="#63b8ff" points="459.21,-1050.02 469.65,-1051.84 462.62,-1043.91 459.21,-1050.02"/>
</a>
</g>
</g>
<!-- Node29 -->
<g id="Node000029" class="node">
<title>Node29</title>
<g id="a_Node000029"><a xlink:href="../../dc/dea/structxpath__parser.html#a7b4555d7bfdb90971333c46963d5d791" target="_top" xlink:title=" ">
<polygon fill="white" stroke="#666666" points="876.38,-985.31 774.12,-985.31 774.12,-953.31 876.38,-953.31 876.38,-985.31"/>
<text text-anchor="start" x="782.12" y="-971.81" font-family="Helvetica,sans-Serif" font-size="10.00">xpath_parser::parse</text>
<text text-anchor="middle" x="825.25" y="-959.81" font-family="Helvetica,sans-Serif" font-size="10.00">_node_test_type</text>
</a>
</g>
</g>
<!-- Node11&#45;&gt;Node29 -->
<g id="edge67_Node000011_Node000029" class="edge">
<title>Node11&#45;&gt;Node29</title>
<g id="a_edge67_Node000011_Node000029"><a xlink:title=" ">
<path fill="none" stroke="#63b8ff" d="M265.4,-862.76C341.48,-883.63 478.74,-919.53 598,-941.31 653.39,-951.43 717.09,-958.95 762.76,-963.64"/>
<polygon fill="#63b8ff" stroke="#63b8ff" points="762.37,-967.22 772.67,-964.74 763.08,-960.25 762.37,-967.22"/>
</a>
</g>
</g>
<!-- Node31 -->
<g id="Node000031" class="node">
<title>Node31</title>
<g id="a_Node000031"><a xlink:href="../../d5/d11/classxpath__lexer.html#ac5af1f1a57081aa89bc1a03b45acdf09" target="_top" xlink:title=" ">
<polygon fill="white" stroke="#666666" points="407.62,-660.31 313.62,-660.31 313.62,-640.31 407.62,-640.31 407.62,-660.31"/>
<text text-anchor="middle" x="360.62" y="-646.81" font-family="Helvetica,sans-Serif" font-size="10.00">xpath_lexer::state</text>
</a>
</g>
</g>
<!-- Node11&#45;&gt;Node31 -->
<g id="edge70_Node000011_Node000031" class="edge">
<title>Node11&#45;&gt;Node31</title>
<g id="a_edge70_Node000011_Node000031"><a xlink:title=" ">
<path fill="none" stroke="#63b8ff" d="M212.12,-829.92C223.98,-795.41 256.02,-714.71 309.5,-669.31 310.74,-668.26 312.05,-667.26 313.4,-666.32"/>
<polygon fill="#63b8ff" stroke="#63b8ff" points="315.02,-668.85 321.92,-660.81 311.51,-662.79 315.02,-668.85"/>
</a>
</g>
</g>
<!-- Node12&#45;&gt;Node1 -->
<g id="edge18_Node000012_Node000001" class="edge">
<title>Node12&#45;&gt;Node1</title>
<g id="a_edge18_Node000012_Node000001"><a xlink:title=" ">
<path fill="none" stroke="#63b8ff" d="M809.51,-212.9C767.14,-167.62 639.48,-44.31 505.88,-44.31 359.62,-44.31 359.62,-44.31 359.62,-44.31 244.38,-44.31 201,-82.66 138.25,-179.31 67.86,-287.74 54.8,-707.63 52.56,-819.04"/>
<polygon fill="#63b8ff" stroke="#63b8ff" points="49.05,-818.9 52.36,-828.96 56.04,-819.03 49.05,-818.9"/>
</a>
</g>
</g>
<!-- Node12&#45;&gt;Node11 -->
<g id="edge19_Node000012_Node000011" class="edge">
<title>Node12&#45;&gt;Node11</title>
<g id="a_edge19_Node000012_Node000011"><a xlink:title=" ">
<path fill="none" stroke="#63b8ff" d="M773.64,-228.56C726.99,-225.26 656.36,-221.97 598,-239.31 445.72,-284.56 394.51,-316.12 309.5,-450.31 231.71,-573.11 212.82,-751.85 208.29,-819.37"/>
<polygon fill="#63b8ff" stroke="#63b8ff" points="204.76,-818.74 207.63,-828.94 211.74,-819.17 204.76,-818.74"/>
</a>
</g>
</g>
<!-- Node13&#45;&gt;Node2 -->
<g id="edge21_Node000013_Node000002" class="edge">
<title>Node13&#45;&gt;Node2</title>
<g id="a_edge21_Node000013_Node000002"><a xlink:title=" ">
<path fill="none" stroke="#63b8ff" d="M403.09,-678.02C406.37,-675.5 409.34,-672.61 411.75,-669.31 472.62,-586.19 369.45,-507.27 447.75,-440.31 494.58,-400.27 669.67,-413.2 725,-440.31 771.1,-462.91 801.93,-518.38 815.82,-548.34"/>
<polygon fill="#63b8ff" stroke="#63b8ff" points="812.9,-549.4 820.17,-557.12 819.3,-546.56 812.9,-549.4"/>
</a>
</g>
</g>
<!-- Node13&#45;&gt;Node4 -->
<g id="edge23_Node000013_Node000004" class="edge">
<title>Node13&#45;&gt;Node4</title>
<g id="a_edge23_Node000013_Node000004"><a xlink:title=" ">
<path fill="none" stroke="#63b8ff" d="M412.01,-696.06C498.2,-699.04 673.49,-705.1 765.25,-708.27"/>
<polygon fill="#63b8ff" stroke="#63b8ff" points="764.9,-711.8 775.01,-708.65 765.14,-704.8 764.9,-711.8"/>
</a>
</g>
</g>
<!-- Node13&#45;&gt;Node6 -->
<g id="edge24_Node000013_Node000006" class="edge">
<title>Node13&#45;&gt;Node6</title>
<g id="a_edge24_Node000013_Node000006"><a xlink:title=" ">
<path fill="none" stroke="#63b8ff" d="M362,-710.6C363.94,-767.05 375.76,-958.23 447.75,-1093.31 493.02,-1178.27 514.33,-1201.72 598,-1249.31 651.19,-1279.57 720.78,-1292.58 768.66,-1298.16"/>
<polygon fill="#63b8ff" stroke="#63b8ff" points="768.12,-1301.73 778.44,-1299.33 768.87,-1294.77 768.12,-1301.73"/>
</a>
</g>
</g>
<!-- Node13&#45;&gt;Node10 -->
<g id="edge22_Node000013_Node000010" class="edge">
<title>Node13&#45;&gt;Node10</title>
<g id="a_edge22_Node000013_Node000010"><a xlink:title=" ">
<path fill="none" stroke="#63b8ff" d="M370.05,-710.6C396.61,-760.43 483.73,-912.45 598,-994.31 647.75,-1029.96 714.9,-1051.03 763.1,-1062.53"/>
<polygon fill="#63b8ff" stroke="#63b8ff" points="762.16,-1066.13 772.69,-1064.97 763.74,-1059.31 762.16,-1066.13"/>
</a>
</g>
</g>
<!-- Node13&#45;&gt;Node12 -->
<g id="edge25_Node000013_Node000012" class="edge">
<title>Node13&#45;&gt;Node12</title>
<g id="a_edge25_Node000013_Node000012"><a xlink:title=" ">
<path fill="none" stroke="#63b8ff" d="M403.15,-678.07C406.42,-675.53 409.37,-672.63 411.75,-669.31 479.57,-574.94 394.51,-513.62 447.75,-410.31 489.84,-328.64 515.83,-309.43 598,-268.31 649.92,-242.34 716,-233.29 763.32,-230.33"/>
<polygon fill="#63b8ff" stroke="#63b8ff" points="763.23,-233.78 773.02,-229.74 762.84,-226.79 763.23,-233.78"/>
</a>
</g>
</g>
<!-- Node14 -->
<g id="Node000014" class="node">
<title>Node14</title>
<g id="a_Node000014"><a xlink:href="../../dc/dea/structxpath__parser.html#a49cbc6141508ace22ab4b8bd8ddf965a" target="_top" xlink:title=" ">
<polygon fill="white" stroke="#666666" points="557.88,-666.31 451.88,-666.31 451.88,-634.31 557.88,-634.31 557.88,-666.31"/>
<text text-anchor="start" x="459.88" y="-652.81" font-family="Helvetica,sans-Serif" font-size="10.00">xpath_parser::parse</text>
<text text-anchor="middle" x="504.88" y="-640.81" font-family="Helvetica,sans-Serif" font-size="10.00">_primary_expression</text>
</a>
</g>
</g>
<!-- Node13&#45;&gt;Node14 -->
<g id="edge26_Node000013_Node000014" class="edge">
<title>Node13&#45;&gt;Node14</title>
<g id="a_edge26_Node000013_Node000014"><a xlink:title=" ">
<path fill="none" stroke="#63b8ff" d="M412.18,-678.68C421.56,-675.78 431.47,-672.71 441.16,-669.71"/>
<polygon fill="#63b8ff" stroke="#63b8ff" points="442.04,-672.79 450.56,-666.5 439.98,-666.11 442.04,-672.79"/>
</a>
</g>
</g>
<!-- Node13&#45;&gt;Node24 -->
<g id="edge45_Node000013_Node000024" class="edge">
<title>Node13&#45;&gt;Node24</title>
<g id="a_edge45_Node000013_Node000024"><a xlink:title=" ">
<path fill="none" stroke="#63b8ff" d="M403.31,-678.18C406.54,-675.62 409.44,-672.68 411.75,-669.31 509.12,-527.16 346.57,-422.78 447.75,-283.31 520.02,-183.69 666.26,-144.29 753.69,-129.21"/>
<polygon fill="#63b8ff" stroke="#63b8ff" points="754.02,-132.53 763.31,-127.44 752.87,-125.63 754.02,-132.53"/>
</a>
</g>
</g>
<!-- Node14&#45;&gt;Node2 -->
<g id="edge27_Node000014_Node000002" class="edge">
<title>Node14&#45;&gt;Node2</title>
<g id="a_edge27_Node000014_Node000002"><a xlink:title=" ">
<path fill="none" stroke="#63b8ff" d="M523.69,-633.91C541.18,-618.9 569.34,-597.51 598,-587.31 647.23,-569.8 706.15,-565.33 751.52,-565.09"/>
<polygon fill="#63b8ff" stroke="#63b8ff" points="751.44,-568.59 761.45,-565.11 751.46,-561.59 751.44,-568.59"/>
</a>
</g>
</g>
<!-- Node14&#45;&gt;Node4 -->
<g id="edge36_Node000014_Node000004" class="edge">
<title>Node14&#45;&gt;Node4</title>
<g id="a_edge36_Node000014_Node000004"><a xlink:title=" ">
<path fill="none" stroke="#63b8ff" d="M558.08,-655.12C602.73,-659.79 668.54,-668 725,-680.31 744.61,-684.59 765.96,-690.83 783.82,-696.52"/>
<polygon fill="#63b8ff" stroke="#63b8ff" points="782.58,-700.12 793.17,-699.87 784.73,-693.46 782.58,-700.12"/>
</a>
</g>
</g>
<!-- Node14&#45;&gt;Node6 -->
<g id="edge39_Node000014_Node000006" class="edge">
<title>Node14&#45;&gt;Node6</title>
<g id="a_edge39_Node000014_Node000006"><a xlink:title=" ">
<path fill="none" stroke="#63b8ff" d="M508.03,-666.48C515.2,-717.04 541.14,-875.88 598,-994.31 656.41,-1115.97 764.82,-1238.73 806.91,-1284.05"/>
<polygon fill="#63b8ff" stroke="#63b8ff" points="803.8,-1285.92 813.19,-1290.83 808.91,-1281.14 803.8,-1285.92"/>
</a>
</g>
</g>
<!-- Node14&#45;&gt;Node9 -->
<g id="edge30_Node000014_Node000009" class="edge">
<title>Node14&#45;&gt;Node9</title>
<g id="a_edge30_Node000014_Node000009"><a xlink:title=" ">
<path fill="none" stroke="#63b8ff" d="M506.65,-666.7C510.04,-727.23 526.74,-942.93 598,-1102.31 647.53,-1213.08 679.31,-1231.6 761,-1321.31 774.1,-1335.7 790.45,-1350.36 803.24,-1361.21"/>
<polygon fill="#63b8ff" stroke="#63b8ff" points="800.53,-1364.34 810.45,-1368.06 805.02,-1358.97 800.53,-1364.34"/>
</a>
</g>
</g>
<!-- Node14&#45;&gt;Node10 -->
<g id="edge35_Node000014_Node000010" class="edge">
<title>Node14&#45;&gt;Node10</title>
<g id="a_edge35_Node000014_Node000010"><a xlink:title=" ">
<path fill="none" stroke="#63b8ff" d="M507.01,-666.7C511.08,-714.22 528.63,-854.29 598,-941.31 611.93,-958.79 737.43,-1027.61 795.28,-1058.8"/>
<polygon fill="#63b8ff" stroke="#63b8ff" points="793.46,-1062.34 803.93,-1063.99 796.78,-1056.17 793.46,-1062.34"/>
</a>
</g>
</g>
<!-- Node14&#45;&gt;Node12 -->
<g id="edge40_Node000014_Node000012" class="edge">
<title>Node14&#45;&gt;Node12</title>
<g id="a_edge40_Node000014_Node000012"><a xlink:title=" ">
<path fill="none" stroke="#63b8ff" d="M506.53,-634.14C509.3,-585.24 523.75,-436.81 598,-347.31 622.27,-318.07 715.63,-275.02 774.58,-249.81"/>
<polygon fill="#63b8ff" stroke="#63b8ff" points="775.61,-252.75 783.44,-245.62 772.87,-246.31 775.61,-252.75"/>
</a>
</g>
</g>
<!-- Node15 -->
<g id="Node000015" class="node">
<title>Node15</title>
<g id="a_Node000015"><a xlink:href="../../dc/dea/structxpath__parser.html#a876c0c06a8cdc623926c8788e8d43fc3" target="_top" xlink:title=" ">
<polygon fill="white" stroke="#666666" points="874.5,-786.31 776,-786.31 776,-754.31 874.5,-754.31 874.5,-786.31"/>
<text text-anchor="start" x="784" y="-772.81" font-family="Helvetica,sans-Serif" font-size="10.00">xpath_parser::alloc</text>
<text text-anchor="middle" x="825.25" y="-760.81" font-family="Helvetica,sans-Serif" font-size="10.00">_string</text>
</a>
</g>
</g>
<!-- Node14&#45;&gt;Node15 -->
<g id="edge28_Node000014_Node000015" class="edge">
<title>Node14&#45;&gt;Node15</title>
<g id="a_edge28_Node000014_Node000015"><a xlink:title=" ">
<path fill="none" stroke="#63b8ff" d="M549.48,-666.75C607.07,-688.46 708.45,-726.67 770.66,-750.11"/>
<polygon fill="#63b8ff" stroke="#63b8ff" points="769.07,-753.63 779.67,-753.89 771.54,-747.08 769.07,-753.63"/>
</a>
</g>
</g>
<!-- Node16 -->
<g id="Node000016" class="node">
<title>Node16</title>
<g id="a_Node000016"><a xlink:href="../../db/d20/pugixml_8cpp.html#aa15effa1d77b8990cd881a93f402bceb" target="_top" xlink:title=" ">
<polygon fill="white" stroke="#666666" points="725,-388.31 598,-388.31 598,-356.31 725,-356.31 725,-388.31"/>
<text text-anchor="start" x="606" y="-374.81" font-family="Helvetica,sans-Serif" font-size="10.00">convert_string_to_number</text>
<text text-anchor="middle" x="661.5" y="-362.81" font-family="Helvetica,sans-Serif" font-size="10.00">_scratch</text>
</a>
</g>
</g>
<!-- Node14&#45;&gt;Node16 -->
<g id="edge31_Node000014_Node000016" class="edge">
<title>Node14&#45;&gt;Node16</title>
<g id="a_edge31_Node000014_Node000016"><a xlink:title=" ">
<path fill="none" stroke="#63b8ff" d="M513.86,-633.99C529.37,-602.52 564.95,-531.43 598,-473.31 612.89,-447.13 631.14,-417.94 644.07,-397.7"/>
<polygon fill="#63b8ff" stroke="#63b8ff" points="647.49,-399.84 649.95,-389.53 641.6,-396.06 647.49,-399.84"/>
</a>
</g>
</g>
<!-- Node20 -->
<g id="Node000020" class="node">
<title>Node20</title>
<g id="a_Node000020"><a xlink:href="../../dc/dea/structxpath__parser.html#a253554c10701671465d3eab96e464c93" target="_top" xlink:title=" ">
<polygon fill="white" stroke="#666666" points="722.38,-502.31 600.62,-502.31 600.62,-482.31 722.38,-482.31 722.38,-502.31"/>
<text text-anchor="middle" x="661.5" y="-488.81" font-family="Helvetica,sans-Serif" font-size="10.00">xpath_parser::error_oom</text>
</a>
</g>
</g>
<!-- Node14&#45;&gt;Node20 -->
<g id="edge37_Node000014_Node000020" class="edge">
<title>Node14&#45;&gt;Node20</title>
<g id="a_edge37_Node000014_Node000020"><a xlink:title=" ">
<path fill="none" stroke="#63b8ff" d="M512.29,-633.91C524.51,-604.83 553.89,-544.18 598,-511.31 599.88,-509.91 601.87,-508.61 603.94,-507.4"/>
<polygon fill="#63b8ff" stroke="#63b8ff" points="604.98,-510.29 612.38,-502.7 601.86,-504.03 604.98,-510.29"/>
</a>
</g>
</g>
<!-- Node21 -->
<g id="Node000021" class="node">
<title>Node21</title>
<g id="a_Node000021"><a xlink:href="../../db/d20/pugixml_8cpp.html#a74521e0a713b16f6fc3517d7a0d8448c" target="_top" xlink:title=" ">
<polygon fill="white" stroke="#666666" points="713.75,-540.31 609.25,-540.31 609.25,-520.31 713.75,-520.31 713.75,-540.31"/>
<text text-anchor="middle" x="661.5" y="-526.81" font-family="Helvetica,sans-Serif" font-size="10.00">get_variable_scratch</text>
</a>
</g>
</g>
<!-- Node14&#45;&gt;Node21 -->
<g id="edge38_Node000014_Node000021" class="edge">
<title>Node14&#45;&gt;Node21</title>
<g id="a_edge38_Node000014_Node000021"><a xlink:title=" ">
<path fill="none" stroke="#63b8ff" d="M517.87,-633.92C533.99,-612.91 564.52,-576.55 598,-554.31 603.33,-550.77 609.27,-547.64 615.29,-544.91"/>
<polygon fill="#63b8ff" stroke="#63b8ff" points="616.55,-547.76 624.44,-540.69 613.86,-541.3 616.55,-547.76"/>
</a>
</g>
</g>
<!-- Node22 -->
<g id="Node000022" class="node">
<title>Node22</title>
<g id="a_Node000022"><a xlink:href="../../dc/dea/structxpath__parser.html#a9a68f1cbf9900714aefe00059a66a22d" target="_top" xlink:title=" ">
<polygon fill="white" stroke="#666666" points="712.62,-628.31 610.38,-628.31 610.38,-596.31 712.62,-596.31 712.62,-628.31"/>
<text text-anchor="start" x="618.38" y="-614.81" font-family="Helvetica,sans-Serif" font-size="10.00">xpath_parser::parse</text>
<text text-anchor="middle" x="661.5" y="-602.81" font-family="Helvetica,sans-Serif" font-size="10.00">_function</text>
</a>
</g>
</g>
<!-- Node14&#45;&gt;Node22 -->
<g id="edge41_Node000014_Node000022" class="edge">
<title>Node14&#45;&gt;Node22</title>
<g id="a_edge41_Node000014_Node000022"><a xlink:title=" ">
<path fill="none" stroke="#63b8ff" d="M558.22,-637.45C571.56,-634.17 586,-630.62 599.72,-627.25"/>
<polygon fill="#63b8ff" stroke="#63b8ff" points="600.16,-630.5 609.04,-624.72 598.49,-623.7 600.16,-630.5"/>
</a>
</g>
</g>
<!-- Node23 -->
<g id="Node000023" class="node">
<title>Node23</title>
<g id="a_Node000023"><a xlink:href="../../d3/dc5/classxpath__ast__node.html#a2764184d076834284eb3ff3182b845cc" target="_top" xlink:title=" ">
<polygon fill="white" stroke="#666666" points="889.5,-828.31 761,-828.31 761,-808.31 889.5,-808.31 889.5,-828.31"/>
<text text-anchor="middle" x="825.25" y="-814.81" font-family="Helvetica,sans-Serif" font-size="10.00">xpath_ast_node::set_next</text>
</a>
</g>
</g>
<!-- Node14&#45;&gt;Node23 -->
<g id="edge44_Node000014_Node000023" class="edge">
<title>Node14&#45;&gt;Node23</title>
<g id="a_edge44_Node000014_Node000023"><a xlink:title=" ">
<path fill="none" stroke="#63b8ff" d="M523.96,-666.61C541.87,-682.22 570.53,-705.76 598,-722.31 665.99,-763.28 687.43,-765.51 761,-795.31 768.37,-798.3 776.29,-801.32 783.95,-804.16"/>
<polygon fill="#63b8ff" stroke="#63b8ff" points="782.56,-807.74 793.16,-807.87 784.96,-801.16 782.56,-807.74"/>
</a>
</g>
</g>
<!-- Node15&#45;&gt;Node3 -->
<g id="edge29_Node000015_Node000003" class="edge">
<title>Node15&#45;&gt;Node3</title>
<g id="a_edge29_Node000015_Node000003"><a xlink:title=" ">
<path fill="none" stroke="#63b8ff" d="M854.65,-753.91C865.92,-746.9 878.73,-738.27 889.5,-729.31 907.39,-714.44 909.43,-708.14 925.5,-691.31 939.98,-676.15 956.48,-659.01 968.61,-646.44"/>
<polygon fill="#63b8ff" stroke="#63b8ff" points="970.8,-649.17 975.23,-639.55 965.77,-644.31 970.8,-649.17"/>
</a>
</g>
</g>
<!-- Node17 -->
<g id="Node000017" class="node">
<title>Node17</title>
<g id="a_Node000017"><a xlink:href="../../db/d20/pugixml_8cpp.html#ac5908a6e73e3b0c5b4ab667a42f413f9" target="_top" xlink:title=" ">
<polygon fill="white" stroke="#666666" points="888.75,-382.31 761.75,-382.31 761.75,-362.31 888.75,-362.31 888.75,-382.31"/>
<text text-anchor="middle" x="825.25" y="-368.81" font-family="Helvetica,sans-Serif" font-size="10.00">convert_string_to_number</text>
</a>
</g>
</g>
<!-- Node16&#45;&gt;Node17 -->
<g id="edge32_Node000016_Node000017" class="edge">
<title>Node16&#45;&gt;Node17</title>
<g id="a_edge32_Node000016_Node000017"><a xlink:title=" ">
<path fill="none" stroke="#63b8ff" d="M725.5,-372.31C733.7,-372.31 742.16,-372.31 750.52,-372.31"/>
<polygon fill="#63b8ff" stroke="#63b8ff" points="750.42,-375.81 760.42,-372.31 750.42,-368.81 750.42,-375.81"/>
</a>
</g>
</g>
<!-- Node18 -->
<g id="Node000018" class="node">
<title>Node18</title>
<g id="a_Node000018"><a xlink:href="../../db/d20/pugixml_8cpp.html#a57ad1b0f2d749266d4ef08149b9fb012" target="_top" xlink:title=" ">
<polygon fill="white" stroke="#666666" points="1048.38,-366.31 925.88,-366.31 925.88,-334.31 1048.38,-334.31 1048.38,-366.31"/>
<text text-anchor="start" x="933.88" y="-352.81" font-family="Helvetica,sans-Serif" font-size="10.00">check_string_to_number</text>
<text text-anchor="middle" x="987.12" y="-340.81" font-family="Helvetica,sans-Serif" font-size="10.00">_format</text>
</a>
</g>
</g>
<!-- Node17&#45;&gt;Node18 -->
<g id="edge33_Node000017_Node000018" class="edge">
<title>Node17&#45;&gt;Node18</title>
<g id="a_edge33_Node000017_Node000018"><a xlink:title=" ">
<path fill="none" stroke="#63b8ff" d="M888.98,-363.68C897.4,-362.52 906.1,-361.33 914.66,-360.15"/>
<polygon fill="#63b8ff" stroke="#63b8ff" points="914.98,-363.5 924.41,-358.67 914.03,-356.56 914.98,-363.5"/>
</a>
</g>
</g>
<!-- Node19 -->
<g id="Node000019" class="node">
<title>Node19</title>
<g id="a_Node000019"><a xlink:href="../../db/d20/pugixml_8cpp.html#a2d2fd408a346e00cc39c418d81f4341c" target="_top" xlink:title=" ">
<polygon fill="white" stroke="#666666" points="1013.5,-404.31 960.75,-404.31 960.75,-384.31 1013.5,-384.31 1013.5,-404.31"/>
<text text-anchor="middle" x="987.12" y="-390.81" font-family="Helvetica,sans-Serif" font-size="10.00">gen_nan</text>
</a>
</g>
</g>
<!-- Node17&#45;&gt;Node19 -->
<g id="edge34_Node000017_Node000019" class="edge">
<title>Node17&#45;&gt;Node19</title>
<g id="a_edge34_Node000017_Node000019"><a xlink:title=" ">
<path fill="none" stroke="#63b8ff" d="M888.98,-380.95C909.46,-383.76 931.51,-386.8 949.43,-389.26"/>
<polygon fill="#63b8ff" stroke="#63b8ff" points="948.89,-392.86 959.27,-390.76 949.84,-385.93 948.89,-392.86"/>
</a>
</g>
</g>
<!-- Node22&#45;&gt;Node2 -->
<g id="edge42_Node000022_Node000002" class="edge">
<title>Node22&#45;&gt;Node2</title>
<g id="a_edge42_Node000022_Node000002"><a xlink:title=" ">
<path fill="none" stroke="#63b8ff" d="M712.79,-598.63C732.76,-593.2 755.64,-586.98 775.46,-581.59"/>
<polygon fill="#63b8ff" stroke="#63b8ff" points="776.08,-584.77 784.81,-578.77 774.24,-578.02 776.08,-584.77"/>
</a>
</g>
</g>
<!-- Node22&#45;&gt;Node4 -->
<g id="edge43_Node000022_Node000004" class="edge">
<title>Node22&#45;&gt;Node4</title>
<g id="a_edge43_Node000022_Node000004"><a xlink:title=" ">
<path fill="none" stroke="#63b8ff" d="M699.01,-628.68C707.66,-632.88 716.77,-637.56 725,-642.31 752.35,-658.12 782.03,-678.99 801.74,-693.42"/>
<polygon fill="#63b8ff" stroke="#63b8ff" points="799.43,-696.81 809.55,-699.93 803.59,-691.18 799.43,-696.81"/>
</a>
</g>
</g>
<!-- Node25&#45;&gt;Node2 -->
<g id="edge47_Node000025_Node000002" class="edge">
<title>Node25&#45;&gt;Node2</title>
<g id="a_edge47_Node000025_Node000002"><a xlink:title=" ">
<path fill="none" stroke="#63b8ff" d="M363.52,-1051.98C371.88,-981.38 406.96,-702.57 447.75,-625.31 492.1,-541.32 510.35,-509.92 598,-473.31 650.09,-451.56 672.62,-452.29 725,-473.31 762.96,-488.55 794.6,-526.01 811.36,-549.08"/>
<polygon fill="#63b8ff" stroke="#63b8ff" points="808.99,-550.8 817.6,-556.97 814.72,-546.78 808.99,-550.8"/>
</a>
</g>
</g>
<!-- Node25&#45;&gt;Node6 -->
<g id="edge49_Node000025_Node000006" class="edge">
<title>Node25&#45;&gt;Node6</title>
<g id="a_edge49_Node000025_Node000006"><a xlink:title=" ">
<path fill="none" stroke="#63b8ff" d="M363.36,-1084.56C368.48,-1124.06 387.18,-1225.76 447.75,-1278.31 540.48,-1358.77 699.25,-1334.28 777.65,-1315.39"/>
<polygon fill="#63b8ff" stroke="#63b8ff" points="778.3,-1318.58 787.16,-1312.77 776.61,-1311.79 778.3,-1318.58"/>
</a>
</g>
</g>
<!-- Node25&#45;&gt;Node10 -->
<g id="edge48_Node000025_Node000010" class="edge">
<title>Node25&#45;&gt;Node10</title>
<g id="a_edge48_Node000025_Node000010"><a xlink:title=" ">
<path fill="none" stroke="#63b8ff" d="M409.38,-1084.77C421.73,-1088.31 435.11,-1091.52 447.75,-1093.31 558.14,-1109.01 688.35,-1095.4 763.11,-1084.54"/>
<polygon fill="#63b8ff" stroke="#63b8ff" points="763.35,-1087.89 772.73,-1082.96 762.32,-1080.97 763.35,-1087.89"/>
</a>
</g>
</g>
<!-- Node25&#45;&gt;Node26 -->
<g id="edge50_Node000025_Node000026" class="edge">
<title>Node25&#45;&gt;Node26</title>
<g id="a_edge50_Node000025_Node000026"><a xlink:title=" ">
<path fill="none" stroke="#63b8ff" d="M412.18,-1068.31C420.17,-1068.31 428.55,-1068.31 436.85,-1068.31"/>
<polygon fill="#63b8ff" stroke="#63b8ff" points="436.68,-1071.81 446.68,-1068.31 436.68,-1064.81 436.68,-1071.81"/>
</a>
</g>
</g>
<!-- Node26&#45;&gt;Node2 -->
<g id="edge51_Node000026_Node000002" class="edge">
<title>Node26&#45;&gt;Node2</title>
<g id="a_edge51_Node000026_Node000002"><a xlink:title=" ">
<path fill="none" stroke="#63b8ff" d="M514.33,-1052.13C530.04,-1022.26 565.16,-956.68 598,-903.31 673.69,-780.31 773.88,-638.6 810.28,-587.73"/>
<polygon fill="#63b8ff" stroke="#63b8ff" points="813.7,-589.97 816.69,-579.8 808.02,-585.89 813.7,-589.97"/>
</a>
</g>
</g>
<!-- Node26&#45;&gt;Node6 -->
<g id="edge53_Node000026_Node000006" class="edge">
<title>Node26&#45;&gt;Node6</title>
<g id="a_edge53_Node000026_Node000006"><a xlink:title=" ">
<path fill="none" stroke="#63b8ff" d="M513.27,-1084.48C526.61,-1112.05 557.15,-1168.43 598,-1202.31 650.36,-1245.73 724.53,-1273.7 773.48,-1288.72"/>
<polygon fill="#63b8ff" stroke="#63b8ff" points="772.25,-1292.3 782.83,-1291.82 774.26,-1285.6 772.25,-1292.3"/>
</a>
</g>
</g>
<!-- Node26&#45;&gt;Node10 -->
<g id="edge52_Node000026_Node000010" class="edge">
<title>Node26&#45;&gt;Node10</title>
<g id="a_edge52_Node000026_Node000010"><a xlink:title=" ">
<path fill="none" stroke="#63b8ff" d="M562.43,-1069.38C618.75,-1070.44 704.95,-1072.07 762.9,-1073.16"/>
<polygon fill="#63b8ff" stroke="#63b8ff" points="762.67,-1076.67 772.73,-1073.36 762.8,-1069.67 762.67,-1076.67"/>
</a>
</g>
</g>
<!-- Node27 -->
<g id="Node000027" class="node">
<title>Node27</title>
<g id="a_Node000027"><a xlink:href="../../dc/dea/structxpath__parser.html#a0b226e2905970c868ab6a80d76da3a95" target="_top" xlink:title=" ">
<polygon fill="white" stroke="#666666" points="724.62,-932.31 598.38,-932.31 598.38,-912.31 724.62,-912.31 724.62,-932.31"/>
<text text-anchor="middle" x="661.5" y="-918.81" font-family="Helvetica,sans-Serif" font-size="10.00">xpath_parser::parse_step</text>
</a>
</g>
</g>
<!-- Node26&#45;&gt;Node27 -->
<g id="edge54_Node000026_Node000027" class="edge">
<title>Node26&#45;&gt;Node27</title>
<g id="a_edge54_Node000026_Node000027"><a xlink:title=" ">
<path fill="none" stroke="#63b8ff" d="M523.31,-1051.85C552.62,-1024.17 611.52,-968.56 641.71,-940.06"/>
<polygon fill="#63b8ff" stroke="#63b8ff" points="643.55,-943.19 648.42,-933.78 638.74,-938.1 643.55,-943.19"/>
</a>
</g>
</g>
<!-- Node27&#45;&gt;Node2 -->
<g id="edge55_Node000027_Node000002" class="edge">
<title>Node27&#45;&gt;Node2</title>
<g id="a_edge55_Node000027_Node000002"><a xlink:title=" ">
<path fill="none" stroke="#63b8ff" d="M666.56,-912.07C679.55,-879.47 721.53,-775.37 761,-691.31 778.34,-654.39 800.51,-612.32 813.47,-588.18"/>
<polygon fill="#63b8ff" stroke="#63b8ff" points="816.91,-590.18 818.58,-579.72 810.75,-586.86 816.91,-590.18"/>
</a>
</g>
</g>
<!-- Node27&#45;&gt;Node4 -->
<g id="edge59_Node000027_Node000004" class="edge">
<title>Node27&#45;&gt;Node4</title>
<g id="a_edge59_Node000027_Node000004"><a xlink:title=" ">
<path fill="none" stroke="#63b8ff" d="M706.34,-911.83C713.36,-908.49 719.96,-904.09 725,-898.31 770.94,-845.69 718.82,-801 761,-745.31 767.12,-737.23 775.68,-730.77 784.52,-725.7"/>
<polygon fill="#63b8ff" stroke="#63b8ff" points="785.85,-728.44 793.13,-720.74 782.64,-722.22 785.85,-728.44"/>
</a>
</g>
</g>
<!-- Node27&#45;&gt;Node6 -->
<g id="edge60_Node000027_Node000006" class="edge">
<title>Node27&#45;&gt;Node6</title>
<g id="a_edge60_Node000027_Node000006"><a xlink:title=" ">
<path fill="none" stroke="#63b8ff" d="M666.83,-932.48C688.57,-983.57 786.06,-1212.6 815.68,-1282.19"/>
<polygon fill="#63b8ff" stroke="#63b8ff" points="812.7,-1283.11 819.83,-1290.94 819.14,-1280.37 812.7,-1283.11"/>
</a>
</g>
</g>
<!-- Node27&#45;&gt;Node9 -->
<g id="edge57_Node000027_Node000009" class="edge">
<title>Node27&#45;&gt;Node9</title>
<g id="a_edge57_Node000027_Node000009"><a xlink:title=" ">
<path fill="none" stroke="#63b8ff" d="M664.69,-932.74C677.21,-992.1 739.92,-1286.12 761,-1321.31 770.57,-1337.28 786.03,-1351.34 799.27,-1361.49"/>
<polygon fill="#63b8ff" stroke="#63b8ff" points="796.85,-1364.79 806.98,-1367.88 800.98,-1359.14 796.85,-1364.79"/>
</a>
</g>
</g>
<!-- Node27&#45;&gt;Node10 -->
<g id="edge58_Node000027_Node000010" class="edge">
<title>Node27&#45;&gt;Node10</title>
<g id="a_edge58_Node000027_Node000010"><a xlink:title=" ">
<path fill="none" stroke="#63b8ff" d="M673.62,-932.76C700.99,-958.48 771.87,-1025.09 805.72,-1056.9"/>
<polygon fill="#63b8ff" stroke="#63b8ff" points="802.8,-1058.9 812.48,-1063.19 807.59,-1053.8 802.8,-1058.9"/>
</a>
</g>
</g>
<!-- Node27&#45;&gt;Node12 -->
<g id="edge62_Node000027_Node000012" class="edge">
<title>Node27&#45;&gt;Node12</title>
<g id="a_edge62_Node000027_Node000012"><a xlink:title=" ">
<path fill="none" stroke="#63b8ff" d="M665.11,-912.03C674.39,-875.1 706.3,-745.63 725,-637.31 746.65,-511.94 723.54,-474.91 761,-353.31 772.07,-317.39 793.04,-279.33 807.79,-255.01"/>
<polygon fill="#63b8ff" stroke="#63b8ff" points="811.22,-257.12 813.5,-246.77 805.26,-253.44 811.22,-257.12"/>
</a>
</g>
</g>
<!-- Node27&#45;&gt;Node15 -->
<g id="edge56_Node000027_Node000015" class="edge">
<title>Node27&#45;&gt;Node15</title>
<g id="a_edge56_Node000027_Node000015"><a xlink:title=" ">
<path fill="none" stroke="#63b8ff" d="M704.51,-911.91C712.04,-908.54 719.3,-904.12 725,-898.31 757.81,-864.91 729.26,-833.74 761,-799.31 763.15,-796.98 765.52,-794.82 768.05,-792.83"/>
<polygon fill="#63b8ff" stroke="#63b8ff" points="769.84,-795.16 776.15,-786.65 765.91,-789.37 769.84,-795.16"/>
</a>
</g>
</g>
<!-- Node27&#45;&gt;Node23 -->
<g id="edge65_Node000027_Node000023" class="edge">
<title>Node27&#45;&gt;Node23</title>
<g id="a_edge65_Node000027_Node000023"><a xlink:title=" ">
<path fill="none" stroke="#63b8ff" d="M700.86,-911.85C709.35,-908.42 717.92,-903.98 725,-898.31 747.52,-880.3 738.69,-862.59 761,-844.31 766.24,-840.02 772.29,-836.35 778.53,-833.23"/>
<polygon fill="#63b8ff" stroke="#63b8ff" points="779.72,-836.09 787.4,-828.79 776.84,-829.7 779.72,-836.09"/>
</a>
</g>
</g>
<!-- Node27&#45;&gt;Node24 -->
<g id="edge64_Node000027_Node000024" class="edge">
<title>Node27&#45;&gt;Node24</title>
<g id="a_edge64_Node000027_Node000024"><a xlink:title=" ">
<path fill="none" stroke="#63b8ff" d="M665.27,-912.05C675.11,-875.21 708.64,-746.01 725,-637.31 753.75,-446.36 692.22,-384.76 761,-204.31 770.77,-178.7 790.84,-154.22 805.77,-138.37"/>
<polygon fill="#63b8ff" stroke="#63b8ff" points="807.97,-141.11 812.44,-131.5 802.95,-136.22 807.97,-141.11"/>
</a>
</g>
</g>
<!-- Node28 -->
<g id="Node000028" class="node">
<title>Node28</title>
<g id="a_Node000028"><a xlink:href="../../dc/dea/structxpath__parser.html#ad67ec26e0e286ca1bb5144a79e3a3583" target="_top" xlink:title=" ">
<polygon fill="white" stroke="#666666" points="876.38,-885.31 774.12,-885.31 774.12,-853.31 876.38,-853.31 876.38,-885.31"/>
<text text-anchor="start" x="782.12" y="-871.81" font-family="Helvetica,sans-Serif" font-size="10.00">xpath_parser::parse</text>
<text text-anchor="middle" x="825.25" y="-859.81" font-family="Helvetica,sans-Serif" font-size="10.00">_axis_name</text>
</a>
</g>
</g>
<!-- Node27&#45;&gt;Node28 -->
<g id="edge61_Node000027_Node000028" class="edge">
<title>Node27&#45;&gt;Node28</title>
<g id="a_edge61_Node000027_Node000028"><a xlink:title=" ">
<path fill="none" stroke="#63b8ff" d="M694.46,-911.84C714.27,-905.35 740.35,-896.81 763.93,-889.08"/>
<polygon fill="#63b8ff" stroke="#63b8ff" points="764.8,-892.15 773.21,-885.71 762.62,-885.5 764.8,-892.15"/>
</a>
</g>
</g>
<!-- Node27&#45;&gt;Node29 -->
<g id="edge63_Node000027_Node000029" class="edge">
<title>Node27&#45;&gt;Node29</title>
<g id="a_edge63_Node000027_Node000029"><a xlink:title=" ">
<path fill="none" stroke="#63b8ff" d="M698.4,-932.74C717.43,-938.28 741.34,-945.22 763.2,-951.57"/>
<polygon fill="#63b8ff" stroke="#63b8ff" points="762.15,-955.2 772.73,-954.63 764.1,-948.48 762.15,-955.2"/>
</a>
</g>
</g>
<!-- Node30 -->
<g id="Node000030" class="node">
<title>Node30</title>
<g id="a_Node000030"><a xlink:href="../../d3/dc5/classxpath__ast__node.html#afe044146db852b7d4dbf188fd2ff6c75" target="_top" xlink:title=" ">
<polygon fill="white" stroke="#666666" points="877.5,-935.31 773,-935.31 773,-903.31 877.5,-903.31 877.5,-935.31"/>
<text text-anchor="start" x="781" y="-921.81" font-family="Helvetica,sans-Serif" font-size="10.00">xpath_ast_node::set</text>
<text text-anchor="middle" x="825.25" y="-909.81" font-family="Helvetica,sans-Serif" font-size="10.00">_right</text>
</a>
</g>
</g>
<!-- Node27&#45;&gt;Node30 -->
<g id="edge66_Node000027_Node000030" class="edge">
<title>Node27&#45;&gt;Node30</title>
<g id="a_edge66_Node000027_Node000030"><a xlink:title=" ">
<path fill="none" stroke="#63b8ff" d="M725.04,-921.15C737.08,-920.93 749.7,-920.7 761.75,-920.47"/>
<polygon fill="#63b8ff" stroke="#63b8ff" points="761.69,-923.96 771.62,-920.27 761.56,-916.96 761.69,-923.96"/>
</a>
</g>
</g>
</g>
</svg>
