<?xml version="1.0" encoding="UTF-8" standalone="no"?>
<!DOCTYPE svg PUBLIC "-//W3C//DTD SVG 1.1//EN"
 "http://www.w3.org/Graphics/SVG/1.1/DTD/svg11.dtd">
<!-- Generated by graphviz version 8.1.0 (20230707.0739)
 -->
<!-- Title: carla::streaming::detail::token_type::protocol_is_tcp Pages: 1 -->
<svg width="456pt" height="133pt"
 viewBox="0.00 0.00 455.75 133.00" xmlns="http://www.w3.org/2000/svg" xmlns:xlink="http://www.w3.org/1999/xlink">

<svg id="main" version="1.1" xmlns="http://www.w3.org/2000/svg" xmlns:xlink="http://www.w3.org/1999/xlink" xml:space="preserve" onload="init(evt)">
<style type="text/css"><![CDATA[
.node, .edge {opacity: 0.7;}
.node.selected, .edge.selected {opacity: 1;}
.edge:hover path { stroke: red; }
.edge:hover polygon { stroke: red; fill: red; }
]]></style>
<script type="application/ecmascript" xlink:href="../../svg.min.js"/>
<svg id="graph" class="graph">
<g id="graph0" class="graph" transform="scale(1 1) rotate(0) translate(4 129)">
<title>carla::streaming::detail::token_type::protocol_is_tcp</title>
<!-- Node1 -->
<g id="Node000001" class="node">
<title>Node1</title>
<g id="a_Node000001"><a xlink:title=" ">
<polygon fill="#999999" stroke="#666666" points="447.75,-91 305.75,-91 305.75,-59 447.75,-59 447.75,-91"/>
<text text-anchor="start" x="313.75" y="-77.5" font-family="Helvetica,sans-Serif" font-size="10.00">carla::streaming::detail</text>
<text text-anchor="middle" x="376.75" y="-65.5" font-family="Helvetica,sans-Serif" font-size="10.00">::token_type::protocol_is_tcp</text>
</a>
</g>
</g>
<!-- Node2 -->
<g id="Node000002" class="node">
<title>Node2</title>
<g id="a_Node000002"><a xlink:href="../../dc/d96/classcarla_1_1streaming_1_1detail_1_1tcp_1_1Client.html#a940286588c681f9c696c2e4a6aef1b5b" target="_top" xlink:title=" ">
<polygon fill="white" stroke="#666666" points="269.75,-125 154.75,-125 154.75,-93 269.75,-93 269.75,-125"/>
<text text-anchor="start" x="162.75" y="-111.5" font-family="Helvetica,sans-Serif" font-size="10.00">carla::streaming::detail</text>
<text text-anchor="middle" x="212.25" y="-99.5" font-family="Helvetica,sans-Serif" font-size="10.00">::tcp::Client::Client</text>
</a>
</g>
</g>
<!-- Node1&#45;&gt;Node2 -->
<g id="edge1_Node000001_Node000002" class="edge">
<title>Node1&#45;&gt;Node2</title>
<g id="a_edge1_Node000001_Node000002"><a xlink:title=" ">
<path fill="none" stroke="#63b8ff" d="M294.82,-91.93C286.43,-93.69 278.04,-95.44 269.99,-97.13"/>
<polygon fill="#63b8ff" stroke="#63b8ff" points="295.35,-95.19 304.42,-89.72 293.92,-88.34 295.35,-95.19"/>
</a>
</g>
</g>
<!-- Node3 -->
<g id="Node000003" class="node">
<title>Node3</title>
<g id="a_Node000003"><a xlink:href="../../dc/d96/classcarla_1_1streaming_1_1detail_1_1tcp_1_1Client.html#aff760041c9642a988880c1ff39739fe2" target="_top" xlink:title=" ">
<polygon fill="white" stroke="#666666" points="269.75,-57 154.75,-57 154.75,-25 269.75,-25 269.75,-57"/>
<text text-anchor="start" x="162.75" y="-43.5" font-family="Helvetica,sans-Serif" font-size="10.00">carla::streaming::detail</text>
<text text-anchor="middle" x="212.25" y="-31.5" font-family="Helvetica,sans-Serif" font-size="10.00">::tcp::Client::Connect</text>
</a>
</g>
</g>
<!-- Node1&#45;&gt;Node3 -->
<g id="edge2_Node000001_Node000003" class="edge">
<title>Node1&#45;&gt;Node3</title>
<g id="a_edge2_Node000001_Node000003"><a xlink:title=" ">
<path fill="none" stroke="#63b8ff" d="M294.82,-58.07C286.43,-56.31 278.04,-54.56 269.99,-52.87"/>
<polygon fill="#63b8ff" stroke="#63b8ff" points="293.92,-61.66 304.42,-60.28 295.35,-54.81 293.92,-61.66"/>
</a>
</g>
</g>
<!-- Node3&#45;&gt;Node3 -->
<g id="edge3_Node000003_Node000003" class="edge">
<title>Node3&#45;&gt;Node3</title>
<g id="a_edge3_Node000003_Node000003"><a xlink:title=" ">
<path fill="none" stroke="#63b8ff" d="M238.41,-68.05C234.44,-72.19 225.71,-75 212.25,-75 188.96,-75 179.86,-66.58 184.96,-57.44"/>
<polygon fill="#63b8ff" stroke="#63b8ff" points="241.96,-68.76 239.54,-58.44 235,-68.02 241.96,-68.76"/>
</a>
</g>
</g>
<!-- Node4 -->
<g id="Node000004" class="node">
<title>Node4</title>
<g id="a_Node000004"><a xlink:href="../../dc/d96/classcarla_1_1streaming_1_1detail_1_1tcp_1_1Client.html#aaa78ca2b7195a84a9b0db792fa88ab79" target="_top" xlink:title=" ">
<polygon fill="white" stroke="#666666" points="116.88,-82 1.88,-82 1.88,-50 116.88,-50 116.88,-82"/>
<text text-anchor="start" x="9.88" y="-68.5" font-family="Helvetica,sans-Serif" font-size="10.00">carla::streaming::detail</text>
<text text-anchor="middle" x="59.38" y="-56.5" font-family="Helvetica,sans-Serif" font-size="10.00">::tcp::Client::ReadData</text>
</a>
</g>
</g>
<!-- Node3&#45;&gt;Node4 -->
<g id="edge4_Node000003_Node000004" class="edge">
<title>Node3&#45;&gt;Node4</title>
<g id="a_edge4_Node000003_Node000004"><a xlink:title=" ">
<path fill="none" stroke="#63b8ff" d="M143.91,-45.44C135.03,-46.84 125.99,-48.39 117.3,-50"/>
<polygon fill="#63b8ff" stroke="#63b8ff" points="144.28,-48.78 153.64,-43.82 143.23,-41.85 144.28,-48.78"/>
</a>
</g>
</g>
<!-- Node5 -->
<g id="Node000005" class="node">
<title>Node5</title>
<g id="a_Node000005"><a xlink:href="../../dc/d96/classcarla_1_1streaming_1_1detail_1_1tcp_1_1Client.html#a2d95ef9bb8a629f93278bbd3f9deb7a6" target="_top" xlink:title=" ">
<polygon fill="white" stroke="#666666" points="118.75,-32 0,-32 0,0 118.75,0 118.75,-32"/>
<text text-anchor="start" x="8" y="-18.5" font-family="Helvetica,sans-Serif" font-size="10.00">carla::streaming::detail</text>
<text text-anchor="middle" x="59.38" y="-6.5" font-family="Helvetica,sans-Serif" font-size="10.00">::tcp::Client::Reconnect</text>
</a>
</g>
</g>
<!-- Node3&#45;&gt;Node5 -->
<g id="edge7_Node000003_Node000005" class="edge">
<title>Node3&#45;&gt;Node5</title>
<g id="a_edge7_Node000003_Node000005"><a xlink:title=" ">
<path fill="none" stroke="#63b8ff" d="M143.87,-23.12C135.6,-21.68 127.2,-20.32 119.06,-19.12"/>
<polygon fill="#63b8ff" stroke="#63b8ff" points="143.18,-26.73 153.64,-25.06 144.42,-19.84 143.18,-26.73"/>
</a>
</g>
</g>
<!-- Node4&#45;&gt;Node3 -->
<g id="edge5_Node000004_Node000003" class="edge">
<title>Node4&#45;&gt;Node3</title>
<g id="a_edge5_Node000004_Node000003"><a xlink:title=" ">
<path fill="none" stroke="#63b8ff" d="M128.04,-61.51C136.93,-60.11 145.96,-58.56 154.64,-56.94"/>
<polygon fill="#63b8ff" stroke="#63b8ff" points="127.66,-58.17 118.3,-63.13 128.71,-65.1 127.66,-58.17"/>
</a>
</g>
</g>
<!-- Node4&#45;&gt;Node4 -->
<g id="edge6_Node000004_Node000004" class="edge">
<title>Node4&#45;&gt;Node4</title>
<g id="a_edge6_Node000004_Node000004"><a xlink:title=" ">
<path fill="none" stroke="#63b8ff" d="M85.54,-93.05C81.56,-97.19 72.84,-100 59.38,-100 36.09,-100 26.99,-91.58 32.08,-82.44"/>
<polygon fill="#63b8ff" stroke="#63b8ff" points="89.09,-93.76 86.67,-83.44 82.13,-93.02 89.09,-93.76"/>
</a>
</g>
</g>
<!-- Node5&#45;&gt;Node3 -->
<g id="edge8_Node000005_Node000003" class="edge">
<title>Node5&#45;&gt;Node3</title>
<g id="a_edge8_Node000005_Node000003"><a xlink:title=" ">
<path fill="none" stroke="#63b8ff" d="M129.88,-34.25C138.17,-35.67 146.56,-37.01 154.64,-38.18"/>
<polygon fill="#63b8ff" stroke="#63b8ff" points="130.52,-30.63 120.06,-32.32 129.3,-37.52 130.52,-30.63"/>
</a>
</g>
</g>
</g>
</svg>
</svg>

<style type='text/css'>
<![CDATA[
[data-mouse-over-selected='false'] { opacity: 0.7; }
[data-mouse-over-selected='true']  { opacity: 1.0; }
]]>
</style>
<script type="application/ecmascript"><![CDATA[
document.addEventListener('DOMContentLoaded', (event) => {
  highlightEdges();
  highlightAdjacentNodes();
});
]]></script>
</svg>
