<?xml version="1.0" encoding="UTF-8" standalone="no"?>
<!DOCTYPE svg PUBLIC "-//W3C//DTD SVG 1.1//EN"
 "http://www.w3.org/Graphics/SVG/1.1/DTD/svg11.dtd">
<!-- Generated by graphviz version 8.1.0 (20230707.0739)
 -->
<!-- Title: AIControllerFactory.h Pages: 1 -->
<svg width="896pt" height="376pt"
 viewBox="0.00 0.00 895.50 376.00" xmlns="http://www.w3.org/2000/svg" xmlns:xlink="http://www.w3.org/1999/xlink">
<g id="graph0" class="graph" transform="scale(1 1) rotate(0) translate(4 372)">
<title>AIControllerFactory.h</title>
<!-- Node1 -->
<g id="Node000001" class="node">
<title>Node1</title>
<g id="a_Node000001"><a xlink:title=" ">
<polygon fill="#999999" stroke="#666666" points="422.88,-368 315.38,-368 315.38,-348 422.88,-348 422.88,-368"/>
<text text-anchor="middle" x="369.12" y="-354.5" font-family="Helvetica,sans-Serif" font-size="10.00">AIControllerFactory.h</text>
</a>
</g>
</g>
<!-- Node2 -->
<g id="Node000002" class="node">
<title>Node2</title>
<g id="a_Node000002"><a xlink:href="../../df/d9f/ActorSpawnResult_8h.html" target="_top" xlink:title=" ">
<polygon fill="white" stroke="#666666" points="243.25,-256 87,-256 87,-236 243.25,-236 243.25,-256"/>
<text text-anchor="middle" x="165.12" y="-242.5" font-family="Helvetica,sans-Serif" font-size="10.00">Carla/Actor/ActorSpawnResult.h</text>
</a>
</g>
</g>
<!-- Node1&#45;&gt;Node2 -->
<g id="edge1_Node000001_Node000002" class="edge">
<title>Node1&#45;&gt;Node2</title>
<g id="a_edge1_Node000001_Node000002"><a xlink:title=" ">
<path fill="none" stroke="#63b8ff" d="M350.95,-347.63C333.5,-338.61 306.43,-324.52 283.12,-312 251.39,-294.96 215.14,-274.9 191.28,-261.62"/>
<polygon fill="#63b8ff" stroke="#63b8ff" points="193.31,-258.18 182.87,-256.37 189.9,-264.3 193.31,-258.18"/>
</a>
</g>
</g>
<!-- Node4 -->
<g id="Node000004" class="node">
<title>Node4</title>
<g id="a_Node000004"><a xlink:href="../../d4/d24/CarlaActorFactory_8h.html" target="_top" xlink:title=" ">
<polygon fill="white" stroke="#666666" points="446.5,-312 291.75,-312 291.75,-292 446.5,-292 446.5,-312"/>
<text text-anchor="middle" x="369.12" y="-298.5" font-family="Helvetica,sans-Serif" font-size="10.00">Carla/Actor/CarlaActorFactory.h</text>
</a>
</g>
</g>
<!-- Node1&#45;&gt;Node4 -->
<g id="edge3_Node000001_Node000004" class="edge">
<title>Node1&#45;&gt;Node4</title>
<g id="a_edge3_Node000001_Node000004"><a xlink:title=" ">
<path fill="none" stroke="#63b8ff" d="M369.12,-347.59C369.12,-340.86 369.12,-331.53 369.12,-323.15"/>
<polygon fill="#63b8ff" stroke="#63b8ff" points="372.63,-323.3 369.12,-313.3 365.63,-323.3 372.63,-323.3"/>
</a>
</g>
</g>
<!-- Node22 -->
<g id="Node000022" class="node">
<title>Node22</title>
<g id="a_Node000022"><a xlink:title=" ">
<polygon fill="#e0e0e0" stroke="#999999" points="617.75,-312 464.5,-312 464.5,-292 617.75,-292 617.75,-312"/>
<text text-anchor="middle" x="541.12" y="-298.5" font-family="Helvetica,sans-Serif" font-size="10.00">AIControllerFactory.generated.h</text>
</a>
</g>
</g>
<!-- Node1&#45;&gt;Node22 -->
<g id="edge24_Node000001_Node000022" class="edge">
<title>Node1&#45;&gt;Node22</title>
<g id="a_edge24_Node000001_Node000022"><a xlink:title=" ">
<path fill="none" stroke="#63b8ff" d="M399.09,-347.59C427.28,-338.74 469.69,-325.43 500.84,-315.65"/>
<polygon fill="#63b8ff" stroke="#63b8ff" points="501.44,-318.81 509.93,-312.48 499.34,-312.14 501.44,-318.81"/>
</a>
</g>
</g>
<!-- Node3 -->
<g id="Node000003" class="node">
<title>Node3</title>
<g id="a_Node000003"><a xlink:title=" ">
<polygon fill="#e0e0e0" stroke="#999999" points="150.25,-200 0,-200 0,-180 150.25,-180 150.25,-200"/>
<text text-anchor="middle" x="75.12" y="-186.5" font-family="Helvetica,sans-Serif" font-size="10.00">ActorSpawnResult.generated.h</text>
</a>
</g>
</g>
<!-- Node2&#45;&gt;Node3 -->
<g id="edge2_Node000002_Node000003" class="edge">
<title>Node2&#45;&gt;Node3</title>
<g id="a_edge2_Node000002_Node000003"><a xlink:title=" ">
<path fill="none" stroke="#63b8ff" d="M149.45,-235.59C135.85,-227.44 115.93,-215.48 100.13,-206"/>
<polygon fill="#63b8ff" stroke="#63b8ff" points="102.3,-202.62 91.92,-200.48 98.7,-208.63 102.3,-202.62"/>
</a>
</g>
</g>
<!-- Node4&#45;&gt;Node2 -->
<g id="edge20_Node000004_Node000002" class="edge">
<title>Node4&#45;&gt;Node2</title>
<g id="a_edge20_Node000004_Node000002"><a xlink:title=" ">
<path fill="none" stroke="#63b8ff" d="M333.59,-291.59C299.72,-282.63 248.53,-269.08 211.47,-259.27"/>
<polygon fill="#63b8ff" stroke="#63b8ff" points="212.5,-255.66 201.94,-256.48 210.71,-262.42 212.5,-255.66"/>
</a>
</g>
</g>
<!-- Node5 -->
<g id="Node000005" class="node">
<title>Node5</title>
<g id="a_Node000005"><a xlink:href="../../d0/d65/Unreal_2CarlaUE4_2Plugins_2Carla_2Source_2Carla_2Actor_2ActorDefinition_8h.html" target="_top" xlink:title=" ">
<polygon fill="white" stroke="#666666" points="438.62,-256 299.62,-256 299.62,-236 438.62,-236 438.62,-256"/>
<text text-anchor="middle" x="369.12" y="-242.5" font-family="Helvetica,sans-Serif" font-size="10.00">Carla/Actor/ActorDefinition.h</text>
</a>
</g>
</g>
<!-- Node4&#45;&gt;Node5 -->
<g id="edge4_Node000004_Node000005" class="edge">
<title>Node4&#45;&gt;Node5</title>
<g id="a_edge4_Node000004_Node000005"><a xlink:title=" ">
<path fill="none" stroke="#63b8ff" d="M369.12,-291.59C369.12,-284.86 369.12,-275.53 369.12,-267.15"/>
<polygon fill="#63b8ff" stroke="#63b8ff" points="372.63,-267.3 369.12,-257.3 365.63,-267.3 372.63,-267.3"/>
</a>
</g>
</g>
<!-- Node16 -->
<g id="Node000016" class="node">
<title>Node16</title>
<g id="a_Node000016"><a xlink:title=" ">
<polygon fill="#e0e0e0" stroke="#999999" points="293.5,-200 168.75,-200 168.75,-180 293.5,-180 293.5,-200"/>
<text text-anchor="middle" x="231.12" y="-186.5" font-family="Helvetica,sans-Serif" font-size="10.00">GameFramework/Actor.h</text>
</a>
</g>
</g>
<!-- Node4&#45;&gt;Node16 -->
<g id="edge22_Node000004_Node000016" class="edge">
<title>Node4&#45;&gt;Node16</title>
<g id="a_edge22_Node000004_Node000016"><a xlink:title=" ">
<path fill="none" stroke="#63b8ff" d="M348.54,-291.53C331.91,-283.37 308.35,-270.61 290.12,-256 272.57,-241.92 255.64,-222.46 244.45,-208.51"/>
<polygon fill="#63b8ff" stroke="#63b8ff" points="246.9,-206.96 237.98,-201.25 241.39,-211.28 246.9,-206.96"/>
</a>
</g>
</g>
<!-- Node18 -->
<g id="Node000018" class="node">
<title>Node18</title>
<g id="a_Node000018"><a xlink:href="../../d4/de6/Unreal_2CarlaUE4_2Plugins_2Carla_2Source_2Carla_2Actor_2ActorDescription_8h.html" target="_top" xlink:title=" ">
<polygon fill="white" stroke="#666666" points="605.12,-256 457.12,-256 457.12,-236 605.12,-236 605.12,-256"/>
<text text-anchor="middle" x="531.12" y="-242.5" font-family="Helvetica,sans-Serif" font-size="10.00">Carla/Actor/ActorDescription.h</text>
</a>
</g>
</g>
<!-- Node4&#45;&gt;Node18 -->
<g id="edge17_Node000004_Node000018" class="edge">
<title>Node4&#45;&gt;Node18</title>
<g id="a_edge17_Node000004_Node000018"><a xlink:title=" ">
<path fill="none" stroke="#63b8ff" d="M397.34,-291.59C423.66,-282.82 463.15,-269.66 492.41,-259.9"/>
<polygon fill="#63b8ff" stroke="#63b8ff" points="493.31,-262.96 501.69,-256.48 491.09,-256.32 493.31,-262.96"/>
</a>
</g>
</g>
<!-- Node20 -->
<g id="Node000020" class="node">
<title>Node20</title>
<g id="a_Node000020"><a xlink:title=" ">
<polygon fill="#e0e0e0" stroke="#999999" points="720.62,-256 623.62,-256 623.62,-236 720.62,-236 720.62,-256"/>
<text text-anchor="middle" x="672.12" y="-242.5" font-family="Helvetica,sans-Serif" font-size="10.00">Containers/Array.h</text>
</a>
</g>
</g>
<!-- Node4&#45;&gt;Node20 -->
<g id="edge21_Node000004_Node000020" class="edge">
<title>Node4&#45;&gt;Node20</title>
<g id="a_edge21_Node000004_Node000020"><a xlink:title=" ">
<path fill="none" stroke="#63b8ff" d="M422.25,-291.53C475.55,-282.03 557.48,-267.43 612.86,-257.56"/>
<polygon fill="#63b8ff" stroke="#63b8ff" points="613.34,-260.85 622.57,-255.65 612.11,-253.96 613.34,-260.85"/>
</a>
</g>
</g>
<!-- Node21 -->
<g id="Node000021" class="node">
<title>Node21</title>
<g id="a_Node000021"><a xlink:title=" ">
<polygon fill="#e0e0e0" stroke="#999999" points="887.5,-256 738.75,-256 738.75,-236 887.5,-236 887.5,-256"/>
<text text-anchor="middle" x="813.12" y="-242.5" font-family="Helvetica,sans-Serif" font-size="10.00">CarlaActorFactory.generated.h</text>
</a>
</g>
</g>
<!-- Node4&#45;&gt;Node21 -->
<g id="edge23_Node000004_Node000021" class="edge">
<title>Node4&#45;&gt;Node21</title>
<g id="a_edge23_Node000004_Node000021"><a xlink:title=" ">
<path fill="none" stroke="#63b8ff" d="M446.97,-291.53C525.52,-281.98 646.48,-267.27 727.65,-257.4"/>
<polygon fill="#63b8ff" stroke="#63b8ff" points="727.83,-260.78 737.33,-256.1 726.98,-253.83 727.83,-260.78"/>
</a>
</g>
</g>
<!-- Node6 -->
<g id="Node000006" class="node">
<title>Node6</title>
<g id="a_Node000006"><a xlink:href="../../d6/d1a/Unreal_2CarlaUE4_2Plugins_2Carla_2Source_2Carla_2Actor_2ActorAttribute_8h.html" target="_top" xlink:title=" ">
<polygon fill="white" stroke="#666666" points="599.12,-200 463.12,-200 463.12,-180 599.12,-180 599.12,-200"/>
<text text-anchor="middle" x="531.12" y="-186.5" font-family="Helvetica,sans-Serif" font-size="10.00">Carla/Actor/ActorAttribute.h</text>
</a>
</g>
</g>
<!-- Node5&#45;&gt;Node6 -->
<g id="edge5_Node000005_Node000006" class="edge">
<title>Node5&#45;&gt;Node6</title>
<g id="a_edge5_Node000005_Node000006"><a xlink:title=" ">
<path fill="none" stroke="#63b8ff" d="M397.34,-235.59C423.66,-226.82 463.15,-213.66 492.41,-203.9"/>
<polygon fill="#63b8ff" stroke="#63b8ff" points="493.31,-206.96 501.69,-200.48 491.09,-200.32 493.31,-206.96"/>
</a>
</g>
</g>
<!-- Node5&#45;&gt;Node16 -->
<g id="edge15_Node000005_Node000016" class="edge">
<title>Node5&#45;&gt;Node16</title>
<g id="a_edge15_Node000005_Node000016"><a xlink:title=" ">
<path fill="none" stroke="#63b8ff" d="M345.09,-235.59C323.06,-226.97 290.2,-214.12 265.42,-204.42"/>
<polygon fill="#63b8ff" stroke="#63b8ff" points="266.94,-200.86 256.35,-200.48 264.39,-207.38 266.94,-200.86"/>
</a>
</g>
</g>
<!-- Node17 -->
<g id="Node000017" class="node">
<title>Node17</title>
<g id="a_Node000017"><a xlink:title=" ">
<polygon fill="#e0e0e0" stroke="#999999" points="444.62,-200 311.62,-200 311.62,-180 444.62,-180 444.62,-200"/>
<text text-anchor="middle" x="378.12" y="-186.5" font-family="Helvetica,sans-Serif" font-size="10.00">ActorDefinition.generated.h</text>
</a>
</g>
</g>
<!-- Node5&#45;&gt;Node17 -->
<g id="edge16_Node000005_Node000017" class="edge">
<title>Node5&#45;&gt;Node17</title>
<g id="a_edge16_Node000005_Node000017"><a xlink:title=" ">
<path fill="none" stroke="#63b8ff" d="M370.69,-235.59C371.83,-228.78 373.41,-219.32 374.81,-210.86"/>
<polygon fill="#63b8ff" stroke="#63b8ff" points="378.38,-211.74 376.58,-201.3 371.48,-210.59 378.38,-211.74"/>
</a>
</g>
</g>
<!-- Node7 -->
<g id="Node000007" class="node">
<title>Node7</title>
<g id="a_Node000007"><a xlink:href="../../d2/d02/disable-ue4-macros_8h.html" target="_top" xlink:title=" ">
<polygon fill="white" stroke="#666666" points="390.75,-144 285.5,-144 285.5,-112 390.75,-112 390.75,-144"/>
<text text-anchor="start" x="293.5" y="-130.5" font-family="Helvetica,sans-Serif" font-size="10.00">compiler/disable&#45;ue4</text>
<text text-anchor="middle" x="338.12" y="-118.5" font-family="Helvetica,sans-Serif" font-size="10.00">&#45;macros.h</text>
</a>
</g>
</g>
<!-- Node6&#45;&gt;Node7 -->
<g id="edge6_Node000006_Node000007" class="edge">
<title>Node6&#45;&gt;Node7</title>
<g id="a_edge6_Node000006_Node000007"><a xlink:title=" ">
<path fill="none" stroke="#63b8ff" d="M500.97,-179.62C473.59,-171.11 432.39,-158.31 398.29,-147.7"/>
<polygon fill="#63b8ff" stroke="#63b8ff" points="399.54,-144.12 388.95,-144.49 397.46,-150.8 399.54,-144.12"/>
</a>
</g>
</g>
<!-- Node12 -->
<g id="Node000012" class="node">
<title>Node12</title>
<g id="a_Node000012"><a xlink:href="../../d8/d81/ActorAttributeType_8h.html" target="_top" xlink:title=" ">
<polygon fill="white" stroke="#666666" points="525.38,-144 408.88,-144 408.88,-112 525.38,-112 525.38,-144"/>
<text text-anchor="start" x="416.88" y="-130.5" font-family="Helvetica,sans-Serif" font-size="10.00">carla/rpc/ActorAttribute</text>
<text text-anchor="middle" x="467.12" y="-118.5" font-family="Helvetica,sans-Serif" font-size="10.00">Type.h</text>
</a>
</g>
</g>
<!-- Node6&#45;&gt;Node12 -->
<g id="edge11_Node000006_Node000012" class="edge">
<title>Node6&#45;&gt;Node12</title>
<g id="a_edge11_Node000006_Node000012"><a xlink:title=" ">
<path fill="none" stroke="#63b8ff" d="M521.12,-179.62C513.19,-172.19 501.76,-161.47 491.46,-151.81"/>
<polygon fill="#63b8ff" stroke="#63b8ff" points="494.21,-149.66 484.52,-145.37 489.43,-154.77 494.21,-149.66"/>
</a>
</g>
</g>
<!-- Node14 -->
<g id="Node000014" class="node">
<title>Node14</title>
<g id="a_Node000014"><a xlink:href="../../d9/da2/enable-ue4-macros_8h.html" target="_top" xlink:title=" ">
<polygon fill="white" stroke="#666666" points="646.62,-144 543.62,-144 543.62,-112 646.62,-112 646.62,-144"/>
<text text-anchor="start" x="551.62" y="-130.5" font-family="Helvetica,sans-Serif" font-size="10.00">compiler/enable&#45;ue4</text>
<text text-anchor="middle" x="595.12" y="-118.5" font-family="Helvetica,sans-Serif" font-size="10.00">&#45;macros.h</text>
</a>
</g>
</g>
<!-- Node6&#45;&gt;Node14 -->
<g id="edge13_Node000006_Node000014" class="edge">
<title>Node6&#45;&gt;Node14</title>
<g id="a_edge13_Node000006_Node000014"><a xlink:title=" ">
<path fill="none" stroke="#63b8ff" d="M541.12,-179.62C549.06,-172.19 560.49,-161.47 570.79,-151.81"/>
<polygon fill="#63b8ff" stroke="#63b8ff" points="572.82,-154.77 577.73,-145.37 568.04,-149.66 572.82,-154.77"/>
</a>
</g>
</g>
<!-- Node15 -->
<g id="Node000015" class="node">
<title>Node15</title>
<g id="a_Node000015"><a xlink:title=" ">
<polygon fill="#e0e0e0" stroke="#999999" points="795.12,-138 665.12,-138 665.12,-118 795.12,-118 795.12,-138"/>
<text text-anchor="middle" x="730.12" y="-124.5" font-family="Helvetica,sans-Serif" font-size="10.00">ActorAttribute.generated.h</text>
</a>
</g>
</g>
<!-- Node6&#45;&gt;Node15 -->
<g id="edge14_Node000006_Node000015" class="edge">
<title>Node6&#45;&gt;Node15</title>
<g id="a_edge14_Node000006_Node000015"><a xlink:title=" ">
<path fill="none" stroke="#63b8ff" d="M562.22,-179.62C596.29,-169.35 651.11,-152.82 688.78,-141.47"/>
<polygon fill="#63b8ff" stroke="#63b8ff" points="689.36,-144.65 697.92,-138.41 687.34,-137.94 689.36,-144.65"/>
</a>
</g>
</g>
<!-- Node8 -->
<g id="Node000008" class="node">
<title>Node8</title>
<g id="a_Node000008"><a xlink:href="../../d7/d7d/Carla_8h.html" target="_top" xlink:title=" ">
<polygon fill="white" stroke="#666666" points="361.5,-76 314.75,-76 314.75,-56 361.5,-56 361.5,-76"/>
<text text-anchor="middle" x="338.12" y="-62.5" font-family="Helvetica,sans-Serif" font-size="10.00">Carla.h</text>
</a>
</g>
</g>
<!-- Node7&#45;&gt;Node8 -->
<g id="edge7_Node000007_Node000008" class="edge">
<title>Node7&#45;&gt;Node8</title>
<g id="a_edge7_Node000007_Node000008"><a xlink:title=" ">
<path fill="none" stroke="#63b8ff" d="M338.12,-111.55C338.12,-104.17 338.12,-95.24 338.12,-87.32"/>
<polygon fill="#63b8ff" stroke="#63b8ff" points="341.63,-87.41 338.12,-77.41 334.63,-87.41 341.63,-87.41"/>
</a>
</g>
</g>
<!-- Node9 -->
<g id="Node000009" class="node">
<title>Node9</title>
<g id="a_Node000009"><a xlink:href="../../d4/d57/Unreal_2CarlaUE4_2Plugins_2Carla_2Source_2Carla_2Util_2NonCopyable_8h.html" target="_top" xlink:title=" ">
<polygon fill="white" stroke="#666666" points="265.75,-20 166.5,-20 166.5,0 265.75,0 265.75,-20"/>
<text text-anchor="middle" x="216.12" y="-6.5" font-family="Helvetica,sans-Serif" font-size="10.00">Util/NonCopyable.h</text>
</a>
</g>
</g>
<!-- Node8&#45;&gt;Node9 -->
<g id="edge8_Node000008_Node000009" class="edge">
<title>Node8&#45;&gt;Node9</title>
<g id="a_edge8_Node000008_Node000009"><a xlink:title=" ">
<path fill="none" stroke="#63b8ff" d="M316.87,-55.59C297.66,-47.09 269.13,-34.46 247.33,-24.81"/>
<polygon fill="#63b8ff" stroke="#63b8ff" points="249.1,-21.33 238.54,-20.48 246.27,-27.73 249.1,-21.33"/>
</a>
</g>
</g>
<!-- Node10 -->
<g id="Node000010" class="node">
<title>Node10</title>
<g id="a_Node000010"><a xlink:title=" ">
<polygon fill="#e0e0e0" stroke="#999999" points="392.62,-20 283.62,-20 283.62,0 392.62,0 392.62,-20"/>
<text text-anchor="middle" x="338.12" y="-6.5" font-family="Helvetica,sans-Serif" font-size="10.00">Logging/LogMacros.h</text>
</a>
</g>
</g>
<!-- Node8&#45;&gt;Node10 -->
<g id="edge9_Node000008_Node000010" class="edge">
<title>Node8&#45;&gt;Node10</title>
<g id="a_edge9_Node000008_Node000010"><a xlink:title=" ">
<path fill="none" stroke="#63b8ff" d="M338.12,-55.59C338.12,-48.86 338.12,-39.53 338.12,-31.15"/>
<polygon fill="#63b8ff" stroke="#63b8ff" points="341.63,-31.3 338.12,-21.3 334.63,-31.3 341.63,-31.3"/>
</a>
</g>
</g>
<!-- Node11 -->
<g id="Node000011" class="node">
<title>Node11</title>
<g id="a_Node000011"><a xlink:title=" ">
<polygon fill="#e0e0e0" stroke="#999999" points="543.25,-20 411,-20 411,0 543.25,0 543.25,-20"/>
<text text-anchor="middle" x="477.12" y="-6.5" font-family="Helvetica,sans-Serif" font-size="10.00">Modules/ModuleInterface.h</text>
</a>
</g>
</g>
<!-- Node8&#45;&gt;Node11 -->
<g id="edge10_Node000008_Node000011" class="edge">
<title>Node8&#45;&gt;Node11</title>
<g id="a_edge10_Node000008_Node000011"><a xlink:title=" ">
<path fill="none" stroke="#63b8ff" d="M361.7,-55.84C383.93,-47.2 417.51,-34.16 442.73,-24.36"/>
<polygon fill="#63b8ff" stroke="#63b8ff" points="443.91,-27.27 451.96,-20.39 441.37,-20.75 443.91,-27.27"/>
</a>
</g>
</g>
<!-- Node13 -->
<g id="Node000013" class="node">
<title>Node13</title>
<g id="a_Node000013"><a xlink:title=" ">
<polygon fill="#e0e0e0" stroke="#999999" points="489.75,-76 444.5,-76 444.5,-56 489.75,-56 489.75,-76"/>
<text text-anchor="middle" x="467.12" y="-62.5" font-family="Helvetica,sans-Serif" font-size="10.00">cstdint</text>
</a>
</g>
</g>
<!-- Node12&#45;&gt;Node13 -->
<g id="edge12_Node000012_Node000013" class="edge">
<title>Node12&#45;&gt;Node13</title>
<g id="a_edge12_Node000012_Node000013"><a xlink:title=" ">
<path fill="none" stroke="#63b8ff" d="M467.12,-111.55C467.12,-104.17 467.12,-95.24 467.12,-87.32"/>
<polygon fill="#63b8ff" stroke="#63b8ff" points="470.63,-87.41 467.12,-77.41 463.63,-87.41 470.63,-87.41"/>
</a>
</g>
</g>
<!-- Node18&#45;&gt;Node6 -->
<g id="edge18_Node000018_Node000006" class="edge">
<title>Node18&#45;&gt;Node6</title>
<g id="a_edge18_Node000018_Node000006"><a xlink:title=" ">
<path fill="none" stroke="#63b8ff" d="M531.12,-235.59C531.12,-228.86 531.12,-219.53 531.12,-211.15"/>
<polygon fill="#63b8ff" stroke="#63b8ff" points="534.63,-211.3 531.12,-201.3 527.63,-211.3 534.63,-211.3"/>
</a>
</g>
</g>
<!-- Node19 -->
<g id="Node000019" class="node">
<title>Node19</title>
<g id="a_Node000019"><a xlink:title=" ">
<polygon fill="#e0e0e0" stroke="#999999" points="759.12,-200 617.12,-200 617.12,-180 759.12,-180 759.12,-200"/>
<text text-anchor="middle" x="688.12" y="-186.5" font-family="Helvetica,sans-Serif" font-size="10.00">ActorDescription.generated.h</text>
</a>
</g>
</g>
<!-- Node18&#45;&gt;Node19 -->
<g id="edge19_Node000018_Node000019" class="edge">
<title>Node18&#45;&gt;Node19</title>
<g id="a_edge19_Node000018_Node000019"><a xlink:title=" ">
<path fill="none" stroke="#63b8ff" d="M558.47,-235.59C583.87,-226.86 621.92,-213.77 650.23,-204.03"/>
<polygon fill="#63b8ff" stroke="#63b8ff" points="651.25,-207.04 659.56,-200.48 648.97,-200.42 651.25,-207.04"/>
</a>
</g>
</g>
</g>
</svg>
