<?xml version="1.0" encoding="UTF-8" standalone="no"?>
<!DOCTYPE svg PUBLIC "-//W3C//DTD SVG 1.1//EN"
 "http://www.w3.org/Graphics/SVG/1.1/DTD/svg11.dtd">
<!-- Generated by graphviz version 8.1.0 (20230707.0739)
 -->
<!-- Title: Odometry.h Pages: 1 -->
<svg width="1730pt" height="264pt"
 viewBox="0.00 0.00 1729.75 264.00" xmlns="http://www.w3.org/2000/svg" xmlns:xlink="http://www.w3.org/1999/xlink">
<g id="graph0" class="graph" transform="scale(1 1) rotate(0) translate(4 260)">
<title>Odometry.h</title>
<!-- Node1 -->
<g id="Node000001" class="node">
<title>Node1</title>
<g id="a_Node000001"><a xlink:title=" ">
<polygon fill="#999999" stroke="#666666" points="1010.44,-256 943.44,-256 943.44,-236 1010.44,-236 1010.44,-256"/>
<text text-anchor="middle" x="976.94" y="-242.5" font-family="Helvetica,sans-Serif" font-size="10.00">Odometry.h</text>
</a>
</g>
</g>
<!-- Node2 -->
<g id="Node000002" class="node">
<title>Node2</title>
<g id="a_Node000002"><a xlink:href="../../df/d57/PoseWithCovariance_8h.html" target="_top" xlink:title=" ">
<polygon fill="white" stroke="#666666" points="784.07,-200 669.82,-200 669.82,-180 784.07,-180 784.07,-200"/>
<text text-anchor="middle" x="726.94" y="-186.5" font-family="Helvetica,sans-Serif" font-size="10.00">PoseWithCovariance.h</text>
</a>
</g>
</g>
<!-- Node1&#45;&gt;Node2 -->
<g id="edge1_Node000001_Node000002" class="edge">
<title>Node1&#45;&gt;Node2</title>
<g id="a_edge1_Node000001_Node000002"><a xlink:title=" ">
<path fill="none" stroke="#63b8ff" d="M942.97,-237.66C901.3,-228.66 830.16,-213.3 780.96,-202.67"/>
<polygon fill="#63b8ff" stroke="#63b8ff" points="782.02,-199.1 771.51,-200.41 780.55,-205.94 782.02,-199.1"/>
</a>
</g>
</g>
<!-- Node5 -->
<g id="Node000005" class="node">
<title>Node5</title>
<g id="a_Node000005"><a xlink:title=" ">
<polygon fill="#e0e0e0" stroke="#999999" points="412.19,-32 319.69,-32 319.69,0 412.19,0 412.19,-32"/>
<text text-anchor="start" x="327.69" y="-18.5" font-family="Helvetica,sans-Serif" font-size="10.00">fastrtps/utils/fixed</text>
<text text-anchor="middle" x="365.94" y="-6.5" font-family="Helvetica,sans-Serif" font-size="10.00">_size_string.hpp</text>
</a>
</g>
</g>
<!-- Node1&#45;&gt;Node5 -->
<g id="edge73_Node000001_Node000005" class="edge">
<title>Node1&#45;&gt;Node5</title>
<g id="a_edge73_Node000001_Node000005"><a xlink:title=" ">
<path fill="none" stroke="#63b8ff" d="M942.96,-242.87C818.11,-234.63 385.66,-202.39 261.94,-144 221.22,-124.78 168.04,-104.11 194.94,-68 208.75,-49.47 264.55,-35.22 308.7,-26.55"/>
<polygon fill="#63b8ff" stroke="#63b8ff" points="309.19,-29.83 318.35,-24.52 307.88,-22.95 309.19,-29.83"/>
</a>
</g>
</g>
<!-- Node6 -->
<g id="Node000006" class="node">
<title>Node6</title>
<g id="a_Node000006"><a xlink:title=" ">
<polygon fill="#e0e0e0" stroke="#999999" points="624.07,-26 575.82,-26 575.82,-6 624.07,-6 624.07,-26"/>
<text text-anchor="middle" x="599.94" y="-12.5" font-family="Helvetica,sans-Serif" font-size="10.00">stdint.h</text>
</a>
</g>
</g>
<!-- Node1&#45;&gt;Node6 -->
<g id="edge74_Node000001_Node000006" class="edge">
<title>Node1&#45;&gt;Node6</title>
<g id="a_edge74_Node000001_Node000006"><a xlink:title=" ">
<path fill="none" stroke="#63b8ff" d="M943.22,-241.78C842.47,-231.63 545.8,-197.78 466.94,-144 434.88,-122.13 400.63,-99.03 423.94,-68 440.85,-45.5 518.44,-29.74 564.77,-22.15"/>
<polygon fill="#63b8ff" stroke="#63b8ff" points="565.21,-25.47 574.54,-20.44 564.12,-18.55 565.21,-25.47"/>
</a>
</g>
</g>
<!-- Node7 -->
<g id="Node000007" class="node">
<title>Node7</title>
<g id="a_Node000007"><a xlink:title=" ">
<polygon fill="#e0e0e0" stroke="#999999" points="248.82,-26 211.07,-26 211.07,-6 248.82,-6 248.82,-26"/>
<text text-anchor="middle" x="229.94" y="-12.5" font-family="Helvetica,sans-Serif" font-size="10.00">array</text>
</a>
</g>
</g>
<!-- Node1&#45;&gt;Node7 -->
<g id="edge75_Node000001_Node000007" class="edge">
<title>Node1&#45;&gt;Node7</title>
<g id="a_edge75_Node000001_Node000007"><a xlink:title=" ">
<path fill="none" stroke="#63b8ff" d="M942.98,-243.9C852.5,-240.64 598.31,-229.37 388.94,-200 266.28,-182.8 233,-184.49 115.94,-144 63.35,-125.81 33.2,-135.34 3.94,-88 -0.73,-80.44 -1.61,-74.94 3.94,-68 28.15,-37.72 144.07,-24.12 199.84,-19.25"/>
<polygon fill="#63b8ff" stroke="#63b8ff" points="200.1,-22.66 209.77,-18.34 199.52,-15.69 200.1,-22.66"/>
</a>
</g>
</g>
<!-- Node8 -->
<g id="Node000008" class="node">
<title>Node8</title>
<g id="a_Node000008"><a xlink:title=" ">
<polygon fill="#e0e0e0" stroke="#999999" points="1388.94,-26 1348.94,-26 1348.94,-6 1388.94,-6 1388.94,-26"/>
<text text-anchor="middle" x="1368.94" y="-12.5" font-family="Helvetica,sans-Serif" font-size="10.00">string</text>
</a>
</g>
</g>
<!-- Node1&#45;&gt;Node8 -->
<g id="edge76_Node000001_Node000008" class="edge">
<title>Node1&#45;&gt;Node8</title>
<g id="a_edge76_Node000001_Node000008"><a xlink:title=" ">
<path fill="none" stroke="#63b8ff" d="M1010.73,-243.25C1061.25,-239.74 1158.76,-229.43 1235.94,-200 1279.96,-183.21 1296.68,-180.92 1325.94,-144 1351.4,-111.89 1362.18,-63.89 1366.43,-37.03"/>
<polygon fill="#63b8ff" stroke="#63b8ff" points="1370.01,-37.71 1367.95,-27.32 1363.08,-36.72 1370.01,-37.71"/>
</a>
</g>
</g>
<!-- Node9 -->
<g id="Node000009" class="node">
<title>Node9</title>
<g id="a_Node000009"><a xlink:title=" ">
<polygon fill="#e0e0e0" stroke="#999999" points="1161.69,-26 1120.19,-26 1120.19,-6 1161.69,-6 1161.69,-26"/>
<text text-anchor="middle" x="1140.94" y="-12.5" font-family="Helvetica,sans-Serif" font-size="10.00">vector</text>
</a>
</g>
</g>
<!-- Node1&#45;&gt;Node9 -->
<g id="edge77_Node000001_Node000009" class="edge">
<title>Node1&#45;&gt;Node9</title>
<g id="a_edge77_Node000001_Node000009"><a xlink:title=" ">
<path fill="none" stroke="#63b8ff" d="M1010.66,-239.83C1087.54,-227.29 1271.92,-192.65 1307.94,-144 1316.32,-132.69 1328.9,-97.17 1306.94,-68 1275.75,-26.57 1211.53,-17.79 1172.75,-16.49"/>
<polygon fill="#63b8ff" stroke="#63b8ff" points="1173.12,-12.98 1163.06,-16.3 1173,-19.97 1173.12,-12.98"/>
</a>
</g>
</g>
<!-- Node10 -->
<g id="Node000010" class="node">
<title>Node10</title>
<g id="a_Node000010"><a xlink:title=" ">
<polygon fill="#e0e0e0" stroke="#999999" points="1614.32,-26 1579.57,-26 1579.57,-6 1614.32,-6 1614.32,-26"/>
<text text-anchor="middle" x="1596.94" y="-12.5" font-family="Helvetica,sans-Serif" font-size="10.00">map</text>
</a>
</g>
</g>
<!-- Node1&#45;&gt;Node10 -->
<g id="edge78_Node000001_Node000010" class="edge">
<title>Node1&#45;&gt;Node10</title>
<g id="a_edge78_Node000001_Node000010"><a xlink:title=" ">
<path fill="none" stroke="#63b8ff" d="M1010.85,-243.86C1067.02,-241.09 1182.27,-231.7 1273.94,-200 1396.69,-157.56 1526.33,-68.54 1575.96,-32.57"/>
<polygon fill="#63b8ff" stroke="#63b8ff" points="1577.52,-35.03 1583.53,-26.31 1573.39,-29.38 1577.52,-35.03"/>
</a>
</g>
</g>
<!-- Node11 -->
<g id="Node000011" class="node">
<title>Node11</title>
<g id="a_Node000011"><a xlink:title=" ">
<polygon fill="#e0e0e0" stroke="#999999" points="915.94,-26 875.94,-26 875.94,-6 915.94,-6 915.94,-26"/>
<text text-anchor="middle" x="895.94" y="-12.5" font-family="Helvetica,sans-Serif" font-size="10.00">bitset</text>
</a>
</g>
</g>
<!-- Node1&#45;&gt;Node11 -->
<g id="edge79_Node000001_Node000011" class="edge">
<title>Node1&#45;&gt;Node11</title>
<g id="a_edge79_Node000001_Node000011"><a xlink:title=" ">
<path fill="none" stroke="#63b8ff" d="M983.76,-235.56C989.62,-226.83 997.64,-213.23 1000.94,-200 1011.52,-157.7 1008.25,-110.22 978.94,-68 966.2,-49.65 944.52,-36.66 926.51,-28.38"/>
<polygon fill="#63b8ff" stroke="#63b8ff" points="927.99,-24.78 917.42,-24.05 925.23,-31.21 927.99,-24.78"/>
</a>
</g>
</g>
<!-- Node13 -->
<g id="Node000013" class="node">
<title>Node13</title>
<g id="a_Node000013"><a xlink:href="../../dc/d8f/TwistWithCovariance_8h.html" target="_top" xlink:title=" ">
<polygon fill="white" stroke="#666666" points="992.07,-200 877.82,-200 877.82,-180 992.07,-180 992.07,-200"/>
<text text-anchor="middle" x="934.94" y="-186.5" font-family="Helvetica,sans-Serif" font-size="10.00">TwistWithCovariance.h</text>
</a>
</g>
</g>
<!-- Node1&#45;&gt;Node13 -->
<g id="edge33_Node000001_Node000013" class="edge">
<title>Node1&#45;&gt;Node13</title>
<g id="a_edge33_Node000001_Node000013"><a xlink:title=" ">
<path fill="none" stroke="#63b8ff" d="M969.63,-235.59C963.91,-228.24 955.78,-217.8 948.84,-208.87"/>
<polygon fill="#63b8ff" stroke="#63b8ff" points="951.08,-207.04 942.18,-201.3 945.55,-211.34 951.08,-207.04"/>
</a>
</g>
</g>
<!-- Node16 -->
<g id="Node000016" class="node">
<title>Node16</title>
<g id="a_Node000016"><a xlink:href="../../d3/d6a/Header_8h.html" target="_top" xlink:title=" ">
<polygon fill="white" stroke="#666666" points="1103.44,-144 1048.44,-144 1048.44,-124 1103.44,-124 1103.44,-144"/>
<text text-anchor="middle" x="1075.94" y="-130.5" font-family="Helvetica,sans-Serif" font-size="10.00">Header.h</text>
</a>
</g>
</g>
<!-- Node1&#45;&gt;Node16 -->
<g id="edge57_Node000001_Node000016" class="edge">
<title>Node1&#45;&gt;Node16</title>
<g id="a_edge57_Node000001_Node000016"><a xlink:title=" ">
<path fill="none" stroke="#63b8ff" d="M991.14,-235.77C1003.37,-227.38 1021.05,-214.18 1033.94,-200 1046.77,-185.9 1058.27,-167.47 1065.99,-153.84"/>
<polygon fill="#63b8ff" stroke="#63b8ff" points="1069.37,-155.95 1071.1,-145.5 1063.23,-152.59 1069.37,-155.95"/>
</a>
</g>
</g>
<!-- Node3 -->
<g id="Node000003" class="node">
<title>Node3</title>
<g id="a_Node000003"><a xlink:href="../../d7/db5/Pose_8h.html" target="_top" xlink:title=" ">
<polygon fill="white" stroke="#666666" points="750.32,-144 703.57,-144 703.57,-124 750.32,-124 750.32,-144"/>
<text text-anchor="middle" x="726.94" y="-130.5" font-family="Helvetica,sans-Serif" font-size="10.00">Pose.h</text>
</a>
</g>
</g>
<!-- Node2&#45;&gt;Node3 -->
<g id="edge2_Node000002_Node000003" class="edge">
<title>Node2&#45;&gt;Node3</title>
<g id="a_edge2_Node000002_Node000003"><a xlink:title=" ">
<path fill="none" stroke="#63b8ff" d="M726.94,-179.59C726.94,-172.86 726.94,-163.53 726.94,-155.15"/>
<polygon fill="#63b8ff" stroke="#63b8ff" points="730.44,-155.3 726.94,-145.3 723.44,-155.3 730.44,-155.3"/>
</a>
</g>
</g>
<!-- Node2&#45;&gt;Node5 -->
<g id="edge26_Node000002_Node000005" class="edge">
<title>Node2&#45;&gt;Node5</title>
<g id="a_edge26_Node000002_Node000005"><a xlink:title=" ">
<path fill="none" stroke="#63b8ff" d="M669.53,-186.81C546.43,-180.78 263.57,-159.3 205.94,-88 174.2,-48.73 251.07,-30.52 308.93,-22.59"/>
<polygon fill="#63b8ff" stroke="#63b8ff" points="309.01,-25.97 318.48,-21.22 308.12,-19.03 309.01,-25.97"/>
</a>
</g>
</g>
<!-- Node2&#45;&gt;Node6 -->
<g id="edge27_Node000002_Node000006" class="edge">
<title>Node2&#45;&gt;Node6</title>
<g id="a_edge27_Node000002_Node000006"><a xlink:title=" ">
<path fill="none" stroke="#63b8ff" d="M669.5,-187.99C600.28,-183.3 486.72,-163.69 433.94,-88 400.08,-39.43 506.58,-23.88 564.73,-19.07"/>
<polygon fill="#63b8ff" stroke="#63b8ff" points="564.96,-22.48 574.66,-18.24 564.43,-15.5 564.96,-22.48"/>
</a>
</g>
</g>
<!-- Node2&#45;&gt;Node7 -->
<g id="edge28_Node000002_Node000007" class="edge">
<title>Node2&#45;&gt;Node7</title>
<g id="a_edge28_Node000002_Node000007"><a xlink:title=" ">
<path fill="none" stroke="#63b8ff" d="M669.41,-185.29C507.44,-174.23 56.7,-139.07 15.94,-88 -33.66,-25.83 130.29,-17.62 200.05,-16.88"/>
<polygon fill="#63b8ff" stroke="#63b8ff" points="199.79,-20.38 209.77,-16.82 199.75,-13.38 199.79,-20.38"/>
</a>
</g>
</g>
<!-- Node2&#45;&gt;Node8 -->
<g id="edge29_Node000002_Node000008" class="edge">
<title>Node2&#45;&gt;Node8</title>
<g id="a_edge29_Node000002_Node000008"><a xlink:title=" ">
<path fill="none" stroke="#63b8ff" d="M784.54,-185.01C943.33,-173.41 1378.29,-137.35 1417.94,-88 1432.6,-69.76 1411.11,-47.33 1392.14,-32.63"/>
<polygon fill="#63b8ff" stroke="#63b8ff" points="1394.6,-29.36 1384.47,-26.27 1390.46,-35.01 1394.6,-29.36"/>
</a>
</g>
</g>
<!-- Node2&#45;&gt;Node9 -->
<g id="edge30_Node000002_Node000009" class="edge">
<title>Node2&#45;&gt;Node9</title>
<g id="a_edge30_Node000002_Node000009"><a xlink:title=" ">
<path fill="none" stroke="#63b8ff" d="M784.23,-184.7C876.24,-177.39 1052.72,-161.62 1112.94,-144 1167.51,-128.04 1197.8,-136.2 1227.94,-88 1245.08,-60.6 1203.55,-38.92 1172.14,-27.03"/>
<polygon fill="#63b8ff" stroke="#63b8ff" points="1173.57,-23.47 1162.98,-23.38 1171.2,-30.06 1173.57,-23.47"/>
</a>
</g>
</g>
<!-- Node2&#45;&gt;Node10 -->
<g id="edge31_Node000002_Node000010" class="edge">
<title>Node2&#45;&gt;Node10</title>
<g id="a_edge31_Node000002_Node000010"><a xlink:title=" ">
<path fill="none" stroke="#63b8ff" d="M784.49,-184.83C981.38,-170.28 1617.62,-120.87 1645.94,-88 1661.22,-70.27 1639.59,-47.73 1620.42,-32.86"/>
<polygon fill="#63b8ff" stroke="#63b8ff" points="1622.78,-29.52 1612.65,-26.42 1618.64,-35.16 1622.78,-29.52"/>
</a>
</g>
</g>
<!-- Node2&#45;&gt;Node11 -->
<g id="edge32_Node000002_Node000011" class="edge">
<title>Node2&#45;&gt;Node11</title>
<g id="a_edge32_Node000002_Node000011"><a xlink:title=" ">
<path fill="none" stroke="#63b8ff" d="M718.67,-179.81C700.2,-158.17 659.34,-103.15 686.94,-68 708.76,-40.22 812.41,-25.65 865.07,-19.94"/>
<polygon fill="#63b8ff" stroke="#63b8ff" points="865.21,-23.34 874.79,-18.82 864.48,-16.37 865.21,-23.34"/>
</a>
</g>
</g>
<!-- Node4 -->
<g id="Node000004" class="node">
<title>Node4</title>
<g id="a_Node000004"><a xlink:href="../../d4/de5/Point_8h.html" target="_top" xlink:title=" ">
<polygon fill="white" stroke="#666666" points="750.32,-88 703.57,-88 703.57,-68 750.32,-68 750.32,-88"/>
<text text-anchor="middle" x="726.94" y="-74.5" font-family="Helvetica,sans-Serif" font-size="10.00">Point.h</text>
</a>
</g>
</g>
<!-- Node3&#45;&gt;Node4 -->
<g id="edge3_Node000003_Node000004" class="edge">
<title>Node3&#45;&gt;Node4</title>
<g id="a_edge3_Node000003_Node000004"><a xlink:title=" ">
<path fill="none" stroke="#63b8ff" d="M726.94,-123.59C726.94,-116.86 726.94,-107.53 726.94,-99.15"/>
<polygon fill="#63b8ff" stroke="#63b8ff" points="730.44,-99.3 726.94,-89.3 723.44,-99.3 730.44,-99.3"/>
</a>
</g>
</g>
<!-- Node3&#45;&gt;Node5 -->
<g id="edge19_Node000003_Node000005" class="edge">
<title>Node3&#45;&gt;Node5</title>
<g id="a_edge19_Node000003_Node000005"><a xlink:title=" ">
<path fill="none" stroke="#63b8ff" d="M703.23,-132.42C615.15,-130.02 310.42,-119.5 281.94,-88 264.78,-69.01 288.62,-50.44 315.23,-37.06"/>
<polygon fill="#63b8ff" stroke="#63b8ff" points="316.56,-39.83 324.08,-32.37 313.55,-33.51 316.56,-39.83"/>
</a>
</g>
</g>
<!-- Node3&#45;&gt;Node6 -->
<g id="edge20_Node000003_Node000006" class="edge">
<title>Node3&#45;&gt;Node6</title>
<g id="a_edge20_Node000003_Node000006"><a xlink:title=" ">
<path fill="none" stroke="#63b8ff" d="M703.29,-129.79C649.59,-122.28 522.18,-103.03 509.94,-88 489.34,-62.68 532.09,-40.66 565.46,-28.1"/>
<polygon fill="#63b8ff" stroke="#63b8ff" points="566.21,-31.19 574.44,-24.52 563.85,-24.61 566.21,-31.19"/>
</a>
</g>
</g>
<!-- Node3&#45;&gt;Node7 -->
<g id="edge21_Node000003_Node000007" class="edge">
<title>Node3&#45;&gt;Node7</title>
<g id="a_edge21_Node000003_Node000007"><a xlink:title=" ">
<path fill="none" stroke="#63b8ff" d="M703.13,-133.18C592.73,-133.78 134.32,-133.49 91.94,-88 57.03,-50.52 150.09,-29.55 200.29,-21.24"/>
<polygon fill="#63b8ff" stroke="#63b8ff" points="200.54,-24.59 209.88,-19.57 199.45,-17.67 200.54,-24.59"/>
</a>
</g>
</g>
<!-- Node3&#45;&gt;Node8 -->
<g id="edge22_Node000003_Node000008" class="edge">
<title>Node3&#45;&gt;Node8</title>
<g id="a_edge22_Node000003_Node000008"><a xlink:title=" ">
<path fill="none" stroke="#63b8ff" d="M750.49,-131.74C812.37,-128.14 984.49,-116.16 1124.94,-88 1203.23,-72.3 1292.78,-43.31 1338.54,-27.67"/>
<polygon fill="#63b8ff" stroke="#63b8ff" points="1339.36,-30.75 1347.67,-24.18 1337.08,-24.13 1339.36,-30.75"/>
</a>
</g>
</g>
<!-- Node3&#45;&gt;Node9 -->
<g id="edge23_Node000003_Node000009" class="edge">
<title>Node3&#45;&gt;Node9</title>
<g id="a_edge23_Node000003_Node000009"><a xlink:title=" ">
<path fill="none" stroke="#63b8ff" d="M750.81,-131.42C828.96,-126.08 1073.8,-107.91 1102.94,-88 1120.48,-76.02 1130.59,-53.25 1135.91,-36.72"/>
<polygon fill="#63b8ff" stroke="#63b8ff" points="1139.45,-38.06 1138.86,-27.48 1132.72,-36.12 1139.45,-38.06"/>
</a>
</g>
</g>
<!-- Node3&#45;&gt;Node10 -->
<g id="edge24_Node000003_Node000010" class="edge">
<title>Node3&#45;&gt;Node10</title>
<g id="a_edge24_Node000003_Node000010"><a xlink:title=" ">
<path fill="none" stroke="#63b8ff" d="M750.54,-131.23C817.7,-126.06 1015.6,-109.98 1178.94,-88 1326.18,-68.19 1501.06,-35.49 1568.49,-22.53"/>
<polygon fill="#63b8ff" stroke="#63b8ff" points="1568.93,-25.82 1578.09,-20.49 1567.6,-18.95 1568.93,-25.82"/>
</a>
</g>
</g>
<!-- Node3&#45;&gt;Node11 -->
<g id="edge25_Node000003_Node000011" class="edge">
<title>Node3&#45;&gt;Node11</title>
<g id="a_edge25_Node000003_Node000011"><a xlink:title=" ">
<path fill="none" stroke="#63b8ff" d="M716.48,-123.94C702.51,-110.75 681.04,-85.87 694.94,-68 715.65,-41.38 813.68,-26.41 864.79,-20.29"/>
<polygon fill="#63b8ff" stroke="#63b8ff" points="864.99,-23.68 874.52,-19.06 864.19,-16.73 864.99,-23.68"/>
</a>
</g>
</g>
<!-- Node12 -->
<g id="Node000012" class="node">
<title>Node12</title>
<g id="a_Node000012"><a xlink:href="../../d1/d4a/Quaternion_8h.html" target="_top" xlink:title=" ">
<polygon fill="white" stroke="#666666" points="839.69,-88 768.19,-88 768.19,-68 839.69,-68 839.69,-88"/>
<text text-anchor="middle" x="803.94" y="-74.5" font-family="Helvetica,sans-Serif" font-size="10.00">Quaternion.h</text>
</a>
</g>
</g>
<!-- Node3&#45;&gt;Node12 -->
<g id="edge11_Node000003_Node000012" class="edge">
<title>Node3&#45;&gt;Node12</title>
<g id="a_edge11_Node000003_Node000012"><a xlink:title=" ">
<path fill="none" stroke="#63b8ff" d="M740.36,-123.59C751.77,-115.59 768.39,-103.93 781.78,-94.54"/>
<polygon fill="#63b8ff" stroke="#63b8ff" points="783.25,-97.09 789.43,-88.48 779.23,-91.36 783.25,-97.09"/>
</a>
</g>
</g>
<!-- Node4&#45;&gt;Node5 -->
<g id="edge4_Node000004_Node000005" class="edge">
<title>Node4&#45;&gt;Node5</title>
<g id="a_edge4_Node000004_Node000005"><a xlink:title=" ">
<path fill="none" stroke="#63b8ff" d="M703.26,-73.06C646.89,-63.69 503.47,-39.86 422.97,-26.48"/>
<polygon fill="#63b8ff" stroke="#63b8ff" points="423.96,-22.93 413.53,-24.74 422.82,-29.83 423.96,-22.93"/>
</a>
</g>
</g>
<!-- Node4&#45;&gt;Node6 -->
<g id="edge5_Node000004_Node000006" class="edge">
<title>Node4&#45;&gt;Node6</title>
<g id="a_edge5_Node000004_Node000006"><a xlink:title=" ">
<path fill="none" stroke="#63b8ff" d="M707.1,-67.62C686.32,-57.81 653.44,-42.27 629.58,-31"/>
<polygon fill="#63b8ff" stroke="#63b8ff" points="631.18,-27.42 620.65,-26.31 628.19,-33.75 631.18,-27.42"/>
</a>
</g>
</g>
<!-- Node4&#45;&gt;Node7 -->
<g id="edge6_Node000004_Node000007" class="edge">
<title>Node4&#45;&gt;Node7</title>
<g id="a_edge6_Node000004_Node000007"><a xlink:title=" ">
<path fill="none" stroke="#63b8ff" d="M703.41,-75.08C639.89,-69.76 459.73,-53.79 310.94,-32 293.86,-29.5 274.88,-26.02 259.59,-23.04"/>
<polygon fill="#63b8ff" stroke="#63b8ff" points="260.68,-19.49 250.19,-20.99 259.32,-26.36 260.68,-19.49"/>
</a>
</g>
</g>
<!-- Node4&#45;&gt;Node8 -->
<g id="edge7_Node000004_Node000008" class="edge">
<title>Node4&#45;&gt;Node8</title>
<g id="a_edge7_Node000004_Node000008"><a xlink:title=" ">
<path fill="none" stroke="#63b8ff" d="M750.59,-69.81C753.39,-69.12 756.22,-68.49 758.94,-68 787.72,-62.8 1218.11,-28.83 1338.1,-19.41"/>
<polygon fill="#63b8ff" stroke="#63b8ff" points="1338.02,-22.85 1347.72,-18.58 1337.47,-15.87 1338.02,-22.85"/>
</a>
</g>
</g>
<!-- Node4&#45;&gt;Node9 -->
<g id="edge8_Node000004_Node000009" class="edge">
<title>Node4&#45;&gt;Node9</title>
<g id="a_edge8_Node000004_Node000009"><a xlink:title=" ">
<path fill="none" stroke="#63b8ff" d="M750.62,-69.94C753.41,-69.23 756.23,-68.56 758.94,-68 887.52,-41.47 1043.42,-25.65 1109.21,-19.71"/>
<polygon fill="#63b8ff" stroke="#63b8ff" points="1109.41,-23.11 1119.07,-18.74 1108.8,-16.14 1109.41,-23.11"/>
</a>
</g>
</g>
<!-- Node4&#45;&gt;Node10 -->
<g id="edge9_Node000004_Node000010" class="edge">
<title>Node4&#45;&gt;Node10</title>
<g id="a_edge9_Node000004_Node000010"><a xlink:title=" ">
<path fill="none" stroke="#63b8ff" d="M750.58,-69.73C753.38,-69.06 756.21,-68.46 758.94,-68 1039.52,-21.22 1114.11,-50.69 1397.94,-32 1458.57,-28.01 1529.51,-22.45 1568.19,-19.34"/>
<polygon fill="#63b8ff" stroke="#63b8ff" points="1568.43,-22.75 1578.11,-18.46 1567.86,-15.77 1568.43,-22.75"/>
</a>
</g>
</g>
<!-- Node4&#45;&gt;Node11 -->
<g id="edge10_Node000004_Node000011" class="edge">
<title>Node4&#45;&gt;Node11</title>
<g id="a_edge10_Node000004_Node000011"><a xlink:title=" ">
<path fill="none" stroke="#63b8ff" d="M750.8,-68.53C780.93,-57.83 832.8,-39.42 865.69,-27.74"/>
<polygon fill="#63b8ff" stroke="#63b8ff" points="866.4,-30.85 874.65,-24.21 864.05,-24.25 866.4,-30.85"/>
</a>
</g>
</g>
<!-- Node12&#45;&gt;Node5 -->
<g id="edge12_Node000012_Node000005" class="edge">
<title>Node12&#45;&gt;Node5</title>
<g id="a_edge12_Node000012_Node000005"><a xlink:title=" ">
<path fill="none" stroke="#63b8ff" d="M768.12,-69.61C765.02,-69.04 761.93,-68.49 758.94,-68 640.21,-48.45 500.28,-31.81 423.53,-23.23"/>
<polygon fill="#63b8ff" stroke="#63b8ff" points="424,-19.64 413.68,-22.02 423.23,-26.6 424,-19.64"/>
</a>
</g>
</g>
<!-- Node12&#45;&gt;Node6 -->
<g id="edge13_Node000012_Node000006" class="edge">
<title>Node12&#45;&gt;Node6</title>
<g id="a_edge13_Node000012_Node000006"><a xlink:title=" ">
<path fill="none" stroke="#63b8ff" d="M772.07,-67.62C734.78,-56.66 673.27,-38.57 634.76,-27.24"/>
<polygon fill="#63b8ff" stroke="#63b8ff" points="636.13,-23.7 625.55,-24.24 634.16,-30.42 636.13,-23.7"/>
</a>
</g>
</g>
<!-- Node12&#45;&gt;Node7 -->
<g id="edge14_Node000012_Node000007" class="edge">
<title>Node12&#45;&gt;Node7</title>
<g id="a_edge14_Node000012_Node000007"><a xlink:title=" ">
<path fill="none" stroke="#63b8ff" d="M768.15,-69.45C765.04,-68.91 761.94,-68.42 758.94,-68 561.11,-40.37 508.97,-58.22 310.94,-32 293.83,-29.73 274.85,-26.27 259.56,-23.24"/>
<polygon fill="#63b8ff" stroke="#63b8ff" points="260.66,-19.69 250.17,-21.14 259.27,-26.55 260.66,-19.69"/>
</a>
</g>
</g>
<!-- Node12&#45;&gt;Node8 -->
<g id="edge15_Node000012_Node000008" class="edge">
<title>Node12&#45;&gt;Node8</title>
<g id="a_edge15_Node000012_Node000008"><a xlink:title=" ">
<path fill="none" stroke="#63b8ff" d="M839.89,-73.08C854.49,-71.5 871.52,-69.65 886.94,-68 1057.25,-49.76 1261.46,-28.28 1337.98,-20.25"/>
<polygon fill="#63b8ff" stroke="#63b8ff" points="1338.16,-23.64 1347.74,-19.12 1337.43,-16.68 1338.16,-23.64"/>
</a>
</g>
</g>
<!-- Node12&#45;&gt;Node9 -->
<g id="edge16_Node000012_Node000009" class="edge">
<title>Node12&#45;&gt;Node9</title>
<g id="a_edge16_Node000012_Node000009"><a xlink:title=" ">
<path fill="none" stroke="#63b8ff" d="M840.01,-70.58C906.32,-58.77 1046.57,-33.8 1109.37,-22.62"/>
<polygon fill="#63b8ff" stroke="#63b8ff" points="1109.58,-25.96 1118.81,-20.76 1108.36,-19.07 1109.58,-25.96"/>
</a>
</g>
</g>
<!-- Node12&#45;&gt;Node10 -->
<g id="edge17_Node000012_Node000010" class="edge">
<title>Node12&#45;&gt;Node10</title>
<g id="a_edge17_Node000012_Node000010"><a xlink:title=" ">
<path fill="none" stroke="#63b8ff" d="M839.87,-72.81C854.46,-71.18 871.5,-69.38 886.94,-68 1113.71,-47.72 1170.87,-48.56 1397.94,-32 1458.54,-27.58 1529.49,-22.18 1568.18,-19.21"/>
<polygon fill="#63b8ff" stroke="#63b8ff" points="1568.4,-22.63 1578.11,-18.37 1567.87,-15.65 1568.4,-22.63"/>
</a>
</g>
</g>
<!-- Node12&#45;&gt;Node11 -->
<g id="edge18_Node000012_Node000011" class="edge">
<title>Node12&#45;&gt;Node11</title>
<g id="a_edge18_Node000012_Node000011"><a xlink:title=" ">
<path fill="none" stroke="#63b8ff" d="M818.32,-67.62C832.9,-58.11 855.7,-43.24 872.83,-32.08"/>
<polygon fill="#63b8ff" stroke="#63b8ff" points="874.21,-34.7 880.67,-26.31 870.38,-28.84 874.21,-34.7"/>
</a>
</g>
</g>
<!-- Node13&#45;&gt;Node5 -->
<g id="edge50_Node000013_Node000005" class="edge">
<title>Node13&#45;&gt;Node5</title>
<g id="a_edge50_Node000013_Node000005"><a xlink:title=" ">
<path fill="none" stroke="#63b8ff" d="M877.35,-184.56C723.38,-172.09 311.32,-134.62 272.94,-88 255.97,-67.38 280.97,-49.21 309.3,-36.41"/>
<polygon fill="#63b8ff" stroke="#63b8ff" points="310.57,-39.25 318.4,-32.12 307.83,-32.81 310.57,-39.25"/>
</a>
</g>
</g>
<!-- Node13&#45;&gt;Node6 -->
<g id="edge51_Node000013_Node000006" class="edge">
<title>Node13&#45;&gt;Node6</title>
<g id="a_edge51_Node000013_Node000006"><a xlink:title=" ">
<path fill="none" stroke="#63b8ff" d="M877.6,-184.54C770.29,-174.84 545.88,-147.74 500.94,-88 479.59,-59.62 528.85,-37.92 565.27,-26.35"/>
<polygon fill="#63b8ff" stroke="#63b8ff" points="566.04,-29.47 574.6,-23.22 564.01,-22.77 566.04,-29.47"/>
</a>
</g>
</g>
<!-- Node13&#45;&gt;Node7 -->
<g id="edge52_Node000013_Node000007" class="edge">
<title>Node13&#45;&gt;Node7</title>
<g id="a_edge52_Node000013_Node000007"><a xlink:title=" ">
<path fill="none" stroke="#63b8ff" d="M877.61,-185.16C755.38,-176.83 472.54,-156.86 376.94,-144 343.77,-139.54 102.3,-113.77 80.94,-88 45.86,-45.65 147.12,-26.9 200.01,-20.16"/>
<polygon fill="#63b8ff" stroke="#63b8ff" points="200.29,-23.53 209.8,-18.87 199.46,-16.58 200.29,-23.53"/>
</a>
</g>
</g>
<!-- Node13&#45;&gt;Node8 -->
<g id="edge53_Node000013_Node000008" class="edge">
<title>Node13&#45;&gt;Node8</title>
<g id="a_edge53_Node000013_Node000008"><a xlink:title=" ">
<path fill="none" stroke="#63b8ff" d="M992.42,-188.54C1125.42,-186.86 1445.55,-179.19 1477.94,-144 1500.82,-119.15 1496.07,-96.5 1477.94,-68 1460.95,-41.28 1425.87,-28.32 1400.07,-22.2"/>
<polygon fill="#63b8ff" stroke="#63b8ff" points="1400.83,-18.57 1390.32,-19.9 1399.37,-25.41 1400.83,-18.57"/>
</a>
</g>
</g>
<!-- Node13&#45;&gt;Node9 -->
<g id="edge54_Node000013_Node000009" class="edge">
<title>Node13&#45;&gt;Node9</title>
<g id="a_edge54_Node000013_Node000009"><a xlink:title=" ">
<path fill="none" stroke="#63b8ff" d="M992.37,-185.77C1087.37,-179.85 1268.75,-165.79 1287.94,-144 1310.27,-118.65 1307.53,-95.52 1287.94,-68 1261.87,-31.36 1207.54,-20.8 1172.73,-17.91"/>
<polygon fill="#63b8ff" stroke="#63b8ff" points="1173.39,-14.37 1163.18,-17.21 1172.93,-21.36 1173.39,-14.37"/>
</a>
</g>
</g>
<!-- Node13&#45;&gt;Node10 -->
<g id="edge55_Node000013_Node000010" class="edge">
<title>Node13&#45;&gt;Node10</title>
<g id="a_edge55_Node000013_Node000010"><a xlink:title=" ">
<path fill="none" stroke="#63b8ff" d="M992.35,-187.78C1167,-183.79 1681.52,-169.89 1705.94,-144 1729.12,-119.43 1724.07,-96.5 1705.94,-68 1688.36,-40.36 1651.43,-27.45 1625.44,-21.59"/>
<polygon fill="#63b8ff" stroke="#63b8ff" points="1626.22,-17.97 1615.72,-19.43 1624.83,-24.83 1626.22,-17.97"/>
</a>
</g>
</g>
<!-- Node13&#45;&gt;Node11 -->
<g id="edge56_Node000013_Node000011" class="edge">
<title>Node13&#45;&gt;Node11</title>
<g id="a_edge56_Node000013_Node000011"><a xlink:title=" ">
<path fill="none" stroke="#63b8ff" d="M941.13,-179.71C954.23,-158.76 982.09,-106.64 962.94,-68 955.09,-52.14 939.68,-39.88 925.61,-31.35"/>
<polygon fill="#63b8ff" stroke="#63b8ff" points="927.64,-27.91 917.2,-26.05 924.2,-34.01 927.64,-27.91"/>
</a>
</g>
</g>
<!-- Node14 -->
<g id="Node000014" class="node">
<title>Node14</title>
<g id="a_Node000014"><a xlink:href="../../d0/d95/Twist_8h.html" target="_top" xlink:title=" ">
<polygon fill="white" stroke="#666666" points="948.32,-144 901.57,-144 901.57,-124 948.32,-124 948.32,-144"/>
<text text-anchor="middle" x="924.94" y="-130.5" font-family="Helvetica,sans-Serif" font-size="10.00">Twist.h</text>
</a>
</g>
</g>
<!-- Node13&#45;&gt;Node14 -->
<g id="edge34_Node000013_Node000014" class="edge">
<title>Node13&#45;&gt;Node14</title>
<g id="a_edge34_Node000013_Node000014"><a xlink:title=" ">
<path fill="none" stroke="#63b8ff" d="M933.2,-179.59C931.94,-172.78 930.19,-163.32 928.62,-154.86"/>
<polygon fill="#63b8ff" stroke="#63b8ff" points="931.93,-154.49 926.67,-145.3 925.05,-155.77 931.93,-154.49"/>
</a>
</g>
</g>
<!-- Node14&#45;&gt;Node5 -->
<g id="edge43_Node000014_Node000005" class="edge">
<title>Node14&#45;&gt;Node5</title>
<g id="a_edge43_Node000014_Node000005"><a xlink:title=" ">
<path fill="none" stroke="#63b8ff" d="M901.41,-130.22C851.7,-124.15 732.52,-108.62 633.94,-88 560.4,-72.62 476.91,-49.6 422.93,-33.97"/>
<polygon fill="#63b8ff" stroke="#63b8ff" points="424.13,-30.38 413.55,-30.95 422.17,-37.1 424.13,-30.38"/>
</a>
</g>
</g>
<!-- Node14&#45;&gt;Node6 -->
<g id="edge44_Node000014_Node000006" class="edge">
<title>Node14&#45;&gt;Node6</title>
<g id="a_edge44_Node000014_Node000006"><a xlink:title=" ">
<path fill="none" stroke="#63b8ff" d="M901.48,-131.01C844.99,-125.89 703.05,-111.06 661.94,-88 639.84,-75.6 621.79,-52.22 610.98,-35.68"/>
<polygon fill="#63b8ff" stroke="#63b8ff" points="613.47,-34.07 605.21,-27.43 607.53,-37.77 613.47,-34.07"/>
</a>
</g>
</g>
<!-- Node14&#45;&gt;Node7 -->
<g id="edge45_Node000014_Node000007" class="edge">
<title>Node14&#45;&gt;Node7</title>
<g id="a_edge45_Node000014_Node000007"><a xlink:title=" ">
<path fill="none" stroke="#63b8ff" d="M901.07,-130.98C841.42,-125.74 681.15,-110.57 548.94,-88 441.68,-69.69 316.09,-38.97 259.84,-24.7"/>
<polygon fill="#63b8ff" stroke="#63b8ff" points="260.78,-21.08 250.23,-22 259.06,-27.86 260.78,-21.08"/>
</a>
</g>
</g>
<!-- Node14&#45;&gt;Node8 -->
<g id="edge46_Node000014_Node000008" class="edge">
<title>Node14&#45;&gt;Node8</title>
<g id="a_edge46_Node000014_Node000008"><a xlink:title=" ">
<path fill="none" stroke="#63b8ff" d="M948.73,-130.98C1039.12,-123.24 1356.63,-95.55 1363.94,-88 1376.81,-74.72 1376.34,-52.7 1373.73,-36.7"/>
<polygon fill="#63b8ff" stroke="#63b8ff" points="1377.04,-36.42 1371.61,-27.32 1370.18,-37.82 1377.04,-36.42"/>
</a>
</g>
</g>
<!-- Node14&#45;&gt;Node9 -->
<g id="edge47_Node000014_Node000009" class="edge">
<title>Node14&#45;&gt;Node9</title>
<g id="a_edge47_Node000014_Node000009"><a xlink:title=" ">
<path fill="none" stroke="#63b8ff" d="M948.78,-131.43C998.7,-127.6 1111.62,-115.99 1135.94,-88 1147.96,-74.18 1147.74,-52.56 1145.42,-36.81"/>
<polygon fill="#63b8ff" stroke="#63b8ff" points="1148.7,-36.31 1143.41,-27.13 1141.82,-37.61 1148.7,-36.31"/>
</a>
</g>
</g>
<!-- Node14&#45;&gt;Node10 -->
<g id="edge48_Node000014_Node000010" class="edge">
<title>Node14&#45;&gt;Node10</title>
<g id="a_edge48_Node000014_Node000010"><a xlink:title=" ">
<path fill="none" stroke="#63b8ff" d="M948.72,-131.05C971.97,-129.16 1008.38,-126.26 1039.94,-124 1101.25,-119.6 1548.37,-131.35 1591.94,-88 1605.06,-74.96 1604.54,-52.9 1601.86,-36.82"/>
<polygon fill="#63b8ff" stroke="#63b8ff" points="1605.15,-36.46 1599.68,-27.39 1598.3,-37.89 1605.15,-36.46"/>
</a>
</g>
</g>
<!-- Node14&#45;&gt;Node11 -->
<g id="edge49_Node000014_Node000011" class="edge">
<title>Node14&#45;&gt;Node11</title>
<g id="a_edge49_Node000014_Node000011"><a xlink:title=" ">
<path fill="none" stroke="#63b8ff" d="M913.5,-123.65C904.35,-115.38 892.21,-102.4 886.94,-88 880.81,-71.24 884.39,-50.94 888.72,-36.35"/>
<polygon fill="#63b8ff" stroke="#63b8ff" points="892.31,-37.64 892.18,-27.04 885.68,-35.41 892.31,-37.64"/>
</a>
</g>
</g>
<!-- Node15 -->
<g id="Node000015" class="node">
<title>Node15</title>
<g id="a_Node000015"><a xlink:href="../../dd/d8c/Vector3_8h.html" target="_top" xlink:title=" ">
<polygon fill="white" stroke="#666666" points="953.94,-88 895.94,-88 895.94,-68 953.94,-68 953.94,-88"/>
<text text-anchor="middle" x="924.94" y="-74.5" font-family="Helvetica,sans-Serif" font-size="10.00">Vector3.h</text>
</a>
</g>
</g>
<!-- Node14&#45;&gt;Node15 -->
<g id="edge35_Node000014_Node000015" class="edge">
<title>Node14&#45;&gt;Node15</title>
<g id="a_edge35_Node000014_Node000015"><a xlink:title=" ">
<path fill="none" stroke="#63b8ff" d="M924.94,-123.59C924.94,-116.86 924.94,-107.53 924.94,-99.15"/>
<polygon fill="#63b8ff" stroke="#63b8ff" points="928.44,-99.3 924.94,-89.3 921.44,-99.3 928.44,-99.3"/>
</a>
</g>
</g>
<!-- Node15&#45;&gt;Node5 -->
<g id="edge36_Node000015_Node000005" class="edge">
<title>Node15&#45;&gt;Node5</title>
<g id="a_edge36_Node000015_Node000005"><a xlink:title=" ">
<path fill="none" stroke="#63b8ff" d="M895.72,-73.45C881.59,-71.76 864.39,-69.73 848.94,-68 695.3,-50.79 513.98,-32.07 423.44,-22.83"/>
<polygon fill="#63b8ff" stroke="#63b8ff" points="423.89,-19.26 413.59,-21.73 423.18,-26.22 423.89,-19.26"/>
</a>
</g>
</g>
<!-- Node15&#45;&gt;Node6 -->
<g id="edge37_Node000015_Node000006" class="edge">
<title>Node15&#45;&gt;Node6</title>
<g id="a_edge37_Node000015_Node000006"><a xlink:title=" ">
<path fill="none" stroke="#63b8ff" d="M895.53,-71.57C835.56,-60.5 699.41,-35.36 634.98,-23.47"/>
<polygon fill="#63b8ff" stroke="#63b8ff" points="636.02,-19.92 625.55,-21.54 634.75,-26.8 636.02,-19.92"/>
</a>
</g>
</g>
<!-- Node15&#45;&gt;Node7 -->
<g id="edge38_Node000015_Node000007" class="edge">
<title>Node15&#45;&gt;Node7</title>
<g id="a_edge38_Node000015_Node000007"><a xlink:title=" ">
<path fill="none" stroke="#63b8ff" d="M895.75,-73.19C881.63,-71.44 864.42,-69.43 848.94,-68 610.32,-45.9 548.72,-61.87 310.94,-32 293.82,-29.85 274.83,-26.39 259.55,-23.34"/>
<polygon fill="#63b8ff" stroke="#63b8ff" points="260.66,-19.79 250.16,-21.21 259.25,-26.64 260.66,-19.79"/>
</a>
</g>
</g>
<!-- Node15&#45;&gt;Node8 -->
<g id="edge39_Node000015_Node000008" class="edge">
<title>Node15&#45;&gt;Node8</title>
<g id="a_edge39_Node000015_Node000008"><a xlink:title=" ">
<path fill="none" stroke="#63b8ff" d="M954.42,-73.02C1034.7,-62.17 1256.68,-32.17 1338.31,-21.14"/>
<polygon fill="#63b8ff" stroke="#63b8ff" points="1338.42,-24.52 1347.87,-19.71 1337.49,-17.58 1338.42,-24.52"/>
</a>
</g>
</g>
<!-- Node15&#45;&gt;Node9 -->
<g id="edge40_Node000015_Node000009" class="edge">
<title>Node15&#45;&gt;Node9</title>
<g id="a_edge40_Node000015_Node000009"><a xlink:title=" ">
<path fill="none" stroke="#63b8ff" d="M954.07,-68.91C994.56,-57.66 1067.56,-37.38 1109.33,-25.78"/>
<polygon fill="#63b8ff" stroke="#63b8ff" points="1110.03,-28.94 1118.73,-22.89 1108.16,-22.2 1110.03,-28.94"/>
</a>
</g>
</g>
<!-- Node15&#45;&gt;Node10 -->
<g id="edge41_Node000015_Node000010" class="edge">
<title>Node15&#45;&gt;Node10</title>
<g id="a_edge41_Node000015_Node000010"><a xlink:title=" ">
<path fill="none" stroke="#63b8ff" d="M954.25,-74.38C1065.15,-64.48 1458.37,-29.37 1568.24,-19.56"/>
<polygon fill="#63b8ff" stroke="#63b8ff" points="1568.45,-22.97 1578.09,-18.59 1567.82,-16 1568.45,-22.97"/>
</a>
</g>
</g>
<!-- Node15&#45;&gt;Node11 -->
<g id="edge42_Node000015_Node000011" class="edge">
<title>Node15&#45;&gt;Node11</title>
<g id="a_edge42_Node000015_Node000011"><a xlink:title=" ">
<path fill="none" stroke="#63b8ff" d="M920.41,-67.62C916.3,-59.12 910.12,-46.33 905,-35.74"/>
<polygon fill="#63b8ff" stroke="#63b8ff" points="907.85,-34.59 900.35,-27.11 901.55,-37.64 907.85,-34.59"/>
</a>
</g>
</g>
<!-- Node16&#45;&gt;Node5 -->
<g id="edge66_Node000016_Node000005" class="edge">
<title>Node16&#45;&gt;Node5</title>
<g id="a_edge66_Node000016_Node000005"><a xlink:title=" ">
<path fill="none" stroke="#63b8ff" d="M1048.13,-130.5C967.2,-123.14 732.79,-101.27 656.94,-88 574.84,-73.64 481.48,-49.43 423.14,-33.33"/>
<polygon fill="#63b8ff" stroke="#63b8ff" points="424.24,-29.73 413.67,-30.43 422.37,-36.47 424.24,-29.73"/>
</a>
</g>
</g>
<!-- Node16&#45;&gt;Node6 -->
<g id="edge67_Node000016_Node000006" class="edge">
<title>Node16&#45;&gt;Node6</title>
<g id="a_edge67_Node000016_Node000006"><a xlink:title=" ">
<path fill="none" stroke="#63b8ff" d="M1048.08,-130.55C965.81,-123.2 727.61,-101.04 694.94,-88 664.05,-75.67 634.31,-50.62 616.58,-33.82"/>
<polygon fill="#63b8ff" stroke="#63b8ff" points="619.49,-31.8 609.88,-27.33 614.6,-36.81 619.49,-31.8"/>
</a>
</g>
</g>
<!-- Node16&#45;&gt;Node7 -->
<g id="edge68_Node000016_Node000007" class="edge">
<title>Node16&#45;&gt;Node7</title>
<g id="a_edge68_Node000016_Node000007"><a xlink:title=" ">
<path fill="none" stroke="#63b8ff" d="M1048.25,-130.81C947.77,-122.82 605.68,-95.37 556.94,-88 446.28,-71.26 316.98,-39.5 259.77,-24.81"/>
<polygon fill="#63b8ff" stroke="#63b8ff" points="260.88,-21.23 250.32,-22.11 259.12,-28 260.88,-21.23"/>
</a>
</g>
</g>
<!-- Node16&#45;&gt;Node8 -->
<g id="edge69_Node000016_Node000008" class="edge">
<title>Node16&#45;&gt;Node8</title>
<g id="a_edge69_Node000016_Node000008"><a xlink:title=" ">
<path fill="none" stroke="#63b8ff" d="M1103.71,-133.59C1175.29,-134.47 1363.23,-132.42 1401.94,-88 1415.81,-72.09 1400.72,-49.37 1386.7,-33.94"/>
<polygon fill="#63b8ff" stroke="#63b8ff" points="1389.68,-31.96 1380.21,-27.21 1384.65,-36.83 1389.68,-31.96"/>
</a>
</g>
</g>
<!-- Node16&#45;&gt;Node9 -->
<g id="edge70_Node000016_Node000009" class="edge">
<title>Node16&#45;&gt;Node9</title>
<g id="a_edge70_Node000016_Node000009"><a xlink:title=" ">
<path fill="none" stroke="#63b8ff" d="M1103.86,-132.75C1135.94,-130.77 1187.33,-122.07 1211.94,-88 1228.06,-65.7 1197.31,-43.91 1171.36,-30.47"/>
<polygon fill="#63b8ff" stroke="#63b8ff" points="1173.28,-27.02 1162.76,-25.75 1170.19,-33.31 1173.28,-27.02"/>
</a>
</g>
</g>
<!-- Node16&#45;&gt;Node10 -->
<g id="edge71_Node000016_Node000010" class="edge">
<title>Node16&#45;&gt;Node10</title>
<g id="a_edge71_Node000016_Node000010"><a xlink:title=" ">
<path fill="none" stroke="#63b8ff" d="M1103.59,-132.9C1210.68,-132.21 1593.97,-127.02 1629.94,-88 1644.25,-72.49 1629.07,-49.68 1614.9,-34.13"/>
<polygon fill="#63b8ff" stroke="#63b8ff" points="1617.81,-32.06 1608.33,-27.33 1612.78,-36.94 1617.81,-32.06"/>
</a>
</g>
</g>
<!-- Node16&#45;&gt;Node11 -->
<g id="edge72_Node000016_Node000011" class="edge">
<title>Node16&#45;&gt;Node11</title>
<g id="a_edge72_Node000016_Node000011"><a xlink:title=" ">
<path fill="none" stroke="#63b8ff" d="M1085.26,-123.79C1097.65,-110.41 1116.51,-85.31 1102.94,-68 1081.41,-40.52 979.2,-25.84 926.91,-20.03"/>
<polygon fill="#63b8ff" stroke="#63b8ff" points="927.57,-16.47 917.26,-18.89 926.83,-23.43 927.57,-16.47"/>
</a>
</g>
</g>
<!-- Node17 -->
<g id="Node000017" class="node">
<title>Node17</title>
<g id="a_Node000017"><a xlink:href="../../d9/d3d/ros2_2types_2Time_8h.html" target="_top" xlink:title=" ">
<polygon fill="white" stroke="#666666" points="1093.57,-88 1048.32,-88 1048.32,-68 1093.57,-68 1093.57,-88"/>
<text text-anchor="middle" x="1070.94" y="-74.5" font-family="Helvetica,sans-Serif" font-size="10.00">Time.h</text>
</a>
</g>
</g>
<!-- Node16&#45;&gt;Node17 -->
<g id="edge58_Node000016_Node000017" class="edge">
<title>Node16&#45;&gt;Node17</title>
<g id="a_edge58_Node000016_Node000017"><a xlink:title=" ">
<path fill="none" stroke="#63b8ff" d="M1075.07,-123.59C1074.45,-116.86 1073.59,-107.53 1072.81,-99.15"/>
<polygon fill="#63b8ff" stroke="#63b8ff" points="1076.21,-98.93 1071.8,-89.3 1069.24,-99.58 1076.21,-98.93"/>
</a>
</g>
</g>
<!-- Node17&#45;&gt;Node5 -->
<g id="edge59_Node000017_Node000005" class="edge">
<title>Node17&#45;&gt;Node5</title>
<g id="a_edge59_Node000017_Node000005"><a xlink:title=" ">
<path fill="none" stroke="#63b8ff" d="M1047.89,-75.04C950.29,-66.73 569.45,-34.32 423.39,-21.89"/>
<polygon fill="#63b8ff" stroke="#63b8ff" points="423.73,-18.32 413.47,-20.96 423.13,-25.29 423.73,-18.32"/>
</a>
</g>
</g>
<!-- Node17&#45;&gt;Node6 -->
<g id="edge60_Node000017_Node000006" class="edge">
<title>Node17&#45;&gt;Node6</title>
<g id="a_edge60_Node000017_Node000006"><a xlink:title=" ">
<path fill="none" stroke="#63b8ff" d="M1047.91,-74.07C971.58,-64.34 726.62,-33.14 634.98,-21.46"/>
<polygon fill="#63b8ff" stroke="#63b8ff" points="635.7,-17.9 625.34,-20.11 634.82,-24.84 635.7,-17.9"/>
</a>
</g>
</g>
<!-- Node17&#45;&gt;Node7 -->
<g id="edge61_Node000017_Node000007" class="edge">
<title>Node17&#45;&gt;Node7</title>
<g id="a_edge61_Node000017_Node000007"><a xlink:title=" ">
<path fill="none" stroke="#63b8ff" d="M1048.2,-74.92C1026.36,-72.96 992.41,-70.04 962.94,-68 673.42,-47.95 599.11,-66.49 310.94,-32 293.8,-29.95 274.82,-26.5 259.54,-23.42"/>
<polygon fill="#63b8ff" stroke="#63b8ff" points="260.65,-19.87 250.15,-21.27 259.23,-26.73 260.65,-19.87"/>
</a>
</g>
</g>
<!-- Node17&#45;&gt;Node8 -->
<g id="edge62_Node000017_Node000008" class="edge">
<title>Node17&#45;&gt;Node8</title>
<g id="a_edge62_Node000017_Node000008"><a xlink:title=" ">
<path fill="none" stroke="#63b8ff" d="M1093.83,-72.39C1146.84,-61.72 1278.07,-35.3 1338.09,-23.21"/>
<polygon fill="#63b8ff" stroke="#63b8ff" points="1338.65,-26.47 1347.77,-21.06 1337.27,-19.61 1338.65,-26.47"/>
</a>
</g>
</g>
<!-- Node17&#45;&gt;Node9 -->
<g id="edge63_Node000017_Node000009" class="edge">
<title>Node17&#45;&gt;Node9</title>
<g id="a_edge63_Node000017_Node000009"><a xlink:title=" ">
<path fill="none" stroke="#63b8ff" d="M1081.88,-67.62C1092.63,-58.41 1109.24,-44.17 1122.12,-33.14"/>
<polygon fill="#63b8ff" stroke="#63b8ff" points="1124,-35.28 1129.31,-26.11 1119.44,-29.96 1124,-35.28"/>
</a>
</g>
</g>
<!-- Node17&#45;&gt;Node10 -->
<g id="edge64_Node000017_Node000010" class="edge">
<title>Node17&#45;&gt;Node10</title>
<g id="a_edge64_Node000017_Node000010"><a xlink:title=" ">
<path fill="none" stroke="#63b8ff" d="M1093.88,-74.38C1178.74,-64.7 1474.77,-30.94 1568.35,-20.26"/>
<polygon fill="#63b8ff" stroke="#63b8ff" points="1568.68,-23.63 1578.22,-19.02 1567.88,-16.68 1568.68,-23.63"/>
</a>
</g>
</g>
<!-- Node17&#45;&gt;Node11 -->
<g id="edge65_Node000017_Node000011" class="edge">
<title>Node17&#45;&gt;Node11</title>
<g id="a_edge65_Node000017_Node000011"><a xlink:title=" ">
<path fill="none" stroke="#63b8ff" d="M1048.07,-69.16C1016.92,-58.48 961.08,-39.33 926.41,-27.45"/>
<polygon fill="#63b8ff" stroke="#63b8ff" points="927.97,-23.94 917.38,-24.01 925.7,-30.56 927.97,-23.94"/>
</a>
</g>
</g>
</g>
</svg>
