<?xml version="1.0" encoding="UTF-8" standalone="no"?>
<!DOCTYPE svg PUBLIC "-//W3C//DTD SVG 1.1//EN"
 "http://www.w3.org/Graphics/SVG/1.1/DTD/svg11.dtd">
<!-- Generated by graphviz version 8.1.0 (20230707.0739)
 -->
<!-- Title: carla::streaming::detail::token_data Pages: 1 -->
<svg width="550pt" height="108pt"
 viewBox="0.00 0.00 550.25 108.00" xmlns="http://www.w3.org/2000/svg" xmlns:xlink="http://www.w3.org/1999/xlink">
<g id="graph0" class="graph" transform="scale(1 1) rotate(0) translate(4 104)">
<title>carla::streaming::detail::token_data</title>
<!-- Node1 -->
<g id="Node000001" class="node">
<title>Node1</title>
<g id="a_Node000001"><a xlink:title=" ">
<polygon fill="#999999" stroke="#666666" points="341.75,-32 226.75,-32 226.75,0 341.75,0 341.75,-32"/>
<text text-anchor="start" x="234.75" y="-18.5" font-family="Helvetica,sans-Serif" font-size="10.00">carla::streaming::detail</text>
<text text-anchor="middle" x="284.25" y="-6.5" font-family="Helvetica,sans-Serif" font-size="10.00">::token_data</text>
</a>
</g>
</g>
<!-- Node2 -->
<g id="Node000002" class="node">
<title>Node2</title>
<g id="a_Node000002"><a xlink:title=" ">
<polygon fill="white" stroke="#666666" points="50.5,-100 0,-100 0,-80 50.5,-80 50.5,-100"/>
<text text-anchor="middle" x="25.25" y="-86.5" font-family="Helvetica,sans-Serif" font-size="10.00">protocol</text>
</a>
</g>
</g>
<!-- Node2&#45;&gt;Node1 -->
<g id="edge1_Node000001_Node000002" class="edge">
<title>Node2&#45;&gt;Node1</title>
<g id="a_edge1_Node000001_Node000002"><a xlink:title=" ">
<path fill="none" stroke="#9a32cd" stroke-dasharray="5,2" d="M54.9,-75.2C73.49,-66.97 98.15,-56.83 120.75,-50 155.26,-39.57 194.88,-31.48 226.47,-25.92"/>
<polygon fill="#9a32cd" stroke="#9a32cd" points="53.66,-72.37 45.97,-79.66 56.53,-78.75 53.66,-72.37"/>
</a>
</g>
<text text-anchor="middle" x="140" y="-52.5" font-family="Helvetica,sans-Serif" font-size="10.00" fill="grey"> protocol</text>
</g>
<!-- Node3 -->
<g id="Node000003" class="node">
<title>Node3</title>
<g id="a_Node000003"><a xlink:title=" ">
<polygon fill="white" stroke="#666666" points="172.12,-100 68.38,-100 68.38,-80 172.12,-80 172.12,-100"/>
<text text-anchor="middle" x="120.25" y="-86.5" font-family="Helvetica,sans-Serif" font-size="10.00">anonymous:address</text>
</a>
</g>
</g>
<!-- Node3&#45;&gt;Node1 -->
<g id="edge2_Node000001_Node000003" class="edge">
<title>Node3&#45;&gt;Node1</title>
<g id="a_edge2_Node000001_Node000003"><a xlink:title=" ">
<path fill="none" stroke="#9a32cd" stroke-dasharray="5,2" d="M142.53,-73.83C154.65,-66.02 170.12,-56.74 184.75,-50 199.13,-43.37 215.23,-37.44 230.21,-32.49"/>
<polygon fill="#9a32cd" stroke="#9a32cd" points="141.03,-71.29 134.6,-79.71 144.88,-77.13 141.03,-71.29"/>
</a>
</g>
<text text-anchor="middle" x="203" y="-52.5" font-family="Helvetica,sans-Serif" font-size="10.00" fill="grey"> address</text>
</g>
<!-- Node4 -->
<g id="Node000004" class="node">
<title>Node4</title>
<g id="a_Node000004"><a xlink:title=" ">
<polygon fill="white" stroke="#666666" points="240.5,-100 190,-100 190,-80 240.5,-80 240.5,-100"/>
<text text-anchor="middle" x="215.25" y="-86.5" font-family="Helvetica,sans-Serif" font-size="10.00">uint32_t</text>
</a>
</g>
</g>
<!-- Node4&#45;&gt;Node1 -->
<g id="edge3_Node000001_Node000004" class="edge">
<title>Node4&#45;&gt;Node1</title>
<g id="a_edge3_Node000001_Node000004"><a xlink:title=" ">
<path fill="none" stroke="#9a32cd" stroke-dasharray="5,2" d="M222.33,-69.73C225.4,-63.01 229.46,-55.73 234.5,-50 240.39,-43.31 247.94,-37.39 255.36,-32.48"/>
<polygon fill="#9a32cd" stroke="#9a32cd" points="218.87,-67.94 218.32,-78.52 225.35,-70.59 218.87,-67.94"/>
</a>
</g>
<text text-anchor="middle" x="257.12" y="-52.5" font-family="Helvetica,sans-Serif" font-size="10.00" fill="grey"> stream_id</text>
</g>
<!-- Node5 -->
<g id="Node000005" class="node">
<title>Node5</title>
<g id="a_Node000005"><a xlink:title=" ">
<polygon fill="white" stroke="#666666" points="309.5,-100 259,-100 259,-80 309.5,-80 309.5,-100"/>
<text text-anchor="middle" x="284.25" y="-86.5" font-family="Helvetica,sans-Serif" font-size="10.00">uint16_t</text>
</a>
</g>
</g>
<!-- Node5&#45;&gt;Node1 -->
<g id="edge4_Node000001_Node000005" class="edge">
<title>Node5&#45;&gt;Node1</title>
<g id="a_edge4_Node000001_Node000005"><a xlink:title=" ">
<path fill="none" stroke="#9a32cd" stroke-dasharray="5,2" d="M284.25,-68.83C284.25,-57.31 284.25,-43.1 284.25,-32.47"/>
<polygon fill="#9a32cd" stroke="#9a32cd" points="280.75,-68.59 284.25,-78.59 287.75,-68.59 280.75,-68.59"/>
</a>
</g>
<text text-anchor="middle" x="294" y="-52.5" font-family="Helvetica,sans-Serif" font-size="10.00" fill="grey"> port</text>
</g>
<!-- Node6 -->
<g id="Node000006" class="node">
<title>Node6</title>
<g id="a_Node000006"><a xlink:title=" ">
<polygon fill="white" stroke="#666666" points="378.5,-100 328,-100 328,-80 378.5,-80 378.5,-100"/>
<text text-anchor="middle" x="353.25" y="-86.5" font-family="Helvetica,sans-Serif" font-size="10.00">address</text>
</a>
</g>
</g>
<!-- Node6&#45;&gt;Node1 -->
<g id="edge5_Node000001_Node000006" class="edge">
<title>Node6&#45;&gt;Node1</title>
<g id="a_edge5_Node000001_Node000006"><a xlink:title=" ">
<path fill="none" stroke="#9a32cd" stroke-dasharray="5,2" d="M336.65,-71.67C325.2,-59.73 310.12,-43.99 299.08,-32.47"/>
<polygon fill="#9a32cd" stroke="#9a32cd" points="333.78,-73.79 343.23,-78.59 338.84,-68.95 333.78,-73.79"/>
</a>
</g>
<text text-anchor="middle" x="357" y="-52.5" font-family="Helvetica,sans-Serif" font-size="10.00" fill="grey"> address_type</text>
</g>
<!-- Node7 -->
<g id="Node000007" class="node">
<title>Node7</title>
<g id="a_Node000007"><a xlink:title=" ">
<polygon fill="white" stroke="#666666" points="460.25,-100 396.25,-100 396.25,-80 460.25,-80 460.25,-100"/>
<text text-anchor="middle" x="428.25" y="-86.5" font-family="Helvetica,sans-Serif" font-size="10.00">bytes_type</text>
</a>
</g>
</g>
<!-- Node7&#45;&gt;Node1 -->
<g id="edge6_Node000001_Node000007" class="edge">
<title>Node7&#45;&gt;Node1</title>
<g id="a_edge6_Node000001_Node000007"><a xlink:title=" ">
<path fill="none" stroke="#9a32cd" stroke-dasharray="5,2" d="M415.45,-71.39C409.19,-63.87 401.11,-55.57 392.25,-50 377.14,-40.51 359.13,-33.59 342.18,-28.63"/>
<polygon fill="#9a32cd" stroke="#9a32cd" points="412.97,-72.9 421.88,-78.64 418.49,-68.6 412.97,-72.9"/>
</a>
</g>
<text text-anchor="middle" x="412.25" y="-52.5" font-family="Helvetica,sans-Serif" font-size="10.00" fill="grey"> v4</text>
</g>
<!-- Node8 -->
<g id="Node000008" class="node">
<title>Node8</title>
<g id="a_Node000008"><a xlink:title=" ">
<polygon fill="white" stroke="#666666" points="542.25,-100 478.25,-100 478.25,-80 542.25,-80 542.25,-100"/>
<text text-anchor="middle" x="510.25" y="-86.5" font-family="Helvetica,sans-Serif" font-size="10.00">bytes_type</text>
</a>
</g>
</g>
<!-- Node8&#45;&gt;Node1 -->
<g id="edge7_Node000001_Node000008" class="edge">
<title>Node8&#45;&gt;Node1</title>
<g id="a_edge7_Node000001_Node000008"><a xlink:title=" ">
<path fill="none" stroke="#9a32cd" stroke-dasharray="5,2" d="M481.92,-74.86C464.92,-66.78 442.7,-56.91 422.25,-50 396.35,-41.24 366.96,-33.88 341.98,-28.34"/>
<polygon fill="#9a32cd" stroke="#9a32cd" points="480.24,-78.42 490.76,-79.62 483.28,-72.12 480.24,-78.42"/>
</a>
</g>
<text text-anchor="middle" x="457.25" y="-52.5" font-family="Helvetica,sans-Serif" font-size="10.00" fill="grey"> v6</text>
</g>
</g>
</svg>
