<?xml version="1.0" encoding="UTF-8" standalone="no"?>
<!DOCTYPE svg PUBLIC "-//W3C//DTD SVG 1.1//EN"
 "http://www.w3.org/Graphics/SVG/1.1/DTD/svg11.dtd">
<!-- Generated by graphviz version 8.1.0 (20230707.0739)
 -->
<!-- Title: UBoundingBoxCalculator::CombineBBs Pages: 1 -->
<!--zoomable 297 -->

<svg id="main" version="1.1" xmlns="http://www.w3.org/2000/svg" xmlns:xlink="http://www.w3.org/1999/xlink" xml:space="preserve" onload="init(evt)">
<style type="text/css"><![CDATA[
.node, .edge {opacity: 0.7;}
.node.selected, .edge.selected {opacity: 1;}
.edge:hover path { stroke: red; }
.edge:hover polygon { stroke: red; fill: red; }
]]></style>

<defs>
  <circle id="rim" cx="0" cy="0" r="7"/>
  <circle id="rim2" cx="0" cy="0" r="3.5"/>
  <g id="zoomPlus">
    <use xlink:href="#rim" fill="#404040"><set attributeName="fill" to="#808080" begin="zoomplus.mouseover" end="zoomplus.mouseout"/></use>
    <path d="M-4,0h8M0,-4v8" fill="none" stroke="white" stroke-width="1.5" pointer-events="none"/>
  </g>
  <g id="zoomMin">
    <use xlink:href="#rim" fill="#404040"><set attributeName="fill" to="#808080" begin="zoomminus.mouseover" end="zoomminus.mouseout"/></use>
    <path d="M-4,0h8" fill="none" stroke="white" stroke-width="1.5" pointer-events="none"/>
  </g>
  <g id="arrowUp" transform="translate(30 24)">
    <use xlink:href="#rim"/>
    <path pointer-events="none" fill="none" stroke="white" stroke-width="1.5" d="M0,-3.0v7 M-2.5,-0.5L0,-3.0L2.5,-0.5"/>
  </g>
  <g id="arrowRight" transform="rotate(90) translate(36 -43)">
    <use xlink:href="#rim"/>
    <path pointer-events="none" fill="none" stroke="white" stroke-width="1.5" d="M0,-3.0v7 M-2.5,-0.5L0,-3.0L2.5,-0.5"/>
  </g>
  <g id="arrowDown" transform="rotate(180) translate(-30 -48)">
    <use xlink:href="#rim"/>
    <path pointer-events="none" fill="none" stroke="white" stroke-width="1.5" d="M0,-3.0v7 M-2.5,-0.5L0,-3.0L2.5,-0.5"/>
  </g>
  <g id="arrowLeft" transform="rotate(270) translate(-36 17)">
    <use xlink:href="#rim"/>
    <path pointer-events="none" fill="none" stroke="white" stroke-width="1.5" d="M0,-3.0v7 M-2.5,-0.5L0,-3.0L2.5,-0.5"/>
  </g>
  <g id="resetDef">
    <use xlink:href="#rim2" fill="#404040"><set attributeName="fill" to="#808080" begin="reset.mouseover" end="reset.mouseout"/></use>
  </g>
</defs>
<script type="application/ecmascript">
var viewWidth = 2007;
var viewHeight = 297;
var sectionId = 'dynsection-3';
</script>
<script type="application/ecmascript" xlink:href="../../svg.min.js"/>
<svg id="graph" class="graph">
<g id="viewport">
<title>UBoundingBoxCalculator::CombineBBs</title>
<!-- Node1 -->
<g id="Node000001" class="node">
<title>Node1</title>
<g id="a_Node000001"><a xlink:title=" ">
<polygon fill="#999999" stroke="#666666" points="1998.75,-115 1874.75,-115 1874.75,-83 1998.75,-83 1998.75,-115"/>
<text text-anchor="start" x="1882.75" y="-101.5" font-family="Helvetica,sans-Serif" font-size="10.00">UBoundingBoxCalculator</text>
<text text-anchor="middle" x="1936.75" y="-89.5" font-family="Helvetica,sans-Serif" font-size="10.00">::CombineBBs</text>
</a>
</g>
</g>
<!-- Node2 -->
<g id="Node000002" class="node">
<title>Node2</title>
<g id="a_Node000002"><a xlink:href="../../df/d02/classUBoundingBoxCalculator.html#af2813a65238c05c9f421c93839766edb" target="_top" xlink:title=" ">
<polygon fill="white" stroke="#666666" points="1838.75,-140 1714.75,-140 1714.75,-108 1838.75,-108 1838.75,-140"/>
<text text-anchor="start" x="1722.75" y="-126.5" font-family="Helvetica,sans-Serif" font-size="10.00">UBoundingBoxCalculator</text>
<text text-anchor="middle" x="1776.75" y="-114.5" font-family="Helvetica,sans-Serif" font-size="10.00">::CombineBBsOfActor</text>
</a>
</g>
</g>
<!-- Node1&#45;&gt;Node2 -->
<g id="edge1_Node000001_Node000002" class="edge">
<title>Node1&#45;&gt;Node2</title>
<g id="a_edge1_Node000001_Node000002"><a xlink:title=" ">
<path fill="none" stroke="#63b8ff" d="M1863.9,-110.37C1855.65,-111.67 1847.29,-113 1839.2,-114.28"/>
<polygon fill="#63b8ff" stroke="#63b8ff" points="1864.33,-113.69 1873.66,-108.67 1863.24,-106.77 1864.33,-113.69"/>
</a>
</g>
</g>
<!-- Node7 -->
<g id="Node000007" class="node">
<title>Node7</title>
<g id="a_Node000007"><a xlink:href="../../df/d02/classUBoundingBoxCalculator.html#af7bad4e6896754f731f278a20ab7cbff" target="_top" xlink:title="计算给定 Carla actor 的边界框。">
<polygon fill="white" stroke="#666666" points="1330.62,-89 1206.62,-89 1206.62,-57 1330.62,-57 1330.62,-89"/>
<text text-anchor="start" x="1214.62" y="-75.5" font-family="Helvetica,sans-Serif" font-size="10.00">UBoundingBoxCalculator</text>
<text text-anchor="middle" x="1268.62" y="-63.5" font-family="Helvetica,sans-Serif" font-size="10.00">::GetActorBoundingBox</text>
</a>
</g>
</g>
<!-- Node1&#45;&gt;Node7 -->
<g id="edge29_Node000001_Node000007" class="edge">
<title>Node1&#45;&gt;Node7</title>
<g id="a_edge29_Node000001_Node000007"><a xlink:title=" ">
<path fill="none" stroke="#63b8ff" d="M1863.51,-96.18C1731.66,-91.03 1454.26,-80.21 1330.95,-75.39"/>
<polygon fill="#63b8ff" stroke="#63b8ff" points="1863.15,-99.71 1873.28,-96.6 1863.42,-92.71 1863.15,-99.71"/>
</a>
</g>
</g>
<!-- Node3 -->
<g id="Node000003" class="node">
<title>Node3</title>
<g id="a_Node000003"><a xlink:href="../../df/d02/classUBoundingBoxCalculator.html#ad731c0c97029d59cb5b763077a7c18ec" target="_top" xlink:title=" ">
<polygon fill="white" stroke="#666666" points="1678.75,-141 1536.75,-141 1536.75,-109 1678.75,-109 1678.75,-141"/>
<text text-anchor="start" x="1544.75" y="-127.5" font-family="Helvetica,sans-Serif" font-size="10.00">UBoundingBoxCalculator</text>
<text text-anchor="middle" x="1607.75" y="-115.5" font-family="Helvetica,sans-Serif" font-size="10.00">::GetTrafficLightBoundingBox</text>
</a>
</g>
</g>
<!-- Node2&#45;&gt;Node3 -->
<g id="edge2_Node000002_Node000003" class="edge">
<title>Node2&#45;&gt;Node3</title>
<g id="a_edge2_Node000002_Node000003"><a xlink:title=" ">
<path fill="none" stroke="#63b8ff" d="M1703.54,-124.43C1695.41,-124.48 1687.13,-124.53 1679.02,-124.58"/>
<polygon fill="#63b8ff" stroke="#63b8ff" points="1703.53,-127.93 1713.51,-124.37 1703.49,-120.93 1703.53,-127.93"/>
</a>
</g>
</g>
<!-- Node4 -->
<g id="Node000004" class="node">
<title>Node4</title>
<g id="a_Node000004"><a xlink:href="../../d7/d97/classFCarlaServer_1_1FPimpl.html#a675a6b572112a21e8bc011dddfd0de86" target="_top" xlink:title=" ">
<polygon fill="white" stroke="#666666" points="972.38,-139 864.12,-139 864.12,-107 972.38,-107 972.38,-139"/>
<text text-anchor="start" x="872.12" y="-125.5" font-family="Helvetica,sans-Serif" font-size="10.00">FCarlaServer::FPimpl</text>
<text text-anchor="middle" x="918.25" y="-113.5" font-family="Helvetica,sans-Serif" font-size="10.00">::BindActions</text>
</a>
</g>
</g>
<!-- Node3&#45;&gt;Node4 -->
<g id="edge3_Node000003_Node000004" class="edge">
<title>Node3&#45;&gt;Node4</title>
<g id="a_edge3_Node000003_Node000004"><a xlink:title=" ">
<path fill="none" stroke="#63b8ff" d="M1530.51,-143.57C1520.55,-145.4 1510.44,-146.96 1500.75,-148 1288.63,-170.75 1232.53,-173.7 1020.75,-148 1004.99,-146.09 988.14,-142.56 972.79,-138.75"/>
<polygon fill="#63b8ff" stroke="#63b8ff" points="1531.08,-146.83 1540.23,-141.5 1529.75,-139.96 1531.08,-146.83"/>
</a>
</g>
</g>
<!-- Node6 -->
<g id="Node000006" class="node">
<title>Node6</title>
<g id="a_Node000006"><a xlink:href="../../df/d02/classUBoundingBoxCalculator.html#a2c923355cb61474395e94b63c753b81b" target="_top" xlink:title=" ">
<polygon fill="white" stroke="#666666" points="1498.12,-139 1374.12,-139 1374.12,-107 1498.12,-107 1498.12,-139"/>
<text text-anchor="start" x="1382.12" y="-125.5" font-family="Helvetica,sans-Serif" font-size="10.00">UBoundingBoxCalculator</text>
<text text-anchor="middle" x="1436.12" y="-113.5" font-family="Helvetica,sans-Serif" font-size="10.00">::GetBBsOfActor</text>
</a>
</g>
</g>
<!-- Node3&#45;&gt;Node6 -->
<g id="edge5_Node000003_Node000006" class="edge">
<title>Node3&#45;&gt;Node6</title>
<g id="a_edge5_Node000003_Node000006"><a xlink:title=" ">
<path fill="none" stroke="#63b8ff" d="M1525.31,-124.04C1516.27,-123.93 1507.18,-123.83 1498.45,-123.72"/>
<polygon fill="#63b8ff" stroke="#63b8ff" points="1525.25,-127.55 1535.29,-124.17 1525.33,-120.55 1525.25,-127.55"/>
</a>
</g>
</g>
<!-- Node21 -->
<g id="Node000021" class="node">
<title>Node21</title>
<g id="a_Node000021"><a xlink:href="../../d2/d5b/classUObjectRegister.html#a8bc743b6be0375b789d1a04b3555d961" target="_top" xlink:title=" ">
<polygon fill="white" stroke="#666666" points="1500.75,-228 1371.5,-228 1371.5,-196 1500.75,-196 1500.75,-228"/>
<text text-anchor="start" x="1379.5" y="-214.5" font-family="Helvetica,sans-Serif" font-size="10.00">UObjectRegister::Register</text>
<text text-anchor="middle" x="1436.12" y="-202.5" font-family="Helvetica,sans-Serif" font-size="10.00">TrafficLight</text>
</a>
</g>
</g>
<!-- Node3&#45;&gt;Node21 -->
<g id="edge23_Node000003_Node000021" class="edge">
<title>Node3&#45;&gt;Node21</title>
<g id="a_edge23_Node000003_Node000021"><a xlink:title=" ">
<path fill="none" stroke="#63b8ff" d="M1566.67,-146.57C1546.9,-157.11 1522.66,-169.88 1500.75,-181 1491.22,-185.84 1480.82,-190.97 1471.24,-195.63"/>
<polygon fill="#63b8ff" stroke="#63b8ff" points="1568.1,-149.24 1575.27,-141.44 1564.8,-143.06 1568.1,-149.24"/>
</a>
</g>
</g>
<!-- Node5 -->
<g id="Node000005" class="node">
<title>Node5</title>
<g id="a_Node000005"><a xlink:href="../../d7/d97/classFCarlaServer_1_1FPimpl.html#ab9ff29fc81bd2f9a14677941c7f7b62d" target="_top" xlink:title=" ">
<polygon fill="white" stroke="#666666" points="797.75,-139 689.5,-139 689.5,-107 797.75,-107 797.75,-139"/>
<text text-anchor="start" x="697.5" y="-125.5" font-family="Helvetica,sans-Serif" font-size="10.00">FCarlaServer::FPimpl</text>
<text text-anchor="middle" x="743.62" y="-113.5" font-family="Helvetica,sans-Serif" font-size="10.00">::FPimpl</text>
</a>
</g>
</g>
<!-- Node4&#45;&gt;Node5 -->
<g id="edge4_Node000004_Node000005" class="edge">
<title>Node4&#45;&gt;Node5</title>
<g id="a_edge4_Node000004_Node000005"><a xlink:title=" ">
<path fill="none" stroke="#63b8ff" d="M853.29,-123C835.18,-123 815.67,-123 798.25,-123"/>
<polygon fill="#63b8ff" stroke="#63b8ff" points="853.05,-126.5 863.05,-123 853.05,-119.5 853.05,-126.5"/>
</a>
</g>
</g>
<!-- Node6&#45;&gt;Node7 -->
<g id="edge6_Node000006_Node000007" class="edge">
<title>Node6&#45;&gt;Node7</title>
<g id="a_edge6_Node000006_Node000007"><a xlink:title=" ">
<path fill="none" stroke="#63b8ff" d="M1370.51,-103.48C1355.2,-98.85 1339.03,-93.97 1324.22,-89.49"/>
<polygon fill="#63b8ff" stroke="#63b8ff" points="1369.35,-107.09 1379.93,-106.63 1371.37,-100.39 1369.35,-107.09"/>
</a>
</g>
</g>
<!-- Node19 -->
<g id="Node000019" class="node">
<title>Node19</title>
<g id="a_Node000019"><a xlink:href="../../df/d02/classUBoundingBoxCalculator.html#afea7abc19160dd8b780a5714c2064451" target="_top" xlink:title=" ">
<polygon fill="white" stroke="#666666" points="1335.5,-139 1201.75,-139 1201.75,-107 1335.5,-107 1335.5,-139"/>
<text text-anchor="start" x="1209.75" y="-125.5" font-family="Helvetica,sans-Serif" font-size="10.00">UBoundingBoxCalculator</text>
<text text-anchor="middle" x="1268.62" y="-113.5" font-family="Helvetica,sans-Serif" font-size="10.00">::GetBoundingBoxOfActors</text>
</a>
</g>
</g>
<!-- Node6&#45;&gt;Node19 -->
<g id="edge20_Node000006_Node000019" class="edge">
<title>Node6&#45;&gt;Node19</title>
<g id="a_edge20_Node000006_Node000019"><a xlink:title=" ">
<path fill="none" stroke="#63b8ff" d="M1363.04,-123C1353.99,-123 1344.77,-123 1335.81,-123"/>
<polygon fill="#63b8ff" stroke="#63b8ff" points="1362.97,-126.5 1372.97,-123 1362.97,-119.5 1362.97,-126.5"/>
</a>
</g>
</g>
<!-- Node8 -->
<g id="Node000008" class="node">
<title>Node8</title>
<g id="a_Node000008"><a xlink:href="../../dc/d72/classCaService.html#aada5a11db167140445dd085b2f40a43a" target="_top" xlink:title=" ">
<polygon fill="white" stroke="#666666" points="1163.12,-42 1023.38,-42 1023.38,-10 1163.12,-10 1163.12,-42"/>
<text text-anchor="start" x="1031.38" y="-28.5" font-family="Helvetica,sans-Serif" font-size="10.00">CaService::AddBasicVehicle</text>
<text text-anchor="middle" x="1093.25" y="-16.5" font-family="Helvetica,sans-Serif" font-size="10.00">ContainerHighFrequency</text>
</a>
</g>
</g>
<!-- Node7&#45;&gt;Node8 -->
<g id="edge7_Node000007_Node000008" class="edge">
<title>Node7&#45;&gt;Node8</title>
<g id="a_edge7_Node000007_Node000008"><a xlink:title=" ">
<path fill="none" stroke="#63b8ff" d="M1196.54,-53.73C1182.7,-49.98 1168.31,-46.08 1154.85,-42.43"/>
<polygon fill="#63b8ff" stroke="#63b8ff" points="1195.42,-57.32 1205.99,-56.56 1197.25,-50.57 1195.42,-57.32"/>
</a>
</g>
</g>
<!-- Node15 -->
<g id="Node000015" class="node">
<title>Node15</title>
<g id="a_Node000015"><a xlink:href="../../da/de4/ActorRegistry_8h.html#a225b72e853e82cfa99ae57ce596b8d76" target="_top" xlink:title=" ">
<polygon fill="white" stroke="#666666" points="1136.12,-83 1050.38,-83 1050.38,-63 1136.12,-63 1136.12,-83"/>
<text text-anchor="middle" x="1093.25" y="-69.5" font-family="Helvetica,sans-Serif" font-size="10.00">MakeCarlaActor</text>
</a>
</g>
</g>
<!-- Node7&#45;&gt;Node15 -->
<g id="edge16_Node000007_Node000015" class="edge">
<title>Node7&#45;&gt;Node15</title>
<g id="a_edge16_Node000007_Node000015"><a xlink:title=" ">
<path fill="none" stroke="#63b8ff" d="M1195.5,-73C1175.46,-73 1154.34,-73 1136.61,-73"/>
<polygon fill="#63b8ff" stroke="#63b8ff" points="1195.5,-76.5 1205.5,-73 1195.5,-69.5 1195.5,-76.5"/>
</a>
</g>
</g>
<!-- Node9 -->
<g id="Node000009" class="node">
<title>Node9</title>
<g id="a_Node000009"><a xlink:href="../../dc/d72/classCaService.html#af78a02cbfa27133b4682c7f99c3ed09e" target="_top" xlink:title=" ">
<polygon fill="white" stroke="#666666" points="984.75,-40 851.75,-40 851.75,-8 984.75,-8 984.75,-40"/>
<text text-anchor="start" x="859.75" y="-26.5" font-family="Helvetica,sans-Serif" font-size="10.00">CaService::AddCooperative</text>
<text text-anchor="middle" x="918.25" y="-14.5" font-family="Helvetica,sans-Serif" font-size="10.00">AwarenessMessage</text>
</a>
</g>
</g>
<!-- Node8&#45;&gt;Node9 -->
<g id="edge8_Node000008_Node000009" class="edge">
<title>Node8&#45;&gt;Node9</title>
<g id="a_edge8_Node000008_Node000009"><a xlink:title=" ">
<path fill="none" stroke="#63b8ff" d="M1011.94,-25.07C1002.91,-24.97 993.8,-24.86 984.98,-24.76"/>
<polygon fill="#63b8ff" stroke="#63b8ff" points="1011.84,-28.58 1021.88,-25.2 1011.92,-21.58 1011.84,-28.58"/>
</a>
</g>
</g>
<!-- Node10 -->
<g id="Node000010" class="node">
<title>Node10</title>
<g id="a_Node000010"><a xlink:href="../../dc/d72/classCaService.html#aeed10735fdfabc90def5dc5459636d57" target="_top" xlink:title=" ">
<polygon fill="white" stroke="#666666" points="815.75,-39 671.5,-39 671.5,-7 815.75,-7 815.75,-39"/>
<text text-anchor="start" x="679.5" y="-25.5" font-family="Helvetica,sans-Serif" font-size="10.00">CaService::CreateCooperative</text>
<text text-anchor="middle" x="743.62" y="-13.5" font-family="Helvetica,sans-Serif" font-size="10.00">AwarenessMessage</text>
</a>
</g>
</g>
<!-- Node9&#45;&gt;Node10 -->
<g id="edge9_Node000009_Node000010" class="edge">
<title>Node9&#45;&gt;Node10</title>
<g id="a_edge9_Node000009_Node000010"><a xlink:title=" ">
<path fill="none" stroke="#63b8ff" d="M840.56,-23.56C832.47,-23.51 824.27,-23.46 816.24,-23.41"/>
<polygon fill="#63b8ff" stroke="#63b8ff" points="840.48,-27.06 850.5,-23.62 840.52,-20.06 840.48,-27.06"/>
</a>
</g>
</g>
<!-- Node11 -->
<g id="Node000011" class="node">
<title>Node11</title>
<g id="a_Node000011"><a xlink:href="../../dc/d72/classCaService.html#ac516ff7495bc32f142607fa3c18feb3e" target="_top" xlink:title=" ">
<polygon fill="white" stroke="#666666" points="635.5,-39 470.25,-39 470.25,-19 635.5,-19 635.5,-39"/>
<text text-anchor="middle" x="552.88" y="-25.5" font-family="Helvetica,sans-Serif" font-size="10.00">CaService::GenerateCamMessage</text>
</a>
</g>
</g>
<!-- Node10&#45;&gt;Node11 -->
<g id="edge10_Node000010_Node000011" class="edge">
<title>Node10&#45;&gt;Node11</title>
<g id="a_edge10_Node000010_Node000011"><a xlink:title=" ">
<path fill="none" stroke="#63b8ff" d="M660.28,-25.62C652.15,-25.88 643.91,-26.14 635.78,-26.4"/>
<polygon fill="#63b8ff" stroke="#63b8ff" points="660.38,-29.08 670.27,-25.27 660.16,-22.09 660.38,-29.08"/>
</a>
</g>
</g>
<!-- Node13 -->
<g id="Node000013" class="node">
<title>Node13</title>
<g id="a_Node000013"><a xlink:href="../../dc/d72/classCaService.html#a3abeb3a2b3ed63c68a902475f3909b51" target="_top" xlink:title=" ">
<polygon fill="white" stroke="#666666" points="263,-20 168.25,-20 168.25,0 263,0 263,-20"/>
<text text-anchor="middle" x="215.62" y="-6.5" font-family="Helvetica,sans-Serif" font-size="10.00">CaService::Trigger</text>
</a>
</g>
</g>
<!-- Node10&#45;&gt;Node13 -->
<g id="edge15_Node000010_Node000013" class="edge">
<title>Node10&#45;&gt;Node13</title>
<g id="a_edge15_Node000010_Node000013"><a xlink:title=" ">
<path fill="none" stroke="#63b8ff" d="M660.59,-12.15C652.13,-11.3 643.65,-10.55 635.5,-10 500.73,-0.84 341.01,-4.97 263.5,-7.93"/>
<polygon fill="#63b8ff" stroke="#63b8ff" points="659.96,-15.7 670.27,-13.27 660.7,-8.74 659.96,-15.7"/>
</a>
</g>
</g>
<!-- Node12 -->
<g id="Node000012" class="node">
<title>Node12</title>
<g id="a_Node000012"><a xlink:href="../../dc/d72/classCaService.html#af0c9631cf58c85f850d00d94180432c0" target="_top" xlink:title=" ">
<polygon fill="white" stroke="#666666" points="434.25,-48 299,-48 299,-16 434.25,-16 434.25,-48"/>
<text text-anchor="start" x="307" y="-34.5" font-family="Helvetica,sans-Serif" font-size="10.00">CaService::CheckTriggering</text>
<text text-anchor="middle" x="366.62" y="-22.5" font-family="Helvetica,sans-Serif" font-size="10.00">Conditions</text>
</a>
</g>
</g>
<!-- Node11&#45;&gt;Node12 -->
<g id="edge11_Node000011_Node000012" class="edge">
<title>Node11&#45;&gt;Node12</title>
<g id="a_edge11_Node000011_Node000012"><a xlink:title=" ">
<path fill="none" stroke="#63b8ff" d="M459.14,-30.51C450.88,-30.64 442.62,-30.78 434.63,-30.91"/>
<polygon fill="#63b8ff" stroke="#63b8ff" points="459.05,-34 468.99,-30.33 458.93,-27 459.05,-34"/>
</a>
</g>
</g>
<!-- Node12&#45;&gt;Node13 -->
<g id="edge12_Node000012_Node000013" class="edge">
<title>Node12&#45;&gt;Node13</title>
<g id="a_edge12_Node000012_Node000013"><a xlink:title=" ">
<path fill="none" stroke="#63b8ff" d="M287.91,-20.52C279.51,-19.29 271.17,-18.05 263.31,-16.89"/>
<polygon fill="#63b8ff" stroke="#63b8ff" points="287.13,-24.1 297.53,-22.09 288.15,-17.17 287.13,-24.1"/>
</a>
</g>
</g>
<!-- Node13&#45;&gt;Node13 -->
<g id="edge14_Node000013_Node000013" class="edge">
<title>Node13&#45;&gt;Node13</title>
<g id="a_edge14_Node000013_Node000013"><a xlink:title=" ">
<path fill="none" stroke="#63b8ff" d="M242.58,-30.77C239.63,-34.98 230.65,-38 215.62,-38 189.64,-38 181.72,-28.98 191.87,-20.34"/>
<polygon fill="#63b8ff" stroke="#63b8ff" points="245.66,-29.87 239.38,-21.34 238.97,-31.93 245.66,-29.87"/>
</a>
</g>
</g>
<!-- Node14 -->
<g id="Node000014" class="node">
<title>Node14</title>
<g id="a_Node000014"><a xlink:href="../../d3/dd4/classAV2XSensor.html#a48e67673a93165d20a70c95c44d9bb5b" target="_top" xlink:title=" ">
<polygon fill="white" stroke="#666666" points="132.25,-20 0,-20 0,0 132.25,0 132.25,-20"/>
<text text-anchor="middle" x="66.12" y="-6.5" font-family="Helvetica,sans-Serif" font-size="10.00">AV2XSensor::PrePhysTick</text>
</a>
</g>
</g>
<!-- Node13&#45;&gt;Node14 -->
<g id="edge13_Node000013_Node000014" class="edge">
<title>Node13&#45;&gt;Node14</title>
<g id="a_edge13_Node000013_Node000014"><a xlink:title=" ">
<path fill="none" stroke="#63b8ff" d="M157.19,-10C149.13,-10 140.81,-10 132.63,-10"/>
<polygon fill="#63b8ff" stroke="#63b8ff" points="156.96,-13.5 166.96,-10 156.96,-6.5 156.96,-13.5"/>
</a>
</g>
</g>
<!-- Node16 -->
<g id="Node000016" class="node">
<title>Node16</title>
<g id="a_Node000016"><a xlink:href="../../df/db5/classFActorRegistry.html#a6bd1983faa1a28db04d21cdd7fd49d2e" target="_top" xlink:title="名称 参与者注册函数">
<polygon fill="white" stroke="#666666" points="979.88,-83 856.62,-83 856.62,-63 979.88,-63 979.88,-83"/>
<text text-anchor="middle" x="918.25" y="-69.5" font-family="Helvetica,sans-Serif" font-size="10.00">FActorRegistry::Register</text>
</a>
</g>
</g>
<!-- Node15&#45;&gt;Node16 -->
<g id="edge17_Node000015_Node000016" class="edge">
<title>Node15&#45;&gt;Node16</title>
<g id="a_edge17_Node000015_Node000016"><a xlink:title=" ">
<path fill="none" stroke="#63b8ff" d="M1038.98,-73C1020.35,-73 999.29,-73 980.09,-73"/>
<polygon fill="#63b8ff" stroke="#63b8ff" points="1038.93,-76.5 1048.93,-73 1038.93,-69.5 1038.93,-76.5"/>
</a>
</g>
</g>
<!-- Node17 -->
<g id="Node000017" class="node">
<title>Node17</title>
<g id="a_Node000017"><a xlink:href="../../d7/d90/classUActorDispatcher.html#a709f954e759fc202b64ef129c83ad77c" target="_top" xlink:title=" ">
<polygon fill="white" stroke="#666666" points="810.88,-89 676.38,-89 676.38,-57 810.88,-57 810.88,-89"/>
<text text-anchor="start" x="684.38" y="-75.5" font-family="Helvetica,sans-Serif" font-size="10.00">UActorDispatcher::Register</text>
<text text-anchor="middle" x="743.62" y="-63.5" font-family="Helvetica,sans-Serif" font-size="10.00">Actor</text>
</a>
</g>
</g>
<!-- Node16&#45;&gt;Node17 -->
<g id="edge18_Node000016_Node000017" class="edge">
<title>Node16&#45;&gt;Node17</title>
<g id="a_edge18_Node000016_Node000017"><a xlink:title=" ">
<path fill="none" stroke="#63b8ff" d="M845.58,-73C834.16,-73 822.39,-73 811.1,-73"/>
<polygon fill="#63b8ff" stroke="#63b8ff" points="845.39,-76.5 855.39,-73 845.39,-69.5 845.39,-76.5"/>
</a>
</g>
</g>
<!-- Node18 -->
<g id="Node000018" class="node">
<title>Node18</title>
<g id="a_Node000018"><a xlink:href="../../d7/d90/classUActorDispatcher.html#aaeca5eeded6c2f193a445df02af113bd" target="_top" xlink:title=" ">
<polygon fill="white" stroke="#666666" points="628.38,-83 477.38,-83 477.38,-63 628.38,-63 628.38,-83"/>
<text text-anchor="middle" x="552.88" y="-69.5" font-family="Helvetica,sans-Serif" font-size="10.00">UActorDispatcher::SpawnActor</text>
</a>
</g>
</g>
<!-- Node17&#45;&gt;Node18 -->
<g id="edge19_Node000017_Node000018" class="edge">
<title>Node17&#45;&gt;Node18</title>
<g id="a_edge19_Node000017_Node000018"><a xlink:title=" ">
<path fill="none" stroke="#63b8ff" d="M665.18,-73C653.17,-73 640.78,-73 628.83,-73"/>
<polygon fill="#63b8ff" stroke="#63b8ff" points="665.08,-76.5 675.08,-73 665.08,-69.5 665.08,-76.5"/>
</a>
</g>
</g>
<!-- Node20 -->
<g id="Node000020" class="node">
<title>Node20</title>
<g id="a_Node000020"><a xlink:href="../../db/de5/classACarlaGameModeBase.html#ae4ee69936bc0f15a227c27e9f7f4887d" target="_top" xlink:title=" ">
<polygon fill="white" stroke="#666666" points="1152.25,-139 1034.25,-139 1034.25,-107 1152.25,-107 1152.25,-139"/>
<text text-anchor="start" x="1042.25" y="-125.5" font-family="Helvetica,sans-Serif" font-size="10.00">ACarlaGameModeBase</text>
<text text-anchor="middle" x="1093.25" y="-113.5" font-family="Helvetica,sans-Serif" font-size="10.00">::GetAllBBsOfLevel</text>
</a>
</g>
</g>
<!-- Node19&#45;&gt;Node20 -->
<g id="edge21_Node000019_Node000020" class="edge">
<title>Node19&#45;&gt;Node20</title>
<g id="a_edge21_Node000019_Node000020"><a xlink:title=" ">
<path fill="none" stroke="#63b8ff" d="M1190.92,-123C1178.1,-123 1164.99,-123 1152.73,-123"/>
<polygon fill="#63b8ff" stroke="#63b8ff" points="1190.58,-126.5 1200.58,-123 1190.58,-119.5 1190.58,-126.5"/>
</a>
</g>
</g>
<!-- Node20&#45;&gt;Node4 -->
<g id="edge22_Node000020_Node000004" class="edge">
<title>Node20&#45;&gt;Node4</title>
<g id="a_edge22_Node000020_Node000004"><a xlink:title=" ">
<path fill="none" stroke="#63b8ff" d="M1023.28,-123C1006.49,-123 988.77,-123 972.81,-123"/>
<polygon fill="#63b8ff" stroke="#63b8ff" points="1023.16,-126.5 1033.16,-123 1023.16,-119.5 1023.16,-126.5"/>
</a>
</g>
</g>
<!-- Node22 -->
<g id="Node000022" class="node">
<title>Node22</title>
<g id="a_Node000022"><a xlink:href="../../d2/d5b/classUObjectRegister.html#a8e77baf3dffa6dc5919a2ee4d8c9a965" target="_top" xlink:title=" ">
<polygon fill="white" stroke="#666666" points="1333.25,-231 1204,-231 1204,-199 1333.25,-199 1333.25,-231"/>
<text text-anchor="start" x="1212" y="-217.5" font-family="Helvetica,sans-Serif" font-size="10.00">UObjectRegister::Register</text>
<text text-anchor="middle" x="1268.62" y="-205.5" font-family="Helvetica,sans-Serif" font-size="10.00">Objects</text>
</a>
</g>
</g>
<!-- Node21&#45;&gt;Node22 -->
<g id="edge24_Node000021_Node000022" class="edge">
<title>Node21&#45;&gt;Node22</title>
<g id="a_edge24_Node000021_Node000022"><a xlink:title=" ">
<path fill="none" stroke="#63b8ff" d="M1360.37,-213.36C1351.47,-213.52 1342.45,-213.68 1333.71,-213.84"/>
<polygon fill="#63b8ff" stroke="#63b8ff" points="1360.2,-216.84 1370.14,-213.16 1360.08,-209.84 1360.2,-216.84"/>
</a>
</g>
</g>
<!-- Node23 -->
<g id="Node000023" class="node">
<title>Node23</title>
<g id="a_Node000023"><a xlink:href="../../db/de5/classACarlaGameModeBase.html#a093ea406d6426ce31c75cda5248362fd" target="_top" xlink:title=" ">
<polygon fill="white" stroke="#666666" points="1165.75,-237 1020.75,-237 1020.75,-205 1165.75,-205 1165.75,-237"/>
<text text-anchor="start" x="1028.75" y="-223.5" font-family="Helvetica,sans-Serif" font-size="10.00">ACarlaGameModeBase</text>
<text text-anchor="middle" x="1093.25" y="-211.5" font-family="Helvetica,sans-Serif" font-size="10.00">::RegisterEnvironmentObjects</text>
</a>
</g>
</g>
<!-- Node22&#45;&gt;Node23 -->
<g id="edge25_Node000022_Node000023" class="edge">
<title>Node22&#45;&gt;Node23</title>
<g id="a_edge25_Node000022_Node000023"><a xlink:title=" ">
<path fill="none" stroke="#63b8ff" d="M1192.59,-217.6C1183.85,-217.9 1174.94,-218.21 1166.23,-218.51"/>
<polygon fill="#63b8ff" stroke="#63b8ff" points="1192.69,-221.06 1202.56,-217.22 1192.44,-214.07 1192.69,-221.06"/>
</a>
</g>
</g>
<!-- Node24 -->
<g id="Node000024" class="node">
<title>Node24</title>
<g id="a_Node000024"><a xlink:href="../../db/de5/classACarlaGameModeBase.html#a3909b055b351f69d7ad1e39a42e72e3d" target="_top" xlink:title=" ">
<polygon fill="white" stroke="#666666" points="977.25,-289 859.25,-289 859.25,-257 977.25,-257 977.25,-289"/>
<text text-anchor="start" x="867.25" y="-275.5" font-family="Helvetica,sans-Serif" font-size="10.00">ACarlaGameModeBase</text>
<text text-anchor="middle" x="918.25" y="-263.5" font-family="Helvetica,sans-Serif" font-size="10.00">::BeginPlay</text>
</a>
</g>
</g>
<!-- Node23&#45;&gt;Node24 -->
<g id="edge26_Node000023_Node000024" class="edge">
<title>Node23&#45;&gt;Node24</title>
<g id="a_edge26_Node000023_Node000024"><a xlink:title=" ">
<path fill="none" stroke="#63b8ff" d="M1027.33,-240.51C1009.74,-245.8 990.89,-251.47 973.93,-256.56"/>
<polygon fill="#63b8ff" stroke="#63b8ff" points="1027.94,-243.68 1036.51,-237.45 1025.93,-236.98 1027.94,-243.68"/>
</a>
</g>
</g>
<!-- Node25 -->
<g id="Node000025" class="node">
<title>Node25</title>
<g id="a_Node000025"><a xlink:href="../../db/de5/classACarlaGameModeBase.html#a63efed9c79f812c2ed41f53aa6205681" target="_top" xlink:title=" ">
<polygon fill="white" stroke="#666666" points="977.25,-239 859.25,-239 859.25,-207 977.25,-207 977.25,-239"/>
<text text-anchor="start" x="867.25" y="-225.5" font-family="Helvetica,sans-Serif" font-size="10.00">ACarlaGameModeBase</text>
<text text-anchor="middle" x="918.25" y="-213.5" font-family="Helvetica,sans-Serif" font-size="10.00">::OnLoadStreamLevel</text>
</a>
</g>
</g>
<!-- Node23&#45;&gt;Node25 -->
<g id="edge27_Node000023_Node000025" class="edge">
<title>Node23&#45;&gt;Node25</title>
<g id="a_edge27_Node000023_Node000025"><a xlink:title=" ">
<path fill="none" stroke="#63b8ff" d="M1009.66,-221.95C998.87,-222.08 988.01,-222.21 977.74,-222.32"/>
<polygon fill="#63b8ff" stroke="#63b8ff" points="1009.43,-225.45 1019.39,-221.83 1009.35,-218.45 1009.43,-225.45"/>
</a>
</g>
</g>
<!-- Node26 -->
<g id="Node000026" class="node">
<title>Node26</title>
<g id="a_Node000026"><a xlink:href="../../db/de5/classACarlaGameModeBase.html#aecaba7b5b9623b58ef4d6534cc62b9f6" target="_top" xlink:title=" ">
<polygon fill="white" stroke="#666666" points="977.25,-189 859.25,-189 859.25,-157 977.25,-157 977.25,-189"/>
<text text-anchor="start" x="867.25" y="-175.5" font-family="Helvetica,sans-Serif" font-size="10.00">ACarlaGameModeBase</text>
<text text-anchor="middle" x="918.25" y="-163.5" font-family="Helvetica,sans-Serif" font-size="10.00">::OnUnloadStreamLevel</text>
</a>
</g>
</g>
<!-- Node23&#45;&gt;Node26 -->
<g id="edge28_Node000023_Node000026" class="edge">
<title>Node23&#45;&gt;Node26</title>
<g id="a_edge28_Node000023_Node000026"><a xlink:title=" ">
<path fill="none" stroke="#63b8ff" d="M1022.96,-201.77C1007.97,-197.62 992.27,-193.26 977.74,-189.23"/>
<polygon fill="#63b8ff" stroke="#63b8ff" points="1021.63,-205.31 1032.2,-204.62 1023.5,-198.57 1021.63,-205.31"/>
</a>
</g>
</g>
</g>
</svg>

<g id="navigator" transform="translate(0 0)" fill="#404254">
  <rect fill="#f2f5e9" fill-opacity="0.5" stroke="#606060" stroke-width=".5" x="0" y="0" width="60" height="60"/>
  <use id="zoomplus" xlink:href="#zoomPlus" x="17" y="9" onmousedown="handleZoom(evt,'in')"/>
  <use id="zoomminus" xlink:href="#zoomMin" x="42" y="9" onmousedown="handleZoom(evt,'out')"/>
  <use id="reset" xlink:href="#resetDef" x="30" y="36" onmousedown="handleReset()"/>
   <use id="arrowup" xlink:href="#arrowUp" x="0" y="0" onmousedown="handlePan(0,-1)"/>
  <use id="arrowright" xlink:href="#arrowRight" x="0" y="0" onmousedown="handlePan(1,0)"/>
  <use id="arrowdown" xlink:href="#arrowDown" x="0" y="0" onmousedown="handlePan(0,1)"/>
  <use id="arrowleft" xlink:href="#arrowLeft" x="0" y="0" onmousedown="handlePan(-1,0)"/>
</g>
<svg viewBox="0 0 15 15" width="100%" height="30px" preserveAspectRatio="xMaxYMin meet">
 <g id="arrow_out" transform="scale(0.3 0.3)">
  <a xlink:href="classUBoundingBoxCalculator_adc638d4ad146b80666f002e31fb67dca_icgraph_org.svg" target="_base">
   <rect id="button" ry="5" rx="5" y="6" x="6" height="38" width="38"
        fill="#f2f5e9" fill-opacity="0.5" stroke="#606060" stroke-width="1.0"/>
   <path id="arrow"
     d="M 11.500037,31.436501 C 11.940474,20.09759 22.043105,11.32322 32.158766,21.979434 L 37.068811,17.246167 C 37.068811,17.246167 37.088388,32 37.088388,32 L 22.160133,31.978069 C 22.160133,31.978069 26.997745,27.140456 26.997745,27.140456 C 18.528582,18.264221 13.291696,25.230495 11.500037,31.436501 z"
     style="fill:#404040;"/>
  </a>
 </g>
</svg>

<style type='text/css'>
<![CDATA[
[data-mouse-over-selected='false'] { opacity: 0.7; }
[data-mouse-over-selected='true']  { opacity: 1.0; }
]]>
</style>
<script type="application/ecmascript"><![CDATA[
document.addEventListener('DOMContentLoaded', (event) => {
  highlightEdges();
  highlightAdjacentNodes();
});
]]></script>
</svg>
