<?xml version="1.0" encoding="UTF-8" standalone="no"?>
<!DOCTYPE svg PUBLIC "-//W3C//DTD SVG 1.1//EN"
 "http://www.w3.org/Graphics/SVG/1.1/DTD/svg11.dtd">
<!-- Generated by graphviz version 8.1.0 (20230707.0739)
 -->
<!-- Title: carla::sensor::data::CollisionEvent::GetOtherActor Pages: 1 -->
<svg width="762pt" height="115pt"
 viewBox="0.00 0.00 762.25 115.00" xmlns="http://www.w3.org/2000/svg" xmlns:xlink="http://www.w3.org/1999/xlink">
<g id="graph0" class="graph" transform="scale(1 1) rotate(0) translate(4 111)">
<title>carla::sensor::data::CollisionEvent::GetOtherActor</title>
<!-- Node1 -->
<g id="Node000001" class="node">
<title>Node1</title>
<g id="a_Node000001"><a xlink:title="Get the actor to which we collided.">
<polygon fill="#999999" stroke="#666666" points="128.5,-63 0,-63 0,-19 128.5,-19 128.5,-63"/>
<text text-anchor="start" x="8" y="-49.5" font-family="Helvetica,sans-Serif" font-size="10.00">carla::sensor::data</text>
<text text-anchor="start" x="8" y="-37.5" font-family="Helvetica,sans-Serif" font-size="10.00">::CollisionEvent::GetOther</text>
<text text-anchor="middle" x="64.25" y="-25.5" font-family="Helvetica,sans-Serif" font-size="10.00">Actor</text>
</a>
</g>
</g>
<!-- Node2 -->
<g id="Node000002" class="node">
<title>Node2</title>
<g id="a_Node000002"><a xlink:href="../../d4/dad/classcarla_1_1client_1_1detail_1_1ActorVariant.html#ae07a22b0b638b4fdd580987307e13c94" target="_top" xlink:title=" ">
<polygon fill="white" stroke="#666666" points="278,-82 180.25,-82 180.25,-50 278,-50 278,-82"/>
<text text-anchor="start" x="188.25" y="-68.5" font-family="Helvetica,sans-Serif" font-size="10.00">carla::client::detail</text>
<text text-anchor="middle" x="229.12" y="-56.5" font-family="Helvetica,sans-Serif" font-size="10.00">::ActorVariant::Get</text>
</a>
</g>
</g>
<!-- Node1&#45;&gt;Node2 -->
<g id="edge1_Node000001_Node000002" class="edge">
<title>Node1&#45;&gt;Node2</title>
<g id="a_edge1_Node000001_Node000002"><a xlink:title=" ">
<path fill="none" stroke="#63b8ff" d="M128.69,-50.74C142.02,-52.78 156.02,-54.93 169.18,-56.95"/>
<polygon fill="#63b8ff" stroke="#63b8ff" points="168.58,-60.55 179,-58.61 169.64,-53.64 168.58,-60.55"/>
</a>
</g>
</g>
<!-- Node7 -->
<g id="Node000007" class="node">
<title>Node7</title>
<g id="a_Node000007"><a xlink:href="../../df/d8c/classcarla_1_1sensor_1_1SensorData.html#a71cc95690632431ec4959d13408ce2c8" target="_top" xlink:title=" ">
<polygon fill="white" stroke="#666666" points="293.75,-32 164.5,-32 164.5,0 293.75,0 293.75,-32"/>
<text text-anchor="start" x="172.5" y="-18.5" font-family="Helvetica,sans-Serif" font-size="10.00">carla::sensor::SensorData</text>
<text text-anchor="middle" x="229.12" y="-6.5" font-family="Helvetica,sans-Serif" font-size="10.00">::GetEpisode</text>
</a>
</g>
</g>
<!-- Node1&#45;&gt;Node7 -->
<g id="edge6_Node000001_Node000007" class="edge">
<title>Node1&#45;&gt;Node7</title>
<g id="a_edge6_Node000001_Node000007"><a xlink:title=" ">
<path fill="none" stroke="#63b8ff" d="M128.69,-31.26C136.76,-30.02 145.08,-28.75 153.32,-27.48"/>
<polygon fill="#63b8ff" stroke="#63b8ff" points="153.7,-30.81 163.06,-25.83 152.64,-23.89 153.7,-30.81"/>
</a>
</g>
</g>
<!-- Node3 -->
<g id="Node000003" class="node">
<title>Node3</title>
<g id="a_Node000003"><a xlink:href="../../d4/dad/classcarla_1_1client_1_1detail_1_1ActorVariant.html#a25d6826097625e7966794a60332994f5" target="_top" xlink:title=" ">
<polygon fill="white" stroke="#666666" points="459,-82 329.75,-82 329.75,-50 459,-50 459,-82"/>
<text text-anchor="start" x="337.75" y="-68.5" font-family="Helvetica,sans-Serif" font-size="10.00">carla::client::detail</text>
<text text-anchor="middle" x="394.38" y="-56.5" font-family="Helvetica,sans-Serif" font-size="10.00">::ActorVariant::MakeActor</text>
</a>
</g>
</g>
<!-- Node2&#45;&gt;Node3 -->
<g id="edge2_Node000002_Node000003" class="edge">
<title>Node2&#45;&gt;Node3</title>
<g id="a_edge2_Node000002_Node000003"><a xlink:title=" ">
<path fill="none" stroke="#63b8ff" d="M278.22,-66C290.84,-66 304.75,-66 318.41,-66"/>
<polygon fill="#63b8ff" stroke="#63b8ff" points="318.28,-69.5 328.28,-66 318.28,-62.5 318.28,-69.5"/>
</a>
</g>
</g>
<!-- Node4 -->
<g id="Node000004" class="node">
<title>Node4</title>
<g id="a_Node000004"><a xlink:href="../../d8/d4b/classcarla_1_1client_1_1detail_1_1ActorFactory.html#a35ca6b1f59d086fa27630c9f818cf843" target="_top" xlink:title="Create an Actor based on the provided actor_description.">
<polygon fill="white" stroke="#666666" points="626.5,-82 495,-82 495,-50 626.5,-50 626.5,-82"/>
<text text-anchor="start" x="503" y="-68.5" font-family="Helvetica,sans-Serif" font-size="10.00">carla::client::detail</text>
<text text-anchor="middle" x="560.75" y="-56.5" font-family="Helvetica,sans-Serif" font-size="10.00">::ActorFactory::MakeActor</text>
</a>
</g>
</g>
<!-- Node3&#45;&gt;Node4 -->
<g id="edge3_Node000003_Node000004" class="edge">
<title>Node3&#45;&gt;Node4</title>
<g id="a_edge3_Node000003_Node000004"><a xlink:title=" ">
<path fill="none" stroke="#63b8ff" d="M459.4,-66C467.33,-66 475.5,-66 483.59,-66"/>
<polygon fill="#63b8ff" stroke="#63b8ff" points="483.55,-69.5 493.55,-66 483.55,-62.5 483.55,-69.5"/>
</a>
</g>
</g>
<!-- Node5 -->
<g id="Node000005" class="node">
<title>Node5</title>
<g id="a_Node000005"><a xlink:href="../../db/dfd/classcarla_1_1rpc_1_1Actor.html#a427ab77ca916ac215a38a6e984356326" target="_top" xlink:title=" ">
<polygon fill="white" stroke="#666666" points="754.25,-107 662.5,-107 662.5,-75 754.25,-75 754.25,-107"/>
<text text-anchor="start" x="670.5" y="-93.5" font-family="Helvetica,sans-Serif" font-size="10.00">carla::rpc::Actor::</text>
<text text-anchor="middle" x="708.38" y="-81.5" font-family="Helvetica,sans-Serif" font-size="10.00">HasAStream</text>
</a>
</g>
</g>
<!-- Node4&#45;&gt;Node5 -->
<g id="edge4_Node000004_Node000005" class="edge">
<title>Node4&#45;&gt;Node5</title>
<g id="a_edge4_Node000004_Node000005"><a xlink:title=" ">
<path fill="none" stroke="#63b8ff" d="M626.9,-77.18C635.12,-78.6 643.48,-80.03 651.54,-81.42"/>
<polygon fill="#63b8ff" stroke="#63b8ff" points="650.87,-85.02 661.32,-83.26 652.05,-78.12 650.87,-85.02"/>
</a>
</g>
</g>
<!-- Node6 -->
<g id="Node000006" class="node">
<title>Node6</title>
<g id="a_Node000006"><a xlink:href="../../de/d93/classcarla_1_1StringUtil.html#afa9750d2d007ece06fb6f51311a4d7ba" target="_top" xlink:title=" ">
<polygon fill="white" stroke="#666666" points="752.75,-57 664,-57 664,-25 752.75,-25 752.75,-57"/>
<text text-anchor="start" x="672" y="-43.5" font-family="Helvetica,sans-Serif" font-size="10.00">carla::StringUtil::</text>
<text text-anchor="middle" x="708.38" y="-31.5" font-family="Helvetica,sans-Serif" font-size="10.00">StartsWith</text>
</a>
</g>
</g>
<!-- Node4&#45;&gt;Node6 -->
<g id="edge5_Node000004_Node000006" class="edge">
<title>Node4&#45;&gt;Node6</title>
<g id="a_edge5_Node000004_Node000006"><a xlink:title=" ">
<path fill="none" stroke="#63b8ff" d="M626.9,-54.82C635.63,-53.32 644.51,-51.79 653.03,-50.33"/>
<polygon fill="#63b8ff" stroke="#63b8ff" points="653.33,-53.66 662.59,-48.52 652.14,-46.76 653.33,-53.66"/>
</a>
</g>
</g>
</g>
</svg>
