<?xml version="1.0" encoding="UTF-8" standalone="no"?>
<!DOCTYPE svg PUBLIC "-//W3C//DTD SVG 1.1//EN"
 "http://www.w3.org/Graphics/SVG/1.1/DTD/svg11.dtd">
<!-- Generated by graphviz version 8.1.0 (20230707.0739)
 -->
<!-- Title: carla::client::detail::Client::GetRequiredFiles Pages: 1 -->
<svg width="587pt" height="132pt"
 viewBox="0.00 0.00 587.25 132.00" xmlns="http://www.w3.org/2000/svg" xmlns:xlink="http://www.w3.org/1999/xlink">
<g id="graph0" class="graph" transform="scale(1 1) rotate(0) translate(4 128)">
<title>carla::client::detail::Client::GetRequiredFiles</title>
<!-- Node1 -->
<g id="Node000001" class="node">
<title>Node1</title>
<g id="a_Node000001"><a xlink:title=" ">
<polygon fill="#999999" stroke="#666666" points="127.75,-80 0,-80 0,-48 127.75,-48 127.75,-80"/>
<text text-anchor="start" x="8" y="-66.5" font-family="Helvetica,sans-Serif" font-size="10.00">carla::client::detail</text>
<text text-anchor="middle" x="63.88" y="-54.5" font-family="Helvetica,sans-Serif" font-size="10.00">::Client::GetRequiredFiles</text>
</a>
</g>
</g>
<!-- Node2 -->
<g id="Node000002" class="node">
<title>Node2</title>
<g id="a_Node000002"><a xlink:href="../../df/df4/classcarla_1_1client_1_1FileTransfer.html#a5bbbd32758f0bad3d927009c16b9f616" target="_top" xlink:title=" ">
<polygon fill="white" stroke="#666666" points="286.25,-124 163.75,-124 163.75,-92 286.25,-92 286.25,-124"/>
<text text-anchor="start" x="171.75" y="-110.5" font-family="Helvetica,sans-Serif" font-size="10.00">carla::client::FileTransfer</text>
<text text-anchor="middle" x="225" y="-98.5" font-family="Helvetica,sans-Serif" font-size="10.00">::FileExists</text>
</a>
</g>
</g>
<!-- Node1&#45;&gt;Node2 -->
<g id="edge1_Node000001_Node000002" class="edge">
<title>Node1&#45;&gt;Node2</title>
<g id="a_edge1_Node000001_Node000002"><a xlink:title=" ">
<path fill="none" stroke="#63b8ff" d="M124.13,-80.38C133.9,-83.09 144.11,-85.91 154.11,-88.67"/>
<polygon fill="#63b8ff" stroke="#63b8ff" points="152.86,-92.24 163.43,-91.53 154.73,-85.49 152.86,-92.24"/>
</a>
</g>
</g>
<!-- Node3 -->
<g id="Node000003" class="node">
<title>Node3</title>
<g id="a_Node000003"><a xlink:href="../../d9/d36/namespacecarla.html#a7d4c773703bac6e1ed8379a090228612" target="_top" xlink:title=" ">
<polygon fill="white" stroke="#666666" points="263,-74 187,-74 187,-54 263,-54 263,-74"/>
<text text-anchor="middle" x="225" y="-60.5" font-family="Helvetica,sans-Serif" font-size="10.00">carla::log_info</text>
</a>
</g>
</g>
<!-- Node1&#45;&gt;Node3 -->
<g id="edge2_Node000001_Node000003" class="edge">
<title>Node1&#45;&gt;Node3</title>
<g id="a_edge2_Node000001_Node000003"><a xlink:title=" ">
<path fill="none" stroke="#63b8ff" d="M128.22,-64C144.12,-64 160.93,-64 175.94,-64"/>
<polygon fill="#63b8ff" stroke="#63b8ff" points="175.53,-67.5 185.53,-64 175.53,-60.5 175.53,-67.5"/>
</a>
</g>
</g>
<!-- Node5 -->
<g id="Node000005" class="node">
<title>Node5</title>
<g id="a_Node000005"><a xlink:href="../../dd/ddd/classcarla_1_1client_1_1detail_1_1Client.html#a2f367935aef218a16fde3469b3976dd1" target="_top" xlink:title=" ">
<polygon fill="white" stroke="#666666" points="277.25,-35 172.75,-35 172.75,-3 277.25,-3 277.25,-35"/>
<text text-anchor="start" x="180.75" y="-21.5" font-family="Helvetica,sans-Serif" font-size="10.00">carla::client::detail</text>
<text text-anchor="middle" x="225" y="-9.5" font-family="Helvetica,sans-Serif" font-size="10.00">::Client::RequestFile</text>
</a>
</g>
</g>
<!-- Node1&#45;&gt;Node5 -->
<g id="edge4_Node000001_Node000005" class="edge">
<title>Node1&#45;&gt;Node5</title>
<g id="a_edge4_Node000001_Node000005"><a xlink:title=" ">
<path fill="none" stroke="#63b8ff" d="M122.77,-47.63C135.6,-44 149.25,-40.14 162.23,-36.47"/>
<polygon fill="#63b8ff" stroke="#63b8ff" points="162.8,-39.66 171.47,-33.57 160.89,-32.93 162.8,-39.66"/>
</a>
</g>
</g>
<!-- Node4 -->
<g id="Node000004" class="node">
<title>Node4</title>
<g id="a_Node000004"><a xlink:href="../../d2/d8c/namespacecarla_1_1logging.html#a4193666236852fb6a6977299a31445d8" target="_top" xlink:title=" ">
<polygon fill="white" stroke="#666666" points="433.5,-82 333.5,-82 333.5,-50 433.5,-50 433.5,-82"/>
<text text-anchor="start" x="341.5" y="-68.5" font-family="Helvetica,sans-Serif" font-size="10.00">carla::logging::write</text>
<text text-anchor="middle" x="383.5" y="-56.5" font-family="Helvetica,sans-Serif" font-size="10.00">_to_stream</text>
</a>
</g>
</g>
<!-- Node3&#45;&gt;Node4 -->
<g id="edge3_Node000003_Node000004" class="edge">
<title>Node3&#45;&gt;Node4</title>
<g id="a_edge3_Node000003_Node000004"><a xlink:title=" ">
<path fill="none" stroke="#63b8ff" d="M263.49,-64.48C281.11,-64.7 302.56,-64.98 322.38,-65.23"/>
<polygon fill="#63b8ff" stroke="#63b8ff" points="322.14,-68.74 332.18,-65.37 322.23,-61.74 322.14,-68.74"/>
</a>
</g>
</g>
<!-- Node6 -->
<g id="Node000006" class="node">
<title>Node6</title>
<g id="a_Node000006"><a xlink:href="../../df/df4/classcarla_1_1client_1_1FileTransfer.html#ad34a81fe308747f5a47f852872370cce" target="_top" xlink:title=" ">
<polygon fill="white" stroke="#666666" points="444.75,-32 322.25,-32 322.25,0 444.75,0 444.75,-32"/>
<text text-anchor="start" x="330.25" y="-18.5" font-family="Helvetica,sans-Serif" font-size="10.00">carla::client::FileTransfer</text>
<text text-anchor="middle" x="383.5" y="-6.5" font-family="Helvetica,sans-Serif" font-size="10.00">::WriteFile</text>
</a>
</g>
</g>
<!-- Node5&#45;&gt;Node6 -->
<g id="edge5_Node000005_Node000006" class="edge">
<title>Node5&#45;&gt;Node6</title>
<g id="a_edge5_Node000005_Node000006"><a xlink:title=" ">
<path fill="none" stroke="#63b8ff" d="M277.68,-18.01C288.41,-17.8 299.89,-17.58 311.18,-17.37"/>
<polygon fill="#63b8ff" stroke="#63b8ff" points="310.98,-20.85 320.91,-17.16 310.85,-13.85 310.98,-20.85"/>
</a>
</g>
</g>
<!-- Node7 -->
<g id="Node000007" class="node">
<title>Node7</title>
<g id="a_Node000007"><a xlink:href="../../d2/d21/classcarla_1_1FileSystem.html#a86e4a48162e4e44b0e199fb43229b500" target="_top" xlink:title="Convenient function to validate a path before creating a file.">
<polygon fill="white" stroke="#666666" points="579.25,-32 480.75,-32 480.75,0 579.25,0 579.25,-32"/>
<text text-anchor="start" x="488.75" y="-18.5" font-family="Helvetica,sans-Serif" font-size="10.00">carla::FileSystem::</text>
<text text-anchor="middle" x="530" y="-6.5" font-family="Helvetica,sans-Serif" font-size="10.00">ValidateFilePath</text>
</a>
</g>
</g>
<!-- Node6&#45;&gt;Node7 -->
<g id="edge6_Node000006_Node000007" class="edge">
<title>Node6&#45;&gt;Node7</title>
<g id="a_edge6_Node000006_Node000007"><a xlink:title=" ">
<path fill="none" stroke="#63b8ff" d="M444.94,-16C453.13,-16 461.53,-16 469.7,-16"/>
<polygon fill="#63b8ff" stroke="#63b8ff" points="469.65,-19.5 479.65,-16 469.65,-12.5 469.65,-19.5"/>
</a>
</g>
</g>
</g>
</svg>
