<?xml version="1.0" encoding="UTF-8" standalone="no"?>
<!DOCTYPE svg PUBLIC "-//W3C//DTD SVG 1.1//EN"
 "http://www.w3.org/Graphics/SVG/1.1/DTD/svg11.dtd">
<!-- Generated by graphviz version 8.1.0 (20230707.0739)
 -->
<!-- Title: carla::client::detail::Client::GetEndpoint Pages: 1 -->
<svg width="1017pt" height="190pt"
 viewBox="0.00 0.00 1016.75 190.00" xmlns="http://www.w3.org/2000/svg" xmlns:xlink="http://www.w3.org/1999/xlink">
<g id="graph0" class="graph" transform="scale(1 1) rotate(0) translate(4 186)">
<title>carla::client::detail::Client::GetEndpoint</title>
<!-- Node1 -->
<g id="Node000001" class="node">
<title>Node1</title>
<g id="a_Node000001"><a xlink:title=" ">
<polygon fill="#999999" stroke="#666666" points="1008.75,-132 902,-132 902,-100 1008.75,-100 1008.75,-132"/>
<text text-anchor="start" x="910" y="-118.5" font-family="Helvetica,sans-Serif" font-size="10.00">carla::client::detail</text>
<text text-anchor="middle" x="955.38" y="-106.5" font-family="Helvetica,sans-Serif" font-size="10.00">::Client::GetEndpoint</text>
</a>
</g>
</g>
<!-- Node2 -->
<g id="Node000002" class="node">
<title>Node2</title>
<g id="a_Node000002"><a xlink:href="../../df/df3/classcarla_1_1client_1_1detail_1_1Simulator.html#abb437d50fa2f26fa02aa24e7157a6bfe" target="_top" xlink:title=" ">
<polygon fill="white" stroke="#666666" points="866,-182 742.75,-182 742.75,-150 866,-150 866,-182"/>
<text text-anchor="start" x="750.75" y="-168.5" font-family="Helvetica,sans-Serif" font-size="10.00">carla::client::detail</text>
<text text-anchor="middle" x="804.38" y="-156.5" font-family="Helvetica,sans-Serif" font-size="10.00">::Simulator::GetEndpoint</text>
</a>
</g>
</g>
<!-- Node1&#45;&gt;Node2 -->
<g id="edge1_Node000001_Node000002" class="edge">
<title>Node1&#45;&gt;Node2</title>
<g id="a_edge1_Node000001_Node000002"><a xlink:title=" ">
<path fill="none" stroke="#63b8ff" d="M895.4,-135.79C881.86,-140.33 867.6,-145.12 854.53,-149.51"/>
<polygon fill="#63b8ff" stroke="#63b8ff" points="896.22,-138.87 904.59,-132.37 893.99,-132.24 896.22,-138.87"/>
</a>
</g>
</g>
<!-- Node3 -->
<g id="Node000003" class="node">
<title>Node3</title>
<g id="a_Node000003"><a xlink:href="../../df/df3/classcarla_1_1client_1_1detail_1_1Simulator.html#abf453835f6d0a2adec59c68aca2457eb" target="_top" xlink:title=" ">
<polygon fill="white" stroke="#666666" points="852.12,-132 756.62,-132 756.62,-100 852.12,-100 852.12,-132"/>
<text text-anchor="start" x="764.62" y="-118.5" font-family="Helvetica,sans-Serif" font-size="10.00">carla::client::detail</text>
<text text-anchor="middle" x="804.38" y="-106.5" font-family="Helvetica,sans-Serif" font-size="10.00">::Simulator::Tick</text>
</a>
</g>
</g>
<!-- Node1&#45;&gt;Node3 -->
<g id="edge2_Node000001_Node000003" class="edge">
<title>Node1&#45;&gt;Node3</title>
<g id="a_edge2_Node000001_Node000003"><a xlink:title=" ">
<path fill="none" stroke="#63b8ff" d="M891.11,-116C878.15,-116 864.73,-116 852.47,-116"/>
<polygon fill="#63b8ff" stroke="#63b8ff" points="890.84,-119.5 900.84,-116 890.84,-112.5 890.84,-119.5"/>
</a>
</g>
</g>
<!-- Node4 -->
<g id="Node000004" class="node">
<title>Node4</title>
<g id="a_Node000004"><a xlink:href="../../df/df3/classcarla_1_1client_1_1detail_1_1Simulator.html#a002b29bb5445982c00d7566e5cfa0439" target="_top" xlink:title=" ">
<polygon fill="white" stroke="#666666" points="865.25,-82 743.5,-82 743.5,-50 865.25,-50 865.25,-82"/>
<text text-anchor="start" x="751.5" y="-68.5" font-family="Helvetica,sans-Serif" font-size="10.00">carla::client::detail</text>
<text text-anchor="middle" x="804.38" y="-56.5" font-family="Helvetica,sans-Serif" font-size="10.00">::Simulator::WaitForTick</text>
</a>
</g>
</g>
<!-- Node1&#45;&gt;Node4 -->
<g id="edge3_Node000001_Node000004" class="edge">
<title>Node1&#45;&gt;Node4</title>
<g id="a_edge3_Node000001_Node000004"><a xlink:title=" ">
<path fill="none" stroke="#63b8ff" d="M895.4,-96.21C881.86,-91.67 867.6,-86.88 854.53,-82.49"/>
<polygon fill="#63b8ff" stroke="#63b8ff" points="893.99,-99.76 904.59,-99.63 896.22,-93.13 893.99,-99.76"/>
</a>
</g>
</g>
<!-- Node5 -->
<g id="Node000005" class="node">
<title>Node5</title>
<g id="a_Node000005"><a xlink:href="../../df/df3/classcarla_1_1client_1_1detail_1_1Simulator.html#a57c33e4d297be5e0285a14fc8bac65b2" target="_top" xlink:title=" ">
<polygon fill="white" stroke="#666666" points="706.75,-88 562.5,-88 562.5,-44 706.75,-44 706.75,-88"/>
<text text-anchor="start" x="570.5" y="-74.5" font-family="Helvetica,sans-Serif" font-size="10.00">carla::client::detail</text>
<text text-anchor="start" x="570.5" y="-62.5" font-family="Helvetica,sans-Serif" font-size="10.00">::Simulator::GetReadyCurrent</text>
<text text-anchor="middle" x="634.62" y="-50.5" font-family="Helvetica,sans-Serif" font-size="10.00">Episode</text>
</a>
</g>
</g>
<!-- Node4&#45;&gt;Node5 -->
<g id="edge4_Node000004_Node000005" class="edge">
<title>Node4&#45;&gt;Node5</title>
<g id="a_edge4_Node000004_Node000005"><a xlink:title=" ">
<path fill="none" stroke="#63b8ff" d="M732.39,-66C723.99,-66 715.43,-66 707.03,-66"/>
<polygon fill="#63b8ff" stroke="#63b8ff" points="732.29,-69.5 742.29,-66 732.29,-62.5 732.29,-69.5"/>
</a>
</g>
</g>
<!-- Node6 -->
<g id="Node000006" class="node">
<title>Node6</title>
<g id="a_Node000006"><a xlink:href="../../df/df3/classcarla_1_1client_1_1detail_1_1Simulator.html#af6e35986ac6ca31bfa0f99df4be2b8d3" target="_top" xlink:title=" ">
<polygon fill="white" stroke="#666666" points="522.75,-107 371,-107 371,-75 522.75,-75 522.75,-107"/>
<text text-anchor="start" x="379" y="-93.5" font-family="Helvetica,sans-Serif" font-size="10.00">carla::client::detail</text>
<text text-anchor="middle" x="446.88" y="-81.5" font-family="Helvetica,sans-Serif" font-size="10.00">::Simulator::GetCurrentEpisode</text>
</a>
</g>
</g>
<!-- Node5&#45;&gt;Node6 -->
<g id="edge5_Node000005_Node000006" class="edge">
<title>Node5&#45;&gt;Node6</title>
<g id="a_edge5_Node000005_Node000006"><a xlink:title=" ">
<path fill="none" stroke="#63b8ff" d="M551.18,-77.1C541.83,-78.35 532.34,-79.63 523.08,-80.88"/>
<polygon fill="#63b8ff" stroke="#63b8ff" points="551.63,-80.43 561.07,-75.63 550.7,-73.5 551.63,-80.43"/>
</a>
</g>
</g>
<!-- Node14 -->
<g id="Node000014" class="node">
<title>Node14</title>
<g id="a_Node000014"><a xlink:href="../../df/df3/classcarla_1_1client_1_1detail_1_1Simulator.html#aae1f4ab0322223440b1f87d6024d36c3" target="_top" xlink:title=" ">
<polygon fill="white" stroke="#666666" points="526.5,-57 367.25,-57 367.25,-25 526.5,-25 526.5,-57"/>
<text text-anchor="start" x="375.25" y="-43.5" font-family="Helvetica,sans-Serif" font-size="10.00">carla::client::detail</text>
<text text-anchor="middle" x="446.88" y="-31.5" font-family="Helvetica,sans-Serif" font-size="10.00">::Simulator::GetCurrentEpisodeId</text>
</a>
</g>
</g>
<!-- Node5&#45;&gt;Node14 -->
<g id="edge13_Node000005_Node000014" class="edge">
<title>Node5&#45;&gt;Node14</title>
<g id="a_edge13_Node000005_Node000014"><a xlink:title=" ">
<path fill="none" stroke="#63b8ff" d="M551.41,-54.93C543.23,-53.83 534.94,-52.72 526.8,-51.62"/>
<polygon fill="#63b8ff" stroke="#63b8ff" points="550.7,-58.5 561.07,-56.37 551.63,-51.57 550.7,-58.5"/>
</a>
</g>
</g>
<!-- Node7 -->
<g id="Node000007" class="node">
<title>Node7</title>
<g id="a_Node000007"><a xlink:href="../../df/df3/classcarla_1_1client_1_1detail_1_1Simulator.html#a67c2350237e7fdfabd9c08a40034f2bd" target="_top" xlink:title=" ">
<polygon fill="white" stroke="#666666" points="323.75,-182 213.25,-182 213.25,-150 323.75,-150 323.75,-182"/>
<text text-anchor="start" x="221.25" y="-168.5" font-family="Helvetica,sans-Serif" font-size="10.00">carla::client::detail</text>
<text text-anchor="middle" x="268.5" y="-156.5" font-family="Helvetica,sans-Serif" font-size="10.00">::Simulator::GetWorld</text>
</a>
</g>
</g>
<!-- Node6&#45;&gt;Node7 -->
<g id="edge6_Node000006_Node000007" class="edge">
<title>Node6&#45;&gt;Node7</title>
<g id="a_edge6_Node000006_Node000007"><a xlink:title=" ">
<path fill="none" stroke="#63b8ff" d="M398.99,-111.79C378.28,-120.88 353.61,-131.6 331.25,-141 324.53,-143.82 317.38,-146.77 310.42,-149.61"/>
<polygon fill="#63b8ff" stroke="#63b8ff" points="400.07,-114.7 407.81,-107.46 397.25,-108.29 400.07,-114.7"/>
</a>
</g>
</g>
<!-- Node8 -->
<g id="Node000008" class="node">
<title>Node8</title>
<g id="a_Node000008"><a xlink:href="../../df/df3/classcarla_1_1client_1_1detail_1_1Simulator.html#ab5481628a75cf422d65b88d557fa57ff" target="_top" xlink:title=" ">
<polygon fill="white" stroke="#666666" points="331.25,-132 205.75,-132 205.75,-100 331.25,-100 331.25,-132"/>
<text text-anchor="start" x="213.75" y="-118.5" font-family="Helvetica,sans-Serif" font-size="10.00">carla::client::detail</text>
<text text-anchor="middle" x="268.5" y="-106.5" font-family="Helvetica,sans-Serif" font-size="10.00">::Simulator::LoadEpisode</text>
</a>
</g>
</g>
<!-- Node6&#45;&gt;Node8 -->
<g id="edge7_Node000006_Node000008" class="edge">
<title>Node6&#45;&gt;Node8</title>
<g id="a_edge7_Node000006_Node000008"><a xlink:title=" ">
<path fill="none" stroke="#63b8ff" d="M359.83,-103.2C350.28,-104.55 340.7,-105.91 331.54,-107.21"/>
<polygon fill="#63b8ff" stroke="#63b8ff" points="360.15,-106.54 369.56,-101.67 359.17,-99.61 360.15,-106.54"/>
</a>
</g>
</g>
<!-- Node11 -->
<g id="Node000011" class="node">
<title>Node11</title>
<g id="a_Node000011"><a xlink:href="../../df/df3/classcarla_1_1client_1_1detail_1_1Simulator.html#a5127db735834f03f44930d0edf65527a" target="_top" xlink:title="Creates an actor instance out of a description of an existing actor.">
<polygon fill="white" stroke="#666666" points="326.75,-82 210.25,-82 210.25,-50 326.75,-50 326.75,-82"/>
<text text-anchor="start" x="218.25" y="-68.5" font-family="Helvetica,sans-Serif" font-size="10.00">carla::client::detail</text>
<text text-anchor="middle" x="268.5" y="-56.5" font-family="Helvetica,sans-Serif" font-size="10.00">::Simulator::MakeActor</text>
</a>
</g>
</g>
<!-- Node6&#45;&gt;Node11 -->
<g id="edge10_Node000006_Node000011" class="edge">
<title>Node6&#45;&gt;Node11</title>
<g id="a_edge10_Node000006_Node000011"><a xlink:title=" ">
<path fill="none" stroke="#63b8ff" d="M359.96,-78.82C348.86,-77.25 337.71,-75.67 327.22,-74.18"/>
<polygon fill="#63b8ff" stroke="#63b8ff" points="359.17,-82.39 369.56,-80.33 360.15,-75.46 359.17,-82.39"/>
</a>
</g>
</g>
<!-- Node13 -->
<g id="Node000013" class="node">
<title>Node13</title>
<g id="a_Node000013"><a xlink:href="../../df/df3/classcarla_1_1client_1_1detail_1_1Simulator.html#a49a4e44139e9b01e4a16aa1f87ebf828" target="_top" xlink:title="Spawns an actor into the simulation.">
<polygon fill="white" stroke="#666666" points="329.38,-32 207.62,-32 207.62,0 329.38,0 329.38,-32"/>
<text text-anchor="start" x="215.62" y="-18.5" font-family="Helvetica,sans-Serif" font-size="10.00">carla::client::detail</text>
<text text-anchor="middle" x="268.5" y="-6.5" font-family="Helvetica,sans-Serif" font-size="10.00">::Simulator::SpawnActor</text>
</a>
</g>
</g>
<!-- Node6&#45;&gt;Node13 -->
<g id="edge12_Node000006_Node000013" class="edge">
<title>Node6&#45;&gt;Node13</title>
<g id="a_edge12_Node000006_Node000013"><a xlink:title=" ">
<path fill="none" stroke="#63b8ff" d="M377.52,-70.67C374.01,-69.19 370.56,-67.63 367.25,-66 349.77,-57.4 348.38,-50.27 331.25,-41 325.65,-37.97 319.61,-35.09 313.58,-32.44"/>
<polygon fill="#63b8ff" stroke="#63b8ff" points="375.97,-74.21 386.56,-74.63 378.54,-67.7 375.97,-74.21"/>
</a>
</g>
</g>
<!-- Node9 -->
<g id="Node000009" class="node">
<title>Node9</title>
<g id="a_Node000009"><a xlink:href="../../df/df3/classcarla_1_1client_1_1detail_1_1Simulator.html#a9c02ba42b0f621acadcedde6cece26f7" target="_top" xlink:title=" ">
<polygon fill="white" stroke="#666666" points="169.75,-182 0,-182 0,-150 169.75,-150 169.75,-182"/>
<text text-anchor="start" x="8" y="-168.5" font-family="Helvetica,sans-Serif" font-size="10.00">carla::client::detail</text>
<text text-anchor="middle" x="84.88" y="-156.5" font-family="Helvetica,sans-Serif" font-size="10.00">::Simulator::LoadOpenDriveEpisode</text>
</a>
</g>
</g>
<!-- Node8&#45;&gt;Node9 -->
<g id="edge8_Node000008_Node000009" class="edge">
<title>Node8&#45;&gt;Node9</title>
<g id="a_edge8_Node000008_Node000009"><a xlink:title=" ">
<path fill="none" stroke="#63b8ff" d="M197.31,-135.32C180.25,-140.02 162.16,-145 145.63,-149.55"/>
<polygon fill="#63b8ff" stroke="#63b8ff" points="198.07,-138.47 206.78,-132.44 196.21,-131.72 198.07,-138.47"/>
</a>
</g>
</g>
<!-- Node10 -->
<g id="Node000010" class="node">
<title>Node10</title>
<g id="a_Node000010"><a xlink:href="../../df/df3/classcarla_1_1client_1_1detail_1_1Simulator.html#a3456d71f81301522bdfb013838bc4589" target="_top" xlink:title=" ">
<polygon fill="white" stroke="#666666" points="152.12,-132 17.62,-132 17.62,-100 152.12,-100 152.12,-132"/>
<text text-anchor="start" x="25.62" y="-118.5" font-family="Helvetica,sans-Serif" font-size="10.00">carla::client::detail</text>
<text text-anchor="middle" x="84.88" y="-106.5" font-family="Helvetica,sans-Serif" font-size="10.00">::Simulator::ReloadEpisode</text>
</a>
</g>
</g>
<!-- Node8&#45;&gt;Node10 -->
<g id="edge9_Node000008_Node000010" class="edge">
<title>Node8&#45;&gt;Node10</title>
<g id="a_edge9_Node000008_Node000010"><a xlink:title=" ">
<path fill="none" stroke="#63b8ff" d="M194.53,-116C180.67,-116 166.22,-116 152.56,-116"/>
<polygon fill="#63b8ff" stroke="#63b8ff" points="194.5,-119.5 204.5,-116 194.5,-112.5 194.5,-119.5"/>
</a>
</g>
</g>
<!-- Node12 -->
<g id="Node000012" class="node">
<title>Node12</title>
<g id="a_Node000012"><a xlink:href="../../df/df3/classcarla_1_1client_1_1detail_1_1Simulator.html#a961f59d6b4998debd50c4d5aa931806c" target="_top" xlink:title=" ">
<polygon fill="white" stroke="#666666" points="148.38,-82 21.37,-82 21.37,-50 148.38,-50 148.38,-82"/>
<text text-anchor="start" x="29.38" y="-68.5" font-family="Helvetica,sans-Serif" font-size="10.00">carla::client::detail</text>
<text text-anchor="middle" x="84.88" y="-56.5" font-family="Helvetica,sans-Serif" font-size="10.00">::Simulator::GetSpectator</text>
</a>
</g>
</g>
<!-- Node11&#45;&gt;Node12 -->
<g id="edge11_Node000011_Node000012" class="edge">
<title>Node11&#45;&gt;Node12</title>
<g id="a_edge11_Node000011_Node000012"><a xlink:title=" ">
<path fill="none" stroke="#63b8ff" d="M199.11,-66C182.6,-66 165.04,-66 148.79,-66"/>
<polygon fill="#63b8ff" stroke="#63b8ff" points="198.78,-69.5 208.78,-66 198.78,-62.5 198.78,-69.5"/>
</a>
</g>
</g>
</g>
</svg>
