<?xml version="1.0" encoding="UTF-8" standalone="no"?>
<!DOCTYPE svg PUBLIC "-//W3C//DTD SVG 1.1//EN"
 "http://www.w3.org/Graphics/SVG/1.1/DTD/svg11.dtd">
<!-- Generated by graphviz version 8.1.0 (20230707.0739)
 -->
<!-- Title: xpath_string::data Pages: 1 -->
<!--zoomable 397 -->

<svg id="main" version="1.1" xmlns="http://www.w3.org/2000/svg" xmlns:xlink="http://www.w3.org/1999/xlink" xml:space="preserve" onload="init(evt)">
<style type="text/css"><![CDATA[
.node, .edge {opacity: 0.7;}
.node.selected, .edge.selected {opacity: 1;}
.edge:hover path { stroke: red; }
.edge:hover polygon { stroke: red; fill: red; }
]]></style>

<defs>
  <circle id="rim" cx="0" cy="0" r="7"/>
  <circle id="rim2" cx="0" cy="0" r="3.5"/>
  <g id="zoomPlus">
    <use xlink:href="#rim" fill="#404040"><set attributeName="fill" to="#808080" begin="zoomplus.mouseover" end="zoomplus.mouseout"/></use>
    <path d="M-4,0h8M0,-4v8" fill="none" stroke="white" stroke-width="1.5" pointer-events="none"/>
  </g>
  <g id="zoomMin">
    <use xlink:href="#rim" fill="#404040"><set attributeName="fill" to="#808080" begin="zoomminus.mouseover" end="zoomminus.mouseout"/></use>
    <path d="M-4,0h8" fill="none" stroke="white" stroke-width="1.5" pointer-events="none"/>
  </g>
  <g id="arrowUp" transform="translate(30 24)">
    <use xlink:href="#rim"/>
    <path pointer-events="none" fill="none" stroke="white" stroke-width="1.5" d="M0,-3.0v7 M-2.5,-0.5L0,-3.0L2.5,-0.5"/>
  </g>
  <g id="arrowRight" transform="rotate(90) translate(36 -43)">
    <use xlink:href="#rim"/>
    <path pointer-events="none" fill="none" stroke="white" stroke-width="1.5" d="M0,-3.0v7 M-2.5,-0.5L0,-3.0L2.5,-0.5"/>
  </g>
  <g id="arrowDown" transform="rotate(180) translate(-30 -48)">
    <use xlink:href="#rim"/>
    <path pointer-events="none" fill="none" stroke="white" stroke-width="1.5" d="M0,-3.0v7 M-2.5,-0.5L0,-3.0L2.5,-0.5"/>
  </g>
  <g id="arrowLeft" transform="rotate(270) translate(-36 17)">
    <use xlink:href="#rim"/>
    <path pointer-events="none" fill="none" stroke="white" stroke-width="1.5" d="M0,-3.0v7 M-2.5,-0.5L0,-3.0L2.5,-0.5"/>
  </g>
  <g id="resetDef">
    <use xlink:href="#rim2" fill="#404040"><set attributeName="fill" to="#808080" begin="reset.mouseover" end="reset.mouseout"/></use>
  </g>
</defs>
<script type="application/ecmascript">
var viewWidth = 1514;
var viewHeight = 397;
var sectionId = 'dynsection-6';
</script>
<script type="application/ecmascript" xlink:href="../../svg.min.js"/>
<svg id="graph" class="graph">
<g id="viewport">
<title>xpath_string::data</title>
<!-- Node1 -->
<g id="Node000001" class="node">
<title>Node1</title>
<g id="a_Node000001"><a xlink:title=" ">
<polygon fill="#999999" stroke="#666666" points="1505.5,-112.8 1411.5,-112.8 1411.5,-92.8 1505.5,-92.8 1505.5,-112.8"/>
<text text-anchor="middle" x="1458.5" y="-99.3" font-family="Helvetica,sans-Serif" font-size="10.00">xpath_string::data</text>
</a>
</g>
</g>
<!-- Node2 -->
<g id="Node000002" class="node">
<title>Node2</title>
<g id="a_Node000002"><a xlink:href="../../d3/dc5/classxpath__ast__node.html#a6b675237a590548b68d0e0b97518b6df" target="_top" xlink:title=" ">
<polygon fill="white" stroke="#666666" points="1219.25,-118.8 1111.75,-118.8 1111.75,-86.8 1219.25,-86.8 1219.25,-118.8"/>
<text text-anchor="start" x="1119.75" y="-105.3" font-family="Helvetica,sans-Serif" font-size="10.00">xpath_ast_node::eval</text>
<text text-anchor="middle" x="1165.5" y="-93.3" font-family="Helvetica,sans-Serif" font-size="10.00">_string</text>
</a>
</g>
</g>
<!-- Node1&#45;&gt;Node2 -->
<g id="edge1_Node000001_Node000002" class="edge">
<title>Node1&#45;&gt;Node2</title>
<g id="a_edge1_Node000001_Node000002"><a xlink:title=" ">
<path fill="none" stroke="#63b8ff" d="M1400.27,-102.8C1347.83,-102.8 1270.79,-102.8 1219.67,-102.8"/>
<polygon fill="#63b8ff" stroke="#63b8ff" points="1400.07,-106.3 1410.07,-102.8 1400.07,-99.3 1400.07,-106.3"/>
</a>
</g>
</g>
<!-- Node14 -->
<g id="Node000014" class="node">
<title>Node14</title>
<g id="a_Node000014"><a xlink:href="../../dd/d5c/classxpath__string.html#aaf1229b7a7ae918b41bf995df16c8896" target="_top" xlink:title=" ">
<polygon fill="white" stroke="#666666" points="1375.5,-93.8 1255.25,-93.8 1255.25,-73.8 1375.5,-73.8 1375.5,-93.8"/>
<text text-anchor="middle" x="1315.38" y="-80.3" font-family="Helvetica,sans-Serif" font-size="10.00">xpath_string::from_heap</text>
</a>
</g>
</g>
<!-- Node1&#45;&gt;Node14 -->
<g id="edge34_Node000001_Node000014" class="edge">
<title>Node1&#45;&gt;Node14</title>
<g id="a_edge34_Node000001_Node000014"><a xlink:title=" ">
<path fill="none" stroke="#63b8ff" d="M1400.43,-95.11C1392.32,-94.02 1383.96,-92.89 1375.81,-91.8"/>
<polygon fill="#63b8ff" stroke="#63b8ff" points="1399.91,-98.71 1410.29,-96.57 1400.85,-91.77 1399.91,-98.71"/>
</a>
</g>
</g>
<!-- Node2&#45;&gt;Node2 -->
<g id="edge31_Node000002_Node000002" class="edge">
<title>Node2&#45;&gt;Node2</title>
<g id="a_edge31_Node000002_Node000002"><a xlink:title=" ">
<path fill="none" stroke="#63b8ff" d="M1191.15,-129.84C1187.25,-133.98 1178.7,-136.8 1165.5,-136.8 1142.67,-136.8 1133.75,-128.38 1138.74,-119.24"/>
<polygon fill="#63b8ff" stroke="#63b8ff" points="1194.7,-130.55 1192.26,-120.24 1187.74,-129.82 1194.7,-130.55"/>
</a>
</g>
</g>
<!-- Node3 -->
<g id="Node000003" class="node">
<title>Node3</title>
<g id="a_Node000003"><a xlink:href="../../d3/dc5/classxpath__ast__node.html#a98dd7f6e67fe2c56c63056eed835d6a4" target="_top" xlink:title=" ">
<polygon fill="white" stroke="#666666" points="1075.75,-194.8 931.5,-194.8 931.5,-174.8 1075.75,-174.8 1075.75,-194.8"/>
<text text-anchor="middle" x="1003.62" y="-181.3" font-family="Helvetica,sans-Serif" font-size="10.00">xpath_ast_node::compare_eq</text>
</a>
</g>
</g>
<!-- Node2&#45;&gt;Node3 -->
<g id="edge2_Node000002_Node000003" class="edge">
<title>Node2&#45;&gt;Node3</title>
<g id="a_edge2_Node000002_Node000003"><a xlink:title=" ">
<path fill="none" stroke="#63b8ff" d="M1123.11,-124.02C1091.56,-140.21 1049.48,-161.79 1024.89,-174.4"/>
<polygon fill="#63b8ff" stroke="#63b8ff" points="1124.23,-126.87 1131.53,-119.19 1121.04,-120.64 1124.23,-126.87"/>
</a>
</g>
</g>
<!-- Node4 -->
<g id="Node000004" class="node">
<title>Node4</title>
<g id="a_Node000004"><a xlink:href="../../d3/dc5/classxpath__ast__node.html#ab7f965a92023bc2704b8e6fd9f3d7c14" target="_top" xlink:title=" ">
<polygon fill="white" stroke="#666666" points="895.5,-247.8 788,-247.8 788,-215.8 895.5,-215.8 895.5,-247.8"/>
<text text-anchor="start" x="796" y="-234.3" font-family="Helvetica,sans-Serif" font-size="10.00">xpath_ast_node::eval</text>
<text text-anchor="middle" x="841.75" y="-222.3" font-family="Helvetica,sans-Serif" font-size="10.00">_boolean</text>
</a>
</g>
</g>
<!-- Node2&#45;&gt;Node4 -->
<g id="edge29_Node000002_Node000004" class="edge">
<title>Node2&#45;&gt;Node4</title>
<g id="a_edge29_Node000002_Node000004"><a xlink:title=" ">
<path fill="none" stroke="#63b8ff" d="M1145.32,-127.71C1129.69,-149.34 1105.39,-179.19 1075.75,-194.8 1019.51,-224.41 945.29,-228.33 895.89,-228.91"/>
<polygon fill="#63b8ff" stroke="#63b8ff" points="1148.56,-130.19 1151.48,-120.01 1142.84,-126.15 1148.56,-130.19"/>
</a>
</g>
</g>
<!-- Node9 -->
<g id="Node000009" class="node">
<title>Node9</title>
<g id="a_Node000009"><a xlink:href="../../d3/dc5/classxpath__ast__node.html#a92dd7048e28d486bc7f382d1fc6f1de6" target="_top" xlink:title=" ">
<polygon fill="white" stroke="#666666" points="748.62,-203.8 641.12,-203.8 641.12,-171.8 748.62,-171.8 748.62,-203.8"/>
<text text-anchor="start" x="649.12" y="-190.3" font-family="Helvetica,sans-Serif" font-size="10.00">xpath_ast_node::eval</text>
<text text-anchor="middle" x="694.88" y="-178.3" font-family="Helvetica,sans-Serif" font-size="10.00">_number</text>
</a>
</g>
</g>
<!-- Node2&#45;&gt;Node9 -->
<g id="edge30_Node000002_Node000009" class="edge">
<title>Node2&#45;&gt;Node9</title>
<g id="a_edge30_Node000002_Node000009"><a xlink:title=" ">
<path fill="none" stroke="#63b8ff" d="M1100.97,-109.52C1007.77,-123.72 835.69,-155.04 748.89,-173.71"/>
<polygon fill="#63b8ff" stroke="#63b8ff" points="1101.28,-112.86 1110.65,-107.92 1100.25,-105.94 1101.28,-112.86"/>
</a>
</g>
</g>
<!-- Node13 -->
<g id="Node000013" class="node">
<title>Node13</title>
<g id="a_Node000013"><a xlink:href="../../d3/dc5/classxpath__ast__node.html#aaf931a091af0fb91c25e90b205363b4e" target="_top" xlink:title=" ">
<polygon fill="white" stroke="#666666" points="1057.38,-65.8 949.88,-65.8 949.88,-33.8 1057.38,-33.8 1057.38,-65.8"/>
<text text-anchor="start" x="957.88" y="-52.3" font-family="Helvetica,sans-Serif" font-size="10.00">xpath_ast_node::eval</text>
<text text-anchor="middle" x="1003.62" y="-40.3" font-family="Helvetica,sans-Serif" font-size="10.00">_string_concat</text>
</a>
</g>
</g>
<!-- Node2&#45;&gt;Node13 -->
<g id="edge32_Node000002_Node000013" class="edge">
<title>Node2&#45;&gt;Node13</title>
<g id="a_edge32_Node000002_Node000013"><a xlink:title=" ">
<path fill="none" stroke="#63b8ff" d="M1121.59,-82.51C1101.96,-75.22 1078.51,-67.33 1057.78,-61.01"/>
<polygon fill="#63b8ff" stroke="#63b8ff" points="1120.17,-86.09 1130.76,-86.37 1122.65,-79.55 1120.17,-86.09"/>
</a>
</g>
</g>
<!-- Node3&#45;&gt;Node4 -->
<g id="edge3_Node000003_Node000004" class="edge">
<title>Node3&#45;&gt;Node4</title>
<g id="a_edge3_Node000003_Node000004"><a xlink:title=" ">
<path fill="none" stroke="#63b8ff" d="M934.44,-198.16C915.39,-203.54 895.42,-209.72 879,-215.38"/>
<polygon fill="#63b8ff" stroke="#63b8ff" points="935.21,-201.3 943.91,-195.25 933.33,-194.55 935.21,-201.3"/>
</a>
</g>
</g>
<!-- Node4&#45;&gt;Node2 -->
<g id="edge28_Node000004_Node000002" class="edge">
<title>Node4&#45;&gt;Node2</title>
<g id="a_edge28_Node000004_Node000002"><a xlink:title=" ">
<path fill="none" stroke="#63b8ff" d="M906.66,-243.46C955.64,-245.65 1023.47,-240.33 1075.75,-212.8 1115.82,-191.69 1146.13,-144.57 1158.46,-119.07"/>
<polygon fill="#63b8ff" stroke="#63b8ff" points="907.08,-239.92 896.89,-242.84 906.67,-246.91 907.08,-239.92"/>
</a>
</g>
</g>
<!-- Node4&#45;&gt;Node3 -->
<g id="edge25_Node000004_Node000003" class="edge">
<title>Node4&#45;&gt;Node3</title>
<g id="a_edge25_Node000004_Node000003"><a xlink:title=" ">
<path fill="none" stroke="#63b8ff" d="M906.2,-219.76C933.68,-212.12 963.87,-202.58 983.02,-195.17"/>
<polygon fill="#63b8ff" stroke="#63b8ff" points="905.56,-216.58 896.83,-222.59 907.4,-223.34 905.56,-216.58"/>
</a>
</g>
</g>
<!-- Node4&#45;&gt;Node4 -->
<g id="edge26_Node000004_Node000004" class="edge">
<title>Node4&#45;&gt;Node4</title>
<g id="a_edge26_Node000004_Node000004"><a xlink:title=" ">
<path fill="none" stroke="#63b8ff" d="M866.89,-258.84C863.06,-262.98 854.69,-265.8 841.75,-265.8 819.37,-265.8 810.63,-257.38 815.53,-248.24"/>
<polygon fill="#63b8ff" stroke="#63b8ff" points="870.43,-259.54 867.97,-249.24 863.47,-258.83 870.43,-259.54"/>
</a>
</g>
</g>
<!-- Node5 -->
<g id="Node000005" class="node">
<title>Node5</title>
<g id="a_Node000005"><a xlink:href="../../d3/dc5/classxpath__ast__node.html#ab4e5bbd3f2e83c86a43349374b4bfc22" target="_top" xlink:title=" ">
<polygon fill="white" stroke="#666666" points="752,-284.8 637.75,-284.8 637.75,-252.8 752,-252.8 752,-284.8"/>
<text text-anchor="start" x="645.75" y="-271.3" font-family="Helvetica,sans-Serif" font-size="10.00">xpath_ast_node::apply</text>
<text text-anchor="middle" x="694.88" y="-259.3" font-family="Helvetica,sans-Serif" font-size="10.00">_predicate_boolean</text>
</a>
</g>
</g>
<!-- Node4&#45;&gt;Node5 -->
<g id="edge4_Node000004_Node000005" class="edge">
<title>Node4&#45;&gt;Node5</title>
<g id="a_edge4_Node000004_Node000005"><a xlink:title=" ">
<path fill="none" stroke="#63b8ff" d="M776.99,-248.08C768.8,-250.17 760.46,-252.3 752.4,-254.36"/>
<polygon fill="#63b8ff" stroke="#63b8ff" points="777.8,-251.23 786.63,-245.36 776.07,-244.45 777.8,-251.23"/>
</a>
</g>
</g>
<!-- Node4&#45;&gt;Node9 -->
<g id="edge27_Node000004_Node000009" class="edge">
<title>Node4&#45;&gt;Node9</title>
<g id="a_edge27_Node000004_Node000009"><a xlink:title=" ">
<path fill="none" stroke="#63b8ff" d="M796.07,-211.94C781.18,-206.9 764.44,-201.73 748.98,-197.39"/>
<polygon fill="#63b8ff" stroke="#63b8ff" points="794.45,-215.43 805.05,-215.4 796.75,-208.81 794.45,-215.43"/>
</a>
</g>
</g>
<!-- Node6 -->
<g id="Node000006" class="node">
<title>Node6</title>
<g id="a_Node000006"><a xlink:href="../../d3/dc5/classxpath__ast__node.html#a7e35f265c9e0712a16e1d8a9db4c7672" target="_top" xlink:title=" ">
<polygon fill="white" stroke="#666666" points="438,-221.8 323.75,-221.8 323.75,-189.8 438,-189.8 438,-221.8"/>
<text text-anchor="start" x="331.75" y="-208.3" font-family="Helvetica,sans-Serif" font-size="10.00">xpath_ast_node::apply</text>
<text text-anchor="middle" x="380.88" y="-196.3" font-family="Helvetica,sans-Serif" font-size="10.00">_predicate</text>
</a>
</g>
</g>
<!-- Node5&#45;&gt;Node6 -->
<g id="edge5_Node000005_Node000006" class="edge">
<title>Node5&#45;&gt;Node6</title>
<g id="a_edge5_Node000005_Node000006"><a xlink:title=" ">
<path fill="none" stroke="#63b8ff" d="M626.72,-272.32C582.52,-272.83 523.83,-270.02 474,-255.8 448.98,-248.65 423.16,-233.89 405.25,-222.24"/>
<polygon fill="#63b8ff" stroke="#63b8ff" points="626.7,-275.81 636.63,-272.13 626.57,-268.81 626.7,-275.81"/>
</a>
</g>
</g>
<!-- Node7 -->
<g id="Node000007" class="node">
<title>Node7</title>
<g id="a_Node000007"><a xlink:href="../../d3/dc5/classxpath__ast__node.html#a68cace396dd4eeae67ecfcd34a3a8285" target="_top" xlink:title=" ">
<polygon fill="white" stroke="#666666" points="287.75,-187.8 180.25,-187.8 180.25,-155.8 287.75,-155.8 287.75,-187.8"/>
<text text-anchor="start" x="188.25" y="-174.3" font-family="Helvetica,sans-Serif" font-size="10.00">xpath_ast_node::eval</text>
<text text-anchor="middle" x="234" y="-162.3" font-family="Helvetica,sans-Serif" font-size="10.00">_node_set</text>
</a>
</g>
</g>
<!-- Node6&#45;&gt;Node7 -->
<g id="edge6_Node000006_Node000007" class="edge">
<title>Node6&#45;&gt;Node7</title>
<g id="a_edge6_Node000006_Node000007"><a xlink:title=" ">
<path fill="none" stroke="#63b8ff" d="M313,-190.1C304.68,-188.15 296.26,-186.17 288.19,-184.28"/>
<polygon fill="#63b8ff" stroke="#63b8ff" points="311.91,-193.68 322.45,-192.55 313.51,-186.86 311.91,-193.68"/>
</a>
</g>
</g>
<!-- Node7&#45;&gt;Node2 -->
<g id="edge22_Node000007_Node000002" class="edge">
<title>Node7&#45;&gt;Node2</title>
<g id="a_edge22_Node000007_Node000002"><a xlink:title=" ">
<path fill="none" stroke="#63b8ff" d="M258.23,-148.16C305.9,-102.32 420.12,-5.8 536.88,-5.8 842.75,-5.8 842.75,-5.8 842.75,-5.8 946.65,-5.8 980.1,15.78 1075.75,-24.8 1107.66,-38.33 1136.12,-67.99 1151.77,-86.58"/>
<polygon fill="#63b8ff" stroke="#63b8ff" points="256.35,-145.08 251.64,-154.58 261.24,-150.09 256.35,-145.08"/>
</a>
</g>
</g>
<!-- Node7&#45;&gt;Node3 -->
<g id="edge7_Node000007_Node000003" class="edge">
<title>Node7&#45;&gt;Node3</title>
<g id="a_edge7_Node000007_Node000003"><a xlink:title=" ">
<path fill="none" stroke="#63b8ff" d="M286.62,-151.9C298.63,-148.13 311.49,-144.75 323.75,-142.8 556.98,-105.66 840.14,-152.18 952.86,-174.31"/>
<polygon fill="#63b8ff" stroke="#63b8ff" points="285.72,-148.84 277.32,-155.3 287.91,-155.49 285.72,-148.84"/>
</a>
</g>
</g>
<!-- Node7&#45;&gt;Node4 -->
<g id="edge10_Node000007_Node000004" class="edge">
<title>Node7&#45;&gt;Node4</title>
<g id="a_edge10_Node000007_Node000004"><a xlink:title=" ">
<path fill="none" stroke="#63b8ff" d="M264.59,-194.55C281.27,-206.57 302.9,-220.85 323.75,-230.8 452.23,-292.06 495.58,-286.87 637.75,-293.8 688.47,-296.27 703.56,-309.04 752,-293.8 780.33,-284.88 807.49,-263.35 824.14,-248.18"/>
<polygon fill="#63b8ff" stroke="#63b8ff" points="266.99,-191.24 256.86,-188.15 262.85,-196.88 266.99,-191.24"/>
</a>
</g>
</g>
<!-- Node7&#45;&gt;Node7 -->
<g id="edge11_Node000007_Node000007" class="edge">
<title>Node7&#45;&gt;Node7</title>
<g id="a_edge11_Node000007_Node000007"><a xlink:title=" ">
<path fill="none" stroke="#63b8ff" d="M259.14,-198.84C255.31,-202.98 246.94,-205.8 234,-205.8 211.62,-205.8 202.88,-197.38 207.78,-188.24"/>
<polygon fill="#63b8ff" stroke="#63b8ff" points="262.68,-199.54 260.22,-189.24 255.72,-198.83 262.68,-199.54"/>
</a>
</g>
</g>
<!-- Node8 -->
<g id="Node000008" class="node">
<title>Node8</title>
<g id="a_Node000008"><a xlink:href="../../d3/dc5/classxpath__ast__node.html#abb6e4c529276eaf882233dbb6e04e111" target="_top" xlink:title=" ">
<polygon fill="white" stroke="#666666" points="144.25,-322.8 0,-322.8 0,-302.8 144.25,-302.8 144.25,-322.8"/>
<text text-anchor="middle" x="72.12" y="-309.3" font-family="Helvetica,sans-Serif" font-size="10.00">xpath_ast_node::compare_rel</text>
</a>
</g>
</g>
<!-- Node7&#45;&gt;Node8 -->
<g id="edge8_Node000007_Node000008" class="edge">
<title>Node7&#45;&gt;Node8</title>
<g id="a_edge8_Node000007_Node000008"><a xlink:title=" ">
<path fill="none" stroke="#63b8ff" d="M206.38,-195.27C171.1,-226.39 110.34,-279.97 84.88,-302.43"/>
<polygon fill="#63b8ff" stroke="#63b8ff" points="208.16,-198.49 213.35,-189.25 203.53,-193.24 208.16,-198.49"/>
</a>
</g>
</g>
<!-- Node7&#45;&gt;Node9 -->
<g id="edge12_Node000007_Node000009" class="edge">
<title>Node7&#45;&gt;Node9</title>
<g id="a_edge12_Node000007_Node000009"><a xlink:title=" ">
<path fill="none" stroke="#63b8ff" d="M298.43,-161.02C371.95,-150.37 496.48,-138.03 601.75,-155.8 619.95,-158.87 639.35,-165.12 655.63,-171.3"/>
<polygon fill="#63b8ff" stroke="#63b8ff" points="298.34,-157.64 288.96,-162.57 299.37,-164.56 298.34,-157.64"/>
</a>
</g>
</g>
<!-- Node12 -->
<g id="Node000012" class="node">
<title>Node12</title>
<g id="a_Node000012"><a xlink:href="../../d3/dc5/classxpath__ast__node.html#a3258c05ab9aaa78e154d2ff63fe56906" target="_top" xlink:title=" ">
<polygon fill="white" stroke="#666666" points="134.88,-181.8 9.38,-181.8 9.38,-161.8 134.88,-161.8 134.88,-181.8"/>
<text text-anchor="middle" x="72.12" y="-168.3" font-family="Helvetica,sans-Serif" font-size="10.00">xpath_ast_node::step_do</text>
</a>
</g>
</g>
<!-- Node7&#45;&gt;Node12 -->
<g id="edge23_Node000007_Node000012" class="edge">
<title>Node7&#45;&gt;Node12</title>
<g id="a_edge23_Node000007_Node000012"><a xlink:title=" ">
<path fill="none" stroke="#63b8ff" d="M168.86,-165.16C157.78,-165 146.29,-165.01 135.26,-165.2"/>
<polygon fill="#63b8ff" stroke="#63b8ff" points="168.69,-168.68 178.76,-165.39 168.84,-161.68 168.69,-168.68"/>
</a>
</g>
</g>
<!-- Node8&#45;&gt;Node4 -->
<g id="edge9_Node000008_Node000004" class="edge">
<title>Node8&#45;&gt;Node4</title>
<g id="a_edge9_Node000008_Node000004"><a xlink:title=" ">
<path fill="none" stroke="#63b8ff" d="M107.76,-327.23C163.87,-349.28 278.59,-388.8 379.88,-388.8 538.88,-388.8 538.88,-388.8 538.88,-388.8 639.74,-388.8 665.44,-362.58 752,-310.8 781.21,-293.32 809.63,-265.56 826.15,-248.02"/>
<polygon fill="#63b8ff" stroke="#63b8ff" points="109.25,-323.66 98.66,-323.2 106.65,-330.16 109.25,-323.66"/>
</a>
</g>
</g>
<!-- Node9&#45;&gt;Node2 -->
<g id="edge21_Node000009_Node000002" class="edge">
<title>Node9&#45;&gt;Node2</title>
<g id="a_edge21_Node000009_Node000002"><a xlink:title=" ">
<path fill="none" stroke="#63b8ff" d="M759.59,-181.04C852.88,-166.83 1024.96,-135.5 1111.65,-116.84"/>
<polygon fill="#63b8ff" stroke="#63b8ff" points="759.26,-177.7 749.89,-182.65 760.3,-184.63 759.26,-177.7"/>
</a>
</g>
</g>
<!-- Node9&#45;&gt;Node3 -->
<g id="edge17_Node000009_Node000003" class="edge">
<title>Node9&#45;&gt;Node3</title>
<g id="a_edge17_Node000009_Node000003"><a xlink:title=" ">
<path fill="none" stroke="#63b8ff" d="M759.77,-187.17C809.76,-186.68 879.25,-186 931.09,-185.5"/>
<polygon fill="#63b8ff" stroke="#63b8ff" points="759.74,-183.68 749.78,-187.28 759.81,-190.68 759.74,-183.68"/>
</a>
</g>
</g>
<!-- Node9&#45;&gt;Node4 -->
<g id="edge19_Node000009_Node000004" class="edge">
<title>Node9&#45;&gt;Node4</title>
<g id="a_edge19_Node000009_Node000004"><a xlink:title=" ">
<path fill="none" stroke="#63b8ff" d="M740.48,-207.63C755.39,-212.68 772.14,-217.85 787.63,-222.19"/>
<polygon fill="#63b8ff" stroke="#63b8ff" points="742.1,-204.14 731.5,-204.17 739.8,-210.75 742.1,-204.14"/>
</a>
</g>
</g>
<!-- Node9&#45;&gt;Node8 -->
<g id="edge18_Node000009_Node000008" class="edge">
<title>Node9&#45;&gt;Node8</title>
<g id="a_edge18_Node000009_Node000008"><a xlink:title=" ">
<path fill="none" stroke="#63b8ff" d="M669.63,-211.35C652.21,-226.75 627.38,-245.81 601.75,-255.8 447.15,-316.05 249.04,-319.79 144.73,-316.67"/>
<polygon fill="#63b8ff" stroke="#63b8ff" points="671.51,-214.46 676.55,-205.14 666.8,-209.28 671.51,-214.46"/>
</a>
</g>
</g>
<!-- Node9&#45;&gt;Node9 -->
<g id="edge20_Node000009_Node000009" class="edge">
<title>Node9&#45;&gt;Node9</title>
<g id="a_edge20_Node000009_Node000009"><a xlink:title=" ">
<path fill="none" stroke="#63b8ff" d="M720.01,-214.84C716.19,-218.98 707.81,-221.8 694.88,-221.8 672.5,-221.8 663.76,-213.38 668.65,-204.24"/>
<polygon fill="#63b8ff" stroke="#63b8ff" points="723.56,-215.54 721.1,-205.24 716.6,-214.83 723.56,-215.54"/>
</a>
</g>
</g>
<!-- Node10 -->
<g id="Node000010" class="node">
<title>Node10</title>
<g id="a_Node000010"><a xlink:href="../../d3/dc5/classxpath__ast__node.html#abf2d4b745493f63aebc1c89d9fde8eed" target="_top" xlink:title=" ">
<polygon fill="white" stroke="#666666" points="595,-196.8 480.75,-196.8 480.75,-164.8 595,-164.8 595,-196.8"/>
<text text-anchor="start" x="488.75" y="-183.3" font-family="Helvetica,sans-Serif" font-size="10.00">xpath_ast_node::apply</text>
<text text-anchor="middle" x="537.88" y="-171.3" font-family="Helvetica,sans-Serif" font-size="10.00">_predicate_number</text>
</a>
</g>
</g>
<!-- Node9&#45;&gt;Node10 -->
<g id="edge13_Node000009_Node000010" class="edge">
<title>Node9&#45;&gt;Node10</title>
<g id="a_edge13_Node000009_Node000010"><a xlink:title=" ">
<path fill="none" stroke="#63b8ff" d="M630.06,-184.91C618.52,-184.39 606.56,-183.85 595.25,-183.34"/>
<polygon fill="#63b8ff" stroke="#63b8ff" points="629.82,-188.45 639.97,-185.41 630.13,-181.46 629.82,-188.45"/>
</a>
</g>
</g>
<!-- Node11 -->
<g id="Node000011" class="node">
<title>Node11</title>
<g id="a_Node000011"><a xlink:href="../../d3/dc5/classxpath__ast__node.html#a8cedd7e15623b9fa431788b8843f1463" target="_top" xlink:title=" ">
<polygon fill="white" stroke="#666666" points="601.75,-246.8 474,-246.8 474,-214.8 601.75,-214.8 601.75,-246.8"/>
<text text-anchor="start" x="482" y="-233.3" font-family="Helvetica,sans-Serif" font-size="10.00">xpath_ast_node::apply</text>
<text text-anchor="middle" x="537.88" y="-221.3" font-family="Helvetica,sans-Serif" font-size="10.00">_predicate_number_const</text>
</a>
</g>
</g>
<!-- Node9&#45;&gt;Node11 -->
<g id="edge15_Node000009_Node000011" class="edge">
<title>Node9&#45;&gt;Node11</title>
<g id="a_edge15_Node000009_Node000011"><a xlink:title=" ">
<path fill="none" stroke="#63b8ff" d="M630.45,-205.39C619.79,-208.35 608.75,-211.41 598.2,-214.34"/>
<polygon fill="#63b8ff" stroke="#63b8ff" points="631.27,-208.52 639.97,-202.47 629.39,-201.77 631.27,-208.52"/>
</a>
</g>
</g>
<!-- Node10&#45;&gt;Node6 -->
<g id="edge14_Node000010_Node000006" class="edge">
<title>Node10&#45;&gt;Node6</title>
<g id="a_edge14_Node000010_Node000006"><a xlink:title=" ">
<path fill="none" stroke="#63b8ff" d="M469.74,-191.62C459.32,-193.3 448.65,-195.03 438.49,-196.66"/>
<polygon fill="#63b8ff" stroke="#63b8ff" points="470.16,-194.94 479.48,-189.89 469.05,-188.03 470.16,-194.94"/>
</a>
</g>
</g>
<!-- Node11&#45;&gt;Node6 -->
<g id="edge16_Node000011_Node000006" class="edge">
<title>Node11&#45;&gt;Node6</title>
<g id="a_edge16_Node000011_Node000006"><a xlink:title=" ">
<path fill="none" stroke="#63b8ff" d="M463.01,-218.88C454.73,-217.55 446.39,-216.2 438.38,-214.91"/>
<polygon fill="#63b8ff" stroke="#63b8ff" points="462.4,-222.49 472.83,-220.63 463.52,-215.58 462.4,-222.49"/>
</a>
</g>
</g>
<!-- Node12&#45;&gt;Node7 -->
<g id="edge24_Node000012_Node000007" class="edge">
<title>Node12&#45;&gt;Node7</title>
<g id="a_edge24_Node000012_Node000007"><a xlink:title=" ">
<path fill="none" stroke="#63b8ff" d="M146.06,-178.52C157.41,-178.6 168.96,-178.49 179.76,-178.2"/>
<polygon fill="#63b8ff" stroke="#63b8ff" points="146.3,-175.01 136.26,-178.39 146.22,-182.01 146.3,-175.01"/>
</a>
</g>
</g>
<!-- Node13&#45;&gt;Node2 -->
<g id="edge33_Node000013_Node000002" class="edge">
<title>Node13&#45;&gt;Node2</title>
<g id="a_edge33_Node000013_Node000002"><a xlink:title=" ">
<path fill="none" stroke="#63b8ff" d="M1047.32,-70C1066.96,-77.31 1090.47,-85.22 1111.26,-91.55"/>
<polygon fill="#63b8ff" stroke="#63b8ff" points="1048.73,-66.41 1038.14,-66.13 1046.24,-72.96 1048.73,-66.41"/>
</a>
</g>
</g>
<!-- Node14&#45;&gt;Node2 -->
<g id="edge35_Node000014_Node000002" class="edge">
<title>Node14&#45;&gt;Node2</title>
<g id="a_edge35_Node000014_Node000002"><a xlink:title=" ">
<path fill="none" stroke="#63b8ff" d="M1244.25,-92.81C1235.96,-93.87 1227.6,-94.95 1219.6,-95.97"/>
<polygon fill="#63b8ff" stroke="#63b8ff" points="1244.61,-96.16 1254.08,-91.41 1243.72,-89.22 1244.61,-96.16"/>
</a>
</g>
</g>
</g>
</svg>

<g id="navigator" transform="translate(0 0)" fill="#404254">
  <rect fill="#f2f5e9" fill-opacity="0.5" stroke="#606060" stroke-width=".5" x="0" y="0" width="60" height="60"/>
  <use id="zoomplus" xlink:href="#zoomPlus" x="17" y="9" onmousedown="handleZoom(evt,'in')"/>
  <use id="zoomminus" xlink:href="#zoomMin" x="42" y="9" onmousedown="handleZoom(evt,'out')"/>
  <use id="reset" xlink:href="#resetDef" x="30" y="36" onmousedown="handleReset()"/>
   <use id="arrowup" xlink:href="#arrowUp" x="0" y="0" onmousedown="handlePan(0,-1)"/>
  <use id="arrowright" xlink:href="#arrowRight" x="0" y="0" onmousedown="handlePan(1,0)"/>
  <use id="arrowdown" xlink:href="#arrowDown" x="0" y="0" onmousedown="handlePan(0,1)"/>
  <use id="arrowleft" xlink:href="#arrowLeft" x="0" y="0" onmousedown="handlePan(-1,0)"/>
</g>
<svg viewBox="0 0 15 15" width="100%" height="30px" preserveAspectRatio="xMaxYMin meet">
 <g id="arrow_out" transform="scale(0.3 0.3)">
  <a xlink:href="classxpath__string_abe89ae1270e25022aa8ccc332f5afbb3_icgraph_org.svg" target="_base">
   <rect id="button" ry="5" rx="5" y="6" x="6" height="38" width="38"
        fill="#f2f5e9" fill-opacity="0.5" stroke="#606060" stroke-width="1.0"/>
   <path id="arrow"
     d="M 11.500037,31.436501 C 11.940474,20.09759 22.043105,11.32322 32.158766,21.979434 L 37.068811,17.246167 C 37.068811,17.246167 37.088388,32 37.088388,32 L 22.160133,31.978069 C 22.160133,31.978069 26.997745,27.140456 26.997745,27.140456 C 18.528582,18.264221 13.291696,25.230495 11.500037,31.436501 z"
     style="fill:#404040;"/>
  </a>
 </g>
</svg>

<style type='text/css'>
<![CDATA[
[data-mouse-over-selected='false'] { opacity: 0.7; }
[data-mouse-over-selected='true']  { opacity: 1.0; }
]]>
</style>
<script type="application/ecmascript"><![CDATA[
document.addEventListener('DOMContentLoaded', (event) => {
  highlightEdges();
  highlightAdjacentNodes();
});
]]></script>
</svg>
