<?xml version="1.0" encoding="UTF-8" standalone="no"?>
<!DOCTYPE svg PUBLIC "-//W3C//DTD SVG 1.1//EN"
 "http://www.w3.org/Graphics/SVG/1.1/DTD/svg11.dtd">
<!-- Generated by graphviz version 8.1.0 (20230707.0739)
 -->
<!-- Title: xpath_string::data Pages: 1 -->
<svg width="500pt" height="85pt"
 viewBox="0.00 0.00 499.50 85.00" xmlns="http://www.w3.org/2000/svg" xmlns:xlink="http://www.w3.org/1999/xlink">
<g id="graph0" class="graph" transform="scale(1 1) rotate(0) translate(4 81)">
<title>xpath_string::data</title>
<!-- Node1 -->
<g id="Node000001" class="node">
<title>Node1</title>
<g id="a_Node000001"><a xlink:title=" ">
<polygon fill="#999999" stroke="#666666" points="94,-23 0,-23 0,-3 94,-3 94,-23"/>
<text text-anchor="middle" x="47" y="-9.5" font-family="Helvetica,sans-Serif" font-size="10.00">xpath_string::data</text>
</a>
</g>
</g>
<!-- Node2 -->
<g id="Node000002" class="node">
<title>Node2</title>
<g id="a_Node000002"><a xlink:href="../../dd/d5c/classxpath__string.html#af3866c73a21542e26032d5d052327cc1" target="_top" xlink:title=" ">
<polygon fill="white" stroke="#666666" points="244.25,-51 130,-51 130,-19 244.25,-19 244.25,-51"/>
<text text-anchor="start" x="138" y="-37.5" font-family="Helvetica,sans-Serif" font-size="10.00">xpath_string::duplicate</text>
<text text-anchor="middle" x="187.12" y="-25.5" font-family="Helvetica,sans-Serif" font-size="10.00">_string</text>
</a>
</g>
</g>
<!-- Node1&#45;&gt;Node2 -->
<g id="edge1_Node000001_Node000002" class="edge">
<title>Node1&#45;&gt;Node2</title>
<g id="a_edge1_Node000001_Node000002"><a xlink:title=" ">
<path fill="none" stroke="#63b8ff" d="M94.38,-20.39C102.22,-21.64 110.51,-22.96 118.77,-24.27"/>
<polygon fill="#63b8ff" stroke="#63b8ff" points="118.13,-27.87 128.56,-25.99 119.23,-20.96 118.13,-27.87"/>
</a>
</g>
</g>
<!-- Node5 -->
<g id="Node000005" class="node">
<title>Node5</title>
<g id="a_Node000005"><a xlink:href="../../db/d20/pugixml_8cpp.html#aab9e1f034d085b663d146fcceabb1c48" target="_top" xlink:title=" ">
<polygon fill="white" stroke="#666666" points="491.5,-20 438,-20 438,0 491.5,0 491.5,-20"/>
<text text-anchor="middle" x="464.75" y="-6.5" font-family="Helvetica,sans-Serif" font-size="10.00">strlength</text>
</a>
</g>
</g>
<!-- Node1&#45;&gt;Node5 -->
<g id="edge5_Node000001_Node000005" class="edge">
<title>Node1&#45;&gt;Node5</title>
<g id="a_edge5_Node000001_Node000005"><a xlink:title=" ">
<path fill="none" stroke="#63b8ff" d="M94.39,-11.01C106.02,-10.59 118.46,-10.21 130,-10 237.99,-8.03 365.66,-8.93 427.1,-9.56"/>
<polygon fill="#63b8ff" stroke="#63b8ff" points="426.74,-13.07 436.78,-9.68 426.82,-6.07 426.74,-13.07"/>
</a>
</g>
</g>
<!-- Node3 -->
<g id="Node000003" class="node">
<title>Node3</title>
<g id="a_Node000003"><a xlink:href="../../d3/d89/structxpath__allocator.html#a6c13fefbd7038d78b336987f396c8415" target="_top" xlink:title=" ">
<polygon fill="white" stroke="#666666" points="402,-77 280.25,-77 280.25,-57 402,-57 402,-77"/>
<text text-anchor="middle" x="341.12" y="-63.5" font-family="Helvetica,sans-Serif" font-size="10.00">xpath_allocator::allocate</text>
</a>
</g>
</g>
<!-- Node2&#45;&gt;Node3 -->
<g id="edge2_Node000002_Node000003" class="edge">
<title>Node2&#45;&gt;Node3</title>
<g id="a_edge2_Node000002_Node000003"><a xlink:title=" ">
<path fill="none" stroke="#63b8ff" d="M244.72,-46.92C256.23,-49.34 268.37,-51.89 279.99,-54.34"/>
<polygon fill="#63b8ff" stroke="#63b8ff" points="278.97,-57.91 289.48,-56.55 280.41,-51.06 278.97,-57.91"/>
</a>
</g>
</g>
<!-- Node4 -->
<g id="Node000004" class="node">
<title>Node4</title>
<g id="a_Node000004"><a xlink:href="../../dd/d5c/classxpath__string.html#a8469bd7512df66adabd3f5144c4b2ef7" target="_top" xlink:title=" ">
<polygon fill="white" stroke="#666666" points="391.88,-39 290.38,-39 290.38,-19 391.88,-19 391.88,-39"/>
<text text-anchor="middle" x="341.12" y="-25.5" font-family="Helvetica,sans-Serif" font-size="10.00">xpath_string::length</text>
</a>
</g>
</g>
<!-- Node2&#45;&gt;Node4 -->
<g id="edge3_Node000002_Node000004" class="edge">
<title>Node2&#45;&gt;Node4</title>
<g id="a_edge3_Node000002_Node000004"><a xlink:title=" ">
<path fill="none" stroke="#63b8ff" d="M244.72,-32.77C255.98,-32.32 267.85,-31.85 279.24,-31.4"/>
<polygon fill="#63b8ff" stroke="#63b8ff" points="279.13,-34.87 288.99,-30.98 278.86,-27.88 279.13,-34.87"/>
</a>
</g>
</g>
<!-- Node4&#45;&gt;Node5 -->
<g id="edge4_Node000004_Node000005" class="edge">
<title>Node4&#45;&gt;Node5</title>
<g id="a_edge4_Node000004_Node000005"><a xlink:title=" ">
<path fill="none" stroke="#63b8ff" d="M392.3,-21.16C403.86,-19.36 415.94,-17.47 426.82,-15.77"/>
<polygon fill="#63b8ff" stroke="#63b8ff" points="427.3,-19.08 436.64,-14.08 426.22,-12.16 427.3,-19.08"/>
</a>
</g>
</g>
</g>
</svg>
