<?xml version="1.0" encoding="UTF-8" standalone="no"?>
<!DOCTYPE svg PUBLIC "-//W3C//DTD SVG 1.1//EN"
 "http://www.w3.org/Graphics/SVG/1.1/DTD/svg11.dtd">
<!-- Generated by graphviz version 8.1.0 (20230707.0739)
 -->
<!-- Title: YieldSignComponent.h Pages: 1 -->
<svg width="270pt" height="84pt"
 viewBox="0.00 0.00 270.12 84.00" xmlns="http://www.w3.org/2000/svg" xmlns:xlink="http://www.w3.org/1999/xlink">
<g id="graph0" class="graph" transform="scale(1 1) rotate(0) translate(4 80)">
<title>YieldSignComponent.h</title>
<!-- Node1 -->
<g id="Node000001" class="node">
<title>Node1</title>
<g id="a_Node000001"><a xlink:title=" ">
<polygon fill="#999999" stroke="#666666" points="186.88,-76 71.88,-76 71.88,-56 186.88,-56 186.88,-76"/>
<text text-anchor="middle" x="129.38" y="-62.5" font-family="Helvetica,sans-Serif" font-size="10.00">YieldSignComponent.h</text>
</a>
</g>
</g>
<!-- Node2 -->
<g id="Node000002" class="node">
<title>Node2</title>
<g id="a_Node000002"><a xlink:href="../../d6/d3f/TrafficLightManager_8cpp.html" target="_top" xlink:title=" ">
<polygon fill="white" stroke="#666666" points="118.75,-20 0,-20 0,0 118.75,0 118.75,-20"/>
<text text-anchor="middle" x="59.38" y="-6.5" font-family="Helvetica,sans-Serif" font-size="10.00">TrafficLightManager.cpp</text>
</a>
</g>
</g>
<!-- Node1&#45;&gt;Node2 -->
<g id="edge1_Node000001_Node000002" class="edge">
<title>Node1&#45;&gt;Node2</title>
<g id="a_edge1_Node000001_Node000002"><a xlink:title=" ">
<path fill="none" stroke="#63b8ff" d="M108.58,-48.95C96.47,-39.61 81.62,-28.16 71.43,-20.3"/>
<polygon fill="#63b8ff" stroke="#63b8ff" points="106.13,-52.26 116.18,-55.59 110.4,-46.71 106.13,-52.26"/>
</a>
</g>
</g>
<!-- Node3 -->
<g id="Node000003" class="node">
<title>Node3</title>
<g id="a_Node000003"><a xlink:href="../../d4/d36/YieldSignComponent_8cpp.html" target="_top" xlink:title=" ">
<polygon fill="white" stroke="#666666" points="262.12,-20 136.62,-20 136.62,0 262.12,0 262.12,-20"/>
<text text-anchor="middle" x="199.38" y="-6.5" font-family="Helvetica,sans-Serif" font-size="10.00">YieldSignComponent.cpp</text>
</a>
</g>
</g>
<!-- Node1&#45;&gt;Node3 -->
<g id="edge2_Node000001_Node000003" class="edge">
<title>Node1&#45;&gt;Node3</title>
<g id="a_edge2_Node000001_Node000003"><a xlink:title=" ">
<path fill="none" stroke="#63b8ff" d="M150.17,-48.95C162.28,-39.61 177.13,-28.16 187.32,-20.3"/>
<polygon fill="#63b8ff" stroke="#63b8ff" points="148.35,-46.71 142.57,-55.59 152.62,-52.26 148.35,-46.71"/>
</a>
</g>
</g>
</g>
</svg>
