<?xml version="1.0" encoding="UTF-8" standalone="no"?>
<!DOCTYPE svg PUBLIC "-//W3C//DTD SVG 1.1//EN"
 "http://www.w3.org/Graphics/SVG/1.1/DTD/svg11.dtd">
<!-- Generated by graphviz version 8.1.0 (20230707.0739)
 -->
<!-- Title: carla::traffic_manager::SimulationState::GetLocation Pages: 1 -->
<!--zoomable 478 -->

<svg id="main" version="1.1" xmlns="http://www.w3.org/2000/svg" xmlns:xlink="http://www.w3.org/1999/xlink" xml:space="preserve" onload="init(evt)">
<style type="text/css"><![CDATA[
.node, .edge {opacity: 0.7;}
.node.selected, .edge.selected {opacity: 1;}
.edge:hover path { stroke: red; }
.edge:hover polygon { stroke: red; fill: red; }
]]></style>

<defs>
  <circle id="rim" cx="0" cy="0" r="7"/>
  <circle id="rim2" cx="0" cy="0" r="3.5"/>
  <g id="zoomPlus">
    <use xlink:href="#rim" fill="#404040"><set attributeName="fill" to="#808080" begin="zoomplus.mouseover" end="zoomplus.mouseout"/></use>
    <path d="M-4,0h8M0,-4v8" fill="none" stroke="white" stroke-width="1.5" pointer-events="none"/>
  </g>
  <g id="zoomMin">
    <use xlink:href="#rim" fill="#404040"><set attributeName="fill" to="#808080" begin="zoomminus.mouseover" end="zoomminus.mouseout"/></use>
    <path d="M-4,0h8" fill="none" stroke="white" stroke-width="1.5" pointer-events="none"/>
  </g>
  <g id="arrowUp" transform="translate(30 24)">
    <use xlink:href="#rim"/>
    <path pointer-events="none" fill="none" stroke="white" stroke-width="1.5" d="M0,-3.0v7 M-2.5,-0.5L0,-3.0L2.5,-0.5"/>
  </g>
  <g id="arrowRight" transform="rotate(90) translate(36 -43)">
    <use xlink:href="#rim"/>
    <path pointer-events="none" fill="none" stroke="white" stroke-width="1.5" d="M0,-3.0v7 M-2.5,-0.5L0,-3.0L2.5,-0.5"/>
  </g>
  <g id="arrowDown" transform="rotate(180) translate(-30 -48)">
    <use xlink:href="#rim"/>
    <path pointer-events="none" fill="none" stroke="white" stroke-width="1.5" d="M0,-3.0v7 M-2.5,-0.5L0,-3.0L2.5,-0.5"/>
  </g>
  <g id="arrowLeft" transform="rotate(270) translate(-36 17)">
    <use xlink:href="#rim"/>
    <path pointer-events="none" fill="none" stroke="white" stroke-width="1.5" d="M0,-3.0v7 M-2.5,-0.5L0,-3.0L2.5,-0.5"/>
  </g>
  <g id="resetDef">
    <use xlink:href="#rim2" fill="#404040"><set attributeName="fill" to="#808080" begin="reset.mouseover" end="reset.mouseout"/></use>
  </g>
</defs>
<script type="application/ecmascript">
var viewWidth = 1561;
var viewHeight = 478;
var sectionId = 'dynsection-6';
</script>
<script type="application/ecmascript" xlink:href="../../svg.min.js"/>
<svg id="graph" class="graph">
<g id="viewport">
<title>carla::traffic_manager::SimulationState::GetLocation</title>
<!-- Node1 -->
<g id="Node000001" class="node">
<title>Node1</title>
<g id="a_Node000001"><a xlink:title=" ">
<polygon fill="#999999" stroke="#666666" points="1553.25,-214 1403.75,-214 1403.75,-182 1553.25,-182 1553.25,-214"/>
<text text-anchor="start" x="1411.75" y="-200.5" font-family="Helvetica,sans-Serif" font-size="10.00">carla::traffic_manager</text>
<text text-anchor="middle" x="1478.5" y="-188.5" font-family="Helvetica,sans-Serif" font-size="10.00">::SimulationState::GetLocation</text>
</a>
</g>
</g>
<!-- Node2 -->
<g id="Node000002" class="node">
<title>Node2</title>
<g id="a_Node000002"><a xlink:href="../../d6/da2/classcarla_1_1traffic__manager_1_1LocalizationStage.html#a1a835123f13a99787a4a15704073f762" target="_top" xlink:title=" ">
<polygon fill="white" stroke="#666666" points="1366.25,-458 1222,-458 1222,-414 1366.25,-414 1366.25,-458"/>
<text text-anchor="start" x="1230" y="-444.5" font-family="Helvetica,sans-Serif" font-size="10.00">carla::traffic_manager</text>
<text text-anchor="start" x="1230" y="-432.5" font-family="Helvetica,sans-Serif" font-size="10.00">::LocalizationStage::Compute</text>
<text text-anchor="middle" x="1294.12" y="-420.5" font-family="Helvetica,sans-Serif" font-size="10.00">ActionBuffer</text>
</a>
</g>
</g>
<!-- Node1&#45;&gt;Node2 -->
<g id="edge1_Node000001_Node000002" class="edge">
<title>Node1&#45;&gt;Node2</title>
<g id="a_edge1_Node000001_Node000002"><a xlink:title=" ">
<path fill="none" stroke="#63b8ff" d="M1465.66,-224.02C1447.92,-261.25 1411.75,-330.67 1367.75,-380 1356.62,-392.48 1342.41,-404.14 1329.51,-413.56"/>
<polygon fill="#63b8ff" stroke="#63b8ff" points="1469.09,-225.95 1470.17,-215.41 1462.75,-222.98 1469.09,-225.95"/>
</a>
</g>
</g>
<!-- Node4 -->
<g id="Node000004" class="node">
<title>Node4</title>
<g id="a_Node000004"><a xlink:href="../../d6/da2/classcarla_1_1traffic__manager_1_1LocalizationStage.html#a6310665dc1f4d6d28f5f3047478ee994" target="_top" xlink:title=" ">
<polygon fill="white" stroke="#666666" points="1366.25,-371 1222,-371 1222,-327 1366.25,-327 1366.25,-371"/>
<text text-anchor="start" x="1230" y="-357.5" font-family="Helvetica,sans-Serif" font-size="10.00">carla::traffic_manager</text>
<text text-anchor="start" x="1230" y="-345.5" font-family="Helvetica,sans-Serif" font-size="10.00">::LocalizationStage::Compute</text>
<text text-anchor="middle" x="1294.12" y="-333.5" font-family="Helvetica,sans-Serif" font-size="10.00">NextAction</text>
</a>
</g>
</g>
<!-- Node1&#45;&gt;Node4 -->
<g id="edge3_Node000001_Node000004" class="edge">
<title>Node1&#45;&gt;Node4</title>
<g id="a_edge3_Node000001_Node000004"><a xlink:title=" ">
<path fill="none" stroke="#63b8ff" d="M1455.68,-222.27C1434.47,-245.09 1400.74,-279.47 1367.75,-305 1357.84,-312.67 1346.51,-320.1 1335.78,-326.6"/>
<polygon fill="#63b8ff" stroke="#63b8ff" points="1457.7,-225.15 1461.9,-215.42 1452.55,-220.41 1457.7,-225.15"/>
</a>
</g>
</g>
<!-- Node6 -->
<g id="Node000006" class="node">
<title>Node6</title>
<g id="a_Node000006"><a xlink:href="../../d1/d26/classcarla_1_1traffic__manager_1_1CollisionStage.html#a868ceb22e38362b0c6d01bf0d5ea36cc" target="_top" xlink:title=" ">
<polygon fill="white" stroke="#666666" points="1367.75,-296 1220.5,-296 1220.5,-264 1367.75,-264 1367.75,-296"/>
<text text-anchor="start" x="1228.5" y="-282.5" font-family="Helvetica,sans-Serif" font-size="10.00">carla::traffic_manager</text>
<text text-anchor="middle" x="1294.12" y="-270.5" font-family="Helvetica,sans-Serif" font-size="10.00">::CollisionStage::GetBoundary</text>
</a>
</g>
</g>
<!-- Node1&#45;&gt;Node6 -->
<g id="edge5_Node000001_Node000006" class="edge">
<title>Node1&#45;&gt;Node6</title>
<g id="a_edge5_Node000001_Node000006"><a xlink:title=" ">
<path fill="none" stroke="#63b8ff" d="M1434.28,-219.1C1414.16,-228.76 1389.85,-240.21 1367.75,-250 1357.52,-254.53 1346.4,-259.24 1336,-263.54"/>
<polygon fill="#63b8ff" stroke="#63b8ff" points="1435.59,-221.87 1443.08,-214.37 1432.55,-215.56 1435.59,-221.87"/>
</a>
</g>
</g>
<!-- Node9 -->
<g id="Node000009" class="node">
<title>Node9</title>
<g id="a_Node000009"><a xlink:href="../../d1/d26/classcarla_1_1traffic__manager_1_1CollisionStage.html#af9c0740908fbcb2f077fb513224b2b4e" target="_top" xlink:title=" ">
<polygon fill="white" stroke="#666666" points="782.75,-258 614.5,-258 614.5,-226 782.75,-226 782.75,-258"/>
<text text-anchor="start" x="622.5" y="-244.5" font-family="Helvetica,sans-Serif" font-size="10.00">carla::traffic_manager</text>
<text text-anchor="middle" x="698.62" y="-232.5" font-family="Helvetica,sans-Serif" font-size="10.00">::CollisionStage::NegotiateCollision</text>
</a>
</g>
</g>
<!-- Node1&#45;&gt;Node9 -->
<g id="edge15_Node000001_Node000009" class="edge">
<title>Node1&#45;&gt;Node9</title>
<g id="a_edge15_Node000001_Node000009"><a xlink:title=" ">
<path fill="none" stroke="#63b8ff" d="M1392.81,-209.51C1384.36,-210.44 1375.89,-211.3 1367.75,-212 1157.79,-230.08 909.71,-237.6 783.1,-240.45"/>
<polygon fill="#63b8ff" stroke="#63b8ff" points="1392.96,-212.9 1402.5,-208.28 1392.16,-205.94 1392.96,-212.9"/>
</a>
</g>
</g>
<!-- Node10 -->
<g id="Node000010" class="node">
<title>Node10</title>
<g id="a_Node000010"><a xlink:href="../../d1/d26/classcarla_1_1traffic__manager_1_1CollisionStage.html#ac446efd585519bce8de5740158758158" target="_top" xlink:title=" ">
<polygon fill="white" stroke="#666666" points="578.5,-214 457.5,-214 457.5,-182 578.5,-182 578.5,-214"/>
<text text-anchor="start" x="465.5" y="-200.5" font-family="Helvetica,sans-Serif" font-size="10.00">carla::traffic_manager</text>
<text text-anchor="middle" x="518" y="-188.5" font-family="Helvetica,sans-Serif" font-size="10.00">::CollisionStage::Update</text>
</a>
</g>
</g>
<!-- Node1&#45;&gt;Node10 -->
<g id="edge20_Node000001_Node000010" class="edge">
<title>Node1&#45;&gt;Node10</title>
<g id="a_edge20_Node000001_Node000010"><a xlink:title=" ">
<path fill="none" stroke="#63b8ff" d="M1392.79,-198C1315.29,-198 1197.43,-198 1095,-198 1095,-198 1095,-198 892.12,-198 781.52,-198 652.46,-198 578.78,-198"/>
<polygon fill="#63b8ff" stroke="#63b8ff" points="1392.46,-201.5 1402.46,-198 1392.46,-194.5 1392.46,-201.5"/>
</a>
</g>
</g>
<!-- Node15 -->
<g id="Node000015" class="node">
<title>Node15</title>
<g id="a_Node000015"><a xlink:href="../../dd/df9/classcarla_1_1traffic__manager_1_1MotionPlanStage.html#a60113b8270c6591384d85da7fdc12471" target="_top" xlink:title=" ">
<polygon fill="white" stroke="#666666" points="1365.12,-170 1223.12,-170 1223.12,-126 1365.12,-126 1365.12,-170"/>
<text text-anchor="start" x="1231.12" y="-156.5" font-family="Helvetica,sans-Serif" font-size="10.00">carla::traffic_manager</text>
<text text-anchor="start" x="1231.12" y="-144.5" font-family="Helvetica,sans-Serif" font-size="10.00">::MotionPlanStage::SafeAfter</text>
<text text-anchor="middle" x="1294.12" y="-132.5" font-family="Helvetica,sans-Serif" font-size="10.00">Junction</text>
</a>
</g>
</g>
<!-- Node1&#45;&gt;Node15 -->
<g id="edge16_Node000001_Node000015" class="edge">
<title>Node1&#45;&gt;Node15</title>
<g id="a_edge16_Node000001_Node000015"><a xlink:title=" ">
<path fill="none" stroke="#63b8ff" d="M1407.24,-178.74C1393.58,-174.99 1379.25,-171.06 1365.59,-167.32"/>
<polygon fill="#63b8ff" stroke="#63b8ff" points="1405.96,-182.29 1416.53,-181.56 1407.81,-175.54 1405.96,-182.29"/>
</a>
</g>
</g>
<!-- Node16 -->
<g id="Node000016" class="node">
<title>Node16</title>
<g id="a_Node000016"><a xlink:href="../../dd/df9/classcarla_1_1traffic__manager_1_1MotionPlanStage.html#a7a57d649d96daccb2e2ee9780f24c4ec" target="_top" xlink:title=" ">
<polygon fill="white" stroke="#666666" points="1160.5,-120 1027.5,-120 1027.5,-88 1160.5,-88 1160.5,-120"/>
<text text-anchor="start" x="1035.5" y="-106.5" font-family="Helvetica,sans-Serif" font-size="10.00">carla::traffic_manager</text>
<text text-anchor="middle" x="1094" y="-94.5" font-family="Helvetica,sans-Serif" font-size="10.00">::MotionPlanStage::Update</text>
</a>
</g>
</g>
<!-- Node1&#45;&gt;Node16 -->
<g id="edge19_Node000001_Node000016" class="edge">
<title>Node1&#45;&gt;Node16</title>
<g id="a_edge19_Node000001_Node000016"><a xlink:title=" ">
<path fill="none" stroke="#63b8ff" d="M1453.97,-174.07C1433.27,-154.77 1401.28,-128.93 1367.75,-117 1300.31,-93.01 1217.53,-92.8 1160.98,-96.66"/>
<polygon fill="#63b8ff" stroke="#63b8ff" points="1451.21,-176.24 1460.86,-180.63 1456.05,-171.18 1451.21,-176.24"/>
</a>
</g>
</g>
<!-- Node17 -->
<g id="Node000017" class="node">
<title>Node17</title>
<g id="a_Node000017"><a xlink:href="../../d6/da2/classcarla_1_1traffic__manager_1_1LocalizationStage.html#acf066b922ba5c21c6b6ee23d35731d91" target="_top" xlink:title=" ">
<polygon fill="white" stroke="#666666" points="766.62,-76 630.62,-76 630.62,-44 766.62,-44 766.62,-76"/>
<text text-anchor="start" x="638.62" y="-62.5" font-family="Helvetica,sans-Serif" font-size="10.00">carla::traffic_manager</text>
<text text-anchor="middle" x="698.62" y="-50.5" font-family="Helvetica,sans-Serif" font-size="10.00">::LocalizationStage::Update</text>
</a>
</g>
</g>
<!-- Node1&#45;&gt;Node17 -->
<g id="edge21_Node000001_Node000017" class="edge">
<title>Node1&#45;&gt;Node17</title>
<g id="a_edge21_Node000001_Node000017"><a xlink:title=" ">
<path fill="none" stroke="#63b8ff" d="M1460.33,-172.6C1441.16,-146.65 1407.56,-107.71 1367.75,-90 1261.8,-42.86 914.42,-51.02 766.87,-56.88"/>
<polygon fill="#63b8ff" stroke="#63b8ff" points="1458.05,-174.43 1466.72,-180.51 1463.74,-170.35 1458.05,-174.43"/>
</a>
</g>
</g>
<!-- Node18 -->
<g id="Node000018" class="node">
<title>Node18</title>
<g id="a_Node000018"><a xlink:href="../../d2/d75/classcarla_1_1traffic__manager_1_1ALSM.html#aaac16328f1c46481fc16f634edaa9ea4" target="_top" xlink:title=" ">
<polygon fill="white" stroke="#666666" points="1348.62,-32 1239.62,-32 1239.62,0 1348.62,0 1348.62,-32"/>
<text text-anchor="start" x="1247.62" y="-18.5" font-family="Helvetica,sans-Serif" font-size="10.00">carla::traffic_manager</text>
<text text-anchor="middle" x="1294.12" y="-6.5" font-family="Helvetica,sans-Serif" font-size="10.00">::ALSM::UpdateData</text>
</a>
</g>
</g>
<!-- Node1&#45;&gt;Node18 -->
<g id="edge23_Node000001_Node000018" class="edge">
<title>Node1&#45;&gt;Node18</title>
<g id="a_edge23_Node000001_Node000018"><a xlink:title=" ">
<path fill="none" stroke="#63b8ff" d="M1464.61,-172.01C1446.92,-138.71 1412.19,-81.11 1367.75,-46 1361.01,-40.67 1353.18,-36.15 1345.22,-32.36"/>
<polygon fill="#63b8ff" stroke="#63b8ff" points="1461.83,-173.25 1469.55,-180.51 1468.04,-170.03 1461.83,-173.25"/>
</a>
</g>
</g>
<!-- Node3 -->
<g id="Node000003" class="node">
<title>Node3</title>
<g id="a_Node000003"><a xlink:href="../../da/d0f/classcarla_1_1traffic__manager_1_1TrafficManagerLocal.html#a84170a29d2b36457bff32d91eb26439a" target="_top" xlink:title="Method to get the vehicle&#39;s action buffer.">
<polygon fill="white" stroke="#666666" points="1148.5,-470 1039.5,-470 1039.5,-426 1148.5,-426 1148.5,-470"/>
<text text-anchor="start" x="1047.5" y="-456.5" font-family="Helvetica,sans-Serif" font-size="10.00">carla::traffic_manager</text>
<text text-anchor="start" x="1047.5" y="-444.5" font-family="Helvetica,sans-Serif" font-size="10.00">::TrafficManagerLocal</text>
<text text-anchor="middle" x="1094" y="-432.5" font-family="Helvetica,sans-Serif" font-size="10.00">::GetActionBuffer</text>
</a>
</g>
</g>
<!-- Node2&#45;&gt;Node3 -->
<g id="edge2_Node000002_Node000003" class="edge">
<title>Node2&#45;&gt;Node3</title>
<g id="a_edge2_Node000002_Node000003"><a xlink:title=" ">
<path fill="none" stroke="#63b8ff" d="M1210.75,-440.99C1189.79,-442.26 1167.81,-443.59 1148.7,-444.75"/>
<polygon fill="#63b8ff" stroke="#63b8ff" points="1210.83,-444.43 1220.6,-440.33 1210.4,-437.44 1210.83,-444.43"/>
</a>
</g>
</g>
<!-- Node5 -->
<g id="Node000005" class="node">
<title>Node5</title>
<g id="a_Node000005"><a xlink:href="../../da/d0f/classcarla_1_1traffic__manager_1_1TrafficManagerLocal.html#a54f91ec4ec5a48808c4a4ad0217b0145" target="_top" xlink:title="Method to get the vehicle&#39;s next action.">
<polygon fill="white" stroke="#666666" points="1148.5,-408 1039.5,-408 1039.5,-364 1148.5,-364 1148.5,-408"/>
<text text-anchor="start" x="1047.5" y="-394.5" font-family="Helvetica,sans-Serif" font-size="10.00">carla::traffic_manager</text>
<text text-anchor="start" x="1047.5" y="-382.5" font-family="Helvetica,sans-Serif" font-size="10.00">::TrafficManagerLocal</text>
<text text-anchor="middle" x="1094" y="-370.5" font-family="Helvetica,sans-Serif" font-size="10.00">::GetNextAction</text>
</a>
</g>
</g>
<!-- Node4&#45;&gt;Node5 -->
<g id="edge4_Node000004_Node000005" class="edge">
<title>Node4&#45;&gt;Node5</title>
<g id="a_edge4_Node000004_Node000005"><a xlink:title=" ">
<path fill="none" stroke="#63b8ff" d="M1211.04,-364.33C1189.99,-368.26 1167.9,-372.39 1148.7,-375.97"/>
<polygon fill="#63b8ff" stroke="#63b8ff" points="1211.41,-367.63 1220.6,-362.36 1210.12,-360.75 1211.41,-367.63"/>
</a>
</g>
</g>
<!-- Node7 -->
<g id="Node000007" class="node">
<title>Node7</title>
<g id="a_Node000007"><a xlink:href="../../d1/d26/classcarla_1_1traffic__manager_1_1CollisionStage.html#a45e850204e542a9c51cf202fc0bc5854" target="_top" xlink:title=" ">
<polygon fill="white" stroke="#666666" points="1167.62,-346 1020.38,-346 1020.38,-302 1167.62,-302 1167.62,-346"/>
<text text-anchor="start" x="1028.38" y="-332.5" font-family="Helvetica,sans-Serif" font-size="10.00">carla::traffic_manager</text>
<text text-anchor="start" x="1028.38" y="-320.5" font-family="Helvetica,sans-Serif" font-size="10.00">::CollisionStage::GetGeodesic</text>
<text text-anchor="middle" x="1094" y="-308.5" font-family="Helvetica,sans-Serif" font-size="10.00">Boundary</text>
</a>
</g>
</g>
<!-- Node6&#45;&gt;Node7 -->
<g id="edge6_Node000006_Node000007" class="edge">
<title>Node6&#45;&gt;Node7</title>
<g id="a_edge6_Node000006_Node000007"><a xlink:title=" ">
<path fill="none" stroke="#63b8ff" d="M1209.72,-298.52C1195.9,-301.59 1181.65,-304.76 1168.11,-307.76"/>
<polygon fill="#63b8ff" stroke="#63b8ff" points="1210.19,-301.78 1219.19,-296.2 1208.67,-294.95 1210.19,-301.78"/>
</a>
</g>
</g>
<!-- Node8 -->
<g id="Node000008" class="node">
<title>Node8</title>
<g id="a_Node000008"><a xlink:href="../../d1/d26/classcarla_1_1traffic__manager_1_1CollisionStage.html#a383f31bbf925c84040ef66592dd6e56e" target="_top" xlink:title=" ">
<polygon fill="white" stroke="#666666" points="967.5,-308 818.75,-308 818.75,-264 967.5,-264 967.5,-308"/>
<text text-anchor="start" x="826.75" y="-294.5" font-family="Helvetica,sans-Serif" font-size="10.00">carla::traffic_manager</text>
<text text-anchor="start" x="826.75" y="-282.5" font-family="Helvetica,sans-Serif" font-size="10.00">::CollisionStage::GetGeometry</text>
<text text-anchor="middle" x="893.12" y="-270.5" font-family="Helvetica,sans-Serif" font-size="10.00">BetweenActors</text>
</a>
</g>
</g>
<!-- Node6&#45;&gt;Node8 -->
<g id="edge14_Node000006_Node000008" class="edge">
<title>Node6&#45;&gt;Node8</title>
<g id="a_edge14_Node000006_Node000008"><a xlink:title=" ">
<path fill="none" stroke="#63b8ff" d="M1209.64,-281.26C1138.15,-282.33 1036.17,-283.86 967.69,-284.89"/>
<polygon fill="#63b8ff" stroke="#63b8ff" points="1209.46,-284.74 1219.41,-281.09 1209.35,-277.74 1209.46,-284.74"/>
</a>
</g>
</g>
<!-- Node7&#45;&gt;Node8 -->
<g id="edge7_Node000007_Node000008" class="edge">
<title>Node7&#45;&gt;Node8</title>
<g id="a_edge7_Node000007_Node000008"><a xlink:title=" ">
<path fill="none" stroke="#63b8ff" d="M1009.55,-308.06C995.66,-305.4 981.33,-302.66 967.71,-300.06"/>
<polygon fill="#63b8ff" stroke="#63b8ff" points="1008.6,-311.63 1019.08,-310.07 1009.91,-304.75 1008.6,-311.63"/>
</a>
</g>
</g>
<!-- Node8&#45;&gt;Node9 -->
<g id="edge8_Node000008_Node000009" class="edge">
<title>Node8&#45;&gt;Node9</title>
<g id="a_edge8_Node000008_Node000009"><a xlink:title=" ">
<path fill="none" stroke="#63b8ff" d="M807.77,-266.72C795.75,-263.97 783.47,-261.17 771.72,-258.48"/>
<polygon fill="#63b8ff" stroke="#63b8ff" points="806.72,-270.3 817.25,-269.11 808.28,-263.47 806.72,-270.3"/>
</a>
</g>
</g>
<!-- Node9&#45;&gt;Node10 -->
<g id="edge9_Node000009_Node000010" class="edge">
<title>Node9&#45;&gt;Node10</title>
<g id="a_edge9_Node000009_Node000010"><a xlink:title=" ">
<path fill="none" stroke="#63b8ff" d="M620.35,-222.96C606.48,-219.55 592.21,-216.03 578.92,-212.76"/>
<polygon fill="#63b8ff" stroke="#63b8ff" points="619.31,-226.56 629.86,-225.55 620.99,-219.76 619.31,-226.56"/>
</a>
</g>
</g>
<!-- Node11 -->
<g id="Node000011" class="node">
<title>Node11</title>
<g id="a_Node000011"><a xlink:href="../../da/d0f/classcarla_1_1traffic__manager_1_1TrafficManagerLocal.html#a6d67cce3d0e5a48056645270364fe637" target="_top" xlink:title="Initiates thread to run the TrafficManager sequentially.">
<polygon fill="white" stroke="#666666" points="421.5,-101 290,-101 290,-69 421.5,-69 421.5,-101"/>
<text text-anchor="start" x="298" y="-87.5" font-family="Helvetica,sans-Serif" font-size="10.00">carla::traffic_manager</text>
<text text-anchor="middle" x="355.75" y="-75.5" font-family="Helvetica,sans-Serif" font-size="10.00">::TrafficManagerLocal::Run</text>
</a>
</g>
</g>
<!-- Node10&#45;&gt;Node11 -->
<g id="edge10_Node000010_Node000011" class="edge">
<title>Node10&#45;&gt;Node11</title>
<g id="a_edge10_Node000010_Node000011"><a xlink:title=" ">
<path fill="none" stroke="#63b8ff" d="M485,-175.43C454,-153.58 407.75,-120.96 380.08,-101.45"/>
<polygon fill="#63b8ff" stroke="#63b8ff" points="482.51,-178.67 492.7,-181.57 486.54,-172.95 482.51,-178.67"/>
</a>
</g>
</g>
<!-- Node12 -->
<g id="Node000012" class="node">
<title>Node12</title>
<g id="a_Node000012"><a xlink:href="../../da/d0f/classcarla_1_1traffic__manager_1_1TrafficManagerLocal.html#a1ffbdb0bed64f385437d2820a90286d0" target="_top" xlink:title="To start the TrafficManager.">
<polygon fill="white" stroke="#666666" points="254,-107 145,-107 145,-63 254,-63 254,-107"/>
<text text-anchor="start" x="153" y="-93.5" font-family="Helvetica,sans-Serif" font-size="10.00">carla::traffic_manager</text>
<text text-anchor="start" x="153" y="-81.5" font-family="Helvetica,sans-Serif" font-size="10.00">::TrafficManagerLocal</text>
<text text-anchor="middle" x="199.5" y="-69.5" font-family="Helvetica,sans-Serif" font-size="10.00">::Start</text>
</a>
</g>
</g>
<!-- Node11&#45;&gt;Node12 -->
<g id="edge11_Node000011_Node000012" class="edge">
<title>Node11&#45;&gt;Node12</title>
<g id="a_edge11_Node000011_Node000012"><a xlink:title=" ">
<path fill="none" stroke="#63b8ff" d="M278.87,-85C270.53,-85 262.18,-85 254.19,-85"/>
<polygon fill="#63b8ff" stroke="#63b8ff" points="278.78,-88.5 288.78,-85 278.78,-81.5 278.78,-88.5"/>
</a>
</g>
</g>
<!-- Node13 -->
<g id="Node000013" class="node">
<title>Node13</title>
<g id="a_Node000013"><a xlink:href="../../da/d0f/classcarla_1_1traffic__manager_1_1TrafficManagerLocal.html#a1639db97ccf27a801b92fadabd611755" target="_top" xlink:title="To reset the traffic manager.">
<polygon fill="white" stroke="#666666" points="109,-138 0,-138 0,-94 109,-94 109,-138"/>
<text text-anchor="start" x="8" y="-124.5" font-family="Helvetica,sans-Serif" font-size="10.00">carla::traffic_manager</text>
<text text-anchor="start" x="8" y="-112.5" font-family="Helvetica,sans-Serif" font-size="10.00">::TrafficManagerLocal</text>
<text text-anchor="middle" x="54.5" y="-100.5" font-family="Helvetica,sans-Serif" font-size="10.00">::Reset</text>
</a>
</g>
</g>
<!-- Node12&#45;&gt;Node13 -->
<g id="edge12_Node000012_Node000013" class="edge">
<title>Node12&#45;&gt;Node13</title>
<g id="a_edge12_Node000012_Node000013"><a xlink:title=" ">
<path fill="none" stroke="#63b8ff" d="M134.12,-98.96C125.88,-100.74 117.51,-102.56 109.46,-104.3"/>
<polygon fill="#63b8ff" stroke="#63b8ff" points="134.81,-102.17 143.85,-96.63 133.33,-95.33 134.81,-102.17"/>
</a>
</g>
</g>
<!-- Node14 -->
<g id="Node000014" class="node">
<title>Node14</title>
<g id="a_Node000014"><a xlink:href="../../da/d0f/classcarla_1_1traffic__manager_1_1TrafficManagerLocal.html#a75976d36f4213ab24e79e3ea2dcd280a" target="_top" xlink:title="Private constructor for singleton lifecycle management.">
<polygon fill="white" stroke="#666666" points="109,-76 0,-76 0,-32 109,-32 109,-76"/>
<text text-anchor="start" x="8" y="-62.5" font-family="Helvetica,sans-Serif" font-size="10.00">carla::traffic_manager</text>
<text text-anchor="start" x="8" y="-50.5" font-family="Helvetica,sans-Serif" font-size="10.00">::TrafficManagerLocal</text>
<text text-anchor="middle" x="54.5" y="-38.5" font-family="Helvetica,sans-Serif" font-size="10.00">::TrafficManagerLocal</text>
</a>
</g>
</g>
<!-- Node12&#45;&gt;Node14 -->
<g id="edge13_Node000012_Node000014" class="edge">
<title>Node12&#45;&gt;Node14</title>
<g id="a_edge13_Node000012_Node000014"><a xlink:title=" ">
<path fill="none" stroke="#63b8ff" d="M134.12,-71.04C125.88,-69.26 117.51,-67.44 109.46,-65.7"/>
<polygon fill="#63b8ff" stroke="#63b8ff" points="133.33,-74.67 143.85,-73.37 134.81,-67.83 133.33,-74.67"/>
</a>
</g>
</g>
<!-- Node15&#45;&gt;Node16 -->
<g id="edge17_Node000015_Node000016" class="edge">
<title>Node15&#45;&gt;Node16</title>
<g id="a_edge17_Node000015_Node000016"><a xlink:title=" ">
<path fill="none" stroke="#63b8ff" d="M1212.2,-130.03C1195.13,-126.24 1177.31,-122.28 1160.88,-118.63"/>
<polygon fill="#63b8ff" stroke="#63b8ff" points="1211.19,-133.61 1221.72,-132.36 1212.71,-126.78 1211.19,-133.61"/>
</a>
</g>
</g>
<!-- Node16&#45;&gt;Node11 -->
<g id="edge18_Node000016_Node000011" class="edge">
<title>Node16&#45;&gt;Node11</title>
<g id="a_edge18_Node000016_Node000011"><a xlink:title=" ">
<path fill="none" stroke="#63b8ff" d="M1016.43,-102.02C871.09,-98.27 557.68,-90.19 421.8,-86.68"/>
<polygon fill="#63b8ff" stroke="#63b8ff" points="1015.93,-105.54 1026.01,-102.3 1016.11,-98.54 1015.93,-105.54"/>
</a>
</g>
</g>
<!-- Node17&#45;&gt;Node11 -->
<g id="edge22_Node000017_Node000011" class="edge">
<title>Node17&#45;&gt;Node11</title>
<g id="a_edge22_Node000017_Node000011"><a xlink:title=" ">
<path fill="none" stroke="#63b8ff" d="M619.38,-65.74C559.61,-70.12 478.19,-76.09 421.93,-80.22"/>
<polygon fill="#63b8ff" stroke="#63b8ff" points="619.56,-69.16 629.28,-64.94 619.05,-62.18 619.56,-69.16"/>
</a>
</g>
</g>
<!-- Node19 -->
<g id="Node000019" class="node">
<title>Node19</title>
<g id="a_Node000019"><a xlink:href="../../d2/d75/classcarla_1_1traffic__manager_1_1ALSM.html#ad15f10c71f3da095c15de0aab2c4462d" target="_top" xlink:title=" ">
<polygon fill="white" stroke="#666666" points="1184.5,-32 1003.5,-32 1003.5,0 1184.5,0 1184.5,-32"/>
<text text-anchor="start" x="1011.5" y="-18.5" font-family="Helvetica,sans-Serif" font-size="10.00">carla::traffic_manager</text>
<text text-anchor="middle" x="1094" y="-6.5" font-family="Helvetica,sans-Serif" font-size="10.00">::ALSM::UpdateRegisteredActorsData</text>
</a>
</g>
</g>
<!-- Node18&#45;&gt;Node19 -->
<g id="edge24_Node000018_Node000019" class="edge">
<title>Node18&#45;&gt;Node19</title>
<g id="a_edge24_Node000018_Node000019"><a xlink:title=" ">
<path fill="none" stroke="#63b8ff" d="M1228.32,-16C1214.38,-16 1199.41,-16 1184.72,-16"/>
<polygon fill="#63b8ff" stroke="#63b8ff" points="1228.25,-19.5 1238.25,-16 1228.25,-12.5 1228.25,-19.5"/>
</a>
</g>
</g>
<!-- Node20 -->
<g id="Node000020" class="node">
<title>Node20</title>
<g id="a_Node000020"><a xlink:href="../../d2/d75/classcarla_1_1traffic__manager_1_1ALSM.html#a0a506446f6810014b6da12d0dcba0748" target="_top" xlink:title=" ">
<polygon fill="white" stroke="#666666" points="572.5,-35 463.5,-35 463.5,-3 572.5,-3 572.5,-35"/>
<text text-anchor="start" x="471.5" y="-21.5" font-family="Helvetica,sans-Serif" font-size="10.00">carla::traffic_manager</text>
<text text-anchor="middle" x="518" y="-9.5" font-family="Helvetica,sans-Serif" font-size="10.00">::ALSM::Update</text>
</a>
</g>
</g>
<!-- Node19&#45;&gt;Node20 -->
<g id="edge25_Node000019_Node000020" class="edge">
<title>Node19&#45;&gt;Node20</title>
<g id="a_edge25_Node000019_Node000020"><a xlink:title=" ">
<path fill="none" stroke="#63b8ff" d="M992.47,-16.53C870.28,-17.16 668.56,-18.22 572.74,-18.72"/>
<polygon fill="#63b8ff" stroke="#63b8ff" points="992.33,-20.02 1002.31,-16.47 992.29,-13.02 992.33,-20.02"/>
</a>
</g>
</g>
<!-- Node20&#45;&gt;Node11 -->
<g id="edge26_Node000020_Node000011" class="edge">
<title>Node20&#45;&gt;Node11</title>
<g id="a_edge26_Node000020_Node000011"><a xlink:title=" ">
<path fill="none" stroke="#63b8ff" d="M466.86,-39.65C444.2,-48.98 417.81,-59.85 396.54,-68.61"/>
<polygon fill="#63b8ff" stroke="#63b8ff" points="468.06,-42.53 475.98,-35.48 465.4,-36.06 468.06,-42.53"/>
</a>
</g>
</g>
</g>
</svg>

<g id="navigator" transform="translate(0 0)" fill="#404254">
  <rect fill="#f2f5e9" fill-opacity="0.5" stroke="#606060" stroke-width=".5" x="0" y="0" width="60" height="60"/>
  <use id="zoomplus" xlink:href="#zoomPlus" x="17" y="9" onmousedown="handleZoom(evt,'in')"/>
  <use id="zoomminus" xlink:href="#zoomMin" x="42" y="9" onmousedown="handleZoom(evt,'out')"/>
  <use id="reset" xlink:href="#resetDef" x="30" y="36" onmousedown="handleReset()"/>
   <use id="arrowup" xlink:href="#arrowUp" x="0" y="0" onmousedown="handlePan(0,-1)"/>
  <use id="arrowright" xlink:href="#arrowRight" x="0" y="0" onmousedown="handlePan(1,0)"/>
  <use id="arrowdown" xlink:href="#arrowDown" x="0" y="0" onmousedown="handlePan(0,1)"/>
  <use id="arrowleft" xlink:href="#arrowLeft" x="0" y="0" onmousedown="handlePan(-1,0)"/>
</g>
<svg viewBox="0 0 15 15" width="100%" height="30px" preserveAspectRatio="xMaxYMin meet">
 <g id="arrow_out" transform="scale(0.3 0.3)">
  <a xlink:href="classcarla_1_1traffic__manager_1_1SimulationState_a59ede59f9972bf3dd9fc2c4b6b1e8233_icgraph_org.svg" target="_base">
   <rect id="button" ry="5" rx="5" y="6" x="6" height="38" width="38"
        fill="#f2f5e9" fill-opacity="0.5" stroke="#606060" stroke-width="1.0"/>
   <path id="arrow"
     d="M 11.500037,31.436501 C 11.940474,20.09759 22.043105,11.32322 32.158766,21.979434 L 37.068811,17.246167 C 37.068811,17.246167 37.088388,32 37.088388,32 L 22.160133,31.978069 C 22.160133,31.978069 26.997745,27.140456 26.997745,27.140456 C 18.528582,18.264221 13.291696,25.230495 11.500037,31.436501 z"
     style="fill:#404040;"/>
  </a>
 </g>
</svg>

<style type='text/css'>
<![CDATA[
[data-mouse-over-selected='false'] { opacity: 0.7; }
[data-mouse-over-selected='true']  { opacity: 1.0; }
]]>
</style>
<script type="application/ecmascript"><![CDATA[
document.addEventListener('DOMContentLoaded', (event) => {
  highlightEdges();
  highlightAdjacentNodes();
});
]]></script>
</svg>
