<?xml version="1.0" encoding="UTF-8" standalone="no"?>
<!DOCTYPE svg PUBLIC "-//W3C//DTD SVG 1.1//EN"
 "http://www.w3.org/Graphics/SVG/1.1/DTD/svg11.dtd">
<!-- Generated by graphviz version 8.1.0 (20230707.0739)
 -->
<!-- Title: carla::traffic_manager::SimulationState::GetType Pages: 1 -->
<!--zoomable 152 -->

<svg id="main" version="1.1" xmlns="http://www.w3.org/2000/svg" xmlns:xlink="http://www.w3.org/1999/xlink" xml:space="preserve" onload="init(evt)">
<style type="text/css"><![CDATA[
.node, .edge {opacity: 0.7;}
.node.selected, .edge.selected {opacity: 1;}
.edge:hover path { stroke: red; }
.edge:hover polygon { stroke: red; fill: red; }
]]></style>

<defs>
  <circle id="rim" cx="0" cy="0" r="7"/>
  <circle id="rim2" cx="0" cy="0" r="3.5"/>
  <g id="zoomPlus">
    <use xlink:href="#rim" fill="#404040"><set attributeName="fill" to="#808080" begin="zoomplus.mouseover" end="zoomplus.mouseout"/></use>
    <path d="M-4,0h8M0,-4v8" fill="none" stroke="white" stroke-width="1.5" pointer-events="none"/>
  </g>
  <g id="zoomMin">
    <use xlink:href="#rim" fill="#404040"><set attributeName="fill" to="#808080" begin="zoomminus.mouseover" end="zoomminus.mouseout"/></use>
    <path d="M-4,0h8" fill="none" stroke="white" stroke-width="1.5" pointer-events="none"/>
  </g>
  <g id="arrowUp" transform="translate(30 24)">
    <use xlink:href="#rim"/>
    <path pointer-events="none" fill="none" stroke="white" stroke-width="1.5" d="M0,-3.0v7 M-2.5,-0.5L0,-3.0L2.5,-0.5"/>
  </g>
  <g id="arrowRight" transform="rotate(90) translate(36 -43)">
    <use xlink:href="#rim"/>
    <path pointer-events="none" fill="none" stroke="white" stroke-width="1.5" d="M0,-3.0v7 M-2.5,-0.5L0,-3.0L2.5,-0.5"/>
  </g>
  <g id="arrowDown" transform="rotate(180) translate(-30 -48)">
    <use xlink:href="#rim"/>
    <path pointer-events="none" fill="none" stroke="white" stroke-width="1.5" d="M0,-3.0v7 M-2.5,-0.5L0,-3.0L2.5,-0.5"/>
  </g>
  <g id="arrowLeft" transform="rotate(270) translate(-36 17)">
    <use xlink:href="#rim"/>
    <path pointer-events="none" fill="none" stroke="white" stroke-width="1.5" d="M0,-3.0v7 M-2.5,-0.5L0,-3.0L2.5,-0.5"/>
  </g>
  <g id="resetDef">
    <use xlink:href="#rim2" fill="#404040"><set attributeName="fill" to="#808080" begin="reset.mouseover" end="reset.mouseout"/></use>
  </g>
</defs>
<script type="application/ecmascript">
var viewWidth = 1512;
var viewHeight = 152;
var sectionId = 'dynsection-10';
</script>
<script type="application/ecmascript" xlink:href="../../svg.min.js"/>
<svg id="graph" class="graph">
<g id="viewport">
<title>carla::traffic_manager::SimulationState::GetType</title>
<!-- Node1 -->
<g id="Node000001" class="node">
<title>Node1</title>
<g id="a_Node000001"><a xlink:title=" ">
<polygon fill="#999999" stroke="#666666" points="1503.75,-69 1370,-69 1370,-37 1503.75,-37 1503.75,-69"/>
<text text-anchor="start" x="1378" y="-55.5" font-family="Helvetica,sans-Serif" font-size="10.00">carla::traffic_manager</text>
<text text-anchor="middle" x="1436.88" y="-43.5" font-family="Helvetica,sans-Serif" font-size="10.00">::SimulationState::GetType</text>
</a>
</g>
</g>
<!-- Node2 -->
<g id="Node000002" class="node">
<title>Node2</title>
<g id="a_Node000002"><a xlink:href="../../d1/d26/classcarla_1_1traffic__manager_1_1CollisionStage.html#a868ceb22e38362b0c6d01bf0d5ea36cc" target="_top" xlink:title=" ">
<polygon fill="white" stroke="#666666" points="1334,-91 1186.75,-91 1186.75,-59 1334,-59 1334,-91"/>
<text text-anchor="start" x="1194.75" y="-77.5" font-family="Helvetica,sans-Serif" font-size="10.00">carla::traffic_manager</text>
<text text-anchor="middle" x="1260.38" y="-65.5" font-family="Helvetica,sans-Serif" font-size="10.00">::CollisionStage::GetBoundary</text>
</a>
</g>
</g>
<!-- Node1&#45;&gt;Node2 -->
<g id="edge1_Node000001_Node000002" class="edge">
<title>Node1&#45;&gt;Node2</title>
<g id="a_edge1_Node000001_Node000002"><a xlink:title=" ">
<path fill="none" stroke="#63b8ff" d="M1359.19,-62.67C1350.97,-63.7 1342.62,-64.76 1334.45,-65.79"/>
<polygon fill="#63b8ff" stroke="#63b8ff" points="1359.42,-66.04 1368.9,-61.32 1358.54,-59.1 1359.42,-66.04"/>
</a>
</g>
</g>
<!-- Node6 -->
<g id="Node000006" class="node">
<title>Node6</title>
<g id="a_Node000006"><a xlink:href="../../d1/d26/classcarla_1_1traffic__manager_1_1CollisionStage.html#ac446efd585519bce8de5740158758158" target="_top" xlink:title=" ">
<polygon fill="white" stroke="#666666" points="578.5,-69 457.5,-69 457.5,-37 578.5,-37 578.5,-69"/>
<text text-anchor="start" x="465.5" y="-55.5" font-family="Helvetica,sans-Serif" font-size="10.00">carla::traffic_manager</text>
<text text-anchor="middle" x="518" y="-43.5" font-family="Helvetica,sans-Serif" font-size="10.00">::CollisionStage::Update</text>
</a>
</g>
</g>
<!-- Node1&#45;&gt;Node6 -->
<g id="edge11_Node000001_Node000006" class="edge">
<title>Node1&#45;&gt;Node6</title>
<g id="a_edge11_Node000001_Node000006"><a xlink:title=" ">
<path fill="none" stroke="#63b8ff" d="M1358.85,-45.52C1286.46,-39.14 1175.05,-31 1078.12,-31 1078.12,-31 1078.12,-31 892.12,-31 781.32,-31 652.33,-40.79 578.71,-47.31"/>
<polygon fill="#63b8ff" stroke="#63b8ff" points="1358.41,-49.09 1368.68,-46.49 1359.04,-42.11 1358.41,-49.09"/>
</a>
</g>
</g>
<!-- Node3 -->
<g id="Node000003" class="node">
<title>Node3</title>
<g id="a_Node000003"><a xlink:href="../../d1/d26/classcarla_1_1traffic__manager_1_1CollisionStage.html#a45e850204e542a9c51cf202fc0bc5854" target="_top" xlink:title=" ">
<polygon fill="white" stroke="#666666" points="1150.75,-144 1003.5,-144 1003.5,-100 1150.75,-100 1150.75,-144"/>
<text text-anchor="start" x="1011.5" y="-130.5" font-family="Helvetica,sans-Serif" font-size="10.00">carla::traffic_manager</text>
<text text-anchor="start" x="1011.5" y="-118.5" font-family="Helvetica,sans-Serif" font-size="10.00">::CollisionStage::GetGeodesic</text>
<text text-anchor="middle" x="1077.12" y="-106.5" font-family="Helvetica,sans-Serif" font-size="10.00">Boundary</text>
</a>
</g>
</g>
<!-- Node2&#45;&gt;Node3 -->
<g id="edge2_Node000002_Node000003" class="edge">
<title>Node2&#45;&gt;Node3</title>
<g id="a_edge2_Node000002_Node000003"><a xlink:title=" ">
<path fill="none" stroke="#63b8ff" d="M1185.64,-94.12C1174.25,-97.07 1162.48,-100.13 1151.1,-103.08"/>
<polygon fill="#63b8ff" stroke="#63b8ff" points="1186.18,-97.34 1194.98,-91.44 1184.42,-90.56 1186.18,-97.34"/>
</a>
</g>
</g>
<!-- Node4 -->
<g id="Node000004" class="node">
<title>Node4</title>
<g id="a_Node000004"><a xlink:href="../../d1/d26/classcarla_1_1traffic__manager_1_1CollisionStage.html#a383f31bbf925c84040ef66592dd6e56e" target="_top" xlink:title=" ">
<polygon fill="white" stroke="#666666" points="967.5,-103 818.75,-103 818.75,-59 967.5,-59 967.5,-103"/>
<text text-anchor="start" x="826.75" y="-89.5" font-family="Helvetica,sans-Serif" font-size="10.00">carla::traffic_manager</text>
<text text-anchor="start" x="826.75" y="-77.5" font-family="Helvetica,sans-Serif" font-size="10.00">::CollisionStage::GetGeometry</text>
<text text-anchor="middle" x="893.12" y="-65.5" font-family="Helvetica,sans-Serif" font-size="10.00">BetweenActors</text>
</a>
</g>
</g>
<!-- Node2&#45;&gt;Node4 -->
<g id="edge10_Node000002_Node000004" class="edge">
<title>Node2&#45;&gt;Node4</title>
<g id="a_edge10_Node000002_Node000004"><a xlink:title=" ">
<path fill="none" stroke="#63b8ff" d="M1175.7,-76.37C1113.04,-77.4 1028.12,-78.8 967.97,-79.79"/>
<polygon fill="#63b8ff" stroke="#63b8ff" points="1175.4,-79.86 1185.34,-76.2 1175.28,-72.86 1175.4,-79.86"/>
</a>
</g>
</g>
<!-- Node3&#45;&gt;Node4 -->
<g id="edge3_Node000003_Node000004" class="edge">
<title>Node3&#45;&gt;Node4</title>
<g id="a_edge3_Node000003_Node000004"><a xlink:title=" ">
<path fill="none" stroke="#63b8ff" d="M992.67,-103.2C984.34,-101.32 975.93,-99.43 967.71,-97.58"/>
<polygon fill="#63b8ff" stroke="#63b8ff" points="991.62,-106.78 1002.15,-105.56 993.16,-99.95 991.62,-106.78"/>
</a>
</g>
</g>
<!-- Node5 -->
<g id="Node000005" class="node">
<title>Node5</title>
<g id="a_Node000005"><a xlink:href="../../d1/d26/classcarla_1_1traffic__manager_1_1CollisionStage.html#af9c0740908fbcb2f077fb513224b2b4e" target="_top" xlink:title=" ">
<polygon fill="white" stroke="#666666" points="782.75,-94 614.5,-94 614.5,-62 782.75,-62 782.75,-94"/>
<text text-anchor="start" x="622.5" y="-80.5" font-family="Helvetica,sans-Serif" font-size="10.00">carla::traffic_manager</text>
<text text-anchor="middle" x="698.62" y="-68.5" font-family="Helvetica,sans-Serif" font-size="10.00">::CollisionStage::NegotiateCollision</text>
</a>
</g>
</g>
<!-- Node4&#45;&gt;Node5 -->
<g id="edge4_Node000004_Node000005" class="edge">
<title>Node4&#45;&gt;Node5</title>
<g id="a_edge4_Node000004_Node000005"><a xlink:title=" ">
<path fill="none" stroke="#63b8ff" d="M807.3,-79.68C799.21,-79.55 791.01,-79.42 782.93,-79.3"/>
<polygon fill="#63b8ff" stroke="#63b8ff" points="807.2,-83.19 817.25,-79.85 807.31,-76.19 807.2,-83.19"/>
</a>
</g>
</g>
<!-- Node5&#45;&gt;Node6 -->
<g id="edge5_Node000005_Node000006" class="edge">
<title>Node5&#45;&gt;Node6</title>
<g id="a_edge5_Node000005_Node000006"><a xlink:title=" ">
<path fill="none" stroke="#63b8ff" d="M603.18,-64.78C594.91,-63.62 586.69,-62.47 578.82,-61.37"/>
<polygon fill="#63b8ff" stroke="#63b8ff" points="602.68,-68.39 613.07,-66.31 603.65,-61.45 602.68,-68.39"/>
</a>
</g>
</g>
<!-- Node7 -->
<g id="Node000007" class="node">
<title>Node7</title>
<g id="a_Node000007"><a xlink:href="../../da/d0f/classcarla_1_1traffic__manager_1_1TrafficManagerLocal.html#a6d67cce3d0e5a48056645270364fe637" target="_top" xlink:title="Initiates thread to run the TrafficManager sequentially.">
<polygon fill="white" stroke="#666666" points="421.5,-69 290,-69 290,-37 421.5,-37 421.5,-69"/>
<text text-anchor="start" x="298" y="-55.5" font-family="Helvetica,sans-Serif" font-size="10.00">carla::traffic_manager</text>
<text text-anchor="middle" x="355.75" y="-43.5" font-family="Helvetica,sans-Serif" font-size="10.00">::TrafficManagerLocal::Run</text>
</a>
</g>
</g>
<!-- Node6&#45;&gt;Node7 -->
<g id="edge6_Node000006_Node000007" class="edge">
<title>Node6&#45;&gt;Node7</title>
<g id="a_edge6_Node000006_Node000007"><a xlink:title=" ">
<path fill="none" stroke="#63b8ff" d="M446.34,-53C438.19,-53 429.92,-53 421.85,-53"/>
<polygon fill="#63b8ff" stroke="#63b8ff" points="446.33,-56.5 456.33,-53 446.33,-49.5 446.33,-56.5"/>
</a>
</g>
</g>
<!-- Node8 -->
<g id="Node000008" class="node">
<title>Node8</title>
<g id="a_Node000008"><a xlink:href="../../da/d0f/classcarla_1_1traffic__manager_1_1TrafficManagerLocal.html#a1ffbdb0bed64f385437d2820a90286d0" target="_top" xlink:title="To start the TrafficManager.">
<polygon fill="white" stroke="#666666" points="254,-75 145,-75 145,-31 254,-31 254,-75"/>
<text text-anchor="start" x="153" y="-61.5" font-family="Helvetica,sans-Serif" font-size="10.00">carla::traffic_manager</text>
<text text-anchor="start" x="153" y="-49.5" font-family="Helvetica,sans-Serif" font-size="10.00">::TrafficManagerLocal</text>
<text text-anchor="middle" x="199.5" y="-37.5" font-family="Helvetica,sans-Serif" font-size="10.00">::Start</text>
</a>
</g>
</g>
<!-- Node7&#45;&gt;Node8 -->
<g id="edge7_Node000007_Node000008" class="edge">
<title>Node7&#45;&gt;Node8</title>
<g id="a_edge7_Node000007_Node000008"><a xlink:title=" ">
<path fill="none" stroke="#63b8ff" d="M278.87,-53C270.53,-53 262.18,-53 254.19,-53"/>
<polygon fill="#63b8ff" stroke="#63b8ff" points="278.78,-56.5 288.78,-53 278.78,-49.5 278.78,-56.5"/>
</a>
</g>
</g>
<!-- Node9 -->
<g id="Node000009" class="node">
<title>Node9</title>
<g id="a_Node000009"><a xlink:href="../../da/d0f/classcarla_1_1traffic__manager_1_1TrafficManagerLocal.html#a1639db97ccf27a801b92fadabd611755" target="_top" xlink:title="To reset the traffic manager.">
<polygon fill="white" stroke="#666666" points="109,-106 0,-106 0,-62 109,-62 109,-106"/>
<text text-anchor="start" x="8" y="-92.5" font-family="Helvetica,sans-Serif" font-size="10.00">carla::traffic_manager</text>
<text text-anchor="start" x="8" y="-80.5" font-family="Helvetica,sans-Serif" font-size="10.00">::TrafficManagerLocal</text>
<text text-anchor="middle" x="54.5" y="-68.5" font-family="Helvetica,sans-Serif" font-size="10.00">::Reset</text>
</a>
</g>
</g>
<!-- Node8&#45;&gt;Node9 -->
<g id="edge8_Node000008_Node000009" class="edge">
<title>Node8&#45;&gt;Node9</title>
<g id="a_edge8_Node000008_Node000009"><a xlink:title=" ">
<path fill="none" stroke="#63b8ff" d="M134.12,-66.96C125.88,-68.74 117.51,-70.56 109.46,-72.3"/>
<polygon fill="#63b8ff" stroke="#63b8ff" points="134.81,-70.17 143.85,-64.63 133.33,-63.33 134.81,-70.17"/>
</a>
</g>
</g>
<!-- Node10 -->
<g id="Node000010" class="node">
<title>Node10</title>
<g id="a_Node000010"><a xlink:href="../../da/d0f/classcarla_1_1traffic__manager_1_1TrafficManagerLocal.html#a75976d36f4213ab24e79e3ea2dcd280a" target="_top" xlink:title="Private constructor for singleton lifecycle management.">
<polygon fill="white" stroke="#666666" points="109,-44 0,-44 0,0 109,0 109,-44"/>
<text text-anchor="start" x="8" y="-30.5" font-family="Helvetica,sans-Serif" font-size="10.00">carla::traffic_manager</text>
<text text-anchor="start" x="8" y="-18.5" font-family="Helvetica,sans-Serif" font-size="10.00">::TrafficManagerLocal</text>
<text text-anchor="middle" x="54.5" y="-6.5" font-family="Helvetica,sans-Serif" font-size="10.00">::TrafficManagerLocal</text>
</a>
</g>
</g>
<!-- Node8&#45;&gt;Node10 -->
<g id="edge9_Node000008_Node000010" class="edge">
<title>Node8&#45;&gt;Node10</title>
<g id="a_edge9_Node000008_Node000010"><a xlink:title=" ">
<path fill="none" stroke="#63b8ff" d="M134.12,-39.04C125.88,-37.26 117.51,-35.44 109.46,-33.7"/>
<polygon fill="#63b8ff" stroke="#63b8ff" points="133.33,-42.67 143.85,-41.37 134.81,-35.83 133.33,-42.67"/>
</a>
</g>
</g>
</g>
</svg>

<g id="navigator" transform="translate(0 0)" fill="#404254">
  <rect fill="#f2f5e9" fill-opacity="0.5" stroke="#606060" stroke-width=".5" x="0" y="0" width="60" height="60"/>
  <use id="zoomplus" xlink:href="#zoomPlus" x="17" y="9" onmousedown="handleZoom(evt,'in')"/>
  <use id="zoomminus" xlink:href="#zoomMin" x="42" y="9" onmousedown="handleZoom(evt,'out')"/>
  <use id="reset" xlink:href="#resetDef" x="30" y="36" onmousedown="handleReset()"/>
   <use id="arrowup" xlink:href="#arrowUp" x="0" y="0" onmousedown="handlePan(0,-1)"/>
  <use id="arrowright" xlink:href="#arrowRight" x="0" y="0" onmousedown="handlePan(1,0)"/>
  <use id="arrowdown" xlink:href="#arrowDown" x="0" y="0" onmousedown="handlePan(0,1)"/>
  <use id="arrowleft" xlink:href="#arrowLeft" x="0" y="0" onmousedown="handlePan(-1,0)"/>
</g>
<svg viewBox="0 0 15 15" width="100%" height="30px" preserveAspectRatio="xMaxYMin meet">
 <g id="arrow_out" transform="scale(0.3 0.3)">
  <a xlink:href="classcarla_1_1traffic__manager_1_1SimulationState_acc21d48ec73259ee9d8ee445a1e9f2dc_icgraph_org.svg" target="_base">
   <rect id="button" ry="5" rx="5" y="6" x="6" height="38" width="38"
        fill="#f2f5e9" fill-opacity="0.5" stroke="#606060" stroke-width="1.0"/>
   <path id="arrow"
     d="M 11.500037,31.436501 C 11.940474,20.09759 22.043105,11.32322 32.158766,21.979434 L 37.068811,17.246167 C 37.068811,17.246167 37.088388,32 37.088388,32 L 22.160133,31.978069 C 22.160133,31.978069 26.997745,27.140456 26.997745,27.140456 C 18.528582,18.264221 13.291696,25.230495 11.500037,31.436501 z"
     style="fill:#404040;"/>
  </a>
 </g>
</svg>

<style type='text/css'>
<![CDATA[
[data-mouse-over-selected='false'] { opacity: 0.7; }
[data-mouse-over-selected='true']  { opacity: 1.0; }
]]>
</style>
<script type="application/ecmascript"><![CDATA[
document.addEventListener('DOMContentLoaded', (event) => {
  highlightEdges();
  highlightAdjacentNodes();
});
]]></script>
</svg>
