<?xml version="1.0" encoding="UTF-8" standalone="no"?>
<!DOCTYPE svg PUBLIC "-//W3C//DTD SVG 1.1//EN"
 "http://www.w3.org/Graphics/SVG/1.1/DTD/svg11.dtd">
<!-- Generated by graphviz version 8.1.0 (20230707.0739)
 -->
<!-- Title: carla::traffic_manager::SimulationState::IsPhysicsEnabled Pages: 1 -->
<svg width="1112pt" height="114pt"
 viewBox="0.00 0.00 1112.25 114.00" xmlns="http://www.w3.org/2000/svg" xmlns:xlink="http://www.w3.org/1999/xlink">
<g id="graph0" class="graph" transform="scale(1 1) rotate(0) translate(4 110)">
<title>carla::traffic_manager::SimulationState::IsPhysicsEnabled</title>
<!-- Node1 -->
<g id="Node000001" class="node">
<title>Node1</title>
<g id="a_Node000001"><a xlink:title=" ">
<polygon fill="#999999" stroke="#666666" points="1104.25,-75 964.5,-75 964.5,-31 1104.25,-31 1104.25,-75"/>
<text text-anchor="start" x="972.5" y="-61.5" font-family="Helvetica,sans-Serif" font-size="10.00">carla::traffic_manager</text>
<text text-anchor="start" x="972.5" y="-49.5" font-family="Helvetica,sans-Serif" font-size="10.00">::SimulationState::IsPhysics</text>
<text text-anchor="middle" x="1034.38" y="-37.5" font-family="Helvetica,sans-Serif" font-size="10.00">Enabled</text>
</a>
</g>
</g>
<!-- Node2 -->
<g id="Node000002" class="node">
<title>Node2</title>
<g id="a_Node000002"><a xlink:href="../../dd/df9/classcarla_1_1traffic__manager_1_1MotionPlanStage.html#a7a57d649d96daccb2e2ee9780f24c4ec" target="_top" xlink:title=" ">
<polygon fill="white" stroke="#666666" points="759.5,-94 626.5,-94 626.5,-62 759.5,-62 759.5,-94"/>
<text text-anchor="start" x="634.5" y="-80.5" font-family="Helvetica,sans-Serif" font-size="10.00">carla::traffic_manager</text>
<text text-anchor="middle" x="693" y="-68.5" font-family="Helvetica,sans-Serif" font-size="10.00">::MotionPlanStage::Update</text>
</a>
</g>
</g>
<!-- Node1&#45;&gt;Node2 -->
<g id="edge1_Node000001_Node000002" class="edge">
<title>Node1&#45;&gt;Node2</title>
<g id="a_edge1_Node000001_Node000002"><a xlink:title=" ">
<path fill="none" stroke="#63b8ff" d="M953.52,-58.88C894.53,-63.23 815.19,-69.07 759.82,-73.15"/>
<polygon fill="#63b8ff" stroke="#63b8ff" points="953.57,-62.31 963.29,-58.09 953.06,-55.33 953.57,-62.31"/>
</a>
</g>
</g>
<!-- Node7 -->
<g id="Node000007" class="node">
<title>Node7</title>
<g id="a_Node000007"><a xlink:href="../../d2/d75/classcarla_1_1traffic__manager_1_1ALSM.html#aaac16328f1c46481fc16f634edaa9ea4" target="_top" xlink:title=" ">
<polygon fill="white" stroke="#666666" points="928.5,-47 819.5,-47 819.5,-15 928.5,-15 928.5,-47"/>
<text text-anchor="start" x="827.5" y="-33.5" font-family="Helvetica,sans-Serif" font-size="10.00">carla::traffic_manager</text>
<text text-anchor="middle" x="874" y="-21.5" font-family="Helvetica,sans-Serif" font-size="10.00">::ALSM::UpdateData</text>
</a>
</g>
</g>
<!-- Node1&#45;&gt;Node7 -->
<g id="edge6_Node000001_Node000007" class="edge">
<title>Node1&#45;&gt;Node7</title>
<g id="a_edge6_Node000001_Node000007"><a xlink:title=" ">
<path fill="none" stroke="#63b8ff" d="M953.63,-41.92C945.12,-40.74 936.63,-39.56 928.54,-38.44"/>
<polygon fill="#63b8ff" stroke="#63b8ff" points="952.98,-45.51 963.37,-43.41 953.95,-38.57 952.98,-45.51"/>
</a>
</g>
</g>
<!-- Node3 -->
<g id="Node000003" class="node">
<title>Node3</title>
<g id="a_Node000003"><a xlink:href="../../da/d0f/classcarla_1_1traffic__manager_1_1TrafficManagerLocal.html#a6d67cce3d0e5a48056645270364fe637" target="_top" xlink:title="Initiates thread to run the TrafficManager sequentially.">
<polygon fill="white" stroke="#666666" points="421.5,-69 290,-69 290,-37 421.5,-37 421.5,-69"/>
<text text-anchor="start" x="298" y="-55.5" font-family="Helvetica,sans-Serif" font-size="10.00">carla::traffic_manager</text>
<text text-anchor="middle" x="355.75" y="-43.5" font-family="Helvetica,sans-Serif" font-size="10.00">::TrafficManagerLocal::Run</text>
</a>
</g>
</g>
<!-- Node2&#45;&gt;Node3 -->
<g id="edge2_Node000002_Node000003" class="edge">
<title>Node2&#45;&gt;Node3</title>
<g id="a_edge2_Node000002_Node000003"><a xlink:title=" ">
<path fill="none" stroke="#63b8ff" d="M615.51,-72.3C557.03,-67.94 477.3,-61.99 421.86,-57.86"/>
<polygon fill="#63b8ff" stroke="#63b8ff" points="614.93,-75.84 625.17,-73.09 615.45,-68.86 614.93,-75.84"/>
</a>
</g>
</g>
<!-- Node4 -->
<g id="Node000004" class="node">
<title>Node4</title>
<g id="a_Node000004"><a xlink:href="../../da/d0f/classcarla_1_1traffic__manager_1_1TrafficManagerLocal.html#a1ffbdb0bed64f385437d2820a90286d0" target="_top" xlink:title="To start the TrafficManager.">
<polygon fill="white" stroke="#666666" points="254,-75 145,-75 145,-31 254,-31 254,-75"/>
<text text-anchor="start" x="153" y="-61.5" font-family="Helvetica,sans-Serif" font-size="10.00">carla::traffic_manager</text>
<text text-anchor="start" x="153" y="-49.5" font-family="Helvetica,sans-Serif" font-size="10.00">::TrafficManagerLocal</text>
<text text-anchor="middle" x="199.5" y="-37.5" font-family="Helvetica,sans-Serif" font-size="10.00">::Start</text>
</a>
</g>
</g>
<!-- Node3&#45;&gt;Node4 -->
<g id="edge3_Node000003_Node000004" class="edge">
<title>Node3&#45;&gt;Node4</title>
<g id="a_edge3_Node000003_Node000004"><a xlink:title=" ">
<path fill="none" stroke="#63b8ff" d="M278.87,-53C270.53,-53 262.18,-53 254.19,-53"/>
<polygon fill="#63b8ff" stroke="#63b8ff" points="278.78,-56.5 288.78,-53 278.78,-49.5 278.78,-56.5"/>
</a>
</g>
</g>
<!-- Node5 -->
<g id="Node000005" class="node">
<title>Node5</title>
<g id="a_Node000005"><a xlink:href="../../da/d0f/classcarla_1_1traffic__manager_1_1TrafficManagerLocal.html#a1639db97ccf27a801b92fadabd611755" target="_top" xlink:title="To reset the traffic manager.">
<polygon fill="white" stroke="#666666" points="109,-106 0,-106 0,-62 109,-62 109,-106"/>
<text text-anchor="start" x="8" y="-92.5" font-family="Helvetica,sans-Serif" font-size="10.00">carla::traffic_manager</text>
<text text-anchor="start" x="8" y="-80.5" font-family="Helvetica,sans-Serif" font-size="10.00">::TrafficManagerLocal</text>
<text text-anchor="middle" x="54.5" y="-68.5" font-family="Helvetica,sans-Serif" font-size="10.00">::Reset</text>
</a>
</g>
</g>
<!-- Node4&#45;&gt;Node5 -->
<g id="edge4_Node000004_Node000005" class="edge">
<title>Node4&#45;&gt;Node5</title>
<g id="a_edge4_Node000004_Node000005"><a xlink:title=" ">
<path fill="none" stroke="#63b8ff" d="M134.12,-66.96C125.88,-68.74 117.51,-70.56 109.46,-72.3"/>
<polygon fill="#63b8ff" stroke="#63b8ff" points="134.81,-70.17 143.85,-64.63 133.33,-63.33 134.81,-70.17"/>
</a>
</g>
</g>
<!-- Node6 -->
<g id="Node000006" class="node">
<title>Node6</title>
<g id="a_Node000006"><a xlink:href="../../da/d0f/classcarla_1_1traffic__manager_1_1TrafficManagerLocal.html#a75976d36f4213ab24e79e3ea2dcd280a" target="_top" xlink:title="Private constructor for singleton lifecycle management.">
<polygon fill="white" stroke="#666666" points="109,-44 0,-44 0,0 109,0 109,-44"/>
<text text-anchor="start" x="8" y="-30.5" font-family="Helvetica,sans-Serif" font-size="10.00">carla::traffic_manager</text>
<text text-anchor="start" x="8" y="-18.5" font-family="Helvetica,sans-Serif" font-size="10.00">::TrafficManagerLocal</text>
<text text-anchor="middle" x="54.5" y="-6.5" font-family="Helvetica,sans-Serif" font-size="10.00">::TrafficManagerLocal</text>
</a>
</g>
</g>
<!-- Node4&#45;&gt;Node6 -->
<g id="edge5_Node000004_Node000006" class="edge">
<title>Node4&#45;&gt;Node6</title>
<g id="a_edge5_Node000004_Node000006"><a xlink:title=" ">
<path fill="none" stroke="#63b8ff" d="M134.12,-39.04C125.88,-37.26 117.51,-35.44 109.46,-33.7"/>
<polygon fill="#63b8ff" stroke="#63b8ff" points="133.33,-42.67 143.85,-41.37 134.81,-35.83 133.33,-42.67"/>
</a>
</g>
</g>
<!-- Node8 -->
<g id="Node000008" class="node">
<title>Node8</title>
<g id="a_Node000008"><a xlink:href="../../d2/d75/classcarla_1_1traffic__manager_1_1ALSM.html#ad15f10c71f3da095c15de0aab2c4462d" target="_top" xlink:title=" ">
<polygon fill="white" stroke="#666666" points="783.5,-44 602.5,-44 602.5,-12 783.5,-12 783.5,-44"/>
<text text-anchor="start" x="610.5" y="-30.5" font-family="Helvetica,sans-Serif" font-size="10.00">carla::traffic_manager</text>
<text text-anchor="middle" x="693" y="-18.5" font-family="Helvetica,sans-Serif" font-size="10.00">::ALSM::UpdateRegisteredActorsData</text>
</a>
</g>
</g>
<!-- Node7&#45;&gt;Node8 -->
<g id="edge7_Node000007_Node000008" class="edge">
<title>Node7&#45;&gt;Node8</title>
<g id="a_edge7_Node000007_Node000008"><a xlink:title=" ">
<path fill="none" stroke="#63b8ff" d="M808.53,-29.92C800.49,-29.78 792.15,-29.65 783.81,-29.51"/>
<polygon fill="#63b8ff" stroke="#63b8ff" points="808.24,-33.43 818.29,-30.1 808.35,-26.43 808.24,-33.43"/>
</a>
</g>
</g>
<!-- Node9 -->
<g id="Node000009" class="node">
<title>Node9</title>
<g id="a_Node000009"><a xlink:href="../../d2/d75/classcarla_1_1traffic__manager_1_1ALSM.html#a0a506446f6810014b6da12d0dcba0748" target="_top" xlink:title=" ">
<polygon fill="white" stroke="#666666" points="566.5,-47 457.5,-47 457.5,-15 566.5,-15 566.5,-47"/>
<text text-anchor="start" x="465.5" y="-33.5" font-family="Helvetica,sans-Serif" font-size="10.00">carla::traffic_manager</text>
<text text-anchor="middle" x="512" y="-21.5" font-family="Helvetica,sans-Serif" font-size="10.00">::ALSM::Update</text>
</a>
</g>
</g>
<!-- Node8&#45;&gt;Node9 -->
<g id="edge8_Node000008_Node000009" class="edge">
<title>Node8&#45;&gt;Node9</title>
<g id="a_edge8_Node000008_Node000009"><a xlink:title=" ">
<path fill="none" stroke="#63b8ff" d="M591.39,-29.69C582.86,-29.83 574.47,-29.97 566.53,-30.1"/>
<polygon fill="#63b8ff" stroke="#63b8ff" points="591.3,-33.17 601.24,-29.5 591.18,-26.17 591.3,-33.17"/>
</a>
</g>
</g>
<!-- Node9&#45;&gt;Node3 -->
<g id="edge9_Node000009_Node000003" class="edge">
<title>Node9&#45;&gt;Node3</title>
<g id="a_edge9_Node000009_Node000003"><a xlink:title=" ">
<path fill="none" stroke="#63b8ff" d="M446.2,-40.24C438.13,-41.39 429.88,-42.57 421.81,-43.72"/>
<polygon fill="#63b8ff" stroke="#63b8ff" points="446.65,-43.57 456.05,-38.69 445.66,-36.64 446.65,-43.57"/>
</a>
</g>
</g>
</g>
</svg>
