<?xml version="1.0" encoding="UTF-8" standalone="no"?>
<!DOCTYPE svg PUBLIC "-//W3C//DTD SVG 1.1//EN"
 "http://www.w3.org/Graphics/SVG/1.1/DTD/svg11.dtd">
<!-- Generated by graphviz version 8.1.0 (20230707.0739)
 -->
<!-- Title: carla::sensor::data::Array::begin Pages: 1 -->
<!--zoomable 278 -->

<svg id="main" version="1.1" xmlns="http://www.w3.org/2000/svg" xmlns:xlink="http://www.w3.org/1999/xlink" xml:space="preserve" onload="init(evt)">
<style type="text/css"><![CDATA[
.node, .edge {opacity: 0.7;}
.node.selected, .edge.selected {opacity: 1;}
.edge:hover path { stroke: red; }
.edge:hover polygon { stroke: red; fill: red; }
]]></style>

<defs>
  <circle id="rim" cx="0" cy="0" r="7"/>
  <circle id="rim2" cx="0" cy="0" r="3.5"/>
  <g id="zoomPlus">
    <use xlink:href="#rim" fill="#404040"><set attributeName="fill" to="#808080" begin="zoomplus.mouseover" end="zoomplus.mouseout"/></use>
    <path d="M-4,0h8M0,-4v8" fill="none" stroke="white" stroke-width="1.5" pointer-events="none"/>
  </g>
  <g id="zoomMin">
    <use xlink:href="#rim" fill="#404040"><set attributeName="fill" to="#808080" begin="zoomminus.mouseover" end="zoomminus.mouseout"/></use>
    <path d="M-4,0h8" fill="none" stroke="white" stroke-width="1.5" pointer-events="none"/>
  </g>
  <g id="arrowUp" transform="translate(30 24)">
    <use xlink:href="#rim"/>
    <path pointer-events="none" fill="none" stroke="white" stroke-width="1.5" d="M0,-3.0v7 M-2.5,-0.5L0,-3.0L2.5,-0.5"/>
  </g>
  <g id="arrowRight" transform="rotate(90) translate(36 -43)">
    <use xlink:href="#rim"/>
    <path pointer-events="none" fill="none" stroke="white" stroke-width="1.5" d="M0,-3.0v7 M-2.5,-0.5L0,-3.0L2.5,-0.5"/>
  </g>
  <g id="arrowDown" transform="rotate(180) translate(-30 -48)">
    <use xlink:href="#rim"/>
    <path pointer-events="none" fill="none" stroke="white" stroke-width="1.5" d="M0,-3.0v7 M-2.5,-0.5L0,-3.0L2.5,-0.5"/>
  </g>
  <g id="arrowLeft" transform="rotate(270) translate(-36 17)">
    <use xlink:href="#rim"/>
    <path pointer-events="none" fill="none" stroke="white" stroke-width="1.5" d="M0,-3.0v7 M-2.5,-0.5L0,-3.0L2.5,-0.5"/>
  </g>
  <g id="resetDef">
    <use xlink:href="#rim2" fill="#404040"><set attributeName="fill" to="#808080" begin="reset.mouseover" end="reset.mouseout"/></use>
  </g>
</defs>
<script type="application/ecmascript">
var viewWidth = 552;
var viewHeight = 278;
var sectionId = 'dynsection-6';
</script>
<script type="application/ecmascript" xlink:href="../../svg.min.js"/>
<svg id="graph" class="graph">
<g id="viewport">
<title>carla::sensor::data::Array::begin</title>
<!-- Node1 -->
<g id="Node000001" class="node">
<title>Node1</title>
<g id="a_Node000001"><a xlink:title=" ">
<polygon fill="#999999" stroke="#666666" points="544,-154 447,-154 447,-122 544,-122 544,-154"/>
<text text-anchor="start" x="455" y="-140.5" font-family="Helvetica,sans-Serif" font-size="10.00">carla::sensor::data</text>
<text text-anchor="middle" x="495.5" y="-128.5" font-family="Helvetica,sans-Serif" font-size="10.00">::Array::begin</text>
</a>
</g>
</g>
<!-- Node2 -->
<g id="Node000002" class="node">
<title>Node2</title>
<g id="a_Node000002"><a xlink:href="../../d2/dcc/classcarla_1_1sensor_1_1data_1_1Array.html#a0bbb02616c862c8969d94feac57dc8fd" target="_top" xlink:title=" ">
<polygon fill="white" stroke="#666666" points="411,-270 314,-270 314,-238 411,-238 411,-270"/>
<text text-anchor="start" x="322" y="-256.5" font-family="Helvetica,sans-Serif" font-size="10.00">carla::sensor::data</text>
<text text-anchor="middle" x="362.5" y="-244.5" font-family="Helvetica,sans-Serif" font-size="10.00">::Array::Array</text>
</a>
</g>
</g>
<!-- Node1&#45;&gt;Node2 -->
<g id="edge1_Node000001_Node000002" class="edge">
<title>Node1&#45;&gt;Node2</title>
<g id="a_edge1_Node000001_Node000002"><a xlink:title=" ">
<path fill="none" stroke="#63b8ff" d="M475.69,-162.81C459.93,-182.46 436.04,-209.71 411,-229 407.01,-232.07 402.6,-234.96 398.1,-237.6"/>
<polygon fill="#63b8ff" stroke="#63b8ff" points="478.9,-165.4 482.34,-155.38 473.4,-161.07 478.9,-165.4"/>
</a>
</g>
</g>
<!-- Node3 -->
<g id="Node000003" class="node">
<title>Node3</title>
<g id="a_Node000003"><a xlink:href="../../d2/dcc/classcarla_1_1sensor_1_1data_1_1Array.html#aaba8587c9e8b3bfab47ab14b92fe2c11" target="_top" xlink:title=" ">
<polygon fill="white" stroke="#666666" points="411,-220 314,-220 314,-188 411,-188 411,-220"/>
<text text-anchor="start" x="322" y="-206.5" font-family="Helvetica,sans-Serif" font-size="10.00">carla::sensor::data</text>
<text text-anchor="middle" x="362.5" y="-194.5" font-family="Helvetica,sans-Serif" font-size="10.00">::Array::data</text>
</a>
</g>
</g>
<!-- Node1&#45;&gt;Node3 -->
<g id="edge2_Node000001_Node000003" class="edge">
<title>Node1&#45;&gt;Node3</title>
<g id="a_edge2_Node000001_Node000003"><a xlink:title=" ">
<path fill="none" stroke="#63b8ff" d="M451.97,-159.43C433.72,-168.62 412.75,-179.19 395.8,-187.73"/>
<polygon fill="#63b8ff" stroke="#63b8ff" points="453.43,-162.11 460.78,-154.48 450.28,-155.86 453.43,-162.11"/>
</a>
</g>
</g>
<!-- Node8 -->
<g id="Node000008" class="node">
<title>Node8</title>
<g id="a_Node000008"><a xlink:href="../../d2/dcc/classcarla_1_1sensor_1_1data_1_1Array.html#a3c69471e62a52869989a1ab3b1ec38d3" target="_top" xlink:title=" ">
<polygon fill="white" stroke="#666666" points="411,-132 314,-132 314,-100 411,-100 411,-132"/>
<text text-anchor="start" x="322" y="-118.5" font-family="Helvetica,sans-Serif" font-size="10.00">carla::sensor::data</text>
<text text-anchor="middle" x="362.5" y="-106.5" font-family="Helvetica,sans-Serif" font-size="10.00">::Array::data</text>
</a>
</g>
</g>
<!-- Node1&#45;&gt;Node8 -->
<g id="edge7_Node000001_Node000008" class="edge">
<title>Node1&#45;&gt;Node8</title>
<g id="a_edge7_Node000001_Node000008"><a xlink:title=" ">
<path fill="none" stroke="#63b8ff" d="M436.09,-128.19C427.82,-126.8 419.39,-125.39 411.35,-124.04"/>
<polygon fill="#63b8ff" stroke="#63b8ff" points="435.39,-131.79 445.84,-130 436.55,-124.89 435.39,-131.79"/>
</a>
</g>
</g>
<!-- Node9 -->
<g id="Node000009" class="node">
<title>Node9</title>
<g id="a_Node000009"><a xlink:href="../../d2/dcc/classcarla_1_1sensor_1_1data_1_1Array.html#a45922732dcb2e5735e430eb0927ba1b2" target="_top" xlink:title=" ">
<polygon fill="white" stroke="#666666" points="411,-82 314,-82 314,-50 411,-50 411,-82"/>
<text text-anchor="start" x="322" y="-68.5" font-family="Helvetica,sans-Serif" font-size="10.00">carla::sensor::data</text>
<text text-anchor="middle" x="362.5" y="-56.5" font-family="Helvetica,sans-Serif" font-size="10.00">::Array::empty</text>
</a>
</g>
</g>
<!-- Node1&#45;&gt;Node9 -->
<g id="edge8_Node000001_Node000009" class="edge">
<title>Node1&#45;&gt;Node9</title>
<g id="a_edge8_Node000001_Node000009"><a xlink:title=" ">
<path fill="none" stroke="#63b8ff" d="M456.54,-116.34C442.3,-108.29 425.96,-99.14 411,-91 405.84,-88.19 400.35,-85.25 394.99,-82.42"/>
<polygon fill="#63b8ff" stroke="#63b8ff" points="454.59,-119.82 465.01,-121.7 458.04,-113.73 454.59,-119.82"/>
</a>
</g>
</g>
<!-- Node10 -->
<g id="Node000010" class="node">
<title>Node10</title>
<g id="a_Node000010"><a xlink:href="../../d2/dcc/classcarla_1_1sensor_1_1data_1_1Array.html#ae81805629a78702b2ff0992fd3b97419" target="_top" xlink:title=" ">
<polygon fill="white" stroke="#666666" points="411,-32 314,-32 314,0 411,0 411,-32"/>
<text text-anchor="start" x="322" y="-18.5" font-family="Helvetica,sans-Serif" font-size="10.00">carla::sensor::data</text>
<text text-anchor="middle" x="362.5" y="-6.5" font-family="Helvetica,sans-Serif" font-size="10.00">::Array::rbegin</text>
</a>
</g>
</g>
<!-- Node1&#45;&gt;Node10 -->
<g id="edge9_Node000001_Node000010" class="edge">
<title>Node1&#45;&gt;Node10</title>
<g id="a_edge9_Node000001_Node000010"><a xlink:title=" ">
<path fill="none" stroke="#63b8ff" d="M477.04,-112.85C461.49,-91.77 437.2,-61.85 411,-41 407.06,-37.87 402.67,-34.94 398.2,-32.28"/>
<polygon fill="#63b8ff" stroke="#63b8ff" points="474.65,-114.52 483.34,-120.57 480.32,-110.42 474.65,-114.52"/>
</a>
</g>
</g>
<!-- Node11 -->
<g id="Node000011" class="node">
<title>Node11</title>
<g id="a_Node000011"><a xlink:href="../../d2/dcc/classcarla_1_1sensor_1_1data_1_1Array.html#aa74c92285dda9ebeba4094ef12b6f50b" target="_top" xlink:title=" ">
<polygon fill="white" stroke="#666666" points="278,-170 181,-170 181,-138 278,-138 278,-170"/>
<text text-anchor="start" x="189" y="-156.5" font-family="Helvetica,sans-Serif" font-size="10.00">carla::sensor::data</text>
<text text-anchor="middle" x="229.5" y="-144.5" font-family="Helvetica,sans-Serif" font-size="10.00">::Array::size</text>
</a>
</g>
</g>
<!-- Node1&#45;&gt;Node11 -->
<g id="edge10_Node000001_Node000011" class="edge">
<title>Node1&#45;&gt;Node11</title>
<g id="a_edge10_Node000001_Node000011"><a xlink:title=" ">
<path fill="none" stroke="#63b8ff" d="M435.98,-141.55C388.59,-144.42 322.68,-148.41 278.4,-151.1"/>
<polygon fill="#63b8ff" stroke="#63b8ff" points="435.92,-145 445.69,-140.9 435.5,-138.01 435.92,-145"/>
</a>
</g>
</g>
<!-- Node4 -->
<g id="Node000004" class="node">
<title>Node4</title>
<g id="a_Node000004"><a xlink:href="../../d2/dcc/classcarla_1_1sensor_1_1data_1_1Array.html#a6da385e09a9a25e1bc70f415af353e24" target="_top" xlink:title=" ">
<polygon fill="white" stroke="#666666" points="278,-220 181,-220 181,-188 278,-188 278,-220"/>
<text text-anchor="start" x="189" y="-206.5" font-family="Helvetica,sans-Serif" font-size="10.00">carla::sensor::data</text>
<text text-anchor="middle" x="229.5" y="-194.5" font-family="Helvetica,sans-Serif" font-size="10.00">::Array::operator[]</text>
</a>
</g>
</g>
<!-- Node3&#45;&gt;Node4 -->
<g id="edge3_Node000003_Node000004" class="edge">
<title>Node3&#45;&gt;Node4</title>
<g id="a_edge3_Node000003_Node000004"><a xlink:title=" ">
<path fill="none" stroke="#63b8ff" d="M303.09,-204C294.82,-204 286.39,-204 278.35,-204"/>
<polygon fill="#63b8ff" stroke="#63b8ff" points="302.84,-207.5 312.84,-204 302.84,-200.5 302.84,-207.5"/>
</a>
</g>
</g>
<!-- Node7 -->
<g id="Node000007" class="node">
<title>Node7</title>
<g id="a_Node000007"><a xlink:href="../../d2/dcc/classcarla_1_1sensor_1_1data_1_1Array.html#a661fc438ddf6de6a612bf61bac8058c3" target="_top" xlink:title=" ">
<polygon fill="white" stroke="#666666" points="278,-270 181,-270 181,-238 278,-238 278,-270"/>
<text text-anchor="start" x="189" y="-256.5" font-family="Helvetica,sans-Serif" font-size="10.00">carla::sensor::data</text>
<text text-anchor="middle" x="229.5" y="-244.5" font-family="Helvetica,sans-Serif" font-size="10.00">::Array::operator[]</text>
</a>
</g>
</g>
<!-- Node3&#45;&gt;Node7 -->
<g id="edge6_Node000003_Node000007" class="edge">
<title>Node3&#45;&gt;Node7</title>
<g id="a_edge6_Node000003_Node000007"><a xlink:title=" ">
<path fill="none" stroke="#63b8ff" d="M308.55,-224.21C296.89,-228.66 284.69,-233.32 273.49,-237.59"/>
<polygon fill="#63b8ff" stroke="#63b8ff" points="309.51,-227.21 317.61,-220.37 307.01,-220.67 309.51,-227.21"/>
</a>
</g>
</g>
<!-- Node5 -->
<g id="Node000005" class="node">
<title>Node5</title>
<g id="a_Node000005"><a xlink:href="../../d2/dcc/classcarla_1_1sensor_1_1data_1_1Array.html#ac5afe29e1647fd161dfafe6f3aed9508" target="_top" xlink:title=" ">
<polygon fill="white" stroke="#666666" points="121,-170 24,-170 24,-138 121,-138 121,-170"/>
<text text-anchor="start" x="32" y="-156.5" font-family="Helvetica,sans-Serif" font-size="10.00">carla::sensor::data</text>
<text text-anchor="middle" x="72.5" y="-144.5" font-family="Helvetica,sans-Serif" font-size="10.00">::Array::at</text>
</a>
</g>
</g>
<!-- Node4&#45;&gt;Node5 -->
<g id="edge4_Node000004_Node000005" class="edge">
<title>Node4&#45;&gt;Node5</title>
<g id="a_edge4_Node000004_Node000005"><a xlink:title=" ">
<path fill="none" stroke="#63b8ff" d="M170.33,-185.24C154.19,-180.03 136.86,-174.44 121.38,-169.44"/>
<polygon fill="#63b8ff" stroke="#63b8ff" points="169.14,-188.85 179.73,-188.59 171.29,-182.19 169.14,-188.85"/>
</a>
</g>
</g>
<!-- Node6 -->
<g id="Node000006" class="node">
<title>Node6</title>
<g id="a_Node000006"><a xlink:href="../../d2/dcc/classcarla_1_1sensor_1_1data_1_1Array.html#a1c2868d24003355938fa4b905568c990" target="_top" xlink:title=" ">
<polygon fill="white" stroke="#666666" points="121,-220 24,-220 24,-188 121,-188 121,-220"/>
<text text-anchor="start" x="32" y="-206.5" font-family="Helvetica,sans-Serif" font-size="10.00">carla::sensor::data</text>
<text text-anchor="middle" x="72.5" y="-194.5" font-family="Helvetica,sans-Serif" font-size="10.00">::Array::at</text>
</a>
</g>
</g>
<!-- Node4&#45;&gt;Node6 -->
<g id="edge5_Node000004_Node000006" class="edge">
<title>Node4&#45;&gt;Node6</title>
<g id="a_edge5_Node000004_Node000006"><a xlink:title=" ">
<path fill="none" stroke="#63b8ff" d="M169.87,-204C153.86,-204 136.71,-204 121.38,-204"/>
<polygon fill="#63b8ff" stroke="#63b8ff" points="169.73,-207.5 179.73,-204 169.73,-200.5 169.73,-207.5"/>
</a>
</g>
</g>
<!-- Node11&#45;&gt;Node5 -->
<g id="edge11_Node000011_Node000005" class="edge">
<title>Node11&#45;&gt;Node5</title>
<g id="a_edge11_Node000011_Node000005"><a xlink:title=" ">
<path fill="none" stroke="#63b8ff" d="M169.87,-154C153.86,-154 136.71,-154 121.38,-154"/>
<polygon fill="#63b8ff" stroke="#63b8ff" points="169.73,-157.5 179.73,-154 169.73,-150.5 169.73,-157.5"/>
</a>
</g>
</g>
<!-- Node11&#45;&gt;Node6 -->
<g id="edge12_Node000011_Node000006" class="edge">
<title>Node11&#45;&gt;Node6</title>
<g id="a_edge12_Node000011_Node000006"><a xlink:title=" ">
<path fill="none" stroke="#63b8ff" d="M170.33,-172.76C154.19,-177.97 136.86,-183.56 121.38,-188.56"/>
<polygon fill="#63b8ff" stroke="#63b8ff" points="171.29,-175.81 179.73,-169.41 169.14,-169.15 171.29,-175.81"/>
</a>
</g>
</g>
<!-- Node12 -->
<g id="Node000012" class="node">
<title>Node12</title>
<g id="a_Node000012"><a xlink:href="../../d5/dbf/classcarla_1_1client_1_1detail_1_1EpisodeState.html#a176983fe6d1cb512c433fcd4167fd0f6" target="_top" xlink:title=" ">
<polygon fill="white" stroke="#666666" points="145,-120 0,-120 0,-88 145,-88 145,-120"/>
<text text-anchor="start" x="8" y="-106.5" font-family="Helvetica,sans-Serif" font-size="10.00">carla::client::detail</text>
<text text-anchor="middle" x="72.5" y="-94.5" font-family="Helvetica,sans-Serif" font-size="10.00">::EpisodeState::EpisodeState</text>
</a>
</g>
</g>
<!-- Node11&#45;&gt;Node12 -->
<g id="edge13_Node000011_Node000012" class="edge">
<title>Node11&#45;&gt;Node12</title>
<g id="a_edge13_Node000011_Node000012"><a xlink:title=" ">
<path fill="none" stroke="#63b8ff" d="M170.49,-135.29C155.42,-130.43 139.3,-125.22 124.61,-120.49"/>
<polygon fill="#63b8ff" stroke="#63b8ff" points="169.14,-138.85 179.73,-138.59 171.29,-132.19 169.14,-138.85"/>
</a>
</g>
</g>
</g>
</svg>

<g id="navigator" transform="translate(0 0)" fill="#404254">
  <rect fill="#f2f5e9" fill-opacity="0.5" stroke="#606060" stroke-width=".5" x="0" y="0" width="60" height="60"/>
  <use id="zoomplus" xlink:href="#zoomPlus" x="17" y="9" onmousedown="handleZoom(evt,'in')"/>
  <use id="zoomminus" xlink:href="#zoomMin" x="42" y="9" onmousedown="handleZoom(evt,'out')"/>
  <use id="reset" xlink:href="#resetDef" x="30" y="36" onmousedown="handleReset()"/>
   <use id="arrowup" xlink:href="#arrowUp" x="0" y="0" onmousedown="handlePan(0,-1)"/>
  <use id="arrowright" xlink:href="#arrowRight" x="0" y="0" onmousedown="handlePan(1,0)"/>
  <use id="arrowdown" xlink:href="#arrowDown" x="0" y="0" onmousedown="handlePan(0,1)"/>
  <use id="arrowleft" xlink:href="#arrowLeft" x="0" y="0" onmousedown="handlePan(-1,0)"/>
</g>
<svg viewBox="0 0 15 15" width="100%" height="30px" preserveAspectRatio="xMaxYMin meet">
 <g id="arrow_out" transform="scale(0.3 0.3)">
  <a xlink:href="classcarla_1_1sensor_1_1data_1_1Array_ad4106c884d01f339c75bf33f480da7d2_icgraph_org.svg" target="_base">
   <rect id="button" ry="5" rx="5" y="6" x="6" height="38" width="38"
        fill="#f2f5e9" fill-opacity="0.5" stroke="#606060" stroke-width="1.0"/>
   <path id="arrow"
     d="M 11.500037,31.436501 C 11.940474,20.09759 22.043105,11.32322 32.158766,21.979434 L 37.068811,17.246167 C 37.068811,17.246167 37.088388,32 37.088388,32 L 22.160133,31.978069 C 22.160133,31.978069 26.997745,27.140456 26.997745,27.140456 C 18.528582,18.264221 13.291696,25.230495 11.500037,31.436501 z"
     style="fill:#404040;"/>
  </a>
 </g>
</svg>

<style type='text/css'>
<![CDATA[
[data-mouse-over-selected='false'] { opacity: 0.7; }
[data-mouse-over-selected='true']  { opacity: 1.0; }
]]>
</style>
<script type="application/ecmascript"><![CDATA[
document.addEventListener('DOMContentLoaded', (event) => {
  highlightEdges();
  highlightAdjacentNodes();
});
]]></script>
</svg>
