<?xml version="1.0" encoding="UTF-8" standalone="no"?>
<!DOCTYPE svg PUBLIC "-//W3C//DTD SVG 1.1//EN"
 "http://www.w3.org/Graphics/SVG/1.1/DTD/svg11.dtd">
<!-- Generated by graphviz version 7.0.5 (20221223.1930)
 -->
<!-- Title: ATagger::TagActorsInLevel Pages: 1 -->
<svg width="513pt" height="182pt"
 viewBox="0.00 0.00 513.00 182.00" xmlns="http://www.w3.org/2000/svg" xmlns:xlink="http://www.w3.org/1999/xlink">
<g id="graph0" class="graph" transform="scale(1 1) rotate(0) translate(4 178)">
<title>ATagger::TagActorsInLevel</title>
<!-- Node1 -->
<g id="node1" class="node">
<title>Node1</title>
<g id="a_node1"><a xlink:title="设置 level 中每个 actor 的标签。">
<polygon fill="#999999" stroke="#666666" points="505,-96.5 370,-96.5 370,-77.5 505,-77.5 505,-96.5"/>
<text text-anchor="middle" x="437.5" y="-84.5" font-family="Helvetica,sans-Serif" font-size="10.00">ATagger::TagActorsInLevel</text>
</a>
</g>
</g>
<!-- Node2 -->
<g id="node2" class="node">
<title>Node2</title>
<g id="a_node2"><a xlink:href="../../db/de5/classACarlaGameModeBase.html#a3909b055b351f69d7ad1e39a42e72e3d" target="_top" xlink:title=" ">
<polygon fill="white" stroke="#666666" points="320.5,-174 201.5,-174 201.5,-144 320.5,-144 320.5,-174"/>
<text text-anchor="start" x="209.5" y="-162" font-family="Helvetica,sans-Serif" font-size="10.00">ACarlaGameModeBase</text>
<text text-anchor="middle" x="261" y="-151" font-family="Helvetica,sans-Serif" font-size="10.00">::BeginPlay</text>
</a>
</g>
</g>
<!-- Node1&#45;&gt;Node2 -->
<g id="edge1" class="edge">
<title>Node1&#45;&gt;Node2</title>
<path fill="none" stroke="#63b8ff" d="M407,-101.93C386.73,-111.91 359.06,-125 334,-135 326.54,-137.98 318.54,-140.9 310.69,-143.63"/>
<polygon fill="#63b8ff" stroke="#63b8ff" points="408.39,-105.15 415.79,-97.56 405.28,-98.88 408.39,-105.15"/>
</g>
<!-- Node3 -->
<g id="node3" class="node">
<title>Node3</title>
<g id="a_node3"><a xlink:href="../../d1/ddb/classACityMapGenerator.html#a9ce09c4586724fe3e446cbb12712adf3" target="_top" xlink:title=" ">
<polygon fill="white" stroke="#666666" points="314,-126 208,-126 208,-96 314,-96 314,-126"/>
<text text-anchor="start" x="216" y="-114" font-family="Helvetica,sans-Serif" font-size="10.00">ACityMapGenerator::</text>
<text text-anchor="middle" x="261" y="-103" font-family="Helvetica,sans-Serif" font-size="10.00">GenerateRoadMap</text>
</a>
</g>
</g>
<!-- Node1&#45;&gt;Node3 -->
<g id="edge2" class="edge">
<title>Node1&#45;&gt;Node3</title>
<path fill="none" stroke="#63b8ff" d="M358.28,-97.76C343.43,-99.8 328.24,-101.89 314.43,-103.79"/>
<polygon fill="#63b8ff" stroke="#63b8ff" points="358.6,-101.25 368.03,-96.42 357.65,-94.31 358.6,-101.25"/>
</g>
<!-- Node6 -->
<g id="node6" class="node">
<title>Node6</title>
<g id="a_node6"><a xlink:href="../../d9/d4b/classALargeMapManager.html#ae4d6181a475f85434d957d557038e6b4" target="_top" xlink:title=" ">
<polygon fill="white" stroke="#666666" points="334,-78 188,-78 188,-48 334,-48 334,-78"/>
<text text-anchor="start" x="196" y="-66" font-family="Helvetica,sans-Serif" font-size="10.00">ALargeMapManager::OnLevel</text>
<text text-anchor="middle" x="261" y="-55" font-family="Helvetica,sans-Serif" font-size="10.00">AddedToWorld</text>
</a>
</g>
</g>
<!-- Node1&#45;&gt;Node6 -->
<g id="edge5" class="edge">
<title>Node1&#45;&gt;Node6</title>
<path fill="none" stroke="#63b8ff" d="M358.32,-76.25C350.33,-75.15 342.23,-74.03 334.3,-72.94"/>
<polygon fill="#63b8ff" stroke="#63b8ff" points="357.65,-79.69 368.03,-77.58 358.6,-72.75 357.65,-79.69"/>
</g>
<!-- Node8 -->
<g id="node8" class="node">
<title>Node8</title>
<g id="a_node8"><a xlink:href="../../db/de5/classACarlaGameModeBase.html#a63efed9c79f812c2ed41f53aa6205681" target="_top" xlink:title=" ">
<polygon fill="white" stroke="#666666" points="320.5,-30 201.5,-30 201.5,0 320.5,0 320.5,-30"/>
<text text-anchor="start" x="209.5" y="-18" font-family="Helvetica,sans-Serif" font-size="10.00">ACarlaGameModeBase</text>
<text text-anchor="middle" x="261" y="-7" font-family="Helvetica,sans-Serif" font-size="10.00">::OnLoadStreamLevel</text>
</a>
</g>
</g>
<!-- Node1&#45;&gt;Node8 -->
<g id="edge7" class="edge">
<title>Node1&#45;&gt;Node8</title>
<path fill="none" stroke="#63b8ff" d="M407,-72.07C386.73,-62.09 359.06,-49 334,-39 326.54,-36.02 318.54,-33.1 310.69,-30.37"/>
<polygon fill="#63b8ff" stroke="#63b8ff" points="405.28,-75.12 415.79,-76.44 408.39,-68.85 405.28,-75.12"/>
</g>
<!-- Node4 -->
<g id="node4" class="node">
<title>Node4</title>
<g id="a_node4"><a xlink:href="../../d1/ddb/classACityMapGenerator.html#a5627a0935def8c92d8ae226b10238f2c" target="_top" xlink:title=" ">
<polygon fill="white" stroke="#666666" points="129,-171 23,-171 23,-141 129,-141 129,-171"/>
<text text-anchor="start" x="31" y="-159" font-family="Helvetica,sans-Serif" font-size="10.00">ACityMapGenerator::</text>
<text text-anchor="middle" x="76" y="-148" font-family="Helvetica,sans-Serif" font-size="10.00">PreSave</text>
</a>
</g>
</g>
<!-- Node3&#45;&gt;Node4 -->
<g id="edge3" class="edge">
<title>Node3&#45;&gt;Node4</title>
<path fill="none" stroke="#63b8ff" d="M196.67,-126.57C174.74,-131.97 150.41,-137.95 129.45,-143.1"/>
<polygon fill="#63b8ff" stroke="#63b8ff" points="197.21,-130.04 206.09,-124.26 195.54,-123.25 197.21,-130.04"/>
</g>
<!-- Node5 -->
<g id="node5" class="node">
<title>Node5</title>
<g id="a_node5"><a xlink:href="../../d1/ddb/classACityMapGenerator.html#a5ad53319596101e96076a12eab41b9c1" target="_top" xlink:title=" ">
<polygon fill="white" stroke="#666666" points="129,-123 23,-123 23,-93 129,-93 129,-123"/>
<text text-anchor="start" x="31" y="-111" font-family="Helvetica,sans-Serif" font-size="10.00">ACityMapGenerator::</text>
<text text-anchor="middle" x="76" y="-100" font-family="Helvetica,sans-Serif" font-size="10.00">UpdateMap</text>
</a>
</g>
</g>
<!-- Node3&#45;&gt;Node5 -->
<g id="edge4" class="edge">
<title>Node3&#45;&gt;Node5</title>
<path fill="none" stroke="#63b8ff" d="M196.07,-109.95C174.3,-109.6 150.22,-109.2 129.45,-108.86"/>
<polygon fill="#63b8ff" stroke="#63b8ff" points="195.99,-113.45 206.05,-110.12 196.1,-106.45 195.99,-113.45"/>
</g>
<!-- Node7 -->
<g id="node7" class="node">
<title>Node7</title>
<g id="a_node7"><a xlink:href="../../d9/d4b/classALargeMapManager.html#a173575639e1f2c91e0b288c979598c21" target="_top" xlink:title=" ">
<polygon fill="white" stroke="#666666" points="152,-72.5 0,-72.5 0,-53.5 152,-53.5 152,-72.5"/>
<text text-anchor="middle" x="76" y="-60.5" font-family="Helvetica,sans-Serif" font-size="10.00">ALargeMapManager::BeginPlay</text>
</a>
</g>
</g>
<!-- Node6&#45;&gt;Node7 -->
<g id="edge6" class="edge">
<title>Node6&#45;&gt;Node7</title>
<path fill="none" stroke="#63b8ff" d="M176.43,-63C168.42,-63 160.33,-63 152.41,-63"/>
<polygon fill="#63b8ff" stroke="#63b8ff" points="176.16,-66.5 186.16,-63 176.16,-59.5 176.16,-66.5"/>
</g>
</g>
</svg>
