<?xml version="1.0" encoding="UTF-8" standalone="no"?>
<!DOCTYPE svg PUBLIC "-//W3C//DTD SVG 1.1//EN"
 "http://www.w3.org/Graphics/SVG/1.1/DTD/svg11.dtd">
<!-- Generated by graphviz version 8.1.0 (20230707.0739)
 -->
<!-- Title: carla::ros2::CarlaOpticalFlowCameraPublisher::SetCameraInfoData Pages: 1 -->
<svg width="320pt" height="90pt"
 viewBox="0.00 0.00 319.75 90.00" xmlns="http://www.w3.org/2000/svg" xmlns:xlink="http://www.w3.org/1999/xlink">
<g id="graph0" class="graph" transform="scale(1 1) rotate(0) translate(4 86)">
<title>carla::ros2::CarlaOpticalFlowCameraPublisher::SetCameraInfoData</title>
<!-- Node1 -->
<g id="Node000001" class="node">
<title>Node1</title>
<g id="a_Node000001"><a xlink:title="设置相机信息数据的时间戳">
<polygon fill="#999999" stroke="#666666" points="165.25,-63 0,-63 0,-19 165.25,-19 165.25,-63"/>
<text text-anchor="start" x="8" y="-49.5" font-family="Helvetica,sans-Serif" font-size="10.00">carla::ros2::CarlaOptical</text>
<text text-anchor="start" x="8" y="-37.5" font-family="Helvetica,sans-Serif" font-size="10.00">FlowCameraPublisher::SetCamera</text>
<text text-anchor="middle" x="82.62" y="-25.5" font-family="Helvetica,sans-Serif" font-size="10.00">InfoData</text>
</a>
</g>
</g>
<!-- Node2 -->
<g id="Node000002" class="node">
<title>Node2</title>
<g id="a_Node000002"><a xlink:href="../../da/d39/classbuiltin__interfaces_1_1msg_1_1Time.html#aa198ef63c135b5c7856d7f917dee4ba4" target="_top" xlink:title="此函数设置成员nanosec的值。">
<polygon fill="white" stroke="#666666" points="311.75,-82 201.25,-82 201.25,-50 311.75,-50 311.75,-82"/>
<text text-anchor="start" x="209.25" y="-68.5" font-family="Helvetica,sans-Serif" font-size="10.00">builtin_interfaces</text>
<text text-anchor="middle" x="256.5" y="-56.5" font-family="Helvetica,sans-Serif" font-size="10.00">::msg::Time::nanosec</text>
</a>
</g>
</g>
<!-- Node1&#45;&gt;Node2 -->
<g id="edge1_Node000001_Node000002" class="edge">
<title>Node1&#45;&gt;Node2</title>
<g id="a_edge1_Node000001_Node000002"><a xlink:title=" ">
<path fill="none" stroke="#63b8ff" d="M165.54,-52.91C173.86,-54.12 182.23,-55.34 190.34,-56.52"/>
<polygon fill="#63b8ff" stroke="#63b8ff" points="189.81,-60.13 200.21,-58.1 190.81,-53.2 189.81,-60.13"/>
</a>
</g>
</g>
<!-- Node3 -->
<g id="Node000003" class="node">
<title>Node3</title>
<g id="a_Node000003"><a xlink:href="../../da/d39/classbuiltin__interfaces_1_1msg_1_1Time.html#af90f1d1163f805c9e8af9546399d75b2" target="_top" xlink:title="此函数设置成员sec的值。">
<polygon fill="white" stroke="#666666" points="301.25,-32 211.75,-32 211.75,0 301.25,0 301.25,-32"/>
<text text-anchor="start" x="219.75" y="-18.5" font-family="Helvetica,sans-Serif" font-size="10.00">builtin_interfaces</text>
<text text-anchor="middle" x="256.5" y="-6.5" font-family="Helvetica,sans-Serif" font-size="10.00">::msg::Time::sec</text>
</a>
</g>
</g>
<!-- Node1&#45;&gt;Node3 -->
<g id="edge2_Node000001_Node000003" class="edge">
<title>Node1&#45;&gt;Node3</title>
<g id="a_edge2_Node000001_Node000003"><a xlink:title=" ">
<path fill="none" stroke="#63b8ff" d="M165.54,-29.09C177.59,-27.33 189.75,-25.56 201.07,-23.92"/>
<polygon fill="#63b8ff" stroke="#63b8ff" points="201.24,-27.28 210.63,-22.38 200.23,-20.36 201.24,-27.28"/>
</a>
</g>
</g>
</g>
</svg>
