<?xml version="1.0" encoding="UTF-8" standalone="no"?>
<!DOCTYPE svg PUBLIC "-//W3C//DTD SVG 1.1//EN"
 "http://www.w3.org/Graphics/SVG/1.1/DTD/svg11.dtd">
<!-- Generated by graphviz version 8.1.0 (20230707.0739)
 -->
<!-- Title: carla::client::World::GetTrafficLightsFromWaypoint Pages: 1 -->
<!--zoomable 240 -->

<svg id="main" version="1.1" xmlns="http://www.w3.org/2000/svg" xmlns:xlink="http://www.w3.org/1999/xlink" xml:space="preserve" onload="init(evt)">
<style type="text/css"><![CDATA[
.node, .edge {opacity: 0.7;}
.node.selected, .edge.selected {opacity: 1;}
.edge:hover path { stroke: red; }
.edge:hover polygon { stroke: red; fill: red; }
]]></style>

<defs>
  <circle id="rim" cx="0" cy="0" r="7"/>
  <circle id="rim2" cx="0" cy="0" r="3.5"/>
  <g id="zoomPlus">
    <use xlink:href="#rim" fill="#404040"><set attributeName="fill" to="#808080" begin="zoomplus.mouseover" end="zoomplus.mouseout"/></use>
    <path d="M-4,0h8M0,-4v8" fill="none" stroke="white" stroke-width="1.5" pointer-events="none"/>
  </g>
  <g id="zoomMin">
    <use xlink:href="#rim" fill="#404040"><set attributeName="fill" to="#808080" begin="zoomminus.mouseover" end="zoomminus.mouseout"/></use>
    <path d="M-4,0h8" fill="none" stroke="white" stroke-width="1.5" pointer-events="none"/>
  </g>
  <g id="arrowUp" transform="translate(30 24)">
    <use xlink:href="#rim"/>
    <path pointer-events="none" fill="none" stroke="white" stroke-width="1.5" d="M0,-3.0v7 M-2.5,-0.5L0,-3.0L2.5,-0.5"/>
  </g>
  <g id="arrowRight" transform="rotate(90) translate(36 -43)">
    <use xlink:href="#rim"/>
    <path pointer-events="none" fill="none" stroke="white" stroke-width="1.5" d="M0,-3.0v7 M-2.5,-0.5L0,-3.0L2.5,-0.5"/>
  </g>
  <g id="arrowDown" transform="rotate(180) translate(-30 -48)">
    <use xlink:href="#rim"/>
    <path pointer-events="none" fill="none" stroke="white" stroke-width="1.5" d="M0,-3.0v7 M-2.5,-0.5L0,-3.0L2.5,-0.5"/>
  </g>
  <g id="arrowLeft" transform="rotate(270) translate(-36 17)">
    <use xlink:href="#rim"/>
    <path pointer-events="none" fill="none" stroke="white" stroke-width="1.5" d="M0,-3.0v7 M-2.5,-0.5L0,-3.0L2.5,-0.5"/>
  </g>
  <g id="resetDef">
    <use xlink:href="#rim2" fill="#404040"><set attributeName="fill" to="#808080" begin="reset.mouseover" end="reset.mouseout"/></use>
  </g>
</defs>
<script type="application/ecmascript">
var viewWidth = 975;
var viewHeight = 240;
var sectionId = 'dynsection-39';
</script>
<script type="application/ecmascript" xlink:href="../../svg.min.js"/>
<svg id="graph" class="graph">
<g id="viewport">
<title>carla::client::World::GetTrafficLightsFromWaypoint</title>
<!-- Node1 -->
<g id="Node000001" class="node">
<title>Node1</title>
<g id="a_Node000001"><a xlink:title=" ">
<polygon fill="#999999" stroke="#666666" points="153.25,-132 0,-132 0,-100 153.25,-100 153.25,-132"/>
<text text-anchor="start" x="8" y="-118.5" font-family="Helvetica,sans-Serif" font-size="10.00">carla::client::World</text>
<text text-anchor="middle" x="76.62" y="-106.5" font-family="Helvetica,sans-Serif" font-size="10.00">::GetTrafficLightsFromWaypoint</text>
</a>
</g>
</g>
<!-- Node2 -->
<g id="Node000002" class="node">
<title>Node2</title>
<g id="a_Node000002"><a xlink:href="../../dd/dff/classcarla_1_1client_1_1Waypoint.html#ad76e1411cf92f89ac9e44050ad5729b2" target="_top" xlink:title="Returns a list of landmarks from the current position to a certain distance">
<polygon fill="white" stroke="#666666" points="332,-207 189.25,-207 189.25,-175 332,-175 332,-207"/>
<text text-anchor="start" x="197.25" y="-193.5" font-family="Helvetica,sans-Serif" font-size="10.00">carla::client::Waypoint</text>
<text text-anchor="middle" x="260.62" y="-181.5" font-family="Helvetica,sans-Serif" font-size="10.00">::GetAllLandmarksInDistance</text>
</a>
</g>
</g>
<!-- Node1&#45;&gt;Node2 -->
<g id="edge1_Node000001_Node000002" class="edge">
<title>Node1&#45;&gt;Node2</title>
<g id="a_edge1_Node000001_Node000002"><a xlink:title=" ">
<path fill="none" stroke="#63b8ff" d="M117.57,-132.46C144.71,-143.65 180.82,-158.52 209.84,-170.48"/>
<polygon fill="#63b8ff" stroke="#63b8ff" points="208.2,-174.01 218.78,-174.58 210.87,-167.53 208.2,-174.01"/>
</a>
</g>
</g>
<!-- Node4 -->
<g id="Node000004" class="node">
<title>Node4</title>
<g id="a_Node000004"><a xlink:href="../../db/d1f/classcarla_1_1client_1_1World.html#a4772c8468347fcee02678a9a6a8396d1" target="_top" xlink:title=" ">
<polygon fill="white" stroke="#666666" points="309.5,-132 211.75,-132 211.75,-100 309.5,-100 309.5,-132"/>
<text text-anchor="start" x="219.75" y="-118.5" font-family="Helvetica,sans-Serif" font-size="10.00">carla::client::World</text>
<text text-anchor="middle" x="260.62" y="-106.5" font-family="Helvetica,sans-Serif" font-size="10.00">::GetTrafficLight</text>
</a>
</g>
</g>
<!-- Node1&#45;&gt;Node4 -->
<g id="edge3_Node000001_Node000004" class="edge">
<title>Node1&#45;&gt;Node4</title>
<g id="a_edge3_Node000001_Node000004"><a xlink:title=" ">
<path fill="none" stroke="#63b8ff" d="M153.49,-116C169.27,-116 185.67,-116 200.72,-116"/>
<polygon fill="#63b8ff" stroke="#63b8ff" points="200.42,-119.5 210.42,-116 200.42,-112.5 200.42,-119.5"/>
</a>
</g>
</g>
<!-- Node15 -->
<g id="Node000015" class="node">
<title>Node15</title>
<g id="a_Node000015"><a xlink:href="../../db/d47/classcarla_1_1road_1_1SignalType.html#aa4bab3287ce92cf7e1ba04767775ebf0" target="_top" xlink:title=" ">
<polygon fill="white" stroke="#666666" points="318.5,-82 202.75,-82 202.75,-50 318.5,-50 318.5,-82"/>
<text text-anchor="start" x="210.75" y="-68.5" font-family="Helvetica,sans-Serif" font-size="10.00">carla::road::SignalType</text>
<text text-anchor="middle" x="260.62" y="-56.5" font-family="Helvetica,sans-Serif" font-size="10.00">::IsTrafficLight</text>
</a>
</g>
</g>
<!-- Node1&#45;&gt;Node15 -->
<g id="edge14_Node000001_Node000015" class="edge">
<title>Node1&#45;&gt;Node15</title>
<g id="a_edge14_Node000001_Node000015"><a xlink:title=" ">
<path fill="none" stroke="#63b8ff" d="M137.47,-99.56C154.97,-94.75 174.21,-89.47 192.14,-84.54"/>
<polygon fill="#63b8ff" stroke="#63b8ff" points="192.81,-87.71 201.53,-81.69 190.96,-80.96 192.81,-87.71"/>
</a>
</g>
</g>
<!-- Node3 -->
<g id="Node000003" class="node">
<title>Node3</title>
<g id="a_Node000003"><a xlink:href="../../dd/dff/classcarla_1_1client_1_1Waypoint.html#ac5a9fb0c886223ea013338ff1320c1d1" target="_top" xlink:title=" ">
<polygon fill="white" stroke="#666666" points="483.38,-232 369.88,-232 369.88,-200 483.38,-200 483.38,-232"/>
<text text-anchor="start" x="377.88" y="-218.5" font-family="Helvetica,sans-Serif" font-size="10.00">carla::client::Waypoint</text>
<text text-anchor="middle" x="426.62" y="-206.5" font-family="Helvetica,sans-Serif" font-size="10.00">::Waypoint</text>
</a>
</g>
</g>
<!-- Node2&#45;&gt;Node3 -->
<g id="edge2_Node000002_Node000003" class="edge">
<title>Node2&#45;&gt;Node3</title>
<g id="a_edge2_Node000002_Node000003"><a xlink:title=" ">
<path fill="none" stroke="#63b8ff" d="M332.13,-201.75C341.02,-203.1 350.09,-204.49 358.91,-205.83"/>
<polygon fill="#63b8ff" stroke="#63b8ff" points="358.12,-209.4 368.53,-207.45 359.17,-202.48 358.12,-209.4"/>
</a>
</g>
</g>
<!-- Node5 -->
<g id="Node000005" class="node">
<title>Node5</title>
<g id="a_Node000005"><a xlink:href="../../db/d1f/classcarla_1_1client_1_1World.html#a04a22f65ea5ccd3e93b833503dda6d65" target="_top" xlink:title="Return a list with all the actors currently present in the world.">
<polygon fill="white" stroke="#666666" points="475.5,-182 377.75,-182 377.75,-150 475.5,-150 475.5,-182"/>
<text text-anchor="start" x="385.75" y="-168.5" font-family="Helvetica,sans-Serif" font-size="10.00">carla::client::World</text>
<text text-anchor="middle" x="426.62" y="-156.5" font-family="Helvetica,sans-Serif" font-size="10.00">::GetActors</text>
</a>
</g>
</g>
<!-- Node4&#45;&gt;Node5 -->
<g id="edge4_Node000004_Node000005" class="edge">
<title>Node4&#45;&gt;Node5</title>
<g id="a_edge4_Node000004_Node000005"><a xlink:title=" ">
<path fill="none" stroke="#63b8ff" d="M309.94,-130.73C327.8,-136.17 348.23,-142.4 366.91,-148.1"/>
<polygon fill="#63b8ff" stroke="#63b8ff" points="365.78,-151.72 376.37,-151.29 367.82,-145.02 365.78,-151.72"/>
</a>
</g>
</g>
<!-- Node10 -->
<g id="Node000010" class="node">
<title>Node10</title>
<g id="a_Node000010"><a xlink:href="../../d3/dc1/classcarla_1_1client_1_1Landmark.html#a6b327470a3e4ed26200893f3f4d064d5" target="_top" xlink:title=" ">
<polygon fill="white" stroke="#666666" points="484.12,-132 369.12,-132 369.12,-100 484.12,-100 484.12,-132"/>
<text text-anchor="start" x="377.12" y="-118.5" font-family="Helvetica,sans-Serif" font-size="10.00">carla::client::Landmark</text>
<text text-anchor="middle" x="426.62" y="-106.5" font-family="Helvetica,sans-Serif" font-size="10.00">::GetId</text>
</a>
</g>
</g>
<!-- Node4&#45;&gt;Node10 -->
<g id="edge9_Node000004_Node000010" class="edge">
<title>Node4&#45;&gt;Node10</title>
<g id="a_edge9_Node000004_Node000010"><a xlink:title=" ">
<path fill="none" stroke="#63b8ff" d="M309.94,-116C324.91,-116 341.7,-116 357.74,-116"/>
<polygon fill="#63b8ff" stroke="#63b8ff" points="357.69,-119.5 367.69,-116 357.69,-112.5 357.69,-119.5"/>
</a>
</g>
</g>
<!-- Node12 -->
<g id="Node000012" class="node">
<title>Node12</title>
<g id="a_Node000012"><a xlink:href="../../dc/d5c/classcarla_1_1client_1_1TrafficSign.html#a4da25f7dd11cdf6c92401145cb50ffba" target="_top" xlink:title=" ">
<polygon fill="white" stroke="#666666" points="485.25,-82 368,-82 368,-50 485.25,-50 485.25,-82"/>
<text text-anchor="start" x="376" y="-68.5" font-family="Helvetica,sans-Serif" font-size="10.00">carla::client::TrafficSign</text>
<text text-anchor="middle" x="426.62" y="-56.5" font-family="Helvetica,sans-Serif" font-size="10.00">::GetSignId</text>
</a>
</g>
</g>
<!-- Node4&#45;&gt;Node12 -->
<g id="edge11_Node000004_Node000012" class="edge">
<title>Node4&#45;&gt;Node12</title>
<g id="a_edge11_Node000004_Node000012"><a xlink:title=" ">
<path fill="none" stroke="#63b8ff" d="M309.94,-101.27C325.98,-96.38 344.1,-90.85 361.16,-85.65"/>
<polygon fill="#63b8ff" stroke="#63b8ff" points="362.08,-88.73 370.62,-82.46 360.03,-82.03 362.08,-88.73"/>
</a>
</g>
</g>
<!-- Node14 -->
<g id="Node000014" class="node">
<title>Node14</title>
<g id="a_Node000014"><a xlink:href="../../de/d93/classcarla_1_1StringUtil.html#a42f81d32011bf4575fa71e593596b1f3" target="_top" xlink:title="Match str with the Unix shell&#45;style wildcard_pattern.">
<polygon fill="white" stroke="#666666" points="471,-32 382.25,-32 382.25,0 471,0 471,-32"/>
<text text-anchor="start" x="390.25" y="-18.5" font-family="Helvetica,sans-Serif" font-size="10.00">carla::StringUtil::</text>
<text text-anchor="middle" x="426.62" y="-6.5" font-family="Helvetica,sans-Serif" font-size="10.00">Match</text>
</a>
</g>
</g>
<!-- Node4&#45;&gt;Node14 -->
<g id="edge13_Node000004_Node000014" class="edge">
<title>Node4&#45;&gt;Node14</title>
<g id="a_edge13_Node000004_Node000014"><a xlink:title=" ">
<path fill="none" stroke="#63b8ff" d="M309.81,-103.31C317.65,-100.04 325.36,-95.98 332,-91 353.9,-74.56 346.67,-58.18 368,-41 369.59,-39.72 371.26,-38.49 372.99,-37.31"/>
<polygon fill="#63b8ff" stroke="#63b8ff" points="374.24,-40.04 380.99,-31.87 370.62,-34.05 374.24,-40.04"/>
</a>
</g>
</g>
<!-- Node6 -->
<g id="Node000006" class="node">
<title>Node6</title>
<g id="a_Node000006"><a xlink:href="../../d1/dd3/classcarla_1_1client_1_1detail_1_1EpisodeProxyImpl.html#aaca857645fbeb6546b4a03a663bb65af" target="_top" xlink:title="Same as TryLock but never return nullptr.">
<polygon fill="white" stroke="#666666" points="656.5,-182 528.75,-182 528.75,-150 656.5,-150 656.5,-182"/>
<text text-anchor="start" x="536.75" y="-168.5" font-family="Helvetica,sans-Serif" font-size="10.00">carla::client::detail</text>
<text text-anchor="middle" x="592.62" y="-156.5" font-family="Helvetica,sans-Serif" font-size="10.00">::EpisodeProxyImpl::Lock</text>
</a>
</g>
</g>
<!-- Node5&#45;&gt;Node6 -->
<g id="edge5_Node000005_Node000006" class="edge">
<title>Node5&#45;&gt;Node6</title>
<g id="a_edge5_Node000005_Node000006"><a xlink:title=" ">
<path fill="none" stroke="#63b8ff" d="M475.94,-166C489.04,-166 503.53,-166 517.7,-166"/>
<polygon fill="#63b8ff" stroke="#63b8ff" points="517.44,-169.5 527.44,-166 517.44,-162.5 517.44,-169.5"/>
</a>
</g>
</g>
<!-- Node7 -->
<g id="Node000007" class="node">
<title>Node7</title>
<g id="a_Node000007"><a xlink:href="../../d8/dcd/namespacecarla_1_1client_1_1detail.html#aa47f72a521d97fe3574a56e808b509d8" target="_top" xlink:title=" ">
<polygon fill="white" stroke="#666666" points="804.5,-204 709,-204 709,-172 804.5,-172 804.5,-204"/>
<text text-anchor="start" x="717" y="-190.5" font-family="Helvetica,sans-Serif" font-size="10.00">carla::client::detail</text>
<text text-anchor="middle" x="756.75" y="-178.5" font-family="Helvetica,sans-Serif" font-size="10.00">::Load</text>
</a>
</g>
</g>
<!-- Node6&#45;&gt;Node7 -->
<g id="edge6_Node000006_Node000007" class="edge">
<title>Node6&#45;&gt;Node7</title>
<g id="a_edge6_Node000006_Node000007"><a xlink:title=" ">
<path fill="none" stroke="#63b8ff" d="M656.77,-174.57C670.38,-176.42 684.7,-178.36 698.09,-180.18"/>
<polygon fill="#63b8ff" stroke="#63b8ff" points="697.21,-183.72 707.59,-181.6 698.16,-176.79 697.21,-183.72"/>
</a>
</g>
</g>
<!-- Node9 -->
<g id="Node000009" class="node">
<title>Node9</title>
<g id="a_Node000009"><a xlink:href="../../d9/d36/namespacecarla.html#a23602ab663165210a7757d6108f6b3cd" target="_top" xlink:title=" ">
<polygon fill="white" stroke="#666666" points="813.5,-154 700,-154 700,-134 813.5,-134 813.5,-154"/>
<text text-anchor="middle" x="756.75" y="-140.5" font-family="Helvetica,sans-Serif" font-size="10.00">carla::throw_exception</text>
</a>
</g>
</g>
<!-- Node6&#45;&gt;Node9 -->
<g id="edge8_Node000006_Node000009" class="edge">
<title>Node6&#45;&gt;Node9</title>
<g id="a_edge8_Node000006_Node000009"><a xlink:title=" ">
<path fill="none" stroke="#63b8ff" d="M656.77,-157.43C667.26,-156.01 678.18,-154.53 688.76,-153.09"/>
<polygon fill="#63b8ff" stroke="#63b8ff" points="689.2,-156.43 698.64,-151.61 688.26,-149.49 689.2,-156.43"/>
</a>
</g>
</g>
<!-- Node8 -->
<g id="Node000008" class="node">
<title>Node8</title>
<g id="a_Node000008"><a xlink:href="../../d2/dcf/classcarla_1_1AtomicSharedPtr.html#a7bb0b8af178b36c923fedac384b3aad4" target="_top" xlink:title=" ">
<polygon fill="white" stroke="#666666" points="966.75,-204 849.5,-204 849.5,-172 966.75,-172 966.75,-204"/>
<text text-anchor="start" x="857.5" y="-190.5" font-family="Helvetica,sans-Serif" font-size="10.00">carla::AtomicSharedPtr</text>
<text text-anchor="middle" x="908.12" y="-178.5" font-family="Helvetica,sans-Serif" font-size="10.00">::load</text>
</a>
</g>
</g>
<!-- Node7&#45;&gt;Node8 -->
<g id="edge7_Node000007_Node000008" class="edge">
<title>Node7&#45;&gt;Node8</title>
<g id="a_edge7_Node000007_Node000008"><a xlink:title=" ">
<path fill="none" stroke="#63b8ff" d="M804.6,-188C815.3,-188 826.89,-188 838.29,-188"/>
<polygon fill="#63b8ff" stroke="#63b8ff" points="838.14,-191.5 848.14,-188 838.14,-184.5 838.14,-191.5"/>
</a>
</g>
</g>
<!-- Node11 -->
<g id="Node000011" class="node">
<title>Node11</title>
<g id="a_Node000011"><a xlink:href="../../d5/d51/classcarla_1_1road_1_1element_1_1RoadInfoSignal.html#a46a4c6561df160ade96e9d12b0e4309f" target="_top" xlink:title=" ">
<polygon fill="white" stroke="#666666" points="664,-132 521.25,-132 521.25,-100 664,-100 664,-132"/>
<text text-anchor="start" x="529.25" y="-118.5" font-family="Helvetica,sans-Serif" font-size="10.00">carla::road::element</text>
<text text-anchor="middle" x="592.62" y="-106.5" font-family="Helvetica,sans-Serif" font-size="10.00">::RoadInfoSignal::GetSignalId</text>
</a>
</g>
</g>
<!-- Node10&#45;&gt;Node11 -->
<g id="edge10_Node000010_Node000011" class="edge">
<title>Node10&#45;&gt;Node11</title>
<g id="a_edge10_Node000010_Node000011"><a xlink:title=" ">
<path fill="none" stroke="#63b8ff" d="M484.52,-116C492.79,-116 501.42,-116 510.05,-116"/>
<polygon fill="#63b8ff" stroke="#63b8ff" points="509.95,-119.5 519.95,-116 509.95,-112.5 509.95,-119.5"/>
</a>
</g>
</g>
<!-- Node13 -->
<g id="Node000013" class="node">
<title>Node13</title>
<g id="a_Node000013"><a xlink:href="../../d2/d06/classcarla_1_1client_1_1detail_1_1ActorState.html#a520d5ef7284ded86a1d96a346f3516aa" target="_top" xlink:title=" ">
<polygon fill="white" stroke="#666666" points="655.38,-82 529.88,-82 529.88,-50 655.38,-50 655.38,-82"/>
<text text-anchor="start" x="537.88" y="-68.5" font-family="Helvetica,sans-Serif" font-size="10.00">carla::client::detail</text>
<text text-anchor="middle" x="592.62" y="-56.5" font-family="Helvetica,sans-Serif" font-size="10.00">::ActorState::GetEpisode</text>
</a>
</g>
</g>
<!-- Node12&#45;&gt;Node13 -->
<g id="edge12_Node000012_Node000013" class="edge">
<title>Node12&#45;&gt;Node13</title>
<g id="a_edge12_Node000012_Node000013"><a xlink:title=" ">
<path fill="none" stroke="#63b8ff" d="M485.45,-66C496.17,-66 507.49,-66 518.6,-66"/>
<polygon fill="#63b8ff" stroke="#63b8ff" points="518.6,-69.5 528.6,-66 518.6,-62.5 518.6,-69.5"/>
</a>
</g>
</g>
</g>
</svg>

<g id="navigator" transform="translate(0 0)" fill="#404254">
  <rect fill="#f2f5e9" fill-opacity="0.5" stroke="#606060" stroke-width=".5" x="0" y="0" width="60" height="60"/>
  <use id="zoomplus" xlink:href="#zoomPlus" x="17" y="9" onmousedown="handleZoom(evt,'in')"/>
  <use id="zoomminus" xlink:href="#zoomMin" x="42" y="9" onmousedown="handleZoom(evt,'out')"/>
  <use id="reset" xlink:href="#resetDef" x="30" y="36" onmousedown="handleReset()"/>
   <use id="arrowup" xlink:href="#arrowUp" x="0" y="0" onmousedown="handlePan(0,-1)"/>
  <use id="arrowright" xlink:href="#arrowRight" x="0" y="0" onmousedown="handlePan(1,0)"/>
  <use id="arrowdown" xlink:href="#arrowDown" x="0" y="0" onmousedown="handlePan(0,1)"/>
  <use id="arrowleft" xlink:href="#arrowLeft" x="0" y="0" onmousedown="handlePan(-1,0)"/>
</g>
<svg viewBox="0 0 15 15" width="100%" height="30px" preserveAspectRatio="xMaxYMin meet">
 <g id="arrow_out" transform="scale(0.3 0.3)">
  <a xlink:href="classcarla_1_1client_1_1World_a965fcaf99f563c9634c40f3b8e2910b5_cgraph_org.svg" target="_base">
   <rect id="button" ry="5" rx="5" y="6" x="6" height="38" width="38"
        fill="#f2f5e9" fill-opacity="0.5" stroke="#606060" stroke-width="1.0"/>
   <path id="arrow"
     d="M 11.500037,31.436501 C 11.940474,20.09759 22.043105,11.32322 32.158766,21.979434 L 37.068811,17.246167 C 37.068811,17.246167 37.088388,32 37.088388,32 L 22.160133,31.978069 C 22.160133,31.978069 26.997745,27.140456 26.997745,27.140456 C 18.528582,18.264221 13.291696,25.230495 11.500037,31.436501 z"
     style="fill:#404040;"/>
  </a>
 </g>
</svg>

<style type='text/css'>
<![CDATA[
[data-mouse-over-selected='false'] { opacity: 0.7; }
[data-mouse-over-selected='true']  { opacity: 1.0; }
]]>
</style>
<script type="application/ecmascript"><![CDATA[
document.addEventListener('DOMContentLoaded', (event) => {
  highlightEdges();
  highlightAdjacentNodes();
});
]]></script>
</svg>
