<?xml version="1.0" encoding="UTF-8" standalone="no"?>
<!DOCTYPE svg PUBLIC "-//W3C//DTD SVG 1.1//EN"
 "http://www.w3.org/Graphics/SVG/1.1/DTD/svg11.dtd">
<!-- Generated by graphviz version 8.1.0 (20230707.0739)
 -->
<!-- Title: carla::client::World::GetActor Pages: 1 -->
<svg width="782pt" height="40pt"
 viewBox="0.00 0.00 781.75 40.00" xmlns="http://www.w3.org/2000/svg" xmlns:xlink="http://www.w3.org/1999/xlink">
<g id="graph0" class="graph" transform="scale(1 1) rotate(0) translate(4 36)">
<title>carla::client::World::GetActor</title>
<!-- Node1 -->
<g id="Node000001" class="node">
<title>Node1</title>
<g id="a_Node000001"><a xlink:title="Find actor by id, return nullptr if not found.">
<polygon fill="#999999" stroke="#666666" points="773.75,-32 676,-32 676,0 773.75,0 773.75,-32"/>
<text text-anchor="start" x="684" y="-18.5" font-family="Helvetica,sans-Serif" font-size="10.00">carla::client::World</text>
<text text-anchor="middle" x="724.88" y="-6.5" font-family="Helvetica,sans-Serif" font-size="10.00">::GetActor</text>
</a>
</g>
</g>
<!-- Node2 -->
<g id="Node000002" class="node">
<title>Node2</title>
<g id="a_Node000002"><a xlink:href="../../dd/d5b/classcarla_1_1nav_1_1WalkerManager.html#a9289dae0ecd8a03e681939074634730e" target="_top" xlink:title=" ">
<polygon fill="white" stroke="#666666" points="640,-32 498,-32 498,0 640,0 640,-32"/>
<text text-anchor="start" x="506" y="-18.5" font-family="Helvetica,sans-Serif" font-size="10.00">carla::nav::WalkerManager</text>
<text text-anchor="middle" x="569" y="-6.5" font-family="Helvetica,sans-Serif" font-size="10.00">::GetAllTrafficLightWaypoints</text>
</a>
</g>
</g>
<!-- Node1&#45;&gt;Node2 -->
<g id="edge1_Node000001_Node000002" class="edge">
<title>Node1&#45;&gt;Node2</title>
<g id="a_edge1_Node000001_Node000002"><a xlink:title=" ">
<path fill="none" stroke="#63b8ff" d="M664.87,-16C656.85,-16 648.55,-16 640.35,-16"/>
<polygon fill="#63b8ff" stroke="#63b8ff" points="664.61,-19.5 674.61,-16 664.61,-12.5 664.61,-19.5"/>
</a>
</g>
</g>
<!-- Node3 -->
<g id="Node000003" class="node">
<title>Node3</title>
<g id="a_Node000003"><a xlink:href="../../dd/d5b/classcarla_1_1nav_1_1WalkerManager.html#a2a0ed065945689250a9f81d7eb740016" target="_top" xlink:title="create a new walker route">
<polygon fill="white" stroke="#666666" points="462,-32 330.5,-32 330.5,0 462,0 462,-32"/>
<text text-anchor="start" x="338.5" y="-18.5" font-family="Helvetica,sans-Serif" font-size="10.00">carla::nav::WalkerManager</text>
<text text-anchor="middle" x="396.25" y="-6.5" font-family="Helvetica,sans-Serif" font-size="10.00">::AddWalker</text>
</a>
</g>
</g>
<!-- Node2&#45;&gt;Node3 -->
<g id="edge2_Node000002_Node000003" class="edge">
<title>Node2&#45;&gt;Node3</title>
<g id="a_edge2_Node000002_Node000003"><a xlink:title=" ">
<path fill="none" stroke="#63b8ff" d="M486.82,-16C478.6,-16 470.33,-16 462.32,-16"/>
<polygon fill="#63b8ff" stroke="#63b8ff" points="486.56,-19.5 496.56,-16 486.56,-12.5 486.56,-19.5"/>
</a>
</g>
</g>
<!-- Node4 -->
<g id="Node000004" class="node">
<title>Node4</title>
<g id="a_Node000004"><a xlink:href="../../d9/dc2/classcarla_1_1nav_1_1Navigation.html#ade1fb877d94268b4c21bf2b865e94883" target="_top" xlink:title="create a new walker">
<polygon fill="white" stroke="#666666" points="294.5,-32 187,-32 187,0 294.5,0 294.5,-32"/>
<text text-anchor="start" x="195" y="-18.5" font-family="Helvetica,sans-Serif" font-size="10.00">carla::nav::Navigation</text>
<text text-anchor="middle" x="240.75" y="-6.5" font-family="Helvetica,sans-Serif" font-size="10.00">::AddWalker</text>
</a>
</g>
</g>
<!-- Node3&#45;&gt;Node4 -->
<g id="edge3_Node000003_Node000004" class="edge">
<title>Node3&#45;&gt;Node4</title>
<g id="a_edge3_Node000003_Node000004"><a xlink:title=" ">
<path fill="none" stroke="#63b8ff" d="M319.32,-16C311.06,-16 302.78,-16 294.87,-16"/>
<polygon fill="#63b8ff" stroke="#63b8ff" points="319.15,-19.5 329.15,-16 319.15,-12.5 319.15,-19.5"/>
</a>
</g>
</g>
<!-- Node5 -->
<g id="Node000005" class="node">
<title>Node5</title>
<g id="a_Node000005"><a xlink:href="../../d1/d83/classcarla_1_1client_1_1detail_1_1WalkerNavigation.html#a9e40890dd0320709636b44b38d98d400" target="_top" xlink:title=" ">
<polygon fill="white" stroke="#666666" points="151,-32 0,-32 0,0 151,0 151,-32"/>
<text text-anchor="start" x="8" y="-18.5" font-family="Helvetica,sans-Serif" font-size="10.00">carla::client::detail</text>
<text text-anchor="middle" x="75.5" y="-6.5" font-family="Helvetica,sans-Serif" font-size="10.00">::WalkerNavigation::AddWalker</text>
</a>
</g>
</g>
<!-- Node4&#45;&gt;Node5 -->
<g id="edge4_Node000004_Node000005" class="edge">
<title>Node4&#45;&gt;Node5</title>
<g id="a_edge4_Node000004_Node000005"><a xlink:title=" ">
<path fill="none" stroke="#63b8ff" d="M175.97,-16C167.94,-16 159.66,-16 151.48,-16"/>
<polygon fill="#63b8ff" stroke="#63b8ff" points="175.75,-19.5 185.75,-16 175.75,-12.5 175.75,-19.5"/>
</a>
</g>
</g>
</g>
</svg>
