<?xml version="1.0" encoding="UTF-8" standalone="no"?>
<!DOCTYPE svg PUBLIC "-//W3C//DTD SVG 1.1//EN"
 "http://www.w3.org/Graphics/SVG/1.1/DTD/svg11.dtd">
<!-- Generated by graphviz version 8.1.0 (20230707.0739)
 -->
<!-- Title: carla::geom::Mesh::GetVerticesNum Pages: 1 -->
<svg width="759pt" height="227pt"
 viewBox="0.00 0.00 759.25 227.00" xmlns="http://www.w3.org/2000/svg" xmlns:xlink="http://www.w3.org/1999/xlink">
<g id="graph0" class="graph" transform="scale(1 1) rotate(0) translate(4 223)">
<title>carla::geom::Mesh::GetVerticesNum</title>
<!-- Node1 -->
<g id="Node000001" class="node">
<title>Node1</title>
<g id="a_Node000001"><a xlink:title=" ">
<polygon fill="#999999" stroke="#666666" points="751.25,-107 648.25,-107 648.25,-75 751.25,-75 751.25,-107"/>
<text text-anchor="start" x="656.25" y="-93.5" font-family="Helvetica,sans-Serif" font-size="10.00">carla::geom::Mesh::</text>
<text text-anchor="middle" x="699.75" y="-81.5" font-family="Helvetica,sans-Serif" font-size="10.00">GetVerticesNum</text>
</a>
</g>
</g>
<!-- Node2 -->
<g id="Node000002" class="node">
<title>Node2</title>
<g id="a_Node000002"><a xlink:href="../../d0/d02/classcarla_1_1geom_1_1Mesh.html#ac538d39eaf754e40b594a4e02ddab379" target="_top" xlink:title="Adds a triangle fan to the mesh, vertex order is counterclockwise.">
<polygon fill="white" stroke="#666666" points="612.25,-207 509.25,-207 509.25,-175 612.25,-175 612.25,-207"/>
<text text-anchor="start" x="517.25" y="-193.5" font-family="Helvetica,sans-Serif" font-size="10.00">carla::geom::Mesh::</text>
<text text-anchor="middle" x="560.75" y="-181.5" font-family="Helvetica,sans-Serif" font-size="10.00">AddTriangleFan</text>
</a>
</g>
</g>
<!-- Node1&#45;&gt;Node2 -->
<g id="edge1_Node000001_Node000002" class="edge">
<title>Node1&#45;&gt;Node2</title>
<g id="a_edge1_Node000001_Node000002"><a xlink:title=" ">
<path fill="none" stroke="#63b8ff" d="M667.88,-113.53C642.4,-132.13 606.84,-158.09 584.06,-174.72"/>
<polygon fill="#63b8ff" stroke="#63b8ff" points="669.42,-116.01 675.43,-107.29 665.29,-110.36 669.42,-116.01"/>
</a>
</g>
</g>
<!-- Node4 -->
<g id="Node000004" class="node">
<title>Node4</title>
<g id="a_Node000004"><a xlink:href="../../d0/d02/classcarla_1_1geom_1_1Mesh.html#afc814a912c427b43363289e6765a5ba3" target="_top" xlink:title="Adds a triangle strip to the mesh, vertex order is counterclockwise.">
<polygon fill="white" stroke="#666666" points="612.25,-132 509.25,-132 509.25,-100 612.25,-100 612.25,-132"/>
<text text-anchor="start" x="517.25" y="-118.5" font-family="Helvetica,sans-Serif" font-size="10.00">carla::geom::Mesh::</text>
<text text-anchor="middle" x="560.75" y="-106.5" font-family="Helvetica,sans-Serif" font-size="10.00">AddTriangleStrip</text>
</a>
</g>
</g>
<!-- Node1&#45;&gt;Node4 -->
<g id="edge3_Node000001_Node000004" class="edge">
<title>Node1&#45;&gt;Node4</title>
<g id="a_edge3_Node000001_Node000004"><a xlink:title=" ">
<path fill="none" stroke="#63b8ff" d="M637.37,-102.2C629.1,-103.71 620.69,-105.25 612.62,-106.72"/>
<polygon fill="#63b8ff" stroke="#63b8ff" points="637.92,-105.48 647.13,-100.24 636.66,-98.59 637.92,-105.48"/>
</a>
</g>
</g>
<!-- Node10 -->
<g id="Node000010" class="node">
<title>Node10</title>
<g id="a_Node000010"><a xlink:href="../../d0/d02/classcarla_1_1geom_1_1Mesh.html#a233c4f4f48c88e6ac2afc79155dca87c" target="_top" xlink:title="Merges two meshes into a single mesh.">
<polygon fill="white" stroke="#666666" points="612.25,-82 509.25,-82 509.25,-50 612.25,-50 612.25,-82"/>
<text text-anchor="start" x="517.25" y="-68.5" font-family="Helvetica,sans-Serif" font-size="10.00">carla::geom::Mesh::</text>
<text text-anchor="middle" x="560.75" y="-56.5" font-family="Helvetica,sans-Serif" font-size="10.00">ConcatMesh</text>
</a>
</g>
</g>
<!-- Node1&#45;&gt;Node10 -->
<g id="edge12_Node000001_Node000010" class="edge">
<title>Node1&#45;&gt;Node10</title>
<g id="a_edge12_Node000001_Node000010"><a xlink:title=" ">
<path fill="none" stroke="#63b8ff" d="M637.37,-79.8C629.1,-78.29 620.69,-76.75 612.62,-75.28"/>
<polygon fill="#63b8ff" stroke="#63b8ff" points="636.66,-83.41 647.13,-81.76 637.92,-76.52 636.66,-83.41"/>
</a>
</g>
</g>
<!-- Node11 -->
<g id="Node000011" class="node">
<title>Node11</title>
<g id="a_Node000011"><a xlink:href="../../d0/d02/classcarla_1_1geom_1_1Mesh.html#aab7276862b2080e538f87aa682229f16" target="_top" xlink:title="Merges two meshes into a single mesh.">
<polygon fill="white" stroke="#666666" points="612.25,-32 509.25,-32 509.25,0 612.25,0 612.25,-32"/>
<text text-anchor="start" x="517.25" y="-18.5" font-family="Helvetica,sans-Serif" font-size="10.00">carla::geom::Mesh::</text>
<text text-anchor="middle" x="560.75" y="-6.5" font-family="Helvetica,sans-Serif" font-size="10.00">operator+=</text>
</a>
</g>
</g>
<!-- Node1&#45;&gt;Node11 -->
<g id="edge13_Node000001_Node000011" class="edge">
<title>Node1&#45;&gt;Node11</title>
<g id="a_edge13_Node000001_Node000011"><a xlink:title=" ">
<path fill="none" stroke="#63b8ff" d="M662.21,-69.18C646.9,-60.22 628.84,-49.89 612.25,-41 606.9,-38.14 601.19,-35.19 595.59,-32.38"/>
<polygon fill="#63b8ff" stroke="#63b8ff" points="659.95,-72.5 670.35,-74.55 663.5,-66.47 659.95,-72.5"/>
</a>
</g>
</g>
<!-- Node3 -->
<g id="Node000003" class="node">
<title>Node3</title>
<g id="a_Node000003"><a xlink:href="../../d0/d34/classcarla_1_1road_1_1Map.html#a82b38e5be122b3dd8d155175265f6e88" target="_top" xlink:title="Buids a mesh of all crosswalks based on the OpenDRIVE.">
<polygon fill="white" stroke="#666666" points="468,-219 348.5,-219 348.5,-187 468,-187 468,-219"/>
<text text-anchor="start" x="356.5" y="-205.5" font-family="Helvetica,sans-Serif" font-size="10.00">carla::road::Map::GetAll</text>
<text text-anchor="middle" x="408.25" y="-193.5" font-family="Helvetica,sans-Serif" font-size="10.00">CrosswalkMesh</text>
</a>
</g>
</g>
<!-- Node2&#45;&gt;Node3 -->
<g id="edge2_Node000002_Node000003" class="edge">
<title>Node2&#45;&gt;Node3</title>
<g id="a_edge2_Node000002_Node000003"><a xlink:title=" ">
<path fill="none" stroke="#63b8ff" d="M497.96,-195.93C488.21,-196.7 478.15,-197.51 468.46,-198.28"/>
<polygon fill="#63b8ff" stroke="#63b8ff" points="498.11,-199.35 507.8,-195.06 497.55,-192.37 498.11,-199.35"/>
</a>
</g>
</g>
<!-- Node5 -->
<g id="Node000005" class="node">
<title>Node5</title>
<g id="a_Node000005"><a xlink:href="../../d6/d3d/classcarla_1_1geom_1_1MeshFactory.html#a1e3c826505f82d1ddffd9f40c39cfa2a" target="_top" xlink:title="Generates a mesh that defines a lane from a given s start and end.">
<polygon fill="white" stroke="#666666" points="473.25,-169 343.25,-169 343.25,-137 473.25,-137 473.25,-169"/>
<text text-anchor="start" x="351.25" y="-155.5" font-family="Helvetica,sans-Serif" font-size="10.00">carla::geom::MeshFactory</text>
<text text-anchor="middle" x="408.25" y="-143.5" font-family="Helvetica,sans-Serif" font-size="10.00">::Generate</text>
</a>
</g>
</g>
<!-- Node4&#45;&gt;Node5 -->
<g id="edge4_Node000004_Node000005" class="edge">
<title>Node4&#45;&gt;Node5</title>
<g id="a_edge4_Node000004_Node000005"><a xlink:title=" ">
<path fill="none" stroke="#63b8ff" d="M498.23,-131.12C490.08,-133.13 481.69,-135.19 473.49,-137.21"/>
<polygon fill="#63b8ff" stroke="#63b8ff" points="498.92,-134.31 507.8,-128.53 497.25,-127.52 498.92,-134.31"/>
</a>
</g>
</g>
<!-- Node6 -->
<g id="Node000006" class="node">
<title>Node6</title>
<g id="a_Node000006"><a xlink:href="../../d6/d3d/classcarla_1_1geom_1_1MeshFactory.html#a202f9750d3be15d0af4b42b3a90f3662" target="_top" xlink:title="Generates a wall&#45;like mesh at the left side of the lane.">
<polygon fill="white" stroke="#666666" points="473.25,-119 343.25,-119 343.25,-87 473.25,-87 473.25,-119"/>
<text text-anchor="start" x="351.25" y="-105.5" font-family="Helvetica,sans-Serif" font-size="10.00">carla::geom::MeshFactory</text>
<text text-anchor="middle" x="408.25" y="-93.5" font-family="Helvetica,sans-Serif" font-size="10.00">::GenerateLeftWall</text>
</a>
</g>
</g>
<!-- Node4&#45;&gt;Node6 -->
<g id="edge5_Node000004_Node000006" class="edge">
<title>Node4&#45;&gt;Node6</title>
<g id="a_edge5_Node000004_Node000006"><a xlink:title=" ">
<path fill="none" stroke="#63b8ff" d="M497.96,-110.66C489.89,-109.97 481.6,-109.25 473.49,-108.55"/>
<polygon fill="#63b8ff" stroke="#63b8ff" points="497.53,-114.23 507.8,-111.6 498.14,-107.25 497.53,-114.23"/>
</a>
</g>
</g>
<!-- Node9 -->
<g id="Node000009" class="node">
<title>Node9</title>
<g id="a_Node000009"><a xlink:href="../../d6/d3d/classcarla_1_1geom_1_1MeshFactory.html#a11c673db2f69ad3c21ebba4d068b8c6c" target="_top" xlink:title="Generates a wall&#45;like mesh at the right side of the lane.">
<polygon fill="white" stroke="#666666" points="473.25,-69 343.25,-69 343.25,-37 473.25,-37 473.25,-69"/>
<text text-anchor="start" x="351.25" y="-55.5" font-family="Helvetica,sans-Serif" font-size="10.00">carla::geom::MeshFactory</text>
<text text-anchor="middle" x="408.25" y="-43.5" font-family="Helvetica,sans-Serif" font-size="10.00">::GenerateRightWall</text>
</a>
</g>
</g>
<!-- Node4&#45;&gt;Node9 -->
<g id="edge9_Node000004_Node000009" class="edge">
<title>Node4&#45;&gt;Node9</title>
<g id="a_edge9_Node000004_Node000009"><a xlink:title=" ">
<path fill="none" stroke="#63b8ff" d="M513.22,-95.14C500.32,-89.47 486.28,-83.4 473.25,-78 466.42,-75.17 459.14,-72.24 452.04,-69.43"/>
<polygon fill="#63b8ff" stroke="#63b8ff" points="511.72,-98.74 522.28,-99.58 514.54,-92.34 511.72,-98.74"/>
</a>
</g>
</g>
<!-- Node7 -->
<g id="Node000007" class="node">
<title>Node7</title>
<g id="a_Node000007"><a xlink:href="../../d6/d3d/classcarla_1_1geom_1_1MeshFactory.html#aec242ce8214cea646ba254c0cfc0176a" target="_top" xlink:title="Genrates a mesh representing a wall on the road corners to avoid cars falling down.">
<polygon fill="white" stroke="#666666" points="307.25,-94 177.25,-94 177.25,-62 307.25,-62 307.25,-94"/>
<text text-anchor="start" x="185.25" y="-80.5" font-family="Helvetica,sans-Serif" font-size="10.00">carla::geom::MeshFactory</text>
<text text-anchor="middle" x="242.25" y="-68.5" font-family="Helvetica,sans-Serif" font-size="10.00">::GenerateWalls</text>
</a>
</g>
</g>
<!-- Node6&#45;&gt;Node7 -->
<g id="edge6_Node000006_Node000007" class="edge">
<title>Node6&#45;&gt;Node7</title>
<g id="a_edge6_Node000006_Node000007"><a xlink:title=" ">
<path fill="none" stroke="#63b8ff" d="M332.21,-91.56C324.02,-90.31 315.73,-89.05 307.68,-87.82"/>
<polygon fill="#63b8ff" stroke="#63b8ff" points="331.49,-95.14 341.9,-93.19 332.55,-88.22 331.49,-95.14"/>
</a>
</g>
</g>
<!-- Node8 -->
<g id="Node000008" class="node">
<title>Node8</title>
<g id="a_Node000008"><a xlink:href="../../d6/d3d/classcarla_1_1geom_1_1MeshFactory.html#a5588f2f98ea42ade1082db0ef1c8ce7b" target="_top" xlink:title="Generates a list of meshes that defines a lane_section safety wall with a maximum length.">
<polygon fill="white" stroke="#666666" points="141.25,-94 0,-94 0,-62 141.25,-62 141.25,-94"/>
<text text-anchor="start" x="8" y="-80.5" font-family="Helvetica,sans-Serif" font-size="10.00">carla::geom::MeshFactory</text>
<text text-anchor="middle" x="70.62" y="-68.5" font-family="Helvetica,sans-Serif" font-size="10.00">::GenerateWallsWithMaxLen</text>
</a>
</g>
</g>
<!-- Node6&#45;&gt;Node8 -->
<g id="edge8_Node000006_Node000008" class="edge">
<title>Node6&#45;&gt;Node8</title>
<g id="a_edge8_Node000006_Node000008"><a xlink:title=" ">
<path fill="none" stroke="#63b8ff" d="M332.21,-107.38C287.13,-108.92 228.73,-109.01 177.25,-103 161.9,-101.21 145.55,-98 130.41,-94.47"/>
<polygon fill="#63b8ff" stroke="#63b8ff" points="332.21,-110.85 342.07,-106.97 331.95,-103.85 332.21,-110.85"/>
</a>
</g>
</g>
<!-- Node7&#45;&gt;Node8 -->
<g id="edge7_Node000007_Node000008" class="edge">
<title>Node7&#45;&gt;Node8</title>
<g id="a_edge7_Node000007_Node000008"><a xlink:title=" ">
<path fill="none" stroke="#63b8ff" d="M166.36,-78C158.1,-78 149.71,-78 141.51,-78"/>
<polygon fill="#63b8ff" stroke="#63b8ff" points="166.12,-81.5 176.12,-78 166.12,-74.5 166.12,-81.5"/>
</a>
</g>
</g>
<!-- Node9&#45;&gt;Node7 -->
<g id="edge10_Node000009_Node000007" class="edge">
<title>Node9&#45;&gt;Node7</title>
<g id="a_edge10_Node000009_Node000007"><a xlink:title=" ">
<path fill="none" stroke="#63b8ff" d="M332.21,-64.44C324.02,-65.69 315.73,-66.95 307.68,-68.18"/>
<polygon fill="#63b8ff" stroke="#63b8ff" points="332.55,-67.78 341.9,-62.81 331.49,-60.86 332.55,-67.78"/>
</a>
</g>
</g>
<!-- Node9&#45;&gt;Node8 -->
<g id="edge11_Node000009_Node000008" class="edge">
<title>Node9&#45;&gt;Node8</title>
<g id="a_edge11_Node000009_Node000008"><a xlink:title=" ">
<path fill="none" stroke="#63b8ff" d="M332.21,-48.62C287.13,-47.08 228.73,-46.99 177.25,-53 161.9,-54.79 145.55,-58 130.41,-61.53"/>
<polygon fill="#63b8ff" stroke="#63b8ff" points="331.95,-52.15 342.07,-49.03 332.21,-45.15 331.95,-52.15"/>
</a>
</g>
</g>
</g>
</svg>
