<?xml version="1.0" encoding="UTF-8" standalone="no"?>
<!DOCTYPE svg PUBLIC "-//W3C//DTD SVG 1.1//EN"
 "http://www.w3.org/Graphics/SVG/1.1/DTD/svg11.dtd">
<!-- Generated by graphviz version 8.1.0 (20230707.0739)
 -->
<!-- Title: CaService::SetOwner Pages: 1 -->
<!--zoomable 280 -->

<svg id="main" version="1.1" xmlns="http://www.w3.org/2000/svg" xmlns:xlink="http://www.w3.org/1999/xlink" xml:space="preserve" onload="init(evt)">
<style type="text/css"><![CDATA[
.node, .edge {opacity: 0.7;}
.node.selected, .edge.selected {opacity: 1;}
.edge:hover path { stroke: red; }
.edge:hover polygon { stroke: red; fill: red; }
]]></style>

<defs>
  <circle id="rim" cx="0" cy="0" r="7"/>
  <circle id="rim2" cx="0" cy="0" r="3.5"/>
  <g id="zoomPlus">
    <use xlink:href="#rim" fill="#404040"><set attributeName="fill" to="#808080" begin="zoomplus.mouseover" end="zoomplus.mouseout"/></use>
    <path d="M-4,0h8M0,-4v8" fill="none" stroke="white" stroke-width="1.5" pointer-events="none"/>
  </g>
  <g id="zoomMin">
    <use xlink:href="#rim" fill="#404040"><set attributeName="fill" to="#808080" begin="zoomminus.mouseover" end="zoomminus.mouseout"/></use>
    <path d="M-4,0h8" fill="none" stroke="white" stroke-width="1.5" pointer-events="none"/>
  </g>
  <g id="arrowUp" transform="translate(30 24)">
    <use xlink:href="#rim"/>
    <path pointer-events="none" fill="none" stroke="white" stroke-width="1.5" d="M0,-3.0v7 M-2.5,-0.5L0,-3.0L2.5,-0.5"/>
  </g>
  <g id="arrowRight" transform="rotate(90) translate(36 -43)">
    <use xlink:href="#rim"/>
    <path pointer-events="none" fill="none" stroke="white" stroke-width="1.5" d="M0,-3.0v7 M-2.5,-0.5L0,-3.0L2.5,-0.5"/>
  </g>
  <g id="arrowDown" transform="rotate(180) translate(-30 -48)">
    <use xlink:href="#rim"/>
    <path pointer-events="none" fill="none" stroke="white" stroke-width="1.5" d="M0,-3.0v7 M-2.5,-0.5L0,-3.0L2.5,-0.5"/>
  </g>
  <g id="arrowLeft" transform="rotate(270) translate(-36 17)">
    <use xlink:href="#rim"/>
    <path pointer-events="none" fill="none" stroke="white" stroke-width="1.5" d="M0,-3.0v7 M-2.5,-0.5L0,-3.0L2.5,-0.5"/>
  </g>
  <g id="resetDef">
    <use xlink:href="#rim2" fill="#404040"><set attributeName="fill" to="#808080" begin="reset.mouseover" end="reset.mouseout"/></use>
  </g>
</defs>
<script type="application/ecmascript">
var viewWidth = 729;
var viewHeight = 280;
var sectionId = 'dynsection-45';
</script>
<script type="application/ecmascript" xlink:href="../../svg.min.js"/>
<svg id="graph" class="graph">
<g id="viewport">
<title>CaService::SetOwner</title>
<!-- Node1 -->
<g id="Node000001" class="node">
<title>Node1</title>
<g id="a_Node000001"><a xlink:title=" ">
<polygon fill="#999999" stroke="#666666" points="108.25,-146 0,-146 0,-126 108.25,-126 108.25,-146"/>
<text text-anchor="middle" x="54.12" y="-132.5" font-family="Helvetica,sans-Serif" font-size="10.00">CaService::SetOwner</text>
</a>
</g>
</g>
<!-- Node2 -->
<g id="Node000002" class="node">
<title>Node2</title>
<g id="a_Node000002"><a xlink:href="../../dc/d84/classUCarlaEpisode.html#a4d0c7a09f4d9de8110605e10125a93aa" target="_top" xlink:title="Find a Carla actor by id.">
<polygon fill="white" stroke="#666666" points="498,-272 370.25,-272 370.25,-240 498,-240 498,-272"/>
<text text-anchor="start" x="378.25" y="-258.5" font-family="Helvetica,sans-Serif" font-size="10.00">UCarlaEpisode::FindCarla</text>
<text text-anchor="middle" x="434.12" y="-246.5" font-family="Helvetica,sans-Serif" font-size="10.00">Actor</text>
</a>
</g>
</g>
<!-- Node1&#45;&gt;Node2 -->
<g id="edge1_Node000001_Node000002" class="edge">
<title>Node1&#45;&gt;Node2</title>
<g id="a_edge1_Node000001_Node000002"><a xlink:title=" ">
<path fill="none" stroke="#63b8ff" d="M62.59,-146.3C76.4,-164.48 107.88,-201.94 144.25,-219 212.12,-250.84 298.28,-258.21 358.77,-258.77"/>
<polygon fill="#63b8ff" stroke="#63b8ff" points="358.75,-262.27 368.76,-258.8 358.77,-255.27 358.75,-262.27"/>
</a>
</g>
</g>
<!-- Node3 -->
<g id="Node000003" class="node">
<title>Node3</title>
<g id="a_Node000003"><a xlink:href="../../dc/dde/classFCarlaActor.html#aca3d1a4bfcb5e0ae1974b7206933d665" target="_top" xlink:title=" ">
<polygon fill="white" stroke="#666666" points="286.25,-108 166,-108 166,-88 286.25,-88 286.25,-108"/>
<text text-anchor="middle" x="226.12" y="-94.5" font-family="Helvetica,sans-Serif" font-size="10.00">FCarlaActor::GetActorId</text>
</a>
</g>
</g>
<!-- Node1&#45;&gt;Node3 -->
<g id="edge2_Node000001_Node000003" class="edge">
<title>Node1&#45;&gt;Node3</title>
<g id="a_edge2_Node000001_Node000003"><a xlink:title=" ">
<path fill="none" stroke="#63b8ff" d="M102.03,-125.52C122.37,-120.97 146.39,-115.6 167.79,-110.82"/>
<polygon fill="#63b8ff" stroke="#63b8ff" points="168.38,-114.05 177.37,-108.45 166.85,-107.22 168.38,-114.05"/>
</a>
</g>
</g>
<!-- Node4 -->
<g id="Node000004" class="node">
<title>Node4</title>
<g id="a_Node000004"><a xlink:href="../../dc/dde/classFCarlaActor.html#a31ab39eb2088af21d9c85c47424f56b4" target="_top" xlink:title=" ">
<polygon fill="white" stroke="#666666" points="501,-222 367.25,-222 367.25,-202 501,-202 501,-222"/>
<text text-anchor="middle" x="434.12" y="-208.5" font-family="Helvetica,sans-Serif" font-size="10.00">FCarlaActor::GetActorType</text>
</a>
</g>
</g>
<!-- Node1&#45;&gt;Node4 -->
<g id="edge3_Node000001_Node000004" class="edge">
<title>Node1&#45;&gt;Node4</title>
<g id="a_edge3_Node000001_Node000004"><a xlink:title=" ">
<path fill="none" stroke="#63b8ff" d="M67.07,-146.5C83.28,-160.02 113.71,-182.97 144.25,-193 213.37,-215.7 296.67,-218.8 356.03,-217.22"/>
<polygon fill="#63b8ff" stroke="#63b8ff" points="355.94,-220.69 365.82,-216.87 355.71,-213.69 355.94,-220.69"/>
</a>
</g>
</g>
<!-- Node5 -->
<g id="Node000005" class="node">
<title>Node5</title>
<g id="a_Node000005"><a xlink:href="../../d7/d1e/classUCarlaStatics.html#a83f2a341e32413abf1ec85ee740c2036" target="_top" xlink:title=" ">
<polygon fill="white" stroke="#666666" points="498.75,-108 369.5,-108 369.5,-76 498.75,-76 498.75,-108"/>
<text text-anchor="start" x="377.5" y="-94.5" font-family="Helvetica,sans-Serif" font-size="10.00">UCarlaStatics::GetCurrent</text>
<text text-anchor="middle" x="434.12" y="-82.5" font-family="Helvetica,sans-Serif" font-size="10.00">Episode</text>
</a>
</g>
</g>
<!-- Node1&#45;&gt;Node5 -->
<g id="edge4_Node000001_Node000005" class="edge">
<title>Node1&#45;&gt;Node5</title>
<g id="a_edge4_Node000001_Node000005"><a xlink:title=" ">
<path fill="none" stroke="#63b8ff" d="M108.6,-133.88C159.92,-131.4 239.52,-126.38 308,-117 324.38,-114.76 341.85,-111.7 358.38,-108.48"/>
<polygon fill="#63b8ff" stroke="#63b8ff" points="358.95,-111.74 368.08,-106.36 357.59,-104.87 358.95,-111.74"/>
</a>
</g>
</g>
<!-- Node7 -->
<g id="Node000007" class="node">
<title>Node7</title>
<g id="a_Node000007"><a xlink:href="../../dc/d84/classUCarlaEpisode.html#a773152c8a02ce0d36133abfd81df4045" target="_top" xlink:title="Game seconds since the start of this episode.">
<polygon fill="white" stroke="#666666" points="294.88,-70 157.38,-70 157.38,-38 294.88,-38 294.88,-70"/>
<text text-anchor="start" x="165.38" y="-56.5" font-family="Helvetica,sans-Serif" font-size="10.00">UCarlaEpisode::GetElapsed</text>
<text text-anchor="middle" x="226.12" y="-44.5" font-family="Helvetica,sans-Serif" font-size="10.00">GameTime</text>
</a>
</g>
</g>
<!-- Node1&#45;&gt;Node7 -->
<g id="edge6_Node000001_Node000007" class="edge">
<title>Node1&#45;&gt;Node7</title>
<g id="a_edge6_Node000001_Node000007"><a xlink:title=" ">
<path fill="none" stroke="#63b8ff" d="M68.65,-125.69C85.56,-113.21 115.76,-92.22 144.25,-79 147.86,-77.32 151.62,-75.72 155.44,-74.2"/>
<polygon fill="#63b8ff" stroke="#63b8ff" points="156.55,-77.15 164.68,-70.35 154.09,-70.59 156.55,-77.15"/>
</a>
</g>
</g>
<!-- Node8 -->
<g id="Node000008" class="node">
<title>Node8</title>
<g id="a_Node000008"><a xlink:href="../../dc/d84/classUCarlaEpisode.html#afd2c5d324a4ee0dd3927020b07375b7c" target="_top" xlink:title="Return the GeoLocation point of the map loaded.">
<polygon fill="white" stroke="#666666" points="308,-20 144.25,-20 144.25,0 308,0 308,-20"/>
<text text-anchor="middle" x="226.12" y="-6.5" font-family="Helvetica,sans-Serif" font-size="10.00">UCarlaEpisode::GetGeoReference</text>
</a>
</g>
</g>
<!-- Node1&#45;&gt;Node8 -->
<g id="edge7_Node000001_Node000008" class="edge">
<title>Node1&#45;&gt;Node8</title>
<g id="a_edge7_Node000001_Node000008"><a xlink:title=" ">
<path fill="none" stroke="#63b8ff" d="M60.69,-125.56C72.8,-103.9 103.73,-54.04 144.25,-29 146.75,-27.45 149.37,-26.03 152.06,-24.73"/>
<polygon fill="#63b8ff" stroke="#63b8ff" points="153.26,-27.6 161.12,-20.49 150.55,-21.15 153.26,-27.6"/>
</a>
</g>
</g>
<!-- Node9 -->
<g id="Node000009" class="node">
<title>Node9</title>
<g id="a_Node000009"><a xlink:href="../../dc/d72/classCaService.html#a7105f7ab694ddaea0197a56de24b73b3" target="_top" xlink:title=" ">
<polygon fill="white" stroke="#666666" points="292.62,-184 159.62,-184 159.62,-164 292.62,-164 292.62,-184"/>
<text text-anchor="middle" x="226.12" y="-170.5" font-family="Helvetica,sans-Serif" font-size="10.00">CaService::GetStationType</text>
</a>
</g>
</g>
<!-- Node1&#45;&gt;Node9 -->
<g id="edge8_Node000001_Node000009" class="edge">
<title>Node1&#45;&gt;Node9</title>
<g id="a_edge8_Node000001_Node000009"><a xlink:title=" ">
<path fill="none" stroke="#63b8ff" d="M102.03,-146.48C122.37,-151.03 146.39,-156.4 167.79,-161.18"/>
<polygon fill="#63b8ff" stroke="#63b8ff" points="166.85,-164.78 177.37,-163.55 168.38,-157.95 166.85,-164.78"/>
</a>
</g>
</g>
<!-- Node6 -->
<g id="Node000006" class="node">
<title>Node6</title>
<g id="a_Node000006"><a xlink:href="../../d7/d1e/classUCarlaStatics.html#a35e7cb760a58848081a618e7fa8201e2" target="_top" xlink:title=" ">
<polygon fill="white" stroke="#666666" points="721,-102 560.25,-102 560.25,-82 721,-82 721,-102"/>
<text text-anchor="middle" x="640.62" y="-88.5" font-family="Helvetica,sans-Serif" font-size="10.00">UCarlaStatics::GetGameInstance</text>
</a>
</g>
</g>
<!-- Node5&#45;&gt;Node6 -->
<g id="edge5_Node000005_Node000006" class="edge">
<title>Node5&#45;&gt;Node6</title>
<g id="a_edge5_Node000005_Node000006"><a xlink:title=" ">
<path fill="none" stroke="#63b8ff" d="M498.99,-92C515,-92 532.48,-92 549.51,-92"/>
<polygon fill="#63b8ff" stroke="#63b8ff" points="549.04,-95.5 559.04,-92 549.04,-88.5 549.04,-95.5"/>
</a>
</g>
</g>
<!-- Node9&#45;&gt;Node2 -->
<g id="edge9_Node000009_Node000002" class="edge">
<title>Node9&#45;&gt;Node2</title>
<g id="a_edge9_Node000009_Node000002"><a xlink:title=" ">
<path fill="none" stroke="#63b8ff" d="M245.69,-184.35C268.36,-196.69 308.13,-217.35 344,-231 349.03,-232.92 354.28,-234.76 359.59,-236.51"/>
<polygon fill="#63b8ff" stroke="#63b8ff" points="358.26,-240.08 368.85,-239.78 360.38,-233.41 358.26,-240.08"/>
</a>
</g>
</g>
<!-- Node9&#45;&gt;Node4 -->
<g id="edge11_Node000009_Node000004" class="edge">
<title>Node9&#45;&gt;Node4</title>
<g id="a_edge11_Node000009_Node000004"><a xlink:title=" ">
<path fill="none" stroke="#63b8ff" d="M283.96,-184.48C309.29,-189.16 339.32,-194.7 365.77,-199.57"/>
<polygon fill="#63b8ff" stroke="#63b8ff" points="365.01,-203.18 375.47,-201.55 366.28,-196.29 365.01,-203.18"/>
</a>
</g>
</g>
<!-- Node9&#45;&gt;Node5 -->
<g id="edge12_Node000009_Node000005" class="edge">
<title>Node9&#45;&gt;Node5</title>
<g id="a_edge12_Node000009_Node000005"><a xlink:title=" ">
<path fill="none" stroke="#63b8ff" d="M275.21,-163.62C286.38,-160.17 297.93,-155.7 308,-150 326.89,-139.31 325.03,-127.55 344,-117 348.79,-114.33 353.89,-111.93 359.13,-109.78"/>
<polygon fill="#63b8ff" stroke="#63b8ff" points="360.21,-112.73 368.33,-105.92 357.74,-106.18 360.21,-112.73"/>
</a>
</g>
</g>
<!-- Node10 -->
<g id="Node000010" class="node">
<title>Node10</title>
<g id="a_Node000010"><a xlink:href="../../dc/dde/classFCarlaActor.html#ac9a28cdf1b57b3bf280270d40f53359a" target="_top" xlink:title=" ">
<polygon fill="white" stroke="#666666" points="498,-146 370.25,-146 370.25,-126 498,-126 498,-146"/>
<text text-anchor="middle" x="434.12" y="-132.5" font-family="Helvetica,sans-Serif" font-size="10.00">FCarlaActor::GetActorInfo</text>
</a>
</g>
</g>
<!-- Node9&#45;&gt;Node10 -->
<g id="edge10_Node000009_Node000010" class="edge">
<title>Node9&#45;&gt;Node10</title>
<g id="a_edge10_Node000009_Node000010"><a xlink:title=" ">
<path fill="none" stroke="#63b8ff" d="M283.96,-163.52C309.29,-158.84 339.32,-153.3 365.77,-148.43"/>
<polygon fill="#63b8ff" stroke="#63b8ff" points="366.28,-151.71 375.47,-146.45 365.01,-144.82 366.28,-151.71"/>
</a>
</g>
</g>
<!-- Node11 -->
<g id="Node000011" class="node">
<title>Node11</title>
<g id="a_Node000011"><a xlink:href="../../da/d86/classATagger.html#a1fbf1e4054acac5814c5521796a410a2" target="_top" xlink:title="Retrieve the tag of an already tagged component.">
<polygon fill="white" stroke="#666666" points="524.25,-184 344,-184 344,-164 524.25,-164 524.25,-184"/>
<text text-anchor="middle" x="434.12" y="-170.5" font-family="Helvetica,sans-Serif" font-size="10.00">ATagger::GetTagOfTaggedComponent</text>
</a>
</g>
</g>
<!-- Node9&#45;&gt;Node11 -->
<g id="edge13_Node000009_Node000011" class="edge">
<title>Node9&#45;&gt;Node11</title>
<g id="a_edge13_Node000009_Node000011"><a xlink:title=" ">
<path fill="none" stroke="#63b8ff" d="M292.87,-174C305.6,-174 319.21,-174 332.75,-174"/>
<polygon fill="#63b8ff" stroke="#63b8ff" points="332.58,-177.5 342.58,-174 332.58,-170.5 332.58,-177.5"/>
</a>
</g>
</g>
</g>
</svg>

<g id="navigator" transform="translate(0 0)" fill="#404254">
  <rect fill="#f2f5e9" fill-opacity="0.5" stroke="#606060" stroke-width=".5" x="0" y="0" width="60" height="60"/>
  <use id="zoomplus" xlink:href="#zoomPlus" x="17" y="9" onmousedown="handleZoom(evt,'in')"/>
  <use id="zoomminus" xlink:href="#zoomMin" x="42" y="9" onmousedown="handleZoom(evt,'out')"/>
  <use id="reset" xlink:href="#resetDef" x="30" y="36" onmousedown="handleReset()"/>
   <use id="arrowup" xlink:href="#arrowUp" x="0" y="0" onmousedown="handlePan(0,-1)"/>
  <use id="arrowright" xlink:href="#arrowRight" x="0" y="0" onmousedown="handlePan(1,0)"/>
  <use id="arrowdown" xlink:href="#arrowDown" x="0" y="0" onmousedown="handlePan(0,1)"/>
  <use id="arrowleft" xlink:href="#arrowLeft" x="0" y="0" onmousedown="handlePan(-1,0)"/>
</g>
<svg viewBox="0 0 15 15" width="100%" height="30px" preserveAspectRatio="xMaxYMin meet">
 <g id="arrow_out" transform="scale(0.3 0.3)">
  <a xlink:href="classCaService_a39ee849e0fefea467ca92bc71f5fe392_cgraph_org.svg" target="_base">
   <rect id="button" ry="5" rx="5" y="6" x="6" height="38" width="38"
        fill="#f2f5e9" fill-opacity="0.5" stroke="#606060" stroke-width="1.0"/>
   <path id="arrow"
     d="M 11.500037,31.436501 C 11.940474,20.09759 22.043105,11.32322 32.158766,21.979434 L 37.068811,17.246167 C 37.068811,17.246167 37.088388,32 37.088388,32 L 22.160133,31.978069 C 22.160133,31.978069 26.997745,27.140456 26.997745,27.140456 C 18.528582,18.264221 13.291696,25.230495 11.500037,31.436501 z"
     style="fill:#404040;"/>
  </a>
 </g>
</svg>

<style type='text/css'>
<![CDATA[
[data-mouse-over-selected='false'] { opacity: 0.7; }
[data-mouse-over-selected='true']  { opacity: 1.0; }
]]>
</style>
<script type="application/ecmascript"><![CDATA[
document.addEventListener('DOMContentLoaded', (event) => {
  highlightEdges();
  highlightAdjacentNodes();
});
]]></script>
</svg>
