<?xml version="1.0" encoding="UTF-8" standalone="no"?>
<!DOCTYPE svg PUBLIC "-//W3C//DTD SVG 1.1//EN"
 "http://www.w3.org/Graphics/SVG/1.1/DTD/svg11.dtd">
<!-- Generated by graphviz version 8.1.0 (20230707.0739)
 -->
<!-- Title: CaService::GetVehicleRole Pages: 1 -->
<svg width="723pt" height="204pt"
 viewBox="0.00 0.00 723.00 204.00" xmlns="http://www.w3.org/2000/svg" xmlns:xlink="http://www.w3.org/1999/xlink">
<g id="graph0" class="graph" transform="scale(1 1) rotate(0) translate(4 200)">
<title>CaService::GetVehicleRole</title>
<!-- Node1 -->
<g id="Node000001" class="node">
<title>Node1</title>
<g id="a_Node000001"><a xlink:title=" ">
<polygon fill="#999999" stroke="#666666" points="133,-108 0,-108 0,-88 133,-88 133,-108"/>
<text text-anchor="middle" x="66.5" y="-94.5" font-family="Helvetica,sans-Serif" font-size="10.00">CaService::GetVehicleRole</text>
</a>
</g>
</g>
<!-- Node2 -->
<g id="Node000002" class="node">
<title>Node2</title>
<g id="a_Node000002"><a xlink:href="../../dc/d72/classCaService.html#a7105f7ab694ddaea0197a56de24b73b3" target="_top" xlink:title=" ">
<polygon fill="white" stroke="#666666" points="302,-108 169,-108 169,-88 302,-88 302,-108"/>
<text text-anchor="middle" x="235.5" y="-94.5" font-family="Helvetica,sans-Serif" font-size="10.00">CaService::GetStationType</text>
</a>
</g>
</g>
<!-- Node1&#45;&gt;Node2 -->
<g id="edge1_Node000001_Node000002" class="edge">
<title>Node1&#45;&gt;Node2</title>
<g id="a_edge1_Node000001_Node000002"><a xlink:title=" ">
<path fill="none" stroke="#63b8ff" d="M133.02,-98C141.16,-98 149.53,-98 157.81,-98"/>
<polygon fill="#63b8ff" stroke="#63b8ff" points="157.62,-101.5 167.62,-98 157.62,-94.5 157.62,-101.5"/>
</a>
</g>
</g>
<!-- Node3 -->
<g id="Node000003" class="node">
<title>Node3</title>
<g id="a_Node000003"><a xlink:href="../../dc/d84/classUCarlaEpisode.html#a4d0c7a09f4d9de8110605e10125a93aa" target="_top" xlink:title="Find a Carla actor by id.">
<polygon fill="white" stroke="#666666" points="492,-196 364.25,-196 364.25,-164 492,-164 492,-196"/>
<text text-anchor="start" x="372.25" y="-182.5" font-family="Helvetica,sans-Serif" font-size="10.00">UCarlaEpisode::FindCarla</text>
<text text-anchor="middle" x="428.12" y="-170.5" font-family="Helvetica,sans-Serif" font-size="10.00">Actor</text>
</a>
</g>
</g>
<!-- Node2&#45;&gt;Node3 -->
<g id="edge2_Node000002_Node000003" class="edge">
<title>Node2&#45;&gt;Node3</title>
<g id="a_edge2_Node000002_Node000003"><a xlink:title=" ">
<path fill="none" stroke="#63b8ff" d="M252.08,-108.31C271.51,-120.79 306.07,-141.78 338,-155 343.07,-157.1 348.37,-159.08 353.75,-160.94"/>
<polygon fill="#63b8ff" stroke="#63b8ff" points="352.56,-164.57 363.15,-164.37 354.75,-157.92 352.56,-164.57"/>
</a>
</g>
</g>
<!-- Node4 -->
<g id="Node000004" class="node">
<title>Node4</title>
<g id="a_Node000004"><a xlink:href="../../dc/dde/classFCarlaActor.html#ac9a28cdf1b57b3bf280270d40f53359a" target="_top" xlink:title=" ">
<polygon fill="white" stroke="#666666" points="492,-146 364.25,-146 364.25,-126 492,-126 492,-146"/>
<text text-anchor="middle" x="428.12" y="-132.5" font-family="Helvetica,sans-Serif" font-size="10.00">FCarlaActor::GetActorInfo</text>
</a>
</g>
</g>
<!-- Node2&#45;&gt;Node4 -->
<g id="edge3_Node000002_Node000004" class="edge">
<title>Node2&#45;&gt;Node4</title>
<g id="a_edge3_Node000002_Node000004"><a xlink:title=" ">
<path fill="none" stroke="#63b8ff" d="M289.09,-108.48C312.33,-113.12 339.83,-118.6 364.14,-123.44"/>
<polygon fill="#63b8ff" stroke="#63b8ff" points="363.21,-127.03 373.7,-125.55 364.58,-120.16 363.21,-127.03"/>
</a>
</g>
</g>
<!-- Node5 -->
<g id="Node000005" class="node">
<title>Node5</title>
<g id="a_Node000005"><a xlink:href="../../dc/dde/classFCarlaActor.html#a31ab39eb2088af21d9c85c47424f56b4" target="_top" xlink:title=" ">
<polygon fill="white" stroke="#666666" points="495,-108 361.25,-108 361.25,-88 495,-88 495,-108"/>
<text text-anchor="middle" x="428.12" y="-94.5" font-family="Helvetica,sans-Serif" font-size="10.00">FCarlaActor::GetActorType</text>
</a>
</g>
</g>
<!-- Node2&#45;&gt;Node5 -->
<g id="edge4_Node000002_Node000005" class="edge">
<title>Node2&#45;&gt;Node5</title>
<g id="a_edge4_Node000002_Node000005"><a xlink:title=" ">
<path fill="none" stroke="#63b8ff" d="M302.37,-98C317.76,-98 334.28,-98 350.11,-98"/>
<polygon fill="#63b8ff" stroke="#63b8ff" points="349.93,-101.5 359.93,-98 349.93,-94.5 349.93,-101.5"/>
</a>
</g>
</g>
<!-- Node6 -->
<g id="Node000006" class="node">
<title>Node6</title>
<g id="a_Node000006"><a xlink:href="../../d7/d1e/classUCarlaStatics.html#a83f2a341e32413abf1ec85ee740c2036" target="_top" xlink:title=" ">
<polygon fill="white" stroke="#666666" points="492.75,-70 363.5,-70 363.5,-38 492.75,-38 492.75,-70"/>
<text text-anchor="start" x="371.5" y="-56.5" font-family="Helvetica,sans-Serif" font-size="10.00">UCarlaStatics::GetCurrent</text>
<text text-anchor="middle" x="428.12" y="-44.5" font-family="Helvetica,sans-Serif" font-size="10.00">Episode</text>
</a>
</g>
</g>
<!-- Node2&#45;&gt;Node6 -->
<g id="edge5_Node000002_Node000006" class="edge">
<title>Node2&#45;&gt;Node6</title>
<g id="a_edge5_Node000002_Node000006"><a xlink:title=" ">
<path fill="none" stroke="#63b8ff" d="M281.68,-87.57C302.87,-82.68 328.69,-76.72 352.66,-71.19"/>
<polygon fill="#63b8ff" stroke="#63b8ff" points="353.2,-74.42 362.16,-68.76 351.63,-67.6 353.2,-74.42"/>
</a>
</g>
</g>
<!-- Node8 -->
<g id="Node000008" class="node">
<title>Node8</title>
<g id="a_Node000008"><a xlink:href="../../da/d86/classATagger.html#a1fbf1e4054acac5814c5521796a410a2" target="_top" xlink:title="Retrieve the tag of an already tagged component.">
<polygon fill="white" stroke="#666666" points="518.25,-20 338,-20 338,0 518.25,0 518.25,-20"/>
<text text-anchor="middle" x="428.12" y="-6.5" font-family="Helvetica,sans-Serif" font-size="10.00">ATagger::GetTagOfTaggedComponent</text>
</a>
</g>
</g>
<!-- Node2&#45;&gt;Node8 -->
<g id="edge7_Node000002_Node000008" class="edge">
<title>Node2&#45;&gt;Node8</title>
<g id="a_edge7_Node000002_Node000008"><a xlink:title=" ">
<path fill="none" stroke="#63b8ff" d="M248.4,-87.6C266.48,-72.37 302.53,-44.14 338,-29 342.75,-26.97 347.74,-25.15 352.83,-23.52"/>
<polygon fill="#63b8ff" stroke="#63b8ff" points="353.76,-26.6 362.37,-20.43 351.79,-19.88 353.76,-26.6"/>
</a>
</g>
</g>
<!-- Node7 -->
<g id="Node000007" class="node">
<title>Node7</title>
<g id="a_Node000007"><a xlink:href="../../d7/d1e/classUCarlaStatics.html#a35e7cb760a58848081a618e7fa8201e2" target="_top" xlink:title=" ">
<polygon fill="white" stroke="#666666" points="715,-64 554.25,-64 554.25,-44 715,-44 715,-64"/>
<text text-anchor="middle" x="634.62" y="-50.5" font-family="Helvetica,sans-Serif" font-size="10.00">UCarlaStatics::GetGameInstance</text>
</a>
</g>
</g>
<!-- Node6&#45;&gt;Node7 -->
<g id="edge6_Node000006_Node000007" class="edge">
<title>Node6&#45;&gt;Node7</title>
<g id="a_edge6_Node000006_Node000007"><a xlink:title=" ">
<path fill="none" stroke="#63b8ff" d="M492.99,-54C509,-54 526.48,-54 543.51,-54"/>
<polygon fill="#63b8ff" stroke="#63b8ff" points="543.04,-57.5 553.04,-54 543.04,-50.5 543.04,-57.5"/>
</a>
</g>
</g>
</g>
</svg>
