<?xml version="1.0" encoding="UTF-8" standalone="no"?>
<!DOCTYPE svg PUBLIC "-//W3C//DTD SVG 1.1//EN"
 "http://www.w3.org/Graphics/SVG/1.1/DTD/svg11.dtd">
<!-- Generated by graphviz version 8.1.0 (20230707.0739)
 -->
<!-- Title: FEnvironmentObject Pages: 1 -->
<svg width="456pt" height="301pt"
 viewBox="0.00 0.00 455.75 301.00" xmlns="http://www.w3.org/2000/svg" xmlns:xlink="http://www.w3.org/1999/xlink">
<g id="graph0" class="graph" transform="scale(1 1) rotate(0) translate(4 297)">
<title>FEnvironmentObject</title>
<!-- Node1 -->
<g id="Node000001" class="node">
<title>Node1</title>
<g id="a_Node000001"><a xlink:title=" ">
<polygon fill="#999999" stroke="#666666" points="447.75,-153 344,-153 344,-133 447.75,-133 447.75,-153"/>
<text text-anchor="middle" x="395.88" y="-139.5" font-family="Helvetica,sans-Serif" font-size="10.00">FEnvironmentObject</text>
</a>
</g>
</g>
<!-- Node2 -->
<g id="Node000002" class="node">
<title>Node2</title>
<g id="a_Node000002"><a xlink:title=" ">
<polygon fill="white" stroke="#666666" points="214.25,-293 161.5,-293 161.5,-273 214.25,-273 214.25,-293"/>
<text text-anchor="middle" x="187.88" y="-279.5" font-family="Helvetica,sans-Serif" font-size="10.00">AActor *</text>
</a>
</g>
</g>
<!-- Node2&#45;&gt;Node1 -->
<g id="edge1_Node000001_Node000002" class="edge">
<title>Node2&#45;&gt;Node1</title>
<g id="a_edge1_Node000001_Node000002"><a xlink:title=" ">
<path fill="none" stroke="#9a32cd" stroke-dasharray="5,2" d="M225.41,-281.57C254.95,-278.79 296.35,-271.06 326,-250 361.48,-224.8 383.14,-175.02 391.24,-153.42"/>
<polygon fill="#9a32cd" stroke="#9a32cd" points="225.41,-278.14 215.72,-282.41 225.96,-285.11 225.41,-278.14"/>
</a>
</g>
<text text-anchor="middle" x="295.62" y="-276.5" font-family="Helvetica,sans-Serif" font-size="10.00" fill="grey"> Actor</text>
</g>
<!-- Node3 -->
<g id="Node000003" class="node">
<title>Node3</title>
<g id="a_Node000003"><a xlink:title=" ">
<polygon fill="white" stroke="#666666" points="211.62,-248 164.12,-248 164.12,-228 211.62,-228 211.62,-248"/>
<text text-anchor="middle" x="187.88" y="-234.5" font-family="Helvetica,sans-Serif" font-size="10.00">FString</text>
</a>
</g>
</g>
<!-- Node3&#45;&gt;Node1 -->
<g id="edge2_Node000001_Node000003" class="edge">
<title>Node3&#45;&gt;Node1</title>
<g id="a_edge2_Node000001_Node000003"><a xlink:title=" ">
<path fill="none" stroke="#9a32cd" stroke-dasharray="5,2" d="M222.53,-233.13C251.25,-228.02 293.01,-218.25 326,-201 350.11,-188.4 373.26,-166.13 385.62,-153.16"/>
<polygon fill="#9a32cd" stroke="#9a32cd" points="222.11,-229.82 212.83,-234.93 223.27,-236.73 222.11,-229.82"/>
</a>
</g>
<text text-anchor="middle" x="295.62" y="-236.5" font-family="Helvetica,sans-Serif" font-size="10.00" fill="grey"> IdStr</text>
<text text-anchor="middle" x="295.62" y="-224.5" font-family="Helvetica,sans-Serif" font-size="10.00" fill="grey">Name</text>
</g>
<!-- Node4 -->
<g id="Node000004" class="node">
<title>Node4</title>
<g id="a_Node000004"><a xlink:title=" ">
<polygon fill="white" stroke="#666666" points="220.25,-210 155.5,-210 155.5,-190 220.25,-190 220.25,-210"/>
<text text-anchor="middle" x="187.88" y="-196.5" font-family="Helvetica,sans-Serif" font-size="10.00">FTransform</text>
</a>
</g>
</g>
<!-- Node4&#45;&gt;Node1 -->
<g id="edge3_Node000001_Node000004" class="edge">
<title>Node4&#45;&gt;Node1</title>
<g id="a_edge3_Node000001_Node000004"><a xlink:title=" ">
<path fill="none" stroke="#9a32cd" stroke-dasharray="5,2" d="M231.31,-192.52C258.63,-187.26 294.74,-179.48 326,-170 341.24,-165.38 357.88,-158.9 370.98,-153.45"/>
<polygon fill="#9a32cd" stroke="#9a32cd" points="230.73,-189.25 221.55,-194.54 232.03,-196.13 230.73,-189.25"/>
</a>
</g>
<text text-anchor="middle" x="295.62" y="-187.5" font-family="Helvetica,sans-Serif" font-size="10.00" fill="grey"> Transform</text>
</g>
<!-- Node5 -->
<g id="Node000005" class="node">
<title>Node5</title>
<g id="a_Node000005"><a xlink:href="../../d5/d4d/structFBoundingBox.html" target="_top" xlink:title=" ">
<polygon fill="white" stroke="#666666" points="227.75,-172 148,-172 148,-152 227.75,-152 227.75,-172"/>
<text text-anchor="middle" x="187.88" y="-158.5" font-family="Helvetica,sans-Serif" font-size="10.00">FBoundingBox</text>
</a>
</g>
</g>
<!-- Node5&#45;&gt;Node1 -->
<g id="edge4_Node000001_Node000005" class="edge">
<title>Node5&#45;&gt;Node1</title>
<g id="a_edge4_Node000001_Node000005"><a xlink:title=" ">
<path fill="none" stroke="#9a32cd" stroke-dasharray="5,2" d="M238.93,-157.38C270.7,-154.45 311.71,-150.67 343.7,-147.72"/>
<polygon fill="#9a32cd" stroke="#9a32cd" points="238.74,-153.98 229.11,-158.38 239.39,-160.95 238.74,-153.98"/>
</a>
</g>
<text text-anchor="middle" x="295.62" y="-156.5" font-family="Helvetica,sans-Serif" font-size="10.00" fill="grey"> BoundingBox</text>
</g>
<!-- Node6 -->
<g id="Node000006" class="node">
<title>Node6</title>
<g id="a_Node000006"><a xlink:title=" ">
<polygon fill="white" stroke="#666666" points="52,-191 1.5,-191 1.5,-171 52,-171 52,-191"/>
<text text-anchor="middle" x="26.75" y="-177.5" font-family="Helvetica,sans-Serif" font-size="10.00">FVector</text>
</a>
</g>
</g>
<!-- Node6&#45;&gt;Node5 -->
<g id="edge5_Node000005_Node000006" class="edge">
<title>Node6&#45;&gt;Node5</title>
<g id="a_edge5_Node000005_Node000006"><a xlink:title=" ">
<path fill="none" stroke="#9a32cd" stroke-dasharray="5,2" d="M63.13,-176.78C88.22,-173.78 121.89,-169.76 147.77,-166.67"/>
<polygon fill="#9a32cd" stroke="#9a32cd" points="62.78,-173.41 53.26,-178.07 63.61,-180.36 62.78,-173.41"/>
</a>
</g>
<text text-anchor="middle" x="91" y="-189.5" font-family="Helvetica,sans-Serif" font-size="10.00" fill="grey"> Extent</text>
<text text-anchor="middle" x="91" y="-177.5" font-family="Helvetica,sans-Serif" font-size="10.00" fill="grey">Origin</text>
</g>
<!-- Node7 -->
<g id="Node000007" class="node">
<title>Node7</title>
<g id="a_Node000007"><a xlink:title=" ">
<polygon fill="white" stroke="#666666" points="53.5,-153 0,-153 0,-133 53.5,-133 53.5,-153"/>
<text text-anchor="middle" x="26.75" y="-139.5" font-family="Helvetica,sans-Serif" font-size="10.00">FRotator</text>
</a>
</g>
</g>
<!-- Node7&#45;&gt;Node5 -->
<g id="edge6_Node000005_Node000007" class="edge">
<title>Node7&#45;&gt;Node5</title>
<g id="a_edge6_Node000005_Node000007"><a xlink:title=" ">
<path fill="none" stroke="#9a32cd" stroke-dasharray="5,2" d="M64.48,-147.39C89.35,-150.36 122.17,-154.27 147.56,-157.31"/>
<polygon fill="#9a32cd" stroke="#9a32cd" points="65.01,-143.81 54.67,-146.09 64.18,-150.76 65.01,-143.81"/>
</a>
</g>
<text text-anchor="middle" x="91" y="-154.5" font-family="Helvetica,sans-Serif" font-size="10.00" fill="grey"> Rotation</text>
</g>
<!-- Node8 -->
<g id="Node000008" class="node">
<title>Node8</title>
<g id="a_Node000008"><a xlink:title=" ">
<polygon fill="white" stroke="#666666" points="209,-134 166.75,-134 166.75,-114 209,-114 209,-134"/>
<text text-anchor="middle" x="187.88" y="-120.5" font-family="Helvetica,sans-Serif" font-size="10.00">uint64</text>
</a>
</g>
</g>
<!-- Node8&#45;&gt;Node1 -->
<g id="edge7_Node000001_Node000008" class="edge">
<title>Node8&#45;&gt;Node1</title>
<g id="a_edge7_Node000001_Node000008"><a xlink:title=" ">
<path fill="none" stroke="#9a32cd" stroke-dasharray="5,2" d="M220.02,-125.34C247.85,-126.71 289.71,-129.18 326,-133 331.77,-133.61 337.79,-134.34 343.78,-135.13"/>
<polygon fill="#9a32cd" stroke="#9a32cd" points="220.52,-121.82 210.36,-124.84 220.19,-128.81 220.52,-121.82"/>
</a>
</g>
<text text-anchor="middle" x="295.62" y="-135.5" font-family="Helvetica,sans-Serif" font-size="10.00" fill="grey"> Id</text>
</g>
<!-- Node9 -->
<g id="Node000009" class="node">
<title>Node9</title>
<g id="a_Node000009"><a xlink:title=" ">
<polygon fill="white" stroke="#666666" points="247.25,-96 128.5,-96 128.5,-76 247.25,-76 247.25,-96"/>
<text text-anchor="middle" x="187.88" y="-82.5" font-family="Helvetica,sans-Serif" font-size="10.00">EnvironmentObjectType</text>
</a>
</g>
</g>
<!-- Node9&#45;&gt;Node1 -->
<g id="edge8_Node000001_Node000009" class="edge">
<title>Node9&#45;&gt;Node1</title>
<g id="a_edge8_Node000001_Node000009"><a xlink:title=" ">
<path fill="none" stroke="#9a32cd" stroke-dasharray="5,2" d="M258.3,-95.13C280.24,-98.95 304.4,-104.14 326,-111 343.47,-116.55 362.27,-125.51 375.81,-132.53"/>
<polygon fill="#9a32cd" stroke="#9a32cd" points="259.16,-91.56 248.72,-93.36 258.01,-98.46 259.16,-91.56"/>
</a>
</g>
<text text-anchor="middle" x="295.62" y="-113.5" font-family="Helvetica,sans-Serif" font-size="10.00" fill="grey"> Type</text>
</g>
<!-- Node10 -->
<g id="Node000010" class="node">
<title>Node10</title>
<g id="a_Node000010"><a xlink:title=" ">
<polygon fill="white" stroke="#666666" points="230.38,-58 145.38,-58 145.38,-38 230.38,-38 230.38,-58"/>
<text text-anchor="middle" x="187.88" y="-44.5" font-family="Helvetica,sans-Serif" font-size="10.00">CityObjectLabel</text>
</a>
</g>
</g>
<!-- Node10&#45;&gt;Node1 -->
<g id="edge9_Node000001_Node000010" class="edge">
<title>Node10&#45;&gt;Node1</title>
<g id="a_edge9_Node000001_Node000010"><a xlink:title=" ">
<path fill="none" stroke="#9a32cd" stroke-dasharray="5,2" d="M241.28,-54.36C267.79,-59.09 299.81,-67.22 326,-81 351.34,-94.34 374.74,-119.1 386.65,-132.96"/>
<polygon fill="#9a32cd" stroke="#9a32cd" points="242.11,-50.78 231.67,-52.59 240.96,-57.68 242.11,-50.78"/>
</a>
</g>
<text text-anchor="middle" x="295.62" y="-83.5" font-family="Helvetica,sans-Serif" font-size="10.00" fill="grey"> ObjectLabel</text>
</g>
<!-- Node11 -->
<g id="Node000011" class="node">
<title>Node11</title>
<g id="a_Node000011"><a xlink:title=" ">
<polygon fill="white" stroke="#666666" points="204.88,-20 170.88,-20 170.88,0 204.88,0 204.88,-20"/>
<text text-anchor="middle" x="187.88" y="-6.5" font-family="Helvetica,sans-Serif" font-size="10.00">bool</text>
</a>
</g>
</g>
<!-- Node11&#45;&gt;Node1 -->
<g id="edge10_Node000001_Node000011" class="edge">
<title>Node11&#45;&gt;Node1</title>
<g id="a_edge10_Node000001_Node000011"><a xlink:title=" ">
<path fill="none" stroke="#9a32cd" stroke-dasharray="5,2" d="M215.84,-11.39C245.26,-14.08 292.62,-21.96 326,-45 359.2,-67.91 381.64,-112.38 390.56,-132.57"/>
<polygon fill="#9a32cd" stroke="#9a32cd" points="216.39,-7.85 206.15,-10.57 215.85,-14.83 216.39,-7.85"/>
</a>
</g>
<text text-anchor="middle" x="295.62" y="-47.5" font-family="Helvetica,sans-Serif" font-size="10.00" fill="grey"> CanTick</text>
</g>
</g>
</svg>
