<?xml version="1.0" encoding="UTF-8" standalone="no"?>
<!DOCTYPE svg PUBLIC "-//W3C//DTD SVG 1.1//EN"
 "http://www.w3.org/Graphics/SVG/1.1/DTD/svg11.dtd">
<!-- Generated by graphviz version 8.1.0 (20230707.0739)
 -->
<!-- Title: LaneMarking.cpp Pages: 1 -->
<svg width="637pt" height="300pt"
 viewBox="0.00 0.00 636.88 300.00" xmlns="http://www.w3.org/2000/svg" xmlns:xlink="http://www.w3.org/1999/xlink">
<g id="graph0" class="graph" transform="scale(1 1) rotate(0) translate(4 296)">
<title>LaneMarking.cpp</title>
<!-- Node1 -->
<g id="Node000001" class="node">
<title>Node1</title>
<g id="a_Node000001"><a xlink:title=" ">
<polygon fill="#999999" stroke="#666666" points="259.25,-292 169,-292 169,-272 259.25,-272 259.25,-292"/>
<text text-anchor="middle" x="214.12" y="-278.5" font-family="Helvetica,sans-Serif" font-size="10.00">LaneMarking.cpp</text>
</a>
</g>
</g>
<!-- Node2 -->
<g id="Node000002" class="node">
<title>Node2</title>
<g id="a_Node000002"><a xlink:href="../../d5/d4c/LaneMarking_8h.html" target="_top" xlink:title=" ">
<polygon fill="white" stroke="#666666" points="96.25,-236 0,-236 0,-204 96.25,-204 96.25,-236"/>
<text text-anchor="start" x="8" y="-222.5" font-family="Helvetica,sans-Serif" font-size="10.00">carla/road/element</text>
<text text-anchor="middle" x="48.12" y="-210.5" font-family="Helvetica,sans-Serif" font-size="10.00">/LaneMarking.h</text>
</a>
</g>
</g>
<!-- Node1&#45;&gt;Node2 -->
<g id="edge1_Node000001_Node000002" class="edge">
<title>Node1&#45;&gt;Node2</title>
<g id="a_edge1_Node000001_Node000002"><a xlink:title=" ">
<path fill="none" stroke="#63b8ff" d="M188.19,-271.62C164.94,-263.22 130.12,-250.64 101.01,-240.12"/>
<polygon fill="#63b8ff" stroke="#63b8ff" points="102.58,-236.6 91.98,-236.49 100.2,-243.18 102.58,-236.6"/>
</a>
</g>
</g>
<!-- Node5 -->
<g id="Node000005" class="node">
<title>Node5</title>
<g id="a_Node000005"><a xlink:href="../../d8/d8a/Exception_8h.html" target="_top" xlink:title=" ">
<polygon fill="white" stroke="#666666" points="206,-230 114.25,-230 114.25,-210 206,-210 206,-230"/>
<text text-anchor="middle" x="160.12" y="-216.5" font-family="Helvetica,sans-Serif" font-size="10.00">carla/Exception.h</text>
</a>
</g>
</g>
<!-- Node1&#45;&gt;Node5 -->
<g id="edge4_Node000001_Node000005" class="edge">
<title>Node1&#45;&gt;Node5</title>
<g id="a_edge4_Node000001_Node000005"><a xlink:title=" ">
<path fill="none" stroke="#63b8ff" d="M205.69,-271.62C197.64,-262.68 185.32,-248.99 175.52,-238.1"/>
<polygon fill="#63b8ff" stroke="#63b8ff" points="178.62,-236.2 169.33,-231.11 173.41,-240.89 178.62,-236.2"/>
</a>
</g>
</g>
<!-- Node6 -->
<g id="Node000006" class="node">
<title>Node6</title>
<g id="a_Node000006"><a xlink:href="../../d2/d69/StringUtil_8h.html" target="_top" xlink:title=" ">
<polygon fill="white" stroke="#666666" points="312.12,-230 224.12,-230 224.12,-210 312.12,-210 312.12,-230"/>
<text text-anchor="middle" x="268.12" y="-216.5" font-family="Helvetica,sans-Serif" font-size="10.00">carla/StringUtil.h</text>
</a>
</g>
</g>
<!-- Node1&#45;&gt;Node6 -->
<g id="edge5_Node000001_Node000006" class="edge">
<title>Node1&#45;&gt;Node6</title>
<g id="a_edge5_Node000001_Node000006"><a xlink:title=" ">
<path fill="none" stroke="#63b8ff" d="M222.56,-271.62C230.61,-262.68 242.93,-248.99 252.73,-238.1"/>
<polygon fill="#63b8ff" stroke="#63b8ff" points="254.84,-240.89 258.92,-231.11 249.63,-236.2 254.84,-240.89"/>
</a>
</g>
</g>
<!-- Node8 -->
<g id="Node000008" class="node">
<title>Node8</title>
<g id="a_Node000008"><a xlink:href="../../dd/d32/RoadInfoMarkRecord_8h.html" target="_top" xlink:title=" ">
<polygon fill="white" stroke="#666666" points="461.75,-236 344.5,-236 344.5,-204 461.75,-204 461.75,-236"/>
<text text-anchor="start" x="352.5" y="-222.5" font-family="Helvetica,sans-Serif" font-size="10.00">carla/road/element</text>
<text text-anchor="middle" x="403.12" y="-210.5" font-family="Helvetica,sans-Serif" font-size="10.00">/RoadInfoMarkRecord.h</text>
</a>
</g>
</g>
<!-- Node1&#45;&gt;Node8 -->
<g id="edge7_Node000001_Node000008" class="edge">
<title>Node1&#45;&gt;Node8</title>
<g id="a_edge7_Node000001_Node000008"><a xlink:title=" ">
<path fill="none" stroke="#63b8ff" d="M243.66,-271.62C270.47,-263.11 310.81,-250.31 344.21,-239.7"/>
<polygon fill="#63b8ff" stroke="#63b8ff" points="344.86,-242.85 353.33,-236.49 342.74,-236.18 344.86,-242.85"/>
</a>
</g>
</g>
<!-- Node3 -->
<g id="Node000003" class="node">
<title>Node3</title>
<g id="a_Node000003"><a xlink:title=" ">
<polygon fill="#e0e0e0" stroke="#999999" points="45.75,-162 0.5,-162 0.5,-142 45.75,-142 45.75,-162"/>
<text text-anchor="middle" x="23.12" y="-148.5" font-family="Helvetica,sans-Serif" font-size="10.00">cstdint</text>
</a>
</g>
</g>
<!-- Node2&#45;&gt;Node3 -->
<g id="edge2_Node000002_Node000003" class="edge">
<title>Node2&#45;&gt;Node3</title>
<g id="a_edge2_Node000002_Node000003"><a xlink:title=" ">
<path fill="none" stroke="#63b8ff" d="M42.33,-203.69C38.81,-194.4 34.28,-182.44 30.5,-172.47"/>
<polygon fill="#63b8ff" stroke="#63b8ff" points="33.47,-171.43 26.65,-163.32 26.92,-173.91 33.47,-171.43"/>
</a>
</g>
</g>
<!-- Node4 -->
<g id="Node000004" class="node">
<title>Node4</title>
<g id="a_Node000004"><a xlink:title=" ">
<polygon fill="#e0e0e0" stroke="#999999" points="278.12,-26 238.12,-26 238.12,-6 278.12,-6 278.12,-26"/>
<text text-anchor="middle" x="258.12" y="-12.5" font-family="Helvetica,sans-Serif" font-size="10.00">string</text>
</a>
</g>
</g>
<!-- Node2&#45;&gt;Node4 -->
<g id="edge3_Node000002_Node000004" class="edge">
<title>Node2&#45;&gt;Node4</title>
<g id="a_edge3_Node000002_Node000004"><a xlink:title=" ">
<path fill="none" stroke="#63b8ff" d="M53.97,-203.65C61.24,-185.96 74.94,-156.68 93.12,-136 133.74,-89.82 195.44,-51.41 230.75,-31.56"/>
<polygon fill="#63b8ff" stroke="#63b8ff" points="231.92,-34.36 238.97,-26.46 228.53,-28.24 231.92,-34.36"/>
</a>
</g>
</g>
<!-- Node7 -->
<g id="Node000007" class="node">
<title>Node7</title>
<g id="a_Node000007"><a xlink:title=" ">
<polygon fill="#e0e0e0" stroke="#999999" points="230.38,-162 101.88,-162 101.88,-142 230.38,-142 230.38,-162"/>
<text text-anchor="middle" x="166.12" y="-148.5" font-family="Helvetica,sans-Serif" font-size="10.00">boost/algorithm/string.hpp</text>
</a>
</g>
</g>
<!-- Node6&#45;&gt;Node7 -->
<g id="edge6_Node000006_Node000007" class="edge">
<title>Node6&#45;&gt;Node7</title>
<g id="a_edge6_Node000006_Node000007"><a xlink:title=" ">
<path fill="none" stroke="#63b8ff" d="M253.51,-209.54C236.92,-198.81 209.62,-181.14 189.94,-168.41"/>
<polygon fill="#63b8ff" stroke="#63b8ff" points="192.01,-164.93 181.71,-162.44 188.21,-170.81 192.01,-164.93"/>
</a>
</g>
</g>
<!-- Node8&#45;&gt;Node4 -->
<g id="edge17_Node000008_Node000004" class="edge">
<title>Node8&#45;&gt;Node4</title>
<g id="a_edge17_Node000008_Node000004"><a xlink:title=" ">
<path fill="none" stroke="#63b8ff" d="M344.32,-208.82C319.84,-201.55 293.38,-189.14 277.12,-168 247.54,-129.54 250.62,-68.57 254.73,-37.16"/>
<polygon fill="#63b8ff" stroke="#63b8ff" points="258.33,-37.75 256.34,-27.34 251.41,-36.71 258.33,-37.75"/>
</a>
</g>
</g>
<!-- Node9 -->
<g id="Node000009" class="node">
<title>Node9</title>
<g id="a_Node000009"><a xlink:href="../../de/d3a/RoadInfo_8h.html" target="_top" xlink:title=" ">
<polygon fill="white" stroke="#666666" points="466.25,-100 370,-100 370,-68 466.25,-68 466.25,-100"/>
<text text-anchor="start" x="378" y="-86.5" font-family="Helvetica,sans-Serif" font-size="10.00">carla/road/element</text>
<text text-anchor="middle" x="418.12" y="-74.5" font-family="Helvetica,sans-Serif" font-size="10.00">/RoadInfo.h</text>
</a>
</g>
</g>
<!-- Node8&#45;&gt;Node9 -->
<g id="edge8_Node000008_Node000009" class="edge">
<title>Node8&#45;&gt;Node9</title>
<g id="a_edge8_Node000008_Node000009"><a xlink:title=" ">
<path fill="none" stroke="#63b8ff" d="M448.23,-203.58C464.4,-195.61 480.9,-184.1 490.12,-168 497.2,-155.66 496.66,-148.63 490.12,-136 483.8,-123.76 473.02,-113.83 461.71,-106.09"/>
<polygon fill="#63b8ff" stroke="#63b8ff" points="463.93,-102.72 453.6,-100.35 460.2,-108.64 463.93,-102.72"/>
</a>
</g>
</g>
<!-- Node13 -->
<g id="Node000013" class="node">
<title>Node13</title>
<g id="a_Node000013"><a xlink:title=" ">
<polygon fill="#e0e0e0" stroke="#999999" points="628.88,-26 587.38,-26 587.38,-6 628.88,-6 628.88,-26"/>
<text text-anchor="middle" x="608.12" y="-12.5" font-family="Helvetica,sans-Serif" font-size="10.00">vector</text>
</a>
</g>
</g>
<!-- Node8&#45;&gt;Node13 -->
<g id="edge18_Node000008_Node000013" class="edge">
<title>Node8&#45;&gt;Node13</title>
<g id="a_edge18_Node000008_Node000013"><a xlink:title=" ">
<path fill="none" stroke="#63b8ff" d="M446.21,-203.59C465.91,-195.13 488.7,-183.23 506.12,-168 550.45,-129.27 584.22,-67.07 599.37,-35.98"/>
<polygon fill="#63b8ff" stroke="#63b8ff" points="602.81,-37.9 603.94,-27.37 596.48,-34.9 602.81,-37.9"/>
</a>
</g>
</g>
<!-- Node14 -->
<g id="Node000014" class="node">
<title>Node14</title>
<g id="a_Node000014"><a xlink:href="../../da/d4f/RoadInfoMarkTypeLine_8h.html" target="_top" xlink:title=" ">
<polygon fill="white" stroke="#666666" points="480.88,-168 355.38,-168 355.38,-136 480.88,-136 480.88,-168"/>
<text text-anchor="start" x="363.38" y="-154.5" font-family="Helvetica,sans-Serif" font-size="10.00">carla/road/element</text>
<text text-anchor="middle" x="418.12" y="-142.5" font-family="Helvetica,sans-Serif" font-size="10.00">/RoadInfoMarkTypeLine.h</text>
</a>
</g>
</g>
<!-- Node8&#45;&gt;Node14 -->
<g id="edge14_Node000008_Node000014" class="edge">
<title>Node8&#45;&gt;Node14</title>
<g id="a_edge14_Node000008_Node000014"><a xlink:title=" ">
<path fill="none" stroke="#63b8ff" d="M406.6,-203.69C408.29,-196.28 410.36,-187.17 412.28,-178.74"/>
<polygon fill="#63b8ff" stroke="#63b8ff" points="415.86,-179.75 414.66,-169.22 409.04,-178.2 415.86,-179.75"/>
</a>
</g>
</g>
<!-- Node15 -->
<g id="Node000015" class="node">
<title>Node15</title>
<g id="a_Node000015"><a xlink:title=" ">
<polygon fill="#e0e0e0" stroke="#999999" points="337.75,-162 286.5,-162 286.5,-142 337.75,-142 337.75,-162"/>
<text text-anchor="middle" x="312.12" y="-148.5" font-family="Helvetica,sans-Serif" font-size="10.00">memory</text>
</a>
</g>
</g>
<!-- Node8&#45;&gt;Node15 -->
<g id="edge19_Node000008_Node000015" class="edge">
<title>Node8&#45;&gt;Node15</title>
<g id="a_edge19_Node000008_Node000015"><a xlink:title=" ">
<path fill="none" stroke="#63b8ff" d="M382.02,-203.69C367.55,-193.2 348.4,-179.31 333.81,-168.73"/>
<polygon fill="#63b8ff" stroke="#63b8ff" points="336.12,-165.35 325.97,-162.32 332.01,-171.02 336.12,-165.35"/>
</a>
</g>
</g>
<!-- Node9&#45;&gt;Node4 -->
<g id="edge12_Node000009_Node000004" class="edge">
<title>Node9&#45;&gt;Node4</title>
<g id="a_edge12_Node000009_Node000004"><a xlink:title=" ">
<path fill="none" stroke="#63b8ff" d="M375.17,-67.59C349.37,-58.01 316.04,-45.06 287.12,-32 286.53,-31.73 285.93,-31.45 285.32,-31.17"/>
<polygon fill="#63b8ff" stroke="#63b8ff" points="286.98,-27.6 276.46,-26.35 283.9,-33.89 286.98,-27.6"/>
</a>
</g>
</g>
<!-- Node10 -->
<g id="Node000010" class="node">
<title>Node10</title>
<g id="a_Node000010"><a xlink:href="../../d6/d67/RoadInfoVisitor_8h.html" target="_top" xlink:title=" ">
<polygon fill="white" stroke="#666666" points="445.25,-32 349,-32 349,0 445.25,0 445.25,-32"/>
<text text-anchor="start" x="357" y="-18.5" font-family="Helvetica,sans-Serif" font-size="10.00">carla/road/element</text>
<text text-anchor="middle" x="397.12" y="-6.5" font-family="Helvetica,sans-Serif" font-size="10.00">/RoadInfoVisitor.h</text>
</a>
</g>
</g>
<!-- Node9&#45;&gt;Node10 -->
<g id="edge9_Node000009_Node000010" class="edge">
<title>Node9&#45;&gt;Node10</title>
<g id="a_edge9_Node000009_Node000010"><a xlink:title=" ">
<path fill="none" stroke="#63b8ff" d="M413.25,-67.69C410.87,-60.2 407.93,-50.97 405.22,-42.45"/>
<polygon fill="#63b8ff" stroke="#63b8ff" points="408.34,-41.69 401.97,-33.22 401.67,-43.82 408.34,-41.69"/>
</a>
</g>
</g>
<!-- Node11 -->
<g id="Node000011" class="node">
<title>Node11</title>
<g id="a_Node000011"><a xlink:href="../../d4/dd8/LibCarla_2source_2carla_2NonCopyable_8h.html" target="_top" xlink:title=" ">
<polygon fill="white" stroke="#666666" points="569.12,-26 463.12,-26 463.12,-6 569.12,-6 569.12,-26"/>
<text text-anchor="middle" x="516.12" y="-12.5" font-family="Helvetica,sans-Serif" font-size="10.00">carla/NonCopyable.h</text>
</a>
</g>
</g>
<!-- Node9&#45;&gt;Node11 -->
<g id="edge10_Node000009_Node000011" class="edge">
<title>Node9&#45;&gt;Node11</title>
<g id="a_edge10_Node000009_Node000011"><a xlink:title=" ">
<path fill="none" stroke="#63b8ff" d="M440.85,-67.69C456.59,-57.1 477.45,-43.05 493.22,-32.42"/>
<polygon fill="#63b8ff" stroke="#63b8ff" points="494.95,-34.81 501.29,-26.32 491.04,-29 494.95,-34.81"/>
</a>
</g>
</g>
<!-- Node12 -->
<g id="Node000012" class="node">
<title>Node12</title>
<g id="a_Node000012"><a xlink:title=" ">
<polygon fill="#e0e0e0" stroke="#999999" points="330.5,-26 295.75,-26 295.75,-6 330.5,-6 330.5,-26"/>
<text text-anchor="middle" x="313.12" y="-12.5" font-family="Helvetica,sans-Serif" font-size="10.00">map</text>
</a>
</g>
</g>
<!-- Node9&#45;&gt;Node12 -->
<g id="edge11_Node000009_Node000012" class="edge">
<title>Node9&#45;&gt;Node12</title>
<g id="a_edge11_Node000009_Node000012"><a xlink:title=" ">
<path fill="none" stroke="#63b8ff" d="M393.51,-67.53C376.58,-56.89 354.21,-42.83 337.37,-32.24"/>
<polygon fill="#63b8ff" stroke="#63b8ff" points="339.5,-28.82 329.18,-26.46 335.78,-34.75 339.5,-28.82"/>
</a>
</g>
</g>
<!-- Node9&#45;&gt;Node13 -->
<g id="edge13_Node000009_Node000013" class="edge">
<title>Node9&#45;&gt;Node13</title>
<g id="a_edge13_Node000009_Node000013"><a xlink:title=" ">
<path fill="none" stroke="#63b8ff" d="M466.42,-69.73C498.53,-60.39 541.39,-46.93 578.12,-32 579.02,-31.64 579.93,-31.25 580.84,-30.86"/>
<polygon fill="#63b8ff" stroke="#63b8ff" points="581.97,-33.73 589.57,-26.35 579.02,-27.38 581.97,-33.73"/>
</a>
</g>
</g>
<!-- Node14&#45;&gt;Node4 -->
<g id="edge16_Node000014_Node000004" class="edge">
<title>Node14&#45;&gt;Node4</title>
<g id="a_edge16_Node000014_Node000004"><a xlink:title=" ">
<path fill="none" stroke="#63b8ff" d="M399.77,-135.63C369.29,-110.1 308.51,-59.2 277.42,-33.16"/>
<polygon fill="#63b8ff" stroke="#63b8ff" points="280.05,-29.96 270.14,-26.22 275.56,-35.33 280.05,-29.96"/>
</a>
</g>
</g>
<!-- Node14&#45;&gt;Node9 -->
<g id="edge15_Node000014_Node000009" class="edge">
<title>Node14&#45;&gt;Node9</title>
<g id="a_edge15_Node000014_Node000009"><a xlink:title=" ">
<path fill="none" stroke="#63b8ff" d="M418.12,-135.69C418.12,-128.36 418.12,-119.38 418.12,-111.02"/>
<polygon fill="#63b8ff" stroke="#63b8ff" points="421.63,-111.22 418.12,-101.22 414.63,-111.22 421.63,-111.22"/>
</a>
</g>
</g>
</g>
</svg>
