<?xml version="1.0" encoding="UTF-8" standalone="no"?>
<!DOCTYPE svg PUBLIC "-//W3C//DTD SVG 1.1//EN"
 "http://www.w3.org/Graphics/SVG/1.1/DTD/svg11.dtd">
<!-- Generated by graphviz version 8.1.0 (20230707.0739)
 -->
<!-- Title: MapGen::FindPositionInNode Pages: 1 -->
<!--zoomable 140 -->

<svg id="main" version="1.1" xmlns="http://www.w3.org/2000/svg" xmlns:xlink="http://www.w3.org/1999/xlink" xml:space="preserve" onload="init(evt)">
<style type="text/css"><![CDATA[
.node, .edge {opacity: 0.7;}
.node.selected, .edge.selected {opacity: 1;}
.edge:hover path { stroke: red; }
.edge:hover polygon { stroke: red; fill: red; }
]]></style>

<defs>
  <circle id="rim" cx="0" cy="0" r="7"/>
  <circle id="rim2" cx="0" cy="0" r="3.5"/>
  <g id="zoomPlus">
    <use xlink:href="#rim" fill="#404040"><set attributeName="fill" to="#808080" begin="zoomplus.mouseover" end="zoomplus.mouseout"/></use>
    <path d="M-4,0h8M0,-4v8" fill="none" stroke="white" stroke-width="1.5" pointer-events="none"/>
  </g>
  <g id="zoomMin">
    <use xlink:href="#rim" fill="#404040"><set attributeName="fill" to="#808080" begin="zoomminus.mouseover" end="zoomminus.mouseout"/></use>
    <path d="M-4,0h8" fill="none" stroke="white" stroke-width="1.5" pointer-events="none"/>
  </g>
  <g id="arrowUp" transform="translate(30 24)">
    <use xlink:href="#rim"/>
    <path pointer-events="none" fill="none" stroke="white" stroke-width="1.5" d="M0,-3.0v7 M-2.5,-0.5L0,-3.0L2.5,-0.5"/>
  </g>
  <g id="arrowRight" transform="rotate(90) translate(36 -43)">
    <use xlink:href="#rim"/>
    <path pointer-events="none" fill="none" stroke="white" stroke-width="1.5" d="M0,-3.0v7 M-2.5,-0.5L0,-3.0L2.5,-0.5"/>
  </g>
  <g id="arrowDown" transform="rotate(180) translate(-30 -48)">
    <use xlink:href="#rim"/>
    <path pointer-events="none" fill="none" stroke="white" stroke-width="1.5" d="M0,-3.0v7 M-2.5,-0.5L0,-3.0L2.5,-0.5"/>
  </g>
  <g id="arrowLeft" transform="rotate(270) translate(-36 17)">
    <use xlink:href="#rim"/>
    <path pointer-events="none" fill="none" stroke="white" stroke-width="1.5" d="M0,-3.0v7 M-2.5,-0.5L0,-3.0L2.5,-0.5"/>
  </g>
  <g id="resetDef">
    <use xlink:href="#rim2" fill="#404040"><set attributeName="fill" to="#808080" begin="reset.mouseover" end="reset.mouseout"/></use>
  </g>
</defs>
<script type="application/ecmascript">
var viewWidth = 1070;
var viewHeight = 140;
var sectionId = 'dynsection-1';
</script>
<script type="application/ecmascript" xlink:href="../../svg.min.js"/>
<svg id="graph" class="graph">
<g id="viewport">
<title>MapGen::FindPositionInNode</title>
<!-- Node1 -->
<g id="Node000001" class="node">
<title>Node1</title>
<g id="a_Node000001"><a xlink:title="Return the pair {prev, next}, where prev/next is the previous/next edge counterclockwise around edge&#39;...">
<polygon fill="#999999" stroke="#666666" points="1061.5,-76 918.75,-76 918.75,-56 1061.5,-56 1061.5,-76"/>
<text text-anchor="middle" x="990.12" y="-62.5" font-family="Helvetica,sans-Serif" font-size="10.00">MapGen::FindPositionInNode</text>
</a>
</g>
</g>
<!-- Node2 -->
<g id="Node000002" class="node">
<title>Node2</title>
<g id="a_Node000002"><a xlink:href="../../d3/d57/classMapGen_1_1DoublyConnectedEdgeList.html#a14f0d15cf1acf1c405ca071f51750bcd" target="_top" xlink:title="{">
<polygon fill="white" stroke="#666666" points="882.75,-132 725,-132 725,-100 882.75,-100 882.75,-132"/>
<text text-anchor="start" x="733" y="-118.5" font-family="Helvetica,sans-Serif" font-size="10.00">MapGen::DoublyConnectedEdge</text>
<text text-anchor="middle" x="803.88" y="-106.5" font-family="Helvetica,sans-Serif" font-size="10.00">List::AddNode</text>
</a>
</g>
</g>
<!-- Node1&#45;&gt;Node2 -->
<g id="edge1_Node000001_Node000002" class="edge">
<title>Node1&#45;&gt;Node2</title>
<g id="a_edge1_Node000001_Node000002"><a xlink:title=" ">
<path fill="none" stroke="#63b8ff" d="M940.01,-79.33C917.14,-85.53 889.72,-92.98 865.57,-99.53"/>
<polygon fill="#63b8ff" stroke="#63b8ff" points="940.77,-82.48 949.5,-76.48 938.93,-75.72 940.77,-82.48"/>
</a>
</g>
</g>
<!-- Node3 -->
<g id="Node000003" class="node">
<title>Node3</title>
<g id="a_Node000003"><a xlink:href="../../d3/d57/classMapGen_1_1DoublyConnectedEdgeList.html#a1f79a55d59b75d36c5ad5bd76ae7c420" target="_top" xlink:title="Connect two nodes by a pair of edges.">
<polygon fill="white" stroke="#666666" points="882.75,-82 725,-82 725,-50 882.75,-50 882.75,-82"/>
<text text-anchor="start" x="733" y="-68.5" font-family="Helvetica,sans-Serif" font-size="10.00">MapGen::DoublyConnectedEdge</text>
<text text-anchor="middle" x="803.88" y="-56.5" font-family="Helvetica,sans-Serif" font-size="10.00">List::ConnectNodes</text>
</a>
</g>
</g>
<!-- Node1&#45;&gt;Node3 -->
<g id="edge2_Node000001_Node000003" class="edge">
<title>Node1&#45;&gt;Node3</title>
<g id="a_edge2_Node000001_Node000003"><a xlink:title=" ">
<path fill="none" stroke="#63b8ff" d="M907.45,-66C899.35,-66 891.13,-66 883.06,-66"/>
<polygon fill="#63b8ff" stroke="#63b8ff" points="907.42,-69.5 917.42,-66 907.42,-62.5 907.42,-69.5"/>
</a>
</g>
</g>
<!-- Node9 -->
<g id="Node000009" class="node">
<title>Node9</title>
<g id="a_Node000009"><a xlink:href="../../d3/d57/classMapGen_1_1DoublyConnectedEdgeList.html#af59d36c63351d9bcd715d5b26670b4b7" target="_top" xlink:title="Split HalfEdge (and its pair) at Position.">
<polygon fill="white" stroke="#666666" points="882.75,-32 725,-32 725,0 882.75,0 882.75,-32"/>
<text text-anchor="start" x="733" y="-18.5" font-family="Helvetica,sans-Serif" font-size="10.00">MapGen::DoublyConnectedEdge</text>
<text text-anchor="middle" x="803.88" y="-6.5" font-family="Helvetica,sans-Serif" font-size="10.00">List::SplitEdge</text>
</a>
</g>
</g>
<!-- Node1&#45;&gt;Node9 -->
<g id="edge8_Node000001_Node000009" class="edge">
<title>Node1&#45;&gt;Node9</title>
<g id="a_edge8_Node000001_Node000009"><a xlink:title=" ">
<path fill="none" stroke="#63b8ff" d="M940.01,-52.67C917.14,-46.47 889.72,-39.02 865.57,-32.47"/>
<polygon fill="#63b8ff" stroke="#63b8ff" points="938.93,-56.28 949.5,-55.52 940.77,-49.52 938.93,-56.28"/>
</a>
</g>
</g>
<!-- Node4 -->
<g id="Node000004" class="node">
<title>Node4</title>
<g id="a_Node000004"><a xlink:href="../../d2/de5/namespaceMapGen.html#a975b7ba69fe3408db8acadb9ebf288d9" target="_top" xlink:title=" ">
<polygon fill="white" stroke="#666666" points="689,-51 590.5,-51 590.5,-31 689,-31 689,-51"/>
<text text-anchor="middle" x="639.75" y="-37.5" font-family="Helvetica,sans-Serif" font-size="10.00">MapGen::splitFace</text>
</a>
</g>
</g>
<!-- Node3&#45;&gt;Node4 -->
<g id="edge3_Node000003_Node000004" class="edge">
<title>Node3&#45;&gt;Node4</title>
<g id="a_edge3_Node000003_Node000004"><a xlink:title=" ">
<path fill="none" stroke="#63b8ff" d="M713.85,-52.27C705.34,-50.96 696.95,-49.67 689.06,-48.45"/>
<polygon fill="#63b8ff" stroke="#63b8ff" points="713.25,-55.87 723.66,-53.94 714.31,-48.96 713.25,-55.87"/>
</a>
</g>
</g>
<!-- Node5 -->
<g id="Node000005" class="node">
<title>Node5</title>
<g id="a_Node000005"><a xlink:href="../../d2/de5/namespaceMapGen.html#a4163fb6b1450e8a10069d7bfb54796fe" target="_top" xlink:title=" ">
<polygon fill="white" stroke="#666666" points="554.5,-51 450.75,-51 450.75,-31 554.5,-31 554.5,-51"/>
<text text-anchor="middle" x="502.62" y="-37.5" font-family="Helvetica,sans-Serif" font-size="10.00">MapGen::randomize</text>
</a>
</g>
</g>
<!-- Node4&#45;&gt;Node5 -->
<g id="edge4_Node000004_Node000005" class="edge">
<title>Node4&#45;&gt;Node5</title>
<g id="a_edge4_Node000004_Node000005"><a xlink:title=" ">
<path fill="none" stroke="#63b8ff" d="M579.37,-41C571.21,-41 562.88,-41 554.88,-41"/>
<polygon fill="#63b8ff" stroke="#63b8ff" points="579.35,-44.5 589.35,-41 579.35,-37.5 579.35,-44.5"/>
</a>
</g>
</g>
<!-- Node6 -->
<g id="Node000006" class="node">
<title>Node6</title>
<g id="a_Node000006"><a xlink:href="../../dc/d79/classMapGen_1_1GraphGenerator.html#aa6c4299ca0d9ef55d4c7d2a2ac0eb5b0" target="_top" xlink:title="Create a squared DoublyConnectedEdgeList of size SizeX times SizeY and generate random connections in...">
<polygon fill="white" stroke="#666666" points="414.75,-57 287,-57 287,-25 414.75,-25 414.75,-57"/>
<text text-anchor="start" x="295" y="-43.5" font-family="Helvetica,sans-Serif" font-size="10.00">MapGen::GraphGenerator</text>
<text text-anchor="middle" x="350.88" y="-31.5" font-family="Helvetica,sans-Serif" font-size="10.00">::Generate</text>
</a>
</g>
</g>
<!-- Node5&#45;&gt;Node6 -->
<g id="edge5_Node000005_Node000006" class="edge">
<title>Node5&#45;&gt;Node6</title>
<g id="a_edge5_Node000005_Node000006"><a xlink:title=" ">
<path fill="none" stroke="#63b8ff" d="M439.66,-41C431.59,-41 423.31,-41 415.21,-41"/>
<polygon fill="#63b8ff" stroke="#63b8ff" points="439.51,-44.5 449.51,-41 439.51,-37.5 439.51,-44.5"/>
</a>
</g>
</g>
<!-- Node7 -->
<g id="Node000007" class="node">
<title>Node7</title>
<g id="a_Node000007"><a xlink:href="../../d1/ddb/classACityMapGenerator.html#a2b16ca4cb297f67893132bad83a2b4da" target="_top" xlink:title="Regenerate the DCEL.">
<polygon fill="white" stroke="#666666" points="251,-57 143.5,-57 143.5,-25 251,-25 251,-57"/>
<text text-anchor="start" x="151.5" y="-43.5" font-family="Helvetica,sans-Serif" font-size="10.00">ACityMapGenerator::</text>
<text text-anchor="middle" x="197.25" y="-31.5" font-family="Helvetica,sans-Serif" font-size="10.00">GenerateGraph</text>
</a>
</g>
</g>
<!-- Node6&#45;&gt;Node7 -->
<g id="edge6_Node000006_Node000007" class="edge">
<title>Node6&#45;&gt;Node7</title>
<g id="a_edge6_Node000006_Node000007"><a xlink:title=" ">
<path fill="none" stroke="#63b8ff" d="M275.94,-41C267.58,-41 259.18,-41 251.17,-41"/>
<polygon fill="#63b8ff" stroke="#63b8ff" points="275.89,-44.5 285.89,-41 275.89,-37.5 275.89,-44.5"/>
</a>
</g>
</g>
<!-- Node8 -->
<g id="Node000008" class="node">
<title>Node8</title>
<g id="a_Node000008"><a xlink:href="../../d1/ddb/classACityMapGenerator.html#a5ad53319596101e96076a12eab41b9c1" target="_top" xlink:title="Here does nothing, implement in derived classes.">
<polygon fill="white" stroke="#666666" points="107.5,-57 0,-57 0,-25 107.5,-25 107.5,-57"/>
<text text-anchor="start" x="8" y="-43.5" font-family="Helvetica,sans-Serif" font-size="10.00">ACityMapGenerator::</text>
<text text-anchor="middle" x="53.75" y="-31.5" font-family="Helvetica,sans-Serif" font-size="10.00">UpdateMap</text>
</a>
</g>
</g>
<!-- Node7&#45;&gt;Node8 -->
<g id="edge7_Node000007_Node000008" class="edge">
<title>Node7&#45;&gt;Node8</title>
<g id="a_edge7_Node000007_Node000008"><a xlink:title=" ">
<path fill="none" stroke="#63b8ff" d="M132.4,-41C124.13,-41 115.73,-41 107.67,-41"/>
<polygon fill="#63b8ff" stroke="#63b8ff" points="132.16,-44.5 142.16,-41 132.16,-37.5 132.16,-44.5"/>
</a>
</g>
</g>
<!-- Node9&#45;&gt;Node4 -->
<g id="edge9_Node000009_Node000004" class="edge">
<title>Node9&#45;&gt;Node4</title>
<g id="a_edge9_Node000009_Node000004"><a xlink:title=" ">
<path fill="none" stroke="#63b8ff" d="M713.85,-29.73C705.34,-31.04 696.95,-32.33 689.06,-33.55"/>
<polygon fill="#63b8ff" stroke="#63b8ff" points="714.31,-33.04 723.66,-28.06 713.25,-26.13 714.31,-33.04"/>
</a>
</g>
</g>
</g>
</svg>

<g id="navigator" transform="translate(0 0)" fill="#404254">
  <rect fill="#f2f5e9" fill-opacity="0.5" stroke="#606060" stroke-width=".5" x="0" y="0" width="60" height="60"/>
  <use id="zoomplus" xlink:href="#zoomPlus" x="17" y="9" onmousedown="handleZoom(evt,'in')"/>
  <use id="zoomminus" xlink:href="#zoomMin" x="42" y="9" onmousedown="handleZoom(evt,'out')"/>
  <use id="reset" xlink:href="#resetDef" x="30" y="36" onmousedown="handleReset()"/>
   <use id="arrowup" xlink:href="#arrowUp" x="0" y="0" onmousedown="handlePan(0,-1)"/>
  <use id="arrowright" xlink:href="#arrowRight" x="0" y="0" onmousedown="handlePan(1,0)"/>
  <use id="arrowdown" xlink:href="#arrowDown" x="0" y="0" onmousedown="handlePan(0,1)"/>
  <use id="arrowleft" xlink:href="#arrowLeft" x="0" y="0" onmousedown="handlePan(-1,0)"/>
</g>
<svg viewBox="0 0 15 15" width="100%" height="30px" preserveAspectRatio="xMaxYMin meet">
 <g id="arrow_out" transform="scale(0.3 0.3)">
  <a xlink:href="namespaceMapGen_a42712bbc8b13aab6cc42cf759ba55e75_icgraph_org.svg" target="_base">
   <rect id="button" ry="5" rx="5" y="6" x="6" height="38" width="38"
        fill="#f2f5e9" fill-opacity="0.5" stroke="#606060" stroke-width="1.0"/>
   <path id="arrow"
     d="M 11.500037,31.436501 C 11.940474,20.09759 22.043105,11.32322 32.158766,21.979434 L 37.068811,17.246167 C 37.068811,17.246167 37.088388,32 37.088388,32 L 22.160133,31.978069 C 22.160133,31.978069 26.997745,27.140456 26.997745,27.140456 C 18.528582,18.264221 13.291696,25.230495 11.500037,31.436501 z"
     style="fill:#404040;"/>
  </a>
 </g>
</svg>

<style type='text/css'>
<![CDATA[
[data-mouse-over-selected='false'] { opacity: 0.7; }
[data-mouse-over-selected='true']  { opacity: 1.0; }
]]>
</style>
<script type="application/ecmascript"><![CDATA[
document.addEventListener('DOMContentLoaded', (event) => {
  highlightEdges();
  highlightAdjacentNodes();
});
]]></script>
</svg>
