<?xml version="1.0" encoding="UTF-8" standalone="no"?>
<!DOCTYPE svg PUBLIC "-//W3C//DTD SVG 1.1//EN"
 "http://www.w3.org/Graphics/SVG/1.1/DTD/svg11.dtd">
<!-- Generated by graphviz version 8.1.0 (20230707.0739)
 -->
<!-- Title: MapGen::fixGraphData Pages: 1 -->
<!--zoomable 297 -->

<svg id="main" version="1.1" xmlns="http://www.w3.org/2000/svg" xmlns:xlink="http://www.w3.org/1999/xlink" xml:space="preserve" onload="init(evt)">
<style type="text/css"><![CDATA[
.node, .edge {opacity: 0.7;}
.node.selected, .edge.selected {opacity: 1;}
.edge:hover path { stroke: red; }
.edge:hover polygon { stroke: red; fill: red; }
]]></style>

<defs>
  <circle id="rim" cx="0" cy="0" r="7"/>
  <circle id="rim2" cx="0" cy="0" r="3.5"/>
  <g id="zoomPlus">
    <use xlink:href="#rim" fill="#404040"><set attributeName="fill" to="#808080" begin="zoomplus.mouseover" end="zoomplus.mouseout"/></use>
    <path d="M-4,0h8M0,-4v8" fill="none" stroke="white" stroke-width="1.5" pointer-events="none"/>
  </g>
  <g id="zoomMin">
    <use xlink:href="#rim" fill="#404040"><set attributeName="fill" to="#808080" begin="zoomminus.mouseover" end="zoomminus.mouseout"/></use>
    <path d="M-4,0h8" fill="none" stroke="white" stroke-width="1.5" pointer-events="none"/>
  </g>
  <g id="arrowUp" transform="translate(30 24)">
    <use xlink:href="#rim"/>
    <path pointer-events="none" fill="none" stroke="white" stroke-width="1.5" d="M0,-3.0v7 M-2.5,-0.5L0,-3.0L2.5,-0.5"/>
  </g>
  <g id="arrowRight" transform="rotate(90) translate(36 -43)">
    <use xlink:href="#rim"/>
    <path pointer-events="none" fill="none" stroke="white" stroke-width="1.5" d="M0,-3.0v7 M-2.5,-0.5L0,-3.0L2.5,-0.5"/>
  </g>
  <g id="arrowDown" transform="rotate(180) translate(-30 -48)">
    <use xlink:href="#rim"/>
    <path pointer-events="none" fill="none" stroke="white" stroke-width="1.5" d="M0,-3.0v7 M-2.5,-0.5L0,-3.0L2.5,-0.5"/>
  </g>
  <g id="arrowLeft" transform="rotate(270) translate(-36 17)">
    <use xlink:href="#rim"/>
    <path pointer-events="none" fill="none" stroke="white" stroke-width="1.5" d="M0,-3.0v7 M-2.5,-0.5L0,-3.0L2.5,-0.5"/>
  </g>
  <g id="resetDef">
    <use xlink:href="#rim2" fill="#404040"><set attributeName="fill" to="#808080" begin="reset.mouseover" end="reset.mouseout"/></use>
  </g>
</defs>
<script type="application/ecmascript">
var viewWidth = 511;
var viewHeight = 297;
var sectionId = 'dynsection-2';
</script>
<script type="application/ecmascript" xlink:href="../../svg.min.js"/>
<svg id="graph" class="graph">
<g id="viewport">
<title>MapGen::fixGraphData</title>
<!-- Node1 -->
<g id="Node000001" class="node">
<title>Node1</title>
<g id="a_Node000001"><a xlink:title=" ">
<polygon fill="#999999" stroke="#666666" points="115,-133 0,-133 0,-113 115,-113 115,-133"/>
<text text-anchor="middle" x="57.5" y="-119.5" font-family="Helvetica,sans-Serif" font-size="10.00">MapGen::fixGraphData</text>
</a>
</g>
</g>
<!-- Node2 -->
<g id="Node000002" class="node">
<title>Node2</title>
<g id="a_Node000002"><a xlink:href="../../d3/d57/classMapGen_1_1DoublyConnectedEdgeList.html#a3932fa65377660f9cbfa829cf068ae08" target="_top" xlink:title="Return the angle [&#45;pi, pi] of the half&#45;edge.">
<polygon fill="white" stroke="#666666" points="308.75,-239 151,-239 151,-207 308.75,-207 308.75,-239"/>
<text text-anchor="start" x="159" y="-225.5" font-family="Helvetica,sans-Serif" font-size="10.00">MapGen::DoublyConnectedEdge</text>
<text text-anchor="middle" x="229.88" y="-213.5" font-family="Helvetica,sans-Serif" font-size="10.00">List::GetAngle</text>
</a>
</g>
</g>
<!-- Node1&#45;&gt;Node2 -->
<g id="edge1_Node000001_Node000002" class="edge">
<title>Node1&#45;&gt;Node2</title>
<g id="a_edge1_Node000001_Node000002"><a xlink:title=" ">
<path fill="none" stroke="#63b8ff" d="M68.66,-133.43C84.75,-149.41 117.72,-180 151,-198 153.84,-199.54 156.8,-201 159.82,-202.39"/>
<polygon fill="#63b8ff" stroke="#63b8ff" points="158.08,-205.88 168.65,-206.57 160.81,-199.43 158.08,-205.88"/>
</a>
</g>
</g>
<!-- Node6 -->
<g id="Node000006" class="node">
<title>Node6</title>
<g id="a_Node000006"><a xlink:href="../../d3/d57/classMapGen_1_1DoublyConnectedEdgeList.html#a4dbc77e3d93cbf0f03a5e3cd19e505de" target="_top" xlink:title=" ">
<polygon fill="white" stroke="#666666" points="308.75,-189 151,-189 151,-157 308.75,-157 308.75,-189"/>
<text text-anchor="start" x="159" y="-175.5" font-family="Helvetica,sans-Serif" font-size="10.00">MapGen::DoublyConnectedEdge</text>
<text text-anchor="middle" x="229.88" y="-163.5" font-family="Helvetica,sans-Serif" font-size="10.00">List::GetLeavingHalfEdge</text>
</a>
</g>
</g>
<!-- Node1&#45;&gt;Node6 -->
<g id="edge5_Node000001_Node000006" class="edge">
<title>Node1&#45;&gt;Node6</title>
<g id="a_edge5_Node000001_Node000006"><a xlink:title=" ">
<path fill="none" stroke="#63b8ff" d="M94.22,-133.48C113.93,-139.27 139.06,-146.64 162.25,-153.45"/>
<polygon fill="#63b8ff" stroke="#63b8ff" points="161.17,-157.07 171.75,-156.53 163.14,-150.35 161.17,-157.07"/>
</a>
</g>
</g>
<!-- Node7 -->
<g id="Node000007" class="node">
<title>Node7</title>
<g id="a_Node000007"><a xlink:href="../../d3/d57/classMapGen_1_1DoublyConnectedEdgeList.html#a9f467156051c0f025ef147b87330b9ea" target="_top" xlink:title=" ">
<polygon fill="white" stroke="#666666" points="308.75,-139 151,-139 151,-107 308.75,-107 308.75,-139"/>
<text text-anchor="start" x="159" y="-125.5" font-family="Helvetica,sans-Serif" font-size="10.00">MapGen::DoublyConnectedEdge</text>
<text text-anchor="middle" x="229.88" y="-113.5" font-family="Helvetica,sans-Serif" font-size="10.00">List::GetNextInNode</text>
</a>
</g>
</g>
<!-- Node1&#45;&gt;Node7 -->
<g id="edge6_Node000001_Node000007" class="edge">
<title>Node1&#45;&gt;Node7</title>
<g id="a_edge6_Node000001_Node000007"><a xlink:title=" ">
<path fill="none" stroke="#63b8ff" d="M115.23,-123C123.11,-123 131.35,-123 139.64,-123"/>
<polygon fill="#63b8ff" stroke="#63b8ff" points="139.55,-126.5 149.55,-123 139.55,-119.5 139.55,-126.5"/>
</a>
</g>
</g>
<!-- Node8 -->
<g id="Node000008" class="node">
<title>Node8</title>
<g id="a_Node000008"><a xlink:href="../../d3/d57/classMapGen_1_1DoublyConnectedEdgeList.html#a47309b6d9a344423a0aa8a2ec1389177" target="_top" xlink:title=" ">
<polygon fill="white" stroke="#666666" points="308.75,-89 151,-89 151,-57 308.75,-57 308.75,-89"/>
<text text-anchor="start" x="159" y="-75.5" font-family="Helvetica,sans-Serif" font-size="10.00">MapGen::DoublyConnectedEdge</text>
<text text-anchor="middle" x="229.88" y="-63.5" font-family="Helvetica,sans-Serif" font-size="10.00">List::GetNodes</text>
</a>
</g>
</g>
<!-- Node1&#45;&gt;Node8 -->
<g id="edge7_Node000001_Node000008" class="edge">
<title>Node1&#45;&gt;Node8</title>
<g id="a_edge7_Node000001_Node000008"><a xlink:title=" ">
<path fill="none" stroke="#63b8ff" d="M94.22,-112.52C113.93,-106.73 139.06,-99.36 162.25,-92.55"/>
<polygon fill="#63b8ff" stroke="#63b8ff" points="163.14,-95.65 171.75,-89.47 161.17,-88.93 163.14,-95.65"/>
</a>
</g>
</g>
<!-- Node9 -->
<g id="Node000009" class="node">
<title>Node9</title>
<g id="a_Node000009"><a xlink:href="../../d2/de5/namespaceMapGen.html#ae6f4a94c2e0b61eb86e11a40c22dfa46" target="_top" xlink:title=" ">
<polygon fill="white" stroke="#666666" points="284,-39 175.75,-39 175.75,-19 284,-19 284,-39"/>
<text text-anchor="middle" x="229.88" y="-25.5" font-family="Helvetica,sans-Serif" font-size="10.00">MapGen::getRotation</text>
</a>
</g>
</g>
<!-- Node1&#45;&gt;Node9 -->
<g id="edge8_Node000001_Node000009" class="edge">
<title>Node1&#45;&gt;Node9</title>
<g id="a_edge8_Node000001_Node000009"><a xlink:title=" ">
<path fill="none" stroke="#63b8ff" d="M68.25,-112.55C84.04,-96.25 116.92,-64.9 151,-48 155.52,-45.76 160.31,-43.78 165.22,-42.02"/>
<polygon fill="#63b8ff" stroke="#63b8ff" points="165.96,-45.13 174.4,-38.71 163.8,-38.47 165.96,-45.13"/>
</a>
</g>
</g>
<!-- Node3 -->
<g id="Node000003" class="node">
<title>Node3</title>
<g id="a_Node000003"><a xlink:href="../../de/d6b/structMapGen_1_1DoublyConnectedEdgeList_1_1Node.html#a1404bf5477f16a79bcadd8300c64fa37" target="_top" xlink:title=" ">
<polygon fill="white" stroke="#666666" points="502.5,-289 344.75,-289 344.75,-257 502.5,-257 502.5,-289"/>
<text text-anchor="start" x="352.75" y="-275.5" font-family="Helvetica,sans-Serif" font-size="10.00">MapGen::DoublyConnectedEdge</text>
<text text-anchor="middle" x="423.62" y="-263.5" font-family="Helvetica,sans-Serif" font-size="10.00">List::Node::GetPosition</text>
</a>
</g>
</g>
<!-- Node2&#45;&gt;Node3 -->
<g id="edge2_Node000002_Node000003" class="edge">
<title>Node2&#45;&gt;Node3</title>
<g id="a_edge2_Node000002_Node000003"><a xlink:title=" ">
<path fill="none" stroke="#63b8ff" d="M293.93,-239.44C311.54,-244.03 330.83,-249.06 348.99,-253.8"/>
<polygon fill="#63b8ff" stroke="#63b8ff" points="347.98,-257.41 358.54,-256.55 349.74,-250.64 347.98,-257.41"/>
</a>
</g>
</g>
<!-- Node4 -->
<g id="Node000004" class="node">
<title>Node4</title>
<g id="a_Node000004"><a xlink:href="../../d3/d57/classMapGen_1_1DoublyConnectedEdgeList.html#a801df47ea999c7f42a3bc829ad6b71b4" target="_top" xlink:title=" ">
<polygon fill="white" stroke="#666666" points="502.5,-239 344.75,-239 344.75,-207 502.5,-207 502.5,-239"/>
<text text-anchor="start" x="352.75" y="-225.5" font-family="Helvetica,sans-Serif" font-size="10.00">MapGen::DoublyConnectedEdge</text>
<text text-anchor="middle" x="423.62" y="-213.5" font-family="Helvetica,sans-Serif" font-size="10.00">List::GetSource</text>
</a>
</g>
</g>
<!-- Node2&#45;&gt;Node4 -->
<g id="edge3_Node000002_Node000004" class="edge">
<title>Node2&#45;&gt;Node4</title>
<g id="a_edge3_Node000002_Node000004"><a xlink:title=" ">
<path fill="none" stroke="#63b8ff" d="M309.14,-223C317.12,-223 325.26,-223 333.34,-223"/>
<polygon fill="#63b8ff" stroke="#63b8ff" points="333.3,-226.5 343.3,-223 333.3,-219.5 333.3,-226.5"/>
</a>
</g>
</g>
<!-- Node5 -->
<g id="Node000005" class="node">
<title>Node5</title>
<g id="a_Node000005"><a xlink:href="../../d3/d57/classMapGen_1_1DoublyConnectedEdgeList.html#a492040546af8e497cddc5263a939405a" target="_top" xlink:title=" ">
<polygon fill="white" stroke="#666666" points="502.5,-189 344.75,-189 344.75,-157 502.5,-157 502.5,-189"/>
<text text-anchor="start" x="352.75" y="-175.5" font-family="Helvetica,sans-Serif" font-size="10.00">MapGen::DoublyConnectedEdge</text>
<text text-anchor="middle" x="423.62" y="-163.5" font-family="Helvetica,sans-Serif" font-size="10.00">List::GetTarget</text>
</a>
</g>
</g>
<!-- Node2&#45;&gt;Node5 -->
<g id="edge4_Node000002_Node000005" class="edge">
<title>Node2&#45;&gt;Node5</title>
<g id="a_edge4_Node000002_Node000005"><a xlink:title=" ">
<path fill="none" stroke="#63b8ff" d="M293.93,-206.56C311.54,-201.97 330.83,-196.94 348.99,-192.2"/>
<polygon fill="#63b8ff" stroke="#63b8ff" points="349.74,-195.36 358.54,-189.45 347.98,-188.59 349.74,-195.36"/>
</a>
</g>
</g>
<!-- Node10 -->
<g id="Node000010" class="node">
<title>Node10</title>
<g id="a_Node000010"><a xlink:href="../../d2/de5/namespaceMapGen.html#a4427036f189a4b930d19c68b2d7f377a" target="_top" xlink:title=" ">
<polygon fill="white" stroke="#666666" points="479.62,-58 367.62,-58 367.62,-38 479.62,-38 479.62,-58"/>
<text text-anchor="middle" x="423.62" y="-44.5" font-family="Helvetica,sans-Serif" font-size="10.00">MapGen::getQuadrant</text>
</a>
</g>
</g>
<!-- Node9&#45;&gt;Node10 -->
<g id="edge9_Node000009_Node000010" class="edge">
<title>Node9&#45;&gt;Node10</title>
<g id="a_edge9_Node000009_Node000010"><a xlink:title=" ">
<path fill="none" stroke="#63b8ff" d="M284.29,-34.29C306.68,-36.51 332.94,-39.11 356.53,-41.45"/>
<polygon fill="#63b8ff" stroke="#63b8ff" points="355.86,-45 366.16,-42.5 356.55,-38.04 355.86,-45"/>
</a>
</g>
</g>
<!-- Node11 -->
<g id="Node000011" class="node">
<title>Node11</title>
<g id="a_Node000011"><a xlink:href="../../d3/d33/Simplify_8h.html#a50798148e5016c5b85087d4009824f27" target="_top" xlink:title=" ">
<polygon fill="white" stroke="#666666" points="439.5,-20 407.75,-20 407.75,0 439.5,0 439.5,-20"/>
<text text-anchor="middle" x="423.62" y="-6.5" font-family="Helvetica,sans-Serif" font-size="10.00">min</text>
</a>
</g>
</g>
<!-- Node9&#45;&gt;Node11 -->
<g id="edge10_Node000009_Node000011" class="edge">
<title>Node9&#45;&gt;Node11</title>
<g id="a_edge10_Node000009_Node000011"><a xlink:title=" ">
<path fill="none" stroke="#63b8ff" d="M284.29,-23.71C320.91,-20.08 367.89,-15.42 396.6,-12.58"/>
<polygon fill="#63b8ff" stroke="#63b8ff" points="396.74,-15.98 406.35,-11.51 396.05,-9.02 396.74,-15.98"/>
</a>
</g>
</g>
</g>
</svg>

<g id="navigator" transform="translate(0 0)" fill="#404254">
  <rect fill="#f2f5e9" fill-opacity="0.5" stroke="#606060" stroke-width=".5" x="0" y="0" width="60" height="60"/>
  <use id="zoomplus" xlink:href="#zoomPlus" x="17" y="9" onmousedown="handleZoom(evt,'in')"/>
  <use id="zoomminus" xlink:href="#zoomMin" x="42" y="9" onmousedown="handleZoom(evt,'out')"/>
  <use id="reset" xlink:href="#resetDef" x="30" y="36" onmousedown="handleReset()"/>
   <use id="arrowup" xlink:href="#arrowUp" x="0" y="0" onmousedown="handlePan(0,-1)"/>
  <use id="arrowright" xlink:href="#arrowRight" x="0" y="0" onmousedown="handlePan(1,0)"/>
  <use id="arrowdown" xlink:href="#arrowDown" x="0" y="0" onmousedown="handlePan(0,1)"/>
  <use id="arrowleft" xlink:href="#arrowLeft" x="0" y="0" onmousedown="handlePan(-1,0)"/>
</g>
<svg viewBox="0 0 15 15" width="100%" height="30px" preserveAspectRatio="xMaxYMin meet">
 <g id="arrow_out" transform="scale(0.3 0.3)">
  <a xlink:href="namespaceMapGen_a61ea18de27aac306fc04cf4ebf8038c3_cgraph_org.svg" target="_base">
   <rect id="button" ry="5" rx="5" y="6" x="6" height="38" width="38"
        fill="#f2f5e9" fill-opacity="0.5" stroke="#606060" stroke-width="1.0"/>
   <path id="arrow"
     d="M 11.500037,31.436501 C 11.940474,20.09759 22.043105,11.32322 32.158766,21.979434 L 37.068811,17.246167 C 37.068811,17.246167 37.088388,32 37.088388,32 L 22.160133,31.978069 C 22.160133,31.978069 26.997745,27.140456 26.997745,27.140456 C 18.528582,18.264221 13.291696,25.230495 11.500037,31.436501 z"
     style="fill:#404040;"/>
  </a>
 </g>
</svg>

<style type='text/css'>
<![CDATA[
[data-mouse-over-selected='false'] { opacity: 0.7; }
[data-mouse-over-selected='true']  { opacity: 1.0; }
]]>
</style>
<script type="application/ecmascript"><![CDATA[
document.addEventListener('DOMContentLoaded', (event) => {
  highlightEdges();
  highlightAdjacentNodes();
});
]]></script>
</svg>
