<?xml version="1.0" encoding="UTF-8" standalone="no"?>
<!DOCTYPE svg PUBLIC "-//W3C//DTD SVG 1.1//EN"
 "http://www.w3.org/Graphics/SVG/1.1/DTD/svg11.dtd">
<!-- Generated by graphviz version 8.1.0 (20230707.0739)
 -->
<!-- Title: Simplify::Triangle Pages: 1 -->
<svg width="168pt" height="240pt"
 viewBox="0.00 0.00 167.65 240.00" xmlns="http://www.w3.org/2000/svg" xmlns:xlink="http://www.w3.org/1999/xlink">

<svg id="main" version="1.1" xmlns="http://www.w3.org/2000/svg" xmlns:xlink="http://www.w3.org/1999/xlink" xml:space="preserve" onload="init(evt)">
<style type="text/css"><![CDATA[
.node, .edge {opacity: 0.7;}
.node.selected, .edge.selected {opacity: 1;}
.edge:hover path { stroke: red; }
.edge:hover polygon { stroke: red; fill: red; }
]]></style>
<script type="application/ecmascript" xlink:href="../../svg.min.js"/>
<svg id="graph" class="graph">
<g id="graph0" class="graph" transform="scale(1 1) rotate(0) translate(4 236)">
<title>Simplify::Triangle</title>
<!-- Node1 -->
<g id="Node000001" class="node">
<title>Node1</title>
<g id="a_Node000001"><a xlink:title=" ">
<polygon fill="#999999" stroke="#666666" points="126.53,-20 36.28,-20 36.28,0 126.53,0 126.53,-20"/>
<text text-anchor="middle" x="81.4" y="-6.5" font-family="Helvetica,sans-Serif" font-size="10.00">Simplify::Triangle</text>
</a>
</g>
</g>
<!-- Node2 -->
<g id="Node000002" class="node">
<title>Node2</title>
<g id="a_Node000002"><a xlink:title=" ">
<polygon fill="white" stroke="#666666" points="28.8,-232 0,-232 0,-212 28.8,-212 28.8,-232"/>
<text text-anchor="middle" x="14.4" y="-218.5" font-family="Helvetica,sans-Serif" font-size="10.00">int</text>
</a>
</g>
</g>
<!-- Node2&#45;&gt;Node1 -->
<g id="edge1_Node000001_Node000002" class="edge">
<title>Node2&#45;&gt;Node1</title>
<g id="a_edge1_Node000001_Node000002"><a xlink:title=" ">
<path fill="none" stroke="#9a32cd" stroke-dasharray="5,2" d="M10.68,-200.76C6.44,-172.49 2.08,-120.14 18.9,-80 29.58,-54.51 53.88,-32.29 68.84,-20.34"/>
<polygon fill="#9a32cd" stroke="#9a32cd" points="7.4,-201.32 12.49,-210.61 14.3,-200.18 7.4,-201.32"/>
</a>
</g>
<text text-anchor="middle" x="36.65" y="-130.5" font-family="Helvetica,sans-Serif" font-size="10.00" fill="grey"> attr</text>
<text text-anchor="middle" x="36.65" y="-118.5" font-family="Helvetica,sans-Serif" font-size="10.00" fill="grey">deleted</text>
<text text-anchor="middle" x="36.65" y="-106.5" font-family="Helvetica,sans-Serif" font-size="10.00" fill="grey">dirty</text>
<text text-anchor="middle" x="36.65" y="-94.5" font-family="Helvetica,sans-Serif" font-size="10.00" fill="grey">material</text>
<text text-anchor="middle" x="36.65" y="-82.5" font-family="Helvetica,sans-Serif" font-size="10.00" fill="grey">v</text>
</g>
<!-- Node4 -->
<g id="Node000004" class="node">
<title>Node4</title>
<g id="a_Node000004"><a xlink:href="../../da/d83/structvec3f.html" target="_top" xlink:title=" ">
<polygon fill="white" stroke="#666666" points="100.28,-120 62.53,-120 62.53,-100 100.28,-100 100.28,-120"/>
<text text-anchor="middle" x="81.4" y="-106.5" font-family="Helvetica,sans-Serif" font-size="10.00">vec3f</text>
</a>
</g>
</g>
<!-- Node2&#45;&gt;Node4 -->
<g id="edge5_Node000004_Node000002" class="edge">
<title>Node2&#45;&gt;Node4</title>
<g id="a_edge5_Node000004_Node000002"><a xlink:title=" ">
<path fill="none" stroke="#9a32cd" stroke-dasharray="5,2" d="M16.15,-201.21C18.01,-188.19 21.82,-171.19 29.65,-158 38.94,-142.34 55.11,-128.9 66.91,-120.45"/>
<polygon fill="#9a32cd" stroke="#9a32cd" points="12.6,-200.48 14.94,-210.82 19.55,-201.28 12.6,-200.48"/>
</a>
</g>
<text text-anchor="middle" x="66.78" y="-172.5" font-family="Helvetica,sans-Serif" font-size="10.00" fill="grey"> random_number</text>
</g>
<!-- Node3 -->
<g id="Node000003" class="node">
<title>Node3</title>
<g id="a_Node000003"><a xlink:title=" ">
<polygon fill="white" stroke="#666666" points="159.65,-232 115.15,-232 115.15,-212 159.65,-212 159.65,-232"/>
<text text-anchor="middle" x="137.4" y="-218.5" font-family="Helvetica,sans-Serif" font-size="10.00">double</text>
</a>
</g>
</g>
<!-- Node3&#45;&gt;Node1 -->
<g id="edge2_Node000001_Node000003" class="edge">
<title>Node3&#45;&gt;Node1</title>
<g id="a_edge2_Node000001_Node000003"><a xlink:title=" ">
<path fill="none" stroke="#9a32cd" stroke-dasharray="5,2" d="M137.64,-200.58C137.49,-188.19 136.76,-172.09 134.4,-158 125.24,-103.21 122.86,-88.36 99.4,-38 96.45,-31.67 92.14,-25.13 88.47,-20.08"/>
<polygon fill="#9a32cd" stroke="#9a32cd" points="134.14,-200.53 137.64,-210.53 141.14,-200.53 134.14,-200.53"/>
</a>
</g>
<text text-anchor="middle" x="138.53" y="-106.5" font-family="Helvetica,sans-Serif" font-size="10.00" fill="grey"> err</text>
</g>
<!-- Node3&#45;&gt;Node4 -->
<g id="edge4_Node000004_Node000003" class="edge">
<title>Node3&#45;&gt;Node4</title>
<g id="a_edge4_Node000004_Node000003"><a xlink:title=" ">
<path fill="none" stroke="#9a32cd" stroke-dasharray="5,2" d="M127.7,-201.95C115.58,-178.14 95.33,-138.36 86.16,-120.35"/>
<polygon fill="#9a32cd" stroke="#9a32cd" points="124.97,-203.3 132.63,-210.62 131.21,-200.12 124.97,-203.3"/>
</a>
</g>
<text text-anchor="middle" x="126.53" y="-184.5" font-family="Helvetica,sans-Serif" font-size="10.00" fill="grey"> x</text>
<text text-anchor="middle" x="126.53" y="-172.5" font-family="Helvetica,sans-Serif" font-size="10.00" fill="grey">y</text>
<text text-anchor="middle" x="126.53" y="-160.5" font-family="Helvetica,sans-Serif" font-size="10.00" fill="grey">z</text>
</g>
<!-- Node4&#45;&gt;Node1 -->
<g id="edge3_Node000001_Node000004" class="edge">
<title>Node4&#45;&gt;Node1</title>
<g id="a_edge3_Node000001_Node000004"><a xlink:title=" ">
<path fill="none" stroke="#9a32cd" stroke-dasharray="5,2" d="M81.4,-88.69C81.4,-67.68 81.4,-35.8 81.4,-20.23"/>
<polygon fill="#9a32cd" stroke="#9a32cd" points="77.9,-88.6 81.4,-98.6 84.9,-88.6 77.9,-88.6"/>
</a>
</g>
<text text-anchor="middle" x="88.53" y="-52.5" font-family="Helvetica,sans-Serif" font-size="10.00" fill="grey"> n</text>
<text text-anchor="middle" x="88.53" y="-40.5" font-family="Helvetica,sans-Serif" font-size="10.00" fill="grey">uvs</text>
</g>
</g>
</svg>
</svg>

<style type='text/css'>
<![CDATA[
[data-mouse-over-selected='false'] { opacity: 0.7; }
[data-mouse-over-selected='true']  { opacity: 1.0; }
]]>
</style>
<script type="application/ecmascript"><![CDATA[
document.addEventListener('DOMContentLoaded', (event) => {
  highlightEdges();
  highlightAdjacentNodes();
});
]]></script>
</svg>
