<?xml version="1.0" encoding="UTF-8" standalone="no"?>
<!DOCTYPE svg PUBLIC "-//W3C//DTD SVG 1.1//EN"
 "http://www.w3.org/Graphics/SVG/1.1/DTD/svg11.dtd">
<!-- Generated by graphviz version 8.1.0 (20230707.0739)
 -->
<!-- Title: FloorMeshCollection Pages: 1 -->
<svg width="260pt" height="132pt"
 viewBox="0.00 0.00 260.25 132.00" xmlns="http://www.w3.org/2000/svg" xmlns:xlink="http://www.w3.org/1999/xlink">
<g id="graph0" class="graph" transform="scale(1 1) rotate(0) translate(4 128)">
<title>FloorMeshCollection</title>
<!-- Node1 -->
<g id="Node000001" class="node">
<title>Node1</title>
<g id="a_Node000001"><a xlink:title=" ">
<polygon fill="#999999" stroke="#666666" points="182,-20 77.5,-20 77.5,0 182,0 182,-20"/>
<text text-anchor="middle" x="129.75" y="-6.5" font-family="Helvetica,sans-Serif" font-size="10.00">FloorMeshCollection</text>
</a>
</g>
</g>
<!-- Node2 -->
<g id="Node000002" class="node">
<title>Node2</title>
<g id="a_Node000002"><a xlink:title=" ">
<polygon fill="white" stroke="#666666" points="125.5,-118 0,-118 0,-98 125.5,-98 125.5,-118"/>
<text text-anchor="middle" x="62.75" y="-104.5" font-family="Helvetica,sans-Serif" font-size="10.00">TArray&lt; UStaticMesh * &gt;</text>
</a>
</g>
</g>
<!-- Node2&#45;&gt;Node1 -->
<g id="edge1_Node000001_Node000002" class="edge">
<title>Node2&#45;&gt;Node1</title>
<g id="a_edge1_Node000001_Node000002"><a xlink:title=" ">
<path fill="none" stroke="#9a32cd" stroke-dasharray="5,2" d="M73.21,-88.56C81.52,-74.35 93.76,-54.42 106,-38 110.63,-31.79 116.34,-25.27 121.01,-20.18"/>
<polygon fill="#9a32cd" stroke="#9a32cd" points="69.86,-86.35 67.9,-96.76 75.93,-89.85 69.86,-86.35"/>
</a>
</g>
<text text-anchor="middle" x="140.62" y="-64.5" font-family="Helvetica,sans-Serif" font-size="10.00" fill="grey"> AuxiliarMeshes</text>
<text text-anchor="middle" x="140.62" y="-52.5" font-family="Helvetica,sans-Serif" font-size="10.00" fill="grey">CornerMeshes</text>
<text text-anchor="middle" x="140.62" y="-40.5" font-family="Helvetica,sans-Serif" font-size="10.00" fill="grey">MainMeshes</text>
</g>
<!-- Node3 -->
<g id="Node000003" class="node">
<title>Node3</title>
<g id="a_Node000003"><a xlink:title=" ">
<polygon fill="white" stroke="#666666" points="252.25,-124 143.25,-124 143.25,-92 252.25,-92 252.25,-124"/>
<text text-anchor="start" x="151.25" y="-110.5" font-family="Helvetica,sans-Serif" font-size="10.00">TArray&lt; TSubclassOf</text>
<text text-anchor="middle" x="197.75" y="-98.5" font-family="Helvetica,sans-Serif" font-size="10.00">&lt; AActor &gt; &gt;</text>
</a>
</g>
</g>
<!-- Node3&#45;&gt;Node1 -->
<g id="edge2_Node000001_Node000003" class="edge">
<title>Node3&#45;&gt;Node1</title>
<g id="a_edge2_Node000001_Node000003"><a xlink:title=" ">
<path fill="none" stroke="#9a32cd" stroke-dasharray="5,2" d="M194.11,-81.09C191.08,-67.14 185.6,-50.32 175.75,-38 169.74,-30.48 161.02,-24.61 152.78,-20.3"/>
<polygon fill="#9a32cd" stroke="#9a32cd" points="190.78,-81.32 196.04,-90.51 197.66,-80.04 190.78,-81.32"/>
</a>
</g>
<text text-anchor="middle" x="218.75" y="-64.5" font-family="Helvetica,sans-Serif" font-size="10.00" fill="grey"> AuxiliarBPs</text>
<text text-anchor="middle" x="218.75" y="-52.5" font-family="Helvetica,sans-Serif" font-size="10.00" fill="grey">CornerBPs</text>
<text text-anchor="middle" x="218.75" y="-40.5" font-family="Helvetica,sans-Serif" font-size="10.00" fill="grey">MainBPs</text>
</g>
</g>
</svg>
