<?xml version="1.0" encoding="UTF-8" standalone="no"?>
<!DOCTYPE svg PUBLIC "-//W3C//DTD SVG 1.1//EN"
 "http://www.w3.org/Graphics/SVG/1.1/DTD/svg11.dtd">
<!-- Generated by graphviz version 8.1.0 (20230707.0739)
 -->
<!-- Title: moodycamel::details::swap_relaxed Pages: 1 -->
<!--zoomable 213 -->

<svg id="main" version="1.1" xmlns="http://www.w3.org/2000/svg" xmlns:xlink="http://www.w3.org/1999/xlink" xml:space="preserve" onload="init(evt)">
<style type="text/css"><![CDATA[
.node, .edge {opacity: 0.7;}
.node.selected, .edge.selected {opacity: 1;}
.edge:hover path { stroke: red; }
.edge:hover polygon { stroke: red; fill: red; }
]]></style>

<defs>
  <circle id="rim" cx="0" cy="0" r="7"/>
  <circle id="rim2" cx="0" cy="0" r="3.5"/>
  <g id="zoomPlus">
    <use xlink:href="#rim" fill="#404040"><set attributeName="fill" to="#808080" begin="zoomplus.mouseover" end="zoomplus.mouseout"/></use>
    <path d="M-4,0h8M0,-4v8" fill="none" stroke="white" stroke-width="1.5" pointer-events="none"/>
  </g>
  <g id="zoomMin">
    <use xlink:href="#rim" fill="#404040"><set attributeName="fill" to="#808080" begin="zoomminus.mouseover" end="zoomminus.mouseout"/></use>
    <path d="M-4,0h8" fill="none" stroke="white" stroke-width="1.5" pointer-events="none"/>
  </g>
  <g id="arrowUp" transform="translate(30 24)">
    <use xlink:href="#rim"/>
    <path pointer-events="none" fill="none" stroke="white" stroke-width="1.5" d="M0,-3.0v7 M-2.5,-0.5L0,-3.0L2.5,-0.5"/>
  </g>
  <g id="arrowRight" transform="rotate(90) translate(36 -43)">
    <use xlink:href="#rim"/>
    <path pointer-events="none" fill="none" stroke="white" stroke-width="1.5" d="M0,-3.0v7 M-2.5,-0.5L0,-3.0L2.5,-0.5"/>
  </g>
  <g id="arrowDown" transform="rotate(180) translate(-30 -48)">
    <use xlink:href="#rim"/>
    <path pointer-events="none" fill="none" stroke="white" stroke-width="1.5" d="M0,-3.0v7 M-2.5,-0.5L0,-3.0L2.5,-0.5"/>
  </g>
  <g id="arrowLeft" transform="rotate(270) translate(-36 17)">
    <use xlink:href="#rim"/>
    <path pointer-events="none" fill="none" stroke="white" stroke-width="1.5" d="M0,-3.0v7 M-2.5,-0.5L0,-3.0L2.5,-0.5"/>
  </g>
  <g id="resetDef">
    <use xlink:href="#rim2" fill="#404040"><set attributeName="fill" to="#808080" begin="reset.mouseover" end="reset.mouseout"/></use>
  </g>
</defs>
<script type="application/ecmascript">
var viewWidth = 750;
var viewHeight = 213;
var sectionId = 'dynsection-5';
</script>
<script type="application/ecmascript" xlink:href="../../svg.min.js"/>
<svg id="graph" class="graph">
<g id="viewport">
<title>moodycamel::details::swap_relaxed</title>
<!-- Node1 -->
<g id="Node000001" class="node">
<title>Node1</title>
<g id="a_Node000001"><a xlink:title=" ">
<polygon fill="#999999" stroke="#666666" points="742.25,-130 636.25,-130 636.25,-98 742.25,-98 742.25,-130"/>
<text text-anchor="start" x="644.25" y="-116.5" font-family="Helvetica,sans-Serif" font-size="10.00">moodycamel::details</text>
<text text-anchor="middle" x="689.25" y="-104.5" font-family="Helvetica,sans-Serif" font-size="10.00">::swap_relaxed</text>
</a>
</g>
</g>
<!-- Node2 -->
<g id="Node000002" class="node">
<title>Node2</title>
<g id="a_Node000002"><a xlink:href="../../de/d05/structmoodycamel_1_1FreeList.html#a316f6750e412d49445934851bce43809" target="_top" xlink:title=" ">
<polygon fill="white" stroke="#666666" points="583,-205 470.25,-205 470.25,-173 583,-173 583,-205"/>
<text text-anchor="start" x="478.25" y="-191.5" font-family="Helvetica,sans-Serif" font-size="10.00">moodycamel::FreeList</text>
<text text-anchor="middle" x="526.62" y="-179.5" font-family="Helvetica,sans-Serif" font-size="10.00">::swap</text>
</a>
</g>
</g>
<!-- Node1&#45;&gt;Node2 -->
<g id="edge1_Node000001_Node000002" class="edge">
<title>Node1&#45;&gt;Node2</title>
<g id="a_edge1_Node000001_Node000002"><a xlink:title=" ">
<path fill="none" stroke="#63b8ff" d="M652.98,-136.03C637.2,-145.36 618.15,-155.92 600.25,-164 593.57,-167.02 586.4,-169.89 579.27,-172.55"/>
<polygon fill="#63b8ff" stroke="#63b8ff" points="654.57,-138.56 661.35,-130.41 650.97,-132.55 654.57,-138.56"/>
</a>
</g>
</g>
<!-- Node3 -->
<g id="Node000003" class="node">
<title>Node3</title>
<g id="a_Node000003"><a xlink:href="../../d9/d38/structmoodycamel_1_1ImplicitProducerKVP.html#abfd4d6fc5ad536f4fa0851e7ddae15ad" target="_top" xlink:title=" ">
<polygon fill="white" stroke="#666666" points="600.25,-155 453,-155 453,-123 600.25,-123 600.25,-155"/>
<text text-anchor="start" x="461" y="-141.5" font-family="Helvetica,sans-Serif" font-size="10.00">moodycamel::ImplicitProducer</text>
<text text-anchor="middle" x="526.62" y="-129.5" font-family="Helvetica,sans-Serif" font-size="10.00">KVP::swap</text>
</a>
</g>
</g>
<!-- Node1&#45;&gt;Node3 -->
<g id="edge2_Node000001_Node000003" class="edge">
<title>Node1&#45;&gt;Node3</title>
<g id="a_edge2_Node000001_Node000003"><a xlink:title=" ">
<path fill="none" stroke="#63b8ff" d="M625.23,-123.81C617.13,-125.07 608.77,-126.37 600.52,-127.65"/>
<polygon fill="#63b8ff" stroke="#63b8ff" points="625.76,-127.11 635.1,-122.12 624.68,-120.2 625.76,-127.11"/>
</a>
</g>
</g>
<!-- Node5 -->
<g id="Node000005" class="node">
<title>Node5</title>
<g id="a_Node000005"><a xlink:href="../../db/dc8/namespacemoodycamel.html#a088aef52c108f3a62a5210371b68edec" target="_top" xlink:title=" ">
<polygon fill="white" stroke="#666666" points="594.62,-105 458.62,-105 458.62,-73 594.62,-73 594.62,-105"/>
<text text-anchor="start" x="466.62" y="-91.5" font-family="Helvetica,sans-Serif" font-size="10.00">moodycamel::swap_implicit</text>
<text text-anchor="middle" x="526.62" y="-79.5" font-family="Helvetica,sans-Serif" font-size="10.00">_producer_hashes</text>
</a>
</g>
</g>
<!-- Node1&#45;&gt;Node5 -->
<g id="edge4_Node000001_Node000005" class="edge">
<title>Node1&#45;&gt;Node5</title>
<g id="a_edge4_Node000001_Node000005"><a xlink:title=" ">
<path fill="none" stroke="#63b8ff" d="M625.45,-104.23C615.47,-102.67 605.11,-101.06 595.03,-99.49"/>
<polygon fill="#63b8ff" stroke="#63b8ff" points="624.68,-107.8 635.1,-105.88 625.76,-100.89 624.68,-107.8"/>
</a>
</g>
</g>
<!-- Node7 -->
<g id="Node000007" class="node">
<title>Node7</title>
<g id="a_Node000007"><a xlink:href="../../d8/dc8/classmoodycamel_1_1ConcurrentQueue.html#a0b4852a8dda94c727c11c02c00d5c4c2" target="_top" xlink:title=" ">
<polygon fill="white" stroke="#666666" points="417,-57 263.75,-57 263.75,-25 417,-25 417,-57"/>
<text text-anchor="start" x="271.75" y="-43.5" font-family="Helvetica,sans-Serif" font-size="10.00">moodycamel::ConcurrentQueue</text>
<text text-anchor="middle" x="340.38" y="-31.5" font-family="Helvetica,sans-Serif" font-size="10.00">::swap_internal</text>
</a>
</g>
</g>
<!-- Node1&#45;&gt;Node7 -->
<g id="edge10_Node000001_Node000007" class="edge">
<title>Node1&#45;&gt;Node7</title>
<g id="a_edge10_Node000001_Node000007"><a xlink:title=" ">
<path fill="none" stroke="#63b8ff" d="M656.65,-91.65C640.53,-81.42 620.16,-70.22 600.25,-64 540.6,-45.37 469.72,-40.17 417.22,-39.32"/>
<polygon fill="#63b8ff" stroke="#63b8ff" points="654.32,-94.96 664.61,-97.51 658.16,-89.11 654.32,-94.96"/>
</a>
</g>
</g>
<!-- Node4 -->
<g id="Node000004" class="node">
<title>Node4</title>
<g id="a_Node000004"><a xlink:href="../../d9/d38/structmoodycamel_1_1ImplicitProducerKVP.html#abd95a36d277c21b69388a8c8742049df" target="_top" xlink:title=" ">
<polygon fill="white" stroke="#666666" points="414,-157 266.75,-157 266.75,-125 414,-125 414,-157"/>
<text text-anchor="start" x="274.75" y="-143.5" font-family="Helvetica,sans-Serif" font-size="10.00">moodycamel::ImplicitProducer</text>
<text text-anchor="middle" x="340.38" y="-131.5" font-family="Helvetica,sans-Serif" font-size="10.00">KVP::operator=</text>
</a>
</g>
</g>
<!-- Node3&#45;&gt;Node4 -->
<g id="edge3_Node000003_Node000004" class="edge">
<title>Node3&#45;&gt;Node4</title>
<g id="a_edge3_Node000003_Node000004"><a xlink:title=" ">
<path fill="none" stroke="#63b8ff" d="M441.55,-139.91C432.48,-140.01 423.3,-140.11 414.37,-140.21"/>
<polygon fill="#63b8ff" stroke="#63b8ff" points="441.58,-143.4 451.54,-139.79 441.5,-136.4 441.58,-143.4"/>
</a>
</g>
</g>
<!-- Node6 -->
<g id="Node000006" class="node">
<title>Node6</title>
<g id="a_Node000006"><a xlink:href="../../d8/dc8/classmoodycamel_1_1ConcurrentQueue.html#ae908c026d0eb0591ca6f8f5518f7ffdf" target="_top" xlink:title=" ">
<polygon fill="white" stroke="#666666" points="417,-107 263.75,-107 263.75,-75 417,-75 417,-107"/>
<text text-anchor="start" x="271.75" y="-93.5" font-family="Helvetica,sans-Serif" font-size="10.00">moodycamel::ConcurrentQueue</text>
<text text-anchor="middle" x="340.38" y="-81.5" font-family="Helvetica,sans-Serif" font-size="10.00">::ConcurrentQueue</text>
</a>
</g>
</g>
<!-- Node5&#45;&gt;Node6 -->
<g id="edge5_Node000005_Node000006" class="edge">
<title>Node5&#45;&gt;Node6</title>
<g id="a_edge5_Node000005_Node000006"><a xlink:title=" ">
<path fill="none" stroke="#63b8ff" d="M447.54,-89.85C437.5,-89.96 427.22,-90.07 417.22,-90.18"/>
<polygon fill="#63b8ff" stroke="#63b8ff" points="447.36,-93.34 457.32,-89.73 447.29,-86.34 447.36,-93.34"/>
</a>
</g>
</g>
<!-- Node5&#45;&gt;Node7 -->
<g id="edge6_Node000005_Node000007" class="edge">
<title>Node5&#45;&gt;Node7</title>
<g id="a_edge6_Node000005_Node000007"><a xlink:title=" ">
<path fill="none" stroke="#63b8ff" d="M452.21,-69.88C436.4,-65.76 419.82,-61.44 404.44,-57.43"/>
<polygon fill="#63b8ff" stroke="#63b8ff" points="450.91,-73.41 461.47,-72.55 452.68,-66.64 450.91,-73.41"/>
</a>
</g>
</g>
<!-- Node8 -->
<g id="Node000008" class="node">
<title>Node8</title>
<g id="a_Node000008"><a xlink:href="../../d8/dc8/classmoodycamel_1_1ConcurrentQueue.html#abce8e204950aa2f7668c0cb4af2cdfd8" target="_top" xlink:title=" ">
<polygon fill="white" stroke="#666666" points="227.75,-82 74.5,-82 74.5,-50 227.75,-50 227.75,-82"/>
<text text-anchor="start" x="82.5" y="-68.5" font-family="Helvetica,sans-Serif" font-size="10.00">moodycamel::ConcurrentQueue</text>
<text text-anchor="middle" x="151.12" y="-56.5" font-family="Helvetica,sans-Serif" font-size="10.00">::operator=</text>
</a>
</g>
</g>
<!-- Node7&#45;&gt;Node8 -->
<g id="edge7_Node000007_Node000008" class="edge">
<title>Node7&#45;&gt;Node8</title>
<g id="a_edge7_Node000007_Node000008"><a xlink:title=" ">
<path fill="none" stroke="#63b8ff" d="M252.74,-52.57C244.52,-53.66 236.23,-54.77 228.12,-55.85"/>
<polygon fill="#63b8ff" stroke="#63b8ff" points="253.03,-55.93 262.48,-51.13 252.11,-48.99 253.03,-55.93"/>
</a>
</g>
</g>
<!-- Node9 -->
<g id="Node000009" class="node">
<title>Node9</title>
<g id="a_Node000009"><a xlink:href="../../d8/dc8/classmoodycamel_1_1ConcurrentQueue.html#a7c1c42c76a8218896a4d76efed142b2c" target="_top" xlink:title=" ">
<polygon fill="white" stroke="#666666" points="227.75,-32 74.5,-32 74.5,0 227.75,0 227.75,-32"/>
<text text-anchor="start" x="82.5" y="-18.5" font-family="Helvetica,sans-Serif" font-size="10.00">moodycamel::ConcurrentQueue</text>
<text text-anchor="middle" x="151.12" y="-6.5" font-family="Helvetica,sans-Serif" font-size="10.00">::swap</text>
</a>
</g>
</g>
<!-- Node7&#45;&gt;Node9 -->
<g id="edge8_Node000007_Node000009" class="edge">
<title>Node7&#45;&gt;Node9</title>
<g id="a_edge8_Node000007_Node000009"><a xlink:title=" ">
<path fill="none" stroke="#63b8ff" d="M252.74,-29.43C244.52,-28.34 236.23,-27.23 228.12,-26.15"/>
<polygon fill="#63b8ff" stroke="#63b8ff" points="252.11,-33.01 262.48,-30.87 253.03,-26.07 252.11,-33.01"/>
</a>
</g>
</g>
<!-- Node10 -->
<g id="Node000010" class="node">
<title>Node10</title>
<g id="a_Node000010"><a xlink:href="../../de/dad/ConcurrentQueue_8h.html#a723a91c72ffc9b7b247a3f0c8e37f308" target="_top" xlink:title=" ">
<polygon fill="white" stroke="#666666" points="38.5,-26 0,-26 0,-6 38.5,-6 38.5,-26"/>
<text text-anchor="middle" x="19.25" y="-12.5" font-family="Helvetica,sans-Serif" font-size="10.00">swap</text>
</a>
</g>
</g>
<!-- Node9&#45;&gt;Node10 -->
<g id="edge9_Node000009_Node000010" class="edge">
<title>Node9&#45;&gt;Node10</title>
<g id="a_edge9_Node000009_Node000010"><a xlink:title=" ">
<path fill="none" stroke="#63b8ff" d="M63.34,-16C54.3,-16 45.9,-16 38.96,-16"/>
<polygon fill="#63b8ff" stroke="#63b8ff" points="63.2,-19.5 73.2,-16 63.2,-12.5 63.2,-19.5"/>
</a>
</g>
</g>
</g>
</svg>

<g id="navigator" transform="translate(0 0)" fill="#404254">
  <rect fill="#f2f5e9" fill-opacity="0.5" stroke="#606060" stroke-width=".5" x="0" y="0" width="60" height="60"/>
  <use id="zoomplus" xlink:href="#zoomPlus" x="17" y="9" onmousedown="handleZoom(evt,'in')"/>
  <use id="zoomminus" xlink:href="#zoomMin" x="42" y="9" onmousedown="handleZoom(evt,'out')"/>
  <use id="reset" xlink:href="#resetDef" x="30" y="36" onmousedown="handleReset()"/>
   <use id="arrowup" xlink:href="#arrowUp" x="0" y="0" onmousedown="handlePan(0,-1)"/>
  <use id="arrowright" xlink:href="#arrowRight" x="0" y="0" onmousedown="handlePan(1,0)"/>
  <use id="arrowdown" xlink:href="#arrowDown" x="0" y="0" onmousedown="handlePan(0,1)"/>
  <use id="arrowleft" xlink:href="#arrowLeft" x="0" y="0" onmousedown="handlePan(-1,0)"/>
</g>
<svg viewBox="0 0 15 15" width="100%" height="30px" preserveAspectRatio="xMaxYMin meet">
 <g id="arrow_out" transform="scale(0.3 0.3)">
  <a xlink:href="namespacemoodycamel_1_1details_a5b1d2c3239fba04fbd0c15863042e121_icgraph_org.svg" target="_base">
   <rect id="button" ry="5" rx="5" y="6" x="6" height="38" width="38"
        fill="#f2f5e9" fill-opacity="0.5" stroke="#606060" stroke-width="1.0"/>
   <path id="arrow"
     d="M 11.500037,31.436501 C 11.940474,20.09759 22.043105,11.32322 32.158766,21.979434 L 37.068811,17.246167 C 37.068811,17.246167 37.088388,32 37.088388,32 L 22.160133,31.978069 C 22.160133,31.978069 26.997745,27.140456 26.997745,27.140456 C 18.528582,18.264221 13.291696,25.230495 11.500037,31.436501 z"
     style="fill:#404040;"/>
  </a>
 </g>
</svg>

<style type='text/css'>
<![CDATA[
[data-mouse-over-selected='false'] { opacity: 0.7; }
[data-mouse-over-selected='true']  { opacity: 1.0; }
]]>
</style>
<script type="application/ecmascript"><![CDATA[
document.addEventListener('DOMContentLoaded', (event) => {
  highlightEdges();
  highlightAdjacentNodes();
});
]]></script>
</svg>
