<?xml version="1.0" encoding="UTF-8" standalone="no"?>
<!DOCTYPE svg PUBLIC "-//W3C//DTD SVG 1.1//EN"
 "http://www.w3.org/Graphics/SVG/1.1/DTD/svg11.dtd">
<!-- Generated by graphviz version 8.1.0 (20230707.0739)
 -->
<!-- Title: geometry_msgs::msg::TransformStamped::getCdrSerializedSize Pages: 1 -->
<svg width="518pt" height="239pt"
 viewBox="0.00 0.00 518.00 239.00" xmlns="http://www.w3.org/2000/svg" xmlns:xlink="http://www.w3.org/1999/xlink">
<g id="graph0" class="graph" transform="scale(1 1) rotate(0) translate(4 235)">
<title>geometry_msgs::msg::TransformStamped::getCdrSerializedSize</title>
<!-- Node1 -->
<g id="Node000001" class="node">
<title>Node1</title>
<g id="a_Node000001"><a xlink:title="此函数返回数据的序列化尺寸，取决于缓冲区对齐。">
<polygon fill="#999999" stroke="#666666" points="110.5,-134 0,-134 0,-90 110.5,-90 110.5,-134"/>
<text text-anchor="start" x="8" y="-120.5" font-family="Helvetica,sans-Serif" font-size="10.00">geometry_msgs::msg</text>
<text text-anchor="start" x="8" y="-108.5" font-family="Helvetica,sans-Serif" font-size="10.00">::TransformStamped::</text>
<text text-anchor="middle" x="55.25" y="-96.5" font-family="Helvetica,sans-Serif" font-size="10.00">getCdrSerializedSize</text>
</a>
</g>
</g>
<!-- Node2 -->
<g id="Node000002" class="node">
<title>Node2</title>
<g id="a_Node000002"><a xlink:href="../../dc/d01/classgeometry__msgs_1_1msg_1_1TransformStamped.html#aaabafeeb5083f4525db1dc6d37e6c065" target="_top" xlink:title="此函数复制成员 child_frame_id 的值。">
<polygon fill="white" stroke="#666666" points="282.5,-218 172,-218 172,-174 282.5,-174 282.5,-218"/>
<text text-anchor="start" x="180" y="-204.5" font-family="Helvetica,sans-Serif" font-size="10.00">geometry_msgs::msg</text>
<text text-anchor="start" x="180" y="-192.5" font-family="Helvetica,sans-Serif" font-size="10.00">::TransformStamped::</text>
<text text-anchor="middle" x="227.25" y="-180.5" font-family="Helvetica,sans-Serif" font-size="10.00">child_frame_id</text>
</a>
</g>
</g>
<!-- Node1&#45;&gt;Node2 -->
<g id="edge1_Node000001_Node000002" class="edge">
<title>Node1&#45;&gt;Node2</title>
<g id="a_edge1_Node000001_Node000002"><a xlink:title=" ">
<path fill="none" stroke="#63b8ff" d="M91.54,-134.5C107.92,-144.48 127.86,-155.97 146.5,-165 151.39,-167.37 156.51,-169.69 161.69,-171.93"/>
<polygon fill="#63b8ff" stroke="#63b8ff" points="160.12,-175.49 170.7,-176.14 162.83,-169.04 160.12,-175.49"/>
</a>
</g>
</g>
<!-- Node3 -->
<g id="Node000003" class="node">
<title>Node3</title>
<g id="a_Node000003"><a xlink:href="../../d6/d5a/classgeometry__msgs_1_1msg_1_1Transform.html#a2c265f59d89d3b05d617dc948d9c19b9" target="_top" xlink:title="此函数根据缓冲区对齐方式，返回给定数据的序列化大小。">
<polygon fill="white" stroke="#666666" points="308,-156 146.5,-156 146.5,-124 308,-124 308,-156"/>
<text text-anchor="start" x="154.5" y="-142.5" font-family="Helvetica,sans-Serif" font-size="10.00">geometry_msgs::msg</text>
<text text-anchor="middle" x="227.25" y="-130.5" font-family="Helvetica,sans-Serif" font-size="10.00">::Transform::getCdrSerializedSize</text>
</a>
</g>
</g>
<!-- Node1&#45;&gt;Node3 -->
<g id="edge2_Node000001_Node000003" class="edge">
<title>Node1&#45;&gt;Node3</title>
<g id="a_edge2_Node000001_Node000003"><a xlink:title=" ">
<path fill="none" stroke="#63b8ff" d="M110.97,-121.01C118.89,-122.32 127.21,-123.69 135.6,-125.07"/>
<polygon fill="#63b8ff" stroke="#63b8ff" points="134.82,-128.65 145.25,-126.82 135.95,-121.75 134.82,-128.65"/>
</a>
</g>
</g>
<!-- Node8 -->
<g id="Node000008" class="node">
<title>Node8</title>
<g id="a_Node000008"><a xlink:href="../../dc/d01/classgeometry__msgs_1_1msg_1_1TransformStamped.html#abf590cca246791b55267967051efc7a4" target="_top" xlink:title="此函数复制成员 header 的值。">
<polygon fill="white" stroke="#666666" points="282.5,-106 172,-106 172,-62 282.5,-62 282.5,-106"/>
<text text-anchor="start" x="180" y="-92.5" font-family="Helvetica,sans-Serif" font-size="10.00">geometry_msgs::msg</text>
<text text-anchor="start" x="180" y="-80.5" font-family="Helvetica,sans-Serif" font-size="10.00">::TransformStamped::</text>
<text text-anchor="middle" x="227.25" y="-68.5" font-family="Helvetica,sans-Serif" font-size="10.00">header</text>
</a>
</g>
</g>
<!-- Node1&#45;&gt;Node8 -->
<g id="edge7_Node000001_Node000008" class="edge">
<title>Node1&#45;&gt;Node8</title>
<g id="a_edge7_Node000001_Node000008"><a xlink:title=" ">
<path fill="none" stroke="#63b8ff" d="M110.97,-102.99C126.9,-100.36 144.45,-97.47 160.96,-94.75"/>
<polygon fill="#63b8ff" stroke="#63b8ff" points="161.33,-98.08 170.63,-93 160.19,-91.17 161.33,-98.08"/>
</a>
</g>
</g>
<!-- Node9 -->
<g id="Node000009" class="node">
<title>Node9</title>
<g id="a_Node000009"><a xlink:href="../../dc/d01/classgeometry__msgs_1_1msg_1_1TransformStamped.html#a79a685ff268b47b2a1a8f04b4dfc8da2" target="_top" xlink:title="此函数复制成员 transform 的值。">
<polygon fill="white" stroke="#666666" points="282.5,-44 172,-44 172,0 282.5,0 282.5,-44"/>
<text text-anchor="start" x="180" y="-30.5" font-family="Helvetica,sans-Serif" font-size="10.00">geometry_msgs::msg</text>
<text text-anchor="start" x="180" y="-18.5" font-family="Helvetica,sans-Serif" font-size="10.00">::TransformStamped::</text>
<text text-anchor="middle" x="227.25" y="-6.5" font-family="Helvetica,sans-Serif" font-size="10.00">transform</text>
</a>
</g>
</g>
<!-- Node1&#45;&gt;Node9 -->
<g id="edge8_Node000001_Node000009" class="edge">
<title>Node1&#45;&gt;Node9</title>
<g id="a_edge8_Node000001_Node000009"><a xlink:title=" ">
<path fill="none" stroke="#63b8ff" d="M87.02,-89.58C104.04,-77.79 125.86,-63.61 146.5,-53 151.33,-50.52 156.41,-48.11 161.56,-45.81"/>
<polygon fill="#63b8ff" stroke="#63b8ff" points="162.73,-48.69 170.53,-41.52 159.96,-42.26 162.73,-48.69"/>
</a>
</g>
</g>
<!-- Node4 -->
<g id="Node000004" class="node">
<title>Node4</title>
<g id="a_Node000004"><a xlink:href="../../d5/de9/classgeometry__msgs_1_1msg_1_1Quaternion.html#a42b051b07b2e83df416c8ebfc76a306c" target="_top" xlink:title="This function returns the serialized size of a data depending on the buffer alignment.">
<polygon fill="white" stroke="#666666" points="510,-231 344,-231 344,-199 510,-199 510,-231"/>
<text text-anchor="start" x="352" y="-217.5" font-family="Helvetica,sans-Serif" font-size="10.00">geometry_msgs::msg</text>
<text text-anchor="middle" x="427" y="-205.5" font-family="Helvetica,sans-Serif" font-size="10.00">::Quaternion::getCdrSerializedSize</text>
</a>
</g>
</g>
<!-- Node3&#45;&gt;Node4 -->
<g id="edge3_Node000003_Node000004" class="edge">
<title>Node3&#45;&gt;Node4</title>
<g id="a_edge3_Node000003_Node000004"><a xlink:title=" ">
<path fill="none" stroke="#63b8ff" d="M287.83,-156.47C294.75,-159.03 301.61,-161.87 308,-165 325.49,-173.57 326.47,-181.5 344,-190 347.38,-191.64 350.9,-193.2 354.48,-194.68"/>
<polygon fill="#63b8ff" stroke="#63b8ff" points="353.14,-198.3 363.73,-198.64 355.67,-191.77 353.14,-198.3"/>
</a>
</g>
</g>
<!-- Node5 -->
<g id="Node000005" class="node">
<title>Node5</title>
<g id="a_Node000005"><a xlink:href="../../df/d66/classgeometry__msgs_1_1msg_1_1Vector3.html#a3f4f6b078e23dd8bbd3a400a1c8a6209" target="_top" xlink:title="此函数返回数据的序列化大小 &#160;&#160;取决于缓冲区对齐。">
<polygon fill="white" stroke="#666666" points="503.25,-181 350.75,-181 350.75,-149 503.25,-149 503.25,-181"/>
<text text-anchor="start" x="358.75" y="-167.5" font-family="Helvetica,sans-Serif" font-size="10.00">geometry_msgs::msg</text>
<text text-anchor="middle" x="427" y="-155.5" font-family="Helvetica,sans-Serif" font-size="10.00">::Vector3::getCdrSerializedSize</text>
</a>
</g>
</g>
<!-- Node3&#45;&gt;Node5 -->
<g id="edge4_Node000003_Node000005" class="edge">
<title>Node3&#45;&gt;Node5</title>
<g id="a_edge4_Node000003_Node000005"><a xlink:title=" ">
<path fill="none" stroke="#63b8ff" d="M308.4,-150.13C318.73,-151.44 329.34,-152.78 339.76,-154.1"/>
<polygon fill="#63b8ff" stroke="#63b8ff" points="339.17,-157.68 349.54,-155.46 340.05,-150.73 339.17,-157.68"/>
</a>
</g>
</g>
<!-- Node6 -->
<g id="Node000006" class="node">
<title>Node6</title>
<g id="a_Node000006"><a xlink:href="../../d6/d5a/classgeometry__msgs_1_1msg_1_1Transform.html#a9a1459664ad7860be84baf60265516bc" target="_top" xlink:title="此函数用于拷贝成员变量rotation的值，将传入的新值拷贝到成员rotation中。">
<polygon fill="white" stroke="#666666" points="482.25,-131 371.75,-131 371.75,-99 482.25,-99 482.25,-131"/>
<text text-anchor="start" x="379.75" y="-117.5" font-family="Helvetica,sans-Serif" font-size="10.00">geometry_msgs::msg</text>
<text text-anchor="middle" x="427" y="-105.5" font-family="Helvetica,sans-Serif" font-size="10.00">::Transform::rotation</text>
</a>
</g>
</g>
<!-- Node3&#45;&gt;Node6 -->
<g id="edge5_Node000003_Node000006" class="edge">
<title>Node3&#45;&gt;Node6</title>
<g id="a_edge5_Node000003_Node000006"><a xlink:title=" ">
<path fill="none" stroke="#63b8ff" d="M308.4,-129.87C325.79,-127.67 343.98,-125.37 360.71,-123.25"/>
<polygon fill="#63b8ff" stroke="#63b8ff" points="360.99,-126.62 370.48,-121.89 360.12,-119.67 360.99,-126.62"/>
</a>
</g>
</g>
<!-- Node7 -->
<g id="Node000007" class="node">
<title>Node7</title>
<g id="a_Node000007"><a xlink:href="../../d6/d5a/classgeometry__msgs_1_1msg_1_1Transform.html#a6edb54feae3a094afdb701e1fd3c1fd1" target="_top" xlink:title="此函数用于拷贝成员变量translation的值，将传入的新值拷贝到成员translation中。">
<polygon fill="white" stroke="#666666" points="484.88,-81 369.12,-81 369.12,-49 484.88,-49 484.88,-81"/>
<text text-anchor="start" x="377.12" y="-67.5" font-family="Helvetica,sans-Serif" font-size="10.00">geometry_msgs::msg</text>
<text text-anchor="middle" x="427" y="-55.5" font-family="Helvetica,sans-Serif" font-size="10.00">::Transform::translation</text>
</a>
</g>
</g>
<!-- Node3&#45;&gt;Node7 -->
<g id="edge6_Node000003_Node000007" class="edge">
<title>Node3&#45;&gt;Node7</title>
<g id="a_edge6_Node000003_Node000007"><a xlink:title=" ">
<path fill="none" stroke="#63b8ff" d="M287.83,-123.53C294.75,-120.97 301.61,-118.13 308,-115 325.49,-106.43 326.47,-98.5 344,-90 348.61,-87.76 353.47,-85.68 358.42,-83.74"/>
<polygon fill="#63b8ff" stroke="#63b8ff" points="359.48,-86.71 367.66,-79.97 357.07,-80.14 359.48,-86.71"/>
</a>
</g>
</g>
</g>
</svg>
