<?xml version="1.0" encoding="UTF-8" standalone="no"?>
<!DOCTYPE svg PUBLIC "-//W3C//DTD SVG 1.1//EN"
 "http://www.w3.org/Graphics/SVG/1.1/DTD/svg11.dtd">
<!-- Generated by graphviz version 8.1.0 (20230707.0739)
 -->
<!-- Title: geometry_msgs::msg::TransformStamped::getCdrSerializedSize Pages: 1 -->
<!--zoomable 239 -->

<svg id="main" version="1.1" xmlns="http://www.w3.org/2000/svg" xmlns:xlink="http://www.w3.org/1999/xlink" xml:space="preserve" onload="init(evt)">
<style type="text/css"><![CDATA[
.node, .edge {opacity: 0.7;}
.node.selected, .edge.selected {opacity: 1;}
.edge:hover path { stroke: red; }
.edge:hover polygon { stroke: red; fill: red; }
]]></style>

<defs>
  <circle id="rim" cx="0" cy="0" r="7"/>
  <circle id="rim2" cx="0" cy="0" r="3.5"/>
  <g id="zoomPlus">
    <use xlink:href="#rim" fill="#404040"><set attributeName="fill" to="#808080" begin="zoomplus.mouseover" end="zoomplus.mouseout"/></use>
    <path d="M-4,0h8M0,-4v8" fill="none" stroke="white" stroke-width="1.5" pointer-events="none"/>
  </g>
  <g id="zoomMin">
    <use xlink:href="#rim" fill="#404040"><set attributeName="fill" to="#808080" begin="zoomminus.mouseover" end="zoomminus.mouseout"/></use>
    <path d="M-4,0h8" fill="none" stroke="white" stroke-width="1.5" pointer-events="none"/>
  </g>
  <g id="arrowUp" transform="translate(30 24)">
    <use xlink:href="#rim"/>
    <path pointer-events="none" fill="none" stroke="white" stroke-width="1.5" d="M0,-3.0v7 M-2.5,-0.5L0,-3.0L2.5,-0.5"/>
  </g>
  <g id="arrowRight" transform="rotate(90) translate(36 -43)">
    <use xlink:href="#rim"/>
    <path pointer-events="none" fill="none" stroke="white" stroke-width="1.5" d="M0,-3.0v7 M-2.5,-0.5L0,-3.0L2.5,-0.5"/>
  </g>
  <g id="arrowDown" transform="rotate(180) translate(-30 -48)">
    <use xlink:href="#rim"/>
    <path pointer-events="none" fill="none" stroke="white" stroke-width="1.5" d="M0,-3.0v7 M-2.5,-0.5L0,-3.0L2.5,-0.5"/>
  </g>
  <g id="arrowLeft" transform="rotate(270) translate(-36 17)">
    <use xlink:href="#rim"/>
    <path pointer-events="none" fill="none" stroke="white" stroke-width="1.5" d="M0,-3.0v7 M-2.5,-0.5L0,-3.0L2.5,-0.5"/>
  </g>
  <g id="resetDef">
    <use xlink:href="#rim2" fill="#404040"><set attributeName="fill" to="#808080" begin="reset.mouseover" end="reset.mouseout"/></use>
  </g>
</defs>
<script type="application/ecmascript">
var viewWidth = 518;
var viewHeight = 239;
var sectionId = 'dynsection-3';
</script>
<script type="application/ecmascript" xlink:href="../../svg.min.js"/>
<svg id="graph" class="graph">
<g id="viewport">
<title>geometry_msgs::msg::TransformStamped::getCdrSerializedSize</title>
<!-- Node1 -->
<g id="Node000001" class="node">
<title>Node1</title>
<g id="a_Node000001"><a xlink:title="此函数返回数据的序列化尺寸，取决于缓冲区对齐。">
<polygon fill="#999999" stroke="#666666" points="110.5,-134 0,-134 0,-90 110.5,-90 110.5,-134"/>
<text text-anchor="start" x="8" y="-120.5" font-family="Helvetica,sans-Serif" font-size="10.00">geometry_msgs::msg</text>
<text text-anchor="start" x="8" y="-108.5" font-family="Helvetica,sans-Serif" font-size="10.00">::TransformStamped::</text>
<text text-anchor="middle" x="55.25" y="-96.5" font-family="Helvetica,sans-Serif" font-size="10.00">getCdrSerializedSize</text>
</a>
</g>
</g>
<!-- Node2 -->
<g id="Node000002" class="node">
<title>Node2</title>
<g id="a_Node000002"><a xlink:href="../../dc/d01/classgeometry__msgs_1_1msg_1_1TransformStamped.html#aaabafeeb5083f4525db1dc6d37e6c065" target="_top" xlink:title="此函数复制成员 child_frame_id 的值。">
<polygon fill="white" stroke="#666666" points="282.5,-218 172,-218 172,-174 282.5,-174 282.5,-218"/>
<text text-anchor="start" x="180" y="-204.5" font-family="Helvetica,sans-Serif" font-size="10.00">geometry_msgs::msg</text>
<text text-anchor="start" x="180" y="-192.5" font-family="Helvetica,sans-Serif" font-size="10.00">::TransformStamped::</text>
<text text-anchor="middle" x="227.25" y="-180.5" font-family="Helvetica,sans-Serif" font-size="10.00">child_frame_id</text>
</a>
</g>
</g>
<!-- Node1&#45;&gt;Node2 -->
<g id="edge1_Node000001_Node000002" class="edge">
<title>Node1&#45;&gt;Node2</title>
<g id="a_edge1_Node000001_Node000002"><a xlink:title=" ">
<path fill="none" stroke="#63b8ff" d="M91.54,-134.5C107.92,-144.48 127.86,-155.97 146.5,-165 151.39,-167.37 156.51,-169.69 161.69,-171.93"/>
<polygon fill="#63b8ff" stroke="#63b8ff" points="160.12,-175.49 170.7,-176.14 162.83,-169.04 160.12,-175.49"/>
</a>
</g>
</g>
<!-- Node3 -->
<g id="Node000003" class="node">
<title>Node3</title>
<g id="a_Node000003"><a xlink:href="../../d6/d5a/classgeometry__msgs_1_1msg_1_1Transform.html#a2c265f59d89d3b05d617dc948d9c19b9" target="_top" xlink:title="此函数根据缓冲区对齐方式，返回给定数据的序列化大小。">
<polygon fill="white" stroke="#666666" points="308,-156 146.5,-156 146.5,-124 308,-124 308,-156"/>
<text text-anchor="start" x="154.5" y="-142.5" font-family="Helvetica,sans-Serif" font-size="10.00">geometry_msgs::msg</text>
<text text-anchor="middle" x="227.25" y="-130.5" font-family="Helvetica,sans-Serif" font-size="10.00">::Transform::getCdrSerializedSize</text>
</a>
</g>
</g>
<!-- Node1&#45;&gt;Node3 -->
<g id="edge2_Node000001_Node000003" class="edge">
<title>Node1&#45;&gt;Node3</title>
<g id="a_edge2_Node000001_Node000003"><a xlink:title=" ">
<path fill="none" stroke="#63b8ff" d="M110.97,-121.01C118.89,-122.32 127.21,-123.69 135.6,-125.07"/>
<polygon fill="#63b8ff" stroke="#63b8ff" points="134.82,-128.65 145.25,-126.82 135.95,-121.75 134.82,-128.65"/>
</a>
</g>
</g>
<!-- Node8 -->
<g id="Node000008" class="node">
<title>Node8</title>
<g id="a_Node000008"><a xlink:href="../../dc/d01/classgeometry__msgs_1_1msg_1_1TransformStamped.html#abf590cca246791b55267967051efc7a4" target="_top" xlink:title="此函数复制成员 header 的值。">
<polygon fill="white" stroke="#666666" points="282.5,-106 172,-106 172,-62 282.5,-62 282.5,-106"/>
<text text-anchor="start" x="180" y="-92.5" font-family="Helvetica,sans-Serif" font-size="10.00">geometry_msgs::msg</text>
<text text-anchor="start" x="180" y="-80.5" font-family="Helvetica,sans-Serif" font-size="10.00">::TransformStamped::</text>
<text text-anchor="middle" x="227.25" y="-68.5" font-family="Helvetica,sans-Serif" font-size="10.00">header</text>
</a>
</g>
</g>
<!-- Node1&#45;&gt;Node8 -->
<g id="edge7_Node000001_Node000008" class="edge">
<title>Node1&#45;&gt;Node8</title>
<g id="a_edge7_Node000001_Node000008"><a xlink:title=" ">
<path fill="none" stroke="#63b8ff" d="M110.97,-102.99C126.9,-100.36 144.45,-97.47 160.96,-94.75"/>
<polygon fill="#63b8ff" stroke="#63b8ff" points="161.33,-98.08 170.63,-93 160.19,-91.17 161.33,-98.08"/>
</a>
</g>
</g>
<!-- Node9 -->
<g id="Node000009" class="node">
<title>Node9</title>
<g id="a_Node000009"><a xlink:href="../../dc/d01/classgeometry__msgs_1_1msg_1_1TransformStamped.html#a79a685ff268b47b2a1a8f04b4dfc8da2" target="_top" xlink:title="此函数复制成员 transform 的值。">
<polygon fill="white" stroke="#666666" points="282.5,-44 172,-44 172,0 282.5,0 282.5,-44"/>
<text text-anchor="start" x="180" y="-30.5" font-family="Helvetica,sans-Serif" font-size="10.00">geometry_msgs::msg</text>
<text text-anchor="start" x="180" y="-18.5" font-family="Helvetica,sans-Serif" font-size="10.00">::TransformStamped::</text>
<text text-anchor="middle" x="227.25" y="-6.5" font-family="Helvetica,sans-Serif" font-size="10.00">transform</text>
</a>
</g>
</g>
<!-- Node1&#45;&gt;Node9 -->
<g id="edge8_Node000001_Node000009" class="edge">
<title>Node1&#45;&gt;Node9</title>
<g id="a_edge8_Node000001_Node000009"><a xlink:title=" ">
<path fill="none" stroke="#63b8ff" d="M87.02,-89.58C104.04,-77.79 125.86,-63.61 146.5,-53 151.33,-50.52 156.41,-48.11 161.56,-45.81"/>
<polygon fill="#63b8ff" stroke="#63b8ff" points="162.73,-48.69 170.53,-41.52 159.96,-42.26 162.73,-48.69"/>
</a>
</g>
</g>
<!-- Node4 -->
<g id="Node000004" class="node">
<title>Node4</title>
<g id="a_Node000004"><a xlink:href="../../d5/de9/classgeometry__msgs_1_1msg_1_1Quaternion.html#a42b051b07b2e83df416c8ebfc76a306c" target="_top" xlink:title="This function returns the serialized size of a data depending on the buffer alignment.">
<polygon fill="white" stroke="#666666" points="510,-231 344,-231 344,-199 510,-199 510,-231"/>
<text text-anchor="start" x="352" y="-217.5" font-family="Helvetica,sans-Serif" font-size="10.00">geometry_msgs::msg</text>
<text text-anchor="middle" x="427" y="-205.5" font-family="Helvetica,sans-Serif" font-size="10.00">::Quaternion::getCdrSerializedSize</text>
</a>
</g>
</g>
<!-- Node3&#45;&gt;Node4 -->
<g id="edge3_Node000003_Node000004" class="edge">
<title>Node3&#45;&gt;Node4</title>
<g id="a_edge3_Node000003_Node000004"><a xlink:title=" ">
<path fill="none" stroke="#63b8ff" d="M287.83,-156.47C294.75,-159.03 301.61,-161.87 308,-165 325.49,-173.57 326.47,-181.5 344,-190 347.38,-191.64 350.9,-193.2 354.48,-194.68"/>
<polygon fill="#63b8ff" stroke="#63b8ff" points="353.14,-198.3 363.73,-198.64 355.67,-191.77 353.14,-198.3"/>
</a>
</g>
</g>
<!-- Node5 -->
<g id="Node000005" class="node">
<title>Node5</title>
<g id="a_Node000005"><a xlink:href="../../df/d66/classgeometry__msgs_1_1msg_1_1Vector3.html#a3f4f6b078e23dd8bbd3a400a1c8a6209" target="_top" xlink:title="此函数返回数据的序列化大小 &#160;&#160;取决于缓冲区对齐。">
<polygon fill="white" stroke="#666666" points="503.25,-181 350.75,-181 350.75,-149 503.25,-149 503.25,-181"/>
<text text-anchor="start" x="358.75" y="-167.5" font-family="Helvetica,sans-Serif" font-size="10.00">geometry_msgs::msg</text>
<text text-anchor="middle" x="427" y="-155.5" font-family="Helvetica,sans-Serif" font-size="10.00">::Vector3::getCdrSerializedSize</text>
</a>
</g>
</g>
<!-- Node3&#45;&gt;Node5 -->
<g id="edge4_Node000003_Node000005" class="edge">
<title>Node3&#45;&gt;Node5</title>
<g id="a_edge4_Node000003_Node000005"><a xlink:title=" ">
<path fill="none" stroke="#63b8ff" d="M308.4,-150.13C318.73,-151.44 329.34,-152.78 339.76,-154.1"/>
<polygon fill="#63b8ff" stroke="#63b8ff" points="339.17,-157.68 349.54,-155.46 340.05,-150.73 339.17,-157.68"/>
</a>
</g>
</g>
<!-- Node6 -->
<g id="Node000006" class="node">
<title>Node6</title>
<g id="a_Node000006"><a xlink:href="../../d6/d5a/classgeometry__msgs_1_1msg_1_1Transform.html#a9a1459664ad7860be84baf60265516bc" target="_top" xlink:title="此函数用于拷贝成员变量rotation的值，将传入的新值拷贝到成员rotation中。">
<polygon fill="white" stroke="#666666" points="482.25,-131 371.75,-131 371.75,-99 482.25,-99 482.25,-131"/>
<text text-anchor="start" x="379.75" y="-117.5" font-family="Helvetica,sans-Serif" font-size="10.00">geometry_msgs::msg</text>
<text text-anchor="middle" x="427" y="-105.5" font-family="Helvetica,sans-Serif" font-size="10.00">::Transform::rotation</text>
</a>
</g>
</g>
<!-- Node3&#45;&gt;Node6 -->
<g id="edge5_Node000003_Node000006" class="edge">
<title>Node3&#45;&gt;Node6</title>
<g id="a_edge5_Node000003_Node000006"><a xlink:title=" ">
<path fill="none" stroke="#63b8ff" d="M308.4,-129.87C325.79,-127.67 343.98,-125.37 360.71,-123.25"/>
<polygon fill="#63b8ff" stroke="#63b8ff" points="360.99,-126.62 370.48,-121.89 360.12,-119.67 360.99,-126.62"/>
</a>
</g>
</g>
<!-- Node7 -->
<g id="Node000007" class="node">
<title>Node7</title>
<g id="a_Node000007"><a xlink:href="../../d6/d5a/classgeometry__msgs_1_1msg_1_1Transform.html#a6edb54feae3a094afdb701e1fd3c1fd1" target="_top" xlink:title="此函数用于拷贝成员变量translation的值，将传入的新值拷贝到成员translation中。">
<polygon fill="white" stroke="#666666" points="484.88,-81 369.12,-81 369.12,-49 484.88,-49 484.88,-81"/>
<text text-anchor="start" x="377.12" y="-67.5" font-family="Helvetica,sans-Serif" font-size="10.00">geometry_msgs::msg</text>
<text text-anchor="middle" x="427" y="-55.5" font-family="Helvetica,sans-Serif" font-size="10.00">::Transform::translation</text>
</a>
</g>
</g>
<!-- Node3&#45;&gt;Node7 -->
<g id="edge6_Node000003_Node000007" class="edge">
<title>Node3&#45;&gt;Node7</title>
<g id="a_edge6_Node000003_Node000007"><a xlink:title=" ">
<path fill="none" stroke="#63b8ff" d="M287.83,-123.53C294.75,-120.97 301.61,-118.13 308,-115 325.49,-106.43 326.47,-98.5 344,-90 348.61,-87.76 353.47,-85.68 358.42,-83.74"/>
<polygon fill="#63b8ff" stroke="#63b8ff" points="359.48,-86.71 367.66,-79.97 357.07,-80.14 359.48,-86.71"/>
</a>
</g>
</g>
</g>
</svg>

<g id="navigator" transform="translate(0 0)" fill="#404254">
  <rect fill="#f2f5e9" fill-opacity="0.5" stroke="#606060" stroke-width=".5" x="0" y="0" width="60" height="60"/>
  <use id="zoomplus" xlink:href="#zoomPlus" x="17" y="9" onmousedown="handleZoom(evt,'in')"/>
  <use id="zoomminus" xlink:href="#zoomMin" x="42" y="9" onmousedown="handleZoom(evt,'out')"/>
  <use id="reset" xlink:href="#resetDef" x="30" y="36" onmousedown="handleReset()"/>
   <use id="arrowup" xlink:href="#arrowUp" x="0" y="0" onmousedown="handlePan(0,-1)"/>
  <use id="arrowright" xlink:href="#arrowRight" x="0" y="0" onmousedown="handlePan(1,0)"/>
  <use id="arrowdown" xlink:href="#arrowDown" x="0" y="0" onmousedown="handlePan(0,1)"/>
  <use id="arrowleft" xlink:href="#arrowLeft" x="0" y="0" onmousedown="handlePan(-1,0)"/>
</g>
<svg viewBox="0 0 15 15" width="100%" height="30px" preserveAspectRatio="xMaxYMin meet">
 <g id="arrow_out" transform="scale(0.3 0.3)">
  <a xlink:href="classgeometry__msgs_1_1msg_1_1TransformStamped_a4222cca48a2ef9582346b5644584e5b9_cgraph_org.svg" target="_base">
   <rect id="button" ry="5" rx="5" y="6" x="6" height="38" width="38"
        fill="#f2f5e9" fill-opacity="0.5" stroke="#606060" stroke-width="1.0"/>
   <path id="arrow"
     d="M 11.500037,31.436501 C 11.940474,20.09759 22.043105,11.32322 32.158766,21.979434 L 37.068811,17.246167 C 37.068811,17.246167 37.088388,32 37.088388,32 L 22.160133,31.978069 C 22.160133,31.978069 26.997745,27.140456 26.997745,27.140456 C 18.528582,18.264221 13.291696,25.230495 11.500037,31.436501 z"
     style="fill:#404040;"/>
  </a>
 </g>
</svg>

<style type='text/css'>
<![CDATA[
[data-mouse-over-selected='false'] { opacity: 0.7; }
[data-mouse-over-selected='true']  { opacity: 1.0; }
]]>
</style>
<script type="application/ecmascript"><![CDATA[
document.addEventListener('DOMContentLoaded', (event) => {
  highlightEdges();
  highlightAdjacentNodes();
});
]]></script>
</svg>
