<?xml version="1.0" encoding="UTF-8" standalone="no"?>
<!DOCTYPE svg PUBLIC "-//W3C//DTD SVG 1.1//EN"
 "http://www.w3.org/Graphics/SVG/1.1/DTD/svg11.dtd">
<!-- Generated by graphviz version 8.1.0 (20230707.0739)
 -->
<!-- Title: carla::rpc::ActorDescription Pages: 1 -->
<svg width="250pt" height="108pt"
 viewBox="0.00 0.00 250.12 108.00" xmlns="http://www.w3.org/2000/svg" xmlns:xlink="http://www.w3.org/1999/xlink">
<g id="graph0" class="graph" transform="scale(1 1) rotate(0) translate(4 104)">
<title>carla::rpc::ActorDescription</title>
<!-- Node1 -->
<g id="Node000001" class="node">
<title>Node1</title>
<g id="a_Node000001"><a xlink:title=" ">
<polygon fill="#999999" stroke="#666666" points="155.5,-20 21,-20 21,0 155.5,0 155.5,-20"/>
<text text-anchor="middle" x="88.25" y="-6.5" font-family="Helvetica,sans-Serif" font-size="10.00">carla::rpc::ActorDescription</text>
</a>
</g>
</g>
<!-- Node2 -->
<g id="Node000002" class="node">
<title>Node2</title>
<g id="a_Node000002"><a xlink:title=" ">
<polygon fill="white" stroke="#666666" points="50.5,-94 0,-94 0,-74 50.5,-74 50.5,-94"/>
<text text-anchor="middle" x="25.25" y="-80.5" font-family="Helvetica,sans-Serif" font-size="10.00">uint32_t</text>
</a>
</g>
</g>
<!-- Node2&#45;&gt;Node1 -->
<g id="edge1_Node000001_Node000002" class="edge">
<title>Node2&#45;&gt;Node1</title>
<g id="a_edge1_Node000001_Node000002"><a xlink:title=" ">
<path fill="none" stroke="#9a32cd" stroke-dasharray="5,2" d="M40.56,-65.5C53.07,-51.21 70.25,-31.57 80.21,-20.19"/>
<polygon fill="#9a32cd" stroke="#9a32cd" points="37.44,-62.76 33.49,-72.59 42.71,-67.37 37.44,-62.76"/>
</a>
</g>
<text text-anchor="middle" x="72.12" y="-40.5" font-family="Helvetica,sans-Serif" font-size="10.00" fill="grey"> uid</text>
</g>
<!-- Node3 -->
<g id="Node000003" class="node">
<title>Node3</title>
<g id="a_Node000003"><a xlink:title=" ">
<polygon fill="white" stroke="#666666" points="108.25,-94 68.25,-94 68.25,-74 108.25,-74 108.25,-94"/>
<text text-anchor="middle" x="88.25" y="-80.5" font-family="Helvetica,sans-Serif" font-size="10.00">string</text>
</a>
</g>
</g>
<!-- Node3&#45;&gt;Node1 -->
<g id="edge2_Node000001_Node000003" class="edge">
<title>Node3&#45;&gt;Node1</title>
<g id="a_edge2_Node000001_Node000003"><a xlink:title=" ">
<path fill="none" stroke="#9a32cd" stroke-dasharray="5,2" d="M88.25,-62.6C88.25,-48.65 88.25,-30.82 88.25,-20.19"/>
<polygon fill="#9a32cd" stroke="#9a32cd" points="84.75,-62.59 88.25,-72.59 91.75,-62.59 84.75,-62.59"/>
</a>
</g>
<text text-anchor="middle" x="93.5" y="-40.5" font-family="Helvetica,sans-Serif" font-size="10.00" fill="grey"> id</text>
</g>
<!-- Node4 -->
<g id="Node000004" class="node">
<title>Node4</title>
<g id="a_Node000004"><a xlink:title=" ">
<polygon fill="white" stroke="#666666" points="242.12,-100 126.38,-100 126.38,-68 242.12,-68 242.12,-100"/>
<text text-anchor="start" x="134.38" y="-86.5" font-family="Helvetica,sans-Serif" font-size="10.00">vector&lt; carla::rpc</text>
<text text-anchor="middle" x="184.25" y="-74.5" font-family="Helvetica,sans-Serif" font-size="10.00">::ActorAttributeValue &gt;</text>
</a>
</g>
</g>
<!-- Node4&#45;&gt;Node1 -->
<g id="edge3_Node000001_Node000004" class="edge">
<title>Node4&#45;&gt;Node1</title>
<g id="a_edge3_Node000001_Node000004"><a xlink:title=" ">
<path fill="none" stroke="#9a32cd" stroke-dasharray="5,2" d="M155.34,-61.32C137.08,-47.63 114.42,-30.63 100.67,-20.31"/>
<polygon fill="#9a32cd" stroke="#9a32cd" points="152.79,-64.53 162.89,-67.73 156.99,-58.93 152.79,-64.53"/>
</a>
</g>
<text text-anchor="middle" x="160" y="-40.5" font-family="Helvetica,sans-Serif" font-size="10.00" fill="grey"> attributes</text>
</g>
</g>
</svg>
