<?xml version="1.0" encoding="UTF-8" standalone="no"?>
<!DOCTYPE svg PUBLIC "-//W3C//DTD SVG 1.1//EN"
 "http://www.w3.org/Graphics/SVG/1.1/DTD/svg11.dtd">
<!-- Generated by graphviz version 8.1.0 (20230707.0739)
 -->
<!-- Title: CarlaRecorderAnimWalkers::Read Pages: 1 -->
<svg width="339pt" height="78pt"
 viewBox="0.00 0.00 339.25 78.00" xmlns="http://www.w3.org/2000/svg" xmlns:xlink="http://www.w3.org/1999/xlink">
<g id="graph0" class="graph" transform="scale(1 1) rotate(0) translate(4 74)">
<title>CarlaRecorderAnimWalkers::Read</title>
<!-- Node1 -->
<g id="Node000001" class="node">
<title>Node1</title>
<g id="a_Node000001"><a xlink:title=" ">
<polygon fill="#999999" stroke="#666666" points="136,-54 0,-54 0,-22 136,-22 136,-54"/>
<text text-anchor="start" x="8" y="-40.5" font-family="Helvetica,sans-Serif" font-size="10.00">CarlaRecorderAnimWalkers</text>
<text text-anchor="middle" x="68" y="-28.5" font-family="Helvetica,sans-Serif" font-size="10.00">::Read</text>
</a>
</g>
</g>
<!-- Node2 -->
<g id="Node000002" class="node">
<title>Node2</title>
<g id="a_Node000002"><a xlink:href="../../de/d09/classCarlaRecorderAnimWalkers.html#a1cc0ded3cf1207ce7e047b06184731c1" target="_top" xlink:title=" ">
<polygon fill="white" stroke="#666666" points="331.25,-70 172,-70 172,-50 331.25,-50 331.25,-70"/>
<text text-anchor="middle" x="251.62" y="-56.5" font-family="Helvetica,sans-Serif" font-size="10.00">CarlaRecorderAnimWalkers::Add</text>
</a>
</g>
</g>
<!-- Node1&#45;&gt;Node2 -->
<g id="edge1_Node000001_Node000002" class="edge">
<title>Node1&#45;&gt;Node2</title>
<g id="a_edge1_Node000001_Node000002"><a xlink:title=" ">
<path fill="none" stroke="#63b8ff" d="M136.37,-46.16C144.37,-47.13 152.64,-48.13 160.89,-49.13"/>
<polygon fill="#63b8ff" stroke="#63b8ff" points="160.36,-52.71 170.71,-50.44 161.2,-45.76 160.36,-52.71"/>
</a>
</g>
</g>
<!-- Node3 -->
<g id="Node000003" class="node">
<title>Node3</title>
<g id="a_Node000003"><a xlink:href="../../dc/dc8/structCarlaRecorderAnimWalker.html#ada7cbd06da99ac72a8c43ee523f74659" target="_top" xlink:title=" ">
<polygon fill="white" stroke="#666666" points="317,-32 186.25,-32 186.25,0 317,0 317,-32"/>
<text text-anchor="start" x="194.25" y="-18.5" font-family="Helvetica,sans-Serif" font-size="10.00">CarlaRecorderAnimWalker</text>
<text text-anchor="middle" x="251.62" y="-6.5" font-family="Helvetica,sans-Serif" font-size="10.00">::Read</text>
</a>
</g>
</g>
<!-- Node1&#45;&gt;Node3 -->
<g id="edge2_Node000001_Node000003" class="edge">
<title>Node1&#45;&gt;Node3</title>
<g id="a_edge2_Node000001_Node000003"><a xlink:title=" ">
<path fill="none" stroke="#63b8ff" d="M136.37,-29.84C148.99,-28.31 162.26,-26.7 175.11,-25.15"/>
<polygon fill="#63b8ff" stroke="#63b8ff" points="175.27,-28.53 184.78,-23.86 174.43,-21.58 175.27,-28.53"/>
</a>
</g>
</g>
</g>
</svg>
