<?xml version="1.0" encoding="UTF-8" standalone="no"?>
<!DOCTYPE svg PUBLIC "-//W3C//DTD SVG 1.1//EN"
 "http://www.w3.org/Graphics/SVG/1.1/DTD/svg11.dtd">
<!-- Generated by graphviz version 8.1.0 (20230707.0739)
 -->
<!-- Title: CarlaRecorderLightScenes::Add Pages: 1 -->
<svg width="1167pt" height="140pt"
 viewBox="0.00 0.00 1167.00 140.00" xmlns="http://www.w3.org/2000/svg" xmlns:xlink="http://www.w3.org/1999/xlink">
<g id="graph0" class="graph" transform="scale(1 1) rotate(0) translate(4 136)">
<title>CarlaRecorderLightScenes::Add</title>
<!-- Node1 -->
<g id="Node000001" class="node">
<title>Node1</title>
<g id="a_Node000001"><a xlink:title=" ">
<polygon fill="#999999" stroke="#666666" points="1159,-76 1004.25,-76 1004.25,-56 1159,-56 1159,-76"/>
<text text-anchor="middle" x="1081.62" y="-62.5" font-family="Helvetica,sans-Serif" font-size="10.00">CarlaRecorderLightScenes::Add</text>
</a>
</g>
</g>
<!-- Node2 -->
<g id="Node000002" class="node">
<title>Node2</title>
<g id="a_Node000002"><a xlink:href="../../de/db4/classFFrameData.html#ad878269e445f601aa8118932235ff07f" target="_top" xlink:title=" ">
<polygon fill="white" stroke="#666666" points="968.25,-132 830,-132 830,-100 968.25,-100 968.25,-132"/>
<text text-anchor="start" x="838" y="-118.5" font-family="Helvetica,sans-Serif" font-size="10.00">FFrameData::AddEventLight</text>
<text text-anchor="middle" x="899.12" y="-106.5" font-family="Helvetica,sans-Serif" font-size="10.00">SceneChanged</text>
</a>
</g>
</g>
<!-- Node1&#45;&gt;Node2 -->
<g id="edge1_Node000001_Node000002" class="edge">
<title>Node1&#45;&gt;Node2</title>
<g id="a_edge1_Node000001_Node000002"><a xlink:title=" ">
<path fill="none" stroke="#63b8ff" d="M1032.21,-79.41C1009.87,-85.6 983.14,-93 959.59,-99.53"/>
<polygon fill="#63b8ff" stroke="#63b8ff" points="1033.08,-82.52 1041.79,-76.48 1031.21,-75.78 1033.08,-82.52"/>
</a>
</g>
</g>
<!-- Node3 -->
<g id="Node000003" class="node">
<title>Node3</title>
<g id="a_Node000003"><a xlink:href="../../dd/db9/classACarlaRecorder.html#a66ece24dd7c2c338eddf2eb1c37f6398" target="_top" xlink:title=" ">
<polygon fill="white" stroke="#666666" points="964.88,-82 833.38,-82 833.38,-50 964.88,-50 964.88,-82"/>
<text text-anchor="start" x="841.38" y="-68.5" font-family="Helvetica,sans-Serif" font-size="10.00">ACarlaRecorder::AddEvent</text>
<text text-anchor="middle" x="899.12" y="-56.5" font-family="Helvetica,sans-Serif" font-size="10.00">LightSceneChanged</text>
</a>
</g>
</g>
<!-- Node1&#45;&gt;Node3 -->
<g id="edge2_Node000001_Node000003" class="edge">
<title>Node1&#45;&gt;Node3</title>
<g id="a_edge2_Node000001_Node000003"><a xlink:title=" ">
<path fill="none" stroke="#63b8ff" d="M992.9,-66C983.57,-66 974.2,-66 965.2,-66"/>
<polygon fill="#63b8ff" stroke="#63b8ff" points="992.82,-69.5 1002.82,-66 992.81,-62.5 992.82,-69.5"/>
</a>
</g>
</g>
<!-- Node9 -->
<g id="Node000009" class="node">
<title>Node9</title>
<g id="a_Node000009"><a xlink:href="../../d0/d93/structCarlaRecorderLightScenes.html#a2b4889233d30b1495bf5ba8ba51733ef" target="_top" xlink:title=" ">
<polygon fill="white" stroke="#666666" points="964.88,-32 833.38,-32 833.38,0 964.88,0 964.88,-32"/>
<text text-anchor="start" x="841.38" y="-18.5" font-family="Helvetica,sans-Serif" font-size="10.00">CarlaRecorderLightScenes</text>
<text text-anchor="middle" x="899.12" y="-6.5" font-family="Helvetica,sans-Serif" font-size="10.00">::Read</text>
</a>
</g>
</g>
<!-- Node1&#45;&gt;Node9 -->
<g id="edge8_Node000001_Node000009" class="edge">
<title>Node1&#45;&gt;Node9</title>
<g id="a_edge8_Node000001_Node000009"><a xlink:title=" ">
<path fill="none" stroke="#63b8ff" d="M1032.21,-52.59C1009.87,-46.4 983.14,-39 959.59,-32.47"/>
<polygon fill="#63b8ff" stroke="#63b8ff" points="1031.21,-56.22 1041.79,-55.52 1033.08,-49.48 1031.21,-56.22"/>
</a>
</g>
</g>
<!-- Node4 -->
<g id="Node000004" class="node">
<title>Node4</title>
<g id="a_Node000004"><a xlink:href="../../dd/db9/classACarlaRecorder.html#a820569404a522e28f6c4d3d638712214" target="_top" xlink:title=" ">
<polygon fill="white" stroke="#666666" points="794,-82 651.25,-82 651.25,-50 794,-50 794,-82"/>
<text text-anchor="start" x="659.25" y="-68.5" font-family="Helvetica,sans-Serif" font-size="10.00">ACarlaRecorder::AddExisting</text>
<text text-anchor="middle" x="722.62" y="-56.5" font-family="Helvetica,sans-Serif" font-size="10.00">Actors</text>
</a>
</g>
</g>
<!-- Node3&#45;&gt;Node4 -->
<g id="edge3_Node000003_Node000004" class="edge">
<title>Node3&#45;&gt;Node4</title>
<g id="a_edge3_Node000003_Node000004"><a xlink:title=" ">
<path fill="none" stroke="#63b8ff" d="M822.3,-66C812.97,-66 803.47,-66 794.22,-66"/>
<polygon fill="#63b8ff" stroke="#63b8ff" points="822.15,-69.5 832.15,-66 822.15,-62.5 822.15,-69.5"/>
</a>
</g>
</g>
<!-- Node5 -->
<g id="Node000005" class="node">
<title>Node5</title>
<g id="a_Node000005"><a xlink:href="../../dd/db9/classACarlaRecorder.html#aba719596bd56c72a39f902f6e9a5d290" target="_top" xlink:title=" ">
<polygon fill="white" stroke="#666666" points="598.75,-76 487.5,-76 487.5,-56 598.75,-56 598.75,-76"/>
<text text-anchor="middle" x="543.12" y="-62.5" font-family="Helvetica,sans-Serif" font-size="10.00">ACarlaRecorder::Start</text>
</a>
</g>
</g>
<!-- Node4&#45;&gt;Node5 -->
<g id="edge4_Node000004_Node000005" class="edge">
<title>Node4&#45;&gt;Node5</title>
<g id="a_edge4_Node000004_Node000005"><a xlink:title=" ">
<path fill="none" stroke="#63b8ff" d="M639.97,-66C626.17,-66 612.15,-66 599.23,-66"/>
<polygon fill="#63b8ff" stroke="#63b8ff" points="639.96,-69.5 649.96,-66 639.96,-62.5 639.96,-69.5"/>
</a>
</g>
</g>
<!-- Node6 -->
<g id="Node000006" class="node">
<title>Node6</title>
<g id="a_Node000006"><a xlink:href="../../dc/d84/classUCarlaEpisode.html#a1059ce6d102804115b3243de46d46bec" target="_top" xlink:title=" ">
<polygon fill="white" stroke="#666666" points="435,-76 288.5,-76 288.5,-56 435,-56 435,-76"/>
<text text-anchor="middle" x="361.75" y="-62.5" font-family="Helvetica,sans-Serif" font-size="10.00">UCarlaEpisode::StartRecorder</text>
</a>
</g>
</g>
<!-- Node5&#45;&gt;Node6 -->
<g id="edge5_Node000005_Node000006" class="edge">
<title>Node5&#45;&gt;Node6</title>
<g id="a_edge5_Node000005_Node000006"><a xlink:title=" ">
<path fill="none" stroke="#63b8ff" d="M476.35,-66C463.02,-66 448.94,-66 435.39,-66"/>
<polygon fill="#63b8ff" stroke="#63b8ff" points="476.33,-69.5 486.33,-66 476.33,-62.5 476.33,-69.5"/>
</a>
</g>
</g>
<!-- Node7 -->
<g id="Node000007" class="node">
<title>Node7</title>
<g id="a_Node000007"><a xlink:href="../../d7/d97/classFCarlaServer_1_1FPimpl.html#a675a6b572112a21e8bc011dddfd0de86" target="_top" xlink:title=" ">
<polygon fill="white" stroke="#666666" points="252.5,-82 144.25,-82 144.25,-50 252.5,-50 252.5,-82"/>
<text text-anchor="start" x="152.25" y="-68.5" font-family="Helvetica,sans-Serif" font-size="10.00">FCarlaServer::FPimpl</text>
<text text-anchor="middle" x="198.38" y="-56.5" font-family="Helvetica,sans-Serif" font-size="10.00">::BindActions</text>
</a>
</g>
</g>
<!-- Node6&#45;&gt;Node7 -->
<g id="edge6_Node000006_Node000007" class="edge">
<title>Node6&#45;&gt;Node7</title>
<g id="a_edge6_Node000006_Node000007"><a xlink:title=" ">
<path fill="none" stroke="#63b8ff" d="M277.19,-66C268.9,-66 260.65,-66 252.79,-66"/>
<polygon fill="#63b8ff" stroke="#63b8ff" points="277.09,-69.5 287.09,-66 277.09,-62.5 277.09,-69.5"/>
</a>
</g>
</g>
<!-- Node8 -->
<g id="Node000008" class="node">
<title>Node8</title>
<g id="a_Node000008"><a xlink:href="../../d7/d97/classFCarlaServer_1_1FPimpl.html#ab9ff29fc81bd2f9a14677941c7f7b62d" target="_top" xlink:title=" ">
<polygon fill="white" stroke="#666666" points="108.25,-82 0,-82 0,-50 108.25,-50 108.25,-82"/>
<text text-anchor="start" x="8" y="-68.5" font-family="Helvetica,sans-Serif" font-size="10.00">FCarlaServer::FPimpl</text>
<text text-anchor="middle" x="54.12" y="-56.5" font-family="Helvetica,sans-Serif" font-size="10.00">::FPimpl</text>
</a>
</g>
</g>
<!-- Node7&#45;&gt;Node8 -->
<g id="edge7_Node000007_Node000008" class="edge">
<title>Node7&#45;&gt;Node8</title>
<g id="a_edge7_Node000007_Node000008"><a xlink:title=" ">
<path fill="none" stroke="#63b8ff" d="M133.19,-66C124.87,-66 116.43,-66 108.32,-66"/>
<polygon fill="#63b8ff" stroke="#63b8ff" points="133,-69.5 143,-66 133,-62.5 133,-69.5"/>
</a>
</g>
</g>
<!-- Node10 -->
<g id="Node000010" class="node">
<title>Node10</title>
<g id="a_Node000010"><a xlink:href="../../de/db4/classFFrameData.html#a1d60d134d0c4ed720a5dbfc8688559ce" target="_top" xlink:title=" ">
<polygon fill="white" stroke="#666666" points="771.88,-26 673.38,-26 673.38,-6 771.88,-6 771.88,-26"/>
<text text-anchor="middle" x="722.62" y="-12.5" font-family="Helvetica,sans-Serif" font-size="10.00">FFrameData::Read</text>
</a>
</g>
</g>
<!-- Node9&#45;&gt;Node10 -->
<g id="edge9_Node000009_Node000010" class="edge">
<title>Node9&#45;&gt;Node10</title>
<g id="a_edge9_Node000009_Node000010"><a xlink:title=" ">
<path fill="none" stroke="#63b8ff" d="M822.63,-16C805.57,-16 787.9,-16 772.29,-16"/>
<polygon fill="#63b8ff" stroke="#63b8ff" points="822.15,-19.5 832.15,-16 822.15,-12.5 822.15,-19.5"/>
</a>
</g>
</g>
<!-- Node11 -->
<g id="Node000011" class="node">
<title>Node11</title>
<g id="a_Node000011"><a xlink:href="../../dc/d49/classFCarlaEngine.html#ab8d13063cde985781237dd7da308227e" target="_top" xlink:title=" ">
<polygon fill="white" stroke="#666666" points="615.25,-26 471,-26 471,-6 615.25,-6 615.25,-26"/>
<text text-anchor="middle" x="543.12" y="-12.5" font-family="Helvetica,sans-Serif" font-size="10.00">FCarlaEngine::NotifyInitGame</text>
</a>
</g>
</g>
<!-- Node10&#45;&gt;Node11 -->
<g id="edge10_Node000010_Node000011" class="edge">
<title>Node10&#45;&gt;Node11</title>
<g id="a_edge10_Node000010_Node000011"><a xlink:title=" ">
<path fill="none" stroke="#63b8ff" d="M662.43,-16C647.41,-16 631.1,-16 615.54,-16"/>
<polygon fill="#63b8ff" stroke="#63b8ff" points="662.12,-19.5 672.12,-16 662.12,-12.5 662.12,-19.5"/>
</a>
</g>
</g>
</g>
</svg>
