<?xml version="1.0" encoding="UTF-8" standalone="no"?>
<!DOCTYPE svg PUBLIC "-//W3C//DTD SVG 1.1//EN"
 "http://www.w3.org/Graphics/SVG/1.1/DTD/svg11.dtd">
<!-- Generated by graphviz version 8.1.0 (20230707.0739)
 -->
<!-- Title: carla::road::Junction::GetBoundingBox Pages: 1 -->
<!--zoomable 494 -->

<svg id="main" version="1.1" xmlns="http://www.w3.org/2000/svg" xmlns:xlink="http://www.w3.org/1999/xlink" xml:space="preserve" onload="init(evt)">
<style type="text/css"><![CDATA[
.node, .edge {opacity: 0.7;}
.node.selected, .edge.selected {opacity: 1;}
.edge:hover path { stroke: red; }
.edge:hover polygon { stroke: red; fill: red; }
]]></style>

<defs>
  <circle id="rim" cx="0" cy="0" r="7"/>
  <circle id="rim2" cx="0" cy="0" r="3.5"/>
  <g id="zoomPlus">
    <use xlink:href="#rim" fill="#404040"><set attributeName="fill" to="#808080" begin="zoomplus.mouseover" end="zoomplus.mouseout"/></use>
    <path d="M-4,0h8M0,-4v8" fill="none" stroke="white" stroke-width="1.5" pointer-events="none"/>
  </g>
  <g id="zoomMin">
    <use xlink:href="#rim" fill="#404040"><set attributeName="fill" to="#808080" begin="zoomminus.mouseover" end="zoomminus.mouseout"/></use>
    <path d="M-4,0h8" fill="none" stroke="white" stroke-width="1.5" pointer-events="none"/>
  </g>
  <g id="arrowUp" transform="translate(30 24)">
    <use xlink:href="#rim"/>
    <path pointer-events="none" fill="none" stroke="white" stroke-width="1.5" d="M0,-3.0v7 M-2.5,-0.5L0,-3.0L2.5,-0.5"/>
  </g>
  <g id="arrowRight" transform="rotate(90) translate(36 -43)">
    <use xlink:href="#rim"/>
    <path pointer-events="none" fill="none" stroke="white" stroke-width="1.5" d="M0,-3.0v7 M-2.5,-0.5L0,-3.0L2.5,-0.5"/>
  </g>
  <g id="arrowDown" transform="rotate(180) translate(-30 -48)">
    <use xlink:href="#rim"/>
    <path pointer-events="none" fill="none" stroke="white" stroke-width="1.5" d="M0,-3.0v7 M-2.5,-0.5L0,-3.0L2.5,-0.5"/>
  </g>
  <g id="arrowLeft" transform="rotate(270) translate(-36 17)">
    <use xlink:href="#rim"/>
    <path pointer-events="none" fill="none" stroke="white" stroke-width="1.5" d="M0,-3.0v7 M-2.5,-0.5L0,-3.0L2.5,-0.5"/>
  </g>
  <g id="resetDef">
    <use xlink:href="#rim2" fill="#404040"><set attributeName="fill" to="#808080" begin="reset.mouseover" end="reset.mouseout"/></use>
  </g>
</defs>
<script type="application/ecmascript">
var viewWidth = 1437;
var viewHeight = 494;
var sectionId = 'dynsection-2';
</script>
<script type="application/ecmascript" xlink:href="../../svg.min.js"/>
<svg id="graph" class="graph">
<g id="viewport">
<title>carla::road::Junction::GetBoundingBox</title>
<!-- Node1 -->
<g id="Node000001" class="node">
<title>Node1</title>
<g id="a_Node000001"><a xlink:title=" ">
<polygon fill="#999999" stroke="#666666" points="1428.5,-188 1324.75,-188 1324.75,-156 1428.5,-156 1428.5,-188"/>
<text text-anchor="start" x="1332.75" y="-174.5" font-family="Helvetica,sans-Serif" font-size="10.00">carla::road::Junction</text>
<text text-anchor="middle" x="1376.62" y="-162.5" font-family="Helvetica,sans-Serif" font-size="10.00">::GetBoundingBox</text>
</a>
</g>
</g>
<!-- Node2 -->
<g id="Node000002" class="node">
<title>Node2</title>
<g id="a_Node000002"><a xlink:href="../../d0/d34/classcarla_1_1road_1_1Map.html#ae949a1582f56aa3dbc7194c024e8aa3c" target="_top" xlink:title=" ">
<polygon fill="white" stroke="#666666" points="1281.25,-238 1149.75,-238 1149.75,-206 1281.25,-206 1281.25,-238"/>
<text text-anchor="start" x="1157.75" y="-224.5" font-family="Helvetica,sans-Serif" font-size="10.00">carla::road::Map::Compute</text>
<text text-anchor="middle" x="1215.5" y="-212.5" font-family="Helvetica,sans-Serif" font-size="10.00">JunctionConflicts</text>
</a>
</g>
</g>
<!-- Node1&#45;&gt;Node2 -->
<g id="edge1_Node000001_Node000002" class="edge">
<title>Node1&#45;&gt;Node2</title>
<g id="a_edge1_Node000001_Node000002"><a xlink:title=" ">
<path fill="none" stroke="#63b8ff" d="M1314.24,-191.29C1299.3,-195.98 1283.47,-200.96 1268.99,-205.51"/>
<polygon fill="#63b8ff" stroke="#63b8ff" points="1314.91,-194.43 1323.4,-188.1 1312.81,-187.75 1314.91,-194.43"/>
</a>
</g>
</g>
<!-- Node23 -->
<g id="Node000023" class="node">
<title>Node23</title>
<g id="a_Node000023"><a xlink:href="../../dc/df7/classcarla_1_1client_1_1Junction.html#a72345b6c194cd09baca80bc3c2097015" target="_top" xlink:title=" ">
<polygon fill="white" stroke="#666666" points="1269.62,-188 1161.38,-188 1161.38,-156 1269.62,-156 1269.62,-188"/>
<text text-anchor="start" x="1169.38" y="-174.5" font-family="Helvetica,sans-Serif" font-size="10.00">carla::client::Junction</text>
<text text-anchor="middle" x="1215.5" y="-162.5" font-family="Helvetica,sans-Serif" font-size="10.00">::Junction</text>
</a>
</g>
</g>
<!-- Node1&#45;&gt;Node23 -->
<g id="edge23_Node000001_Node000023" class="edge">
<title>Node1&#45;&gt;Node23</title>
<g id="a_edge23_Node000001_Node000023"><a xlink:title=" ">
<path fill="none" stroke="#63b8ff" d="M1313.6,-172C1299.24,-172 1284.06,-172 1270.09,-172"/>
<polygon fill="#63b8ff" stroke="#63b8ff" points="1313.4,-175.5 1323.4,-172 1313.4,-168.5 1313.4,-175.5"/>
</a>
</g>
</g>
<!-- Node24 -->
<g id="Node000024" class="node">
<title>Node24</title>
<g id="a_Node000024"><a xlink:href="../../d0/d34/classcarla_1_1road_1_1Map.html#a1653a470bdf6e93b0471773b2e079847" target="_top" xlink:title=" ">
<polygon fill="white" stroke="#666666" points="1288.75,-138 1142.25,-138 1142.25,-118 1288.75,-118 1288.75,-138"/>
<text text-anchor="middle" x="1215.5" y="-124.5" font-family="Helvetica,sans-Serif" font-size="10.00">carla::road::Map::SDFToMesh</text>
</a>
</g>
</g>
<!-- Node1&#45;&gt;Node24 -->
<g id="edge24_Node000001_Node000024" class="edge">
<title>Node1&#45;&gt;Node24</title>
<g id="a_edge24_Node000001_Node000024"><a xlink:title=" ">
<path fill="none" stroke="#63b8ff" d="M1314.33,-154.17C1305.75,-151.73 1297.03,-149.28 1288.75,-147 1278.5,-144.18 1267.4,-141.21 1257.05,-138.49"/>
<polygon fill="#63b8ff" stroke="#63b8ff" points="1313.11,-157.75 1323.69,-157.13 1315.04,-151.02 1313.11,-157.75"/>
</a>
</g>
</g>
<!-- Node3 -->
<g id="Node000003" class="node">
<title>Node3</title>
<g id="a_Node000003"><a xlink:href="../../de/d16/classcarla_1_1road_1_1MapBuilder.html#a681b6b968d9fc6a9477dca966ec3e09e" target="_top" xlink:title="Compute the conflicts of the roads (intersecting roads)">
<polygon fill="white" stroke="#666666" points="1106.25,-238 949.25,-238 949.25,-206 1106.25,-206 1106.25,-238"/>
<text text-anchor="start" x="957.25" y="-224.5" font-family="Helvetica,sans-Serif" font-size="10.00">carla::road::MapBuilder</text>
<text text-anchor="middle" x="1027.75" y="-212.5" font-family="Helvetica,sans-Serif" font-size="10.00">::ComputeJunctionRoadConflicts</text>
</a>
</g>
</g>
<!-- Node2&#45;&gt;Node3 -->
<g id="edge2_Node000002_Node000003" class="edge">
<title>Node2&#45;&gt;Node3</title>
<g id="a_edge2_Node000002_Node000003"><a xlink:title=" ">
<path fill="none" stroke="#63b8ff" d="M1138.45,-222C1127.93,-222 1117.12,-222 1106.57,-222"/>
<polygon fill="#63b8ff" stroke="#63b8ff" points="1138.27,-225.5 1148.27,-222 1138.27,-218.5 1138.27,-225.5"/>
</a>
</g>
</g>
<!-- Node4 -->
<g id="Node000004" class="node">
<title>Node4</title>
<g id="a_Node000004"><a xlink:href="../../de/d16/classcarla_1_1road_1_1MapBuilder.html#a7b0bb12125e15fd246924aee12327e7e" target="_top" xlink:title=" ">
<polygon fill="white" stroke="#666666" points="905.38,-238 788.88,-238 788.88,-206 905.38,-206 905.38,-238"/>
<text text-anchor="start" x="796.88" y="-224.5" font-family="Helvetica,sans-Serif" font-size="10.00">carla::road::MapBuilder</text>
<text text-anchor="middle" x="847.12" y="-212.5" font-family="Helvetica,sans-Serif" font-size="10.00">::Build</text>
</a>
</g>
</g>
<!-- Node3&#45;&gt;Node4 -->
<g id="edge3_Node000003_Node000004" class="edge">
<title>Node3&#45;&gt;Node4</title>
<g id="a_edge3_Node000003_Node000004"><a xlink:title=" ">
<path fill="none" stroke="#63b8ff" d="M938.01,-222C927.07,-222 916.12,-222 905.81,-222"/>
<polygon fill="#63b8ff" stroke="#63b8ff" points="937.92,-225.5 947.92,-222 937.92,-218.5 937.92,-225.5"/>
</a>
</g>
</g>
<!-- Node5 -->
<g id="Node000005" class="node">
<title>Node5</title>
<g id="a_Node000005"><a xlink:href="../../de/d5a/classcarla_1_1opendrive_1_1OpenDriveParser.html#a599fd6174f30aaee59590c16503afd8a" target="_top" xlink:title=" ">
<polygon fill="white" stroke="#666666" points="730.75,-238 597,-238 597,-206 730.75,-206 730.75,-238"/>
<text text-anchor="start" x="605" y="-224.5" font-family="Helvetica,sans-Serif" font-size="10.00">carla::opendrive::OpenDrive</text>
<text text-anchor="middle" x="663.88" y="-212.5" font-family="Helvetica,sans-Serif" font-size="10.00">Parser::Load</text>
</a>
</g>
</g>
<!-- Node4&#45;&gt;Node5 -->
<g id="edge4_Node000004_Node000005" class="edge">
<title>Node4&#45;&gt;Node5</title>
<g id="a_edge4_Node000004_Node000005"><a xlink:title=" ">
<path fill="none" stroke="#63b8ff" d="M777.81,-222C762.48,-222 746.25,-222 731.02,-222"/>
<polygon fill="#63b8ff" stroke="#63b8ff" points="777.78,-225.5 787.78,-222 777.78,-218.5 777.78,-225.5"/>
</a>
</g>
</g>
<!-- Node6 -->
<g id="Node000006" class="node">
<title>Node6</title>
<g id="a_Node000006"><a xlink:href="../../d0/d2d/classAOpenDriveActor.html#ac8678af2b371c3a3faca8775ab1e4816" target="_top" xlink:title=" ">
<polygon fill="white" stroke="#666666" points="536.62,-486 387.88,-486 387.88,-466 536.62,-466 536.62,-486"/>
<text text-anchor="middle" x="462.25" y="-472.5" font-family="Helvetica,sans-Serif" font-size="10.00">AOpenDriveActor::BuildRoutes</text>
</a>
</g>
</g>
<!-- Node5&#45;&gt;Node6 -->
<g id="edge5_Node000005_Node000006" class="edge">
<title>Node5&#45;&gt;Node6</title>
<g id="a_edge5_Node000005_Node000006"><a xlink:title=" ">
<path fill="none" stroke="#63b8ff" d="M657.52,-248.9C646.24,-298.22 615.21,-403.01 546.75,-457 542.43,-460.41 537.62,-463.23 532.54,-465.55"/>
<polygon fill="#63b8ff" stroke="#63b8ff" points="661.09,-249.95 659.81,-239.43 654.25,-248.46 661.09,-249.95"/>
</a>
</g>
</g>
<!-- Node7 -->
<g id="Node000007" class="node">
<title>Node7</title>
<g id="a_Node000007"><a xlink:href="../../d8/dfe/classUOpenDriveMap.html#a0ce422ee1f79211e6957bab1d2048348" target="_top" xlink:title="Load this map with an OpenDrive (XODR) file.">
<polygon fill="white" stroke="#666666" points="518.62,-448 405.88,-448 405.88,-428 518.62,-428 518.62,-448"/>
<text text-anchor="middle" x="462.25" y="-434.5" font-family="Helvetica,sans-Serif" font-size="10.00">UOpenDriveMap::Load</text>
</a>
</g>
</g>
<!-- Node5&#45;&gt;Node7 -->
<g id="edge6_Node000005_Node000007" class="edge">
<title>Node5&#45;&gt;Node7</title>
<g id="a_edge6_Node000005_Node000007"><a xlink:title=" ">
<path fill="none" stroke="#63b8ff" d="M654.91,-248.48C640.6,-291.34 606.32,-375.48 546.75,-419 538.59,-424.96 528.87,-429.1 519,-431.96"/>
<polygon fill="#63b8ff" stroke="#63b8ff" points="658.46,-249.88 658.2,-239.28 651.8,-247.73 658.46,-249.88"/>
</a>
</g>
</g>
<!-- Node10 -->
<g id="Node000010" class="node">
<title>Node10</title>
<g id="a_Node000010"><a xlink:href="../../dc/d84/classUCarlaEpisode.html#a3eeed56e0cc3cf04d266b86c5a88c3ed" target="_top" xlink:title="Load a new map generating the mesh from OpenDRIVE data and start a new episode.">
<polygon fill="white" stroke="#666666" points="546.75,-410 377.75,-410 377.75,-378 546.75,-378 546.75,-410"/>
<text text-anchor="start" x="385.75" y="-396.5" font-family="Helvetica,sans-Serif" font-size="10.00">UCarlaEpisode::LoadNewOpendrive</text>
<text text-anchor="middle" x="462.25" y="-384.5" font-family="Helvetica,sans-Serif" font-size="10.00">Episode</text>
</a>
</g>
</g>
<!-- Node5&#45;&gt;Node10 -->
<g id="edge9_Node000005_Node000010" class="edge">
<title>Node5&#45;&gt;Node10</title>
<g id="a_edge9_Node000005_Node000010"><a xlink:title=" ">
<path fill="none" stroke="#63b8ff" d="M649.17,-247.8C630.39,-280.72 593.57,-337.21 546.75,-369 541.99,-372.23 536.81,-375.05 531.43,-377.52"/>
<polygon fill="#63b8ff" stroke="#63b8ff" points="652.61,-249.83 654.42,-239.39 646.49,-246.42 652.61,-249.83"/>
</a>
</g>
</g>
<!-- Node13 -->
<g id="Node000013" class="node">
<title>Node13</title>
<g id="a_Node000013"><a xlink:href="../../d2/daf/namespacecarla_1_1client.html#a228b83c6429f8e3406a93a1b41eb1565" target="_top" xlink:title=" ">
<polygon fill="white" stroke="#666666" points="519.75,-360 404.75,-360 404.75,-340 519.75,-340 519.75,-360"/>
<text text-anchor="middle" x="462.25" y="-346.5" font-family="Helvetica,sans-Serif" font-size="10.00">carla::client::MakeMap</text>
</a>
</g>
</g>
<!-- Node5&#45;&gt;Node13 -->
<g id="edge12_Node000005_Node000013" class="edge">
<title>Node5&#45;&gt;Node13</title>
<g id="a_edge12_Node000005_Node000013"><a xlink:title=" ">
<path fill="none" stroke="#63b8ff" d="M643.71,-246.42C622.65,-271.53 586.5,-309.86 546.75,-331 538.48,-335.4 529.22,-338.78 519.97,-341.38"/>
<polygon fill="#63b8ff" stroke="#63b8ff" points="646.87,-249.08 650.51,-239.13 641.46,-244.64 646.87,-249.08"/>
</a>
</g>
</g>
<!-- Node14 -->
<g id="Node000014" class="node">
<title>Node14</title>
<g id="a_Node000014"><a xlink:href="../../df/da5/classATrafficLightManager.html#a212893f28dfefd3883c68be7e9a7d835" target="_top" xlink:title=" ">
<polygon fill="white" stroke="#666666" points="534.38,-322 390.12,-322 390.12,-278 534.38,-278 534.38,-322"/>
<text text-anchor="start" x="398.12" y="-308.5" font-family="Helvetica,sans-Serif" font-size="10.00">ATrafficLightManager</text>
<text text-anchor="start" x="398.12" y="-296.5" font-family="Helvetica,sans-Serif" font-size="10.00">::MatchTrafficLightActorsWith</text>
<text text-anchor="middle" x="462.25" y="-284.5" font-family="Helvetica,sans-Serif" font-size="10.00">OpenDriveSignals</text>
</a>
</g>
</g>
<!-- Node5&#45;&gt;Node14 -->
<g id="edge13_Node000005_Node000014" class="edge">
<title>Node5&#45;&gt;Node14</title>
<g id="a_edge13_Node000005_Node000014"><a xlink:title=" ">
<path fill="none" stroke="#63b8ff" d="M612.91,-242.59C592.45,-250.93 568.52,-260.56 546.75,-269 539.54,-271.8 531.96,-274.68 524.44,-277.52"/>
<polygon fill="#63b8ff" stroke="#63b8ff" points="614.02,-245.51 621.95,-238.49 611.37,-239.03 614.02,-245.51"/>
</a>
</g>
</g>
<!-- Node15 -->
<g id="Node000015" class="node">
<title>Node15</title>
<g id="a_Node000015"><a xlink:href="../../db/de5/classACarlaGameModeBase.html#aa1cc7f6d077f3a4dcf7b1d523c9f5d2f" target="_top" xlink:title=" ">
<polygon fill="white" stroke="#666666" points="521.25,-260 403.25,-260 403.25,-228 521.25,-228 521.25,-260"/>
<text text-anchor="start" x="411.25" y="-246.5" font-family="Helvetica,sans-Serif" font-size="10.00">ACarlaGameModeBase</text>
<text text-anchor="middle" x="462.25" y="-234.5" font-family="Helvetica,sans-Serif" font-size="10.00">::ParseOpenDrive</text>
</a>
</g>
</g>
<!-- Node5&#45;&gt;Node15 -->
<g id="edge14_Node000005_Node000015" class="edge">
<title>Node5&#45;&gt;Node15</title>
<g id="a_edge14_Node000005_Node000015"><a xlink:title=" ">
<path fill="none" stroke="#63b8ff" d="M585.98,-230.47C564.58,-232.83 541.69,-235.35 521.55,-237.57"/>
<polygon fill="#63b8ff" stroke="#63b8ff" points="586.12,-233.87 595.68,-229.3 585.36,-226.91 586.12,-233.87"/>
</a>
</g>
</g>
<!-- Node17 -->
<g id="Node000017" class="node">
<title>Node17</title>
<g id="a_Node000017"><a xlink:href="../../d1/dc0/test__opendrive_8cpp.html#a95337c8716f4e9d4e8bba560dbde9e34" target="_top" xlink:title=" ">
<polygon fill="white" stroke="#666666" points="482.25,-210 442.25,-210 442.25,-190 482.25,-190 482.25,-210"/>
<text text-anchor="middle" x="462.25" y="-196.5" font-family="Helvetica,sans-Serif" font-size="10.00">TEST</text>
</a>
</g>
</g>
<!-- Node5&#45;&gt;Node17 -->
<g id="edge17_Node000005_Node000017" class="edge">
<title>Node5&#45;&gt;Node17</title>
<g id="a_edge17_Node000005_Node000017"><a xlink:title=" ">
<path fill="none" stroke="#63b8ff" d="M586.22,-213.55C548.63,-209.41 506.4,-204.76 482.49,-202.12"/>
<polygon fill="#63b8ff" stroke="#63b8ff" points="585.36,-217.09 595.68,-214.7 586.12,-210.13 585.36,-217.09"/>
</a>
</g>
</g>
<!-- Node18 -->
<g id="Node000018" class="node">
<title>Node18</title>
<g id="a_Node000018"><a xlink:href="../../d1/dc0/test__opendrive_8cpp.html#a21ad6143dcb9642d77c0dfc031f41b2a" target="_top" xlink:title=" ">
<polygon fill="white" stroke="#666666" points="482.25,-172 442.25,-172 442.25,-152 482.25,-152 482.25,-172"/>
<text text-anchor="middle" x="462.25" y="-158.5" font-family="Helvetica,sans-Serif" font-size="10.00">TEST</text>
</a>
</g>
</g>
<!-- Node5&#45;&gt;Node18 -->
<g id="edge18_Node000005_Node000018" class="edge">
<title>Node5&#45;&gt;Node18</title>
<g id="a_edge18_Node000005_Node000018"><a xlink:title=" ">
<path fill="none" stroke="#63b8ff" d="M609.7,-201.77C590.08,-194.69 567.55,-187.02 546.75,-181 525.04,-174.72 499.68,-169.2 482.65,-165.75"/>
<polygon fill="#63b8ff" stroke="#63b8ff" points="608.38,-205.38 618.97,-205.52 610.77,-198.8 608.38,-205.38"/>
</a>
</g>
</g>
<!-- Node19 -->
<g id="Node000019" class="node">
<title>Node19</title>
<g id="a_Node000019"><a xlink:href="../../d1/dc0/test__opendrive_8cpp.html#ad3c77eb93e568426e72ddb84a31031a7" target="_top" xlink:title=" ">
<polygon fill="white" stroke="#666666" points="482.25,-134 442.25,-134 442.25,-114 482.25,-114 482.25,-134"/>
<text text-anchor="middle" x="462.25" y="-120.5" font-family="Helvetica,sans-Serif" font-size="10.00">TEST</text>
</a>
</g>
</g>
<!-- Node5&#45;&gt;Node19 -->
<g id="edge19_Node000005_Node000019" class="edge">
<title>Node5&#45;&gt;Node19</title>
<g id="a_edge19_Node000005_Node000019"><a xlink:title=" ">
<path fill="none" stroke="#63b8ff" d="M635.31,-198.85C612.82,-181.08 579.51,-157.26 546.75,-143 525.76,-133.86 499.8,-128.84 482.46,-126.29"/>
<polygon fill="#63b8ff" stroke="#63b8ff" points="632.68,-202.03 642.67,-205.56 637.07,-196.57 632.68,-202.03"/>
</a>
</g>
</g>
<!-- Node20 -->
<g id="Node000020" class="node">
<title>Node20</title>
<g id="a_Node000020"><a xlink:href="../../d1/dc0/test__opendrive_8cpp.html#aa6244d8f18c32ca7e6f0b3de79354dda" target="_top" xlink:title=" ">
<polygon fill="white" stroke="#666666" points="482.25,-96 442.25,-96 442.25,-76 482.25,-76 482.25,-96"/>
<text text-anchor="middle" x="462.25" y="-82.5" font-family="Helvetica,sans-Serif" font-size="10.00">TEST</text>
</a>
</g>
</g>
<!-- Node5&#45;&gt;Node20 -->
<g id="edge20_Node000005_Node000020" class="edge">
<title>Node5&#45;&gt;Node20</title>
<g id="a_edge20_Node000005_Node000020"><a xlink:title=" ">
<path fill="none" stroke="#63b8ff" d="M633.02,-198.9C617.33,-186.12 598.19,-169.52 582.75,-153 564.54,-133.52 569.12,-119.51 546.75,-105 527.29,-92.38 500.54,-88.08 482.61,-86.65"/>
<polygon fill="#63b8ff" stroke="#63b8ff" points="630.36,-202.04 640.35,-205.57 634.74,-196.59 630.36,-202.04"/>
</a>
</g>
</g>
<!-- Node21 -->
<g id="Node000021" class="node">
<title>Node21</title>
<g id="a_Node000021"><a xlink:href="../../d1/dc0/test__opendrive_8cpp.html#ac8d924b4ffb05114a054b94c74cffa78" target="_top" xlink:title=" ">
<polygon fill="white" stroke="#666666" points="482.25,-58 442.25,-58 442.25,-38 482.25,-38 482.25,-58"/>
<text text-anchor="middle" x="462.25" y="-44.5" font-family="Helvetica,sans-Serif" font-size="10.00">TEST</text>
</a>
</g>
</g>
<!-- Node5&#45;&gt;Node21 -->
<g id="edge21_Node000005_Node000021" class="edge">
<title>Node5&#45;&gt;Node21</title>
<g id="a_edge21_Node000005_Node000021"><a xlink:title=" ">
<path fill="none" stroke="#63b8ff" d="M629.95,-199.3C614.05,-187.05 595.68,-170.8 582.75,-153 558.4,-119.47 578.47,-93.66 546.75,-67 528.77,-51.88 501.18,-48.19 482.69,-47.58"/>
<polygon fill="#63b8ff" stroke="#63b8ff" points="627.37,-202.49 637.47,-205.69 631.56,-196.89 627.37,-202.49"/>
</a>
</g>
</g>
<!-- Node22 -->
<g id="Node000022" class="node">
<title>Node22</title>
<g id="a_Node000022"><a xlink:href="../../d1/dc0/test__opendrive_8cpp.html#a47478715c88bbf3920c5566107f97b94" target="_top" xlink:title=" ">
<polygon fill="white" stroke="#666666" points="482.25,-20 442.25,-20 442.25,0 482.25,0 482.25,-20"/>
<text text-anchor="middle" x="462.25" y="-6.5" font-family="Helvetica,sans-Serif" font-size="10.00">TEST</text>
</a>
</g>
</g>
<!-- Node5&#45;&gt;Node22 -->
<g id="edge22_Node000005_Node000022" class="edge">
<title>Node5&#45;&gt;Node22</title>
<g id="a_edge22_Node000005_Node000022"><a xlink:title=" ">
<path fill="none" stroke="#63b8ff" d="M628.39,-199.39C612.44,-187.34 594.47,-171.24 582.75,-153 551.72,-104.72 588.5,-68.37 546.75,-29 529.55,-12.78 501.51,-9.38 482.72,-9.13"/>
<polygon fill="#63b8ff" stroke="#63b8ff" points="625.84,-202.6 635.99,-205.66 629.97,-196.94 625.84,-202.6"/>
</a>
</g>
</g>
<!-- Node8 -->
<g id="Node000008" class="node">
<title>Node8</title>
<g id="a_Node000008"><a xlink:href="../../d1/d1b/classUOpenDrive.html#ac05b8dc3f340e373582945f9215081d9" target="_top" xlink:title="Load OpenDriveMap associated to the given MapName.">
<polygon fill="white" stroke="#666666" points="341.75,-449 184.75,-449 184.75,-429 341.75,-429 341.75,-449"/>
<text text-anchor="middle" x="263.25" y="-435.5" font-family="Helvetica,sans-Serif" font-size="10.00">UOpenDrive::LoadOpenDriveMap</text>
</a>
</g>
</g>
<!-- Node7&#45;&gt;Node8 -->
<g id="edge7_Node000007_Node000008" class="edge">
<title>Node7&#45;&gt;Node8</title>
<g id="a_edge7_Node000007_Node000008"><a xlink:title=" ">
<path fill="none" stroke="#63b8ff" d="M394.73,-438.34C377.85,-438.42 359.58,-438.52 342.2,-438.6"/>
<polygon fill="#63b8ff" stroke="#63b8ff" points="394.61,-441.83 404.59,-438.28 394.57,-434.83 394.61,-441.83"/>
</a>
</g>
</g>
<!-- Node9 -->
<g id="Node000009" class="node">
<title>Node9</title>
<g id="a_Node000009"><a xlink:href="../../d1/d1b/classUOpenDrive.html#a4486c7ee9d4a8bf6cd2a7ca5ad7e4ece" target="_top" xlink:title="Load OpenDriveMap associated to the currently loaded map.">
<polygon fill="white" stroke="#666666" points="148.75,-456 0,-456 0,-424 148.75,-424 148.75,-456"/>
<text text-anchor="start" x="8" y="-442.5" font-family="Helvetica,sans-Serif" font-size="10.00">UOpenDrive::LoadCurrentOpen</text>
<text text-anchor="middle" x="74.38" y="-430.5" font-family="Helvetica,sans-Serif" font-size="10.00">DriveMap</text>
</a>
</g>
</g>
<!-- Node8&#45;&gt;Node9 -->
<g id="edge8_Node000008_Node000009" class="edge">
<title>Node8&#45;&gt;Node9</title>
<g id="a_edge8_Node000008_Node000009"><a xlink:title=" ">
<path fill="none" stroke="#63b8ff" d="M173.57,-439.47C165.33,-439.52 157.04,-439.56 148.96,-439.61"/>
<polygon fill="#63b8ff" stroke="#63b8ff" points="173.37,-442.97 183.35,-439.42 173.33,-435.97 173.37,-442.97"/>
</a>
</g>
</g>
<!-- Node11 -->
<g id="Node000011" class="node">
<title>Node11</title>
<g id="a_Node000011"><a xlink:href="../../d7/d97/classFCarlaServer_1_1FPimpl.html#a675a6b572112a21e8bc011dddfd0de86" target="_top" xlink:title=" ">
<polygon fill="white" stroke="#666666" points="317.38,-408 209.12,-408 209.12,-376 317.38,-376 317.38,-408"/>
<text text-anchor="start" x="217.12" y="-394.5" font-family="Helvetica,sans-Serif" font-size="10.00">FCarlaServer::FPimpl</text>
<text text-anchor="middle" x="263.25" y="-382.5" font-family="Helvetica,sans-Serif" font-size="10.00">::BindActions</text>
</a>
</g>
</g>
<!-- Node10&#45;&gt;Node11 -->
<g id="edge10_Node000010_Node000011" class="edge">
<title>Node10&#45;&gt;Node11</title>
<g id="a_edge10_Node000010_Node000011"><a xlink:title=" ">
<path fill="none" stroke="#63b8ff" d="M366.46,-393.04C349.73,-392.87 332.85,-392.7 317.76,-392.54"/>
<polygon fill="#63b8ff" stroke="#63b8ff" points="366.38,-396.55 376.42,-393.15 366.45,-389.55 366.38,-396.55"/>
</a>
</g>
</g>
<!-- Node12 -->
<g id="Node000012" class="node">
<title>Node12</title>
<g id="a_Node000012"><a xlink:href="../../d7/d97/classFCarlaServer_1_1FPimpl.html#ab9ff29fc81bd2f9a14677941c7f7b62d" target="_top" xlink:title=" ">
<polygon fill="white" stroke="#666666" points="128.5,-406 20.25,-406 20.25,-374 128.5,-374 128.5,-406"/>
<text text-anchor="start" x="28.25" y="-392.5" font-family="Helvetica,sans-Serif" font-size="10.00">FCarlaServer::FPimpl</text>
<text text-anchor="middle" x="74.38" y="-380.5" font-family="Helvetica,sans-Serif" font-size="10.00">::FPimpl</text>
</a>
</g>
</g>
<!-- Node11&#45;&gt;Node12 -->
<g id="edge11_Node000011_Node000012" class="edge">
<title>Node11&#45;&gt;Node12</title>
<g id="a_edge11_Node000011_Node000012"><a xlink:title=" ">
<path fill="none" stroke="#63b8ff" d="M197.89,-391.31C175.41,-391.07 150.44,-390.8 128.93,-390.57"/>
<polygon fill="#63b8ff" stroke="#63b8ff" points="197.66,-394.82 207.7,-391.43 197.74,-387.82 197.66,-394.82"/>
</a>
</g>
</g>
<!-- Node16 -->
<g id="Node000016" class="node">
<title>Node16</title>
<g id="a_Node000016"><a xlink:href="../../db/de5/classACarlaGameModeBase.html#a5caddc59713354578997de90542ddd93" target="_top" xlink:title=" ">
<polygon fill="white" stroke="#666666" points="322.25,-260 204.25,-260 204.25,-228 322.25,-228 322.25,-260"/>
<text text-anchor="start" x="212.25" y="-246.5" font-family="Helvetica,sans-Serif" font-size="10.00">ACarlaGameModeBase</text>
<text text-anchor="middle" x="263.25" y="-234.5" font-family="Helvetica,sans-Serif" font-size="10.00">::InitGame</text>
</a>
</g>
</g>
<!-- Node15&#45;&gt;Node16 -->
<g id="edge15_Node000015_Node000016" class="edge">
<title>Node15&#45;&gt;Node16</title>
<g id="a_edge15_Node000015_Node000016"><a xlink:title=" ">
<path fill="none" stroke="#63b8ff" d="M392.04,-244C369.41,-244 344.51,-244 322.75,-244"/>
<polygon fill="#63b8ff" stroke="#63b8ff" points="391.94,-247.5 401.94,-244 391.94,-240.5 391.94,-247.5"/>
</a>
</g>
</g>
<!-- Node16&#45;&gt;Node16 -->
<g id="edge16_Node000016_Node000016" class="edge">
<title>Node16&#45;&gt;Node16</title>
<g id="a_edge16_Node000016_Node000016"><a xlink:title=" ">
<path fill="none" stroke="#63b8ff" d="M295.57,-271.05C290.66,-275.19 279.88,-278 263.25,-278 234.48,-278 223.24,-269.58 229.53,-260.44"/>
<polygon fill="#63b8ff" stroke="#63b8ff" points="299.13,-271.81 296.97,-261.44 292.19,-270.9 299.13,-271.81"/>
</a>
</g>
</g>
<!-- Node25 -->
<g id="Node000025" class="node">
<title>Node25</title>
<g id="a_Node000025"><a xlink:href="../../d0/d34/classcarla_1_1road_1_1Map.html#accf4f345bb9db4bcd6cdd9e6fec322cc" target="_top" xlink:title=" ">
<polygon fill="white" stroke="#666666" points="1093.88,-144 961.62,-144 961.62,-112 1093.88,-112 1093.88,-144"/>
<text text-anchor="start" x="969.62" y="-130.5" font-family="Helvetica,sans-Serif" font-size="10.00">carla::road::Map::Generate</text>
<text text-anchor="middle" x="1027.75" y="-118.5" font-family="Helvetica,sans-Serif" font-size="10.00">SingleJunction</text>
</a>
</g>
</g>
<!-- Node24&#45;&gt;Node25 -->
<g id="edge25_Node000024_Node000025" class="edge">
<title>Node24&#45;&gt;Node25</title>
<g id="a_edge25_Node000024_Node000025"><a xlink:title=" ">
<path fill="none" stroke="#63b8ff" d="M1131.13,-128C1118.81,-128 1106.25,-128 1094.35,-128"/>
<polygon fill="#63b8ff" stroke="#63b8ff" points="1130.89,-131.5 1140.89,-128 1130.89,-124.5 1130.89,-131.5"/>
</a>
</g>
</g>
<!-- Node26 -->
<g id="Node000026" class="node">
<title>Node26</title>
<g id="a_Node000026"><a xlink:href="../../d0/d34/classcarla_1_1road_1_1Map.html#aa51550af7f6efc7df8691eb41225beec" target="_top" xlink:title=" ">
<polygon fill="white" stroke="#666666" points="913.25,-144 781,-144 781,-112 913.25,-112 913.25,-144"/>
<text text-anchor="start" x="789" y="-130.5" font-family="Helvetica,sans-Serif" font-size="10.00">carla::road::Map::Generate</text>
<text text-anchor="middle" x="847.12" y="-118.5" font-family="Helvetica,sans-Serif" font-size="10.00">Junctions</text>
</a>
</g>
</g>
<!-- Node25&#45;&gt;Node26 -->
<g id="edge26_Node000025_Node000026" class="edge">
<title>Node25&#45;&gt;Node26</title>
<g id="a_edge26_Node000025_Node000026"><a xlink:title=" ">
<path fill="none" stroke="#63b8ff" d="M950.56,-128C938.26,-128 925.63,-128 913.62,-128"/>
<polygon fill="#63b8ff" stroke="#63b8ff" points="950.25,-131.5 960.25,-128 950.25,-124.5 950.25,-131.5"/>
</a>
</g>
</g>
<!-- Node27 -->
<g id="Node000027" class="node">
<title>Node27</title>
<g id="a_Node000027"><a xlink:href="../../d0/d34/classcarla_1_1road_1_1Map.html#ac77235567699cc2853177c441390fd14" target="_top" xlink:title=" ">
<polygon fill="white" stroke="#666666" points="745,-144 582.75,-144 582.75,-112 745,-112 745,-144"/>
<text text-anchor="start" x="590.75" y="-130.5" font-family="Helvetica,sans-Serif" font-size="10.00">carla::road::Map::Generate</text>
<text text-anchor="middle" x="663.88" y="-118.5" font-family="Helvetica,sans-Serif" font-size="10.00">OrderedChunkedMeshInLocations</text>
</a>
</g>
</g>
<!-- Node26&#45;&gt;Node27 -->
<g id="edge27_Node000026_Node000027" class="edge">
<title>Node26&#45;&gt;Node27</title>
<g id="a_edge27_Node000026_Node000027"><a xlink:title=" ">
<path fill="none" stroke="#63b8ff" d="M769.8,-128C761.73,-128 753.5,-128 745.38,-128"/>
<polygon fill="#63b8ff" stroke="#63b8ff" points="769.69,-131.5 779.69,-128 769.69,-124.5 769.69,-131.5"/>
</a>
</g>
</g>
</g>
</svg>

<g id="navigator" transform="translate(0 0)" fill="#404254">
  <rect fill="#f2f5e9" fill-opacity="0.5" stroke="#606060" stroke-width=".5" x="0" y="0" width="60" height="60"/>
  <use id="zoomplus" xlink:href="#zoomPlus" x="17" y="9" onmousedown="handleZoom(evt,'in')"/>
  <use id="zoomminus" xlink:href="#zoomMin" x="42" y="9" onmousedown="handleZoom(evt,'out')"/>
  <use id="reset" xlink:href="#resetDef" x="30" y="36" onmousedown="handleReset()"/>
   <use id="arrowup" xlink:href="#arrowUp" x="0" y="0" onmousedown="handlePan(0,-1)"/>
  <use id="arrowright" xlink:href="#arrowRight" x="0" y="0" onmousedown="handlePan(1,0)"/>
  <use id="arrowdown" xlink:href="#arrowDown" x="0" y="0" onmousedown="handlePan(0,1)"/>
  <use id="arrowleft" xlink:href="#arrowLeft" x="0" y="0" onmousedown="handlePan(-1,0)"/>
</g>
<svg viewBox="0 0 15 15" width="100%" height="30px" preserveAspectRatio="xMaxYMin meet">
 <g id="arrow_out" transform="scale(0.3 0.3)">
  <a xlink:href="classcarla_1_1road_1_1Junction_acb70860168c258fe72eacbfd86f2cbc2_icgraph_org.svg" target="_base">
   <rect id="button" ry="5" rx="5" y="6" x="6" height="38" width="38"
        fill="#f2f5e9" fill-opacity="0.5" stroke="#606060" stroke-width="1.0"/>
   <path id="arrow"
     d="M 11.500037,31.436501 C 11.940474,20.09759 22.043105,11.32322 32.158766,21.979434 L 37.068811,17.246167 C 37.068811,17.246167 37.088388,32 37.088388,32 L 22.160133,31.978069 C 22.160133,31.978069 26.997745,27.140456 26.997745,27.140456 C 18.528582,18.264221 13.291696,25.230495 11.500037,31.436501 z"
     style="fill:#404040;"/>
  </a>
 </g>
</svg>

<style type='text/css'>
<![CDATA[
[data-mouse-over-selected='false'] { opacity: 0.7; }
[data-mouse-over-selected='true']  { opacity: 1.0; }
]]>
</style>
<script type="application/ecmascript"><![CDATA[
document.addEventListener('DOMContentLoaded', (event) => {
  highlightEdges();
  highlightAdjacentNodes();
});
]]></script>
</svg>
