<?xml version="1.0" encoding="UTF-8" standalone="no"?>
<!DOCTYPE svg PUBLIC "-//W3C//DTD SVG 1.1//EN"
 "http://www.w3.org/Graphics/SVG/1.1/DTD/svg11.dtd">
<!-- Generated by graphviz version 8.1.0 (20230707.0739)
 -->
<!-- Title: carla::road::Junction::GetId Pages: 1 -->
<svg width="829pt" height="84pt"
 viewBox="0.00 0.00 829.00 84.00" xmlns="http://www.w3.org/2000/svg" xmlns:xlink="http://www.w3.org/1999/xlink">
<g id="graph0" class="graph" transform="scale(1 1) rotate(0) translate(4 80)">
<title>carla::road::Junction::GetId</title>
<!-- Node1 -->
<g id="Node000001" class="node">
<title>Node1</title>
<g id="a_Node000001"><a xlink:title=" ">
<polygon fill="#999999" stroke="#666666" points="821,-54 717.25,-54 717.25,-22 821,-22 821,-54"/>
<text text-anchor="start" x="725.25" y="-40.5" font-family="Helvetica,sans-Serif" font-size="10.00">carla::road::Junction</text>
<text text-anchor="middle" x="769.12" y="-28.5" font-family="Helvetica,sans-Serif" font-size="10.00">::GetId</text>
</a>
</g>
</g>
<!-- Node2 -->
<g id="Node000002" class="node">
<title>Node2</title>
<g id="a_Node000002"><a xlink:href="../../dc/df7/classcarla_1_1client_1_1Junction.html#a72345b6c194cd09baca80bc3c2097015" target="_top" xlink:title=" ">
<polygon fill="white" stroke="#666666" points="662.12,-76 553.88,-76 553.88,-44 662.12,-44 662.12,-76"/>
<text text-anchor="start" x="561.88" y="-62.5" font-family="Helvetica,sans-Serif" font-size="10.00">carla::client::Junction</text>
<text text-anchor="middle" x="608" y="-50.5" font-family="Helvetica,sans-Serif" font-size="10.00">::Junction</text>
</a>
</g>
</g>
<!-- Node1&#45;&gt;Node2 -->
<g id="edge1_Node000001_Node000002" class="edge">
<title>Node1&#45;&gt;Node2</title>
<g id="a_edge1_Node000001_Node000002"><a xlink:title=" ">
<path fill="none" stroke="#63b8ff" d="M706.1,-46.57C691.74,-48.56 676.56,-50.66 662.59,-52.59"/>
<polygon fill="#63b8ff" stroke="#63b8ff" points="706.47,-49.92 715.9,-45.08 705.52,-42.98 706.47,-49.92"/>
</a>
</g>
</g>
<!-- Node3 -->
<g id="Node000003" class="node">
<title>Node3</title>
<g id="a_Node000003"><a xlink:href="../../d0/d34/classcarla_1_1road_1_1Map.html#a1653a470bdf6e93b0471773b2e079847" target="_top" xlink:title=" ">
<polygon fill="white" stroke="#666666" points="681.25,-26 534.75,-26 534.75,-6 681.25,-6 681.25,-26"/>
<text text-anchor="middle" x="608" y="-12.5" font-family="Helvetica,sans-Serif" font-size="10.00">carla::road::Map::SDFToMesh</text>
</a>
</g>
</g>
<!-- Node1&#45;&gt;Node3 -->
<g id="edge2_Node000001_Node000003" class="edge">
<title>Node1&#45;&gt;Node3</title>
<g id="a_edge2_Node000001_Node000003"><a xlink:title=" ">
<path fill="none" stroke="#63b8ff" d="M706.12,-29.43C698.07,-28.31 689.77,-27.17 681.57,-26.03"/>
<polygon fill="#63b8ff" stroke="#63b8ff" points="705.52,-33.02 715.9,-30.92 706.47,-26.08 705.52,-33.02"/>
</a>
</g>
</g>
<!-- Node4 -->
<g id="Node000004" class="node">
<title>Node4</title>
<g id="a_Node000004"><a xlink:href="../../d0/d34/classcarla_1_1road_1_1Map.html#accf4f345bb9db4bcd6cdd9e6fec322cc" target="_top" xlink:title=" ">
<polygon fill="white" stroke="#666666" points="498.75,-32 366.5,-32 366.5,0 498.75,0 498.75,-32"/>
<text text-anchor="start" x="374.5" y="-18.5" font-family="Helvetica,sans-Serif" font-size="10.00">carla::road::Map::Generate</text>
<text text-anchor="middle" x="432.62" y="-6.5" font-family="Helvetica,sans-Serif" font-size="10.00">SingleJunction</text>
</a>
</g>
</g>
<!-- Node3&#45;&gt;Node4 -->
<g id="edge3_Node000003_Node000004" class="edge">
<title>Node3&#45;&gt;Node4</title>
<g id="a_edge3_Node000003_Node000004"><a xlink:title=" ">
<path fill="none" stroke="#63b8ff" d="M523.72,-16C515.5,-16 507.23,-16 499.22,-16"/>
<polygon fill="#63b8ff" stroke="#63b8ff" points="523.48,-19.5 533.48,-16 523.48,-12.5 523.48,-19.5"/>
</a>
</g>
</g>
<!-- Node5 -->
<g id="Node000005" class="node">
<title>Node5</title>
<g id="a_Node000005"><a xlink:href="../../d0/d34/classcarla_1_1road_1_1Map.html#aa51550af7f6efc7df8691eb41225beec" target="_top" xlink:title=" ">
<polygon fill="white" stroke="#666666" points="330.5,-32 198.25,-32 198.25,0 330.5,0 330.5,-32"/>
<text text-anchor="start" x="206.25" y="-18.5" font-family="Helvetica,sans-Serif" font-size="10.00">carla::road::Map::Generate</text>
<text text-anchor="middle" x="264.38" y="-6.5" font-family="Helvetica,sans-Serif" font-size="10.00">Junctions</text>
</a>
</g>
</g>
<!-- Node4&#45;&gt;Node5 -->
<g id="edge4_Node000004_Node000005" class="edge">
<title>Node4&#45;&gt;Node5</title>
<g id="a_edge4_Node000004_Node000005"><a xlink:title=" ">
<path fill="none" stroke="#63b8ff" d="M355.64,-16C347.4,-16 339.07,-16 330.96,-16"/>
<polygon fill="#63b8ff" stroke="#63b8ff" points="355.4,-19.5 365.4,-16 355.4,-12.5 355.4,-19.5"/>
</a>
</g>
</g>
<!-- Node6 -->
<g id="Node000006" class="node">
<title>Node6</title>
<g id="a_Node000006"><a xlink:href="../../d0/d34/classcarla_1_1road_1_1Map.html#ac77235567699cc2853177c441390fd14" target="_top" xlink:title=" ">
<polygon fill="white" stroke="#666666" points="162.25,-32 0,-32 0,0 162.25,0 162.25,-32"/>
<text text-anchor="start" x="8" y="-18.5" font-family="Helvetica,sans-Serif" font-size="10.00">carla::road::Map::Generate</text>
<text text-anchor="middle" x="81.12" y="-6.5" font-family="Helvetica,sans-Serif" font-size="10.00">OrderedChunkedMeshInLocations</text>
</a>
</g>
</g>
<!-- Node5&#45;&gt;Node6 -->
<g id="edge5_Node000005_Node000006" class="edge">
<title>Node5&#45;&gt;Node6</title>
<g id="a_edge5_Node000005_Node000006"><a xlink:title=" ">
<path fill="none" stroke="#63b8ff" d="M187.05,-16C178.98,-16 170.75,-16 162.63,-16"/>
<polygon fill="#63b8ff" stroke="#63b8ff" points="186.94,-19.5 196.94,-16 186.94,-12.5 186.94,-19.5"/>
</a>
</g>
</g>
</g>
</svg>
