<?xml version="1.0" encoding="UTF-8" standalone="no"?>
<!DOCTYPE svg PUBLIC "-//W3C//DTD SVG 1.1//EN"
 "http://www.w3.org/Graphics/SVG/1.1/DTD/svg11.dtd">
<!-- Generated by graphviz version 8.1.0 (20230707.0739)
 -->
<!-- Title: GraphParser.h Pages: 1 -->
<svg width="432pt" height="196pt"
 viewBox="0.00 0.00 432.28 196.00" xmlns="http://www.w3.org/2000/svg" xmlns:xlink="http://www.w3.org/1999/xlink">
<g id="graph0" class="graph" transform="scale(1 1) rotate(0) translate(4 192)">
<title>GraphParser.h</title>
<!-- Node1 -->
<g id="Node000001" class="node">
<title>Node1</title>
<g id="a_Node000001"><a xlink:title=" ">
<polygon fill="#999999" stroke="#666666" points="181.4,-188 102.4,-188 102.4,-168 181.4,-168 181.4,-188"/>
<text text-anchor="middle" x="141.9" y="-174.5" font-family="Helvetica,sans-Serif" font-size="10.00">GraphParser.h</text>
</a>
</g>
</g>
<!-- Node2 -->
<g id="Node000002" class="node">
<title>Node2</title>
<g id="a_Node000002"><a xlink:href="../../d5/d44/CityAreaDescription_8h.html" target="_top" xlink:title=" ">
<polygon fill="white" stroke="#666666" points="127.15,-132 16.65,-132 16.65,-112 127.15,-112 127.15,-132"/>
<text text-anchor="middle" x="71.9" y="-118.5" font-family="Helvetica,sans-Serif" font-size="10.00">CityAreaDescription.h</text>
</a>
</g>
</g>
<!-- Node1&#45;&gt;Node2 -->
<g id="edge1_Node000001_Node000002" class="edge">
<title>Node1&#45;&gt;Node2</title>
<g id="a_edge1_Node000001_Node000002"><a xlink:title=" ">
<path fill="none" stroke="#63b8ff" d="M129.71,-167.59C119.47,-159.7 104.62,-148.24 92.54,-138.92"/>
<polygon fill="#63b8ff" stroke="#63b8ff" points="95.01,-135.64 84.96,-132.3 90.74,-141.18 95.01,-135.64"/>
</a>
</g>
</g>
<!-- Node3 -->
<g id="Node000003" class="node">
<title>Node3</title>
<g id="a_Node000003"><a xlink:href="../../d4/d09/GraphTypes_8h.html" target="_top" xlink:title=" ">
<polygon fill="white" stroke="#666666" points="242.28,-76 165.53,-76 165.53,-56 242.28,-56 242.28,-76"/>
<text text-anchor="middle" x="203.9" y="-62.5" font-family="Helvetica,sans-Serif" font-size="10.00">GraphTypes.h</text>
</a>
</g>
</g>
<!-- Node1&#45;&gt;Node3 -->
<g id="edge7_Node000001_Node000003" class="edge">
<title>Node1&#45;&gt;Node3</title>
<g id="a_edge7_Node000001_Node000003"><a xlink:title=" ">
<path fill="none" stroke="#63b8ff" d="M181.67,-177C216.23,-174.62 264.46,-165.04 288.9,-132 305.21,-109.96 274.46,-91.72 245.49,-80.24"/>
<polygon fill="#63b8ff" stroke="#63b8ff" points="246.99,-76.69 236.4,-76.46 244.54,-83.24 246.99,-76.69"/>
</a>
</g>
</g>
<!-- Node6 -->
<g id="Node000006" class="node">
<title>Node6</title>
<g id="a_Node000006"><a xlink:title=" ">
<polygon fill="#e0e0e0" stroke="#999999" points="92.65,-20 51.15,-20 51.15,0 92.65,0 92.65,-20"/>
<text text-anchor="middle" x="71.9" y="-6.5" font-family="Helvetica,sans-Serif" font-size="10.00">vector</text>
</a>
</g>
</g>
<!-- Node1&#45;&gt;Node6 -->
<g id="edge12_Node000001_Node000006" class="edge">
<title>Node1&#45;&gt;Node6</title>
<g id="a_edge12_Node000001_Node000006"><a xlink:title=" ">
<path fill="none" stroke="#63b8ff" d="M102.12,-175.51C70.86,-171.99 29.18,-161.59 7.9,-132 -17.14,-97.18 24.93,-51.32 51.94,-27.29"/>
<polygon fill="#63b8ff" stroke="#63b8ff" points="53.77,-29.47 59.07,-20.3 49.21,-24.16 53.77,-29.47"/>
</a>
</g>
</g>
<!-- Node7 -->
<g id="Node000007" class="node">
<title>Node7</title>
<g id="a_Node000007"><a xlink:href="../../d9/dc0/RoadSegmentDescription_8h.html" target="_top" xlink:title=" ">
<polygon fill="white" stroke="#666666" points="280.15,-132 145.65,-132 145.65,-112 280.15,-112 280.15,-132"/>
<text text-anchor="middle" x="212.9" y="-118.5" font-family="Helvetica,sans-Serif" font-size="10.00">RoadSegmentDescription.h</text>
</a>
</g>
</g>
<!-- Node1&#45;&gt;Node7 -->
<g id="edge8_Node000001_Node000007" class="edge">
<title>Node1&#45;&gt;Node7</title>
<g id="a_edge8_Node000001_Node000007"><a xlink:title=" ">
<path fill="none" stroke="#63b8ff" d="M154.27,-167.59C164.65,-159.7 179.72,-148.24 191.97,-138.92"/>
<polygon fill="#63b8ff" stroke="#63b8ff" points="193.84,-141.14 199.68,-132.3 189.6,-135.57 193.84,-141.14"/>
</a>
</g>
</g>
<!-- Node2&#45;&gt;Node3 -->
<g id="edge2_Node000002_Node000003" class="edge">
<title>Node2&#45;&gt;Node3</title>
<g id="a_edge2_Node000002_Node000003"><a xlink:title=" ">
<path fill="none" stroke="#63b8ff" d="M94.89,-111.59C115.87,-103.01 147.11,-90.23 170.78,-80.55"/>
<polygon fill="#63b8ff" stroke="#63b8ff" points="171.8,-83.51 179.73,-76.48 169.15,-77.03 171.8,-83.51"/>
</a>
</g>
</g>
<!-- Node2&#45;&gt;Node6 -->
<g id="edge6_Node000002_Node000006" class="edge">
<title>Node2&#45;&gt;Node6</title>
<g id="a_edge6_Node000002_Node000006"><a xlink:title=" ">
<path fill="none" stroke="#63b8ff" d="M71.9,-111.62C71.9,-93.92 71.9,-55.24 71.9,-31.32"/>
<polygon fill="#63b8ff" stroke="#63b8ff" points="75.4,-31.35 71.9,-21.35 68.4,-31.35 75.4,-31.35"/>
</a>
</g>
</g>
<!-- Node4 -->
<g id="Node000004" class="node">
<title>Node4</title>
<g id="a_Node000004"><a xlink:href="../../d6/d29/CityMapDefinitions_8h.html" target="_top" xlink:title=" ">
<polygon fill="white" stroke="#666666" points="281.15,-20 110.65,-20 110.65,0 281.15,0 281.15,-20"/>
<text text-anchor="middle" x="195.9" y="-6.5" font-family="Helvetica,sans-Serif" font-size="10.00">Carla/MapGen/CityMapDefinitions.h</text>
</a>
</g>
</g>
<!-- Node3&#45;&gt;Node4 -->
<g id="edge3_Node000003_Node000004" class="edge">
<title>Node3&#45;&gt;Node4</title>
<g id="a_edge3_Node000003_Node000004"><a xlink:title=" ">
<path fill="none" stroke="#63b8ff" d="M202.51,-55.59C201.51,-48.86 200.13,-39.53 198.89,-31.15"/>
<polygon fill="#63b8ff" stroke="#63b8ff" points="202.21,-30.68 197.28,-21.3 195.28,-31.7 202.21,-30.68"/>
</a>
</g>
</g>
<!-- Node5 -->
<g id="Node000005" class="node">
<title>Node5</title>
<g id="a_Node000005"><a xlink:href="../../d4/d57/Unreal_2CarlaUE4_2Plugins_2Carla_2Source_2Carla_2Util_2NonCopyable_8h.html" target="_top" xlink:title=" ">
<polygon fill="white" stroke="#666666" points="424.28,-20 299.53,-20 299.53,0 424.28,0 424.28,-20"/>
<text text-anchor="middle" x="361.9" y="-6.5" font-family="Helvetica,sans-Serif" font-size="10.00">Carla/Util/NonCopyable.h</text>
</a>
</g>
</g>
<!-- Node3&#45;&gt;Node5 -->
<g id="edge4_Node000003_Node000005" class="edge">
<title>Node3&#45;&gt;Node5</title>
<g id="a_edge4_Node000003_Node000005"><a xlink:title=" ">
<path fill="none" stroke="#63b8ff" d="M231.42,-55.59C256.98,-46.86 295.27,-33.77 323.77,-24.03"/>
<polygon fill="#63b8ff" stroke="#63b8ff" points="324.84,-27.03 333.17,-20.48 322.57,-20.4 324.84,-27.03"/>
</a>
</g>
</g>
<!-- Node3&#45;&gt;Node6 -->
<g id="edge5_Node000003_Node000006" class="edge">
<title>Node3&#45;&gt;Node6</title>
<g id="a_edge5_Node000003_Node000006"><a xlink:title=" ">
<path fill="none" stroke="#63b8ff" d="M180.91,-55.59C159.29,-46.75 126.77,-33.44 102.87,-23.67"/>
<polygon fill="#63b8ff" stroke="#63b8ff" points="104.47,-20.13 93.89,-19.59 101.82,-26.61 104.47,-20.13"/>
</a>
</g>
</g>
<!-- Node7&#45;&gt;Node3 -->
<g id="edge9_Node000007_Node000003" class="edge">
<title>Node7&#45;&gt;Node3</title>
<g id="a_edge9_Node000007_Node000003"><a xlink:title=" ">
<path fill="none" stroke="#63b8ff" d="M211.33,-111.59C210.2,-104.78 208.62,-95.32 207.21,-86.86"/>
<polygon fill="#63b8ff" stroke="#63b8ff" points="210.55,-86.59 205.45,-77.3 203.64,-87.74 210.55,-86.59"/>
</a>
</g>
</g>
<!-- Node7&#45;&gt;Node5 -->
<g id="edge10_Node000007_Node000005" class="edge">
<title>Node7&#45;&gt;Node5</title>
<g id="a_edge10_Node000007_Node000005"><a xlink:title=" ">
<path fill="none" stroke="#63b8ff" d="M225.61,-111.62C251.23,-92.71 309.32,-49.82 340.76,-26.61"/>
<polygon fill="#63b8ff" stroke="#63b8ff" points="342.26,-29.11 348.23,-20.35 338.11,-23.48 342.26,-29.11"/>
</a>
</g>
</g>
<!-- Node7&#45;&gt;Node6 -->
<g id="edge11_Node000007_Node000006" class="edge">
<title>Node7&#45;&gt;Node6</title>
<g id="a_edge11_Node000007_Node000006"><a xlink:title=" ">
<path fill="none" stroke="#63b8ff" d="M200.88,-111.62C176.74,-92.79 122.13,-50.18 92.3,-26.91"/>
<polygon fill="#63b8ff" stroke="#63b8ff" points="94.93,-23.75 84.89,-20.35 90.63,-29.27 94.93,-23.75"/>
</a>
</g>
</g>
</g>
</svg>
