<?xml version="1.0" encoding="UTF-8" standalone="no"?>
<!DOCTYPE svg PUBLIC "-//W3C//DTD SVG 1.1//EN"
 "http://www.w3.org/Graphics/SVG/1.1/DTD/svg11.dtd">
<!-- Generated by graphviz version 8.1.0 (20230707.0739)
 -->
<!-- Title: carla::client::Junction Pages: 1 -->
<!--zoomable 215 -->

<svg id="main" version="1.1" xmlns="http://www.w3.org/2000/svg" xmlns:xlink="http://www.w3.org/1999/xlink" xml:space="preserve" onload="init(evt)">
<style type="text/css"><![CDATA[
.node, .edge {opacity: 0.7;}
.node.selected, .edge.selected {opacity: 1;}
.edge:hover path { stroke: red; }
.edge:hover polygon { stroke: red; fill: red; }
]]></style>

<defs>
  <circle id="rim" cx="0" cy="0" r="7"/>
  <circle id="rim2" cx="0" cy="0" r="3.5"/>
  <g id="zoomPlus">
    <use xlink:href="#rim" fill="#404040"><set attributeName="fill" to="#808080" begin="zoomplus.mouseover" end="zoomplus.mouseout"/></use>
    <path d="M-4,0h8M0,-4v8" fill="none" stroke="white" stroke-width="1.5" pointer-events="none"/>
  </g>
  <g id="zoomMin">
    <use xlink:href="#rim" fill="#404040"><set attributeName="fill" to="#808080" begin="zoomminus.mouseover" end="zoomminus.mouseout"/></use>
    <path d="M-4,0h8" fill="none" stroke="white" stroke-width="1.5" pointer-events="none"/>
  </g>
  <g id="arrowUp" transform="translate(30 24)">
    <use xlink:href="#rim"/>
    <path pointer-events="none" fill="none" stroke="white" stroke-width="1.5" d="M0,-3.0v7 M-2.5,-0.5L0,-3.0L2.5,-0.5"/>
  </g>
  <g id="arrowRight" transform="rotate(90) translate(36 -43)">
    <use xlink:href="#rim"/>
    <path pointer-events="none" fill="none" stroke="white" stroke-width="1.5" d="M0,-3.0v7 M-2.5,-0.5L0,-3.0L2.5,-0.5"/>
  </g>
  <g id="arrowDown" transform="rotate(180) translate(-30 -48)">
    <use xlink:href="#rim"/>
    <path pointer-events="none" fill="none" stroke="white" stroke-width="1.5" d="M0,-3.0v7 M-2.5,-0.5L0,-3.0L2.5,-0.5"/>
  </g>
  <g id="arrowLeft" transform="rotate(270) translate(-36 17)">
    <use xlink:href="#rim"/>
    <path pointer-events="none" fill="none" stroke="white" stroke-width="1.5" d="M0,-3.0v7 M-2.5,-0.5L0,-3.0L2.5,-0.5"/>
  </g>
  <g id="resetDef">
    <use xlink:href="#rim2" fill="#404040"><set attributeName="fill" to="#808080" begin="reset.mouseover" end="reset.mouseout"/></use>
  </g>
</defs>
<script type="application/ecmascript">
var viewWidth = 886;
var viewHeight = 215;
var sectionId = 'dynsection-1';
</script>
<script type="application/ecmascript" xlink:href="../../svg.min.js"/>
<svg id="graph" class="graph">
<g id="viewport">
<title>carla::client::Junction</title>
<!-- Node1 -->
<g id="Node000001" class="node">
<title>Node1</title>
<g id="a_Node000001"><a xlink:title=" ">
<polygon fill="#999999" stroke="#666666" points="878.25,-112.79 770,-112.79 770,-92.79 878.25,-92.79 878.25,-112.79"/>
<text text-anchor="middle" x="824.12" y="-99.29" font-family="Helvetica,sans-Serif" font-size="10.00">carla::client::Junction</text>
</a>
</g>
</g>
<!-- Node2 -->
<g id="Node000002" class="node">
<title>Node2</title>
<g id="a_Node000002"><a xlink:href="../../da/d05/classEnableSharedFromThis.html" target="_top" xlink:title=" ">
<polygon fill="white" stroke="#666666" points="659,-206.79 541.75,-206.79 541.75,-174.79 659,-174.79 659,-206.79"/>
<text text-anchor="start" x="549.75" y="-193.29" font-family="Helvetica,sans-Serif" font-size="10.00">EnableSharedFromThis</text>
<text text-anchor="middle" x="600.38" y="-181.29" font-family="Helvetica,sans-Serif" font-size="10.00">&lt; Junction &gt;</text>
</a>
</g>
</g>
<!-- Node2&#45;&gt;Node1 -->
<g id="edge1_Node000001_Node000002" class="edge">
<title>Node2&#45;&gt;Node1</title>
<g id="a_edge1_Node000001_Node000002"><a xlink:title=" ">
<path fill="none" stroke="#63b8ff" d="M664.83,-171.01C692,-162 723.88,-150.7 752,-138.79 770.22,-131.07 790.28,-120.74 804.44,-113.13"/>
<polygon fill="#63b8ff" stroke="#63b8ff" points="664.08,-167.91 655.67,-174.35 666.26,-174.56 664.08,-167.91"/>
</a>
</g>
</g>
<!-- Node3 -->
<g id="Node000003" class="node">
<title>Node3</title>
<g id="a_Node000003"><a xlink:href="../../d4/d8b/classcarla_1_1NonCopyable.html" target="_top" xlink:title="Inherit (privately) to suppress copy/move construction and assignment.">
<polygon fill="white" stroke="#666666" points="650.75,-156.79 550,-156.79 550,-136.79 650.75,-136.79 650.75,-156.79"/>
<text text-anchor="middle" x="600.38" y="-143.29" font-family="Helvetica,sans-Serif" font-size="10.00">carla::NonCopyable</text>
</a>
</g>
</g>
<!-- Node3&#45;&gt;Node1 -->
<g id="edge2_Node000001_Node000003" class="edge">
<title>Node3&#45;&gt;Node1</title>
<g id="a_edge2_Node000001_Node000003"><a xlink:title=" ">
<path fill="none" stroke="#8b1a1a" d="M661.66,-136.12C689.25,-131.1 722.33,-124.88 752,-118.79 760.31,-117.08 769.14,-115.17 777.65,-113.29"/>
<polygon fill="#8b1a1a" stroke="#8b1a1a" points="661.21,-132.82 651.99,-138.05 662.45,-139.71 661.21,-132.82"/>
</a>
</g>
</g>
<!-- Node4 -->
<g id="Node000004" class="node">
<title>Node4</title>
<g id="a_Node000004"><a xlink:title=" ">
<polygon fill="white" stroke="#666666" points="658.62,-118.79 542.12,-118.79 542.12,-86.79 658.62,-86.79 658.62,-118.79"/>
<text text-anchor="start" x="550.12" y="-105.29" font-family="Helvetica,sans-Serif" font-size="10.00">SharedPtr&lt; const carla</text>
<text text-anchor="middle" x="600.38" y="-93.29" font-family="Helvetica,sans-Serif" font-size="10.00">::client::Map &gt;</text>
</a>
</g>
</g>
<!-- Node4&#45;&gt;Node1 -->
<g id="edge3_Node000001_Node000004" class="edge">
<title>Node4&#45;&gt;Node1</title>
<g id="a_edge3_Node000001_Node000004"><a xlink:title=" ">
<path fill="none" stroke="#9a32cd" stroke-dasharray="5,2" d="M669.71,-102.79C701.82,-102.79 739.54,-102.79 769.54,-102.79"/>
<polygon fill="#9a32cd" stroke="#9a32cd" points="670.06,-99.29 660.06,-102.79 670.06,-106.29 670.06,-99.29"/>
</a>
</g>
<text text-anchor="middle" x="717.88" y="-105.29" font-family="Helvetica,sans-Serif" font-size="10.00" fill="grey"> _parent</text>
</g>
<!-- Node5 -->
<g id="Node000005" class="node">
<title>Node5</title>
<g id="a_Node000005"><a xlink:href="../../d8/d68/classcarla_1_1geom_1_1BoundingBox.html" target="_top" xlink:title=" ">
<polygon fill="white" stroke="#666666" points="665.75,-68.79 535,-68.79 535,-48.79 665.75,-48.79 665.75,-68.79"/>
<text text-anchor="middle" x="600.38" y="-55.29" font-family="Helvetica,sans-Serif" font-size="10.00">carla::geom::BoundingBox</text>
</a>
</g>
</g>
<!-- Node5&#45;&gt;Node1 -->
<g id="edge4_Node000001_Node000005" class="edge">
<title>Node5&#45;&gt;Node1</title>
<g id="a_edge4_Node000001_Node000005"><a xlink:title=" ">
<path fill="none" stroke="#9a32cd" stroke-dasharray="5,2" d="M671.18,-71.2C696.65,-75.88 725.67,-81.38 752,-86.79 760.31,-88.49 769.14,-90.4 777.65,-92.29"/>
<polygon fill="#9a32cd" stroke="#9a32cd" points="671.96,-67.6 661.49,-69.25 670.7,-74.49 671.96,-67.6"/>
</a>
</g>
<text text-anchor="middle" x="717.88" y="-89.29" font-family="Helvetica,sans-Serif" font-size="10.00" fill="grey"> _bounding_box</text>
</g>
<!-- Node6 -->
<g id="Node000006" class="node">
<title>Node6</title>
<g id="a_Node000006"><a xlink:href="../../de/d23/classcarla_1_1geom_1_1Location.html" target="_top" xlink:title=" ">
<polygon fill="white" stroke="#666666" points="462.25,-68.79 352.5,-68.79 352.5,-48.79 462.25,-48.79 462.25,-68.79"/>
<text text-anchor="middle" x="407.38" y="-55.29" font-family="Helvetica,sans-Serif" font-size="10.00">carla::geom::Location</text>
</a>
</g>
</g>
<!-- Node6&#45;&gt;Node5 -->
<g id="edge5_Node000005_Node000006" class="edge">
<title>Node6&#45;&gt;Node5</title>
<g id="a_edge5_Node000005_Node000006"><a xlink:title=" ">
<path fill="none" stroke="#9a32cd" stroke-dasharray="5,2" d="M473.34,-58.79C493.09,-58.79 514.78,-58.79 534.52,-58.79"/>
<polygon fill="#9a32cd" stroke="#9a32cd" points="473.6,-55.29 463.6,-58.79 473.6,-62.29 473.6,-55.29"/>
</a>
</g>
<text text-anchor="middle" x="498.62" y="-61.29" font-family="Helvetica,sans-Serif" font-size="10.00" fill="grey"> location</text>
</g>
<!-- Node7 -->
<g id="Node000007" class="node">
<title>Node7</title>
<g id="a_Node000007"><a xlink:href="../../d9/dfe/classcarla_1_1geom_1_1Vector3D.html" target="_top" xlink:title=" ">
<polygon fill="white" stroke="#666666" points="207.5,-87.79 94,-87.79 94,-67.79 207.5,-67.79 207.5,-87.79"/>
<text text-anchor="middle" x="150.75" y="-74.29" font-family="Helvetica,sans-Serif" font-size="10.00">carla::geom::Vector3D</text>
</a>
</g>
</g>
<!-- Node7&#45;&gt;Node5 -->
<g id="edge8_Node000005_Node000007" class="edge">
<title>Node7&#45;&gt;Node5</title>
<g id="a_edge8_Node000005_Node000007"><a xlink:title=" ">
<path fill="none" stroke="#9a32cd" stroke-dasharray="5,2" d="M218.63,-81.83C292.1,-85.2 413.44,-87.62 517,-74.79 528.28,-73.39 540.33,-71.36 551.64,-69.21"/>
<polygon fill="#9a32cd" stroke="#9a32cd" points="218.86,-78.29 208.7,-81.3 218.52,-85.28 218.86,-78.29"/>
</a>
</g>
<text text-anchor="middle" x="407.38" y="-86.29" font-family="Helvetica,sans-Serif" font-size="10.00" fill="grey"> extent</text>
</g>
<!-- Node7&#45;&gt;Node6 -->
<g id="edge6_Node000006_Node000007" class="edge">
<title>Node7&#45;&gt;Node6</title>
<g id="a_edge6_Node000006_Node000007"><a xlink:title=" ">
<path fill="none" stroke="#63b8ff" d="M218.81,-72.79C260.39,-69.68 313.12,-65.75 352.07,-62.84"/>
<polygon fill="#63b8ff" stroke="#63b8ff" points="218.66,-69.36 208.94,-73.6 219.18,-76.34 218.66,-69.36"/>
</a>
</g>
</g>
<!-- Node8 -->
<g id="Node000008" class="node">
<title>Node8</title>
<g id="a_Node000008"><a xlink:title=" ">
<polygon fill="white" stroke="#666666" points="34,-57.79 0,-57.79 0,-37.79 34,-37.79 34,-57.79"/>
<text text-anchor="middle" x="17" y="-44.29" font-family="Helvetica,sans-Serif" font-size="10.00">float</text>
</a>
</g>
</g>
<!-- Node8&#45;&gt;Node7 -->
<g id="edge7_Node000007_Node000008" class="edge">
<title>Node8&#45;&gt;Node7</title>
<g id="a_edge7_Node000007_Node000008"><a xlink:title=" ">
<path fill="none" stroke="#9a32cd" stroke-dasharray="5,2" d="M44.76,-54.11C47.2,-54.68 49.65,-55.25 52,-55.79 68.61,-59.61 86.83,-63.73 102.99,-67.36"/>
<polygon fill="#9a32cd" stroke="#9a32cd" points="45.78,-50.52 35.25,-51.65 44.19,-57.34 45.78,-50.52"/>
</a>
</g>
<text text-anchor="middle" x="64" y="-86.29" font-family="Helvetica,sans-Serif" font-size="10.00" fill="grey"> x</text>
<text text-anchor="middle" x="64" y="-74.29" font-family="Helvetica,sans-Serif" font-size="10.00" fill="grey">y</text>
<text text-anchor="middle" x="64" y="-62.29" font-family="Helvetica,sans-Serif" font-size="10.00" fill="grey">z</text>
</g>
<!-- Node9 -->
<g id="Node000009" class="node">
<title>Node9</title>
<g id="a_Node000009"><a xlink:href="../../d8/dba/classcarla_1_1geom_1_1Rotation.html" target="_top" xlink:title=" ">
<polygon fill="white" stroke="#666666" points="334.5,-28.79 225.5,-28.79 225.5,-8.79 334.5,-8.79 334.5,-28.79"/>
<text text-anchor="middle" x="280" y="-15.29" font-family="Helvetica,sans-Serif" font-size="10.00">carla::geom::Rotation</text>
</a>
</g>
</g>
<!-- Node8&#45;&gt;Node9 -->
<g id="edge10_Node000009_Node000008" class="edge">
<title>Node8&#45;&gt;Node9</title>
<g id="a_edge10_Node000009_Node000008"><a xlink:title=" ">
<path fill="none" stroke="#9a32cd" stroke-dasharray="5,2" d="M32.41,-29.63C37.89,-24.1 44.61,-18.72 52,-15.79 111.35,7.75 186.49,0.3 233.67,-8.35"/>
<polygon fill="#9a32cd" stroke="#9a32cd" points="30.39,-26.76 26.34,-36.56 35.61,-31.42 30.39,-26.76"/>
</a>
</g>
<text text-anchor="middle" x="64" y="-42.29" font-family="Helvetica,sans-Serif" font-size="10.00" fill="grey"> pitch</text>
<text text-anchor="middle" x="64" y="-30.29" font-family="Helvetica,sans-Serif" font-size="10.00" fill="grey">roll</text>
<text text-anchor="middle" x="64" y="-18.29" font-family="Helvetica,sans-Serif" font-size="10.00" fill="grey">yaw</text>
</g>
<!-- Node9&#45;&gt;Node5 -->
<g id="edge9_Node000005_Node000009" class="edge">
<title>Node9&#45;&gt;Node5</title>
<g id="a_edge9_Node000005_Node000009"><a xlink:title=" ">
<path fill="none" stroke="#9a32cd" stroke-dasharray="5,2" d="M345.7,-19.29C380.39,-20.25 423.8,-22.53 462.25,-27.79 496.1,-32.42 533.94,-41.26 561.28,-48.32"/>
<polygon fill="#9a32cd" stroke="#9a32cd" points="345.84,-15.77 335.76,-19.03 345.67,-22.77 345.84,-15.77"/>
</a>
</g>
<text text-anchor="middle" x="407.38" y="-30.29" font-family="Helvetica,sans-Serif" font-size="10.00" fill="grey"> rotation</text>
</g>
<!-- Node10 -->
<g id="Node000010" class="node">
<title>Node10</title>
<g id="a_Node000010"><a xlink:title=" ">
<polygon fill="white" stroke="#666666" points="623,-30.79 577.75,-30.79 577.75,-10.79 623,-10.79 623,-30.79"/>
<text text-anchor="middle" x="600.38" y="-17.29" font-family="Helvetica,sans-Serif" font-size="10.00">int32_t</text>
</a>
</g>
</g>
<!-- Node10&#45;&gt;Node1 -->
<g id="edge11_Node000001_Node000010" class="edge">
<title>Node10&#45;&gt;Node1</title>
<g id="a_edge11_Node000001_Node000010"><a xlink:title=" ">
<path fill="none" stroke="#9a32cd" stroke-dasharray="5,2" d="M633.96,-25.66C665.14,-31.04 713.05,-41.21 752,-57.79 773.51,-66.95 795.92,-82.24 809.7,-92.41"/>
<polygon fill="#9a32cd" stroke="#9a32cd" points="634.72,-22.07 624.28,-23.89 633.57,-28.98 634.72,-22.07"/>
</a>
</g>
<text text-anchor="middle" x="717.88" y="-60.29" font-family="Helvetica,sans-Serif" font-size="10.00" fill="grey"> _id</text>
</g>
</g>
</svg>

<g id="navigator" transform="translate(0 0)" fill="#404254">
  <rect fill="#f2f5e9" fill-opacity="0.5" stroke="#606060" stroke-width=".5" x="0" y="0" width="60" height="60"/>
  <use id="zoomplus" xlink:href="#zoomPlus" x="17" y="9" onmousedown="handleZoom(evt,'in')"/>
  <use id="zoomminus" xlink:href="#zoomMin" x="42" y="9" onmousedown="handleZoom(evt,'out')"/>
  <use id="reset" xlink:href="#resetDef" x="30" y="36" onmousedown="handleReset()"/>
   <use id="arrowup" xlink:href="#arrowUp" x="0" y="0" onmousedown="handlePan(0,-1)"/>
  <use id="arrowright" xlink:href="#arrowRight" x="0" y="0" onmousedown="handlePan(1,0)"/>
  <use id="arrowdown" xlink:href="#arrowDown" x="0" y="0" onmousedown="handlePan(0,1)"/>
  <use id="arrowleft" xlink:href="#arrowLeft" x="0" y="0" onmousedown="handlePan(-1,0)"/>
</g>
<svg viewBox="0 0 15 15" width="100%" height="30px" preserveAspectRatio="xMaxYMin meet">
 <g id="arrow_out" transform="scale(0.3 0.3)">
  <a xlink:href="classcarla_1_1client_1_1Junction__coll__graph_org.svg" target="_base">
   <rect id="button" ry="5" rx="5" y="6" x="6" height="38" width="38"
        fill="#f2f5e9" fill-opacity="0.5" stroke="#606060" stroke-width="1.0"/>
   <path id="arrow"
     d="M 11.500037,31.436501 C 11.940474,20.09759 22.043105,11.32322 32.158766,21.979434 L 37.068811,17.246167 C 37.068811,17.246167 37.088388,32 37.088388,32 L 22.160133,31.978069 C 22.160133,31.978069 26.997745,27.140456 26.997745,27.140456 C 18.528582,18.264221 13.291696,25.230495 11.500037,31.436501 z"
     style="fill:#404040;"/>
  </a>
 </g>
</svg>

<style type='text/css'>
<![CDATA[
[data-mouse-over-selected='false'] { opacity: 0.7; }
[data-mouse-over-selected='true']  { opacity: 1.0; }
]]>
</style>
<script type="application/ecmascript"><![CDATA[
document.addEventListener('DOMContentLoaded', (event) => {
  highlightEdges();
  highlightAdjacentNodes();
});
]]></script>
</svg>
