<?xml version="1.0" encoding="UTF-8" standalone="no"?>
<!DOCTYPE svg PUBLIC "-//W3C//DTD SVG 1.1//EN"
 "http://www.w3.org/Graphics/SVG/1.1/DTD/svg11.dtd">
<!-- Generated by graphviz version 8.1.0 (20230707.0739)
 -->
<!-- Title: carla::streaming::Server::AsyncRun Pages: 1 -->
<svg width="546pt" height="78pt"
 viewBox="0.00 0.00 546.00 78.00" xmlns="http://www.w3.org/2000/svg" xmlns:xlink="http://www.w3.org/1999/xlink">
<g id="graph0" class="graph" transform="scale(1 1) rotate(0) translate(4 74)">
<title>carla::streaming::Server::AsyncRun</title>
<!-- Node1 -->
<g id="Node000001" class="node">
<title>Node1</title>
<g id="a_Node000001"><a xlink:title=" ">
<polygon fill="#999999" stroke="#666666" points="118.75,-48 0,-48 0,-16 118.75,-16 118.75,-48"/>
<text text-anchor="start" x="8" y="-34.5" font-family="Helvetica,sans-Serif" font-size="10.00">carla::streaming::Server</text>
<text text-anchor="middle" x="59.38" y="-22.5" font-family="Helvetica,sans-Serif" font-size="10.00">::AsyncRun</text>
</a>
</g>
</g>
<!-- Node2 -->
<g id="Node000002" class="node">
<title>Node2</title>
<g id="a_Node000002"><a xlink:href="../../da/d72/classcarla_1_1ThreadPool.html#a44af52924b5a2dbd0699808a4394f30f" target="_top" xlink:title="Launch threads to run tasks asynchronously.">
<polygon fill="white" stroke="#666666" points="252.5,-48 154.75,-48 154.75,-16 252.5,-16 252.5,-48"/>
<text text-anchor="start" x="162.75" y="-34.5" font-family="Helvetica,sans-Serif" font-size="10.00">carla::ThreadPool::</text>
<text text-anchor="middle" x="203.62" y="-22.5" font-family="Helvetica,sans-Serif" font-size="10.00">AsyncRun</text>
</a>
</g>
</g>
<!-- Node1&#45;&gt;Node2 -->
<g id="edge1_Node000001_Node000002" class="edge">
<title>Node1&#45;&gt;Node2</title>
<g id="a_edge1_Node000001_Node000002"><a xlink:title=" ">
<path fill="none" stroke="#63b8ff" d="M119.05,-32C127.16,-32 135.48,-32 143.59,-32"/>
<polygon fill="#63b8ff" stroke="#63b8ff" points="143.47,-35.5 153.47,-32 143.47,-28.5 143.47,-35.5"/>
</a>
</g>
</g>
<!-- Node3 -->
<g id="Node000003" class="node">
<title>Node3</title>
<g id="a_Node000003"><a xlink:href="../../db/d71/classcarla_1_1ThreadGroup.html#a7c76ec6db944947c149985627442434b" target="_top" xlink:title=" ">
<polygon fill="white" stroke="#666666" points="395.25,-70 296.75,-70 296.75,-38 395.25,-38 395.25,-70"/>
<text text-anchor="start" x="304.75" y="-56.5" font-family="Helvetica,sans-Serif" font-size="10.00">carla::ThreadGroup</text>
<text text-anchor="middle" x="346" y="-44.5" font-family="Helvetica,sans-Serif" font-size="10.00">::CreateThreads</text>
</a>
</g>
</g>
<!-- Node2&#45;&gt;Node3 -->
<g id="edge2_Node000002_Node000003" class="edge">
<title>Node2&#45;&gt;Node3</title>
<g id="a_edge2_Node000002_Node000003"><a xlink:title=" ">
<path fill="none" stroke="#63b8ff" d="M252.93,-39.57C263.52,-41.23 274.85,-43.01 285.81,-44.72"/>
<polygon fill="#63b8ff" stroke="#63b8ff" points="285.18,-48.32 295.6,-46.41 286.26,-41.41 285.18,-48.32"/>
</a>
</g>
</g>
<!-- Node5 -->
<g id="Node000005" class="node">
<title>Node5</title>
<g id="a_Node000005"><a xlink:href="../../da/d72/classcarla_1_1ThreadPool.html#a75cacb83795788d41db12ebf27a25ee3" target="_top" xlink:title="Run tasks in this thread.">
<polygon fill="white" stroke="#666666" points="403.5,-20 288.5,-20 288.5,0 403.5,0 403.5,-20"/>
<text text-anchor="middle" x="346" y="-6.5" font-family="Helvetica,sans-Serif" font-size="10.00">carla::ThreadPool::Run</text>
</a>
</g>
</g>
<!-- Node2&#45;&gt;Node5 -->
<g id="edge4_Node000002_Node000005" class="edge">
<title>Node2&#45;&gt;Node5</title>
<g id="a_edge4_Node000002_Node000005"><a xlink:title=" ">
<path fill="none" stroke="#63b8ff" d="M252.93,-24.43C260.87,-23.18 269.23,-21.87 277.54,-20.57"/>
<polygon fill="#63b8ff" stroke="#63b8ff" points="278.05,-23.88 287.38,-18.87 276.96,-16.96 278.05,-23.88"/>
</a>
</g>
</g>
<!-- Node4 -->
<g id="Node000004" class="node">
<title>Node4</title>
<g id="a_Node000004"><a xlink:href="../../db/d71/classcarla_1_1ThreadGroup.html#acc9d822c4e73247c9565e3c089debf4a" target="_top" xlink:title=" ">
<polygon fill="white" stroke="#666666" points="538,-70 439.5,-70 439.5,-38 538,-38 538,-70"/>
<text text-anchor="start" x="447.5" y="-56.5" font-family="Helvetica,sans-Serif" font-size="10.00">carla::ThreadGroup</text>
<text text-anchor="middle" x="488.75" y="-44.5" font-family="Helvetica,sans-Serif" font-size="10.00">::CreateThread</text>
</a>
</g>
</g>
<!-- Node3&#45;&gt;Node4 -->
<g id="edge3_Node000003_Node000004" class="edge">
<title>Node3&#45;&gt;Node4</title>
<g id="a_edge3_Node000003_Node000004"><a xlink:title=" ">
<path fill="none" stroke="#63b8ff" d="M395.44,-54C406.05,-54 417.41,-54 428.4,-54"/>
<polygon fill="#63b8ff" stroke="#63b8ff" points="428.22,-57.5 438.22,-54 428.22,-50.5 428.22,-57.5"/>
</a>
</g>
</g>
</g>
</svg>
