<?xml version="1.0" encoding="UTF-8" standalone="no"?>
<!DOCTYPE svg PUBLIC "-//W3C//DTD SVG 1.1//EN"
 "http://www.w3.org/Graphics/SVG/1.1/DTD/svg11.dtd">
<!-- Generated by graphviz version 8.1.0 (20230707.0739)
 -->
<!-- Title: UObjectRegister::RegisterEnvironmentObject Pages: 1 -->
<svg width="803pt" height="140pt"
 viewBox="0.00 0.00 802.75 140.00" xmlns="http://www.w3.org/2000/svg" xmlns:xlink="http://www.w3.org/1999/xlink">
<g id="graph0" class="graph" transform="scale(1 1) rotate(0) translate(4 136)">
<title>UObjectRegister::RegisterEnvironmentObject</title>
<!-- Node1 -->
<g id="Node000001" class="node">
<title>Node1</title>
<g id="a_Node000001"><a xlink:title=" ">
<polygon fill="#999999" stroke="#666666" points="794.75,-82 665.5,-82 665.5,-50 794.75,-50 794.75,-82"/>
<text text-anchor="start" x="673.5" y="-68.5" font-family="Helvetica,sans-Serif" font-size="10.00">UObjectRegister::Register</text>
<text text-anchor="middle" x="730.12" y="-56.5" font-family="Helvetica,sans-Serif" font-size="10.00">EnvironmentObject</text>
</a>
</g>
</g>
<!-- Node2 -->
<g id="Node000002" class="node">
<title>Node2</title>
<g id="a_Node000002"><a xlink:href="../../d2/d5b/classUObjectRegister.html#ab8704b164ab785b6ad2b1d0dcab44223" target="_top" xlink:title=" ">
<polygon fill="white" stroke="#666666" points="629.5,-107 500.25,-107 500.25,-75 629.5,-75 629.5,-107"/>
<text text-anchor="start" x="508.25" y="-93.5" font-family="Helvetica,sans-Serif" font-size="10.00">UObjectRegister::Register</text>
<text text-anchor="middle" x="564.88" y="-81.5" font-family="Helvetica,sans-Serif" font-size="10.00">Character</text>
</a>
</g>
</g>
<!-- Node1&#45;&gt;Node2 -->
<g id="edge1_Node000001_Node000002" class="edge">
<title>Node1&#45;&gt;Node2</title>
<g id="a_edge1_Node000001_Node000002"><a xlink:title=" ">
<path fill="none" stroke="#63b8ff" d="M654.35,-77.45C646.13,-78.71 637.81,-79.98 629.74,-81.22"/>
<polygon fill="#63b8ff" stroke="#63b8ff" points="654.72,-80.78 664.07,-75.81 653.66,-73.86 654.72,-80.78"/>
</a>
</g>
</g>
<!-- Node8 -->
<g id="Node000008" class="node">
<title>Node8</title>
<g id="a_Node000008"><a xlink:href="../../d2/d5b/classUObjectRegister.html#a03ae90f5d7245f380fda3e44d42870b7" target="_top" xlink:title=" ">
<polygon fill="white" stroke="#666666" points="629.5,-57 500.25,-57 500.25,-25 629.5,-25 629.5,-57"/>
<text text-anchor="start" x="508.25" y="-43.5" font-family="Helvetica,sans-Serif" font-size="10.00">UObjectRegister::Register</text>
<text text-anchor="middle" x="564.88" y="-31.5" font-family="Helvetica,sans-Serif" font-size="10.00">Vehicle</text>
</a>
</g>
</g>
<!-- Node1&#45;&gt;Node8 -->
<g id="edge7_Node000001_Node000008" class="edge">
<title>Node1&#45;&gt;Node8</title>
<g id="a_edge7_Node000001_Node000008"><a xlink:title=" ">
<path fill="none" stroke="#63b8ff" d="M654.35,-54.55C646.13,-53.29 637.81,-52.02 629.74,-50.78"/>
<polygon fill="#63b8ff" stroke="#63b8ff" points="653.66,-58.14 664.07,-56.19 654.72,-51.22 653.66,-58.14"/>
</a>
</g>
</g>
<!-- Node3 -->
<g id="Node000003" class="node">
<title>Node3</title>
<g id="a_Node000003"><a xlink:href="../../d2/d5b/classUObjectRegister.html#a8e77baf3dffa6dc5919a2ee4d8c9a965" target="_top" xlink:title=" ">
<polygon fill="white" stroke="#666666" points="464.25,-82 335,-82 335,-50 464.25,-50 464.25,-82"/>
<text text-anchor="start" x="343" y="-68.5" font-family="Helvetica,sans-Serif" font-size="10.00">UObjectRegister::Register</text>
<text text-anchor="middle" x="399.62" y="-56.5" font-family="Helvetica,sans-Serif" font-size="10.00">Objects</text>
</a>
</g>
</g>
<!-- Node2&#45;&gt;Node3 -->
<g id="edge2_Node000002_Node000003" class="edge">
<title>Node2&#45;&gt;Node3</title>
<g id="a_edge2_Node000002_Node000003"><a xlink:title=" ">
<path fill="none" stroke="#63b8ff" d="M489.1,-79.55C480.88,-78.29 472.56,-77.02 464.49,-75.78"/>
<polygon fill="#63b8ff" stroke="#63b8ff" points="488.41,-83.14 498.82,-81.19 489.47,-76.22 488.41,-83.14"/>
</a>
</g>
</g>
<!-- Node4 -->
<g id="Node000004" class="node">
<title>Node4</title>
<g id="a_Node000004"><a xlink:href="../../db/de5/classACarlaGameModeBase.html#a093ea406d6426ce31c75cda5248362fd" target="_top" xlink:title=" ">
<polygon fill="white" stroke="#666666" points="299,-82 154,-82 154,-50 299,-50 299,-82"/>
<text text-anchor="start" x="162" y="-68.5" font-family="Helvetica,sans-Serif" font-size="10.00">ACarlaGameModeBase</text>
<text text-anchor="middle" x="226.5" y="-56.5" font-family="Helvetica,sans-Serif" font-size="10.00">::RegisterEnvironmentObjects</text>
</a>
</g>
</g>
<!-- Node3&#45;&gt;Node4 -->
<g id="edge3_Node000003_Node000004" class="edge">
<title>Node3&#45;&gt;Node4</title>
<g id="a_edge3_Node000003_Node000004"><a xlink:title=" ">
<path fill="none" stroke="#63b8ff" d="M324.17,-66C315.93,-66 307.55,-66 299.34,-66"/>
<polygon fill="#63b8ff" stroke="#63b8ff" points="323.9,-69.5 333.9,-66 323.9,-62.5 323.9,-69.5"/>
</a>
</g>
</g>
<!-- Node5 -->
<g id="Node000005" class="node">
<title>Node5</title>
<g id="a_Node000005"><a xlink:href="../../db/de5/classACarlaGameModeBase.html#a3909b055b351f69d7ad1e39a42e72e3d" target="_top" xlink:title=" ">
<polygon fill="white" stroke="#666666" points="118,-132 0,-132 0,-100 118,-100 118,-132"/>
<text text-anchor="start" x="8" y="-118.5" font-family="Helvetica,sans-Serif" font-size="10.00">ACarlaGameModeBase</text>
<text text-anchor="middle" x="59" y="-106.5" font-family="Helvetica,sans-Serif" font-size="10.00">::BeginPlay</text>
</a>
</g>
</g>
<!-- Node4&#45;&gt;Node5 -->
<g id="edge4_Node000004_Node000005" class="edge">
<title>Node4&#45;&gt;Node5</title>
<g id="a_edge4_Node000004_Node000005"><a xlink:title=" ">
<path fill="none" stroke="#63b8ff" d="M160.88,-85.52C145.58,-90.15 129.4,-95.03 114.6,-99.51"/>
<polygon fill="#63b8ff" stroke="#63b8ff" points="161.75,-88.61 170.31,-82.37 159.72,-81.91 161.75,-88.61"/>
</a>
</g>
</g>
<!-- Node6 -->
<g id="Node000006" class="node">
<title>Node6</title>
<g id="a_Node000006"><a xlink:href="../../db/de5/classACarlaGameModeBase.html#a63efed9c79f812c2ed41f53aa6205681" target="_top" xlink:title=" ">
<polygon fill="white" stroke="#666666" points="118,-82 0,-82 0,-50 118,-50 118,-82"/>
<text text-anchor="start" x="8" y="-68.5" font-family="Helvetica,sans-Serif" font-size="10.00">ACarlaGameModeBase</text>
<text text-anchor="middle" x="59" y="-56.5" font-family="Helvetica,sans-Serif" font-size="10.00">::OnLoadStreamLevel</text>
</a>
</g>
</g>
<!-- Node4&#45;&gt;Node6 -->
<g id="edge5_Node000004_Node000006" class="edge">
<title>Node4&#45;&gt;Node6</title>
<g id="a_edge5_Node000004_Node000006"><a xlink:title=" ">
<path fill="none" stroke="#63b8ff" d="M142.95,-66C134.63,-66 126.29,-66 118.3,-66"/>
<polygon fill="#63b8ff" stroke="#63b8ff" points="142.87,-69.5 152.87,-66 142.87,-62.5 142.87,-69.5"/>
</a>
</g>
</g>
<!-- Node7 -->
<g id="Node000007" class="node">
<title>Node7</title>
<g id="a_Node000007"><a xlink:href="../../db/de5/classACarlaGameModeBase.html#aecaba7b5b9623b58ef4d6534cc62b9f6" target="_top" xlink:title=" ">
<polygon fill="white" stroke="#666666" points="118,-32 0,-32 0,0 118,0 118,-32"/>
<text text-anchor="start" x="8" y="-18.5" font-family="Helvetica,sans-Serif" font-size="10.00">ACarlaGameModeBase</text>
<text text-anchor="middle" x="59" y="-6.5" font-family="Helvetica,sans-Serif" font-size="10.00">::OnUnloadStreamLevel</text>
</a>
</g>
</g>
<!-- Node4&#45;&gt;Node7 -->
<g id="edge6_Node000004_Node000007" class="edge">
<title>Node4&#45;&gt;Node7</title>
<g id="a_edge6_Node000004_Node000007"><a xlink:title=" ">
<path fill="none" stroke="#63b8ff" d="M160.88,-46.48C145.58,-41.85 129.4,-36.97 114.6,-32.49"/>
<polygon fill="#63b8ff" stroke="#63b8ff" points="159.72,-50.09 170.31,-49.63 161.75,-43.39 159.72,-50.09"/>
</a>
</g>
</g>
<!-- Node8&#45;&gt;Node3 -->
<g id="edge8_Node000008_Node000003" class="edge">
<title>Node8&#45;&gt;Node3</title>
<g id="a_edge8_Node000008_Node000003"><a xlink:title=" ">
<path fill="none" stroke="#63b8ff" d="M489.1,-52.45C480.88,-53.71 472.56,-54.98 464.49,-56.22"/>
<polygon fill="#63b8ff" stroke="#63b8ff" points="489.47,-55.78 498.82,-50.81 488.41,-48.86 489.47,-55.78"/>
</a>
</g>
</g>
</g>
</svg>
