<?xml version="1.0" encoding="UTF-8" standalone="no"?>
<!DOCTYPE svg PUBLIC "-//W3C//DTD SVG 1.1//EN"
 "http://www.w3.org/Graphics/SVG/1.1/DTD/svg11.dtd">
<!-- Generated by graphviz version 8.1.0 (20230707.0739)
 -->
<!-- Title: carla::client::detail::WalkerNavigation::AddWalker Pages: 1 -->
<!--zoomable 78 -->

<svg id="main" version="1.1" xmlns="http://www.w3.org/2000/svg" xmlns:xlink="http://www.w3.org/1999/xlink" xml:space="preserve" onload="init(evt)">
<style type="text/css"><![CDATA[
.node, .edge {opacity: 0.7;}
.node.selected, .edge.selected {opacity: 1;}
.edge:hover path { stroke: red; }
.edge:hover polygon { stroke: red; fill: red; }
]]></style>

<defs>
  <circle id="rim" cx="0" cy="0" r="7"/>
  <circle id="rim2" cx="0" cy="0" r="3.5"/>
  <g id="zoomPlus">
    <use xlink:href="#rim" fill="#404040"><set attributeName="fill" to="#808080" begin="zoomplus.mouseover" end="zoomplus.mouseout"/></use>
    <path d="M-4,0h8M0,-4v8" fill="none" stroke="white" stroke-width="1.5" pointer-events="none"/>
  </g>
  <g id="zoomMin">
    <use xlink:href="#rim" fill="#404040"><set attributeName="fill" to="#808080" begin="zoomminus.mouseover" end="zoomminus.mouseout"/></use>
    <path d="M-4,0h8" fill="none" stroke="white" stroke-width="1.5" pointer-events="none"/>
  </g>
  <g id="arrowUp" transform="translate(30 24)">
    <use xlink:href="#rim"/>
    <path pointer-events="none" fill="none" stroke="white" stroke-width="1.5" d="M0,-3.0v7 M-2.5,-0.5L0,-3.0L2.5,-0.5"/>
  </g>
  <g id="arrowRight" transform="rotate(90) translate(36 -43)">
    <use xlink:href="#rim"/>
    <path pointer-events="none" fill="none" stroke="white" stroke-width="1.5" d="M0,-3.0v7 M-2.5,-0.5L0,-3.0L2.5,-0.5"/>
  </g>
  <g id="arrowDown" transform="rotate(180) translate(-30 -48)">
    <use xlink:href="#rim"/>
    <path pointer-events="none" fill="none" stroke="white" stroke-width="1.5" d="M0,-3.0v7 M-2.5,-0.5L0,-3.0L2.5,-0.5"/>
  </g>
  <g id="arrowLeft" transform="rotate(270) translate(-36 17)">
    <use xlink:href="#rim"/>
    <path pointer-events="none" fill="none" stroke="white" stroke-width="1.5" d="M0,-3.0v7 M-2.5,-0.5L0,-3.0L2.5,-0.5"/>
  </g>
  <g id="resetDef">
    <use xlink:href="#rim2" fill="#404040"><set attributeName="fill" to="#808080" begin="reset.mouseover" end="reset.mouseout"/></use>
  </g>
</defs>
<script type="application/ecmascript">
var viewWidth = 946;
var viewHeight = 78;
var sectionId = 'dynsection-3';
</script>
<script type="application/ecmascript" xlink:href="../../svg.min.js"/>
<svg id="graph" class="graph">
<g id="viewport">
<title>carla::client::detail::WalkerNavigation::AddWalker</title>
<!-- Node1 -->
<g id="Node000001" class="node">
<title>Node1</title>
<g id="a_Node000001"><a xlink:title=" ">
<polygon fill="#999999" stroke="#666666" points="151,-48 0,-48 0,-16 151,-16 151,-48"/>
<text text-anchor="start" x="8" y="-34.5" font-family="Helvetica,sans-Serif" font-size="10.00">carla::client::detail</text>
<text text-anchor="middle" x="75.5" y="-22.5" font-family="Helvetica,sans-Serif" font-size="10.00">::WalkerNavigation::AddWalker</text>
</a>
</g>
</g>
<!-- Node2 -->
<g id="Node000002" class="node">
<title>Node2</title>
<g id="a_Node000002"><a xlink:href="../../d9/dc2/classcarla_1_1nav_1_1Navigation.html#ade1fb877d94268b4c21bf2b865e94883" target="_top" xlink:title="创建新的行人">
<polygon fill="white" stroke="#666666" points="294.5,-48 187,-48 187,-16 294.5,-16 294.5,-48"/>
<text text-anchor="start" x="195" y="-34.5" font-family="Helvetica,sans-Serif" font-size="10.00">carla::nav::Navigation</text>
<text text-anchor="middle" x="240.75" y="-22.5" font-family="Helvetica,sans-Serif" font-size="10.00">::AddWalker</text>
</a>
</g>
</g>
<!-- Node1&#45;&gt;Node2 -->
<g id="edge1_Node000001_Node000002" class="edge">
<title>Node1&#45;&gt;Node2</title>
<g id="a_edge1_Node000001_Node000002"><a xlink:title=" ">
<path fill="none" stroke="#63b8ff" d="M151.44,-32C159.62,-32 167.89,-32 175.92,-32"/>
<polygon fill="#63b8ff" stroke="#63b8ff" points="175.69,-35.5 185.69,-32 175.69,-28.5 175.69,-35.5"/>
</a>
</g>
</g>
<!-- Node3 -->
<g id="Node000003" class="node">
<title>Node3</title>
<g id="a_Node000003"><a xlink:href="../../dd/d5b/classcarla_1_1nav_1_1WalkerManager.html#a2a0ed065945689250a9f81d7eb740016" target="_top" xlink:title=" ">
<polygon fill="white" stroke="#666666" points="462,-70 330.5,-70 330.5,-38 462,-38 462,-70"/>
<text text-anchor="start" x="338.5" y="-56.5" font-family="Helvetica,sans-Serif" font-size="10.00">carla::nav::WalkerManager</text>
<text text-anchor="middle" x="396.25" y="-44.5" font-family="Helvetica,sans-Serif" font-size="10.00">::AddWalker</text>
</a>
</g>
</g>
<!-- Node2&#45;&gt;Node3 -->
<g id="edge2_Node000002_Node000003" class="edge">
<title>Node2&#45;&gt;Node3</title>
<g id="a_edge2_Node000002_Node000003"><a xlink:title=" ">
<path fill="none" stroke="#63b8ff" d="M294.58,-39.57C302.62,-40.72 311.06,-41.93 319.49,-43.14"/>
<polygon fill="#63b8ff" stroke="#63b8ff" points="318.72,-46.71 329.12,-44.67 319.72,-39.78 318.72,-46.71"/>
</a>
</g>
</g>
<!-- Node7 -->
<g id="Node000007" class="node">
<title>Node7</title>
<g id="a_Node000007"><a xlink:href="../../db/dcc/namespacecarla_1_1nav.html#a1653b74e450d94d2dcdb352875bfbf31" target="_top" xlink:title=" ">
<polygon fill="white" stroke="#666666" points="438.38,-20 354.12,-20 354.12,0 438.38,0 438.38,-20"/>
<text text-anchor="middle" x="396.25" y="-6.5" font-family="Helvetica,sans-Serif" font-size="10.00">carla::nav::frand</text>
</a>
</g>
</g>
<!-- Node2&#45;&gt;Node7 -->
<g id="edge6_Node000002_Node000007" class="edge">
<title>Node2&#45;&gt;Node7</title>
<g id="a_edge6_Node000002_Node000007"><a xlink:title=" ">
<path fill="none" stroke="#63b8ff" d="M294.58,-24.43C310.36,-22.17 327.64,-19.69 343.37,-17.44"/>
<polygon fill="#63b8ff" stroke="#63b8ff" points="343.56,-20.8 352.96,-15.92 342.57,-13.87 343.56,-20.8"/>
</a>
</g>
</g>
<!-- Node4 -->
<g id="Node000004" class="node">
<title>Node4</title>
<g id="a_Node000004"><a xlink:href="../../dd/d5b/classcarla_1_1nav_1_1WalkerManager.html#a9289dae0ecd8a03e681939074634730e" target="_top" xlink:title=" ">
<polygon fill="white" stroke="#666666" points="640,-70 498,-70 498,-38 640,-38 640,-70"/>
<text text-anchor="start" x="506" y="-56.5" font-family="Helvetica,sans-Serif" font-size="10.00">carla::nav::WalkerManager</text>
<text text-anchor="middle" x="569" y="-44.5" font-family="Helvetica,sans-Serif" font-size="10.00">::GetAllTrafficLightWaypoints</text>
</a>
</g>
</g>
<!-- Node3&#45;&gt;Node4 -->
<g id="edge3_Node000003_Node000004" class="edge">
<title>Node3&#45;&gt;Node4</title>
<g id="a_edge3_Node000003_Node000004"><a xlink:title=" ">
<path fill="none" stroke="#63b8ff" d="M462.29,-54C470.35,-54 478.67,-54 486.93,-54"/>
<polygon fill="#63b8ff" stroke="#63b8ff" points="486.74,-57.5 496.74,-54 486.74,-50.5 486.74,-57.5"/>
</a>
</g>
</g>
<!-- Node5 -->
<g id="Node000005" class="node">
<title>Node5</title>
<g id="a_Node000005"><a xlink:href="../../db/d1f/classcarla_1_1client_1_1World.html#a4695a58dcf7f3589294b95e3d04cdad7" target="_top" xlink:title="根据id查找actor，如果没有找到则返回nullptr。 通过传入的ActorId参数，在当前模拟世界中查找对应的参与者对象，方便快速定位特定的实体， 比如查找某一辆特定编号的车辆或者某个行人等。">
<polygon fill="white" stroke="#666666" points="773.75,-70 676,-70 676,-38 773.75,-38 773.75,-70"/>
<text text-anchor="start" x="684" y="-56.5" font-family="Helvetica,sans-Serif" font-size="10.00">carla::client::World</text>
<text text-anchor="middle" x="724.88" y="-44.5" font-family="Helvetica,sans-Serif" font-size="10.00">::GetActor</text>
</a>
</g>
</g>
<!-- Node4&#45;&gt;Node5 -->
<g id="edge4_Node000004_Node000005" class="edge">
<title>Node4&#45;&gt;Node5</title>
<g id="a_edge4_Node000004_Node000005"><a xlink:title=" ">
<path fill="none" stroke="#63b8ff" d="M640.18,-54C648.47,-54 656.85,-54 664.96,-54"/>
<polygon fill="#63b8ff" stroke="#63b8ff" points="664.8,-57.5 674.8,-54 664.8,-50.5 664.8,-57.5"/>
</a>
</g>
</g>
<!-- Node6 -->
<g id="Node000006" class="node">
<title>Node6</title>
<g id="a_Node000006"><a xlink:href="../../d1/dd3/classcarla_1_1client_1_1detail_1_1EpisodeProxyImpl.html#aaca857645fbeb6546b4a03a663bb65af" target="_top" xlink:title="与 TryLock 相同，但永远不会返回 nullptr。">
<polygon fill="white" stroke="#666666" points="937.5,-70 809.75,-70 809.75,-38 937.5,-38 937.5,-70"/>
<text text-anchor="start" x="817.75" y="-56.5" font-family="Helvetica,sans-Serif" font-size="10.00">carla::client::detail</text>
<text text-anchor="middle" x="873.62" y="-44.5" font-family="Helvetica,sans-Serif" font-size="10.00">::EpisodeProxyImpl::Lock</text>
</a>
</g>
</g>
<!-- Node5&#45;&gt;Node6 -->
<g id="edge5_Node000005_Node000006" class="edge">
<title>Node5&#45;&gt;Node6</title>
<g id="a_edge5_Node000005_Node000006"><a xlink:title=" ">
<path fill="none" stroke="#63b8ff" d="M773.93,-54C781.83,-54 790.18,-54 798.55,-54"/>
<polygon fill="#63b8ff" stroke="#63b8ff" points="798.51,-57.5 808.51,-54 798.51,-50.5 798.51,-57.5"/>
</a>
</g>
</g>
</g>
</svg>

<g id="navigator" transform="translate(0 0)" fill="#404254">
  <rect fill="#f2f5e9" fill-opacity="0.5" stroke="#606060" stroke-width=".5" x="0" y="0" width="60" height="60"/>
  <use id="zoomplus" xlink:href="#zoomPlus" x="17" y="9" onmousedown="handleZoom(evt,'in')"/>
  <use id="zoomminus" xlink:href="#zoomMin" x="42" y="9" onmousedown="handleZoom(evt,'out')"/>
  <use id="reset" xlink:href="#resetDef" x="30" y="36" onmousedown="handleReset()"/>
   <use id="arrowup" xlink:href="#arrowUp" x="0" y="0" onmousedown="handlePan(0,-1)"/>
  <use id="arrowright" xlink:href="#arrowRight" x="0" y="0" onmousedown="handlePan(1,0)"/>
  <use id="arrowdown" xlink:href="#arrowDown" x="0" y="0" onmousedown="handlePan(0,1)"/>
  <use id="arrowleft" xlink:href="#arrowLeft" x="0" y="0" onmousedown="handlePan(-1,0)"/>
</g>
<svg viewBox="0 0 15 15" width="100%" height="30px" preserveAspectRatio="xMaxYMin meet">
 <g id="arrow_out" transform="scale(0.3 0.3)">
  <a xlink:href="classcarla_1_1client_1_1detail_1_1WalkerNavigation_a9e40890dd0320709636b44b38d98d400_cgraph_org.svg" target="_base">
   <rect id="button" ry="5" rx="5" y="6" x="6" height="38" width="38"
        fill="#f2f5e9" fill-opacity="0.5" stroke="#606060" stroke-width="1.0"/>
   <path id="arrow"
     d="M 11.500037,31.436501 C 11.940474,20.09759 22.043105,11.32322 32.158766,21.979434 L 37.068811,17.246167 C 37.068811,17.246167 37.088388,32 37.088388,32 L 22.160133,31.978069 C 22.160133,31.978069 26.997745,27.140456 26.997745,27.140456 C 18.528582,18.264221 13.291696,25.230495 11.500037,31.436501 z"
     style="fill:#404040;"/>
  </a>
 </g>
</svg>

<style type='text/css'>
<![CDATA[
[data-mouse-over-selected='false'] { opacity: 0.7; }
[data-mouse-over-selected='true']  { opacity: 1.0; }
]]>
</style>
<script type="application/ecmascript"><![CDATA[
document.addEventListener('DOMContentLoaded', (event) => {
  highlightEdges();
  highlightAdjacentNodes();
});
]]></script>
</svg>
