<?xml version="1.0" encoding="UTF-8" standalone="no"?>
<!DOCTYPE svg PUBLIC "-//W3C//DTD SVG 1.1//EN"
 "http://www.w3.org/Graphics/SVG/1.1/DTD/svg11.dtd">
<!-- Generated by graphviz version 8.1.0 (20230707.0739)
 -->
<!-- Title: FCarlaMapTile Pages: 1 -->
<svg width="341pt" height="96pt"
 viewBox="0.00 0.00 340.75 96.00" xmlns="http://www.w3.org/2000/svg" xmlns:xlink="http://www.w3.org/1999/xlink">
<g id="graph0" class="graph" transform="scale(1 1) rotate(0) translate(4 92)">
<title>FCarlaMapTile</title>
<!-- Node1 -->
<g id="Node000001" class="node">
<title>Node1</title>
<g id="a_Node000001"><a xlink:title=" ">
<polygon fill="#999999" stroke="#666666" points="184.88,-20 106.62,-20 106.62,0 184.88,0 184.88,-20"/>
<text text-anchor="middle" x="145.75" y="-6.5" font-family="Helvetica,sans-Serif" font-size="10.00">FCarlaMapTile</text>
</a>
</g>
</g>
<!-- Node2 -->
<g id="Node000002" class="node">
<title>Node2</title>
<g id="a_Node000002"><a xlink:title=" ">
<polygon fill="white" stroke="#666666" points="47.5,-88 0,-88 0,-68 47.5,-68 47.5,-88"/>
<text text-anchor="middle" x="23.75" y="-74.5" font-family="Helvetica,sans-Serif" font-size="10.00">FString</text>
</a>
</g>
</g>
<!-- Node2&#45;&gt;Node1 -->
<g id="edge1_Node000001_Node000002" class="edge">
<title>Node2&#45;&gt;Node1</title>
<g id="a_edge1_Node000001_Node000002"><a xlink:title=" ">
<path fill="none" stroke="#9a32cd" stroke-dasharray="5,2" d="M44.55,-61.05C54.94,-53.51 67.9,-44.71 80.25,-38 92.68,-31.25 107.16,-25.11 119.34,-20.41"/>
<polygon fill="#9a32cd" stroke="#9a32cd" points="42.77,-58.76 36.83,-67.53 46.94,-64.38 42.77,-58.76"/>
</a>
</g>
<text text-anchor="middle" x="95" y="-40.5" font-family="Helvetica,sans-Serif" font-size="10.00" fill="grey"> Name</text>
</g>
<!-- Node3 -->
<g id="Node000003" class="node">
<title>Node3</title>
<g id="a_Node000003"><a xlink:title=" ">
<polygon fill="white" stroke="#666666" points="116,-88 65.5,-88 65.5,-68 116,-68 116,-88"/>
<text text-anchor="middle" x="90.75" y="-74.5" font-family="Helvetica,sans-Serif" font-size="10.00">FVector</text>
</a>
</g>
</g>
<!-- Node3&#45;&gt;Node1 -->
<g id="edge2_Node000001_Node000003" class="edge">
<title>Node3&#45;&gt;Node1</title>
<g id="a_edge2_Node000001_Node000003"><a xlink:title=" ">
<path fill="none" stroke="#9a32cd" stroke-dasharray="5,2" d="M105.54,-59.25C115.95,-46.76 129.48,-30.53 137.88,-20.44"/>
<polygon fill="#9a32cd" stroke="#9a32cd" points="102.34,-56.62 98.63,-66.54 107.72,-61.1 102.34,-56.62"/>
</a>
</g>
<text text-anchor="middle" x="142.62" y="-40.5" font-family="Helvetica,sans-Serif" font-size="10.00" fill="grey"> Location</text>
</g>
<!-- Node4 -->
<g id="Node000004" class="node">
<title>Node4</title>
<g id="a_Node000004"><a xlink:title=" ">
<polygon fill="white" stroke="#666666" points="267.62,-88 133.88,-88 133.88,-68 267.62,-68 267.62,-88"/>
<text text-anchor="middle" x="200.75" y="-74.5" font-family="Helvetica,sans-Serif" font-size="10.00">ULevelStreamingDynamic *</text>
</a>
</g>
</g>
<!-- Node4&#45;&gt;Node1 -->
<g id="edge3_Node000001_Node000004" class="edge">
<title>Node4&#45;&gt;Node1</title>
<g id="a_edge3_Node000001_Node000004"><a xlink:title=" ">
<path fill="none" stroke="#9a32cd" stroke-dasharray="5,2" d="M185.96,-59.25C175.55,-46.76 162.02,-30.53 153.62,-20.44"/>
<polygon fill="#9a32cd" stroke="#9a32cd" points="183.78,-61.1 192.87,-66.54 189.16,-56.62 183.78,-61.1"/>
</a>
</g>
<text text-anchor="middle" x="212.25" y="-40.5" font-family="Helvetica,sans-Serif" font-size="10.00" fill="grey"> StreamingLevel</text>
</g>
<!-- Node5 -->
<g id="Node000005" class="node">
<title>Node5</title>
<g id="a_Node000005"><a xlink:title=" ">
<polygon fill="white" stroke="#666666" points="319.75,-88 285.75,-88 285.75,-68 319.75,-68 319.75,-88"/>
<text text-anchor="middle" x="302.75" y="-74.5" font-family="Helvetica,sans-Serif" font-size="10.00">bool</text>
</a>
</g>
</g>
<!-- Node5&#45;&gt;Node1 -->
<g id="edge4_Node000001_Node000005" class="edge">
<title>Node5&#45;&gt;Node1</title>
<g id="a_edge4_Node000001_Node000005"><a xlink:title=" ">
<path fill="none" stroke="#9a32cd" stroke-dasharray="5,2" d="M284.59,-60.58C275.09,-52.76 262.93,-43.85 250.75,-38 230.13,-28.1 205.44,-21.52 185.17,-17.33"/>
<polygon fill="#9a32cd" stroke="#9a32cd" points="281.92,-63.77 291.79,-67.62 286.48,-58.45 281.92,-63.77"/>
</a>
</g>
<text text-anchor="middle" x="301.25" y="-40.5" font-family="Helvetica,sans-Serif" font-size="10.00" fill="grey"> TilesSpawned</text>
</g>
</g>
</svg>
