<?xml version="1.0" encoding="UTF-8" standalone="no"?>
<!DOCTYPE svg PUBLIC "-//W3C//DTD SVG 1.1//EN"
 "http://www.w3.org/Graphics/SVG/1.1/DTD/svg11.dtd">
<!-- Generated by graphviz version 8.1.0 (20230707.0739)
 -->
<!-- Title: FLidarDescription Pages: 1 -->
<svg width="424pt" height="216pt"
 viewBox="0.00 0.00 423.62 216.00" xmlns="http://www.w3.org/2000/svg" xmlns:xlink="http://www.w3.org/1999/xlink">

<svg id="main" version="1.1" xmlns="http://www.w3.org/2000/svg" xmlns:xlink="http://www.w3.org/1999/xlink" xml:space="preserve" onload="init(evt)">
<style type="text/css"><![CDATA[
.node, .edge {opacity: 0.7;}
.node.selected, .edge.selected {opacity: 1;}
.edge:hover path { stroke: red; }
.edge:hover polygon { stroke: red; fill: red; }
]]></style>
<script type="application/ecmascript" xlink:href="../../svg.min.js"/>
<svg id="graph" class="graph">
<g id="graph0" class="graph" transform="scale(1 1) rotate(0) translate(4 212)">
<title>FLidarDescription</title>
<!-- Node1 -->
<g id="Node000001" class="node">
<title>Node1</title>
<g id="a_Node000001"><a xlink:title=" ">
<polygon fill="#999999" stroke="#666666" points="226,-20 134.25,-20 134.25,0 226,0 226,-20"/>
<text text-anchor="middle" x="180.12" y="-6.5" font-family="Helvetica,sans-Serif" font-size="10.00">FLidarDescription</text>
</a>
</g>
</g>
<!-- Node2 -->
<g id="Node000002" class="node">
<title>Node2</title>
<g id="a_Node000002"><a xlink:title=" ">
<polygon fill="white" stroke="#666666" points="42.25,-208 0,-208 0,-188 42.25,-188 42.25,-208"/>
<text text-anchor="middle" x="21.12" y="-194.5" font-family="Helvetica,sans-Serif" font-size="10.00">uint32</text>
</a>
</g>
</g>
<!-- Node2&#45;&gt;Node1 -->
<g id="edge1_Node000001_Node000002" class="edge">
<title>Node2&#45;&gt;Node1</title>
<g id="a_edge1_Node000001_Node000002"><a xlink:title=" ">
<path fill="none" stroke="#9a32cd" stroke-dasharray="5,2" d="M14.66,-177.54C5.03,-144.52 -8.53,-77.26 25.38,-38 39.28,-21.9 93.7,-15.4 134.1,-12.77"/>
<polygon fill="#9a32cd" stroke="#9a32cd" points="11.5,-178.18 17.82,-186.69 18.19,-176.11 11.5,-178.18"/>
</a>
</g>
<text text-anchor="middle" x="64" y="-106.5" font-family="Helvetica,sans-Serif" font-size="10.00" fill="grey"> Channels</text>
<text text-anchor="middle" x="64" y="-94.5" font-family="Helvetica,sans-Serif" font-size="10.00" fill="grey">PointsPerSecond</text>
</g>
<!-- Node3 -->
<g id="Node000003" class="node">
<title>Node3</title>
<g id="a_Node000003"><a xlink:title=" ">
<polygon fill="white" stroke="#666666" points="137.12,-208 103.12,-208 103.12,-188 137.12,-188 137.12,-208"/>
<text text-anchor="middle" x="120.12" y="-194.5" font-family="Helvetica,sans-Serif" font-size="10.00">float</text>
</a>
</g>
</g>
<!-- Node3&#45;&gt;Node1 -->
<g id="edge2_Node000001_Node000003" class="edge">
<title>Node3&#45;&gt;Node1</title>
<g id="a_edge2_Node000001_Node000003"><a xlink:title=" ">
<path fill="none" stroke="#9a32cd" stroke-dasharray="5,2" d="M114.17,-177.58C105.61,-145.61 93.73,-81.15 121.62,-38 126.79,-30.02 134.97,-24.36 143.6,-20.36"/>
<polygon fill="#9a32cd" stroke="#9a32cd" points="110.97,-178.14 117.09,-186.79 117.7,-176.21 110.97,-178.14"/>
</a>
</g>
<text text-anchor="middle" x="170.88" y="-160.5" font-family="Helvetica,sans-Serif" font-size="10.00" fill="grey"> AtmospAttenRate</text>
<text text-anchor="middle" x="170.88" y="-148.5" font-family="Helvetica,sans-Serif" font-size="10.00" fill="grey">DropOffAtZeroIntensity</text>
<text text-anchor="middle" x="170.88" y="-136.5" font-family="Helvetica,sans-Serif" font-size="10.00" fill="grey">DropOffGenRate</text>
<text text-anchor="middle" x="170.88" y="-124.5" font-family="Helvetica,sans-Serif" font-size="10.00" fill="grey">DropOffIntensityLimit</text>
<text text-anchor="middle" x="170.88" y="-112.5" font-family="Helvetica,sans-Serif" font-size="10.00" fill="grey">HorizontalFov</text>
<text text-anchor="middle" x="170.88" y="-100.5" font-family="Helvetica,sans-Serif" font-size="10.00" fill="grey">LowerFovLimit</text>
<text text-anchor="middle" x="170.88" y="-88.5" font-family="Helvetica,sans-Serif" font-size="10.00" fill="grey">NoiseStdDev</text>
<text text-anchor="middle" x="170.88" y="-76.5" font-family="Helvetica,sans-Serif" font-size="10.00" fill="grey">Range</text>
<text text-anchor="middle" x="170.88" y="-64.5" font-family="Helvetica,sans-Serif" font-size="10.00" fill="grey">RotationFrequency</text>
<text text-anchor="middle" x="170.88" y="-52.5" font-family="Helvetica,sans-Serif" font-size="10.00" fill="grey">UpperFovLimit</text>
<text text-anchor="middle" x="170.88" y="-40.5" font-family="Helvetica,sans-Serif" font-size="10.00" fill="grey">...</text>
</g>
<!-- Node4 -->
<g id="Node000004" class="node">
<title>Node4</title>
<g id="a_Node000004"><a xlink:title=" ">
<polygon fill="white" stroke="#666666" points="255.53,-208 226.72,-208 226.72,-188 255.53,-188 255.53,-208"/>
<text text-anchor="middle" x="241.12" y="-194.5" font-family="Helvetica,sans-Serif" font-size="10.00">int</text>
</a>
</g>
</g>
<!-- Node4&#45;&gt;Node1 -->
<g id="edge3_Node000001_Node000004" class="edge">
<title>Node4&#45;&gt;Node1</title>
<g id="a_edge3_Node000001_Node000004"><a xlink:title=" ">
<path fill="none" stroke="#9a32cd" stroke-dasharray="5,2" d="M240.35,-177.07C238.57,-139.73 233.22,-60.92 219.12,-38 214.55,-30.56 207.08,-24.66 199.89,-20.29"/>
<polygon fill="#9a32cd" stroke="#9a32cd" points="236.87,-176.78 240.8,-186.62 243.87,-176.47 236.87,-176.78"/>
</a>
</g>
<text text-anchor="middle" x="269.88" y="-100.5" font-family="Helvetica,sans-Serif" font-size="10.00" fill="grey"> RandomSeed</text>
</g>
<!-- Node5 -->
<g id="Node000005" class="node">
<title>Node5</title>
<g id="a_Node000005"><a xlink:title=" ">
<polygon fill="white" stroke="#666666" points="343.12,-208 309.12,-208 309.12,-188 343.12,-188 343.12,-208"/>
<text text-anchor="middle" x="326.12" y="-194.5" font-family="Helvetica,sans-Serif" font-size="10.00">bool</text>
</a>
</g>
</g>
<!-- Node5&#45;&gt;Node1 -->
<g id="edge4_Node000001_Node000005" class="edge">
<title>Node5&#45;&gt;Node1</title>
<g id="a_edge4_Node000001_Node000005"><a xlink:title=" ">
<path fill="none" stroke="#9a32cd" stroke-dasharray="5,2" d="M329.91,-176.92C334.95,-143.47 339.54,-76.24 304.12,-38 293.57,-26.6 257.03,-19.57 226.32,-15.55"/>
<polygon fill="#9a32cd" stroke="#9a32cd" points="326.32,-176.16 328.1,-186.6 333.22,-177.33 326.32,-176.16"/>
</a>
</g>
<text text-anchor="middle" x="374.38" y="-100.5" font-family="Helvetica,sans-Serif" font-size="10.00" fill="grey"> ShowDebugPoints</text>
</g>
</g>
</svg>
</svg>

<style type='text/css'>
<![CDATA[
[data-mouse-over-selected='false'] { opacity: 0.7; }
[data-mouse-over-selected='true']  { opacity: 1.0; }
]]>
</style>
<script type="application/ecmascript"><![CDATA[
document.addEventListener('DOMContentLoaded', (event) => {
  highlightEdges();
  highlightAdjacentNodes();
});
]]></script>
</svg>
