<?xml version="1.0" encoding="UTF-8" standalone="no"?>
<!DOCTYPE svg PUBLIC "-//W3C//DTD SVG 1.1//EN"
 "http://www.w3.org/Graphics/SVG/1.1/DTD/svg11.dtd">
<!-- Generated by graphviz version 8.1.0 (20230707.0739)
 -->
<!-- Title: carla::traffic_manager::TrackTraffic::RemovePassingVehicle Pages: 1 -->
<!--zoomable 265 -->

<svg id="main" version="1.1" xmlns="http://www.w3.org/2000/svg" xmlns:xlink="http://www.w3.org/1999/xlink" xml:space="preserve" onload="init(evt)">
<style type="text/css"><![CDATA[
.node, .edge {opacity: 0.7;}
.node.selected, .edge.selected {opacity: 1;}
.edge:hover path { stroke: red; }
.edge:hover polygon { stroke: red; fill: red; }
]]></style>

<defs>
  <circle id="rim" cx="0" cy="0" r="7"/>
  <circle id="rim2" cx="0" cy="0" r="3.5"/>
  <g id="zoomPlus">
    <use xlink:href="#rim" fill="#404040"><set attributeName="fill" to="#808080" begin="zoomplus.mouseover" end="zoomplus.mouseout"/></use>
    <path d="M-4,0h8M0,-4v8" fill="none" stroke="white" stroke-width="1.5" pointer-events="none"/>
  </g>
  <g id="zoomMin">
    <use xlink:href="#rim" fill="#404040"><set attributeName="fill" to="#808080" begin="zoomminus.mouseover" end="zoomminus.mouseout"/></use>
    <path d="M-4,0h8" fill="none" stroke="white" stroke-width="1.5" pointer-events="none"/>
  </g>
  <g id="arrowUp" transform="translate(30 24)">
    <use xlink:href="#rim"/>
    <path pointer-events="none" fill="none" stroke="white" stroke-width="1.5" d="M0,-3.0v7 M-2.5,-0.5L0,-3.0L2.5,-0.5"/>
  </g>
  <g id="arrowRight" transform="rotate(90) translate(36 -43)">
    <use xlink:href="#rim"/>
    <path pointer-events="none" fill="none" stroke="white" stroke-width="1.5" d="M0,-3.0v7 M-2.5,-0.5L0,-3.0L2.5,-0.5"/>
  </g>
  <g id="arrowDown" transform="rotate(180) translate(-30 -48)">
    <use xlink:href="#rim"/>
    <path pointer-events="none" fill="none" stroke="white" stroke-width="1.5" d="M0,-3.0v7 M-2.5,-0.5L0,-3.0L2.5,-0.5"/>
  </g>
  <g id="arrowLeft" transform="rotate(270) translate(-36 17)">
    <use xlink:href="#rim"/>
    <path pointer-events="none" fill="none" stroke="white" stroke-width="1.5" d="M0,-3.0v7 M-2.5,-0.5L0,-3.0L2.5,-0.5"/>
  </g>
  <g id="resetDef">
    <use xlink:href="#rim2" fill="#404040"><set attributeName="fill" to="#808080" begin="reset.mouseover" end="reset.mouseout"/></use>
  </g>
</defs>
<script type="application/ecmascript">
var viewWidth = 1347;
var viewHeight = 265;
var sectionId = 'dynsection-9';
</script>
<script type="application/ecmascript" xlink:href="../../svg.min.js"/>
<svg id="graph" class="graph">
<g id="viewport">
<title>carla::traffic_manager::TrackTraffic::RemovePassingVehicle</title>
<!-- Node1 -->
<g id="Node000001" class="node">
<title>Node1</title>
<g id="a_Node000001"><a xlink:title=" ">
<polygon fill="#999999" stroke="#666666" points="1338.5,-132 1191.25,-132 1191.25,-88 1338.5,-88 1338.5,-132"/>
<text text-anchor="start" x="1199.25" y="-118.5" font-family="Helvetica,sans-Serif" font-size="10.00">carla::traffic_manager</text>
<text text-anchor="start" x="1199.25" y="-106.5" font-family="Helvetica,sans-Serif" font-size="10.00">::TrackTraffic::RemovePassing</text>
<text text-anchor="middle" x="1264.88" y="-94.5" font-family="Helvetica,sans-Serif" font-size="10.00">Vehicle</text>
</a>
</g>
</g>
<!-- Node2 -->
<g id="Node000002" class="node">
<title>Node2</title>
<g id="a_Node000002"><a xlink:href="../../d2/d36/classcarla_1_1traffic__manager_1_1TrackTraffic.html#ad3f8304d51ae8e9bcf278ec1fc1caa73" target="_top" xlink:title="Method to delete actor data from tracking.">
<polygon fill="white" stroke="#666666" points="1155.25,-176 1026.75,-176 1026.75,-144 1155.25,-144 1155.25,-176"/>
<text text-anchor="start" x="1034.75" y="-162.5" font-family="Helvetica,sans-Serif" font-size="10.00">carla::traffic_manager</text>
<text text-anchor="middle" x="1091" y="-150.5" font-family="Helvetica,sans-Serif" font-size="10.00">::TrackTraffic::DeleteActor</text>
</a>
</g>
</g>
<!-- Node1&#45;&gt;Node2 -->
<g id="edge1_Node000001_Node000002" class="edge">
<title>Node1&#45;&gt;Node2</title>
<g id="a_edge1_Node000001_Node000002"><a xlink:title=" ">
<path fill="none" stroke="#63b8ff" d="M1180.62,-134.22C1169.76,-137.38 1158.85,-140.55 1148.58,-143.54"/>
<polygon fill="#63b8ff" stroke="#63b8ff" points="1181.36,-137.36 1189.98,-131.2 1179.4,-130.64 1181.36,-137.36"/>
</a>
</g>
</g>
<!-- Node12 -->
<g id="Node000012" class="node">
<title>Node12</title>
<g id="a_Node000012"><a xlink:href="../../d0/db7/namespacecarla_1_1traffic__manager.html#a281d807c2cff6298b79020c8ff78e19d" target="_top" xlink:title=" ">
<polygon fill="white" stroke="#666666" points="1145.5,-98 1036.5,-98 1036.5,-66 1145.5,-66 1145.5,-98"/>
<text text-anchor="start" x="1044.5" y="-84.5" font-family="Helvetica,sans-Serif" font-size="10.00">carla::traffic_manager</text>
<text text-anchor="middle" x="1091" y="-72.5" font-family="Helvetica,sans-Serif" font-size="10.00">::PopWaypoint</text>
</a>
</g>
</g>
<!-- Node1&#45;&gt;Node12 -->
<g id="edge12_Node000001_Node000012" class="edge">
<title>Node1&#45;&gt;Node12</title>
<g id="a_edge12_Node000001_Node000012"><a xlink:title=" ">
<path fill="none" stroke="#63b8ff" d="M1180.3,-96.39C1168.63,-94.48 1156.9,-92.57 1145.97,-90.79"/>
<polygon fill="#63b8ff" stroke="#63b8ff" points="1179.55,-99.97 1189.98,-98.13 1180.68,-93.06 1179.55,-99.97"/>
</a>
</g>
</g>
<!-- Node3 -->
<g id="Node000003" class="node">
<title>Node3</title>
<g id="a_Node000003"><a xlink:href="../../d2/d75/classcarla_1_1traffic__manager_1_1ALSM.html#a33160b538ce38f9ec4a0942f9fa53d86" target="_top" xlink:title=" ">
<polygon fill="white" stroke="#666666" points="965.62,-232 852.88,-232 852.88,-200 965.62,-200 965.62,-232"/>
<text text-anchor="start" x="860.88" y="-218.5" font-family="Helvetica,sans-Serif" font-size="10.00">carla::traffic_manager</text>
<text text-anchor="middle" x="909.25" y="-206.5" font-family="Helvetica,sans-Serif" font-size="10.00">::ALSM::RemoveActor</text>
</a>
</g>
</g>
<!-- Node2&#45;&gt;Node3 -->
<g id="edge2_Node000002_Node000003" class="edge">
<title>Node2&#45;&gt;Node3</title>
<g id="a_edge2_Node000002_Node000003"><a xlink:title=" ">
<path fill="none" stroke="#63b8ff" d="M1027.03,-179.68C1014.99,-183.44 1002.48,-187.35 990.75,-191 981.81,-193.79 972.31,-196.74 963.08,-199.61"/>
<polygon fill="#63b8ff" stroke="#63b8ff" points="1027.96,-182.75 1036.47,-176.43 1025.88,-176.07 1027.96,-182.75"/>
</a>
</g>
</g>
<!-- Node10 -->
<g id="Node000010" class="node">
<title>Node10</title>
<g id="a_Node000010"><a xlink:href="../../d2/d36/classcarla_1_1traffic__manager_1_1TrackTraffic.html#aa77bd9457c2a55f1c566a68d3a12604b" target="_top" xlink:title=" ">
<polygon fill="white" stroke="#666666" points="990.75,-182 827.75,-182 827.75,-138 990.75,-138 990.75,-182"/>
<text text-anchor="start" x="835.75" y="-168.5" font-family="Helvetica,sans-Serif" font-size="10.00">carla::traffic_manager</text>
<text text-anchor="start" x="835.75" y="-156.5" font-family="Helvetica,sans-Serif" font-size="10.00">::TrackTraffic::UpdateUnregistered</text>
<text text-anchor="middle" x="909.25" y="-144.5" font-family="Helvetica,sans-Serif" font-size="10.00">GridPosition</text>
</a>
</g>
</g>
<!-- Node2&#45;&gt;Node10 -->
<g id="edge9_Node000002_Node000010" class="edge">
<title>Node2&#45;&gt;Node10</title>
<g id="a_edge9_Node000002_Node000010"><a xlink:title=" ">
<path fill="none" stroke="#63b8ff" d="M1015.52,-160C1007.46,-160 999.24,-160 991.11,-160"/>
<polygon fill="#63b8ff" stroke="#63b8ff" points="1015.37,-163.5 1025.37,-160 1015.37,-156.5 1015.37,-163.5"/>
</a>
</g>
</g>
<!-- Node4 -->
<g id="Node000004" class="node">
<title>Node4</title>
<g id="a_Node000004"><a xlink:href="../../da/d0f/classcarla_1_1traffic__manager_1_1TrafficManagerLocal.html#ae7455c9a77ddb136af81c78cf69ba646" target="_top" xlink:title="This method unregisters a vehicle from traffic manager.">
<polygon fill="white" stroke="#666666" points="751.62,-257 642.62,-257 642.62,-213 751.62,-213 751.62,-257"/>
<text text-anchor="start" x="650.62" y="-243.5" font-family="Helvetica,sans-Serif" font-size="10.00">carla::traffic_manager</text>
<text text-anchor="start" x="650.62" y="-231.5" font-family="Helvetica,sans-Serif" font-size="10.00">::TrafficManagerLocal</text>
<text text-anchor="middle" x="697.12" y="-219.5" font-family="Helvetica,sans-Serif" font-size="10.00">::UnregisterVehicles</text>
</a>
</g>
</g>
<!-- Node3&#45;&gt;Node4 -->
<g id="edge3_Node000003_Node000004" class="edge">
<title>Node3&#45;&gt;Node4</title>
<g id="a_edge3_Node000003_Node000004"><a xlink:title=" ">
<path fill="none" stroke="#63b8ff" d="M841.65,-222.02C812.72,-224.64 779.28,-227.66 751.96,-230.13"/>
<polygon fill="#63b8ff" stroke="#63b8ff" points="841.85,-225.43 851.49,-221.04 841.22,-218.46 841.85,-225.43"/>
</a>
</g>
</g>
<!-- Node5 -->
<g id="Node000005" class="node">
<title>Node5</title>
<g id="a_Node000005"><a xlink:href="../../d2/d75/classcarla_1_1traffic__manager_1_1ALSM.html#a0a506446f6810014b6da12d0dcba0748" target="_top" xlink:title=" ">
<polygon fill="white" stroke="#666666" points="566.5,-157 457.5,-157 457.5,-125 566.5,-125 566.5,-157"/>
<text text-anchor="start" x="465.5" y="-143.5" font-family="Helvetica,sans-Serif" font-size="10.00">carla::traffic_manager</text>
<text text-anchor="middle" x="512" y="-131.5" font-family="Helvetica,sans-Serif" font-size="10.00">::ALSM::Update</text>
</a>
</g>
</g>
<!-- Node3&#45;&gt;Node5 -->
<g id="edge4_Node000003_Node000005" class="edge">
<title>Node3&#45;&gt;Node5</title>
<g id="a_edge4_Node000003_Node000005"><a xlink:title=" ">
<path fill="none" stroke="#63b8ff" d="M841.55,-207.25C779.34,-198.59 684.13,-184.02 602.5,-166 590.84,-163.43 578.45,-160.25 566.71,-157.04"/>
<polygon fill="#63b8ff" stroke="#63b8ff" points="841,-210.85 851.39,-208.75 841.96,-203.92 841,-210.85"/>
</a>
</g>
</g>
<!-- Node6 -->
<g id="Node000006" class="node">
<title>Node6</title>
<g id="a_Node000006"><a xlink:href="../../da/d0f/classcarla_1_1traffic__manager_1_1TrafficManagerLocal.html#a6d67cce3d0e5a48056645270364fe637" target="_top" xlink:title="Initiates thread to run the TrafficManager sequentially.">
<polygon fill="white" stroke="#666666" points="421.5,-129 290,-129 290,-97 421.5,-97 421.5,-129"/>
<text text-anchor="start" x="298" y="-115.5" font-family="Helvetica,sans-Serif" font-size="10.00">carla::traffic_manager</text>
<text text-anchor="middle" x="355.75" y="-103.5" font-family="Helvetica,sans-Serif" font-size="10.00">::TrafficManagerLocal::Run</text>
</a>
</g>
</g>
<!-- Node5&#45;&gt;Node6 -->
<g id="edge5_Node000005_Node000006" class="edge">
<title>Node5&#45;&gt;Node6</title>
<g id="a_edge5_Node000005_Node000006"><a xlink:title=" ">
<path fill="none" stroke="#63b8ff" d="M446.47,-129.29C438.32,-127.81 429.97,-126.29 421.81,-124.81"/>
<polygon fill="#63b8ff" stroke="#63b8ff" points="445.59,-132.86 456.05,-131.21 446.84,-125.98 445.59,-132.86"/>
</a>
</g>
</g>
<!-- Node7 -->
<g id="Node000007" class="node">
<title>Node7</title>
<g id="a_Node000007"><a xlink:href="../../da/d0f/classcarla_1_1traffic__manager_1_1TrafficManagerLocal.html#a1ffbdb0bed64f385437d2820a90286d0" target="_top" xlink:title="To start the TrafficManager.">
<polygon fill="white" stroke="#666666" points="254,-135 145,-135 145,-91 254,-91 254,-135"/>
<text text-anchor="start" x="153" y="-121.5" font-family="Helvetica,sans-Serif" font-size="10.00">carla::traffic_manager</text>
<text text-anchor="start" x="153" y="-109.5" font-family="Helvetica,sans-Serif" font-size="10.00">::TrafficManagerLocal</text>
<text text-anchor="middle" x="199.5" y="-97.5" font-family="Helvetica,sans-Serif" font-size="10.00">::Start</text>
</a>
</g>
</g>
<!-- Node6&#45;&gt;Node7 -->
<g id="edge6_Node000006_Node000007" class="edge">
<title>Node6&#45;&gt;Node7</title>
<g id="a_edge6_Node000006_Node000007"><a xlink:title=" ">
<path fill="none" stroke="#63b8ff" d="M278.87,-113C270.53,-113 262.18,-113 254.19,-113"/>
<polygon fill="#63b8ff" stroke="#63b8ff" points="278.78,-116.5 288.78,-113 278.78,-109.5 278.78,-116.5"/>
</a>
</g>
</g>
<!-- Node8 -->
<g id="Node000008" class="node">
<title>Node8</title>
<g id="a_Node000008"><a xlink:href="../../da/d0f/classcarla_1_1traffic__manager_1_1TrafficManagerLocal.html#a1639db97ccf27a801b92fadabd611755" target="_top" xlink:title="To reset the traffic manager.">
<polygon fill="white" stroke="#666666" points="109,-166 0,-166 0,-122 109,-122 109,-166"/>
<text text-anchor="start" x="8" y="-152.5" font-family="Helvetica,sans-Serif" font-size="10.00">carla::traffic_manager</text>
<text text-anchor="start" x="8" y="-140.5" font-family="Helvetica,sans-Serif" font-size="10.00">::TrafficManagerLocal</text>
<text text-anchor="middle" x="54.5" y="-128.5" font-family="Helvetica,sans-Serif" font-size="10.00">::Reset</text>
</a>
</g>
</g>
<!-- Node7&#45;&gt;Node8 -->
<g id="edge7_Node000007_Node000008" class="edge">
<title>Node7&#45;&gt;Node8</title>
<g id="a_edge7_Node000007_Node000008"><a xlink:title=" ">
<path fill="none" stroke="#63b8ff" d="M134.12,-126.96C125.88,-128.74 117.51,-130.56 109.46,-132.3"/>
<polygon fill="#63b8ff" stroke="#63b8ff" points="134.81,-130.17 143.85,-124.63 133.33,-123.33 134.81,-130.17"/>
</a>
</g>
</g>
<!-- Node9 -->
<g id="Node000009" class="node">
<title>Node9</title>
<g id="a_Node000009"><a xlink:href="../../da/d0f/classcarla_1_1traffic__manager_1_1TrafficManagerLocal.html#a75976d36f4213ab24e79e3ea2dcd280a" target="_top" xlink:title="Private constructor for singleton lifecycle management.">
<polygon fill="white" stroke="#666666" points="109,-104 0,-104 0,-60 109,-60 109,-104"/>
<text text-anchor="start" x="8" y="-90.5" font-family="Helvetica,sans-Serif" font-size="10.00">carla::traffic_manager</text>
<text text-anchor="start" x="8" y="-78.5" font-family="Helvetica,sans-Serif" font-size="10.00">::TrafficManagerLocal</text>
<text text-anchor="middle" x="54.5" y="-66.5" font-family="Helvetica,sans-Serif" font-size="10.00">::TrafficManagerLocal</text>
</a>
</g>
</g>
<!-- Node7&#45;&gt;Node9 -->
<g id="edge8_Node000007_Node000009" class="edge">
<title>Node7&#45;&gt;Node9</title>
<g id="a_edge8_Node000007_Node000009"><a xlink:title=" ">
<path fill="none" stroke="#63b8ff" d="M134.12,-99.04C125.88,-97.26 117.51,-95.44 109.46,-93.7"/>
<polygon fill="#63b8ff" stroke="#63b8ff" points="133.33,-102.67 143.85,-101.37 134.81,-95.83 133.33,-102.67"/>
</a>
</g>
</g>
<!-- Node11 -->
<g id="Node000011" class="node">
<title>Node11</title>
<g id="a_Node000011"><a xlink:href="../../d2/d75/classcarla_1_1traffic__manager_1_1ALSM.html#ab2987ec9734853767e94428fd78421e7" target="_top" xlink:title=" ">
<polygon fill="white" stroke="#666666" points="791.75,-157 602.5,-157 602.5,-125 791.75,-125 791.75,-157"/>
<text text-anchor="start" x="610.5" y="-143.5" font-family="Helvetica,sans-Serif" font-size="10.00">carla::traffic_manager</text>
<text text-anchor="middle" x="697.12" y="-131.5" font-family="Helvetica,sans-Serif" font-size="10.00">::ALSM::UpdateUnregisteredActorsData</text>
</a>
</g>
</g>
<!-- Node10&#45;&gt;Node11 -->
<g id="edge10_Node000010_Node000011" class="edge">
<title>Node10&#45;&gt;Node11</title>
<g id="a_edge10_Node000010_Node000011"><a xlink:title=" ">
<path fill="none" stroke="#63b8ff" d="M816.37,-151.69C808.28,-150.96 800.09,-150.22 791.99,-149.49"/>
<polygon fill="#63b8ff" stroke="#63b8ff" points="816.04,-155.27 826.31,-152.68 816.67,-148.29 816.04,-155.27"/>
</a>
</g>
</g>
<!-- Node11&#45;&gt;Node5 -->
<g id="edge11_Node000011_Node000005" class="edge">
<title>Node11&#45;&gt;Node5</title>
<g id="a_edge11_Node000011_Node000005"><a xlink:title=" ">
<path fill="none" stroke="#63b8ff" d="M591.39,-141C582.95,-141 574.66,-141 566.81,-141"/>
<polygon fill="#63b8ff" stroke="#63b8ff" points="591.15,-144.5 601.15,-141 591.15,-137.5 591.15,-144.5"/>
</a>
</g>
</g>
<!-- Node13 -->
<g id="Node000013" class="node">
<title>Node13</title>
<g id="a_Node000013"><a xlink:href="../../d6/da2/classcarla_1_1traffic__manager_1_1LocalizationStage.html#a4cce09a8116d4faf0f718fb24d1c3191" target="_top" xlink:title=" ">
<polygon fill="white" stroke="#666666" points="985.5,-120 833,-120 833,-88 985.5,-88 985.5,-120"/>
<text text-anchor="start" x="841" y="-106.5" font-family="Helvetica,sans-Serif" font-size="10.00">carla::traffic_manager</text>
<text text-anchor="middle" x="909.25" y="-94.5" font-family="Helvetica,sans-Serif" font-size="10.00">::LocalizationStage::ImportPath</text>
</a>
</g>
</g>
<!-- Node12&#45;&gt;Node13 -->
<g id="edge13_Node000012_Node000013" class="edge">
<title>Node12&#45;&gt;Node13</title>
<g id="a_edge13_Node000012_Node000013"><a xlink:title=" ">
<path fill="none" stroke="#63b8ff" d="M1025.46,-89.9C1012.58,-91.48 998.95,-93.14 985.74,-94.76"/>
<polygon fill="#63b8ff" stroke="#63b8ff" points="1025.57,-93.29 1035.07,-88.6 1024.72,-86.34 1025.57,-93.29"/>
</a>
</g>
</g>
<!-- Node14 -->
<g id="Node000014" class="node">
<title>Node14</title>
<g id="a_Node000014"><a xlink:href="../../d6/da2/classcarla_1_1traffic__manager_1_1LocalizationStage.html#acf066b922ba5c21c6b6ee23d35731d91" target="_top" xlink:title=" ">
<polygon fill="white" stroke="#666666" points="765.12,-101 629.12,-101 629.12,-69 765.12,-69 765.12,-101"/>
<text text-anchor="start" x="637.12" y="-87.5" font-family="Helvetica,sans-Serif" font-size="10.00">carla::traffic_manager</text>
<text text-anchor="middle" x="697.12" y="-75.5" font-family="Helvetica,sans-Serif" font-size="10.00">::LocalizationStage::Update</text>
</a>
</g>
</g>
<!-- Node12&#45;&gt;Node14 -->
<g id="edge18_Node000012_Node000014" class="edge">
<title>Node12&#45;&gt;Node14</title>
<g id="a_edge18_Node000012_Node000014"><a xlink:title=" ">
<path fill="none" stroke="#63b8ff" d="M1025.3,-79.76C1013.79,-79.44 1001.92,-79.17 990.75,-79 918.31,-77.91 900.18,-77.32 827.75,-79 807.48,-79.47 785.44,-80.35 765.38,-81.29"/>
<polygon fill="#63b8ff" stroke="#63b8ff" points="1025.08,-83.29 1035.18,-80.08 1025.28,-76.29 1025.08,-83.29"/>
</a>
</g>
</g>
<!-- Node15 -->
<g id="Node000015" class="node">
<title>Node15</title>
<g id="a_Node000015"><a xlink:href="../../d6/da2/classcarla_1_1traffic__manager_1_1LocalizationStage.html#a22a54c0476fface2f2838a56a75fbc90" target="_top" xlink:title=" ">
<polygon fill="white" stroke="#666666" points="988.12,-32 830.38,-32 830.38,0 988.12,0 988.12,-32"/>
<text text-anchor="start" x="838.38" y="-18.5" font-family="Helvetica,sans-Serif" font-size="10.00">carla::traffic_manager</text>
<text text-anchor="middle" x="909.25" y="-6.5" font-family="Helvetica,sans-Serif" font-size="10.00">::LocalizationStage::ImportRoute</text>
</a>
</g>
</g>
<!-- Node12&#45;&gt;Node15 -->
<g id="edge16_Node000012_Node000015" class="edge">
<title>Node12&#45;&gt;Node15</title>
<g id="a_edge16_Node000012_Node000015"><a xlink:title=" ">
<path fill="none" stroke="#63b8ff" d="M1034.79,-61.73C1009.15,-52.31 979.06,-41.27 954.88,-32.39"/>
<polygon fill="#63b8ff" stroke="#63b8ff" points="1033.51,-65.35 1044.11,-65.52 1035.92,-58.78 1033.51,-65.35"/>
</a>
</g>
</g>
<!-- Node13&#45;&gt;Node14 -->
<g id="edge14_Node000013_Node000014" class="edge">
<title>Node13&#45;&gt;Node14</title>
<g id="a_edge14_Node000013_Node000014"><a xlink:title=" ">
<path fill="none" stroke="#63b8ff" d="M821.99,-96.2C803.1,-94.49 783.37,-92.71 765.35,-91.08"/>
<polygon fill="#63b8ff" stroke="#63b8ff" points="821.41,-99.75 831.69,-97.17 822.04,-92.78 821.41,-99.75"/>
</a>
</g>
</g>
<!-- Node14&#45;&gt;Node6 -->
<g id="edge15_Node000014_Node000006" class="edge">
<title>Node14&#45;&gt;Node6</title>
<g id="a_edge15_Node000014_Node000006"><a xlink:title=" ">
<path fill="none" stroke="#63b8ff" d="M617.83,-91.46C558.4,-96.36 477.66,-103.02 421.77,-107.64"/>
<polygon fill="#63b8ff" stroke="#63b8ff" points="617.99,-94.88 627.67,-90.57 617.42,-87.9 617.99,-94.88"/>
</a>
</g>
</g>
<!-- Node15&#45;&gt;Node14 -->
<g id="edge17_Node000015_Node000014" class="edge">
<title>Node15&#45;&gt;Node14</title>
<g id="a_edge17_Node000015_Node000014"><a xlink:title=" ">
<path fill="none" stroke="#63b8ff" d="M847.76,-35.86C816.2,-46.23 778.05,-58.76 748.17,-68.57"/>
<polygon fill="#63b8ff" stroke="#63b8ff" points="848.78,-38.88 857.19,-32.44 846.59,-32.23 848.78,-38.88"/>
</a>
</g>
</g>
</g>
</svg>

<g id="navigator" transform="translate(0 0)" fill="#404254">
  <rect fill="#f2f5e9" fill-opacity="0.5" stroke="#606060" stroke-width=".5" x="0" y="0" width="60" height="60"/>
  <use id="zoomplus" xlink:href="#zoomPlus" x="17" y="9" onmousedown="handleZoom(evt,'in')"/>
  <use id="zoomminus" xlink:href="#zoomMin" x="42" y="9" onmousedown="handleZoom(evt,'out')"/>
  <use id="reset" xlink:href="#resetDef" x="30" y="36" onmousedown="handleReset()"/>
   <use id="arrowup" xlink:href="#arrowUp" x="0" y="0" onmousedown="handlePan(0,-1)"/>
  <use id="arrowright" xlink:href="#arrowRight" x="0" y="0" onmousedown="handlePan(1,0)"/>
  <use id="arrowdown" xlink:href="#arrowDown" x="0" y="0" onmousedown="handlePan(0,1)"/>
  <use id="arrowleft" xlink:href="#arrowLeft" x="0" y="0" onmousedown="handlePan(-1,0)"/>
</g>
<svg viewBox="0 0 15 15" width="100%" height="30px" preserveAspectRatio="xMaxYMin meet">
 <g id="arrow_out" transform="scale(0.3 0.3)">
  <a xlink:href="classcarla_1_1traffic__manager_1_1TrackTraffic_aaa605ab90a2903ac80fae61f3eb5c159_icgraph_org.svg" target="_base">
   <rect id="button" ry="5" rx="5" y="6" x="6" height="38" width="38"
        fill="#f2f5e9" fill-opacity="0.5" stroke="#606060" stroke-width="1.0"/>
   <path id="arrow"
     d="M 11.500037,31.436501 C 11.940474,20.09759 22.043105,11.32322 32.158766,21.979434 L 37.068811,17.246167 C 37.068811,17.246167 37.088388,32 37.088388,32 L 22.160133,31.978069 C 22.160133,31.978069 26.997745,27.140456 26.997745,27.140456 C 18.528582,18.264221 13.291696,25.230495 11.500037,31.436501 z"
     style="fill:#404040;"/>
  </a>
 </g>
</svg>

<style type='text/css'>
<![CDATA[
[data-mouse-over-selected='false'] { opacity: 0.7; }
[data-mouse-over-selected='true']  { opacity: 1.0; }
]]>
</style>
<script type="application/ecmascript"><![CDATA[
document.addEventListener('DOMContentLoaded', (event) => {
  highlightEdges();
  highlightAdjacentNodes();
});
]]></script>
</svg>
