<?xml version="1.0" encoding="UTF-8" standalone="no"?>
<!DOCTYPE svg PUBLIC "-//W3C//DTD SVG 1.1//EN"
 "http://www.w3.org/Graphics/SVG/1.1/DTD/svg11.dtd">
<!-- Generated by graphviz version 8.1.0 (20230707.0739)
 -->
<!-- Title: carla::traffic_manager::TrackTraffic::UpdatePassingVehicle Pages: 1 -->
<svg width="1205pt" height="240pt"
 viewBox="0.00 0.00 1205.25 240.00" xmlns="http://www.w3.org/2000/svg" xmlns:xlink="http://www.w3.org/1999/xlink">
<g id="graph0" class="graph" transform="scale(1 1) rotate(0) translate(4 236)">
<title>carla::traffic_manager::TrackTraffic::UpdatePassingVehicle</title>
<!-- Node1 -->
<g id="Node000001" class="node">
<title>Node1</title>
<g id="a_Node000001"><a xlink:title="Methods to update, remove and retrieve vehicles passing through a waypoint.">
<polygon fill="#999999" stroke="#666666" points="1197.25,-88 1053.75,-88 1053.75,-44 1197.25,-44 1197.25,-88"/>
<text text-anchor="start" x="1061.75" y="-74.5" font-family="Helvetica,sans-Serif" font-size="10.00">carla::traffic_manager</text>
<text text-anchor="start" x="1061.75" y="-62.5" font-family="Helvetica,sans-Serif" font-size="10.00">::TrackTraffic::UpdatePassing</text>
<text text-anchor="middle" x="1125.5" y="-50.5" font-family="Helvetica,sans-Serif" font-size="10.00">Vehicle</text>
</a>
</g>
</g>
<!-- Node2 -->
<g id="Node000002" class="node">
<title>Node2</title>
<g id="a_Node000002"><a xlink:href="../../d0/db7/namespacecarla_1_1traffic__manager.html#a7c957d0e5acd15d14a29cf41959e0d37" target="_top" xlink:title=" ">
<polygon fill="white" stroke="#666666" points="990.75,-132 881.75,-132 881.75,-100 990.75,-100 990.75,-132"/>
<text text-anchor="start" x="889.75" y="-118.5" font-family="Helvetica,sans-Serif" font-size="10.00">carla::traffic_manager</text>
<text text-anchor="middle" x="936.25" y="-106.5" font-family="Helvetica,sans-Serif" font-size="10.00">::PushWaypoint</text>
</a>
</g>
</g>
<!-- Node1&#45;&gt;Node2 -->
<g id="edge1_Node000001_Node000002" class="edge">
<title>Node1&#45;&gt;Node2</title>
<g id="a_edge1_Node000001_Node000002"><a xlink:title=" ">
<path fill="none" stroke="#63b8ff" d="M1043.15,-87.72C1025.52,-92.43 1007.3,-97.29 991.05,-101.63"/>
<polygon fill="#63b8ff" stroke="#63b8ff" points="1043.68,-90.94 1052.44,-84.97 1041.88,-84.17 1043.68,-90.94"/>
</a>
</g>
</g>
<!-- Node11 -->
<g id="Node000011" class="node">
<title>Node11</title>
<g id="a_Node000011"><a xlink:href="../../d2/d36/classcarla_1_1traffic__manager_1_1TrackTraffic.html#aa77bd9457c2a55f1c566a68d3a12604b" target="_top" xlink:title=" ">
<polygon fill="white" stroke="#666666" points="1017.75,-60 854.75,-60 854.75,-16 1017.75,-16 1017.75,-60"/>
<text text-anchor="start" x="862.75" y="-46.5" font-family="Helvetica,sans-Serif" font-size="10.00">carla::traffic_manager</text>
<text text-anchor="start" x="862.75" y="-34.5" font-family="Helvetica,sans-Serif" font-size="10.00">::TrackTraffic::UpdateUnregistered</text>
<text text-anchor="middle" x="936.25" y="-22.5" font-family="Helvetica,sans-Serif" font-size="10.00">GridPosition</text>
</a>
</g>
</g>
<!-- Node1&#45;&gt;Node11 -->
<g id="edge13_Node000001_Node000011" class="edge">
<title>Node1&#45;&gt;Node11</title>
<g id="a_edge13_Node000001_Node000011"><a xlink:title=" ">
<path fill="none" stroke="#63b8ff" d="M1042.74,-53.77C1034.52,-52.55 1026.18,-51.3 1017.98,-50.07"/>
<polygon fill="#63b8ff" stroke="#63b8ff" points="1042.03,-57.36 1052.44,-55.37 1043.07,-50.43 1042.03,-57.36"/>
</a>
</g>
</g>
<!-- Node3 -->
<g id="Node000003" class="node">
<title>Node3</title>
<g id="a_Node000003"><a xlink:href="../../d6/da2/classcarla_1_1traffic__manager_1_1LocalizationStage.html#a54529199aa49e3e0c5476ba0da376850" target="_top" xlink:title=" ">
<polygon fill="white" stroke="#666666" points="800.75,-232 647.5,-232 647.5,-188 800.75,-188 800.75,-232"/>
<text text-anchor="start" x="655.5" y="-218.5" font-family="Helvetica,sans-Serif" font-size="10.00">carla::traffic_manager</text>
<text text-anchor="start" x="655.5" y="-206.5" font-family="Helvetica,sans-Serif" font-size="10.00">::LocalizationStage::ExtendAnd</text>
<text text-anchor="middle" x="724.12" y="-194.5" font-family="Helvetica,sans-Serif" font-size="10.00">FindSafeSpace</text>
</a>
</g>
</g>
<!-- Node2&#45;&gt;Node3 -->
<g id="edge2_Node000002_Node000003" class="edge">
<title>Node2&#45;&gt;Node3</title>
<g id="a_edge2_Node000002_Node000003"><a xlink:title=" ">
<path fill="none" stroke="#63b8ff" d="M894.73,-137.36C872.53,-148.75 844.4,-162.72 818.75,-174 808.23,-178.63 796.91,-183.26 785.9,-187.59"/>
<polygon fill="#63b8ff" stroke="#63b8ff" points="896.2,-140.02 903.48,-132.32 892.99,-133.8 896.2,-140.02"/>
</a>
</g>
</g>
<!-- Node4 -->
<g id="Node000004" class="node">
<title>Node4</title>
<g id="a_Node000004"><a xlink:href="../../d6/da2/classcarla_1_1traffic__manager_1_1LocalizationStage.html#acf066b922ba5c21c6b6ee23d35731d91" target="_top" xlink:title=" ">
<polygon fill="white" stroke="#666666" points="593.5,-132 457.5,-132 457.5,-100 593.5,-100 593.5,-132"/>
<text text-anchor="start" x="465.5" y="-118.5" font-family="Helvetica,sans-Serif" font-size="10.00">carla::traffic_manager</text>
<text text-anchor="middle" x="525.5" y="-106.5" font-family="Helvetica,sans-Serif" font-size="10.00">::LocalizationStage::Update</text>
</a>
</g>
</g>
<!-- Node2&#45;&gt;Node4 -->
<g id="edge12_Node000002_Node000004" class="edge">
<title>Node2&#45;&gt;Node4</title>
<g id="a_edge12_Node000002_Node000004"><a xlink:title=" ">
<path fill="none" stroke="#63b8ff" d="M871.08,-132.31C854.17,-135.91 835.87,-139.18 818.75,-141 735.11,-149.87 713.02,-150.99 629.5,-141 614.52,-139.21 598.57,-136 583.8,-132.46"/>
<polygon fill="#63b8ff" stroke="#63b8ff" points="871.39,-135.61 880.4,-130.04 869.88,-128.77 871.39,-135.61"/>
</a>
</g>
</g>
<!-- Node9 -->
<g id="Node000009" class="node">
<title>Node9</title>
<g id="a_Node000009"><a xlink:href="../../d6/da2/classcarla_1_1traffic__manager_1_1LocalizationStage.html#a4cce09a8116d4faf0f718fb24d1c3191" target="_top" xlink:title=" ">
<polygon fill="white" stroke="#666666" points="800.38,-132 647.88,-132 647.88,-100 800.38,-100 800.38,-132"/>
<text text-anchor="start" x="655.88" y="-118.5" font-family="Helvetica,sans-Serif" font-size="10.00">carla::traffic_manager</text>
<text text-anchor="middle" x="724.12" y="-106.5" font-family="Helvetica,sans-Serif" font-size="10.00">::LocalizationStage::ImportPath</text>
</a>
</g>
</g>
<!-- Node2&#45;&gt;Node9 -->
<g id="edge8_Node000002_Node000009" class="edge">
<title>Node2&#45;&gt;Node9</title>
<g id="a_edge8_Node000002_Node000009"><a xlink:title=" ">
<path fill="none" stroke="#63b8ff" d="M870.47,-116C848.38,-116 823.48,-116 800.61,-116"/>
<polygon fill="#63b8ff" stroke="#63b8ff" points="870.41,-119.5 880.41,-116 870.41,-112.5 870.41,-119.5"/>
</a>
</g>
</g>
<!-- Node10 -->
<g id="Node000010" class="node">
<title>Node10</title>
<g id="a_Node000010"><a xlink:href="../../d6/da2/classcarla_1_1traffic__manager_1_1LocalizationStage.html#a22a54c0476fface2f2838a56a75fbc90" target="_top" xlink:title=" ">
<polygon fill="white" stroke="#666666" points="803,-82 645.25,-82 645.25,-50 803,-50 803,-82"/>
<text text-anchor="start" x="653.25" y="-68.5" font-family="Helvetica,sans-Serif" font-size="10.00">carla::traffic_manager</text>
<text text-anchor="middle" x="724.12" y="-56.5" font-family="Helvetica,sans-Serif" font-size="10.00">::LocalizationStage::ImportRoute</text>
</a>
</g>
</g>
<!-- Node2&#45;&gt;Node10 -->
<g id="edge10_Node000002_Node000010" class="edge">
<title>Node2&#45;&gt;Node10</title>
<g id="a_edge10_Node000002_Node000010"><a xlink:title=" ">
<path fill="none" stroke="#63b8ff" d="M870.89,-100.69C846.65,-94.92 818.98,-88.33 794.32,-82.46"/>
<polygon fill="#63b8ff" stroke="#63b8ff" points="869.87,-104.28 880.41,-103.19 871.49,-97.47 869.87,-104.28"/>
</a>
</g>
</g>
<!-- Node3&#45;&gt;Node4 -->
<g id="edge3_Node000003_Node000004" class="edge">
<title>Node3&#45;&gt;Node4</title>
<g id="a_edge3_Node000003_Node000004"><a xlink:title=" ">
<path fill="none" stroke="#63b8ff" d="M650.94,-183.47C643.63,-180.42 636.38,-177.24 629.5,-174 602.76,-161.41 573.51,-144.64 553.04,-132.36"/>
<polygon fill="#63b8ff" stroke="#63b8ff" points="649.31,-186.99 659.9,-187.54 651.96,-180.51 649.31,-186.99"/>
</a>
</g>
</g>
<!-- Node5 -->
<g id="Node000005" class="node">
<title>Node5</title>
<g id="a_Node000005"><a xlink:href="../../da/d0f/classcarla_1_1traffic__manager_1_1TrafficManagerLocal.html#a6d67cce3d0e5a48056645270364fe637" target="_top" xlink:title="Initiates thread to run the TrafficManager sequentially.">
<polygon fill="white" stroke="#666666" points="421.5,-82 290,-82 290,-50 421.5,-50 421.5,-82"/>
<text text-anchor="start" x="298" y="-68.5" font-family="Helvetica,sans-Serif" font-size="10.00">carla::traffic_manager</text>
<text text-anchor="middle" x="355.75" y="-56.5" font-family="Helvetica,sans-Serif" font-size="10.00">::TrafficManagerLocal::Run</text>
</a>
</g>
</g>
<!-- Node4&#45;&gt;Node5 -->
<g id="edge4_Node000004_Node000005" class="edge">
<title>Node4&#45;&gt;Node5</title>
<g id="a_edge4_Node000004_Node000005"><a xlink:title=" ">
<path fill="none" stroke="#63b8ff" d="M459.45,-96.61C443.81,-91.95 427.24,-87.01 412.09,-82.49"/>
<polygon fill="#63b8ff" stroke="#63b8ff" points="457.99,-100.13 468.57,-99.63 459.99,-93.42 457.99,-100.13"/>
</a>
</g>
</g>
<!-- Node6 -->
<g id="Node000006" class="node">
<title>Node6</title>
<g id="a_Node000006"><a xlink:href="../../da/d0f/classcarla_1_1traffic__manager_1_1TrafficManagerLocal.html#a1ffbdb0bed64f385437d2820a90286d0" target="_top" xlink:title="To start the TrafficManager.">
<polygon fill="white" stroke="#666666" points="254,-88 145,-88 145,-44 254,-44 254,-88"/>
<text text-anchor="start" x="153" y="-74.5" font-family="Helvetica,sans-Serif" font-size="10.00">carla::traffic_manager</text>
<text text-anchor="start" x="153" y="-62.5" font-family="Helvetica,sans-Serif" font-size="10.00">::TrafficManagerLocal</text>
<text text-anchor="middle" x="199.5" y="-50.5" font-family="Helvetica,sans-Serif" font-size="10.00">::Start</text>
</a>
</g>
</g>
<!-- Node5&#45;&gt;Node6 -->
<g id="edge5_Node000005_Node000006" class="edge">
<title>Node5&#45;&gt;Node6</title>
<g id="a_edge5_Node000005_Node000006"><a xlink:title=" ">
<path fill="none" stroke="#63b8ff" d="M278.87,-66C270.53,-66 262.18,-66 254.19,-66"/>
<polygon fill="#63b8ff" stroke="#63b8ff" points="278.78,-69.5 288.78,-66 278.78,-62.5 278.78,-69.5"/>
</a>
</g>
</g>
<!-- Node7 -->
<g id="Node000007" class="node">
<title>Node7</title>
<g id="a_Node000007"><a xlink:href="../../da/d0f/classcarla_1_1traffic__manager_1_1TrafficManagerLocal.html#a1639db97ccf27a801b92fadabd611755" target="_top" xlink:title="To reset the traffic manager.">
<polygon fill="white" stroke="#666666" points="109,-119 0,-119 0,-75 109,-75 109,-119"/>
<text text-anchor="start" x="8" y="-105.5" font-family="Helvetica,sans-Serif" font-size="10.00">carla::traffic_manager</text>
<text text-anchor="start" x="8" y="-93.5" font-family="Helvetica,sans-Serif" font-size="10.00">::TrafficManagerLocal</text>
<text text-anchor="middle" x="54.5" y="-81.5" font-family="Helvetica,sans-Serif" font-size="10.00">::Reset</text>
</a>
</g>
</g>
<!-- Node6&#45;&gt;Node7 -->
<g id="edge6_Node000006_Node000007" class="edge">
<title>Node6&#45;&gt;Node7</title>
<g id="a_edge6_Node000006_Node000007"><a xlink:title=" ">
<path fill="none" stroke="#63b8ff" d="M134.12,-79.96C125.88,-81.74 117.51,-83.56 109.46,-85.3"/>
<polygon fill="#63b8ff" stroke="#63b8ff" points="134.81,-83.17 143.85,-77.63 133.33,-76.33 134.81,-83.17"/>
</a>
</g>
</g>
<!-- Node8 -->
<g id="Node000008" class="node">
<title>Node8</title>
<g id="a_Node000008"><a xlink:href="../../da/d0f/classcarla_1_1traffic__manager_1_1TrafficManagerLocal.html#a75976d36f4213ab24e79e3ea2dcd280a" target="_top" xlink:title="Private constructor for singleton lifecycle management.">
<polygon fill="white" stroke="#666666" points="109,-57 0,-57 0,-13 109,-13 109,-57"/>
<text text-anchor="start" x="8" y="-43.5" font-family="Helvetica,sans-Serif" font-size="10.00">carla::traffic_manager</text>
<text text-anchor="start" x="8" y="-31.5" font-family="Helvetica,sans-Serif" font-size="10.00">::TrafficManagerLocal</text>
<text text-anchor="middle" x="54.5" y="-19.5" font-family="Helvetica,sans-Serif" font-size="10.00">::TrafficManagerLocal</text>
</a>
</g>
</g>
<!-- Node6&#45;&gt;Node8 -->
<g id="edge7_Node000006_Node000008" class="edge">
<title>Node6&#45;&gt;Node8</title>
<g id="a_edge7_Node000006_Node000008"><a xlink:title=" ">
<path fill="none" stroke="#63b8ff" d="M134.12,-52.04C125.88,-50.26 117.51,-48.44 109.46,-46.7"/>
<polygon fill="#63b8ff" stroke="#63b8ff" points="133.33,-55.67 143.85,-54.37 134.81,-48.83 133.33,-55.67"/>
</a>
</g>
</g>
<!-- Node9&#45;&gt;Node4 -->
<g id="edge9_Node000009_Node000004" class="edge">
<title>Node9&#45;&gt;Node4</title>
<g id="a_edge9_Node000009_Node000004"><a xlink:title=" ">
<path fill="none" stroke="#63b8ff" d="M636.53,-116C622.23,-116 607.59,-116 593.85,-116"/>
<polygon fill="#63b8ff" stroke="#63b8ff" points="636.39,-119.5 646.39,-116 636.39,-112.5 636.39,-119.5"/>
</a>
</g>
</g>
<!-- Node10&#45;&gt;Node4 -->
<g id="edge11_Node000010_Node000004" class="edge">
<title>Node10&#45;&gt;Node4</title>
<g id="a_edge11_Node000010_Node000004"><a xlink:title=" ">
<path fill="none" stroke="#63b8ff" d="M647.92,-85.12C629.22,-89.88 609.34,-94.93 591.19,-99.55"/>
<polygon fill="#63b8ff" stroke="#63b8ff" points="648.64,-88.3 657.47,-82.44 646.92,-81.51 648.64,-88.3"/>
</a>
</g>
</g>
<!-- Node12 -->
<g id="Node000012" class="node">
<title>Node12</title>
<g id="a_Node000012"><a xlink:href="../../d2/d75/classcarla_1_1traffic__manager_1_1ALSM.html#ab2987ec9734853767e94428fd78421e7" target="_top" xlink:title=" ">
<polygon fill="white" stroke="#666666" points="818.75,-32 629.5,-32 629.5,0 818.75,0 818.75,-32"/>
<text text-anchor="start" x="637.5" y="-18.5" font-family="Helvetica,sans-Serif" font-size="10.00">carla::traffic_manager</text>
<text text-anchor="middle" x="724.12" y="-6.5" font-family="Helvetica,sans-Serif" font-size="10.00">::ALSM::UpdateUnregisteredActorsData</text>
</a>
</g>
</g>
<!-- Node11&#45;&gt;Node12 -->
<g id="edge14_Node000011_Node000012" class="edge">
<title>Node11&#45;&gt;Node12</title>
<g id="a_edge14_Node000011_Node000012"><a xlink:title=" ">
<path fill="none" stroke="#63b8ff" d="M843.65,-28.41C835.47,-27.55 827.19,-26.69 818.99,-25.83"/>
<polygon fill="#63b8ff" stroke="#63b8ff" points="843,-31.97 853.31,-29.53 843.73,-25 843,-31.97"/>
</a>
</g>
</g>
<!-- Node13 -->
<g id="Node000013" class="node">
<title>Node13</title>
<g id="a_Node000013"><a xlink:href="../../d2/d75/classcarla_1_1traffic__manager_1_1ALSM.html#a0a506446f6810014b6da12d0dcba0748" target="_top" xlink:title=" ">
<polygon fill="white" stroke="#666666" points="580,-57 471,-57 471,-25 580,-25 580,-57"/>
<text text-anchor="start" x="479" y="-43.5" font-family="Helvetica,sans-Serif" font-size="10.00">carla::traffic_manager</text>
<text text-anchor="middle" x="525.5" y="-31.5" font-family="Helvetica,sans-Serif" font-size="10.00">::ALSM::Update</text>
</a>
</g>
</g>
<!-- Node12&#45;&gt;Node13 -->
<g id="edge15_Node000012_Node000013" class="edge">
<title>Node12&#45;&gt;Node13</title>
<g id="a_edge15_Node000012_Node000013"><a xlink:title=" ">
<path fill="none" stroke="#63b8ff" d="M618.51,-29.3C605.27,-30.98 592.2,-32.65 580.23,-34.17"/>
<polygon fill="#63b8ff" stroke="#63b8ff" points="618.65,-32.68 628.13,-27.95 617.77,-25.74 618.65,-32.68"/>
</a>
</g>
</g>
<!-- Node13&#45;&gt;Node5 -->
<g id="edge16_Node000013_Node000005" class="edge">
<title>Node13&#45;&gt;Node5</title>
<g id="a_edge16_Node000013_Node000005"><a xlink:title=" ">
<path fill="none" stroke="#63b8ff" d="M460.12,-50.59C447.57,-52.47 434.4,-54.43 421.82,-56.3"/>
<polygon fill="#63b8ff" stroke="#63b8ff" points="460.59,-53.91 469.96,-48.98 459.55,-46.99 460.59,-53.91"/>
</a>
</g>
</g>
</g>
</svg>
