<?xml version="1.0" encoding="UTF-8" standalone="no"?>
<!DOCTYPE svg PUBLIC "-//W3C//DTD SVG 1.1//EN"
 "http://www.w3.org/Graphics/SVG/1.1/DTD/svg11.dtd">
<!-- Generated by graphviz version 8.1.0 (20230707.0739)
 -->
<!-- Title: carla::sensor::data::ObstacleDetectionEvent Pages: 1 -->
<svg width="1158pt" height="375pt"
 viewBox="0.00 0.00 1158.00 375.00" xmlns="http://www.w3.org/2000/svg" xmlns:xlink="http://www.w3.org/1999/xlink">
<g id="graph0" class="graph" transform="scale(1 1) rotate(0) translate(4 371)">
<title>carla::sensor::data::ObstacleDetectionEvent</title>
<!-- Node1 -->
<g id="Node000001" class="node">
<title>Node1</title>
<g id="a_Node000001"><a xlink:title="A registered detection.">
<polygon fill="#999999" stroke="#666666" points="1150,-102 1023.75,-102 1023.75,-70 1150,-70 1150,-102"/>
<text text-anchor="start" x="1031.75" y="-88.5" font-family="Helvetica,sans-Serif" font-size="10.00">carla::sensor::data</text>
<text text-anchor="middle" x="1086.88" y="-76.5" font-family="Helvetica,sans-Serif" font-size="10.00">::ObstacleDetectionEvent</text>
</a>
</g>
</g>
<!-- Node2 -->
<g id="Node000002" class="node">
<title>Node2</title>
<g id="a_Node000002"><a xlink:href="../../df/d8c/classcarla_1_1sensor_1_1SensorData.html" target="_top" xlink:title="Base class for all the objects containing data generated by a sensor.">
<polygon fill="white" stroke="#666666" points="930.75,-241 801.5,-241 801.5,-221 930.75,-221 930.75,-241"/>
<text text-anchor="middle" x="866.12" y="-227.5" font-family="Helvetica,sans-Serif" font-size="10.00">carla::sensor::SensorData</text>
</a>
</g>
</g>
<!-- Node2&#45;&gt;Node1 -->
<g id="edge1_Node000001_Node000002" class="edge">
<title>Node2&#45;&gt;Node1</title>
<g id="a_edge1_Node000001_Node000002"><a xlink:title=" ">
<path fill="none" stroke="#63b8ff" d="M891.88,-214.59C934,-186.67 1019.14,-130.24 1061.21,-102.35"/>
<polygon fill="#63b8ff" stroke="#63b8ff" points="890.26,-212.13 883.86,-220.57 894.13,-217.96 890.26,-212.13"/>
</a>
</g>
</g>
<!-- Node3 -->
<g id="Node000003" class="node">
<title>Node3</title>
<g id="a_Node000003"><a xlink:href="../../da/d05/classEnableSharedFromThis.html" target="_top" xlink:title=" ">
<polygon fill="white" stroke="#666666" points="671.38,-291 554.12,-291 554.12,-259 671.38,-259 671.38,-291"/>
<text text-anchor="start" x="562.12" y="-277.5" font-family="Helvetica,sans-Serif" font-size="10.00">EnableSharedFromThis</text>
<text text-anchor="middle" x="612.75" y="-265.5" font-family="Helvetica,sans-Serif" font-size="10.00">&lt; SensorData &gt;</text>
</a>
</g>
</g>
<!-- Node3&#45;&gt;Node2 -->
<g id="edge2_Node000002_Node000003" class="edge">
<title>Node3&#45;&gt;Node2</title>
<g id="a_edge2_Node000002_Node000003"><a xlink:title=" ">
<path fill="none" stroke="#63b8ff" d="M682.33,-263C720.78,-256.27 768.3,-247.95 805.25,-241.48"/>
<polygon fill="#63b8ff" stroke="#63b8ff" points="681.98,-259.68 672.74,-264.85 683.19,-266.57 681.98,-259.68"/>
</a>
</g>
</g>
<!-- Node4 -->
<g id="Node000004" class="node">
<title>Node4</title>
<g id="a_Node000004"><a xlink:href="../../d4/d8b/classcarla_1_1NonCopyable.html" target="_top" xlink:title="Inherit (privately) to suppress copy/move construction and assignment.">
<polygon fill="white" stroke="#666666" points="663.12,-241 562.38,-241 562.38,-221 663.12,-221 663.12,-241"/>
<text text-anchor="middle" x="612.75" y="-227.5" font-family="Helvetica,sans-Serif" font-size="10.00">carla::NonCopyable</text>
</a>
</g>
</g>
<!-- Node4&#45;&gt;Node2 -->
<g id="edge3_Node000002_Node000004" class="edge">
<title>Node4&#45;&gt;Node2</title>
<g id="a_edge3_Node000002_Node000004"><a xlink:title=" ">
<path fill="none" stroke="#8b1a1a" d="M673.93,-231C712.35,-231 762.11,-231 801.24,-231"/>
<polygon fill="#8b1a1a" stroke="#8b1a1a" points="674.41,-227.5 664.41,-231 674.41,-234.5 674.41,-227.5"/>
</a>
</g>
</g>
<!-- Node5 -->
<g id="Node000005" class="node">
<title>Node5</title>
<g id="a_Node000005"><a xlink:title=" ">
<polygon fill="white" stroke="#666666" points="682.25,-203 543.25,-203 543.25,-171 682.25,-171 682.25,-203"/>
<text text-anchor="start" x="551.25" y="-189.5" font-family="Helvetica,sans-Serif" font-size="10.00">EpisodeProxyImpl&lt; Episode</text>
<text text-anchor="middle" x="612.75" y="-177.5" font-family="Helvetica,sans-Serif" font-size="10.00">ProxyPointerType::Weak &gt;</text>
</a>
</g>
</g>
<!-- Node5&#45;&gt;Node2 -->
<g id="edge4_Node000002_Node000005" class="edge">
<title>Node5&#45;&gt;Node2</title>
<g id="a_edge4_Node000002_Node000005"><a xlink:title=" ">
<path fill="none" stroke="#9a32cd" stroke-dasharray="5,2" d="M693.11,-199.58C721.65,-204.24 754.05,-209.69 783.5,-215 793.02,-216.72 803.15,-218.63 812.92,-220.52"/>
<polygon fill="#9a32cd" stroke="#9a32cd" points="693.82,-195.99 683.38,-197.84 692.69,-202.9 693.82,-195.99"/>
</a>
</g>
<text text-anchor="middle" x="741.88" y="-217.5" font-family="Helvetica,sans-Serif" font-size="10.00" fill="grey"> _episode</text>
</g>
<!-- Node6 -->
<g id="Node000006" class="node">
<title>Node6</title>
<g id="a_Node000006"><a xlink:title=" ">
<polygon fill="white" stroke="#666666" points="647.38,-153 578.12,-153 578.12,-133 647.38,-133 647.38,-153"/>
<text text-anchor="middle" x="612.75" y="-139.5" font-family="Helvetica,sans-Serif" font-size="10.00">const size_t</text>
</a>
</g>
</g>
<!-- Node6&#45;&gt;Node2 -->
<g id="edge5_Node000002_Node000006" class="edge">
<title>Node6&#45;&gt;Node2</title>
<g id="a_edge5_Node000002_Node000006"><a xlink:title=" ">
<path fill="none" stroke="#9a32cd" stroke-dasharray="5,2" d="M658.54,-150.64C693.37,-157.4 742.51,-168.73 783.5,-185 807.84,-194.66 833.85,-210.37 849.8,-220.69"/>
<polygon fill="#9a32cd" stroke="#9a32cd" points="659.24,-147.02 648.76,-148.61 657.94,-153.9 659.24,-147.02"/>
</a>
</g>
<text text-anchor="middle" x="741.88" y="-187.5" font-family="Helvetica,sans-Serif" font-size="10.00" fill="grey"> _frame</text>
</g>
<!-- Node7 -->
<g id="Node000007" class="node">
<title>Node7</title>
<g id="a_Node000007"><a xlink:title=" ">
<polygon fill="white" stroke="#666666" points="635,-367 590.5,-367 590.5,-347 635,-347 635,-367"/>
<text text-anchor="middle" x="612.75" y="-353.5" font-family="Helvetica,sans-Serif" font-size="10.00">double</text>
</a>
</g>
</g>
<!-- Node7&#45;&gt;Node2 -->
<g id="edge6_Node000002_Node000007" class="edge">
<title>Node7&#45;&gt;Node2</title>
<g id="a_edge6_Node000002_Node000007"><a xlink:title=" ">
<path fill="none" stroke="#9a32cd" stroke-dasharray="5,2" d="M646.16,-352.92C681.76,-347.35 739.67,-335.07 783.5,-310 815.34,-291.79 844,-258.34 857.3,-241.4"/>
<polygon fill="#9a32cd" stroke="#9a32cd" points="645.82,-349.57 636.44,-354.49 646.84,-356.5 645.82,-349.57"/>
</a>
</g>
<text text-anchor="middle" x="741.88" y="-343.5" font-family="Helvetica,sans-Serif" font-size="10.00" fill="grey"> _timestamp</text>
</g>
<!-- Node8 -->
<g id="Node000008" class="node">
<title>Node8</title>
<g id="a_Node000008"><a xlink:href="../../de/da4/classcarla_1_1geom_1_1Transform.html" target="_top" xlink:title=" ">
<polygon fill="white" stroke="#666666" points="670.62,-329 554.88,-329 554.88,-309 670.62,-309 670.62,-329"/>
<text text-anchor="middle" x="612.75" y="-315.5" font-family="Helvetica,sans-Serif" font-size="10.00">carla::geom::Transform</text>
</a>
</g>
</g>
<!-- Node8&#45;&gt;Node2 -->
<g id="edge7_Node000002_Node000008" class="edge">
<title>Node8&#45;&gt;Node2</title>
<g id="a_edge7_Node000002_Node000008"><a xlink:title=" ">
<path fill="none" stroke="#9a32cd" stroke-dasharray="5,2" d="M662.79,-305.68C669.34,-303.82 675.97,-301.89 682.25,-300 727.57,-286.34 739.29,-283.9 783.5,-267 804.04,-259.14 826.91,-248.93 843.2,-241.39"/>
<polygon fill="#9a32cd" stroke="#9a32cd" points="662.28,-302.47 653.6,-308.55 664.17,-309.21 662.28,-302.47"/>
</a>
</g>
<text text-anchor="middle" x="741.88" y="-296.5" font-family="Helvetica,sans-Serif" font-size="10.00" fill="grey"> _sensor_transform</text>
</g>
<!-- Node9 -->
<g id="Node000009" class="node">
<title>Node9</title>
<g id="a_Node000009"><a xlink:href="../../de/d23/classcarla_1_1geom_1_1Location.html" target="_top" xlink:title=" ">
<polygon fill="white" stroke="#666666" points="462.25,-281 352.5,-281 352.5,-261 462.25,-261 462.25,-281"/>
<text text-anchor="middle" x="407.38" y="-267.5" font-family="Helvetica,sans-Serif" font-size="10.00">carla::geom::Location</text>
</a>
</g>
</g>
<!-- Node9&#45;&gt;Node8 -->
<g id="edge8_Node000008_Node000009" class="edge">
<title>Node9&#45;&gt;Node8</title>
<g id="a_edge8_Node000008_Node000009"><a xlink:title=" ">
<path fill="none" stroke="#9a32cd" stroke-dasharray="5,2" d="M473.14,-280.99C490.24,-284.22 508.56,-288.23 525.25,-293 533.5,-295.36 535.1,-297.29 543.25,-300 552.27,-303 562.06,-305.91 571.34,-308.52"/>
<polygon fill="#9a32cd" stroke="#9a32cd" points="474.15,-277.43 463.68,-279.07 472.89,-284.31 474.15,-277.43"/>
</a>
</g>
<text text-anchor="middle" x="502.75" y="-295.5" font-family="Helvetica,sans-Serif" font-size="10.00" fill="grey"> location</text>
</g>
<!-- Node10 -->
<g id="Node000010" class="node">
<title>Node10</title>
<g id="a_Node000010"><a xlink:href="../../d9/dfe/classcarla_1_1geom_1_1Vector3D.html" target="_top" xlink:title=" ">
<polygon fill="white" stroke="#666666" points="207.5,-272 94,-272 94,-252 207.5,-252 207.5,-272"/>
<text text-anchor="middle" x="150.75" y="-258.5" font-family="Helvetica,sans-Serif" font-size="10.00">carla::geom::Vector3D</text>
</a>
</g>
</g>
<!-- Node10&#45;&gt;Node9 -->
<g id="edge9_Node000009_Node000010" class="edge">
<title>Node10&#45;&gt;Node9</title>
<g id="a_edge9_Node000009_Node000010"><a xlink:title=" ">
<path fill="none" stroke="#63b8ff" d="M218.81,-264.37C260.39,-265.84 313.12,-267.7 352.07,-269.08"/>
<polygon fill="#63b8ff" stroke="#63b8ff" points="219.06,-260.84 208.94,-263.99 218.81,-267.84 219.06,-260.84"/>
</a>
</g>
</g>
<!-- Node11 -->
<g id="Node000011" class="node">
<title>Node11</title>
<g id="a_Node000011"><a xlink:title=" ">
<polygon fill="white" stroke="#666666" points="34,-270 0,-270 0,-250 34,-250 34,-270"/>
<text text-anchor="middle" x="17" y="-256.5" font-family="Helvetica,sans-Serif" font-size="10.00">float</text>
</a>
</g>
</g>
<!-- Node11&#45;&gt;Node1 -->
<g id="edge16_Node000001_Node000011" class="edge">
<title>Node11&#45;&gt;Node1</title>
<g id="a_edge16_Node000001_Node000011"><a xlink:title=" ">
<path fill="none" stroke="#9a32cd" stroke-dasharray="5,2" d="M24.49,-239.65C39.31,-197.59 79.87,-105 149.75,-105 149.75,-105 149.75,-105 867.12,-105 919.92,-105 979.62,-99.44 1023.3,-94.33"/>
<polygon fill="#9a32cd" stroke="#9a32cd" points="20.93,-238.24 21.06,-248.83 27.57,-240.47 20.93,-238.24"/>
</a>
</g>
<text text-anchor="middle" x="502.75" y="-107.5" font-family="Helvetica,sans-Serif" font-size="10.00" fill="grey"> _distance</text>
</g>
<!-- Node11&#45;&gt;Node10 -->
<g id="edge10_Node000010_Node000011" class="edge">
<title>Node11&#45;&gt;Node10</title>
<g id="a_edge10_Node000010_Node000011"><a xlink:title=" ">
<path fill="none" stroke="#9a32cd" stroke-dasharray="5,2" d="M45.24,-260.41C59.25,-260.63 76.87,-260.89 93.62,-261.15"/>
<polygon fill="#9a32cd" stroke="#9a32cd" points="45.47,-256.9 35.42,-260.25 45.37,-263.9 45.47,-256.9"/>
</a>
</g>
<text text-anchor="middle" x="64" y="-286.5" font-family="Helvetica,sans-Serif" font-size="10.00" fill="grey"> x</text>
<text text-anchor="middle" x="64" y="-274.5" font-family="Helvetica,sans-Serif" font-size="10.00" fill="grey">y</text>
<text text-anchor="middle" x="64" y="-262.5" font-family="Helvetica,sans-Serif" font-size="10.00" fill="grey">z</text>
</g>
<!-- Node12 -->
<g id="Node000012" class="node">
<title>Node12</title>
<g id="a_Node000012"><a xlink:href="../../d8/dba/classcarla_1_1geom_1_1Rotation.html" target="_top" xlink:title=" ">
<polygon fill="white" stroke="#666666" points="334.5,-329 225.5,-329 225.5,-309 334.5,-309 334.5,-329"/>
<text text-anchor="middle" x="280" y="-315.5" font-family="Helvetica,sans-Serif" font-size="10.00">carla::geom::Rotation</text>
</a>
</g>
</g>
<!-- Node11&#45;&gt;Node12 -->
<g id="edge12_Node000012_Node000011" class="edge">
<title>Node11&#45;&gt;Node12</title>
<g id="a_edge12_Node000012_Node000011"><a xlink:title=" ">
<path fill="none" stroke="#9a32cd" stroke-dasharray="5,2" d="M30.67,-278.81C36.35,-285.71 43.65,-292.84 52,-297 106.4,-324.1 177.18,-326.61 225.13,-324.28"/>
<polygon fill="#9a32cd" stroke="#9a32cd" points="33.2,-277.33 24.4,-271.43 27.59,-281.53 33.2,-277.33"/>
</a>
</g>
<text text-anchor="middle" x="64" y="-331.5" font-family="Helvetica,sans-Serif" font-size="10.00" fill="grey"> pitch</text>
<text text-anchor="middle" x="64" y="-319.5" font-family="Helvetica,sans-Serif" font-size="10.00" fill="grey">roll</text>
<text text-anchor="middle" x="64" y="-307.5" font-family="Helvetica,sans-Serif" font-size="10.00" fill="grey">yaw</text>
</g>
<!-- Node12&#45;&gt;Node8 -->
<g id="edge11_Node000008_Node000012" class="edge">
<title>Node12&#45;&gt;Node8</title>
<g id="a_edge11_Node000008_Node000012"><a xlink:title=" ">
<path fill="none" stroke="#9a32cd" stroke-dasharray="5,2" d="M345.86,-319C406.59,-319 496.46,-319 554.57,-319"/>
<polygon fill="#9a32cd" stroke="#9a32cd" points="345.88,-315.5 335.88,-319 345.88,-322.5 345.88,-315.5"/>
</a>
</g>
<text text-anchor="middle" x="407.38" y="-321.5" font-family="Helvetica,sans-Serif" font-size="10.00" fill="grey"> rotation</text>
</g>
<!-- Node13 -->
<g id="Node000013" class="node">
<title>Node13</title>
<g id="a_Node000013"><a xlink:title=" ">
<polygon fill="white" stroke="#666666" points="885.75,-77 846.5,-77 846.5,-57 885.75,-57 885.75,-77"/>
<text text-anchor="middle" x="866.12" y="-63.5" font-family="Helvetica,sans-Serif" font-size="10.00">friend</text>
</a>
</g>
</g>
<!-- Node13&#45;&gt;Node1 -->
<g id="edge13_Node000001_Node000013" class="edge">
<title>Node13&#45;&gt;Node1</title>
<g id="a_edge13_Node000001_Node000013"><a xlink:title=" ">
<path fill="none" stroke="#9a32cd" stroke-dasharray="5,2" d="M896.63,-69.55C924.7,-71.97 968.1,-75.73 1005.75,-79 1011.45,-79.5 1017.39,-80.01 1023.33,-80.53"/>
<polygon fill="#9a32cd" stroke="#9a32cd" points="897.22,-66 886.96,-68.63 896.62,-72.97 897.22,-66"/>
</a>
</g>
<text text-anchor="middle" x="977.25" y="-81.5" font-family="Helvetica,sans-Serif" font-size="10.00" fill="grey"> Serializer</text>
</g>
<!-- Node14 -->
<g id="Node000014" class="node">
<title>Node14</title>
<g id="a_Node000014"><a xlink:href="../../d4/dad/classcarla_1_1client_1_1detail_1_1ActorVariant.html" target="_top" xlink:title="Holds an Actor, but only instantiates it when needed.">
<polygon fill="white" stroke="#666666" points="913.88,-38 818.38,-38 818.38,-6 913.88,-6 913.88,-38"/>
<text text-anchor="start" x="826.38" y="-24.5" font-family="Helvetica,sans-Serif" font-size="10.00">carla::client::detail</text>
<text text-anchor="middle" x="866.12" y="-12.5" font-family="Helvetica,sans-Serif" font-size="10.00">::ActorVariant</text>
</a>
</g>
</g>
<!-- Node14&#45;&gt;Node1 -->
<g id="edge14_Node000001_Node000014" class="edge">
<title>Node14&#45;&gt;Node1</title>
<g id="a_edge14_Node000001_Node000014"><a xlink:title=" ">
<path fill="none" stroke="#9a32cd" stroke-dasharray="5,2" d="M925.03,-28.19C950.24,-31.86 979.88,-37.5 1005.75,-46 1023.92,-51.97 1043.13,-61.43 1058.18,-69.66"/>
<polygon fill="#9a32cd" stroke="#9a32cd" points="925.54,-24.59 915.16,-26.69 924.59,-31.52 925.54,-24.59"/>
</a>
</g>
<text text-anchor="middle" x="977.25" y="-60.5" font-family="Helvetica,sans-Serif" font-size="10.00" fill="grey"> _other_actor</text>
<text text-anchor="middle" x="977.25" y="-48.5" font-family="Helvetica,sans-Serif" font-size="10.00" fill="grey">_self_actor</text>
</g>
<!-- Node15 -->
<g id="Node000015" class="node">
<title>Node15</title>
<g id="a_Node000015"><a xlink:title=" ">
<polygon fill="white" stroke="#666666" points="671,-44 554.5,-44 554.5,0 671,0 671,-44"/>
<text text-anchor="start" x="562.5" y="-30.5" font-family="Helvetica,sans-Serif" font-size="10.00">variant&lt; carla::rpc</text>
<text text-anchor="start" x="562.5" y="-18.5" font-family="Helvetica,sans-Serif" font-size="10.00">::Actor, SharedPtr&lt;</text>
<text text-anchor="middle" x="612.75" y="-6.5" font-family="Helvetica,sans-Serif" font-size="10.00"> carla::client::Actor &gt; &gt;</text>
</a>
</g>
</g>
<!-- Node15&#45;&gt;Node14 -->
<g id="edge15_Node000014_Node000015" class="edge">
<title>Node15&#45;&gt;Node14</title>
<g id="a_edge15_Node000014_Node000015"><a xlink:title=" ">
<path fill="none" stroke="#9a32cd" stroke-dasharray="5,2" d="M682.41,-22C725.53,-22 780.02,-22 818.23,-22"/>
<polygon fill="#9a32cd" stroke="#9a32cd" points="682.42,-18.5 672.42,-22 682.42,-25.5 682.42,-18.5"/>
</a>
</g>
<text text-anchor="middle" x="741.88" y="-24.5" font-family="Helvetica,sans-Serif" font-size="10.00" fill="grey"> _value</text>
</g>
</g>
</svg>
