<?xml version="1.0" encoding="UTF-8" standalone="no"?>
<!DOCTYPE svg PUBLIC "-//W3C//DTD SVG 1.1//EN"
 "http://www.w3.org/Graphics/SVG/1.1/DTD/svg11.dtd">
<!-- Generated by graphviz version 8.1.0 (20230707.0739)
 -->
<!-- Title: CarlaRecorderActorsKinematics::Add Pages: 1 -->
<svg width="1103pt" height="84pt"
 viewBox="0.00 0.00 1103.00 84.00" xmlns="http://www.w3.org/2000/svg" xmlns:xlink="http://www.w3.org/1999/xlink">
<g id="graph0" class="graph" transform="scale(1 1) rotate(0) translate(4 80)">
<title>CarlaRecorderActorsKinematics::Add</title>
<!-- Node1 -->
<g id="Node000001" class="node">
<title>Node1</title>
<g id="a_Node000001"><a xlink:title=" ">
<polygon fill="#999999" stroke="#666666" points="1095,-48 917,-48 917,-28 1095,-28 1095,-48"/>
<text text-anchor="middle" x="1006" y="-34.5" font-family="Helvetica,sans-Serif" font-size="10.00">CarlaRecorderActorsKinematics::Add</text>
</a>
</g>
</g>
<!-- Node2 -->
<g id="Node000002" class="node">
<title>Node2</title>
<g id="a_Node000002"><a xlink:href="../../de/db4/classFFrameData.html#aedc35264705ca3fe57dd6bf51868017e" target="_top" xlink:title=" ">
<polygon fill="white" stroke="#666666" points="873.88,-68 731.88,-68 731.88,-48 873.88,-48 873.88,-68"/>
<text text-anchor="middle" x="802.88" y="-54.5" font-family="Helvetica,sans-Serif" font-size="10.00">FFrameData::AddKinematics</text>
</a>
</g>
</g>
<!-- Node1&#45;&gt;Node2 -->
<g id="edge1_Node000001_Node000002" class="edge">
<title>Node1&#45;&gt;Node2</title>
<g id="a_edge1_Node000001_Node000002"><a xlink:title=" ">
<path fill="none" stroke="#63b8ff" d="M906.05,-47.84C895.29,-48.91 884.51,-49.98 874.2,-51.01"/>
<polygon fill="#63b8ff" stroke="#63b8ff" points="906.18,-51.24 915.78,-46.77 905.49,-44.28 906.18,-51.24"/>
</a>
</g>
</g>
<!-- Node7 -->
<g id="Node000007" class="node">
<title>Node7</title>
<g id="a_Node000007"><a xlink:href="../../dd/db9/classACarlaRecorder.html#a6a00a137b5bb6c492107d7d17500a9f0" target="_top" xlink:title=" ">
<polygon fill="white" stroke="#666666" points="881,-29 724.75,-29 724.75,-9 881,-9 881,-29"/>
<text text-anchor="middle" x="802.88" y="-15.5" font-family="Helvetica,sans-Serif" font-size="10.00">ACarlaRecorder::AddKinematics</text>
</a>
</g>
</g>
<!-- Node1&#45;&gt;Node7 -->
<g id="edge6_Node000001_Node000007" class="edge">
<title>Node1&#45;&gt;Node7</title>
<g id="a_edge6_Node000001_Node000007"><a xlink:title=" ">
<path fill="none" stroke="#63b8ff" d="M905.93,-28.64C897.66,-27.86 889.37,-27.08 881.29,-26.31"/>
<polygon fill="#63b8ff" stroke="#63b8ff" points="905.5,-32.21 915.78,-29.67 906.16,-25.24 905.5,-32.21"/>
</a>
</g>
</g>
<!-- Node3 -->
<g id="Node000003" class="node">
<title>Node3</title>
<g id="a_Node000003"><a xlink:href="../../de/db4/classFFrameData.html#aa414c2187b709351471a6f62f80df8c8" target="_top" xlink:title=" ">
<polygon fill="white" stroke="#666666" points="688.75,-73 523.5,-73 523.5,-53 688.75,-53 688.75,-73"/>
<text text-anchor="middle" x="606.12" y="-59.5" font-family="Helvetica,sans-Serif" font-size="10.00">FFrameData::AddActorKinematics</text>
</a>
</g>
</g>
<!-- Node2&#45;&gt;Node3 -->
<g id="edge2_Node000002_Node000003" class="edge">
<title>Node2&#45;&gt;Node3</title>
<g id="a_edge2_Node000002_Node000003"><a xlink:title=" ">
<path fill="none" stroke="#63b8ff" d="M720.73,-60.08C710.22,-60.35 699.44,-60.63 688.92,-60.9"/>
<polygon fill="#63b8ff" stroke="#63b8ff" points="720.66,-63.56 730.57,-59.81 720.48,-56.56 720.66,-63.56"/>
</a>
</g>
</g>
<!-- Node4 -->
<g id="Node000004" class="node">
<title>Node4</title>
<g id="a_Node000004"><a xlink:href="../../de/db4/classFFrameData.html#a13396099d7e1c32df563893f7d0b35be" target="_top" xlink:title=" ">
<polygon fill="white" stroke="#666666" points="487.5,-76 347.75,-76 347.75,-56 487.5,-56 487.5,-76"/>
<text text-anchor="middle" x="417.62" y="-62.5" font-family="Helvetica,sans-Serif" font-size="10.00">FFrameData::GetFrameData</text>
</a>
</g>
</g>
<!-- Node3&#45;&gt;Node4 -->
<g id="edge3_Node000003_Node000004" class="edge">
<title>Node3&#45;&gt;Node4</title>
<g id="a_edge3_Node000003_Node000004"><a xlink:title=" ">
<path fill="none" stroke="#63b8ff" d="M512.29,-64.49C504.08,-64.63 495.87,-64.76 487.91,-64.89"/>
<polygon fill="#63b8ff" stroke="#63b8ff" points="512.11,-67.98 522.05,-64.32 512,-60.98 512.11,-67.98"/>
</a>
</g>
</g>
<!-- Node5 -->
<g id="Node000005" class="node">
<title>Node5</title>
<g id="a_Node000005"><a xlink:href="../../dc/d49/classFCarlaEngine.html#aff440c7ba9d004e4c5b60125cc4d709b" target="_top" xlink:title=" ">
<polygon fill="white" stroke="#666666" points="311.75,-48 180.25,-48 180.25,-28 311.75,-28 311.75,-48"/>
<text text-anchor="middle" x="246" y="-34.5" font-family="Helvetica,sans-Serif" font-size="10.00">FCarlaEngine::OnPostTick</text>
</a>
</g>
</g>
<!-- Node4&#45;&gt;Node5 -->
<g id="edge4_Node000004_Node000005" class="edge">
<title>Node4&#45;&gt;Node5</title>
<g id="a_edge4_Node000004_Node000005"><a xlink:title=" ">
<path fill="none" stroke="#63b8ff" d="M342.8,-53.81C332.04,-52.04 321.03,-50.22 310.5,-48.48"/>
<polygon fill="#63b8ff" stroke="#63b8ff" points="342.03,-57.4 352.46,-55.57 343.17,-50.49 342.03,-57.4"/>
</a>
</g>
</g>
<!-- Node6 -->
<g id="Node000006" class="node">
<title>Node6</title>
<g id="a_Node000006"><a xlink:href="../../dc/d49/classFCarlaEngine.html#ab8d13063cde985781237dd7da308227e" target="_top" xlink:title=" ">
<polygon fill="white" stroke="#666666" points="144.25,-48 0,-48 0,-28 144.25,-28 144.25,-48"/>
<text text-anchor="middle" x="72.12" y="-34.5" font-family="Helvetica,sans-Serif" font-size="10.00">FCarlaEngine::NotifyInitGame</text>
</a>
</g>
</g>
<!-- Node5&#45;&gt;Node6 -->
<g id="edge5_Node000005_Node000006" class="edge">
<title>Node5&#45;&gt;Node6</title>
<g id="a_edge5_Node000005_Node000006"><a xlink:title=" ">
<path fill="none" stroke="#63b8ff" d="M169.3,-38C161.06,-38 152.7,-38 144.52,-38"/>
<polygon fill="#63b8ff" stroke="#63b8ff" points="169.02,-41.5 179.02,-38 169.02,-34.5 169.02,-41.5"/>
</a>
</g>
</g>
<!-- Node8 -->
<g id="Node000008" class="node">
<title>Node8</title>
<g id="a_Node000008"><a xlink:href="../../dd/db9/classACarlaRecorder.html#a910b8341bc60fc21e9b98b9c82798afc" target="_top" xlink:title=" ">
<polygon fill="white" stroke="#666666" points="671.5,-32 540.75,-32 540.75,0 671.5,0 671.5,-32"/>
<text text-anchor="start" x="548.75" y="-18.5" font-family="Helvetica,sans-Serif" font-size="10.00">ACarlaRecorder::AddActor</text>
<text text-anchor="middle" x="606.12" y="-6.5" font-family="Helvetica,sans-Serif" font-size="10.00">Kinematics</text>
</a>
</g>
</g>
<!-- Node7&#45;&gt;Node8 -->
<g id="edge7_Node000007_Node000008" class="edge">
<title>Node7&#45;&gt;Node8</title>
<g id="a_edge7_Node000007_Node000008"><a xlink:title=" ">
<path fill="none" stroke="#63b8ff" d="M713.65,-17.64C699.58,-17.42 685.26,-17.2 671.86,-17"/>
<polygon fill="#63b8ff" stroke="#63b8ff" points="713.29,-21.15 723.35,-17.81 713.4,-14.15 713.29,-21.15"/>
</a>
</g>
</g>
<!-- Node9 -->
<g id="Node000009" class="node">
<title>Node9</title>
<g id="a_Node000009"><a xlink:href="../../dd/db9/classACarlaRecorder.html#a1074f19dfe5b16a9e10b24ef35b26abc" target="_top" xlink:title=" ">
<polygon fill="white" stroke="#666666" points="478.12,-20 357.12,-20 357.12,0 478.12,0 478.12,-20"/>
<text text-anchor="middle" x="417.62" y="-6.5" font-family="Helvetica,sans-Serif" font-size="10.00">ACarlaRecorder::Ticking</text>
</a>
</g>
</g>
<!-- Node8&#45;&gt;Node9 -->
<g id="edge8_Node000008_Node000009" class="edge">
<title>Node8&#45;&gt;Node9</title>
<g id="a_edge8_Node000008_Node000009"><a xlink:title=" ">
<path fill="none" stroke="#63b8ff" d="M529.91,-13.58C512.81,-13.03 494.88,-12.45 478.52,-11.93"/>
<polygon fill="#63b8ff" stroke="#63b8ff" points="529.31,-17.09 539.42,-13.92 529.54,-10.1 529.31,-17.09"/>
</a>
</g>
</g>
<!-- Node9&#45;&gt;Node5 -->
<g id="edge9_Node000009_Node000005" class="edge">
<title>Node9&#45;&gt;Node5</title>
<g id="a_edge9_Node000009_Node000005"><a xlink:title=" ">
<path fill="none" stroke="#63b8ff" d="M346.13,-21.64C334.34,-23.58 322.18,-25.59 310.58,-27.51"/>
<polygon fill="#63b8ff" stroke="#63b8ff" points="346.53,-24.95 355.82,-19.87 345.39,-18.05 346.53,-24.95"/>
</a>
</g>
</g>
<!-- Node9&#45;&gt;Node9 -->
<g id="edge10_Node000009_Node000009" class="edge">
<title>Node9&#45;&gt;Node9</title>
<g id="a_edge10_Node000009_Node000009"><a xlink:title=" ">
<path fill="none" stroke="#63b8ff" d="M448.83,-30.43C445.74,-34.82 435.34,-38 417.62,-38 387.79,-38 378.7,-28.98 390.36,-20.34"/>
<polygon fill="#63b8ff" stroke="#63b8ff" points="451.79,-29.38 444.89,-21.34 445.27,-31.93 451.79,-29.38"/>
</a>
</g>
</g>
</g>
</svg>
