<?xml version="1.0" encoding="UTF-8" standalone="no"?>
<!DOCTYPE svg PUBLIC "-//W3C//DTD SVG 1.1//EN"
 "http://www.w3.org/Graphics/SVG/1.1/DTD/svg11.dtd">
<!-- Generated by graphviz version 8.1.0 (20230707.0739)
 -->
<!-- Title: SnippetProfiler.h Pages: 1 -->
<svg width="212pt" height="84pt"
 viewBox="0.00 0.00 212.00 84.00" xmlns="http://www.w3.org/2000/svg" xmlns:xlink="http://www.w3.org/1999/xlink">
<g id="graph0" class="graph" transform="scale(1 1) rotate(0) translate(4 80)">
<title>SnippetProfiler.h</title>
<!-- Node1 -->
<g id="Node000001" class="node">
<title>Node1</title>
<g id="a_Node000001"><a xlink:title=" ">
<polygon fill="#999999" stroke="#666666" points="127.25,-76 40,-76 40,-56 127.25,-56 127.25,-76"/>
<text text-anchor="middle" x="83.62" y="-62.5" font-family="Helvetica,sans-Serif" font-size="10.00">SnippetProfiler.h</text>
</a>
</g>
</g>
<!-- Node2 -->
<g id="Node000002" class="node">
<title>Node2</title>
<g id="a_Node000002"><a xlink:title=" ">
<polygon fill="#e0e0e0" stroke="#999999" points="45.25,-20 0,-20 0,0 45.25,0 45.25,-20"/>
<text text-anchor="middle" x="22.62" y="-6.5" font-family="Helvetica,sans-Serif" font-size="10.00">chrono</text>
</a>
</g>
</g>
<!-- Node1&#45;&gt;Node2 -->
<g id="edge1_Node000001_Node000002" class="edge">
<title>Node1&#45;&gt;Node2</title>
<g id="a_edge1_Node000001_Node000002"><a xlink:title=" ">
<path fill="none" stroke="#63b8ff" d="M73,-55.59C64.25,-47.85 51.64,-36.69 41.23,-27.47"/>
<polygon fill="#63b8ff" stroke="#63b8ff" points="43.94,-25.31 34.13,-21.3 39.3,-30.55 43.94,-25.31"/>
</a>
</g>
</g>
<!-- Node3 -->
<g id="Node000003" class="node">
<title>Node3</title>
<g id="a_Node000003"><a xlink:title=" ">
<polygon fill="#e0e0e0" stroke="#999999" points="103.62,-20 63.62,-20 63.62,0 103.62,0 103.62,-20"/>
<text text-anchor="middle" x="83.62" y="-6.5" font-family="Helvetica,sans-Serif" font-size="10.00">string</text>
</a>
</g>
</g>
<!-- Node1&#45;&gt;Node3 -->
<g id="edge2_Node000001_Node000003" class="edge">
<title>Node1&#45;&gt;Node3</title>
<g id="a_edge2_Node000001_Node000003"><a xlink:title=" ">
<path fill="none" stroke="#63b8ff" d="M83.62,-55.59C83.62,-48.86 83.62,-39.53 83.62,-31.15"/>
<polygon fill="#63b8ff" stroke="#63b8ff" points="87.13,-31.3 83.62,-21.3 80.13,-31.3 87.13,-31.3"/>
</a>
</g>
</g>
<!-- Node4 -->
<g id="Node000004" class="node">
<title>Node4</title>
<g id="a_Node000004"><a xlink:title=" ">
<polygon fill="#e0e0e0" stroke="#999999" points="204,-20 121.25,-20 121.25,0 204,0 204,-20"/>
<text text-anchor="middle" x="162.62" y="-6.5" font-family="Helvetica,sans-Serif" font-size="10.00">unordered_map</text>
</a>
</g>
</g>
<!-- Node1&#45;&gt;Node4 -->
<g id="edge3_Node000001_Node000004" class="edge">
<title>Node1&#45;&gt;Node4</title>
<g id="a_edge3_Node000001_Node000004"><a xlink:title=" ">
<path fill="none" stroke="#63b8ff" d="M97.39,-55.59C109.1,-47.59 126.15,-35.93 139.88,-26.54"/>
<polygon fill="#63b8ff" stroke="#63b8ff" points="141.48,-29.01 147.76,-20.48 137.53,-23.23 141.48,-29.01"/>
</a>
</g>
</g>
</g>
</svg>
