<?xml version="1.0" encoding="UTF-8" standalone="no"?>
<!DOCTYPE svg PUBLIC "-//W3C//DTD SVG 1.1//EN"
 "http://www.w3.org/Graphics/SVG/1.1/DTD/svg11.dtd">
<!-- Generated by graphviz version 8.1.0 (20230707.0739)
 -->
<!-- Title: carla::geom::VertexInfo Pages: 1 -->
<svg width="279pt" height="188pt"
 viewBox="0.00 0.00 278.50 188.00" xmlns="http://www.w3.org/2000/svg" xmlns:xlink="http://www.w3.org/1999/xlink">

<svg id="main" version="1.1" xmlns="http://www.w3.org/2000/svg" xmlns:xlink="http://www.w3.org/1999/xlink" xml:space="preserve" onload="init(evt)">
<style type="text/css"><![CDATA[
.node, .edge {opacity: 0.7;}
.node.selected, .edge.selected {opacity: 1;}
.edge:hover path { stroke: red; }
.edge:hover polygon { stroke: red; fill: red; }
]]></style>
<script type="application/ecmascript" xlink:href="../../svg.min.js"/>
<svg id="graph" class="graph">
<g id="graph0" class="graph" transform="scale(1 1) rotate(0) translate(4 184)">
<title>carla::geom::VertexInfo</title>
<!-- Node1 -->
<g id="Node000001" class="node">
<title>Node1</title>
<g id="a_Node000001"><a xlink:title=" ">
<polygon fill="#999999" stroke="#666666" points="211,-20 94.5,-20 94.5,0 211,0 211,-20"/>
<text text-anchor="middle" x="152.75" y="-6.5" font-family="Helvetica,sans-Serif" font-size="10.00">carla::geom::VertexInfo</text>
</a>
</g>
</g>
<!-- Node2 -->
<g id="Node000002" class="node">
<title>Node2</title>
<g id="a_Node000002"><a xlink:href="../../d9/dfe/classcarla_1_1geom_1_1Vector3D.html" target="_top" xlink:title=" ">
<polygon fill="white" stroke="#666666" points="113.5,-88 0,-88 0,-68 113.5,-68 113.5,-88"/>
<text text-anchor="middle" x="56.75" y="-74.5" font-family="Helvetica,sans-Serif" font-size="10.00">carla::geom::Vector3D</text>
</a>
</g>
</g>
<!-- Node2&#45;&gt;Node1 -->
<g id="edge1_Node000001_Node000002" class="edge">
<title>Node2&#45;&gt;Node1</title>
<g id="a_edge1_Node000001_Node000002"><a xlink:title=" ">
<path fill="none" stroke="#9a32cd" stroke-dasharray="5,2" d="M79.45,-61.39C97.96,-48.67 123.49,-31.12 139.02,-20.44"/>
<polygon fill="#9a32cd" stroke="#9a32cd" points="77.76,-58.99 71.5,-67.54 81.73,-64.76 77.76,-58.99"/>
</a>
</g>
<text text-anchor="middle" x="127" y="-40.5" font-family="Helvetica,sans-Serif" font-size="10.00" fill="grey"> vertex</text>
</g>
<!-- Node3 -->
<g id="Node000003" class="node">
<title>Node3</title>
<g id="a_Node000003"><a xlink:title=" ">
<polygon fill="white" stroke="#666666" points="73.75,-180 39.75,-180 39.75,-160 73.75,-160 73.75,-180"/>
<text text-anchor="middle" x="56.75" y="-166.5" font-family="Helvetica,sans-Serif" font-size="10.00">float</text>
</a>
</g>
</g>
<!-- Node3&#45;&gt;Node2 -->
<g id="edge2_Node000002_Node000003" class="edge">
<title>Node3&#45;&gt;Node2</title>
<g id="a_edge2_Node000002_Node000003"><a xlink:title=" ">
<path fill="none" stroke="#9a32cd" stroke-dasharray="5,2" d="M56.75,-148.75C56.75,-129.87 56.75,-102.58 56.75,-88.38"/>
<polygon fill="#9a32cd" stroke="#9a32cd" points="53.25,-148.71 56.75,-158.71 60.25,-148.71 53.25,-148.71"/>
</a>
</g>
<text text-anchor="middle" x="60.88" y="-132.5" font-family="Helvetica,sans-Serif" font-size="10.00" fill="grey"> x</text>
<text text-anchor="middle" x="60.88" y="-120.5" font-family="Helvetica,sans-Serif" font-size="10.00" fill="grey">y</text>
<text text-anchor="middle" x="60.88" y="-108.5" font-family="Helvetica,sans-Serif" font-size="10.00" fill="grey">z</text>
</g>
<!-- Node4 -->
<g id="Node000004" class="node">
<title>Node4</title>
<g id="a_Node000004"><a xlink:title=" ">
<polygon fill="white" stroke="#666666" points="173.88,-88 131.62,-88 131.62,-68 173.88,-68 173.88,-88"/>
<text text-anchor="middle" x="152.75" y="-74.5" font-family="Helvetica,sans-Serif" font-size="10.00">size_t</text>
</a>
</g>
</g>
<!-- Node4&#45;&gt;Node1 -->
<g id="edge3_Node000001_Node000004" class="edge">
<title>Node4&#45;&gt;Node1</title>
<g id="a_edge3_Node000001_Node000004"><a xlink:title=" ">
<path fill="none" stroke="#9a32cd" stroke-dasharray="5,2" d="M152.75,-56.65C152.75,-44.58 152.75,-29.84 152.75,-20.44"/>
<polygon fill="#9a32cd" stroke="#9a32cd" points="149.25,-56.54 152.75,-66.54 156.25,-56.54 149.25,-56.54"/>
</a>
</g>
<text text-anchor="middle" x="186.88" y="-40.5" font-family="Helvetica,sans-Serif" font-size="10.00" fill="grey"> lane_mesh_idx</text>
</g>
<!-- Node5 -->
<g id="Node000005" class="node">
<title>Node5</title>
<g id="a_Node000005"><a xlink:title=" ">
<polygon fill="white" stroke="#666666" points="260.75,-88 226.75,-88 226.75,-68 260.75,-68 260.75,-88"/>
<text text-anchor="middle" x="243.75" y="-74.5" font-family="Helvetica,sans-Serif" font-size="10.00">bool</text>
</a>
</g>
</g>
<!-- Node5&#45;&gt;Node1 -->
<g id="edge4_Node000001_Node000005" class="edge">
<title>Node5&#45;&gt;Node1</title>
<g id="a_edge4_Node000001_Node000005"><a xlink:title=" ">
<path fill="none" stroke="#9a32cd" stroke-dasharray="5,2" d="M236.37,-58.12C232.83,-51.04 227.98,-43.41 221.75,-38 212.81,-30.24 201.39,-24.57 190.42,-20.49"/>
<polygon fill="#9a32cd" stroke="#9a32cd" points="233.39,-59.03 240.62,-66.77 239.79,-56.21 233.39,-59.03"/>
</a>
</g>
<text text-anchor="middle" x="250.62" y="-40.5" font-family="Helvetica,sans-Serif" font-size="10.00" fill="grey"> is_static</text>
</g>
</g>
</svg>
</svg>

<style type='text/css'>
<![CDATA[
[data-mouse-over-selected='false'] { opacity: 0.7; }
[data-mouse-over-selected='true']  { opacity: 1.0; }
]]>
</style>
<script type="application/ecmascript"><![CDATA[
document.addEventListener('DOMContentLoaded', (event) => {
  highlightEdges();
  highlightAdjacentNodes();
});
]]></script>
</svg>
