<?xml version="1.0" encoding="UTF-8" standalone="no"?>
<!DOCTYPE svg PUBLIC "-//W3C//DTD SVG 1.1//EN"
 "http://www.w3.org/Graphics/SVG/1.1/DTD/svg11.dtd">
<!-- Generated by graphviz version 8.1.0 (20230707.0739)
 -->
<!-- Title: carla::client::detail::ActorState::GetActorDescription Pages: 1 -->
<!--zoomable 452 -->

<svg id="main" version="1.1" xmlns="http://www.w3.org/2000/svg" xmlns:xlink="http://www.w3.org/1999/xlink" xml:space="preserve" onload="init(evt)">
<style type="text/css"><![CDATA[
.node, .edge {opacity: 0.7;}
.node.selected, .edge.selected {opacity: 1;}
.edge:hover path { stroke: red; }
.edge:hover polygon { stroke: red; fill: red; }
]]></style>

<defs>
  <circle id="rim" cx="0" cy="0" r="7"/>
  <circle id="rim2" cx="0" cy="0" r="3.5"/>
  <g id="zoomPlus">
    <use xlink:href="#rim" fill="#404040"><set attributeName="fill" to="#808080" begin="zoomplus.mouseover" end="zoomplus.mouseout"/></use>
    <path d="M-4,0h8M0,-4v8" fill="none" stroke="white" stroke-width="1.5" pointer-events="none"/>
  </g>
  <g id="zoomMin">
    <use xlink:href="#rim" fill="#404040"><set attributeName="fill" to="#808080" begin="zoomminus.mouseover" end="zoomminus.mouseout"/></use>
    <path d="M-4,0h8" fill="none" stroke="white" stroke-width="1.5" pointer-events="none"/>
  </g>
  <g id="arrowUp" transform="translate(30 24)">
    <use xlink:href="#rim"/>
    <path pointer-events="none" fill="none" stroke="white" stroke-width="1.5" d="M0,-3.0v7 M-2.5,-0.5L0,-3.0L2.5,-0.5"/>
  </g>
  <g id="arrowRight" transform="rotate(90) translate(36 -43)">
    <use xlink:href="#rim"/>
    <path pointer-events="none" fill="none" stroke="white" stroke-width="1.5" d="M0,-3.0v7 M-2.5,-0.5L0,-3.0L2.5,-0.5"/>
  </g>
  <g id="arrowDown" transform="rotate(180) translate(-30 -48)">
    <use xlink:href="#rim"/>
    <path pointer-events="none" fill="none" stroke="white" stroke-width="1.5" d="M0,-3.0v7 M-2.5,-0.5L0,-3.0L2.5,-0.5"/>
  </g>
  <g id="arrowLeft" transform="rotate(270) translate(-36 17)">
    <use xlink:href="#rim"/>
    <path pointer-events="none" fill="none" stroke="white" stroke-width="1.5" d="M0,-3.0v7 M-2.5,-0.5L0,-3.0L2.5,-0.5"/>
  </g>
  <g id="resetDef">
    <use xlink:href="#rim2" fill="#404040"><set attributeName="fill" to="#808080" begin="reset.mouseover" end="reset.mouseout"/></use>
  </g>
</defs>
<script type="application/ecmascript">
var viewWidth = 532;
var viewHeight = 452;
var sectionId = 'dynsection-2';
</script>
<script type="application/ecmascript" xlink:href="../../svg.min.js"/>
<svg id="graph" class="graph">
<g id="viewport">
<title>carla::client::detail::ActorState::GetActorDescription</title>
<!-- Node1 -->
<g id="Node000001" class="node">
<title>Node1</title>
<g id="a_Node000001"><a xlink:title=" ">
<polygon fill="#999999" stroke="#666666" points="524.25,-244 362,-244 362,-212 524.25,-212 524.25,-244"/>
<text text-anchor="start" x="370" y="-230.5" font-family="Helvetica,sans-Serif" font-size="10.00">carla::client::detail</text>
<text text-anchor="middle" x="443.12" y="-218.5" font-family="Helvetica,sans-Serif" font-size="10.00">::ActorState::GetActorDescription</text>
</a>
</g>
</g>
<!-- Node2 -->
<g id="Node000002" class="node">
<title>Node2</title>
<g id="a_Node000002"><a xlink:href="../../df/df3/classcarla_1_1client_1_1detail_1_1Simulator.html#a15d14910891abdf14f58184b4e397429" target="_top" xlink:title=" ">
<polygon fill="white" stroke="#666666" points="317.38,-444 180.62,-444 180.62,-412 317.38,-412 317.38,-444"/>
<text text-anchor="start" x="188.62" y="-430.5" font-family="Helvetica,sans-Serif" font-size="10.00">carla::client::detail</text>
<text text-anchor="middle" x="249" y="-418.5" font-family="Helvetica,sans-Serif" font-size="10.00">::Simulator::DisableForROS</text>
</a>
</g>
</g>
<!-- Node1&#45;&gt;Node2 -->
<g id="edge1_Node000001_Node000002" class="edge">
<title>Node1&#45;&gt;Node2</title>
<g id="a_edge1_Node000001_Node000002"><a xlink:title=" ">
<path fill="none" stroke="#63b8ff" d="M431.45,-254.26C414.61,-292.44 378.35,-363.09 326,-403 321.69,-406.28 316.93,-409.15 311.96,-411.64"/>
<polygon fill="#63b8ff" stroke="#63b8ff" points="434.95,-255.97 435.68,-245.4 428.52,-253.21 434.95,-255.97"/>
</a>
</g>
</g>
<!-- Node3 -->
<g id="Node000003" class="node">
<title>Node3</title>
<g id="a_Node000003"><a xlink:href="../../df/df3/classcarla_1_1client_1_1detail_1_1Simulator.html#a37e820807ac1f611d7e917f4ebca5880" target="_top" xlink:title=" ">
<polygon fill="white" stroke="#666666" points="316.25,-394 181.75,-394 181.75,-362 316.25,-362 316.25,-394"/>
<text text-anchor="start" x="189.75" y="-380.5" font-family="Helvetica,sans-Serif" font-size="10.00">carla::client::detail</text>
<text text-anchor="middle" x="249" y="-368.5" font-family="Helvetica,sans-Serif" font-size="10.00">::Simulator::EnableForROS</text>
</a>
</g>
</g>
<!-- Node1&#45;&gt;Node3 -->
<g id="edge2_Node000001_Node000003" class="edge">
<title>Node1&#45;&gt;Node3</title>
<g id="a_edge2_Node000001_Node000003"><a xlink:title=" ">
<path fill="none" stroke="#63b8ff" d="M424.92,-253.09C404.42,-281.19 367.67,-326.29 326,-353 320.97,-356.22 315.49,-359.07 309.84,-361.57"/>
<polygon fill="#63b8ff" stroke="#63b8ff" points="428.26,-255.43 431.23,-245.26 422.57,-251.36 428.26,-255.43"/>
</a>
</g>
</g>
<!-- Node4 -->
<g id="Node000004" class="node">
<title>Node4</title>
<g id="a_Node000004"><a xlink:href="../../df/df3/classcarla_1_1client_1_1detail_1_1Simulator.html#a532e49fd50fee92dbda277450d67711c" target="_top" xlink:title=" ">
<polygon fill="white" stroke="#666666" points="322.62,-344 175.38,-344 175.38,-312 322.62,-312 322.62,-344"/>
<text text-anchor="start" x="183.38" y="-330.5" font-family="Helvetica,sans-Serif" font-size="10.00">carla::client::detail</text>
<text text-anchor="middle" x="249" y="-318.5" font-family="Helvetica,sans-Serif" font-size="10.00">::Simulator::IsEnabledForROS</text>
</a>
</g>
</g>
<!-- Node1&#45;&gt;Node4 -->
<g id="edge3_Node000001_Node000004" class="edge">
<title>Node1&#45;&gt;Node4</title>
<g id="a_edge3_Node000001_Node000004"><a xlink:title=" ">
<path fill="none" stroke="#63b8ff" d="M411.61,-250.8C388.89,-266.99 356.64,-288.36 326,-303 319.48,-306.11 312.48,-308.99 305.45,-311.61"/>
<polygon fill="#63b8ff" stroke="#63b8ff" points="413.36,-253.13 419.42,-244.44 409.27,-247.45 413.36,-253.13"/>
</a>
</g>
</g>
<!-- Node5 -->
<g id="Node000005" class="node">
<title>Node5</title>
<g id="a_Node000005"><a xlink:href="../../de/d68/classcarla_1_1client_1_1ServerSideSensor.html#a8d2f2ded63362c44925f7e5c7c64adcf" target="_top" xlink:title="Listen fr">
<polygon fill="white" stroke="#666666" points="309.88,-294 188.12,-294 188.12,-262 309.88,-262 309.88,-294"/>
<text text-anchor="start" x="196.12" y="-280.5" font-family="Helvetica,sans-Serif" font-size="10.00">carla::client::ServerSide</text>
<text text-anchor="middle" x="249" y="-268.5" font-family="Helvetica,sans-Serif" font-size="10.00">Sensor::ListenToGBuffer</text>
</a>
</g>
</g>
<!-- Node1&#45;&gt;Node5 -->
<g id="edge4_Node000001_Node000005" class="edge">
<title>Node1&#45;&gt;Node5</title>
<g id="a_edge4_Node000001_Node000005"><a xlink:title=" ">
<path fill="none" stroke="#63b8ff" d="M368.42,-247.18C349.2,-252.18 328.71,-257.52 310.28,-262.31"/>
<polygon fill="#63b8ff" stroke="#63b8ff" points="369.15,-250.35 377.95,-244.44 367.39,-243.57 369.15,-250.35"/>
</a>
</g>
</g>
<!-- Node6 -->
<g id="Node000006" class="node">
<title>Node6</title>
<g id="a_Node000006"><a xlink:href="../../de/d68/classcarla_1_1client_1_1ServerSideSensor.html#aa21c177524bc15fb56b45fa3c87dd91b" target="_top" xlink:title="Send data via this sensor">
<polygon fill="white" stroke="#666666" points="308.38,-244 189.62,-244 189.62,-212 308.38,-212 308.38,-244"/>
<text text-anchor="start" x="197.62" y="-230.5" font-family="Helvetica,sans-Serif" font-size="10.00">carla::client::ServerSide</text>
<text text-anchor="middle" x="249" y="-218.5" font-family="Helvetica,sans-Serif" font-size="10.00">Sensor::Send</text>
</a>
</g>
</g>
<!-- Node1&#45;&gt;Node6 -->
<g id="edge5_Node000001_Node000006" class="edge">
<title>Node1&#45;&gt;Node6</title>
<g id="a_edge5_Node000001_Node000006"><a xlink:title=" ">
<path fill="none" stroke="#63b8ff" d="M350.85,-228C336.52,-228 322.04,-228 308.71,-228"/>
<polygon fill="#63b8ff" stroke="#63b8ff" points="350.76,-231.5 360.76,-228 350.76,-224.5 350.76,-231.5"/>
</a>
</g>
</g>
<!-- Node7 -->
<g id="Node000007" class="node">
<title>Node7</title>
<g id="a_Node000007"><a xlink:href="../../d6/da5/classcarla_1_1client_1_1Actor.html#a8b405b6d271d2271492b21d9695a03c8" target="_top" xlink:title=" ">
<polygon fill="white" stroke="#666666" points="296.75,-194 201.25,-194 201.25,-162 296.75,-162 296.75,-194"/>
<text text-anchor="start" x="209.25" y="-180.5" font-family="Helvetica,sans-Serif" font-size="10.00">carla::client::Actor</text>
<text text-anchor="middle" x="249" y="-168.5" font-family="Helvetica,sans-Serif" font-size="10.00">::Serialize</text>
</a>
</g>
</g>
<!-- Node1&#45;&gt;Node7 -->
<g id="edge6_Node000001_Node000007" class="edge">
<title>Node1&#45;&gt;Node7</title>
<g id="a_edge6_Node000001_Node000007"><a xlink:title=" ">
<path fill="none" stroke="#63b8ff" d="M368.46,-208.83C344.49,-202.59 318.55,-195.84 297.07,-190.25"/>
<polygon fill="#63b8ff" stroke="#63b8ff" points="367.39,-212.43 377.95,-211.56 369.15,-205.65 367.39,-212.43"/>
</a>
</g>
</g>
<!-- Node8 -->
<g id="Node000008" class="node">
<title>Node8</title>
<g id="a_Node000008"><a xlink:href="../../de/d68/classcarla_1_1client_1_1ServerSideSensor.html#af9ff392aec23bfad361e211dcd85fd9f" target="_top" xlink:title="Stop listening for a specific gbuffer stream.">
<polygon fill="white" stroke="#666666" points="308.38,-144 189.62,-144 189.62,-112 308.38,-112 308.38,-144"/>
<text text-anchor="start" x="197.62" y="-130.5" font-family="Helvetica,sans-Serif" font-size="10.00">carla::client::ServerSide</text>
<text text-anchor="middle" x="249" y="-118.5" font-family="Helvetica,sans-Serif" font-size="10.00">Sensor::StopGBuffer</text>
</a>
</g>
</g>
<!-- Node1&#45;&gt;Node8 -->
<g id="edge7_Node000001_Node000008" class="edge">
<title>Node1&#45;&gt;Node8</title>
<g id="a_edge7_Node000001_Node000008"><a xlink:title=" ">
<path fill="none" stroke="#63b8ff" d="M411.61,-205.2C388.89,-189.01 356.64,-167.64 326,-153 319.48,-149.89 312.48,-147.01 305.45,-144.39"/>
<polygon fill="#63b8ff" stroke="#63b8ff" points="409.27,-208.55 419.42,-211.56 413.36,-202.87 409.27,-208.55"/>
</a>
</g>
</g>
<!-- Node11 -->
<g id="Node000011" class="node">
<title>Node11</title>
<g id="a_Node000011"><a xlink:href="../../df/df3/classcarla_1_1client_1_1detail_1_1Simulator.html#a7dec54efa6cca84e6d319c3a5e78b56b" target="_top" xlink:title=" ">
<polygon fill="white" stroke="#666666" points="326,-94 172,-94 172,-62 326,-62 326,-94"/>
<text text-anchor="start" x="180" y="-80.5" font-family="Helvetica,sans-Serif" font-size="10.00">carla::client::detail</text>
<text text-anchor="middle" x="249" y="-68.5" font-family="Helvetica,sans-Serif" font-size="10.00">::Simulator::SubscribeToSensor</text>
</a>
</g>
</g>
<!-- Node1&#45;&gt;Node11 -->
<g id="edge10_Node000001_Node000011" class="edge">
<title>Node1&#45;&gt;Node11</title>
<g id="a_edge10_Node000001_Node000011"><a xlink:title=" ">
<path fill="none" stroke="#63b8ff" d="M424.92,-202.91C404.42,-174.81 367.67,-129.71 326,-103 320.97,-99.78 315.49,-96.93 309.84,-94.43"/>
<polygon fill="#63b8ff" stroke="#63b8ff" points="422.57,-204.64 431.23,-210.74 428.26,-200.57 422.57,-204.64"/>
</a>
</g>
</g>
<!-- Node12 -->
<g id="Node000012" class="node">
<title>Node12</title>
<g id="a_Node000012"><a xlink:href="../../df/df3/classcarla_1_1client_1_1detail_1_1Simulator.html#ab3144a3f24a134bd616e781240aeffc6" target="_top" xlink:title=" ">
<polygon fill="white" stroke="#666666" points="322.62,-44 175.38,-44 175.38,0 322.62,0 322.62,-44"/>
<text text-anchor="start" x="183.38" y="-30.5" font-family="Helvetica,sans-Serif" font-size="10.00">carla::client::detail</text>
<text text-anchor="start" x="183.38" y="-18.5" font-family="Helvetica,sans-Serif" font-size="10.00">::Simulator::UnSubscribeFrom</text>
<text text-anchor="middle" x="249" y="-6.5" font-family="Helvetica,sans-Serif" font-size="10.00">Sensor</text>
</a>
</g>
</g>
<!-- Node1&#45;&gt;Node12 -->
<g id="edge11_Node000001_Node000012" class="edge">
<title>Node1&#45;&gt;Node12</title>
<g id="a_edge11_Node000001_Node000012"><a xlink:title=" ">
<path fill="none" stroke="#63b8ff" d="M430.94,-201.93C413.59,-164.26 376.8,-94.6 326,-53 322.14,-49.84 317.92,-46.97 313.5,-44.36"/>
<polygon fill="#63b8ff" stroke="#63b8ff" points="428.03,-202.97 435.32,-210.65 434.41,-200.09 428.03,-202.97"/>
</a>
</g>
</g>
<!-- Node9 -->
<g id="Node000009" class="node">
<title>Node9</title>
<g id="a_Node000009"><a xlink:href="../../de/d68/classcarla_1_1client_1_1ServerSideSensor.html#a8b8d6cfb406fd98f00390ff017b6df71" target="_top" xlink:title=" ">
<polygon fill="white" stroke="#666666" points="127.38,-169 8.62,-169 8.62,-137 127.38,-137 127.38,-169"/>
<text text-anchor="start" x="16.62" y="-155.5" font-family="Helvetica,sans-Serif" font-size="10.00">carla::client::ServerSide</text>
<text text-anchor="middle" x="68" y="-143.5" font-family="Helvetica,sans-Serif" font-size="10.00">Sensor::Destroy</text>
</a>
</g>
</g>
<!-- Node8&#45;&gt;Node9 -->
<g id="edge8_Node000008_Node000009" class="edge">
<title>Node8&#45;&gt;Node9</title>
<g id="a_edge8_Node000008_Node000009"><a xlink:title=" ">
<path fill="none" stroke="#63b8ff" d="M178.53,-137.7C161.75,-140.05 143.98,-142.53 127.74,-144.8"/>
<polygon fill="#63b8ff" stroke="#63b8ff" points="178.97,-141.04 188.39,-136.19 178,-134.1 178.97,-141.04"/>
</a>
</g>
</g>
<!-- Node10 -->
<g id="Node000010" class="node">
<title>Node10</title>
<g id="a_Node000010"><a xlink:href="../../de/d68/classcarla_1_1client_1_1ServerSideSensor.html#a1201671eeb012dca84d5159d1921512a" target="_top" xlink:title=" ">
<polygon fill="white" stroke="#666666" points="136,-119 0,-119 0,-87 136,-87 136,-119"/>
<text text-anchor="start" x="8" y="-105.5" font-family="Helvetica,sans-Serif" font-size="10.00">carla::client::ServerSide</text>
<text text-anchor="middle" x="68" y="-93.5" font-family="Helvetica,sans-Serif" font-size="10.00">Sensor::~ServerSideSensor</text>
</a>
</g>
</g>
<!-- Node8&#45;&gt;Node10 -->
<g id="edge9_Node000008_Node000010" class="edge">
<title>Node8&#45;&gt;Node10</title>
<g id="a_edge9_Node000008_Node000010"><a xlink:title=" ">
<path fill="none" stroke="#63b8ff" d="M178.89,-118.35C164.95,-116.4 150.32,-114.36 136.44,-112.42"/>
<polygon fill="#63b8ff" stroke="#63b8ff" points="178,-121.9 188.39,-119.81 178.97,-114.96 178,-121.9"/>
</a>
</g>
</g>
</g>
</svg>

<g id="navigator" transform="translate(0 0)" fill="#404254">
  <rect fill="#f2f5e9" fill-opacity="0.5" stroke="#606060" stroke-width=".5" x="0" y="0" width="60" height="60"/>
  <use id="zoomplus" xlink:href="#zoomPlus" x="17" y="9" onmousedown="handleZoom(evt,'in')"/>
  <use id="zoomminus" xlink:href="#zoomMin" x="42" y="9" onmousedown="handleZoom(evt,'out')"/>
  <use id="reset" xlink:href="#resetDef" x="30" y="36" onmousedown="handleReset()"/>
   <use id="arrowup" xlink:href="#arrowUp" x="0" y="0" onmousedown="handlePan(0,-1)"/>
  <use id="arrowright" xlink:href="#arrowRight" x="0" y="0" onmousedown="handlePan(1,0)"/>
  <use id="arrowdown" xlink:href="#arrowDown" x="0" y="0" onmousedown="handlePan(0,1)"/>
  <use id="arrowleft" xlink:href="#arrowLeft" x="0" y="0" onmousedown="handlePan(-1,0)"/>
</g>
<svg viewBox="0 0 15 15" width="100%" height="30px" preserveAspectRatio="xMaxYMin meet">
 <g id="arrow_out" transform="scale(0.3 0.3)">
  <a xlink:href="classcarla_1_1client_1_1detail_1_1ActorState_a90f08c22df7ff985404f5ed89199391c_icgraph_org.svg" target="_base">
   <rect id="button" ry="5" rx="5" y="6" x="6" height="38" width="38"
        fill="#f2f5e9" fill-opacity="0.5" stroke="#606060" stroke-width="1.0"/>
   <path id="arrow"
     d="M 11.500037,31.436501 C 11.940474,20.09759 22.043105,11.32322 32.158766,21.979434 L 37.068811,17.246167 C 37.068811,17.246167 37.088388,32 37.088388,32 L 22.160133,31.978069 C 22.160133,31.978069 26.997745,27.140456 26.997745,27.140456 C 18.528582,18.264221 13.291696,25.230495 11.500037,31.436501 z"
     style="fill:#404040;"/>
  </a>
 </g>
</svg>

<style type='text/css'>
<![CDATA[
[data-mouse-over-selected='false'] { opacity: 0.7; }
[data-mouse-over-selected='true']  { opacity: 1.0; }
]]>
</style>
<script type="application/ecmascript"><![CDATA[
document.addEventListener('DOMContentLoaded', (event) => {
  highlightEdges();
  highlightAdjacentNodes();
});
]]></script>
</svg>
