<?xml version="1.0" encoding="UTF-8" standalone="no"?>
<!DOCTYPE svg PUBLIC "-//W3C//DTD SVG 1.1//EN"
 "http://www.w3.org/Graphics/SVG/1.1/DTD/svg11.dtd">
<!-- Generated by graphviz version 8.1.0 (20230707.0739)
 -->
<!-- Title: carla::client::detail::ActorState::GetParent Pages: 1 -->
<svg width="483pt" height="440pt"
 viewBox="0.00 0.00 482.75 440.00" xmlns="http://www.w3.org/2000/svg" xmlns:xlink="http://www.w3.org/1999/xlink">
<g id="graph0" class="graph" transform="scale(1 1) rotate(0) translate(4 436)">
<title>carla::client::detail::ActorState::GetParent</title>
<!-- Node1 -->
<g id="Node000001" class="node">
<title>Node1</title>
<g id="a_Node000001"><a xlink:title=" ">
<polygon fill="#999999" stroke="#666666" points="474.75,-232 356,-232 356,-200 474.75,-200 474.75,-232"/>
<text text-anchor="start" x="364" y="-218.5" font-family="Helvetica,sans-Serif" font-size="10.00">carla::client::detail</text>
<text text-anchor="middle" x="415.38" y="-206.5" font-family="Helvetica,sans-Serif" font-size="10.00">::ActorState::GetParent</text>
</a>
</g>
</g>
<!-- Node2 -->
<g id="Node000002" class="node">
<title>Node2</title>
<g id="a_Node000002"><a xlink:href="../../d0/d52/classcarla_1_1client_1_1WalkerAIController.html#a9f94fa65bb92ceb91c5516efc6e98944" target="_top" xlink:title=" ">
<polygon fill="white" stroke="#666666" points="314.75,-432 161.5,-432 161.5,-400 314.75,-400 314.75,-432"/>
<text text-anchor="start" x="169.5" y="-418.5" font-family="Helvetica,sans-Serif" font-size="10.00">carla::client::WalkerAIController</text>
<text text-anchor="middle" x="238.12" y="-406.5" font-family="Helvetica,sans-Serif" font-size="10.00">::GoToLocation</text>
</a>
</g>
</g>
<!-- Node1&#45;&gt;Node2 -->
<g id="edge1_Node000001_Node000002" class="edge">
<title>Node1&#45;&gt;Node2</title>
<g id="a_edge1_Node000001_Node000002"><a xlink:title=" ">
<path fill="none" stroke="#63b8ff" d="M407,-242.84C395.08,-281.25 367.93,-351.6 320,-391 316.03,-394.27 311.63,-397.11 306.99,-399.58"/>
<polygon fill="#63b8ff" stroke="#63b8ff" points="410.59,-244.04 410.09,-233.46 403.89,-242.04 410.59,-244.04"/>
</a>
</g>
</g>
<!-- Node3 -->
<g id="Node000003" class="node">
<title>Node3</title>
<g id="a_Node000003"><a xlink:href="../../dc/d47/classcarla_1_1client_1_1LaneInvasionSensor.html#a902a42faeaaeb726d1b3ac1c0510d61d" target="_top" xlink:title="Register a callback to be executed each time a new measurement is received.">
<polygon fill="white" stroke="#666666" points="302,-382 174.25,-382 174.25,-350 302,-350 302,-382"/>
<text text-anchor="start" x="182.25" y="-368.5" font-family="Helvetica,sans-Serif" font-size="10.00">carla::client::LaneInvasion</text>
<text text-anchor="middle" x="238.12" y="-356.5" font-family="Helvetica,sans-Serif" font-size="10.00">Sensor::Listen</text>
</a>
</g>
</g>
<!-- Node1&#45;&gt;Node3 -->
<g id="edge2_Node000001_Node000003" class="edge">
<title>Node1&#45;&gt;Node3</title>
<g id="a_edge2_Node000001_Node000003"><a xlink:title=" ">
<path fill="none" stroke="#63b8ff" d="M401.19,-242.05C385.54,-270.39 356.87,-315.12 320,-341 314.59,-344.8 308.58,-348.04 302.35,-350.79"/>
<polygon fill="#63b8ff" stroke="#63b8ff" points="404.71,-243.88 406.35,-233.41 398.54,-240.57 404.71,-243.88"/>
</a>
</g>
</g>
<!-- Node4 -->
<g id="Node000004" class="node">
<title>Node4</title>
<g id="a_Node000004"><a xlink:href="../../d7/db6/classcarla_1_1client_1_1RssSensor.html#af2dcc2b1ee4a52dbc8e1e7727e3653c4" target="_top" xlink:title="Register a callback to be executed each time a new measurement is received.">
<polygon fill="white" stroke="#666666" points="298.25,-332 178,-332 178,-300 298.25,-300 298.25,-332"/>
<text text-anchor="start" x="186" y="-318.5" font-family="Helvetica,sans-Serif" font-size="10.00">carla::client::RssSensor</text>
<text text-anchor="middle" x="238.12" y="-306.5" font-family="Helvetica,sans-Serif" font-size="10.00">::Listen</text>
</a>
</g>
</g>
<!-- Node1&#45;&gt;Node4 -->
<g id="edge3_Node000001_Node000004" class="edge">
<title>Node1&#45;&gt;Node4</title>
<g id="a_edge3_Node000001_Node000004"><a xlink:title=" ">
<path fill="none" stroke="#63b8ff" d="M390.29,-239.35C372.21,-255.77 346.16,-277.19 320,-291 313.24,-294.57 305.89,-297.72 298.47,-300.47"/>
<polygon fill="#63b8ff" stroke="#63b8ff" points="392.04,-242.56 397,-233.2 387.29,-237.42 392.04,-242.56"/>
</a>
</g>
</g>
<!-- Node5 -->
<g id="Node000005" class="node">
<title>Node5</title>
<g id="a_Node000005"><a xlink:href="../../df/df3/classcarla_1_1client_1_1detail_1_1Simulator.html#a414d306143aa4176218dad033c46553c" target="_top" xlink:title=" ">
<polygon fill="white" stroke="#666666" points="315.88,-282 160.38,-282 160.38,-250 315.88,-250 315.88,-282"/>
<text text-anchor="start" x="168.38" y="-268.5" font-family="Helvetica,sans-Serif" font-size="10.00">carla::client::detail</text>
<text text-anchor="middle" x="238.12" y="-256.5" font-family="Helvetica,sans-Serif" font-size="10.00">::Simulator::RegisterAIController</text>
</a>
</g>
</g>
<!-- Node1&#45;&gt;Node5 -->
<g id="edge4_Node000001_Node000005" class="edge">
<title>Node1&#45;&gt;Node5</title>
<g id="a_edge4_Node000001_Node000005"><a xlink:title=" ">
<path fill="none" stroke="#63b8ff" d="M346.42,-235.39C330.07,-240.05 312.77,-244.99 296.94,-249.51"/>
<polygon fill="#63b8ff" stroke="#63b8ff" points="347.34,-238.48 355.99,-232.37 345.42,-231.75 347.34,-238.48"/>
</a>
</g>
</g>
<!-- Node6 -->
<g id="Node000006" class="node">
<title>Node6</title>
<g id="a_Node000006"><a xlink:href="../../d0/d52/classcarla_1_1client_1_1WalkerAIController.html#a2e7fd6453ff8de47737433ec51bf9da9" target="_top" xlink:title=" ">
<polygon fill="white" stroke="#666666" points="314.75,-232 161.5,-232 161.5,-200 314.75,-200 314.75,-232"/>
<text text-anchor="start" x="169.5" y="-218.5" font-family="Helvetica,sans-Serif" font-size="10.00">carla::client::WalkerAIController</text>
<text text-anchor="middle" x="238.12" y="-206.5" font-family="Helvetica,sans-Serif" font-size="10.00">::SetMaxSpeed</text>
</a>
</g>
</g>
<!-- Node1&#45;&gt;Node6 -->
<g id="edge5_Node000001_Node000006" class="edge">
<title>Node1&#45;&gt;Node6</title>
<g id="a_edge5_Node000001_Node000006"><a xlink:title=" ">
<path fill="none" stroke="#63b8ff" d="M344.74,-216C335.05,-216 325.05,-216 315.24,-216"/>
<polygon fill="#63b8ff" stroke="#63b8ff" points="344.53,-219.5 354.53,-216 344.53,-212.5 344.53,-219.5"/>
</a>
</g>
</g>
<!-- Node7 -->
<g id="Node000007" class="node">
<title>Node7</title>
<g id="a_Node000007"><a xlink:href="../../d0/d52/classcarla_1_1client_1_1WalkerAIController.html#ad5dadd5883e089abfbb4de4abc3dc890" target="_top" xlink:title=" ">
<polygon fill="white" stroke="#666666" points="314.75,-182 161.5,-182 161.5,-150 314.75,-150 314.75,-182"/>
<text text-anchor="start" x="169.5" y="-168.5" font-family="Helvetica,sans-Serif" font-size="10.00">carla::client::WalkerAIController</text>
<text text-anchor="middle" x="238.12" y="-156.5" font-family="Helvetica,sans-Serif" font-size="10.00">::Start</text>
</a>
</g>
</g>
<!-- Node1&#45;&gt;Node7 -->
<g id="edge6_Node000001_Node000007" class="edge">
<title>Node1&#45;&gt;Node7</title>
<g id="a_edge6_Node000001_Node000007"><a xlink:title=" ">
<path fill="none" stroke="#63b8ff" d="M346.42,-196.61C330.07,-191.95 312.77,-187.01 296.94,-182.49"/>
<polygon fill="#63b8ff" stroke="#63b8ff" points="345.42,-200.25 355.99,-199.63 347.34,-193.52 345.42,-200.25"/>
</a>
</g>
</g>
<!-- Node8 -->
<g id="Node000008" class="node">
<title>Node8</title>
<g id="a_Node000008"><a xlink:href="../../d0/d52/classcarla_1_1client_1_1WalkerAIController.html#ad06ab8c1b9ecf8522366eda500bbb8f4" target="_top" xlink:title=" ">
<polygon fill="white" stroke="#666666" points="314.75,-132 161.5,-132 161.5,-100 314.75,-100 314.75,-132"/>
<text text-anchor="start" x="169.5" y="-118.5" font-family="Helvetica,sans-Serif" font-size="10.00">carla::client::WalkerAIController</text>
<text text-anchor="middle" x="238.12" y="-106.5" font-family="Helvetica,sans-Serif" font-size="10.00">::Stop</text>
</a>
</g>
</g>
<!-- Node1&#45;&gt;Node8 -->
<g id="edge7_Node000001_Node000008" class="edge">
<title>Node1&#45;&gt;Node8</title>
<g id="a_edge7_Node000001_Node000008"><a xlink:title=" ">
<path fill="none" stroke="#63b8ff" d="M390.29,-192.65C372.21,-176.23 346.16,-154.81 320,-141 314.02,-137.84 307.58,-135.02 301.04,-132.5"/>
<polygon fill="#63b8ff" stroke="#63b8ff" points="387.29,-194.58 397,-198.8 392.04,-189.44 387.29,-194.58"/>
</a>
</g>
</g>
<!-- Node9 -->
<g id="Node000009" class="node">
<title>Node9</title>
<g id="a_Node000009"><a xlink:href="../../d7/db6/classcarla_1_1client_1_1RssSensor.html#afe634e278e1245d60e7e77d457657e2e" target="_top" xlink:title=" ">
<polygon fill="white" stroke="#666666" points="312.5,-82 163.75,-82 163.75,-50 312.5,-50 312.5,-82"/>
<text text-anchor="start" x="171.75" y="-68.5" font-family="Helvetica,sans-Serif" font-size="10.00">carla::client::RssSensor</text>
<text text-anchor="middle" x="238.12" y="-56.5" font-family="Helvetica,sans-Serif" font-size="10.00">::TickRssSensorThreadLocked</text>
</a>
</g>
</g>
<!-- Node1&#45;&gt;Node9 -->
<g id="edge8_Node000001_Node000009" class="edge">
<title>Node1&#45;&gt;Node9</title>
<g id="a_edge8_Node000001_Node000009"><a xlink:title=" ">
<path fill="none" stroke="#63b8ff" d="M401.19,-189.95C385.54,-161.61 356.87,-116.88 320,-91 315.31,-87.71 310.17,-84.84 304.83,-82.34"/>
<polygon fill="#63b8ff" stroke="#63b8ff" points="398.54,-191.43 406.35,-198.59 404.71,-188.12 398.54,-191.43"/>
</a>
</g>
</g>
<!-- Node11 -->
<g id="Node000011" class="node">
<title>Node11</title>
<g id="a_Node000011"><a xlink:href="../../df/df3/classcarla_1_1client_1_1detail_1_1Simulator.html#a828a2d0b33e3746d6def8095794b8e85" target="_top" xlink:title=" ">
<polygon fill="white" stroke="#666666" points="320,-32 156.25,-32 156.25,0 320,0 320,-32"/>
<text text-anchor="start" x="164.25" y="-18.5" font-family="Helvetica,sans-Serif" font-size="10.00">carla::client::detail</text>
<text text-anchor="middle" x="238.12" y="-6.5" font-family="Helvetica,sans-Serif" font-size="10.00">::Simulator::UnregisterAIController</text>
</a>
</g>
</g>
<!-- Node1&#45;&gt;Node11 -->
<g id="edge10_Node000001_Node000011" class="edge">
<title>Node1&#45;&gt;Node11</title>
<g id="a_edge10_Node000001_Node000011"><a xlink:title=" ">
<path fill="none" stroke="#63b8ff" d="M407,-189.16C395.08,-150.75 367.93,-80.4 320,-41 316.03,-37.73 311.63,-34.89 306.99,-32.42"/>
<polygon fill="#63b8ff" stroke="#63b8ff" points="403.89,-189.96 410.09,-198.54 410.59,-187.96 403.89,-189.96"/>
</a>
</g>
</g>
<!-- Node10 -->
<g id="Node000010" class="node">
<title>Node10</title>
<g id="a_Node000010"><a xlink:href="../../d7/db6/classcarla_1_1client_1_1RssSensor.html#a8c7f3e09bcf07520a2af441a7de06092" target="_top" xlink:title="the acutal sensor tick callback function">
<polygon fill="white" stroke="#666666" points="120.25,-82 0,-82 0,-50 120.25,-50 120.25,-82"/>
<text text-anchor="start" x="8" y="-68.5" font-family="Helvetica,sans-Serif" font-size="10.00">carla::client::RssSensor</text>
<text text-anchor="middle" x="60.12" y="-56.5" font-family="Helvetica,sans-Serif" font-size="10.00">::TickRssSensor</text>
</a>
</g>
</g>
<!-- Node9&#45;&gt;Node10 -->
<g id="edge9_Node000009_Node000010" class="edge">
<title>Node9&#45;&gt;Node10</title>
<g id="a_edge9_Node000009_Node000010"><a xlink:title=" ">
<path fill="none" stroke="#63b8ff" d="M152.53,-66C141.76,-66 130.92,-66 120.66,-66"/>
<polygon fill="#63b8ff" stroke="#63b8ff" points="152.25,-69.5 162.25,-66 152.25,-62.5 152.25,-69.5"/>
</a>
</g>
</g>
</g>
</svg>
