<?xml version="1.0" encoding="UTF-8" standalone="no"?>
<!DOCTYPE svg PUBLIC "-//W3C//DTD SVG 1.1//EN"
 "http://www.w3.org/Graphics/SVG/1.1/DTD/svg11.dtd">
<!-- Generated by graphviz version 8.1.0 (20230707.0739)
 -->
<!-- Title: carla::client::detail::Client::GetEpisodeSettings Pages: 1 -->
<svg width="1083pt" height="240pt"
 viewBox="0.00 0.00 1082.75 240.00" xmlns="http://www.w3.org/2000/svg" xmlns:xlink="http://www.w3.org/1999/xlink">
<g id="graph0" class="graph" transform="scale(1 1) rotate(0) translate(4 236)">
<title>carla::client::detail::Client::GetEpisodeSettings</title>
<!-- Node1 -->
<g id="Node000001" class="node">
<title>Node1</title>
<g id="a_Node000001"><a xlink:title=" ">
<polygon fill="#999999" stroke="#666666" points="1074.75,-69 935,-69 935,-37 1074.75,-37 1074.75,-69"/>
<text text-anchor="start" x="943" y="-55.5" font-family="Helvetica,sans-Serif" font-size="10.00">carla::client::detail</text>
<text text-anchor="middle" x="1004.88" y="-43.5" font-family="Helvetica,sans-Serif" font-size="10.00">::Client::GetEpisodeSettings</text>
</a>
</g>
</g>
<!-- Node2 -->
<g id="Node000002" class="node">
<title>Node2</title>
<g id="a_Node000002"><a xlink:href="../../df/df3/classcarla_1_1client_1_1detail_1_1Simulator.html#ae51eef7fae1a55b31ed1a272d35efbf6" target="_top" xlink:title=" ">
<polygon fill="white" stroke="#666666" points="899,-94 742.75,-94 742.75,-62 899,-62 899,-94"/>
<text text-anchor="start" x="750.75" y="-80.5" font-family="Helvetica,sans-Serif" font-size="10.00">carla::client::detail</text>
<text text-anchor="middle" x="820.88" y="-68.5" font-family="Helvetica,sans-Serif" font-size="10.00">::Simulator::GetEpisodeSettings</text>
</a>
</g>
</g>
<!-- Node1&#45;&gt;Node2 -->
<g id="edge1_Node000001_Node000002" class="edge">
<title>Node1&#45;&gt;Node2</title>
<g id="a_edge1_Node000001_Node000002"><a xlink:title=" ">
<path fill="none" stroke="#63b8ff" d="M923.87,-63.99C915.68,-65.11 907.37,-66.26 899.21,-67.38"/>
<polygon fill="#63b8ff" stroke="#63b8ff" points="924.12,-67.35 933.55,-62.52 923.17,-60.42 924.12,-67.35"/>
</a>
</g>
</g>
<!-- Node6 -->
<g id="Node000006" class="node">
<title>Node6</title>
<g id="a_Node000006"><a xlink:href="../../df/df3/classcarla_1_1client_1_1detail_1_1Simulator.html#ab5481628a75cf422d65b88d557fa57ff" target="_top" xlink:title=" ">
<polygon fill="white" stroke="#666666" points="331.25,-82 205.75,-82 205.75,-50 331.25,-50 331.25,-82"/>
<text text-anchor="start" x="213.75" y="-68.5" font-family="Helvetica,sans-Serif" font-size="10.00">carla::client::detail</text>
<text text-anchor="middle" x="268.5" y="-56.5" font-family="Helvetica,sans-Serif" font-size="10.00">::Simulator::LoadEpisode</text>
</a>
</g>
</g>
<!-- Node1&#45;&gt;Node6 -->
<g id="edge13_Node000001_Node000006" class="edge">
<title>Node1&#45;&gt;Node6</title>
<g id="a_edge13_Node000001_Node000006"><a xlink:title=" ">
<path fill="none" stroke="#63b8ff" d="M923.84,-52.43C872.16,-52.2 803.48,-52.17 742.75,-53 595.23,-55.03 421.91,-60.6 331.5,-63.75"/>
<polygon fill="#63b8ff" stroke="#63b8ff" points="923.58,-55.94 933.6,-52.48 923.62,-48.94 923.58,-55.94"/>
</a>
</g>
</g>
<!-- Node3 -->
<g id="Node000003" class="node">
<title>Node3</title>
<g id="a_Node000003"><a xlink:href="../../df/df3/classcarla_1_1client_1_1detail_1_1Simulator.html#a57c33e4d297be5e0285a14fc8bac65b2" target="_top" xlink:title=" ">
<polygon fill="white" stroke="#666666" points="706.75,-119 562.5,-119 562.5,-75 706.75,-75 706.75,-119"/>
<text text-anchor="start" x="570.5" y="-105.5" font-family="Helvetica,sans-Serif" font-size="10.00">carla::client::detail</text>
<text text-anchor="start" x="570.5" y="-93.5" font-family="Helvetica,sans-Serif" font-size="10.00">::Simulator::GetReadyCurrent</text>
<text text-anchor="middle" x="634.62" y="-81.5" font-family="Helvetica,sans-Serif" font-size="10.00">Episode</text>
</a>
</g>
</g>
<!-- Node2&#45;&gt;Node3 -->
<g id="edge2_Node000002_Node000003" class="edge">
<title>Node2&#45;&gt;Node3</title>
<g id="a_edge2_Node000002_Node000003"><a xlink:title=" ">
<path fill="none" stroke="#63b8ff" d="M731.51,-87.11C723.28,-87.96 715.02,-88.81 706.98,-89.64"/>
<polygon fill="#63b8ff" stroke="#63b8ff" points="731.68,-90.51 741.27,-86 730.96,-83.55 731.68,-90.51"/>
</a>
</g>
</g>
<!-- Node4 -->
<g id="Node000004" class="node">
<title>Node4</title>
<g id="a_Node000004"><a xlink:href="../../df/df3/classcarla_1_1client_1_1detail_1_1Simulator.html#af6e35986ac6ca31bfa0f99df4be2b8d3" target="_top" xlink:title=" ">
<polygon fill="white" stroke="#666666" points="522.75,-179 371,-179 371,-147 522.75,-147 522.75,-179"/>
<text text-anchor="start" x="379" y="-165.5" font-family="Helvetica,sans-Serif" font-size="10.00">carla::client::detail</text>
<text text-anchor="middle" x="446.88" y="-153.5" font-family="Helvetica,sans-Serif" font-size="10.00">::Simulator::GetCurrentEpisode</text>
</a>
</g>
</g>
<!-- Node3&#45;&gt;Node4 -->
<g id="edge3_Node000003_Node000004" class="edge">
<title>Node3&#45;&gt;Node4</title>
<g id="a_edge3_Node000003_Node000004"><a xlink:title=" ">
<path fill="none" stroke="#63b8ff" d="M566.83,-123.25C553.52,-128.28 539.61,-133.41 526.5,-138 518.25,-140.89 509.47,-143.82 500.88,-146.61"/>
<polygon fill="#63b8ff" stroke="#63b8ff" points="567.77,-126.25 575.86,-119.42 565.27,-119.71 567.77,-126.25"/>
</a>
</g>
</g>
<!-- Node3&#45;&gt;Node6 -->
<g id="edge12_Node000003_Node000006" class="edge">
<title>Node3&#45;&gt;Node6</title>
<g id="a_edge12_Node000003_Node000006"><a xlink:title=" ">
<path fill="none" stroke="#63b8ff" d="M551.24,-89.99C484.63,-84.32 392.29,-76.45 331.74,-71.3"/>
<polygon fill="#63b8ff" stroke="#63b8ff" points="550.86,-93.55 561.12,-90.91 551.45,-86.58 550.86,-93.55"/>
</a>
</g>
</g>
<!-- Node12 -->
<g id="Node000012" class="node">
<title>Node12</title>
<g id="a_Node000012"><a xlink:href="../../df/df3/classcarla_1_1client_1_1detail_1_1Simulator.html#aae1f4ab0322223440b1f87d6024d36c3" target="_top" xlink:title=" ">
<polygon fill="white" stroke="#666666" points="526.5,-129 367.25,-129 367.25,-97 526.5,-97 526.5,-129"/>
<text text-anchor="start" x="375.25" y="-115.5" font-family="Helvetica,sans-Serif" font-size="10.00">carla::client::detail</text>
<text text-anchor="middle" x="446.88" y="-103.5" font-family="Helvetica,sans-Serif" font-size="10.00">::Simulator::GetCurrentEpisodeId</text>
</a>
</g>
</g>
<!-- Node3&#45;&gt;Node12 -->
<g id="edge11_Node000003_Node000012" class="edge">
<title>Node3&#45;&gt;Node12</title>
<g id="a_edge11_Node000003_Node000012"><a xlink:title=" ">
<path fill="none" stroke="#63b8ff" d="M551.14,-104.11C543.05,-104.8 534.85,-105.51 526.8,-106.2"/>
<polygon fill="#63b8ff" stroke="#63b8ff" points="551.41,-107.51 561.07,-103.16 550.81,-100.53 551.41,-107.51"/>
</a>
</g>
</g>
<!-- Node5 -->
<g id="Node000005" class="node">
<title>Node5</title>
<g id="a_Node000005"><a xlink:href="../../df/df3/classcarla_1_1client_1_1detail_1_1Simulator.html#a67c2350237e7fdfabd9c08a40034f2bd" target="_top" xlink:title=" ">
<polygon fill="white" stroke="#666666" points="323.75,-182 213.25,-182 213.25,-150 323.75,-150 323.75,-182"/>
<text text-anchor="start" x="221.25" y="-168.5" font-family="Helvetica,sans-Serif" font-size="10.00">carla::client::detail</text>
<text text-anchor="middle" x="268.5" y="-156.5" font-family="Helvetica,sans-Serif" font-size="10.00">::Simulator::GetWorld</text>
</a>
</g>
</g>
<!-- Node4&#45;&gt;Node5 -->
<g id="edge4_Node000004_Node000005" class="edge">
<title>Node4&#45;&gt;Node5</title>
<g id="a_edge4_Node000004_Node000005"><a xlink:title=" ">
<path fill="none" stroke="#63b8ff" d="M359.88,-164.46C347.67,-164.67 335.41,-164.88 324.02,-165.07"/>
<polygon fill="#63b8ff" stroke="#63b8ff" points="359.63,-167.95 369.56,-164.28 359.51,-160.95 359.63,-167.95"/>
</a>
</g>
</g>
<!-- Node4&#45;&gt;Node6 -->
<g id="edge5_Node000004_Node000006" class="edge">
<title>Node4&#45;&gt;Node6</title>
<g id="a_edge5_Node000004_Node000006"><a xlink:title=" ">
<path fill="none" stroke="#63b8ff" d="M372.7,-141.53C370.83,-140.41 369.01,-139.24 367.25,-138 345.72,-122.87 352.18,-106.94 331.25,-91 327.02,-87.78 322.31,-84.9 317.44,-82.36"/>
<polygon fill="#63b8ff" stroke="#63b8ff" points="370.95,-145.09 381.42,-146.68 374.22,-138.9 370.95,-145.09"/>
</a>
</g>
</g>
<!-- Node9 -->
<g id="Node000009" class="node">
<title>Node9</title>
<g id="a_Node000009"><a xlink:href="../../df/df3/classcarla_1_1client_1_1detail_1_1Simulator.html#a5127db735834f03f44930d0edf65527a" target="_top" xlink:title="根据现有参与者的描述创建一个参与者实例。请注意，这不会生成参与者。">
<polygon fill="white" stroke="#666666" points="326.75,-132 210.25,-132 210.25,-100 326.75,-100 326.75,-132"/>
<text text-anchor="start" x="218.25" y="-118.5" font-family="Helvetica,sans-Serif" font-size="10.00">carla::client::detail</text>
<text text-anchor="middle" x="268.5" y="-106.5" font-family="Helvetica,sans-Serif" font-size="10.00">::Simulator::MakeActor</text>
</a>
</g>
</g>
<!-- Node4&#45;&gt;Node9 -->
<g id="edge8_Node000004_Node000009" class="edge">
<title>Node4&#45;&gt;Node9</title>
<g id="a_edge8_Node000004_Node000009"><a xlink:title=" ">
<path fill="none" stroke="#63b8ff" d="M373.58,-143.74C358.07,-139.6 341.88,-135.29 327.01,-131.33"/>
<polygon fill="#63b8ff" stroke="#63b8ff" points="372.62,-147.37 383.19,-146.56 374.43,-140.6 372.62,-147.37"/>
</a>
</g>
</g>
<!-- Node11 -->
<g id="Node000011" class="node">
<title>Node11</title>
<g id="a_Node000011"><a xlink:href="../../df/df3/classcarla_1_1client_1_1detail_1_1Simulator.html#a49a4e44139e9b01e4a16aa1f87ebf828" target="_top" xlink:title="在模拟中生成一个参与者">
<polygon fill="white" stroke="#666666" points="329.38,-232 207.62,-232 207.62,-200 329.38,-200 329.38,-232"/>
<text text-anchor="start" x="215.62" y="-218.5" font-family="Helvetica,sans-Serif" font-size="10.00">carla::client::detail</text>
<text text-anchor="middle" x="268.5" y="-206.5" font-family="Helvetica,sans-Serif" font-size="10.00">::Simulator::SpawnActor</text>
</a>
</g>
</g>
<!-- Node4&#45;&gt;Node11 -->
<g id="edge10_Node000004_Node000011" class="edge">
<title>Node4&#45;&gt;Node11</title>
<g id="a_edge10_Node000004_Node000011"><a xlink:title=" ">
<path fill="none" stroke="#63b8ff" d="M380.62,-182.61C362.11,-188.17 342.14,-194.17 324.31,-199.53"/>
<polygon fill="#63b8ff" stroke="#63b8ff" points="381.47,-185.71 390.04,-179.48 379.45,-179 381.47,-185.71"/>
</a>
</g>
</g>
<!-- Node7 -->
<g id="Node000007" class="node">
<title>Node7</title>
<g id="a_Node000007"><a xlink:href="../../df/df3/classcarla_1_1client_1_1detail_1_1Simulator.html#a9c02ba42b0f621acadcedde6cece26f7" target="_top" xlink:title=" ">
<polygon fill="white" stroke="#666666" points="169.75,-32 0,-32 0,0 169.75,0 169.75,-32"/>
<text text-anchor="start" x="8" y="-18.5" font-family="Helvetica,sans-Serif" font-size="10.00">carla::client::detail</text>
<text text-anchor="middle" x="84.88" y="-6.5" font-family="Helvetica,sans-Serif" font-size="10.00">::Simulator::LoadOpenDriveEpisode</text>
</a>
</g>
</g>
<!-- Node6&#45;&gt;Node7 -->
<g id="edge6_Node000006_Node000007" class="edge">
<title>Node6&#45;&gt;Node7</title>
<g id="a_edge6_Node000006_Node000007"><a xlink:title=" ">
<path fill="none" stroke="#63b8ff" d="M197.31,-46.68C180.25,-41.98 162.16,-37 145.63,-32.45"/>
<polygon fill="#63b8ff" stroke="#63b8ff" points="196.21,-50.28 206.78,-49.56 198.07,-43.53 196.21,-50.28"/>
</a>
</g>
</g>
<!-- Node8 -->
<g id="Node000008" class="node">
<title>Node8</title>
<g id="a_Node000008"><a xlink:href="../../df/df3/classcarla_1_1client_1_1detail_1_1Simulator.html#a3456d71f81301522bdfb013838bc4589" target="_top" xlink:title=" ">
<polygon fill="white" stroke="#666666" points="152.12,-82 17.62,-82 17.62,-50 152.12,-50 152.12,-82"/>
<text text-anchor="start" x="25.62" y="-68.5" font-family="Helvetica,sans-Serif" font-size="10.00">carla::client::detail</text>
<text text-anchor="middle" x="84.88" y="-56.5" font-family="Helvetica,sans-Serif" font-size="10.00">::Simulator::ReloadEpisode</text>
</a>
</g>
</g>
<!-- Node6&#45;&gt;Node8 -->
<g id="edge7_Node000006_Node000008" class="edge">
<title>Node6&#45;&gt;Node8</title>
<g id="a_edge7_Node000006_Node000008"><a xlink:title=" ">
<path fill="none" stroke="#63b8ff" d="M194.53,-66C180.67,-66 166.22,-66 152.56,-66"/>
<polygon fill="#63b8ff" stroke="#63b8ff" points="194.5,-69.5 204.5,-66 194.5,-62.5 194.5,-69.5"/>
</a>
</g>
</g>
<!-- Node10 -->
<g id="Node000010" class="node">
<title>Node10</title>
<g id="a_Node000010"><a xlink:href="../../df/df3/classcarla_1_1client_1_1detail_1_1Simulator.html#a961f59d6b4998debd50c4d5aa931806c" target="_top" xlink:title=" ">
<polygon fill="white" stroke="#666666" points="148.38,-132 21.37,-132 21.37,-100 148.38,-100 148.38,-132"/>
<text text-anchor="start" x="29.38" y="-118.5" font-family="Helvetica,sans-Serif" font-size="10.00">carla::client::detail</text>
<text text-anchor="middle" x="84.88" y="-106.5" font-family="Helvetica,sans-Serif" font-size="10.00">::Simulator::GetSpectator</text>
</a>
</g>
</g>
<!-- Node9&#45;&gt;Node10 -->
<g id="edge9_Node000009_Node000010" class="edge">
<title>Node9&#45;&gt;Node10</title>
<g id="a_edge9_Node000009_Node000010"><a xlink:title=" ">
<path fill="none" stroke="#63b8ff" d="M199.11,-116C182.6,-116 165.04,-116 148.79,-116"/>
<polygon fill="#63b8ff" stroke="#63b8ff" points="198.78,-119.5 208.78,-116 198.78,-112.5 198.78,-119.5"/>
</a>
</g>
</g>
</g>
</svg>
