<?xml version="1.0" encoding="UTF-8" standalone="no"?>
<!DOCTYPE svg PUBLIC "-//W3C//DTD SVG 1.1//EN"
 "http://www.w3.org/Graphics/SVG/1.1/DTD/svg11.dtd">
<!-- Generated by graphviz version 8.1.0 (20230707.0739)
 -->
<!-- Title: carla::road::ForEachLane Pages: 1 -->
<svg width="905pt" height="250pt"
 viewBox="0.00 0.00 905.00 250.00" xmlns="http://www.w3.org/2000/svg" xmlns:xlink="http://www.w3.org/1999/xlink">
<g id="graph0" class="graph" transform="scale(1 1) rotate(0) translate(4 246)">
<title>carla::road::ForEachLane</title>
<!-- Node1 -->
<g id="Node000001" class="node">
<title>Node1</title>
<g id="a_Node000001"><a xlink:title="Return a waypoint for each lane of the specified type on each lane section of road.">
<polygon fill="#999999" stroke="#666666" points="125.5,-117 0,-117 0,-97 125.5,-97 125.5,-117"/>
<text text-anchor="middle" x="62.75" y="-103.5" font-family="Helvetica,sans-Serif" font-size="10.00">carla::road::ForEachLane</text>
</a>
</g>
</g>
<!-- Node2 -->
<g id="Node000002" class="node">
<title>Node2</title>
<g id="a_Node000002"><a xlink:href="../../de/d26/namespacecarla_1_1road.html#aa3fd3e4fda3e33ba219f7a43869a1eb4" target="_top" xlink:title=" ">
<polygon fill="white" stroke="#666666" points="305,-162 161.5,-162 161.5,-142 305,-142 305,-162"/>
<text text-anchor="middle" x="233.25" y="-148.5" font-family="Helvetica,sans-Serif" font-size="10.00">carla::road::ForEachLaneImpl</text>
</a>
</g>
</g>
<!-- Node1&#45;&gt;Node2 -->
<g id="edge1_Node000001_Node000002" class="edge">
<title>Node1&#45;&gt;Node2</title>
<g id="a_edge1_Node000001_Node000002"><a xlink:title=" ">
<path fill="none" stroke="#63b8ff" d="M102.83,-117.44C126.56,-123.78 157.09,-131.93 182.53,-138.72"/>
<polygon fill="#63b8ff" stroke="#63b8ff" points="181.53,-142.34 192.09,-141.54 183.33,-135.58 181.53,-142.34"/>
</a>
</g>
</g>
<!-- Node12 -->
<g id="Node000012" class="node">
<title>Node12</title>
<g id="a_Node000012"><a xlink:href="../../dd/de6/classcarla_1_1road_1_1Road.html#a5fbd6ce83670d0394b56a89f0b7be239" target="_top" xlink:title=" ">
<polygon fill="white" stroke="#666666" points="281.38,-123 185.12,-123 185.12,-91 281.38,-91 281.38,-123"/>
<text text-anchor="start" x="193.12" y="-109.5" font-family="Helvetica,sans-Serif" font-size="10.00">carla::road::Road::</text>
<text text-anchor="middle" x="233.25" y="-97.5" font-family="Helvetica,sans-Serif" font-size="10.00">GetId</text>
</a>
</g>
</g>
<!-- Node1&#45;&gt;Node12 -->
<g id="edge12_Node000001_Node000012" class="edge">
<title>Node1&#45;&gt;Node12</title>
<g id="a_edge12_Node000001_Node000012"><a xlink:title=" ">
<path fill="none" stroke="#63b8ff" d="M125.54,-107C141.41,-107 158.43,-107 174.11,-107"/>
<polygon fill="#63b8ff" stroke="#63b8ff" points="173.72,-110.5 183.72,-107 173.72,-103.5 173.72,-110.5"/>
</a>
</g>
</g>
<!-- Node13 -->
<g id="Node000013" class="node">
<title>Node13</title>
<g id="a_Node000013"><a xlink:href="../../dd/de6/classcarla_1_1road_1_1Road.html#a80c9aa97b820970de38f168c1a7c5a02" target="_top" xlink:title=" ">
<polygon fill="white" stroke="#666666" points="281.38,-70 185.12,-70 185.12,-38 281.38,-38 281.38,-70"/>
<text text-anchor="start" x="193.12" y="-56.5" font-family="Helvetica,sans-Serif" font-size="10.00">carla::road::Road::</text>
<text text-anchor="middle" x="233.25" y="-44.5" font-family="Helvetica,sans-Serif" font-size="10.00">GetLaneSections</text>
</a>
</g>
</g>
<!-- Node1&#45;&gt;Node13 -->
<g id="edge13_Node000001_Node000013" class="edge">
<title>Node1&#45;&gt;Node13</title>
<g id="a_edge13_Node000001_Node000013"><a xlink:title=" ">
<path fill="none" stroke="#63b8ff" d="M97.04,-96.53C119.04,-89.61 148.47,-80.35 174.25,-72.24"/>
<polygon fill="#63b8ff" stroke="#63b8ff" points="175.18,-75.3 183.67,-68.96 173.08,-68.63 175.18,-75.3"/>
</a>
</g>
</g>
<!-- Node3 -->
<g id="Node000003" class="node">
<title>Node3</title>
<g id="a_Node000003"><a xlink:href="../../de/d26/namespacecarla_1_1road.html#aa758d1155efabd76bd25f2178c6e25e1" target="_top" xlink:title=" ">
<polygon fill="white" stroke="#666666" points="470.25,-220 348.5,-220 348.5,-188 470.25,-188 470.25,-220"/>
<text text-anchor="start" x="356.5" y="-206.5" font-family="Helvetica,sans-Serif" font-size="10.00">carla::road::GetDistance</text>
<text text-anchor="middle" x="409.38" y="-194.5" font-family="Helvetica,sans-Serif" font-size="10.00">AtStartOfLane</text>
</a>
</g>
</g>
<!-- Node2&#45;&gt;Node3 -->
<g id="edge2_Node000002_Node000003" class="edge">
<title>Node2&#45;&gt;Node3</title>
<g id="a_edge2_Node000002_Node000003"><a xlink:title=" ">
<path fill="none" stroke="#63b8ff" d="M269.07,-162.4C290.26,-168.73 318.02,-177.02 343.17,-184.53"/>
<polygon fill="#63b8ff" stroke="#63b8ff" points="341.81,-188.07 352.39,-187.58 343.81,-181.36 341.81,-188.07"/>
</a>
</g>
</g>
<!-- Node10 -->
<g id="Node000010" class="node">
<title>Node10</title>
<g id="a_Node000010"><a xlink:href="../../dd/d80/classcarla_1_1road_1_1LaneSection.html#a017821e7d84eca1b84720700fe3ebdb1" target="_top" xlink:title=" ">
<polygon fill="white" stroke="#666666" points="470.25,-170 348.5,-170 348.5,-138 470.25,-138 470.25,-170"/>
<text text-anchor="start" x="356.5" y="-156.5" font-family="Helvetica,sans-Serif" font-size="10.00">carla::road::LaneSection</text>
<text text-anchor="middle" x="409.38" y="-144.5" font-family="Helvetica,sans-Serif" font-size="10.00">::GetId</text>
</a>
</g>
</g>
<!-- Node2&#45;&gt;Node10 -->
<g id="edge10_Node000002_Node000010" class="edge">
<title>Node2&#45;&gt;Node10</title>
<g id="a_edge10_Node000002_Node000010"><a xlink:title=" ">
<path fill="none" stroke="#63b8ff" d="M305.32,-152.82C315.86,-152.94 326.73,-153.06 337.27,-153.18"/>
<polygon fill="#63b8ff" stroke="#63b8ff" points="337.07,-156.69 347.1,-153.31 337.15,-149.69 337.07,-156.69"/>
</a>
</g>
</g>
<!-- Node11 -->
<g id="Node000011" class="node">
<title>Node11</title>
<g id="a_Node000011"><a xlink:href="../../dd/d80/classcarla_1_1road_1_1LaneSection.html#afb698c17b4d62c0df02cf8dae16b8f50" target="_top" xlink:title=" ">
<polygon fill="white" stroke="#666666" points="470.25,-120 348.5,-120 348.5,-88 470.25,-88 470.25,-120"/>
<text text-anchor="start" x="356.5" y="-106.5" font-family="Helvetica,sans-Serif" font-size="10.00">carla::road::LaneSection</text>
<text text-anchor="middle" x="409.38" y="-94.5" font-family="Helvetica,sans-Serif" font-size="10.00">::GetLanes</text>
</a>
</g>
</g>
<!-- Node2&#45;&gt;Node11 -->
<g id="edge11_Node000002_Node000011" class="edge">
<title>Node2&#45;&gt;Node11</title>
<g id="a_edge11_Node000002_Node000011"><a xlink:title=" ">
<path fill="none" stroke="#63b8ff" d="M272.03,-141.58C291.37,-136.25 315.55,-129.59 338.16,-123.36"/>
<polygon fill="#63b8ff" stroke="#63b8ff" points="339.05,-126.47 347.76,-120.43 337.18,-119.72 339.05,-126.47"/>
</a>
</g>
</g>
<!-- Node4 -->
<g id="Node000004" class="node">
<title>Node4</title>
<g id="a_Node000004"><a xlink:href="../../df/d85/classcarla_1_1road_1_1Lane.html#ae02c9441872377fc865c85339df51cbd" target="_top" xlink:title=" ">
<polygon fill="white" stroke="#666666" points="739.25,-242 644.5,-242 644.5,-210 739.25,-210 739.25,-242"/>
<text text-anchor="start" x="652.5" y="-228.5" font-family="Helvetica,sans-Serif" font-size="10.00">carla::road::Lane::</text>
<text text-anchor="middle" x="691.88" y="-216.5" font-family="Helvetica,sans-Serif" font-size="10.00">GetDistance</text>
</a>
</g>
</g>
<!-- Node3&#45;&gt;Node4 -->
<g id="edge3_Node000003_Node000004" class="edge">
<title>Node3&#45;&gt;Node4</title>
<g id="a_edge3_Node000003_Node000004"><a xlink:title=" ">
<path fill="none" stroke="#63b8ff" d="M467.89,-220.46C482.71,-224 498.72,-227.21 513.75,-229 555.57,-233.98 566.4,-229.77 608.5,-229 616.56,-228.85 625.06,-228.63 633.42,-228.36"/>
<polygon fill="#63b8ff" stroke="#63b8ff" points="633.39,-231.83 643.27,-227.99 633.16,-224.83 633.39,-231.83"/>
</a>
</g>
</g>
<!-- Node6 -->
<g id="Node000006" class="node">
<title>Node6</title>
<g id="a_Node000006"><a xlink:href="../../df/d85/classcarla_1_1road_1_1Lane.html#ae1a5f15925f91fca2b5d759fb53901f3" target="_top" xlink:title=" ">
<polygon fill="white" stroke="#666666" points="608.5,-220 513.75,-220 513.75,-188 608.5,-188 608.5,-220"/>
<text text-anchor="start" x="521.75" y="-206.5" font-family="Helvetica,sans-Serif" font-size="10.00">carla::road::Lane::</text>
<text text-anchor="middle" x="561.12" y="-194.5" font-family="Helvetica,sans-Serif" font-size="10.00">GetId</text>
</a>
</g>
</g>
<!-- Node3&#45;&gt;Node6 -->
<g id="edge5_Node000003_Node000006" class="edge">
<title>Node3&#45;&gt;Node6</title>
<g id="a_edge5_Node000003_Node000006"><a xlink:title=" ">
<path fill="none" stroke="#63b8ff" d="M470.42,-204C481.05,-204 492.09,-204 502.65,-204"/>
<polygon fill="#63b8ff" stroke="#63b8ff" points="502.44,-207.5 512.44,-204 502.44,-200.5 502.44,-207.5"/>
</a>
</g>
</g>
<!-- Node7 -->
<g id="Node000007" class="node">
<title>Node7</title>
<g id="a_Node000007"><a xlink:href="../../df/d85/classcarla_1_1road_1_1Lane.html#af158921fdf12a061967943ee2d645481" target="_top" xlink:title=" ">
<polygon fill="white" stroke="#666666" points="608.5,-170 513.75,-170 513.75,-138 608.5,-138 608.5,-170"/>
<text text-anchor="start" x="521.75" y="-156.5" font-family="Helvetica,sans-Serif" font-size="10.00">carla::road::Lane::</text>
<text text-anchor="middle" x="561.12" y="-144.5" font-family="Helvetica,sans-Serif" font-size="10.00">GetLength</text>
</a>
</g>
</g>
<!-- Node3&#45;&gt;Node7 -->
<g id="edge6_Node000003_Node000007" class="edge">
<title>Node3&#45;&gt;Node7</title>
<g id="a_edge6_Node000003_Node000007"><a xlink:title=" ">
<path fill="none" stroke="#63b8ff" d="M459.41,-187.63C473.34,-182.98 488.64,-177.87 503.01,-173.07"/>
<polygon fill="#63b8ff" stroke="#63b8ff" points="503.9,-176.13 512.27,-169.64 501.68,-169.49 503.9,-176.13"/>
</a>
</g>
</g>
<!-- Node5 -->
<g id="Node000005" class="node">
<title>Node5</title>
<g id="a_Node000005"><a xlink:href="../../dd/d80/classcarla_1_1road_1_1LaneSection.html#a2a83bca663a2b7b6388daebed95704a9" target="_top" xlink:title=" ">
<polygon fill="white" stroke="#666666" points="897,-242 775.25,-242 775.25,-210 897,-210 897,-242"/>
<text text-anchor="start" x="783.25" y="-228.5" font-family="Helvetica,sans-Serif" font-size="10.00">carla::road::LaneSection</text>
<text text-anchor="middle" x="836.12" y="-216.5" font-family="Helvetica,sans-Serif" font-size="10.00">::GetDistance</text>
</a>
</g>
</g>
<!-- Node4&#45;&gt;Node5 -->
<g id="edge4_Node000004_Node000005" class="edge">
<title>Node4&#45;&gt;Node5</title>
<g id="a_edge4_Node000004_Node000005"><a xlink:title=" ">
<path fill="none" stroke="#63b8ff" d="M739.45,-226C747.34,-226 755.69,-226 764.03,-226"/>
<polygon fill="#63b8ff" stroke="#63b8ff" points="763.97,-229.5 773.97,-226 763.97,-222.5 763.97,-229.5"/>
</a>
</g>
</g>
<!-- Node7&#45;&gt;Node4 -->
<g id="edge7_Node000007_Node000004" class="edge">
<title>Node7&#45;&gt;Node4</title>
<g id="a_edge7_Node000007_Node000004"><a xlink:title=" ">
<path fill="none" stroke="#63b8ff" d="M592.62,-170.3C597.92,-173.18 603.38,-176.16 608.5,-179 623.12,-187.11 639.11,-196.18 653.07,-204.18"/>
<polygon fill="#63b8ff" stroke="#63b8ff" points="650.96,-207.58 661.38,-209.52 654.45,-201.5 650.96,-207.58"/>
</a>
</g>
</g>
<!-- Node8 -->
<g id="Node000008" class="node">
<title>Node8</title>
<g id="a_Node000008"><a xlink:href="../../df/d85/classcarla_1_1road_1_1Lane.html#a04f454d98f499a700749b8aacc31cfc9" target="_top" xlink:title=" ">
<polygon fill="white" stroke="#666666" points="739.25,-170 644.5,-170 644.5,-138 739.25,-138 739.25,-170"/>
<text text-anchor="start" x="652.5" y="-156.5" font-family="Helvetica,sans-Serif" font-size="10.00">carla::road::Lane::</text>
<text text-anchor="middle" x="691.88" y="-144.5" font-family="Helvetica,sans-Serif" font-size="10.00">GetRoad</text>
</a>
</g>
</g>
<!-- Node7&#45;&gt;Node8 -->
<g id="edge8_Node000007_Node000008" class="edge">
<title>Node7&#45;&gt;Node8</title>
<g id="a_edge8_Node000007_Node000008"><a xlink:title=" ">
<path fill="none" stroke="#63b8ff" d="M608.97,-154C616.88,-154 625.17,-154 633.32,-154"/>
<polygon fill="#63b8ff" stroke="#63b8ff" points="633.28,-157.5 643.28,-154 633.28,-150.5 633.28,-157.5"/>
</a>
</g>
</g>
<!-- Node9 -->
<g id="Node000009" class="node">
<title>Node9</title>
<g id="a_Node000009"><a xlink:href="../../dd/d80/classcarla_1_1road_1_1LaneSection.html#a20f42f8a9aa46a316e50c2defaac1d55" target="_top" xlink:title=" ">
<polygon fill="white" stroke="#666666" points="897,-170 775.25,-170 775.25,-138 897,-138 897,-170"/>
<text text-anchor="start" x="783.25" y="-156.5" font-family="Helvetica,sans-Serif" font-size="10.00">carla::road::LaneSection</text>
<text text-anchor="middle" x="836.12" y="-144.5" font-family="Helvetica,sans-Serif" font-size="10.00">::GetRoad</text>
</a>
</g>
</g>
<!-- Node8&#45;&gt;Node9 -->
<g id="edge9_Node000008_Node000009" class="edge">
<title>Node8&#45;&gt;Node9</title>
<g id="a_edge9_Node000008_Node000009"><a xlink:title=" ">
<path fill="none" stroke="#63b8ff" d="M739.45,-154C747.34,-154 755.69,-154 764.03,-154"/>
<polygon fill="#63b8ff" stroke="#63b8ff" points="763.97,-157.5 773.97,-154 763.97,-150.5 763.97,-157.5"/>
</a>
</g>
</g>
<!-- Node14 -->
<g id="Node000014" class="node">
<title>Node14</title>
<g id="a_Node000014"><a xlink:href="../../de/d22/namespacecarla_1_1iterator.html#ae092052881aef479e69ba5491dd147ec" target="_top" xlink:title="Creates an iterator over const references to the values of a map.">
<polygon fill="white" stroke="#666666" points="477.75,-70 341,-70 341,-38 477.75,-38 477.75,-70"/>
<text text-anchor="start" x="349" y="-56.5" font-family="Helvetica,sans-Serif" font-size="10.00">carla::iterator::make</text>
<text text-anchor="middle" x="409.38" y="-44.5" font-family="Helvetica,sans-Serif" font-size="10.00">_map_values_const_iterator</text>
</a>
</g>
</g>
<!-- Node13&#45;&gt;Node14 -->
<g id="edge14_Node000013_Node000014" class="edge">
<title>Node13&#45;&gt;Node14</title>
<g id="a_edge14_Node000013_Node000014"><a xlink:title=" ">
<path fill="none" stroke="#63b8ff" d="M281.83,-54C296.7,-54 313.52,-54 329.92,-54"/>
<polygon fill="#63b8ff" stroke="#63b8ff" points="329.62,-57.5 339.62,-54 329.62,-50.5 329.62,-57.5"/>
</a>
</g>
</g>
<!-- Node15 -->
<g id="Node000015" class="node">
<title>Node15</title>
<g id="a_Node000015"><a xlink:href="../../d9/d36/namespacecarla.html#a2dc539ffbcff452958f707dc7b0db4d6" target="_top" xlink:title=" ">
<polygon fill="white" stroke="#666666" points="461.25,-20 357.5,-20 357.5,0 461.25,0 461.25,-20"/>
<text text-anchor="middle" x="409.38" y="-6.5" font-family="Helvetica,sans-Serif" font-size="10.00">carla::MakeListView</text>
</a>
</g>
</g>
<!-- Node13&#45;&gt;Node15 -->
<g id="edge15_Node000013_Node000015" class="edge">
<title>Node13&#45;&gt;Node15</title>
<g id="a_edge15_Node000013_Node000015"><a xlink:title=" ">
<path fill="none" stroke="#63b8ff" d="M281.83,-41.98C304.97,-36.13 332.83,-29.09 356.51,-23.11"/>
<polygon fill="#63b8ff" stroke="#63b8ff" points="357.23,-26.28 366.07,-20.44 355.52,-19.49 357.23,-26.28"/>
</a>
</g>
</g>
</g>
</svg>
