<?xml version="1.0" encoding="UTF-8" standalone="no"?>
<!DOCTYPE svg PUBLIC "-//W3C//DTD SVG 1.1//EN"
 "http://www.w3.org/Graphics/SVG/1.1/DTD/svg11.dtd">
<!-- Generated by graphviz version 8.1.0 (20230707.0739)
 -->
<!-- Title: BaseCarlaMovementComponent.cpp Pages: 1 -->
<!--zoomable 288 -->

<svg id="main" version="1.1" xmlns="http://www.w3.org/2000/svg" xmlns:xlink="http://www.w3.org/1999/xlink" xml:space="preserve" onload="init(evt)">
<style type="text/css"><![CDATA[
.node, .edge {opacity: 0.7;}
.node.selected, .edge.selected {opacity: 1;}
.edge:hover path { stroke: red; }
.edge:hover polygon { stroke: red; fill: red; }
]]></style>

<defs>
  <circle id="rim" cx="0" cy="0" r="7"/>
  <circle id="rim2" cx="0" cy="0" r="3.5"/>
  <g id="zoomPlus">
    <use xlink:href="#rim" fill="#404040"><set attributeName="fill" to="#808080" begin="zoomplus.mouseover" end="zoomplus.mouseout"/></use>
    <path d="M-4,0h8M0,-4v8" fill="none" stroke="white" stroke-width="1.5" pointer-events="none"/>
  </g>
  <g id="zoomMin">
    <use xlink:href="#rim" fill="#404040"><set attributeName="fill" to="#808080" begin="zoomminus.mouseover" end="zoomminus.mouseout"/></use>
    <path d="M-4,0h8" fill="none" stroke="white" stroke-width="1.5" pointer-events="none"/>
  </g>
  <g id="arrowUp" transform="translate(30 24)">
    <use xlink:href="#rim"/>
    <path pointer-events="none" fill="none" stroke="white" stroke-width="1.5" d="M0,-3.0v7 M-2.5,-0.5L0,-3.0L2.5,-0.5"/>
  </g>
  <g id="arrowRight" transform="rotate(90) translate(36 -43)">
    <use xlink:href="#rim"/>
    <path pointer-events="none" fill="none" stroke="white" stroke-width="1.5" d="M0,-3.0v7 M-2.5,-0.5L0,-3.0L2.5,-0.5"/>
  </g>
  <g id="arrowDown" transform="rotate(180) translate(-30 -48)">
    <use xlink:href="#rim"/>
    <path pointer-events="none" fill="none" stroke="white" stroke-width="1.5" d="M0,-3.0v7 M-2.5,-0.5L0,-3.0L2.5,-0.5"/>
  </g>
  <g id="arrowLeft" transform="rotate(270) translate(-36 17)">
    <use xlink:href="#rim"/>
    <path pointer-events="none" fill="none" stroke="white" stroke-width="1.5" d="M0,-3.0v7 M-2.5,-0.5L0,-3.0L2.5,-0.5"/>
  </g>
  <g id="resetDef">
    <use xlink:href="#rim2" fill="#404040"><set attributeName="fill" to="#808080" begin="reset.mouseover" end="reset.mouseout"/></use>
  </g>
</defs>
<script type="application/ecmascript">
var viewWidth = 3510;
var viewHeight = 288;
var sectionId = 'dynsection-0';
</script>
<script type="application/ecmascript" xlink:href="../../svg.min.js"/>
<svg id="graph" class="graph">
<g id="viewport">
<title>BaseCarlaMovementComponent.cpp</title>
<!-- Node1 -->
<g id="Node000001" class="node">
<title>Node1</title>
<g id="a_Node000001"><a xlink:title=" ">
<polygon fill="#999999" stroke="#666666" points="3309.38,-280 3135.88,-280 3135.88,-260 3309.38,-260 3309.38,-280"/>
<text text-anchor="middle" x="3222.62" y="-266.5" font-family="Helvetica,sans-Serif" font-size="10.00">BaseCarlaMovementComponent.cpp</text>
</a>
</g>
</g>
<!-- Node2 -->
<g id="Node000002" class="node">
<title>Node2</title>
<g id="a_Node000002"><a xlink:href="../../d6/d10/BaseCarlaMovementComponent_8h.html" target="_top" xlink:title=" ">
<polygon fill="white" stroke="#666666" points="595.12,-150 432.12,-150 432.12,-130 595.12,-130 595.12,-150"/>
<text text-anchor="middle" x="513.62" y="-136.5" font-family="Helvetica,sans-Serif" font-size="10.00">BaseCarlaMovementComponent.h</text>
</a>
</g>
</g>
<!-- Node1&#45;&gt;Node2 -->
<g id="edge1_Node000001_Node000002" class="edge">
<title>Node1&#45;&gt;Node2</title>
<g id="a_edge1_Node000001_Node000002"><a xlink:title=" ">
<path fill="none" stroke="#63b8ff" d="M3135.57,-269.56C2804.68,-270.76 1593.89,-266.84 604.62,-156 595.38,-154.96 585.64,-153.62 576.1,-152.17"/>
<polygon fill="#63b8ff" stroke="#63b8ff" points="576.89,-148.6 566.47,-150.5 575.8,-155.51 576.89,-148.6"/>
</a>
</g>
</g>
<!-- Node7 -->
<g id="Node000007" class="node">
<title>Node7</title>
<g id="a_Node000007"><a xlink:href="../../d3/d00/CarlaWheeledVehicle_8h.html" target="_top" xlink:title=" ">
<polygon fill="white" stroke="#666666" points="1887.38,-224 1749.88,-224 1749.88,-192 1887.38,-192 1887.38,-224"/>
<text text-anchor="start" x="1757.88" y="-210.5" font-family="Helvetica,sans-Serif" font-size="10.00">Carla/Vehicle/CarlaWheeled</text>
<text text-anchor="middle" x="1818.62" y="-198.5" font-family="Helvetica,sans-Serif" font-size="10.00">Vehicle.h</text>
</a>
</g>
</g>
<!-- Node1&#45;&gt;Node7 -->
<g id="edge6_Node000001_Node000007" class="edge">
<title>Node1&#45;&gt;Node7</title>
<g id="a_edge6_Node000001_Node000007"><a xlink:title=" ">
<path fill="none" stroke="#63b8ff" d="M3135.59,-265.28C2881.55,-254.42 2143.55,-222.89 1898.65,-212.42"/>
<polygon fill="#63b8ff" stroke="#63b8ff" points="1898.85,-208.88 1888.71,-211.95 1898.55,-215.88 1898.85,-208.88"/>
</a>
</g>
</g>
<!-- Node42 -->
<g id="Node000042" class="node">
<title>Node42</title>
<g id="a_Node000042"><a xlink:href="../../d2/d02/disable-ue4-macros_8h.html" target="_top" xlink:title=" ">
<polygon fill="white" stroke="#666666" points="3275.25,-224 3170,-224 3170,-192 3275.25,-192 3275.25,-224"/>
<text text-anchor="start" x="3178" y="-210.5" font-family="Helvetica,sans-Serif" font-size="10.00">compiler/disable&#45;ue4</text>
<text text-anchor="middle" x="3222.62" y="-198.5" font-family="Helvetica,sans-Serif" font-size="10.00">&#45;macros.h</text>
</a>
</g>
</g>
<!-- Node1&#45;&gt;Node42 -->
<g id="edge47_Node000001_Node000042" class="edge">
<title>Node1&#45;&gt;Node42</title>
<g id="a_edge47_Node000001_Node000042"><a xlink:title=" ">
<path fill="none" stroke="#63b8ff" d="M3222.62,-259.62C3222.62,-253.02 3222.62,-243.84 3222.62,-235.11"/>
<polygon fill="#63b8ff" stroke="#63b8ff" points="3226.13,-235.14 3222.62,-225.14 3219.13,-235.14 3226.13,-235.14"/>
</a>
</g>
</g>
<!-- Node47 -->
<g id="Node000047" class="node">
<title>Node47</title>
<g id="a_Node000047"><a xlink:href="../../de/d87/Logging_8h.html" target="_top" xlink:title=" ">
<polygon fill="white" stroke="#666666" points="3375.62,-218 3293.62,-218 3293.62,-198 3375.62,-198 3375.62,-218"/>
<text text-anchor="middle" x="3334.62" y="-204.5" font-family="Helvetica,sans-Serif" font-size="10.00">carla/Logging.h</text>
</a>
</g>
</g>
<!-- Node1&#45;&gt;Node47 -->
<g id="edge52_Node000001_Node000047" class="edge">
<title>Node1&#45;&gt;Node47</title>
<g id="a_edge52_Node000001_Node000047"><a xlink:title=" ">
<path fill="none" stroke="#63b8ff" d="M3240.12,-259.62C3258.21,-249.94 3286.67,-234.69 3307.64,-223.46"/>
<polygon fill="#63b8ff" stroke="#63b8ff" points="3309.09,-226.12 3316.25,-218.31 3305.78,-219.95 3309.09,-226.12"/>
</a>
</g>
</g>
<!-- Node50 -->
<g id="Node000050" class="node">
<title>Node50</title>
<g id="a_Node000050"><a xlink:href="../../d9/da2/enable-ue4-macros_8h.html" target="_top" xlink:title=" ">
<polygon fill="white" stroke="#666666" points="3497.12,-224 3394.12,-224 3394.12,-192 3497.12,-192 3497.12,-224"/>
<text text-anchor="start" x="3402.12" y="-210.5" font-family="Helvetica,sans-Serif" font-size="10.00">compiler/enable&#45;ue4</text>
<text text-anchor="middle" x="3445.62" y="-198.5" font-family="Helvetica,sans-Serif" font-size="10.00">&#45;macros.h</text>
</a>
</g>
</g>
<!-- Node1&#45;&gt;Node50 -->
<g id="edge55_Node000001_Node000050" class="edge">
<title>Node1&#45;&gt;Node50</title>
<g id="a_edge55_Node000001_Node000050"><a xlink:title=" ">
<path fill="none" stroke="#63b8ff" d="M3257.47,-259.62C3291.16,-250.56 3342.96,-236.62 3383.68,-225.67"/>
<polygon fill="#63b8ff" stroke="#63b8ff" points="3384.3,-228.86 3393.04,-222.88 3382.48,-222.1 3384.3,-228.86"/>
</a>
</g>
</g>
<!-- Node3 -->
<g id="Node000003" class="node">
<title>Node3</title>
<g id="a_Node000003"><a xlink:title=" ">
<polygon fill="#e0e0e0" stroke="#999999" points="195.25,-82 0,-82 0,-62 195.25,-62 195.25,-82"/>
<text text-anchor="middle" x="97.62" y="-68.5" font-family="Helvetica,sans-Serif" font-size="10.00">GameFramework/MovementComponent.h</text>
</a>
</g>
</g>
<!-- Node2&#45;&gt;Node3 -->
<g id="edge2_Node000002_Node000003" class="edge">
<title>Node2&#45;&gt;Node3</title>
<g id="a_edge2_Node000002_Node000003"><a xlink:title=" ">
<path fill="none" stroke="#63b8ff" d="M454.02,-129.54C378.45,-117.55 248.33,-96.91 167.97,-84.16"/>
<polygon fill="#63b8ff" stroke="#63b8ff" points="168.88,-80.6 158.45,-82.49 167.78,-87.52 168.88,-80.6"/>
</a>
</g>
</g>
<!-- Node4 -->
<g id="Node000004" class="node">
<title>Node4</title>
<g id="a_Node000004"><a xlink:href="../../d4/dbd/Unreal_2CarlaUE4_2Plugins_2Carla_2Source_2Carla_2Vehicle_2VehicleControl_8h.html" target="_top" xlink:title=" ">
<polygon fill="white" stroke="#666666" points="587.62,-82 439.62,-82 439.62,-62 587.62,-62 587.62,-82"/>
<text text-anchor="middle" x="513.62" y="-68.5" font-family="Helvetica,sans-Serif" font-size="10.00">Carla/Vehicle/VehicleControl.h</text>
</a>
</g>
</g>
<!-- Node2&#45;&gt;Node4 -->
<g id="edge3_Node000002_Node000004" class="edge">
<title>Node2&#45;&gt;Node4</title>
<g id="a_edge3_Node000002_Node000004"><a xlink:title=" ">
<path fill="none" stroke="#63b8ff" d="M513.62,-129.54C513.62,-120.13 513.62,-105.39 513.62,-93.32"/>
<polygon fill="#63b8ff" stroke="#63b8ff" points="517.13,-93.44 513.62,-83.44 510.13,-93.44 517.13,-93.44"/>
</a>
</g>
</g>
<!-- Node6 -->
<g id="Node000006" class="node">
<title>Node6</title>
<g id="a_Node000006"><a xlink:title=" ">
<polygon fill="#e0e0e0" stroke="#999999" points="422,-82 213.25,-82 213.25,-62 422,-62 422,-82"/>
<text text-anchor="middle" x="317.62" y="-68.5" font-family="Helvetica,sans-Serif" font-size="10.00">BaseCarlaMovementComponent.generated.h</text>
</a>
</g>
</g>
<!-- Node2&#45;&gt;Node6 -->
<g id="edge5_Node000002_Node000006" class="edge">
<title>Node2&#45;&gt;Node6</title>
<g id="a_edge5_Node000002_Node000006"><a xlink:title=" ">
<path fill="none" stroke="#63b8ff" d="M485.54,-129.54C451.49,-118.08 393.92,-98.69 355.84,-85.87"/>
<polygon fill="#63b8ff" stroke="#63b8ff" points="357.25,-82.31 346.65,-82.44 355.02,-88.95 357.25,-82.31"/>
</a>
</g>
</g>
<!-- Node5 -->
<g id="Node000005" class="node">
<title>Node5</title>
<g id="a_Node000005"><a xlink:title=" ">
<polygon fill="#e0e0e0" stroke="#999999" points="560.12,-20 427.12,-20 427.12,0 560.12,0 560.12,-20"/>
<text text-anchor="middle" x="493.62" y="-6.5" font-family="Helvetica,sans-Serif" font-size="10.00">VehicleControl.generated.h</text>
</a>
</g>
</g>
<!-- Node4&#45;&gt;Node5 -->
<g id="edge4_Node000004_Node000005" class="edge">
<title>Node4&#45;&gt;Node5</title>
<g id="a_edge4_Node000004_Node000005"><a xlink:title=" ">
<path fill="none" stroke="#63b8ff" d="M510.5,-61.62C507.72,-53.3 503.58,-40.86 500.09,-30.4"/>
<polygon fill="#63b8ff" stroke="#63b8ff" points="503.15,-29.49 496.66,-21.11 496.5,-31.71 503.15,-29.49"/>
</a>
</g>
</g>
<!-- Node7&#45;&gt;Node2 -->
<g id="edge40_Node000007_Node000002" class="edge">
<title>Node7&#45;&gt;Node2</title>
<g id="a_edge40_Node000007_Node000002"><a xlink:title=" ">
<path fill="none" stroke="#63b8ff" d="M1749.38,-206.32C1565.5,-204.04 1049.81,-194.42 622.62,-156 610.63,-154.92 597.94,-153.46 585.61,-151.88"/>
<polygon fill="#63b8ff" stroke="#63b8ff" points="586.28,-148.31 575.9,-150.46 585.36,-155.25 586.28,-148.31"/>
</a>
</g>
</g>
<!-- Node7&#45;&gt;Node4 -->
<g id="edge18_Node000007_Node000004" class="edge">
<title>Node7&#45;&gt;Node4</title>
<g id="a_edge18_Node000007_Node000004"><a xlink:title=" ">
<path fill="none" stroke="#63b8ff" d="M1749.41,-205.59C1518.28,-200.65 781.84,-182.95 678.62,-156 650.24,-148.59 578.13,-109.36 539.3,-87.59"/>
<polygon fill="#63b8ff" stroke="#63b8ff" points="541.63,-84.32 531.2,-82.46 538.19,-90.42 541.63,-84.32"/>
</a>
</g>
</g>
<!-- Node8 -->
<g id="Node000008" class="node">
<title>Node8</title>
<g id="a_Node000008"><a xlink:title=" ">
<polygon fill="#e0e0e0" stroke="#999999" points="962,-150 867.25,-150 867.25,-130 962,-130 962,-150"/>
<text text-anchor="middle" x="914.62" y="-136.5" font-family="Helvetica,sans-Serif" font-size="10.00">WheeledVehicle.h</text>
</a>
</g>
</g>
<!-- Node7&#45;&gt;Node8 -->
<g id="edge7_Node000007_Node000008" class="edge">
<title>Node7&#45;&gt;Node8</title>
<g id="a_edge7_Node000007_Node000008"><a xlink:title=" ">
<path fill="none" stroke="#63b8ff" d="M1749.61,-207.03C1605.15,-206.17 1260.65,-199.3 975.62,-156 970.17,-155.17 964.49,-154.08 958.89,-152.87"/>
<polygon fill="#63b8ff" stroke="#63b8ff" points="959.82,-149.27 949.29,-150.43 958.24,-156.09 959.82,-149.27"/>
</a>
</g>
</g>
<!-- Node9 -->
<g id="Node000009" class="node">
<title>Node9</title>
<g id="a_Node000009"><a xlink:href="../../d0/d4d/AckermannController_8h.html" target="_top" xlink:title=" ">
<polygon fill="white" stroke="#666666" points="837.75,-150 687.5,-150 687.5,-130 837.75,-130 837.75,-150"/>
<text text-anchor="middle" x="762.62" y="-136.5" font-family="Helvetica,sans-Serif" font-size="10.00">Vehicle/AckermannController.h</text>
</a>
</g>
</g>
<!-- Node7&#45;&gt;Node9 -->
<g id="edge8_Node000007_Node000009" class="edge">
<title>Node7&#45;&gt;Node9</title>
<g id="a_edge8_Node000007_Node000009"><a xlink:title=" ">
<path fill="none" stroke="#63b8ff" d="M1749.46,-205.74C1591.31,-202.34 1191.25,-190.73 858.62,-156 848.6,-154.95 838.03,-153.58 827.71,-152.08"/>
<polygon fill="#63b8ff" stroke="#63b8ff" points="828.48,-148.51 818.07,-150.49 827.45,-155.44 828.48,-148.51"/>
</a>
</g>
</g>
<!-- Node10 -->
<g id="Node000010" class="node">
<title>Node10</title>
<g id="a_Node000010"><a xlink:href="../../df/d92/Unreal_2CarlaUE4_2Plugins_2Carla_2Source_2Carla_2Vehicle_2AckermannControllerSettings_8h.html" target="_top" xlink:title=" ">
<polygon fill="white" stroke="#666666" points="747.62,-88 605.62,-88 605.62,-56 747.62,-56 747.62,-88"/>
<text text-anchor="start" x="613.62" y="-74.5" font-family="Helvetica,sans-Serif" font-size="10.00">Vehicle/AckermannController</text>
<text text-anchor="middle" x="676.62" y="-62.5" font-family="Helvetica,sans-Serif" font-size="10.00">Settings.h</text>
</a>
</g>
</g>
<!-- Node7&#45;&gt;Node10 -->
<g id="edge14_Node000007_Node000010" class="edge">
<title>Node7&#45;&gt;Node10</title>
<g id="a_edge14_Node000007_Node000010"><a xlink:title=" ">
<path fill="none" stroke="#63b8ff" d="M1749.53,-205.41C1565.15,-200.79 1070.93,-185.75 1003.62,-156 984.94,-147.74 988.86,-133.22 970.62,-124 887.59,-81.99 853.97,-103.25 758.41,-88.2"/>
<polygon fill="#63b8ff" stroke="#63b8ff" points="759.15,-84.6 748.71,-86.4 758,-91.51 759.15,-84.6"/>
</a>
</g>
</g>
<!-- Node12 -->
<g id="Node000012" class="node">
<title>Node12</title>
<g id="a_Node000012"><a xlink:href="../../d7/d1a/Unreal_2CarlaUE4_2Plugins_2Carla_2Source_2Carla_2Vehicle_2VehicleAckermannControl_8h.html" target="_top" xlink:title=" ">
<polygon fill="white" stroke="#666666" points="899.12,-88 766.12,-88 766.12,-56 899.12,-56 899.12,-88"/>
<text text-anchor="start" x="774.12" y="-74.5" font-family="Helvetica,sans-Serif" font-size="10.00">Vehicle/VehicleAckermann</text>
<text text-anchor="middle" x="832.62" y="-62.5" font-family="Helvetica,sans-Serif" font-size="10.00">Control.h</text>
</a>
</g>
</g>
<!-- Node7&#45;&gt;Node12 -->
<g id="edge17_Node000007_Node000012" class="edge">
<title>Node7&#45;&gt;Node12</title>
<g id="a_edge17_Node000007_Node000012"><a xlink:title=" ">
<path fill="none" stroke="#63b8ff" d="M1749.51,-207.41C1585.03,-207.58 1174.56,-203.12 1046.62,-156 1024.27,-147.77 1024.92,-134.68 1003.62,-124 974.27,-109.28 939.91,-98.01 909.71,-89.85"/>
<polygon fill="#63b8ff" stroke="#63b8ff" points="910.79,-86.25 900.22,-87.09 909.01,-93.02 910.79,-86.25"/>
</a>
</g>
</g>
<!-- Node14 -->
<g id="Node000014" class="node">
<title>Node14</title>
<g id="a_Node000014"><a xlink:href="../../d7/dab/CarlaWheeledVehicleState_8h.html" target="_top" xlink:title=" ">
<polygon fill="white" stroke="#666666" points="1199.75,-156 1055.5,-156 1055.5,-124 1199.75,-124 1199.75,-156"/>
<text text-anchor="start" x="1063.5" y="-142.5" font-family="Helvetica,sans-Serif" font-size="10.00">Vehicle/CarlaWheeledVehicle</text>
<text text-anchor="middle" x="1127.62" y="-130.5" font-family="Helvetica,sans-Serif" font-size="10.00">State.h</text>
</a>
</g>
</g>
<!-- Node7&#45;&gt;Node14 -->
<g id="edge15_Node000007_Node000014" class="edge">
<title>Node7&#45;&gt;Node14</title>
<g id="a_edge15_Node000007_Node000014"><a xlink:title=" ">
<path fill="none" stroke="#63b8ff" d="M1749.77,-203.49C1638.52,-197.31 1412.15,-182.72 1210.78,-156.21"/>
<polygon fill="#63b8ff" stroke="#63b8ff" points="1211.37,-152.62 1200.99,-154.77 1210.44,-159.56 1211.37,-152.62"/>
</a>
</g>
</g>
<!-- Node16 -->
<g id="Node000016" class="node">
<title>Node16</title>
<g id="a_Node000016"><a xlink:href="../../d6/d6c/Unreal_2CarlaUE4_2Plugins_2Carla_2Source_2Carla_2Vehicle_2VehicleLightState_8h.html" target="_top" xlink:title=" ">
<polygon fill="white" stroke="#666666" points="1353.62,-150 1217.62,-150 1217.62,-130 1353.62,-130 1353.62,-150"/>
<text text-anchor="middle" x="1285.62" y="-136.5" font-family="Helvetica,sans-Serif" font-size="10.00">Vehicle/VehicleLightState.h</text>
</a>
</g>
</g>
<!-- Node7&#45;&gt;Node16 -->
<g id="edge19_Node000007_Node000016" class="edge">
<title>Node7&#45;&gt;Node16</title>
<g id="a_edge19_Node000007_Node000016"><a xlink:title=" ">
<path fill="none" stroke="#63b8ff" d="M1749.64,-201.04C1660.13,-192.9 1499.24,-176.91 1362.62,-156 1355.75,-154.95 1348.56,-153.72 1341.44,-152.42"/>
<polygon fill="#63b8ff" stroke="#63b8ff" points="1342.59,-148.89 1332.12,-150.5 1341.31,-155.77 1342.59,-148.89"/>
</a>
</g>
</g>
<!-- Node18 -->
<g id="Node000018" class="node">
<title>Node18</title>
<g id="a_Node000018"><a xlink:href="../../db/d8b/VehicleInputPriority_8h.html" target="_top" xlink:title=" ">
<polygon fill="white" stroke="#666666" points="1515.38,-150 1371.88,-150 1371.88,-130 1515.38,-130 1515.38,-150"/>
<text text-anchor="middle" x="1443.62" y="-136.5" font-family="Helvetica,sans-Serif" font-size="10.00">Vehicle/VehicleInputPriority.h</text>
</a>
</g>
</g>
<!-- Node7&#45;&gt;Node18 -->
<g id="edge21_Node000007_Node000018" class="edge">
<title>Node7&#45;&gt;Node18</title>
<g id="a_edge21_Node000007_Node000018"><a xlink:title=" ">
<path fill="none" stroke="#63b8ff" d="M1749.41,-194.82C1680.4,-182.67 1575.28,-164.17 1508.02,-152.33"/>
<polygon fill="#63b8ff" stroke="#63b8ff" points="1509.02,-148.78 1498.56,-150.49 1507.8,-155.67 1509.02,-148.78"/>
</a>
</g>
</g>
<!-- Node21 -->
<g id="Node000021" class="node">
<title>Node21</title>
<g id="a_Node000021"><a xlink:href="../../d3/d90/Unreal_2CarlaUE4_2Plugins_2Carla_2Source_2Carla_2Vehicle_2VehiclePhysicsControl_8h.html" target="_top" xlink:title=" ">
<polygon fill="white" stroke="#666666" points="1739.5,-150 1581.75,-150 1581.75,-130 1739.5,-130 1739.5,-150"/>
<text text-anchor="middle" x="1660.62" y="-136.5" font-family="Helvetica,sans-Serif" font-size="10.00">Vehicle/VehiclePhysicsControl.h</text>
</a>
</g>
</g>
<!-- Node7&#45;&gt;Node21 -->
<g id="edge24_Node000007_Node000021" class="edge">
<title>Node7&#45;&gt;Node21</title>
<g id="a_edge24_Node000007_Node000021"><a xlink:title=" ">
<path fill="none" stroke="#63b8ff" d="M1781.58,-191.53C1754.81,-180.34 1718.97,-165.37 1693.27,-154.64"/>
<polygon fill="#63b8ff" stroke="#63b8ff" points="1694.85,-151.08 1684.27,-150.46 1692.15,-157.54 1694.85,-151.08"/>
</a>
</g>
</g>
<!-- Node25 -->
<g id="Node000025" class="node">
<title>Node25</title>
<g id="a_Node000025"><a xlink:href="../../d6/df3/VehicleVelocityControl_8h.html" target="_top" xlink:title=" ">
<polygon fill="white" stroke="#666666" points="1879.88,-150 1757.38,-150 1757.38,-130 1879.88,-130 1879.88,-150"/>
<text text-anchor="middle" x="1818.62" y="-136.5" font-family="Helvetica,sans-Serif" font-size="10.00">VehicleVelocityControl.h</text>
</a>
</g>
</g>
<!-- Node7&#45;&gt;Node25 -->
<g id="edge28_Node000007_Node000025" class="edge">
<title>Node7&#45;&gt;Node25</title>
<g id="a_edge28_Node000007_Node000025"><a xlink:title=" ">
<path fill="none" stroke="#63b8ff" d="M1818.62,-191.69C1818.62,-182.6 1818.62,-170.95 1818.62,-161.12"/>
<polygon fill="#63b8ff" stroke="#63b8ff" points="1822.13,-161.32 1818.62,-151.32 1815.13,-161.32 1822.13,-161.32"/>
</a>
</g>
</g>
<!-- Node28 -->
<g id="Node000028" class="node">
<title>Node28</title>
<g id="a_Node000028"><a xlink:title=" ">
<polygon fill="#e0e0e0" stroke="#999999" points="2519.75,-82 2441.5,-82 2441.5,-62 2519.75,-62 2519.75,-82"/>
<text text-anchor="middle" x="2480.62" y="-68.5" font-family="Helvetica,sans-Serif" font-size="10.00">CoreMinimal.h</text>
</a>
</g>
</g>
<!-- Node7&#45;&gt;Node28 -->
<g id="edge42_Node000007_Node000028" class="edge">
<title>Node7&#45;&gt;Node28</title>
<g id="a_edge42_Node000007_Node000028"><a xlink:title=" ">
<path fill="none" stroke="#63b8ff" d="M1840.67,-191.54C1854.61,-181.62 1872.89,-168.34 1888.62,-156 1906,-142.38 1906.17,-132.3 1926.62,-124 2031.08,-81.62 2321.86,-108.95 2432.62,-88 2436.3,-87.31 2440.08,-86.42 2443.84,-85.44"/>
<polygon fill="#63b8ff" stroke="#63b8ff" points="2444.6,-88.57 2453.25,-82.45 2442.67,-81.85 2444.6,-88.57"/>
</a>
</g>
</g>
<!-- Node30 -->
<g id="Node000030" class="node">
<title>Node30</title>
<g id="a_Node000030"><a xlink:title=" ">
<polygon fill="#e0e0e0" stroke="#999999" points="2139.38,-150 1935.88,-150 1935.88,-130 2139.38,-130 2139.38,-150"/>
<text text-anchor="middle" x="2037.62" y="-136.5" font-family="Helvetica,sans-Serif" font-size="10.00">WheeledVehicleMovementComponent4W.h</text>
</a>
</g>
</g>
<!-- Node7&#45;&gt;Node30 -->
<g id="edge33_Node000007_Node000030" class="edge">
<title>Node7&#45;&gt;Node30</title>
<g id="a_edge33_Node000007_Node000030"><a xlink:title=" ">
<path fill="none" stroke="#63b8ff" d="M1869.97,-191.53C1908.4,-179.94 1960.3,-164.3 1996.12,-153.51"/>
<polygon fill="#63b8ff" stroke="#63b8ff" points="1996.67,-156.7 2005.23,-150.46 1994.65,-149.99 1996.67,-156.7"/>
</a>
</g>
</g>
<!-- Node31 -->
<g id="Node000031" class="node">
<title>Node31</title>
<g id="a_Node000031"><a xlink:href="../../d0/d34/WheeledVehicleMovementComponentNW_8h.html" target="_top" xlink:title=" ">
<polygon fill="white" stroke="#666666" points="2362.12,-150 2157.12,-150 2157.12,-130 2362.12,-130 2362.12,-150"/>
<text text-anchor="middle" x="2259.62" y="-136.5" font-family="Helvetica,sans-Serif" font-size="10.00">WheeledVehicleMovementComponentNW.h</text>
</a>
</g>
</g>
<!-- Node7&#45;&gt;Node31 -->
<g id="edge34_Node000007_Node000031" class="edge">
<title>Node7&#45;&gt;Node31</title>
<g id="a_edge34_Node000007_Node000031"><a xlink:title=" ">
<path fill="none" stroke="#63b8ff" d="M1887.53,-196.69C1968.53,-184.57 2102.41,-164.53 2185.57,-152.08"/>
<polygon fill="#63b8ff" stroke="#63b8ff" points="2185.83,-155.43 2195.21,-150.49 2184.8,-148.51 2185.83,-155.43"/>
</a>
</g>
</g>
<!-- Node35 -->
<g id="Node000035" class="node">
<title>Node35</title>
<g id="a_Node000035"><a xlink:title=" ">
<polygon fill="#e0e0e0" stroke="#999999" points="2495.5,-150 2379.75,-150 2379.75,-130 2495.5,-130 2495.5,-150"/>
<text text-anchor="middle" x="2437.62" y="-136.5" font-family="Helvetica,sans-Serif" font-size="10.00">VehicleAnimInstance.h</text>
</a>
</g>
</g>
<!-- Node7&#45;&gt;Node35 -->
<g id="edge38_Node000007_Node000035" class="edge">
<title>Node7&#45;&gt;Node35</title>
<g id="a_edge38_Node000007_Node000035"><a xlink:title=" ">
<path fill="none" stroke="#63b8ff" d="M1887.82,-203.46C1992.73,-197.45 2198.07,-183.17 2370.62,-156 2376.44,-155.08 2382.5,-153.96 2388.5,-152.75"/>
<polygon fill="#63b8ff" stroke="#63b8ff" points="2389.11,-155.99 2398.17,-150.5 2387.66,-149.14 2389.11,-155.99"/>
</a>
</g>
</g>
<!-- Node36 -->
<g id="Node000036" class="node">
<title>Node36</title>
<g id="a_Node000036"><a xlink:title=" ">
<polygon fill="#e0e0e0" stroke="#999999" points="2677.5,-156 2513.75,-156 2513.75,-124 2677.5,-124 2677.5,-156"/>
<text text-anchor="start" x="2521.75" y="-142.5" font-family="Helvetica,sans-Serif" font-size="10.00">PhysicsEngine/PhysicsConstraint</text>
<text text-anchor="middle" x="2595.62" y="-130.5" font-family="Helvetica,sans-Serif" font-size="10.00">Component.h</text>
</a>
</g>
</g>
<!-- Node7&#45;&gt;Node36 -->
<g id="edge39_Node000007_Node000036" class="edge">
<title>Node7&#45;&gt;Node36</title>
<g id="a_edge39_Node000007_Node000036"><a xlink:title=" ">
<path fill="none" stroke="#63b8ff" d="M1887.47,-203.92C2009.4,-198.01 2271.52,-183.31 2502.7,-156.16"/>
<polygon fill="#63b8ff" stroke="#63b8ff" points="2502.81,-159.55 2512.33,-154.9 2501.99,-152.6 2502.81,-159.55"/>
</a>
</g>
</g>
<!-- Node37 -->
<g id="Node000037" class="node">
<title>Node37</title>
<g id="a_Node000037"><a xlink:title=" ">
<polygon fill="#e0e0e0" stroke="#999999" points="2834.12,-156 2695.12,-156 2695.12,-124 2834.12,-124 2834.12,-156"/>
<text text-anchor="start" x="2703.12" y="-142.5" font-family="Helvetica,sans-Serif" font-size="10.00">FoliageInstancedStaticMesh</text>
<text text-anchor="middle" x="2764.62" y="-130.5" font-family="Helvetica,sans-Serif" font-size="10.00">Component.h</text>
</a>
</g>
</g>
<!-- Node7&#45;&gt;Node37 -->
<g id="edge41_Node000007_Node000037" class="edge">
<title>Node7&#45;&gt;Node37</title>
<g id="a_edge41_Node000007_Node000037"><a xlink:title=" ">
<path fill="none" stroke="#63b8ff" d="M1887.82,-206.01C2033.52,-203.27 2382.67,-193.19 2684.25,-156.2"/>
<polygon fill="#63b8ff" stroke="#63b8ff" points="2684.46,-159.57 2693.96,-154.87 2683.6,-152.62 2684.46,-159.57"/>
</a>
</g>
</g>
<!-- Node38 -->
<g id="Node000038" class="node">
<title>Node38</title>
<g id="a_Node000038"><a xlink:title=" ">
<polygon fill="#e0e0e0" stroke="#999999" points="2891.25,-150 2852,-150 2852,-130 2891.25,-130 2891.25,-150"/>
<text text-anchor="middle" x="2871.62" y="-136.5" font-family="Helvetica,sans-Serif" font-size="10.00">utility</text>
</a>
</g>
</g>
<!-- Node7&#45;&gt;Node38 -->
<g id="edge43_Node000007_Node000038" class="edge">
<title>Node7&#45;&gt;Node38</title>
<g id="a_edge43_Node000007_Node000038"><a xlink:title=" ">
<path fill="none" stroke="#63b8ff" d="M1887.74,-207.37C2087.35,-207.82 2661.97,-204.75 2842.62,-156 2843.95,-155.64 2845.28,-155.22 2846.61,-154.74"/>
<polygon fill="#63b8ff" stroke="#63b8ff" points="2847.74,-157.63 2855.47,-150.38 2844.91,-151.23 2847.74,-157.63"/>
</a>
</g>
</g>
<!-- Node39 -->
<g id="Node000039" class="node">
<title>Node39</title>
<g id="a_Node000039"><a xlink:href="../../d6/dac/VehicleFailureState_8h.html" target="_top" xlink:title=" ">
<polygon fill="white" stroke="#666666" points="3027.62,-156 2909.62,-156 2909.62,-124 3027.62,-124 3027.62,-156"/>
<text text-anchor="start" x="2917.62" y="-142.5" font-family="Helvetica,sans-Serif" font-size="10.00">carla/rpc/VehicleFailure</text>
<text text-anchor="middle" x="2968.62" y="-130.5" font-family="Helvetica,sans-Serif" font-size="10.00">State.h</text>
</a>
</g>
</g>
<!-- Node7&#45;&gt;Node39 -->
<g id="edge44_Node000007_Node000039" class="edge">
<title>Node7&#45;&gt;Node39</title>
<g id="a_edge44_Node000007_Node000039"><a xlink:title=" ">
<path fill="none" stroke="#63b8ff" d="M1887.66,-207.8C2058.02,-208.9 2512.04,-206.55 2898.55,-156.12"/>
<polygon fill="#63b8ff" stroke="#63b8ff" points="2898.94,-159.46 2908.39,-154.69 2898.02,-152.52 2898.94,-159.46"/>
</a>
</g>
</g>
<!-- Node41 -->
<g id="Node000041" class="node">
<title>Node41</title>
<g id="a_Node000041"><a xlink:title=" ">
<polygon fill="#e0e0e0" stroke="#999999" points="3209.12,-150 3046.12,-150 3046.12,-130 3209.12,-130 3209.12,-150"/>
<text text-anchor="middle" x="3127.62" y="-136.5" font-family="Helvetica,sans-Serif" font-size="10.00">CarlaWheeledVehicle.generated.h</text>
</a>
</g>
</g>
<!-- Node7&#45;&gt;Node41 -->
<g id="edge46_Node000007_Node000041" class="edge">
<title>Node7&#45;&gt;Node41</title>
<g id="a_edge46_Node000007_Node000041"><a xlink:title=" ">
<path fill="none" stroke="#63b8ff" d="M1887.85,-207.04C2074.08,-206.52 2601.09,-200.85 3036.62,-156 3046.33,-155 3056.58,-153.63 3066.55,-152.11"/>
<polygon fill="#63b8ff" stroke="#63b8ff" points="3066.9,-155.44 3076.23,-150.43 3065.81,-148.53 3066.9,-155.44"/>
</a>
</g>
</g>
<!-- Node9&#45;&gt;Node4 -->
<g id="edge13_Node000009_Node000004" class="edge">
<title>Node9&#45;&gt;Node4</title>
<g id="a_edge13_Node000009_Node000004"><a xlink:title=" ">
<path fill="none" stroke="#63b8ff" d="M726.95,-129.54C682.94,-117.88 608.04,-98.03 559.72,-85.22"/>
<polygon fill="#63b8ff" stroke="#63b8ff" points="560.8,-81.62 550.23,-82.44 559,-88.38 560.8,-81.62"/>
</a>
</g>
</g>
<!-- Node9&#45;&gt;Node10 -->
<g id="edge9_Node000009_Node000010" class="edge">
<title>Node9&#45;&gt;Node10</title>
<g id="a_edge9_Node000009_Node000010"><a xlink:title=" ">
<path fill="none" stroke="#63b8ff" d="M750.3,-129.54C738.58,-120.55 720.5,-106.67 705.19,-94.92"/>
<polygon fill="#63b8ff" stroke="#63b8ff" points="707.63,-91.61 697.56,-88.3 703.37,-97.17 707.63,-91.61"/>
</a>
</g>
</g>
<!-- Node9&#45;&gt;Node12 -->
<g id="edge11_Node000009_Node000012" class="edge">
<title>Node9&#45;&gt;Node12</title>
<g id="a_edge11_Node000009_Node000012"><a xlink:title=" ">
<path fill="none" stroke="#63b8ff" d="M772.65,-129.54C782.02,-120.71 796.36,-107.19 808.67,-95.58"/>
<polygon fill="#63b8ff" stroke="#63b8ff" points="810.52,-98.71 815.4,-89.3 805.72,-93.61 810.52,-98.71"/>
</a>
</g>
</g>
<!-- Node11 -->
<g id="Node000011" class="node">
<title>Node11</title>
<g id="a_Node000011"><a xlink:title=" ">
<polygon fill="#e0e0e0" stroke="#999999" points="775,-20 578.25,-20 578.25,0 775,0 775,-20"/>
<text text-anchor="middle" x="676.62" y="-6.5" font-family="Helvetica,sans-Serif" font-size="10.00">AckermannControllerSettings.generated.h</text>
</a>
</g>
</g>
<!-- Node10&#45;&gt;Node11 -->
<g id="edge10_Node000010_Node000011" class="edge">
<title>Node10&#45;&gt;Node11</title>
<g id="a_edge10_Node000010_Node000011"><a xlink:title=" ">
<path fill="none" stroke="#63b8ff" d="M676.62,-55.55C676.62,-48.17 676.62,-39.24 676.62,-31.32"/>
<polygon fill="#63b8ff" stroke="#63b8ff" points="680.13,-31.41 676.62,-21.41 673.13,-31.41 680.13,-31.41"/>
</a>
</g>
</g>
<!-- Node13 -->
<g id="Node000013" class="node">
<title>Node13</title>
<g id="a_Node000013"><a xlink:title=" ">
<polygon fill="#e0e0e0" stroke="#999999" points="975.88,-20 793.38,-20 793.38,0 975.88,0 975.88,-20"/>
<text text-anchor="middle" x="884.62" y="-6.5" font-family="Helvetica,sans-Serif" font-size="10.00">VehicleAckermannControl.generated.h</text>
</a>
</g>
</g>
<!-- Node12&#45;&gt;Node13 -->
<g id="edge12_Node000012_Node000013" class="edge">
<title>Node12&#45;&gt;Node13</title>
<g id="a_edge12_Node000012_Node000013"><a xlink:title=" ">
<path fill="none" stroke="#63b8ff" d="M846.02,-55.55C853.16,-47.3 861.99,-37.12 869.39,-28.57"/>
<polygon fill="#63b8ff" stroke="#63b8ff" points="872.57,-31.26 876.47,-21.41 867.28,-26.67 872.57,-31.26"/>
</a>
</g>
</g>
<!-- Node15 -->
<g id="Node000015" class="node">
<title>Node15</title>
<g id="a_Node000015"><a xlink:title=" ">
<polygon fill="#e0e0e0" stroke="#999999" points="1103.75,-82 917.5,-82 917.5,-62 1103.75,-62 1103.75,-82"/>
<text text-anchor="middle" x="1010.62" y="-68.5" font-family="Helvetica,sans-Serif" font-size="10.00">CarlaWheeledVehicleState.generated.h</text>
</a>
</g>
</g>
<!-- Node14&#45;&gt;Node15 -->
<g id="edge16_Node000014_Node000015" class="edge">
<title>Node14&#45;&gt;Node15</title>
<g id="a_edge16_Node000014_Node000015"><a xlink:title=" ">
<path fill="none" stroke="#63b8ff" d="M1100.19,-123.53C1081.07,-112.74 1055.71,-98.43 1036.86,-87.8"/>
<polygon fill="#63b8ff" stroke="#63b8ff" points="1038.82,-84.32 1028.4,-82.46 1035.39,-90.42 1038.82,-84.32"/>
</a>
</g>
</g>
<!-- Node17 -->
<g id="Node000017" class="node">
<title>Node17</title>
<g id="a_Node000017"><a xlink:title=" ">
<polygon fill="#e0e0e0" stroke="#999999" points="1267.88,-82 1121.38,-82 1121.38,-62 1267.88,-62 1267.88,-82"/>
<text text-anchor="middle" x="1194.62" y="-68.5" font-family="Helvetica,sans-Serif" font-size="10.00">VehicleLightState.generated.h</text>
</a>
</g>
</g>
<!-- Node16&#45;&gt;Node17 -->
<g id="edge20_Node000016_Node000017" class="edge">
<title>Node16&#45;&gt;Node17</title>
<g id="a_edge20_Node000016_Node000017"><a xlink:title=" ">
<path fill="none" stroke="#63b8ff" d="M1272.59,-129.54C1257.86,-118.86 1233.65,-101.31 1216.12,-88.59"/>
<polygon fill="#63b8ff" stroke="#63b8ff" points="1218.79,-85.48 1208.64,-82.44 1214.68,-91.14 1218.79,-85.48"/>
</a>
</g>
</g>
<!-- Node19 -->
<g id="Node000019" class="node">
<title>Node19</title>
<g id="a_Node000019"><a xlink:title=" ">
<polygon fill="#e0e0e0" stroke="#999999" points="1347.5,-82 1285.75,-82 1285.75,-62 1347.5,-62 1347.5,-82"/>
<text text-anchor="middle" x="1316.62" y="-68.5" font-family="Helvetica,sans-Serif" font-size="10.00">type_traits</text>
</a>
</g>
</g>
<!-- Node18&#45;&gt;Node19 -->
<g id="edge22_Node000018_Node000019" class="edge">
<title>Node18&#45;&gt;Node19</title>
<g id="a_edge22_Node000018_Node000019"><a xlink:title=" ">
<path fill="none" stroke="#63b8ff" d="M1425.43,-129.54C1404.21,-118.52 1368.91,-100.17 1344.29,-87.38"/>
<polygon fill="#63b8ff" stroke="#63b8ff" points="1346.27,-83.94 1335.79,-82.44 1343.05,-90.16 1346.27,-83.94"/>
</a>
</g>
</g>
<!-- Node20 -->
<g id="Node000020" class="node">
<title>Node20</title>
<g id="a_Node000020"><a xlink:title=" ">
<polygon fill="#e0e0e0" stroke="#999999" points="1519.62,-82 1365.62,-82 1365.62,-62 1519.62,-62 1519.62,-82"/>
<text text-anchor="middle" x="1442.62" y="-68.5" font-family="Helvetica,sans-Serif" font-size="10.00">VehicleInputPriority.generated.h</text>
</a>
</g>
</g>
<!-- Node18&#45;&gt;Node20 -->
<g id="edge23_Node000018_Node000020" class="edge">
<title>Node18&#45;&gt;Node20</title>
<g id="a_edge23_Node000018_Node000020"><a xlink:title=" ">
<path fill="none" stroke="#63b8ff" d="M1443.48,-129.54C1443.34,-120.13 1443.12,-105.39 1442.93,-93.32"/>
<polygon fill="#63b8ff" stroke="#63b8ff" points="1446.42,-93.38 1442.77,-83.44 1439.42,-93.49 1446.42,-93.38"/>
</a>
</g>
</g>
<!-- Node22 -->
<g id="Node000022" class="node">
<title>Node22</title>
<g id="a_Node000022"><a xlink:href="../../dd/d7d/Unreal_2CarlaUE4_2Plugins_2Carla_2Source_2Carla_2Vehicle_2WheelPhysicsControl_8h.html" target="_top" xlink:title=" ">
<polygon fill="white" stroke="#666666" points="1691.25,-82 1538,-82 1538,-62 1691.25,-62 1691.25,-82"/>
<text text-anchor="middle" x="1614.62" y="-68.5" font-family="Helvetica,sans-Serif" font-size="10.00">Vehicle/WheelPhysicsControl.h</text>
</a>
</g>
</g>
<!-- Node21&#45;&gt;Node22 -->
<g id="edge25_Node000021_Node000022" class="edge">
<title>Node21&#45;&gt;Node22</title>
<g id="a_edge25_Node000021_Node000022"><a xlink:title=" ">
<path fill="none" stroke="#63b8ff" d="M1654.03,-129.54C1647.13,-119.64 1636.12,-103.84 1627.49,-91.46"/>
<polygon fill="#63b8ff" stroke="#63b8ff" points="1629.79,-89.64 1621.2,-83.44 1624.05,-93.64 1629.79,-89.64"/>
</a>
</g>
</g>
<!-- Node24 -->
<g id="Node000024" class="node">
<title>Node24</title>
<g id="a_Node000024"><a xlink:title=" ">
<polygon fill="#e0e0e0" stroke="#999999" points="1877.75,-82 1709.5,-82 1709.5,-62 1877.75,-62 1877.75,-82"/>
<text text-anchor="middle" x="1793.62" y="-68.5" font-family="Helvetica,sans-Serif" font-size="10.00">VehiclePhysicsControl.generated.h</text>
</a>
</g>
</g>
<!-- Node21&#45;&gt;Node24 -->
<g id="edge27_Node000021_Node000024" class="edge">
<title>Node21&#45;&gt;Node24</title>
<g id="a_edge27_Node000021_Node000024"><a xlink:title=" ">
<path fill="none" stroke="#63b8ff" d="M1679.68,-129.54C1702,-118.47 1739.2,-100.01 1765,-87.21"/>
<polygon fill="#63b8ff" stroke="#63b8ff" points="1766.2,-90.02 1773.6,-82.44 1763.09,-83.75 1766.2,-90.02"/>
</a>
</g>
</g>
<!-- Node23 -->
<g id="Node000023" class="node">
<title>Node23</title>
<g id="a_Node000023"><a xlink:title=" ">
<polygon fill="#e0e0e0" stroke="#999999" points="1696.5,-20 1532.75,-20 1532.75,0 1696.5,0 1696.5,-20"/>
<text text-anchor="middle" x="1614.62" y="-6.5" font-family="Helvetica,sans-Serif" font-size="10.00">WheelPhysicsControl.generated.h</text>
</a>
</g>
</g>
<!-- Node22&#45;&gt;Node23 -->
<g id="edge26_Node000022_Node000023" class="edge">
<title>Node22&#45;&gt;Node23</title>
<g id="a_edge26_Node000022_Node000023"><a xlink:title=" ">
<path fill="none" stroke="#63b8ff" d="M1614.62,-61.62C1614.62,-53.48 1614.62,-41.39 1614.62,-31.07"/>
<polygon fill="#63b8ff" stroke="#63b8ff" points="1618.13,-31.11 1614.62,-21.11 1611.13,-31.11 1618.13,-31.11"/>
</a>
</g>
</g>
<!-- Node26 -->
<g id="Node000026" class="node">
<title>Node26</title>
<g id="a_Node000026"><a xlink:title=" ">
<polygon fill="#e0e0e0" stroke="#999999" points="2051,-82 1896.25,-82 1896.25,-62 2051,-62 2051,-82"/>
<text text-anchor="middle" x="1973.62" y="-68.5" font-family="Helvetica,sans-Serif" font-size="10.00">Components/ActorComponent.h</text>
</a>
</g>
</g>
<!-- Node25&#45;&gt;Node26 -->
<g id="edge29_Node000025_Node000026" class="edge">
<title>Node25&#45;&gt;Node26</title>
<g id="a_edge29_Node000025_Node000026"><a xlink:title=" ">
<path fill="none" stroke="#63b8ff" d="M1840.83,-129.54C1867.19,-118.32 1911.35,-99.52 1941.45,-86.7"/>
<polygon fill="#63b8ff" stroke="#63b8ff" points="1942.63,-89.58 1950.46,-82.44 1939.89,-83.14 1942.63,-89.58"/>
</a>
</g>
</g>
<!-- Node27 -->
<g id="Node000027" class="node">
<title>Node27</title>
<g id="a_Node000027"><a xlink:title=" ">
<polygon fill="#e0e0e0" stroke="#999999" points="2237.75,-82 2069.5,-82 2069.5,-62 2237.75,-62 2237.75,-82"/>
<text text-anchor="middle" x="2153.62" y="-68.5" font-family="Helvetica,sans-Serif" font-size="10.00">Components/PrimitiveComponent.h</text>
</a>
</g>
</g>
<!-- Node25&#45;&gt;Node27 -->
<g id="edge30_Node000025_Node000027" class="edge">
<title>Node25&#45;&gt;Node27</title>
<g id="a_edge30_Node000025_Node000027"><a xlink:title=" ">
<path fill="none" stroke="#63b8ff" d="M1865.83,-129.53C1875.05,-127.69 1884.64,-125.78 1893.62,-124 1962.65,-110.33 2042.01,-94.79 2094.71,-84.49"/>
<polygon fill="#63b8ff" stroke="#63b8ff" points="2095.07,-87.79 2104.22,-82.44 2093.73,-80.92 2095.07,-87.79"/>
</a>
</g>
</g>
<!-- Node25&#45;&gt;Node28 -->
<g id="edge31_Node000025_Node000028" class="edge">
<title>Node25&#45;&gt;Node28</title>
<g id="a_edge31_Node000025_Node000028"><a xlink:title=" ">
<path fill="none" stroke="#63b8ff" d="M1860.9,-129.54C1871.54,-127.44 1882.96,-125.42 1893.62,-124 2131.62,-92.39 2196.62,-132.11 2432.62,-88 2436.3,-87.31 2440.08,-86.44 2443.84,-85.45"/>
<polygon fill="#63b8ff" stroke="#63b8ff" points="2444.6,-88.59 2453.25,-82.47 2442.67,-81.86 2444.6,-88.59"/>
</a>
</g>
</g>
<!-- Node29 -->
<g id="Node000029" class="node">
<title>Node29</title>
<g id="a_Node000029"><a xlink:title=" ">
<polygon fill="#e0e0e0" stroke="#999999" points="2423.75,-82 2255.5,-82 2255.5,-62 2423.75,-62 2423.75,-82"/>
<text text-anchor="middle" x="2339.62" y="-68.5" font-family="Helvetica,sans-Serif" font-size="10.00">VehicleVelocityControl.generated.h</text>
</a>
</g>
</g>
<!-- Node25&#45;&gt;Node29 -->
<g id="edge32_Node000025_Node000029" class="edge">
<title>Node25&#45;&gt;Node29</title>
<g id="a_edge32_Node000025_Node000029"><a xlink:title=" ">
<path fill="none" stroke="#63b8ff" d="M1862.13,-129.57C1872.42,-127.54 1883.38,-125.54 1893.62,-124 2049.57,-100.51 2090.27,-108.56 2246.62,-88 2255.27,-86.86 2264.35,-85.55 2273.31,-84.18"/>
<polygon fill="#63b8ff" stroke="#63b8ff" points="2273.79,-87.49 2283.13,-82.49 2272.71,-80.58 2273.79,-87.49"/>
</a>
</g>
</g>
<!-- Node32 -->
<g id="Node000032" class="node">
<title>Node32</title>
<g id="a_Node000032"><a xlink:title=" ">
<polygon fill="#e0e0e0" stroke="#999999" points="2725.88,-82 2537.38,-82 2537.38,-62 2725.88,-62 2725.88,-82"/>
<text text-anchor="middle" x="2631.62" y="-68.5" font-family="Helvetica,sans-Serif" font-size="10.00">WheeledVehicleMovementComponent.h</text>
</a>
</g>
</g>
<!-- Node31&#45;&gt;Node32 -->
<g id="edge35_Node000031_Node000032" class="edge">
<title>Node31&#45;&gt;Node32</title>
<g id="a_edge35_Node000031_Node000032"><a xlink:title=" ">
<path fill="none" stroke="#63b8ff" d="M2312.92,-129.54C2380.09,-117.63 2495.44,-97.16 2567.4,-84.4"/>
<polygon fill="#63b8ff" stroke="#63b8ff" points="2567.89,-87.69 2577.12,-82.49 2566.67,-80.79 2567.89,-87.69"/>
</a>
</g>
</g>
<!-- Node33 -->
<g id="Node000033" class="node">
<title>Node33</title>
<g id="a_Node000033"><a xlink:title=" ">
<polygon fill="#e0e0e0" stroke="#999999" points="2845.75,-82 2743.5,-82 2743.5,-62 2845.75,-62 2845.75,-82"/>
<text text-anchor="middle" x="2794.62" y="-68.5" font-family="Helvetica,sans-Serif" font-size="10.00">Curves/CurveFloat.h</text>
</a>
</g>
</g>
<!-- Node31&#45;&gt;Node33 -->
<g id="edge36_Node000031_Node000033" class="edge">
<title>Node31&#45;&gt;Node33</title>
<g id="a_edge36_Node000031_Node000033"><a xlink:title=" ">
<path fill="none" stroke="#63b8ff" d="M2326.79,-129.53C2341.23,-127.6 2356.43,-125.66 2370.62,-124 2532.09,-105.11 2574.45,-115.79 2734.62,-88 2739.65,-87.13 2744.88,-86.06 2750.06,-84.91"/>
<polygon fill="#63b8ff" stroke="#63b8ff" points="2750.61,-88.14 2759.54,-82.44 2749.01,-81.32 2750.61,-88.14"/>
</a>
</g>
</g>
<!-- Node34 -->
<g id="Node000034" class="node">
<title>Node34</title>
<g id="a_Node000034"><a xlink:title=" ">
<polygon fill="#e0e0e0" stroke="#999999" points="3043.75,-88 2863.5,-88 2863.5,-56 3043.75,-56 3043.75,-88"/>
<text text-anchor="start" x="2871.5" y="-74.5" font-family="Helvetica,sans-Serif" font-size="10.00">WheeledVehicleMovementComponent</text>
<text text-anchor="middle" x="2953.62" y="-62.5" font-family="Helvetica,sans-Serif" font-size="10.00">NW.generated.h</text>
</a>
</g>
</g>
<!-- Node31&#45;&gt;Node34 -->
<g id="edge37_Node000031_Node000034" class="edge">
<title>Node31&#45;&gt;Node34</title>
<g id="a_edge37_Node000031_Node000034"><a xlink:title=" ">
<path fill="none" stroke="#63b8ff" d="M2324.99,-129.5C2339.96,-127.51 2355.83,-125.55 2370.62,-124 2581.7,-101.91 2638.46,-111.84 2852.39,-88.2"/>
<polygon fill="#63b8ff" stroke="#63b8ff" points="2852.47,-91.6 2862.02,-87.01 2851.7,-84.64 2852.47,-91.6"/>
</a>
</g>
</g>
<!-- Node40 -->
<g id="Node000040" class="node">
<title>Node40</title>
<g id="a_Node000040"><a xlink:title=" ">
<polygon fill="#e0e0e0" stroke="#999999" points="3107.25,-82 3062,-82 3062,-62 3107.25,-62 3107.25,-82"/>
<text text-anchor="middle" x="3084.62" y="-68.5" font-family="Helvetica,sans-Serif" font-size="10.00">cstdint</text>
</a>
</g>
</g>
<!-- Node39&#45;&gt;Node40 -->
<g id="edge45_Node000039_Node000040" class="edge">
<title>Node39&#45;&gt;Node40</title>
<g id="a_edge45_Node000039_Node000040"><a xlink:title=" ">
<path fill="none" stroke="#63b8ff" d="M2995.82,-123.53C3014.78,-112.74 3039.93,-98.43 3058.62,-87.8"/>
<polygon fill="#63b8ff" stroke="#63b8ff" points="3060.04,-90.45 3067,-82.46 3056.58,-84.36 3060.04,-90.45"/>
</a>
</g>
</g>
<!-- Node43 -->
<g id="Node000043" class="node">
<title>Node43</title>
<g id="a_Node000043"><a xlink:href="../../d7/d7d/Carla_8h.html" target="_top" xlink:title=" ">
<polygon fill="white" stroke="#666666" points="3274,-150 3227.25,-150 3227.25,-130 3274,-130 3274,-150"/>
<text text-anchor="middle" x="3250.62" y="-136.5" font-family="Helvetica,sans-Serif" font-size="10.00">Carla.h</text>
</a>
</g>
</g>
<!-- Node42&#45;&gt;Node43 -->
<g id="edge48_Node000042_Node000043" class="edge">
<title>Node42&#45;&gt;Node43</title>
<g id="a_edge48_Node000042_Node000043"><a xlink:title=" ">
<path fill="none" stroke="#63b8ff" d="M3229.12,-191.69C3233.11,-182.3 3238.24,-170.18 3242.5,-160.15"/>
<polygon fill="#63b8ff" stroke="#63b8ff" points="3245.99,-161.89 3246.67,-151.32 3239.55,-159.16 3245.99,-161.89"/>
</a>
</g>
</g>
<!-- Node44 -->
<g id="Node000044" class="node">
<title>Node44</title>
<g id="a_Node000044"><a xlink:href="../../d4/d57/Unreal_2CarlaUE4_2Plugins_2Carla_2Source_2Carla_2Util_2NonCopyable_8h.html" target="_top" xlink:title=" ">
<polygon fill="white" stroke="#666666" points="3224.25,-82 3125,-82 3125,-62 3224.25,-62 3224.25,-82"/>
<text text-anchor="middle" x="3174.62" y="-68.5" font-family="Helvetica,sans-Serif" font-size="10.00">Util/NonCopyable.h</text>
</a>
</g>
</g>
<!-- Node43&#45;&gt;Node44 -->
<g id="edge49_Node000043_Node000044" class="edge">
<title>Node43&#45;&gt;Node44</title>
<g id="a_edge49_Node000043_Node000044"><a xlink:title=" ">
<path fill="none" stroke="#63b8ff" d="M3239.74,-129.54C3227.77,-119.15 3208.33,-102.27 3193.79,-89.65"/>
<polygon fill="#63b8ff" stroke="#63b8ff" points="3196.34,-86.35 3186.49,-82.44 3191.75,-91.64 3196.34,-86.35"/>
</a>
</g>
</g>
<!-- Node45 -->
<g id="Node000045" class="node">
<title>Node45</title>
<g id="a_Node000045"><a xlink:title=" ">
<polygon fill="#e0e0e0" stroke="#999999" points="3351.12,-82 3242.12,-82 3242.12,-62 3351.12,-62 3351.12,-82"/>
<text text-anchor="middle" x="3296.62" y="-68.5" font-family="Helvetica,sans-Serif" font-size="10.00">Logging/LogMacros.h</text>
</a>
</g>
</g>
<!-- Node43&#45;&gt;Node45 -->
<g id="edge50_Node000043_Node000045" class="edge">
<title>Node43&#45;&gt;Node45</title>
<g id="a_edge50_Node000043_Node000045"><a xlink:title=" ">
<path fill="none" stroke="#63b8ff" d="M3257.22,-129.54C3264.12,-119.64 3275.13,-103.84 3283.76,-91.46"/>
<polygon fill="#63b8ff" stroke="#63b8ff" points="3287.2,-93.64 3290.05,-83.44 3281.46,-89.64 3287.2,-93.64"/>
</a>
</g>
</g>
<!-- Node46 -->
<g id="Node000046" class="node">
<title>Node46</title>
<g id="a_Node000046"><a xlink:title=" ">
<polygon fill="#e0e0e0" stroke="#999999" points="3501.75,-82 3369.5,-82 3369.5,-62 3501.75,-62 3501.75,-82"/>
<text text-anchor="middle" x="3435.62" y="-68.5" font-family="Helvetica,sans-Serif" font-size="10.00">Modules/ModuleInterface.h</text>
</a>
</g>
</g>
<!-- Node43&#45;&gt;Node46 -->
<g id="edge51_Node000043_Node000046" class="edge">
<title>Node43&#45;&gt;Node46</title>
<g id="a_edge51_Node000043_Node000046"><a xlink:title=" ">
<path fill="none" stroke="#63b8ff" d="M3270.38,-129.62C3274.71,-127.68 3279.29,-125.71 3283.62,-124 3320.46,-109.49 3363.28,-95.36 3394.07,-85.67"/>
<polygon fill="#63b8ff" stroke="#63b8ff" points="3394.93,-88.76 3403.43,-82.43 3392.84,-82.07 3394.93,-88.76"/>
</a>
</g>
</g>
<!-- Node48 -->
<g id="Node000048" class="node">
<title>Node48</title>
<g id="a_Node000048"><a xlink:href="../../d9/dd0/Platform_8h.html" target="_top" xlink:title=" ">
<polygon fill="white" stroke="#666666" points="3376.75,-150 3292.5,-150 3292.5,-130 3376.75,-130 3376.75,-150"/>
<text text-anchor="middle" x="3334.62" y="-136.5" font-family="Helvetica,sans-Serif" font-size="10.00">carla/Platform.h</text>
</a>
</g>
</g>
<!-- Node47&#45;&gt;Node48 -->
<g id="edge53_Node000047_Node000048" class="edge">
<title>Node47&#45;&gt;Node48</title>
<g id="a_edge53_Node000047_Node000048"><a xlink:title=" ">
<path fill="none" stroke="#63b8ff" d="M3334.62,-197.54C3334.62,-188.13 3334.62,-173.39 3334.62,-161.32"/>
<polygon fill="#63b8ff" stroke="#63b8ff" points="3338.13,-161.44 3334.62,-151.44 3331.13,-161.44 3338.13,-161.44"/>
</a>
</g>
</g>
<!-- Node49 -->
<g id="Node000049" class="node">
<title>Node49</title>
<g id="a_Node000049"><a xlink:title=" ">
<polygon fill="#e0e0e0" stroke="#999999" points="3448.38,-150 3394.88,-150 3394.88,-130 3448.38,-130 3448.38,-150"/>
<text text-anchor="middle" x="3421.62" y="-136.5" font-family="Helvetica,sans-Serif" font-size="10.00">iostream</text>
</a>
</g>
</g>
<!-- Node47&#45;&gt;Node49 -->
<g id="edge54_Node000047_Node000049" class="edge">
<title>Node47&#45;&gt;Node49</title>
<g id="a_edge54_Node000047_Node000049"><a xlink:title=" ">
<path fill="none" stroke="#63b8ff" d="M3347.09,-197.54C3361.04,-186.96 3383.89,-169.63 3400.62,-156.94"/>
<polygon fill="#63b8ff" stroke="#63b8ff" points="3402.33,-159.27 3408.18,-150.44 3398.1,-153.69 3402.33,-159.27"/>
</a>
</g>
</g>
</g>
</svg>

<g id="navigator" transform="translate(0 0)" fill="#404254">
  <rect fill="#f2f5e9" fill-opacity="0.5" stroke="#606060" stroke-width=".5" x="0" y="0" width="60" height="60"/>
  <use id="zoomplus" xlink:href="#zoomPlus" x="17" y="9" onmousedown="handleZoom(evt,'in')"/>
  <use id="zoomminus" xlink:href="#zoomMin" x="42" y="9" onmousedown="handleZoom(evt,'out')"/>
  <use id="reset" xlink:href="#resetDef" x="30" y="36" onmousedown="handleReset()"/>
   <use id="arrowup" xlink:href="#arrowUp" x="0" y="0" onmousedown="handlePan(0,-1)"/>
  <use id="arrowright" xlink:href="#arrowRight" x="0" y="0" onmousedown="handlePan(1,0)"/>
  <use id="arrowdown" xlink:href="#arrowDown" x="0" y="0" onmousedown="handlePan(0,1)"/>
  <use id="arrowleft" xlink:href="#arrowLeft" x="0" y="0" onmousedown="handlePan(-1,0)"/>
</g>
<svg viewBox="0 0 15 15" width="100%" height="30px" preserveAspectRatio="xMaxYMin meet">
 <g id="arrow_out" transform="scale(0.3 0.3)">
  <a xlink:href="BaseCarlaMovementComponent_8cpp__incl_org.svg" target="_base">
   <rect id="button" ry="5" rx="5" y="6" x="6" height="38" width="38"
        fill="#f2f5e9" fill-opacity="0.5" stroke="#606060" stroke-width="1.0"/>
   <path id="arrow"
     d="M 11.500037,31.436501 C 11.940474,20.09759 22.043105,11.32322 32.158766,21.979434 L 37.068811,17.246167 C 37.068811,17.246167 37.088388,32 37.088388,32 L 22.160133,31.978069 C 22.160133,31.978069 26.997745,27.140456 26.997745,27.140456 C 18.528582,18.264221 13.291696,25.230495 11.500037,31.436501 z"
     style="fill:#404040;"/>
  </a>
 </g>
</svg>

<style type='text/css'>
<![CDATA[
[data-mouse-over-selected='false'] { opacity: 0.7; }
[data-mouse-over-selected='true']  { opacity: 1.0; }
]]>
</style>
<script type="application/ecmascript"><![CDATA[
document.addEventListener('DOMContentLoaded', (event) => {
  highlightEdges();
  highlightAdjacentNodes();
});
]]></script>
</svg>
