<?xml version="1.0" encoding="UTF-8" standalone="no"?>
<!DOCTYPE svg PUBLIC "-//W3C//DTD SVG 1.1//EN"
 "http://www.w3.org/Graphics/SVG/1.1/DTD/svg11.dtd">
<!-- Generated by graphviz version 8.1.0 (20230707.0739)
 -->
<!-- Title: ATrafficLightGroup Pages: 1 -->
<!--zoomable 108 -->

<svg id="main" version="1.1" xmlns="http://www.w3.org/2000/svg" xmlns:xlink="http://www.w3.org/1999/xlink" xml:space="preserve" onload="init(evt)">
<style type="text/css"><![CDATA[
.node, .edge {opacity: 0.7;}
.node.selected, .edge.selected {opacity: 1;}
.edge:hover path { stroke: red; }
.edge:hover polygon { stroke: red; fill: red; }
]]></style>

<defs>
  <circle id="rim" cx="0" cy="0" r="7"/>
  <circle id="rim2" cx="0" cy="0" r="3.5"/>
  <g id="zoomPlus">
    <use xlink:href="#rim" fill="#404040"><set attributeName="fill" to="#808080" begin="zoomplus.mouseover" end="zoomplus.mouseout"/></use>
    <path d="M-4,0h8M0,-4v8" fill="none" stroke="white" stroke-width="1.5" pointer-events="none"/>
  </g>
  <g id="zoomMin">
    <use xlink:href="#rim" fill="#404040"><set attributeName="fill" to="#808080" begin="zoomminus.mouseover" end="zoomminus.mouseout"/></use>
    <path d="M-4,0h8" fill="none" stroke="white" stroke-width="1.5" pointer-events="none"/>
  </g>
  <g id="arrowUp" transform="translate(30 24)">
    <use xlink:href="#rim"/>
    <path pointer-events="none" fill="none" stroke="white" stroke-width="1.5" d="M0,-3.0v7 M-2.5,-0.5L0,-3.0L2.5,-0.5"/>
  </g>
  <g id="arrowRight" transform="rotate(90) translate(36 -43)">
    <use xlink:href="#rim"/>
    <path pointer-events="none" fill="none" stroke="white" stroke-width="1.5" d="M0,-3.0v7 M-2.5,-0.5L0,-3.0L2.5,-0.5"/>
  </g>
  <g id="arrowDown" transform="rotate(180) translate(-30 -48)">
    <use xlink:href="#rim"/>
    <path pointer-events="none" fill="none" stroke="white" stroke-width="1.5" d="M0,-3.0v7 M-2.5,-0.5L0,-3.0L2.5,-0.5"/>
  </g>
  <g id="arrowLeft" transform="rotate(270) translate(-36 17)">
    <use xlink:href="#rim"/>
    <path pointer-events="none" fill="none" stroke="white" stroke-width="1.5" d="M0,-3.0v7 M-2.5,-0.5L0,-3.0L2.5,-0.5"/>
  </g>
  <g id="resetDef">
    <use xlink:href="#rim2" fill="#404040"><set attributeName="fill" to="#808080" begin="reset.mouseover" end="reset.mouseout"/></use>
  </g>
</defs>
<script type="application/ecmascript">
var viewWidth = 558;
var viewHeight = 108;
var sectionId = 'dynsection-1';
</script>
<script type="application/ecmascript" xlink:href="../../svg.min.js"/>
<svg id="graph" class="graph">
<g id="viewport">
<title>ATrafficLightGroup</title>
<!-- Node1 -->
<g id="Node000001" class="node">
<title>Node1</title>
<g id="a_Node000001"><a xlink:title="Class which implements the state changing of traffic lights">
<polygon fill="#999999" stroke="#666666" points="311.75,-20 216.25,-20 216.25,0 311.75,0 311.75,-20"/>
<text text-anchor="middle" x="264" y="-6.5" font-family="Helvetica,sans-Serif" font-size="10.00">ATrafficLightGroup</text>
</a>
</g>
</g>
<!-- Node2 -->
<g id="Node000002" class="node">
<title>Node2</title>
<g id="a_Node000002"><a xlink:href="../../d1/da4/classAActor.html" target="_top" xlink:title=" ">
<polygon fill="white" stroke="#666666" points="46,-100 0,-100 0,-80 46,-80 46,-100"/>
<text text-anchor="middle" x="23" y="-86.5" font-family="Helvetica,sans-Serif" font-size="10.00">AActor</text>
</a>
</g>
</g>
<!-- Node2&#45;&gt;Node1 -->
<g id="edge1_Node000001_Node000002" class="edge">
<title>Node2&#45;&gt;Node1</title>
<g id="a_edge1_Node000001_Node000002"><a xlink:title=" ">
<path fill="none" stroke="#63b8ff" d="M36.46,-71.24C46.15,-59.81 60.25,-45.7 76,-38 99.92,-26.31 168.48,-18.63 215.84,-14.54"/>
<polygon fill="#63b8ff" stroke="#63b8ff" points="33.23,-68.67 29.68,-78.66 38.68,-73.06 33.23,-68.67"/>
</a>
</g>
</g>
<!-- Node3 -->
<g id="Node000003" class="node">
<title>Node3</title>
<g id="a_Node000003"><a xlink:title=" ">
<polygon fill="white" stroke="#666666" points="103.62,-100 64.38,-100 64.38,-80 103.62,-80 103.62,-100"/>
<text text-anchor="middle" x="84" y="-86.5" font-family="Helvetica,sans-Serif" font-size="10.00">friend</text>
</a>
</g>
</g>
<!-- Node3&#45;&gt;Node1 -->
<g id="edge2_Node000001_Node000003" class="edge">
<title>Node3&#45;&gt;Node1</title>
<g id="a_edge2_Node000001_Node000003"><a xlink:title=" ">
<path fill="none" stroke="#9a32cd" stroke-dasharray="5,2" d="M79.8,-69.02C78.81,-58.52 79.76,-46.18 87.25,-38 104.13,-19.57 169.68,-13.64 216.02,-11.78"/>
<polygon fill="#9a32cd" stroke="#9a32cd" points="76.48,-69.43 81.49,-78.77 83.39,-68.34 76.48,-69.43"/>
</a>
</g>
<text text-anchor="middle" x="134.88" y="-46.5" font-family="Helvetica,sans-Serif" font-size="10.00" fill="grey"> ATrafficLightManager</text>
</g>
<!-- Node4 -->
<g id="Node000004" class="node">
<title>Node4</title>
<g id="a_Node000004"><a xlink:title=" ">
<polygon fill="white" stroke="#666666" points="228.38,-100 121.62,-100 121.62,-80 228.38,-80 228.38,-100"/>
<text text-anchor="middle" x="175" y="-86.5" font-family="Helvetica,sans-Serif" font-size="10.00">USceneComponent *</text>
</a>
</g>
</g>
<!-- Node4&#45;&gt;Node1 -->
<g id="edge3_Node000001_Node000004" class="edge">
<title>Node4&#45;&gt;Node1</title>
<g id="a_edge3_Node000001_Node000004"><a xlink:title=" ">
<path fill="none" stroke="#9a32cd" stroke-dasharray="5,2" d="M181.67,-69.25C186.02,-58.83 192.6,-46.49 201.75,-38 210.04,-30.3 220.86,-24.58 231.16,-20.44"/>
<polygon fill="#9a32cd" stroke="#9a32cd" points="178.05,-67.92 177.81,-78.52 184.6,-70.38 178.05,-67.92"/>
</a>
</g>
<text text-anchor="middle" x="241.12" y="-46.5" font-family="Helvetica,sans-Serif" font-size="10.00" fill="grey"> SceneComponent</text>
</g>
<!-- Node5 -->
<g id="Node000005" class="node">
<title>Node5</title>
<g id="a_Node000005"><a xlink:title=" ">
<polygon fill="white" stroke="#666666" points="409.88,-100 246.12,-100 246.12,-80 409.88,-80 409.88,-100"/>
<text text-anchor="middle" x="328" y="-86.5" font-family="Helvetica,sans-Serif" font-size="10.00">TArray&lt; UTrafficLightController * &gt;</text>
</a>
</g>
</g>
<!-- Node5&#45;&gt;Node1 -->
<g id="edge4_Node000001_Node000005" class="edge">
<title>Node5&#45;&gt;Node1</title>
<g id="a_edge4_Node000001_Node000005"><a xlink:title=" ">
<path fill="none" stroke="#9a32cd" stroke-dasharray="5,2" d="M313.49,-71.32C300.47,-55.45 281.87,-32.78 271.58,-20.24"/>
<polygon fill="#9a32cd" stroke="#9a32cd" points="311.36,-73.24 320.41,-78.75 316.77,-68.8 311.36,-73.24"/>
</a>
</g>
<text text-anchor="middle" x="329.75" y="-46.5" font-family="Helvetica,sans-Serif" font-size="10.00" fill="grey"> Controllers</text>
</g>
<!-- Node6 -->
<g id="Node000006" class="node">
<title>Node6</title>
<g id="a_Node000006"><a xlink:title=" ">
<polygon fill="white" stroke="#666666" points="456.4,-100 427.6,-100 427.6,-80 456.4,-80 456.4,-100"/>
<text text-anchor="middle" x="442" y="-86.5" font-family="Helvetica,sans-Serif" font-size="10.00">int</text>
</a>
</g>
</g>
<!-- Node6&#45;&gt;Node1 -->
<g id="edge5_Node000001_Node000006" class="edge">
<title>Node6&#45;&gt;Node1</title>
<g id="a_edge5_Node000001_Node000006"><a xlink:title=" ">
<path fill="none" stroke="#9a32cd" stroke-dasharray="5,2" d="M420.4,-73.44C404.16,-62.32 381,-47.67 359,-38 342.36,-30.69 323.21,-24.8 306.49,-20.42"/>
<polygon fill="#9a32cd" stroke="#9a32cd" points="417.9,-76.66 428.1,-79.52 421.91,-70.92 417.9,-76.66"/>
</a>
</g>
<text text-anchor="middle" x="438.88" y="-52.5" font-family="Helvetica,sans-Serif" font-size="10.00" fill="grey"> CurrentController</text>
<text text-anchor="middle" x="438.88" y="-40.5" font-family="Helvetica,sans-Serif" font-size="10.00" fill="grey">JunctionId</text>
</g>
<!-- Node7 -->
<g id="Node000007" class="node">
<title>Node7</title>
<g id="a_Node000007"><a xlink:title=" ">
<polygon fill="white" stroke="#666666" points="537,-100 503,-100 503,-80 537,-80 537,-100"/>
<text text-anchor="middle" x="520" y="-86.5" font-family="Helvetica,sans-Serif" font-size="10.00">bool</text>
</a>
</g>
</g>
<!-- Node7&#45;&gt;Node1 -->
<g id="edge6_Node000001_Node000007" class="edge">
<title>Node7&#45;&gt;Node1</title>
<g id="a_edge6_Node000001_Node000007"><a xlink:title=" ">
<path fill="none" stroke="#9a32cd" stroke-dasharray="5,2" d="M510.58,-70.16C503.92,-58.9 493.88,-45.39 481,-38 453.09,-21.99 367.01,-15.34 312.02,-12.68"/>
<polygon fill="#9a32cd" stroke="#9a32cd" points="507.88,-71.52 515.74,-78.63 514.03,-68.17 507.88,-71.52"/>
</a>
</g>
<text text-anchor="middle" x="526.88" y="-46.5" font-family="Helvetica,sans-Serif" font-size="10.00" fill="grey"> bIsFrozen</text>
</g>
</g>
</svg>

<g id="navigator" transform="translate(0 0)" fill="#404254">
  <rect fill="#f2f5e9" fill-opacity="0.5" stroke="#606060" stroke-width=".5" x="0" y="0" width="60" height="60"/>
  <use id="zoomplus" xlink:href="#zoomPlus" x="17" y="9" onmousedown="handleZoom(evt,'in')"/>
  <use id="zoomminus" xlink:href="#zoomMin" x="42" y="9" onmousedown="handleZoom(evt,'out')"/>
  <use id="reset" xlink:href="#resetDef" x="30" y="36" onmousedown="handleReset()"/>
   <use id="arrowup" xlink:href="#arrowUp" x="0" y="0" onmousedown="handlePan(0,-1)"/>
  <use id="arrowright" xlink:href="#arrowRight" x="0" y="0" onmousedown="handlePan(1,0)"/>
  <use id="arrowdown" xlink:href="#arrowDown" x="0" y="0" onmousedown="handlePan(0,1)"/>
  <use id="arrowleft" xlink:href="#arrowLeft" x="0" y="0" onmousedown="handlePan(-1,0)"/>
</g>
<svg viewBox="0 0 15 15" width="100%" height="30px" preserveAspectRatio="xMaxYMin meet">
 <g id="arrow_out" transform="scale(0.3 0.3)">
  <a xlink:href="classATrafficLightGroup__coll__graph_org.svg" target="_base">
   <rect id="button" ry="5" rx="5" y="6" x="6" height="38" width="38"
        fill="#f2f5e9" fill-opacity="0.5" stroke="#606060" stroke-width="1.0"/>
   <path id="arrow"
     d="M 11.500037,31.436501 C 11.940474,20.09759 22.043105,11.32322 32.158766,21.979434 L 37.068811,17.246167 C 37.068811,17.246167 37.088388,32 37.088388,32 L 22.160133,31.978069 C 22.160133,31.978069 26.997745,27.140456 26.997745,27.140456 C 18.528582,18.264221 13.291696,25.230495 11.500037,31.436501 z"
     style="fill:#404040;"/>
  </a>
 </g>
</svg>

<style type='text/css'>
<![CDATA[
[data-mouse-over-selected='false'] { opacity: 0.7; }
[data-mouse-over-selected='true']  { opacity: 1.0; }
]]>
</style>
<script type="application/ecmascript"><![CDATA[
document.addEventListener('DOMContentLoaded', (event) => {
  highlightEdges();
  highlightAdjacentNodes();
});
]]></script>
</svg>
