<?xml version="1.0" encoding="UTF-8" standalone="no"?>
<!DOCTYPE svg PUBLIC "-//W3C//DTD SVG 1.1//EN"
 "http://www.w3.org/Graphics/SVG/1.1/DTD/svg11.dtd">
<!-- Generated by graphviz version 8.1.0 (20230707.0739)
 -->
<!-- Title: carla::rpc::Actor::GetStreamToken Pages: 1 -->
<svg width="290pt" height="252pt"
 viewBox="0.00 0.00 289.75 252.00" xmlns="http://www.w3.org/2000/svg" xmlns:xlink="http://www.w3.org/1999/xlink">
<g id="graph0" class="graph" transform="scale(1 1) rotate(0) translate(4 248)">
<title>carla::rpc::Actor::GetStreamToken</title>
<!-- Node1 -->
<g id="Node000001" class="node">
<title>Node1</title>
<g id="a_Node000001"><a xlink:title=" ">
<polygon fill="#999999" stroke="#666666" points="281.75,-144 190,-144 190,-112 281.75,-112 281.75,-144"/>
<text text-anchor="start" x="198" y="-130.5" font-family="Helvetica,sans-Serif" font-size="10.00">carla::rpc::Actor::</text>
<text text-anchor="middle" x="235.88" y="-118.5" font-family="Helvetica,sans-Serif" font-size="10.00">GetStreamToken</text>
</a>
</g>
</g>
<!-- Node2 -->
<g id="Node000002" class="node">
<title>Node2</title>
<g id="a_Node000002"><a xlink:href="../../df/df3/classcarla_1_1client_1_1detail_1_1Simulator.html#a15d14910891abdf14f58184b4e397429" target="_top" xlink:title=" ">
<polygon fill="white" stroke="#666666" points="145.38,-244 8.62,-244 8.62,-212 145.38,-212 145.38,-244"/>
<text text-anchor="start" x="16.62" y="-230.5" font-family="Helvetica,sans-Serif" font-size="10.00">carla::client::detail</text>
<text text-anchor="middle" x="77" y="-218.5" font-family="Helvetica,sans-Serif" font-size="10.00">::Simulator::DisableForROS</text>
</a>
</g>
</g>
<!-- Node1&#45;&gt;Node2 -->
<g id="edge1_Node000001_Node000002" class="edge">
<title>Node1&#45;&gt;Node2</title>
<g id="a_edge1_Node000001_Node000002"><a xlink:title=" ">
<path fill="none" stroke="#63b8ff" d="M213.94,-152.28C198.74,-168.59 176.9,-189.5 154,-203 148.62,-206.17 142.78,-209.01 136.81,-211.52"/>
<polygon fill="#63b8ff" stroke="#63b8ff" points="216.12,-154.98 220.25,-145.23 210.94,-150.27 216.12,-154.98"/>
</a>
</g>
</g>
<!-- Node3 -->
<g id="Node000003" class="node">
<title>Node3</title>
<g id="a_Node000003"><a xlink:href="../../df/df3/classcarla_1_1client_1_1detail_1_1Simulator.html#a37e820807ac1f611d7e917f4ebca5880" target="_top" xlink:title=" ">
<polygon fill="white" stroke="#666666" points="144.25,-194 9.75,-194 9.75,-162 144.25,-162 144.25,-194"/>
<text text-anchor="start" x="17.75" y="-180.5" font-family="Helvetica,sans-Serif" font-size="10.00">carla::client::detail</text>
<text text-anchor="middle" x="77" y="-168.5" font-family="Helvetica,sans-Serif" font-size="10.00">::Simulator::EnableForROS</text>
</a>
</g>
</g>
<!-- Node1&#45;&gt;Node3 -->
<g id="edge2_Node000001_Node000003" class="edge">
<title>Node1&#45;&gt;Node3</title>
<g id="a_edge2_Node000001_Node000003"><a xlink:title=" ">
<path fill="none" stroke="#63b8ff" d="M179.14,-145.77C163.01,-150.91 145.48,-156.49 129.62,-161.55"/>
<polygon fill="#63b8ff" stroke="#63b8ff" points="180.04,-148.83 188.5,-142.46 177.91,-142.16 180.04,-148.83"/>
</a>
</g>
</g>
<!-- Node4 -->
<g id="Node000004" class="node">
<title>Node4</title>
<g id="a_Node000004"><a xlink:href="../../df/df3/classcarla_1_1client_1_1detail_1_1Simulator.html#a532e49fd50fee92dbda277450d67711c" target="_top" xlink:title=" ">
<polygon fill="white" stroke="#666666" points="150.62,-144 3.38,-144 3.38,-112 150.62,-112 150.62,-144"/>
<text text-anchor="start" x="11.38" y="-130.5" font-family="Helvetica,sans-Serif" font-size="10.00">carla::client::detail</text>
<text text-anchor="middle" x="77" y="-118.5" font-family="Helvetica,sans-Serif" font-size="10.00">::Simulator::IsEnabledForROS</text>
</a>
</g>
</g>
<!-- Node1&#45;&gt;Node4 -->
<g id="edge3_Node000001_Node000004" class="edge">
<title>Node1&#45;&gt;Node4</title>
<g id="a_edge3_Node000001_Node000004"><a xlink:title=" ">
<path fill="none" stroke="#63b8ff" d="M178.78,-128C169.79,-128 160.37,-128 151.05,-128"/>
<polygon fill="#63b8ff" stroke="#63b8ff" points="178.5,-131.5 188.5,-128 178.5,-124.5 178.5,-131.5"/>
</a>
</g>
</g>
<!-- Node5 -->
<g id="Node000005" class="node">
<title>Node5</title>
<g id="a_Node000005"><a xlink:href="../../df/df3/classcarla_1_1client_1_1detail_1_1Simulator.html#a7dec54efa6cca84e6d319c3a5e78b56b" target="_top" xlink:title=" ">
<polygon fill="white" stroke="#666666" points="154,-94 0,-94 0,-62 154,-62 154,-94"/>
<text text-anchor="start" x="8" y="-80.5" font-family="Helvetica,sans-Serif" font-size="10.00">carla::client::detail</text>
<text text-anchor="middle" x="77" y="-68.5" font-family="Helvetica,sans-Serif" font-size="10.00">::Simulator::SubscribeToSensor</text>
</a>
</g>
</g>
<!-- Node1&#45;&gt;Node5 -->
<g id="edge4_Node000001_Node000005" class="edge">
<title>Node1&#45;&gt;Node5</title>
<g id="a_edge4_Node000001_Node000005"><a xlink:title=" ">
<path fill="none" stroke="#63b8ff" d="M179.14,-110.23C163.01,-105.09 145.48,-99.51 129.62,-94.45"/>
<polygon fill="#63b8ff" stroke="#63b8ff" points="177.91,-113.84 188.5,-113.54 180.04,-107.17 177.91,-113.84"/>
</a>
</g>
</g>
<!-- Node6 -->
<g id="Node000006" class="node">
<title>Node6</title>
<g id="a_Node000006"><a xlink:href="../../df/df3/classcarla_1_1client_1_1detail_1_1Simulator.html#ab3144a3f24a134bd616e781240aeffc6" target="_top" xlink:title=" ">
<polygon fill="white" stroke="#666666" points="150.62,-44 3.38,-44 3.38,0 150.62,0 150.62,-44"/>
<text text-anchor="start" x="11.38" y="-30.5" font-family="Helvetica,sans-Serif" font-size="10.00">carla::client::detail</text>
<text text-anchor="start" x="11.38" y="-18.5" font-family="Helvetica,sans-Serif" font-size="10.00">::Simulator::UnSubscribeFrom</text>
<text text-anchor="middle" x="77" y="-6.5" font-family="Helvetica,sans-Serif" font-size="10.00">Sensor</text>
</a>
</g>
</g>
<!-- Node1&#45;&gt;Node6 -->
<g id="edge5_Node000001_Node000006" class="edge">
<title>Node1&#45;&gt;Node6</title>
<g id="a_edge5_Node000001_Node000006"><a xlink:title=" ">
<path fill="none" stroke="#63b8ff" d="M213.07,-103.63C197.76,-87.62 176.14,-67.11 154,-53 149.19,-49.94 144.03,-47.07 138.75,-44.42"/>
<polygon fill="#63b8ff" stroke="#63b8ff" points="210.08,-105.62 219.47,-110.53 215.19,-100.84 210.08,-105.62"/>
</a>
</g>
</g>
</g>
</svg>
