<?xml version="1.0" encoding="UTF-8" standalone="no"?>
<!DOCTYPE svg PUBLIC "-//W3C//DTD SVG 1.1//EN"
 "http://www.w3.org/Graphics/SVG/1.1/DTD/svg11.dtd">
<!-- Generated by graphviz version 8.1.0 (20230707.0739)
 -->
<!-- Title: carla::rpc::DebugShape::Arrow Pages: 1 -->
<svg width="257pt" height="360pt"
 viewBox="0.00 0.00 256.75 360.00" xmlns="http://www.w3.org/2000/svg" xmlns:xlink="http://www.w3.org/1999/xlink">
<g id="graph0" class="graph" transform="scale(1 1) rotate(0) translate(4 356)">
<title>carla::rpc::DebugShape::Arrow</title>
<!-- Node1 -->
<g id="Node000001" class="node">
<title>Node1</title>
<g id="a_Node000001"><a xlink:title=" ">
<polygon fill="#999999" stroke="#666666" points="118,-32 0,-32 0,0 118,0 118,-32"/>
<text text-anchor="start" x="8" y="-18.5" font-family="Helvetica,sans-Serif" font-size="10.00">carla::rpc::DebugShape</text>
<text text-anchor="middle" x="59" y="-6.5" font-family="Helvetica,sans-Serif" font-size="10.00">::Arrow</text>
</a>
</g>
</g>
<!-- Node2 -->
<g id="Node000002" class="node">
<title>Node2</title>
<g id="a_Node000002"><a xlink:href="../../d4/de4/structcarla_1_1rpc_1_1DebugShape_1_1Line.html" target="_top" xlink:title=" ">
<polygon fill="white" stroke="#666666" points="175,-112 57,-112 57,-80 175,-80 175,-112"/>
<text text-anchor="start" x="65" y="-98.5" font-family="Helvetica,sans-Serif" font-size="10.00">carla::rpc::DebugShape</text>
<text text-anchor="middle" x="116" y="-86.5" font-family="Helvetica,sans-Serif" font-size="10.00">::Line</text>
</a>
</g>
</g>
<!-- Node2&#45;&gt;Node1 -->
<g id="edge1_Node000001_Node000002" class="edge">
<title>Node2&#45;&gt;Node1</title>
<g id="a_edge1_Node000001_Node000002"><a xlink:title=" ">
<path fill="none" stroke="#9a32cd" stroke-dasharray="5,2" d="M98.43,-70.96C89.25,-58.39 78.27,-43.37 70.24,-32.38"/>
<polygon fill="#9a32cd" stroke="#9a32cd" points="96.01,-72.58 104.74,-78.59 101.66,-68.45 96.01,-72.58"/>
</a>
</g>
<text text-anchor="middle" x="100" y="-52.5" font-family="Helvetica,sans-Serif" font-size="10.00" fill="grey"> line</text>
</g>
<!-- Node3 -->
<g id="Node000003" class="node">
<title>Node3</title>
<g id="a_Node000003"><a xlink:href="../../de/d23/classcarla_1_1geom_1_1Location.html" target="_top" xlink:title=" ">
<polygon fill="white" stroke="#666666" points="245.88,-192 136.12,-192 136.12,-172 245.88,-172 245.88,-192"/>
<text text-anchor="middle" x="191" y="-178.5" font-family="Helvetica,sans-Serif" font-size="10.00">carla::geom::Location</text>
</a>
</g>
</g>
<!-- Node3&#45;&gt;Node2 -->
<g id="edge2_Node000002_Node000003" class="edge">
<title>Node3&#45;&gt;Node2</title>
<g id="a_edge2_Node000002_Node000003"><a xlink:title=" ">
<path fill="none" stroke="#9a32cd" stroke-dasharray="5,2" d="M175.51,-163.65C162.01,-148.53 142.62,-126.81 129.68,-112.32"/>
<polygon fill="#9a32cd" stroke="#9a32cd" points="172.42,-165.56 181.69,-170.69 177.64,-160.9 172.42,-165.56"/>
</a>
</g>
<text text-anchor="middle" x="179.12" y="-144.5" font-family="Helvetica,sans-Serif" font-size="10.00" fill="grey"> begin</text>
<text text-anchor="middle" x="179.12" y="-132.5" font-family="Helvetica,sans-Serif" font-size="10.00" fill="grey">end</text>
</g>
<!-- Node4 -->
<g id="Node000004" class="node">
<title>Node4</title>
<g id="a_Node000004"><a xlink:href="../../d9/dfe/classcarla_1_1geom_1_1Vector3D.html" target="_top" xlink:title=" ">
<polygon fill="white" stroke="#666666" points="248.75,-260 135.25,-260 135.25,-240 248.75,-240 248.75,-260"/>
<text text-anchor="middle" x="192" y="-246.5" font-family="Helvetica,sans-Serif" font-size="10.00">carla::geom::Vector3D</text>
</a>
</g>
</g>
<!-- Node4&#45;&gt;Node3 -->
<g id="edge3_Node000003_Node000004" class="edge">
<title>Node4&#45;&gt;Node3</title>
<g id="a_edge3_Node000003_Node000004"><a xlink:title=" ">
<path fill="none" stroke="#63b8ff" d="M191.69,-228.65C191.51,-216.58 191.29,-201.84 191.14,-192.44"/>
<polygon fill="#63b8ff" stroke="#63b8ff" points="188.21,-228.6 191.86,-238.54 195.2,-228.49 188.21,-228.6"/>
</a>
</g>
</g>
<!-- Node5 -->
<g id="Node000005" class="node">
<title>Node5</title>
<g id="a_Node000005"><a xlink:title=" ">
<polygon fill="white" stroke="#666666" points="124,-352 90,-352 90,-332 124,-332 124,-352"/>
<text text-anchor="middle" x="107" y="-338.5" font-family="Helvetica,sans-Serif" font-size="10.00">float</text>
</a>
</g>
</g>
<!-- Node5&#45;&gt;Node1 -->
<g id="edge6_Node000001_Node000005" class="edge">
<title>Node5&#45;&gt;Node1</title>
<g id="a_edge6_Node000001_Node000005"><a xlink:title=" ">
<path fill="none" stroke="#9a32cd" stroke-dasharray="5,2" d="M81.17,-325.69C58.46,-310.07 29,-283.53 29,-251 29,-251 29,-251 29,-95 29,-72.08 40.43,-47.74 49.18,-32.46"/>
<polygon fill="#9a32cd" stroke="#9a32cd" points="78.79,-328.97 89.08,-331.52 82.62,-323.11 78.79,-328.97"/>
</a>
</g>
<text text-anchor="middle" x="53.75" y="-178.5" font-family="Helvetica,sans-Serif" font-size="10.00" fill="grey"> arrow_size</text>
</g>
<!-- Node5&#45;&gt;Node2 -->
<g id="edge5_Node000002_Node000005" class="edge">
<title>Node5&#45;&gt;Node2</title>
<g id="a_edge5_Node000002_Node000005"><a xlink:title=" ">
<path fill="none" stroke="#9a32cd" stroke-dasharray="5,2" d="M107.75,-320.77C109.5,-273.17 113.86,-154.92 115.43,-112.47"/>
<polygon fill="#9a32cd" stroke="#9a32cd" points="104.21,-320.61 107.34,-330.73 111.21,-320.87 104.21,-320.61"/>
</a>
</g>
<text text-anchor="middle" x="133.5" y="-212.5" font-family="Helvetica,sans-Serif" font-size="10.00" fill="grey"> thickness</text>
</g>
<!-- Node5&#45;&gt;Node4 -->
<g id="edge4_Node000004_Node000005" class="edge">
<title>Node5&#45;&gt;Node4</title>
<g id="a_edge4_Node000004_Node000005"><a xlink:title=" ">
<path fill="none" stroke="#9a32cd" stroke-dasharray="5,2" d="M123.16,-323.89C140.97,-305.04 168.97,-275.39 183.14,-260.38"/>
<polygon fill="#9a32cd" stroke="#9a32cd" points="121.1,-321.03 116.78,-330.71 126.19,-325.84 121.1,-321.03"/>
</a>
</g>
<text text-anchor="middle" x="168.12" y="-304.5" font-family="Helvetica,sans-Serif" font-size="10.00" fill="grey"> x</text>
<text text-anchor="middle" x="168.12" y="-292.5" font-family="Helvetica,sans-Serif" font-size="10.00" fill="grey">y</text>
<text text-anchor="middle" x="168.12" y="-280.5" font-family="Helvetica,sans-Serif" font-size="10.00" fill="grey">z</text>
</g>
</g>
</svg>
