<?xml version="1.0" encoding="UTF-8" standalone="no"?>
<!DOCTYPE svg PUBLIC "-//W3C//DTD SVG 1.1//EN"
 "http://www.w3.org/Graphics/SVG/1.1/DTD/svg11.dtd">
<!-- Generated by graphviz version 8.1.0 (20230707.0739)
 -->
<!-- Title: pugi::xpath_variable_set::_find Pages: 1 -->
<svg width="247pt" height="90pt"
 viewBox="0.00 0.00 247.00 90.00" xmlns="http://www.w3.org/2000/svg" xmlns:xlink="http://www.w3.org/1999/xlink">
<g id="graph0" class="graph" transform="scale(1 1) rotate(0) translate(4 86)">
<title>pugi::xpath_variable_set::_find</title>
<!-- Node1 -->
<g id="Node000001" class="node">
<title>Node1</title>
<g id="a_Node000001"><a xlink:title=" ">
<polygon fill="#999999" stroke="#666666" points="239,-57 137.5,-57 137.5,-25 239,-25 239,-57"/>
<text text-anchor="start" x="145.5" y="-43.5" font-family="Helvetica,sans-Serif" font-size="10.00">pugi::xpath_variable</text>
<text text-anchor="middle" x="188.25" y="-31.5" font-family="Helvetica,sans-Serif" font-size="10.00">_set::_find</text>
</a>
</g>
</g>
<!-- Node2 -->
<g id="Node000002" class="node">
<title>Node2</title>
<g id="a_Node000002"><a xlink:href="../../de/dfa/classpugi_1_1xpath__variable__set.html#aca5af5d65cdf0f639890cc1d3caec610" target="_top" xlink:title=" ">
<polygon fill="white" stroke="#666666" points="101.5,-82 0,-82 0,-50 101.5,-50 101.5,-82"/>
<text text-anchor="start" x="8" y="-68.5" font-family="Helvetica,sans-Serif" font-size="10.00">pugi::xpath_variable</text>
<text text-anchor="middle" x="50.75" y="-56.5" font-family="Helvetica,sans-Serif" font-size="10.00">_set::get</text>
</a>
</g>
</g>
<!-- Node1&#45;&gt;Node2 -->
<g id="edge1_Node000001_Node000002" class="edge">
<title>Node1&#45;&gt;Node2</title>
<g id="a_edge1_Node000001_Node000002"><a xlink:title=" ">
<path fill="none" stroke="#63b8ff" d="M126.4,-52.23C118.11,-53.76 109.68,-55.31 101.61,-56.8"/>
<polygon fill="#63b8ff" stroke="#63b8ff" points="126.98,-55.49 136.18,-50.24 125.71,-48.61 126.98,-55.49"/>
</a>
</g>
</g>
<!-- Node3 -->
<g id="Node000003" class="node">
<title>Node3</title>
<g id="a_Node000003"><a xlink:href="../../de/dfa/classpugi_1_1xpath__variable__set.html#a4a3c9f6893f5f7058f8c742ad80e835f" target="_top" xlink:title=" ">
<polygon fill="white" stroke="#666666" points="101.5,-32 0,-32 0,0 101.5,0 101.5,-32"/>
<text text-anchor="start" x="8" y="-18.5" font-family="Helvetica,sans-Serif" font-size="10.00">pugi::xpath_variable</text>
<text text-anchor="middle" x="50.75" y="-6.5" font-family="Helvetica,sans-Serif" font-size="10.00">_set::get</text>
</a>
</g>
</g>
<!-- Node1&#45;&gt;Node3 -->
<g id="edge2_Node000001_Node000003" class="edge">
<title>Node1&#45;&gt;Node3</title>
<g id="a_edge2_Node000001_Node000003"><a xlink:title=" ">
<path fill="none" stroke="#63b8ff" d="M126.4,-29.77C118.11,-28.24 109.68,-26.69 101.61,-25.2"/>
<polygon fill="#63b8ff" stroke="#63b8ff" points="125.71,-33.39 136.18,-31.76 126.98,-26.51 125.71,-33.39"/>
</a>
</g>
</g>
</g>
</svg>
