<?xml version="1.0" encoding="UTF-8" standalone="no"?>
<!DOCTYPE svg PUBLIC "-//W3C//DTD SVG 1.1//EN"
 "http://www.w3.org/Graphics/SVG/1.1/DTD/svg11.dtd">
<!-- Generated by graphviz version 8.1.0 (20230707.0739)
 -->
<!-- Title: Image.cpp Pages: 1 -->
<svg width="620pt" height="276pt"
 viewBox="0.00 0.00 619.88 276.00" xmlns="http://www.w3.org/2000/svg" xmlns:xlink="http://www.w3.org/1999/xlink">
<g id="graph0" class="graph" transform="scale(1 1) rotate(0) translate(4 272)">
<title>Image.cpp</title>
<!-- Node1 -->
<g id="Node000001" class="node">
<title>Node1</title>
<g id="a_Node000001"><a xlink:title=" ">
<polygon fill="#999999" stroke="#666666" points="470.75,-268 409.75,-268 409.75,-248 470.75,-248 470.75,-268"/>
<text text-anchor="middle" x="440.25" y="-254.5" font-family="Helvetica,sans-Serif" font-size="10.00">Image.cpp</text>
</a>
</g>
</g>
<!-- Node2 -->
<g id="Node000002" class="node">
<title>Node2</title>
<g id="a_Node000002"><a xlink:href="../../d4/d17/ros2_2types_2Image_8h.html" target="_top" xlink:title=" ">
<polygon fill="white" stroke="#666666" points="330.5,-206 280,-206 280,-186 330.5,-186 330.5,-206"/>
<text text-anchor="middle" x="305.25" y="-192.5" font-family="Helvetica,sans-Serif" font-size="10.00">Image.h</text>
</a>
</g>
</g>
<!-- Node1&#45;&gt;Node2 -->
<g id="edge1_Node000001_Node000002" class="edge">
<title>Node1&#45;&gt;Node2</title>
<g id="a_edge1_Node000001_Node000002"><a xlink:title=" ">
<path fill="none" stroke="#63b8ff" d="M419.16,-247.62C396.87,-237.72 361.49,-221.99 336.07,-210.7"/>
<polygon fill="#63b8ff" stroke="#63b8ff" points="337.76,-207.17 327.2,-206.31 334.91,-213.57 337.76,-207.17"/>
</a>
</g>
</g>
<!-- Node12 -->
<g id="Node000012" class="node">
<title>Node12</title>
<g id="a_Node000012"><a xlink:title=" ">
<polygon fill="#e0e0e0" stroke="#999999" points="420,-206 348.5,-206 348.5,-186 420,-186 420,-206"/>
<text text-anchor="middle" x="384.25" y="-192.5" font-family="Helvetica,sans-Serif" font-size="10.00">fastcdr/Cdr.h</text>
</a>
</g>
</g>
<!-- Node1&#45;&gt;Node12 -->
<g id="edge25_Node000001_Node000012" class="edge">
<title>Node1&#45;&gt;Node12</title>
<g id="a_edge25_Node000001_Node000012"><a xlink:title=" ">
<path fill="none" stroke="#63b8ff" d="M431.5,-247.62C423.15,-238.68 410.37,-224.99 400.21,-214.1"/>
<polygon fill="#63b8ff" stroke="#63b8ff" points="403.14,-212.04 393.76,-207.11 398.02,-216.81 403.14,-212.04"/>
</a>
</g>
</g>
<!-- Node13 -->
<g id="Node000013" class="node">
<title>Node13</title>
<g id="a_Node000013"><a xlink:title=" ">
<polygon fill="#e0e0e0" stroke="#999999" points="554.5,-212 438,-212 438,-180 554.5,-180 554.5,-212"/>
<text text-anchor="start" x="446" y="-198.5" font-family="Helvetica,sans-Serif" font-size="10.00">fastcdr/exceptions</text>
<text text-anchor="middle" x="496.25" y="-186.5" font-family="Helvetica,sans-Serif" font-size="10.00">/BadParamException.h</text>
</a>
</g>
</g>
<!-- Node1&#45;&gt;Node13 -->
<g id="edge26_Node000001_Node000013" class="edge">
<title>Node1&#45;&gt;Node13</title>
<g id="a_edge26_Node000001_Node000013"><a xlink:title=" ">
<path fill="none" stroke="#63b8ff" d="M449,-247.62C455.92,-240.21 465.88,-229.53 474.88,-219.9"/>
<polygon fill="#63b8ff" stroke="#63b8ff" points="476.85,-222.84 481.12,-213.14 471.74,-218.06 476.85,-222.84"/>
</a>
</g>
</g>
<!-- Node14 -->
<g id="Node000014" class="node">
<title>Node14</title>
<g id="a_Node000014"><a xlink:title=" ">
<polygon fill="#e0e0e0" stroke="#999999" points="611.88,-206 572.62,-206 572.62,-186 611.88,-186 611.88,-206"/>
<text text-anchor="middle" x="592.25" y="-192.5" font-family="Helvetica,sans-Serif" font-size="10.00">utility</text>
</a>
</g>
</g>
<!-- Node1&#45;&gt;Node14 -->
<g id="edge27_Node000001_Node000014" class="edge">
<title>Node1&#45;&gt;Node14</title>
<g id="a_edge27_Node000001_Node000014"><a xlink:title=" ">
<path fill="none" stroke="#63b8ff" d="M469.24,-247.55C494.42,-239.07 531.71,-225.86 563.25,-212 563.85,-211.74 564.46,-211.47 565.06,-211.19"/>
<polygon fill="#63b8ff" stroke="#63b8ff" points="566.47,-213.91 573.94,-206.41 563.42,-207.61 566.47,-213.91"/>
</a>
</g>
</g>
<!-- Node3 -->
<g id="Node000003" class="node">
<title>Node3</title>
<g id="a_Node000003"><a xlink:href="../../d3/d6a/Header_8h.html" target="_top" xlink:title=" ">
<polygon fill="white" stroke="#666666" points="288.75,-144 233.75,-144 233.75,-124 288.75,-124 288.75,-144"/>
<text text-anchor="middle" x="261.25" y="-130.5" font-family="Helvetica,sans-Serif" font-size="10.00">Header.h</text>
</a>
</g>
</g>
<!-- Node2&#45;&gt;Node3 -->
<g id="edge2_Node000002_Node000003" class="edge">
<title>Node2&#45;&gt;Node3</title>
<g id="a_edge2_Node000002_Node000003"><a xlink:title=" ">
<path fill="none" stroke="#63b8ff" d="M298.38,-185.62C291.94,-176.86 282.17,-163.53 274.27,-152.75"/>
<polygon fill="#63b8ff" stroke="#63b8ff" points="276.67,-151.11 267.93,-145.11 271.02,-155.25 276.67,-151.11"/>
</a>
</g>
</g>
<!-- Node5 -->
<g id="Node000005" class="node">
<title>Node5</title>
<g id="a_Node000005"><a xlink:title=" ">
<polygon fill="#e0e0e0" stroke="#999999" points="92.5,-32 0,-32 0,0 92.5,0 92.5,-32"/>
<text text-anchor="start" x="8" y="-18.5" font-family="Helvetica,sans-Serif" font-size="10.00">fastrtps/utils/fixed</text>
<text text-anchor="middle" x="46.25" y="-6.5" font-family="Helvetica,sans-Serif" font-size="10.00">_size_string.hpp</text>
</a>
</g>
</g>
<!-- Node2&#45;&gt;Node5 -->
<g id="edge18_Node000002_Node000005" class="edge">
<title>Node2&#45;&gt;Node5</title>
<g id="a_edge18_Node000002_Node000005"><a xlink:title=" ">
<path fill="none" stroke="#63b8ff" d="M279.66,-186.67C254.92,-178.01 216.93,-163.05 187.25,-144 140.26,-113.84 93.7,-67.96 67.58,-40.38"/>
<polygon fill="#63b8ff" stroke="#63b8ff" points="70.55,-38.36 61.16,-33.45 65.44,-43.15 70.55,-38.36"/>
</a>
</g>
</g>
<!-- Node6 -->
<g id="Node000006" class="node">
<title>Node6</title>
<g id="a_Node000006"><a xlink:title=" ">
<polygon fill="#e0e0e0" stroke="#999999" points="158.38,-26 110.12,-26 110.12,-6 158.38,-6 158.38,-26"/>
<text text-anchor="middle" x="134.25" y="-12.5" font-family="Helvetica,sans-Serif" font-size="10.00">stdint.h</text>
</a>
</g>
</g>
<!-- Node2&#45;&gt;Node6 -->
<g id="edge19_Node000002_Node000006" class="edge">
<title>Node2&#45;&gt;Node6</title>
<g id="a_edge19_Node000002_Node000006"><a xlink:title=" ">
<path fill="none" stroke="#63b8ff" d="M279.61,-185.9C258.76,-177.52 229.58,-163.43 209.25,-144 176.37,-112.57 153.01,-63.62 141.79,-36.59"/>
<polygon fill="#63b8ff" stroke="#63b8ff" points="144.7,-35.44 137.73,-27.46 138.2,-38.04 144.7,-35.44"/>
</a>
</g>
</g>
<!-- Node7 -->
<g id="Node000007" class="node">
<title>Node7</title>
<g id="a_Node000007"><a xlink:title=" ">
<polygon fill="#e0e0e0" stroke="#999999" points="214.12,-26 176.38,-26 176.38,-6 214.12,-6 214.12,-26"/>
<text text-anchor="middle" x="195.25" y="-12.5" font-family="Helvetica,sans-Serif" font-size="10.00">array</text>
</a>
</g>
</g>
<!-- Node2&#45;&gt;Node7 -->
<g id="edge20_Node000002_Node000007" class="edge">
<title>Node2&#45;&gt;Node7</title>
<g id="a_edge20_Node000002_Node000007"><a xlink:title=" ">
<path fill="none" stroke="#63b8ff" d="M281.59,-185.52C263.63,-177.15 239.63,-163.28 225.25,-144 201.41,-112.03 196.17,-63.97 195.22,-37.07"/>
<polygon fill="#63b8ff" stroke="#63b8ff" points="198.71,-37.27 195.04,-27.34 191.71,-37.39 198.71,-37.27"/>
</a>
</g>
</g>
<!-- Node8 -->
<g id="Node000008" class="node">
<title>Node8</title>
<g id="a_Node000008"><a xlink:title=" ">
<polygon fill="#e0e0e0" stroke="#999999" points="408.25,-26 368.25,-26 368.25,-6 408.25,-6 408.25,-26"/>
<text text-anchor="middle" x="388.25" y="-12.5" font-family="Helvetica,sans-Serif" font-size="10.00">string</text>
</a>
</g>
</g>
<!-- Node2&#45;&gt;Node8 -->
<g id="edge21_Node000002_Node000008" class="edge">
<title>Node2&#45;&gt;Node8</title>
<g id="a_edge21_Node000002_Node000008"><a xlink:title=" ">
<path fill="none" stroke="#63b8ff" d="M322.96,-185.57C343.25,-174.38 374.57,-155.74 381.25,-144 400.38,-110.38 396.61,-63.31 392.32,-36.93"/>
<polygon fill="#63b8ff" stroke="#63b8ff" points="395.63,-36.6 390.39,-27.39 388.75,-37.86 395.63,-36.6"/>
</a>
</g>
</g>
<!-- Node9 -->
<g id="Node000009" class="node">
<title>Node9</title>
<g id="a_Node000009"><a xlink:title=" ">
<polygon fill="#e0e0e0" stroke="#999999" points="485,-26 443.5,-26 443.5,-6 485,-6 485,-26"/>
<text text-anchor="middle" x="464.25" y="-12.5" font-family="Helvetica,sans-Serif" font-size="10.00">vector</text>
</a>
</g>
</g>
<!-- Node2&#45;&gt;Node9 -->
<g id="edge22_Node000002_Node000009" class="edge">
<title>Node2&#45;&gt;Node9</title>
<g id="a_edge22_Node000002_Node000009"><a xlink:title=" ">
<path fill="none" stroke="#63b8ff" d="M325.56,-185.59C349.45,-174.23 387.24,-155.26 398.25,-144 429.11,-112.44 448.92,-63.54 458.16,-36.55"/>
<polygon fill="#63b8ff" stroke="#63b8ff" points="461.68,-38.03 461.47,-27.44 455.03,-35.85 461.68,-38.03"/>
</a>
</g>
</g>
<!-- Node10 -->
<g id="Node000010" class="node">
<title>Node10</title>
<g id="a_Node000010"><a xlink:title=" ">
<polygon fill="#e0e0e0" stroke="#999999" points="331.62,-26 296.88,-26 296.88,-6 331.62,-6 331.62,-26"/>
<text text-anchor="middle" x="314.25" y="-12.5" font-family="Helvetica,sans-Serif" font-size="10.00">map</text>
</a>
</g>
</g>
<!-- Node2&#45;&gt;Node10 -->
<g id="edge23_Node000002_Node000010" class="edge">
<title>Node2&#45;&gt;Node10</title>
<g id="a_edge23_Node000002_Node000010"><a xlink:title=" ">
<path fill="none" stroke="#63b8ff" d="M322.87,-185.51C337,-176.8 355.8,-162.47 364.25,-144 378.3,-113.28 377.02,-99.27 364.25,-68 358.61,-54.19 347.23,-42.1 336.75,-33.15"/>
<polygon fill="#63b8ff" stroke="#63b8ff" points="339.3,-29.92 329.3,-26.42 334.93,-35.39 339.3,-29.92"/>
</a>
</g>
</g>
<!-- Node11 -->
<g id="Node000011" class="node">
<title>Node11</title>
<g id="a_Node000011"><a xlink:title=" ">
<polygon fill="#e0e0e0" stroke="#999999" points="279.25,-26 239.25,-26 239.25,-6 279.25,-6 279.25,-26"/>
<text text-anchor="middle" x="259.25" y="-12.5" font-family="Helvetica,sans-Serif" font-size="10.00">bitset</text>
</a>
</g>
</g>
<!-- Node2&#45;&gt;Node11 -->
<g id="edge24_Node000002_Node000011" class="edge">
<title>Node2&#45;&gt;Node11</title>
<g id="a_edge24_Node000002_Node000011"><a xlink:title=" ">
<path fill="none" stroke="#63b8ff" d="M305.89,-185.74C307.05,-164.32 308.14,-109.95 293.25,-68 288.98,-55.97 281.24,-44.01 274.22,-34.7"/>
<polygon fill="#63b8ff" stroke="#63b8ff" points="276.57,-33.02 267.6,-27.37 271.09,-37.37 276.57,-33.02"/>
</a>
</g>
</g>
<!-- Node4 -->
<g id="Node000004" class="node">
<title>Node4</title>
<g id="a_Node000004"><a xlink:href="../../d9/d3d/ros2_2types_2Time_8h.html" target="_top" xlink:title=" ">
<polygon fill="white" stroke="#666666" points="283.88,-88 238.62,-88 238.62,-68 283.88,-68 283.88,-88"/>
<text text-anchor="middle" x="261.25" y="-74.5" font-family="Helvetica,sans-Serif" font-size="10.00">Time.h</text>
</a>
</g>
</g>
<!-- Node3&#45;&gt;Node4 -->
<g id="edge3_Node000003_Node000004" class="edge">
<title>Node3&#45;&gt;Node4</title>
<g id="a_edge3_Node000003_Node000004"><a xlink:title=" ">
<path fill="none" stroke="#63b8ff" d="M261.25,-123.59C261.25,-116.86 261.25,-107.53 261.25,-99.15"/>
<polygon fill="#63b8ff" stroke="#63b8ff" points="264.75,-99.3 261.25,-89.3 257.75,-99.3 264.75,-99.3"/>
</a>
</g>
</g>
<!-- Node3&#45;&gt;Node5 -->
<g id="edge11_Node000003_Node000005" class="edge">
<title>Node3&#45;&gt;Node5</title>
<g id="a_edge11_Node000003_Node000005"><a xlink:title=" ">
<path fill="none" stroke="#63b8ff" d="M243.66,-123.51C209.01,-104.82 131.26,-62.87 84.34,-37.55"/>
<polygon fill="#63b8ff" stroke="#63b8ff" points="86.28,-34.08 75.82,-32.41 82.96,-40.24 86.28,-34.08"/>
</a>
</g>
</g>
<!-- Node3&#45;&gt;Node6 -->
<g id="edge12_Node000003_Node000006" class="edge">
<title>Node3&#45;&gt;Node6</title>
<g id="a_edge12_Node000003_Node000006"><a xlink:title=" ">
<path fill="none" stroke="#63b8ff" d="M250.37,-123.83C239.76,-114.83 223.23,-100.66 209.25,-88 189.06,-69.73 166.43,-48.14 151.36,-33.61"/>
<polygon fill="#63b8ff" stroke="#63b8ff" points="154.45,-31.77 144.83,-27.33 149.58,-36.8 154.45,-31.77"/>
</a>
</g>
</g>
<!-- Node3&#45;&gt;Node7 -->
<g id="edge13_Node000003_Node000007" class="edge">
<title>Node3&#45;&gt;Node7</title>
<g id="a_edge13_Node000003_Node000007"><a xlink:title=" ">
<path fill="none" stroke="#63b8ff" d="M251.81,-123.7C243.44,-115.06 231.33,-101.52 223.25,-88 213.49,-71.66 205.87,-51.31 201.06,-36.59"/>
<polygon fill="#63b8ff" stroke="#63b8ff" points="204.13,-35.69 197.82,-27.18 197.45,-37.77 204.13,-35.69"/>
</a>
</g>
</g>
<!-- Node3&#45;&gt;Node8 -->
<g id="edge14_Node000003_Node000008" class="edge">
<title>Node3&#45;&gt;Node8</title>
<g id="a_edge14_Node000003_Node000008"><a xlink:title=" ">
<path fill="none" stroke="#63b8ff" d="M271.64,-123.51C293.24,-103.78 343.2,-58.15 370.18,-33.51"/>
<polygon fill="#63b8ff" stroke="#63b8ff" points="372.05,-36.63 377.07,-27.3 367.32,-31.46 372.05,-36.63"/>
</a>
</g>
</g>
<!-- Node3&#45;&gt;Node9 -->
<g id="edge15_Node000003_Node000009" class="edge">
<title>Node3&#45;&gt;Node9</title>
<g id="a_edge15_Node000003_Node000009"><a xlink:title=" ">
<path fill="none" stroke="#63b8ff" d="M277.86,-123.51C313.19,-103.32 396,-56 438.34,-31.81"/>
<polygon fill="#63b8ff" stroke="#63b8ff" points="439.75,-34.46 446.69,-26.46 436.27,-28.38 439.75,-34.46"/>
</a>
</g>
</g>
<!-- Node3&#45;&gt;Node10 -->
<g id="edge16_Node000003_Node000010" class="edge">
<title>Node3&#45;&gt;Node10</title>
<g id="a_edge16_Node000003_Node000010"><a xlink:title=" ">
<path fill="none" stroke="#63b8ff" d="M269.37,-123.58C276.52,-114.86 286.79,-101.27 293.25,-88 301.33,-71.4 306.95,-51.08 310.33,-36.44"/>
<polygon fill="#63b8ff" stroke="#63b8ff" points="313.88,-37.61 312.57,-27.09 307.03,-36.13 313.88,-37.61"/>
</a>
</g>
</g>
<!-- Node3&#45;&gt;Node11 -->
<g id="edge17_Node000003_Node000011" class="edge">
<title>Node3&#45;&gt;Node11</title>
<g id="a_edge17_Node000003_Node000011"><a xlink:title=" ">
<path fill="none" stroke="#63b8ff" d="M251.89,-123.63C244.13,-115.14 233.68,-101.88 229.25,-88 223.31,-69.39 233.9,-48.91 244.1,-34.75"/>
<polygon fill="#63b8ff" stroke="#63b8ff" points="247.19,-37.48 250.57,-27.44 241.67,-33.18 247.19,-37.48"/>
</a>
</g>
</g>
<!-- Node4&#45;&gt;Node5 -->
<g id="edge4_Node000004_Node000005" class="edge">
<title>Node4&#45;&gt;Node5</title>
<g id="a_edge4_Node000004_Node000005"><a xlink:title=" ">
<path fill="none" stroke="#63b8ff" d="M238.24,-70.58C206.25,-61.65 147.29,-45.2 103.11,-32.87"/>
<polygon fill="#63b8ff" stroke="#63b8ff" points="104.37,-29.31 93.79,-29.99 102.49,-36.05 104.37,-29.31"/>
</a>
</g>
</g>
<!-- Node4&#45;&gt;Node6 -->
<g id="edge5_Node000004_Node000006" class="edge">
<title>Node4&#45;&gt;Node6</title>
<g id="a_edge5_Node000004_Node000006"><a xlink:title=" ">
<path fill="none" stroke="#63b8ff" d="M241.41,-67.62C220.62,-57.81 187.75,-42.27 163.89,-31"/>
<polygon fill="#63b8ff" stroke="#63b8ff" points="165.49,-27.42 154.95,-26.31 162.5,-33.75 165.49,-27.42"/>
</a>
</g>
</g>
<!-- Node4&#45;&gt;Node7 -->
<g id="edge6_Node000004_Node000007" class="edge">
<title>Node4&#45;&gt;Node7</title>
<g id="a_edge6_Node000004_Node000007"><a xlink:title=" ">
<path fill="none" stroke="#63b8ff" d="M250.94,-67.62C240.9,-58.5 225.44,-44.45 213.35,-33.46"/>
<polygon fill="#63b8ff" stroke="#63b8ff" points="216.03,-31.25 206.27,-27.11 211.32,-36.43 216.03,-31.25"/>
</a>
</g>
</g>
<!-- Node4&#45;&gt;Node8 -->
<g id="edge7_Node000004_Node000008" class="edge">
<title>Node4&#45;&gt;Node8</title>
<g id="a_edge7_Node000004_Node000008"><a xlink:title=" ">
<path fill="none" stroke="#63b8ff" d="M281.09,-67.62C301.88,-57.81 334.75,-42.27 358.61,-31"/>
<polygon fill="#63b8ff" stroke="#63b8ff" points="360,-33.75 367.55,-26.31 357.01,-27.42 360,-33.75"/>
</a>
</g>
</g>
<!-- Node4&#45;&gt;Node9 -->
<g id="edge8_Node000004_Node000009" class="edge">
<title>Node4&#45;&gt;Node9</title>
<g id="a_edge8_Node000004_Node000009"><a xlink:title=" ">
<path fill="none" stroke="#63b8ff" d="M284.31,-70.57C314.8,-62.01 370.19,-46.3 417.25,-32 422.31,-30.46 427.66,-28.79 432.88,-27.15"/>
<polygon fill="#63b8ff" stroke="#63b8ff" points="433.77,-30.22 442.23,-23.85 431.64,-23.55 433.77,-30.22"/>
</a>
</g>
</g>
<!-- Node4&#45;&gt;Node10 -->
<g id="edge9_Node000004_Node000010" class="edge">
<title>Node4&#45;&gt;Node10</title>
<g id="a_edge9_Node000004_Node000010"><a xlink:title=" ">
<path fill="none" stroke="#63b8ff" d="M269.53,-67.62C277.43,-58.68 289.53,-44.99 299.14,-34.1"/>
<polygon fill="#63b8ff" stroke="#63b8ff" points="301.2,-36.92 305.2,-27.11 295.96,-32.29 301.2,-36.92"/>
</a>
</g>
</g>
<!-- Node4&#45;&gt;Node11 -->
<g id="edge10_Node000004_Node000011" class="edge">
<title>Node4&#45;&gt;Node11</title>
<g id="a_edge10_Node000004_Node000011"><a xlink:title=" ">
<path fill="none" stroke="#63b8ff" d="M260.94,-67.62C260.67,-59.48 260.26,-47.39 259.92,-37.07"/>
<polygon fill="#63b8ff" stroke="#63b8ff" points="263.39,-36.99 259.55,-27.11 256.39,-37.22 263.39,-36.99"/>
</a>
</g>
</g>
</g>
</svg>
