<?xml version="1.0" encoding="UTF-8" standalone="no"?>
<!DOCTYPE svg PUBLIC "-//W3C//DTD SVG 1.1//EN"
 "http://www.w3.org/Graphics/SVG/1.1/DTD/svg11.dtd">
<!-- Generated by graphviz version 8.1.0 (20230707.0739)
 -->
<!-- Title: CityMapMeshTag::ToUInt Pages: 1 -->
<svg width="660pt" height="78pt"
 viewBox="0.00 0.00 660.00 78.00" xmlns="http://www.w3.org/2000/svg" xmlns:xlink="http://www.w3.org/1999/xlink">
<g id="graph0" class="graph" transform="scale(1 1) rotate(0) translate(4 74)">
<title>CityMapMeshTag::ToUInt</title>
<!-- Node1 -->
<g id="Node000001" class="node">
<title>Node1</title>
<g id="a_Node000001"><a xlink:title="Convert Tag to an unsigned integer type.">
<polygon fill="#999999" stroke="#666666" points="652,-42 526.5,-42 526.5,-22 652,-22 652,-42"/>
<text text-anchor="middle" x="589.25" y="-28.5" font-family="Helvetica,sans-Serif" font-size="10.00">CityMapMeshTag::ToUInt</text>
</a>
</g>
</g>
<!-- Node2 -->
<g id="Node000002" class="node">
<title>Node2</title>
<g id="a_Node000002"><a xlink:href="../../d6/d33/classCityMapMeshTag.html#a7466d877b3c82a695c664c0634f8bdeb" target="_top" xlink:title="Return the number of tags.">
<polygon fill="white" stroke="#666666" points="490.5,-48 343.25,-48 343.25,-16 490.5,-16 490.5,-48"/>
<text text-anchor="start" x="351.25" y="-34.5" font-family="Helvetica,sans-Serif" font-size="10.00">CityMapMeshTag::GetNumber</text>
<text text-anchor="middle" x="416.88" y="-22.5" font-family="Helvetica,sans-Serif" font-size="10.00">OfTags</text>
</a>
</g>
</g>
<!-- Node1&#45;&gt;Node2 -->
<g id="edge1_Node000001_Node000002" class="edge">
<title>Node1&#45;&gt;Node2</title>
<g id="a_edge1_Node000001_Node000002"><a xlink:title=" ">
<path fill="none" stroke="#63b8ff" d="M515.31,-32C507.2,-32 498.93,-32 490.82,-32"/>
<polygon fill="#63b8ff" stroke="#63b8ff" points="515.26,-35.5 525.26,-32 515.26,-28.5 515.26,-35.5"/>
</a>
</g>
</g>
<!-- Node3 -->
<g id="Node000003" class="node">
<title>Node3</title>
<g id="a_Node000003"><a xlink:href="../../d6/d33/classCityMapMeshTag.html#a6ed367e2730d152438d38ef15fe1fb5c" target="_top" xlink:title="Convert an unsigned integer to a ECityMapMeshTag.">
<polygon fill="white" stroke="#666666" points="307.25,-42 169.75,-42 169.75,-22 307.25,-22 307.25,-42"/>
<text text-anchor="middle" x="238.5" y="-28.5" font-family="Helvetica,sans-Serif" font-size="10.00">CityMapMeshTag::FromUInt</text>
</a>
</g>
</g>
<!-- Node2&#45;&gt;Node3 -->
<g id="edge2_Node000002_Node000003" class="edge">
<title>Node2&#45;&gt;Node3</title>
<g id="a_edge2_Node000002_Node000003"><a xlink:title=" ">
<path fill="none" stroke="#63b8ff" d="M332.13,-32C323.93,-32 315.67,-32 307.65,-32"/>
<polygon fill="#63b8ff" stroke="#63b8ff" points="331.86,-35.5 341.86,-32 331.86,-28.5 331.86,-35.5"/>
</a>
</g>
</g>
<!-- Node4 -->
<g id="Node000004" class="node">
<title>Node4</title>
<g id="a_Node000004"><a xlink:href="../../da/d1a/classACityMapMeshHolder.html#af027efb9d4245af7bb251ba552c173a5" target="_top" xlink:title="Initializes the mesh holders.">
<polygon fill="white" stroke="#666666" points="125.12,-70 8.62,-70 8.62,-38 125.12,-38 125.12,-70"/>
<text text-anchor="start" x="16.62" y="-56.5" font-family="Helvetica,sans-Serif" font-size="10.00">ACityMapMeshHolder</text>
<text text-anchor="middle" x="66.88" y="-44.5" font-family="Helvetica,sans-Serif" font-size="10.00">::ACityMapMeshHolder</text>
</a>
</g>
</g>
<!-- Node3&#45;&gt;Node4 -->
<g id="edge3_Node000003_Node000004" class="edge">
<title>Node3&#45;&gt;Node4</title>
<g id="a_edge3_Node000003_Node000004"><a xlink:title=" ">
<path fill="none" stroke="#63b8ff" d="M158.81,-42.21C147.6,-43.66 136.25,-45.13 125.54,-46.52"/>
<polygon fill="#63b8ff" stroke="#63b8ff" points="159.02,-45.58 168.48,-40.82 158.12,-38.64 159.02,-45.58"/>
</a>
</g>
</g>
<!-- Node5 -->
<g id="Node000005" class="node">
<title>Node5</title>
<g id="a_Node000005"><a xlink:href="../../d6/d33/classCityMapMeshTag.html#a2f3baa88c51abcb4f3801555d8e8bc5e" target="_top" xlink:title="Convert Value to ECityMapMeshTag and get its name as FString.">
<polygon fill="white" stroke="#666666" points="133.75,-20 0,-20 0,0 133.75,0 133.75,-20"/>
<text text-anchor="middle" x="66.88" y="-6.5" font-family="Helvetica,sans-Serif" font-size="10.00">CityMapMeshTag::ToString</text>
</a>
</g>
</g>
<!-- Node3&#45;&gt;Node5 -->
<g id="edge4_Node000003_Node000005" class="edge">
<title>Node3&#45;&gt;Node5</title>
<g id="a_edge4_Node000003_Node000005"><a xlink:title=" ">
<path fill="none" stroke="#63b8ff" d="M158.77,-21.79C150.57,-20.73 142.29,-19.65 134.25,-18.61"/>
<polygon fill="#63b8ff" stroke="#63b8ff" points="158.12,-25.36 168.48,-23.18 159.02,-18.42 158.12,-25.36"/>
</a>
</g>
</g>
</g>
</svg>
