<?xml version="1.0" encoding="UTF-8" standalone="no"?>
<!DOCTYPE svg PUBLIC "-//W3C//DTD SVG 1.1//EN"
 "http://www.w3.org/Graphics/SVG/1.1/DTD/svg11.dtd">
<!-- Generated by graphviz version 8.1.0 (20230707.0739)
 -->
<!-- Title: xpath_node_set_raw::remove_duplicates Pages: 1 -->
<svg width="368pt" height="218pt"
 viewBox="0.00 0.00 367.50 218.00" xmlns="http://www.w3.org/2000/svg" xmlns:xlink="http://www.w3.org/1999/xlink">

<svg id="main" version="1.1" xmlns="http://www.w3.org/2000/svg" xmlns:xlink="http://www.w3.org/1999/xlink" xml:space="preserve" onload="init(evt)">
<style type="text/css"><![CDATA[
.node, .edge {opacity: 0.7;}
.node.selected, .edge.selected {opacity: 1;}
.edge:hover path { stroke: red; }
.edge:hover polygon { stroke: red; fill: red; }
]]></style>
<script type="application/ecmascript" xlink:href="../../svg.min.js"/>
<svg id="graph" class="graph">
<g id="graph0" class="graph" transform="scale(1 1) rotate(0) translate(4 214)">
<title>xpath_node_set_raw::remove_duplicates</title>
<!-- Node1 -->
<g id="Node000001" class="node">
<title>Node1</title>
<g id="a_Node000001"><a xlink:title=" ">
<polygon fill="#999999" stroke="#666666" points="105.25,-83 0,-83 0,-51 105.25,-51 105.25,-83"/>
<text text-anchor="start" x="8" y="-69.5" font-family="Helvetica,sans-Serif" font-size="10.00">xpath_node_set_raw</text>
<text text-anchor="middle" x="52.62" y="-57.5" font-family="Helvetica,sans-Serif" font-size="10.00">::remove_duplicates</text>
</a>
</g>
</g>
<!-- Node2 -->
<g id="Node000002" class="node">
<title>Node2</title>
<g id="a_Node000002"><a xlink:href="../../db/d20/pugixml_8cpp.html#a422d054a9e9fa1f5546a8365cd1d757b" target="_top" xlink:title=" ">
<polygon fill="white" stroke="#666666" points="173.75,-115 141.25,-115 141.25,-95 173.75,-95 173.75,-115"/>
<text text-anchor="middle" x="157.5" y="-101.5" font-family="Helvetica,sans-Serif" font-size="10.00">sort</text>
</a>
</g>
</g>
<!-- Node1&#45;&gt;Node2 -->
<g id="edge1_Node000001_Node000002" class="edge">
<title>Node1&#45;&gt;Node2</title>
<g id="a_edge1_Node000001_Node000002"><a xlink:title=" ">
<path fill="none" stroke="#63b8ff" d="M98.15,-83.45C109.2,-87.53 120.68,-91.77 130.5,-95.4"/>
<polygon fill="#63b8ff" stroke="#63b8ff" points="129.19,-99.01 139.78,-99.19 131.61,-92.45 129.19,-99.01"/>
</a>
</g>
</g>
<!-- Node9 -->
<g id="Node000009" class="node">
<title>Node9</title>
<g id="a_Node000009"><a xlink:href="../../db/d20/pugixml_8cpp.html#a50d3fa6d38fd850cdc7842683e656a11" target="_top" xlink:title=" ">
<polygon fill="white" stroke="#666666" points="269.25,-20 224.75,-20 224.75,0 269.25,0 269.25,-20"/>
<text text-anchor="middle" x="247" y="-6.5" font-family="Helvetica,sans-Serif" font-size="10.00">unique</text>
</a>
</g>
</g>
<!-- Node1&#45;&gt;Node9 -->
<g id="edge14_Node000001_Node000009" class="edge">
<title>Node1&#45;&gt;Node9</title>
<g id="a_edge14_Node000001_Node000009"><a xlink:title=" ">
<path fill="none" stroke="#63b8ff" d="M105.68,-51.57C140.22,-41.34 184.44,-28.24 213.92,-19.51"/>
<polygon fill="#63b8ff" stroke="#63b8ff" points="214.85,-22.58 223.44,-16.39 212.86,-15.87 214.85,-22.58"/>
</a>
</g>
</g>
<!-- Node2&#45;&gt;Node2 -->
<g id="edge13_Node000002_Node000002" class="edge">
<title>Node2&#45;&gt;Node2</title>
<g id="a_edge13_Node000002_Node000002"><a xlink:title=" ">
<path fill="none" stroke="#63b8ff" d="M143.28,-115.34C137.2,-123.98 141.94,-133 157.5,-133 166.25,-133 171.58,-130.14 173.49,-126.11"/>
<polygon fill="#63b8ff" stroke="#63b8ff" points="176.79,-125.64 171.72,-116.34 169.88,-126.77 176.79,-125.64"/>
</a>
</g>
</g>
<!-- Node3 -->
<g id="Node000003" class="node">
<title>Node3</title>
<g id="a_Node000003"><a xlink:href="../../da/de4/ActorRegistry_8h.html#a8adba6c42fed3c86324a62968648d6a0" target="_top" xlink:title="名称范围迭代支持">
<polygon fill="white" stroke="#666666" points="359.5,-77 320.25,-77 320.25,-57 359.5,-57 359.5,-77"/>
<text text-anchor="middle" x="339.88" y="-63.5" font-family="Helvetica,sans-Serif" font-size="10.00">begin</text>
</a>
</g>
</g>
<!-- Node2&#45;&gt;Node3 -->
<g id="edge2_Node000002_Node000003" class="edge">
<title>Node2&#45;&gt;Node3</title>
<g id="a_edge2_Node000002_Node000003"><a xlink:title=" ">
<path fill="none" stroke="#63b8ff" d="M168.34,-94.62C177.9,-85.34 193.34,-72.42 209.75,-67 242.53,-56.17 282.6,-58.37 309.33,-61.84"/>
<polygon fill="#63b8ff" stroke="#63b8ff" points="308.5,-65.41 318.9,-63.37 309.51,-58.48 308.5,-65.41"/>
</a>
</g>
</g>
<!-- Node4 -->
<g id="Node000004" class="node">
<title>Node4</title>
<g id="a_Node000004"><a xlink:href="../../da/de4/ActorRegistry_8h.html#a10fc66af197e25cb554f58a721a473a3" target="_top" xlink:title=" ">
<polygon fill="white" stroke="#666666" points="355.75,-115 324,-115 324,-95 355.75,-95 355.75,-115"/>
<text text-anchor="middle" x="339.88" y="-101.5" font-family="Helvetica,sans-Serif" font-size="10.00">end</text>
</a>
</g>
</g>
<!-- Node2&#45;&gt;Node4 -->
<g id="edge3_Node000002_Node000004" class="edge">
<title>Node2&#45;&gt;Node4</title>
<g id="a_edge3_Node000002_Node000004"><a xlink:title=" ">
<path fill="none" stroke="#63b8ff" d="M168.34,-115.38C177.9,-124.66 193.34,-137.58 209.75,-143 241.19,-153.38 252.66,-152.91 284.25,-143 297.42,-138.87 310.19,-130.32 320.07,-122.38"/>
<polygon fill="#63b8ff" stroke="#63b8ff" points="321.92,-124.55 327.25,-115.4 317.37,-119.22 321.92,-124.55"/>
</a>
</g>
</g>
<!-- Node5 -->
<g id="Node000005" class="node">
<title>Node5</title>
<g id="a_Node000005"><a xlink:href="../../db/d20/pugixml_8cpp.html#a05865f7b9926553c6a558800fdb25c50" target="_top" xlink:title=" ">
<polygon fill="white" stroke="#666666" points="284.25,-96 209.75,-96 209.75,-76 284.25,-76 284.25,-96"/>
<text text-anchor="middle" x="247" y="-82.5" font-family="Helvetica,sans-Serif" font-size="10.00">insertion_sort</text>
</a>
</g>
</g>
<!-- Node2&#45;&gt;Node5 -->
<g id="edge4_Node000002_Node000005" class="edge">
<title>Node2&#45;&gt;Node5</title>
<g id="a_edge4_Node000002_Node000005"><a xlink:title=" ">
<path fill="none" stroke="#63b8ff" d="M174.14,-101.6C181.21,-100.07 189.97,-98.17 198.92,-96.22"/>
<polygon fill="#63b8ff" stroke="#63b8ff" points="199.39,-99.48 208.42,-93.94 197.91,-92.64 199.39,-99.48"/>
</a>
</g>
</g>
<!-- Node6 -->
<g id="Node000006" class="node">
<title>Node6</title>
<g id="a_Node000006"><a xlink:href="../../db/d20/pugixml_8cpp.html#a1212d7df5db87e06b12d2a2705e4b73d" target="_top" xlink:title=" ">
<polygon fill="white" stroke="#666666" points="273.38,-210 220.62,-210 220.62,-190 273.38,-190 273.38,-210"/>
<text text-anchor="middle" x="247" y="-196.5" font-family="Helvetica,sans-Serif" font-size="10.00">median3</text>
</a>
</g>
</g>
<!-- Node2&#45;&gt;Node6 -->
<g id="edge7_Node000002_Node000006" class="edge">
<title>Node2&#45;&gt;Node6</title>
<g id="a_edge7_Node000002_Node000006"><a xlink:title=" ">
<path fill="none" stroke="#63b8ff" d="M164.15,-115.05C172.69,-129.64 190.01,-157.05 209.75,-176 212.5,-178.64 215.58,-181.18 218.75,-183.54"/>
<polygon fill="#63b8ff" stroke="#63b8ff" points="216.49,-186.93 226.72,-189.71 220.46,-181.16 216.49,-186.93"/>
</a>
</g>
</g>
<!-- Node8 -->
<g id="Node000008" class="node">
<title>Node8</title>
<g id="a_Node000008"><a xlink:href="../../db/d20/pugixml_8cpp.html#aeb68906c8604e448eb4a5ccea121768f" target="_top" xlink:title=" ">
<polygon fill="white" stroke="#666666" points="274.88,-134 219.12,-134 219.12,-114 274.88,-114 274.88,-134"/>
<text text-anchor="middle" x="247" y="-120.5" font-family="Helvetica,sans-Serif" font-size="10.00">partition3</text>
</a>
</g>
</g>
<!-- Node2&#45;&gt;Node8 -->
<g id="edge9_Node000002_Node000008" class="edge">
<title>Node2&#45;&gt;Node8</title>
<g id="a_edge9_Node000002_Node000008"><a xlink:title=" ">
<path fill="none" stroke="#63b8ff" d="M174.14,-108.4C183.63,-110.46 196.17,-113.18 208.11,-115.77"/>
<polygon fill="#63b8ff" stroke="#63b8ff" points="207.3,-119.39 217.81,-118.1 208.78,-112.55 207.3,-119.39"/>
</a>
</g>
</g>
<!-- Node5&#45;&gt;Node3 -->
<g id="edge5_Node000005_Node000003" class="edge">
<title>Node5&#45;&gt;Node3</title>
<g id="a_edge5_Node000005_Node000003"><a xlink:title=" ">
<path fill="none" stroke="#63b8ff" d="M284.7,-78.33C292.78,-76.64 301.23,-74.87 309,-73.25"/>
<polygon fill="#63b8ff" stroke="#63b8ff" points="309.69,-76.47 318.76,-71 308.26,-69.62 309.69,-76.47"/>
</a>
</g>
</g>
<!-- Node5&#45;&gt;Node4 -->
<g id="edge6_Node000005_Node000004" class="edge">
<title>Node5&#45;&gt;Node4</title>
<g id="a_edge6_Node000005_Node000004"><a xlink:title=" ">
<path fill="none" stroke="#63b8ff" d="M284.7,-93.67C294.15,-95.65 304.13,-97.74 312.91,-99.57"/>
<polygon fill="#63b8ff" stroke="#63b8ff" points="312.12,-103.19 322.62,-101.81 313.55,-96.34 312.12,-103.19"/>
</a>
</g>
</g>
<!-- Node7 -->
<g id="Node000007" class="node">
<title>Node7</title>
<g id="a_Node000007"><a xlink:href="../../db/d20/pugixml_8cpp.html#aab8f818e90a34b18c1da140588eca88d" target="_top" xlink:title=" ">
<polygon fill="white" stroke="#666666" points="359.12,-181 320.62,-181 320.62,-161 359.12,-161 359.12,-181"/>
<text text-anchor="middle" x="339.88" y="-167.5" font-family="Helvetica,sans-Serif" font-size="10.00">swap</text>
</a>
</g>
</g>
<!-- Node6&#45;&gt;Node7 -->
<g id="edge8_Node000006_Node000007" class="edge">
<title>Node6&#45;&gt;Node7</title>
<g id="a_edge8_Node000006_Node000007"><a xlink:title=" ">
<path fill="none" stroke="#63b8ff" d="M273.8,-191.77C285.01,-188.19 298.2,-183.98 309.76,-180.29"/>
<polygon fill="#63b8ff" stroke="#63b8ff" points="310.77,-183.32 319.23,-176.95 308.64,-176.65 310.77,-183.32"/>
</a>
</g>
</g>
<!-- Node8&#45;&gt;Node3 -->
<g id="edge10_Node000008_Node000003" class="edge">
<title>Node8&#45;&gt;Node3</title>
<g id="a_edge10_Node000008_Node000003"><a xlink:title=" ">
<path fill="none" stroke="#63b8ff" d="M268.95,-113.59C274.03,-110.91 279.39,-107.95 284.25,-105 295.18,-98.37 306.86,-90.37 316.61,-83.43"/>
<polygon fill="#63b8ff" stroke="#63b8ff" points="318.22,-85.87 324.27,-77.17 314.12,-80.19 318.22,-85.87"/>
</a>
</g>
</g>
<!-- Node8&#45;&gt;Node4 -->
<g id="edge11_Node000008_Node000004" class="edge">
<title>Node8&#45;&gt;Node4</title>
<g id="a_edge11_Node000008_Node000004"><a xlink:title=" ">
<path fill="none" stroke="#63b8ff" d="M275.27,-118.3C287.23,-115.8 301.21,-112.88 313.01,-110.41"/>
<polygon fill="#63b8ff" stroke="#63b8ff" points="313.45,-113.68 322.52,-108.21 312.01,-106.83 313.45,-113.68"/>
</a>
</g>
</g>
<!-- Node8&#45;&gt;Node7 -->
<g id="edge12_Node000008_Node000007" class="edge">
<title>Node8&#45;&gt;Node7</title>
<g id="a_edge12_Node000008_Node000007"><a xlink:title=" ">
<path fill="none" stroke="#63b8ff" d="M268.17,-134.43C280.71,-140.92 297.01,-149.35 310.8,-156.48"/>
<polygon fill="#63b8ff" stroke="#63b8ff" points="308.82,-159.91 319.31,-161.4 312.04,-153.7 308.82,-159.91"/>
</a>
</g>
</g>
<!-- Node9&#45;&gt;Node3 -->
<g id="edge15_Node000009_Node000003" class="edge">
<title>Node9&#45;&gt;Node3</title>
<g id="a_edge15_Node000009_Node000003"><a xlink:title=" ">
<path fill="none" stroke="#63b8ff" d="M264.67,-20.45C278.25,-28.97 297.65,-41.14 313.21,-50.9"/>
<polygon fill="#63b8ff" stroke="#63b8ff" points="310.98,-54.26 321.31,-56.61 314.7,-48.33 310.98,-54.26"/>
</a>
</g>
</g>
<!-- Node9&#45;&gt;Node4 -->
<g id="edge16_Node000009_Node000004" class="edge">
<title>Node9&#45;&gt;Node4</title>
<g id="a_edge16_Node000009_Node000004"><a xlink:title=" ">
<path fill="none" stroke="#63b8ff" d="M257.77,-20.37C271.61,-35.05 297.74,-62.69 320.25,-86 320.5,-86.26 320.76,-86.53 321.01,-86.79"/>
<polygon fill="#63b8ff" stroke="#63b8ff" points="318.11,-88.86 327.6,-93.57 323.13,-83.97 318.11,-88.86"/>
</a>
</g>
</g>
</g>
</svg>
</svg>

<style type='text/css'>
<![CDATA[
[data-mouse-over-selected='false'] { opacity: 0.7; }
[data-mouse-over-selected='true']  { opacity: 1.0; }
]]>
</style>
<script type="application/ecmascript"><![CDATA[
document.addEventListener('DOMContentLoaded', (event) => {
  highlightEdges();
  highlightAdjacentNodes();
});
]]></script>
</svg>
