<?xml version="1.0" encoding="UTF-8" standalone="no"?>
<!DOCTYPE svg PUBLIC "-//W3C//DTD SVG 1.1//EN"
 "http://www.w3.org/Graphics/SVG/1.1/DTD/svg11.dtd">
<!-- Generated by graphviz version 8.1.0 (20230707.0739)
 -->
<!-- Title: FTileData::UpdateTileMeshComponent Pages: 1 -->
<!--zoomable 70 -->

<svg id="main" version="1.1" xmlns="http://www.w3.org/2000/svg" xmlns:xlink="http://www.w3.org/1999/xlink" xml:space="preserve" onload="init(evt)">
<style type="text/css"><![CDATA[
.node, .edge {opacity: 0.7;}
.node.selected, .edge.selected {opacity: 1;}
.edge:hover path { stroke: red; }
.edge:hover polygon { stroke: red; fill: red; }
]]></style>

<defs>
  <circle id="rim" cx="0" cy="0" r="7"/>
  <circle id="rim2" cx="0" cy="0" r="3.5"/>
  <g id="zoomPlus">
    <use xlink:href="#rim" fill="#404040"><set attributeName="fill" to="#808080" begin="zoomplus.mouseover" end="zoomplus.mouseout"/></use>
    <path d="M-4,0h8M0,-4v8" fill="none" stroke="white" stroke-width="1.5" pointer-events="none"/>
  </g>
  <g id="zoomMin">
    <use xlink:href="#rim" fill="#404040"><set attributeName="fill" to="#808080" begin="zoomminus.mouseover" end="zoomminus.mouseout"/></use>
    <path d="M-4,0h8" fill="none" stroke="white" stroke-width="1.5" pointer-events="none"/>
  </g>
  <g id="arrowUp" transform="translate(30 24)">
    <use xlink:href="#rim"/>
    <path pointer-events="none" fill="none" stroke="white" stroke-width="1.5" d="M0,-3.0v7 M-2.5,-0.5L0,-3.0L2.5,-0.5"/>
  </g>
  <g id="arrowRight" transform="rotate(90) translate(36 -43)">
    <use xlink:href="#rim"/>
    <path pointer-events="none" fill="none" stroke="white" stroke-width="1.5" d="M0,-3.0v7 M-2.5,-0.5L0,-3.0L2.5,-0.5"/>
  </g>
  <g id="arrowDown" transform="rotate(180) translate(-30 -48)">
    <use xlink:href="#rim"/>
    <path pointer-events="none" fill="none" stroke="white" stroke-width="1.5" d="M0,-3.0v7 M-2.5,-0.5L0,-3.0L2.5,-0.5"/>
  </g>
  <g id="arrowLeft" transform="rotate(270) translate(-36 17)">
    <use xlink:href="#rim"/>
    <path pointer-events="none" fill="none" stroke="white" stroke-width="1.5" d="M0,-3.0v7 M-2.5,-0.5L0,-3.0L2.5,-0.5"/>
  </g>
  <g id="resetDef">
    <use xlink:href="#rim2" fill="#404040"><set attributeName="fill" to="#808080" begin="reset.mouseover" end="reset.mouseout"/></use>
  </g>
</defs>
<script type="application/ecmascript">
var viewWidth = 970;
var viewHeight = 70;
var sectionId = 'dynsection-4';
</script>
<script type="application/ecmascript" xlink:href="../../svg.min.js"/>
<svg id="graph" class="graph">
<g id="viewport">
<title>FTileData::UpdateTileMeshComponent</title>
<!-- Node1 -->
<g id="Node000001" class="node">
<title>Node1</title>
<g id="a_Node000001"><a xlink:title=" ">
<polygon fill="#999999" stroke="#666666" points="961.5,-38 828.5,-38 828.5,-6 961.5,-6 961.5,-38"/>
<text text-anchor="start" x="836.5" y="-24.5" font-family="Helvetica,sans-Serif" font-size="10.00">FTileData::UpdateTileMesh</text>
<text text-anchor="middle" x="895" y="-12.5" font-family="Helvetica,sans-Serif" font-size="10.00">Component</text>
</a>
</g>
</g>
<!-- Node2 -->
<g id="Node000002" class="node">
<title>Node2</title>
<g id="a_Node000002"><a xlink:href="../../dd/dfc/classAVegetationManager.html#a25d35874d855f175831b073c099b6ce0" target="_top" xlink:title=" ">
<polygon fill="white" stroke="#666666" points="792.5,-44 614.5,-44 614.5,0 792.5,0 792.5,-44"/>
<text text-anchor="start" x="622.5" y="-30.5" font-family="Helvetica,sans-Serif" font-size="10.00">AVegetationManager</text>
<text text-anchor="start" x="622.5" y="-18.5" font-family="Helvetica,sans-Serif" font-size="10.00">::SetInstancedStaticMeshComponent</text>
<text text-anchor="middle" x="703.5" y="-6.5" font-family="Helvetica,sans-Serif" font-size="10.00">Cache</text>
</a>
</g>
</g>
<!-- Node1&#45;&gt;Node2 -->
<g id="edge1_Node000001_Node000002" class="edge">
<title>Node1&#45;&gt;Node2</title>
<g id="a_edge1_Node000001_Node000002"><a xlink:title=" ">
<path fill="none" stroke="#63b8ff" d="M817.37,-22C809.29,-22 801.03,-22 792.83,-22"/>
<polygon fill="#63b8ff" stroke="#63b8ff" points="817.25,-25.5 827.25,-22 817.25,-18.5 817.25,-25.5"/>
</a>
</g>
</g>
<!-- Node2&#45;&gt;Node2 -->
<g id="edge2_Node000002_Node000002" class="edge">
<title>Node2&#45;&gt;Node2</title>
<g id="a_edge2_Node000002_Node000002"><a xlink:title=" ">
<path fill="none" stroke="#63b8ff" d="M733.62,-54.4C728.71,-58.95 718.67,-62 703.5,-62 678.61,-62 667.52,-53.8 670.25,-44.21"/>
<polygon fill="#63b8ff" stroke="#63b8ff" points="737.16,-55.8 736.75,-45.21 730.47,-53.74 737.16,-55.8"/>
</a>
</g>
</g>
<!-- Node3 -->
<g id="Node000003" class="node">
<title>Node3</title>
<g id="a_Node000003"><a xlink:href="../../dd/dfc/classAVegetationManager.html#af46c33721883d7b9ad484f8a1b6f68c4" target="_top" xlink:title=" ">
<polygon fill="white" stroke="#666666" points="578.5,-38 469.5,-38 469.5,-6 578.5,-6 578.5,-38"/>
<text text-anchor="start" x="477.5" y="-24.5" font-family="Helvetica,sans-Serif" font-size="10.00">AVegetationManager</text>
<text text-anchor="middle" x="524" y="-12.5" font-family="Helvetica,sans-Serif" font-size="10.00">::SetTileDataInternals</text>
</a>
</g>
</g>
<!-- Node2&#45;&gt;Node3 -->
<g id="edge3_Node000002_Node000003" class="edge">
<title>Node2&#45;&gt;Node3</title>
<g id="a_edge3_Node000002_Node000003"><a xlink:title=" ">
<path fill="none" stroke="#63b8ff" d="M603.08,-22C594.8,-22 586.65,-22 578.91,-22"/>
<polygon fill="#63b8ff" stroke="#63b8ff" points="603.01,-25.5 613.01,-22 603.01,-18.5 603.01,-25.5"/>
</a>
</g>
</g>
<!-- Node3&#45;&gt;Node3 -->
<g id="edge10_Node000003_Node000003" class="edge">
<title>Node3&#45;&gt;Node3</title>
<g id="a_edge10_Node000003_Node000003"><a xlink:title=" ">
<path fill="none" stroke="#63b8ff" d="M551,-49.05C546.89,-53.19 537.89,-56 524,-56 499.97,-56 490.58,-47.58 495.84,-38.44"/>
<polygon fill="#63b8ff" stroke="#63b8ff" points="554.55,-49.77 552.16,-39.44 547.59,-49 554.55,-49.77"/>
</a>
</g>
</g>
<!-- Node4 -->
<g id="Node000004" class="node">
<title>Node4</title>
<g id="a_Node000004"><a xlink:href="../../dd/dfc/classAVegetationManager.html#a9181debaeebfb82bc853ec5b9abc400d" target="_top" xlink:title=" ">
<polygon fill="white" stroke="#666666" points="433.5,-38 299,-38 299,-6 433.5,-6 433.5,-38"/>
<text text-anchor="start" x="307" y="-24.5" font-family="Helvetica,sans-Serif" font-size="10.00">AVegetationManager</text>
<text text-anchor="middle" x="366.25" y="-12.5" font-family="Helvetica,sans-Serif" font-size="10.00">::CreateOrUpdateTileCache</text>
</a>
</g>
</g>
<!-- Node3&#45;&gt;Node4 -->
<g id="edge4_Node000003_Node000004" class="edge">
<title>Node3&#45;&gt;Node4</title>
<g id="a_edge4_Node000003_Node000004"><a xlink:title=" ">
<path fill="none" stroke="#63b8ff" d="M458.48,-22C450.36,-22 442.04,-22 433.88,-22"/>
<polygon fill="#63b8ff" stroke="#63b8ff" points="458.4,-25.5 468.4,-22 458.4,-18.5 458.4,-25.5"/>
</a>
</g>
</g>
<!-- Node4&#45;&gt;Node4 -->
<g id="edge5_Node000004_Node000004" class="edge">
<title>Node4&#45;&gt;Node4</title>
<g id="a_edge5_Node000004_Node000004"><a xlink:title=" ">
<path fill="none" stroke="#63b8ff" d="M393.25,-49.05C389.14,-53.19 380.14,-56 366.25,-56 342.22,-56 332.83,-47.58 338.09,-38.44"/>
<polygon fill="#63b8ff" stroke="#63b8ff" points="396.8,-49.77 394.41,-39.44 389.84,-49 396.8,-49.77"/>
</a>
</g>
</g>
<!-- Node5 -->
<g id="Node000005" class="node">
<title>Node5</title>
<g id="a_Node000005"><a xlink:href="../../dd/dfc/classAVegetationManager.html#acf2b61c9dc617c0968f75af789a3232c" target="_top" xlink:title=" ">
<polygon fill="white" stroke="#666666" points="263,-38 142.75,-38 142.75,-6 263,-6 263,-38"/>
<text text-anchor="start" x="150.75" y="-24.5" font-family="Helvetica,sans-Serif" font-size="10.00">AVegetationManager</text>
<text text-anchor="middle" x="202.88" y="-12.5" font-family="Helvetica,sans-Serif" font-size="10.00">::OnLevelAddedToWorld</text>
</a>
</g>
</g>
<!-- Node4&#45;&gt;Node5 -->
<g id="edge6_Node000004_Node000005" class="edge">
<title>Node4&#45;&gt;Node5</title>
<g id="a_edge6_Node000004_Node000005"><a xlink:title=" ">
<path fill="none" stroke="#63b8ff" d="M287.88,-22C279.63,-22 271.32,-22 263.32,-22"/>
<polygon fill="#63b8ff" stroke="#63b8ff" points="287.68,-25.5 297.68,-22 287.68,-18.5 287.68,-25.5"/>
</a>
</g>
</g>
<!-- Node5&#45;&gt;Node5 -->
<g id="edge9_Node000005_Node000005" class="edge">
<title>Node5&#45;&gt;Node5</title>
<g id="a_edge9_Node000005_Node000005"><a xlink:title=" ">
<path fill="none" stroke="#63b8ff" d="M228.46,-49.05C224.57,-53.19 216.04,-56 202.88,-56 180.1,-56 171.2,-47.58 176.19,-38.44"/>
<polygon fill="#63b8ff" stroke="#63b8ff" points="232.01,-49.75 229.56,-39.44 225.05,-49.03 232.01,-49.75"/>
</a>
</g>
</g>
<!-- Node6 -->
<g id="Node000006" class="node">
<title>Node6</title>
<g id="a_Node000006"><a xlink:href="../../dd/dfc/classAVegetationManager.html#ad8d1fb58c6f26e253d6466e8a240ead2" target="_top" xlink:title=" ">
<polygon fill="white" stroke="#666666" points="106.75,-38 0,-38 0,-6 106.75,-6 106.75,-38"/>
<text text-anchor="start" x="8" y="-24.5" font-family="Helvetica,sans-Serif" font-size="10.00">AVegetationManager</text>
<text text-anchor="middle" x="53.38" y="-12.5" font-family="Helvetica,sans-Serif" font-size="10.00">::BeginPlay</text>
</a>
</g>
</g>
<!-- Node5&#45;&gt;Node6 -->
<g id="edge7_Node000005_Node000006" class="edge">
<title>Node5&#45;&gt;Node6</title>
<g id="a_edge7_Node000005_Node000006"><a xlink:title=" ">
<path fill="none" stroke="#63b8ff" d="M131.53,-22C123.29,-22 114.98,-22 107.04,-22"/>
<polygon fill="#63b8ff" stroke="#63b8ff" points="131.31,-25.5 141.31,-22 131.31,-18.5 131.31,-25.5"/>
</a>
</g>
</g>
<!-- Node6&#45;&gt;Node6 -->
<g id="edge8_Node000006_Node000006" class="edge">
<title>Node6&#45;&gt;Node6</title>
<g id="a_edge8_Node000006_Node000006"><a xlink:title=" ">
<path fill="none" stroke="#63b8ff" d="M78.96,-49.05C75.07,-53.19 66.54,-56 53.38,-56 30.6,-56 21.7,-47.58 26.69,-38.44"/>
<polygon fill="#63b8ff" stroke="#63b8ff" points="82.51,-49.75 80.06,-39.44 75.55,-49.03 82.51,-49.75"/>
</a>
</g>
</g>
</g>
</svg>

<g id="navigator" transform="translate(0 0)" fill="#404254">
  <rect fill="#f2f5e9" fill-opacity="0.5" stroke="#606060" stroke-width=".5" x="0" y="0" width="60" height="60"/>
  <use id="zoomplus" xlink:href="#zoomPlus" x="17" y="9" onmousedown="handleZoom(evt,'in')"/>
  <use id="zoomminus" xlink:href="#zoomMin" x="42" y="9" onmousedown="handleZoom(evt,'out')"/>
  <use id="reset" xlink:href="#resetDef" x="30" y="36" onmousedown="handleReset()"/>
   <use id="arrowup" xlink:href="#arrowUp" x="0" y="0" onmousedown="handlePan(0,-1)"/>
  <use id="arrowright" xlink:href="#arrowRight" x="0" y="0" onmousedown="handlePan(1,0)"/>
  <use id="arrowdown" xlink:href="#arrowDown" x="0" y="0" onmousedown="handlePan(0,1)"/>
  <use id="arrowleft" xlink:href="#arrowLeft" x="0" y="0" onmousedown="handlePan(-1,0)"/>
</g>
<svg viewBox="0 0 15 15" width="100%" height="30px" preserveAspectRatio="xMaxYMin meet">
 <g id="arrow_out" transform="scale(0.3 0.3)">
  <a xlink:href="structFTileData_acc70f7876ec081f5d053f1e94a3aae37_icgraph_org.svg" target="_base">
   <rect id="button" ry="5" rx="5" y="6" x="6" height="38" width="38"
        fill="#f2f5e9" fill-opacity="0.5" stroke="#606060" stroke-width="1.0"/>
   <path id="arrow"
     d="M 11.500037,31.436501 C 11.940474,20.09759 22.043105,11.32322 32.158766,21.979434 L 37.068811,17.246167 C 37.068811,17.246167 37.088388,32 37.088388,32 L 22.160133,31.978069 C 22.160133,31.978069 26.997745,27.140456 26.997745,27.140456 C 18.528582,18.264221 13.291696,25.230495 11.500037,31.436501 z"
     style="fill:#404040;"/>
  </a>
 </g>
</svg>

<style type='text/css'>
<![CDATA[
[data-mouse-over-selected='false'] { opacity: 0.7; }
[data-mouse-over-selected='true']  { opacity: 1.0; }
]]>
</style>
<script type="application/ecmascript"><![CDATA[
document.addEventListener('DOMContentLoaded', (event) => {
  highlightEdges();
  highlightAdjacentNodes();
});
]]></script>
</svg>
