<?xml version="1.0" encoding="UTF-8" standalone="no"?>
<!DOCTYPE svg PUBLIC "-//W3C//DTD SVG 1.1//EN"
 "http://www.w3.org/Graphics/SVG/1.1/DTD/svg11.dtd">
<!-- Generated by graphviz version 8.1.0 (20230707.0739)
 -->
<!-- Title: BoundingBoxCalculator.h Pages: 1 -->
<svg width="610pt" height="152pt"
 viewBox="0.00 0.00 609.50 152.00" xmlns="http://www.w3.org/2000/svg" xmlns:xlink="http://www.w3.org/1999/xlink">
<g id="graph0" class="graph" transform="scale(1 1) rotate(0) translate(4 148)">
<title>BoundingBoxCalculator.h</title>
<!-- Node1 -->
<g id="Node000001" class="node">
<title>Node1</title>
<g id="a_Node000001"><a xlink:title=" ">
<polygon fill="#999999" stroke="#666666" points="340.62,-144 215.12,-144 215.12,-124 340.62,-124 340.62,-144"/>
<text text-anchor="middle" x="277.88" y="-130.5" font-family="Helvetica,sans-Serif" font-size="10.00">BoundingBoxCalculator.h</text>
</a>
</g>
</g>
<!-- Node2 -->
<g id="Node000002" class="node">
<title>Node2</title>
<g id="a_Node000002"><a xlink:href="../../d2/d62/Unreal_2CarlaUE4_2Plugins_2Carla_2Source_2Carla_2Util_2BoundingBox_8h.html" target="_top" xlink:title=" ">
<polygon fill="white" stroke="#666666" points="126.25,-82 1.5,-82 1.5,-62 126.25,-62 126.25,-82"/>
<text text-anchor="middle" x="63.88" y="-68.5" font-family="Helvetica,sans-Serif" font-size="10.00">Carla/Util/BoundingBox.h</text>
</a>
</g>
</g>
<!-- Node1&#45;&gt;Node2 -->
<g id="edge1_Node000001_Node000002" class="edge">
<title>Node1&#45;&gt;Node2</title>
<g id="a_edge1_Node000001_Node000002"><a xlink:title=" ">
<path fill="none" stroke="#63b8ff" d="M244.44,-123.62C207.64,-113.31 148.35,-96.68 107.82,-85.32"/>
<polygon fill="#63b8ff" stroke="#63b8ff" points="109,-81.74 98.43,-82.41 107.11,-88.48 109,-81.74"/>
</a>
</g>
</g>
<!-- Node4 -->
<g id="Node000004" class="node">
<title>Node4</title>
<g id="a_Node000004"><a xlink:title=" ">
<polygon fill="#e0e0e0" stroke="#999999" points="269.62,-88 144.12,-88 144.12,-56 269.62,-56 269.62,-88"/>
<text text-anchor="start" x="152.12" y="-74.5" font-family="Helvetica,sans-Serif" font-size="10.00">Kismet/BlueprintFunction</text>
<text text-anchor="middle" x="206.88" y="-62.5" font-family="Helvetica,sans-Serif" font-size="10.00">Library.h</text>
</a>
</g>
</g>
<!-- Node1&#45;&gt;Node4 -->
<g id="edge3_Node000001_Node000004" class="edge">
<title>Node1&#45;&gt;Node4</title>
<g id="a_edge3_Node000001_Node000004"><a xlink:title=" ">
<path fill="none" stroke="#63b8ff" d="M266.78,-123.62C257.81,-116.04 244.8,-105.05 233.19,-95.24"/>
<polygon fill="#63b8ff" stroke="#63b8ff" points="235.96,-92.15 226.07,-88.37 231.45,-97.5 235.96,-92.15"/>
</a>
</g>
</g>
<!-- Node5 -->
<g id="Node000005" class="node">
<title>Node5</title>
<g id="a_Node000005"><a xlink:title=" ">
<polygon fill="#e0e0e0" stroke="#999999" points="412.25,-82 287.5,-82 287.5,-62 412.25,-62 412.25,-82"/>
<text text-anchor="middle" x="349.88" y="-68.5" font-family="Helvetica,sans-Serif" font-size="10.00">GameFramework/Actor.h</text>
</a>
</g>
</g>
<!-- Node1&#45;&gt;Node5 -->
<g id="edge4_Node000001_Node000005" class="edge">
<title>Node1&#45;&gt;Node5</title>
<g id="a_edge4_Node000001_Node000005"><a xlink:title=" ">
<path fill="none" stroke="#63b8ff" d="M289.12,-123.62C300.18,-114.41 317.27,-100.17 330.51,-89.14"/>
<polygon fill="#63b8ff" stroke="#63b8ff" points="332.5,-91.2 337.94,-82.11 328.02,-85.83 332.5,-91.2"/>
</a>
</g>
</g>
<!-- Node6 -->
<g id="Node000006" class="node">
<title>Node6</title>
<g id="a_Node000006"><a xlink:title=" ">
<polygon fill="#e0e0e0" stroke="#999999" points="601.5,-82 430.25,-82 430.25,-62 601.5,-62 601.5,-82"/>
<text text-anchor="middle" x="515.88" y="-68.5" font-family="Helvetica,sans-Serif" font-size="10.00">BoundingBoxCalculator.generated.h</text>
</a>
</g>
</g>
<!-- Node1&#45;&gt;Node6 -->
<g id="edge5_Node000001_Node000006" class="edge">
<title>Node1&#45;&gt;Node6</title>
<g id="a_edge5_Node000001_Node000006"><a xlink:title=" ">
<path fill="none" stroke="#63b8ff" d="M315.32,-123.56C356.53,-113.17 422.87,-96.45 467.87,-85.1"/>
<polygon fill="#63b8ff" stroke="#63b8ff" points="468.41,-88.32 477.25,-82.48 466.7,-81.54 468.41,-88.32"/>
</a>
</g>
</g>
<!-- Node3 -->
<g id="Node000003" class="node">
<title>Node3</title>
<g id="a_Node000003"><a xlink:title=" ">
<polygon fill="#e0e0e0" stroke="#999999" points="127.75,-20 0,-20 0,0 127.75,0 127.75,-20"/>
<text text-anchor="middle" x="63.88" y="-6.5" font-family="Helvetica,sans-Serif" font-size="10.00">BoundingBox.generated.h</text>
</a>
</g>
</g>
<!-- Node2&#45;&gt;Node3 -->
<g id="edge2_Node000002_Node000003" class="edge">
<title>Node2&#45;&gt;Node3</title>
<g id="a_edge2_Node000002_Node000003"><a xlink:title=" ">
<path fill="none" stroke="#63b8ff" d="M63.88,-61.62C63.88,-53.48 63.88,-41.39 63.88,-31.07"/>
<polygon fill="#63b8ff" stroke="#63b8ff" points="67.38,-31.11 63.88,-21.11 60.38,-31.11 67.38,-31.11"/>
</a>
</g>
</g>
</g>
</svg>
