<?xml version="1.0" encoding="UTF-8" standalone="no"?>
<!DOCTYPE svg PUBLIC "-//W3C//DTD SVG 1.1//EN"
 "http://www.w3.org/Graphics/SVG/1.1/DTD/svg11.dtd">
<!-- Generated by graphviz version 8.1.0 (20230707.0739)
 -->
<!-- Title: carla::traffic_manager::SimpleWaypoint Pages: 1 -->
<svg width="390pt" height="234pt"
 viewBox="0.00 0.00 390.25 234.00" xmlns="http://www.w3.org/2000/svg" xmlns:xlink="http://www.w3.org/1999/xlink">
<g id="graph0" class="graph" transform="scale(1 1) rotate(0) translate(4 230)">
<title>carla::traffic_manager::SimpleWaypoint</title>
<!-- Node1 -->
<g id="Node000001" class="node">
<title>Node1</title>
<g id="a_Node000001"><a xlink:title="This is a simple wrapper class on Carla&#39;s waypoint object.">
<polygon fill="#999999" stroke="#666666" points="382.25,-119 273.25,-119 273.25,-87 382.25,-87 382.25,-119"/>
<text text-anchor="start" x="281.25" y="-105.5" font-family="Helvetica,sans-Serif" font-size="10.00">carla::traffic_manager</text>
<text text-anchor="middle" x="327.75" y="-93.5" font-family="Helvetica,sans-Serif" font-size="10.00">::SimpleWaypoint</text>
</a>
</g>
</g>
<!-- Node2 -->
<g id="Node000002" class="node">
<title>Node2</title>
<g id="a_Node000002"><a xlink:title=" ">
<polygon fill="white" stroke="#666666" points="143.12,-225 7.88,-225 7.88,-205 143.12,-205 143.12,-225"/>
<text text-anchor="middle" x="75.5" y="-211.5" font-family="Helvetica,sans-Serif" font-size="10.00">SharedPtr&lt; cc::Waypoint &gt;</text>
</a>
</g>
</g>
<!-- Node2&#45;&gt;Node1 -->
<g id="edge1_Node000001_Node000002" class="edge">
<title>Node2&#45;&gt;Node1</title>
<g id="a_edge1_Node000001_Node000002"><a xlink:title=" ">
<path fill="none" stroke="#9a32cd" stroke-dasharray="5,2" d="M154.39,-215.8C187.28,-213.16 224.9,-206.01 255.25,-189 284.38,-172.67 306.65,-139.46 318.12,-119.43"/>
<polygon fill="#9a32cd" stroke="#9a32cd" points="154.18,-212.37 144.43,-216.53 154.65,-219.36 154.18,-212.37"/>
</a>
</g>
<text text-anchor="middle" x="212.12" y="-216.5" font-family="Helvetica,sans-Serif" font-size="10.00" fill="grey"> waypoint</text>
</g>
<!-- Node3 -->
<g id="Node000003" class="node">
<title>Node3</title>
<g id="a_Node000003"><a xlink:title=" ">
<polygon fill="white" stroke="#666666" points="147.25,-178 3.75,-178 3.75,-158 147.25,-158 147.25,-178"/>
<text text-anchor="middle" x="75.5" y="-164.5" font-family="Helvetica,sans-Serif" font-size="10.00">vector&lt; SimpleWaypointPtr &gt;</text>
</a>
</g>
</g>
<!-- Node3&#45;&gt;Node1 -->
<g id="edge2_Node000001_Node000003" class="edge">
<title>Node3&#45;&gt;Node1</title>
<g id="a_edge2_Node000001_Node000003"><a xlink:title=" ">
<path fill="none" stroke="#9a32cd" stroke-dasharray="5,2" d="M158.26,-162.99C189.23,-159.44 224.43,-153.37 255.25,-143 271.97,-137.38 289.26,-127.82 302.66,-119.45"/>
<polygon fill="#9a32cd" stroke="#9a32cd" points="158.07,-159.6 148.5,-164.15 158.81,-166.56 158.07,-159.6"/>
</a>
</g>
<text text-anchor="middle" x="212.12" y="-175.5" font-family="Helvetica,sans-Serif" font-size="10.00" fill="grey"> next_waypoints</text>
<text text-anchor="middle" x="212.12" y="-163.5" font-family="Helvetica,sans-Serif" font-size="10.00" fill="grey">previous_waypoints</text>
</g>
<!-- Node4 -->
<g id="Node000004" class="node">
<title>Node4</title>
<g id="a_Node000004"><a xlink:title=" ">
<polygon fill="white" stroke="#666666" points="151,-134 0,-134 0,-114 151,-114 151,-134"/>
<text text-anchor="middle" x="75.5" y="-120.5" font-family="Helvetica,sans-Serif" font-size="10.00">shared_ptr&lt; SimpleWaypoint &gt;</text>
</a>
</g>
</g>
<!-- Node4&#45;&gt;Node1 -->
<g id="edge3_Node000001_Node000004" class="edge">
<title>Node4&#45;&gt;Node1</title>
<g id="a_edge3_Node000001_Node000004"><a xlink:title=" ">
<path fill="none" stroke="#9a32cd" stroke-dasharray="5,2" d="M161.98,-116.83C198.79,-113.74 240.7,-110.22 273.04,-107.51"/>
<polygon fill="#9a32cd" stroke="#9a32cd" points="161.92,-113.4 152.24,-117.73 162.5,-120.38 161.92,-113.4"/>
</a>
</g>
<text text-anchor="middle" x="212.12" y="-129.5" font-family="Helvetica,sans-Serif" font-size="10.00" fill="grey"> next_left_waypoint</text>
<text text-anchor="middle" x="212.12" y="-117.5" font-family="Helvetica,sans-Serif" font-size="10.00" fill="grey">next_right_waypoint</text>
</g>
<!-- Node5 -->
<g id="Node000005" class="node">
<title>Node5</title>
<g id="a_Node000005"><a xlink:title=" ">
<polygon fill="white" stroke="#666666" points="109,-96 42,-96 42,-76 109,-76 109,-96"/>
<text text-anchor="middle" x="75.5" y="-82.5" font-family="Helvetica,sans-Serif" font-size="10.00">RoadOption</text>
</a>
</g>
</g>
<!-- Node5&#45;&gt;Node1 -->
<g id="edge4_Node000001_Node000005" class="edge">
<title>Node5&#45;&gt;Node1</title>
<g id="a_edge4_Node000001_Node000005"><a xlink:title=" ">
<path fill="none" stroke="#9a32cd" stroke-dasharray="5,2" d="M119.94,-83.65C156.23,-82.31 209.28,-81.79 255.25,-87 261.06,-87.66 267.1,-88.6 273.08,-89.69"/>
<polygon fill="#9a32cd" stroke="#9a32cd" points="120.09,-80.18 110.24,-84.09 120.38,-87.18 120.09,-80.18"/>
</a>
</g>
<text text-anchor="middle" x="212.12" y="-89.5" font-family="Helvetica,sans-Serif" font-size="10.00" fill="grey"> road_option</text>
</g>
<!-- Node6 -->
<g id="Node000006" class="node">
<title>Node6</title>
<g id="a_Node000006"><a xlink:title=" ">
<polygon fill="white" stroke="#666666" points="98.12,-58 52.88,-58 52.88,-38 98.12,-38 98.12,-58"/>
<text text-anchor="middle" x="75.5" y="-44.5" font-family="Helvetica,sans-Serif" font-size="10.00">int32_t</text>
</a>
</g>
</g>
<!-- Node6&#45;&gt;Node1 -->
<g id="edge5_Node000001_Node000006" class="edge">
<title>Node6&#45;&gt;Node1</title>
<g id="a_edge5_Node000001_Node000006"><a xlink:title=" ">
<path fill="none" stroke="#9a32cd" stroke-dasharray="5,2" d="M109.42,-47.65C145.83,-48.09 205.88,-51.32 255.25,-66 271.19,-70.74 287.76,-79.07 300.93,-86.62"/>
<polygon fill="#9a32cd" stroke="#9a32cd" points="109.49,-44.14 99.47,-47.59 109.45,-51.14 109.49,-44.14"/>
</a>
</g>
<text text-anchor="middle" x="212.12" y="-68.5" font-family="Helvetica,sans-Serif" font-size="10.00" fill="grey"> geodesic_grid_id</text>
</g>
<!-- Node7 -->
<g id="Node000007" class="node">
<title>Node7</title>
<g id="a_Node000007"><a xlink:title=" ">
<polygon fill="white" stroke="#666666" points="92.5,-20 58.5,-20 58.5,0 92.5,0 92.5,-20"/>
<text text-anchor="middle" x="75.5" y="-6.5" font-family="Helvetica,sans-Serif" font-size="10.00">bool</text>
</a>
</g>
</g>
<!-- Node7&#45;&gt;Node1 -->
<g id="edge6_Node000001_Node000007" class="edge">
<title>Node7&#45;&gt;Node1</title>
<g id="a_edge6_Node000001_Node000007"><a xlink:title=" ">
<path fill="none" stroke="#9a32cd" stroke-dasharray="5,2" d="M103.71,-8.77C140.09,-8.22 205.72,-11.1 255.25,-35 279.93,-46.91 301.69,-70.5 314.54,-86.51"/>
<polygon fill="#9a32cd" stroke="#9a32cd" points="103.89,-5.29 93.99,-9.05 104.08,-12.29 103.89,-5.29"/>
</a>
</g>
<text text-anchor="middle" x="212.12" y="-37.5" font-family="Helvetica,sans-Serif" font-size="10.00" fill="grey"> _is_junction</text>
</g>
</g>
</svg>
