<?xml version="1.0" encoding="UTF-8" standalone="no"?>
<!DOCTYPE svg PUBLIC "-//W3C//DTD SVG 1.1//EN"
 "http://www.w3.org/Graphics/SVG/1.1/DTD/svg11.dtd">
<!-- Generated by graphviz version 8.1.0 (20230707.0739)
 -->
<!-- Title: CarlaIMUPublisher.cpp Pages: 1 -->
<svg width="2343pt" height="344pt"
 viewBox="0.00 0.00 2342.62 344.00" xmlns="http://www.w3.org/2000/svg" xmlns:xlink="http://www.w3.org/1999/xlink">
<g id="graph0" class="graph" transform="scale(1 1) rotate(0) translate(4 340)">
<title>CarlaIMUPublisher.cpp</title>
<!-- Node1 -->
<g id="Node000001" class="node">
<title>Node1</title>
<g id="a_Node000001"><a xlink:title=" ">
<polygon fill="#999999" stroke="#666666" points="1150.75,-336 1035.75,-336 1035.75,-316 1150.75,-316 1150.75,-336"/>
<text text-anchor="middle" x="1093.25" y="-322.5" font-family="Helvetica,sans-Serif" font-size="10.00">CarlaIMUPublisher.cpp</text>
</a>
</g>
</g>
<!-- Node2 -->
<g id="Node000002" class="node">
<title>Node2</title>
<g id="a_Node000002"><a xlink:href="../../d1/da5/CarlaIMUPublisher_8h.html" target="_top" xlink:title=" ">
<polygon fill="white" stroke="#666666" points="221.5,-274 117,-274 117,-254 221.5,-254 221.5,-274"/>
<text text-anchor="middle" x="169.25" y="-260.5" font-family="Helvetica,sans-Serif" font-size="10.00">CarlaIMUPublisher.h</text>
</a>
</g>
</g>
<!-- Node1&#45;&gt;Node2 -->
<g id="edge1_Node000001_Node000002" class="edge">
<title>Node1&#45;&gt;Node2</title>
<g id="a_edge1_Node000001_Node000002"><a xlink:title=" ">
<path fill="none" stroke="#63b8ff" d="M1035.44,-325.37C896.71,-325.51 534.25,-321.51 235.25,-280 229.06,-279.14 222.6,-277.99 216.24,-276.71"/>
<polygon fill="#63b8ff" stroke="#63b8ff" points="217.21,-273.13 206.7,-274.45 215.75,-279.97 217.21,-273.13"/>
</a>
</g>
</g>
<!-- Node5 -->
<g id="Node000005" class="node">
<title>Node5</title>
<g id="a_Node000005"><a xlink:title=" ">
<polygon fill="#e0e0e0" stroke="#999999" points="654.25,-26 614.25,-26 614.25,-6 654.25,-6 654.25,-26"/>
<text text-anchor="middle" x="634.25" y="-12.5" font-family="Helvetica,sans-Serif" font-size="10.00">string</text>
</a>
</g>
</g>
<!-- Node1&#45;&gt;Node5 -->
<g id="edge5_Node000001_Node000005" class="edge">
<title>Node1&#45;&gt;Node5</title>
<g id="a_edge5_Node000001_Node000005"><a xlink:title=" ">
<path fill="none" stroke="#63b8ff" d="M1035.28,-323.81C856.96,-319.87 327.04,-306.01 301.25,-280 252.39,-230.73 254.23,-179.96 295.25,-124 332.56,-73.1 526.59,-35.24 603.14,-22.07"/>
<polygon fill="#63b8ff" stroke="#63b8ff" points="603.69,-25.36 612.97,-20.24 602.52,-18.45 603.69,-25.36"/>
</a>
</g>
</g>
<!-- Node6 -->
<g id="Node000006" class="node">
<title>Node6</title>
<g id="a_Node000006"><a xlink:href="../../d6/dd3/ImuPubSubTypes_8h.html" target="_top" xlink:title=" ">
<polygon fill="white" stroke="#666666" points="449.75,-280 310.75,-280 310.75,-248 449.75,-248 449.75,-280"/>
<text text-anchor="start" x="318.75" y="-266.5" font-family="Helvetica,sans-Serif" font-size="10.00">carla/ros2/types/ImuPubSub</text>
<text text-anchor="middle" x="380.25" y="-254.5" font-family="Helvetica,sans-Serif" font-size="10.00">Types.h</text>
</a>
</g>
</g>
<!-- Node1&#45;&gt;Node6 -->
<g id="edge6_Node000001_Node000006" class="edge">
<title>Node1&#45;&gt;Node6</title>
<g id="a_edge6_Node000001_Node000006"><a xlink:title=" ">
<path fill="none" stroke="#63b8ff" d="M1035.67,-323.22C925.72,-319.32 678.16,-308.13 460.59,-280.21"/>
<polygon fill="#63b8ff" stroke="#63b8ff" points="461.29,-276.64 450.92,-278.83 460.39,-283.58 461.29,-276.64"/>
</a>
</g>
</g>
<!-- Node23 -->
<g id="Node000023" class="node">
<title>Node23</title>
<g id="a_Node000023"><a xlink:href="../../d1/d24/CarlaListener_8h.html" target="_top" xlink:title=" ">
<polygon fill="white" stroke="#666666" points="98.5,-280 0,-280 0,-248 98.5,-248 98.5,-280"/>
<text text-anchor="start" x="8" y="-266.5" font-family="Helvetica,sans-Serif" font-size="10.00">carla/ros2/listeners</text>
<text text-anchor="middle" x="49.25" y="-254.5" font-family="Helvetica,sans-Serif" font-size="10.00">/CarlaListener.h</text>
</a>
</g>
</g>
<!-- Node1&#45;&gt;Node23 -->
<g id="edge61_Node000001_Node000023" class="edge">
<title>Node1&#45;&gt;Node23</title>
<g id="a_edge61_Node000001_Node000023"><a xlink:title=" ">
<path fill="none" stroke="#63b8ff" d="M1035.45,-323.9C856.01,-320.26 309.15,-307.29 109.65,-279.93"/>
<polygon fill="#63b8ff" stroke="#63b8ff" points="110.39,-276.36 100,-278.4 109.4,-283.29 110.39,-276.36"/>
</a>
</g>
</g>
<!-- Node24 -->
<g id="Node000024" class="node">
<title>Node24</title>
<g id="a_Node000024"><a xlink:title=" ">
<polygon fill="#e0e0e0" stroke="#999999" points="584.88,-280 467.62,-280 467.62,-248 584.88,-248 584.88,-280"/>
<text text-anchor="start" x="475.62" y="-266.5" font-family="Helvetica,sans-Serif" font-size="10.00">fastdds/dds/domain</text>
<text text-anchor="middle" x="526.25" y="-254.5" font-family="Helvetica,sans-Serif" font-size="10.00">/DomainParticipant.hpp</text>
</a>
</g>
</g>
<!-- Node1&#45;&gt;Node24 -->
<g id="edge63_Node000001_Node000024" class="edge">
<title>Node1&#45;&gt;Node24</title>
<g id="a_edge63_Node000001_Node000024"><a xlink:title=" ">
<path fill="none" stroke="#63b8ff" d="M1035.33,-322.17C944.03,-317.19 760.93,-305.08 595.97,-280.13"/>
<polygon fill="#63b8ff" stroke="#63b8ff" points="596.55,-276.53 586.14,-278.47 595.49,-283.44 596.55,-276.53"/>
</a>
</g>
</g>
<!-- Node25 -->
<g id="Node000025" class="node">
<title>Node25</title>
<g id="a_Node000025"><a xlink:title=" ">
<polygon fill="#e0e0e0" stroke="#999999" points="711.38,-280 603.12,-280 603.12,-248 711.38,-248 711.38,-280"/>
<text text-anchor="start" x="611.12" y="-266.5" font-family="Helvetica,sans-Serif" font-size="10.00">fastdds/dds/publisher</text>
<text text-anchor="middle" x="657.25" y="-254.5" font-family="Helvetica,sans-Serif" font-size="10.00">/Publisher.hpp</text>
</a>
</g>
</g>
<!-- Node1&#45;&gt;Node25 -->
<g id="edge64_Node000001_Node000025" class="edge">
<title>Node1&#45;&gt;Node25</title>
<g id="a_edge64_Node000001_Node000025"><a xlink:title=" ">
<path fill="none" stroke="#63b8ff" d="M1035.44,-320.08C964.02,-313.55 838.63,-300.59 722.31,-280.25"/>
<polygon fill="#63b8ff" stroke="#63b8ff" points="723.26,-276.69 712.81,-278.39 722.04,-283.58 723.26,-276.69"/>
</a>
</g>
</g>
<!-- Node26 -->
<g id="Node000026" class="node">
<title>Node26</title>
<g id="a_Node000026"><a xlink:title=" ">
<polygon fill="#e0e0e0" stroke="#999999" points="864.88,-274 729.62,-274 729.62,-254 864.88,-254 864.88,-274"/>
<text text-anchor="middle" x="797.25" y="-260.5" font-family="Helvetica,sans-Serif" font-size="10.00">fastdds/dds/topic/Topic.hpp</text>
</a>
</g>
</g>
<!-- Node1&#45;&gt;Node26 -->
<g id="edge65_Node000001_Node000026" class="edge">
<title>Node1&#45;&gt;Node26</title>
<g id="a_edge65_Node000001_Node000026"><a xlink:title=" ">
<path fill="none" stroke="#63b8ff" d="M1046.67,-315.56C994.67,-305.02 910.48,-287.95 854.5,-276.6"/>
<polygon fill="#63b8ff" stroke="#63b8ff" points="855.54,-273.04 845.04,-274.48 854.15,-279.9 855.54,-273.04"/>
</a>
</g>
</g>
<!-- Node27 -->
<g id="Node000027" class="node">
<title>Node27</title>
<g id="a_Node000027"><a xlink:title=" ">
<polygon fill="#e0e0e0" stroke="#999999" points="991.38,-280 883.12,-280 883.12,-248 991.38,-248 991.38,-280"/>
<text text-anchor="start" x="891.12" y="-266.5" font-family="Helvetica,sans-Serif" font-size="10.00">fastdds/dds/publisher</text>
<text text-anchor="middle" x="937.25" y="-254.5" font-family="Helvetica,sans-Serif" font-size="10.00">/DataWriter.hpp</text>
</a>
</g>
</g>
<!-- Node1&#45;&gt;Node27 -->
<g id="edge66_Node000001_Node000027" class="edge">
<title>Node1&#45;&gt;Node27</title>
<g id="a_edge66_Node000001_Node000027"><a xlink:title=" ">
<path fill="none" stroke="#63b8ff" d="M1068.88,-315.62C1047.22,-307.3 1014.87,-294.86 987.67,-284.39"/>
<polygon fill="#63b8ff" stroke="#63b8ff" points="989.12,-280.81 978.53,-280.49 986.6,-287.35 989.12,-280.81"/>
</a>
</g>
</g>
<!-- Node28 -->
<g id="Node000028" class="node">
<title>Node28</title>
<g id="a_Node000028"><a xlink:title=" ">
<polygon fill="#e0e0e0" stroke="#999999" points="1176.62,-274 1009.88,-274 1009.88,-254 1176.62,-254 1176.62,-274"/>
<text text-anchor="middle" x="1093.25" y="-260.5" font-family="Helvetica,sans-Serif" font-size="10.00">fastdds/dds/topic/TypeSupport.hpp</text>
</a>
</g>
</g>
<!-- Node1&#45;&gt;Node28 -->
<g id="edge67_Node000001_Node000028" class="edge">
<title>Node1&#45;&gt;Node28</title>
<g id="a_edge67_Node000001_Node000028"><a xlink:title=" ">
<path fill="none" stroke="#63b8ff" d="M1093.25,-315.62C1093.25,-307.48 1093.25,-295.39 1093.25,-285.07"/>
<polygon fill="#63b8ff" stroke="#63b8ff" points="1096.75,-285.11 1093.25,-275.11 1089.75,-285.11 1096.75,-285.11"/>
</a>
</g>
</g>
<!-- Node29 -->
<g id="Node000029" class="node">
<title>Node29</title>
<g id="a_Node000029"><a xlink:title=" ">
<polygon fill="#e0e0e0" stroke="#999999" points="1348.25,-280 1194.25,-280 1194.25,-248 1348.25,-248 1348.25,-280"/>
<text text-anchor="start" x="1202.25" y="-266.5" font-family="Helvetica,sans-Serif" font-size="10.00">fastdds/dds/domain</text>
<text text-anchor="middle" x="1271.25" y="-254.5" font-family="Helvetica,sans-Serif" font-size="10.00">/qos/DomainParticipantQos.hpp</text>
</a>
</g>
</g>
<!-- Node1&#45;&gt;Node29 -->
<g id="edge68_Node000001_Node000029" class="edge">
<title>Node1&#45;&gt;Node29</title>
<g id="a_edge68_Node000001_Node000029"><a xlink:title=" ">
<path fill="none" stroke="#63b8ff" d="M1121.06,-315.62C1146.1,-307.19 1183.66,-294.53 1214.95,-283.98"/>
<polygon fill="#63b8ff" stroke="#63b8ff" points="1215.94,-287 1224.29,-280.49 1213.7,-280.37 1215.94,-287"/>
</a>
</g>
</g>
<!-- Node30 -->
<g id="Node000030" class="node">
<title>Node30</title>
<g id="a_Node000030"><a xlink:title=" ">
<polygon fill="#e0e0e0" stroke="#999999" points="1516.38,-280 1366.12,-280 1366.12,-248 1516.38,-248 1516.38,-280"/>
<text text-anchor="start" x="1374.12" y="-266.5" font-family="Helvetica,sans-Serif" font-size="10.00">fastdds/dds/domain</text>
<text text-anchor="middle" x="1441.25" y="-254.5" font-family="Helvetica,sans-Serif" font-size="10.00">/DomainParticipantFactory.hpp</text>
</a>
</g>
</g>
<!-- Node1&#45;&gt;Node30 -->
<g id="edge69_Node000001_Node000030" class="edge">
<title>Node1&#45;&gt;Node30</title>
<g id="a_edge69_Node000001_Node000030"><a xlink:title=" ">
<path fill="none" stroke="#63b8ff" d="M1149.66,-315.52C1200.73,-306.9 1278.33,-293.74 1354.9,-280.4"/>
<polygon fill="#63b8ff" stroke="#63b8ff" points="1355.45,-283.69 1364.7,-278.52 1354.25,-276.79 1355.45,-283.69"/>
</a>
</g>
</g>
<!-- Node31 -->
<g id="Node000031" class="node">
<title>Node31</title>
<g id="a_Node000031"><a xlink:title=" ">
<polygon fill="#e0e0e0" stroke="#999999" points="1649.75,-280 1534.75,-280 1534.75,-248 1649.75,-248 1649.75,-280"/>
<text text-anchor="start" x="1542.75" y="-266.5" font-family="Helvetica,sans-Serif" font-size="10.00">fastdds/dds/publisher</text>
<text text-anchor="middle" x="1592.25" y="-254.5" font-family="Helvetica,sans-Serif" font-size="10.00">/qos/PublisherQos.hpp</text>
</a>
</g>
</g>
<!-- Node1&#45;&gt;Node31 -->
<g id="edge70_Node000001_Node000031" class="edge">
<title>Node1&#45;&gt;Node31</title>
<g id="a_edge70_Node000001_Node000031"><a xlink:title=" ">
<path fill="none" stroke="#63b8ff" d="M1151.18,-321.12C1232.32,-315.21 1384.56,-302.39 1524.14,-280.05"/>
<polygon fill="#63b8ff" stroke="#63b8ff" points="1524.28,-283.41 1533.59,-278.36 1523.16,-276.5 1524.28,-283.41"/>
</a>
</g>
</g>
<!-- Node32 -->
<g id="Node000032" class="node">
<title>Node32</title>
<g id="a_Node000032"><a xlink:title=" ">
<polygon fill="#e0e0e0" stroke="#999999" points="1776.75,-280 1667.75,-280 1667.75,-248 1776.75,-248 1776.75,-280"/>
<text text-anchor="start" x="1675.75" y="-266.5" font-family="Helvetica,sans-Serif" font-size="10.00">fastdds/dds/topic/qos</text>
<text text-anchor="middle" x="1722.25" y="-254.5" font-family="Helvetica,sans-Serif" font-size="10.00">/TopicQos.hpp</text>
</a>
</g>
</g>
<!-- Node1&#45;&gt;Node32 -->
<g id="edge71_Node000001_Node000032" class="edge">
<title>Node1&#45;&gt;Node32</title>
<g id="a_edge71_Node000001_Node000032"><a xlink:title=" ">
<path fill="none" stroke="#63b8ff" d="M1151.04,-323.35C1251.93,-319.83 1466.81,-309.48 1656.64,-280.27"/>
<polygon fill="#63b8ff" stroke="#63b8ff" points="1657.03,-283.59 1666.37,-278.59 1655.95,-276.68 1657.03,-283.59"/>
</a>
</g>
</g>
<!-- Node33 -->
<g id="Node000033" class="node">
<title>Node33</title>
<g id="a_Node000033"><a xlink:title=" ">
<polygon fill="#e0e0e0" stroke="#999999" points="1910.12,-280 1794.38,-280 1794.38,-248 1910.12,-248 1910.12,-280"/>
<text text-anchor="start" x="1802.38" y="-266.5" font-family="Helvetica,sans-Serif" font-size="10.00">fastrtps/attributes</text>
<text text-anchor="middle" x="1852.25" y="-254.5" font-family="Helvetica,sans-Serif" font-size="10.00">/ParticipantAttributes.h</text>
</a>
</g>
</g>
<!-- Node1&#45;&gt;Node33 -->
<g id="edge72_Node000001_Node000033" class="edge">
<title>Node1&#45;&gt;Node33</title>
<g id="a_edge72_Node000001_Node000033"><a xlink:title=" ">
<path fill="none" stroke="#63b8ff" d="M1151.07,-324.34C1268.66,-322.32 1544.17,-314.19 1783.4,-280.29"/>
<polygon fill="#63b8ff" stroke="#63b8ff" points="1783.64,-283.64 1793.04,-278.76 1782.64,-276.71 1783.64,-283.64"/>
</a>
</g>
</g>
<!-- Node34 -->
<g id="Node000034" class="node">
<title>Node34</title>
<g id="a_Node000034"><a xlink:title=" ">
<polygon fill="#e0e0e0" stroke="#999999" points="2058.62,-274 1927.88,-274 1927.88,-254 2058.62,-254 2058.62,-274"/>
<text text-anchor="middle" x="1993.25" y="-260.5" font-family="Helvetica,sans-Serif" font-size="10.00">fastrtps/qos/QosPolicies.h</text>
</a>
</g>
</g>
<!-- Node1&#45;&gt;Node34 -->
<g id="edge73_Node000001_Node000034" class="edge">
<title>Node1&#45;&gt;Node34</title>
<g id="a_edge73_Node000001_Node000034"><a xlink:title=" ">
<path fill="none" stroke="#63b8ff" d="M1151.09,-324.74C1286.15,-323.49 1632.56,-316.67 1919.25,-280 1926.41,-279.08 1933.92,-277.87 1941.29,-276.52"/>
<polygon fill="#63b8ff" stroke="#63b8ff" points="1941.78,-279.8 1950.94,-274.48 1940.46,-272.93 1941.78,-279.8"/>
</a>
</g>
</g>
<!-- Node35 -->
<g id="Node000035" class="node">
<title>Node35</title>
<g id="a_Node000035"><a xlink:title=" ">
<polygon fill="#e0e0e0" stroke="#999999" points="2197.75,-280 2076.75,-280 2076.75,-248 2197.75,-248 2197.75,-280"/>
<text text-anchor="start" x="2084.75" y="-266.5" font-family="Helvetica,sans-Serif" font-size="10.00">fastdds/dds/publisher</text>
<text text-anchor="middle" x="2137.25" y="-254.5" font-family="Helvetica,sans-Serif" font-size="10.00">/qos/DataWriterQos.hpp</text>
</a>
</g>
</g>
<!-- Node1&#45;&gt;Node35 -->
<g id="edge74_Node000001_Node000035" class="edge">
<title>Node1&#45;&gt;Node35</title>
<g id="a_edge74_Node000001_Node000035"><a xlink:title=" ">
<path fill="none" stroke="#63b8ff" d="M1151.17,-325.64C1300.98,-326.6 1713.47,-324.72 2065.61,-280.05"/>
<polygon fill="#63b8ff" stroke="#63b8ff" points="2065.8,-283.43 2075.27,-278.69 2064.9,-276.49 2065.8,-283.43"/>
</a>
</g>
</g>
<!-- Node36 -->
<g id="Node000036" class="node">
<title>Node36</title>
<g id="a_Node000036"><a xlink:title=" ">
<polygon fill="#e0e0e0" stroke="#999999" points="2334.62,-280 2215.88,-280 2215.88,-248 2334.62,-248 2334.62,-280"/>
<text text-anchor="start" x="2223.88" y="-266.5" font-family="Helvetica,sans-Serif" font-size="10.00">fastdds/dds/publisher</text>
<text text-anchor="middle" x="2275.25" y="-254.5" font-family="Helvetica,sans-Serif" font-size="10.00">/DataWriterListener.hpp</text>
</a>
</g>
</g>
<!-- Node1&#45;&gt;Node36 -->
<g id="edge75_Node000001_Node000036" class="edge">
<title>Node1&#45;&gt;Node36</title>
<g id="a_edge75_Node000001_Node000036"><a xlink:title=" ">
<path fill="none" stroke="#63b8ff" d="M1151.16,-324.01C1346.2,-320.48 1979.09,-307.27 2204.89,-280.12"/>
<polygon fill="#63b8ff" stroke="#63b8ff" points="2205.16,-283.48 2214.65,-278.77 2204.29,-276.54 2205.16,-283.48"/>
</a>
</g>
</g>
<!-- Node3 -->
<g id="Node000003" class="node">
<title>Node3</title>
<g id="a_Node000003"><a xlink:title=" ">
<polygon fill="#e0e0e0" stroke="#999999" points="108.88,-212 57.62,-212 57.62,-192 108.88,-192 108.88,-212"/>
<text text-anchor="middle" x="83.25" y="-198.5" font-family="Helvetica,sans-Serif" font-size="10.00">memory</text>
</a>
</g>
</g>
<!-- Node2&#45;&gt;Node3 -->
<g id="edge2_Node000002_Node000003" class="edge">
<title>Node2&#45;&gt;Node3</title>
<g id="a_edge2_Node000002_Node000003"><a xlink:title=" ">
<path fill="none" stroke="#63b8ff" d="M155.81,-253.62C142.31,-244.2 121.26,-229.52 105.3,-218.39"/>
<polygon fill="#63b8ff" stroke="#63b8ff" points="107.8,-215.16 97.59,-212.31 103.79,-220.9 107.8,-215.16"/>
</a>
</g>
</g>
<!-- Node4 -->
<g id="Node000004" class="node">
<title>Node4</title>
<g id="a_Node000004"><a xlink:href="../../de/d7a/CarlaPublisher_8h.html" target="_top" xlink:title=" ">
<polygon fill="white" stroke="#666666" points="217.88,-150 130.62,-150 130.62,-130 217.88,-130 217.88,-150"/>
<text text-anchor="middle" x="174.25" y="-136.5" font-family="Helvetica,sans-Serif" font-size="10.00">CarlaPublisher.h</text>
</a>
</g>
</g>
<!-- Node2&#45;&gt;Node4 -->
<g id="edge3_Node000002_Node000004" class="edge">
<title>Node2&#45;&gt;Node4</title>
<g id="a_edge3_Node000002_Node000004"><a xlink:title=" ">
<path fill="none" stroke="#63b8ff" d="M169.63,-253.83C170.43,-234.22 172.33,-187.83 173.43,-161.04"/>
<polygon fill="#63b8ff" stroke="#63b8ff" points="176.96,-161.41 173.87,-151.28 169.96,-161.12 176.96,-161.41"/>
</a>
</g>
</g>
<!-- Node4&#45;&gt;Node5 -->
<g id="edge4_Node000004_Node000005" class="edge">
<title>Node4&#45;&gt;Node5</title>
<g id="a_edge4_Node000004_Node000005"><a xlink:title=" ">
<path fill="none" stroke="#63b8ff" d="M179.06,-129.7C187.73,-113.99 207.59,-82.49 234.25,-68 297.92,-33.38 520.23,-21.4 602.94,-18.08"/>
<polygon fill="#63b8ff" stroke="#63b8ff" points="603.02,-21.55 612.87,-17.66 602.75,-14.55 603.02,-21.55"/>
</a>
</g>
</g>
<!-- Node7 -->
<g id="Node000007" class="node">
<title>Node7</title>
<g id="a_Node000007"><a xlink:title=" ">
<polygon fill="#e0e0e0" stroke="#999999" points="568.62,-156 431.88,-156 431.88,-124 568.62,-124 568.62,-156"/>
<text text-anchor="start" x="439.88" y="-142.5" font-family="Helvetica,sans-Serif" font-size="10.00">fastdds/dds/topic/TopicData</text>
<text text-anchor="middle" x="500.25" y="-130.5" font-family="Helvetica,sans-Serif" font-size="10.00">Type.hpp</text>
</a>
</g>
</g>
<!-- Node6&#45;&gt;Node7 -->
<g id="edge7_Node000006_Node000007" class="edge">
<title>Node6&#45;&gt;Node7</title>
<g id="a_edge7_Node000006_Node000007"><a xlink:title=" ">
<path fill="none" stroke="#63b8ff" d="M408.31,-247.71C423.36,-238.63 441.56,-226.14 455.25,-212 468.45,-198.37 479.84,-180.27 487.87,-165.76"/>
<polygon fill="#63b8ff" stroke="#63b8ff" points="491.25,-167.86 492.86,-157.39 485.07,-164.57 491.25,-167.86"/>
</a>
</g>
</g>
<!-- Node8 -->
<g id="Node000008" class="node">
<title>Node8</title>
<g id="a_Node000008"><a xlink:title=" ">
<polygon fill="#e0e0e0" stroke="#999999" points="413.88,-150 314.62,-150 314.62,-130 413.88,-130 413.88,-150"/>
<text text-anchor="middle" x="364.25" y="-136.5" font-family="Helvetica,sans-Serif" font-size="10.00">fastrtps/utils/md5.h</text>
</a>
</g>
</g>
<!-- Node6&#45;&gt;Node8 -->
<g id="edge8_Node000006_Node000008" class="edge">
<title>Node6&#45;&gt;Node8</title>
<g id="a_edge8_Node000006_Node000008"><a xlink:title=" ">
<path fill="none" stroke="#63b8ff" d="M343.59,-247.54C328.89,-239.3 313.5,-227.59 305.25,-212 293.87,-190.5 316.72,-169.54 337.21,-156.04"/>
<polygon fill="#63b8ff" stroke="#63b8ff" points="338.67,-158.63 345.33,-150.38 334.98,-152.68 338.67,-158.63"/>
</a>
</g>
</g>
<!-- Node9 -->
<g id="Node000009" class="node">
<title>Node9</title>
<g id="a_Node000009"><a xlink:href="../../d0/d9f/Imu_8h.html" target="_top" xlink:title=" ">
<polygon fill="white" stroke="#666666" points="909.25,-212 869.25,-212 869.25,-192 909.25,-192 909.25,-212"/>
<text text-anchor="middle" x="889.25" y="-198.5" font-family="Helvetica,sans-Serif" font-size="10.00">Imu.h</text>
</a>
</g>
</g>
<!-- Node6&#45;&gt;Node9 -->
<g id="edge9_Node000006_Node000009" class="edge">
<title>Node6&#45;&gt;Node9</title>
<g id="a_edge9_Node000006_Node000009"><a xlink:title=" ">
<path fill="none" stroke="#63b8ff" d="M449.94,-249.29C452.74,-248.84 455.52,-248.4 458.25,-248 607.35,-225.92 787.05,-210.84 858.14,-205.33"/>
<polygon fill="#63b8ff" stroke="#63b8ff" points="858.27,-208.75 867.98,-204.49 857.74,-201.77 858.27,-208.75"/>
</a>
</g>
</g>
<!-- Node20 -->
<g id="Node000020" class="node">
<title>Node20</title>
<g id="a_Node000020"><a xlink:href="../../d5/dc7/Vector3PubSubTypes_8h.html" target="_top" xlink:title=" ">
<polygon fill="white" stroke="#666666" points="754.62,-212 635.88,-212 635.88,-192 754.62,-192 754.62,-212"/>
<text text-anchor="middle" x="695.25" y="-198.5" font-family="Helvetica,sans-Serif" font-size="10.00">Vector3PubSubTypes.h</text>
</a>
</g>
</g>
<!-- Node6&#45;&gt;Node20 -->
<g id="edge49_Node000006_Node000020" class="edge">
<title>Node6&#45;&gt;Node20</title>
<g id="a_edge49_Node000006_Node000020"><a xlink:title=" ">
<path fill="none" stroke="#63b8ff" d="M449.99,-249.58C452.78,-249.05 455.54,-248.52 458.25,-248 518.17,-236.55 586.62,-223.56 634.51,-214.49"/>
<polygon fill="#63b8ff" stroke="#63b8ff" points="635.13,-217.75 644.31,-212.45 633.83,-210.87 635.13,-217.75"/>
</a>
</g>
</g>
<!-- Node21 -->
<g id="Node000021" class="node">
<title>Node21</title>
<g id="a_Node000021"><a xlink:href="../../de/d28/QuaternionPubSubTypes_8h.html" target="_top" xlink:title=" ">
<polygon fill="white" stroke="#666666" points="446.38,-212 314.12,-212 314.12,-192 446.38,-192 446.38,-212"/>
<text text-anchor="middle" x="380.25" y="-198.5" font-family="Helvetica,sans-Serif" font-size="10.00">QuaternionPubSubTypes.h</text>
</a>
</g>
</g>
<!-- Node6&#45;&gt;Node21 -->
<g id="edge53_Node000006_Node000021" class="edge">
<title>Node6&#45;&gt;Node21</title>
<g id="a_edge53_Node000006_Node000021"><a xlink:title=" ">
<path fill="none" stroke="#63b8ff" d="M380.25,-247.55C380.25,-240.17 380.25,-231.24 380.25,-223.32"/>
<polygon fill="#63b8ff" stroke="#63b8ff" points="383.75,-223.41 380.25,-213.41 376.75,-223.41 383.75,-223.41"/>
</a>
</g>
</g>
<!-- Node22 -->
<g id="Node000022" class="node">
<title>Node22</title>
<g id="a_Node000022"><a xlink:href="../../d0/dda/HeaderPubSubTypes_8h.html" target="_top" xlink:title=" ">
<polygon fill="white" stroke="#666666" points="618.12,-212 502.38,-212 502.38,-192 618.12,-192 618.12,-212"/>
<text text-anchor="middle" x="560.25" y="-198.5" font-family="Helvetica,sans-Serif" font-size="10.00">HeaderPubSubTypes.h</text>
</a>
</g>
</g>
<!-- Node6&#45;&gt;Node22 -->
<g id="edge57_Node000006_Node000022" class="edge">
<title>Node6&#45;&gt;Node22</title>
<g id="a_edge57_Node000006_Node000022"><a xlink:title=" ">
<path fill="none" stroke="#63b8ff" d="M426.6,-247.55C456.07,-237.73 493.77,-225.16 521.61,-215.88"/>
<polygon fill="#63b8ff" stroke="#63b8ff" points="522.38,-218.98 530.76,-212.5 520.17,-212.34 522.38,-218.98"/>
</a>
</g>
</g>
<!-- Node9&#45;&gt;Node5 -->
<g id="edge45_Node000009_Node000005" class="edge">
<title>Node9&#45;&gt;Node5</title>
<g id="a_edge45_Node000009_Node000005"><a xlink:title=" ">
<path fill="none" stroke="#63b8ff" d="M868.97,-200.46C834.65,-198.59 764.34,-190.48 718.25,-156 676.81,-125 651.61,-67 640.67,-36.65"/>
<polygon fill="#63b8ff" stroke="#63b8ff" points="643.73,-35.8 637.17,-27.49 637.11,-38.08 643.73,-35.8"/>
</a>
</g>
</g>
<!-- Node10 -->
<g id="Node000010" class="node">
<title>Node10</title>
<g id="a_Node000010"><a xlink:href="../../dd/d8c/Vector3_8h.html" target="_top" xlink:title=" ">
<polygon fill="white" stroke="#666666" points="1064.25,-88 1006.25,-88 1006.25,-68 1064.25,-68 1064.25,-88"/>
<text text-anchor="middle" x="1035.25" y="-74.5" font-family="Helvetica,sans-Serif" font-size="10.00">Vector3.h</text>
</a>
</g>
</g>
<!-- Node9&#45;&gt;Node10 -->
<g id="edge10_Node000009_Node000010" class="edge">
<title>Node9&#45;&gt;Node10</title>
<g id="a_edge10_Node000009_Node000010"><a xlink:title=" ">
<path fill="none" stroke="#63b8ff" d="M909.71,-192.62C927.39,-184.76 953.05,-171.88 972.25,-156 993.17,-138.7 1012.15,-113.62 1023.68,-96.84"/>
<polygon fill="#63b8ff" stroke="#63b8ff" points="1026.92,-99.29 1029.57,-89.03 1021.1,-95.4 1026.92,-99.29"/>
</a>
</g>
</g>
<!-- Node11 -->
<g id="Node000011" class="node">
<title>Node11</title>
<g id="a_Node000011"><a xlink:title=" ">
<polygon fill="#e0e0e0" stroke="#999999" points="954.5,-32 862,-32 862,0 954.5,0 954.5,-32"/>
<text text-anchor="start" x="870" y="-18.5" font-family="Helvetica,sans-Serif" font-size="10.00">fastrtps/utils/fixed</text>
<text text-anchor="middle" x="908.25" y="-6.5" font-family="Helvetica,sans-Serif" font-size="10.00">_size_string.hpp</text>
</a>
</g>
</g>
<!-- Node9&#45;&gt;Node11 -->
<g id="edge42_Node000009_Node000011" class="edge">
<title>Node9&#45;&gt;Node11</title>
<g id="a_edge42_Node000009_Node000011"><a xlink:title=" ">
<path fill="none" stroke="#63b8ff" d="M909.72,-196.49C951.29,-186.02 1044.09,-155.65 1073.25,-88 1076.77,-79.84 1078.53,-75.15 1073.25,-68 1069.84,-63.38 1011.52,-46.05 965.17,-32.86"/>
<polygon fill="#63b8ff" stroke="#63b8ff" points="966.16,-29.22 955.58,-29.86 964.25,-35.96 966.16,-29.22"/>
</a>
</g>
</g>
<!-- Node12 -->
<g id="Node000012" class="node">
<title>Node12</title>
<g id="a_Node000012"><a xlink:title=" ">
<polygon fill="#e0e0e0" stroke="#999999" points="844.38,-26 796.12,-26 796.12,-6 844.38,-6 844.38,-26"/>
<text text-anchor="middle" x="820.25" y="-12.5" font-family="Helvetica,sans-Serif" font-size="10.00">stdint.h</text>
</a>
</g>
</g>
<!-- Node9&#45;&gt;Node12 -->
<g id="edge43_Node000009_Node000012" class="edge">
<title>Node9&#45;&gt;Node12</title>
<g id="a_edge43_Node000009_Node000012"><a xlink:title=" ">
<path fill="none" stroke="#63b8ff" d="M868.95,-194.18C832.52,-180.67 757.22,-146.62 729.25,-88 725.42,-79.98 724.76,-75.67 729.25,-68 732.85,-61.86 766.32,-44.04 791.63,-31.2"/>
<polygon fill="#63b8ff" stroke="#63b8ff" points="792.83,-34.01 800.19,-26.38 789.68,-27.75 792.83,-34.01"/>
</a>
</g>
</g>
<!-- Node13 -->
<g id="Node000013" class="node">
<title>Node13</title>
<g id="a_Node000013"><a xlink:title=" ">
<polygon fill="#e0e0e0" stroke="#999999" points="778.12,-26 740.38,-26 740.38,-6 778.12,-6 778.12,-26"/>
<text text-anchor="middle" x="759.25" y="-12.5" font-family="Helvetica,sans-Serif" font-size="10.00">array</text>
</a>
</g>
</g>
<!-- Node9&#45;&gt;Node13 -->
<g id="edge44_Node000009_Node000013" class="edge">
<title>Node9&#45;&gt;Node13</title>
<g id="a_edge44_Node000009_Node000013"><a xlink:title=" ">
<path fill="none" stroke="#63b8ff" d="M869.23,-199.6C839.71,-196.52 784.33,-186.76 750.25,-156 719.57,-128.31 707,-107.14 720.25,-68 724.53,-55.36 733.34,-43.39 741.5,-34.22"/>
<polygon fill="#63b8ff" stroke="#63b8ff" points="743.61,-37.03 747.96,-27.37 738.54,-32.21 743.61,-37.03"/>
</a>
</g>
</g>
<!-- Node14 -->
<g id="Node000014" class="node">
<title>Node14</title>
<g id="a_Node000014"><a xlink:title=" ">
<polygon fill="#e0e0e0" stroke="#999999" points="1014,-26 972.5,-26 972.5,-6 1014,-6 1014,-26"/>
<text text-anchor="middle" x="993.25" y="-12.5" font-family="Helvetica,sans-Serif" font-size="10.00">vector</text>
</a>
</g>
</g>
<!-- Node9&#45;&gt;Node14 -->
<g id="edge46_Node000009_Node000014" class="edge">
<title>Node9&#45;&gt;Node14</title>
<g id="a_edge46_Node000009_Node000014"><a xlink:title=" ">
<path fill="none" stroke="#63b8ff" d="M909.5,-199.4C940.74,-196.04 1001.34,-185.89 1042.25,-156 1071.71,-134.47 1077.56,-122.89 1088.25,-88 1090.85,-79.5 1092.81,-75.63 1088.25,-68 1086.3,-64.74 1048.73,-45.17 1021.43,-31.24"/>
<polygon fill="#63b8ff" stroke="#63b8ff" points="1023.43,-27.82 1012.93,-26.4 1020.25,-34.06 1023.43,-27.82"/>
</a>
</g>
</g>
<!-- Node15 -->
<g id="Node000015" class="node">
<title>Node15</title>
<g id="a_Node000015"><a xlink:title=" ">
<polygon fill="#e0e0e0" stroke="#999999" points="1066.62,-26 1031.88,-26 1031.88,-6 1066.62,-6 1066.62,-26"/>
<text text-anchor="middle" x="1049.25" y="-12.5" font-family="Helvetica,sans-Serif" font-size="10.00">map</text>
</a>
</g>
</g>
<!-- Node9&#45;&gt;Node15 -->
<g id="edge47_Node000009_Node000015" class="edge">
<title>Node9&#45;&gt;Node15</title>
<g id="a_edge47_Node000009_Node000015"><a xlink:title=" ">
<path fill="none" stroke="#63b8ff" d="M909.51,-198.6C951.97,-193.16 1048.28,-178.6 1071.25,-156 1099.71,-128 1102.28,-105.73 1089.25,-68 1084.85,-55.26 1075.82,-43.29 1067.45,-34.14"/>
<polygon fill="#63b8ff" stroke="#63b8ff" points="1070.29,-32.02 1060.8,-27.31 1065.28,-36.91 1070.29,-32.02"/>
</a>
</g>
</g>
<!-- Node16 -->
<g id="Node000016" class="node">
<title>Node16</title>
<g id="a_Node000016"><a xlink:title=" ">
<polygon fill="#e0e0e0" stroke="#999999" points="1124.25,-26 1084.25,-26 1084.25,-6 1124.25,-6 1124.25,-26"/>
<text text-anchor="middle" x="1104.25" y="-12.5" font-family="Helvetica,sans-Serif" font-size="10.00">bitset</text>
</a>
</g>
</g>
<!-- Node9&#45;&gt;Node16 -->
<g id="edge48_Node000009_Node000016" class="edge">
<title>Node9&#45;&gt;Node16</title>
<g id="a_edge48_Node000009_Node000016"><a xlink:title=" ">
<path fill="none" stroke="#63b8ff" d="M909.44,-199.37C956.11,-195.19 1069.45,-182.48 1095.25,-156 1126.09,-124.35 1117.48,-67.05 1110.04,-36.86"/>
<polygon fill="#63b8ff" stroke="#63b8ff" points="1113.2,-36.14 1107.23,-27.39 1106.44,-37.95 1113.2,-36.14"/>
</a>
</g>
</g>
<!-- Node17 -->
<g id="Node000017" class="node">
<title>Node17</title>
<g id="a_Node000017"><a xlink:href="../../d1/d4a/Quaternion_8h.html" target="_top" xlink:title=" ">
<polygon fill="white" stroke="#666666" points="810,-88 738.5,-88 738.5,-68 810,-68 810,-88"/>
<text text-anchor="middle" x="774.25" y="-74.5" font-family="Helvetica,sans-Serif" font-size="10.00">Quaternion.h</text>
</a>
</g>
</g>
<!-- Node9&#45;&gt;Node17 -->
<g id="edge18_Node000009_Node000017" class="edge">
<title>Node9&#45;&gt;Node17</title>
<g id="a_edge18_Node000009_Node000017"><a xlink:title=" ">
<path fill="none" stroke="#63b8ff" d="M880.61,-191.83C861.46,-171.52 815.21,-122.46 790.48,-96.22"/>
<polygon fill="#63b8ff" stroke="#63b8ff" points="793.4,-94.15 783.99,-89.28 788.31,-98.95 793.4,-94.15"/>
</a>
</g>
</g>
<!-- Node18 -->
<g id="Node000018" class="node">
<title>Node18</title>
<g id="a_Node000018"><a xlink:href="../../d3/d6a/Header_8h.html" target="_top" xlink:title=" ">
<polygon fill="white" stroke="#666666" points="916.75,-150 861.75,-150 861.75,-130 916.75,-130 916.75,-150"/>
<text text-anchor="middle" x="889.25" y="-136.5" font-family="Helvetica,sans-Serif" font-size="10.00">Header.h</text>
</a>
</g>
</g>
<!-- Node9&#45;&gt;Node18 -->
<g id="edge26_Node000009_Node000018" class="edge">
<title>Node9&#45;&gt;Node18</title>
<g id="a_edge26_Node000009_Node000018"><a xlink:title=" ">
<path fill="none" stroke="#63b8ff" d="M889.25,-191.62C889.25,-183.48 889.25,-171.39 889.25,-161.07"/>
<polygon fill="#63b8ff" stroke="#63b8ff" points="892.75,-161.11 889.25,-151.11 885.75,-161.11 892.75,-161.11"/>
</a>
</g>
</g>
<!-- Node10&#45;&gt;Node5 -->
<g id="edge14_Node000010_Node000005" class="edge">
<title>Node10&#45;&gt;Node5</title>
<g id="a_edge14_Node000010_Node000005"><a xlink:title=" ">
<path fill="none" stroke="#63b8ff" d="M1005.89,-72.72C951.64,-64.79 832.01,-47.25 731.25,-32 709.24,-28.67 684.44,-24.83 665.42,-21.87"/>
<polygon fill="#63b8ff" stroke="#63b8ff" points="666.1,-18.28 655.68,-20.2 665.02,-25.2 666.1,-18.28"/>
</a>
</g>
</g>
<!-- Node10&#45;&gt;Node11 -->
<g id="edge11_Node000010_Node000011" class="edge">
<title>Node10&#45;&gt;Node11</title>
<g id="a_edge11_Node000010_Node000011"><a xlink:title=" ">
<path fill="none" stroke="#63b8ff" d="M1015.41,-67.62C998.1,-59.45 972.42,-47.32 950.54,-36.98"/>
<polygon fill="#63b8ff" stroke="#63b8ff" points="952.33,-33.48 941.79,-32.37 949.34,-39.81 952.33,-33.48"/>
</a>
</g>
</g>
<!-- Node10&#45;&gt;Node12 -->
<g id="edge12_Node000010_Node000012" class="edge">
<title>Node10&#45;&gt;Node12</title>
<g id="a_edge12_Node000010_Node000012"><a xlink:title=" ">
<path fill="none" stroke="#63b8ff" d="M1005.77,-71.45C969.37,-64.21 905.82,-50.27 853.25,-32 851.98,-31.56 850.69,-31.09 849.4,-30.59"/>
<polygon fill="#63b8ff" stroke="#63b8ff" points="851.13,-27.1 840.55,-26.49 848.44,-33.57 851.13,-27.1"/>
</a>
</g>
</g>
<!-- Node10&#45;&gt;Node13 -->
<g id="edge13_Node000010_Node000013" class="edge">
<title>Node10&#45;&gt;Node13</title>
<g id="a_edge13_Node000010_Node000013"><a xlink:title=" ">
<path fill="none" stroke="#63b8ff" d="M1005.86,-74.65C958.65,-70.23 863.48,-58.59 787.25,-32 786.34,-31.68 785.42,-31.34 784.5,-30.97"/>
<polygon fill="#63b8ff" stroke="#63b8ff" points="786.39,-27.52 775.85,-26.46 783.43,-33.86 786.39,-27.52"/>
</a>
</g>
</g>
<!-- Node10&#45;&gt;Node14 -->
<g id="edge15_Node000010_Node000014" class="edge">
<title>Node10&#45;&gt;Node14</title>
<g id="a_edge15_Node000010_Node000014"><a xlink:title=" ">
<path fill="none" stroke="#63b8ff" d="M1028.69,-67.62C1022.61,-58.94 1013.41,-45.8 1005.9,-35.08"/>
<polygon fill="#63b8ff" stroke="#63b8ff" points="1008.23,-33.3 999.63,-27.11 1002.5,-37.31 1008.23,-33.3"/>
</a>
</g>
</g>
<!-- Node10&#45;&gt;Node15 -->
<g id="edge16_Node000010_Node000015" class="edge">
<title>Node10&#45;&gt;Node15</title>
<g id="a_edge16_Node000010_Node000015"><a xlink:title=" ">
<path fill="none" stroke="#63b8ff" d="M1037.44,-67.62C1039.36,-59.39 1042.22,-47.13 1044.64,-36.74"/>
<polygon fill="#63b8ff" stroke="#63b8ff" points="1048.26,-37.65 1047.12,-27.11 1041.44,-36.06 1048.26,-37.65"/>
</a>
</g>
</g>
<!-- Node10&#45;&gt;Node16 -->
<g id="edge17_Node000010_Node000016" class="edge">
<title>Node10&#45;&gt;Node16</title>
<g id="a_edge17_Node000010_Node000016"><a xlink:title=" ">
<path fill="none" stroke="#63b8ff" d="M1046.03,-67.62C1056.63,-58.41 1073,-44.17 1085.69,-33.14"/>
<polygon fill="#63b8ff" stroke="#63b8ff" points="1087.52,-35.32 1092.77,-26.11 1082.93,-30.03 1087.52,-35.32"/>
</a>
</g>
</g>
<!-- Node17&#45;&gt;Node5 -->
<g id="edge22_Node000017_Node000005" class="edge">
<title>Node17&#45;&gt;Node5</title>
<g id="a_edge22_Node000017_Node000005"><a xlink:title=" ">
<path fill="none" stroke="#63b8ff" d="M752.38,-67.62C728.75,-57.5 690.95,-41.3 664.49,-29.96"/>
<polygon fill="#63b8ff" stroke="#63b8ff" points="666.18,-26.45 655.61,-25.72 663.42,-32.88 666.18,-26.45"/>
</a>
</g>
</g>
<!-- Node17&#45;&gt;Node11 -->
<g id="edge19_Node000017_Node000011" class="edge">
<title>Node17&#45;&gt;Node11</title>
<g id="a_edge19_Node000017_Node000011"><a xlink:title=" ">
<path fill="none" stroke="#63b8ff" d="M795.19,-67.62C813.46,-59.44 840.6,-47.29 863.7,-36.95"/>
<polygon fill="#63b8ff" stroke="#63b8ff" points="864.96,-39.77 872.65,-32.49 862.1,-33.38 864.96,-39.77"/>
</a>
</g>
</g>
<!-- Node17&#45;&gt;Node12 -->
<g id="edge20_Node000017_Node000012" class="edge">
<title>Node17&#45;&gt;Node12</title>
<g id="a_edge20_Node000017_Node000012"><a xlink:title=" ">
<path fill="none" stroke="#63b8ff" d="M781.44,-67.62C788.16,-58.86 798.38,-45.53 806.64,-34.75"/>
<polygon fill="#63b8ff" stroke="#63b8ff" points="809.96,-37.18 813.26,-27.11 804.4,-32.92 809.96,-37.18"/>
</a>
</g>
</g>
<!-- Node17&#45;&gt;Node13 -->
<g id="edge21_Node000017_Node000013" class="edge">
<title>Node17&#45;&gt;Node13</title>
<g id="a_edge21_Node000017_Node000013"><a xlink:title=" ">
<path fill="none" stroke="#63b8ff" d="M771.91,-67.62C769.85,-59.39 766.78,-47.13 764.18,-36.74"/>
<polygon fill="#63b8ff" stroke="#63b8ff" points="767.35,-35.97 761.53,-27.11 760.56,-37.66 767.35,-35.97"/>
</a>
</g>
</g>
<!-- Node17&#45;&gt;Node14 -->
<g id="edge23_Node000017_Node000014" class="edge">
<title>Node17&#45;&gt;Node14</title>
<g id="a_edge23_Node000017_Node000014"><a xlink:title=" ">
<path fill="none" stroke="#63b8ff" d="M810.5,-70.94C849.09,-63.89 911.58,-50.78 963.25,-32 964.18,-31.66 965.13,-31.3 966.07,-30.92"/>
<polygon fill="#63b8ff" stroke="#63b8ff" points="967.41,-33.71 975.1,-26.42 964.54,-27.32 967.41,-33.71"/>
</a>
</g>
</g>
<!-- Node17&#45;&gt;Node15 -->
<g id="edge24_Node000017_Node000015" class="edge">
<title>Node17&#45;&gt;Node15</title>
<g id="a_edge24_Node000017_Node000015"><a xlink:title=" ">
<path fill="none" stroke="#63b8ff" d="M810.36,-72.03C869.6,-63.63 984.68,-46.12 1023.25,-32 1023.86,-31.78 1024.48,-31.54 1025.09,-31.29"/>
<polygon fill="#63b8ff" stroke="#63b8ff" points="1026.41,-34.05 1033.83,-26.49 1023.31,-27.77 1026.41,-34.05"/>
</a>
</g>
</g>
<!-- Node17&#45;&gt;Node16 -->
<g id="edge25_Node000017_Node000016" class="edge">
<title>Node17&#45;&gt;Node16</title>
<g id="a_edge25_Node000017_Node000016"><a xlink:title=" ">
<path fill="none" stroke="#63b8ff" d="M810.35,-73.11C879.15,-65.44 1026.55,-47.75 1075.25,-32 1076.36,-31.64 1077.47,-31.25 1078.58,-30.82"/>
<polygon fill="#63b8ff" stroke="#63b8ff" points="1079.73,-33.69 1087.4,-26.39 1076.84,-27.31 1079.73,-33.69"/>
</a>
</g>
</g>
<!-- Node18&#45;&gt;Node5 -->
<g id="edge38_Node000018_Node000005" class="edge">
<title>Node18&#45;&gt;Node5</title>
<g id="a_edge38_Node000018_Node000005"><a xlink:title=" ">
<path fill="none" stroke="#63b8ff" d="M861.31,-134.11C826.68,-127.27 766.59,-112.81 720.25,-88 693.22,-73.52 666.71,-49.78 650.43,-33.78"/>
<polygon fill="#63b8ff" stroke="#63b8ff" points="653.44,-31.83 643.9,-27.21 648.47,-36.77 653.44,-31.83"/>
</a>
</g>
</g>
<!-- Node18&#45;&gt;Node11 -->
<g id="edge35_Node000018_Node000011" class="edge">
<title>Node18&#45;&gt;Node11</title>
<g id="a_edge35_Node000018_Node000011"><a xlink:title=" ">
<path fill="none" stroke="#63b8ff" d="M897.42,-129.64C905.28,-119.98 916.63,-104.07 921.25,-88 925.52,-73.18 922.67,-56.19 918.57,-42.55"/>
<polygon fill="#63b8ff" stroke="#63b8ff" points="921.66,-41.77 915.13,-33.44 915.04,-44.03 921.66,-41.77"/>
</a>
</g>
</g>
<!-- Node18&#45;&gt;Node12 -->
<g id="edge36_Node000018_Node000012" class="edge">
<title>Node18&#45;&gt;Node12</title>
<g id="a_edge36_Node000018_Node000012"><a xlink:title=" ">
<path fill="none" stroke="#63b8ff" d="M883.12,-129.74C876.51,-119.62 865.77,-102.87 857.25,-88 847.34,-70.7 836.92,-50.5 829.67,-36.08"/>
<polygon fill="#63b8ff" stroke="#63b8ff" points="832.4,-34.71 824.81,-27.32 826.13,-37.83 832.4,-34.71"/>
</a>
</g>
</g>
<!-- Node18&#45;&gt;Node13 -->
<g id="edge37_Node000018_Node000013" class="edge">
<title>Node18&#45;&gt;Node13</title>
<g id="a_edge37_Node000018_Node000013"><a xlink:title=" ">
<path fill="none" stroke="#63b8ff" d="M861.33,-139.32C824.16,-138.05 759.61,-129.55 729.25,-88 717.24,-71.56 730.1,-49.59 742.51,-34.46"/>
<polygon fill="#63b8ff" stroke="#63b8ff" points="744.59,-37.26 748.58,-27.44 739.34,-32.63 744.59,-37.26"/>
</a>
</g>
</g>
<!-- Node18&#45;&gt;Node14 -->
<g id="edge39_Node000018_Node000014" class="edge">
<title>Node18&#45;&gt;Node14</title>
<g id="a_edge39_Node000018_Node000014"><a xlink:title=" ">
<path fill="none" stroke="#63b8ff" d="M898.11,-129.77C907.7,-119.69 923.37,-102.97 936.25,-88 951.47,-70.31 968.1,-49.4 979.44,-34.88"/>
<polygon fill="#63b8ff" stroke="#63b8ff" points="982.7,-37.4 986.07,-27.35 977.17,-33.1 982.7,-37.4"/>
</a>
</g>
</g>
<!-- Node18&#45;&gt;Node15 -->
<g id="edge40_Node000018_Node000015" class="edge">
<title>Node18&#45;&gt;Node15</title>
<g id="a_edge40_Node000018_Node000015"><a xlink:title=" ">
<path fill="none" stroke="#63b8ff" d="M916.94,-135.42C963.52,-128.77 1054.34,-112.87 1073.25,-88 1085.25,-72.22 1074.46,-50.07 1063.76,-34.72"/>
<polygon fill="#63b8ff" stroke="#63b8ff" points="1066.13,-33.05 1057.32,-27.17 1060.54,-37.26 1066.13,-33.05"/>
</a>
</g>
</g>
<!-- Node18&#45;&gt;Node16 -->
<g id="edge41_Node000018_Node000016" class="edge">
<title>Node18&#45;&gt;Node16</title>
<g id="a_edge41_Node000018_Node000016"><a xlink:title=" ">
<path fill="none" stroke="#63b8ff" d="M917.19,-135.53C966.41,-128.84 1065.62,-112.63 1089.25,-88 1102.18,-74.53 1105.16,-52.85 1105.39,-36.99"/>
<polygon fill="#63b8ff" stroke="#63b8ff" points="1108.87,-37.15 1105.14,-27.23 1101.87,-37.31 1108.87,-37.15"/>
</a>
</g>
</g>
<!-- Node19 -->
<g id="Node000019" class="node">
<title>Node19</title>
<g id="a_Node000019"><a xlink:href="../../d9/d3d/ros2_2types_2Time_8h.html" target="_top" xlink:title=" ">
<polygon fill="white" stroke="#666666" points="911.88,-88 866.62,-88 866.62,-68 911.88,-68 911.88,-88"/>
<text text-anchor="middle" x="889.25" y="-74.5" font-family="Helvetica,sans-Serif" font-size="10.00">Time.h</text>
</a>
</g>
</g>
<!-- Node18&#45;&gt;Node19 -->
<g id="edge27_Node000018_Node000019" class="edge">
<title>Node18&#45;&gt;Node19</title>
<g id="a_edge27_Node000018_Node000019"><a xlink:title=" ">
<path fill="none" stroke="#63b8ff" d="M889.25,-129.62C889.25,-121.48 889.25,-109.39 889.25,-99.07"/>
<polygon fill="#63b8ff" stroke="#63b8ff" points="892.75,-99.11 889.25,-89.11 885.75,-99.11 892.75,-99.11"/>
</a>
</g>
</g>
<!-- Node19&#45;&gt;Node5 -->
<g id="edge31_Node000019_Node000005" class="edge">
<title>Node19&#45;&gt;Node5</title>
<g id="a_edge31_Node000019_Node000005"><a xlink:title=" ">
<path fill="none" stroke="#63b8ff" d="M866.17,-71.57C820.14,-60.74 716.91,-36.45 665.12,-24.26"/>
<polygon fill="#63b8ff" stroke="#63b8ff" points="666.13,-20.67 655.59,-21.79 664.52,-27.48 666.13,-20.67"/>
</a>
</g>
</g>
<!-- Node19&#45;&gt;Node11 -->
<g id="edge28_Node000019_Node000011" class="edge">
<title>Node19&#45;&gt;Node11</title>
<g id="a_edge28_Node000019_Node000011"><a xlink:title=" ">
<path fill="none" stroke="#63b8ff" d="M892.22,-67.62C894.36,-60.88 897.35,-51.43 900.17,-42.52"/>
<polygon fill="#63b8ff" stroke="#63b8ff" points="903.77,-43.73 903.46,-33.14 897.1,-41.62 903.77,-43.73"/>
</a>
</g>
</g>
<!-- Node19&#45;&gt;Node12 -->
<g id="edge29_Node000019_Node000012" class="edge">
<title>Node19&#45;&gt;Node12</title>
<g id="a_edge29_Node000019_Node000012"><a xlink:title=" ">
<path fill="none" stroke="#63b8ff" d="M878.47,-67.62C867.87,-58.41 851.5,-44.17 838.81,-33.14"/>
<polygon fill="#63b8ff" stroke="#63b8ff" points="841.57,-30.03 831.73,-26.11 836.98,-35.32 841.57,-30.03"/>
</a>
</g>
</g>
<!-- Node19&#45;&gt;Node13 -->
<g id="edge30_Node000019_Node000013" class="edge">
<title>Node19&#45;&gt;Node13</title>
<g id="a_edge30_Node000019_Node000013"><a xlink:title=" ">
<path fill="none" stroke="#63b8ff" d="M866.74,-67.65C845.92,-58.87 814.22,-45.15 787.25,-32 786.8,-31.78 786.35,-31.56 785.9,-31.34"/>
<polygon fill="#63b8ff" stroke="#63b8ff" points="787.81,-27.87 777.32,-26.41 784.61,-34.1 787.81,-27.87"/>
</a>
</g>
</g>
<!-- Node19&#45;&gt;Node14 -->
<g id="edge32_Node000019_Node000014" class="edge">
<title>Node19&#45;&gt;Node14</title>
<g id="a_edge32_Node000019_Node000014"><a xlink:title=" ">
<path fill="none" stroke="#63b8ff" d="M905.5,-67.62C922.14,-58.03 948.24,-42.97 967.66,-31.77"/>
<polygon fill="#63b8ff" stroke="#63b8ff" points="969.2,-34.34 976.11,-26.31 965.7,-28.27 969.2,-34.34"/>
</a>
</g>
</g>
<!-- Node19&#45;&gt;Node15 -->
<g id="edge33_Node000019_Node000015" class="edge">
<title>Node19&#45;&gt;Node15</title>
<g id="a_edge33_Node000019_Node000015"><a xlink:title=" ">
<path fill="none" stroke="#63b8ff" d="M912.06,-70.85C939.15,-63.2 985.44,-49.05 1023.25,-32 1023.7,-31.8 1024.15,-31.59 1024.61,-31.37"/>
<polygon fill="#63b8ff" stroke="#63b8ff" points="1025.88,-34.14 1033.12,-26.4 1022.63,-27.93 1025.88,-34.14"/>
</a>
</g>
</g>
<!-- Node19&#45;&gt;Node16 -->
<g id="edge34_Node000019_Node000016" class="edge">
<title>Node19&#45;&gt;Node16</title>
<g id="a_edge34_Node000019_Node000016"><a xlink:title=" ">
<path fill="none" stroke="#63b8ff" d="M912.1,-73.3C947.72,-67.12 1018.29,-53.27 1075.25,-32 1076.16,-31.66 1077.07,-31.3 1077.99,-30.92"/>
<polygon fill="#63b8ff" stroke="#63b8ff" points="1079.09,-33.81 1086.69,-26.43 1076.15,-27.46 1079.09,-33.81"/>
</a>
</g>
</g>
<!-- Node20&#45;&gt;Node7 -->
<g id="edge50_Node000020_Node000007" class="edge">
<title>Node20&#45;&gt;Node7</title>
<g id="a_edge50_Node000020_Node000007"><a xlink:title=" ">
<path fill="none" stroke="#63b8ff" d="M664.78,-191.62C637.12,-183.11 595.49,-170.31 561.03,-159.7"/>
<polygon fill="#63b8ff" stroke="#63b8ff" points="562.18,-156.09 551.59,-156.49 560.12,-162.78 562.18,-156.09"/>
</a>
</g>
</g>
<!-- Node20&#45;&gt;Node8 -->
<g id="edge51_Node000020_Node000008" class="edge">
<title>Node20&#45;&gt;Node8</title>
<g id="a_edge51_Node000020_Node000008"><a xlink:title=" ">
<path fill="none" stroke="#63b8ff" d="M635.55,-192.62C580.26,-184.5 495.86,-171.21 423.25,-156 418.89,-155.09 414.36,-154.07 409.84,-153"/>
<polygon fill="#63b8ff" stroke="#63b8ff" points="410.93,-149.42 400.39,-150.46 409.28,-156.22 410.93,-149.42"/>
</a>
</g>
</g>
<!-- Node20&#45;&gt;Node10 -->
<g id="edge52_Node000020_Node000010" class="edge">
<title>Node20&#45;&gt;Node10</title>
<g id="a_edge52_Node000020_Node000010"><a xlink:title=" ">
<path fill="none" stroke="#63b8ff" d="M754.69,-196.36C802.59,-191.01 870.83,-179.67 926.25,-156 928.66,-154.97 982.3,-116.8 1013.41,-94.6"/>
<polygon fill="#63b8ff" stroke="#63b8ff" points="1015.16,-96.94 1021.27,-88.28 1011.09,-91.24 1015.16,-96.94"/>
</a>
</g>
</g>
<!-- Node21&#45;&gt;Node7 -->
<g id="edge54_Node000021_Node000007" class="edge">
<title>Node21&#45;&gt;Node7</title>
<g id="a_edge54_Node000021_Node000007"><a xlink:title=" ">
<path fill="none" stroke="#63b8ff" d="M399,-191.62C415.2,-183.52 439.18,-171.53 459.74,-161.26"/>
<polygon fill="#63b8ff" stroke="#63b8ff" points="461.12,-163.98 468.5,-156.37 457.99,-157.72 461.12,-163.98"/>
</a>
</g>
</g>
<!-- Node21&#45;&gt;Node8 -->
<g id="edge55_Node000021_Node000008" class="edge">
<title>Node21&#45;&gt;Node8</title>
<g id="a_edge55_Node000021_Node000008"><a xlink:title=" ">
<path fill="none" stroke="#63b8ff" d="M377.75,-191.62C375.55,-183.39 372.28,-171.13 369.51,-160.74"/>
<polygon fill="#63b8ff" stroke="#63b8ff" points="372.64,-159.87 366.68,-151.11 365.87,-161.68 372.64,-159.87"/>
</a>
</g>
</g>
<!-- Node21&#45;&gt;Node17 -->
<g id="edge56_Node000021_Node000017" class="edge">
<title>Node21&#45;&gt;Node17</title>
<g id="a_edge56_Node000021_Node000017"><a xlink:title=" ">
<path fill="none" stroke="#63b8ff" d="M350.7,-191.51C334.16,-184.51 314.98,-173.18 305.25,-156 298.24,-143.62 295.69,-134.53 305.25,-124 333.3,-93.13 614.35,-82.89 727.46,-80"/>
<polygon fill="#63b8ff" stroke="#63b8ff" points="727.28,-83.48 737.19,-79.73 727.1,-76.48 727.28,-83.48"/>
</a>
</g>
</g>
<!-- Node22&#45;&gt;Node7 -->
<g id="edge58_Node000022_Node000007" class="edge">
<title>Node22&#45;&gt;Node7</title>
<g id="a_edge58_Node000022_Node000007"><a xlink:title=" ">
<path fill="none" stroke="#63b8ff" d="M550.88,-191.62C543.46,-184.21 532.78,-173.53 523.15,-163.9"/>
<polygon fill="#63b8ff" stroke="#63b8ff" points="525.94,-161.74 516.39,-157.14 520.99,-166.69 525.94,-161.74"/>
</a>
</g>
</g>
<!-- Node22&#45;&gt;Node8 -->
<g id="edge59_Node000022_Node000008" class="edge">
<title>Node22&#45;&gt;Node8</title>
<g id="a_edge59_Node000022_Node000008"><a xlink:title=" ">
<path fill="none" stroke="#63b8ff" d="M529.62,-191.62C496.21,-181.4 442.54,-164.97 405.45,-153.61"/>
<polygon fill="#63b8ff" stroke="#63b8ff" points="406.57,-149.99 395.98,-150.41 404.52,-156.68 406.57,-149.99"/>
</a>
</g>
</g>
<!-- Node22&#45;&gt;Node18 -->
<g id="edge60_Node000022_Node000018" class="edge">
<title>Node22&#45;&gt;Node18</title>
<g id="a_edge60_Node000022_Node000018"><a xlink:title=" ">
<path fill="none" stroke="#63b8ff" d="M612.02,-191.56C678.32,-179.47 791.7,-158.79 850.82,-148.01"/>
<polygon fill="#63b8ff" stroke="#63b8ff" points="851.34,-151.29 860.55,-146.05 850.08,-144.4 851.34,-151.29"/>
</a>
</g>
</g>
<!-- Node23&#45;&gt;Node3 -->
<g id="edge62_Node000023_Node000003" class="edge">
<title>Node23&#45;&gt;Node3</title>
<g id="a_edge62_Node000023_Node000003"><a xlink:title=" ">
<path fill="none" stroke="#63b8ff" d="M58.01,-247.55C62.43,-239.74 67.84,-230.19 72.52,-221.94"/>
<polygon fill="#63b8ff" stroke="#63b8ff" points="76.03,-223.83 77.92,-213.41 69.94,-220.38 76.03,-223.83"/>
</a>
</g>
</g>
</g>
</svg>
