<?xml version="1.0" encoding="UTF-8" standalone="no"?>
<!DOCTYPE svg PUBLIC "-//W3C//DTD SVG 1.1//EN"
 "http://www.w3.org/Graphics/SVG/1.1/DTD/svg11.dtd">
<!-- Generated by graphviz version 8.1.0 (20230707.0739)
 -->
<!-- Title: carla::geom::Transform::GetForwardVector Pages: 1 -->
<svg width="750pt" height="146pt"
 viewBox="0.00 0.00 750.25 146.00" xmlns="http://www.w3.org/2000/svg" xmlns:xlink="http://www.w3.org/1999/xlink">
<g id="graph0" class="graph" transform="scale(1 1) rotate(0) translate(4 142)">
<title>carla::geom::Transform::GetForwardVector</title>
<!-- Node1 -->
<g id="Node000001" class="node">
<title>Node1</title>
<g id="a_Node000001"><a xlink:title=" ">
<polygon fill="#999999" stroke="#666666" points="742.25,-88 626.5,-88 626.5,-56 742.25,-56 742.25,-88"/>
<text text-anchor="start" x="634.5" y="-74.5" font-family="Helvetica,sans-Serif" font-size="10.00">carla::geom::Transform</text>
<text text-anchor="middle" x="684.38" y="-62.5" font-family="Helvetica,sans-Serif" font-size="10.00">::GetForwardVector</text>
</a>
</g>
</g>
<!-- Node2 -->
<g id="Node000002" class="node">
<title>Node2</title>
<g id="a_Node000002"><a xlink:href="../../d7/d97/classFCarlaServer_1_1FPimpl.html#a675a6b572112a21e8bc011dddfd0de86" target="_top" xlink:title=" ">
<polygon fill="white" stroke="#666666" points="578.12,-138 469.88,-138 469.88,-106 578.12,-106 578.12,-138"/>
<text text-anchor="start" x="477.88" y="-124.5" font-family="Helvetica,sans-Serif" font-size="10.00">FCarlaServer::FPimpl</text>
<text text-anchor="middle" x="524" y="-112.5" font-family="Helvetica,sans-Serif" font-size="10.00">::BindActions</text>
</a>
</g>
</g>
<!-- Node1&#45;&gt;Node2 -->
<g id="edge1_Node000001_Node000002" class="edge">
<title>Node1&#45;&gt;Node2</title>
<g id="a_edge1_Node000001_Node000002"><a xlink:title=" ">
<path fill="none" stroke="#63b8ff" d="M621.12,-91.66C606.6,-96.24 591.28,-101.08 577.25,-105.51"/>
<polygon fill="#63b8ff" stroke="#63b8ff" points="622.03,-94.72 630.52,-88.37 619.93,-88.04 622.03,-94.72"/>
</a>
</g>
</g>
<!-- Node4 -->
<g id="Node000004" class="node">
<title>Node4</title>
<g id="a_Node000004"><a xlink:href="../../df/def/classcarla_1_1client_1_1TrafficLight.html#ae658ff882df9b877a9730c879c028ba9" target="_top" xlink:title=" ">
<polygon fill="white" stroke="#666666" points="583.38,-88 464.62,-88 464.62,-56 583.38,-56 583.38,-88"/>
<text text-anchor="start" x="472.62" y="-74.5" font-family="Helvetica,sans-Serif" font-size="10.00">carla::client::TrafficLight</text>
<text text-anchor="middle" x="524" y="-62.5" font-family="Helvetica,sans-Serif" font-size="10.00">::GetStopWaypoints</text>
</a>
</g>
</g>
<!-- Node1&#45;&gt;Node4 -->
<g id="edge3_Node000001_Node000004" class="edge">
<title>Node1&#45;&gt;Node4</title>
<g id="a_edge3_Node000001_Node000004"><a xlink:title=" ">
<path fill="none" stroke="#63b8ff" d="M615.35,-72C604.81,-72 594,-72 583.69,-72"/>
<polygon fill="#63b8ff" stroke="#63b8ff" points="615.2,-75.5 625.2,-72 615.2,-68.5 615.2,-75.5"/>
</a>
</g>
</g>
<!-- Node5 -->
<g id="Node000005" class="node">
<title>Node5</title>
<g id="a_Node000005"><a xlink:href="../../dd/df9/classcarla_1_1traffic__manager_1_1MotionPlanStage.html#a7a57d649d96daccb2e2ee9780f24c4ec" target="_top" xlink:title="更新方法。">
<polygon fill="white" stroke="#666666" points="590.5,-38 457.5,-38 457.5,-6 590.5,-6 590.5,-38"/>
<text text-anchor="start" x="465.5" y="-24.5" font-family="Helvetica,sans-Serif" font-size="10.00">carla::traffic_manager</text>
<text text-anchor="middle" x="524" y="-12.5" font-family="Helvetica,sans-Serif" font-size="10.00">::MotionPlanStage::Update</text>
</a>
</g>
</g>
<!-- Node1&#45;&gt;Node5 -->
<g id="edge4_Node000001_Node000005" class="edge">
<title>Node1&#45;&gt;Node5</title>
<g id="a_edge4_Node000001_Node000005"><a xlink:title=" ">
<path fill="none" stroke="#63b8ff" d="M621.12,-52.34C606.6,-47.76 591.28,-42.92 577.25,-38.49"/>
<polygon fill="#63b8ff" stroke="#63b8ff" points="619.93,-55.96 630.52,-55.63 622.03,-49.28 619.93,-55.96"/>
</a>
</g>
</g>
<!-- Node3 -->
<g id="Node000003" class="node">
<title>Node3</title>
<g id="a_Node000003"><a xlink:href="../../d7/d97/classFCarlaServer_1_1FPimpl.html#ab9ff29fc81bd2f9a14677941c7f7b62d" target="_top" xlink:title=" ">
<polygon fill="white" stroke="#666666" points="409.88,-138 301.62,-138 301.62,-106 409.88,-106 409.88,-138"/>
<text text-anchor="start" x="309.62" y="-124.5" font-family="Helvetica,sans-Serif" font-size="10.00">FCarlaServer::FPimpl</text>
<text text-anchor="middle" x="355.75" y="-112.5" font-family="Helvetica,sans-Serif" font-size="10.00">::FPimpl</text>
</a>
</g>
</g>
<!-- Node2&#45;&gt;Node3 -->
<g id="edge2_Node000002_Node000003" class="edge">
<title>Node2&#45;&gt;Node3</title>
<g id="a_edge2_Node000002_Node000003"><a xlink:title=" ">
<path fill="none" stroke="#63b8ff" d="M458.58,-122C442.57,-122 425.59,-122 410.17,-122"/>
<polygon fill="#63b8ff" stroke="#63b8ff" points="458.48,-125.5 468.48,-122 458.48,-118.5 458.48,-125.5"/>
</a>
</g>
</g>
<!-- Node6 -->
<g id="Node000006" class="node">
<title>Node6</title>
<g id="a_Node000006"><a xlink:href="../../da/d0f/classcarla_1_1traffic__manager_1_1TrafficManagerLocal.html#a6d67cce3d0e5a48056645270364fe637" target="_top" xlink:title="启动线程以顺序运行交通管理器 &#160;&#160;此方法将创建一个新线程（如果尚未创建），并在该线程中顺序运行交通管理器的逻辑">
<polygon fill="white" stroke="#666666" points="421.5,-38 290,-38 290,-6 421.5,-6 421.5,-38"/>
<text text-anchor="start" x="298" y="-24.5" font-family="Helvetica,sans-Serif" font-size="10.00">carla::traffic_manager</text>
<text text-anchor="middle" x="355.75" y="-12.5" font-family="Helvetica,sans-Serif" font-size="10.00">::TrafficManagerLocal::Run</text>
</a>
</g>
</g>
<!-- Node5&#45;&gt;Node6 -->
<g id="edge5_Node000005_Node000006" class="edge">
<title>Node5&#45;&gt;Node6</title>
<g id="a_edge5_Node000005_Node000006"><a xlink:title=" ">
<path fill="none" stroke="#63b8ff" d="M446.57,-22C438.35,-22 430.05,-22 421.98,-22"/>
<polygon fill="#63b8ff" stroke="#63b8ff" points="446.29,-25.5 456.29,-22 446.29,-18.5 446.29,-25.5"/>
</a>
</g>
</g>
<!-- Node7 -->
<g id="Node000007" class="node">
<title>Node7</title>
<g id="a_Node000007"><a xlink:href="../../da/d0f/classcarla_1_1traffic__manager_1_1TrafficManagerLocal.html#a1ffbdb0bed64f385437d2820a90286d0" target="_top" xlink:title="启动交通管理器 &#160;&#160;此方法用于启动TrafficManagerLocal，开始其管理交通的功能">
<polygon fill="white" stroke="#666666" points="254,-44 145,-44 145,0 254,0 254,-44"/>
<text text-anchor="start" x="153" y="-30.5" font-family="Helvetica,sans-Serif" font-size="10.00">carla::traffic_manager</text>
<text text-anchor="start" x="153" y="-18.5" font-family="Helvetica,sans-Serif" font-size="10.00">::TrafficManagerLocal</text>
<text text-anchor="middle" x="199.5" y="-6.5" font-family="Helvetica,sans-Serif" font-size="10.00">::Start</text>
</a>
</g>
</g>
<!-- Node6&#45;&gt;Node7 -->
<g id="edge6_Node000006_Node000007" class="edge">
<title>Node6&#45;&gt;Node7</title>
<g id="a_edge6_Node000006_Node000007"><a xlink:title=" ">
<path fill="none" stroke="#63b8ff" d="M278.87,-22C270.53,-22 262.18,-22 254.19,-22"/>
<polygon fill="#63b8ff" stroke="#63b8ff" points="278.78,-25.5 288.78,-22 278.78,-18.5 278.78,-25.5"/>
</a>
</g>
</g>
<!-- Node8 -->
<g id="Node000008" class="node">
<title>Node8</title>
<g id="a_Node000008"><a xlink:href="../../da/d0f/classcarla_1_1traffic__manager_1_1TrafficManagerLocal.html#a75976d36f4213ab24e79e3ea2dcd280a" target="_top" xlink:title="私有构造函数，用于单例生命周期管理">
<polygon fill="white" stroke="#666666" points="109,-44 0,-44 0,0 109,0 109,-44"/>
<text text-anchor="start" x="8" y="-30.5" font-family="Helvetica,sans-Serif" font-size="10.00">carla::traffic_manager</text>
<text text-anchor="start" x="8" y="-18.5" font-family="Helvetica,sans-Serif" font-size="10.00">::TrafficManagerLocal</text>
<text text-anchor="middle" x="54.5" y="-6.5" font-family="Helvetica,sans-Serif" font-size="10.00">::TrafficManagerLocal</text>
</a>
</g>
</g>
<!-- Node7&#45;&gt;Node8 -->
<g id="edge7_Node000007_Node000008" class="edge">
<title>Node7&#45;&gt;Node8</title>
<g id="a_edge7_Node000007_Node000008"><a xlink:title=" ">
<path fill="none" stroke="#63b8ff" d="M134.12,-22C125.88,-22 117.51,-22 109.46,-22"/>
<polygon fill="#63b8ff" stroke="#63b8ff" points="133.85,-25.5 143.85,-22 133.85,-18.5 133.85,-25.5"/>
</a>
</g>
</g>
</g>
</svg>
