<?xml version="1.0" encoding="UTF-8" standalone="no"?>
<!DOCTYPE svg PUBLIC "-//W3C//DTD SVG 1.1//EN"
 "http://www.w3.org/Graphics/SVG/1.1/DTD/svg11.dtd">
<!-- Generated by graphviz version 7.0.5 (20221223.1930)
 -->
<!-- Title: find_char Pages: 1 -->
<svg width="1479pt" height="392pt"
 viewBox="0.00 0.00 1479.00 391.54" xmlns="http://www.w3.org/2000/svg" xmlns:xlink="http://www.w3.org/1999/xlink">
<g id="graph0" class="graph" transform="scale(1 1) rotate(0) translate(4 387.54)">
<title>find_char</title>
<!-- Node1 -->
<g id="node1" class="node">
<title>Node1</title>
<g id="a_node1"><a xlink:title=" ">
<polygon fill="#999999" stroke="#666666" points="1471,-110.04 1415,-110.04 1415,-91.04 1471,-91.04 1471,-110.04"/>
<text text-anchor="middle" x="1443" y="-98.04" font-family="Helvetica,sans-Serif" font-size="10.00">find_char</text>
</a>
</g>
</g>
<!-- Node2 -->
<g id="node2" class="node">
<title>Node2</title>
<g id="a_node2"><a xlink:href="../../db/d20/pugixml_8cpp.html#aecaa1841b44b31e58c93000c94ff1b39" target="_top" xlink:title=" ">
<polygon fill="white" stroke="#666666" points="1346,-67.04 1280,-67.04 1280,-48.04 1346,-48.04 1346,-67.04"/>
<text text-anchor="middle" x="1313" y="-55.04" font-family="Helvetica,sans-Serif" font-size="10.00">local_name</text>
</a>
</g>
</g>
<!-- Node1&#45;&gt;Node2 -->
<g id="edge1" class="edge">
<title>Node1&#45;&gt;Node2</title>
<path fill="none" stroke="#63b8ff" d="M1406.78,-86.55C1397.77,-83.13 1388.07,-79.58 1379,-76.54 1368.41,-72.98 1356.73,-69.44 1346.23,-66.41"/>
<polygon fill="#63b8ff" stroke="#63b8ff" points="1405.33,-89.74 1415.92,-90.07 1407.84,-83.21 1405.33,-89.74"/>
</g>
<!-- Node15 -->
<g id="node15" class="node">
<title>Node15</title>
<g id="a_node15"><a xlink:href="../../d8/d77/structnamespace__uri__predicate.html#a25bef9c1e12b0fdc908275ae7ab7c202" target="_top" xlink:title=" ">
<polygon fill="white" stroke="#666666" points="1379,-115.54 1247,-115.54 1247,-85.54 1379,-85.54 1379,-115.54"/>
<text text-anchor="start" x="1255" y="-103.54" font-family="Helvetica,sans-Serif" font-size="10.00">namespace_uri_predicate</text>
<text text-anchor="middle" x="1313" y="-92.54" font-family="Helvetica,sans-Serif" font-size="10.00">::namespace_uri_predicate</text>
</a>
</g>
</g>
<!-- Node1&#45;&gt;Node15 -->
<g id="edge35" class="edge">
<title>Node1&#45;&gt;Node15</title>
<path fill="none" stroke="#63b8ff" d="M1403.17,-100.54C1395.59,-100.54 1387.45,-100.54 1379.29,-100.54"/>
<polygon fill="#63b8ff" stroke="#63b8ff" points="1403.03,-104.04 1413.03,-100.54 1403.03,-97.04 1403.03,-104.04"/>
</g>
<!-- Node16 -->
<g id="node16" class="node">
<title>Node16</title>
<g id="a_node16"><a xlink:href="../../db/d20/pugixml_8cpp.html#aaec5bda5a23aae7b0798075d099018c2" target="_top" xlink:title=" ">
<polygon fill="white" stroke="#666666" points="1340,-153.04 1286,-153.04 1286,-134.04 1340,-134.04 1340,-153.04"/>
<text text-anchor="middle" x="1313" y="-141.04" font-family="Helvetica,sans-Serif" font-size="10.00">translate</text>
</a>
</g>
</g>
<!-- Node1&#45;&gt;Node16 -->
<g id="edge36" class="edge">
<title>Node1&#45;&gt;Node16</title>
<path fill="none" stroke="#63b8ff" d="M1406.78,-114.52C1397.77,-117.94 1388.07,-121.49 1379,-124.54 1366.41,-128.77 1352.27,-132.96 1340.4,-136.33"/>
<polygon fill="#63b8ff" stroke="#63b8ff" points="1407.84,-117.86 1415.92,-111 1405.33,-111.33 1407.84,-117.86"/>
</g>
<!-- Node3 -->
<g id="node3" class="node">
<title>Node3</title>
<g id="a_node3"><a xlink:href="../../d3/dc5/classxpath__ast__node.html#a6b675237a590548b68d0e0b97518b6df" target="_top" xlink:title=" ">
<polygon fill="white" stroke="#666666" points="1211,-115.54 1104,-115.54 1104,-85.54 1211,-85.54 1211,-115.54"/>
<text text-anchor="start" x="1112" y="-103.54" font-family="Helvetica,sans-Serif" font-size="10.00">xpath_ast_node::eval</text>
<text text-anchor="middle" x="1157.5" y="-92.54" font-family="Helvetica,sans-Serif" font-size="10.00">_string</text>
</a>
</g>
</g>
<!-- Node2&#45;&gt;Node3 -->
<g id="edge2" class="edge">
<title>Node2&#45;&gt;Node3</title>
<path fill="none" stroke="#63b8ff" d="M1268.88,-69.61C1251.06,-74.61 1230.22,-80.44 1211.48,-85.69"/>
<polygon fill="#63b8ff" stroke="#63b8ff" points="1269.68,-73.03 1278.36,-66.96 1267.79,-66.28 1269.68,-73.03"/>
</g>
<!-- Node3&#45;&gt;Node3 -->
<g id="edge32" class="edge">
<title>Node3&#45;&gt;Node3</title>
<path fill="none" stroke="#63b8ff" d="M1183.74,-127.14C1179.53,-130.96 1170.79,-133.54 1157.5,-133.54 1133.2,-133.54 1124.09,-124.94 1130.17,-115.81"/>
<polygon fill="#63b8ff" stroke="#63b8ff" points="1187.21,-127.61 1184.69,-117.32 1180.24,-126.93 1187.21,-127.61"/>
</g>
<!-- Node4 -->
<g id="node4" class="node">
<title>Node4</title>
<g id="a_node4"><a xlink:href="../../d3/dc5/classxpath__ast__node.html#a98dd7f6e67fe2c56c63056eed835d6a4" target="_top" xlink:title=" ">
<polygon fill="white" stroke="#666666" points="1068,-191.04 925,-191.04 925,-172.04 1068,-172.04 1068,-191.04"/>
<text text-anchor="middle" x="996.5" y="-179.04" font-family="Helvetica,sans-Serif" font-size="10.00">xpath_ast_node::compare_eq</text>
</a>
</g>
</g>
<!-- Node3&#45;&gt;Node4 -->
<g id="edge3" class="edge">
<title>Node3&#45;&gt;Node4</title>
<path fill="none" stroke="#63b8ff" d="M1116.3,-121.02C1084.4,-137.27 1041.23,-159.26 1016.68,-171.77"/>
<polygon fill="#63b8ff" stroke="#63b8ff" points="1117.55,-124.31 1124.87,-116.65 1114.37,-118.07 1117.55,-124.31"/>
</g>
<!-- Node5 -->
<g id="node5" class="node">
<title>Node5</title>
<g id="a_node5"><a xlink:href="../../d3/dc5/classxpath__ast__node.html#ab7f965a92023bc2704b8e6fd9f3d7c14" target="_top" xlink:title=" ">
<polygon fill="white" stroke="#666666" points="889,-243.54 782,-243.54 782,-213.54 889,-213.54 889,-243.54"/>
<text text-anchor="start" x="790" y="-231.54" font-family="Helvetica,sans-Serif" font-size="10.00">xpath_ast_node::eval</text>
<text text-anchor="middle" x="835.5" y="-220.54" font-family="Helvetica,sans-Serif" font-size="10.00">_boolean</text>
</a>
</g>
</g>
<!-- Node3&#45;&gt;Node5 -->
<g id="edge30" class="edge">
<title>Node3&#45;&gt;Node5</title>
<path fill="none" stroke="#63b8ff" d="M1137.09,-124.96C1121.42,-146.09 1097.21,-175.22 1068,-190.54 1012.04,-219.88 938.32,-224.23 889.26,-225.19"/>
<polygon fill="#63b8ff" stroke="#63b8ff" points="1139.74,-127.26 1142.78,-117.11 1134.08,-123.14 1139.74,-127.26"/>
</g>
<!-- Node10 -->
<g id="node10" class="node">
<title>Node10</title>
<g id="a_node10"><a xlink:href="../../d3/dc5/classxpath__ast__node.html#a92dd7048e28d486bc7f382d1fc6f1de6" target="_top" xlink:title=" ">
<polygon fill="white" stroke="#666666" points="743.5,-200.54 636.5,-200.54 636.5,-170.54 743.5,-170.54 743.5,-200.54"/>
<text text-anchor="start" x="644.5" y="-188.54" font-family="Helvetica,sans-Serif" font-size="10.00">xpath_ast_node::eval</text>
<text text-anchor="middle" x="690" y="-177.54" font-family="Helvetica,sans-Serif" font-size="10.00">_number</text>
</a>
</g>
</g>
<!-- Node3&#45;&gt;Node10 -->
<g id="edge31" class="edge">
<title>Node3&#45;&gt;Node10</title>
<path fill="none" stroke="#63b8ff" d="M1092.37,-107.42C999.65,-121.67 829.88,-152.79 743.9,-171.4"/>
<polygon fill="#63b8ff" stroke="#63b8ff" points="1092.69,-110.91 1102.06,-105.95 1091.65,-103.99 1092.69,-110.91"/>
</g>
<!-- Node14 -->
<g id="node14" class="node">
<title>Node14</title>
<g id="a_node14"><a xlink:href="../../d3/dc5/classxpath__ast__node.html#aaf931a091af0fb91c25e90b205363b4e" target="_top" xlink:title=" ">
<polygon fill="white" stroke="#666666" points="1050,-63.54 943,-63.54 943,-33.54 1050,-33.54 1050,-63.54"/>
<text text-anchor="start" x="951" y="-51.54" font-family="Helvetica,sans-Serif" font-size="10.00">xpath_ast_node::eval</text>
<text text-anchor="middle" x="996.5" y="-40.54" font-family="Helvetica,sans-Serif" font-size="10.00">_string_concat</text>
</a>
</g>
</g>
<!-- Node3&#45;&gt;Node14 -->
<g id="edge33" class="edge">
<title>Node3&#45;&gt;Node14</title>
<path fill="none" stroke="#63b8ff" d="M1115.3,-81.06C1095.46,-73.73 1071.45,-65.75 1050.29,-59.4"/>
<polygon fill="#63b8ff" stroke="#63b8ff" points="1113.84,-84.25 1124.43,-84.52 1116.31,-77.7 1113.84,-84.25"/>
</g>
<!-- Node4&#45;&gt;Node5 -->
<g id="edge4" class="edge">
<title>Node4&#45;&gt;Node5</title>
<path fill="none" stroke="#63b8ff" d="M928.99,-194.53C908.49,-200.33 886.81,-207.09 869.6,-213.15"/>
<polygon fill="#63b8ff" stroke="#63b8ff" points="929.73,-197.95 938.43,-191.91 927.86,-191.21 929.73,-197.95"/>
</g>
<!-- Node5&#45;&gt;Node3 -->
<g id="edge29" class="edge">
<title>Node5&#45;&gt;Node3</title>
<path fill="none" stroke="#63b8ff" d="M900.57,-239.68C949.16,-241.45 1016.19,-235.7 1068,-208.54 1108.02,-187.55 1138.64,-140.67 1150.79,-115.8"/>
<polygon fill="#63b8ff" stroke="#63b8ff" points="900.93,-236.19 890.77,-239.19 900.58,-243.18 900.93,-236.19"/>
</g>
<!-- Node5&#45;&gt;Node4 -->
<g id="edge26" class="edge">
<title>Node5&#45;&gt;Node4</title>
<path fill="none" stroke="#63b8ff" d="M900.34,-216.3C928.08,-208.52 958.47,-198.82 977.26,-191.42"/>
<polygon fill="#63b8ff" stroke="#63b8ff" points="899.64,-212.86 890.93,-218.88 901.5,-219.61 899.64,-212.86"/>
</g>
<!-- Node5&#45;&gt;Node5 -->
<g id="edge27" class="edge">
<title>Node5&#45;&gt;Node5</title>
<path fill="none" stroke="#63b8ff" d="M860.05,-255.14C856.12,-258.96 847.93,-261.54 835.5,-261.54 812.77,-261.54 804.24,-252.94 809.92,-243.81"/>
<polygon fill="#63b8ff" stroke="#63b8ff" points="863.52,-255.59 860.94,-245.32 856.55,-254.96 863.52,-255.59"/>
</g>
<!-- Node6 -->
<g id="node6" class="node">
<title>Node6</title>
<g id="a_node6"><a xlink:href="../../d3/dc5/classxpath__ast__node.html#ab4e5bbd3f2e83c86a43349374b4bfc22" target="_top" xlink:title=" ">
<polygon fill="white" stroke="#666666" points="746,-278.54 634,-278.54 634,-248.54 746,-248.54 746,-278.54"/>
<text text-anchor="start" x="642" y="-266.54" font-family="Helvetica,sans-Serif" font-size="10.00">xpath_ast_node::apply</text>
<text text-anchor="middle" x="690" y="-255.54" font-family="Helvetica,sans-Serif" font-size="10.00">_predicate_boolean</text>
</a>
</g>
</g>
<!-- Node5&#45;&gt;Node6 -->
<g id="edge5" class="edge">
<title>Node5&#45;&gt;Node6</title>
<path fill="none" stroke="#63b8ff" d="M770.76,-244.08C762.51,-246.09 754.12,-248.14 746.02,-250.11"/>
<polygon fill="#63b8ff" stroke="#63b8ff" points="771.52,-247.5 780.41,-241.73 769.87,-240.7 771.52,-247.5"/>
</g>
<!-- Node5&#45;&gt;Node10 -->
<g id="edge28" class="edge">
<title>Node5&#45;&gt;Node10</title>
<path fill="none" stroke="#63b8ff" d="M791.77,-209.5C776.75,-204.43 759.69,-199.22 743.94,-194.86"/>
<polygon fill="#63b8ff" stroke="#63b8ff" points="790.27,-212.68 800.87,-212.65 792.56,-206.07 790.27,-212.68"/>
</g>
<!-- Node7 -->
<g id="node7" class="node">
<title>Node7</title>
<g id="a_node7"><a xlink:href="../../d3/dc5/classxpath__ast__node.html#a7e35f265c9e0712a16e1d8a9db4c7672" target="_top" xlink:title=" ">
<polygon fill="white" stroke="#666666" points="434,-217.54 322,-217.54 322,-187.54 434,-187.54 434,-217.54"/>
<text text-anchor="start" x="330" y="-205.54" font-family="Helvetica,sans-Serif" font-size="10.00">xpath_ast_node::apply</text>
<text text-anchor="middle" x="378" y="-194.54" font-family="Helvetica,sans-Serif" font-size="10.00">_predicate</text>
</a>
</g>
</g>
<!-- Node6&#45;&gt;Node7 -->
<g id="edge6" class="edge">
<title>Node6&#45;&gt;Node7</title>
<path fill="none" stroke="#63b8ff" d="M622.5,-266.83C578.46,-267.26 519.84,-264.45 470,-250.54 445.06,-243.57 419.17,-229.09 401.42,-217.85"/>
<polygon fill="#63b8ff" stroke="#63b8ff" points="622.49,-270.33 632.43,-266.67 622.37,-263.33 622.49,-270.33"/>
</g>
<!-- Node8 -->
<g id="node8" class="node">
<title>Node8</title>
<g id="a_node8"><a xlink:href="../../d3/dc5/classxpath__ast__node.html#a68cace396dd4eeae67ecfcd34a3a8285" target="_top" xlink:title=" ">
<polygon fill="white" stroke="#666666" points="286,-184.54 179,-184.54 179,-154.54 286,-154.54 286,-184.54"/>
<text text-anchor="start" x="187" y="-172.54" font-family="Helvetica,sans-Serif" font-size="10.00">xpath_ast_node::eval</text>
<text text-anchor="middle" x="232.5" y="-161.54" font-family="Helvetica,sans-Serif" font-size="10.00">_node_set</text>
</a>
</g>
</g>
<!-- Node7&#45;&gt;Node8 -->
<g id="edge7" class="edge">
<title>Node7&#45;&gt;Node8</title>
<path fill="none" stroke="#63b8ff" d="M310.31,-187.2C302.32,-185.36 294.24,-183.5 286.48,-181.72"/>
<polygon fill="#63b8ff" stroke="#63b8ff" points="309.51,-190.61 320.04,-189.44 311.08,-183.79 309.51,-190.61"/>
</g>
<!-- Node8&#45;&gt;Node3 -->
<g id="edge23" class="edge">
<title>Node8&#45;&gt;Node3</title>
<path fill="none" stroke="#63b8ff" d="M256.47,-146.28C303.74,-101.02 417.2,-5.54 533,-5.54 836.5,-5.54 836.5,-5.54 836.5,-5.54 939.73,-5.54 972.74,15.26 1068,-24.54 1099.77,-37.81 1128.37,-66.97 1144,-85.06"/>
<polygon fill="#63b8ff" stroke="#63b8ff" points="254.24,-143.57 249.52,-153.05 259.12,-148.58 254.24,-143.57"/>
</g>
<!-- Node8&#45;&gt;Node4 -->
<g id="edge8" class="edge">
<title>Node8&#45;&gt;Node4</title>
<path fill="none" stroke="#63b8ff" d="M287.97,-150.96C299.1,-147.89 310.83,-145.18 322,-143.54 387.08,-133.95 404.22,-142.76 470,-142.54 526.89,-142.34 541.18,-139.75 598,-142.54 712.62,-148.14 845.17,-162.8 924.57,-172.46"/>
<polygon fill="#63b8ff" stroke="#63b8ff" points="287.16,-147.55 278.53,-153.69 289.11,-154.27 287.16,-147.55"/>
</g>
<!-- Node8&#45;&gt;Node5 -->
<g id="edge11" class="edge">
<title>Node8&#45;&gt;Node5</title>
<path fill="none" stroke="#63b8ff" d="M263.25,-191.52C279.9,-203.09 301.4,-216.84 322,-226.54 384.45,-255.92 402.31,-260.07 470,-273.54 590.46,-297.49 628.45,-323.13 746,-287.54 774.1,-279.03 801.43,-258.33 818.11,-243.86"/>
<polygon fill="#63b8ff" stroke="#63b8ff" points="265.46,-188.8 255.28,-185.88 261.42,-194.52 265.46,-188.8"/>
</g>
<!-- Node8&#45;&gt;Node8 -->
<g id="edge12" class="edge">
<title>Node8&#45;&gt;Node8</title>
<path fill="none" stroke="#63b8ff" d="M257.05,-196.14C253.12,-199.96 244.93,-202.54 232.5,-202.54 209.77,-202.54 201.24,-193.94 206.92,-184.81"/>
<polygon fill="#63b8ff" stroke="#63b8ff" points="260.52,-196.59 257.94,-186.32 253.55,-195.96 260.52,-196.59"/>
</g>
<!-- Node9 -->
<g id="node9" class="node">
<title>Node9</title>
<g id="a_node9"><a xlink:href="../../d3/dc5/classxpath__ast__node.html#abb6e4c529276eaf882233dbb6e04e111" target="_top" xlink:title=" ">
<polygon fill="white" stroke="#666666" points="143,-317.04 0,-317.04 0,-298.04 143,-298.04 143,-317.04"/>
<text text-anchor="middle" x="71.5" y="-305.04" font-family="Helvetica,sans-Serif" font-size="10.00">xpath_ast_node::compare_rel</text>
</a>
</g>
</g>
<!-- Node8&#45;&gt;Node9 -->
<g id="edge9" class="edge">
<title>Node8&#45;&gt;Node9</title>
<path fill="none" stroke="#63b8ff" d="M205.55,-192.06C170.42,-222.55 109.24,-275.64 83.95,-297.6"/>
<polygon fill="#63b8ff" stroke="#63b8ff" points="207.48,-195.02 212.73,-185.82 202.89,-189.73 207.48,-195.02"/>
</g>
<!-- Node8&#45;&gt;Node10 -->
<g id="edge13" class="edge">
<title>Node8&#45;&gt;Node10</title>
<path fill="none" stroke="#63b8ff" d="M297.74,-159.01C370.94,-148.84 493.91,-137.29 598,-154.54 616.44,-157.59 636.16,-163.91 652.52,-170.04"/>
<polygon fill="#63b8ff" stroke="#63b8ff" points="297.33,-155.54 287.93,-160.42 298.32,-162.47 297.33,-155.54"/>
</g>
<!-- Node13 -->
<g id="node13" class="node">
<title>Node13</title>
<g id="a_node13"><a xlink:href="../../d3/dc5/classxpath__ast__node.html#a3258c05ab9aaa78e154d2ff63fe56906" target="_top" xlink:title=" ">
<polygon fill="white" stroke="#666666" points="133.5,-179.04 9.5,-179.04 9.5,-160.04 133.5,-160.04 133.5,-179.04"/>
<text text-anchor="middle" x="71.5" y="-167.04" font-family="Helvetica,sans-Serif" font-size="10.00">xpath_ast_node::step_do</text>
</a>
</g>
</g>
<!-- Node8&#45;&gt;Node13 -->
<g id="edge24" class="edge">
<title>Node8&#45;&gt;Node13</title>
<path fill="none" stroke="#63b8ff" d="M167.22,-162.9C156.17,-162.73 144.71,-162.75 133.74,-162.95"/>
<polygon fill="#63b8ff" stroke="#63b8ff" points="166.97,-166.39 177.04,-163.1 167.12,-159.39 166.97,-166.39"/>
</g>
<!-- Node9&#45;&gt;Node5 -->
<g id="edge10" class="edge">
<title>Node9&#45;&gt;Node5</title>
<path fill="none" stroke="#63b8ff" d="M106.3,-321.75C161.77,-343.74 276.07,-383.54 377,-383.54 535,-383.54 535,-383.54 535,-383.54 634.38,-383.54 660.72,-360.56 746,-309.54 776.21,-291.46 805.1,-261.95 821.25,-243.98"/>
<polygon fill="#63b8ff" stroke="#63b8ff" points="107.68,-318.53 97.1,-318.04 105.07,-325.02 107.68,-318.53"/>
</g>
<!-- Node10&#45;&gt;Node3 -->
<g id="edge22" class="edge">
<title>Node10&#45;&gt;Node3</title>
<path fill="none" stroke="#63b8ff" d="M755.08,-178.66C847.77,-164.41 1017.54,-133.29 1103.55,-114.68"/>
<polygon fill="#63b8ff" stroke="#63b8ff" points="754.76,-175.17 745.39,-180.13 755.8,-182.09 754.76,-175.17"/>
</g>
<!-- Node10&#45;&gt;Node4 -->
<g id="edge18" class="edge">
<title>Node10&#45;&gt;Node4</title>
<path fill="none" stroke="#63b8ff" d="M754.9,-184.7C804.61,-184.04 873.53,-183.14 924.88,-182.46"/>
<polygon fill="#63b8ff" stroke="#63b8ff" points="755.12,-181.19 745.16,-184.82 755.21,-188.19 755.12,-181.19"/>
</g>
<!-- Node10&#45;&gt;Node5 -->
<g id="edge20" class="edge">
<title>Node10&#45;&gt;Node5</title>
<path fill="none" stroke="#63b8ff" d="M733.76,-204.58C748.87,-209.68 766.05,-214.92 781.88,-219.3"/>
<polygon fill="#63b8ff" stroke="#63b8ff" points="735.19,-201.37 724.6,-201.41 732.9,-207.99 735.19,-201.37"/>
</g>
<!-- Node10&#45;&gt;Node9 -->
<g id="edge19" class="edge">
<title>Node10&#45;&gt;Node9</title>
<path fill="none" stroke="#63b8ff" d="M664.76,-208.17C647.51,-222.86 623.03,-241 598,-250.54 443.65,-309.37 246.56,-313.65 143.13,-311"/>
<polygon fill="#63b8ff" stroke="#63b8ff" points="666.74,-211.08 671.95,-201.86 662.13,-205.82 666.74,-211.08"/>
</g>
<!-- Node10&#45;&gt;Node10 -->
<g id="edge21" class="edge">
<title>Node10&#45;&gt;Node10</title>
<path fill="none" stroke="#63b8ff" d="M714.55,-212.14C710.62,-215.96 702.43,-218.54 690,-218.54 667.27,-218.54 658.74,-209.94 664.42,-200.81"/>
<polygon fill="#63b8ff" stroke="#63b8ff" points="718.02,-212.59 715.44,-202.32 711.05,-211.96 718.02,-212.59"/>
</g>
<!-- Node11 -->
<g id="node11" class="node">
<title>Node11</title>
<g id="a_node11"><a xlink:href="../../d3/dc5/classxpath__ast__node.html#abf2d4b745493f63aebc1c89d9fde8eed" target="_top" xlink:title=" ">
<polygon fill="white" stroke="#666666" points="590,-193.54 478,-193.54 478,-163.54 590,-163.54 590,-193.54"/>
<text text-anchor="start" x="486" y="-181.54" font-family="Helvetica,sans-Serif" font-size="10.00">xpath_ast_node::apply</text>
<text text-anchor="middle" x="534" y="-170.54" font-family="Helvetica,sans-Serif" font-size="10.00">_predicate_number</text>
</a>
</g>
</g>
<!-- Node10&#45;&gt;Node11 -->
<g id="edge14" class="edge">
<title>Node10&#45;&gt;Node11</title>
<path fill="none" stroke="#63b8ff" d="M624.77,-182.62C613.37,-182.1 601.59,-181.56 590.46,-181.06"/>
<polygon fill="#63b8ff" stroke="#63b8ff" points="624.34,-186.1 634.49,-183.06 624.66,-179.11 624.34,-186.1"/>
</g>
<!-- Node12 -->
<g id="node12" class="node">
<title>Node12</title>
<g id="a_node12"><a xlink:href="../../d3/dc5/classxpath__ast__node.html#a8cedd7e15623b9fa431788b8843f1463" target="_top" xlink:title=" ">
<polygon fill="white" stroke="#666666" points="598,-241.54 470,-241.54 470,-211.54 598,-211.54 598,-241.54"/>
<text text-anchor="start" x="478" y="-229.54" font-family="Helvetica,sans-Serif" font-size="10.00">xpath_ast_node::apply</text>
<text text-anchor="middle" x="534" y="-218.54" font-family="Helvetica,sans-Serif" font-size="10.00">_predicate_number_const</text>
</a>
</g>
</g>
<!-- Node10&#45;&gt;Node12 -->
<g id="edge16" class="edge">
<title>Node10&#45;&gt;Node12</title>
<path fill="none" stroke="#63b8ff" d="M625.11,-202.55C614.5,-205.37 603.55,-208.28 593.1,-211.07"/>
<polygon fill="#63b8ff" stroke="#63b8ff" points="625.78,-205.99 634.54,-200.03 623.98,-199.22 625.78,-205.99"/>
</g>
<!-- Node11&#45;&gt;Node7 -->
<g id="edge15" class="edge">
<title>Node11&#45;&gt;Node7</title>
<path fill="none" stroke="#63b8ff" d="M466.71,-188.87C455.9,-190.55 444.81,-192.28 434.3,-193.92"/>
<polygon fill="#63b8ff" stroke="#63b8ff" points="467,-192.36 476.34,-187.36 465.92,-185.45 467,-192.36"/>
</g>
<!-- Node12&#45;&gt;Node7 -->
<g id="edge17" class="edge">
<title>Node12&#45;&gt;Node7</title>
<path fill="none" stroke="#63b8ff" d="M458.76,-214.97C450.54,-213.68 442.27,-212.4 434.34,-211.16"/>
<polygon fill="#63b8ff" stroke="#63b8ff" points="458,-218.39 468.42,-216.47 459.08,-211.47 458,-218.39"/>
</g>
<!-- Node13&#45;&gt;Node8 -->
<g id="edge25" class="edge">
<title>Node13&#45;&gt;Node8</title>
<path fill="none" stroke="#63b8ff" d="M144.96,-176.26C156.27,-176.34 167.78,-176.23 178.56,-175.94"/>
<polygon fill="#63b8ff" stroke="#63b8ff" points="145.3,-172.77 135.25,-176.14 145.21,-179.76 145.3,-172.77"/>
</g>
<!-- Node14&#45;&gt;Node3 -->
<g id="edge34" class="edge">
<title>Node14&#45;&gt;Node3</title>
<path fill="none" stroke="#63b8ff" d="M1038.51,-67.94C1058.33,-75.27 1082.37,-83.27 1103.56,-89.62"/>
<polygon fill="#63b8ff" stroke="#63b8ff" points="1039.98,-64.75 1029.39,-64.48 1037.5,-71.3 1039.98,-64.75"/>
</g>
<!-- Node16&#45;&gt;Node3 -->
<g id="edge37" class="edge">
<title>Node16&#45;&gt;Node3</title>
<path fill="none" stroke="#63b8ff" d="M1274.67,-133.08C1255.61,-127.74 1232.1,-121.15 1211.22,-115.3"/>
<polygon fill="#63b8ff" stroke="#63b8ff" points="1273.58,-136.41 1284.15,-135.73 1275.47,-129.67 1273.58,-136.41"/>
</g>
</g>
</svg>
