<?xml version="1.0" encoding="UTF-8" standalone="no"?>
<!DOCTYPE svg PUBLIC "-//W3C//DTD SVG 1.1//EN"
 "http://www.w3.org/Graphics/SVG/1.1/DTD/svg11.dtd">
<!-- Generated by graphviz version 8.1.0 (20230707.0739)
 -->
<!-- Title: set_value_integer Pages: 1 -->
<!--zoomable 166 -->

<svg id="main" version="1.1" xmlns="http://www.w3.org/2000/svg" xmlns:xlink="http://www.w3.org/1999/xlink" xml:space="preserve" onload="init(evt)">
<style type="text/css"><![CDATA[
.node, .edge {opacity: 0.7;}
.node.selected, .edge.selected {opacity: 1;}
.edge:hover path { stroke: red; }
.edge:hover polygon { stroke: red; fill: red; }
]]></style>

<defs>
  <circle id="rim" cx="0" cy="0" r="7"/>
  <circle id="rim2" cx="0" cy="0" r="3.5"/>
  <g id="zoomPlus">
    <use xlink:href="#rim" fill="#404040"><set attributeName="fill" to="#808080" begin="zoomplus.mouseover" end="zoomplus.mouseout"/></use>
    <path d="M-4,0h8M0,-4v8" fill="none" stroke="white" stroke-width="1.5" pointer-events="none"/>
  </g>
  <g id="zoomMin">
    <use xlink:href="#rim" fill="#404040"><set attributeName="fill" to="#808080" begin="zoomminus.mouseover" end="zoomminus.mouseout"/></use>
    <path d="M-4,0h8" fill="none" stroke="white" stroke-width="1.5" pointer-events="none"/>
  </g>
  <g id="arrowUp" transform="translate(30 24)">
    <use xlink:href="#rim"/>
    <path pointer-events="none" fill="none" stroke="white" stroke-width="1.5" d="M0,-3.0v7 M-2.5,-0.5L0,-3.0L2.5,-0.5"/>
  </g>
  <g id="arrowRight" transform="rotate(90) translate(36 -43)">
    <use xlink:href="#rim"/>
    <path pointer-events="none" fill="none" stroke="white" stroke-width="1.5" d="M0,-3.0v7 M-2.5,-0.5L0,-3.0L2.5,-0.5"/>
  </g>
  <g id="arrowDown" transform="rotate(180) translate(-30 -48)">
    <use xlink:href="#rim"/>
    <path pointer-events="none" fill="none" stroke="white" stroke-width="1.5" d="M0,-3.0v7 M-2.5,-0.5L0,-3.0L2.5,-0.5"/>
  </g>
  <g id="arrowLeft" transform="rotate(270) translate(-36 17)">
    <use xlink:href="#rim"/>
    <path pointer-events="none" fill="none" stroke="white" stroke-width="1.5" d="M0,-3.0v7 M-2.5,-0.5L0,-3.0L2.5,-0.5"/>
  </g>
  <g id="resetDef">
    <use xlink:href="#rim2" fill="#404040"><set attributeName="fill" to="#808080" begin="reset.mouseover" end="reset.mouseout"/></use>
  </g>
</defs>
<script type="application/ecmascript">
var viewWidth = 1086;
var viewHeight = 166;
var sectionId = 'dynsection-133';
</script>
<script type="application/ecmascript" xlink:href="../../svg.min.js"/>
<svg id="graph" class="graph">
<g id="viewport">
<title>set_value_integer</title>
<!-- Node1 -->
<g id="Node000001" class="node">
<title>Node1</title>
<g id="a_Node000001"><a xlink:title=" ">
<polygon fill="#999999" stroke="#666666" points="91,-99 0,-99 0,-79 91,-79 91,-99"/>
<text text-anchor="middle" x="45.5" y="-85.5" font-family="Helvetica,sans-Serif" font-size="10.00">set_value_integer</text>
</a>
</g>
</g>
<!-- Node2 -->
<g id="Node000002" class="node">
<title>Node2</title>
<g id="a_Node000002"><a xlink:href="../../db/d20/pugixml_8cpp.html#a885538db5a9e751ceb534213806e8744" target="_top" xlink:title=" ">
<polygon fill="white" stroke="#666666" points="215,-118 127,-118 127,-98 215,-98 215,-118"/>
<text text-anchor="middle" x="171" y="-104.5" font-family="Helvetica,sans-Serif" font-size="10.00">integer_to_string</text>
</a>
</g>
</g>
<!-- Node1&#45;&gt;Node2 -->
<g id="edge1_Node000001_Node000002" class="edge">
<title>Node1&#45;&gt;Node2</title>
<g id="a_edge1_Node000001_Node000002"><a xlink:title=" ">
<path fill="none" stroke="#63b8ff" d="M91.44,-95.91C99.4,-97.14 107.76,-98.42 115.94,-99.68"/>
<polygon fill="#63b8ff" stroke="#63b8ff" points="115.13,-103.25 125.54,-101.31 116.19,-96.33 115.13,-103.25"/>
</a>
</g>
</g>
<!-- Node3 -->
<g id="Node000003" class="node">
<title>Node3</title>
<g id="a_Node000003"><a xlink:href="../../db/d20/pugixml_8cpp.html#add4b0e8189d4e27898f1cf863cda4f80" target="_top" xlink:title=" ">
<polygon fill="white" stroke="#666666" points="206.75,-80 135.25,-80 135.25,-60 206.75,-60 206.75,-80"/>
<text text-anchor="middle" x="171" y="-66.5" font-family="Helvetica,sans-Serif" font-size="10.00">strcpy_insitu</text>
</a>
</g>
</g>
<!-- Node1&#45;&gt;Node3 -->
<g id="edge2_Node000001_Node000003" class="edge">
<title>Node1&#45;&gt;Node3</title>
<g id="a_edge2_Node000001_Node000003"><a xlink:title=" ">
<path fill="none" stroke="#63b8ff" d="M91.44,-82.09C102.08,-80.45 113.45,-78.7 124.14,-77.06"/>
<polygon fill="#63b8ff" stroke="#63b8ff" points="124.62,-80.37 133.97,-75.39 123.56,-73.45 124.62,-80.37"/>
</a>
</g>
</g>
<!-- Node4 -->
<g id="Node000004" class="node">
<title>Node4</title>
<g id="a_Node000004"><a xlink:href="../../d3/dae/structxml__allocator.html#a19732d75c0ba4b799d32a285fcb58027" target="_top" xlink:title=" ">
<polygon fill="white" stroke="#666666" points="369.75,-158 256.25,-158 256.25,-126 369.75,-126 369.75,-158"/>
<text text-anchor="start" x="264.25" y="-144.5" font-family="Helvetica,sans-Serif" font-size="10.00">xml_allocator::allocate</text>
<text text-anchor="middle" x="313" y="-132.5" font-family="Helvetica,sans-Serif" font-size="10.00">_string</text>
</a>
</g>
</g>
<!-- Node3&#45;&gt;Node4 -->
<g id="edge3_Node000003_Node000004" class="edge">
<title>Node3&#45;&gt;Node4</title>
<g id="a_edge3_Node000003_Node000004"><a xlink:title=" ">
<path fill="none" stroke="#63b8ff" d="M198.44,-80.46C204.04,-83.01 209.82,-85.9 215,-89 232.4,-99.4 233.46,-106.84 251,-117 253.21,-118.28 255.51,-119.53 257.85,-120.74"/>
<polygon fill="#63b8ff" stroke="#63b8ff" points="256.14,-124.29 266.66,-125.51 259.19,-117.99 256.14,-124.29"/>
</a>
</g>
</g>
<!-- Node9 -->
<g id="Node000009" class="node">
<title>Node9</title>
<g id="a_Node000009"><a xlink:href="../../d3/dae/structxml__allocator.html#af32c538db4d562c2d0bfe15f7c0aa879" target="_top" xlink:title=" ">
<polygon fill="white" stroke="#666666" points="375,-108 251,-108 251,-76 375,-76 375,-108"/>
<text text-anchor="start" x="259" y="-94.5" font-family="Helvetica,sans-Serif" font-size="10.00">xml_allocator::deallocate</text>
<text text-anchor="middle" x="313" y="-82.5" font-family="Helvetica,sans-Serif" font-size="10.00">_string</text>
</a>
</g>
</g>
<!-- Node3&#45;&gt;Node9 -->
<g id="edge8_Node000003_Node000009" class="edge">
<title>Node3&#45;&gt;Node9</title>
<g id="a_edge8_Node000003_Node000009"><a xlink:title=" ">
<path fill="none" stroke="#63b8ff" d="M206.97,-75.49C217.07,-77.08 228.49,-78.88 239.99,-80.68"/>
<polygon fill="#63b8ff" stroke="#63b8ff" points="239.1,-84.24 249.53,-82.34 240.19,-77.33 239.1,-84.24"/>
</a>
</g>
</g>
<!-- Node12 -->
<g id="Node000012" class="node">
<title>Node12</title>
<g id="a_Node000012"><a xlink:href="../../d3/dae/structxml__allocator.html#ac831a283ec3bcbe22fd3ce3be98ec347" target="_top" xlink:title=" ">
<polygon fill="white" stroke="#666666" points="368.25,-58 257.75,-58 257.75,-38 368.25,-38 368.25,-58"/>
<text text-anchor="middle" x="313" y="-44.5" font-family="Helvetica,sans-Serif" font-size="10.00">xml_allocator::reserve</text>
</a>
</g>
</g>
<!-- Node3&#45;&gt;Node12 -->
<g id="edge11_Node000003_Node000012" class="edge">
<title>Node3&#45;&gt;Node12</title>
<g id="a_edge11_Node000003_Node000012"><a xlink:title=" ">
<path fill="none" stroke="#63b8ff" d="M206.97,-64.51C218.98,-62.62 232.85,-60.44 246.49,-58.29"/>
<polygon fill="#63b8ff" stroke="#63b8ff" points="247.01,-61.6 256.34,-56.59 245.92,-54.68 247.01,-61.6"/>
</a>
</g>
</g>
<!-- Node13 -->
<g id="Node000013" class="node">
<title>Node13</title>
<g id="a_Node000013"><a xlink:href="../../db/d20/pugixml_8cpp.html#afeaebb026671399f617b36e27fa92234" target="_top" xlink:title=" ">
<polygon fill="white" stroke="#666666" points="362.25,-20 263.75,-20 263.75,0 362.25,0 362.25,-20"/>
<text text-anchor="middle" x="313" y="-6.5" font-family="Helvetica,sans-Serif" font-size="10.00">strcpy_insitu_allow</text>
</a>
</g>
</g>
<!-- Node3&#45;&gt;Node13 -->
<g id="edge12_Node000003_Node000013" class="edge">
<title>Node3&#45;&gt;Node13</title>
<g id="a_edge12_Node000003_Node000013"><a xlink:title=" ">
<path fill="none" stroke="#63b8ff" d="M189.77,-59.62C205.5,-50.72 229.28,-37.94 251,-29 255.39,-27.19 260.01,-25.46 264.67,-23.83"/>
<polygon fill="#63b8ff" stroke="#63b8ff" points="265.48,-26.91 273.85,-20.42 263.26,-20.28 265.48,-26.91"/>
</a>
</g>
</g>
<!-- Node5 -->
<g id="Node000005" class="node">
<title>Node5</title>
<g id="a_Node000005"><a xlink:href="../../d3/dae/structxml__allocator.html#a02a8725611785568ceae7a0eea3eca76" target="_top" xlink:title=" ">
<polygon fill="white" stroke="#666666" points="529.75,-158 416.25,-158 416.25,-126 529.75,-126 529.75,-158"/>
<text text-anchor="start" x="424.25" y="-144.5" font-family="Helvetica,sans-Serif" font-size="10.00">xml_allocator::allocate</text>
<text text-anchor="middle" x="473" y="-132.5" font-family="Helvetica,sans-Serif" font-size="10.00">_memory</text>
</a>
</g>
</g>
<!-- Node4&#45;&gt;Node5 -->
<g id="edge4_Node000004_Node000005" class="edge">
<title>Node4&#45;&gt;Node5</title>
<g id="a_edge4_Node000004_Node000005"><a xlink:title=" ">
<path fill="none" stroke="#63b8ff" d="M370.15,-142C381.38,-142 393.27,-142 404.83,-142"/>
<polygon fill="#63b8ff" stroke="#63b8ff" points="404.77,-145.5 414.77,-142 404.76,-138.5 404.77,-145.5"/>
</a>
</g>
</g>
<!-- Node6 -->
<g id="Node000006" class="node">
<title>Node6</title>
<g id="a_Node000006"><a xlink:href="../../d3/dae/structxml__allocator.html#a30bb557bc040de54c041c6d3dca6772e" target="_top" xlink:title=" ">
<polygon fill="white" stroke="#666666" points="702.88,-158 589.38,-158 589.38,-126 702.88,-126 702.88,-158"/>
<text text-anchor="start" x="597.38" y="-144.5" font-family="Helvetica,sans-Serif" font-size="10.00">xml_allocator::allocate</text>
<text text-anchor="middle" x="646.12" y="-132.5" font-family="Helvetica,sans-Serif" font-size="10.00">_memory_oob</text>
</a>
</g>
</g>
<!-- Node5&#45;&gt;Node6 -->
<g id="edge5_Node000005_Node000006" class="edge">
<title>Node5&#45;&gt;Node6</title>
<g id="a_edge5_Node000005_Node000006"><a xlink:title=" ">
<path fill="none" stroke="#63b8ff" d="M530.03,-142C545.4,-142 562.21,-142 578.12,-142"/>
<polygon fill="#63b8ff" stroke="#63b8ff" points="577.97,-145.5 587.97,-142 577.97,-138.5 577.97,-145.5"/>
</a>
</g>
</g>
<!-- Node7 -->
<g id="Node000007" class="node">
<title>Node7</title>
<g id="a_Node000007"><a xlink:href="../../d3/dae/structxml__allocator.html#ad07a6aa6876c8c5a5536d409c01d88e5" target="_top" xlink:title=" ">
<polygon fill="white" stroke="#666666" points="897,-152 757.25,-152 757.25,-132 897,-132 897,-152"/>
<text text-anchor="middle" x="827.12" y="-138.5" font-family="Helvetica,sans-Serif" font-size="10.00">xml_allocator::allocate_page</text>
</a>
</g>
</g>
<!-- Node6&#45;&gt;Node7 -->
<g id="edge6_Node000006_Node000007" class="edge">
<title>Node6&#45;&gt;Node7</title>
<g id="a_edge6_Node000006_Node000007"><a xlink:title=" ">
<path fill="none" stroke="#63b8ff" d="M703.27,-142C716.83,-142 731.59,-142 746.01,-142"/>
<polygon fill="#63b8ff" stroke="#63b8ff" points="745.96,-145.5 755.96,-142 745.96,-138.5 745.96,-145.5"/>
</a>
</g>
</g>
<!-- Node8 -->
<g id="Node000008" class="node">
<title>Node8</title>
<g id="a_Node000008"><a xlink:href="../../d7/dd1/structxml__memory__page.html#a071bb9cc9aeccef1655c1336b16472a5" target="_top" xlink:title=" ">
<polygon fill="white" stroke="#666666" points="1078,-152 933,-152 933,-132 1078,-132 1078,-152"/>
<text text-anchor="middle" x="1005.5" y="-138.5" font-family="Helvetica,sans-Serif" font-size="10.00">xml_memory_page::construct</text>
</a>
</g>
</g>
<!-- Node7&#45;&gt;Node8 -->
<g id="edge7_Node000007_Node000008" class="edge">
<title>Node7&#45;&gt;Node8</title>
<g id="a_edge7_Node000007_Node000008"><a xlink:title=" ">
<path fill="none" stroke="#63b8ff" d="M897.33,-142C905.38,-142 913.65,-142 921.86,-142"/>
<polygon fill="#63b8ff" stroke="#63b8ff" points="921.59,-145.5 931.59,-142 921.59,-138.5 921.59,-145.5"/>
</a>
</g>
</g>
<!-- Node10 -->
<g id="Node000010" class="node">
<title>Node10</title>
<g id="a_Node000010"><a xlink:href="../../d3/dae/structxml__allocator.html#a5df417155487cce4e0460b123ac33dc6" target="_top" xlink:title=" ">
<polygon fill="white" stroke="#666666" points="535,-108 411,-108 411,-76 535,-76 535,-108"/>
<text text-anchor="start" x="419" y="-94.5" font-family="Helvetica,sans-Serif" font-size="10.00">xml_allocator::deallocate</text>
<text text-anchor="middle" x="473" y="-82.5" font-family="Helvetica,sans-Serif" font-size="10.00">_memory</text>
</a>
</g>
</g>
<!-- Node9&#45;&gt;Node10 -->
<g id="edge9_Node000009_Node000010" class="edge">
<title>Node9&#45;&gt;Node10</title>
<g id="a_edge9_Node000009_Node000010"><a xlink:title=" ">
<path fill="none" stroke="#63b8ff" d="M375.09,-92C383.18,-92 391.53,-92 399.79,-92"/>
<polygon fill="#63b8ff" stroke="#63b8ff" points="399.55,-95.5 409.55,-92 399.55,-88.5 399.55,-95.5"/>
</a>
</g>
</g>
<!-- Node11 -->
<g id="Node000011" class="node">
<title>Node11</title>
<g id="a_Node000011"><a xlink:href="../../d3/dae/structxml__allocator.html#a1c6bfe15a257a094f55659f8d71c209e" target="_top" xlink:title=" ">
<polygon fill="white" stroke="#666666" points="721.25,-102 571,-102 571,-82 721.25,-82 721.25,-102"/>
<text text-anchor="middle" x="646.12" y="-88.5" font-family="Helvetica,sans-Serif" font-size="10.00">xml_allocator::deallocate_page</text>
</a>
</g>
</g>
<!-- Node10&#45;&gt;Node11 -->
<g id="edge10_Node000010_Node000011" class="edge">
<title>Node10&#45;&gt;Node11</title>
<g id="a_edge10_Node000010_Node000011"><a xlink:title=" ">
<path fill="none" stroke="#63b8ff" d="M535.3,-92C543.23,-92 551.47,-92 559.71,-92"/>
<polygon fill="#63b8ff" stroke="#63b8ff" points="559.51,-95.5 569.51,-92 559.51,-88.5 559.51,-95.5"/>
</a>
</g>
</g>
<!-- Node14 -->
<g id="Node000014" class="node">
<title>Node14</title>
<g id="a_Node000014"><a xlink:href="../../db/d20/pugixml_8cpp.html#aab9e1f034d085b663d146fcceabb1c48" target="_top" xlink:title=" ">
<polygon fill="white" stroke="#666666" points="499.75,-20 446.25,-20 446.25,0 499.75,0 499.75,-20"/>
<text text-anchor="middle" x="473" y="-6.5" font-family="Helvetica,sans-Serif" font-size="10.00">strlength</text>
</a>
</g>
</g>
<!-- Node13&#45;&gt;Node14 -->
<g id="edge13_Node000013_Node000014" class="edge">
<title>Node13&#45;&gt;Node14</title>
<g id="a_edge13_Node000013_Node000014"><a xlink:title=" ">
<path fill="none" stroke="#63b8ff" d="M362.69,-10C386.17,-10 413.85,-10 435.48,-10"/>
<polygon fill="#63b8ff" stroke="#63b8ff" points="435.19,-13.5 445.19,-10 435.19,-6.5 435.19,-13.5"/>
</a>
</g>
</g>
</g>
</svg>

<g id="navigator" transform="translate(0 0)" fill="#404254">
  <rect fill="#f2f5e9" fill-opacity="0.5" stroke="#606060" stroke-width=".5" x="0" y="0" width="60" height="60"/>
  <use id="zoomplus" xlink:href="#zoomPlus" x="17" y="9" onmousedown="handleZoom(evt,'in')"/>
  <use id="zoomminus" xlink:href="#zoomMin" x="42" y="9" onmousedown="handleZoom(evt,'out')"/>
  <use id="reset" xlink:href="#resetDef" x="30" y="36" onmousedown="handleReset()"/>
   <use id="arrowup" xlink:href="#arrowUp" x="0" y="0" onmousedown="handlePan(0,-1)"/>
  <use id="arrowright" xlink:href="#arrowRight" x="0" y="0" onmousedown="handlePan(1,0)"/>
  <use id="arrowdown" xlink:href="#arrowDown" x="0" y="0" onmousedown="handlePan(0,1)"/>
  <use id="arrowleft" xlink:href="#arrowLeft" x="0" y="0" onmousedown="handlePan(-1,0)"/>
</g>
<svg viewBox="0 0 15 15" width="100%" height="30px" preserveAspectRatio="xMaxYMin meet">
 <g id="arrow_out" transform="scale(0.3 0.3)">
  <a xlink:href="pugixml_8cpp_a237750ca33ed3f13b1c3f80d0aadc93e_cgraph_org.svg" target="_base">
   <rect id="button" ry="5" rx="5" y="6" x="6" height="38" width="38"
        fill="#f2f5e9" fill-opacity="0.5" stroke="#606060" stroke-width="1.0"/>
   <path id="arrow"
     d="M 11.500037,31.436501 C 11.940474,20.09759 22.043105,11.32322 32.158766,21.979434 L 37.068811,17.246167 C 37.068811,17.246167 37.088388,32 37.088388,32 L 22.160133,31.978069 C 22.160133,31.978069 26.997745,27.140456 26.997745,27.140456 C 18.528582,18.264221 13.291696,25.230495 11.500037,31.436501 z"
     style="fill:#404040;"/>
  </a>
 </g>
</svg>

<style type='text/css'>
<![CDATA[
[data-mouse-over-selected='false'] { opacity: 0.7; }
[data-mouse-over-selected='true']  { opacity: 1.0; }
]]>
</style>
<script type="application/ecmascript"><![CDATA[
document.addEventListener('DOMContentLoaded', (event) => {
  highlightEdges();
  highlightAdjacentNodes();
});
]]></script>
</svg>
