<?xml version="1.0" encoding="UTF-8" standalone="no"?>
<!DOCTYPE svg PUBLIC "-//W3C//DTD SVG 1.1//EN"
 "http://www.w3.org/Graphics/SVG/1.1/DTD/svg11.dtd">
<!-- Generated by graphviz version 8.1.0 (20230707.0739)
 -->
<!-- Title: destroy_attribute Pages: 1 -->
<svg width="207pt" height="46pt"
 viewBox="0.00 0.00 207.25 46.00" xmlns="http://www.w3.org/2000/svg" xmlns:xlink="http://www.w3.org/1999/xlink">
<g id="graph0" class="graph" transform="scale(1 1) rotate(0) translate(4 42)">
<title>destroy_attribute</title>
<!-- Node1 -->
<g id="Node000001" class="node">
<title>Node1</title>
<g id="a_Node000001"><a xlink:title=" ">
<polygon fill="#999999" stroke="#666666" points="199.25,-20 110.5,-20 110.5,0 199.25,0 199.25,-20"/>
<text text-anchor="middle" x="154.88" y="-6.5" font-family="Helvetica,sans-Serif" font-size="10.00">destroy_attribute</text>
</a>
</g>
</g>
<!-- Node2 -->
<g id="Node000002" class="node">
<title>Node2</title>
<g id="a_Node000002"><a xlink:href="../../db/d20/pugixml_8cpp.html#a00ae2c226db329ac858206e646251867" target="_top" xlink:title=" ">
<polygon fill="white" stroke="#666666" points="74.5,-20 0,-20 0,0 74.5,0 74.5,-20"/>
<text text-anchor="middle" x="37.25" y="-6.5" font-family="Helvetica,sans-Serif" font-size="10.00">destroy_node</text>
</a>
</g>
</g>
<!-- Node1&#45;&gt;Node2 -->
<g id="edge1_Node000001_Node000002" class="edge">
<title>Node1&#45;&gt;Node2</title>
<g id="a_edge1_Node000001_Node000002"><a xlink:title=" ">
<path fill="none" stroke="#63b8ff" d="M99.36,-10C91.05,-10 82.65,-10 74.86,-10"/>
<polygon fill="#63b8ff" stroke="#63b8ff" points="99.16,-13.5 109.16,-10 99.16,-6.5 99.16,-13.5"/>
</a>
</g>
</g>
<!-- Node2&#45;&gt;Node2 -->
<g id="edge2_Node000002_Node000002" class="edge">
<title>Node2&#45;&gt;Node2</title>
<g id="a_edge2_Node000002_Node000002"><a xlink:title=" ">
<path fill="none" stroke="#63b8ff" d="M58.46,-30.77C56.14,-34.98 49.07,-38 37.25,-38 16.8,-38 10.57,-28.98 18.56,-20.34"/>
<polygon fill="#63b8ff" stroke="#63b8ff" points="61.69,-30.24 55.94,-21.34 54.88,-31.88 61.69,-30.24"/>
</a>
</g>
</g>
</g>
</svg>
