<?xml version="1.0" encoding="UTF-8" standalone="no"?>
<!DOCTYPE svg PUBLIC "-//W3C//DTD SVG 1.1//EN"
 "http://www.w3.org/Graphics/SVG/1.1/DTD/svg11.dtd">
<!-- Generated by graphviz version 8.1.0 (20230707.0739)
 -->
<!-- Title: node_output_pi_value Pages: 1 -->
<!--zoomable 137 -->

<svg id="main" version="1.1" xmlns="http://www.w3.org/2000/svg" xmlns:xlink="http://www.w3.org/1999/xlink" xml:space="preserve" onload="init(evt)">
<style type="text/css"><![CDATA[
.node, .edge {opacity: 0.7;}
.node.selected, .edge.selected {opacity: 1;}
.edge:hover path { stroke: red; }
.edge:hover polygon { stroke: red; fill: red; }
]]></style>

<defs>
  <circle id="rim" cx="0" cy="0" r="7"/>
  <circle id="rim2" cx="0" cy="0" r="3.5"/>
  <g id="zoomPlus">
    <use xlink:href="#rim" fill="#404040"><set attributeName="fill" to="#808080" begin="zoomplus.mouseover" end="zoomplus.mouseout"/></use>
    <path d="M-4,0h8M0,-4v8" fill="none" stroke="white" stroke-width="1.5" pointer-events="none"/>
  </g>
  <g id="zoomMin">
    <use xlink:href="#rim" fill="#404040"><set attributeName="fill" to="#808080" begin="zoomminus.mouseover" end="zoomminus.mouseout"/></use>
    <path d="M-4,0h8" fill="none" stroke="white" stroke-width="1.5" pointer-events="none"/>
  </g>
  <g id="arrowUp" transform="translate(30 24)">
    <use xlink:href="#rim"/>
    <path pointer-events="none" fill="none" stroke="white" stroke-width="1.5" d="M0,-3.0v7 M-2.5,-0.5L0,-3.0L2.5,-0.5"/>
  </g>
  <g id="arrowRight" transform="rotate(90) translate(36 -43)">
    <use xlink:href="#rim"/>
    <path pointer-events="none" fill="none" stroke="white" stroke-width="1.5" d="M0,-3.0v7 M-2.5,-0.5L0,-3.0L2.5,-0.5"/>
  </g>
  <g id="arrowDown" transform="rotate(180) translate(-30 -48)">
    <use xlink:href="#rim"/>
    <path pointer-events="none" fill="none" stroke="white" stroke-width="1.5" d="M0,-3.0v7 M-2.5,-0.5L0,-3.0L2.5,-0.5"/>
  </g>
  <g id="arrowLeft" transform="rotate(270) translate(-36 17)">
    <use xlink:href="#rim"/>
    <path pointer-events="none" fill="none" stroke="white" stroke-width="1.5" d="M0,-3.0v7 M-2.5,-0.5L0,-3.0L2.5,-0.5"/>
  </g>
  <g id="resetDef">
    <use xlink:href="#rim2" fill="#404040"><set attributeName="fill" to="#808080" begin="reset.mouseover" end="reset.mouseout"/></use>
  </g>
</defs>
<script type="application/ecmascript">
var viewWidth = 810;
var viewHeight = 137;
var sectionId = 'dynsection-112';
</script>
<script type="application/ecmascript" xlink:href="../../svg.min.js"/>
<svg id="graph" class="graph">
<g id="viewport">
<title>node_output_pi_value</title>
<!-- Node1 -->
<g id="Node000001" class="node">
<title>Node1</title>
<g id="a_Node000001"><a xlink:title=" ">
<polygon fill="#999999" stroke="#666666" points="109,-81 0,-81 0,-61 109,-61 109,-81"/>
<text text-anchor="middle" x="54.5" y="-67.5" font-family="Helvetica,sans-Serif" font-size="10.00">node_output_pi_value</text>
</a>
</g>
</g>
<!-- Node2 -->
<g id="Node000002" class="node">
<title>Node2</title>
<g id="a_Node000002"><a xlink:href="../../db/dd3/classxml__buffered__writer.html#a1aa829bd551a69dd9005d2d46063308f" target="_top" xlink:title=" ">
<polygon fill="white" stroke="#666666" points="379.5,-112 280.25,-112 280.25,-80 379.5,-80 379.5,-112"/>
<text text-anchor="start" x="288.25" y="-98.5" font-family="Helvetica,sans-Serif" font-size="10.00">xml_buffered_writer</text>
<text text-anchor="middle" x="329.88" y="-86.5" font-family="Helvetica,sans-Serif" font-size="10.00">::write</text>
</a>
</g>
</g>
<!-- Node1&#45;&gt;Node2 -->
<g id="edge1_Node000001_Node000002" class="edge">
<title>Node1&#45;&gt;Node2</title>
<g id="a_edge1_Node000001_Node000002"><a xlink:title=" ">
<path fill="none" stroke="#63b8ff" d="M109.18,-75.91C155.2,-80.12 221.42,-86.17 269.11,-90.53"/>
<polygon fill="#63b8ff" stroke="#63b8ff" points="268.63,-94.1 278.9,-91.52 269.26,-87.13 268.63,-94.1"/>
</a>
</g>
</g>
<!-- Node4 -->
<g id="Node000004" class="node">
<title>Node4</title>
<g id="a_Node000004"><a xlink:href="../../db/dd3/classxml__buffered__writer.html#ae62b84beff660555acb76e277f967c0d" target="_top" xlink:title=" ">
<polygon fill="white" stroke="#666666" points="244.25,-65 145,-65 145,-33 244.25,-33 244.25,-65"/>
<text text-anchor="start" x="153" y="-51.5" font-family="Helvetica,sans-Serif" font-size="10.00">xml_buffered_writer</text>
<text text-anchor="middle" x="194.62" y="-39.5" font-family="Helvetica,sans-Serif" font-size="10.00">::write_buffer</text>
</a>
</g>
</g>
<!-- Node1&#45;&gt;Node4 -->
<g id="edge4_Node000001_Node000004" class="edge">
<title>Node1&#45;&gt;Node4</title>
<g id="a_edge4_Node000001_Node000004"><a xlink:title=" ">
<path fill="none" stroke="#63b8ff" d="M109.3,-62.43C117.41,-61.14 125.82,-59.8 134.04,-58.49"/>
<polygon fill="#63b8ff" stroke="#63b8ff" points="134.38,-61.82 143.71,-56.79 133.28,-54.91 134.38,-61.82"/>
</a>
</g>
</g>
<!-- Node3 -->
<g id="Node000003" class="node">
<title>Node3</title>
<g id="a_Node000003"><a xlink:href="../../db/dd3/classxml__buffered__writer.html#a4789b8661f9ff4e5e4bb4226f7d45997" target="_top" xlink:title=" ">
<polygon fill="white" stroke="#666666" points="529.75,-111 430.5,-111 430.5,-79 529.75,-79 529.75,-111"/>
<text text-anchor="start" x="438.5" y="-97.5" font-family="Helvetica,sans-Serif" font-size="10.00">xml_buffered_writer</text>
<text text-anchor="middle" x="480.12" y="-85.5" font-family="Helvetica,sans-Serif" font-size="10.00">::flush</text>
</a>
</g>
</g>
<!-- Node2&#45;&gt;Node3 -->
<g id="edge2_Node000002_Node000003" class="edge">
<title>Node2&#45;&gt;Node3</title>
<g id="a_edge2_Node000002_Node000003"><a xlink:title=" ">
<path fill="none" stroke="#63b8ff" d="M379.83,-95.67C392.48,-95.58 406.24,-95.49 419.38,-95.4"/>
<polygon fill="#63b8ff" stroke="#63b8ff" points="419.25,-98.9 429.22,-95.33 419.2,-91.9 419.25,-98.9"/>
</a>
</g>
</g>
<!-- Node3&#45;&gt;Node3 -->
<g id="edge3_Node000003_Node000003" class="edge">
<title>Node3&#45;&gt;Node3</title>
<g id="a_edge3_Node000003_Node000003"><a xlink:title=" ">
<path fill="none" stroke="#63b8ff" d="M453.3,-111.44C448.29,-120.58 457.24,-129 480.12,-129 493.36,-129 501.93,-126.19 505.84,-122.05"/>
<polygon fill="#63b8ff" stroke="#63b8ff" points="509.39,-122.75 506.95,-112.44 502.43,-122.02 509.39,-122.75"/>
</a>
</g>
</g>
<!-- Node5 -->
<g id="Node000005" class="node">
<title>Node5</title>
<g id="a_Node000005"><a xlink:href="../../db/dd3/classxml__buffered__writer.html#a119f9db2f60e578e69ac81177e932fb3" target="_top" xlink:title=" ">
<polygon fill="white" stroke="#666666" points="379.5,-62 280.25,-62 280.25,-30 379.5,-30 379.5,-62"/>
<text text-anchor="start" x="288.25" y="-48.5" font-family="Helvetica,sans-Serif" font-size="10.00">xml_buffered_writer</text>
<text text-anchor="middle" x="329.88" y="-36.5" font-family="Helvetica,sans-Serif" font-size="10.00">::write_direct</text>
</a>
</g>
</g>
<!-- Node4&#45;&gt;Node5 -->
<g id="edge5_Node000004_Node000005" class="edge">
<title>Node4&#45;&gt;Node5</title>
<g id="a_edge5_Node000004_Node000005"><a xlink:title=" ">
<path fill="none" stroke="#63b8ff" d="M244.49,-47.9C252.54,-47.72 260.97,-47.53 269.26,-47.34"/>
<polygon fill="#63b8ff" stroke="#63b8ff" points="269.1,-50.82 279.02,-47.1 268.94,-43.83 269.1,-50.82"/>
</a>
</g>
</g>
<!-- Node5&#45;&gt;Node3 -->
<g id="edge6_Node000005_Node000003" class="edge">
<title>Node5&#45;&gt;Node3</title>
<g id="a_edge6_Node000005_Node000003"><a xlink:title=" ">
<path fill="none" stroke="#63b8ff" d="M379.83,-62.18C392.73,-66.45 406.79,-71.09 420.16,-75.51"/>
<polygon fill="#63b8ff" stroke="#63b8ff" points="418.63,-79.02 429.22,-78.84 420.83,-72.38 418.63,-79.02"/>
</a>
</g>
</g>
<!-- Node6 -->
<g id="Node000006" class="node">
<title>Node6</title>
<g id="a_Node000006"><a xlink:href="../../db/d20/pugixml_8cpp.html#a5dfd2dce8fc6dd9268a19ed553884234" target="_top" xlink:title=" ">
<polygon fill="white" stroke="#666666" points="522.62,-58 437.62,-58 437.62,-38 522.62,-38 522.62,-58"/>
<text text-anchor="middle" x="480.12" y="-44.5" font-family="Helvetica,sans-Serif" font-size="10.00">get_valid_length</text>
</a>
</g>
</g>
<!-- Node5&#45;&gt;Node6 -->
<g id="edge7_Node000005_Node000006" class="edge">
<title>Node5&#45;&gt;Node6</title>
<g id="a_edge7_Node000005_Node000006"><a xlink:title=" ">
<path fill="none" stroke="#63b8ff" d="M379.83,-46.66C394.76,-46.86 411.24,-47.08 426.4,-47.29"/>
<polygon fill="#63b8ff" stroke="#63b8ff" points="426.13,-50.8 436.18,-47.43 426.23,-43.8 426.13,-50.8"/>
</a>
</g>
</g>
<!-- Node7 -->
<g id="Node000007" class="node">
<title>Node7</title>
<g id="a_Node000007"><a xlink:href="../../db/d20/pugixml_8cpp.html#a12b9d6cff4d37c68755263d0687c62b1" target="_top" xlink:title=" ">
<polygon fill="white" stroke="#666666" points="544.75,-20 415.5,-20 415.5,0 544.75,0 544.75,-20"/>
<text text-anchor="middle" x="480.12" y="-6.5" font-family="Helvetica,sans-Serif" font-size="10.00">get_write_native_encoding</text>
</a>
</g>
</g>
<!-- Node5&#45;&gt;Node7 -->
<g id="edge8_Node000005_Node000007" class="edge">
<title>Node5&#45;&gt;Node7</title>
<g id="a_edge8_Node000005_Node000007"><a xlink:title=" ">
<path fill="none" stroke="#63b8ff" d="M379.83,-34.11C394.49,-30.55 410.64,-26.63 425.58,-23"/>
<polygon fill="#63b8ff" stroke="#63b8ff" points="426.31,-26.18 435.2,-20.42 424.66,-19.38 426.31,-26.18"/>
</a>
</g>
</g>
<!-- Node8 -->
<g id="Node000008" class="node">
<title>Node8</title>
<g id="a_Node000008"><a xlink:href="../../db/d20/pugixml_8cpp.html#a1d386e9425e75d35b01373e46f186b9c" target="_top" xlink:title=" ">
<polygon fill="white" stroke="#666666" points="685.25,-20 580.75,-20 580.75,0 685.25,0 685.25,-20"/>
<text text-anchor="middle" x="633" y="-6.5" font-family="Helvetica,sans-Serif" font-size="10.00">get_wchar_encoding</text>
</a>
</g>
</g>
<!-- Node7&#45;&gt;Node8 -->
<g id="edge9_Node000007_Node000008" class="edge">
<title>Node7&#45;&gt;Node8</title>
<g id="a_edge9_Node000007_Node000008"><a xlink:title=" ">
<path fill="none" stroke="#63b8ff" d="M545.11,-10C553.17,-10 561.41,-10 569.45,-10"/>
<polygon fill="#63b8ff" stroke="#63b8ff" points="569.25,-13.5 579.25,-10 569.25,-6.5 569.25,-13.5"/>
</a>
</g>
</g>
<!-- Node9 -->
<g id="Node000009" class="node">
<title>Node9</title>
<g id="a_Node000009"><a xlink:href="../../db/d20/pugixml_8cpp.html#a282e2854710450f313ea03bb59a8f681" target="_top" xlink:title=" ">
<polygon fill="white" stroke="#666666" points="801.75,-20 721.25,-20 721.25,0 801.75,0 801.75,-20"/>
<text text-anchor="middle" x="761.5" y="-6.5" font-family="Helvetica,sans-Serif" font-size="10.00">is_little_endian</text>
</a>
</g>
</g>
<!-- Node8&#45;&gt;Node9 -->
<g id="edge10_Node000008_Node000009" class="edge">
<title>Node8&#45;&gt;Node9</title>
<g id="a_edge10_Node000008_Node000009"><a xlink:title=" ">
<path fill="none" stroke="#63b8ff" d="M685.45,-10C693.64,-10 702.09,-10 710.25,-10"/>
<polygon fill="#63b8ff" stroke="#63b8ff" points="710.12,-13.5 720.12,-10 710.12,-6.5 710.12,-13.5"/>
</a>
</g>
</g>
</g>
</svg>

<g id="navigator" transform="translate(0 0)" fill="#404254">
  <rect fill="#f2f5e9" fill-opacity="0.5" stroke="#606060" stroke-width=".5" x="0" y="0" width="60" height="60"/>
  <use id="zoomplus" xlink:href="#zoomPlus" x="17" y="9" onmousedown="handleZoom(evt,'in')"/>
  <use id="zoomminus" xlink:href="#zoomMin" x="42" y="9" onmousedown="handleZoom(evt,'out')"/>
  <use id="reset" xlink:href="#resetDef" x="30" y="36" onmousedown="handleReset()"/>
   <use id="arrowup" xlink:href="#arrowUp" x="0" y="0" onmousedown="handlePan(0,-1)"/>
  <use id="arrowright" xlink:href="#arrowRight" x="0" y="0" onmousedown="handlePan(1,0)"/>
  <use id="arrowdown" xlink:href="#arrowDown" x="0" y="0" onmousedown="handlePan(0,1)"/>
  <use id="arrowleft" xlink:href="#arrowLeft" x="0" y="0" onmousedown="handlePan(-1,0)"/>
</g>
<svg viewBox="0 0 15 15" width="100%" height="30px" preserveAspectRatio="xMaxYMin meet">
 <g id="arrow_out" transform="scale(0.3 0.3)">
  <a xlink:href="pugixml_8cpp_a4738723860e1782016479760528efd62_cgraph_org.svg" target="_base">
   <rect id="button" ry="5" rx="5" y="6" x="6" height="38" width="38"
        fill="#f2f5e9" fill-opacity="0.5" stroke="#606060" stroke-width="1.0"/>
   <path id="arrow"
     d="M 11.500037,31.436501 C 11.940474,20.09759 22.043105,11.32322 32.158766,21.979434 L 37.068811,17.246167 C 37.068811,17.246167 37.088388,32 37.088388,32 L 22.160133,31.978069 C 22.160133,31.978069 26.997745,27.140456 26.997745,27.140456 C 18.528582,18.264221 13.291696,25.230495 11.500037,31.436501 z"
     style="fill:#404040;"/>
  </a>
 </g>
</svg>

<style type='text/css'>
<![CDATA[
[data-mouse-over-selected='false'] { opacity: 0.7; }
[data-mouse-over-selected='true']  { opacity: 1.0; }
]]>
</style>
<script type="application/ecmascript"><![CDATA[
document.addEventListener('DOMContentLoaded', (event) => {
  highlightEdges();
  highlightAdjacentNodes();
});
]]></script>
</svg>
