<?xml version="1.0" encoding="UTF-8" standalone="no"?>
<!DOCTYPE svg PUBLIC "-//W3C//DTD SVG 1.1//EN"
 "http://www.w3.org/Graphics/SVG/1.1/DTD/svg11.dtd">
<!-- Generated by graphviz version 8.1.0 (20230707.0739)
 -->
<!-- Title: xpath_sort Pages: 1 -->
<svg width="377pt" height="137pt"
 viewBox="0.00 0.00 376.50 137.00" xmlns="http://www.w3.org/2000/svg" xmlns:xlink="http://www.w3.org/1999/xlink">
<g id="graph0" class="graph" transform="scale(1 1) rotate(0) translate(4 133)">
<title>xpath_sort</title>
<!-- Node1 -->
<g id="Node000001" class="node">
<title>Node1</title>
<g id="a_Node000001"><a xlink:title=" ">
<polygon fill="#999999" stroke="#666666" points="61.75,-68 0,-68 0,-48 61.75,-48 61.75,-68"/>
<text text-anchor="middle" x="30.88" y="-54.5" font-family="Helvetica,sans-Serif" font-size="10.00">xpath_sort</text>
</a>
</g>
</g>
<!-- Node2 -->
<g id="Node000002" class="node">
<title>Node2</title>
<g id="a_Node000002"><a xlink:href="../../db/d20/pugixml_8cpp.html#a7a6eedef949e55be650bd6d2df60d68d" target="_top" xlink:title=" ">
<polygon fill="white" stroke="#666666" points="164,-129 117.25,-129 117.25,-109 164,-109 164,-129"/>
<text text-anchor="middle" x="140.62" y="-115.5" font-family="Helvetica,sans-Serif" font-size="10.00">reverse</text>
</a>
</g>
</g>
<!-- Node1&#45;&gt;Node2 -->
<g id="edge1_Node000001_Node000002" class="edge">
<title>Node1&#45;&gt;Node2</title>
<g id="a_edge1_Node000001_Node000002"><a xlink:title=" ">
<path fill="none" stroke="#63b8ff" d="M50.15,-68.35C67.03,-77.9 92.33,-92.23 111.73,-103.21"/>
<polygon fill="#63b8ff" stroke="#63b8ff" points="109.83,-106.72 120.26,-108.6 113.28,-100.63 109.83,-106.72"/>
</a>
</g>
</g>
<!-- Node4 -->
<g id="Node000004" class="node">
<title>Node4</title>
<g id="a_Node000004"><a xlink:href="../../db/d20/pugixml_8cpp.html#a422d054a9e9fa1f5546a8365cd1d757b" target="_top" xlink:title=" ">
<polygon fill="white" stroke="#666666" points="156.88,-68 124.38,-68 124.38,-48 156.88,-48 156.88,-68"/>
<text text-anchor="middle" x="140.62" y="-54.5" font-family="Helvetica,sans-Serif" font-size="10.00">sort</text>
</a>
</g>
</g>
<!-- Node1&#45;&gt;Node4 -->
<g id="edge3_Node000001_Node000004" class="edge">
<title>Node1&#45;&gt;Node4</title>
<g id="a_edge3_Node000001_Node000004"><a xlink:title=" ">
<path fill="none" stroke="#63b8ff" d="M62.18,-58C78.25,-58 97.8,-58 113.25,-58"/>
<polygon fill="#63b8ff" stroke="#63b8ff" points="113.12,-61.5 123.12,-58 113.12,-54.5 113.12,-61.5"/>
</a>
</g>
</g>
<!-- Node8 -->
<g id="Node000008" class="node">
<title>Node8</title>
<g id="a_Node000008"><a xlink:href="../../db/d20/pugixml_8cpp.html#a4dc17470128c683ab38d7c7d1d5cdf29" target="_top" xlink:title=" ">
<polygon fill="white" stroke="#666666" points="183.5,-30 97.75,-30 97.75,-10 183.5,-10 183.5,-30"/>
<text text-anchor="middle" x="140.62" y="-16.5" font-family="Helvetica,sans-Serif" font-size="10.00">xpath_get_order</text>
</a>
</g>
</g>
<!-- Node1&#45;&gt;Node8 -->
<g id="edge10_Node000001_Node000008" class="edge">
<title>Node1&#45;&gt;Node8</title>
<g id="a_edge10_Node000001_Node000008"><a xlink:title=" ">
<path fill="none" stroke="#63b8ff" d="M61.6,-47.52C73.38,-43.36 87.1,-38.52 99.72,-34.07"/>
<polygon fill="#63b8ff" stroke="#63b8ff" points="100.73,-37.08 108.99,-30.45 98.4,-30.48 100.73,-37.08"/>
</a>
</g>
</g>
<!-- Node3 -->
<g id="Node000003" class="node">
<title>Node3</title>
<g id="a_Node000003"><a xlink:href="../../db/d20/pugixml_8cpp.html#aab8f818e90a34b18c1da140588eca88d" target="_top" xlink:title=" ">
<polygon fill="white" stroke="#666666" points="368.5,-58 330,-58 330,-38 368.5,-38 368.5,-58"/>
<text text-anchor="middle" x="349.25" y="-44.5" font-family="Helvetica,sans-Serif" font-size="10.00">swap</text>
</a>
</g>
</g>
<!-- Node2&#45;&gt;Node3 -->
<g id="edge2_Node000002_Node000003" class="edge">
<title>Node2&#45;&gt;Node3</title>
<g id="a_edge2_Node000002_Node000003"><a xlink:title=" ">
<path fill="none" stroke="#63b8ff" d="M164.37,-121.7C195.36,-124.34 251.8,-125.43 294,-105 311.41,-96.57 326.16,-80.02 335.87,-66.92"/>
<polygon fill="#63b8ff" stroke="#63b8ff" points="339.14,-69.35 342.01,-59.15 333.4,-65.33 339.14,-69.35"/>
</a>
</g>
</g>
<!-- Node4&#45;&gt;Node4 -->
<g id="edge9_Node000004_Node000004" class="edge">
<title>Node4&#45;&gt;Node4</title>
<g id="a_edge9_Node000004_Node000004"><a xlink:title=" ">
<path fill="none" stroke="#63b8ff" d="M123.99,-67.47C115.36,-76.36 120.9,-86 140.62,-86 152.64,-86 159.4,-82.42 160.89,-77.61"/>
<polygon fill="#63b8ff" stroke="#63b8ff" points="163.92,-76.71 157.26,-68.47 157.33,-79.06 163.92,-76.71"/>
</a>
</g>
</g>
<!-- Node5 -->
<g id="Node000005" class="node">
<title>Node5</title>
<g id="a_Node000005"><a xlink:href="../../db/d20/pugixml_8cpp.html#a05865f7b9926553c6a558800fdb25c50" target="_top" xlink:title=" ">
<polygon fill="white" stroke="#666666" points="294,-96 219.5,-96 219.5,-76 294,-76 294,-96"/>
<text text-anchor="middle" x="256.75" y="-82.5" font-family="Helvetica,sans-Serif" font-size="10.00">insertion_sort</text>
</a>
</g>
</g>
<!-- Node4&#45;&gt;Node5 -->
<g id="edge4_Node000004_Node000005" class="edge">
<title>Node4&#45;&gt;Node5</title>
<g id="a_edge4_Node000004_Node000005"><a xlink:title=" ">
<path fill="none" stroke="#63b8ff" d="M157.02,-61.78C170.24,-65.02 190.03,-69.88 208.43,-74.39"/>
<polygon fill="#63b8ff" stroke="#63b8ff" points="207.49,-78.01 218.04,-76.99 209.16,-71.21 207.49,-78.01"/>
</a>
</g>
</g>
<!-- Node6 -->
<g id="Node000006" class="node">
<title>Node6</title>
<g id="a_Node000006"><a xlink:href="../../db/d20/pugixml_8cpp.html#a1212d7df5db87e06b12d2a2705e4b73d" target="_top" xlink:title=" ">
<polygon fill="white" stroke="#666666" points="283.12,-58 230.38,-58 230.38,-38 283.12,-38 283.12,-58"/>
<text text-anchor="middle" x="256.75" y="-44.5" font-family="Helvetica,sans-Serif" font-size="10.00">median3</text>
</a>
</g>
</g>
<!-- Node4&#45;&gt;Node6 -->
<g id="edge5_Node000004_Node000006" class="edge">
<title>Node4&#45;&gt;Node6</title>
<g id="a_edge5_Node000004_Node000006"><a xlink:title=" ">
<path fill="none" stroke="#63b8ff" d="M157.02,-56.65C172.9,-55.26 198.26,-53.04 219.3,-51.19"/>
<polygon fill="#63b8ff" stroke="#63b8ff" points="219.49,-54.6 229.14,-50.24 218.88,-47.63 219.49,-54.6"/>
</a>
</g>
</g>
<!-- Node7 -->
<g id="Node000007" class="node">
<title>Node7</title>
<g id="a_Node000007"><a xlink:href="../../db/d20/pugixml_8cpp.html#aeb68906c8604e448eb4a5ccea121768f" target="_top" xlink:title=" ">
<polygon fill="white" stroke="#666666" points="284.62,-20 228.88,-20 228.88,0 284.62,0 284.62,-20"/>
<text text-anchor="middle" x="256.75" y="-6.5" font-family="Helvetica,sans-Serif" font-size="10.00">partition3</text>
</a>
</g>
</g>
<!-- Node4&#45;&gt;Node7 -->
<g id="edge7_Node000004_Node000007" class="edge">
<title>Node4&#45;&gt;Node7</title>
<g id="a_edge7_Node000004_Node000007"><a xlink:title=" ">
<path fill="none" stroke="#63b8ff" d="M157.02,-51.53C173.33,-44.67 199.63,-33.6 220.99,-24.62"/>
<polygon fill="#63b8ff" stroke="#63b8ff" points="222.15,-27.51 230.01,-20.4 219.44,-21.05 222.15,-27.51"/>
</a>
</g>
</g>
<!-- Node6&#45;&gt;Node3 -->
<g id="edge6_Node000006_Node000003" class="edge">
<title>Node6&#45;&gt;Node3</title>
<g id="a_edge6_Node000006_Node000003"><a xlink:title=" ">
<path fill="none" stroke="#63b8ff" d="M283.44,-48C294.49,-48 307.47,-48 318.9,-48"/>
<polygon fill="#63b8ff" stroke="#63b8ff" points="318.69,-51.5 328.69,-48 318.69,-44.5 318.69,-51.5"/>
</a>
</g>
</g>
<!-- Node7&#45;&gt;Node3 -->
<g id="edge8_Node000007_Node000003" class="edge">
<title>Node7&#45;&gt;Node3</title>
<g id="a_edge8_Node000007_Node000003"><a xlink:title=" ">
<path fill="none" stroke="#63b8ff" d="M282.48,-20.38C293.98,-25.21 307.71,-30.98 319.65,-35.99"/>
<polygon fill="#63b8ff" stroke="#63b8ff" points="318.01,-39.52 328.58,-40.16 320.72,-33.06 318.01,-39.52"/>
</a>
</g>
</g>
</g>
</svg>
