<?xml version="1.0" encoding="UTF-8" standalone="no"?>
<!DOCTYPE svg PUBLIC "-//W3C//DTD SVG 1.1//EN"
 "http://www.w3.org/Graphics/SVG/1.1/DTD/svg11.dtd">
<!-- Generated by graphviz version 8.1.0 (20230707.0739)
 -->
<!-- Title: carla::client::detail::Episode Pages: 1 -->
<svg width="242pt" height="108pt"
 viewBox="0.00 0.00 241.50 108.00" xmlns="http://www.w3.org/2000/svg" xmlns:xlink="http://www.w3.org/1999/xlink">
<g id="graph0" class="graph" transform="scale(1 1) rotate(0) translate(4 104)">
<title>carla::client::detail::Episode</title>
<!-- Node1 -->
<g id="Node000001" class="node">
<title>Node1</title>
<g id="a_Node000001"><a xlink:title="Holds the current episode, and the current episode state.">
<polygon fill="#999999" stroke="#666666" points="167.88,-32 72.38,-32 72.38,0 167.88,0 167.88,-32"/>
<text text-anchor="start" x="80.38" y="-18.5" font-family="Helvetica,sans-Serif" font-size="10.00">carla::client::detail</text>
<text text-anchor="middle" x="120.12" y="-6.5" font-family="Helvetica,sans-Serif" font-size="10.00">::Episode</text>
</a>
</g>
</g>
<!-- Node2 -->
<g id="Node000002" class="node">
<title>Node2</title>
<g id="a_Node000002"><a xlink:title=" ">
<polygon fill="white" stroke="#666666" points="114.25,-100 0,-100 0,-68 114.25,-68 114.25,-100"/>
<text text-anchor="start" x="8" y="-86.5" font-family="Helvetica,sans-Serif" font-size="10.00">std::enable_shared</text>
<text text-anchor="middle" x="57.12" y="-74.5" font-family="Helvetica,sans-Serif" font-size="10.00">_from_this&lt; Episode &gt;</text>
</a>
</g>
</g>
<!-- Node2&#45;&gt;Node1 -->
<g id="edge1_Node000001_Node000002" class="edge">
<title>Node2&#45;&gt;Node1</title>
<g id="a_edge1_Node000001_Node000002"><a xlink:title=" ">
<path fill="none" stroke="#63b8ff" d="M79.09,-59.99C87.87,-50.79 97.73,-40.46 105.59,-32.22"/>
<polygon fill="#63b8ff" stroke="#63b8ff" points="77.11,-57.04 72.74,-66.69 82.17,-61.88 77.11,-57.04"/>
</a>
</g>
</g>
<!-- Node3 -->
<g id="Node000003" class="node">
<title>Node3</title>
<g id="a_Node000003"><a xlink:href="../../d4/d8b/classcarla_1_1NonCopyable.html" target="_top" xlink:title="Inherit (privately) to suppress copy/move construction and assignment.">
<polygon fill="white" stroke="#666666" points="233.5,-94 132.75,-94 132.75,-74 233.5,-74 233.5,-94"/>
<text text-anchor="middle" x="183.12" y="-80.5" font-family="Helvetica,sans-Serif" font-size="10.00">carla::NonCopyable</text>
</a>
</g>
</g>
<!-- Node3&#45;&gt;Node1 -->
<g id="edge2_Node000001_Node000003" class="edge">
<title>Node3&#45;&gt;Node1</title>
<g id="a_edge2_Node000001_Node000003"><a xlink:title=" ">
<path fill="none" stroke="#8b1a1a" d="M166.52,-65.6C156.64,-55.26 144.23,-42.25 134.73,-32.3"/>
<polygon fill="#8b1a1a" stroke="#8b1a1a" points="163.66,-67.73 173.1,-72.54 168.73,-62.89 163.66,-67.73"/>
</a>
</g>
</g>
</g>
</svg>
