<?xml version="1.0" encoding="UTF-8" standalone="no"?>
<!DOCTYPE svg PUBLIC "-//W3C//DTD SVG 1.1//EN"
 "http://www.w3.org/Graphics/SVG/1.1/DTD/svg11.dtd">
<!-- Generated by graphviz version 8.1.0 (20230707.0739)
 -->
<!-- Title: URandomEngine::GetUniformFloat Pages: 1 -->
<svg width="526pt" height="134pt"
 viewBox="0.00 0.00 526.25 134.00" xmlns="http://www.w3.org/2000/svg" xmlns:xlink="http://www.w3.org/1999/xlink">
<g id="graph0" class="graph" transform="scale(1 1) rotate(0) translate(4 130)">
<title>URandomEngine::GetUniformFloat</title>
<!-- Node1 -->
<g id="Node000001" class="node">
<title>Node1</title>
<g id="a_Node000001"><a xlink:title=" ">
<polygon fill="#999999" stroke="#666666" points="518.25,-82 374.75,-82 374.75,-50 518.25,-50 518.25,-82"/>
<text text-anchor="start" x="382.75" y="-68.5" font-family="Helvetica,sans-Serif" font-size="10.00">URandomEngine::GetUniform</text>
<text text-anchor="middle" x="446.5" y="-56.5" font-family="Helvetica,sans-Serif" font-size="10.00">Float</text>
</a>
</g>
</g>
<!-- Node2 -->
<g id="Node000002" class="node">
<title>Node2</title>
<g id="a_Node000002"><a xlink:href="../../d5/de4/classARayCastLidar.html#a6847345acfcf8e52cf8c1a4cfb93e2bc" target="_top" xlink:title=" ">
<polygon fill="white" stroke="#666666" points="330.12,-126 188.12,-126 188.12,-94 330.12,-94 330.12,-126"/>
<text text-anchor="start" x="196.12" y="-112.5" font-family="Helvetica,sans-Serif" font-size="10.00">ARayCastLidar::Postprocess</text>
<text text-anchor="middle" x="259.12" y="-100.5" font-family="Helvetica,sans-Serif" font-size="10.00">Detection</text>
</a>
</g>
</g>
<!-- Node1&#45;&gt;Node2 -->
<g id="edge1_Node000001_Node000002" class="edge">
<title>Node1&#45;&gt;Node2</title>
<g id="a_edge1_Node000001_Node000002"><a xlink:title=" ">
<path fill="none" stroke="#63b8ff" d="M365.75,-84.93C353.73,-87.78 341.42,-90.7 329.64,-93.5"/>
<polygon fill="#63b8ff" stroke="#63b8ff" points="366.29,-88.16 375.21,-82.45 364.67,-81.35 366.29,-88.16"/>
</a>
</g>
</g>
<!-- Node4 -->
<g id="Node000004" class="node">
<title>Node4</title>
<g id="a_Node000004"><a xlink:href="../../d5/de4/classARayCastLidar.html#a7ecb9c3838a27d5b0b613768e86862a1" target="_top" xlink:title="Method that allow to preprocess if the rays will be traced.">
<polygon fill="white" stroke="#666666" points="338.75,-76 179.5,-76 179.5,-56 338.75,-56 338.75,-76"/>
<text text-anchor="middle" x="259.12" y="-62.5" font-family="Helvetica,sans-Serif" font-size="10.00">ARayCastLidar::PreprocessRays</text>
</a>
</g>
</g>
<!-- Node1&#45;&gt;Node4 -->
<g id="edge3_Node000001_Node000004" class="edge">
<title>Node1&#45;&gt;Node4</title>
<g id="a_edge3_Node000001_Node000004"><a xlink:title=" ">
<path fill="none" stroke="#63b8ff" d="M363.43,-66C355.35,-66 347.15,-66 339.1,-66"/>
<polygon fill="#63b8ff" stroke="#63b8ff" points="363.36,-69.5 373.36,-66 363.36,-62.5 363.36,-69.5"/>
</a>
</g>
</g>
<!-- Node5 -->
<g id="Node000005" class="node">
<title>Node5</title>
<g id="a_Node000005"><a xlink:href="../../d9/d27/classARadar.html#a63bf9a00a351065e212a7cd5d3dfd9cf" target="_top" xlink:title=" ">
<polygon fill="white" stroke="#666666" points="321.12,-20 197.12,-20 197.12,0 321.12,0 321.12,-20"/>
<text text-anchor="middle" x="259.12" y="-6.5" font-family="Helvetica,sans-Serif" font-size="10.00">ARadar::SendLineTraces</text>
</a>
</g>
</g>
<!-- Node1&#45;&gt;Node5 -->
<g id="edge4_Node000001_Node000005" class="edge">
<title>Node1&#45;&gt;Node5</title>
<g id="a_edge4_Node000001_Node000005"><a xlink:title=" ">
<path fill="none" stroke="#63b8ff" d="M380.46,-46.35C351.63,-37.64 318.86,-27.74 294.81,-20.48"/>
<polygon fill="#63b8ff" stroke="#63b8ff" points="379.3,-49.96 389.88,-49.5 381.32,-43.26 379.3,-49.96"/>
</a>
</g>
</g>
<!-- Node3 -->
<g id="Node000003" class="node">
<title>Node3</title>
<g id="a_Node000003"><a xlink:href="../../d5/de4/classARayCastLidar.html#ae73bcd2ee46691bd0df561b33d0d17ba" target="_top" xlink:title="This method uses all the saved FHitResults, compute the RawDetections and then send it to the LidarDa...">
<polygon fill="white" stroke="#666666" points="143.5,-126 0,-126 0,-94 143.5,-94 143.5,-126"/>
<text text-anchor="start" x="8" y="-112.5" font-family="Helvetica,sans-Serif" font-size="10.00">ARayCastLidar::ComputeAnd</text>
<text text-anchor="middle" x="71.75" y="-100.5" font-family="Helvetica,sans-Serif" font-size="10.00">SaveDetections</text>
</a>
</g>
</g>
<!-- Node2&#45;&gt;Node3 -->
<g id="edge2_Node000002_Node000003" class="edge">
<title>Node2&#45;&gt;Node3</title>
<g id="a_edge2_Node000002_Node000003"><a xlink:title=" ">
<path fill="none" stroke="#63b8ff" d="M176.9,-110C165.94,-110 154.75,-110 143.97,-110"/>
<polygon fill="#63b8ff" stroke="#63b8ff" points="176.78,-113.5 186.78,-110 176.78,-106.5 176.78,-113.5"/>
</a>
</g>
</g>
<!-- Node5&#45;&gt;Node5 -->
<g id="edge7_Node000005_Node000005" class="edge">
<title>Node5&#45;&gt;Node5</title>
<g id="a_edge7_Node000005_Node000005"><a xlink:title=" ">
<path fill="none" stroke="#63b8ff" d="M293.19,-30.43C289.82,-34.82 278.46,-38 259.12,-38 226.55,-38 216.63,-28.98 229.35,-20.34"/>
<polygon fill="#63b8ff" stroke="#63b8ff" points="296.03,-29.17 288.9,-21.34 289.59,-31.91 296.03,-29.17"/>
</a>
</g>
</g>
<!-- Node6 -->
<g id="Node000006" class="node">
<title>Node6</title>
<g id="a_Node000006"><a xlink:href="../../d9/d27/classARadar.html#a74d20d2ceebe97b11e8fc12aa8d20d0b" target="_top" xlink:title=" ">
<polygon fill="white" stroke="#666666" points="129.25,-20 14.25,-20 14.25,0 129.25,0 129.25,-20"/>
<text text-anchor="middle" x="71.75" y="-6.5" font-family="Helvetica,sans-Serif" font-size="10.00">ARadar::PostPhysTick</text>
</a>
</g>
</g>
<!-- Node5&#45;&gt;Node6 -->
<g id="edge5_Node000005_Node000006" class="edge">
<title>Node5&#45;&gt;Node6</title>
<g id="a_edge5_Node000005_Node000006"><a xlink:title=" ">
<path fill="none" stroke="#63b8ff" d="M185.84,-10C167.2,-10 147.4,-10 129.67,-10"/>
<polygon fill="#63b8ff" stroke="#63b8ff" points="185.66,-13.5 195.66,-10 185.66,-6.5 185.66,-13.5"/>
</a>
</g>
</g>
<!-- Node6&#45;&gt;Node6 -->
<g id="edge6_Node000006_Node000006" class="edge">
<title>Node6&#45;&gt;Node6</title>
<g id="a_edge6_Node000006_Node000006"><a xlink:title=" ">
<path fill="none" stroke="#63b8ff" d="M105.82,-30.43C102.44,-34.82 91.09,-38 71.75,-38 39.18,-38 29.25,-28.98 41.98,-20.34"/>
<polygon fill="#63b8ff" stroke="#63b8ff" points="108.66,-29.17 101.52,-21.34 102.22,-31.91 108.66,-29.17"/>
</a>
</g>
</g>
</g>
</svg>
