<?xml version="1.0" encoding="UTF-8" standalone="no"?>
<!DOCTYPE svg PUBLIC "-//W3C//DTD SVG 1.1//EN"
 "http://www.w3.org/Graphics/SVG/1.1/DTD/svg11.dtd">
<!-- Generated by graphviz version 8.1.0 (20230707.0739)
 -->
<!-- Title: FRoadMapPixelData::HasDirection Pages: 1 -->
<svg width="714pt" height="90pt"
 viewBox="0.00 0.00 713.50 90.00" xmlns="http://www.w3.org/2000/svg" xmlns:xlink="http://www.w3.org/1999/xlink">
<g id="graph0" class="graph" transform="scale(1 1) rotate(0) translate(4 86)">
<title>FRoadMapPixelData::HasDirection</title>
<!-- Node1 -->
<g id="Node000001" class="node">
<title>Node1</title>
<g id="a_Node000001"><a xlink:title="Whether this pixel has a direction defined (e.g.">
<polygon fill="#999999" stroke="#666666" points="705.5,-57 594.25,-57 594.25,-25 705.5,-25 705.5,-57"/>
<text text-anchor="start" x="602.25" y="-43.5" font-family="Helvetica,sans-Serif" font-size="10.00">FRoadMapPixelData::</text>
<text text-anchor="middle" x="649.88" y="-31.5" font-family="Helvetica,sans-Serif" font-size="10.00">HasDirection</text>
</a>
</g>
</g>
<!-- Node2 -->
<g id="Node000002" class="node">
<title>Node2</title>
<g id="a_Node000002"><a xlink:href="../../d9/d74/structFRoadMapPixelData.html#a9d463fa41ea9ba6c7657499a5e56e2ee" target="_top" xlink:title=" ">
<polygon fill="white" stroke="#666666" points="558.25,-82 447,-82 447,-50 558.25,-50 558.25,-82"/>
<text text-anchor="start" x="455" y="-68.5" font-family="Helvetica,sans-Serif" font-size="10.00">FRoadMapPixelData::</text>
<text text-anchor="middle" x="502.62" y="-56.5" font-family="Helvetica,sans-Serif" font-size="10.00">Encode</text>
</a>
</g>
</g>
<!-- Node1&#45;&gt;Node2 -->
<g id="edge1_Node000001_Node000002" class="edge">
<title>Node1&#45;&gt;Node2</title>
<g id="a_edge1_Node000001_Node000002"><a xlink:title=" ">
<path fill="none" stroke="#63b8ff" d="M583.25,-52.3C575.01,-53.71 566.66,-55.15 558.62,-56.54"/>
<polygon fill="#63b8ff" stroke="#63b8ff" points="583.7,-55.6 592.96,-50.45 582.51,-48.7 583.7,-55.6"/>
</a>
</g>
</g>
<!-- Node7 -->
<g id="Node000007" class="node">
<title>Node7</title>
<g id="a_Node000007"><a xlink:href="../../d9/d74/structFRoadMapPixelData.html#aebe28ea4770184cb32da9305211ffeee" target="_top" xlink:title=" ">
<polygon fill="white" stroke="#666666" points="558.25,-32 447,-32 447,0 558.25,0 558.25,-32"/>
<text text-anchor="start" x="455" y="-18.5" font-family="Helvetica,sans-Serif" font-size="10.00">FRoadMapPixelData::</text>
<text text-anchor="middle" x="502.62" y="-6.5" font-family="Helvetica,sans-Serif" font-size="10.00">EncodeAsColor</text>
</a>
</g>
</g>
<!-- Node1&#45;&gt;Node7 -->
<g id="edge6_Node000001_Node000007" class="edge">
<title>Node1&#45;&gt;Node7</title>
<g id="a_edge6_Node000001_Node000007"><a xlink:title=" ">
<path fill="none" stroke="#63b8ff" d="M583.25,-29.7C575.01,-28.29 566.66,-26.85 558.62,-25.46"/>
<polygon fill="#63b8ff" stroke="#63b8ff" points="582.51,-33.3 592.96,-31.55 583.7,-26.4 582.51,-33.3"/>
</a>
</g>
</g>
<!-- Node3 -->
<g id="Node000003" class="node">
<title>Node3</title>
<g id="a_Node000003"><a xlink:href="../../d5/db2/classURoadMap.html#a4d82906248621ab21ccaeff669ebfdab" target="_top" xlink:title=" ">
<polygon fill="white" stroke="#666666" points="407.25,-73 290.75,-73 290.75,-53 407.25,-53 407.25,-73"/>
<text text-anchor="middle" x="349" y="-59.5" font-family="Helvetica,sans-Serif" font-size="10.00">URoadMap::SetPixelAt</text>
</a>
</g>
</g>
<!-- Node2&#45;&gt;Node3 -->
<g id="edge2_Node000002_Node000003" class="edge">
<title>Node2&#45;&gt;Node3</title>
<g id="a_edge2_Node000002_Node000003"><a xlink:title=" ">
<path fill="none" stroke="#63b8ff" d="M435.98,-64.7C426.58,-64.52 416.96,-64.32 407.73,-64.14"/>
<polygon fill="#63b8ff" stroke="#63b8ff" points="435.82,-68.22 445.88,-64.92 435.96,-61.22 435.82,-68.22"/>
</a>
</g>
</g>
<!-- Node4 -->
<g id="Node000004" class="node">
<title>Node4</title>
<g id="a_Node000004"><a xlink:href="../../d1/ddb/classACityMapGenerator.html#a9ce09c4586724fe3e446cbb12712adf3" target="_top" xlink:title="Generate the road map image and save to disk if requested.">
<polygon fill="white" stroke="#666666" points="251,-57 143.5,-57 143.5,-25 251,-25 251,-57"/>
<text text-anchor="start" x="151.5" y="-43.5" font-family="Helvetica,sans-Serif" font-size="10.00">ACityMapGenerator::</text>
<text text-anchor="middle" x="197.25" y="-31.5" font-family="Helvetica,sans-Serif" font-size="10.00">GenerateRoadMap</text>
</a>
</g>
</g>
<!-- Node3&#45;&gt;Node4 -->
<g id="edge3_Node000003_Node000004" class="edge">
<title>Node3&#45;&gt;Node4</title>
<g id="a_edge3_Node000003_Node000004"><a xlink:title=" ">
<path fill="none" stroke="#63b8ff" d="M279.85,-52.99C270.3,-51.58 260.6,-50.16 251.39,-48.81"/>
<polygon fill="#63b8ff" stroke="#63b8ff" points="279.13,-56.57 289.53,-54.56 280.15,-49.64 279.13,-56.57"/>
</a>
</g>
</g>
<!-- Node5 -->
<g id="Node000005" class="node">
<title>Node5</title>
<g id="a_Node000005"><a xlink:href="../../d1/ddb/classACityMapGenerator.html#a5627a0935def8c92d8ae226b10238f2c" target="_top" xlink:title=" ">
<polygon fill="white" stroke="#666666" points="107.5,-82 0,-82 0,-50 107.5,-50 107.5,-82"/>
<text text-anchor="start" x="8" y="-68.5" font-family="Helvetica,sans-Serif" font-size="10.00">ACityMapGenerator::</text>
<text text-anchor="middle" x="53.75" y="-56.5" font-family="Helvetica,sans-Serif" font-size="10.00">PreSave</text>
</a>
</g>
</g>
<!-- Node4&#45;&gt;Node5 -->
<g id="edge4_Node000004_Node000005" class="edge">
<title>Node4&#45;&gt;Node5</title>
<g id="a_edge4_Node000004_Node000005"><a xlink:title=" ">
<path fill="none" stroke="#63b8ff" d="M132.4,-52.28C124.13,-53.74 115.73,-55.23 107.67,-56.65"/>
<polygon fill="#63b8ff" stroke="#63b8ff" points="132.92,-55.57 142.16,-50.38 131.7,-48.67 132.92,-55.57"/>
</a>
</g>
</g>
<!-- Node6 -->
<g id="Node000006" class="node">
<title>Node6</title>
<g id="a_Node000006"><a xlink:href="../../d1/ddb/classACityMapGenerator.html#a5ad53319596101e96076a12eab41b9c1" target="_top" xlink:title="Here does nothing, implement in derived classes.">
<polygon fill="white" stroke="#666666" points="107.5,-32 0,-32 0,0 107.5,0 107.5,-32"/>
<text text-anchor="start" x="8" y="-18.5" font-family="Helvetica,sans-Serif" font-size="10.00">ACityMapGenerator::</text>
<text text-anchor="middle" x="53.75" y="-6.5" font-family="Helvetica,sans-Serif" font-size="10.00">UpdateMap</text>
</a>
</g>
</g>
<!-- Node4&#45;&gt;Node6 -->
<g id="edge5_Node000004_Node000006" class="edge">
<title>Node4&#45;&gt;Node6</title>
<g id="a_edge5_Node000004_Node000006"><a xlink:title=" ">
<path fill="none" stroke="#63b8ff" d="M132.4,-29.72C124.13,-28.26 115.73,-26.77 107.67,-25.35"/>
<polygon fill="#63b8ff" stroke="#63b8ff" points="131.7,-33.33 142.16,-31.62 132.92,-26.43 131.7,-33.33"/>
</a>
</g>
</g>
<!-- Node8 -->
<g id="Node000008" class="node">
<title>Node8</title>
<g id="a_Node000008"><a xlink:href="../../d5/db2/classURoadMap.html#aa47b13000945dfd3e81dd51a69eb2c67" target="_top" xlink:title="Save the current map as PNG with the pixel data encoded as color.">
<polygon fill="white" stroke="#666666" points="411,-32 287,-32 287,-12 411,-12 411,-32"/>
<text text-anchor="middle" x="349" y="-18.5" font-family="Helvetica,sans-Serif" font-size="10.00">URoadMap::SaveAsPNG</text>
</a>
</g>
</g>
<!-- Node7&#45;&gt;Node8 -->
<g id="edge7_Node000007_Node000008" class="edge">
<title>Node7&#45;&gt;Node8</title>
<g id="a_edge7_Node000007_Node000008"><a xlink:title=" ">
<path fill="none" stroke="#63b8ff" d="M435.9,-18.6C427.74,-18.92 419.43,-19.25 411.34,-19.57"/>
<polygon fill="#63b8ff" stroke="#63b8ff" points="436.03,-22.06 445.88,-18.17 435.75,-15.06 436.03,-22.06"/>
</a>
</g>
</g>
<!-- Node8&#45;&gt;Node4 -->
<g id="edge8_Node000008_Node000004" class="edge">
<title>Node8&#45;&gt;Node4</title>
<g id="a_edge8_Node000008_Node000004"><a xlink:title=" ">
<path fill="none" stroke="#63b8ff" d="M275.79,-31.16C267.47,-32.22 259.11,-33.28 251.11,-34.29"/>
<polygon fill="#63b8ff" stroke="#63b8ff" points="276.18,-34.51 285.66,-29.78 275.3,-27.57 276.18,-34.51"/>
</a>
</g>
</g>
</g>
</svg>
