<?xml version="1.0" encoding="UTF-8" standalone="no"?>
<!DOCTYPE svg PUBLIC "-//W3C//DTD SVG 1.1//EN"
 "http://www.w3.org/Graphics/SVG/1.1/DTD/svg11.dtd">
<!-- Generated by graphviz version 8.1.0 (20230707.0739)
 -->
<!-- Title: AOpenDriveGenerator::GenerateRoadMesh Pages: 1 -->
<!--zoomable 248 -->

<svg id="main" version="1.1" xmlns="http://www.w3.org/2000/svg" xmlns:xlink="http://www.w3.org/1999/xlink" xml:space="preserve" onload="init(evt)">
<style type="text/css"><![CDATA[
.node, .edge {opacity: 0.7;}
.node.selected, .edge.selected {opacity: 1;}
.edge:hover path { stroke: red; }
.edge:hover polygon { stroke: red; fill: red; }
]]></style>

<defs>
  <circle id="rim" cx="0" cy="0" r="7"/>
  <circle id="rim2" cx="0" cy="0" r="3.5"/>
  <g id="zoomPlus">
    <use xlink:href="#rim" fill="#404040"><set attributeName="fill" to="#808080" begin="zoomplus.mouseover" end="zoomplus.mouseout"/></use>
    <path d="M-4,0h8M0,-4v8" fill="none" stroke="white" stroke-width="1.5" pointer-events="none"/>
  </g>
  <g id="zoomMin">
    <use xlink:href="#rim" fill="#404040"><set attributeName="fill" to="#808080" begin="zoomminus.mouseover" end="zoomminus.mouseout"/></use>
    <path d="M-4,0h8" fill="none" stroke="white" stroke-width="1.5" pointer-events="none"/>
  </g>
  <g id="arrowUp" transform="translate(30 24)">
    <use xlink:href="#rim"/>
    <path pointer-events="none" fill="none" stroke="white" stroke-width="1.5" d="M0,-3.0v7 M-2.5,-0.5L0,-3.0L2.5,-0.5"/>
  </g>
  <g id="arrowRight" transform="rotate(90) translate(36 -43)">
    <use xlink:href="#rim"/>
    <path pointer-events="none" fill="none" stroke="white" stroke-width="1.5" d="M0,-3.0v7 M-2.5,-0.5L0,-3.0L2.5,-0.5"/>
  </g>
  <g id="arrowDown" transform="rotate(180) translate(-30 -48)">
    <use xlink:href="#rim"/>
    <path pointer-events="none" fill="none" stroke="white" stroke-width="1.5" d="M0,-3.0v7 M-2.5,-0.5L0,-3.0L2.5,-0.5"/>
  </g>
  <g id="arrowLeft" transform="rotate(270) translate(-36 17)">
    <use xlink:href="#rim"/>
    <path pointer-events="none" fill="none" stroke="white" stroke-width="1.5" d="M0,-3.0v7 M-2.5,-0.5L0,-3.0L2.5,-0.5"/>
  </g>
  <g id="resetDef">
    <use xlink:href="#rim2" fill="#404040"><set attributeName="fill" to="#808080" begin="reset.mouseover" end="reset.mouseout"/></use>
  </g>
</defs>
<script type="application/ecmascript">
var viewWidth = 516;
var viewHeight = 248;
var sectionId = 'dynsection-7';
</script>
<script type="application/ecmascript" xlink:href="../../svg.min.js"/>
<svg id="graph" class="graph">
<g id="viewport">
<title>AOpenDriveGenerator::GenerateRoadMesh</title>
<!-- Node1 -->
<g id="Node000001" class="node">
<title>Node1</title>
<g id="a_Node000001"><a xlink:title="Generates the road and sidewalk mesh based on the OpenDRIVE information.">
<polygon fill="#999999" stroke="#666666" points="109.75,-139 0,-139 0,-107 109.75,-107 109.75,-139"/>
<text text-anchor="start" x="8" y="-125.5" font-family="Helvetica,sans-Serif" font-size="10.00">AOpenDriveGenerator</text>
<text text-anchor="middle" x="54.88" y="-113.5" font-family="Helvetica,sans-Serif" font-size="10.00">::GenerateRoadMesh</text>
</a>
</g>
</g>
<!-- Node2 -->
<g id="Node000002" class="node">
<title>Node2</title>
<g id="a_Node000002"><a xlink:href="../../d7/d1e/classUCarlaStatics.html#a35e7cb760a58848081a618e7fa8201e2" target="_top" xlink:title=" ">
<polygon fill="white" stroke="#666666" points="315.12,-240 154.38,-240 154.38,-220 315.12,-220 315.12,-240"/>
<text text-anchor="middle" x="234.75" y="-226.5" font-family="Helvetica,sans-Serif" font-size="10.00">UCarlaStatics::GetGameInstance</text>
</a>
</g>
</g>
<!-- Node1&#45;&gt;Node2 -->
<g id="edge1_Node000001_Node000002" class="edge">
<title>Node1&#45;&gt;Node2</title>
<g id="a_edge1_Node000001_Node000002"><a xlink:title=" ">
<path fill="none" stroke="#63b8ff" d="M69.08,-139.22C85.24,-158 114.35,-188.6 145.75,-206 153.05,-210.05 161.08,-213.45 169.23,-216.29"/>
<polygon fill="#63b8ff" stroke="#63b8ff" points="167.97,-219.88 178.56,-219.6 170.11,-213.22 167.97,-219.88"/>
</a>
</g>
</g>
<!-- Node3 -->
<g id="Node000003" class="node">
<title>Node3</title>
<g id="a_Node000003"><a xlink:href="../../d7/d1e/classUCarlaStatics.html#acf94832c60579b6d161b66447719efbc" target="_top" xlink:title=" ">
<polygon fill="white" stroke="#666666" points="507.75,-180 359.75,-180 359.75,-160 507.75,-160 507.75,-180"/>
<text text-anchor="middle" x="433.75" y="-166.5" font-family="Helvetica,sans-Serif" font-size="10.00">UCarlaStatics::GetGameMode</text>
</a>
</g>
</g>
<!-- Node1&#45;&gt;Node3 -->
<g id="edge2_Node000001_Node000003" class="edge">
<title>Node1&#45;&gt;Node3</title>
<g id="a_edge2_Node000001_Node000003"><a xlink:title=" ">
<path fill="none" stroke="#63b8ff" d="M77.78,-139.38C95.18,-151.32 120.69,-166.5 145.75,-173 214.88,-190.94 296.57,-187.85 355.08,-181.65"/>
<polygon fill="#63b8ff" stroke="#63b8ff" points="355.18,-185.05 364.73,-180.47 354.4,-178.1 355.18,-185.05"/>
</a>
</g>
</g>
<!-- Node4 -->
<g id="Node000004" class="node">
<title>Node4</title>
<g id="a_Node000004"><a xlink:href="../../db/de5/classACarlaGameModeBase.html#ae2c2de515bd6ad674844fde59cbfbf3d" target="_top" xlink:title=" ">
<polygon fill="white" stroke="#666666" points="492.75,-123 374.75,-123 374.75,-91 492.75,-91 492.75,-123"/>
<text text-anchor="start" x="382.75" y="-109.5" font-family="Helvetica,sans-Serif" font-size="10.00">ACarlaGameModeBase</text>
<text text-anchor="middle" x="433.75" y="-97.5" font-family="Helvetica,sans-Serif" font-size="10.00">::GetMap</text>
</a>
</g>
</g>
<!-- Node1&#45;&gt;Node4 -->
<g id="edge3_Node000001_Node000004" class="edge">
<title>Node1&#45;&gt;Node4</title>
<g id="a_edge3_Node000001_Node000004"><a xlink:title=" ">
<path fill="none" stroke="#63b8ff" d="M77.78,-106.62C95.18,-94.68 120.69,-79.5 145.75,-73 222.33,-53.13 245.54,-61.09 323.75,-73 342.59,-75.87 362.65,-81.38 380.36,-87.14"/>
<polygon fill="#63b8ff" stroke="#63b8ff" points="378.89,-90.68 389.49,-90.54 381.12,-84.04 378.89,-90.68"/>
</a>
</g>
</g>
<!-- Node5 -->
<g id="Node000005" class="node">
<title>Node5</title>
<g id="a_Node000005"><a xlink:href="../../da/d55/classUCarlaGameInstance.html#aa5f3f582b18797589eb1cfbc0b71bec1" target="_top" xlink:title=" ">
<polygon fill="white" stroke="#666666" points="323.75,-114 145.75,-114 145.75,-82 323.75,-82 323.75,-114"/>
<text text-anchor="start" x="153.75" y="-100.5" font-family="Helvetica,sans-Serif" font-size="10.00">UCarlaGameInstance</text>
<text text-anchor="middle" x="234.75" y="-88.5" font-family="Helvetica,sans-Serif" font-size="10.00">::GetOpendriveGenerationParameters</text>
</a>
</g>
</g>
<!-- Node1&#45;&gt;Node5 -->
<g id="edge4_Node000001_Node000005" class="edge">
<title>Node1&#45;&gt;Node5</title>
<g id="a_edge4_Node000001_Node000005"><a xlink:title=" ">
<path fill="none" stroke="#63b8ff" d="M110.21,-115.36C118.04,-114.26 126.29,-113.1 134.67,-111.93"/>
<polygon fill="#63b8ff" stroke="#63b8ff" points="134.91,-115.29 144.32,-110.43 133.93,-108.35 134.91,-115.29"/>
</a>
</g>
</g>
<!-- Node6 -->
<g id="Node000006" class="node">
<title>Node6</title>
<g id="a_Node000006"><a xlink:href="../../d1/db0/classAOpenDriveGenerator.html#aee26074d7f6778838ad645d7eeb93b76" target="_top" xlink:title="Checks if the OpenDrive has been loaded and it&#39;s valid.">
<polygon fill="white" stroke="#666666" points="289.62,-164 179.88,-164 179.88,-132 289.62,-132 289.62,-164"/>
<text text-anchor="start" x="187.88" y="-150.5" font-family="Helvetica,sans-Serif" font-size="10.00">AOpenDriveGenerator</text>
<text text-anchor="middle" x="234.75" y="-138.5" font-family="Helvetica,sans-Serif" font-size="10.00">::IsOpenDriveValid</text>
</a>
</g>
</g>
<!-- Node1&#45;&gt;Node6 -->
<g id="edge5_Node000001_Node000006" class="edge">
<title>Node1&#45;&gt;Node6</title>
<g id="a_edge5_Node000001_Node000006"><a xlink:title=" ">
<path fill="none" stroke="#63b8ff" d="M110.21,-130.64C128.66,-133.23 149.46,-136.15 168.66,-138.85"/>
<polygon fill="#63b8ff" stroke="#63b8ff" points="168.05,-142.44 178.44,-140.37 169.03,-135.51 168.05,-142.44"/>
</a>
</g>
</g>
<!-- Node7 -->
<g id="Node000007" class="node">
<title>Node7</title>
<g id="a_Node000007"><a xlink:href="../../d9/d36/namespacecarla.html#aca0bf2b2b37178b5e39c9bdbb5fadeb6" target="_top" xlink:title=" ">
<polygon fill="white" stroke="#666666" points="281.75,-26 187.75,-26 187.75,-6 281.75,-6 281.75,-26"/>
<text text-anchor="middle" x="234.75" y="-12.5" font-family="Helvetica,sans-Serif" font-size="10.00">carla::log_warning</text>
</a>
</g>
</g>
<!-- Node1&#45;&gt;Node7 -->
<g id="edge8_Node000001_Node000007" class="edge">
<title>Node1&#45;&gt;Node7</title>
<g id="a_edge8_Node000001_Node000007"><a xlink:title=" ">
<path fill="none" stroke="#63b8ff" d="M69.08,-106.78C85.24,-88 114.35,-57.4 145.75,-40 155.41,-34.65 166.33,-30.43 177.12,-27.13"/>
<polygon fill="#63b8ff" stroke="#63b8ff" points="177.69,-30.32 186.37,-24.24 175.79,-23.58 177.69,-30.32"/>
</a>
</g>
</g>
<!-- Node6&#45;&gt;Node3 -->
<g id="edge6_Node000006_Node000003" class="edge">
<title>Node6&#45;&gt;Node3</title>
<g id="a_edge6_Node000006_Node000003"><a xlink:title=" ">
<path fill="none" stroke="#63b8ff" d="M290.1,-154.07C308.17,-156.09 328.73,-158.38 348.51,-160.59"/>
<polygon fill="#63b8ff" stroke="#63b8ff" points="348.07,-164.18 358.4,-161.81 348.85,-157.22 348.07,-164.18"/>
</a>
</g>
</g>
<!-- Node6&#45;&gt;Node4 -->
<g id="edge7_Node000006_Node000004" class="edge">
<title>Node6&#45;&gt;Node4</title>
<g id="a_edge7_Node000006_Node000004"><a xlink:title=" ">
<path fill="none" stroke="#63b8ff" d="M290.1,-136.69C312.92,-131.94 339.72,-126.36 363.9,-121.33"/>
<polygon fill="#63b8ff" stroke="#63b8ff" points="364.36,-124.6 373.44,-119.14 362.93,-117.75 364.36,-124.6"/>
</a>
</g>
</g>
<!-- Node8 -->
<g id="Node000008" class="node">
<title>Node8</title>
<g id="a_Node000008"><a xlink:href="../../d2/d8c/namespacecarla_1_1logging.html#a4193666236852fb6a6977299a31445d8" target="_top" xlink:title=" ">
<polygon fill="white" stroke="#666666" points="483.75,-32 383.75,-32 383.75,0 483.75,0 483.75,-32"/>
<text text-anchor="start" x="391.75" y="-18.5" font-family="Helvetica,sans-Serif" font-size="10.00">carla::logging::write</text>
<text text-anchor="middle" x="433.75" y="-6.5" font-family="Helvetica,sans-Serif" font-size="10.00">_to_stream</text>
</a>
</g>
</g>
<!-- Node7&#45;&gt;Node8 -->
<g id="edge9_Node000007_Node000008" class="edge">
<title>Node7&#45;&gt;Node8</title>
<g id="a_edge9_Node000007_Node000008"><a xlink:title=" ">
<path fill="none" stroke="#63b8ff" d="M281.94,-16C308.96,-16 343.39,-16 372.53,-16"/>
<polygon fill="#63b8ff" stroke="#63b8ff" points="372.41,-19.5 382.41,-16 372.41,-12.5 372.41,-19.5"/>
</a>
</g>
</g>
</g>
</svg>

<g id="navigator" transform="translate(0 0)" fill="#404254">
  <rect fill="#f2f5e9" fill-opacity="0.5" stroke="#606060" stroke-width=".5" x="0" y="0" width="60" height="60"/>
  <use id="zoomplus" xlink:href="#zoomPlus" x="17" y="9" onmousedown="handleZoom(evt,'in')"/>
  <use id="zoomminus" xlink:href="#zoomMin" x="42" y="9" onmousedown="handleZoom(evt,'out')"/>
  <use id="reset" xlink:href="#resetDef" x="30" y="36" onmousedown="handleReset()"/>
   <use id="arrowup" xlink:href="#arrowUp" x="0" y="0" onmousedown="handlePan(0,-1)"/>
  <use id="arrowright" xlink:href="#arrowRight" x="0" y="0" onmousedown="handlePan(1,0)"/>
  <use id="arrowdown" xlink:href="#arrowDown" x="0" y="0" onmousedown="handlePan(0,1)"/>
  <use id="arrowleft" xlink:href="#arrowLeft" x="0" y="0" onmousedown="handlePan(-1,0)"/>
</g>
<svg viewBox="0 0 15 15" width="100%" height="30px" preserveAspectRatio="xMaxYMin meet">
 <g id="arrow_out" transform="scale(0.3 0.3)">
  <a xlink:href="classAOpenDriveGenerator_a694d4a1aa944fdb39620d8c06ddb11b5_cgraph_org.svg" target="_base">
   <rect id="button" ry="5" rx="5" y="6" x="6" height="38" width="38"
        fill="#f2f5e9" fill-opacity="0.5" stroke="#606060" stroke-width="1.0"/>
   <path id="arrow"
     d="M 11.500037,31.436501 C 11.940474,20.09759 22.043105,11.32322 32.158766,21.979434 L 37.068811,17.246167 C 37.068811,17.246167 37.088388,32 37.088388,32 L 22.160133,31.978069 C 22.160133,31.978069 26.997745,27.140456 26.997745,27.140456 C 18.528582,18.264221 13.291696,25.230495 11.500037,31.436501 z"
     style="fill:#404040;"/>
  </a>
 </g>
</svg>

<style type='text/css'>
<![CDATA[
[data-mouse-over-selected='false'] { opacity: 0.7; }
[data-mouse-over-selected='true']  { opacity: 1.0; }
]]>
</style>
<script type="application/ecmascript"><![CDATA[
document.addEventListener('DOMContentLoaded', (event) => {
  highlightEdges();
  highlightAdjacentNodes();
});
]]></script>
</svg>
