<?xml version="1.0" encoding="UTF-8" standalone="no"?>
<!DOCTYPE svg PUBLIC "-//W3C//DTD SVG 1.1//EN"
 "http://www.w3.org/Graphics/SVG/1.1/DTD/svg11.dtd">
<!-- Generated by graphviz version 8.1.0 (20230707.0739)
 -->
<!-- Title: carla::sensor::data::DVSEventArray::GetHeight Pages: 1 -->
<svg width="916pt" height="114pt"
 viewBox="0.00 0.00 915.50 114.00" xmlns="http://www.w3.org/2000/svg" xmlns:xlink="http://www.w3.org/1999/xlink">
<g id="graph0" class="graph" transform="scale(1 1) rotate(0) translate(4 110)">
<title>carla::sensor::data::DVSEventArray::GetHeight</title>
<!-- Node1 -->
<g id="Node000001" class="node">
<title>Node1</title>
<g id="a_Node000001"><a xlink:title="Get image height in pixels.">
<polygon fill="#999999" stroke="#666666" points="139,-69 0,-69 0,-37 139,-37 139,-69"/>
<text text-anchor="start" x="8" y="-55.5" font-family="Helvetica,sans-Serif" font-size="10.00">carla::sensor::data</text>
<text text-anchor="middle" x="69.5" y="-43.5" font-family="Helvetica,sans-Serif" font-size="10.00">::DVSEventArray::GetHeight</text>
</a>
</g>
</g>
<!-- Node2 -->
<g id="Node000002" class="node">
<title>Node2</title>
<g id="a_Node000002"><a xlink:href="../../df/dc1/classcarla_1_1sensor_1_1data_1_1DVSEventArray.html#a1570b7b009d7024ba0e1eb3bbdb91864" target="_top" xlink:title=" ">
<polygon fill="white" stroke="#666666" points="317,-69 175,-69 175,-37 317,-37 317,-69"/>
<text text-anchor="start" x="183" y="-55.5" font-family="Helvetica,sans-Serif" font-size="10.00">carla::sensor::data</text>
<text text-anchor="middle" x="246" y="-43.5" font-family="Helvetica,sans-Serif" font-size="10.00">::DVSEventArray::GetHeader</text>
</a>
</g>
</g>
<!-- Node1&#45;&gt;Node2 -->
<g id="edge1_Node000001_Node000002" class="edge">
<title>Node1&#45;&gt;Node2</title>
<g id="a_edge1_Node000001_Node000002"><a xlink:title=" ">
<path fill="none" stroke="#63b8ff" d="M139.47,-53C147.39,-53 155.53,-53 163.6,-53"/>
<polygon fill="#63b8ff" stroke="#63b8ff" points="163.53,-56.5 173.53,-53 163.53,-49.5 163.53,-56.5"/>
</a>
</g>
</g>
<!-- Node3 -->
<g id="Node000003" class="node">
<title>Node3</title>
<g id="a_Node000003"><a xlink:href="../../db/ddd/classcarla_1_1sensor_1_1s11n_1_1DVSEventArraySerializer.html#a2ec616399df6f265a6371c30f8ebde6d" target="_top" xlink:title=" ">
<polygon fill="white" stroke="#666666" points="483,-106 353,-106 353,-62 483,-62 483,-106"/>
<text text-anchor="start" x="361" y="-92.5" font-family="Helvetica,sans-Serif" font-size="10.00">carla::sensor::s11n</text>
<text text-anchor="start" x="361" y="-80.5" font-family="Helvetica,sans-Serif" font-size="10.00">::DVSEventArraySerializer</text>
<text text-anchor="middle" x="418" y="-68.5" font-family="Helvetica,sans-Serif" font-size="10.00">::DeserializeHeader</text>
</a>
</g>
</g>
<!-- Node2&#45;&gt;Node3 -->
<g id="edge2_Node000002_Node000003" class="edge">
<title>Node2&#45;&gt;Node3</title>
<g id="a_edge2_Node000002_Node000003"><a xlink:title=" ">
<path fill="none" stroke="#63b8ff" d="M317.13,-65.79C325.33,-67.28 333.73,-68.81 341.99,-70.32"/>
<polygon fill="#63b8ff" stroke="#63b8ff" points="341.29,-73.93 351.76,-72.29 342.55,-67.05 341.29,-73.93"/>
</a>
</g>
</g>
<!-- Node7 -->
<g id="Node000007" class="node">
<title>Node7</title>
<g id="a_Node000007"><a xlink:href="../../d2/dcc/classcarla_1_1sensor_1_1data_1_1Array.html#a983393435e9f7b95abfa923448a831bd" target="_top" xlink:title=" ">
<polygon fill="white" stroke="#666666" points="471.75,-44 364.25,-44 364.25,0 471.75,0 471.75,-44"/>
<text text-anchor="start" x="372.25" y="-30.5" font-family="Helvetica,sans-Serif" font-size="10.00">carla::sensor::data</text>
<text text-anchor="start" x="372.25" y="-18.5" font-family="Helvetica,sans-Serif" font-size="10.00">::Array&lt; DVSEvent &gt;</text>
<text text-anchor="middle" x="418" y="-6.5" font-family="Helvetica,sans-Serif" font-size="10.00">::GetRawData</text>
</a>
</g>
</g>
<!-- Node2&#45;&gt;Node7 -->
<g id="edge6_Node000002_Node000007" class="edge">
<title>Node2&#45;&gt;Node7</title>
<g id="a_edge6_Node000002_Node000007"><a xlink:title=" ">
<path fill="none" stroke="#63b8ff" d="M317.13,-40.21C329.1,-38.03 341.48,-35.77 353.28,-33.62"/>
<polygon fill="#63b8ff" stroke="#63b8ff" points="353.71,-36.92 362.92,-31.68 352.45,-30.03 353.71,-36.92"/>
</a>
</g>
</g>
<!-- Node4 -->
<g id="Node000004" class="node">
<title>Node4</title>
<g id="a_Node000004"><a xlink:href="../../d3/da0/classcarla_1_1sensor_1_1RawData.html#ad29c6a9698aa66f593286f5e6fc601ea" target="_top" xlink:title="Begin iterator to the data generated by the sensor.">
<polygon fill="white" stroke="#666666" points="636.25,-100 519,-100 519,-68 636.25,-68 636.25,-100"/>
<text text-anchor="start" x="527" y="-86.5" font-family="Helvetica,sans-Serif" font-size="10.00">carla::sensor::RawData</text>
<text text-anchor="middle" x="577.62" y="-74.5" font-family="Helvetica,sans-Serif" font-size="10.00">::begin</text>
</a>
</g>
</g>
<!-- Node3&#45;&gt;Node4 -->
<g id="edge3_Node000003_Node000004" class="edge">
<title>Node3&#45;&gt;Node4</title>
<g id="a_edge3_Node000003_Node000004"><a xlink:title=" ">
<path fill="none" stroke="#63b8ff" d="M483.11,-84C491.29,-84 499.69,-84 507.93,-84"/>
<polygon fill="#63b8ff" stroke="#63b8ff" points="507.66,-87.5 517.66,-84 507.66,-80.5 507.66,-87.5"/>
</a>
</g>
</g>
<!-- Node5 -->
<g id="Node000005" class="node">
<title>Node5</title>
<g id="a_Node000005"><a xlink:href="../../d0/d0a/classcarla_1_1Buffer.html#a0afeda4355e6196d808ddf25142d5dbd" target="_top" xlink:title=" ">
<polygon fill="white" stroke="#666666" points="769.25,-94 672.25,-94 672.25,-74 769.25,-74 769.25,-94"/>
<text text-anchor="middle" x="720.75" y="-80.5" font-family="Helvetica,sans-Serif" font-size="10.00">carla::Buffer::begin</text>
</a>
</g>
</g>
<!-- Node4&#45;&gt;Node5 -->
<g id="edge4_Node000004_Node000005" class="edge">
<title>Node4&#45;&gt;Node5</title>
<g id="a_edge4_Node000004_Node000005"><a xlink:title=" ">
<path fill="none" stroke="#63b8ff" d="M636.43,-84C644.6,-84 653,-84 661.17,-84"/>
<polygon fill="#63b8ff" stroke="#63b8ff" points="661.15,-87.5 671.15,-84 661.15,-80.5 661.15,-87.5"/>
</a>
</g>
</g>
<!-- Node6 -->
<g id="Node000006" class="node">
<title>Node6</title>
<g id="a_Node000006"><a xlink:href="../../d0/d0a/classcarla_1_1Buffer.html#acbf9f37162db2ddffaf2ae2bfb9fd8a5" target="_top" xlink:title=" ">
<polygon fill="white" stroke="#666666" points="907.5,-94 805.25,-94 805.25,-74 907.5,-74 907.5,-94"/>
<text text-anchor="middle" x="856.38" y="-80.5" font-family="Helvetica,sans-Serif" font-size="10.00">carla::Buffer::cbegin</text>
</a>
</g>
</g>
<!-- Node5&#45;&gt;Node6 -->
<g id="edge5_Node000005_Node000006" class="edge">
<title>Node5&#45;&gt;Node6</title>
<g id="a_edge5_Node000005_Node000006"><a xlink:title=" ">
<path fill="none" stroke="#63b8ff" d="M769.61,-84C777.63,-84 786.05,-84 794.34,-84"/>
<polygon fill="#63b8ff" stroke="#63b8ff" points="794.14,-87.5 804.14,-84 794.14,-80.5 794.14,-87.5"/>
</a>
</g>
</g>
</g>
</svg>
