<?xml version="1.0" encoding="UTF-8" standalone="no"?>
<!DOCTYPE svg PUBLIC "-//W3C//DTD SVG 1.1//EN"
 "http://www.w3.org/Graphics/SVG/1.1/DTD/svg11.dtd">
<!-- Generated by graphviz version 8.1.0 (20230707.0739)
 -->
<!-- Title: carla::streaming::detail::tcp::ServerSession::Write Pages: 1 -->
<!--zoomable 145 -->

<svg id="main" version="1.1" xmlns="http://www.w3.org/2000/svg" xmlns:xlink="http://www.w3.org/1999/xlink" xml:space="preserve" onload="init(evt)">
<style type="text/css"><![CDATA[
.node, .edge {opacity: 0.7;}
.node.selected, .edge.selected {opacity: 1;}
.edge:hover path { stroke: red; }
.edge:hover polygon { stroke: red; fill: red; }
]]></style>

<defs>
  <circle id="rim" cx="0" cy="0" r="7"/>
  <circle id="rim2" cx="0" cy="0" r="3.5"/>
  <g id="zoomPlus">
    <use xlink:href="#rim" fill="#404040"><set attributeName="fill" to="#808080" begin="zoomplus.mouseover" end="zoomplus.mouseout"/></use>
    <path d="M-4,0h8M0,-4v8" fill="none" stroke="white" stroke-width="1.5" pointer-events="none"/>
  </g>
  <g id="zoomMin">
    <use xlink:href="#rim" fill="#404040"><set attributeName="fill" to="#808080" begin="zoomminus.mouseover" end="zoomminus.mouseout"/></use>
    <path d="M-4,0h8" fill="none" stroke="white" stroke-width="1.5" pointer-events="none"/>
  </g>
  <g id="arrowUp" transform="translate(30 24)">
    <use xlink:href="#rim"/>
    <path pointer-events="none" fill="none" stroke="white" stroke-width="1.5" d="M0,-3.0v7 M-2.5,-0.5L0,-3.0L2.5,-0.5"/>
  </g>
  <g id="arrowRight" transform="rotate(90) translate(36 -43)">
    <use xlink:href="#rim"/>
    <path pointer-events="none" fill="none" stroke="white" stroke-width="1.5" d="M0,-3.0v7 M-2.5,-0.5L0,-3.0L2.5,-0.5"/>
  </g>
  <g id="arrowDown" transform="rotate(180) translate(-30 -48)">
    <use xlink:href="#rim"/>
    <path pointer-events="none" fill="none" stroke="white" stroke-width="1.5" d="M0,-3.0v7 M-2.5,-0.5L0,-3.0L2.5,-0.5"/>
  </g>
  <g id="arrowLeft" transform="rotate(270) translate(-36 17)">
    <use xlink:href="#rim"/>
    <path pointer-events="none" fill="none" stroke="white" stroke-width="1.5" d="M0,-3.0v7 M-2.5,-0.5L0,-3.0L2.5,-0.5"/>
  </g>
  <g id="resetDef">
    <use xlink:href="#rim2" fill="#404040"><set attributeName="fill" to="#808080" begin="reset.mouseover" end="reset.mouseout"/></use>
  </g>
</defs>
<script type="application/ecmascript">
var viewWidth = 809;
var viewHeight = 145;
var sectionId = 'dynsection-8';
</script>
<script type="application/ecmascript" xlink:href="../../svg.min.js"/>
<svg id="graph" class="graph">
<g id="viewport">
<title>carla::streaming::detail::tcp::ServerSession::Write</title>
<!-- Node1 -->
<g id="Node000001" class="node">
<title>Node1</title>
<g id="a_Node000001"><a xlink:title="Writes some data to the socket.">
<polygon fill="#999999" stroke="#666666" points="133,-96.1 0,-96.1 0,-64.1 133,-64.1 133,-96.1"/>
<text text-anchor="start" x="8" y="-82.6" font-family="Helvetica,sans-Serif" font-size="10.00">carla::streaming::detail</text>
<text text-anchor="middle" x="66.5" y="-70.6" font-family="Helvetica,sans-Serif" font-size="10.00">::tcp::ServerSession::Write</text>
</a>
</g>
</g>
<!-- Node2 -->
<g id="Node000002" class="node">
<title>Node2</title>
<g id="a_Node000002"><a xlink:href="../../d6/d51/classcarla_1_1streaming_1_1detail_1_1tcp_1_1ServerSession.html#a9e5740dd86e28168fa2c8dc1dd503aee" target="_top" xlink:title=" ">
<polygon fill="white" stroke="#666666" points="342.5,-121.1 169,-121.1 169,-89.1 342.5,-89.1 342.5,-121.1"/>
<text text-anchor="start" x="177" y="-107.6" font-family="Helvetica,sans-Serif" font-size="10.00">carla::streaming::detail</text>
<text text-anchor="middle" x="255.75" y="-95.6" font-family="Helvetica,sans-Serif" font-size="10.00">::tcp::ServerSession::MakeMessage</text>
</a>
</g>
</g>
<!-- Node1&#45;&gt;Node2 -->
<g id="edge1_Node000001_Node000002" class="edge">
<title>Node1&#45;&gt;Node2</title>
<g id="a_edge1_Node000001_Node000002"><a xlink:title=" ">
<path fill="none" stroke="#63b8ff" d="M133.25,-88.87C141.33,-89.95 149.71,-91.07 158.12,-92.2"/>
<polygon fill="#63b8ff" stroke="#63b8ff" points="157.4,-95.76 167.78,-93.62 158.33,-88.82 157.4,-95.76"/>
</a>
</g>
</g>
<!-- Node3 -->
<g id="Node000003" class="node">
<title>Node3</title>
<g id="a_Node000003"><a xlink:href="../../d6/d51/classcarla_1_1streaming_1_1detail_1_1tcp_1_1ServerSession.html#af5255361ee0fd1c54d54faf759f21da4" target="_top" xlink:title="Writes some data to the socket.">
<polygon fill="white" stroke="#666666" points="322.25,-71.1 189.25,-71.1 189.25,-39.1 322.25,-39.1 322.25,-71.1"/>
<text text-anchor="start" x="197.25" y="-57.6" font-family="Helvetica,sans-Serif" font-size="10.00">carla::streaming::detail</text>
<text text-anchor="middle" x="255.75" y="-45.6" font-family="Helvetica,sans-Serif" font-size="10.00">::tcp::ServerSession::Write</text>
</a>
</g>
</g>
<!-- Node1&#45;&gt;Node3 -->
<g id="edge2_Node000001_Node000003" class="edge">
<title>Node1&#45;&gt;Node3</title>
<g id="a_edge2_Node000001_Node000003"><a xlink:title=" ">
<path fill="none" stroke="#63b8ff" d="M133.25,-71.32C147.75,-69.38 163.24,-67.31 178.12,-65.33"/>
<polygon fill="#63b8ff" stroke="#63b8ff" points="178.39,-68.69 187.84,-63.9 177.46,-61.75 178.39,-68.69"/>
</a>
</g>
</g>
<!-- Node4 -->
<g id="Node000004" class="node">
<title>Node4</title>
<g id="a_Node000004"><a xlink:href="../../d6/d51/classcarla_1_1streaming_1_1detail_1_1tcp_1_1ServerSession.html#a27baf23c0170b8129887425bc9bd75ff" target="_top" xlink:title=" ">
<polygon fill="white" stroke="#666666" points="536.62,-137.1 383.38,-137.1 383.38,-105.1 536.62,-105.1 536.62,-137.1"/>
<text text-anchor="start" x="391.38" y="-123.6" font-family="Helvetica,sans-Serif" font-size="10.00">carla::streaming::detail</text>
<text text-anchor="middle" x="460" y="-111.6" font-family="Helvetica,sans-Serif" font-size="10.00">::tcp::ServerSession::CloseNow</text>
</a>
</g>
</g>
<!-- Node3&#45;&gt;Node4 -->
<g id="edge3_Node000003_Node000004" class="edge">
<title>Node3&#45;&gt;Node4</title>
<g id="a_edge3_Node000003_Node000004"><a xlink:title=" ">
<path fill="none" stroke="#63b8ff" d="M314.54,-71.47C323.91,-74.27 333.49,-77.2 342.5,-80.1 362.66,-86.58 384.6,-94.16 403.95,-101.03"/>
<polygon fill="#63b8ff" stroke="#63b8ff" points="402.51,-104.59 413.11,-104.65 404.86,-97.99 402.51,-104.59"/>
</a>
</g>
</g>
<!-- Node5 -->
<g id="Node000005" class="node">
<title>Node5</title>
<g id="a_Node000005"><a xlink:href="../../d9/d36/namespacecarla.html#afb6ca911605d1ec35bdf563de2814dba" target="_top" xlink:title=" ">
<polygon fill="white" stroke="#666666" points="664.75,-87.1 577.5,-87.1 577.5,-67.1 664.75,-67.1 664.75,-87.1"/>
<text text-anchor="middle" x="621.12" y="-73.6" font-family="Helvetica,sans-Serif" font-size="10.00">carla::log_debug</text>
</a>
</g>
</g>
<!-- Node3&#45;&gt;Node5 -->
<g id="edge7_Node000003_Node000005" class="edge">
<title>Node3&#45;&gt;Node5</title>
<g id="a_edge7_Node000003_Node000005"><a xlink:title=" ">
<path fill="none" stroke="#63b8ff" d="M322.55,-59.08C392.35,-63.31 501.3,-69.9 566.2,-73.83"/>
<polygon fill="#63b8ff" stroke="#63b8ff" points="565.82,-77.37 576.01,-74.49 566.24,-70.39 565.82,-77.37"/>
</a>
</g>
</g>
<!-- Node7 -->
<g id="Node000007" class="node">
<title>Node7</title>
<g id="a_Node000007"><a xlink:href="../../df/d4d/classcarla_1_1streaming_1_1detail_1_1tcp_1_1Server.html#a2aca3779a2fd91c285190586b556a633" target="_top" xlink:title=" ">
<polygon fill="white" stroke="#666666" points="541.5,-49.1 378.5,-49.1 378.5,-17.1 541.5,-17.1 541.5,-49.1"/>
<text text-anchor="start" x="386.5" y="-35.6" font-family="Helvetica,sans-Serif" font-size="10.00">carla::streaming::detail</text>
<text text-anchor="middle" x="460" y="-23.6" font-family="Helvetica,sans-Serif" font-size="10.00">::tcp::Server::IsSynchronousMode</text>
</a>
</g>
</g>
<!-- Node3&#45;&gt;Node7 -->
<g id="edge6_Node000003_Node000007" class="edge">
<title>Node3&#45;&gt;Node7</title>
<g id="a_edge6_Node000003_Node000007"><a xlink:title=" ">
<path fill="none" stroke="#63b8ff" d="M322.69,-47.92C336.98,-46.37 352.33,-44.7 367.4,-43.06"/>
<polygon fill="#63b8ff" stroke="#63b8ff" points="367.75,-46.43 377.31,-41.87 366.99,-39.48 367.75,-46.43"/>
</a>
</g>
</g>
<!-- Node8 -->
<g id="Node000008" class="node">
<title>Node8</title>
<g id="a_Node000008"><a xlink:href="../../d9/d36/namespacecarla.html#a7d4c773703bac6e1ed8379a090228612" target="_top" xlink:title=" ">
<polygon fill="white" stroke="#666666" points="659.12,-21.1 583.12,-21.1 583.12,-1.1 659.12,-1.1 659.12,-21.1"/>
<text text-anchor="middle" x="621.12" y="-7.6" font-family="Helvetica,sans-Serif" font-size="10.00">carla::log_info</text>
</a>
</g>
</g>
<!-- Node3&#45;&gt;Node8 -->
<g id="edge8_Node000003_Node000008" class="edge">
<title>Node3&#45;&gt;Node8</title>
<g id="a_edge8_Node000003_Node000008"><a xlink:title=" ">
<path fill="none" stroke="#63b8ff" d="M289.37,-38.71C313.35,-27.61 347.09,-13.95 378.5,-8.1 444.69,4.24 522.86,-0.07 571.97,-5.01"/>
<polygon fill="#63b8ff" stroke="#63b8ff" points="571.58,-8.59 581.9,-6.16 572.32,-1.63 571.58,-8.59"/>
</a>
</g>
</g>
<!-- Node4&#45;&gt;Node5 -->
<g id="edge4_Node000004_Node000005" class="edge">
<title>Node4&#45;&gt;Node5</title>
<g id="a_edge4_Node000004_Node000005"><a xlink:title=" ">
<path fill="none" stroke="#63b8ff" d="M520.25,-104.71C537.36,-99.98 555.81,-94.88 572.14,-90.36"/>
<polygon fill="#63b8ff" stroke="#63b8ff" points="572.82,-93.53 581.53,-87.49 570.96,-86.78 572.82,-93.53"/>
</a>
</g>
</g>
<!-- Node6 -->
<g id="Node000006" class="node">
<title>Node6</title>
<g id="a_Node000006"><a xlink:href="../../d2/d8c/namespacecarla_1_1logging.html#a4193666236852fb6a6977299a31445d8" target="_top" xlink:title=" ">
<polygon fill="white" stroke="#666666" points="800.75,-71.1 700.75,-71.1 700.75,-39.1 800.75,-39.1 800.75,-71.1"/>
<text text-anchor="start" x="708.75" y="-57.6" font-family="Helvetica,sans-Serif" font-size="10.00">carla::logging::write</text>
<text text-anchor="middle" x="750.75" y="-45.6" font-family="Helvetica,sans-Serif" font-size="10.00">_to_stream</text>
</a>
</g>
</g>
<!-- Node5&#45;&gt;Node6 -->
<g id="edge5_Node000005_Node000006" class="edge">
<title>Node5&#45;&gt;Node6</title>
<g id="a_edge5_Node000005_Node000006"><a xlink:title=" ">
<path fill="none" stroke="#63b8ff" d="M664.98,-69.71C673.02,-68.32 681.57,-66.85 690.02,-65.39"/>
<polygon fill="#63b8ff" stroke="#63b8ff" points="690.36,-68.71 699.62,-63.56 689.17,-61.81 690.36,-68.71"/>
</a>
</g>
</g>
<!-- Node8&#45;&gt;Node6 -->
<g id="edge9_Node000008_Node000006" class="edge">
<title>Node8&#45;&gt;Node6</title>
<g id="a_edge9_Node000008_Node000006"><a xlink:title=" ">
<path fill="none" stroke="#63b8ff" d="M652.37,-21.52C664.24,-25.61 678.27,-30.45 691.93,-35.16"/>
<polygon fill="#63b8ff" stroke="#63b8ff" points="690.66,-38.77 701.26,-38.72 692.95,-32.15 690.66,-38.77"/>
</a>
</g>
</g>
</g>
</svg>

<g id="navigator" transform="translate(0 0)" fill="#404254">
  <rect fill="#f2f5e9" fill-opacity="0.5" stroke="#606060" stroke-width=".5" x="0" y="0" width="60" height="60"/>
  <use id="zoomplus" xlink:href="#zoomPlus" x="17" y="9" onmousedown="handleZoom(evt,'in')"/>
  <use id="zoomminus" xlink:href="#zoomMin" x="42" y="9" onmousedown="handleZoom(evt,'out')"/>
  <use id="reset" xlink:href="#resetDef" x="30" y="36" onmousedown="handleReset()"/>
   <use id="arrowup" xlink:href="#arrowUp" x="0" y="0" onmousedown="handlePan(0,-1)"/>
  <use id="arrowright" xlink:href="#arrowRight" x="0" y="0" onmousedown="handlePan(1,0)"/>
  <use id="arrowdown" xlink:href="#arrowDown" x="0" y="0" onmousedown="handlePan(0,1)"/>
  <use id="arrowleft" xlink:href="#arrowLeft" x="0" y="0" onmousedown="handlePan(-1,0)"/>
</g>
<svg viewBox="0 0 15 15" width="100%" height="30px" preserveAspectRatio="xMaxYMin meet">
 <g id="arrow_out" transform="scale(0.3 0.3)">
  <a xlink:href="classcarla_1_1streaming_1_1detail_1_1tcp_1_1ServerSession_adc3bc2f7e8cd44be17aa98c5d2570604_cgraph_org.svg" target="_base">
   <rect id="button" ry="5" rx="5" y="6" x="6" height="38" width="38"
        fill="#f2f5e9" fill-opacity="0.5" stroke="#606060" stroke-width="1.0"/>
   <path id="arrow"
     d="M 11.500037,31.436501 C 11.940474,20.09759 22.043105,11.32322 32.158766,21.979434 L 37.068811,17.246167 C 37.068811,17.246167 37.088388,32 37.088388,32 L 22.160133,31.978069 C 22.160133,31.978069 26.997745,27.140456 26.997745,27.140456 C 18.528582,18.264221 13.291696,25.230495 11.500037,31.436501 z"
     style="fill:#404040;"/>
  </a>
 </g>
</svg>

<style type='text/css'>
<![CDATA[
[data-mouse-over-selected='false'] { opacity: 0.7; }
[data-mouse-over-selected='true']  { opacity: 1.0; }
]]>
</style>
<script type="application/ecmascript"><![CDATA[
document.addEventListener('DOMContentLoaded', (event) => {
  highlightEdges();
  highlightAdjacentNodes();
});
]]></script>
</svg>
