<?xml version="1.0" encoding="UTF-8" standalone="no"?>
<!DOCTYPE svg PUBLIC "-//W3C//DTD SVG 1.1//EN"
 "http://www.w3.org/Graphics/SVG/1.1/DTD/svg11.dtd">
<!-- Generated by graphviz version 8.1.0 (20230707.0739)
 -->
<!-- Title: UCarlaEpisode::GetElapsedGameTime Pages: 1 -->
<svg width="1187pt" height="192pt"
 viewBox="0.00 0.00 1187.25 192.00" xmlns="http://www.w3.org/2000/svg" xmlns:xlink="http://www.w3.org/1999/xlink">
<g id="graph0" class="graph" transform="scale(1 1) rotate(0) translate(4 188)">
<title>UCarlaEpisode::GetElapsedGameTime</title>
<!-- Node1 -->
<g id="Node000001" class="node">
<title>Node1</title>
<g id="a_Node000001"><a xlink:title="Game seconds since the start of this episode.">
<polygon fill="#999999" stroke="#666666" points="1179.25,-83 1041.75,-83 1041.75,-51 1179.25,-51 1179.25,-83"/>
<text text-anchor="start" x="1049.75" y="-69.5" font-family="Helvetica,sans-Serif" font-size="10.00">UCarlaEpisode::GetElapsed</text>
<text text-anchor="middle" x="1110.5" y="-57.5" font-family="Helvetica,sans-Serif" font-size="10.00">GameTime</text>
</a>
</g>
</g>
<!-- Node2 -->
<g id="Node000002" class="node">
<title>Node2</title>
<g id="a_Node000002"><a xlink:href="../../dc/d72/classCaService.html#af78a02cbfa27133b4682c7f99c3ed09e" target="_top" xlink:title=" ">
<polygon fill="white" stroke="#666666" points="995.25,-146 862.25,-146 862.25,-114 995.25,-114 995.25,-146"/>
<text text-anchor="start" x="870.25" y="-132.5" font-family="Helvetica,sans-Serif" font-size="10.00">CaService::AddCooperative</text>
<text text-anchor="middle" x="928.75" y="-120.5" font-family="Helvetica,sans-Serif" font-size="10.00">AwarenessMessage</text>
</a>
</g>
</g>
<!-- Node1&#45;&gt;Node2 -->
<g id="edge1_Node000001_Node000002" class="edge">
<title>Node1&#45;&gt;Node2</title>
<g id="a_edge1_Node000001_Node000002"><a xlink:title=" ">
<path fill="none" stroke="#63b8ff" d="M1052.51,-86.97C1028.05,-95.55 999.81,-105.45 976.59,-113.58"/>
<polygon fill="#63b8ff" stroke="#63b8ff" points="1053.46,-90 1061.74,-83.39 1051.15,-83.39 1053.46,-90"/>
</a>
</g>
</g>
<!-- Node6 -->
<g id="Node000006" class="node">
<title>Node6</title>
<g id="a_Node000006"><a xlink:href="../../dc/d72/classCaService.html#a3abeb3a2b3ed63c68a902475f3909b51" target="_top" xlink:title=" ">
<polygon fill="white" stroke="#666666" points="263,-134 168.25,-134 168.25,-114 263,-114 263,-134"/>
<text text-anchor="middle" x="215.62" y="-120.5" font-family="Helvetica,sans-Serif" font-size="10.00">CaService::Trigger</text>
</a>
</g>
</g>
<!-- Node1&#45;&gt;Node6 -->
<g id="edge14_Node000001_Node000006" class="edge">
<title>Node1&#45;&gt;Node6</title>
<g id="a_edge14_Node000001_Node000006"><a xlink:title=" ">
<path fill="none" stroke="#63b8ff" d="M1030.7,-73.48C956.84,-78.98 843.32,-86 744.62,-86 744.62,-86 744.62,-86 551.88,-86 448.34,-86 327.96,-104.11 263.35,-115.33"/>
<polygon fill="#63b8ff" stroke="#63b8ff" points="1030.59,-76.92 1040.3,-72.67 1030.06,-69.94 1030.59,-76.92"/>
</a>
</g>
</g>
<!-- Node8 -->
<g id="Node000008" class="node">
<title>Node8</title>
<g id="a_Node000008"><a xlink:href="../../da/d9b/classFWorldObserver.html#ad866b204499b7d2252661e39bcff1811" target="_top" xlink:title="Send a message to every connected client with the info about the given Episode.">
<polygon fill="white" stroke="#666666" points="1005.75,-58 851.75,-58 851.75,-38 1005.75,-38 1005.75,-58"/>
<text text-anchor="middle" x="928.75" y="-44.5" font-family="Helvetica,sans-Serif" font-size="10.00">FWorldObserver::BroadcastTick</text>
</a>
</g>
</g>
<!-- Node1&#45;&gt;Node8 -->
<g id="edge9_Node000001_Node000008" class="edge">
<title>Node1&#45;&gt;Node8</title>
<g id="a_edge9_Node000001_Node000008"><a xlink:title=" ">
<path fill="none" stroke="#63b8ff" d="M1030.36,-58.64C1022.28,-57.78 1014.08,-56.91 1006.03,-56.06"/>
<polygon fill="#63b8ff" stroke="#63b8ff" points="1029.98,-62.22 1040.29,-59.79 1030.71,-55.26 1029.98,-62.22"/>
</a>
</g>
</g>
<!-- Node11 -->
<g id="Node000011" class="node">
<title>Node11</title>
<g id="a_Node000011"><a xlink:href="../../dc/d72/classCaService.html#a39ee849e0fefea467ca92bc71f5fe392" target="_top" xlink:title=" ">
<polygon fill="white" stroke="#666666" points="982.88,-20 874.62,-20 874.62,0 982.88,0 982.88,-20"/>
<text text-anchor="middle" x="928.75" y="-6.5" font-family="Helvetica,sans-Serif" font-size="10.00">CaService::SetOwner</text>
</a>
</g>
</g>
<!-- Node1&#45;&gt;Node11 -->
<g id="edge12_Node000001_Node000011" class="edge">
<title>Node1&#45;&gt;Node11</title>
<g id="a_edge12_Node000001_Node000011"><a xlink:title=" ">
<path fill="none" stroke="#63b8ff" d="M1057.93,-46.89C1041.39,-40.77 1022.91,-34.27 1005.75,-29 995.87,-25.96 985.16,-23.06 974.98,-20.47"/>
<polygon fill="#63b8ff" stroke="#63b8ff" points="1056.35,-50.41 1066.94,-50.63 1058.8,-43.85 1056.35,-50.41"/>
</a>
</g>
</g>
<!-- Node3 -->
<g id="Node000003" class="node">
<title>Node3</title>
<g id="a_Node000003"><a xlink:href="../../dc/d72/classCaService.html#aeed10735fdfabc90def5dc5459636d57" target="_top" xlink:title=" ">
<polygon fill="white" stroke="#666666" points="815.75,-146 671.5,-146 671.5,-114 815.75,-114 815.75,-146"/>
<text text-anchor="start" x="679.5" y="-132.5" font-family="Helvetica,sans-Serif" font-size="10.00">CaService::CreateCooperative</text>
<text text-anchor="middle" x="743.62" y="-120.5" font-family="Helvetica,sans-Serif" font-size="10.00">AwarenessMessage</text>
</a>
</g>
</g>
<!-- Node2&#45;&gt;Node3 -->
<g id="edge2_Node000002_Node000003" class="edge">
<title>Node2&#45;&gt;Node3</title>
<g id="a_edge2_Node000002_Node000003"><a xlink:title=" ">
<path fill="none" stroke="#63b8ff" d="M850.95,-130C839.39,-130 827.52,-130 816.09,-130"/>
<polygon fill="#63b8ff" stroke="#63b8ff" points="850.9,-133.5 860.9,-130 850.9,-126.5 850.9,-133.5"/>
</a>
</g>
</g>
<!-- Node4 -->
<g id="Node000004" class="node">
<title>Node4</title>
<g id="a_Node000004"><a xlink:href="../../dc/d72/classCaService.html#ac516ff7495bc32f142607fa3c18feb3e" target="_top" xlink:title=" ">
<polygon fill="white" stroke="#666666" points="635.5,-175 470.25,-175 470.25,-155 635.5,-155 635.5,-175"/>
<text text-anchor="middle" x="552.88" y="-161.5" font-family="Helvetica,sans-Serif" font-size="10.00">CaService::GenerateCamMessage</text>
</a>
</g>
</g>
<!-- Node3&#45;&gt;Node4 -->
<g id="edge3_Node000003_Node000004" class="edge">
<title>Node3&#45;&gt;Node4</title>
<g id="a_edge3_Node000003_Node000004"><a xlink:title=" ">
<path fill="none" stroke="#63b8ff" d="M660.77,-145.18C643.75,-148.33 626.19,-151.59 610.34,-154.53"/>
<polygon fill="#63b8ff" stroke="#63b8ff" points="661.07,-148.5 670.27,-143.23 659.8,-141.61 661.07,-148.5"/>
</a>
</g>
</g>
<!-- Node3&#45;&gt;Node6 -->
<g id="edge8_Node000003_Node000006" class="edge">
<title>Node3&#45;&gt;Node6</title>
<g id="a_edge8_Node000003_Node000006"><a xlink:title=" ">
<path fill="none" stroke="#63b8ff" d="M660.27,-129.06C548.57,-127.79 352.77,-125.55 263.44,-124.53"/>
<polygon fill="#63b8ff" stroke="#63b8ff" points="660.1,-132.57 670.14,-129.18 660.18,-125.57 660.1,-132.57"/>
</a>
</g>
</g>
<!-- Node5 -->
<g id="Node000005" class="node">
<title>Node5</title>
<g id="a_Node000005"><a xlink:href="../../dc/d72/classCaService.html#af0c9631cf58c85f850d00d94180432c0" target="_top" xlink:title=" ">
<polygon fill="white" stroke="#666666" points="434.25,-184 299,-184 299,-152 434.25,-152 434.25,-184"/>
<text text-anchor="start" x="307" y="-170.5" font-family="Helvetica,sans-Serif" font-size="10.00">CaService::CheckTriggering</text>
<text text-anchor="middle" x="366.62" y="-158.5" font-family="Helvetica,sans-Serif" font-size="10.00">Conditions</text>
</a>
</g>
</g>
<!-- Node4&#45;&gt;Node5 -->
<g id="edge4_Node000004_Node000005" class="edge">
<title>Node4&#45;&gt;Node5</title>
<g id="a_edge4_Node000004_Node000005"><a xlink:title=" ">
<path fill="none" stroke="#63b8ff" d="M459.14,-166.51C450.88,-166.64 442.62,-166.78 434.63,-166.91"/>
<polygon fill="#63b8ff" stroke="#63b8ff" points="459.05,-170 468.99,-166.33 458.93,-163 459.05,-170"/>
</a>
</g>
</g>
<!-- Node5&#45;&gt;Node6 -->
<g id="edge5_Node000005_Node000006" class="edge">
<title>Node5&#45;&gt;Node6</title>
<g id="a_edge5_Node000005_Node000006"><a xlink:title=" ">
<path fill="none" stroke="#63b8ff" d="M299.94,-148.6C283.38,-143.71 266.23,-138.65 251.83,-134.4"/>
<polygon fill="#63b8ff" stroke="#63b8ff" points="298.56,-152.14 309.14,-151.62 300.54,-145.43 298.56,-152.14"/>
</a>
</g>
</g>
<!-- Node6&#45;&gt;Node6 -->
<g id="edge7_Node000006_Node000006" class="edge">
<title>Node6&#45;&gt;Node6</title>
<g id="a_edge7_Node000006_Node000006"><a xlink:title=" ">
<path fill="none" stroke="#63b8ff" d="M242.58,-144.77C239.63,-148.98 230.65,-152 215.62,-152 189.64,-152 181.72,-142.98 191.87,-134.34"/>
<polygon fill="#63b8ff" stroke="#63b8ff" points="245.66,-143.87 239.38,-135.34 238.97,-145.93 245.66,-143.87"/>
</a>
</g>
</g>
<!-- Node7 -->
<g id="Node000007" class="node">
<title>Node7</title>
<g id="a_Node000007"><a xlink:href="../../d3/dd4/classAV2XSensor.html#a48e67673a93165d20a70c95c44d9bb5b" target="_top" xlink:title=" ">
<polygon fill="white" stroke="#666666" points="132.25,-134 0,-134 0,-114 132.25,-114 132.25,-134"/>
<text text-anchor="middle" x="66.12" y="-120.5" font-family="Helvetica,sans-Serif" font-size="10.00">AV2XSensor::PrePhysTick</text>
</a>
</g>
</g>
<!-- Node6&#45;&gt;Node7 -->
<g id="edge6_Node000006_Node000007" class="edge">
<title>Node6&#45;&gt;Node7</title>
<g id="a_edge6_Node000006_Node000007"><a xlink:title=" ">
<path fill="none" stroke="#63b8ff" d="M157.19,-124C149.13,-124 140.81,-124 132.63,-124"/>
<polygon fill="#63b8ff" stroke="#63b8ff" points="156.96,-127.5 166.96,-124 156.96,-120.5 156.96,-127.5"/>
</a>
</g>
</g>
<!-- Node9 -->
<g id="Node000009" class="node">
<title>Node9</title>
<g id="a_Node000009"><a xlink:href="../../dc/d49/classFCarlaEngine.html#aff440c7ba9d004e4c5b60125cc4d709b" target="_top" xlink:title=" ">
<polygon fill="white" stroke="#666666" points="809.38,-58 677.88,-58 677.88,-38 809.38,-38 809.38,-58"/>
<text text-anchor="middle" x="743.62" y="-44.5" font-family="Helvetica,sans-Serif" font-size="10.00">FCarlaEngine::OnPostTick</text>
</a>
</g>
</g>
<!-- Node8&#45;&gt;Node9 -->
<g id="edge10_Node000008_Node000009" class="edge">
<title>Node8&#45;&gt;Node9</title>
<g id="a_edge10_Node000008_Node000009"><a xlink:title=" ">
<path fill="none" stroke="#63b8ff" d="M840.64,-48C830.25,-48 819.79,-48 809.78,-48"/>
<polygon fill="#63b8ff" stroke="#63b8ff" points="840.41,-51.5 850.41,-48 840.41,-44.5 840.41,-51.5"/>
</a>
</g>
</g>
<!-- Node10 -->
<g id="Node000010" class="node">
<title>Node10</title>
<g id="a_Node000010"><a xlink:href="../../dc/d49/classFCarlaEngine.html#ab8d13063cde985781237dd7da308227e" target="_top" xlink:title=" ">
<polygon fill="white" stroke="#666666" points="625,-58 480.75,-58 480.75,-38 625,-38 625,-58"/>
<text text-anchor="middle" x="552.88" y="-44.5" font-family="Helvetica,sans-Serif" font-size="10.00">FCarlaEngine::NotifyInitGame</text>
</a>
</g>
</g>
<!-- Node9&#45;&gt;Node10 -->
<g id="edge11_Node000009_Node000010" class="edge">
<title>Node9&#45;&gt;Node10</title>
<g id="a_edge11_Node000009_Node000010"><a xlink:title=" ">
<path fill="none" stroke="#63b8ff" d="M666.59,-48C652.93,-48 638.75,-48 625.23,-48"/>
<polygon fill="#63b8ff" stroke="#63b8ff" points="666.4,-51.5 676.4,-48 666.4,-44.5 666.4,-51.5"/>
</a>
</g>
</g>
<!-- Node12 -->
<g id="Node000012" class="node">
<title>Node12</title>
<g id="a_Node000012"><a xlink:href="../../d3/dd4/classAV2XSensor.html#abd5c6417564756ef510da38fdab63738" target="_top" xlink:title=" ">
<polygon fill="white" stroke="#666666" points="803.38,-20 683.88,-20 683.88,0 803.38,0 803.38,-20"/>
<text text-anchor="middle" x="743.62" y="-6.5" font-family="Helvetica,sans-Serif" font-size="10.00">AV2XSensor::SetOwner</text>
</a>
</g>
</g>
<!-- Node11&#45;&gt;Node12 -->
<g id="edge13_Node000011_Node000012" class="edge">
<title>Node11&#45;&gt;Node12</title>
<g id="a_edge13_Node000011_Node000012"><a xlink:title=" ">
<path fill="none" stroke="#63b8ff" d="M863.39,-10C843.94,-10 822.69,-10 803.6,-10"/>
<polygon fill="#63b8ff" stroke="#63b8ff" points="863.29,-13.5 873.29,-10 863.29,-6.5 863.29,-13.5"/>
</a>
</g>
</g>
</g>
</svg>
