<?xml version="1.0" encoding="UTF-8" standalone="no"?>
<!DOCTYPE svg PUBLIC "-//W3C//DTD SVG 1.1//EN"
 "http://www.w3.org/Graphics/SVG/1.1/DTD/svg11.dtd">
<!-- Generated by graphviz version 8.1.0 (20230707.0739)
 -->
<!-- Title: UCarlaEpisode::GetActorDefinitions Pages: 1 -->
<svg width="490pt" height="90pt"
 viewBox="0.00 0.00 490.25 90.00" xmlns="http://www.w3.org/2000/svg" xmlns:xlink="http://www.w3.org/1999/xlink">
<g id="graph0" class="graph" transform="scale(1 1) rotate(0) translate(4 86)">
<title>UCarlaEpisode::GetActorDefinitions</title>
<!-- Node1 -->
<g id="Node000001" class="node">
<title>Node1</title>
<g id="a_Node000001"><a xlink:title="Return the list of actor definitions that are available to be spawned this episode.">
<polygon fill="#999999" stroke="#666666" points="482.25,-51 311.75,-51 311.75,-31 482.25,-31 482.25,-51"/>
<text text-anchor="middle" x="397" y="-37.5" font-family="Helvetica,sans-Serif" font-size="10.00">UCarlaEpisode::GetActorDefinitions</text>
</a>
</g>
</g>
<!-- Node2 -->
<g id="Node000002" class="node">
<title>Node2</title>
<g id="a_Node000002"><a xlink:href="../../d7/d97/classFCarlaServer_1_1FPimpl.html#a675a6b572112a21e8bc011dddfd0de86" target="_top" xlink:title=" ">
<polygon fill="white" stroke="#666666" points="269,-82 160.75,-82 160.75,-50 269,-50 269,-82"/>
<text text-anchor="start" x="168.75" y="-68.5" font-family="Helvetica,sans-Serif" font-size="10.00">FCarlaServer::FPimpl</text>
<text text-anchor="middle" x="214.88" y="-56.5" font-family="Helvetica,sans-Serif" font-size="10.00">::BindActions</text>
</a>
</g>
</g>
<!-- Node1&#45;&gt;Node2 -->
<g id="edge1_Node000001_Node000002" class="edge">
<title>Node1&#45;&gt;Node2</title>
<g id="a_edge1_Node000001_Node000002"><a xlink:title=" ">
<path fill="none" stroke="#63b8ff" d="M309.88,-52.95C296.08,-54.87 282.15,-56.8 269.4,-58.57"/>
<polygon fill="#63b8ff" stroke="#63b8ff" points="309.97,-56.34 319.39,-51.49 309.01,-49.4 309.97,-56.34"/>
</a>
</g>
</g>
<!-- Node4 -->
<g id="Node000004" class="node">
<title>Node4</title>
<g id="a_Node000004"><a xlink:href="../../dc/d84/classUCarlaEpisode.html#aa93ee8963c92ced93541166de457f5ff" target="_top" xlink:title=" ">
<polygon fill="white" stroke="#666666" points="275.75,-32 154,-32 154,0 275.75,0 275.75,-32"/>
<text text-anchor="start" x="162" y="-18.5" font-family="Helvetica,sans-Serif" font-size="10.00">UCarlaEpisode::Initialize</text>
<text text-anchor="middle" x="214.88" y="-6.5" font-family="Helvetica,sans-Serif" font-size="10.00">AtBeginPlay</text>
</a>
</g>
</g>
<!-- Node1&#45;&gt;Node4 -->
<g id="edge3_Node000001_Node000004" class="edge">
<title>Node1&#45;&gt;Node4</title>
<g id="a_edge3_Node000001_Node000004"><a xlink:title=" ">
<path fill="none" stroke="#63b8ff" d="M309.62,-29.01C298.34,-27.45 286.97,-25.87 276.25,-24.38"/>
<polygon fill="#63b8ff" stroke="#63b8ff" points="309.01,-32.6 319.39,-30.51 309.97,-25.66 309.01,-32.6"/>
</a>
</g>
</g>
<!-- Node3 -->
<g id="Node000003" class="node">
<title>Node3</title>
<g id="a_Node000003"><a xlink:href="../../d7/d97/classFCarlaServer_1_1FPimpl.html#ab9ff29fc81bd2f9a14677941c7f7b62d" target="_top" xlink:title=" ">
<polygon fill="white" stroke="#666666" points="113.12,-82 4.88,-82 4.88,-50 113.12,-50 113.12,-82"/>
<text text-anchor="start" x="12.88" y="-68.5" font-family="Helvetica,sans-Serif" font-size="10.00">FCarlaServer::FPimpl</text>
<text text-anchor="middle" x="59" y="-56.5" font-family="Helvetica,sans-Serif" font-size="10.00">::FPimpl</text>
</a>
</g>
</g>
<!-- Node2&#45;&gt;Node3 -->
<g id="edge2_Node000002_Node000003" class="edge">
<title>Node2&#45;&gt;Node3</title>
<g id="a_edge2_Node000002_Node000003"><a xlink:title=" ">
<path fill="none" stroke="#63b8ff" d="M149.62,-66C137.62,-66 125.19,-66 113.55,-66"/>
<polygon fill="#63b8ff" stroke="#63b8ff" points="149.49,-69.5 159.49,-66 149.49,-62.5 149.49,-69.5"/>
</a>
</g>
</g>
<!-- Node5 -->
<g id="Node000005" class="node">
<title>Node5</title>
<g id="a_Node000005"><a xlink:href="../../db/de5/classACarlaGameModeBase.html#a3909b055b351f69d7ad1e39a42e72e3d" target="_top" xlink:title=" ">
<polygon fill="white" stroke="#666666" points="118,-32 0,-32 0,0 118,0 118,-32"/>
<text text-anchor="start" x="8" y="-18.5" font-family="Helvetica,sans-Serif" font-size="10.00">ACarlaGameModeBase</text>
<text text-anchor="middle" x="59" y="-6.5" font-family="Helvetica,sans-Serif" font-size="10.00">::BeginPlay</text>
</a>
</g>
</g>
<!-- Node4&#45;&gt;Node5 -->
<g id="edge4_Node000004_Node000005" class="edge">
<title>Node4&#45;&gt;Node5</title>
<g id="a_edge4_Node000004_Node000005"><a xlink:title=" ">
<path fill="none" stroke="#63b8ff" d="M142.57,-16C134.49,-16 126.32,-16 118.44,-16"/>
<polygon fill="#63b8ff" stroke="#63b8ff" points="142.5,-19.5 152.5,-16 142.5,-12.5 142.5,-19.5"/>
</a>
</g>
</g>
</g>
</svg>
