<?xml version="1.0" encoding="UTF-8" standalone="no"?>
<!DOCTYPE svg PUBLIC "-//W3C//DTD SVG 1.1//EN"
 "http://www.w3.org/Graphics/SVG/1.1/DTD/svg11.dtd">
<!-- Generated by graphviz version 8.1.0 (20230707.0739)
 -->
<!-- Title: carla::sensor::RawData::size Pages: 1 -->
<!--zoomable 78 -->

<svg id="main" version="1.1" xmlns="http://www.w3.org/2000/svg" xmlns:xlink="http://www.w3.org/1999/xlink" xml:space="preserve" onload="init(evt)">
<style type="text/css"><![CDATA[
.node, .edge {opacity: 0.7;}
.node.selected, .edge.selected {opacity: 1;}
.edge:hover path { stroke: red; }
.edge:hover polygon { stroke: red; fill: red; }
]]></style>

<defs>
  <circle id="rim" cx="0" cy="0" r="7"/>
  <circle id="rim2" cx="0" cy="0" r="3.5"/>
  <g id="zoomPlus">
    <use xlink:href="#rim" fill="#404040"><set attributeName="fill" to="#808080" begin="zoomplus.mouseover" end="zoomplus.mouseout"/></use>
    <path d="M-4,0h8M0,-4v8" fill="none" stroke="white" stroke-width="1.5" pointer-events="none"/>
  </g>
  <g id="zoomMin">
    <use xlink:href="#rim" fill="#404040"><set attributeName="fill" to="#808080" begin="zoomminus.mouseover" end="zoomminus.mouseout"/></use>
    <path d="M-4,0h8" fill="none" stroke="white" stroke-width="1.5" pointer-events="none"/>
  </g>
  <g id="arrowUp" transform="translate(30 24)">
    <use xlink:href="#rim"/>
    <path pointer-events="none" fill="none" stroke="white" stroke-width="1.5" d="M0,-3.0v7 M-2.5,-0.5L0,-3.0L2.5,-0.5"/>
  </g>
  <g id="arrowRight" transform="rotate(90) translate(36 -43)">
    <use xlink:href="#rim"/>
    <path pointer-events="none" fill="none" stroke="white" stroke-width="1.5" d="M0,-3.0v7 M-2.5,-0.5L0,-3.0L2.5,-0.5"/>
  </g>
  <g id="arrowDown" transform="rotate(180) translate(-30 -48)">
    <use xlink:href="#rim"/>
    <path pointer-events="none" fill="none" stroke="white" stroke-width="1.5" d="M0,-3.0v7 M-2.5,-0.5L0,-3.0L2.5,-0.5"/>
  </g>
  <g id="arrowLeft" transform="rotate(270) translate(-36 17)">
    <use xlink:href="#rim"/>
    <path pointer-events="none" fill="none" stroke="white" stroke-width="1.5" d="M0,-3.0v7 M-2.5,-0.5L0,-3.0L2.5,-0.5"/>
  </g>
  <g id="resetDef">
    <use xlink:href="#rim2" fill="#404040"><set attributeName="fill" to="#808080" begin="reset.mouseover" end="reset.mouseout"/></use>
  </g>
</defs>
<script type="application/ecmascript">
var viewWidth = 697;
var viewHeight = 78;
var sectionId = 'dynsection-16';
</script>
<script type="application/ecmascript" xlink:href="../../svg.min.js"/>
<svg id="graph" class="graph">
<g id="viewport">
<title>carla::sensor::RawData::size</title>
<!-- Node1 -->
<g id="Node000001" class="node">
<title>Node1</title>
<g id="a_Node000001"><a xlink:title="Size in bytes of the data generated by the sensor.">
<polygon fill="#999999" stroke="#666666" points="117.25,-48 0,-48 0,-16 117.25,-16 117.25,-48"/>
<text text-anchor="start" x="8" y="-34.5" font-family="Helvetica,sans-Serif" font-size="10.00">carla::sensor::RawData</text>
<text text-anchor="middle" x="58.62" y="-22.5" font-family="Helvetica,sans-Serif" font-size="10.00">::size</text>
</a>
</g>
</g>
<!-- Node2 -->
<g id="Node000002" class="node">
<title>Node2</title>
<g id="a_Node000002"><a xlink:href="../../d3/da0/classcarla_1_1sensor_1_1RawData.html#ad29c6a9698aa66f593286f5e6fc601ea" target="_top" xlink:title="Begin iterator to the data generated by the sensor.">
<polygon fill="white" stroke="#666666" points="281.38,-70 164.12,-70 164.12,-38 281.38,-38 281.38,-70"/>
<text text-anchor="start" x="172.12" y="-56.5" font-family="Helvetica,sans-Serif" font-size="10.00">carla::sensor::RawData</text>
<text text-anchor="middle" x="222.75" y="-44.5" font-family="Helvetica,sans-Serif" font-size="10.00">::begin</text>
</a>
</g>
</g>
<!-- Node1&#45;&gt;Node2 -->
<g id="edge1_Node000001_Node000002" class="edge">
<title>Node1&#45;&gt;Node2</title>
<g id="a_edge1_Node000001_Node000002"><a xlink:title=" ">
<path fill="none" stroke="#63b8ff" d="M117.7,-39.88C129.18,-41.44 141.32,-43.09 153.11,-44.69"/>
<polygon fill="#63b8ff" stroke="#63b8ff" points="152.43,-48.26 162.81,-46.14 153.37,-41.32 152.43,-48.26"/>
</a>
</g>
</g>
<!-- Node5 -->
<g id="Node000005" class="node">
<title>Node5</title>
<g id="a_Node000005"><a xlink:href="../../d3/da0/classcarla_1_1sensor_1_1RawData.html#a436195761ec6eb8a18bc98ba8e9d8725" target="_top" xlink:title="Past&#45;the&#45;end iterator to the data generated by the sensor.">
<polygon fill="white" stroke="#666666" points="292.25,-20 153.25,-20 153.25,0 292.25,0 292.25,-20"/>
<text text-anchor="middle" x="222.75" y="-6.5" font-family="Helvetica,sans-Serif" font-size="10.00">carla::sensor::RawData::end</text>
</a>
</g>
</g>
<!-- Node1&#45;&gt;Node5 -->
<g id="edge4_Node000001_Node000005" class="edge">
<title>Node1&#45;&gt;Node5</title>
<g id="a_edge4_Node000001_Node000005"><a xlink:title=" ">
<path fill="none" stroke="#63b8ff" d="M117.7,-24.12C125.66,-23.04 133.94,-21.92 142.2,-20.79"/>
<polygon fill="#63b8ff" stroke="#63b8ff" points="142.58,-24.14 152.02,-19.33 141.64,-17.2 142.58,-24.14"/>
</a>
</g>
</g>
<!-- Node3 -->
<g id="Node000003" class="node">
<title>Node3</title>
<g id="a_Node000003"><a xlink:href="../../d0/d0a/classcarla_1_1Buffer.html#a0afeda4355e6196d808ddf25142d5dbd" target="_top" xlink:title=" ">
<polygon fill="white" stroke="#666666" points="550.75,-63 453.75,-63 453.75,-43 550.75,-43 550.75,-63"/>
<text text-anchor="middle" x="502.25" y="-49.5" font-family="Helvetica,sans-Serif" font-size="10.00">carla::Buffer::begin</text>
</a>
</g>
</g>
<!-- Node2&#45;&gt;Node3 -->
<g id="edge2_Node000002_Node000003" class="edge">
<title>Node2&#45;&gt;Node3</title>
<g id="a_edge2_Node000002_Node000003"><a xlink:title=" ">
<path fill="none" stroke="#63b8ff" d="M281.59,-53.79C328.89,-53.62 395.48,-53.38 442.92,-53.21"/>
<polygon fill="#63b8ff" stroke="#63b8ff" points="442.65,-56.71 452.64,-53.17 442.62,-49.71 442.65,-56.71"/>
</a>
</g>
</g>
<!-- Node4 -->
<g id="Node000004" class="node">
<title>Node4</title>
<g id="a_Node000004"><a xlink:href="../../d0/d0a/classcarla_1_1Buffer.html#acbf9f37162db2ddffaf2ae2bfb9fd8a5" target="_top" xlink:title=" ">
<polygon fill="white" stroke="#666666" points="689,-63 586.75,-63 586.75,-43 689,-43 689,-63"/>
<text text-anchor="middle" x="637.88" y="-49.5" font-family="Helvetica,sans-Serif" font-size="10.00">carla::Buffer::cbegin</text>
</a>
</g>
</g>
<!-- Node3&#45;&gt;Node4 -->
<g id="edge3_Node000003_Node000004" class="edge">
<title>Node3&#45;&gt;Node4</title>
<g id="a_edge3_Node000003_Node000004"><a xlink:title=" ">
<path fill="none" stroke="#63b8ff" d="M551.11,-53C559.13,-53 567.55,-53 575.84,-53"/>
<polygon fill="#63b8ff" stroke="#63b8ff" points="575.64,-56.5 585.64,-53 575.64,-49.5 575.64,-56.5"/>
</a>
</g>
</g>
<!-- Node6 -->
<g id="Node000006" class="node">
<title>Node6</title>
<g id="a_Node000006"><a xlink:href="../../d0/d0a/classcarla_1_1Buffer.html#ad23e8895923c1535a1099100195a3d2b" target="_top" xlink:title=" ">
<polygon fill="white" stroke="#666666" points="417.75,-23 328.25,-23 328.25,-3 417.75,-3 417.75,-23"/>
<text text-anchor="middle" x="373" y="-9.5" font-family="Helvetica,sans-Serif" font-size="10.00">carla::Buffer::end</text>
</a>
</g>
</g>
<!-- Node5&#45;&gt;Node6 -->
<g id="edge5_Node000005_Node000006" class="edge">
<title>Node5&#45;&gt;Node6</title>
<g id="a_edge5_Node000005_Node000006"><a xlink:title=" ">
<path fill="none" stroke="#63b8ff" d="M292.67,-11.39C300.79,-11.56 308.99,-11.72 316.89,-11.88"/>
<polygon fill="#63b8ff" stroke="#63b8ff" points="316.73,-15.4 326.8,-12.11 316.88,-8.4 316.73,-15.4"/>
</a>
</g>
</g>
<!-- Node7 -->
<g id="Node000007" class="node">
<title>Node7</title>
<g id="a_Node000007"><a xlink:href="../../d0/d0a/classcarla_1_1Buffer.html#a3fa645d9dfbc14a4f0f4d5f6ab2ae2c7" target="_top" xlink:title=" ">
<polygon fill="white" stroke="#666666" points="549.62,-24 454.88,-24 454.88,-4 549.62,-4 549.62,-24"/>
<text text-anchor="middle" x="502.25" y="-10.5" font-family="Helvetica,sans-Serif" font-size="10.00">carla::Buffer::cend</text>
</a>
</g>
</g>
<!-- Node6&#45;&gt;Node7 -->
<g id="edge6_Node000006_Node000007" class="edge">
<title>Node6&#45;&gt;Node7</title>
<g id="a_edge6_Node000006_Node000007"><a xlink:title=" ">
<path fill="none" stroke="#63b8ff" d="M418.15,-13.35C426.43,-13.41 435.19,-13.48 443.8,-13.55"/>
<polygon fill="#63b8ff" stroke="#63b8ff" points="443.55,-17.05 453.58,-13.63 443.61,-10.05 443.55,-17.05"/>
</a>
</g>
</g>
<!-- Node7&#45;&gt;Node4 -->
<g id="edge7_Node000007_Node000004" class="edge">
<title>Node7&#45;&gt;Node4</title>
<g id="a_edge7_Node000007_Node000004"><a xlink:title=" ">
<path fill="none" stroke="#63b8ff" d="M539.06,-24.45C554.94,-29.09 573.81,-34.6 590.73,-39.53"/>
<polygon fill="#63b8ff" stroke="#63b8ff" points="589.39,-43.08 599.97,-42.52 591.35,-36.36 589.39,-43.08"/>
</a>
</g>
</g>
<!-- Node8 -->
<g id="Node000008" class="node">
<title>Node8</title>
<g id="a_Node000008"><a xlink:href="../../d0/d0a/classcarla_1_1Buffer.html#a3edea2e44a05d9806312e5f9e52315e4" target="_top" xlink:title=" ">
<polygon fill="white" stroke="#666666" points="683.75,-24 592,-24 592,-4 683.75,-4 683.75,-24"/>
<text text-anchor="middle" x="637.88" y="-10.5" font-family="Helvetica,sans-Serif" font-size="10.00">carla::Buffer::size</text>
</a>
</g>
</g>
<!-- Node7&#45;&gt;Node8 -->
<g id="edge8_Node000007_Node000008" class="edge">
<title>Node7&#45;&gt;Node8</title>
<g id="a_edge8_Node000007_Node000008"><a xlink:title=" ">
<path fill="none" stroke="#63b8ff" d="M549.99,-14C559.93,-14 570.54,-14 580.79,-14"/>
<polygon fill="#63b8ff" stroke="#63b8ff" points="580.74,-17.5 590.74,-14 580.74,-10.5 580.74,-17.5"/>
</a>
</g>
</g>
</g>
</svg>

<g id="navigator" transform="translate(0 0)" fill="#404254">
  <rect fill="#f2f5e9" fill-opacity="0.5" stroke="#606060" stroke-width=".5" x="0" y="0" width="60" height="60"/>
  <use id="zoomplus" xlink:href="#zoomPlus" x="17" y="9" onmousedown="handleZoom(evt,'in')"/>
  <use id="zoomminus" xlink:href="#zoomMin" x="42" y="9" onmousedown="handleZoom(evt,'out')"/>
  <use id="reset" xlink:href="#resetDef" x="30" y="36" onmousedown="handleReset()"/>
   <use id="arrowup" xlink:href="#arrowUp" x="0" y="0" onmousedown="handlePan(0,-1)"/>
  <use id="arrowright" xlink:href="#arrowRight" x="0" y="0" onmousedown="handlePan(1,0)"/>
  <use id="arrowdown" xlink:href="#arrowDown" x="0" y="0" onmousedown="handlePan(0,1)"/>
  <use id="arrowleft" xlink:href="#arrowLeft" x="0" y="0" onmousedown="handlePan(-1,0)"/>
</g>
<svg viewBox="0 0 15 15" width="100%" height="30px" preserveAspectRatio="xMaxYMin meet">
 <g id="arrow_out" transform="scale(0.3 0.3)">
  <a xlink:href="classcarla_1_1sensor_1_1RawData_ae79dc5e8f8cee2257efa411c4490e5ff_cgraph_org.svg" target="_base">
   <rect id="button" ry="5" rx="5" y="6" x="6" height="38" width="38"
        fill="#f2f5e9" fill-opacity="0.5" stroke="#606060" stroke-width="1.0"/>
   <path id="arrow"
     d="M 11.500037,31.436501 C 11.940474,20.09759 22.043105,11.32322 32.158766,21.979434 L 37.068811,17.246167 C 37.068811,17.246167 37.088388,32 37.088388,32 L 22.160133,31.978069 C 22.160133,31.978069 26.997745,27.140456 26.997745,27.140456 C 18.528582,18.264221 13.291696,25.230495 11.500037,31.436501 z"
     style="fill:#404040;"/>
  </a>
 </g>
</svg>

<style type='text/css'>
<![CDATA[
[data-mouse-over-selected='false'] { opacity: 0.7; }
[data-mouse-over-selected='true']  { opacity: 1.0; }
]]>
</style>
<script type="application/ecmascript"><![CDATA[
document.addEventListener('DOMContentLoaded', (event) => {
  highlightEdges();
  highlightAdjacentNodes();
});
]]></script>
</svg>
